<svg xmlns="http://www.w3.org/2000/svg" viewBox="0 0 1137.09575 692.55222"><circle cx="573" cy="334" r="334" fill="#f2f2f2"/><path fill="#38d39f" d="M955.85 77.8l-20.42 51.43c3.95 17.9 7.82 38.06 10.92 59.55l36.36-76.1.6.9c-8.32-14.4-17.8-26.8-28.07-36.63zm-21.12 48.3l19.8-49.83c-11.62-10.9-24.23-18.5-37.4-21.85-.67-.18-1.35-.33-2.03-.48 1.6 4.72 10.72 32.5 19.63 72.15zm83.57 110.33l.46 1.14q-.73-11.65-2.3-23.05l-63.22 79-.23-.5q-.2 7-.6 13.8zm-11.54-66.46l.53 1.04a258.75 258.75 0 0 0-23.42-56.4l-37.06 77.55q4.23 30.23 5.66 58.33zm-175.73-50.27a216.05 216.05 0 0 0-9.87 42.4l129 75.38c-1.14-16.24-2.9-31.77-4.9-46.13l-114.38-70.45zm-11.58 59.25l.12-1.23 131.46 74.33q-.27-5.98-.67-11.86l-129.5-75.66.14-1.23q-1 7.64-1.55 15.65zm196.31 33.01l.5 1.1a309 309 0 0 0-8.6-40.76l-55 81.6q.83 18.76.4 36.4zm-69.88 146.31c-5.24 26.03-13.3 49.24-24.06 69.37 15.07-12.84 74.88-67.24 92.58-135.2zm-122.91-120.29a298.92 298.92 0 0 0 11.05 38.46l.2-1.33 110.48 80.37a371.63 371.63 0 0 0 5.76-44.17zm110.33-111.54c-9.65-42.9-19.54-71.74-19.68-72.16l.62-.53c-20.22-4.15-38.8 2.44-54.12 17.26zm18.86 183.89c-.1 1.4-.18 2.8-.3 4.2a369.22 369.22 0 0 1-5.2 39.84l67.86-65.2.42 1.12a146.38 146.38 0 0 0 4.42-36.7q-.08-7.28-.5-14.5zm-7.32-121.83c-3.1-21.25-6.9-41.18-10.82-58.86l-74.87-56.7.2-1.18c-11.43 11.35-20.98 27.33-27.94 46.86zm-.59 169.28l-109.67-79.78c27.18 75.33 80.2 147.68 83.58 152.27 12.56-22.05 20.88-46.77 26.1-72.5zm6.32-49.01l.06-.07a501.54 501.54 0 0 0 .52-54l-131.78-74.5q-.7 10.85-.6 22.3a179.7 179.7 0 0 0 3.6 32.53zm185.56 55.28l-48.53 26.6c-8.37 16.3-18.26 34.3-29.57 52.82l76.55-35.42-.13 1.08c2.77-16.4 3.4-32 1.74-46.13zm-47.07 23.72l47.02-25.75c-1.98-15.8-6.85-29.7-14.85-40.67-.4-.57-.84-1.12-1.27-1.67-1.8 4.65-12.47 31.87-30.9 68.1zm-6.01 138.29l-.37 1.17q6.86-9.44 12.93-19.22l-99.08 20.54.15-.54q-4.62 5.26-9.27 10.23zm33.5-58.56l-.25 1.15a258.75 258.75 0 0 0 17.95-58.38l-78 36.1q-16.03 25.97-32.86 48.53zm-103.28-150.8a216.05 216.05 0 0 0-34.65 26.37l51.3 140.34c9.46-13.23 18.02-26.3 25.62-38.65l-43.15-127.2zm-46.71 38.26l.88-.87 53.84 141.1q3.6-4.8 7.05-9.58l-51.5-140.86.9-.86q-5.63 5.25-11.17 11.06zm130.14 150.64l-.32 1.16a309 309 0 0 0 19.38-36.88l-94.43 27.77q-11.3 14.97-22.9 28.3zm-147.14 68.1c-20.64 16.7-41.64 29.46-62.78 38.1 19.8-.3 100.57-4.04 157.55-45.1zm-17.94-171.03a298.92 298.92 0 0 0-16.02 36.66l1-.9 33.84 132.37a371.63 371.63 0 0 0 32.6-30.35zm156.12-15.54c19.93-39.2 30.7-67.72 30.86-68.13h.8c-12.9-16.1-31.43-22.88-52.67-21.24zm-102.76 153.67c-.97 1-1.94 2.04-2.9 3.05a369.22 369.22 0 0 1-29.44 27.35l93.86-6.94-.4 1.14a146.38 146.38 0 0 0 26.8-25.43q4.6-5.67 8.87-11.5zm72.06-98.52c11.18-18.32 20.94-36.12 29.2-52.23l-21.5-91.42.92-.8c-16.05 1.47-33.6 7.7-51.4 18.3zm-108.42 130.02l-33.6-131.4c-27.1 75.34-32.42 164.88-32.73 170.58 23.72-8.97 45.9-22.7 66.32-39.2zm36.13-33.73h.1a501.54 501.54 0 0 0 34.82-41.26l-53.97-141.43q-7.47 7.9-14.68 16.8a179.7 179.7 0 0 0-18 27.33zm-174.62-257.54l-3.52 55.23c9.3 15.8 19.2 33.78 28.8 53.26l11.06-83.62.85.7c-12.36-11.13-25.2-20.02-38.03-26.18zm-5.16 52.47l3.42-53.5c-14.4-6.8-28.76-10.12-42.3-9.24-.7.05-1.4.1-2.1.18 2.97 4 20.24 27.6 40.97 62.55zm113.59 79.1l.8.94q-4.3-10.86-9.32-21.2l-35.7 94.66-.38-.4q1.96 6.7 3.68 13.3zm-31.52-59.65l.83.83a258.75 258.75 0 0 0-39.7-46.4l-11.28 85.2q13.35 27.44 23.4 53.73zm-182.67 6.51a216.05 216.05 0 0 0 3.72 43.38l146 31.8c-6.13-15.08-12.6-29.3-18.95-42.33l-130.53-31.64zm7.31 59.94l-.27-1.22 148 30.06q-2.1-5.6-4.3-11.07l-146.53-31.92-.26-1.2q1.43 7.55 3.38 15.34zm196.9-29.3l.8.9a309 309 0 0 0-20.76-36.1l-27.1 94.6q6.6 17.58 11.66 34.5zm-21.23 160.75c3.05 26.38 2.58 50.94-1.45 73.4 10.36-16.86 50.43-87.08 46.26-157.2zm-154.08-76.41a298.93 298.93 0 0 0 22.4 33.16l-.22-1.32 129.9 42.27a371.63 371.63 0 0 0-8.17-43.78zm70.45-140.18c-22.44-37.82-40.76-62.2-41.02-62.54l.42-.7c-20.5 2.3-36.15 14.33-46.13 33.15zm74.78 169.04c.34 1.38.7 2.75 1.02 4.1a369.22 369.22 0 0 1 7.35 39.5l44.4-83 .74.96a146.38 146.38 0 0 0-7.12-36.25q-2.33-6.9-4.97-13.64zm-44.63-113.6c-9.5-19.24-19.3-37-28.48-52.62l-88.73-30.78-.18-1.18c-7.37 14.32-11.5 32.48-12.1 53.2zm51.77 161.2l-128.96-41.97c49.13 63.22 121.9 115.65 126.56 118.97 5.13-24.85 5.4-50.94 2.4-77zm-9.14-48.58l.04-.08a501.54 501.54 0 0 0-16.2-51.5l-148.34-30.14q2.68 10.54 6.34 21.4a179.7 179.7 0 0 0 13.46 29.82z"/><path fill="#f2f2f2" d="M741.82 607.2q151.46-1.8 302.9 2.03c8.7.22 17.7.5 25.38 2.8s13.57 7.24 11.47 11.98q-59.12 1.76-118.36 1.1c-8.6 4.2-18.04 10.55-12.75 16.23 3.66 3.94 12.7 5.1 20.58 5.12 14.3 0 28.66-2.34 42.75-.96s28.15 8.78 24.02 16.47c-3.13 5.84-15.02 8.74-25.85 9.25s-21.9-.55-32.47.83c-10.05 1.3-18.76 4.73-28.17 7.1-14.83 3.78-31.28 4.94-47.46 5.93-124.27 7.6-249.58 7.53-374.58 7.46-50.6-.03-101.9-.1-150.77-7.5-27.87-4.2-54.56-10.74-82.77-14.14-33.7-4.05-68.52-3.5-102.97-3.38q-90.74.32-181.32-3.5c-4.5-.18-10-.83-11.22-3.27-1.42-2.84 4.33-5.06 9.18-6.2a533.26 533.26 0 0 1 83.66-12.48c14.27-1 28.97-1.5 42.1-4.8s24.58-10.24 24.46-18.32c-.04-2.47-1.08-5.1.98-7.28 2.73-2.9 9.45-3.55 15.25-3.87 64.27-3.5 128.9-4.95 193.45-4.36 22.7.2 45.5.66 68.06-.87 18.48-1.25 36.57-3.83 54.78-6 24.44-2.9 130.8-17.9 146.33-5.72 11.6 9.12-12.37 11.1 18.8 14.82 27.1 3.24 57.03 1.84 84.55 1.52z"/><circle cx="686" cy="230" r="60" fill="#2f2e41"/><circle cx="751" cy="151" r="60" fill="#2f2e41"/><path fill="#2f2e41" d="M802.75 200.68a60 60 0 0 1-92.65-31.5 60 60 0 1 0 117.04-24.6 59.98 59.98 0 0 1-24.4 56.1z"/><circle cx="670.5" cy="253.5" r="49" fill="#a0616a"/><path fill="#a0616a" d="M653.5 293.5s20 30 17 43c0 0-13 6-13 8l-12 21-14 19-6 25h29l32-25 31-34s21-10 32-2l6 5s-21-28-31-34c0 0-18-22-16-44zm8 42s-20 11-28 32l-44 91s-3 45-1 47 25-20 29-26l20-78 26-42 5-24zm-63 126l-9-3s-55-34-58-49-47-65-48-38l32 57s72 101 76 72zm91-69s1 28 40 38c0 0 40 54 44 78l109 147s97 12 97 0l-81-22s-85-126-89-143-42-143-60-142c0 0-17-8-27-2l-33 46zm-117 113s-70-94-85-100-34-10-45 4l-141 178s-46 47-69 38c0 0-12 10 16 12l54-6s17 3 29 6 27 4 26-4l-4-32s103-85 106-121c0 0-2-17 0-15s44 47 63 57l66 24z"/><path d="M572.5 505.5s-70-94-85-100-34-10-45 4l-141 178s-46 47-69 38c0 0-12 10 16 12l54-6s17 3 29 6 27 4 26-4l-4-32s103-85 106-121c0 0-2-17 0-15s44 47 63 57l66 24z" opacity=".1"/><path fill="#a0616a" d="M583.5 518.5s-92-35-104-43-55-24-77-6-129 101-165 109l-98 27s-40 3 3 20c0 0 53 5 62 13s39 18 41 5 8-30 19-32 143-38 163-77c0 0 45 25 73 54l94 45z"/><path fill="#3f3d56" d="M616.5 486.5s-43.84 11.65-47.42 7.33-22.58 19.67-4.58 67.67 14 70 24 77 57-4 71 1 32 9 38-20 21-80 18-87l-19-23-33-17z"/><path fill="#2f2e41" d="M768 374s-6.96-19.5-19.9-23.16a33.2 33.2 0 0 1-3.2-1.05c-4.87-1.94-19.67-6.15-30.4 8.7-13 18-25 39-15 51l30 19 15 19s-30 54-30 79c0 0-1 10-18-8l-86.57-30.44s14.57-19.56 3.57-28.56-21.07-44.85 4.96-58.92l44.54-65.57 8 1s-10.5 9.5-11.5 14.5-41 40-25 46 42-7 53-22c6.05-8.25 14.52-19.52 25.24-26.67a37.4 37.4 0 0 1 37.4-2l3.36 1.67a42.84 42.84 0 0 1 14.8 18.22l1.2 2.78z"/><circle cx="702" cy="240" r="44" fill="#2f2e41"/><ellipse cx="665" cy="223.5" fill="#2f2e41" rx="39" ry="30.5"/><ellipse cx="679.5" cy="271.5" fill="#a0616a" rx="6.5" ry="11.5"/><path fill="#ff6584" d="M690.5 170.36v79.64h-23v-79.64a5.36 5.36 0 0 1 5.36-5.36h12.28a5.36 5.36 0 0 1 5.36 5.36z"/><circle cx="679" cy="266" r="25" fill="#38d39f"/><circle cx="679" cy="266" r="11" fill="#f2f2f2"/><circle cx="679" cy="266" r="3" fill="#ff6584"/><path d="M690.5 170.36v3.64h-23v-3.64a5.36 5.36 0 0 1 5.36-5.36h12.28a5.36 5.36 0 0 1 5.36 5.36z" opacity=".1"/><path fill="#2f2e41" d="M423.35 367.65l58.88-58.88a10.98 10.98 0 0 1 15.54 0l52.96 52.96a10.98 10.98 0 0 1 0 15.54l-55 55a10.98 10.98 0 0 1-14.96.55l-56.83-49.1a10.98 10.98 0 0 1-.6-16.07z"/><path fill="#f2f2f2" d="M440 377l51.5-51.5 42.5 42.5-49.5 49.5-44.5-40.5z"/><circle cx="488" cy="371" r="24.611" fill="#38d39f"/><path d="M477.05 391.98a24.6 24.6 0 0 1 25.07-41.14 24.6 24.6 0 1 0-22.34 43.36 24.78 24.78 0 0 1-2.73-2.22z" opacity=".1"/><path fill="#f2f2f2" d="M500.1 366.1c2.93 2.77 3.1 12.7-1.4 17.46s-11.9 2.58-14.83-.18-.27-5.03 4.2-9.8 9.1-10.23 12.03-7.47z"/><circle cx="475.115" cy="371.401" r="7.292" fill="#2f2e41"/><circle cx="488.223" cy="357.451" r="7.292" fill="#2f2e41"/><circle cx="475.115" cy="371.401" r="1.823" fill="#f2f2f2"/><circle cx="474.331" cy="366.912" r=".912" fill="#f2f2f2"/><circle cx="487.438" cy="352.962" r=".912" fill="#f2f2f2"/><circle cx="488.223" cy="357.451" r="1.823" fill="#f2f2f2"/></svg>