<?xml version="1.0" encoding="utf-8"?>
<!-- Generator: Adobe Illustrator 22.1.0, SVG Export Plug-In . SVG Version: 6.00 Build 0)  -->
<svg xmlns="http://www.w3.org/2000/svg" xmlns:xlink="http://www.w3.org/1999/xlink" x="0px" y="0px"
	 viewBox="0 0 200.4 66.5" style="enable-background:new 0 0 200.4 66.5;" xml:space="preserve">
<style type="text/css">
	.airbnb-0{fill:#7B878D;}
</style>
<path class="airbnb-0" d="M105.7,17.9c0,2.3-1.8,4.1-4.1,4.1s-4.1-1.8-4.1-4.1s1.8-4.1,4.1-4.1C104,13.9,105.7,15.7,105.7,17.9z M89,26.1
	c0,0.4,0,1,0,1s-1.9-2.5-6.1-2.5c-6.8,0-12.1,5.2-12.1,12.4c0,7.1,5.3,12.4,12.1,12.4c4.2,0,6.1-2.6,6.1-2.6v1.1
	c0,0.5,0.4,0.9,0.9,0.9h5.1V25.2c0,0-4.6,0-5.1,0C89.3,25.2,89,25.6,89,26.1z M89,41.1c-0.9,1.4-2.8,2.6-5.1,2.6
	c-4,0-7.1-2.5-7.1-6.8s3.1-6.8,7.1-6.8c2.2,0,4.2,1.3,5.1,2.6V41.1z M98.6,25.2h6v23.5h-6V25.2z M188.3,24.6c-4.1,0-6.1,2.5-6.1,2.5
	V13.9h-6v34.8c0,0,4.6,0,5.1,0c0.5,0,0.9-0.4,0.9-0.9v-1.1l0,0c0,0,1.9,2.6,6.1,2.6c6.8,0,12.1-5.3,12.1-12.4
	C200.4,29.8,195.1,24.6,188.3,24.6z M187.3,43.6c-2.3,0-4.1-1.2-5.1-2.6v-8.4c0.9-1.3,2.9-2.6,5.1-2.6c4,0,7.1,2.5,7.1,6.8
	S191.3,43.6,187.3,43.6z M173.1,34.8v14h-6V35.5c0-3.9-1.3-5.4-4.6-5.4c-1.8,0-3.7,0.9-4.9,2.3v16.4h-6V25.2h4.8
	c0.5,0,0.9,0.4,0.9,0.9v1c1.8-1.8,4.1-2.5,6.4-2.5c2.6,0,4.8,0.8,6.6,2.3C172.3,28.6,173.1,30.8,173.1,34.8z M137,24.6
	c-4.1,0-6.1,2.5-6.1,2.5V13.9h-6v34.8c0,0,4.6,0,5.1,0c0.5,0,0.9-0.4,0.9-0.9v-1.1l0,0c0,0,1.9,2.6,6.1,2.6
	c6.8,0,12.1-5.3,12.1-12.4C149.2,29.8,143.9,24.6,137,24.6z M136,43.6c-2.3,0-4.1-1.2-5.1-2.6v-8.4c0.9-1.3,2.9-2.6,5.1-2.6
	c4,0,7.1,2.5,7.1,6.8S140,43.6,136,43.6z M119.8,24.6c1.8,0,2.8,0.3,2.8,0.3v5.6c0,0-5-1.7-8.1,1.9v16.4h-6V25.2c0,0,4.6,0,5.1,0
	c0.5,0,0.9,0.4,0.9,0.9v1C115.5,25.8,117.9,24.6,119.8,24.6z M57.4,46.6c-0.3-0.8-0.6-1.6-0.9-2.3c-0.5-1.1-1-2.2-1.4-3.2L55,41.1
	c-4.3-9.4-8.9-18.9-13.8-28.3L41,12.4c-0.5-0.9-1-1.9-1.5-2.9c-0.6-1.1-1.3-2.3-2.3-3.4c-2-2.5-4.9-3.9-7.9-3.9
	c-3.1,0-5.9,1.4-8,3.8c-0.9,1.1-1.6,2.3-2.3,3.4c-0.5,1-1,2-1.5,2.9l-0.2,0.4C12.5,22.1,7.9,31.6,3.5,41l-0.1,0.1
	c-0.4,1-0.9,2.1-1.4,3.2c-0.3,0.7-0.6,1.4-0.9,2.3C0.3,48.8,0,51,0.3,53.3C1,58,4.2,61.9,8.5,63.7c1.6,0.7,3.3,1,5.1,1
	c0.5,0,1.1-0.1,1.6-0.1c2.1-0.3,4.2-0.9,6.3-2.1c2.6-1.4,5-3.5,7.8-6.5c2.8,3,5.3,5.1,7.8,6.5c2.1,1.2,4.2,1.9,6.3,2.1
	c0.5,0.1,1.1,0.1,1.6,0.1c1.8,0,3.5-0.3,5.1-1c4.4-1.8,7.4-5.8,8.1-10.4C58.5,51.1,58.3,48.9,57.4,46.6z M29.2,49.8
	c-3.4-4.3-5.6-8.3-6.3-11.6c-0.3-1.4-0.4-2.7-0.2-3.8c0.1-1,0.5-1.9,1-2.6c1.2-1.7,3.2-2.8,5.5-2.8s4.4,1,5.5,2.8
	c0.5,0.8,0.9,1.6,1,2.6c0.2,1.1,0.1,2.4-0.2,3.8C34.8,41.5,32.6,45.5,29.2,49.8z M54.2,52.8c-0.4,3.3-2.6,6.1-5.7,7.3
	c-1.5,0.6-3.1,0.8-4.8,0.6c-1.6-0.2-3.1-0.7-4.8-1.6c-2.3-1.3-4.5-3.2-7.1-6.1c4.1-5.1,6.6-9.7,7.6-13.8c0.4-1.9,0.5-3.7,0.3-5.3
	c-0.3-1.6-0.8-3-1.7-4.3c-1.9-2.8-5.2-4.4-8.8-4.4s-6.9,1.7-8.8,4.4c-0.9,1.3-1.4,2.7-1.7,4.3c-0.3,1.6-0.2,3.4,0.3,5.3
	c0.9,4.1,3.5,8.8,7.6,13.9c-2.6,2.9-4.9,4.8-7.1,6.1c-1.6,0.9-3.2,1.4-4.8,1.6C13,61,11.4,60.7,10,60.2c-3.1-1.3-5.3-4.1-5.7-7.3
	c-0.2-1.6-0.1-3.1,0.6-4.9c0.2-0.6,0.5-1.3,0.8-2c0.4-1,0.9-2.1,1.4-3.1l0.1-0.1c4.3-9.3,8.9-18.8,13.8-28.1l0.2-0.4
	c0.5-0.9,1-1.9,1.5-2.9c0.5-1,1.1-1.9,1.8-2.8c1.3-1.5,3.1-2.3,5-2.3s3.7,0.8,5,2.3c0.7,0.8,1.3,1.8,1.8,2.8c0.5,0.9,1,1.9,1.5,2.9
	l0.2,0.4c4.8,9.3,9.4,18.8,13.7,28.1v0.1c0.5,1,0.9,2.1,1.4,3.1c0.3,0.8,0.6,1.4,0.8,2C54.2,49.6,54.4,51.1,54.2,52.8z"/>
</svg>
