<svg viewBox="0 0 1280 640" xmlns="http://www.w3.org/2000/svg"><path d="M124 147.7c-34.3 3.4-61.3 15.5-81.3 36.2-22.2 23-34.4 52.6-40.3 97.6-2.2 16.4-2.5 64.1-.6 78.5 6 44.3 18.2 73.1 40.2 95 20.1 20 47 31.7 82.5 35.9 33.6 3.9 64.7 1.1 92.9-8.3 10.5-3.5 27.1-11.2 31.7-14.7l2.4-1.8.3-83.2c.2-73.5.1-83.5-1.3-85.5l-1.5-2.4h-56.5c-54.8 0-56.5.1-57.5 1.9-1.4 2.6-1.4 55.6 0 58.2 1 1.8 2.3 1.9 23.5 1.9h22.5v65.8l-7.2 1.3c-10 1.7-39.7 1.8-47.3.1-3.3-.8-9.7-3.1-14.2-5.3-28-13.4-41.6-49.2-40-105.4.3-10.5 1.3-23.3 2.2-28.5 6.4-38.2 23.6-60.2 53.3-68.2 6.1-1.6 11.7-2.2 27.4-2.5 23-.6 35.4.6 51.8 4.9 15.3 4.1 16.4 4.2 17.8 2.5 1.3-1.6 13.2-51.1 13.2-55 0-2.2-.9-3.1-5.7-5.5-18.5-9.3-49.2-14.3-85.3-14-10.7.1-21.1.3-23 .5zm443.4 12.7c-1.9 1.4-1.9 4.4-2.2 161.2-.2 142.1 0 160 1.3 162.1l1.5 2.3h32.5c28.1 0 32.6-.2 33.9-1.6 1.4-1.4 1.6-9.1 1.6-70.2v-68.7h94v68c0 60 .2 68.3 1.6 70.3 1.5 2.2 1.6 2.2 33.8 2.2 30 0 32.4-.1 33.9-1.8 1.6-1.7 1.7-14.4 1.7-161.9 0-153.7-.1-160.1-1.8-161.6-1.6-1.5-5.4-1.7-33.3-1.7-25.6 0-31.9.3-33.5 1.4-1.8 1.4-1.9 3.4-2.2 61l-.2 59.6h-94v-59.3c0-56.3-.1-59.5-1.8-61-1.6-1.5-5.4-1.7-33.3-1.7-25.6 0-31.9.3-33.5 1.4zm501.6.6c-2 2-2 3.3-2 161.3 0 142.5.2 159.5 1.6 161.5 1.5 2.2 1.9 2.2 24.8 2.2 19.3 0 23.6-.3 24.6-1.5.6-.8 1.7-4.6 2.4-8.4l1.1-7.1 5 3.6c11.8 8.6 32.2 16.2 49.2 18.5 12.3 1.6 35.6.6 45.4-2 40.6-10.6 58.8-48.1 58.9-120.9 0-43.2-8.9-72.4-28-91.3-12.1-12-25.3-17.7-46.4-20-18.1-2-41 2-58.4 10.1-4.7 2.2-8.6 4-8.8 4s-.4-24.5-.4-54.3c0-51.4-.1-54.5-1.8-56-1.6-1.5-5.5-1.7-33.5-1.7-30.4 0-31.8.1-33.7 2zm119.8 156c10.5 4.6 16.8 14.8 19.8 32.3 2.2 12.3 1.5 47.5-1.1 58.7-3.7 16.2-10.3 23.6-23.1 26-11.7 2.2-31-.7-42.3-6.5l-5.1-2.5.2-50.7.3-50.7 7.8-3.3c16.1-6.7 32.8-8 43.5-3.3zm-873-149.9c-12.1 1.7-24.2 10.9-29.6 22.7-5.6 12.3-3.7 28.7 4.6 39.7 11.1 14.7 30.8 19.7 47.2 11.9 16.1-7.6 25.3-25 22.1-42-4-21.8-22.4-35.2-44.3-32.3zm132.7 32.9l-32 .5-.3 32.1-.2 32.2-17.3 4.2c-10.4 2.5-17.7 4.8-18.4 5.8-1 1.1-1.3 7.3-1.3 22.7 0 19.3.2 21.3 1.8 22.8 1.6 1.4 4.4 1.7 18.5 1.7h16.6l.4 56.2c.4 63.4.4 63.1 8 78.8 7.5 15.4 20.5 25.7 39 31 16.5 4.6 39.4 5 58.2 1 15.8-3.4 14.5-.9 14.5-28.9 0-20.1-.2-24.1-1.5-25.1-1.1-.9-4.3-1.1-11.3-.8-22 1.2-33.1-3.5-36.7-15.6-1.2-4.1-1.5-13.3-1.5-50.8v-45.8h23.3c18.5 0 23.7-.3 25.3-1.4 1.8-1.3 1.9-3 2.2-27.1.3-22 .1-26-1.3-28.1l-1.5-2.4h-48l-.2-31.1c-.3-30.2-.4-31.2-2.3-31.8-1.1-.3-16.4-.4-34-.1zm-160.8 64.8c-1.6 1.7-1.7 10.4-1.7 109.5v107.6l2.6 2c2.6 2 3.8 2.1 33.4 2.1 29.9 0 30.7-.1 32.6-2.1 1.8-2 1.9-5.5 2.1-108.8.2-84.9 0-107.1-1-109.1l-1.3-2.5-32.5-.3c-30.6-.2-32.7-.1-34.2 1.6zm545.4-.1l-2.2 1.8.3 84.5c.3 82.9.4 84.6 2.5 92 9.1 31.7 28.7 46 67.2 49 27.7 2 55.2-4.1 78.4-17.6 3.2-1.9 6-3.4 6.2-3.4s.6 2.4 1 5.2c1.3 10.2.4 9.8 25 9.8 18.1 0 21.6-.2 22.9-1.6 1.4-1.4 1.6-12.7 1.6-109.9v-108.4l-2.2-1.5c-3.3-2.4-62.3-2.4-65.6 0l-2.2 1.5v158l-8.2 3.9c-17.2 8.2-36.7 9.3-46.9 2.5-2.2-1.4-4.6-4.3-6-7.2l-2.4-4.8-.5-76.2c-.4-60.6-.8-76.5-1.8-77.5s-8.7-1.4-33.1-1.6c-29.3-.3-32-.1-34 1.5z" fill="#7B878D"/></svg>