<?xml version="1.0" encoding="utf-8"?>
<!-- Generator: Adobe Illustrator 22.1.0, SVG Export Plug-In . SVG Version: 6.00 Build 0)  -->
<svg xmlns="http://www.w3.org/2000/svg" xmlns:xlink="http://www.w3.org/1999/xlink" x="0px" y="0px"
	 viewBox="0 0 200.4 66.5" style="enable-background:new 0 0 200.4 66.5;" xml:space="preserve">
<style type="text/css">
	.hubspot-0{fill:#7B878D;}
</style>
<path class="hubspot-0" d="M0,14.9h7v15.5h14.7V14.9h7V53h-7V37.1H7V53H0V14.9z M50.9,40.6c0,3.2-2.6,5.8-5.8,5.8c-3.2,0-5.8-2.6-5.8-5.8
	V24.2h-6.6v16.4c0,6.8,5.6,12.4,12.4,12.4c6.8,0,12.4-5.6,12.4-12.4V24.2h-6.6V40.6 M76,24.3c-3.3,0-5.6,1-7.8,3.1V14.9h-6.6v23.4
	C61.5,47,67.9,53,75,53c7.9,0,14.8-6.1,14.8-14.3C89.8,30.6,83.4,24.3,76,24.3L76,24.3z M76.2,46.8c-4.5,0-8-3.8-8-8.2
	c0-4.4,3.4-8.2,8-8.2c3.8,0,7.3,3.8,7.3,8.2C83.4,43.1,80,46.8,76.2,46.8z M101,26c0-3.3,2.2-4.4,4.7-4.4c2,0,4.6,1.5,6.3,3.3
	l4.3-5.1c-2.2-2.9-6.6-4.9-10.2-4.9c-7.2,0-12.4,4.2-12.4,11.1c0,12.9,15.9,8.8,15.9,16c0,2.2-2.2,4.2-4.7,4.2c-3.9,0-5.2-1.9-7-3.9
	l-4.8,5c3.1,3.8,6.9,5.7,11.5,5.7c6.8,0,12.4-4.2,12.4-10.9C116.8,27.8,101,32.2,101,26 M134.3,24c-7.1,0-13.4,6-13.4,14.7v23.4h6.6
	V49.5c2.2,2.2,4.5,3.1,7.8,3.1c7.4,0,13.8-6.2,13.8-14.3C149.1,30.1,142.2,24,134.3,24L134.3,24z M135.5,46.5c-4.5,0-8-3.8-8-8.2
	c0-4.4,3.4-8.2,8-8.2c3.8,0,7.3,3.8,7.3,8.2C142.8,42.7,139.3,46.5,135.5,46.5z M198.1,46.8c-3.9,0-5-1.7-5-4.3V31h6.1v-5.8H193
	v-7.7l-6.7,3V44c0,6,4.1,9,9.8,9c0.8,0,2-0.1,2.7-0.2l1.6-6C199.7,46.8,198.8,46.8,198.1,46.8"/>
<path class="hubspot-0" d="M180.5,31.4c-1.3-2.2-3.1-4-5.3-5.3c-1.7-1-3.4-1.6-5.4-1.9v-7c2-0.8,3.2-2.7,3.2-4.8c0-2.9-2.3-5.3-5.3-5.3
	c-2.9,0-5.3,2.4-5.3,5.3c0,2.1,1.1,4,3.1,4.8v7c-1.6,0.2-3.2,0.7-4.7,1.5c-3-2.3-13-9.8-18.8-14.3c0.1-0.5,0.2-1,0.2-1.5
	c0-3.2-2.6-5.9-5.9-5.9s-5.9,2.6-5.9,5.9c0,3.2,2.6,5.9,5.9,5.9c1.1,0,2.1-0.3,3-0.9l1.2,0.9L157.6,28c-0.9,0.8-1.7,1.7-2.4,2.8
	c-1.3,2.1-2.2,4.5-2.2,7v0.5c0,1.8,0.3,3.5,0.9,5.1c0.5,1.4,1.3,2.7,2.2,3.8l-5.6,5.6c-1.7-0.6-3.5-0.2-4.8,1
	c-0.9,0.8-1.3,2-1.3,3.2c0,1.2,0.5,2.3,1.3,3.2c0.8,0.9,2,1.3,3.2,1.3c1.2,0,2.4-0.5,3.2-1.3c0.9-0.8,1.3-2,1.3-3.2
	c0-0.5-0.1-0.9-0.2-1.4l5.8-5.8c0.8,0.5,1.6,1,2.6,1.4c1.8,0.8,3.8,1.3,6,1.3h0.4c2.4,0,4.7-0.6,6.9-1.7c2.3-1.2,4-2.9,5.4-5.1
	c1.3-2.2,2.1-4.5,2.1-7.2v-0.1C182.4,35.9,181.8,33.5,180.5,31.4L180.5,31.4z M173.5,43.5c-1.6,1.7-3.4,2.8-5.4,2.8h-0.3
	c-1.2,0-2.3-0.3-3.4-0.9c-1.3-0.6-2.2-1.6-3-2.7c-0.8-1.1-1.2-2.4-1.2-3.7v-0.4c0-1.3,0.2-2.5,0.9-3.7c0.7-1.3,1.6-2.3,2.8-3
	c1.2-0.8,2.5-1.2,3.9-1.2h0.1c1.3,0,2.5,0.3,3.6,0.8c1.2,0.6,2.1,1.5,2.9,2.6c0.7,1.1,1.1,2.3,1.3,3.6c0,0.3,0,0.6,0,0.8
	C175.5,40.3,174.8,42,173.5,43.5L173.5,43.5z"/>
</svg>
