<?xml version="1.0" encoding="utf-8"?>
<!-- Generator: Adobe Illustrator 23.0.3, SVG Export Plug-In . SVG Version: 6.00 Build 0)  -->
<svg version="1.1" id="Layer_1" xmlns="http://www.w3.org/2000/svg" xmlns:xlink="http://www.w3.org/1999/xlink" x="0px" y="0px"
	 viewBox="0 0 200.4 66.5" style="enable-background:new 0 0 200.4 66.5;" xml:space="preserve">
<style type="text/css">
	.st1{fill:#7B878D;}
	.st2{fill-rule:evenodd;clip-rule:evenodd;fill:#7B878D;}
</style>
<g>
	<g>
		<g>
			<path class="st1" d="M2.4,13.1v25.2h7.1V13.1H2.4z"/>
		</g>
		<g>
			<path class="st1" d="M20,25.8h-2.2L25,13.1h-5.4c0,0-7.3,12.7-7.3,12.7l8,12.5h7.8L20,25.8z"/>
		</g>
	</g>
	<g>
		<path class="st1" d="M166,13.1c0,0,0,12.6,0,16.1c-2-3-10.6-16.1-10.6-16.1h-5.9v25.1h6.3c0,0,0-12.7,0-16.2
			c2,3,10.8,16.2,10.8,16.2h5.6V13.1H166z"/>
	</g>
	<path class="st1" d="M101.2,13.1H95v25.2h15V34h-8.8C101.2,34,101.2,13.1,101.2,13.1z"/>
	<path class="st1" d="M44.1,13.1L32.9,38.3h5l2.8-6.4l8.7,0l2.6,6.4h7.2l-11-25.1C48.1,13.1,44.1,13.1,44.1,13.1z M47.8,28.2h-5.6
		l2.9-6.7L47.8,28.2z"/>
	<path class="st1" d="M127,13.1l-11.2,25.1h5l2.7-6.4l8.7,0l2.6,6.4h7.2l-11-25.1C130.9,13.1,127,13.1,127,13.1z M130.7,28.2h-5.6
		l2.9-6.7L130.7,28.2z"/>
	<path class="st1" d="M67.7,13v25.3h6.2c0,0,0-7.7,0-8.9c0.5,0,3,0,3,0c0.3,0,2.3,0.1,4.3-0.6c2.1-0.7,5.3-3.3,5.3-7.6
		c0-2.2-0.5-3.9-1.6-5.2c-1.6-2-4.4-3-8.6-3L67.7,13L67.7,13z M75.6,17.2c3.1,0,4.5,1.2,4.5,3.9c0,1.5-0.4,2.7-1.3,3.5
		c-0.6,0.6-1.5,0.7-3.6,0.7c0,0-0.9,0-1.4,0c0-1.1,0-7,0-8.1C74.4,17.2,75.6,17.2,75.6,17.2z"/>
</g>
<path class="st2" d="M182.5,0.3H178c10.4,6.1,16.9,13.4,16.9,21.1c0,22.9-48.6,39.8-108,39.8c-34.3,0-64.8-5.9-84.5-15.2v4.8
	c20.4,9.4,50.7,15.3,84.5,15.3C151,66.2,198,46.7,198,22.6C198,14.4,192.4,6.8,182.5,0.3z"/>
</svg>
