<?xml version="1.0" encoding="utf-8"?>
<!-- Generator: Adobe Illustrator 22.1.0, SVG Export Plug-In . SVG Version: 6.00 Build 0)  -->
<svg xmlns="http://www.w3.org/2000/svg" xmlns:xlink="http://www.w3.org/1999/xlink" x="0px" y="0px"
	 viewBox="0 0 200.4 66.5" style="enable-background:new 0 0 200.4 66.5;" xml:space="preserve">
<style type="text/css">
	.mapbox-0{fill:#7B878D;}
</style>
<g>
	<path class="mapbox-0" d="M149.5,22.9c-2.5,0-4.9,1-6.7,2.9v-9.6c0-0.3-0.3-0.6-0.6-0.6l0,0h-3.4c-0.3,0-0.6,0.3-0.6,0.6v26.1
		c0,0.3,0.3,0.6,0.6,0.6h3.4c0.3,0,0.6-0.3,0.6-0.6l0,0v-1.8c1.7,1.8,4.1,2.9,6.7,2.9c5.3,0,9.6-4.6,9.6-10.2S154.8,22.9,149.5,22.9
		z M148.7,39.2c-3.2,0-5.8-2.7-5.8-6V33c0.1-3.3,2.6-6,5.8-6c3.2,0,5.8,2.7,5.8,6.1S152,39.2,148.7,39.2L148.7,39.2z"/>
	<path class="mapbox-0" d="M171.6,22.9c-5.7,0-10.3,4.6-10.3,10.2s4.6,10.2,10.3,10.2c5.7,0,10.3-4.6,10.3-10.2S177.3,22.9,171.6,22.9z
		 M171.5,39.2c-3.2,0-5.8-2.7-5.8-6.1c0-3.4,2.6-6.1,5.8-6.1c3.2,0,5.8,2.7,5.8,6.1C177.4,36.5,174.8,39.2,171.5,39.2L171.5,39.2z"
		/>
	<path class="mapbox-0" d="M108.3,23.5h-3.4c-0.3,0-0.6,0.3-0.6,0.6l0,0v1.8c-1.7-1.8-4.1-2.9-6.7-2.9c-5.3,0-9.6,4.6-9.6,10.2
		s4.3,10.2,9.6,10.2c2.5,0,4.9-1,6.7-2.9v1.8c0,0.3,0.3,0.6,0.6,0.6l0,0h3.4c0.3,0,0.6-0.3,0.6-0.6l0,0V24
		C108.9,23.7,108.6,23.5,108.3,23.5z M98.5,39.2c-3.2,0-5.8-2.7-5.8-6.1c0-3.4,2.6-6.1,5.8-6.1s5.8,2.7,5.8,6v0.2
		C104.3,36.5,101.7,39.2,98.5,39.2L98.5,39.2z"/>
	<path class="mapbox-0" d="M125.2,22.9c-2.5,0-4.9,1-6.7,2.9V24c0-0.3-0.3-0.6-0.6-0.6l0,0h-3.4c-0.3,0-0.6,0.3-0.6,0.6l0,0v26.1
		c0,0.3,0.3,0.6,0.6,0.6l0,0h3.4c0.3,0,0.6-0.3,0.6-0.6l0,0v-9.6c1.7,1.8,4.1,2.9,6.7,2.9c5.3,0,9.6-4.6,9.6-10.2
		S130.5,22.9,125.2,22.9z M124.4,39.2c-3.2,0-5.8-2.7-5.8-6V33c0.1-3.3,2.6-6,5.8-6c3.2,0,5.8,2.7,5.8,6.1S127.7,39.2,124.4,39.2
		L124.4,39.2z"/>
	<path class="mapbox-0" d="M78,22.9c-2.5,0-4.8,1.5-5.9,3.8c-1.2-2.4-3.7-3.8-6.4-3.8c-2.1,0-4,1-5.2,2.7V24c0-0.3-0.3-0.6-0.6-0.6l0,0
		h-3.4c-0.3,0-0.6,0.3-0.6,0.6l0,0v18.2c0,0.3,0.3,0.6,0.6,0.6l0,0h3.4c0.3,0,0.6-0.3,0.6-0.6l0,0V31.3c0.1-2.4,1.8-4.4,3.9-4.4
		c2.2,0,3.9,1.8,3.9,4.1v11.1c0,0.3,0.3,0.6,0.6,0.6h3.4c0.3,0,0.6-0.3,0.6-0.6l0,0l0-11.3c0.3-2.2,1.9-3.9,3.8-3.9
		c2.2,0,3.9,1.8,3.9,4.1v11.1c0,0.3,0.3,0.6,0.6,0.6h3.4c0.3,0,0.6-0.3,0.6-0.6l0,0l0-12.5C85.1,26,81.9,22.9,78,22.9z"/>
	<path class="mapbox-0" d="M200.2,42l-5.9-8.9l5.8-8.9c0.2-0.2,0.1-0.6-0.2-0.7c-0.1-0.1-0.2-0.1-0.3-0.1h-3.9c-0.3,0-0.6,0.2-0.7,0.4
		l-3.4,5.7l-3.4-5.7c-0.2-0.3-0.4-0.4-0.7-0.4h-3.9c-0.3,0-0.5,0.2-0.5,0.5c0,0.1,0,0.2,0.1,0.3l5.8,8.9L183,42
		c-0.2,0.2-0.1,0.6,0.2,0.7c0.1,0.1,0.2,0.1,0.3,0.1h3.9c0.3,0,0.6-0.2,0.7-0.4l3.5-5.8l3.5,5.8c0.2,0.3,0.4,0.4,0.7,0.4h3.9
		c0.3,0,0.5-0.2,0.5-0.5C200.2,42.2,200.2,42.1,200.2,42z"/>
</g>
<g>
	<path class="mapbox-0" d="M22.9,10.6c-12.4,0-22.5,10.1-22.5,22.5s10.1,22.5,22.5,22.5s22.5-10.1,22.5-22.5S35.3,10.6,22.9,10.6z
		 M33.5,38.6c-7.7,7.7-21.4,5.2-21.4,5.2s-2.5-13.7,5.2-21.4c4.3-4.3,11.4-4.1,15.8,0.4S37.8,34.4,33.5,38.6L33.5,38.6z"/>
	<polygon class="mapbox-0" points="25.4,23.8 23.2,28.3 18.7,30.5 23.2,32.7 25.4,37.3 27.6,32.7 32.2,30.5 27.6,28.3 	"/>
</g>
</svg>
