<?xml version="1.0" encoding="utf-8"?>
<!-- Generator: Adobe Illustrator 22.0.1, SVG Export Plug-In . SVG Version: 6.00 Build 0)  -->
<svg xmlns="http://www.w3.org/2000/svg" xmlns:xlink="http://www.w3.org/1999/xlink" x="0px" y="0px"
	 viewBox="0 0 200.4 66.5" style="enable-background:new 0 0 200.4 66.5;" xml:space="preserve">
<style type="text/css">
	.stripe-0{fill:#7B878D;}
</style>
<g id="Stripe">
	<path class="stripe-0" d="M176.1,34.5c0-10.8-5.3-19.4-15.3-19.4s-16.1,8.6-16.1,19.3c0,12.7,7.2,19.2,17.4,19.2c5.1,0,8.9-1.2,11.7-2.7
		v-8.5c-2.9,1.5-6.1,2.3-10.3,2.3c-4.1,0-7.7-1.5-8.2-6.4h20.6C176,37.7,176.1,35.4,176.1,34.5z M155.2,30.5c0-4.8,2.9-6.7,5.5-6.7
		s5.4,1.9,5.4,6.7H155.2z"/>
	<path class="stripe-0" d="M128.4,15.1c-4.1,0-6.8,1.9-8.3,3.3l-0.6-2.6h-9.2V65l10.5-2.2v-12c1.6,1.1,3.8,2.6,7.5,2.6
		c7.5,0,14.4-6,14.4-19.5C142.8,21.8,135.8,15.1,128.4,15.1z M125.9,44.2c-2.4,0-4-0.9-5-2l-0.1-15.7c1.1-1.2,2.6-2,5.1-2
		c3.9,0,6.5,4.3,6.5,9.8C132.4,39.9,129.8,44.2,125.9,44.2z"/>
	<polygon class="stripe-0" points="95.9,12.6 106.4,10.3 106.4,1.8 95.9,4 	"/>
	<rect x="95.9" y="15.8" class="stripe-0" width="10.6" height="37"/>
	<path class="stripe-0" d="M84.5,18.9l-0.7-3.1h-9v37h10.5v-25c2.5-3.3,6.7-2.6,8.1-2.2v-9.7C91.9,15.3,86.9,14.4,84.5,18.9z"/>
	<path class="stripe-0" d="M63.4,6.6L53.1,8.8v33.9c0,6.2,4.7,10.8,11,10.8c3.4,0,6-0.6,7.4-1.4v-8.6c-1.4,0.6-8,2.4-8-3.7v-15h8v-8.9h-8
		L63.4,6.6z"/>
	<path class="stripe-0" d="M34.9,26.6c0-1.7,1.4-2.2,3.6-2.2c3.2,0,7.3,1,10.5,2.7V17c-3.5-1.4-7-1.9-10.5-1.9c-8.6,0-14.3,4.5-14.3,12
		c0,11.7,16.1,9.7,16.1,14.8c0,1.9-1.7,2.5-4.1,2.5c-3.5,0-8-1.5-11.6-3.4v10c3.9,1.7,7.9,2.4,11.5,2.4c8.8,0,14.8-4.4,14.8-11.9
		C50.9,29,34.9,31.2,34.9,26.6z"/>
</g>
</svg>
