<svg viewBox="0 0 1280 640" xmlns="http://www.w3.org/2000/svg"><path d="M359.3 141c-8.5 2.2-13.7 4.8-21.8 10.5-16.5 11.8-24.5 25.7-22.9 40 .7 6.8 3.4 13.8 6.7 17.3 8.2 8.8 29.4 11.7 46.8 6.3 13.9-4.4 28.1-16.6 34.7-29.9 3.3-6.8 3.7-8.4 3.7-15.1 0-6.4-.5-8.5-2.9-13-3.9-7.5-11.1-14.4-17.1-16.4-6.4-2.2-18.1-2.1-27.2.3zm-137.1 112.9c-24.2 6.1-42.6 24.1-53.8 52.6-1.7 4.4-3.5 9-3.8 10.2l-.7 2.2 5.3-1.8c18.4-6.3 32-1.9 34.8 11.3 2.7 13.3-3.9 30.6-22.5 58.7-13.7 20.7-22.6 26.9-29 20.5-8.4-8.4-14.4-29.8-23.5-84.4-6.7-39.6-9.8-49.6-18.7-58.8-6.2-6.4-12.3-8.8-21.8-8.9-6.9 0-8.9.4-14.7 3.2-12.2 5.8-20.6 12.2-52.6 40.7-13.9 12.4-20.9 19.3-20.4 20 5.6 7.4 12.4 15.6 12.9 15.6.3 0 4.7-2.6 9.7-5.9 11.3-7.3 12.6-7.7 17.2-5.5 4.4 2.1 8.6 7.5 13 17 4.9 10.4 7.1 17.6 20.4 66.4 12.7 46.9 14.7 52.9 21.2 65 9.9 18.6 20.6 27 34.3 27 28.1 0 61.1-26.4 104-83 20.4-26.9 36.2-53.4 44.5-74.5 2.6-6.5 3.3-7.3 10.1-12.2 9.7-6.9 12.6-7.9 17.4-5.9 2.5 1.1 4 2.6 5 5 2.6 6.1 1.8 13-3.5 32.1-21.8 78.2-24.4 99.2-14.7 118 3.4 6.7 9.8 12.9 16.6 16.3 5.3 2.6 6.3 2.7 20.1 2.6 19.2 0 29.6-2.7 49.4-12.5 12.2-6.1 32.6-20.6 39-27.8 1.1-1.1 2.2-2.1 2.6-2.1s1.7 2.7 2.9 5.9c8.1 22.2 27.2 33.5 58.5 34.8 13.4.6 13.9.5 13.2-1.3-3.7-9.2-4.9-47.3-2.1-65.9 4.7-31.4 20-67.2 36.4-85.7 10.5-11.8 23.8-12.8 31.5-2.4 1.9 2.5 2.1 4.1 2.1 16.9-.1 12-.5 16-2.9 25.7-6.5 27.2-7.7 34.3-8.3 50-.4 12.1-.2 17.2 1 23.2 5.3 25.3 22 37 56.5 39.7 14.3 1.1 19.6.6 18.7-1.8-5.5-14.2-5.9-43.8-.9-65.9 6.3-27.5 28.2-69.2 44.7-85 13-12.4 23.8-13.5 29.8-2.9 2.2 3.9 2.4 5.2 2.3 17.2-.1 13.6-.5 16.6-8.8 52.5-14.3 61.6-3.9 88 34.5 88 26.4 0 54.2-11.3 79.7-32.2 4-3.3 7.4-5.9 7.5-5.7 7.9 13.2 18.4 23.2 30.9 29.3 14.4 7.1 22.2 8.7 43.1 9.3 33.6 1 65-4.7 98.9-17.9 13.4-5.2 38.6-17.6 50.2-24.7 3.7-2.3 6.9-4.1 7.1-3.9.1.2 2.3 3.7 4.9 7.8 8.4 13.3 21.3 24.7 34.7 30.9 26.1 12.1 64.9 12.9 96.4 1.9 10-3.4 26.5-12.4 35.6-19.2 16.7-12.6 34-33 43.9-51.7 20.8-39.6 23.8-89.4 7.4-122.3-11.6-23.2-30.4-37.9-54.9-43.1-27-5.7-63.4-.7-90.8 12.4-40 19.1-75.8 62.1-85.1 102.4-2.1 9-3.7 25.8-3.4 35.6l.3 8.4-9.5 3.9c-30.3 12.4-56.9 19-83.4 20.7-21.6 1.4-32.9-1.4-42.2-10.4l-4.9-4.8 11-2.3c37-7.8 67.1-22.9 93.1-46.5 24.8-22.6 35.4-41.8 35.4-63.8 0-20.4-9.2-37.2-24.7-45.4-11.5-6-19.6-7.8-37.8-8.4-28-.9-50 3.7-74 15.7-18.4 9.2-30.3 17.8-45.5 33-24.4 24.3-39 48.1-45.7 74.4-2.1 8.4-2.6 12.9-2.9 27.1l-.3 17-6.3 3.4c-5.7 3-6.9 3.3-12.3 2.8-12.1-1-14.9-4.6-14.8-19.2 0-7.3 1.1-14.1 6.1-36.5 8.3-37 9.3-43.2 9.9-59.5.4-10.8.1-15.6-1.1-20.8-6-25.3-24.5-36.8-54.7-33.6-11.4 1.1-21 3.9-31.1 8.9-14.5 7.2-23.4 14.2-41.3 32.7-6.6 6.7-12.6 12.3-13.3 12.3-.8 0-1.2-2.1-1.2-6.8 0-9.1-2.2-18.8-5.9-25.8-3.4-6.6-5.9-9.6-11.3-13.7-18.6-14.2-60.2-9.3-90.2 10.7-10 6.6-23.4 19-29.7 27.3-2.3 3.2-4.6 6.2-4.9 6.6-.4.4-.7-3.9-.7-9.5 0-11.3-1.3-18.4-5-26.8-5.6-12.9-15.3-21.2-26-22.6-11.8-1.4-18.7 3.6-66.8 48-8.2 7.6-15.1 14.3-15.2 15-.2.6 3 4.7 7.1 9.1l7.3 8 6.9-4.6c13.5-9 17.6-10 19.7-5 1.9 4.5.5 20.6-4.9 55.5-5.4 35.7-3.4 31.3-19.4 42-10.2 6.8-14.3 8.6-19.7 8.6-9.9 0-16.6-7.7-17.9-20.8-.6-6 6.6-51.2 14.1-88.2 6.2-30.3 4.4-45.9-6.6-58.4-7.4-8.5-22.5-11.8-34.1-7.6-10.8 3.9-24.2 13.7-46 33.5l-8.3 7.6-.7-5.3c-2.7-20.1-10.7-32.5-24.6-37.9-8.1-3.1-28.5-3.7-39-1zm971.9 55.4c7.1 4.7 11.9 18.9 12.6 37.2.6 13.6-1 25.1-5.2 38-6.2 18.8-19.8 40.8-31.1 50-11.6 9.4-27.1 14-37.1 11-10.1-3-17.6-15.5-19.8-33.1-1.5-11.7 3.3-37.3 9.8-52.3 14.6-33.7 36.7-52.8 61.3-53 4.8-.1 6.8.4 9.5 2.2zm-240.9 6.8c5.8 3.1 7.8 15.9 3.8 24.6-9.2 20.5-35.3 43.7-62.6 55.7-7.5 3.3-7.9 3.4-8.6 1.6-.9-2.5.7-16.8 2.8-23.9 2-7.2 8-19.2 14.1-28.4 6.2-9.3 20.4-23.5 27-27 8.5-4.5 18-5.5 23.5-2.6z" fill="#7B878D"/></svg>