<?xml version="1.0" encoding="utf-8"?>
<!-- Generator: Adobe Illustrator 23.0.3, SVG Export Plug-In . SVG Version: 6.00 Build 0)  -->
<svg version="1.1" id="Layer_1" xmlns="http://www.w3.org/2000/svg" xmlns:xlink="http://www.w3.org/1999/xlink" x="0px" y="0px"
	 viewBox="0 0 200.4 66.5" style="enable-background:new 0 0 200.4 66.5;" xml:space="preserve">
<style type="text/css">
	.st0{fill:#7B878D;}
</style>
<path class="st0" d="M114.4,7.9c0.5-3.7,3.5-7.1,7.3-7.7c3.7-0.8,7.8,1,9.6,4.4c1.5,2.5,1.4,5.6,1.3,8.5c4.9-0.7,10,0.6,13.8,3.7
	c0-2.8-0.1-5.6,0.1-8.4c0.4-3.9,3.4-7.4,7.3-8.1c3.8-0.8,8.1,1,10,4.5c1.5,2.6,1.3,5.7,1.2,8.6c2.7-0.3,5.6,0.3,7.7,2.1
	c2.1,1.7,3,4.3,3.9,6.8c0.8-2.1,1.5-4.3,3.1-6c2.7-2.9,7.3-3.7,10.8-2c2.8,1.3,5,4.2,5.1,7.4c0.2,2.5-0.9,4.9-1.9,7.2
	c-4.2,10.4-8.4,20.9-12.6,31.3c-0.8,2.1-2.2,4-4.1,5.2c-3.1,2-7.3,1.6-10.2-0.3c-2.5-1.6-4-4.6-3.7-7.6c0.3-2.7,0.8-5.4,1.3-8.1
	c-1.4,3.1-4.5,5.5-8,5.6c-3.7,0.4-7.2-1.8-9-5c-4.9,4.8-12.8,6.4-19.1,3.5c-2.5,1.2-5.5,1.6-8.2,0.6c-1.7-0.6-3-1.8-4.2-3.1
	C109.9,54.6,102,56,95,53.6c-3.2-1.1-6-3.1-8.3-5.6c-4.3,4.8-11,6.8-17.4,6.8c-7,0-13.8-3.8-17.3-9.9c-1,3.3-2.5,6.7-5.5,8.5
	c-3.7,2.2-9,1.8-12.1-1.2c-1-0.9-1.7-2.1-2.4-3.3c-0.9,1.8-2.2,3.6-4,4.6c-3.8,2.1-9,1.7-12.1-1.4c-1.6-1.5-2.6-3.5-3.3-5.6
	c-2.3-6.6-4.7-13.2-7-19.8c-1-2.8-1.6-6.1-0.1-8.9c2.4-4.7,9-6.3,13.4-3.4c2,1.2,3.3,3.3,4,5.5c0.7-1.9,1.7-3.9,3.5-5.1
	c3.6-2.7,9.1-2.4,12.3,0.8c1.2,1.2,1.9,2.7,2.5,4.3c0.8-2.6,2.6-5.1,5.2-6.2c3.9-1.8,8.9-0.5,11.5,2.9c4.3-3.1,9.8-4.3,15-3.3
	c5.1,0.9,9.7,4.1,12.7,8.3c2.9-4.1,7.2-7.3,12.2-8.2c5.8-1.3,12.1,0.4,16.6,4.2C114.4,14.3,114.1,11.1,114.4,7.9L114.4,7.9z
	 M119.5,9.8c0,11.4,0,22.9,0,34.3c0,1.3,0.1,2.6,0.9,3.7c1.2,1.7,3.8,2,5.5,0.9c1-0.6,1.3-1.7,1.8-2.7c3.6,5,11.4,4.5,15.7,0.6
	c6.4-5.6,6.9-15.9,2.5-22.8c-2.1-3.4-5.9-5.7-9.9-5.8c-3-0.2-6,1-8.4,2.8c0-3.9,0.1-7.9-0.1-11.8c-0.1-2.4-2.4-4.3-4.7-3.7
	C120.6,5.6,119.4,7.7,119.5,9.8L119.5,9.8z M154.1,5.5c-1.8,0.8-2.6,2.9-2.5,4.7c0,11.6,0,23.2,0,34.8c-0.1,2.2,1.5,4.5,3.8,4.6
	c2.4,0.3,4.5-1.8,4.5-4.1c0.1-11.4,0-22.8,0.1-34.2c0-1.5,0.1-3.3-1-4.6C157.9,5.2,155.8,4.8,154.1,5.5z M9.9,20.7
	c-0.4,2,0.6,4,1.2,5.9c2.3,6.4,4.5,12.7,6.8,19.1c0.7,2,2.3,3.9,4.6,3.9c2.3,0.3,4.4-1.2,5.1-3.4c1.6-4.6,3-9.3,4.5-14
	c1.4,4.4,2.8,8.7,4.2,13.1c0.5,1.5,1.2,3,2.6,3.8c1.8,0.9,4.1,0.7,5.6-0.6c1.1-1,1.6-2.4,2.1-3.7c2.4-6.8,4.8-13.6,7.2-20.3
	c0.6-1.5,0.8-3.3-0.2-4.7c-1.7-2.5-6.2-2.1-7.2,0.9c-1.8,5.6-3.4,11.3-5.2,16.9c-1.8-5.6-3.4-11.2-5.3-16.7
	c-0.8-2.6-4.3-3.5-6.4-1.9c-1,0.7-1.4,1.9-1.8,3.1c-1.6,5.2-3.2,10.4-4.9,15.6c-1.7-5.4-3.3-10.9-5-16.4C17.2,17.3,11,17,9.9,20.7
	L9.9,20.7z M59,22.4c-5.2,5.4-6,14.4-1.9,20.7c2,3.1,5.2,5.2,8.7,6.1c4.5,1.1,9.3,0.3,13.4-1.8c1.5-0.8,3.1-1.8,3.9-3.4
	c1.2-2.3-1.3-5.4-3.8-4.6c-1.9,0.7-3.6,2-5.5,2.6c-2.9,1-6.4,0.7-8.8-1.4c-1.2-1-1.7-2.5-2.1-3.9c6.1-0.1,12.2,0.1,18.3-0.1
	c1.6,0,2.9-1.3,2.9-2.9c0.4-7.5-5.6-14.8-13.1-15.6C66.6,17.6,62,19.2,59,22.4L59,22.4z M92.9,21.1c-5.1,4-7.1,11.3-5.3,17.5
	c1,4,3.8,7.6,7.6,9.4c5.1,2.5,11.3,1.9,16.3-0.6c1.6-0.9,3.4-1.9,4.1-3.7c1-2.3-1.5-5.2-4-4.4c-1.7,0.6-3.2,1.7-4.9,2.4
	c-2.9,1.3-6.6,1-9.2-1c-1.3-1-1.9-2.6-2.3-4.1c6.1-0.1,12.1,0.1,18.2-0.1c1.6,0.1,3-1.3,3-2.9c0.4-6.9-4.8-13.8-11.5-15.3
	C100.8,17.5,96.2,18.4,92.9,21.1L92.9,21.1z M163.1,20.8c-0.5,1.3,0,2.7,0.4,3.9c3,7.3,5.9,14.6,8.8,21.9c-1.1,2.8-2.3,5.7-3.5,8.5
	c-0.5,1.2-0.9,2.6-0.4,3.9c0.7,1.9,3.1,2.7,5,2.3c1.7-0.5,2.6-2.2,3.2-3.8c4.5-11.2,9-22.3,13.5-33.5c0.8-1.7,0.4-4-1.4-5
	c-2.1-1.4-5.2-0.4-6.1,2c-2.1,5.2-4.1,10.5-6.2,15.7c-1.8-4.9-3.6-9.8-5.4-14.8c-0.5-1.3-1.2-2.7-2.6-3.2
	C166.5,17.8,163.9,18.8,163.1,20.8L163.1,20.8z M65.2,26.7c-1.2,1.2-1.6,2.8-2,4.3c4.4,0,8.8,0,13.3,0c-0.4-1.5-0.9-3.1-2-4.3
	C72.1,24.1,67.6,24.1,65.2,26.7L65.2,26.7z M97.5,26.6c-1.2,1.2-1.7,2.8-2.1,4.3c4.4,0,8.8,0,13.3,0c-0.4-1.5-0.8-3.1-1.9-4.2
	C104.4,24.1,99.8,24,97.5,26.6z M132.7,25.7c-1.5,0.3-2.8,1.4-3.6,2.7c-2,3.4-1.8,8.1,0.4,11.4c1.8,2.7,6.1,3.2,8.5,0.9
	c3.2-3.3,3.4-8.9,0.8-12.6C137.4,26.1,134.9,25.1,132.7,25.7L132.7,25.7z"/>
</svg>
