<svg xmlns="http://www.w3.org/2000/svg" viewBox="0 0 512 512" enable-background="new 0 0 512 512"><path d="M472.376 139.953h-126.891c-12.992 0-25.981 4.956-35.896 14.858-9.912 9.917-14.868 22.907-14.868 35.896v50.755h126.884c12.992 0 25.981-4.961 35.896-14.874 9.912-9.902 14.876-22.889 14.876-35.881v-50.754z" fill="#06B2B8"/><path d="M449.526 150.093h-104.041c-10.852 0-21.046 4.227-28.708 11.901-7.683 7.672-11.891 17.859-11.891 28.713v27.904c7.007 0 12.677 5.688 12.677 12.695h104.041c10.852 0 21.046-4.227 28.731-11.884 7.66-7.68 11.873-17.879 11.873-28.716v-27.922c-7.007.001-12.682-5.682-12.682-12.691z" fill="#21D8DE"/><path d="M408.932 190.707c0 14.019-11.372 25.367-25.385 25.367-14.019 0-25.385-11.351-25.385-25.367s11.366-25.382 25.385-25.382c14.013 0 25.385 11.369 25.385 25.382z" fill="#06B2B8"/><path d="M383.547 205.934c-8.399 0-15.212-6.84-15.212-15.227 0-8.404 6.812-15.227 15.212-15.227 8.399 0 15.235 6.822 15.235 15.227-.001 8.387-6.836 15.227-15.235 15.227z" fill="#21D8DE"/><g fill="#06B2B8"><path d="M419.072 185.626h20.314v10.156h-20.314zM327.706 185.626h20.308v10.156h-20.308zM160.712 241.462h87.48c8.957 0 17.917 3.423 24.765 10.248 6.833 6.833 10.23 15.788 10.23 24.748v34.998h-87.475c-8.947 0-17.905-3.423-24.74-10.271-6.851-6.807-10.26-15.767-10.26-24.727v-34.996z"/></g><path d="M176.468 248.461h71.724c7.48 0 14.52 2.9 19.807 8.202 5.292 5.286 8.189 12.314 8.189 19.794v19.236c-4.81 0-8.735 3.922-8.735 8.763h-71.741c-7.483 0-14.525-2.921-19.789-8.207-5.304-5.281-8.212-12.314-8.212-19.789v-19.246c4.836-.003 8.757-3.925 8.757-8.753z" fill="#21D8DE"/><path d="M204.462 276.457c0 9.654 7.841 17.5 17.5 17.5 9.654 0 17.495-7.846 17.495-17.5 0-9.669-7.841-17.498-17.495-17.498-9.659 0-17.5 7.829-17.5 17.498z" fill="#06B2B8"/><path d="M221.965 286.958c5.791 0 10.496-4.718 10.496-10.501 0-5.786-4.703-10.499-10.496-10.499-5.804 0-10.499 4.713-10.499 10.499 0 5.783 4.695 10.501 10.499 10.501z" fill="#21D8DE"/><g fill="#06B2B8"><path d="M183.475 272.947h14.001v6.996h-14.001zM246.451 272.947h13.998v6.996h-13.998zM65.044 66.043h155.835c15.954 0 31.9 6.077 44.07 18.253 12.163 12.175 18.237 28.132 18.237 44.086v62.326h-155.803c-15.954 0-31.913-6.095-44.073-18.255-12.188-12.178-18.266-28.132-18.266-44.07v-62.34z"/></g><path d="M93.089 78.51h127.79c13.299 0 25.825 5.189 35.244 14.597 9.426 9.423 14.62 21.944 14.62 35.274v34.281c-8.62 0-15.603 6.966-15.603 15.575h-127.757c-13.33 0-25.848-5.192-35.274-14.612-9.421-9.411-14.597-21.929-14.597-35.246v-34.291c8.596 0 15.577-6.979 15.577-15.578z" fill="#21D8DE"/><path d="M142.961 128.381c0 17.198 13.96 31.153 31.158 31.153 17.226 0 31.171-13.957 31.171-31.153 0-17.216-13.944-31.171-31.171-31.171-17.199.001-31.158 13.958-31.158 31.171z" fill="#06B2B8"/><path d="M174.121 147.069c10.319 0 18.714-8.379 18.714-18.688 0-10.324-8.394-18.701-18.714-18.701-10.307 0-18.691 8.376-18.691 18.701 0 10.31 8.382 18.688 18.691 18.688z" fill="#21D8DE"/><g fill="#06B2B8"><path d="M105.549 122.148h24.937v12.454h-24.937zM217.754 122.148h24.909v12.454h-24.909z"/></g><path fill="#F15424" d="M154.65 347.366h268.595v31.567h-268.595z"/><path fill="#FF6D3B" d="M378.493 512h-179.051l-22.395-133.069h223.834z"/><path fill="#242D3C" d="M283.187 190.72h11.533v156.646h-11.533z"/><g fill="#D9D8D7"><path d="M474.998 268.288c-13.78 0-24.945 11.169-24.945 24.95h49.894c.001-13.781-11.164-24.95-24.949-24.95zM435.42 278.612c-8.074 0-14.62 6.554-14.62 14.625h29.253c0-8.071-6.559-14.625-14.633-14.625zM53.729 206.717c23.03 0 41.687 18.66 41.687 41.684h-83.364c0-23.024 18.655-41.684 41.677-41.684zM108.48 235.338c7.201 0 13.059 5.842 13.059 13.061h-26.123c0-7.219 5.837-13.061 13.064-13.061zM401.357 0c-29.133 0-52.736 23.601-52.736 52.721h105.434c-.003-29.12-23.599-52.721-52.698-52.721zM316.424 20.5c-17.807 0-32.238 14.423-32.238 32.22h64.435c0-17.794-14.418-32.22-32.197-32.22zM470.651 36.119c-9.165 0-16.596 7.432-16.596 16.602h33.188c-.003-9.17-7.417-16.602-16.592-16.602z"/></g><path d="M419.077 80.458c0 7.928-6.446 14.374-14.369 14.374-7.946 0-14.423-6.449-14.423-14.374 0-7.964 6.474-14.413 14.423-14.413 7.926-.002 14.369 6.447 14.369 14.413z" fill="#CCCBCA"/><g fill="#242D3C"><path d="M105.244 327.15c0 9.482-7.706 17.226-17.226 17.226-9.528 0-17.249-7.744-17.249-17.226 0-9.531 7.721-17.242 17.249-17.242 9.523 0 17.226 7.711 17.226 17.242zM356.001 86.817c0 4.424-3.548 8.015-7.964 8.015-4.434 0-7.995-3.592-7.995-8.015 0-4.383 3.561-7.985 7.995-7.985 4.416.001 7.964 3.603 7.964 7.985z"/></g><g fill="#CCCBCA"><path d="M60.467 280.545c0 6.323-5.135 11.469-11.512 11.469-6.326 0-11.456-5.148-11.456-11.469 0-6.367 5.13-11.512 11.456-11.512 6.377 0 11.512 5.146 11.512 11.512zM78.09 421.215c0 3.223-2.557 5.78-5.719 5.78-3.215 0-5.801-2.557-5.801-5.78 0-3.146 2.586-5.729 5.801-5.729 3.164-.001 5.719 2.582 5.719 5.729z"/></g><path d="M427.177 122.181c0 3.269-2.685 5.957-5.942 5.957-3.333 0-6.029-2.688-6.029-5.957 0-3.343 2.698-6.026 6.029-6.026 3.257 0 5.942 2.683 5.942 6.026z" fill="#242D3C"/><path d="M485.983 329.339c0 4.677-3.758 8.489-8.486 8.489-4.664 0-8.453-3.812-8.453-8.489 0-4.675 3.786-8.453 8.453-8.453 4.728.002 8.486 3.778 8.486 8.453z" fill="#CCCBCA"/><path d="M466.081 391.104c0 3.22-2.568 5.773-5.75 5.773-3.195 0-5.755-2.552-5.755-5.773 0-3.159 2.56-5.716 5.755-5.716 3.183 0 5.75 2.557 5.75 5.716z" fill="#242D3C"/></svg>