<svg xmlns="http://www.w3.org/2000/svg" viewBox="0 0 512 512" enable-background="new 0 0 512 512"><path d="M422.825 71.777v-10.137l-14.467-2.921c-.596-3.886-1.631-7.644-3.031-11.213l11.098-9.8-5.048-8.699-14.013 4.723c-2.465-3.044-5.215-5.801-8.269-8.238l4.736-14.057-8.727-5.023-9.8 11.131c-3.546-1.393-7.293-2.427-11.174-3.011l-2.935-14.532h-10.102l-2.918 14.523c-3.907.586-7.66 1.615-11.231 3.011l-9.777-11.126-8.742 5.023 4.739 14.07c-3.034 2.437-5.804 5.189-8.22 8.228l-14.054-4.726-5.036 8.699 11.108 9.825c-1.388 3.553-2.414 7.301-2.998 11.177l-14.536 2.931.015 10.138 14.52 2.9c.584 3.894 1.61 7.644 3.011 11.203l-11.121 9.812 5.036 8.709 14.054-4.736c2.417 3.041 5.189 5.793 8.223 8.228l-4.741 14.054 8.742 5.033 9.766-11.118c3.576 1.39 7.332 2.417 11.241 3.011l2.918 14.541h10.102l2.934-14.546c3.884-.589 7.634-1.626 11.21-3.005l9.782 11.118 8.709-5.033-4.741-14.031c3.059-2.442 5.811-5.212 8.274-8.248l14.013 4.733 5.048-8.709-11.103-9.784c1.398-3.576 2.437-7.337 3.036-11.244l14.469-2.884zm-66.701 22.725c-15.329 0-27.786-12.444-27.786-27.796 0-15.35 12.457-27.789 27.786-27.789 15.357 0 27.789 12.439 27.789 27.789.002 15.352-12.431 27.796-27.789 27.796z" fill="#242D3C"/><path d="M414.799 185.078c0-93.737-76.001-169.736-169.723-169.736-93.745 0-169.748 75.999-169.748 169.736l-.105 20.38-37.67 110.218h44.229l8.532 107.387 85.192-7.831 13.824 96.768 199.511-39.544-20.977-108.245 37.806-124.16c5.914-17.257 9.129-35.743 9.129-54.973z" fill="#D9D8D7"/><path d="M376.259 185.078c0 72.461-58.765 131.21-131.208 131.21-72.461 0-131.21-58.749-131.21-131.21 0-72.456 58.749-131.21 131.21-131.21 72.443 0 131.208 58.754 131.208 131.21z" fill="#fff"/><g fill="#FF6D3B"><path d="M252.401 87.969h-14.667l-4.346 21.497h23.339zM202.916 97.326l-12.754 7.317 7.004 20.746 20.17-11.643zM164.644 130.222l-7.317 12.629 16.395 14.517 11.645-20.203zM147.988 177.713l.031 14.745 21.381 4.296v-23.37zM157.327 227.254l7.317 12.685 20.723-6.969-11.645-20.167zM190.162 265.487l12.754 7.322 14.42-16.435-20.17-11.61zM237.734 282.186h14.667l4.326-21.499h-23.339zM287.235 272.809l12.682-7.322-6.994-20.723-20.137 11.61zM325.486 239.939l7.276-12.685-16.359-14.451-11.645 20.167zM342.108 192.458v-14.745l-21.445-4.329v23.37zM332.762 142.851l-7.276-12.629-20.728 6.943 11.645 20.203zM299.917 104.643l-12.695-7.317-14.436 16.42 20.137 11.643z"/></g><path d="M245.012 108.557c-42.189 0-76.47 34.258-76.47 76.506 0 42.253 34.281 76.495 76.47 76.495 42.299 0 76.603-34.243 76.603-76.495 0-42.246-34.304-76.506-76.603-76.506zm0 97.689c-11.645 0-21.11-9.469-21.11-21.184 0-11.689 9.462-21.169 21.11-21.169 11.761 0 21.169 9.477 21.169 21.169 0 11.718-9.408 21.184-21.169 21.184z" fill="#F15424"/><g fill="#242D3C"><path d="M245.012 148.332c-20.255 0-36.692 16.425-36.692 36.731 0 20.349 16.435 36.772 36.692 36.772 20.388 0 36.797-16.422 36.797-36.772.001-20.307-16.409-36.731-36.797-36.731zm0 55.083c-10.048 0-18.296-8.243-18.296-18.353 0-10.086 8.248-18.348 18.296-18.348 10.132 0 18.391 8.264 18.391 18.348.001 10.11-8.258 18.353-18.391 18.353zM245.192 321.679l-.008-10.783c3.461-.003 6.956-.151 10.388-.435l.893 10.747c-3.724.31-7.515.466-11.273.471zm-11.267-.448c-3.743-.302-7.511-.765-11.2-1.37l1.751-10.642c3.397.561 6.871.986 10.319 1.265l-.87 10.747zm33.736-1.413l-1.774-10.639c3.407-.568 6.833-1.285 10.171-2.13l2.644 10.455c-3.627.916-7.342 1.695-11.041 2.314zm-55.98-2.242c-3.628-.911-7.27-1.989-10.826-3.205l3.492-10.204c3.269 1.121 6.62 2.112 9.958 2.947l-2.624 10.462zm77.842-3.303l-3.515-10.194c3.254-1.121 6.508-2.396 9.667-3.786l4.344 9.871c-3.433 1.508-6.966 2.891-10.496 4.109zm-99.197-3.998c-3.436-1.508-6.851-3.172-10.143-4.956l5.128-9.485c3.036 1.641 6.177 3.177 9.347 4.562l-4.332 9.879zm119.821-5.082l-5.151-9.472c3.028-1.646 6.026-3.441 8.919-5.338l5.914 9.019c-3.139 2.061-6.395 4.009-9.682 5.791zm-139.666-5.642c-3.136-2.051-6.226-4.252-9.185-6.554l6.612-8.515c2.729 2.12 5.581 4.152 8.468 6.036l-5.895 9.033zm158.523-6.713l-6.636-8.504c2.721-2.122 5.389-4.388 7.926-6.725l7.311 7.928c-2.754 2.537-5.647 4.992-8.601 7.301zm-176.328-7.129c-2.755-2.529-5.443-5.207-7.987-7.959l7.918-7.322c2.348 2.537 4.823 5.005 7.363 7.34l-7.294 7.941zm192.901-8.154l-7.933-7.306c2.327-2.527 4.59-5.194 6.717-7.931l8.509 6.625c-2.309 2.973-4.764 5.87-7.293 8.612zm-208.197-8.404c-2.299-2.941-4.511-6.026-6.577-9.162l9.014-5.924c1.902 2.893 3.942 5.734 6.06 8.445l-8.497 6.641zm222.057-9.385l-9.027-5.898c1.889-2.893 3.684-5.898 5.33-8.934l9.48 5.138c-1.787 3.294-3.73 6.558-5.783 9.694zm-234.435-9.454c-1.797-3.297-3.469-6.702-4.982-10.125l9.866-4.352c1.388 3.151 2.931 6.287 4.582 9.316l-9.466 5.161zm245.184-10.381l-9.871-4.334c1.385-3.159 2.657-6.42 3.781-9.684l10.199 3.497c-1.224 3.547-2.604 7.085-4.109 10.521zm-254.287-10.243c-1.224-3.548-2.314-7.183-3.238-10.816l10.452-2.662c.85 3.343 1.853 6.692 2.982 9.956l-10.196 3.522zm261.609-11.102l-10.458-2.634c.845-3.351 1.556-6.774 2.12-10.176l10.637 1.761c-.61 3.694-1.385 7.411-2.299 11.049zm-267.175-10.752c-.617-3.689-1.091-7.455-1.405-11.195l10.747-.904c.289 3.446.727 6.92 1.295 10.314l-10.637 1.785zm270.856-11.49l-10.747-.881c.279-3.423.422-6.92.422-10.386l-.003-.527 10.785-.077v.604c.001 3.761-.152 7.55-.457 11.267zm-272.745-10.985v-.282c0-3.651.148-7.34.433-10.972l10.752.852c-.266 3.346-.399 6.753-.399 10.117l-10.786.285zm261.952-11.215c-.294-3.441-.737-6.907-1.316-10.307l10.632-1.807c.627 3.692 1.111 7.46 1.434 11.19l-10.75.924zm-249.518-9.5l-10.642-1.741c.602-3.694 1.37-7.411 2.278-11.049l10.465 2.611c-.836 3.349-1.543 6.774-2.101 10.179zm246.034-10.967c-.855-3.336-1.866-6.679-3-9.946l10.186-3.543c1.234 3.546 2.332 7.181 3.259 10.811l-10.445 2.678zm-240.993-9.173l-10.209-3.474c1.206-3.543 2.578-7.086 4.081-10.529l9.887 4.308c-1.389 3.172-2.651 6.436-3.759 9.695zm234.178-10.424c-1.405-3.162-2.957-6.295-4.611-9.313l9.462-5.176c1.792 3.277 3.477 6.676 5.002 10.107l-9.853 4.382zm-225.874-8.622l-9.492-5.117c1.777-3.295 3.715-6.561 5.763-9.708l9.037 5.88c-1.882 2.901-3.669 5.909-5.308 8.945zm215.908-9.592c-1.9-2.88-3.945-5.714-6.077-8.428l8.481-6.664c2.309 2.947 4.534 6.024 6.595 9.149l-8.999 5.943zm-204.572-7.816l-8.52-6.612c2.294-2.954 4.744-5.857 7.276-8.62l7.949 7.283c-2.332 2.55-4.588 5.225-6.705 7.949zm191.739-8.52c-2.342-2.524-4.823-4.989-7.375-7.322l7.275-7.962c2.772 2.534 5.468 5.21 8.008 7.949l-7.908 7.335zm-177.7-6.799l-7.322-7.916c2.744-2.542 5.632-5.002 8.584-7.314l6.653 8.486c-2.718 2.131-5.383 4.401-7.915 6.744zm162.371-7.217c-2.744-2.125-5.601-4.15-8.481-6.024l5.88-9.042c3.126 2.035 6.223 4.229 9.201 6.528l-6.6 8.538zm-146.02-5.596l-5.934-9.004c3.121-2.061 6.374-4.014 9.667-5.814l5.174 9.462c-3.037 1.659-6.032 3.462-8.907 5.356zm128.589-5.727c-3.026-1.633-6.17-3.159-9.344-4.539l4.303-9.889c3.448 1.503 6.868 3.162 10.161 4.933l-5.12 9.495zm-110.37-4.219l-4.37-9.864c3.415-1.51 6.945-2.9 10.493-4.134l3.535 10.189c-3.265 1.134-6.514 2.417-9.658 3.809zm91.323-4.07c-3.269-1.108-6.623-2.094-9.966-2.926l2.601-10.465c3.635.904 7.278 1.974 10.829 3.18l-3.464 10.211zm-71.716-2.724l-2.67-10.45c3.625-.927 7.34-1.713 11.041-2.34l1.8 10.632c-3.41.579-6.83 1.306-10.171 2.158zm51.572-2.291c-3.4-.548-6.876-.968-10.319-1.239l.845-10.749c3.743.294 7.506.748 11.197 1.344l-1.723 10.644zm-31.099-1.17l-.909-10.749c3.732-.315 7.521-.481 11.267-.492l.033 10.783c-3.451.013-6.948.164-10.391.458zM474.447 159.199v-6.259l-8.927-1.802c-.366-2.399-1.004-4.718-1.866-6.922l6.851-6.044-3.118-5.366-8.648 2.913c-1.521-1.879-3.215-3.576-5.102-5.087l2.926-8.673-5.386-3.1-6.047 6.868c-2.186-.852-4.498-1.492-6.897-1.859l-1.807-8.963h-6.234l-1.802 8.963c-2.409.364-4.726.998-6.925 1.859l-6.036-6.868-5.394 3.1 2.926 8.678c-1.874 1.508-3.576 3.203-5.069 5.084l-8.673-2.916-3.108 5.366 6.853 6.065c-.858 2.189-1.492 4.506-1.851 6.897l-8.968 1.807.01 6.259 8.957 1.784c.358 2.404.993 4.718 1.859 6.912l-6.861 6.054 3.108 5.376 8.673-2.924c1.492 1.876 3.2 3.574 5.069 5.076l-2.926 8.673 5.394 3.103 6.026-6.861c2.207.858 4.526 1.492 6.935 1.859l1.802 8.97h6.234l1.807-8.975c2.401-.364 4.713-1.001 6.917-1.853l6.036 6.861 5.376-3.103-2.929-8.66c1.889-1.508 3.584-3.215 5.105-5.089l8.648 2.921 3.118-5.376-6.856-6.031c.868-2.209 1.508-4.531 1.871-6.94l8.929-1.777zm-41.152 14.018c-9.457 0-17.147-7.677-17.147-17.152s7.69-17.147 17.147-17.147c9.472 0 17.147 7.672 17.147 17.147 0 9.475-7.675 17.152-17.147 17.152z"/></g></svg>