<svg xmlns="http://www.w3.org/2000/svg" viewBox="0 0 511.997 511.997" enable-background="new 0 0 511.997 511.997"><circle cx="254.513" cy="276.227" r="229.299" fill="#E6E5E5"/><path d="M478.129 327.222c-23.194 102.093-114.506 178.301-223.616 178.301s-200.423-76.208-223.616-178.301c8.832.205 16.435 5.35 20.147 12.826 6.477-2.918 13.619-4.582 21.171-4.582 28.467 0 51.558 23.091 51.558 51.558 0 5.709-.947 11.162-2.662 16.282 7.245.486 13.133 5.862 14.336 12.902 5.862-3.584 12.723-5.709 20.096-5.709 7.45 0 14.387 2.179 20.301 5.837 5.862-15.462 20.787-26.47 38.323-26.47 7.552 0 14.618 2.048 20.685 5.606l-.333-.233c7.91-6.807 12.928-16.919 12.928-28.234v-46.003c0-8.781-7.142-15.923-15.923-15.923h45.978c-8.783 0-15.926 7.142-15.926 15.923v46.006c0 11.315 5.018 21.427 12.931 28.234l-.335.233c6.067-3.561 13.135-5.606 20.685-5.606 17.539 0 32.463 11.008 38.326 26.47 5.914-3.661 12.851-5.837 20.301-5.837 7.373 0 14.234 2.125 20.096 5.709 1.206-7.04 7.094-12.416 14.339-12.902-1.69-5.12-2.662-10.573-2.662-16.282 0-28.467 23.091-51.558 51.558-51.558 7.552 0 14.694 1.664 21.174 4.582 3.73-7.453 11.282-12.624 20.14-12.829z" fill="#CCCBCA"/><path d="M366.756 335.373c0 4.692-3.817 8.532-8.54 8.532-4.713 0-8.527-3.84-8.527-8.532 0-4.726 3.814-8.545 8.527-8.545 4.72 0 8.54 3.819 8.54 8.545z" fill="#fff"/><path d="M465.759 276.237c0 2.934-2.383 5.332-5.335 5.332-2.941 0-5.33-2.401-5.33-5.332 0-2.952 2.388-5.343 5.33-5.343 2.951 0 5.335 2.391 5.335 5.343z" fill="#242D3C"/><g fill="#fff"><path d="M103.585 152.425c0 5.166-4.18 9.336-9.329 9.336-5.164 0-9.341-4.17-9.341-9.336 0-5.158 4.18-9.341 9.341-9.341 5.151 0 9.329 4.183 9.329 9.341zM171.331 188.616c0 3.425-2.788 6.213-6.223 6.213-3.43 0-6.223-2.788-6.223-6.213 0-3.451 2.793-6.239 6.223-6.239 3.435.003 6.223 2.79 6.223 6.239z"/></g><g fill="#242D3C"><circle cx="192.305" cy="161.769" r="3.2"/><path d="M370.788 36.81c0 5.322-4.311 9.582-9.597 9.582-5.309 0-9.603-4.26-9.603-9.582 0-5.32 4.293-9.577 9.603-9.577 5.286 0 9.597 4.258 9.597 9.577zM7.677 299.049c0 2.115-1.713 3.837-3.837 3.837-2.117 0-3.84-1.723-3.84-3.837 0-2.135 1.723-3.855 3.84-3.855 2.125.002 3.837 1.72 3.837 3.855z"/></g><g fill="#fff"><path d="M451.894 185.464c-6.482 0-11.738 5.268-11.738 11.73 0-6.459-5.238-11.73-11.73-11.73 6.492 0 11.73-5.266 11.73-11.717.003 6.454 5.256 11.717 11.738 11.717zM368.655 133.24c-4.132 0-7.465 3.351-7.465 7.46 0-4.109-3.346-7.46-7.47-7.46 4.124 0 7.47-3.348 7.47-7.452 0 4.104 3.334 7.452 7.465 7.452zM434.332 285.025c-2.911 0-5.271 2.355-5.271 5.271 0-2.916-2.35-5.271-5.279-5.271 2.929 0 5.279-2.358 5.279-5.276.003 2.919 2.36 5.276 5.271 5.276zM101.65 256.858c-6.474 0-11.732 5.266-11.732 11.74 0-6.474-5.251-11.74-11.732-11.74 6.482 0 11.732-5.279 11.732-11.748.002 6.469 5.26 11.748 11.732 11.748z"/></g><g fill="#CCCBCA"><path d="M76.646 65.894c-5.164 0-9.336 4.188-9.336 9.331 0-5.143-4.18-9.331-9.341-9.331 5.164 0 9.341-4.196 9.341-9.347 0 5.152 4.175 9.347 9.336 9.347zM511.997 305.562c-3.832 0-6.958 3.105-6.958 6.945 0-3.84-3.1-6.945-6.938-6.945 3.837 0 6.938-3.121 6.938-6.961 0 3.843 3.126 6.961 6.958 6.961z"/></g><path fill="#242D3C" d="M358.218 292.764h26.401v12.319h-26.401z"/><path d="M371.423 206.264c-8.323 12.063-13.202 26.673-13.202 42.432v44.078h26.401v-44.078c-.002-15.759-4.882-30.369-13.199-42.432z" fill="#fff"/><g fill="#242D3C"><path d="M371.423 206.264c-3.197 4.634-5.88 9.651-7.98 14.958h15.954c-2.099-5.309-4.777-10.324-7.974-14.958zM124.413 292.764h26.394v12.319h-26.394z"/></g><path d="M137.61 206.264c-8.323 12.063-13.197 26.673-13.197 42.432v44.078h26.394v-44.078c0-15.759-4.884-30.369-13.197-42.432z" fill="#fff"/><g fill="#242D3C"><path d="M137.61 206.264c-3.197 4.634-5.88 9.651-7.98 14.958h15.951c-2.098-5.309-4.778-10.324-7.971-14.958zM291.156 154.627v125.824l67.062 12.324v-44.078c-37.04-.001-67.062-42.12-67.062-94.07zM217.876 154.627v125.824l-67.072 12.324v-44.078c37.051-.001 67.072-42.12 67.072-94.07z"/></g><path d="M254.513 6.472c-23.094 33.482-36.636 74.043-36.636 117.786v156.191h73.28v-156.189c-.001-43.743-13.558-84.306-36.644-117.788z" fill="#fff"/><path d="M254.513 6.472c-8.868 12.864-16.323 26.79-22.139 41.526h44.278c-5.819-14.736-13.272-28.66-22.139-41.526z" fill="#242D3C"/><path fill="#D9D8D7" d="M217.879 255.798h73.28v24.64h-73.28z"/><g fill="#242D3C"><path d="M279.683 305.093h-50.333l-11.474-24.642h73.28zM276.728 110.213c0 12.252-9.951 22.205-22.213 22.205-12.268 0-22.198-9.953-22.198-22.205 0-12.257 9.93-22.211 22.198-22.211 12.263.001 22.213 9.954 22.213 22.211z"/></g><circle cx="254.513" cy="110.211" r="14.804" fill="#fff"/><path d="M264.694 110.211c0 5.614-4.554 10.176-10.184 10.176-5.614 0-10.171-4.562-10.171-10.176 0-5.624 4.554-10.179 10.171-10.179 5.629 0 10.184 4.554 10.184 10.179z" fill="#D9D8D7"/></svg>