<svg xmlns="http://www.w3.org/2000/svg" viewBox="0 0 511.997 511.997" enable-background="new 0 0 511.997 511.997"><path d="M333.614 166.764c43.21 43.21 43.205 113.247 0 156.46-43.19 43.21-113.231 43.21-156.444 0-43.21-43.213-43.21-113.252 0-156.46 43.21-43.212 113.249-43.217 156.444 0z" fill="#E6E5E5"/><path d="M308.733 191.66c29.46 29.44 29.46 77.222 0 106.662-29.46 29.46-77.22 29.46-106.68 0-29.458-29.445-29.458-77.225 0-106.662 29.458-29.46 77.22-29.46 106.68 0z" fill="#F15424"/><g fill="#fff"><path d="M250.02 282.717c-5.745 0-11.195-2.248-15.332-6.328-4.142-4.204-6.397-9.664-6.397-15.434h11.628c0 2.698 1.06 5.258 2.993 7.214 1.889 1.866 4.439 2.926 7.122 2.926h10.700000000000001c2.714 0 5.251-1.05 7.158-2.957 1.907-1.938 2.972-4.5 2.972-7.173.005-2.714-1.05-5.253-2.972-7.171-1.915-1.938-4.449-2.99-7.168-2.99h-.005l-10.665.003c-5.804-.005-11.264-2.276-15.388-6.392-4.05-4.032-6.374-9.644-6.374-15.386.005-5.801 2.26-11.264 6.351-15.396 4.227-4.14 9.674-6.385 15.401-6.385h10.695c5.714 0 11.156 2.243 15.324 6.323 4.163 4.221 6.423 9.682 6.428 15.447l-11.622.015c-.005-2.698-1.075-5.266-3.011-7.227-1.907-1.866-4.465-2.939-7.124-2.939h-10.687999999999999c-2.629 0-5.258 1.098-7.209 3.008-1.859 1.879-2.918 4.436-2.918 7.15 0 2.673 1.075 5.284 2.957 7.153 1.935 1.933 4.48 2.995 7.181 2.998l10.655-.003h.018c5.847 0 11.318 2.278 15.406 6.415 4.099 4.086 6.362 9.556 6.351 15.37.005 5.727-2.245 11.187-6.344 15.36-4.145 4.134-9.592 6.39-15.393 6.39h-10.698l-.032.009zM249.572 200.293h11.62v12.756h-11.62zM249.597 276.914h11.62v12.772h-11.62z"/></g><g fill="#242D3C"><path d="M255.462 345.283l-1.9-.018.141-7.475c.584.01 1.162-.005 1.759.015 1.784 0 3.566-.051 5.348-.156l.433 7.465c-1.925.111-3.855.169-5.781.169zm-9.566-.45c-2.537-.241-5.097-.581-7.611-1.014l1.27-7.363c2.324.399 4.698.712 7.045.937l-.704 7.44zm22.988-.461l-1.001-7.406c2.34-.315 4.69-.727 7.004-1.221l1.562 7.306c-2.493.54-5.04.983-7.565 1.321zm-38.113-2.143c-2.478-.627-4.956-1.352-7.368-2.163l2.378-7.086c2.23.748 4.524 1.421 6.817 1.999l-1.827 7.25zm53.123-1.065l-2.12-7.168c2.26-.666 4.531-1.434 6.735-2.273l2.665 6.984c-2.386.911-4.835 1.736-7.28 2.457zm-67.669-3.822c-2.355-.996-4.692-2.092-6.953-3.267l3.438-6.633c2.089 1.083 4.252 2.097 6.426 3.021l-2.911 6.879zm82.02-1.648l-3.192-6.758c2.14-1.011 4.265-2.115 6.308-3.279l3.702 6.492c-2.21 1.256-4.504 2.452-6.818 3.545zm-95.647-5.404c-2.168-1.347-4.308-2.79-6.364-4.298l4.416-6.026c1.902 1.393 3.884 2.726 5.885 3.968l-3.937 6.356zm108.99-2.207l-4.196-6.188c1.951-1.324 3.881-2.739 5.729-4.214l4.652 5.844c-1.997 1.596-4.078 3.132-6.185 4.558zm-121.372-6.858c-1.93-1.656-3.827-3.413-5.632-5.212l5.276-5.292c1.677 1.669 3.433 3.292 5.222 4.831l-4.866 5.673zm133.386-2.706l-5.092-5.478c.85-.788 1.687-1.597 2.514-2.422.86-.86 1.697-1.731 2.511-2.614l5.489 5.082c-.888.95-1.789 1.889-2.716 2.816-.889.893-1.79 1.763-2.706 2.616zm-144.246-8.131c-1.674-1.94-3.287-3.963-4.792-6.011l6.019-4.429c1.395 1.889 2.885 3.763 4.431 5.56l-5.658 4.88zm154.665-3.128l-5.85-4.649c1.464-1.846 2.877-3.773 4.201-5.724l6.19 4.186c-1.43 2.114-2.959 4.193-4.541 6.187zm-163.773-9.237c-1.347-2.161-2.629-4.406-3.814-6.674l6.628-3.456c1.093 2.097 2.284 4.175 3.525 6.172l-6.339 3.958zm172.367-3.471l-6.497-3.694c1.172-2.058 2.271-4.18 3.274-6.305l6.764 3.185c-1.088 2.296-2.279 4.587-3.541 6.814zm-179.469-10.148c-1.004-2.342-1.925-4.759-2.744-7.181l7.081-2.396c.755 2.237 1.61 4.47 2.534 6.641l-6.871 2.936zm186.01-3.737l-6.989-2.65c.842-2.214 1.605-4.485 2.271-6.741l7.168 2.115c-.722 2.435-1.544 4.882-2.45 7.276zm-190.933-10.811c-.632-2.483-1.172-5.005-1.608-7.511l7.363-1.285c.402 2.314.904 4.652 1.49 6.95l-7.245 1.846zm195.267-3.909l-7.314-1.554c.492-2.307.904-4.664 1.219-7.007l7.406.996c-.338 2.521-.781 5.069-1.311 7.565zm-197.914-11.211c-.243-2.537-.394-5.117-.448-7.665l7.473-.156c.049 2.363.189 4.751.42 7.099l-7.445.722zm199.952-4.001l-7.465-.428c.102-1.772.154-3.546.154-5.32 0-.596 0-1.196-.018-1.789l7.475-.146c.013.643.018 1.29.018 1.935-.003 1.923-.057 3.836-.164 5.748zm-192.804-10.929l-7.462-.41c.141-2.552.384-5.125.717-7.649l7.411.983c-.31 2.335-.533 4.716-.666 7.076zm185.067-3.701c-.223-2.345-.54-4.713-.945-7.048l7.368-1.275c.433 2.519.778 5.082 1.019 7.616l-7.442.707zm-183.198-10.379l-7.314-1.546c.525-2.493 1.155-4.995 1.869-7.444l7.173 2.097c-.658 2.267-1.242 4.584-1.728 6.893zm180.771-3.622c-.579-2.286-1.254-4.577-2.01-6.822l7.081-2.383c.817 2.422 1.551 4.902 2.173 7.368l-7.244 1.837zm-176.78-10.01l-6.994-2.644c.906-2.386 1.912-4.767 2.993-7.071l6.769 3.172c-1.004 2.132-1.936 4.337-2.768 6.543zm172.242-3.451c-.924-2.181-1.948-4.347-3.034-6.433l6.633-3.446c1.172 2.255 2.276 4.595 3.279 6.948l-6.878 2.931zm-166.216-9.397l-6.505-3.686c1.257-2.22 2.616-4.416 4.04-6.525l6.2 4.173c-1.313 1.952-2.573 3.982-3.735 6.038zm159.662-3.213c-1.242-2.004-2.583-3.983-3.983-5.885l6.026-4.426c1.508 2.061 2.954 4.201 4.303 6.364l-6.346 3.947zm-151.736-8.563l-5.86-4.639c1.579-1.994 3.256-3.955 4.989-5.832l5.491 5.069c-1.602 1.738-3.156 3.553-4.62 5.402zm143.326-2.893c-1.536-1.784-3.162-3.538-4.838-5.215l-.195-.197 5.286-5.286.195.2c1.812 1.81 3.569 3.702 5.222 5.629l-5.67 4.869zm-133.685-7.55l-5.094-5.468c1.866-1.738 3.822-3.428 5.816-5.02l4.664 5.839c-1.846 1.478-3.658 3.042-5.386 4.649zm123.43-2.675c-1.8-1.536-3.676-3.018-5.578-4.406l4.406-6.039c2.061 1.498 4.088 3.1 6.026 4.762l-4.854 5.683zm-112.323-6.192l-4.201-6.182c2.112-1.436 4.303-2.806 6.518-4.073l3.715 6.487c-2.048 1.174-4.078 2.442-6.032 3.768zm100.854-2.181c-1.999-1.239-4.081-2.417-6.177-3.497l3.428-6.643c2.271 1.172 4.518 2.445 6.684 3.784l-3.935 6.356zm-88.522-4.875l-3.2-6.756c2.296-1.091 4.675-2.109 7.066-3.023l2.67 6.984c-2.21.842-4.406 1.784-6.536 2.795zm75.912-1.633c-2.173-.919-4.411-1.761-6.651-2.506l2.368-7.094c2.422.809 4.841 1.72 7.191 2.714l-2.908 6.886zm-62.646-3.448l-2.125-7.165c2.445-.727 4.951-1.364 7.439-1.902l1.572 7.309c-2.299.493-4.618 1.087-6.886 1.758zm49.18-1.052c-2.301-.576-4.641-1.068-6.958-1.462l1.259-7.368c2.499.428 5.028.957 7.508 1.58l-1.809 7.25zm-35.287-1.938l-1.011-7.406c2.537-.348 5.112-.599 7.647-.748l.438 7.462c-2.348.139-4.726.372-7.074.692zm21.281-.454c-2.353-.218-4.741-.351-7.099-.389l.125-7.475c2.55.044 5.128.187 7.665.422l-.691 7.442zM166.93 162.215l-4.549-4.549 5.678-5.696 4.549 4.549-5.678 5.696zm-9.116-9.113l-4.547-4.549 5.693-5.688 4.549 4.559-5.695 5.678zM386.639 381.93l-5.312-5.315 5.699-5.681 5.297 5.297-5.684 5.699zm-10.608-10.614l-5.297-5.297 5.693-5.693 5.297 5.307-5.693 5.683zm-10.596-10.596l-5.302-5.297 5.683-5.696 5.297 5.297-5.678 5.696zm-10.614-10.613l-5.297-5.297 5.693-5.693 5.297 5.312-5.693 5.678zm-10.596-10.599l-5.297-5.294 5.676-5.693 5.315 5.297-5.694 5.69zM345.603 160.467l-5.676-5.696 6.292-6.295 5.699 5.693-6.315 6.298zm12.605-12.603l-5.691-5.683 6.29-6.295 5.699 5.678-6.298 6.3zm12.595-12.598l-5.691-5.696 6.308-6.295 5.681 5.696-6.298 6.295zM139.379 366.706l-5.696-5.693 6.295-6.298 5.693 5.699-6.292 6.292zm12.593-12.608l-5.691-5.678 6.292-6.313 5.699 5.693-6.3 6.298zm12.592-12.596l-5.678-5.691 6.298-6.295 5.691 5.691-6.311 6.295z"/></g><g fill="#E6E5E5"><path d="M148.721 81.427c-15.716-15.716-41.185-15.718-56.904 0-15.713 15.713-15.713 41.17 0 56.881 15.716 15.716 41.185 15.721 56.904 0 15.715-15.716 15.713-41.168 0-56.881zM454.523 45.856c-19.638-19.633-51.474-19.635-71.107 0-19.656 19.648-19.656 51.476 0 71.124 19.633 19.635 51.469 19.635 71.107 0 19.648-19.648 19.648-51.476 0-71.124zM127.388 373.001c-19.648-19.651-51.469-19.651-71.124 0-19.648 19.653-19.648 51.477 0 71.112 19.651 19.651 51.474 19.651 71.124 0 19.638-19.633 19.635-51.459 0-71.112zM490.074 387.227c-25.536-25.536-66.895-25.539-92.447.003-25.541 25.536-25.541 66.921 0 92.454 25.546 25.536 66.913 25.536 92.447 0 25.546-25.539 25.541-66.921 0-92.457z"/></g><g fill="#131A26"><path d="M244.38 39.914c0 14.746-11.971 26.693-26.726 26.693-14.779 0-26.739-11.948-26.739-26.693 0-14.769 11.96-26.752 26.739-26.752 14.756 0 26.726 11.983 26.726 26.752zM335.496 475.344c0 12.311-9.976 22.272-22.269 22.272-12.309 0-22.275-9.964-22.275-22.272 0-12.288 9.969-22.277 22.275-22.277 12.29-.002 22.269 9.989 22.269 22.277z"/></g><path d="M333.975 101.298c0 7.419-5.988 13.42-13.409 13.42-7.401 0-13.394-6.001-13.394-13.42 0-7.38 5.996-13.389 13.394-13.389 7.421 0 13.409 6.008 13.409 13.389z" fill="#fff"/><g fill="#F15424"><path d="M511.997 264.147c0 6.584-5.325 11.912-11.924 11.912-6.577 0-11.901-5.327-11.901-11.912 0-6.582 5.325-11.917 11.901-11.917 6.6-.003 11.924 5.333 11.924 11.917zM16.835 181.321c0 3.965-3.223 7.194-7.176 7.194-3.983 0-7.199-3.228-7.199-7.194 0-3.973 3.213-7.178 7.199-7.178 3.953-.003 7.176 3.204 7.176 7.178z"/></g><path d="M453.491 303.433c0 4.915-4.001 8.919-8.94 8.919-4.954 0-8.942-4.004-8.942-8.919 0-4.943 3.991-8.94 8.942-8.94 4.939 0 8.94 3.999 8.94 8.94z" fill="#131A26"/><path d="M23.826 353.168c0 6.572-5.332 11.904-11.901 11.904-6.605 0-11.925-5.332-11.925-11.904 0-6.587 5.32-11.924 11.924-11.924 6.569 0 11.902 5.337 11.902 11.924z" fill="#F15424"/><path d="M80.036 215.983c0 6.748-5.496 12.239-12.255 12.239-6.766 0-12.252-5.491-12.252-12.239 0-6.766 5.486-12.262 12.252-12.262 6.759 0 12.255 5.496 12.255 12.262z" fill="#131A26"/></svg>