<svg xmlns="http://www.w3.org/2000/svg" viewBox="0 0 511.997 511.997" enable-background="new 0 0 511.997 511.997"><path d="M61.952 252.317c0 54.144 21.944 103.168 57.439 138.665l55.457-55.462c-21.276-21.292-34.458-50.708-34.458-83.203 0-64.986 52.675-117.658 117.66-117.658v-78.443c-108.303 0-196.098 87.796-196.098 196.101z" fill="#242D3C"/><path d="M454.154 252.317c0 108.308-87.793 196.101-196.104 196.101v-78.441c64.988 0 117.663-52.672 117.663-117.66h78.441z" fill="#21D8DE"/><path d="M258.053 369.978v78.441c-54.162 0-103.188-21.942-138.665-57.439l55.46-55.46c21.297 21.299 50.711 34.458 83.205 34.458z" fill="#06B2B8"/><path d="M274.721 7.773v128.092c51.633 7.327 92.462 48.156 99.789 99.789h128.09c-8.197-122.091-105.79-219.681-227.879-227.881z" fill="#F15424"/><g fill="#242D3C"><path d="M236.884 503.436c-4.68-.387-9.4-.911-14.042-1.562l1.9-13.596c4.388.614 8.855 1.114 13.281 1.477l-1.139 13.681zm-27.978-3.91c-4.598-.909-9.236-1.966-13.786-3.136l3.418-13.294c4.301 1.108 8.684 2.099 13.025 2.959l-2.657 13.471zm-27.369-7.042c-4.483-1.426-8.978-2.998-13.363-4.675l4.895-12.823c4.147 1.585 8.397 3.069 12.634 4.421l-4.166 13.077zm-26.442-10.094c-4.283-1.917-8.571-3.991-12.746-6.149l6.313-12.191c3.945 2.045 7.997 4.001 12.045 5.814l-5.612 12.526zm-25.121-13.008c-4.035-2.383-8.056-4.92-11.968-7.534l7.639-11.407c3.697 2.475 7.506 4.872 11.315 7.127l-6.986 11.814zm-23.488-15.728c-3.748-2.826-7.468-5.796-11.044-8.822l8.865-10.481c3.384 2.86 6.897 5.668 10.445 8.343l-8.266 10.96zm-21.581-18.245c-3.41-3.226-6.769-6.587-9.989-9.994l9.976-9.431c3.044 3.223 6.223 6.403 9.449 9.452l-9.436 9.973zm-19.407-20.529c-3.018-3.574-5.983-7.288-8.814-11.041l10.962-8.266c2.678 3.553 5.484 7.066 8.335 10.445l-10.483 8.862zm-16.999-22.554c-2.598-3.886-5.13-7.908-7.524-11.953l11.817-6.986c2.26 3.827 4.654 7.626 7.114 11.3l-11.407 7.639zm-14.361-24.302c-2.156-4.165-4.221-8.443-6.139-12.718l12.529-5.614c1.812 4.042 3.763 8.085 5.801 12.017l-12.191 6.315zm-11.546-25.753c-1.672-4.37-3.241-8.85-4.667-13.315l13.079-4.173c1.347 4.221 2.826 8.456 4.408 12.585l-12.82 4.903zm-8.576-26.901c-1.172-4.549-2.227-9.188-3.139-13.78l13.463-2.673c.865 4.344 1.864 8.727 2.97 13.028l-13.294 3.425zm-5.496-27.714c-.65-4.639-1.18-9.364-1.569-14.044l13.681-1.144c.371 4.429.868 8.896 1.485 13.281l-13.597 1.907zM251.238 490.595h13.629v13.629h-13.629zM6.249 245.372h13.632v13.629h-13.632z"/></g><path d="M337.472 252.317c0 43.855-35.566 79.419-79.419 79.419-43.86 0-79.419-35.564-79.419-79.419 0-43.86 35.561-79.419 79.419-79.419 43.855.001 79.419 35.559 79.419 79.419z" fill="#D9D8D7"/><g fill="#242D3C"><path d="M252.168 294.184c-6.467 0-12.567-2.514-17.18-7.084-4.623-4.669-7.145-10.788-7.145-17.272h13.727c0 2.844 1.111 5.532 3.126 7.567 1.976 1.958 4.652 3.062 7.485 3.062h11.729c2.852 0 5.517-1.098 7.519-3.092 1.989-2.02 3.11-4.708 3.103-7.524.008-2.859-1.096-5.522-3.105-7.526-2.012-2.025-4.677-3.133-7.526-3.133h-.005l-11.689.003c-6.497-.003-12.613-2.539-17.229-7.142-4.598-4.585-7.132-10.703-7.132-17.236.003-6.497 2.524-12.613 7.099-17.229 4.716-4.636 10.816-7.148 17.249-7.148h11.722c6.423 0 12.518 2.511 17.167 7.081 4.644 4.708 7.171 10.821 7.183 17.283l-13.727.026c-.008-2.842-1.124-5.537-3.149-7.59-1.992-1.956-4.675-3.075-7.478-3.075h-11.715c-2.772 0-5.53 1.147-7.567 3.146-1.948 1.966-3.057 4.657-3.057 7.508 0 2.854 1.096 5.524 3.092 7.514 2.028 2.022 4.708 3.136 7.542 3.136l11.681-.003h.013c6.525 0 12.646 2.54 17.239 7.16 4.6 4.588 7.132 10.716 7.114 17.229.015 6.431-2.506 12.544-7.094 17.201-4.636 4.618-10.739 7.137-17.236 7.137h-11.722999999999999l-.033.001zM251.187 203.286h13.729v13.993h-13.729zM251.187 287.331h13.729v14.019h-13.729zM103.163 64.465c0 12.48-10.102 22.574-22.559 22.574-12.465 0-22.577-10.094-22.577-22.574 0-12.444 10.112-22.569 22.577-22.569 12.46-.003 22.559 10.122 22.559 22.569z"/></g><circle cx="117.199" cy="452.963" r="25.493" fill="#CCCBCA"/><path d="M499.059 314.065c0 7.012-5.701 12.721-12.716 12.721-7.03 0-12.728-5.706-12.728-12.721 0-7.017 5.699-12.721 12.728-12.721 7.018 0 12.716 5.701 12.716 12.721z" fill="#242D3C"/><circle cx="9.403" cy="121.716" r="9.403" fill="#CCCBCA"/><path d="M37.289 439.023c0 4.767-3.853 8.625-8.622 8.625-4.78 0-8.632-3.858-8.632-8.625 0-4.777 3.853-8.632 8.632-8.632 4.769 0 8.622 3.855 8.622 8.632z" fill="#242D3C"/><g fill="#CCCBCA"><path d="M511.997 106.556c0 3.584-2.885 6.472-6.469 6.472-3.574 0-6.472-2.885-6.472-6.472 0-3.571 2.898-6.49 6.472-6.49 3.584.001 6.469 2.919 6.469 6.49zM417.626 462.419c0 9.364-7.588 16.937-16.919 16.937-9.362 0-16.934-7.572-16.934-16.937 0-9.339 7.572-16.919 16.934-16.919 9.331-.002 16.919 7.578 16.919 16.919z"/></g><circle cx="499.046" cy="374.883" r="8.63" fill="#242D3C"/></svg>