<svg xmlns="http://www.w3.org/2000/svg" viewBox="0 0 512 512" enable-background="new 0 0 512 512"><path fill="#D9D8D7" d="M325.719 501.573h-139.476l12.664-71.104h114.109z"/><path fill="#CCCBCA" d="M325.719 501.573l-12.703-71.104h-114.109l91.241 71.104z"/><g fill="#E6E5E5"><path d="M363.049 512h-214.144v-3.894c0-1.672.635-3.351 1.912-4.626 1.28-1.285 2.954-1.91 4.628-1.91h201.05c1.695 0 3.351.625 4.641 1.91 1.267 1.275 1.912 2.952 1.912 4.626v3.894zM507.082 384.502v33.764c0 6.723-5.519 12.204-12.247 12.204h-477.698c-6.684 0-12.219-5.481-12.219-12.204v-33.764h502.164z"/></g><path d="M507.082 384.502v-320.607c0-6.702-5.512-12.229-12.25-12.229h-477.703c-6.689 0-12.196 5.53-12.196 12.229v320.607h502.149z" fill="#242D3C"/><path fill="#fff" d="M30.252 77.03h451.405v282.086h-451.405z"/><path fill="#21D8DE" d="M49.226 311.27h34.417v47.841h-34.417z"/><path fill="#16C6CC" d="M83.643 201.889h34.381v157.235h-34.381z"/><path fill="#06B2B8" d="M118.016 245.632h34.435v113.485h-34.435z"/><path fill="#21D8DE" d="M152.448 221.056h34.401v138.061h-34.401z"/><path fill="#16C6CC" d="M186.857 302.362h34.394v56.755h-34.394z"/><path fill="#06B2B8" d="M221.261 168.704h34.417v190.413h-34.417z"/><path fill="#21D8DE" d="M255.667 234.291h34.381v124.828h-34.381z"/><path fill="#16C6CC" d="M290.048 270.336h34.414v88.786h-34.414z"/><path fill="#06B2B8" d="M324.454 188.877h34.401v170.24h-34.401z"/><path fill="#21D8DE" d="M358.861 134.016h34.406v225.075h-34.406z"/><path fill="#16C6CC" d="M393.267 109.458h34.442v249.651h-34.442z"/><path fill="#06B2B8" d="M427.725 215.629h34.394v143.488h-34.394z"/><g fill="#242D3C"><path d="M52.557 365.635l-3.331-6.521 21.136-10.744 21.099-40.458 20.805-1.009 20.516-30.838 20.71-3.356 21.499-27.832 23.829 10.009 21.501 22.528 15.422-21.964 23.71-6.216 19.413 14.73 19.021-19.087 19.883-6.034 20.488-44.142 24.248-13.484 22.193 27.257 17.198 9.771 20.334-26.931 21.248 7.611 19.717-16.179 22.323-2.868.94 7.253-20.245 2.616-21.291 17.462-20.086-7.173-20.946 27.737-24.01-13.611-19.162-23.565-16.819 9.329-20.874 44.971-21.256 6.446-22.254 22.321-21.652-16.453-17.662 4.633-19.023 27.088-26.593-27.889-17.245-7.232-19.822 25.674-20.416 3.287-20.787 31.245-20.303 1.001-20.263 38.82zM405.504 0h9.974v109.458h-9.974z"/></g><path fill="#F15424" d="M358.868 0l6.902 18.719-6.899 18.716h46.638v-37.435z"/><path fill="#06B2B8" d="M163.917 119.882h12.49v12.503h-12.49z"/><path fill="#D9D8D7" d="M182.656 126.131h28.129v6.257h-28.129z"/><path fill="#21D8DE" d="M220.749 119.882h12.503v12.503h-12.503z"/><path fill="#D9D8D7" d="M239.488 126.131h28.145v6.257h-28.145z"/><path fill="#16C6CC" d="M277.581 119.882h12.49v12.503h-12.49z"/><path fill="#D9D8D7" d="M296.32 126.131h28.145v6.257h-28.145z"/><path fill="#242D3C" d="M49.226 109.458h91.753v22.925h-91.753z"/><path fill="#fff" d="M59.715 118.144h35.374v6.259h-35.374z"/><g fill="#D9D8D7"><path d="M49.226 138.65h91.753v6.236h-91.753zM49.226 151.117h45.868v6.241h-45.868z"/></g></svg>