<svg xmlns="http://www.w3.org/2000/svg" viewBox="0 0 512 512" enable-background="new 0 0 512 512"><circle cx="430.545" cy="38.784" r="38.784" fill="#CCCBCA"/><path d="M391.761 403.395h-310.303v-364.606c0-9.93 3.789-19.853 11.361-27.43 7.575-7.573 17.5-11.359 27.428-11.359h310.305c-9.93 0-19.853 3.786-27.43 11.359-7.57 7.575-11.361 17.5-11.361 27.43v364.606z" fill="#E6E5E5"/><g fill="#242D3C"><path d="M391.761 38.784h38.784v364.595h-38.784zM391.761 403.405h38.784v108.595h-38.784zM81.458 403.405h38.784v108.595h-38.784z"/></g><g fill="#3E4959"><path d="M391.761 364.595h77.568v38.784h-77.568zM42.671 364.595h38.784v38.784h-38.784z"/></g><path fill="#F15424" d="M175.364 142.935h122.499v61.248h-122.499z"/><path fill="#242D3C" d="M134.532 81.69h40.832v40.829h-40.832z"/><path fill="#CCCBCA" d="M216.196 81.69h40.832v40.829h-40.832z"/><g fill="#242D3C"><path d="M297.86 81.69h40.829v40.829h-40.829zM134.532 224.589h40.832v40.829h-40.832z"/></g><path fill="#CCCBCA" d="M216.196 224.589h40.832v40.829h-40.832z"/><g fill="#242D3C"><path d="M297.86 224.589h40.829v40.829h-40.829zM234.218 122.516h4.805v20.419h-4.805zM234.218 204.186h4.805v20.419h-4.805zM175.364 165.752h-3.602c-5.133 0-9.956-1.999-13.588-5.627-3.628-3.633-5.627-8.458-5.627-13.588v-12.009h4.803v12.009c0 3.85 1.5 7.468 4.221 10.191 2.724 2.721 6.344 4.219 10.191 4.219h3.602v4.805zM157.349 212.588h-4.803v-12.006c0-5.135 1.997-9.958 5.627-13.594 3.633-3.628 8.456-5.624 13.588-5.624h3.602v4.803h-3.602c-3.848 0-7.468 1.5-10.191 4.221-2.721 2.721-4.221 6.341-4.221 10.194v12.006zM301.462 165.752h-3.599v-4.803h3.599c3.848 0 7.465-1.5 10.189-4.219 2.721-2.724 4.221-6.341 4.221-10.191v-12.009h4.808v12.009c0 5.128-1.999 9.956-5.637 13.588-3.625 3.626-8.451 5.625-13.581 5.625zM320.682 212.588h-4.808v-12.006c0-3.853-1.5-7.47-4.221-10.194-2.724-2.721-6.344-4.221-10.189-4.221h-3.599v-4.803h3.599c5.13 0 9.956 1.997 13.583 5.624 3.638 3.635 5.637 8.458 5.637 13.594v12.006h-.002z"/></g><g fill="#fff"><path d="M197.815 171.156h77.568v4.805h-77.568zM197.815 161.536h77.568v4.805h-77.568zM197.815 180.762h38.784v4.808h-38.784z"/></g><g fill="#242D3C"><path d="M134.532 311.731h204.16v4.808h-204.16zM134.532 302.131h204.16v4.805h-204.16zM134.532 321.357h204.16v4.805h-204.16zM134.532 330.957h204.16v4.805h-204.16zM134.532 340.582h204.16v4.805h-204.16zM134.532 350.182h204.16v4.808h-204.16zM297.86 364.595h40.829v4.808h-40.829zM205.572 32.584h12.413v12.411h-12.413zM230.404 32.584h12.411v12.411h-12.411zM255.236 32.584h12.411v12.411h-12.411z"/></g></svg>