<svg xmlns="http://www.w3.org/2000/svg" viewBox="0 0 511.995 511.995" enable-background="new 0 0 511.995 511.995"><path d="M462.889 256.004c0 114.253-92.626 206.889-206.889 206.889-114.26 0-206.889-92.639-206.889-206.889s92.629-206.884 206.889-206.884c114.266 0 206.889 92.631 206.889 206.884z" fill="#E6E5E5"/><path d="M414.825 256.004c0 87.713-71.107 158.83-158.825 158.83s-158.825-71.117-158.825-158.83c0-87.711 71.107-158.82 158.825-158.82s158.825 71.109 158.825 158.82z" fill="#CCCBCA"/><path d="M393.651 256.004l-68.818 68.823c-17.651 17.61-41.948 28.511-68.82 28.511-26.872 0-51.205-10.9-68.823-28.511l-68.838-68.823 68.838-68.815c17.615-17.61 41.951-28.511 68.823-28.511 26.033 0 49.687 10.232 67.156 26.88 1.114 1.085 70.482 70.446 70.482 70.446z" fill="#fff"/><path d="M315.461 256.009c0 32.827-26.642 59.456-59.456 59.456-32.827 0-59.466-26.627-59.466-59.456 0-32.837 26.639-59.461 59.466-59.461 32.812 0 59.456 26.624 59.456 59.461z" fill="#16C6CC"/><path d="M284.099 256.009c0 15.532-12.559 28.114-28.093 28.114-15.537 0-28.124-12.582-28.124-28.114 0-15.537 12.588-28.114 28.124-28.114 15.531 0 28.093 12.577 28.093 28.114z" fill="#242D3C"/><g fill="#fff"><path d="M250.688 236.128c0 8.033-6.533 14.564-14.559 14.564-8.033 0-14.518-6.531-14.518-14.564 0-8.028 6.487-14.546 14.518-14.546 8.026 0 14.559 6.52 14.559 14.546zM241.3 261.795c0 2.857-2.312 5.192-5.171 5.192-2.852 0-5.164-2.335-5.164-5.192 0-2.826 2.312-5.148 5.164-5.148 2.86-.001 5.171 2.321 5.171 5.148z"/></g><g fill="#242D3C"><path d="M253.85 170.013h4.334v15.173h-4.334zM204.366 207.459l-10.73-10.727 3.066-3.067 10.73 10.727zM170.01 253.828h15.173v4.337h-15.173zM196.724 318.334l-3.068-3.065 10.724-10.733 3.068 3.065zM253.798 326.813h4.334v15.176h-4.334zM315.261 318.35l-10.734-10.727 3.066-3.068 10.734 10.727zM326.81 253.853h15.178v4.332h-15.178zM307.62 207.492l-3.071-3.07 10.732-10.736 3.071 3.07zM77.322 256.004h-8.358c0-3.538.1-7.13.3-10.673l8.346.474c-.193 3.379-.288 6.815-.288 10.199zm1.15-20.37l-8.305-.942c.399-3.533.906-7.091 1.508-10.58l8.236 1.421c-.574 3.33-1.06 6.727-1.439 10.101zm3.453-20.104l-8.143-1.889c.801-3.451 1.71-6.927 2.708-10.335l8.02 2.35c-.952 3.257-1.822 6.577-2.585 9.874zm5.737-19.576l-7.872-2.808c1.196-3.346 2.501-6.705 3.886-9.974l7.698 3.259c-1.323 3.123-2.573 6.328-3.712 9.523zm7.964-18.819l-7.498-3.697c1.574-3.19 3.254-6.372 5.002-9.457l7.273 4.119c-1.666 2.95-3.274 5.986-4.777 9.035zm10.064-17.774l-7.027-4.529c1.92-2.977 3.95-5.942 6.044-8.817l6.758 4.92c-2.002 2.751-3.945 5.587-5.775 8.426zm12.019-16.507l-6.464-5.294c2.248-2.747 4.603-5.463 7.004-8.069l6.154 5.652c-2.291 2.494-4.544 5.09-6.694 7.711zm13.811-15.029l-5.827-5.99c2.545-2.47 5.192-4.905 7.869-7.222l5.476 6.313c-2.559 2.219-5.089 4.541-7.518 6.899zm15.419-13.356l-5.107-6.623c2.811-2.166 5.714-4.278 8.635-6.275l4.721 6.894c-2.791 1.911-5.566 3.931-8.249 6.004zm16.822-11.522l-4.321-7.155c3.036-1.833 6.159-3.602 9.288-5.258l3.904 7.396c-2.986 1.578-5.971 3.266-8.871 5.017zm18.014-9.524l-3.474-7.598c3.215-1.475 6.518-2.867 9.818-4.157l3.036 7.788c-3.151 1.231-6.305 2.564-9.38 3.967zm18.993-7.393l-2.58-7.951c3.379-1.093 6.83-2.107 10.253-3.003l2.117 8.087c-3.267.852-6.562 1.82-9.79 2.867zm19.732-5.171l-1.654-8.197c3.479-.701 7.025-1.311 10.527-1.807l1.178 8.271c-3.346.481-6.725 1.062-10.051 1.733zm20.199-2.885l-.709-8.325c3.538-.3 7.124-.502 10.668-.599l.23 8.353c-3.382.092-6.812.289-10.189.571zM261.345 442.968l-.241-8.358c3.412-.097 6.84-.289 10.191-.573l.707 8.328c-3.507.299-7.093.501-10.657.603zm21.271-1.804l-1.18-8.271c3.379-.484 6.771-1.068 10.058-1.731l1.654 8.195c-3.446.69-6.989 1.3-10.532 1.807zm20.944-4.217l-2.127-8.087c3.297-.865 6.595-1.836 9.795-2.875l2.58 7.951c-3.349 1.089-6.797 2.1-10.248 3.011zm20.311-6.602l-3.034-7.788c3.146-1.226 6.303-2.557 9.382-3.968l3.477 7.598c-3.221 1.48-6.528 2.873-9.825 4.158zm19.399-8.87l-3.907-7.391c3-1.585 5.988-3.277 8.873-5.02l4.321 7.158c-3.022 1.822-6.148 3.591-9.287 5.253zm18.266-11.034l-4.726-6.899c2.793-1.91 5.568-3.93 8.251-5.998l5.105 6.618c-2.803 2.168-5.709 4.277-8.63 6.279zm16.896-13.041l-5.476-6.318c2.547-2.204 5.076-4.529 7.521-6.899l5.816 6.003c-2.549 2.476-5.199 4.908-7.861 7.214zm15.316-14.876l-6.154-5.66c2.301-2.499 4.549-5.094 6.692-7.706l6.464 5.294c-2.24 2.74-4.598 5.453-7.002 8.072zm13.54-16.527l-6.756-4.925c1.992-2.737 3.935-5.568 5.77-8.42l7.03 4.529c-1.925 2.982-3.955 5.949-6.044 8.816zm11.579-17.971l-7.276-4.114c1.674-2.959 3.279-6.003 4.777-9.034l7.496 3.694c-1.561 3.174-3.243 6.356-4.997 9.454zm9.454-19.185l-7.7-3.259c1.324-3.123 2.575-6.328 3.712-9.523l7.875 2.808c-1.194 3.346-2.504 6.7-3.887 9.974zm7.184-20.134l-8.023-2.358c.952-3.238 1.823-6.559 2.591-9.866l8.143 1.887c-.802 3.468-1.716 6.947-2.711 10.337zm4.823-20.806l-8.241-1.423c.579-3.331 1.055-6.725 1.441-10.099l8.305.942c-.399 3.533-.909 7.086-1.505 10.58zm2.409-21.219l-8.348-.474c.189-3.361.287-6.792.287-10.204h8.361c.002 3.571-.103 7.163-.3 10.678zM251.827.004h8.358v31.124h-8.358zM94.038 99.937l-22.007-22.001 5.909-5.911 22.007 22.001zM0 251.805h31.119v8.358h-31.119zM77.942 439.967l-5.91-5.91 22.002-22.002 5.91 5.91zM251.802 480.874h8.353v31.117h-8.353zM434.084 439.976l-22.007-22.001 5.909-5.911 22.007 22.001zM480.87 251.831h31.124v8.358h-31.124zM417.959 99.961l-5.91-5.91 22.002-22.002 5.91 5.91z"/></g></svg>