<svg xmlns="http://www.w3.org/2000/svg" viewBox="0 0 512.013 512.013" enable-background="new 0 0 512.013 512.013"><path d="M181.853 381.015c-3.22-1.536-6.444-3.187-9.577-4.915l4.027-7.306c2.99 1.649 6.065 3.226 9.134 4.69l-3.584 7.531zm156.05-.064l-3.592-7.529c3.059-1.457 6.124-3.036 9.103-4.685l4.04 7.304c-3.13 1.723-6.34 3.377-9.551 4.91zm-174.889-10.327c-3.016-1.905-6.016-3.924-8.922-6.013l4.864-6.776c2.772 1.987 5.635 3.919 8.512 5.734l-4.454 7.055zm193.685-.056l-4.465-7.048c2.885-1.825 5.737-3.753 8.497-5.734l4.864 6.774c-2.883 2.075-5.878 4.095-8.896 6.008zm-211.154-12.485c-2.778-2.25-5.514-4.613-8.146-7.017l5.627-6.157c2.509 2.296 5.125 4.547 7.775 6.7l-5.256 6.474zm228.595-.049l-5.263-6.472c2.647-2.156 5.263-4.408 7.764-6.702l5.629 6.157c-2.621 2.401-5.357 4.762-8.13 7.017zm-244.457-14.451c-2.491-2.56-4.936-5.23-7.265-7.928l6.318-5.453c2.22 2.575 4.549 5.12 6.925 7.562l-5.978 5.819zm260.306-.059l-5.988-5.809c2.378-2.45 4.713-4.997 6.932-7.57l6.313 5.45c-2.324 2.699-4.763 5.366-7.257 7.929zm-274.347-16.205c-2.168-2.831-4.278-5.765-6.275-8.719l6.909-4.672c1.907 2.821 3.924 5.619 5.99 8.325l-6.624 5.066zm288.386-.069l-6.628-5.066c2.079-2.719 4.096-5.522 5.993-8.335l6.917 4.664c-1.994 2.951-4.106 5.893-6.282 8.737zm-300.411-17.728c-1.818-3.072-3.569-6.234-5.197-9.395l7.416-3.822c1.551 3.021 3.223 6.036 4.959 8.965l-7.178 4.252zm312.443-.097l-7.183-4.247c1.746-2.947 3.415-5.972 4.961-8.986l7.419 3.812c-1.618 3.161-3.372 6.333-5.197 9.421zm-322.271-18.985c-1.441-3.259-2.803-6.607-4.045-9.938l7.818-2.916c1.185 3.177 2.481 6.367 3.858 9.48l-7.631 3.374zm332.114-.154l-7.634-3.364c1.377-3.133 2.675-6.336 3.858-9.516l7.821 2.9c-1.239 3.334-2.601 6.693-4.045 9.98zm-339.614-19.968c-1.044-3.418-1.997-6.907-2.836-10.373l8.11-1.961c.799 3.305 1.71 6.63 2.711 9.889l-7.985 2.445zm347.107-.22l-7.98-2.427c.993-3.254 1.894-6.582 2.696-9.897l8.108 1.956c-.834 3.469-1.787 6.958-2.824 10.368zm-352.158-20.672c-.63-3.505-1.165-7.086-1.582-10.629l8.279-.988c.402 3.387.911 6.794 1.513 10.143l-8.21 1.474zm357.181-.223l-8.212-1.467c.594-3.341 1.101-6.753 1.5-10.14l8.284.97c-.415 3.554-.945 7.135-1.572 10.637zm-359.723-21.112c-.207-3.551-.32-7.165-.325-10.739l8.343-.013c.005 3.418.11 6.868.315 10.255l-8.333.497zm362.237-.228l-8.328-.489c.2-3.374.297-6.822.297-10.25v-.379h8.343v.379c0 3.586-.107 7.199-.312 10.739zm-353.933-20.779l-8.328-.479c.202-3.574.517-7.176.927-10.706l8.284.965c-.386 3.372-.686 6.81-.883 10.22zm345.588-.592c-.207-3.392-.517-6.828-.922-10.209l8.282-.996c.425 3.543.75 7.148.965 10.708l-8.325.497zm-343.212-19.771l-8.212-1.459c.62-3.502 1.359-7.045 2.189-10.524l8.115 1.94c-.794 3.321-1.498 6.697-2.092 10.043zm340.764-.581c-.602-3.331-1.318-6.71-2.122-10.03l8.105-1.969c.845 3.479 1.592 7.02 2.222 10.514l-8.205 1.485zm-335.99-19.359l-7.982-2.424c1.039-3.423 2.194-6.858 3.438-10.209l7.823 2.898c-1.185 3.197-2.288 6.471-3.279 9.735zm331.144-.558c-1.004-3.256-2.112-6.525-3.302-9.708l7.813-2.921c1.249 3.336 2.414 6.764 3.466 10.176l-7.977 2.453zm-324.011-18.7l-7.636-3.359c1.441-3.274 2.998-6.548 4.628-9.725l7.419 3.809c-1.554 3.031-3.039 6.149-4.411 9.275zm316.841-.484c-1.37-3.092-2.86-6.2-4.429-9.234l7.414-3.825c1.644 3.18 3.208 6.438 4.641 9.679l-7.626 3.38zm-307.474-17.779l-7.183-4.242c1.812-3.072 3.745-6.134 5.745-9.098l6.915 4.657c-1.904 2.828-3.747 5.751-5.477 8.683zm298.071-.413c-1.736-2.926-3.584-5.834-5.491-8.653l6.907-4.677c1.997 2.949 3.935 6.001 5.755 9.07l-7.171 4.26zm-286.613-16.606l-6.633-5.061c2.171-2.842 4.447-5.652 6.774-8.356l6.321 5.445c-2.217 2.578-4.391 5.258-6.462 7.972zm275.128-.361c-2.071-2.698-4.25-5.373-6.482-7.946l6.31-5.458c2.337 2.701 4.621 5.499 6.789 8.33l-6.617 5.074zm-261.744-15.186l-5.988-5.806c2.488-2.573 5.082-5.094 7.706-7.498l5.635 6.149c-2.502 2.293-4.972 4.702-7.353 7.155zm248.328-.318c-2.378-2.437-4.854-4.838-7.373-7.137l5.622-6.162c2.639 2.409 5.24 4.925 7.724 7.48l-5.973 5.819zm-233.216-13.545l-5.271-6.467c2.765-2.25 5.635-4.449 8.53-6.536l4.877 6.766c-2.76 1.995-5.502 4.092-8.136 6.237zm218.063-.284c-2.637-2.132-5.384-4.227-8.161-6.218l4.854-6.781c2.918 2.086 5.798 4.283 8.561 6.523l-5.254 6.476zm-201.439-11.694l-4.462-7.048c3.008-1.907 6.118-3.753 9.231-5.478l4.045 7.296c-2.972 1.646-5.936 3.407-8.814 5.23zm184.755-.253c-2.867-1.81-5.839-3.566-8.837-5.215l4.019-7.306c3.146 1.731 6.259 3.569 9.272 5.468l-4.454 7.053zm-166.84-9.672l-3.599-7.524c3.21-1.539 6.51-2.998 9.812-4.344l3.149 7.724c-3.146 1.282-6.298 2.68-9.362 4.144zm148.864-.223c-3.082-1.467-6.249-2.857-9.403-4.129l3.128-7.734c3.308 1.336 6.623 2.793 9.856 4.329l-3.581 7.534zm-129.894-7.508l-2.68-7.9c3.377-1.147 6.835-2.207 10.278-3.151l2.207 8.046c-3.285.898-6.585 1.912-9.805 3.005zm110.86-.185c-3.228-1.085-6.528-2.081-9.818-2.975l2.179-8.051c3.453.934 6.915 1.981 10.294 3.118l-2.655 7.908zm-91.089-5.237l-1.723-8.161c3.494-.737 7.055-1.38 10.578-1.907l1.234 8.251c-3.362.501-6.759 1.113-10.089 1.817zm71.303-.118c-3.331-.694-6.728-1.293-10.099-1.784l1.206-8.256c3.535.517 7.101 1.147 10.588 1.871l-1.695 8.169zm-51.031-2.918l-.748-8.31c3.551-.317 7.16-.532 10.729-.643l.259 8.34c-3.41.101-6.856.308-10.24.613zm30.741-.049c-3.384-.294-6.83-.489-10.24-.586l.228-8.335c3.574.097 7.183.3 10.726.607l-.714 8.314z" fill="#242D3C"/><path d="M259.821 76.132c-77.868.02-140.971 63.127-140.971 140.992 0 41.257 17.738 78.356 45.962 104.128 1.336 1.165 2.688 2.319 4.032 3.5 22.042 20.091 35.889 48.978 35.889 81.142v18.335h110.164v-18.335c0-32.164 13.839-61.053 35.884-81.142 1.352-1.18 2.698-2.335 4.04-3.5 28.214-25.769 45.962-62.871 45.962-104.128-.003-77.865-63.113-140.972-140.962-140.992z" fill="#E6E5E5"/><path d="M375.551 217.124c0 63.946-51.804 115.745-115.738 115.745-63.941 0-115.75-51.796-115.75-115.745 0-63.895 51.809-115.738 115.75-115.738 63.934 0 115.738 51.843 115.738 115.738z" fill="#fff"/><path d="M350.296 217.129c0 49.964-40.509 90.46-90.511 90.46-49.971 0-90.46-40.497-90.46-90.46 0-49.994 40.489-90.486 90.46-90.486 50.002.003 90.511 40.492 90.511 90.486z" fill="#242D3C"/><path d="M238.629 292.754c.356.072 1.334-.261 1.626-.333-.673-.54-2.143-.596-2.988-1.121.072.031-2.721-1.664-2.132-.266.161.33.673.028.932.21-.351.484-.492.333-.125.576 0-.018-3.092-1.702.013-1.807-2.135-1.933.148-1.326-.535-2.552-.471-.832 1.823-1.633.576-2.353-.566-.351-1.221-.284-1.833-.694-.847-.625-.049-1.723.758-1.597.072 0 .499-1.956.643-2.273-.233-.084-1.823-2.079-1.446-2.496.474-.484 2.555 1.283 3.062-.031.205-.463-.709-1.748-.643-2.276.942-.095 7.104.136 6.07-2.698-.364-.973-2.957-2.45-2.696-3.256.896.141 2.401 1.444 3.361.922.794-.41 1.428.448 2.281-.466.118-.177 1.516-1.636 1.103-1.92-.417-.003-.643.228-.684.724-.484-.668.351-1.134.796-1.613.092.154.22.292.32.412.509-.758 3.361-4.477 3.438-4.577 1.487-1.684.282-3.96 1.741-5.33 1.306-1.236 2.757-2.061 4.403-2.719.504-.195 2.299-1.149 2.68-1.05 3.052.942 2.67-2.685 4.616-4.316 1.961-1.633.497-10.025 2.097-10.642.87-.338 3.446-3.528 4.782-4.966 1.288-1.393 1.475-3.182.952-4.959-.778-2.714-1.523-1.172-3.487-2.327-1.574-.947-2.772-2.819-4.718-3.087-1.132-.156-2.34.177-3.456-.146-.481-.148-1.789-.94-2.273-.271.072-.113-1.055.417-.978.443-.115-.067-.026-1.48-.381-1.836-.584-.55-2.611-1.124-3.356-1.3-1.677-.435-2.092 1.559-2.514-.827-1.411-.364-2.78-1.987-2.545-2.399.131-.172-2.161-5.012-2.483-4.557-.02-1.628-5.051-3.643-6.333-2.867-1.157.829-3.256-.758-3.965-1.505-.799-.876-.786-1.784-2.109-2.337-.586-.256-1.554-.123-1.336-1.111.223-1.037-2.481-1.247-2.734-2.25.384.064.709-.115 1.073-.21-1.06.366-2.348-.41-3.379.44-1.508 1.262-2.404-.594-4.055-.264-2.109.402-.694-.366-2.02-1.172.545.33-2.455-1.372-1.746-1.313-.63-.067.087 1.042-.604 1.283-1.101.402-2.033.648-1.334 1.969 1.206 2.401-2.506 1.262-.76-.364.31-.289.392-3.407.742-3.313-.433-.138-3.82 2.068-4.221 2.529-1.075-1.738-2.934 4.324-3.551 4.37-.294-1.49-1.72-2.099-2.941-2.532-1.068-.422-2.117 2.109-3.494.727-2.458-2.496-1.375-6.472-.12-9.321.52-1.29-4.534-1.687-5.143-1.157-1.234 1.004.182-2.084.179-1.974.146-1.26.415-2.074.973-2.061.323-.724 2.196-4.091 2.004-4.506-.748-1.759-3.93 1.385-4.224 2.158-.338.776-.945 1.19-1.229 1.884-.317.699-.901-.164-1.398.123-1.38.786-3.333.381-3.041-1.613.317-2.404-.594-7.148 2.089-8.791.827-.509.957-2.885 1.907-3.75.115-.09 2.844-1.669 2.573-1.984.387.428 2.537-.428 2.808.131.202.438 1.48.932 1.923.673l.212-1.065c-.033-.01-.878-.131-.832-.399.097-.384 2.637-.115 2.729-.108 1.203.082 2.107 1.085 2.995.481 1.398-.947.54 5.279 1.103 5.839.3.34.092 1.08.678 1.019.783-.072 1.047-8.051 3.103-9.728 1.487-1.213 3.144-2.304 4.803-3.2.527-.271 1.9-.94 2.186-1.454-.054-.256-.315-.553-.591-.294-.074-.484.73-.187.883-.694.159-.515-.415-.701-.353-.87-.028.059.509-1.055.323-.901l.038.11c.827.138-.172-.763-.212-.901 1.073.561.627-1.188 1.677-1.288-.75.317-.614 1.17-.494 1.702.218 1.132 1.231-1.58 1.098-1.48 1.014-.425 2.601-1.277 3.681-2.035-.253-.102-.512.084-.822-.118 1.114-.41 2.365-.276 3.42-.832-.049-1.121.622-2.294 1.902-2.514 1.92-.3 4.201-1.482 6.116-2.153-.271.681.166.154.699.399-.63-1.628-4.065 3.041-2.427 2.092 1.377-.788 6.011-1.523 6.656-2.857l-.32-.96c-1.134 0-1.231 1.418-2.644 1.398-2.565-.031-1.014-1.605-1.551-2.312-.443.108-.832-.015-1.132-.366.253-.061 3.41-.781 1.728-1.16-2.698-.586-4.5 2.44-6.725 2.365 1.661-1.021 3.927-3.177 5.937-3.456 2.156-.289 5.151.758 7.037-.579 1.674-1.162 2.849-.315 3.786-2.214.299-.512-1.226-1.155-1.628-1.254.197-.187.504 0 .648-.312-2.55-1.126-3.069-2.255-3.379-5.187-1.288.934-5.622 2.949-3.305-.325-.835-.361-3.466-2.55-4.467-1.034-.474.676-1.201 1.825-1.979 2.184-1.718.771-.184.627-.773 1.777-.978 1.9-3.3 1.638-4.431 3.29-.699 1.042-.906 1.792-1.999 2.276-.963.407-1.321-.709-.85-1.608.34.374.645.443.906.164.09-.415-.486-.218-.668-.374.317-.586.74-1.121 1.213-1.626-.156-.077-2.593-.463-2.501-1.101.177-1.347-1.516-.596-1.792-1.009 1.288-1.631 1.288-2.401 3.837-3.681.865-.43 5.757-2.936 6.669-2.307-.12.573-.732.451-1.047.735.696.192 2.747.407 3.436-.082-.148-.125-.963-1.485-.548-1.82-.061.082 1.398.049 1.516-.013.799-.179 1.641-.269 2.089-1.075.389-.701 2.972-1.613 3.599-1.265 3.359 1.912-4.598 3.937-4.669 3.732.159.553 2.294-.397 2.844 1.078.146.358 2.563 1.144 2.808.809.148-.174-.694-1.065-.724-1.28 2.568 1.242 2.401.591 1.987-1.129-.404-1.636 1.51.118 1.608.166.43.223 2.14-.773 2.412-1.126-.607-.486-1.69-.474-2.22-1.06-.538-.507 1.321-.627.668-1.157-.781-.64-2.007-.481-1.574-1.718-.456-.125-.881-.069-1.265.159.113.233.374.054.451.172-.402.266-.888.312-1.359.3.138-.218.586-.218.589-.645-1.326-.154-2.028.645-3.177.998.325-.476.899-.632 1.285-.98-1.265.156-2.468.627-3.461 1.452.151.146.284.276.379.471-.957.852-2.253 1.114-3.384 1.641.195-.763 1.016-.596 1.293-1.16-.417.01-.827.123-1.196.276.481-.056 1.907-1.477 2.227-1.848-2.045-.233-2.921 2.417-4.882 2.048.422-.468 1.247-.22 1.521-.957-.719.082-3.441 1.933-3.881.957-.033-.054 4.982-2.048 5.504-2.762-.34-.049-.717.31-1.032-.095l.945-.596c-1.649-.01-6.528 1.964-6.17 3.126-.627.509-1.318.658-2.084.323.31-.474 1.37-.481.507-1.157-1.582.566-3.108 1.216-4.636 1.887-3.53 1.572-6.999 3.41-10.268 5.437-5.409 3.343-9.879 7.293-14.344 11.786-2.381 2.414-11.418 12.956-11.389 15.16.031 1.623-.927 3.054-1.546 4.534-.474 1.193-.558 2.854-1.144 3.971-1.298 2.337-.704 5.046-1.298 7.747.75-.576 2.278-12.892 3.615-12.436.253.097-.824 5.13-1.119 5.752-1.108 2.583.356 5.74-.374 8.443-.074.266-.448 1.628-.456 1.907-1.234.957.333 2.371.323 3.423 0 .63 3.177 3.41 3.781 3.768 1.324.809 1.605-.614 2.813-.358 1.093.236 1.411 2.209 1.994 3.044.776 1.175 3.743 1.05 4.25 1.61.335.41.056 2.68 1.418 2.988-.01-.156-.054-.965.148-1.068.412-.248 1.272 1.249.993 1.544-.43.074-.835-.051-1.137-.476 0 .2-.23 3.172.643 2.593l.082-.535c1.129.476 1.052 2.14 1.846 2.371 1.121.307 1.938 1.702 2.767 2.102.745.366.55-2.614 1.953-2.77 1.16-.09 1.8 2.89 2.186 3.602.604 1.042-.801 3.564-.028 4.37.801.832-1.951 2.824-2.107 3.658-.079.653-1.472 1.244-1.421 1.498.105.699-.317 1.641-.553 2.309-.701 1.841-.356 2.012.837 2.87.036.02-2.22 4.539-.916 5.691 2.045 1.69 4.78 5.857 5.432 8.481 1.339 3.617 3.397 5.832 6.845 7.611 2.785 1.472 4.764 3.986 4.764 7.332.105 1.987-.179 4.472.648 6.328.586 1.308-.52 3.433.32 4.613.54.714-.172 1.121.146 1.81.33.732 1.093 1.94 1.07 2.808-.015 1.411 0 3.09.084 4.493.044.474-.41 1.306-.159 1.595.325.389 2.232 5.089 2.232 6.474-.02.323 1.454-.105.12-1.431 1.582-.888 1.277 2.826 1.385 2.854-1.428-.486-.502-.1-.404 1.731.064 1.073-.274.568.602.768 1.398.305 0 1.236.532 1.997 1.044 1.518 2.66 2.906 3.776 4.078 1.778 1.922 4.857 1.625 7 2.06zm5.88-147.466c-.499.443-1.021.527-1.592.691.387-.612 1.009-.515 1.592-.691zm-4.697-.412c.379-.051.648.049.863.317.008.128-1.935.22-2.222.714.245-.857.939-.694 1.359-1.031.192.24-.42.337 0 0zm-4.736 3.345c.417.105-.592-.092 0 0zm-2.601-4.951c.179-.197.312-.172.407.084-.187.224-.333.18-.407-.084zm-2.596 7.726c-.724-.048.781.041 0 0zm.781-2.995c-2.529 2.342-.556.028-1.313.748.031.054 0 .1-.033.1-.193-.236 1.302-.83 1.346-.848-.336.31-.433.072 0 0zm-.932-2.785c-.466.527-.466.527-1.088.415.338-.231.771-.154 1.088-.415zm11.254-8.893c-.177.023-.325.023-.604.023.816-.684.678-.023.604-.023zm1.81-1.196c-.287.31-.686.118-1.011.274.358-.701.43-.714 1.011-.274zm-10.207.819c.22-.182.479-.284.755-.261.236.351-1.531.558-.755.261.11-.182-.085.046 0 0zm-.443-.509c.284.133.261.256-.082.407-.246-.151-.205-.274.082-.407zm-13.186 22.512c.02-.013-3.958 1.582-3.656.599-.102.32 1.354-1.129 1.06-.996.312-.143 2.982-.297 3.756-.282-.413.39-.797.534-1.16.679-.889.328.363-.145 0 0zm3.161-1.971c3.287.338-1.943 1.329-2.504.73.73-.64 1.606-.819 2.504-.73zm-.53-20.377c.865-.553 1.812-.96 2.947-1.224-.829.684-1.958.986-2.975 1.267l.028-.043zm.185 17.72c-.154.138-.302.131-.438-.01.199-.067.389-.139.438.01zm-.966 1.966c-.079 0-.34-.077 0 0zm-.975-1.667c1.185.535.497 2.383-.522.947-.038.863-1.523 2.312-2.317 2.488.297-.348.41-.712.297-1.126-.251-.197-.74.387-1.014.374.118.509 2.15-3.479.43-2.337-.617.481-4.71 4.833-4.946 4.6-.381-.384 1.81-3.589 1.979-3.704 1.388-1.16 4.329-2.086 6.093-1.242zm-2.271-15.221c.154-.108 1.48-.911 1.644-.724.425.517-2.125 1.17-2.24 1.188.151-.329.402-.37.596-.464.461-.279-.194.094 0 0zm.267 10.67c-.005.067-.535 1.055-.835.655-.264-.264.748-1.111.835-.655-.041.253-.023-.123 0 0zm-2.868-8.254c.141 0 2.268-1.334 2.33-.773.026.149-2.583.814-2.33.773zm-.586 2.207c-.131.233-.253.353-.556.353.116-.263.305-.281.556-.353zm-1.492 5.107c.305-.22.988-1.329.65-1.774.2.246-1.267-.148-.589-.407.269-.079 1.923-1.004 2.186-.717.486.499-2.079 3.177-2.583 3.4.051-.274.202-.402.336-.502zm1.472 3.382c1.815-.586 2.491-1.62 3.587-.223.415.525.328 1.876-.653 1.549.284.09-2.952-.205-2.355-.561-.655.399-1.928.676-2.685.356.71-.402 1.333-.87 2.106-1.121.445-.154-.773.251 0 0zm-2.56-3.405c.164.438.041.645-.458.745.197-.31.335-.532.458-.745zm-25.966 39.493c-.853-.028.637-.028 0 0zm10.47 7.519c-.228.09.663-.151 0 0zm25.579 8.453c-.435-.061.52.044 0 0zm4.191 75.006c-.719-.139.392-.587 0 0-.176-.046.008-.046 0 0zm1.861-37.527zm.295 23.378c-.474.156.496-.187 0 0zm2.462 25.182c-.333-.187-.333-.31-.013-.361.362.136.367.272.013.361zm3.264 1.424c-.333-.064-.31-.192.097-.397.295.128.262.261-.097.397zm-6.901-9.311l-.12.059c.112-.105.125-.115.12-.059zm8.087-150.579v-.013.013zm-30.733 14.574l-.008.013.008-.013zm.855-.722zm143.557 55.9l.01.008c-1.769-6.505-3.108-12.959-5.788-19.274-3.21-7.493-7.424-14.577-12.526-20.943-4.792-6.003-10.365-11.412-16.533-16.01-2.998-2.253-6.124-4.293-9.39-6.162-1.544-.893-3.128-1.72-4.741-2.534-.701-.33-3.172-.988-3.553-1.577.02.276 1.454.996 1.636 1.172-.955-.256-3.479-1.324-3.51-1.482.051-.118.246 0 .225-.192-1.426-.899-6.774-2.872-7.828-1.418.23-.284 3.681 3.715 3.758 4.411.238 1.559 2.67 3.208 4.216 3.715 2.143.712.53-.246 1.436-.753.612-.292 1.149.98 1.677.691l.026-.038c-.148-.302-.315-.594-.497-.888-.154 0 3.917 4.191 4.424 3.274-.481-1.134-1.219-2.424-2.363-3.484-1.016-.957-2.619-1.034-3.73-1.997-.556-.497-2.632-2.007-2.839-2.706 2.726.092 5.88 5.868 8.589 3.628-.374-.264-.73-.532-1.08-.835.497.143 2.783.891 2.025 1.843-2.194-.381 1.82 1.825 1.882 2.074l-1.032-.374c.161.753 2.322 1.544 2.468 2.826-1.28.207-.735-.778-1.587.271-.264.335-1.434.238-2.053.271-1.508.113-3.169-2.406-4.268-3.195.456 1.426 1.236 2.092 2.824 3.103.771.422-1.073.62-1.024 1.26.044 0 .486.233.468.346 0 .079-.407-.284-.468-.346.131-.1-.282 2.486-.317 2.452 1.229 1.431-1.649 1.014-1.7 1.065.22.33.673.479.778.96-.819.054-1.516-.082-2.312.218 1.167.351 7.652 3.356 6.241 5.614-.463.717-4.854-.179-5.668-.228-1.687-.118-.105 1.644-.067 1.833.271 1.28 1.265 1.851 1.185 3.369-.069 1.052 1.024 1.093 1.341 1.994.294.778.138.863.945.965 1.436.182 1.472-.038 2.691.919.888.673 1.221-.63 2.245-.678 2.565-.113.376-.643 1.62-.968 1.528-.43-.428-2.824-.34-3.295.115-.617-.087-1.316.74-1.551 1.298-.346-.348-1.71-.422-2.063-.274-1.083 3.592.911 3.139-1.807 2.189.696 4.47 2.698 6.525 3.853 1.183.73 2.404 1.421 3.284 2.557 1.047 1.37-1.518.806-1.669 1.188-.148.44 2.255 1.528 2.652 1.508.049-.243-.299-1.628-.34-1.869-.108-.952-1.503-1.91-1.413-2.668.44.033.832.212 1.201.492-1.303-1.6-3.4-1.766-4.879-2.934-.896-.73-2.012-1.318-2.89-2.079 0 0-1.564-1.987-.468-1.608 1.731.599 3.61 2.348 5.368 3.254 1.403.735 1.731 1.198 2.778 2.394.407.481 2.552 2.964 3.041 3.057-.01-.028 1.751 1.572 2.458 1.8-.302-.722-.591-1.636-.968-2.202-.474-.804-2.476-1.242-2.476-2.417.448.033.494-.438 1.487-.392-.512-.026.635-.773.556-.666-1.866-1.078-4.411-4.214-5.074-6.331.515.018.799.719 1.362.366-.189-.366-.248-.735-.189-1.129.148.161 1.907 1.695 1.549 1.992-.497-.01-.901-.233-1.265-.62.261.899 1.147.911 1.516 1.526.049-.236-.123-.463.079-.717 1.556.637 4.713 3.123 5.14 4.849-.694.067-1.976-1.375-2.442-1.027-.141.353-.123.704.079 1.034-.207.01-.412.059-.571.156.241.207.376.461.425.781l-.776.215c.212.873 4.797 5.248 5.128 4.797.095-.146-.195-.586-.125-.658.248-.274.973.996 1.347.742l.023-.753c.699-.361 3.448 5.038 3.804 5.66 1.318 2.493.438.98-.563 1.313-.164.269-.266.525-.294.832-1.595-.366-3.346-1.298-4.657-2.23-2.084-1.495.668 4.076-.538 3.374-.701-.404-1.132-1.001-1.997-1.065-1.252-.12-1.62-1.49-2.77-1.856-.945-.338-4.682-.673-4.206-2.391.399-1.464-1.49-2.678-2.115-3.241-.302-.287-4.475.253-5.143.468-1.147.364-2.957.74-3.589 1.795-1.108 1.987-3.628-.625-4.659-.202-.538.195-.018 1.83-.294 2.358-.43.778-1.428.842-1.687 1.759-.44 1.71.847 3.09.261 4.657-.468 1.242-2.867 1.777-2.89 2.796-.023.545-.146 1.157-.632 1.441-1.111.627.013 2.056-.645 2.762-3.699 3.763 1.162 7.421.333 11.543-.486 2.317-.724 2.803.261 4.805.236.507.054 4.122 1.897 2.66.22 2.117 2.941 2.555 3.423 4.541.586 2.388 2.911 3.433 4.726 4.859.727.561 1.336 1.285 2.186 1.723 1.49.758 2.491-.43 3.907-.822 1.288-.361 2.634-.225 3.848.346.684.338 5.88-3.343 7.299-2.642 1.029.512 1.078 1.766 1.546 2.66.681 1.26 2.109-.404 3.062.031 1.702.773 2.207 6.984.771 8.131-1.07.806 1.398 4.204 1.736 4.902.965 1.923 1.825 5.274 1.531 7.406-.236 1.736.23 4.449-.748 5.998-.973 1.505-1.544 3.126-2.34 4.861-2.061 4.429-.092 9.457-1.859 14.06-1.05 2.355-.865 4.869-1.452 7.355-.374 1.572-2.312 3.876-1.539 5.535 1.142-1.047 2.857-.906 4.163-1.574 2.68-1.301 3.965-4.401 5.898-6.464 1.034-1.085 1.687-2.455 2.314-3.802.579-1.267 1.777-2.089 2.314-3.338l3.958-9.475c2.867-6.815 3.356-13.368 4.342-20.672 1.06-7.756 1.08-15.103-.369-22.832zm-6.833-17.961c-.374-.911-5.184-7.98-4.636-8.374.643-.392 10.965 17.841 9.848 20.672-1.564-4.16-3.468-8.21-5.212-12.298zm4.416 32.264c-.207-.507.061-.942.218-1.539.205.648-.146 1.057-.218 1.539zm-.529 2.88c-.028-.312-.033-.558.154-.783.148.301-.001.514-.154.783zm-1.739 23.413l-.543.2c-.338 0 .632-.458.66-.489-.035.156-.035.238-.117.289-.112.208.082-.051 0 0zm.272-9.51c-.003-.865.023-.906.896-1.475-.167.617-.807.912-.896 1.475zm.96-4.424c-.01-1.582-.049-3.469.307-5.002.049 2.691.197 5.417.105 8.125-.438-.578-.412-2.449-.412-3.123zm1.436 5.062c-.033 1.449-.241 5.404-1.167 6.525.064-2.46.98-4.68 1.032-7.107.186.236.135.415.135.582zm1.139-14.797c-.433 1.756-.008 2.291-1.055 3.233 0-1.28-.481-3.743.847-4.503.175.422.318.76.208 1.27-.182.724.11-.51 0 0zm-56.822 84.055c.164.241-11.356 3.482-12.536 3.748-4.8 1.011-9.641 1.628-14.536 1.876-9.3.451-19.011-.392-27.942-3.123 1.142.148 2.529.74 3.699.548-1.116-.694-2.501-.438-3.492-1.324 3.73.604 7.288.328 10.711.76-.366-.466-3.474-1.224-3.464-1.556.443-.031 2.849-.108 2.936-.174 1.134-.878-1.795-.755-1.533-1.408.087-.161.901.125 1.165-.253.456-.599 0-.901.174-1.203.128-.266 4.621-1.037 5.117-.835-.54.328-1.149-.054-.932.827-.453-.059-1.83-.028-1.933.594.049-.164 1.546 1.93 1.58 2.025.543.801 2.335 1.313 2.491 2.291.292 1.633 8.87 1.477 10.158 1.321 3.195-.369 6.182-1.495 9.331-2.051 1.889-.335 3.74-.865 5.65-1.034.891-.113 3.84-1.142 4.506-.906.42 1.546 7.276-.448 8.85-.123.026.033-.243-.064 0 0zm52.119-49.956c.376-.934.671-1.894 1.119-2.79-.279.977-.696 1.866-1.119 2.79zm1.511-3.748l.128-.333c.007.139-.08.22-.128.333zm-98.955-118.451c-.497-.074-.998-.036-1.508-.105.274-.236 1.779-.282 1.121-.704 2.092-1.293 6.446-1.546 8.85-1.267 2.693.343 5.386-.494 8.046-.079 1.06.192 2.002.212 3.046.274.952.12-.115 1.073.952 1.224.627.072 1.871 1.5 2.455 1.183-.028.996-.468.317-.164 1.234.079.205 1.175.84 1.129.906-.095.161-3.121-.064-2.97-.028-.23-.038.054.471.246.392.607.151 1.897-.046 2.555.003-1.513 1.39-3.796 1.211-5.476 2.304-1.016.694-2.573.627-3.712 1.029 0 1.165-.868 2.56-1.633 3.763-.55.822-4.37-1.08-4.754-1.569-.845-1.006-2.742-3.633-.684-4.452 2.514-.996.013-.182-.732-.717.599-.847 1.277-.548 2.22-.425-.471-.666-1.098-.84-1.818-.486-.233-.719 1.042-1.377-.084-2.145-.479-.333-3.139.064-3.205-.402-.166-1.149 3.218-.543 3.814-1.49-2.533-.54-5.236 1.92-7.694 1.557zm47.622 17.257c.407-.054-.507-1.341-.753-1.613.302.033.53.061.801-.102-.195-.589-2.857-2.12-3.023-2.01-1.001.625-2.25-2.156-2.36-2.547 1.7-.22 2.757 1.595 4.278 2.358 1.326.627 6.052 2.875 6.18 4.293.108.714-3.561.422-4.111 1.265-.407-1.052.906-1.032.886-1.354-.048-.252-1.686-.323-1.898-.29zm-48.205 1.331c-.248.177-3.443 3.213-3.361 3.502.054.284 3.315.072 3.863.397-.036.361-.476.166-.545.504.433 0 1.741-.829 1.964-.586.031.205 0 .415-.108.602 1.434 1.418 1.295-1.667 1.377-1.83-1.011-.146.228-1.549-1.5-.952.123-.046-1.838-.589-1.736-.468-.156-.161 1.385-1.513 1.508-1.667-.914-.242-1.035.158-1.462.498-.543.389.107-.102 0 0zm3.159 3.354c.133.105-.22.105 0 0zm-.727-.085c.087-.1.643-.338.312-.023-.118.205-.609.353-.312.023zm-2.245-3.679l.01-.015.013.036-.023-.021zm-2.906 2.898c.1 0 .174 0 .238.059-.082.003-.433-.02-.238-.059zm-31.388 37.73c-.888.092.571-.686.451-.968-.604-1.375-4.695-1.677-5.084-2.762.177-.09.302-.205.361-.379-1.413-.581-2.117 1.147-3.402 1.024 2.637-4.467 9.196.645 11.832 2.721-1.404.156-2.794.167-4.158.364-.123.005.75-.093 0 0zm3.405 2.378c-.653-.274 2.171-.251 2.56-.417-.566-.842-.049-1.311-1.139-1.654.998-1.211 4.283.212 5.32.66-.067.156-.282.01-.392.205.092.072 2.258 1.866.801 1.244-1.592-.673-2.481.284-3.615.906-.888-1.251-2.36-.381-3.535-.944-.123-.046.279.146 0 0zm76.603-45.765c1.541 1.597-.832 2.811-1.905 1.792-.533-.53-.22-1.833-1.444-2.202.333-.095.663-.212.996-.323-.865-1.96 1.974.323 2.353.733zm-20.009-9.667c-.113-.31 2.199-.174 2.591-.243.612-.105 5.197.34 3.587 1.091-1.239.558-3.098 1.196-4.278.118-.295-.246-1.893-.894-1.9-.966-.085-.223.089.307 0 0zm41.889 22.733c.522 0 1.818 2.068 1.613 2.394-.62.98-1.631-1.49-2.284-1.869.233-.154.443-.328.671-.525zm-71.601-27.845c1.564-1.206 1.91-.517 3.855-.333-.611.581-2.109.689-3.855.333.438-.341 1.746.356 0 0zm34.54-1.354c-1.155-.333-2.376-.381-3.5-.829 1.341-.136 2.964.379 3.909.645.305.107-.512.15-.409.184-1.155-.333.115.018 0 0zm-3.5-.832l-.376.051c.118-.123.271-.156.376-.051zm-60.984 62.819c.279.023.397.146.445.392-.146.64-2.181-.271-2.409-.571.704-.397 1.352-.158 1.964.179zm14.592-.061c-1.086 2.629-3.789-1.835 0 0-.166.379-.638-.302 0 0zm4.196 12.805c.031-.067.087-.105.189-.125l-.189.125zm.386-.066c-.069-.026.269-1.101.955-1.142.812.504-.568 1.188-.955 1.142-.071-.026.876.097 0 0zm8.548-73.89c-.712.481-1.59.174-2.34.433 1.045-.701 1.511-.648 2.34-.433-.712.482-.115-.03 0 0zm-27.19 53.056c-.284-1.078-.694-1.096.023-2.043.285.999.285 1.613-.023 2.043-.125-.448.308-.43 0 0zm-19.617 37.415c-.02.397-.205.548-.579.41-.118-.113-.187-1.428.031-1.702.172.434.384.844.548 1.292.077.174-.164-.448 0 0zm45.356-70.759c.829-.031 1.516.22 2.248.776-.986.202-1.626-.184-2.248-.776zm74.923 8.359l.008.01c-.238-.095-1.718-.975-1.119-1.464.428-.308 1.057 1.285 1.111 1.454zm15.186 7.544c-.294-.292-.873-.087-1.032-.684.525.266 1.075.12 1.559.517-.169.144-.358.316-.527.167-.294-.292.169.149 0 0zm-87.388-35.121l-.54-.256c.412-.453.98-.3 1.5-.443-.028.07-.64 1.17-.96.699-.136-.204.074.157 0 0zm-2.532.556c-.66.507-1.352 1.014-2.291.927.627-.645 1.482-.738 2.291-.927zm-.22 22.42c.172.026.376-.018.653-.041-.878 1.083-1.907-.44-1.697-.494-.154.041.975.525 1.044.535zm.376-21.98c.614-.494 1.334-.586 2.122-.525-.665.395-1.359.594-2.122.525zm70.807 29.102c-.717-.092 1.321-.753.579.2-.22-.01-.433-.072-.579-.2zm22.574 5.161c-.417-.195-.594-.492-.456-.991.367.262.505.554.456.991zm-91.842-30.973c.264-.463.548-.586 1.421-.576-.415.504-.909.604-1.421.576zm-6.536 3.036c-.522.274-.896.481-1.449.445.374-.445.835-.432 1.449-.445zm54.305 3.725c-.1.202-.003.346.133.479-.151-.074-.786-.858-.287-.988.206.104.259.266.154.509zm-81.82 44.321c-.026.317-.187.458-.481.456-.128-.261.335-1.019.481-.456zm30.449 93.967c.246.084.381.269.415.517 0 .789-1.431-.417-.415-.517zm-2.046-141.55c-.174.266-.407.397-.791.522.195-.427.469-.493.791-.522zm-40.937 82.056c-.069.899-.256-.881 0 0zm46.974-80.545l.115.026c-.115.066-.302.066-.115-.026zm-4.035-8.622l-.315.046c.08-.069.2-.085.315-.046zm-.366.056l.051-.01-.051.01zm-.437.123l-.013.013.013-.013zm0 0c.105-.133.271-.108.415-.123-.106.154-.241.172-.415.123zm2.885.143h.028-.028zm0 .021c-.036.161-.161.141-.282.141.038-.141.151-.167.282-.141zm-33.288 92.695zm96.76-85.591c.563.135.021.105 0 0zm-13.998 3.42l-.008-.018c.072.018.084.049.072.118l-.064-.1zm-49.779-10.383h.02-.02zm-.169.043l.169-.044c-.069.131-.146.146-.169.044zm82.442 27.96v-.01l.01.018-.01-.008zm-71.826 58.338c-.286-.231.203-.169 0 0zm43.026 84.062l-.087.033c.026-.059.033-.09.087-.064v.031zm-.087.039v-.005.005zm-72.274-148.16c.046-.008.886-.097.602.223-.333.176-.525.087-.602-.223.116-.008.005.174 0 0zm-5.271-7.363c-.236-.148-.182-.323.161-.486.287.092.236.256-.161.486-.128-.01.187-.051 0 0z" fill="#F2F2F2"/><path fill="#242D3C" d="M198.278 424.218h123.059v65.042h-123.059z"/><g fill="#3E4959"><path d="M192.646 433.536h134.272v9.257h-134.272zM192.646 452.122h134.272v9.295h-134.272zM192.646 470.707h134.272v9.308h-134.272zM219.808 489.267h80v22.746h-80z"/></g><path d="M333.859 12.513c0 6.899-5.606 12.518-12.498 12.518-6.922 0-12.529-5.617-12.529-12.518s5.606-12.513 12.529-12.513c6.891 0 12.498 5.612 12.498 12.513z" fill="#CCCBCA"/><path d="M54.496 116.677c0 5.494-4.47 9.969-9.969 9.969-5.514 0-9.987-4.472-9.987-9.969 0-5.514 4.472-9.987 9.987-9.987 5.499.001 9.969 4.473 9.969 9.987z" fill="#242D3C"/><g fill="#CCCBCA"><path d="M78.931 370.194c0 5.059-4.091 9.147-9.149 9.147-5.074 0-9.16-4.091-9.16-9.147 0-5.074 4.086-9.162 9.16-9.162 5.058 0 9.149 4.088 9.149 9.162zM477.472 210.25c0 3.802-3.062 6.868-6.881 6.868-3.784 0-6.856-3.064-6.856-6.868 0-3.789 3.072-6.884 6.856-6.884 3.817-.002 6.881 3.093 6.881 6.884zM432.155 388.28c0 9.94-8.056 17.971-17.966 17.971-9.928 0-17.971-8.031-17.971-17.971 0-9.907 8.044-17.956 17.971-17.956 9.907 0 17.966 8.049 17.966 17.956z"/></g><circle cx="426.605" cy="60.954" r="9.155" fill="#242D3C"/><circle cx="390.56" cy="97.434" r="17.728" fill="#CCCBCA"/><circle cx="86.207" cy="253.133" r="21.898" fill="#242D3C"/></svg>