<svg xmlns="http://www.w3.org/2000/svg" viewBox="0 0 512 512" enable-background="new 0 0 512 512"><g fill="#242D3C"><path d="M418.155 225.78c0 18.563-15.073 33.61-33.631 33.61-18.56 0-33.61-15.048-33.61-33.61 0-18.56 15.05-33.615 33.61-33.615 18.558-.002 33.631 15.055 33.631 33.615zM48.34 148.2h155.162v155.162h-155.162z"/></g><path fill="#fff" d="M69.028 168.887h113.792v20.685h-113.792z"/><path fill="#E6E5E5" d="M358.669 365.69l-155.162-62.326v-155.164l155.162-62.339z"/><g fill="#F15424"><path d="M16.164 168.887h32.32v113.792h-32.32zM358.656 73.202h25.856v305.152h-25.856z"/></g><path fill="#E6E5E5" d="M0 189.569h16.164v72.397h-16.164z"/><path fill="#CCCBCA" d="M67.999 303.361h115.866v16.156h-115.866z"/><path fill="#E6E5E5" d="M164.206 319.52v149.985h-38.285l-38.267-149.985z"/><g fill="#fff"><path d="M120.755 199.912h10.342v10.342h-10.342zM100.07 199.912h10.355v10.342h-10.355zM79.386 199.912h10.342v10.342h-10.342z"/></g><g fill="#CCCBCA"><path d="M145.055 342.811h19.151v10.358h-19.151zM145.055 366.081h19.151v10.317h-19.151zM145.055 389.326h19.151v10.342h-19.151zM145.055 412.622h19.151v10.342h-19.151zM145.055 435.892h19.151v10.342h-19.151z"/></g><g fill="#242D3C"><path d="M164.198 319.515h9.815v33.638h-9.815zM433.664 223.208h15.514v5.171h-15.514zM446.279 245.015l-14.986-4.009 1.336-4.995 14.986 4.009zM439.237 260.363l-13.458-7.766 2.584-4.479 13.458 7.766zM428.425 273.33l-10.971-10.968 3.656-3.657 10.971 10.968zM414.612 283.053l-7.753-13.436 4.479-2.584 7.753 13.436zM398.737 288.923l-4.013-14.987 4.995-1.338 4.013 14.987zM432.649 215.54l-1.337-4.995 14.986-4.01 1.337 4.995zM428.352 203.463l-2.584-4.479 13.461-7.767 2.584 4.479zM421.086 192.893l-3.656-3.656 10.988-10.988 3.656 3.656zM411.346 184.525l-4.48-2.583 7.751-13.44 4.48 2.583zM399.742 178.994l-4.995-1.339 4.017-14.985 4.995 1.339zM466.25 390.509l-.005-5.174c1.477-.003 2.949-.166 4.378-.492l1.147 5.046c-1.803.407-3.659.617-5.52.62zm-5.519-.615c-1.807-.407-3.574-1.021-5.248-1.825l2.235-4.667c1.329.64 2.724 1.124 4.155 1.449l-1.142 5.043zm16.281-1.848l-2.245-4.659c1.318-.632 2.57-1.423 3.717-2.342l3.233 4.04c-1.451 1.159-3.035 2.157-4.705 2.961zm-26.24-2.931c-1.446-1.155-2.772-2.473-3.93-3.922l4.035-3.233c.919 1.149 1.971 2.191 3.118 3.108l-3.223 4.047zm34.87-3.955l-4.042-3.231c.917-1.149 1.708-2.401 2.342-3.722l4.659 2.248c-.803 1.666-1.802 3.251-2.959 4.705zm-41.766-4.667c-.809-1.669-1.434-3.436-1.848-5.245l5.046-1.157c.325 1.434.814 2.826 1.454 4.147l-4.652 2.255zm46.561-5.289l-5.046-1.147c.325-1.423.489-2.895.489-4.372l5.171-.09v.09c.001 1.861-.204 3.717-.614 5.519zm-49.034-5.481v-.041c0-1.843.202-3.684.607-5.473l5.046 1.132c-.32 1.418-.481 2.88-.481 4.339l-5.172.043zm43.97-4.493c-.328-1.428-.822-2.824-1.464-4.142l4.646-2.263c.814 1.669 1.441 3.433 1.859 5.243l-5.041 1.162zm-36.879-4.037l-4.659-2.24c.801-1.667 1.795-3.251 2.949-4.705l4.05 3.218c-.914 1.149-1.705 2.409-2.34 3.727zm33.057-3.82c-.922-1.144-1.974-2.186-3.126-3.1l3.215-4.055c1.449 1.152 2.775 2.47 3.935 3.914l-4.024 3.241zm-27.614-3.028l-3.236-4.032c1.452-1.165 3.031-2.166 4.692-2.975l2.258 4.654c-1.313.638-2.562 1.426-3.714 2.353zm20.756-2.409c-1.318-.63-2.711-1.119-4.147-1.439l1.129-5.051c1.818.41 3.589 1.024 5.258 1.828l-2.24 4.662zm-12.895-1.411l-1.16-5.041c1.8-.412 3.653-.63 5.514-.635l.018 5.174c-1.476.008-2.948.175-4.372.502zM427.103 73.179h-.036c-2.017 0-3.978-.387-5.824-1.147l1.969-4.785c1.224.504 2.516.758 3.858.758l.033 5.174zm5.862-1.175l-1.989-4.774c1.231-.515 2.342-1.257 3.292-2.209l3.658 3.656c-1.431 1.43-3.1 2.551-4.961 3.327zm-16.699-3.274c-1.441-1.426-2.565-3.092-3.346-4.951l4.767-2.002c.517 1.231 1.265 2.335 2.22 3.282l-3.641 3.671zm24.981-5.023l-4.777-1.979c.512-1.231.768-2.54.768-3.884l5.174-.202v.202c-.003 2.031-.39 4.002-1.165 5.863zm-29.517-5.796v-.064c0-2.002.381-3.948 1.126-5.791l4.792 1.951c-.494 1.219-.748 2.509-.748 3.84l-5.17.064zm24.696-4.055c-.53-1.231-1.28-2.332-2.24-3.272l3.62-3.694c1.444 1.418 2.583 3.077 3.374 4.931l-4.754 2.035zm-16.591-3.156l-3.684-3.633c1.418-1.441 3.082-2.57 4.938-3.361l2.022 4.759c-1.233.524-2.337 1.277-3.276 2.235zm11.041-2.294c-1.211-.486-2.491-.737-3.807-.737l-.105-5.174h.105c1.981 0 3.919.376 5.745 1.116l-1.938 4.795zM482.75 160.675l-11.721-11.728 3.657-3.655 11.721 11.728zM457.74 135.739l-11.724-11.667 3.648-3.665 11.724 11.667zM474.677 135.726l-3.656-3.668 11.713-11.673 3.656 3.668zM449.698 160.7l-3.657-3.656 11.723-11.726 3.657 3.656zM463.642 149.889h5.171v5.727h-5.171zM463.632 131.18l-.015-5.706 5.171-.013.015 5.706zM481.279 143.164l-5.696-.024.022-5.171 5.696.024zM451.149 137.957h5.727v5.171h-5.727zM492.167 287.189l-5.284-5.273 3.652-3.661 5.284 5.273zM480.934 275.922l-5.285-5.293 3.659-3.654 5.285 5.293zM490.568 275.897l-3.659-3.654 5.285-5.293 3.659 3.654zM479.3 287.171l-3.654-3.659 5.282-5.275 3.654 3.659zM349.038 412.625c0 9.144-7.421 16.599-16.609 16.599-9.157 0-16.584-7.455-16.584-16.599 0-9.18 7.424-16.63 16.584-16.63 9.185 0 16.609 7.449 16.609 16.63zM300.283 73.199c0 4.69-3.799 8.509-8.52 8.509-4.69 0-8.484-3.82-8.484-8.509 0-4.695 3.794-8.502 8.484-8.502 4.718.001 8.52 3.805 8.52 8.502zM512 193.893c0 6.467-5.233 11.704-11.681 11.704-6.474 0-11.707-5.238-11.707-11.704 0-6.438 5.233-11.668 11.707-11.668 6.448 0 11.681 5.23 11.681 11.668z"/></g></svg>