<svg xmlns="http://www.w3.org/2000/svg" viewBox="0 0 512 512" enable-background="new 0 0 512 512"><g fill="#242D3C"><path d="M144.457 381.286h33.172v130.714h-33.172zM308.015 381.286h33.188v130.714h-33.188zM177.635 453.555h130.378v16.975h-130.378z"/></g><circle cx="242.838" cy="223.053" r="196.723" fill="#3E4959"/><path d="M419.877 223.053c0 97.792-79.281 177.065-177.052 177.065-97.787 0-177.047-79.273-177.047-177.065 0-97.772 79.26-177.047 177.047-177.047 97.771 0 177.052 79.275 177.052 177.047z" fill="#21D8DE"/><path d="M373.969 223.053c0 72.443-58.716 131.159-131.144 131.159-72.422 0-131.156-58.719-131.156-131.159 0-72.425 58.734-131.144 131.156-131.144 72.427 0 131.144 58.719 131.144 131.144z" fill="#fff"/><path d="M288.733 223.053c0 25.359-20.552 45.908-45.908 45.908-25.347 0-45.903-20.547-45.903-45.908 0-25.349 20.557-45.903 45.903-45.903 25.357-.001 45.908 20.554 45.908 45.903z" fill="#F15424"/><path d="M278.422 252.058c-1.971 2.406-4.198 4.634-6.605 6.605l-32.307-32.307c-1.818-1.818-1.818-4.787 0-6.605 1.843-1.843 4.813-1.843 6.605 0l32.307 32.307z" fill="#CD471E"/><path d="M338.812 312.422c-2.125 2.278-4.324 4.48-6.605 6.605l-60.39-60.365c2.406-1.971 4.636-4.198 6.605-6.605l60.39 60.365z" fill="#D9D8D7"/><path d="M371.299 344.883c-2.125 2.281-4.326 4.48-6.605 6.63l-32.486-32.484c2.281-2.125 4.48-4.326 6.605-6.605l32.486 32.459z" fill="#1CB7BB"/><path d="M385.174 358.758c-1.075 1.126-2.15 2.253-3.277 3.331-1.101 1.124-2.199 2.199-3.354 3.274l-13.85-13.85c2.278-2.15 4.48-4.349 6.605-6.63l13.876 13.875z" fill="#353E4B"/><g fill="#242D3C"><path d="M238.895 127.969h7.869v13.117h-7.869zM207.834 148.829l-5.021-12.105 7.269-3.015 5.021 12.105zM182.072 167.875l-9.266-9.284 5.568-5.557 9.266 9.284zM165.599 195.321l-12.111-5.02 3.012-7.268 12.111 5.02zM147.752 219.11h13.112v7.869h-13.112zM156.487 263.068l-3.011-7.268 12.108-5.017 3.011 7.268zM178.381 293.061l-5.563-5.563 9.264-9.264 5.563 5.563zM210.078 312.405l-7.268-3.01 5.015-12.11 7.268 3.01zM238.895 305.024h7.869v13.102h-7.869zM275.568 312.395l-5.012-12.107 7.267-3.009 5.012 12.107zM307.273 293.05l-9.262-9.262 5.563-5.563 9.262 9.262zM329.169 263.052l-12.106-5.019 3.013-7.268 12.106 5.019zM324.783 219.11h13.102v7.869h-13.102zM320.048 195.328l-3.01-7.27 12.107-5.012 3.01 7.27zM303.589 167.879l-5.57-5.562 9.264-9.277 5.57 5.562zM277.828 148.816l-7.268-3.016 5.019-12.094 7.268 3.016z"/></g><path fill="#F15424" d="M430.77 0l-40.719 40.719v35.103l35.13.008 40.704-40.702-35.118-.023z"/><path d="M445.014 14.239l-205.499 205.517c-1.83 1.812-1.828 4.772 0 6.61 1.828 1.823 4.79 1.823 6.602-.003l205.509-205.519-6.612-6.605z" fill="#242D3C"/></svg>