<svg xmlns="http://www.w3.org/2000/svg" viewBox="0 0 512 512" enable-background="new 0 0 512 512"><path d="M510.345 259.666c0 139.361-112.98 252.334-252.334 252.334-139.364 0-252.337-112.973-252.337-252.334 0-139.369 112.973-252.339 252.337-252.339 139.353 0 252.334 112.965 252.334 252.339z" fill="#E6E5E5"/><g fill="#131A26"><path d="M382.207 479.36c-3.533 2.022-7.117 3.942-10.752 5.76h-226.867c-47.54-23.936-86.426-62.49-110.848-109.747-16.435-31.744-26.291-67.405-27.827-105.19l83.558-83.558 292.736 292.735zM505.983 306.586c-4.582 24.346-12.672 47.462-23.708 68.787-18.404 35.61-45.03 66.253-77.363 89.472-41.368 29.67-92.081 47.155-146.891 47.155-15.821 0-31.283-1.459-46.285-4.25l247.706-247.706 46.541 46.542z"/></g><path d="M482.277 375.373c-41.933 81.152-126.618 136.627-224.256 136.627-97.664 0-182.349-55.475-224.282-136.627l224.256-224.282 224.282 224.282z" fill="#242D3C"/><path d="M482.277 375.373c-18.404 35.61-45.03 66.253-77.363 89.472l-146.918-313.754 224.281 224.282z" fill="#3E4959"/><path fill="#fff" d="M254.335 7.327h7.332v141.133h-7.332z"/><path fill="#E6E5E5" d="M251.877 0h12.221v7.327h-12.221z"/><path fill="#fff" d="M248.088 148.46h19.817v12.541h-19.817z"/><path fill="#F15424" d="M395.583 93.44h-77.384v-71.823h77.384l-25.188 35.909z"/><path fill="#E64717" d="M338.505 21.617h-20.306v71.823h33.029z"/><path fill="#FF6D3B" d="M261.682 7.327h74.342v71.834h-74.342z"/><path fill="#F15424" d="M336.014 79.155h-17.815v14.293z"/><g fill="#fff"><path d="M206.857 109.012h-59.374c-6.218 0-11.259-5.061-11.259-11.284 0-6.228 5.041-11.277 11.259-11.277 6.267 0 11.328-5.064 11.328-11.308 0-6.228-5.061-11.279-11.328-11.279h-92.631c-6.231 0-11.279 5.051-11.279 11.279 0 6.244 5.048 11.308 11.279 11.308h47.434c6.213 0 11.254 5.048 11.254 11.277 0 6.226-5.041 11.284-11.254 11.284h-5.76c-6.221 0-11.274 5.056-11.274 11.305 0 6.239 5.053 11.297 11.274 11.297h110.331c6.236 0 11.292-5.061 11.292-11.297 0-6.249-5.056-11.305-11.292-11.305zM178.671 86.451c6.213 0 11.297-5.064 11.297-11.308 0-6.228-5.084-11.279-11.297-11.279-6.236 0-11.297 5.051-11.297 11.279.003 6.245 5.061 11.308 11.297 11.308zM43.759 155.802h-30.784c-6.28 0-11.32 5.051-11.32 11.287 0 6.252 5.043 11.297 11.32 11.297h30.784c6.213 0 11.302-5.046 11.302-11.297.001-6.237-5.089-11.287-11.302-11.287zM404.348 175.194c-6.259 0-11.32-5.064-11.32-11.279 0-6.241 5.061-11.318 11.32-11.318h51.978c6.239 0 11.297 5.074 11.297 11.318 0 6.216-5.061 11.279-11.297 11.279h-51.978zM373.147 175.194c-6.218 0-11.277-5.064-11.277-11.279 0-6.241 5.064-11.318 11.277-11.318 6.223 0 11.302 5.074 11.302 11.318 0 6.215-5.086 11.279-11.302 11.279zM443.683 101.683c6.216 0 11.272-5.064 11.272-11.297 0-6.231-5.061-11.292-11.272-11.292-6.239 0-11.315 5.061-11.315 11.292.004 6.236 5.081 11.297 11.315 11.297z"/></g><g fill="#E6E5E5"><path d="M451.846 98.138c1.912-2.025 3.113-4.744 3.113-7.752 0-6.231-5.061-11.292-11.269-11.292-2.634 0-5.03.942-6.956 2.45 5.279 5.301 10.315 10.846 15.112 16.594zM19.122 178.386c2.621-7.703 5.599-15.237 8.924-22.584h-15.071c-6.28 0-11.32 5.051-11.32 11.287 0 6.252 5.043 11.297 11.32 11.297h6.147zM54.852 86.451h19.743c7.598-8.041 15.688-15.601 24.279-22.587h-44.022c-6.231 0-11.279 5.051-11.279 11.279-.001 6.245 5.048 11.308 11.279 11.308z"/></g></svg>