<svg xmlns="http://www.w3.org/2000/svg" viewBox="0 0 512 512" enable-background="new 0 0 512 512"><path d="M426.337 256.009c0 94.08-76.26 170.35-170.337 170.35s-170.348-76.273-170.348-170.35c0-94.075 76.27-170.348 170.348-170.348s170.337 76.27 170.337 170.348z" fill="#F2F2F2"/><path d="M334.623 256.009c0 43.418-35.197 78.625-78.62 78.625-43.42 0-78.623-35.208-78.623-78.625 0-43.415 35.203-78.62 78.623-78.62 43.422-.003 78.62 35.205 78.62 78.62z" fill="#fff"/><g fill="#CCCBCA"><path d="M256 103.136l-23.88 152.873 23.88 152.868 23.88-152.868zM256 103.136l-23.88 152.873 23.88 152.868 23.88-152.868zM103.13 256.009l152.87 23.879 152.863-23.879-152.863-23.88zM179.569 179.575l64.491 88.374 88.369 64.489-64.489-88.369zM179.569 332.438l88.371-64.489 64.489-88.374-88.369 64.494z"/></g><path fill="#16C6CC" d="M364.099 147.908l-124.987 91.218 33.771 33.766z"/><path fill="#F15424" d="M147.901 364.107l124.982-91.215-33.771-33.766z"/><path d="M265.311 265.32c-5.151 5.138-13.476 5.138-18.616 0-5.138-5.146-5.138-13.473 0-18.621 5.143-5.138 13.468-5.138 18.616 0 5.143 5.147 5.143 13.475 0 18.621z" fill="#242D3C"/><path d="M260.652 260.66c-2.568 2.57-6.738 2.57-9.303 0-2.573-2.568-2.573-6.74 0-9.303 2.565-2.573 6.735-2.573 9.303 0 2.577 2.565 2.577 6.736 0 9.303z" fill="#fff"/><path d="M256 484.632c-126.065 0-228.626-102.559-228.626-228.623 0-126.062 102.561-228.621 228.626-228.621s228.621 102.559 228.621 228.621c.002 126.064-102.556 228.623-228.621 228.623zm0-421.378c-106.291 0-192.758 86.469-192.758 192.755s86.467 192.755 192.758 192.755c106.278 0 192.747-86.469 192.747-192.755.001-106.286-86.466-192.755-192.747-192.755z" fill="#16C6CC"/><g fill="#242D3C"><path d="M251.597.009h8.781v15.644h-8.781zM209.948 20.084l-2.715-15.419 8.646-1.522 2.715 15.419zM169.662 31.652l-5.355-14.704 8.248-3.004 5.355 14.704zM132.023 50.066l-7.827-13.555 7.6-4.388 7.827 13.555zM98.146 74.705l-10.063-11.989 6.725-5.644 10.063 11.989zM69.077 104.879l-11.989-10.068 5.644-6.721 11.989 10.068zM45.668 139.638l-13.557-7.832 4.391-7.601 13.557 7.832zM28.635 177.933l-14.702-5.36 3.006-8.247 14.702 5.36zM18.556 218.593l-15.419-2.718 1.524-8.645 15.419 2.718zM0 251.606h15.652v8.776h-15.652zM4.657 304.768l-1.521-8.646 15.424-2.714 1.521 8.646zM16.925 347.679l-3.005-8.242 14.705-5.361 3.005 8.242zM36.498 387.802l-4.388-7.597 13.555-7.83 4.388 7.597zM62.728 423.922l-5.642-6.725 11.995-10.063 5.642 6.725zM94.799 454.933l-6.724-5.64 10.067-12.001 6.724 5.64zM131.789 479.89l-7.6-4.393 7.835-13.556 7.6 4.393zM172.568 498.072l-8.246-3.01 5.366-14.702 8.246 3.01zM215.876 508.879l-8.645-1.522 2.716-15.423 8.645 1.522zM251.597 496.342h8.781v15.649h-8.781zM296.144 508.874l-2.708-15.425 8.642-1.517 2.708 15.425zM339.434 498.066l-5.344-14.713 8.249-2.996 5.344 14.713zM380.166 479.892l-7.81-13.57 7.604-4.376 7.81 13.57zM417.139 454.934l-10.062-12 6.729-5.642 10.062 12zM449.259 423.929l-11.987-10.075 5.645-6.716 11.987 10.075zM475.527 387.79l-13.564-7.84 4.39-7.596 13.564 7.84zM495.044 347.679l-14.721-5.363 3.005-8.248 14.721 5.363zM507.349 304.779l-15.419-2.72 1.525-8.645 15.419 2.72zM496.333 251.606h15.667v8.778h-15.667zM493.436 218.6l-1.517-8.642 15.42-2.707 1.517 8.642zM483.308 177.925l-2.993-8.25 14.729-5.343 2.993 8.25zM466.338 139.62l-4.388-7.606 13.571-7.829 4.388 7.606zM442.954 104.885l-5.644-6.727 12.006-10.072 5.644 6.727zM413.847 74.723l-6.721-5.648 10.081-11.995 6.721 5.648zM379.975 50.058l-7.597-4.387 7.834-13.566 7.597 4.387zM342.327 31.667l-8.249-3.001 5.354-14.715 8.249 3.001zM302.056 20.088l-8.646-1.527 2.725-15.43 8.646 1.527zM256.09 430.744c-1.93-.018-3.738-.026-5.601-.082l.276-8.778c1.764.059 3.497.049 5.322.082 1.784 0 3.558-.031 5.322-.082l.276 8.771c-1.858.058-3.721.089-5.595.089zm-16.771-.783c-3.707-.356-7.442-.829-11.105-1.418l1.382-8.663c3.482.558 7.035 1.009 10.555 1.339l-.832 8.742zm33.541-.018l-.837-8.74c3.515-.333 7.066-.791 10.547-1.352l1.395 8.663c-3.671.594-7.403 1.076-11.105 1.429zm-55.639-3.52c-3.628-.817-7.273-1.772-10.842-2.826l2.488-8.415c3.389 1.004 6.851 1.902 10.294 2.685l-1.94 8.556zm77.742-.041l-1.956-8.558c3.456-.788 6.915-1.692 10.286-2.696l2.496 8.415c-3.548 1.055-7.193 2.009-10.826 2.839zm-99.215-6.305c-3.5-1.285-6.996-2.703-10.396-4.209l3.553-8.023c3.228 1.428 6.548 2.772 9.871 3.994l-3.028 8.238zm120.673-.067l-3.036-8.238c3.3-1.216 6.607-2.56 9.838-3.988l3.561 8.026c-3.402 1.507-6.886 2.92-10.363 4.2zm-141.171-9.006c-3.3-1.725-6.584-3.574-9.764-5.504l4.557-7.503c3.021 1.833 6.139 3.592 9.272 5.228l-4.065 7.779zm161.608-.061l-4.07-7.78c3.123-1.636 6.241-3.389 9.249-5.225l4.562 7.501c-3.178 1.932-6.452 3.783-9.741 5.504zm-180.759-11.559c-3.049-2.127-6.07-4.385-8.978-6.702l5.476-6.863c2.762 2.204 5.629 4.344 8.527 6.364l-5.025 7.201zm199.869-.061l-5.03-7.194c2.898-2.028 5.765-4.168 8.515-6.364l5.484 6.856c-2.902 2.319-5.917 4.569-8.969 6.702zm-217.375-13.899c-2.757-2.504-5.46-5.12-8.049-7.788l6.303-6.111c2.455 2.537 5.028 5.025 7.644 7.396l-5.898 6.503zm234.862-.069l-5.908-6.492c2.624-2.383 5.197-4.872 7.644-7.404l6.305 6.103c-2.575 2.668-5.278 5.29-8.041 7.793zm-250.444-16.005c-2.409-2.826-4.762-5.765-6.989-8.74l7.027-5.263c2.115 2.826 4.349 5.624 6.638 8.307l-6.676 5.696zm266.017-.069l-6.682-5.691c2.294-2.703 4.529-5.496 6.635-8.32l7.035 5.258c-2.224 2.968-4.577 5.914-6.988 8.753zm-279.424-17.843c-2.028-3.1-3.983-6.318-5.814-9.559l7.642-4.321c1.738 3.077 3.597 6.134 5.522 9.08l-7.35 4.8zm292.823-.095l-7.35-4.8c1.92-2.944 3.784-6.003 5.53-9.098l7.644 4.316c-1.843 3.254-3.799 6.477-5.824 9.582zm-303.829-19.371c-1.62-3.354-3.149-6.789-4.541-10.222l8.131-3.305c1.324 3.256 2.772 6.523 4.314 9.705l-7.904 3.822zm314.845-.144l-7.905-3.814c1.536-3.177 2.988-6.454 4.316-9.738l8.136 3.302c-1.401 3.456-2.935 6.904-4.547 10.25zm-323.27-20.585c-1.175-3.533-2.248-7.14-3.192-10.737l8.489-2.227c.896 3.412 1.915 6.838 3.031 10.191l-8.328 2.773zm331.689-.194l-8.33-2.767c1.114-3.351 2.132-6.779 3.021-10.191l8.492 2.222c-.943 3.588-2.008 7.203-3.183 10.736zm-337.377-21.458c-.707-3.633-1.308-7.35-1.787-11.052l8.704-1.124c.453 3.52 1.024 7.05 1.697 10.501l-8.614 1.675zm343.043-.202l-8.614-1.669c.676-3.471 1.244-7.009 1.687-10.496l8.704 1.114c-.467 3.673-1.066 7.387-1.777 11.051zm-345.9-21.998c-.238-3.697-.361-7.465-.366-11.19l8.778-.01c.005 3.54.12 7.117.348 10.637l-8.76.563zm348.749-.2l-8.758-.558c.22-3.515.338-7.089.338-10.634v-.384h8.778l.005.315c-.005 3.806-.125 7.569-.363 11.261zm-340.014-21.632l-8.76-.543c.228-3.715.584-7.468 1.05-11.149l8.707 1.103c-.442 3.5-.777 7.061-.997 10.589zm331.238-.574c-.23-3.53-.581-7.094-1.029-10.58l8.696-1.132c.481 3.676.847 7.424 1.091 11.144l-8.758.568zm-328.568-20.515l-8.62-1.659c.704-3.656 1.536-7.334 2.47-10.926l8.492 2.212c-.885 3.409-1.674 6.901-2.342 10.373zm325.827-.566c-.671-3.451-1.469-6.935-2.378-10.358l8.484-2.24c.955 3.607 1.797 7.281 2.506 10.918l-8.612 1.68zm-320.474-20.001l-8.333-2.755c1.17-3.538 2.47-7.078 3.863-10.532l8.138 3.29c-1.323 3.274-2.557 6.638-3.668 9.997zm315.057-.546c-1.121-3.354-2.365-6.71-3.692-9.974l8.125-3.313c1.405 3.436 2.716 6.971 3.894 10.504l-8.327 2.783zm-307.083-19.195l-7.91-3.807c1.613-3.351 3.359-6.694 5.184-9.938l7.647 4.306c-1.733 3.083-3.39 6.255-4.921 9.439zm299.065-.478c-1.536-3.169-3.195-6.333-4.936-9.405l7.636-4.326c1.83 3.233 3.579 6.566 5.197 9.905l-7.897 3.826zm-288.625-18.064l-7.355-4.79c2.033-3.121 4.191-6.213 6.413-9.19l7.035 5.251c-2.115 2.831-4.163 5.767-6.093 8.729zm278.154-.414c-1.938-2.957-3.996-5.888-6.106-8.704l7.022-5.268c2.222 2.97 4.385 6.049 6.423 9.165l-7.339 4.807zm-265.433-16.635l-6.684-5.686c2.412-2.839 4.946-5.629 7.526-8.297l6.308 6.103c-2.45 2.529-4.857 5.184-7.15 7.88zm252.682-.369c-2.294-2.68-4.705-5.325-7.171-7.857l6.292-6.118c2.596 2.668 5.133 5.45 7.549 8.271l-6.67 5.704zm-237.896-14.92l-5.911-6.49c2.739-2.499 5.609-4.943 8.515-7.27l5.486 6.853c-2.768 2.212-5.489 4.537-8.09 6.907zm223.076-.327c-2.627-2.376-5.353-4.695-8.113-6.889l5.463-6.868c2.903 2.307 5.778 4.749 8.54 7.25l-5.89 6.507zm-206.479-12.954l-5.036-7.188c3.041-2.127 6.188-4.191 9.364-6.126l4.567 7.496c-3.018 1.842-6.01 3.798-8.895 5.818zm189.831-.289c-2.903-2.022-5.908-3.973-8.922-5.801l4.536-7.508c3.182 1.923 6.346 3.981 9.4 6.103l-5.014 7.206zm-171.686-10.76l-4.076-7.775c3.279-1.718 6.666-3.356 10.068-4.874l3.571 8.018c-3.235 1.441-6.453 2.998-9.563 4.631zm153.477-.256c-3.123-1.623-6.351-3.177-9.6-4.608l3.546-8.031c3.42 1.508 6.82 3.141 10.109 4.854l-4.055 7.785zm-134.082-8.374l-3.044-8.23c3.489-1.293 7.066-2.486 10.621-3.548l2.506 8.412c-3.374 1.009-6.771 2.14-10.083 3.366zm114.608-.212c-3.323-1.216-6.72-2.335-10.097-3.331l2.473-8.42c3.561 1.05 7.14 2.227 10.637 3.507l-3.013 8.244zm-94.241-5.862l-1.958-8.556c3.625-.829 7.322-1.551 10.99-2.148l1.405 8.663c-3.482.566-6.994 1.252-10.437 2.041zm73.851-.139c-3.448-.776-6.963-1.449-10.447-1.999l1.375-8.671c3.668.581 7.373 1.288 10.998 2.107l-1.926 8.563zm-52.869-3.269l-.85-8.735c3.694-.364 7.455-.607 11.169-.732l.297 8.773c-3.53.118-7.101.354-10.616.694zm31.874-.059c-3.502-.328-7.076-.548-10.619-.655l.264-8.773c3.732.113 7.491.343 11.174.691l-.819 8.737z"/></g></svg>