<svg xmlns="http://www.w3.org/2000/svg" width="1083" height="758.562" viewBox="0 0 1083 758.56169"><title>mention</title><circle cx="406.163" cy="389.544" r="350.304" fill="#f2f2f2"/><path fill="#3f3d56" d="M463.2 443.64c-77.4 118.72-56.2 269.72-56.2 269.72s146.73-41.5 224.14-160.2l56.2-269.72s-146.72 41.5-224.14 160.2z"/><path fill="#6c63ff" d="M406.6 711.98s-1.9-.3-5.36-1c-2.77-.57-6.58-1.37-11.23-2.47-41.57-9.8-152.12-42.94-224.4-130.07-90.46-109.11-86.66-261.54-86.66-261.54s138.32 22.47 229.46 120.45q5.93 6.32 11.54 13.1c78.7 94.92 86.05 222.65 86.63 254.23.08 4.73.02 7.3.02 7.3z"/><path stroke="#3f3d56" stroke-width="2" stroke-miterlimit="10" d="M350.8 443.64c77.4 118.72 56.2 269.72 56.2 269.72s-146.72-41.5-224.14-160.2l-56.2-269.72s146.72 41.5 224.14 160.2z" fill="none"/><path d="M406.57 704.68c-2.05 2.46-3.85 4.57-5.33 6.3-3.3 3.74-5.16 5.7-5.16 5.7s-2.26-2.84-6.07-8.17c-20.9-29.14-88.17-132.8-82.97-252.52q.42-9.42 1.38-18.63 5.93 6.32 11.54 13.1c78.7 94.92 86.05 222.65 86.63 254.23z" opacity=".1"/><path fill="#6c63ff" d="M521.35 464.63c-6.12 141.6-111.23 252.06-111.23 252.06s-95.18-119.12-89.07-260.72l111.23-252.06s95.2 119.12 89.07 260.7z"/><path stroke="#3f3d56" stroke-width="2" stroke-miterlimit="10" d="M410.13 712.68l23.1-502.98" fill="none"/><ellipse cx="541.5" cy="725.092" fill="#3f3d56" rx="541.5" ry="33.469"/><path fill="#3f3d56" stroke="#3f3d56" stroke-width="2" stroke-miterlimit="10" d="M89.88 712.8v-135.2"/><circle cx="89.884" cy="577.612" r="19.116" fill="#3f3d56"/><path fill="#3f3d56" d="M89.88 660.93s-2.73-58.74-58.7-51.9"/><path fill="#3f3d56" stroke="#3f3d56" stroke-width="2" stroke-miterlimit="10" d="M555.45 492.1v-378.56"/><circle cx="555.451" cy="113.532" r="26.294" fill="#3f3d56"/><path fill="#3f3d56" d="M555.45 220.62s-3.75-80.8-80.76-71.4"/><path fill="#2f2e41" d="M871.3 282.6l-22.83 43.02s-165.04 31.6-143.97 80.77 44.77 121.13 57.06 119.38 79.9-40.38 82.52-51.8l-60.57-64.96 104.47-20.2s14.93 70.24-4.4 118.52-30.7 179.1-17.54 180.85 46.52 12.28 61.45 2.62l21.95-221.23s31.6-138.7 12.3-154.5l-90.44-32.5zm35.86 384.26s-20.17-10.62-24.42-2.13c0 0 3.2 25.5-9.56 28.67s-18.04 25.48 0 27.6 29.73-4.24 36.1-4.24v-22.3zm-96.21-176.24s-21.96-6.12-24.32 3.08c0 0 8.48 24.23-3.3 30.03s-12.27 28.72 5.82 27 28.17-10.43 34.4-11.78l-4.7-21.8z"/><path fill="#9f616a" d="M920.02 131.17s.87 32.48-5.27 35.1l34.25 18.46 7-12.3s-7.9-43.88-6.14-47.4l-29.84 6.15z"/><circle cx="934.665" cy="84.728" r="53.826" fill="#2f2e41"/><circle cx="938.377" cy="34.338" r="22.273" fill="#2f2e41"/><path fill="#2f2e41" d="M908.68 22.27a22.28 22.28 0 0 1 19.95-22.15 22.52 22.52 0 0 0-2.33-.12 22.27 22.27 0 0 0 0 44.55 22.52 22.52 0 0 0 2.33-.12 22.28 22.28 0 0 1-19.95-22.16z"/><circle cx="933.185" cy="110.978" r="36.871" fill="#9f616a"/><path fill="#d0cde1" d="M959.08 158.82s-31.6 9.66-47.4 0-53.55 18.44-59.7 30.73l22.83 24.58s-8.27 23.73-6.58 35.55c1.76 12.3-1.32 37.3-1.32 37.3s77.56 51.1 94.82 28.1c2.63-3.5 24.58-86.03 24.58-86.03l30.72-30.72s-19.3-28.1-30.72-30.73l-27.22-8.78z"/><path fill="#9f616a" d="M747.07 339.23s-59.7 30.72-47.4 39.5l62.33-34.23zm234.4-21.95s-26.56-17.93-30.84-8.97 29.08 29.17 36.1 21.27l-5.26-12.3z"/><path fill="#d0cde1" d="M1001.22 188.67l15.8 9.66s53.55 73.74 35.12 90.42l-65.84 50.04s-15.8-22.84-10.54-23.7l47.4-36-36.86-68.49zm-138.72-3.51l-11.4 4.4-29.85 53.54-79 95.7s10.53 16.67 19.3 13.16l74.63-77.26 43-66.72z"/><ellipse cx="934.665" cy="67.17" fill="#2f2e41" rx="37.122" ry="22.273"/><path fill="#6c63ff" d="M685 543.24h173v173h-173z"/><path fill="#fff" d="M835 622.54c0 24.5-11.48 39.96-29.63 39.96-9.3 0-16.37-4.96-17.6-12.34h-1.32c-3.28 7.67-10.02 11.87-19.08 11.87-16.14 0-26.93-12.93-26.93-32.18 0-18.48 10.85-31.35 26.7-31.35 8.13 0 15.04 4.1 18.1 10.82h1.3v-9.2h13.2v42.76c0 5.33 2.95 8.54 8.24 8.54 9.16 0 14.98-11.12 14.98-28.38 0-27.55-20.64-45.97-51.13-45.97-30.16 0-51.66 22-51.66 53.1 0 31.83 21.27 52.14 54.37 52.14a100.38 100.38 0 0 0 18-1.5 5.23 5.23 0 0 1 2.2 10.2 92.42 92.42 0 0 1-20.73 2.25c-40.24-.03-66-24.9-66-63.5 0-37.67 26.3-63.53 64.62-63.53 36.85 0 62.38 23 62.38 56.32zm-80.3 7.6c0 12.25 5.75 19.66 15.1 19.66 9.87 0 16.1-7.6 16.1-19.65s-6.23-19.48-15.92-19.48c-9.63 0-15.28 7.2-15.28 19.48z"/></svg>