<svg height="512" viewBox="0 0 512 512" width="512" xmlns="http://www.w3.org/2000/svg"><circle cx="256" cy="256" fill="#ffc76d" r="256"/><path d="M473.595 256c0 75.193-38.127 141.464-96.106 180.56-34.697 23.385-76.501 37.035-121.489 37.035-44.885 0-86.587-13.588-121.232-36.87-58.122-39.065-96.363-105.429-96.363-180.725 0-120.181 97.414-217.595 217.595-217.595s217.595 97.414 217.595 217.595z" fill="#fff1db"/><path d="M377.309 75.333c40.743 39.544 66.07 94.884 66.07 156.151 0 75.193-38.127 141.464-96.106 180.56-34.697 23.385-76.501 37.035-121.489 37.035-44.885 0-86.587-13.588-121.232-36.87l-.122-.085c9.341 9.071 19.492 17.312 30.338 24.601 34.645 23.282 76.347 36.87 121.232 36.87 44.988 0 86.793-13.65 121.489-37.035 57.979-39.095 96.106-105.367 96.106-180.56 0-75.265-38.209-141.596-96.286-180.667z" fill="#ffe3b6"/><path d="M256 263.726c-4.267 0-7.726-3.459-7.726-7.726v-179.877c0-4.267 3.459-7.726 7.726-7.726s7.726 3.459 7.726 7.726v179.877c0 4.267-3.459 7.726-7.726 7.726z" fill="#ff9fc8"/><g fill="#ff9d00"><path d="M87.224 263.726h-11.101c-4.267 0-7.726-3.459-7.726-7.726s3.459-7.726 7.726-7.726h11.102c4.267 0 7.726 3.459 7.726 7.726s-3.46 7.726-7.727 7.726zM256 443.604c-4.267 0-7.726-3.459-7.726-7.726v-11.102c0-4.267 3.459-7.726 7.726-7.726s7.726 3.459 7.726 7.726v11.102c0 4.266-3.459 7.726-7.726 7.726zM136.658 144.384c-1.977 0-3.955-.755-5.463-2.263l-7.851-7.851c-3.018-3.017-3.018-7.909 0-10.927 3.017-3.017 7.909-3.017 10.927 0l7.851 7.851c3.018 3.017 3.018 7.909 0 10.927-1.509 1.509-3.487 2.263-5.464 2.263zM383.193 390.919c-1.977 0-3.955-.755-5.463-2.263l-7.851-7.851c-3.018-3.017-3.018-7.909 0-10.927 3.017-3.017 7.909-3.017 10.927 0l7.851 7.851c3.018 3.017 3.018 7.909 0 10.927-1.51 1.508-3.487 2.263-5.464 2.263zM375.342 144.384c-1.977 0-3.955-.755-5.463-2.263-3.018-3.017-3.018-7.909 0-10.927l7.851-7.851c3.017-3.017 7.909-3.017 10.927 0s3.018 7.909 0 10.927l-7.851 7.851c-1.509 1.509-3.487 2.263-5.464 2.263zM128.807 390.919c-1.977 0-3.955-.755-5.463-2.263-3.018-3.017-3.018-7.909 0-10.927l7.851-7.851c3.017-3.017 7.909-3.017 10.927 0s3.018 7.909 0 10.927l-7.851 7.851c-1.509 1.508-3.486 2.263-5.464 2.263zM100.67 197.708c-1.008 0-2.033-.199-3.019-.618l-10.217-4.343c-3.927-1.67-5.757-6.206-4.088-10.133s6.206-5.756 10.133-4.088l10.217 4.343c3.927 1.67 5.757 6.206 4.088 10.133-1.25 2.941-4.108 4.706-7.114 4.706zM421.541 334.092c-1.008 0-2.033-.199-3.019-.618l-10.217-4.343c-3.927-1.67-5.757-6.206-4.088-10.133s6.205-5.755 10.133-4.088l10.217 4.343c3.927 1.67 5.757 6.206 4.088 10.133-1.25 2.94-4.108 4.706-7.114 4.706zM322.017 108.401c-1.008 0-2.033-.199-3.019-.618-3.927-1.67-5.757-6.206-4.088-10.133l4.343-10.217c1.67-3.926 6.206-5.756 10.133-4.088 3.927 1.67 5.757 6.206 4.088 10.133l-4.343 10.217c-1.25 2.941-4.108 4.706-7.114 4.706zM185.633 429.273c-1.008 0-2.033-.199-3.019-.618-3.927-1.67-5.757-6.206-4.088-10.133l4.343-10.217c1.67-3.927 6.207-5.757 10.133-4.088 3.927 1.669 5.757 6.206 4.088 10.133l-4.343 10.217c-1.25 2.941-4.108 4.706-7.114 4.706zM192.853 107.212c-3.058 0-5.953-1.827-7.168-4.838l-4.154-10.296c-1.597-3.957.317-8.459 4.274-10.056 3.956-1.596 8.459.317 10.056 4.274l4.154 10.296c1.597 3.957-.317 8.459-4.274 10.056-.947.383-1.926.564-2.888.564zM323.306 430.54c-3.058 0-5.953-1.827-7.168-4.838l-4.154-10.296c-1.597-3.957.317-8.459 4.274-10.056s8.46.317 10.056 4.274l4.154 10.296c1.597 3.957-.317 8.459-4.274 10.056-.947.383-1.926.564-2.888.564zM412.519 200.579c-3.058 0-5.953-1.827-7.168-4.838-1.597-3.957.317-8.459 4.274-10.056l10.296-4.154c3.958-1.598 8.459.317 10.056 4.274s-.317 8.459-4.274 10.056l-10.296 4.154c-.947.383-1.926.564-2.888.564zM89.191 331.032c-3.058 0-5.953-1.827-7.168-4.838-1.597-3.957.317-8.459 4.274-10.056l10.296-4.154c3.957-1.597 8.46.317 10.056 4.274 1.597 3.957-.317 8.459-4.274 10.056l-10.296 4.154c-.947.383-1.926.564-2.888.564z"/></g><path d="M435.877 263.726h-179.877c-4.267 0-7.726-3.459-7.726-7.726s3.459-7.726 7.726-7.726h179.877c4.267 0 7.726 3.459 7.726 7.726.001 4.267-3.459 7.726-7.726 7.726z" fill="#ff9fc8"/><path d="M340.543 379.267h-167.832v-154.2c0-43.812 35.517-79.329 79.329-79.329h9.175c43.812 0 79.329 35.517 79.329 79.329v154.2z" fill="#4c537d"/><path d="M377.489 436.56c-34.697 23.385-76.501 37.035-121.489 37.035-44.885 0-86.587-13.588-121.232-36.87l4.152-24.426c3.183-18.729 17.956-33.347 36.716-36.324l76.429-12.135c2.606-.412 5.264-.412 7.871 0l76.779 12.197c18.801 2.977 33.594 17.647 36.736 36.427z" fill="#ff708a"/><path d="M286.215 323.322v44.607c0 16.689-13.526 30.215-30.215 30.215s-30.215-13.526-30.215-30.215v-44.607z" fill="#ffd28b"/><path d="M286.215 323.322v27.393l-18.389 9.807c-7.5 4.007-15.875 4.007-23.375.021l-18.667-9.931v-27.289h60.431z" fill="#ffc76d"/><path d="M292.633 337.365l-24.807 13.232c-7.504 4.003-15.871 4.009-23.378.017l-24.951-13.267c-12.013-6.388-19.897-21.917-19.897-39.193v-71.754h112.898v71.789c0 17.259-7.869 32.777-19.865 39.176z" fill="#ffd28b"/><path d="M312.485 216.153v12.207c0 10.192-7.616 18.454-17.01 18.454h-50.376c-1.429 0-2.734-.814-3.363-2.097l-5.016-10.232c-.596-1.215-2.331-1.208-2.916.013l-4.887 10.191c-.623 1.299-1.936 2.126-3.378 2.126h-8.818c-9.394 0-17.01-8.262-17.01-18.454v-12.207" fill="#4c537d"/></svg>