<svg viewBox="0 0 451.06667 451.06667" xmlns="http://www.w3.org/2000/svg"><path d="M0 451.066l26-127.867c-15.238-30.836-23.094-64.801-22.934-99.199 0-123.465 100.535-224 224-224 123.469 0 224 100.535 224 224s-100.531 224-224 224c-34.352-.02-68.242-7.91-99.066-23.066zm131.066-48.531l3.332 1.73c28.641 14.809 60.43 22.492 92.668 22.402 111.734 0 202.668-90.934 202.668-202.668s-90.934-202.668-202.668-202.668-202.668 90.934-202.668 202.668c-.094 32.242 7.59 64.031 22.402 92.668l1.734 3.332-21.07 103.734zm0 0M352 330.668h-249.867l62.535-96h-32l94.398-144.27 94.398 144.27h-32zm-210.535-21.336h171.203l-62.535-96h32l-55.066-84-54.934 84h32zm0 0"/></svg>