<svg xmlns="http://www.w3.org/2000/svg" viewBox="0 -9 512 512"><path d="M32 326.625h-32v-128c0-79.41 64.609-144 144-144h128c8.816 0 16-7.168 16-16v-38.625l135.695 135.695-135.695 113.09v-34.16c0-8.832-7.184-16-16-16h-112c-70.574 0-128 57.422-128 128zm0 0" fill="#1e88e5"/><path d="M224 493.246l-135.695-135.695 135.695-113.086v34.16c0 8.832 7.184 16 16 16h112c70.574 0 128-57.426 128-128h32v128c0 79.406-64.609 144-144 144h-128c-8.816 0-16 7.168-16 16zm0 0" fill="#fdd835"/><path d="M0 358.625h32v32h-32zm0 0M0 422.625h32v32h-32zm0 0" fill="#43a047"/><g fill="#fbc02d"><path d="M480 38.625h32v32h-32zm0 0M480 102.625h32v32h-32zm0 0"/></g></svg>