<svg viewBox="-32 0 496 496.00935" xmlns="http://www.w3.org/2000/svg"><path d="M137.973 98.68c-15.129 5.715-25.969 20.227-25.969 37.328 0 6.586 1.754 12.715 4.586 18.203-12 4.613-20.586 16.184-20.586 29.797 0 13.617 8.586 25.184 20.586 29.801-2.832 5.488-4.586 11.617-4.586 18.199 0 17.105 10.84 31.617 25.969 37.328-1.199 3.352-1.969 6.914-1.969 10.672 0 17.648 14.352 32 32 32 3.984 0 7.762-.824 11.281-2.152 5.184 10.699 16.055 18.152 28.719 18.152 17.648 0 32-14.352 32-32v-224c0-17.645-14.352-32-32-32-12.664 0-23.535 7.457-28.719 18.152-3.52-1.328-7.297-2.152-11.281-2.152-17.648 0-32 14.355-32 32 0 3.762.77 7.32 1.969 10.672zm30.031-26.672c8.824 0 16 7.176 16 16h16c0-7.688-2.84-14.664-7.375-20.184 1.855-6.781 8.008-11.816 15.375-11.816 8.824 0 16 7.176 16 16v224c0 8.824-7.176 16-16 16-7.367 0-13.52-5.031-15.375-11.816 4.535-5.52 7.375-12.492 7.375-20.184h-16c0 8.824-7.176 16-16 16s-16-7.176-16-16 7.176-16 16-16v-16c-7.793 0-14.848 2.914-20.398 7.555-11.137-2.074-19.602-11.824-19.602-23.555 0-13.23 10.77-24 24-24 13.234 0 24 10.77 24 24h16c0-22.055-17.941-40-40-40-9.039 0-17.297 3.129-24 8.211v-.211c-8.824 0-16-7.176-16-16s7.176-16 16-16v-.207c6.703 5.082 14.961 8.207 24 8.207 22.059 0 40-17.941 40-40h-16c0 13.234-10.766 24-24 24-13.23 0-24-10.766-24-24 0-11.727 8.465-21.477 19.602-23.551 5.551 4.641 12.605 7.551 20.398 7.551v-16c-8.824 0-16-7.176-16-16s7.176-16 16-16zm0 0M328.004 56.008c-3.984 0-7.758.824-11.277 2.152-5.188-10.695-16.059-18.152-28.723-18.152-17.648 0-32 14.355-32 32v224c0 17.648 14.352 32 32 32 12.664 0 23.535-7.453 28.723-18.152 3.52 1.328 7.293 2.152 11.277 2.152 17.648 0 32-14.352 32-32 0-3.758-.766-7.32-1.969-10.672 15.129-5.711 25.969-20.223 25.969-37.328 0-6.582-1.75-12.711-4.582-18.199 12-4.617 20.582-16.184 20.582-29.801 0-13.613-8.582-25.184-20.582-29.797 2.832-5.488 4.582-11.617 4.582-18.203 0-17.102-10.84-31.613-25.969-37.328 1.203-3.352 1.969-6.91 1.969-10.672 0-17.645-14.352-32-32-32zm40 80c0 13.234-10.766 24-24 24-13.23 0-24-10.766-24-24h-16c0 22.059 17.945 40 40 40 9.039 0 17.297-3.125 24-8.207v.207c8.824 0 16 7.176 16 16s-7.176 16-16 16v.211c-6.703-5.082-14.961-8.211-24-8.211-22.055 0-40 17.945-40 40h16c0-13.23 10.77-24 24-24 13.234 0 24 10.77 24 24 0 11.73-8.465 21.48-19.598 23.555-5.555-4.641-12.609-7.555-20.402-7.555v16c8.824 0 16 7.176 16 16s-7.176 16-16 16-16-7.176-16-16h-16c0 7.691 2.84 14.664 7.375 20.184-1.855 6.785-8.008 11.816-15.375 11.816-8.824 0-16-7.176-16-16v-224c0-8.824 7.176-16 16-16 7.367 0 13.52 5.035 15.375 11.816-4.535 5.52-7.375 12.496-7.375 20.184h16c0-8.824 7.176-16 16-16s16 7.176 16 16-7.176 16-16 16v16c7.793 0 14.848-2.91 20.402-7.551 11.133 2.074 19.598 11.824 19.598 23.551zm0 0M373.98 49.898c-37.383-35.137-86.344-52.754-137.727-49.52l.992 15.965c46.949-2.918 91.637 13.137 125.781 45.211 34.16 32.102 52.977 75.598 52.977 122.453 0 56.465-28.145 108.824-75.289 140.066-16.262 10.781-28.566 26.16-36.148 43.934h-113.457c-7.688-17.902-20.039-33.391-36.328-44.27-48.586-32.473-76.504-86.703-74.688-145.09l-15.992-.496c-1.992 63.938 28.59 123.336 81.793 158.883 11.75 7.855 21.133 18.551 27.672 30.973h-21.563v16h27.945c1.551 5.184 2.793 10.496 3.422 16h-15.367v16h16v24c0 4.426 3.586 8 8 8h8c0 26.473 21.527 48 48 48s48-21.527 48-48h8c4.418 0 8-3.574 8-8v-24h16v-16h-15.438c.566-5.496 1.695-10.824 3.215-16h28.223v-16h-21.91c6.445-12.285 15.773-22.848 27.465-30.59 51.621-34.234 82.445-91.578 82.445-153.41 0-50.574-21.152-99.461-58.023-134.109zm-125.977 430.109c-17.648 0-32-14.352-32-32h64c0 17.648-14.352 32-32 32zm48-48h-96v-16h96zm.57-32h-97.211c-.535-5.445-1.398-10.797-2.711-16h102.41c-1.273 5.195-2.012 10.57-2.488 16zm0 0M56.004 56.008c17.648 0 32 14.355 32 32 0 4.426 3.586 8 8 8 4.418 0 8-3.574 8-8 0-17.645 14.352-32 32-32 4.418 0 8-3.574 8-8 0-4.422-3.582-8-8-8-17.648 0-32-14.352-32-32 0-4.422-3.582-8-8-8-4.414 0-8 3.578-8 8 0 17.648-14.352 32-32 32-4.414 0-8 3.578-8 8 0 4.426 3.586 8 8 8zm40-21.496c3.555 5.344 8.152 9.945 13.496 13.496-5.344 3.555-9.941 8.152-13.496 13.496-3.551-5.344-8.152-9.941-13.496-13.496 5.344-3.551 9.945-8.152 13.496-13.496zm0 0M88.004 136.008c4.418 0 8-3.574 8-8 0-4.422-3.582-8-8-8-17.648 0-32-14.352-32-32 0-4.422-3.582-8-8-8-4.414 0-8 3.578-8 8 0 17.648-14.352 32-32 32-4.414 0-8 3.578-8 8 0 4.426 3.586 8 8 8 17.648 0 32 14.355 32 32 0 4.426 3.586 8 8 8 4.418 0 8-3.574 8-8 0-17.645 14.352-32 32-32zm-40 5.496c-3.551-5.344-8.152-9.941-13.496-13.496 5.344-3.551 9.938-8.152 13.496-13.496 3.555 5.344 8.152 9.938 13.496 13.496-5.344 3.555-9.941 8.152-13.496 13.496zm0 0"/></svg>