<svg enable-background="new 0 0 512 512" viewBox="0 0 512 512" xmlns="http://www.w3.org/2000/svg"><path d="M459.546 215.612l.003-.005-49.087-46.79v45.934h43.231c2.036-.001 3.998.307 5.853.861zM58.306 214.75h43.232v-45.934l-49.087 46.79.002.005c1.856-.553 3.818-.861 5.853-.861zM453.92 212.972h-395.841c-10.839 0-19.625 8.787-19.625 19.625v259.777c0 10.839 8.786 19.625 19.625 19.625h395.841c10.839 0 19.626-8.787 19.626-19.625v-259.777c0-10.839-8.787-19.625-19.626-19.625z" fill="#ffd301"/><path d="M69.359 492.374v-259.777c0-10.839 8.786-19.625 19.625-19.625h-30.905c-10.839 0-19.625 8.787-19.625 19.625v259.777c0 10.839 8.786 19.625 19.625 19.625h30.905c-10.838.001-19.625-8.786-19.625-19.625z" fill="#ffc20c"/><path d="M303.384 361.206l-31.039 25.594c-9.49 7.825-23.196 7.825-32.686 0l-31.04-25.594-168.02 140.059c3.244 6.366 9.845 10.735 17.48 10.735h395.841c7.635 0 14.237-4.37 17.481-10.736z" fill="#fee55a"/><path d="M69.359 492.374v-15.083l-28.76 23.974c3.286 6.451 10.006 10.735 17.48 10.735h30.905c-10.838 0-19.625-8.787-19.625-19.626z" fill="#ffd301"/><path d="M410.214 274.629l61.348-50.587c-3.181-6.546-9.875-11.07-17.643-11.07h-43.706v61.657zM101.786 212.971h-43.707c-7.768 0-14.46 4.524-17.642 11.07l61.348 50.586v-61.656z" fill="#ffc20c"/><path d="M40.441 224.034l-.004.007 28.922 23.848v-15.293c0-10.839 8.786-19.625 19.625-19.625h-30.905c-7.401.001-14.319 4.24-17.638 11.063z" fill="#ffa90f"/><path d="M239.659 388.314c9.49 7.825 23.196 7.825 32.686 0l140.018-115.457v-259.606c0-7.288-5.963-13.251-13.251-13.251h-201.022c-6.225 0-12.196 2.473-16.598 6.875l-74.98 74.981c-4.402 4.402-6.875 10.372-6.875 16.598v174.403z" fill="#60b8ff"/><path d="M270.434 379.043l-132.34-109.124c-4.864-4.011-7.681-9.985-7.681-16.29v-195.674l-23.9 23.9c-4.402 4.402-6.875 10.372-6.875 16.598v174.403l140.022 115.458c9.49 7.825 23.196 7.825 32.686 0l5.895-4.861c-2.78-.978-5.427-2.447-7.807-4.41z" fill="#23a8fe"/><path d="M256.106 90.443c9.52 0 17.137-8.25 17.137-17.47s-7.617-17.228-17.137-17.228c-9.732 0-17.349 8.007-17.349 17.228s7.617 17.47 17.349 17.47zM287.434 192.699h-11.547c-1.811 0-3.279-1.468-3.279-3.279v-65.25c0-6.794-7.405-11.404-16.502-11.404h-26.049c-5.756 0-10.422 4.666-10.422 10.422v2.069c0 5.756 4.666 10.422 10.422 10.422h6.48c1.811 0 3.279 1.468 3.279 3.279v50.463c0 1.811-1.468 3.279-3.279 3.279h-11.759c-5.756 0-10.422 4.666-10.422 10.422v2.069c0 5.756 4.666 10.422 10.422 10.422h62.657c5.756 0 10.422-4.666 10.422-10.422v-2.069c-.001-5.757-4.667-10.423-10.423-10.423z" fill="#d9edff"/><path d="M260.391 72.973c0-5.271 2.495-10.138 6.446-13.346-2.93-2.404-6.653-3.881-10.731-3.881-9.732 0-17.349 8.007-17.349 17.227s7.616 17.47 17.349 17.47c4.078 0 7.801-1.521 10.731-3.977-3.951-3.276-6.446-8.223-6.446-13.493zM235.989 205.19v-2.069c0-5.756 4.666-10.422 10.422-10.422h11.759c1.811 0 3.279-1.468 3.279-3.279v-50.463c0-1.811-1.468-3.279-3.279-3.279h-6.48c-5.756 0-10.422-4.666-10.422-10.422v-2.069c0-5.756 4.666-10.422 10.422-10.422h-21.634c-5.756 0-10.422 4.666-10.422 10.422v2.069c0 5.756 4.666 10.422 10.422 10.422h6.48c1.811 0 3.279 1.468 3.279 3.279v50.463c0 1.811-1.468 3.279-3.279 3.279h-11.759c-5.756 0-10.422 4.666-10.422 10.422v2.069c0 5.756 4.666 10.422 10.422 10.422h21.634c-5.756 0-10.422-4.666-10.422-10.422z" fill="#b1dbfc"/><g fill="#23a8fe"><path d="M339.349 262.12h-166.699c-4.267 0-7.726-3.459-7.726-7.726s3.459-7.726 7.726-7.726h166.699c4.267 0 7.726 3.459 7.726 7.726.001 4.267-3.458 7.726-7.726 7.726zM339.349 298.617h-166.699c-4.267 0-7.726-3.459-7.726-7.726s3.459-7.726 7.726-7.726h166.699c4.267 0 7.726 3.459 7.726 7.726s-3.458 7.726-7.726 7.726zM324.927 335.113h-134.764c-4.267 0-7.726-3.459-7.726-7.726s3.459-7.726 7.726-7.726h134.764c4.267 0 7.726 3.459 7.726 7.726s-3.459 7.726-7.726 7.726zM175.117 88.731c7.288 0 13.251-5.963 13.251-13.251v-73.365c-2.534 1.153-4.868 2.754-6.875 4.76l-37.49 37.49-37.49 37.49c-2.007 2.006-3.607 4.341-4.76 6.875 41.31.001 72.371.001 73.364.001z"/></g><path d="M172.682 44.365l15.686-15.686v-26.565c-2.534 1.153-4.868 2.754-6.875 4.76l-37.49 37.49-37.49 37.49c-2.007 2.007-3.607 4.341-4.761 6.875h28.679c1.153-2.534 2.754-4.869 4.76-6.875z" fill="#0094fd"/></svg>