<svg xmlns="http://www.w3.org/2000/svg" class="text-primary" viewBox="0 0 59 59"><path stroke="#424A60" stroke-width="2" stroke-linecap="round" stroke-miterlimit="10" fill="none" d="M48.515 13.615l3.535-3.535"/><path fill="#AFB6BB" d="M49.221 8.666l4.243-4.243 4.243 4.243-4.243 4.243z"/><path d="M30.13 6c-2.008 0-3.96.235-5.837.666v6.334h-8c-.553 0-1 .447-1 1s.447 1 1 1h8v5h-13c-.553 0-1 .447-1 1s.447 1 1 1h13v5h-18c-.553 0-1 .447-1 1s.447 1 1 1h18v5h-22c-.553 0-1 .447-1 1s.447 1 1 1h22v5h-16c-.553 0-1 .447-1 1s.447 1 1 1h16v5h-10c-.553 0-1 .447-1 1s.447 1 1 1h10v7.334c1.877.431 3.829.666 5.837.666 14.359 0 26-11.641 26-26s-11.641-26-26-26z" fill="#bfc7f7"/><path d="M44 23.172c-.348-.346-.896-.39-1.293-.104l-12.947 9.365c-.844.614-1.375 1.563-1.456 2.604s.296 2.06 1.033 2.797c.673.673 1.567 1.044 2.518 1.044 1.138 0 2.216-.549 2.886-1.47l9.363-12.944c.287-.397.244-.945-.104-1.292z" fill="#2B77AA"/><path d="M43 21.293c-.348-.346-.896-.39-1.293-.104l-12.947 9.365c-.844.614-1.375 1.563-1.456 2.604s.296 2.06 1.033 2.797c.673.674 1.567 1.045 2.517 1.045 1.138 0 2.216-.549 2.886-1.47l9.363-12.944c.288-.398.245-.946-.103-1.293z" fill="#EFCE4A"/><path d="M28.293 6.084c.661-.05 1.326-.084 2-.084s1.339.034 2 .084v-3.084h2.5c.828 0 1.5-.672 1.5-1.5s-.672-1.5-1.5-1.5h-9c-.828 0-1.5.672-1.5 1.5s.672 1.5 1.5 1.5h2.5v3.084z" fill="#424A60"/><path d="M30.293 5c-.553 0-1 .447-1 1v3c0 .553.447 1 1 1s1-.447 1-1v-3c0-.553-.447-1-1-1zM30.293 54c-.553 0-1 .447-1 1v3c0 .553.447 1 1 1s1-.447 1-1v-3c0-.553-.447-1-1-1zM56.13 31h-3c-.553 0-1 .447-1 1s.447 1 1 1h3c.553 0 1-.447 1-1s-.447-1-1-1zM43.63 8.617c-.479-.277-1.09-.112-1.366.366l-1.5 2.599c-.276.479-.112 1.09.366 1.366.157.091.329.134.499.134.346 0 .682-.18.867-.5l1.5-2.599c.276-.478.112-1.09-.366-1.366zM53.146 44.134l-2.598-1.5c-.478-.277-1.09-.114-1.366.366-.276.479-.112 1.09.366 1.366l2.598 1.5c.158.091.329.134.499.134.346 0 .682-.179.867-.5.277-.479.113-1.09-.366-1.366zM42.496 51.419c-.277-.48-.89-.644-1.366-.366-.479.276-.643.888-.366 1.366l1.5 2.598c.186.321.521.5.867.5.17 0 .342-.043.499-.134.479-.276.643-.888.366-1.366l-1.5-2.598zM50.05 21.5c.17 0 .342-.043.499-.134l2.598-1.5c.479-.276.643-.888.366-1.366-.276-.479-.89-.644-1.366-.366l-2.598 1.5c-.479.276-.643.887-.366 1.366.185.321.521.5.867.5z" fill="#A1C8EC"/></svg>