<svg xmlns="http://www.w3.org/2000/svg" viewBox="0 0 473.931 473.931"><circle cx="236.966" cy="236.966" r="236.966" fill="#bfc7f7"/><path fill="#F2DE62" d="M389.44 382.458l-23.584 21.269-15.754-17.469 23.584-21.269z"/><path fill="#fff" d="M373.731 385.517l-8.109 18.458-126.632 20.225-17.276-105.847-2.495-15.297 153.378-24.486 2.496 15.293 14.473 88.672z"/><path fill="#988534" d="M360.392 314.898l-119.686 19.113-1.21-7.575 119.686-19.113zM363.854 333.827l-119.693 19.115-1.209-7.571 119.693-19.115zM367.025 353.92l-119.693 19.115-1.209-7.571 119.693-19.115zM316.481 381.994l-65.984 10.544-1.211-7.579 65.984-10.544z"/><path fill="#F2DE62" d="M197.771 282.587l-25.541 18.889-13.987-18.913 25.541-18.889z"/><path fill="#fff" d="M181.85 284.134l-9.853 17.59-127.994 7.862-7.947-122.483 155.028-9.527 6.818 105.121z"/><path fill="#988534" d="M175.44 212.535l-120.968 7.442-.471-7.656 120.968-7.442zM177.036 231.701l-120.964 7.441-.471-7.652 120.964-7.441zM178.247 252.018l-120.968 7.442-.471-7.652 120.968-7.442zM125.21 275.05l-66.696 4.103-.471-7.656 66.696-4.103z"/><path fill="#F2DE62" d="M380.539 183.367l-27.574 15.768-11.678-20.422 27.574-15.768z"/><path fill="#fff" d="M364.534 182.995l-11.851 16.31-128.028-7.177 6.444-122.569 155.077 8.689-5.534 105.199z"/><path fill="#988534" d="M366.531 111.138l-121.001-6.775.429-7.658 121.001 6.775zM365.904 130.345l-121.005-6.775.428-7.651 121.005 6.775zM364.701 150.692l-121.005-6.775.429-7.658 121.005 6.775zM309.316 167.37l-66.707-3.735.429-7.658 66.707 3.735z"/></svg>