<svg xmlns="http://www.w3.org/2000/svg" viewBox="0 0 512.021 512.021"><path d="M508.709 232.816c4.267-4.062 4.433-10.814.371-15.08-1.953-2.052-4.643-3.242-7.475-3.309-21.589-.512-21.589-30.955-21.589-32.213.046-3.935-2.077-7.576-5.525-9.472l-103.104-56.747c-3.813-2.11-8.526-1.687-11.904 1.067l-82.645 67.392c-4.11 3.364-5.12 9.239-2.368 13.781l25.771 42.667c.482.783 1.063 1.5 1.728 2.133 12.109 13.958 18.294 32.09 17.237 50.539.05 29.076-11.725 56.922-32.619 77.141-4.266 4.062-4.432 10.814-.37 15.08 1.433 1.505 3.274 2.559 5.298 3.032 15.201 6.461 27.395 18.434 34.133 33.515 14.051 22.273 19.567 48.878 15.531 74.901-1.866 5.588 1.151 11.63 6.738 13.496 4.881 1.63 10.231-.457 12.718-4.963 17.237-30.805 45.419-56.811 64.192-59.157 3.866-.868 7.906.336 10.667 3.179 4.062 4.267 10.814 4.433 15.08.371 2.052-1.953 3.242-4.643 3.309-7.475v-6.997c-2.583-28.224 8.183-56.032 29.099-75.157 4.271-4.057 4.444-10.809.387-15.08l-.003-.003c-9.698-15.237-12.136-33.99-6.656-51.2 4.419-23.172 15.546-44.536 31.999-61.441z" fill="#43A047"></path><path d="M337.637 152.646c-3.649-3.038-8.866-3.299-12.8-.64l-30.997-46.528c.491-.448 1.259-.747 1.728-1.195 4.237-4.092 4.355-10.845.262-15.083s-10.845-4.355-15.083-.262l-.262.262c-16.939 16.939-100.907 11.328-113.067-.213-4.234-4.096-10.987-3.984-15.083.249-2.057 2.126-3.138 5.01-2.986 7.964-1.579 24.527-12.225 47.591-29.867 64.704-16.885 18.909-40.794 30.054-66.133 30.827-5.891.003-10.664 4.781-10.662 10.672.001 2.075.607 4.105 1.744 5.84 6.543 15.171 7.115 32.255 1.6 47.829-5.193 25.812-19.544 48.876-40.405 64.939-5.191 2.785-7.142 9.251-4.357 14.442 2.417 4.505 7.689 6.661 12.57 5.142 33.749-10.432 72.064-9.792 87.296 1.451 3.409 2.043 5.51 5.711 5.547 9.685-.034 4.348 2.574 8.281 6.592 9.941 1.291.538 2.676.813 4.075.811 2.831.005 5.548-1.115 7.552-3.115 1.451-1.451 3.072-3.179 4.843-5.077 17.553-22.314 44.553-35.107 72.939-34.56 5.891 0 10.667-4.776 10.667-10.667 0-26.432 49.643-64 96-64 5.891.011 10.675-4.757 10.686-10.648.005-2.84-1.123-5.565-3.134-7.571-12.117-12.117 9.493-45.781 21.867-60.16 3.838-4.465 3.332-11.198-1.132-15.039z" fill="#4CAF50"></path><path d="M138.682 256.731c-5.891-.011-10.657-4.796-10.646-10.687.006-3.111 1.37-6.064 3.734-8.086 4.267-3.605 104.064-88.427 152.171-108.416 5.467-2.25 11.723.357 13.973 5.824s-.357 11.723-5.824 13.973c-45.013 18.688-145.472 104.064-146.496 104.917-1.938 1.617-4.388 2.494-6.912 2.475zM385.104 361.2c-5.462.033-10.066-4.065-10.667-9.493-.448-4.267-11.115-103.893 10.411-152.619 1.99-5.545 8.098-8.426 13.643-6.436 5.545 1.99 8.426 8.098 6.436 13.643-.163.455-.357.898-.58 1.326-19.2 43.477-8.811 140.672-8.704 141.653.648 5.855-3.573 11.127-9.428 11.776h-.001l-1.11.15z" fill="#388E3C"></path><path d="M448.016.731c-28.977.092-54.276 19.642-61.675 47.659-1.091 4.114.368 8.482 3.712 11.115l76.651 60.288c1.885 1.483 4.215 2.287 6.613 2.283 1.774-.005 3.52-.452 5.077-1.301 31.046-16.699 42.676-55.404 25.977-86.45-11.152-20.735-32.812-33.647-56.355-33.594z" fill="#E53935"></path><circle cx="352.016" cy="96.731" r="74.667" fill="#D32F2F"></circle><circle cx="416.016" cy="139.398" r="74.667" fill="#F44336"></circle></svg>