<svg viewBox="0 0 496 496.01195" xmlns="http://www.w3.org/2000/svg"><path d="M451.023 405.316c7.926-7.313 12.984-17.695 12.984-29.305v-16c0-22.055-17.945-40-40-40-19.313 0-35.473 13.77-39.195 32h-26.277c-3.313-9.289-12.113-16-22.527-16-10.418 0-19.219 6.711-22.531 16h-26.277c-3.191-15.648-15.547-28-31.191-31.191v-17.945c13.766-3.574 24-15.992 24-30.863h8c4.422 0 8-3.574 8-8v-24h16v-16h-16v-.086c0-15.305 7.254-30.348 19.902-41.242 22.938-19.785 36.098-48.457 36.098-78.672 0-28.574-11.355-55.215-31.969-75.016-20.602-19.801-47.832-30.137-76.32-28.895-54 2.176-98.73 47.941-99.695 102.016-.555 30.605 12.352 59.758 35.406 79.984 12.688 11.117 20.063 26.328 20.496 41.91h-15.918v16h16v24c0 4.426 3.574 8 8 8h8c0 14.871 10.23 27.289 24 30.863v17.945c-15.648 3.191-28 15.543-31.195 31.191h-26.277c-3.313-9.289-12.113-16-22.527-16-10.418 0-19.219 6.711-22.531 16h-26.277c-3.723-18.23-19.875-32-39.191-32-22.059 0-40 17.945-40 40v16c0 11.609 5.055 21.992 12.98 29.305-26.344 10.711-44.98 36.551-44.98 66.695v16c0 4.426 3.574 8 8 8h128c4.422 0 8-3.574 8-8v-16c0-30.145-18.641-55.984-44.984-66.695 7.926-7.313 12.984-17.695 12.984-29.305v-8h25.469c3.313 9.289 12.113 16 22.531 16 10.414 0 19.215-6.711 22.527-16h25.473v8c0 11.609 5.055 21.992 12.98 29.305-26.344 10.711-44.98 36.551-44.98 66.695v16c0 4.426 3.574 8 8 8h128c4.422 0 8-3.574 8-8v-16c0-30.145-18.641-55.984-44.984-66.695 7.926-7.313 12.984-17.695 12.984-29.305v-8h25.469c3.313 9.289 12.113 16 22.531 16 10.414 0 19.215-6.711 22.527-16h25.473v8c0 11.609 5.055 21.992 12.98 29.305-26.344 10.711-44.98 36.551-44.98 66.695v16c0 4.426 3.574 8 8 8h128c4.422 0 8-3.574 8-8v-16c0-30.145-18.641-55.984-44.984-66.695zm-323.016 66.695v8h-16v-16h-16v16h-48v-16h-16v16h-16v-8c0-30.871 25.125-56 56-56 30.871 0 56 25.129 56 56zm-80-96v-16c0-13.23 10.766-24 24-24 13.23 0 24 10.77 24 24v16c0 13.23-10.77 24-24 24-13.234 0-24-10.77-24-24zm112-8c-4.418 0-8-3.582-8-8 0-4.414 3.582-8 8-8 4.414 0 8 3.586 8 8 0 4.418-3.586 8-8 8zm29.965-197.945c-19.504-17.109-30.422-41.773-29.949-67.672.824-45.75 38.656-84.469 84.336-86.313 24.406-.887 47.168 7.715 64.59 24.457 17.449 16.746 27.059 39.297 27.059 63.473 0 25.559-11.137 49.816-30.547 66.543-16.176 13.953-25.453 33.402-25.453 53.371v.086h-64.082c-.434-20.184-9.793-39.785-25.953-53.945zm90.035 69.945v16h-64v-16zm-48 32h32c0 8.824-7.18 16-16 16-8.824 0-16-7.176-16-16zm72 200v8h-16v-16h-16v16h-48v-16h-16v16h-16v-8c0-30.871 25.125-56 56-56 30.871 0 56 25.129 56 56zm-80-96v-16c0-13.23 10.766-24 24-24 13.23 0 24 10.77 24 24v16c0 13.23-10.77 24-24 24-13.234 0-24-10.77-24-24zm112-8c-4.418 0-8-3.582-8-8 0-4.414 3.582-8 8-8 4.414 0 8 3.586 8 8 0 4.418-3.586 8-8 8zm64 8v-16c0-13.23 10.766-24 24-24 13.23 0 24 10.77 24 24v16c0 13.23-10.77 24-24 24-13.234 0-24-10.77-24-24zm80 104h-16v-16h-16v16h-48v-16h-16v16h-16v-8c0-30.871 25.125-56 56-56 30.871 0 56 25.129 56 56zm0 0M232.008 192.012h32v16h-32zm0 0M240.008 143.203v16.809h16v-16.809c5.094-1.039 9.832-3.07 14.023-5.855l12.32 12.32 11.309-11.313-12.316-12.32c2.781-4.191 4.813-8.926 5.855-14.023h16.809v-16h-16.809c-1.043-5.098-3.074-9.832-5.855-14.023l12.316-12.32-11.309-11.313-12.32 12.32c-4.191-2.785-8.93-4.816-14.023-5.855v-16.809h-16v16.809c-5.098 1.039-9.832 3.07-14.027 5.855l-12.32-12.32-11.309 11.313 12.32 12.32c-2.785 4.191-4.816 8.926-5.859 14.023h-16.805v16h16.805c1.043 5.098 3.074 9.832 5.859 14.023l-12.32 12.32 11.309 11.313 12.32-12.32c4.195 2.785 8.93 4.816 14.027 5.855zm8-63.191c13.23 0 24 10.77 24 24s-10.77 24-24 24c-13.234 0-24-10.77-24-24s10.766-24 24-24zm0 0"/></svg>