<svg xmlns="http://www.w3.org/2000/svg" viewBox="0 0 509.604 509.604"><path d="M34.262 333.282c8.119 6.75 14.793 15.223 14.143 20.988-.382 3.443-.593 6.943-.593 10.5 0 52.393 41.3 94.861 92.24 94.861 6.292 0 12.431-.65 18.37-1.885 10.002-2.074 21.812 1.941 28.888 9.793 16.82 18.646 40.803 30.342 67.492 30.342 28.19 0 53.426-13.016 70.342-33.518 6.723-8.146 18.103-11.533 28.22-8.5 8.166 2.447 16.811 3.768 25.751 3.768 50.939 0 92.24-42.477 92.24-94.861 0-5.861-.535-11.59-1.549-17.145-1.712-9.371 2.85-21.047 10.471-28.363 18.025-17.289 29.328-41.883 29.328-69.242 0-29.787-13.368-56.323-34.263-73.698-8.118-6.751-14.793-15.224-14.143-20.99.383-3.442.593-6.942.593-10.5 0-52.393-41.301-94.86-92.24-94.86-6.292 0-12.431.65-18.369 1.884-10.002 2.075-21.812-1.941-28.889-9.792-16.82-18.647-40.803-30.342-67.492-30.342-26.688 0-50.671 11.695-67.492 30.342-7.076 7.841-18.886 11.867-28.888 9.792-5.938-1.234-12.078-1.884-18.37-1.884-50.939 0-92.24 42.477-92.24 94.86 0 5.049.392 10.002 1.147 14.832 1.262 8.128-4.447 18.149-12.747 24.681-21.993 17.318-36.212 44.542-36.212 75.238 0 29.787 13.368 56.324 34.262 73.699zm97.213-70.266c2.046-3.625 7.268-3.672 12.049.479l48.119 33.918c2.61 1.588 5.106 2.4 7.506 2.4 4.963 0 8.893-3.576 12.689-7.02l153.985-154.138c9.629-10.471 18.99-14.162 25.102-10.146 2.82 1.855 4.646 4.647 5.135 7.87.583 3.825-.756 7.946-3.768 11.599l-185.149 224.91c-2.687 3.26-6.11 5.059-9.629 5.059-4.179 0-7.965-2.516-10.404-6.895l-54.344-97.969c-2.247-3.661-2.745-7.465-1.291-10.067z"/></svg>