<?xml version="1.0" encoding="utf-8"?>
<!-- Generator: Adobe Illustrator 21.1.0, SVG Export Plug-In . SVG Version: 6.00 Build 0)  -->
<svg version="1.1" id="图层_1" xmlns="http://www.w3.org/2000/svg" xmlns:xlink="http://www.w3.org/1999/xlink" x="0px" y="0px"
	 viewBox="0 0 259 60" style="enable-background:new 0 0 259 60;" xml:space="preserve">
<style type="text/css">
	.st0{fill:#0071BC;stroke:#0071BC;stroke-miterlimit:10;}
	.st1{fill:#FFFFFF;}
	.st2{fill:#4F4F51;}
</style>
<g>
	<g>
		<path class="st0" d="M50.5,45.7L28,58.8c-0.9,0.5-2.1,0.5-3,0l-22.6-13c-0.9-0.5-1.5-1.5-1.5-2.6L0.8,17.1c0-1.1,0.6-2.1,1.5-2.6
			L24.9,1.4c0.9-0.5,2.1-0.5,3,0l22.6,13c0.9,0.5,1.5,1.5,1.5,2.6L52,43.1C52,44.1,51.4,45.1,50.5,45.7z"/>
		<g>
			<path class="st1" d="M41.1,10.9V17h-20L6.4,26.2v-8.5l11-6.9H41.1z M22.9,20.5v22.7h18.1v6.1H17.4l-11-6.9V30.9L22.9,20.5z"/>
		</g>
	</g>
	<g>
		<path class="st2" d="M76,14v5h-9.8L59,26.5v-6.9l5.4-5.6H76z M67,21.9V40h10v5H64.3L59,39.5v-9.3L67,21.9z"/>
		<path class="st2" d="M88,21.9V45h-8V30.2L88,21.9z M96,20l5.9-6h4.6l5.6,5.6v6.8l-7.8-7.9L96,26.7l-8.2-8.2L80,26.3v-6.8l5.6-5.6
			h4.6L96,20z M112,30.2V45h-8V21.9L112,30.2z"/>
		<path class="st2" d="M141,14v5h-18.6l-7.4,7.5v-6.9l5.6-5.6H141z M124,21.9V27h17v2.1l-8,8.4V32h-17v-1.7L124,21.9z M141,32.5v6.9
			l-5.6,5.6H115v-5h18.6L141,32.5z"/>
		<path class="st0" d="M185.5,14.5v14.9l-15.4,16.1h-5l-5.2-5.2l-5.3,5.2h-4.5l-5.6-5.6v-6.8l7.8,7.8l7.2-7.2v-1.1l7.9,7.9
			l10.1-10.4V14.5H185.5z M153.5,14.5v23.1l-8-8.3V14.5H153.5z M168.5,14.5v23.1l-8-8.3V14.5H168.5z"/>
		<path class="st0" d="M197.5,14.5v4l-8,8.3V14.5H197.5z M197.5,22.4v23.1h-8V30.7L197.5,22.4z"/>
		<path class="st0" d="M227.5,30.6v14.9h-8V28.9l-10-10l-8,8v-6.9l5.5-5.6h4.7L227.5,30.6z M209.5,22.4v23.1h-8V30.7L209.5,22.4z
			 M227.5,14.5v12.3l-8-8.3v-4H227.5z"/>
		<path class="st0" d="M257.5,14.5v5h-18.6l-7.4,7.5v-6.9l5.6-5.6H257.5z M257.5,33v12.5h-20.7l-5.3-5.5v-9.3l8-8.3v18.1H250
			L257.5,33z M244.5,24.5h13v4.6l-9,8.3v-7.9h-4V24.5z"/>
	</g>
</g>
</svg>
