<svg xmlns="http://www.w3.org/2000/svg" viewBox="0 0 272.18 81.5"><defs><style>.cls-1,.cls-5,.cls-6{fill:#0071bc;stroke:#0071bc;stroke-miterlimit:10;}.cls-2{font-size:74.44px;fill:#fff;}.cls-2,.cls-3{font-family:DexGothicD, DexGothicD;}.cls-3{font-size:46.29px;fill:#4f4f51;}.cls-4,.cls-5{letter-spacing:0.04em;}.cls-6{letter-spacing:0.04em;}</style></defs><title>资源 5</title><g id="图层_2" data-name="图层 2"><g id="图层_1-2" data-name="图层 1"><path class="cls-1" d="M64.77,58.22,35.6,75.14a3.86,3.86,0,0,1-3.86,0L2.5,58.34A3.86,3.86,0,0,1,.57,55L.5,21.29a3.86,3.86,0,0,1,1.92-3.35L31.59,1a3.86,3.86,0,0,1,3.86,0l29.24,16.8a3.86,3.86,0,0,1,1.94,3.34l.07,33.72A3.86,3.86,0,0,1,64.77,58.22Z"/><text class="cls-2" transform="translate(5.41 62.89) scale(1.59 1)">c</text><text class="cls-3" transform="translate(71.92 54.58)"><tspan class="cls-4">cms</tspan><tspan class="cls-5" x="85.74" y="0">wi</tspan><tspan class="cls-6" x="142.15" y="0">n</tspan><tspan class="cls-1" x="172.27" y="0">g</tspan></text></g></g></svg>