<svg xmlns="http://www.w3.org/2000/svg" viewBox="0 0 48.905 48.904"><path d="M22.092 7.262l2.36-1.24 2.359 1.24-.449-2.627 1.906-1.86-2.635-.385-1.181-2.39-1.18 2.39-2.637.385 1.909 1.86zM34.237 18.481h.851l-10.636-10.635-6.782 6.781zM33.958 26.638l-1.979.349c.323.192.554.533.554.938 0 .61-.496 1.104-1.106 1.104-.611 0-1.104-.496-1.104-1.104 0-.267.105-.498.26-.688l-3.443.611c.85.074 1.523.762 1.523 1.631 0 .916-.742 1.656-1.655 1.656-.919 0-1.658-.74-1.658-1.656 0-.654.388-1.209.938-1.479l-4.349.771c.299.151.51.457.51.813 0 .51-.411.922-.921.922-.509 0-.918-.412-.918-.922 0-.242.096-.456.248-.62l-10.009 1.776-2.513 2.514 27.466 2.003-1.468-1.468h6.777l-7.153-7.151zM16.146 25.439l-3.181 3.182 24.242-4.304-4.406-4.404-6.46-1.504c.37.354.604.853.604 1.407 0 1.077-.873 1.95-1.95 1.95-1.076 0-1.946-.873-1.946-1.95 0-.877.58-1.607 1.375-1.852l-3.319-.773c.12.203.205.426.205.676 0 .756-.614 1.37-1.37 1.37-.754 0-1.367-.614-1.367-1.37 0-.476.258-.876.628-1.121l-2.963-.689-2.425 2.425h3.715l-6.957 6.958h5.575v-.001zM42.468 41.925l-4.812-4.813-4.768-.347c.258.265.42.623.42 1.019 0 .81-.654 1.465-1.462 1.465s-1.46-.655-1.46-1.465c0-.481.251-.889.613-1.153l-8.132-.595c.205.207.332.488.332.802 0 .634-.512 1.147-1.146 1.147-.632 0-1.144-.512-1.144-1.147 0-.381.197-.701.484-.909l-3.998-.294c.54.32.907.899.907 1.571 0 1.011-.82 1.828-1.832 1.828-1.008 0-1.827-.817-1.827-1.828 0-.762.466-1.414 1.128-1.689l-2.73-.199-6.606 6.608h15.829l-1.257 6.979h6.889l-1.259-6.979 15.831-.001z"/></svg>