<svg xmlns="http://www.w3.org/2000/svg" viewBox="0 0 377.917 377.917"><path d="M58.307 351.001c-8.764 1.739-13.738-47.06-13.738-47.06s-7.607 1.18-7.596 21.055c-22.502-5.57-12.862-91.187-12.862-91.187s-13.44-2.347-23.676 5.546c-3.789-7.893 18.415-17.818 18.415-17.818s-5.261-4.1-14.626-2.056c-1.733-5.838 15.508-9.937 15.508-9.937s-5.547-5.547-16.658-4.683c1.471-7.298 15.501-7.602 15.501-7.602s8.448-42.073 7.876-48.805c-.572-6.72 1.472-16.955-19.285 13.452-.875-69.257 56.4-69.257 72.772-84.466 16.359-15.186 48.092-22.911 54.654-29.222 6.568-6.317 23.092-21.906 35.948-21.334-14.316 11.111-26.022 25.433-13.744 21.632 57.306-19.285 102.59-11.98 125.395.584 22.794 12.57 80.969 56.43 92.366 119.836 11.396 63.412-9.493 69.263-14.024 79.795 23.378 57.557-29.52 99.945-29.52 99.945s4.671-89.739-16.955-101.416c-6.131-2.92-2.056 21.334-11.969 29.52.863-29.801-10.241-56.108-10.241-56.108s3.503 19.29-2.919 27.757c-1.156-21.043-11.105-35.359-11.105-35.359s5.839 21.626-3.503 27.768c-1.156-19.605-11.969-37.133-11.969-37.133s-2.324 8.034-1.472 28.363c-5.547-11.7-48.227-68.393-57.008-52.909-8.764 15.496 48.519 55.537 48.799 78.039-19.268-19.863-93.802-85.354-104.037-90.317-10.235-4.963 28.649 54.655 54.059 73.069-20.739-2.347-47.929-29.811-47.929-29.811s17.241 31.563 30.098 42.375c-13.154 6.423-42.091-32.146-48.221-40.612.583 9.646.187 24.02 25.619 42.435-24.259 7.882-49.283-57.954-52.5-51.204-7.894 33.898 9.336 57.872 32.725 77.162-25.421-.304-64.306-47.935-64.306-47.935s-11.099 40.916 9.073 49.674c-34.503 2.641-33.919 49.677-28.945 68.967z"/></svg>