<svg xmlns="http://www.w3.org/2000/svg" viewBox="0 0 512.008 512.008"><path d="M501.342.011h-170.667c-2.831-.005-5.548 1.115-7.552 3.115l-320 320c-4.164 4.165-4.164 10.917 0 15.083l170.667 170.666c4.165 4.164 10.917 4.164 15.083 0l320-320c2.002-1.996 3.13-4.704 3.136-7.531v-170.667c-.001-5.891-4.776-10.666-10.667-10.666zm-85.334 149.333c-29.455 0-53.333-23.878-53.333-53.333s23.878-53.333 53.333-53.333 53.333 23.878 53.333 53.333-23.877 53.333-53.333 53.333z" fill="#F44336"/><path d="M194.59 352.331l-36.459-9.109-9.109-36.459c-1.426-5.72-7.218-9.202-12.939-7.776-5.72 1.426-9.202 7.218-7.776 12.939l6.4 25.408-25.408-6.4c-5.72-1.426-11.513 2.056-12.939 7.776-1.426 5.72 2.056 11.513 7.776 12.939l36.459 9.109 9.109 36.459c1.164 4.752 5.412 8.102 10.304 8.128.87-.004 1.737-.111 2.581-.32 5.713-1.427 9.189-7.214 7.765-12.928l-6.4-25.408 25.408 6.4c.868.191 1.756.277 2.645.256 5.891-.006 10.661-4.787 10.655-10.678-.004-4.889-3.331-9.148-8.072-10.336zM210.227 237.792c-4.159-4.172-10.913-4.183-15.085-.024-2.662 2.654-3.731 6.512-2.814 10.157l6.4 25.408-25.408-6.4c-4.653-1.123-9.49.952-11.883 5.099-2.361 4.175-1.645 9.412 1.749 12.8l53.333 53.333c4.237 4.092 10.99 3.975 15.083-.262 3.992-4.134 3.992-10.687 0-14.82l-26.155-26.048 5.312 1.344c5.716 1.423 11.505-2.057 12.928-7.773.421-1.692.421-3.462 0-5.155l-1.323-5.312 26.112 26.112c4.237 4.092 10.99 3.975 15.083-.262 3.992-4.134 3.992-10.687 0-14.82l-53.332-53.377zM324.787 225.141l-64-32c-5.267-2.639-11.676-.508-14.315 4.759-1.507 3.007-1.507 6.549 0 9.556l32 64c2.633 5.272 9.042 7.412 14.315 4.779s7.412-9.042 4.779-14.315l-2.133-4.459.235-.149 15.083-15.083.149-.235 4.459 2.133c5.272 2.633 11.681.494 14.315-4.779 2.633-5.272.494-11.681-4.779-14.315l-.108.108zm-39.488 12.267l-5.44-10.859 10.859 5.44-5.419 5.419zM359.56 173.792c-10.181-9.75-26.235-9.75-36.416 0-1.829 1.458-4.422 1.458-6.251 0-1.726-1.723-1.729-4.519-.006-6.245l.006-.006 10.667-10.667c4.237-4.092 4.355-10.845.262-15.083s-10.845-4.355-15.083-.262l-.262.262-10.667 10.667c-10.045 10.061-10.045 26.355 0 36.416 10.181 9.75 26.235 9.75 36.416 0 1.829-1.458 4.422-1.458 6.251 0 1.726 1.723 1.729 4.519.005 6.245l-.005.006-10.667 10.667c-4.237 4.093-4.354 10.845-.262 15.083 4.093 4.237 10.845 4.354 15.083.262l.262-.262 10.667-10.667c10.045-10.061 10.045-26.355 0-36.416z" fill="#FAFAFA"/></svg>