<svg width="110" height="70" xmlns="http://www.w3.org/2000/svg" viewBox="0, 0, 400,253.96825396825398"><path d="M277.643 113.787c.048 22.439.156 33.083.335 33.206.145.1.404 1.027.577 2.06.172 1.032.479 2.232.682 2.666.203.434.541 1.282.751 1.885.21.603.613 1.421.896 1.817.282.397.513.783.513.859 0 .764 4.721 6.006 5.408 6.006.171 0 .454.228.628.508.175.279.47.508.657.508.187 0 .602.226.921.503.32.278.966.643 1.436.813.47.17.855.388.855.484 0 .096.771.381 1.714.632s1.775.545 1.849.652c.184.266 4.366.979 5.74.979.61 0 1.109.114 1.109.254 0 .156 1.27.254 3.302.254 1.816 0 3.301-.089 3.301-.199 0-.109 1.265-.333 2.81-.497 1.546-.164 3.149-.468 3.563-.674.414-.207 1.406-.566 2.206-.798.799-.232 1.51-.5 1.58-.594.07-.095.613-.387 1.207-.649.593-.261 1.079-.573 1.079-.691 0-.119.145-.215.322-.215.305 0 1.947-1.238 3.614-2.725.994-.886 2.667-2.984 2.667-3.344 0-.154.113-.281.252-.281.252 0 .781-.899 1.792-3.047 1.121-2.384 1.277-2.808 1.56-4.242.16-.81.373-1.53.473-1.6.477-.331.748-6.188.748-16.136v-10.784h-16.719l-.085 11.09c-.065 8.585-.156 11.114-.402 11.196-.174.058-.317.304-.317.547 0 3.182-3.433 6.717-7.193 7.407-4.259.781-7.249-.348-10.141-3.829-.351-.423-1.206-2.988-1.206-3.619 0-.22-.143-.448-.317-.506-.249-.083-.335-3.546-.397-15.895l-.079-15.788h36.856v-13.206h-36.825v-18.032h-17.794l.072 33.025m-10.366-16.537c-1.83.081-3.487.274-3.683.428-.196.155-1.069.417-1.941.584-3.157.602-9.97 5.462-9.97 7.11 0 .153-.115.279-.254.279-.157 0-.254-1.312-.254-3.429v-3.428h-17.016v67.047h18.014l.072-19.643c.052-14.216.152-19.743.362-20 .159-.196.437-1.027.618-1.846.181-.819.451-1.621.6-1.782.148-.162.486-.679.75-1.149.435-.777.699-1.122 1.768-2.31.529-.588 1.262-1.142 2.215-1.673.479-.267.928-.551.998-.631.191-.219 3.127-.997 3.762-.997.305 0 .555-.115.555-.254 0-.159 1.481-.254 3.937-.254 2.618 0 3.936.09 3.936.27 0 .149.314.235.698.191l.699-.08.066-9.334.067-9.333-1.336.043c-.735.024-2.834.11-4.663.191m-244.674.184c-.489.058-1.117.209-1.397.335-.279.126-1.308.36-2.285.518-.978.159-2.121.443-2.54.63-.419.187-1.362.531-2.095.764-.734.233-1.334.51-1.334.616 0 .106-.469.348-1.042.537-.574.19-1.101.494-1.171.676-.069.182-.276.331-.458.331-.503 0-3.196 2.348-4.059 3.537-.419.578-.962 1.294-1.206 1.59-.245.296-.445.641-.445.766s-.234.707-.521 1.294c-.656 1.344-1.248 3.791-1.253 5.179-.002.586-.118 1.135-.257 1.222-.316.195-.336 2.769-.026 3.368.125.243.346 1.355.491 2.473.402 3.094 2.615 7.237 4.649 8.704.246.178.596.471.778.652.181.181.673.549 1.092.817.419.269.876.578 1.016.686 1.517 1.171 5.227 3.035 6.666 3.35.454.099.826.267.826.373 0 .105.943.401 2.095.657 1.152.256 2.21.547 2.349.647.14.099 1.226.386 2.413.636 1.187.251 2.216.534 2.286.629.069.096 1.184.386 2.476.645s2.349.561 2.349.671c0 .11.19.2.422.2.526 0 3.215.819 3.388 1.031.069.087.927.368 1.904.627.978.258 1.835.545 1.905.638.07.093.561.311 1.092.484 5.654 1.844 3.282 9.248-3.359 10.483-.848.157-1.542.381-1.542.496 0 .279-6.943.269-7.251-.011-.133-.121-.971-.358-1.862-.527-3.315-.629-6.563-3.111-7.203-5.505-.164-.612-.388-1.113-.499-1.113-.111 0-.201-.572-.201-1.27v-1.27h-18.54l.004 1.714c.005 1.775.572 4.984.971 5.489.125.159.42.88.656 1.603.236.722.594 1.451.796 1.618.201.168.367.444.367.614 0 .903 4.382 5.545 6.523 6.908.393.25.772.521.842.601.313.359 3.055 1.752 4.016 2.04.585.176 1.063.398 1.063.495 0 .096.886.371 1.968.61 1.083.24 2.172.546 2.421.681.554.3 5.665.992 7.326.992.664 0 1.278.114 1.364.254.193.312 7.746.348 7.746.038 0-.119 1-.282 2.223-.362 2.66-.174 5.65-.698 5.65-.99 0-.115.288-.21.639-.21.928 0 3.749-.815 4.142-1.197.184-.18.5-.327.701-.327.407 0 1.297-.463 1.828-.952.19-.175.491-.317.668-.317 1.237 0 6.517-5.423 7.115-7.308.099-.311.274-.565.388-.565.115 0 .415-.772.666-1.715.251-.943.543-1.774.648-1.847.866-.601.868-12.057.002-12.691-.097-.071-.378-.786-.626-1.589-.248-.803-.551-1.46-.674-1.46s-.302-.246-.397-.546c-.399-1.255-4.442-4.725-6.465-5.547-.488-.199-1.025-.495-1.193-.659-.167-.163-1.053-.438-1.968-.611-.915-.172-1.664-.4-1.664-.506 0-.107-.914-.401-2.032-.655-1.117-.253-2.031-.535-2.031-.625 0-.091-.943-.374-2.096-.63-1.152-.256-2.219-.559-2.372-.674-.152-.114-1.18-.393-2.285-.62-1.105-.226-2.124-.5-2.263-.608-.14-.107-1.226-.401-2.413-.651-1.187-.251-2.216-.532-2.286-.626-.07-.094-.984-.377-2.032-.629-1.047-.252-1.961-.539-2.031-.636-.07-.098-.72-.373-1.444-.612-.725-.238-1.353-.512-1.397-.609-.044-.096-.497-.387-1.006-.646-.547-.277-1.119-.849-1.397-1.396-.259-.51-.556-.965-.661-1.011-1.213-.539.35-4.304 2.267-5.462 2.476-1.496 13.319-1.698 14.742-.275.198.198.564.361.814.361.48 0 3.066 2.568 3.066 3.045 0 .154.219.734.486 1.287.267.553.563 1.462.657 2.019l.171 1.014h17.48v-1.016c0-.559-.115-1.016-.254-1.016-.14 0-.254-.39-.254-.866 0-1.138-.686-4.7-.976-5.068-.125-.158-.42-.879-.656-1.602-.235-.722-.593-1.451-.795-1.618-.202-.168-.367-.444-.367-.614 0-1.755-6.314-7.078-9.687-8.166-.748-.242-1.418-.517-1.488-.611-.07-.095-.412-.239-.762-.32-.349-.081-1.092-.266-1.65-.413-.559-.146-1.435-.268-1.947-.271-.515-.004-.979-.148-1.037-.324-.104-.311-15.168-.553-17.461-.28m74.54.01c-.419.054-.991.198-1.27.322-.279.123-1.079.353-1.778.513-1.314.299-4.025 1.583-4.638 2.196-.193.193-.473.35-.623.35-.291 0-3.247 3.005-3.247 3.301 0 .097-.288.508-.641.914-.353.406-.706.987-.785 1.291-.079.304-.304.615-.501.69-.3.115-.358-.55-.358-4.045v-4.182h-17.016v67.047h18.031v-21.221c0-20.161.122-24.267.745-25.128.101-.14.391-.814.644-1.499.773-2.088 2.546-3.886 4.441-4.503.495-.162.982-.42 1.082-.574.254-.394 6.87-.332 7.003.064.053.16.344.29.646.291 1.82.005 4.033 1.568 4.759 3.362.184.455.429.893.546.974.52.358.689 6.889.697 26.837l.009 21.397h18.032v-20.556c0-13.431.088-20.611.254-20.714.139-.086.254-.499.254-.917 0-1.18.785-4.349 1.174-4.738.192-.192.349-.492.349-.667 0-.174.34-.766.755-1.315.415-.549.758-1.094.762-1.213.011-.343 1.371-1.523 2.382-2.068.51-.274.927-.569.927-.655 0-.24 1.744-.707 3.337-.893 1.497-.176 5.298.478 5.298.911 0 .121.226.292.503.379.583.185 2.544 2.005 2.544 2.36 0 .132.235.538.521.902.287.365.703 1.209.925 1.876.222.667.496 1.331.608 1.476.622.803.736 4.621.738 24.689l.002 21.143h17.778l-.002-23.682c-.002-22.533-.132-27.451-.753-28.581-.131-.239-.427-1.121-.656-1.959-.23-.838-.504-1.581-.61-1.651-.106-.07-.44-.641-.743-1.27-1.279-2.658-2.592-4.288-5.664-7.027-.946-.844-5.793-3.288-6.937-3.498-.559-.103-1.177-.319-1.373-.481-.485-.402-11.985-.415-12.493-.014-.196.154-.9.413-1.565.575-1.94.474-4.691 2.092-6.51 3.831-1.026.981-2.567 2.947-2.567 3.275 0 .161-.094.292-.208.292-.115 0-.379.361-.588.802-.422.891-.31.955-1.858-1.056-.483-.629-1.047-1.334-1.252-1.568-.205-.234-.5-.663-.655-.953-.156-.29-.417-.527-.581-.527-.165 0-.589-.287-.944-.639-1.151-1.141-2.731-2.408-3.003-2.408-.146 0-.304-.114-.35-.253-.393-1.173-10.688-2.233-15.577-1.605m93.206-.01c-.559.057-1.244.203-1.524.326-.279.122-1.365.361-2.412.53-1.048.17-2.191.46-2.54.645-.349.185-1.235.524-1.968.753-.734.229-1.334.521-1.334.65 0 .128-.153.233-.342.233-.34 0-1.842.685-2.324 1.06-4.103 3.191-6.764 6.571-7.364 9.353-.106.489-.282.946-.391 1.017-.244.156-1.007 3.767-1.007 4.763 0 .397-.121.842-.268.989-.147.148-.233.942-.19 1.766l.077 1.497 8.415.067 8.415.067.315-1.668c.173-.917.443-1.806.6-1.975.158-.17.515-.757.795-1.306.279-.549.765-1.256 1.079-1.572.314-.316.571-.694.571-.84 0-.146.168-.265.372-.265.205 0 .486-.213.625-.472.139-.26.8-.623 1.469-.807.669-.184 1.299-.457 1.398-.607.25-.375 9.293-.375 9.543 0 .099.15.709.418 1.356.595 1.651.454 3.675 2.272 4.068 3.655.166.585.398 1.173.514 1.306.279.319.272 1.409-.01 1.409-.121 0-.284.476-.362 1.058-.262 1.954-1.968 3.448-4.75 4.159-.908.232-1.88.521-2.159.642-.279.121-1.879.403-3.556.626-1.676.224-3.276.506-3.555.627-.28.121-2.194.422-4.254.668-2.061.247-3.746.54-3.746.652 0 .112-.234.203-.519.203-.794 0-4.416.785-4.56.988-.07.099-.611.321-1.201.493-.955.279-2.077.833-5.164 2.549-1.348.749-4.106 3.602-4.966 5.137-.263.47-.605.991-.758 1.157-.153.166-.428.854-.611 1.528-.182.675-.416 1.342-.519 1.481-1.159 1.575-1.161 15.366-.002 15.366.113 0 .275.352.361.783.431 2.154 3.904 6.278 6.524 7.747.476.267 1.001.611 1.167.764.166.153.854.431 1.529.616.675.186 1.285.422 1.355.525.195.284 4.202.993 5.614.993.683 0 1.242.114 1.242.254 0 .156 1.265.254 3.286.254 1.918 0 3.352-.106 3.444-.254.086-.14.636-.254 1.221-.253 1.235 0 5.576-.753 5.763-1.001.07-.092.841-.38 1.714-.64.873-.259 1.588-.553 1.588-.651 0-.099.543-.384 1.206-.634.664-.251 1.298-.609 1.409-.797.112-.188.357-.341.545-.341.188 0 .886-.515 1.552-1.143.665-.629 1.296-1.143 1.402-1.143.106 0 .244-.143.307-.318.063-.174.2.34.304 1.143.105.803.291 1.461.415 1.461s.225.39.225.868c0 1.783-.577 1.671 8.662 1.671h8.354v-22.994c0-21.611-.158-27.645-.732-28.051-.101-.071-.376-1.036-.612-2.145-.237-1.108-.527-2.08-.644-2.159-.118-.078-.352-.543-.519-1.032-.167-.489-.586-1.315-.931-1.836-.344-.52-.626-1.025-.626-1.121 0-.43-3.959-4.34-4.6-4.544-.263-.083-.479-.247-.479-.364 0-.116-.514-.423-1.142-.681-.628-.258-1.142-.552-1.143-.653 0-.101-.658-.374-1.461-.608-.803-.233-1.689-.572-1.968-.753-.28-.181-1.308-.461-2.286-.621-.978-.161-2.007-.424-2.286-.584-.496-.284-14.648-.501-17.016-.261m148.296 1.705c-.314.82.018 47.738.339 47.845.175.058.318.403.318.767 0 .83.767 3.951 1.013 4.122.1.07.328.584.506 1.143.177.559.457 1.187.621 1.397.163.209.518.809.787 1.333.269.524.57.952.669.952.098 0 .253.233.343.518.223.703 4.203 4.706 4.899 4.927.307.097.558.265.558.373 0 .108.456.414 1.013.681.557.267 1.015.565 1.016.663.002.098.66.38 1.463.628.804.248 1.521.533 1.594.633.073.1 1.158.37 2.412.599 1.254.229 2.479.522 2.721.65.612.324 8.575.304 8.575-.021 0-.139.233-.254.519-.254.906 0 4.426-.799 4.574-1.038.078-.126.736-.406 1.461-.622.726-.215 1.319-.473 1.319-.573 0-.1.348-.336.772-.524 1.076-.477 4.249-3.652 4.45-4.454.092-.364.268-.662.393-.662.32 0 .293 10.342-.028 10.54-.139.086-.255.636-.257 1.221-.013 4.585-4.075 9.966-8.378 11.097-.628.166-1.341.404-1.583.531-.553.288-3.818.304-4.144.02-.132-.116-1.041-.362-2.019-.546-2.951-.557-7.238-3.487-7.238-4.948 0-.195-.17-.525-.379-.734-.499-.499-1.136-3.249-1.141-4.927l-.003-1.333h-17.298l.178 2.857c.097 1.571.251 2.914.341 2.984.091.07.3 1.082.466 2.248.165 1.166.468 2.455.672 2.864.204.409.552 1.369.774 2.133.223.765.497 1.39.611 1.39.113 0 .356.456.54 1.012.184.557.545 1.203.803 1.436.257.234.468.577.468.764 0 .187.229.482.508.657.279.174.508.444.508.6 0 .389 3.913 4.108 4.698 4.466.35.159.635.368.635.464 0 .096.486.389 1.08.651.593.262 1.136.552 1.206.646.07.093.742.351 1.493.574.751.223 1.496.512 1.655.644.158.132 1.315.446 2.57.699 1.255.253 2.364.575 2.463.717.249.354 14.883.352 15.13-.003.099-.142 1.152-.459 2.34-.703 1.187-.244 2.197-.556 2.243-.693.047-.136.254-.248.46-.248.589 0 2.884-.8 2.884-1.005 0-.101.469-.339 1.043-.528s1.096-.483 1.161-.653c.065-.169.367-.373.672-.452.304-.079.953-.489 1.442-.911.488-.422.968-.768 1.066-.768.291-.001 4.267-3.986 4.267-4.276 0-.147.2-.417.446-.599.245-.183.671-.761.946-1.285.276-.523.574-.952.663-.952.089 0 .369-.543.622-1.206.254-.664.598-1.343.764-1.51.167-.167.458-.824.646-1.46.188-.637.418-1.157.513-1.157.094 0 .378-1.115.63-2.477.253-1.361.579-2.557.726-2.657.183-.125.289-11.777.338-37.397l.073-37.215h-18.05v20.81c0 13.6-.088 20.865-.254 20.967-.139.087-.254.515-.254.951 0 .968-.755 3.748-1.018 3.748-.104 0-.329.336-.499.746-.17.411-.971 1.354-1.78 2.096-2.021 1.851-2.115 1.919-3.354 2.4-.602.234-1.209.509-1.349.61-1.219.887-7.468.868-9.435-.028-.592-.27-1.174-.491-1.293-.491-.416 0-2.889-2.368-3.289-3.149-.221-.433-.486-.844-.587-.914-.303-.209-1.015-3.381-1.015-4.524 0-.585-.114-1.064-.254-1.064-.167 0-.254-7.195-.254-21.079v-21.079h-8.896c-7.261 0-8.922.063-9.03.345m-129.935 39.528c-.063 2.165-.24 4.165-.394 4.444-.154.279-.471 1.137-.704 1.905-.234.768-.5 1.454-.592 1.524-.092.07-.464.584-.827 1.143-.363.558-1.162 1.518-1.776 2.131-.613.614-1.573 1.413-2.131 1.776-.559.362-1.073.728-1.143.812-.07.084-.699.365-1.397.624-.698.26-1.327.549-1.397.643-.5.674-7.039 1.007-9.016.459-4.103-1.139-6.004-7.01-3.536-10.921.339-.536.616-1.029.616-1.095 0-.291 1.255-1.33 2.169-1.795.549-.279 1.137-.637 1.306-.794.17-.158.743-.368 1.274-.468.531-.099 1.422-.382 1.981-.627.559-.246 2.016-.597 3.238-.78 1.222-.183 2.222-.41 2.222-.505 0-.095 1.2-.378 2.667-.629 1.467-.252 2.667-.556 2.667-.676s.224-.219.499-.219c.783 0 2.865-.774 3.564-1.326.842-.663.854-.586.71 4.374" fill="#555" fill-rule="evenodd"/></svg>