<svg xmlns="http://www.w3.org/2000/svg" viewBox="0 0 127.225 60"><defs><style>.a{fill:#f39600;}.b{fill:none;}</style></defs><path d="M95.68 23.852a12.98 12.98 0 0 0-4.087.756c-.156.156-.156.156-.156.303v18.78a.326.326 0 0 0 .303.31h1.363a.326.326 0 0 0 .302-.3v-6.21a4.81 4.81 0 0 0 2.12.31 6.52 6.52 0 0 0 6.674-6.36q0-.3-.02-.6c0-4.39-2.42-6.97-6.51-6.97m-.16 12.11a5.343 5.343 0 0 1-2.12-.45v-9.39a10.222 10.222 0 0 1 2.12-.3c2.87 0 4.54 1.82 4.54 4.99s-1.67 5.15-4.54 5.15m17.72-3.48v-4.1a4.142 4.142 0 0 0-4.54-4.54 8.442 8.442 0 0 0-4.39 1.36.557.557 0 0 0-.16.46l.6 1.06.15.156h.3a5.605 5.605 0 0 1 3.48-1.06c1.66 0 2.57 1.06 2.57 2.876v.756h-2.239a6.26 6.26 0 0 0-3.18.607 3.866 3.866 0 0 0-2.27 3.78 4.14 4.14 0 0 0 4.038 4.24h.2a5.508 5.508 0 0 0 3.786-1.51l.156 1.06a.326.326 0 0 0 .303.3h1.363c.156 0 .156 0 .302-.16v-.3a17.538 17.538 0 0 1-.453-4.99m-1.97-1.363v3.03a5.207 5.207 0 0 1-3.48 1.814 2.146 2.146 0 0 1-2.272-2.27 1.926 1.926 0 0 1 1.06-1.82 5.303 5.303 0 0 1 2.42-.454zm14.378-6.979h-1.514a.53.53 0 0 0-.31.156l-3.33 10.138-4.39-10.138c0-.156-.16-.156-.3-.156h-1.67c-.16 0-.16 0-.31.156v.303l5.6 12.868c-.91 3.18-2.12 4.55-3.94 4.55a4.48 4.48 0 0 1-1.52-.3h-.3a.156.156 0 0 0-.16.16l-.31 1.21c0 .16 0 .3.16.3a4.49 4.49 0 0 0 2.12.31c1.96 0 4.08-.6 5.6-5.3l4.69-13.92v-.31h-.16"/><path class="a" d="M53.082 43.07a31.953 31.953 0 0 1-17.88 5.473 32.454 32.454 0 0 1-21.89-8.392c-.487-.36 0-.97.486-.6a43.547 43.547 0 0 0 21.892 5.83 43.44 43.44 0 0 0 16.667-3.4c.852-.36 1.58.49.73 1.09m2.063-2.313c-.608-.852-4.136-.365-5.594-.244-.487 0-.487-.365-.122-.608 2.798-1.946 7.298-1.338 7.784-.73s-.12 5.23-2.676 7.42c-.365.364-.73.12-.608-.244.486-1.46 1.825-4.743 1.216-5.594"/><path d="M49.556 26.285v-1.947a.522.522 0 0 1 .487-.486h8.506a.522.522 0 0 1 .48.486v1.582a3.537 3.537 0 0 1-.61 1.216l-4.37 6.204a9.825 9.825 0 0 1 4.86 1.09c.36.24.36.483.48.73v2.07c0 .24-.37.61-.61.484a10.17 10.17 0 0 0-9 0c-.25.122-.61-.122-.61-.487v-1.947a2.038 2.038 0 0 1 .36-1.337l5.11-7.297h-4.38q-.73 0-.73-.366m-30.76 11.8h-2.669a.522.522 0 0 1-.485-.485v-13.257a.522.522 0 0 1 .49-.486h2.43a.522.522 0 0 1 .49.486v1.703a3.355 3.355 0 0 1 3.407-2.43 3.22 3.22 0 0 1 3.284 2.44 3.587 3.587 0 0 1 3.53-2.43 3.857 3.857 0 0 1 3.04 1.46c.85 1.1.61 2.68.61 4.14v8.39a.522.522 0 0 1-.49.49h-2.56a.522.522 0 0 1-.486-.48v-7.06a15.507 15.507 0 0 0-.12-2.43 1.32 1.32 0 0 0-1.46-1.09 1.798 1.798 0 0 0-1.58 1.1 8.69 8.69 0 0 0-.246 2.55v7.06a.522.522 0 0 1-.487.49h-2.55a.522.522 0 0 1-.487-.48v-7.18c0-1.46.246-3.65-1.58-3.65s-1.824 2.07-1.824 3.65v7.05c.244.245 0 .488-.243.488m47.557-14.5c3.77 0 5.838 3.286 5.838 7.42 0 4.015-2.31 7.175-5.838 7.175-3.77 0-5.837-3.282-5.837-7.42 0-4.014 2.068-7.174 5.837-7.174m0 2.677c-1.946 0-2.068 2.555-2.068 4.258 0 1.584 0 5.11 1.947 5.11s2.06-2.8 2.06-4.5a11.616 11.616 0 0 0-.37-3.53 1.404 1.404 0 0 0-1.46-1.347l-.13.01m10.84 11.79h-2.55a.522.522 0 0 1-.49-.484v-13.264a.522.522 0 0 1 .485-.487h2.44c.25 0 .37.12.49.365v2.068a3.483 3.483 0 0 1 3.53-2.677 3.366 3.366 0 0 1 3.04 1.58 7.864 7.864 0 0 1 .73 4.134v8.266c0 .244-.24.366-.48.366h-2.554a.543.543 0 0 1-.488-.365v-7.17c0-1.46.12-3.53-1.582-3.53a1.528 1.528 0 0 0-1.46 1.09 5.926 5.926 0 0 0-.363 2.558v7.174c-.243.125-.486.368-.73.368m-29.8-2.423a3.717 3.717 0 0 1-.972-2.435v-4.014c0-1.703.126-3.163-1.09-4.38a5.836 5.836 0 0 0-3.9-1.337 5.468 5.468 0 0 0-5.84 4.01c-.122.25.12.49.365.49l2.555.25a.522.522 0 0 0 .482-.484 1.965 1.965 0 0 1 2.06-1.583 1.9 1.9 0 0 1 1.46.73 3.094 3.094 0 0 1 .364 1.826v.24a16.35 16.35 0 0 0-4.86.85 4.41 4.41 0 0 0-2.79 4.26 3.673 3.673 0 0 0 3.9 4.013 5.086 5.086 0 0 0 4.26-1.822 8.407 8.407 0 0 0 1.46 1.706.543.543 0 0 0 .61 0c.61-.364 1.46-1.216 1.95-1.58.25-.243.12-.486 0-.73zm-4.99-1.218a2.13 2.13 0 0 1-1.825 1.215 1.606 1.606 0 0 1-1.584-1.824c0-2.183 1.95-2.554 3.9-2.554v.49a5.02 5.02 0 0 1-.49 2.68zm-28.7 1.217a3.717 3.717 0 0 1-.972-2.435v-4.014c0-1.703.126-3.163-1.09-4.38a5.836 5.836 0 0 0-3.9-1.337c-2.43 0-5.23.97-5.716 4.013-.13.25.12.49.36.49l2.43.25a.522.522 0 0 0 .48-.48 2.085 2.085 0 0 1 2.07-1.59 1.9 1.9 0 0 1 1.46.73 3.094 3.094 0 0 1 .36 1.83v.37a16.35 16.35 0 0 0-4.86.86 4.41 4.41 0 0 0-2.8 4.26 3.673 3.673 0 0 0 3.9 4.02 5.086 5.086 0 0 0 4.25-1.824 8.408 8.408 0 0 0 1.45 1.703c.12.126.36 0 .61-.12l1.95-1.582c.24-.243.12-.49 0-.73zm-5.117-1.226a1.96 1.96 0 0 1-1.705 1.21 1.607 1.607 0 0 1-1.582-1.827c0-2.184 1.947-2.555 3.77-2.555v.487a5.02 5.02 0 0 1-.485 2.675z"/><path class="b" d="M0 0h127.225v60h-127.225z"/></svg>