<svg xmlns="http://www.w3.org/2000/svg" viewBox="0 0 72 45" enable-background="new 0 0 72 45"><linearGradient id="a" gradientUnits="userSpaceOnUse" x1="36" y1="-2.474" x2="36" y2="45.613"><stop offset="0" stop-color="#9DD3F2"/><stop offset=".5" stop-color="#17A4DE"/><stop offset="1" stop-color="#2F78BB"/></linearGradient><path fill="url(#a)" d="M72 40.5c0 2.475-2.025 4.5-4.5 4.5h-63c-2.475 0-4.5-2.025-4.5-4.5v-36c0-2.475 2.025-4.5 4.5-4.5h63c2.475 0 4.5 2.025 4.5 4.5v36z"/><path fill="#336698" d="M67.5.15c2.399 0 4.35 1.951 4.35 4.35v36c0 2.399-1.951 4.35-4.35 4.35h-63c-2.399 0-4.35-1.951-4.35-4.35v-36c0-2.399 1.951-4.35 4.35-4.35h63m0-.15h-63c-2.475 0-4.5 2.025-4.5 4.5v36c0 2.475 2.025 4.5 4.5 4.5h63c2.475 0 4.5-2.025 4.5-4.5v-36c0-2.475-2.025-4.5-4.5-4.5z" opacity=".5"/><path fill="#2F78BB" d="M13.29 18.071l-1.041-2.571-1.035 2.571m25.006-1.024c-.209.129-.456.133-.752.133h-1.848v-1.433h1.873c.265 0 .542.012.721.116.197.094.319.294.319.57 0 .282-.116.509-.313.614m13.18 1.024l-1.052-2.571-1.046 2.571h2.098zm-24.568 2.783h-1.559l-.006-5.052-2.205 5.052h-1.335l-2.211-5.056v5.056h-3.093l-.584-1.439h-3.166l-.59 1.439h-1.653l2.723-6.45h2.259l2.587 6.107v-6.107h2.482l1.99 4.376 1.828-4.376h2.532v6.45h.001zm6.214 0h-5.08v-6.45h5.08v1.343h-3.559v1.162h3.474v1.322h-3.474v1.288h3.559v1.335zm7.163-4.713c0 1.028-.677 1.56-1.072 1.719.333.128.617.355.752.543.215.321.252.607.252 1.183v1.267h-1.534l-.006-.813c0-.388.037-.946-.24-1.257-.222-.227-.561-.276-1.108-.276h-1.633v2.346h-1.52v-6.45h3.498c.777 0 1.35.021 1.841.309.481.289.77.709.77 1.429m2.434 4.713h-1.552v-6.45h1.552v6.45zm18.002 0h-2.155l-2.883-4.841v4.841h-3.097l-.592-1.439h-3.159l-.574 1.439h-1.779c-.739 0-1.675-.166-2.205-.714-.534-.548-.812-1.289-.812-2.462 0-.956.166-1.831.82-2.522.492-.515 1.261-.752 2.31-.752h1.472v1.382h-1.442c-.555 0-.868.084-1.17.382-.259.272-.437.785-.437 1.461 0 .691.135 1.189.418 1.515.234.255.659.333 1.06.333h.683l2.144-5.073h2.279l2.575 6.101v-6.101h2.315l2.673 4.492v-4.492h1.558v6.45zm-50.232 1.267h2.598l.586-1.433h1.312l.584 1.433h5.112v-1.095l.457 1.1h2.654l.456-1.116v1.112h12.706l-.006-2.352h.246c.172.006.222.022.222.31v2.042h6.572v-.548c.53.288 1.354.548 2.439.548h2.764l.592-1.433h1.312l.578 1.433h5.328v-1.362l.807 1.361h4.268v-8.996h-4.225v1.062l-.591-1.062h-4.335v1.062l-.543-1.062h-5.856c-.98 0-1.842.139-2.538.525v-.525h-4.042v.525c-.443-.398-1.046-.525-1.718-.525h-14.763l-.991 2.323-1.017-2.323h-4.65v1.062l-.511-1.062h-3.966l-1.842 4.277-2.112 4.719h2.113z"/><path fill="#fff" d="M13.29 18.071l-1.041-2.571-1.035 2.571m25.006-1.024c-.209.129-.456.133-.752.133h-1.848v-1.433h1.873c.265 0 .542.012.721.116.197.094.319.294.319.57 0 .282-.116.509-.313.614m13.18 1.024l-1.052-2.571-1.046 2.571h2.098zm-24.568 2.783h-1.559l-.006-5.052-2.205 5.052h-1.335l-2.211-5.056v5.056h-3.093l-.584-1.439h-3.166l-.59 1.439h-1.653l2.723-6.45h2.259l2.587 6.107v-6.107h2.482l1.99 4.376 1.828-4.376h2.532v6.45h.001zm6.214 0h-5.08v-6.45h5.08v1.343h-3.559v1.162h3.474v1.322h-3.474v1.288h3.559v1.335zm7.163-4.713c0 1.028-.677 1.56-1.072 1.719.333.128.617.355.752.543.215.321.252.607.252 1.183v1.267h-1.534l-.006-.813c0-.388.037-.946-.24-1.257-.222-.227-.561-.276-1.108-.276h-1.633v2.346h-1.52v-6.45h3.498c.777 0 1.35.021 1.841.309.481.289.77.709.77 1.429m2.434 4.713h-1.552v-6.45h1.552v6.45zm18.002 0h-2.155l-2.883-4.841v4.841h-3.097l-.592-1.439h-3.159l-.574 1.439h-1.779c-.739 0-1.675-.166-2.205-.714-.534-.548-.812-1.289-.812-2.462 0-.956.166-1.831.82-2.522.492-.515 1.261-.752 2.31-.752h1.472v1.382h-1.442c-.555 0-.868.084-1.17.382-.259.272-.437.785-.437 1.461 0 .691.135 1.189.418 1.515.234.255.659.333 1.06.333h.683l2.144-5.073h2.279l2.575 6.101v-6.101h2.315l2.673 4.492v-4.492h1.558v6.45zm-50.232 1.267h2.598l.586-1.433h1.312l.584 1.433h5.112v-1.095l.457 1.1h2.654l.456-1.116v1.112h12.706l-.006-2.352h.246c.172.006.222.022.222.31v2.042h6.572v-.548c.53.288 1.354.548 2.439.548h2.764l.592-1.433h1.312l.578 1.433h5.328v-1.362l.807 1.361h4.268v-8.996h-4.225v1.062l-.591-1.062h-4.335v1.062l-.543-1.062h-5.856c-.98 0-1.842.139-2.538.525v-.525h-4.042v.525c-.443-.398-1.046-.525-1.718-.525h-14.763l-.991 2.323-1.017-2.323h-4.65v1.062l-.511-1.062h-3.966l-1.842 4.277-2.112 4.719h2.113z"/><path fill="#2F78BB" d="M63.411 28.202v-4.127h-3.811c-.85 0-1.467.206-1.904.526v-.526h-4.165c-.666 0-1.448.167-1.817.526v-.526h-7.438v.526c-.592-.432-1.591-.526-2.051-.526h-4.905v.526c-.468-.459-1.51-.526-2.145-.526h-5.491l-1.256 1.377-1.177-1.377h-8.201v8.996h8.047l1.294-1.398 1.22 1.398 4.96.004v-2.116h.488c.658.01 1.434-.017 2.119-.316v2.428h4.091v-2.345h.198c.252 0 .277.011.277.266v2.079h12.429c.789 0 1.614-.205 2.071-.576v.576h3.942c.82 0 1.622-.117 2.231-.415v-.009c.89-.574 1.483-1.58 1.483-2.729 0-.631-.18-1.219-.489-1.716zm-28.284 1.44h-1.898v2.162h-2.958l-1.873-2.134-1.947 2.134h-6.027v-6.447h6.119l1.872 2.113 1.935-2.113h4.862c1.207 0 2.564.339 2.564 2.124 0 1.791-1.319 2.161-2.649 2.161zm9.156-.293c.215.315.246.609.252 1.177v1.278h-1.527v-.806c0-.388.037-.962-.246-1.262-.222-.231-.561-.286-1.116-.286h-1.626v2.354h-1.529v-6.447h3.513c.77 0 1.331.035 1.83.305.48.293.782.696.782 1.431 0 1.029-.678 1.554-1.078 1.715.338.127.615.354.745.541zm6.255-2.658h-3.563v1.172h3.476v1.315h-3.476v1.282l3.563.006v1.338h-5.078v-6.447h5.078v1.334zm3.875 5.113h-2.963v-1.382h2.952c.289 0 .493-.039.621-.16.105-.099.18-.244.18-.42 0-.188-.081-.337-.186-.426-.116-.099-.277-.143-.542-.143-1.423-.049-3.205.045-3.205-1.995 0-.935.58-1.919 2.175-1.919h3.05v1.372h-2.791c-.277 0-.457.01-.61.116-.167.105-.228.259-.228.464 0 .243.141.409.333.48.16.057.333.073.592.073l.819.023c.826.021 1.393.165 1.737.519.296.31.455.702.455 1.366.001 1.385-.855 2.032-2.389 2.032zm7.83-.622c-.4.41-1.047.622-1.89.622h-2.938v-1.382h2.926c.29 0 .494-.039.616-.16.106-.099.18-.244.18-.42 0-.188-.074-.337-.186-.426-.11-.099-.271-.143-.536-.143-1.428-.049-3.211.045-3.211-1.995 0-.935.586-1.919 2.183-1.919h2.972v1.372h-2.715c-.277 0-.461.01-.616.116-.16.105-.222.26-.222.464 0 .243.135.409.333.48.16.057.333.073.586.073l.825.022c.832.021 1.388.166 1.726.519l.141.159-.052-.067c.264.353.422.792.422 1.269 0 .546-.207 1.042-.544 1.416zm-36.489-4.491l1.664 1.879-1.738 1.891h-3.741v-1.282h3.34v-1.315h-3.34v-1.172h3.815zm3.623 1.901l2.336-2.543v5.169l-2.336-2.626zm6.766-1.111c0 .558-.364.851-.948.851h-1.966v-1.642h1.984c.549.001.93.228.93.791zm6.791-.094c0 .276-.118.498-.315.619-.204.122-.455.133-.751.133h-1.848v-1.448h1.873c.271 0 .542.006.726.116.197.105.315.304.315.58z"/><path fill="#fff" d="M63.411 28.202v-4.127h-3.811c-.85 0-1.467.206-1.904.526v-.526h-4.165c-.666 0-1.448.167-1.817.526v-.526h-7.438v.526c-.592-.432-1.591-.526-2.051-.526h-4.905v.526c-.468-.459-1.51-.526-2.145-.526h-5.491l-1.256 1.377-1.177-1.377h-8.201v8.996h8.047l1.294-1.398 1.22 1.398 4.96.004v-2.116h.488c.658.01 1.434-.017 2.119-.316v2.428h4.091v-2.345h.198c.252 0 .277.011.277.266v2.079h12.429c.789 0 1.614-.205 2.071-.576v.576h3.942c.82 0 1.622-.117 2.231-.415v-.009c.89-.574 1.483-1.58 1.483-2.729 0-.631-.18-1.219-.489-1.716zm-28.284 1.44h-1.898v2.162h-2.958l-1.873-2.134-1.947 2.134h-6.027v-6.447h6.119l1.872 2.113 1.935-2.113h4.862c1.207 0 2.564.339 2.564 2.124 0 1.791-1.319 2.161-2.649 2.161zm9.156-.293c.215.315.246.609.252 1.177v1.278h-1.527v-.806c0-.388.037-.962-.246-1.262-.222-.231-.561-.286-1.116-.286h-1.626v2.354h-1.529v-6.447h3.513c.77 0 1.331.035 1.83.305.48.293.782.696.782 1.431 0 1.029-.678 1.554-1.078 1.715.338.127.615.354.745.541zm6.255-2.658h-3.563v1.172h3.476v1.315h-3.476v1.282l3.563.006v1.338h-5.078v-6.447h5.078v1.334zm3.875 5.113h-2.963v-1.382h2.952c.289 0 .493-.039.621-.16.105-.099.18-.244.18-.42 0-.188-.081-.337-.186-.426-.116-.099-.277-.143-.542-.143-1.423-.049-3.205.045-3.205-1.995 0-.935.58-1.919 2.175-1.919h3.05v1.372h-2.791c-.277 0-.457.01-.61.116-.167.105-.228.259-.228.464 0 .243.141.409.333.48.16.057.333.073.592.073l.819.023c.826.021 1.393.165 1.737.519.296.31.455.702.455 1.366.001 1.385-.855 2.032-2.389 2.032zm7.83-.622c-.4.41-1.047.622-1.89.622h-2.938v-1.382h2.926c.29 0 .494-.039.616-.16.106-.099.18-.244.18-.42 0-.188-.074-.337-.186-.426-.11-.099-.271-.143-.536-.143-1.428-.049-3.211.045-3.211-1.995 0-.935.586-1.919 2.183-1.919h2.972v1.372h-2.715c-.277 0-.461.01-.616.116-.16.105-.222.26-.222.464 0 .243.135.409.333.48.16.057.333.073.586.073l.825.022c.832.021 1.388.166 1.726.519l.141.159-.052-.067c.264.353.422.792.422 1.269 0 .546-.207 1.042-.544 1.416zm-36.489-4.491l1.664 1.879-1.738 1.891h-3.741v-1.282h3.34v-1.315h-3.34v-1.172h3.815zm3.623 1.901l2.336-2.543v5.169l-2.336-2.626zm6.766-1.111c0 .558-.364.851-.948.851h-1.966v-1.642h1.984c.549.001.93.228.93.791zm6.791-.094c0 .276-.118.498-.315.619-.204.122-.455.133-.751.133h-1.848v-1.448h1.873c.271 0 .542.006.726.116.197.105.315.304.315.58z"/></svg>