<svg xmlns="http://www.w3.org/2000/svg" viewBox="0 0 72 45" enable-background="new 0 0 72 45"><linearGradient id="a" gradientUnits="userSpaceOnUse" x1="36" y1=".15" x2="36" y2="44.534"><stop offset="0" stop-color="#fff"/><stop offset="1" stop-color="#F2DCC4"/></linearGradient><path fill="url(#a)" d="M72 40.5c0 2.475-2.025 4.5-4.5 4.5h-63c-2.475 0-4.5-2.025-4.5-4.5v-36c0-2.475 2.025-4.5 4.5-4.5h63c2.475 0 4.5 2.025 4.5 4.5v36z"/><path fill="#B2917B" d="M67.5.15c2.399 0 4.35 1.951 4.35 4.35v36c0 2.399-1.951 4.35-4.35 4.35h-63c-2.399 0-4.35-1.951-4.35-4.35v-36c0-2.399 1.951-4.35 4.35-4.35h63m0-.15h-63c-2.475 0-4.5 2.025-4.5 4.5v36c0 2.475 2.025 4.5 4.5 4.5h63c2.475 0 4.5-2.025 4.5-4.5v-36c0-2.475-2.025-4.5-4.5-4.5z"/><circle fill="#F7931A" cx="12.772" cy="22.5" r="6.128"/><path fill="#fff" d="M15.473 21.627c.122-.816-.499-1.254-1.348-1.547l.275-1.105-.672-.168-.268 1.076-.539-.127.27-1.083-.672-.168-.276 1.105-.43-.101.001-.003-.928-.232-.179.718s.499.114.489.122c.272.068.322.248.313.391l-.314 1.259.07.022-.071-.018-.44 1.763c-.033.083-.118.207-.308.16l-.489-.122-.334.77.875.218.479.124-.277 1.119.672.168.276-1.106.536.139-.275 1.101.673.168.278-1.116c1.147.217 2.009.129 2.372-.908.293-.835-.015-1.317-.618-1.631.44-.102.771-.391.859-.988zm-1.536 2.155c-.208.835-1.614.384-2.07.27l.369-1.481c.456.114 1.918.339 1.701 1.211zm.208-2.167c-.19.76-1.36.374-1.74.279l.335-1.343c.379.095 1.602.271 1.405 1.064z"/><path d="M24.606 20.08c.497 0 .927.089 1.287.264.363.177.662.415.902.714.237.301.413.652.527 1.055.113.404.17.838.17 1.303 0 .714-.131 1.389-.395 2.025-.264.637-.623 1.189-1.078 1.661-.456.471-.993.842-1.614 1.116-.619.274-1.293.412-2.016.412l-.49-.007c-.232-.005-.499-.029-.798-.069-.301-.042-.619-.104-.955-.187-.336-.082-.654-.196-.955-.341l2.684-11.279 2.404-.373-.961 4.002c.206-.093.413-.165.62-.217.208-.053.43-.079.668-.079zm-2.017 6.641c.362 0 .703-.089 1.024-.264.321-.175.599-.411.831-.706.232-.296.416-.629.55-1.001s.202-.76.202-1.164c0-.496-.083-.884-.248-1.163-.165-.279-.471-.419-.916-.419-.146 0-.333.028-.566.077-.233.053-.442.162-.629.327l-1.023 4.251.163.031.146.023.187.009.279-.001zm7.397 1.691h-2.296l1.939-8.16h2.312l-1.955 8.16zm1.117-9.155c-.321 0-.611-.095-.869-.287-.26-.19-.389-.483-.389-.877 0-.217.044-.42.131-.612.089-.192.205-.356.35-.497.145-.139.313-.25.504-.334.192-.082.396-.123.614-.123.32 0 .609.095.868.287.258.192.388.485.388.877 0 .218-.044.422-.132.613-.088.191-.204.356-.349.497-.144.139-.313.25-.504.333-.192.084-.395.123-.612.123zm2.85-1.038l2.405-.373-.591 2.405h2.576l-.465 1.892h-2.56l-.682 2.854c-.063.238-.098.46-.109.667-.011.208.015.386.077.536.062.15.173.266.334.348.16.083.389.125.69.125.248 0 .489-.024.722-.07.232-.046.467-.11.705-.194l.171 1.769c-.31.114-.646.212-1.008.294-.363.083-.792.124-1.288.124-.713 0-1.267-.106-1.661-.317-.393-.212-.672-.503-.838-.87-.164-.366-.238-.788-.217-1.264.021-.477.093-.977.217-1.505l1.522-6.421zm4.289 6.935c0-.703.114-1.366.341-1.986.227-.621.554-1.164.978-1.63.423-.464.938-.831 1.544-1.101.604-.268 1.279-.404 2.024-.404.466 0 .882.044 1.249.132.368.089.701.204 1.001.349l-.792 1.801c-.207-.084-.422-.158-.644-.225-.222-.068-.493-.101-.814-.101-.766 0-1.372.264-1.823.791-.449.527-.676 1.236-.676 2.126 0 .527.114.954.342 1.28.227.326.647.488 1.256.488.301 0 .591-.031.869-.093.28-.062.527-.14.745-.233l.171 1.846c-.29.113-.611.214-.962.303-.352.086-.771.131-1.257.131-.641 0-1.185-.094-1.629-.279-.444-.188-.812-.437-1.101-.753-.291-.316-.5-.686-.629-1.11-.128-.422-.193-.867-.193-1.332zm10.2 3.475c-.548 0-1.024-.083-1.428-.249-.403-.165-.736-.397-1-.698-.264-.299-.462-.654-.597-1.062-.135-.408-.201-.861-.201-1.356 0-.622.1-1.243.302-1.863.201-.621.499-1.179.893-1.675.391-.497.874-.903 1.442-1.219.568-.315 1.221-.473 1.954-.473.538 0 1.012.084 1.421.249.407.165.743.399 1.008.698.262.301.462.654.596 1.063.135.408.202.861.202 1.357 0 .62-.098 1.241-.294 1.863-.196.619-.486 1.178-.869 1.675-.382.496-.861.902-1.435 1.217-.573.315-1.239.473-1.994.473zm1.148-6.64c-.34 0-.641.099-.899.294-.259.197-.476.446-.651.745-.177.301-.308.629-.397.985-.088.357-.131.695-.131 1.016 0 .518.083.921.248 1.211.166.289.465.434.9.434.342 0 .641-.098.9-.295.257-.196.474-.444.651-.744.176-.299.308-.628.397-.985.087-.356.131-.696.131-1.016 0-.517-.083-.921-.249-1.21-.165-.29-.466-.435-.9-.435zm5.947 6.423h-2.298l1.939-8.16h2.313l-1.954 8.16zm1.115-9.155c-.32 0-.611-.095-.868-.287-.259-.19-.389-.483-.389-.877 0-.217.045-.42.132-.612.088-.192.204-.356.349-.497.144-.139.314-.25.504-.334.191-.082.395-.123.612-.123.321 0 .611.095.869.287.258.192.389.485.389.877 0 .218-.046.422-.133.613-.087.191-.203.356-.348.497-.146.139-.313.25-.504.333-.191.084-.394.123-.613.123zm2.493 1.366l.581-.179c.213-.067.45-.129.715-.185.262-.058.558-.104.884-.141.326-.037.696-.055 1.108-.055 1.211 0 2.046.353 2.507 1.056.461.703.54 1.666.241 2.886l-1.056 4.406h-2.312l1.024-4.313c.062-.269.111-.53.148-.784.037-.252.034-.474-.008-.667-.041-.19-.137-.346-.286-.466-.152-.119-.381-.178-.691-.178-.299 0-.604.032-.915.094l-1.505 6.314h-2.312l1.877-7.788z" fill="#4D4D4D"/></svg>