<svg xmlns="http://www.w3.org/2000/svg" viewBox="0 0 72 45" enable-background="new 0 0 72 45"><linearGradient id="a" gradientUnits="userSpaceOnUse" x1="36" x2="36" y2="45"><stop offset="0" stop-color="#fff"/><stop offset="1" stop-color="#F2DCC4"/></linearGradient><path fill="url(#a)" d="M72 40.5c0 2.475-2.025 4.5-4.5 4.5h-63c-2.475 0-4.5-2.025-4.5-4.5v-36c0-2.475 2.025-4.5 4.5-4.5h63c2.475 0 4.5 2.025 4.5 4.5v36z"/><path fill="#B2917B" d="M67.5.15c2.399 0 4.35 1.951 4.35 4.35v36c0 2.399-1.951 4.35-4.35 4.35h-63c-2.399 0-4.35-1.951-4.35-4.35v-36c0-2.399 1.951-4.35 4.35-4.35h63m0-.15h-63c-2.475 0-4.5 2.025-4.5 4.5v36c0 2.475 2.025 4.5 4.5 4.5h63c2.475 0 4.5-2.025 4.5-4.5v-36c0-2.475-2.025-4.5-4.5-4.5z"/><circle fill="#ED1C24" cx="26.964" cy="22.5" r="13.461"/><path fill="#FAA61A" d="M45.037 9.039c-3.479 0-6.648 1.32-9.037 3.484-.486.441-.94.918-1.358 1.425h2.719c.371.452.714.928 1.026 1.426h-4.772c-.285.458-.545.933-.776 1.426h6.323c.216.461.406.937.57 1.425h-7.463c-.156.464-.286.94-.391 1.425h8.245c.197.919.302 1.872.302 2.851 0 1.494-.243 2.933-.693 4.276h-7.463c.164.488.354.964.57 1.426h6.324c-.231.492-.489.967-.777 1.426h-4.771c.311.496.654.973 1.027 1.424h2.719c-.418.508-.872.984-1.36 1.426 2.389 2.165 5.558 3.483 9.037 3.483 7.434 0 13.461-6.026 13.461-13.461-.001-7.435-6.028-13.462-13.462-13.462z"/><path d="M23.82 23.974l-.326-.023c-.828 0-1.247.284-1.247.846 0 .346.204.565.524.565.595 0 1.024-.567 1.049-1.388zm1.064 2.474h-1.211l.028-.575c-.369.455-.862.671-1.532.671-.792 0-1.335-.618-1.335-1.517 0-1.352.944-2.141 2.566-2.141.166 0 .378.015.596.043.045-.183.057-.261.057-.36 0-.367-.254-.505-.937-.505-.715-.007-1.305.171-1.547.25l.203-1.249c.728-.214 1.208-.294 1.749-.294 1.255 0 1.92.563 1.919 1.628.002.286-.045.637-.118 1.1-.129.805-.402 2.53-.438 2.949zm-4.662 0h-1.462l.838-5.248-1.87 5.248h-.995l-.124-5.219-.879 5.219h-1.368l1.142-6.828h2.102l.127 3.822 1.282-3.822h2.337zm26.62-2.474l-.325-.023c-.829 0-1.247.284-1.247.846 0 .346.204.565.524.565.594 0 1.023-.567 1.048-1.388zm1.064 2.474h-1.211l.027-.575c-.369.455-.862.671-1.531.671-.793 0-1.335-.618-1.335-1.517 0-1.352.945-2.141 2.566-2.141.166 0 .378.015.595.043.045-.183.057-.261.057-.36 0-.367-.254-.505-.937-.505-.715-.007-1.305.171-1.548.25l.204-1.249c.728-.214 1.208-.294 1.748-.294 1.256 0 1.92.563 1.919 1.628.003.286-.044.637-.118 1.1-.127.805-.4 2.53-.436 2.949zm-16.528-.084c-.4.126-.712.18-1.05.18-.747 0-1.155-.429-1.155-1.22-.01-.246.107-.891.2-1.48.085-.519.634-3.789.634-3.789h1.452l-.169.84h.877l-.197 1.335h-.881c-.169 1.056-.409 2.371-.412 2.546 0 .286.153.411.5.411.167 0 .295-.017.394-.052l-.193 1.229zm4.454-.045c-.499.152-.98.227-1.49.225-1.626-.002-2.474-.851-2.474-2.477 0-1.898 1.078-3.296 2.542-3.296 1.197 0 1.963.783 1.963 2.009 0 .408-.052.805-.179 1.366h-2.893c-.098.806.418 1.141 1.263 1.141.519 0 .989-.107 1.51-.349l-.242 1.381zm-.817-3.292c.009-.116.154-.991-.676-.991-.462 0-.793.353-.928.991h1.604zm-9.255-.376c0 .702.34 1.186 1.113 1.55.592.278.684.361.684.613 0 .346-.261.503-.839.503-.436 0-.842-.069-1.31-.22l-.201 1.283c.332.072.628.139 1.521.164 1.542 0 2.254-.587 2.254-1.856 0-.763-.298-1.211-1.03-1.548-.612-.281-.683-.344-.683-.603 0-.3.243-.453.715-.453.287 0 .679.031 1.05.083l.208-1.288c-.378-.06-.952-.108-1.286-.108-1.635 0-2.201.854-2.196 1.88zm17.18-1.733c.406 0 .785.106 1.306.369l.239-1.482c-.215-.084-.968-.578-1.606-.578-.978 0-1.805.486-2.386 1.286-.848-.281-1.197.287-1.625.853l-.38.088c.029-.186.055-.371.047-.558h-1.343c-.183 1.719-.508 3.46-.762 5.179l-.066.374h1.462c.244-1.586.377-2.601.459-3.288l.551-.305c.083-.307.339-.41.856-.397-.067.362-.104.743-.104 1.138 0 1.817.981 2.948 2.554 2.948.405 0 .753-.053 1.292-.2l.256-1.556c-.484.238-.881.35-1.241.35-.85 0-1.364-.627-1.364-1.664-.001-1.504.763-2.557 1.855-2.557zm12.372-1.298l-.325 1.973c-.399-.526-.828-.906-1.395-.906-.737 0-1.409.559-1.848 1.382-.612-.127-1.244-.343-1.244-.343v.005c.049-.46.069-.74.064-.836h-1.342c-.182 1.719-.508 3.46-.762 5.179l-.067.374h1.463c.197-1.281.348-2.347.46-3.191.5-.452.75-.845 1.254-.819-.224.541-.354 1.163-.354 1.802 0 1.388.702 2.304 1.765 2.304.536 0 .946-.185 1.347-.613l-.069.516h1.383l1.113-6.827h-1.443zm-1.827 5.546c-.497 0-.749-.369-.749-1.095 0-1.091.471-1.865 1.133-1.865.502 0 .774.382.774 1.087 0 1.101-.478 1.873-1.158 1.873z" fill="#003375"/><path d="M20.642 26.043h-1.461l.838-5.248-1.87 5.248h-.996l-.123-5.218-.88 5.218h-1.368l1.143-6.827h2.101l.059 4.226 1.418-4.226h2.27zm3.599-2.473l-.326-.023c-.828 0-1.248.284-1.248.845 0 .345.205.566.524.566.596 0 1.025-.567 1.05-1.388zm1.063 2.473h-1.211l.028-.575c-.369.454-.862.671-1.532.671-.792 0-1.335-.619-1.335-1.517 0-1.352.944-2.14 2.566-2.14.166 0 .378.015.596.043.045-.184.057-.262.057-.361 0-.367-.254-.504-.937-.504-.715-.009-1.305.17-1.547.249l.203-1.249c.728-.214 1.208-.294 1.749-.294 1.255 0 1.92.564 1.918 1.628.002.285-.045.638-.118 1.1-.127.804-.4 2.53-.437 2.949zm19.601-6.643l-.239 1.482c-.522-.262-.9-.369-1.305-.369-1.091 0-1.856 1.055-1.856 2.558 0 1.036.514 1.662 1.364 1.662.36 0 .757-.111 1.241-.35l-.257 1.556c-.538.147-.886.2-1.291.2-1.573 0-2.554-1.131-2.554-2.948 0-2.441 1.355-4.147 3.292-4.147.637.001 1.391.271 1.605.356zm2.358 4.17l-.325-.023c-.828 0-1.247.284-1.247.845 0 .345.204.566.524.566.594 0 1.023-.567 1.048-1.388zm1.063 2.473h-1.211l.027-.575c-.369.454-.862.671-1.531.671-.793 0-1.335-.619-1.335-1.517 0-1.352.944-2.14 2.565-2.14.166 0 .378.015.595.043.045-.184.057-.262.057-.361 0-.367-.254-.504-.937-.504-.715-.009-1.304.17-1.547.249l.203-1.249c.728-.214 1.208-.294 1.749-.294 1.255 0 1.92.564 1.918 1.628.003.285-.044.638-.118 1.1-.125.804-.397 2.53-.435 2.949zm-16.527-.084c-.4.126-.712.181-1.05.181-.747 0-1.155-.43-1.155-1.219-.01-.246.108-.891.201-1.48.084-.519.634-3.789.634-3.789h1.453l-.17.84h.746l-.198 1.334h-.75c-.169 1.057-.409 2.372-.412 2.546 0 .287.153.411.501.411.166 0 .295-.016.394-.052l-.194 1.228zm4.454-.044c-.499.153-.981.225-1.491.225-1.626-.001-2.474-.851-2.474-2.477 0-1.899 1.078-3.296 2.542-3.296 1.199 0 1.963.782 1.963 2.01 0 .407-.053.804-.179 1.365h-2.893c-.098.806.418 1.142 1.262 1.142.52 0 .989-.108 1.511-.35l-.241 1.381zm-.816-3.293c.008-.116.154-.991-.676-.991-.462 0-.793.353-.928.991h1.604zm-9.257-.376c0 .703.341 1.186 1.113 1.551.592.278.683.361.683.613 0 .346-.261.502-.839.502-.436 0-.842-.068-1.31-.219l-.2 1.281c.332.073.628.139 1.52.165 1.542 0 2.254-.587 2.254-1.856 0-.763-.298-1.211-1.03-1.547-.613-.282-.683-.344-.683-.604 0-.3.243-.455.715-.455.286 0 .679.032 1.05.084l.208-1.288c-.379-.06-.952-.109-1.286-.109-1.634.002-2.2.856-2.195 1.882zm29.881 3.797h-1.382l.069-.517c-.401.428-.812.613-1.347.613-1.062 0-1.765-.915-1.765-2.304 0-1.847 1.089-3.404 2.378-3.404.567 0 .996.231 1.396.757l.324-1.973h1.441l-1.114 6.828zm-2.156-1.283c.681 0 1.159-.771 1.159-1.871 0-.706-.272-1.089-.774-1.089-.663 0-1.133.774-1.133 1.866-.001.727.251 1.094.748 1.094zm-4.262-4.269c-.183 1.719-.508 3.459-.762 5.179l-.066.374h1.462c.523-3.396.649-4.058 1.469-3.976.13-.695.374-1.304.555-1.61-.612-.128-.954.218-1.402.876.036-.284.1-.56.088-.842h-1.344zm-12.03 0c-.184 1.719-.509 3.459-.763 5.179l-.066.374h1.462c.523-3.396.649-4.058 1.468-3.976.131-.695.375-1.304.556-1.61-.612-.128-.954.218-1.401.876.035-.284.1-.56.087-.842h-1.343z" fill="#fff"/></svg>