
<svg viewBox="4.3 3.3 888.5 608.6" xmlns="http://www.w3.org/2000/svg"><path d="m215.7 5.4c-.8.8-1.9 2.9-2.6 4.8-.7 1.8-1.9 5-2.7 7-3.6 9.7-4.5 12.1-6 16-.9 2.4-2.2 5.9-2.9 7.8s-2.1 5.5-3 8-2.3 6.2-3.1 8.2c-.8 2.1-2 5.5-2.8 7.5-.8 2.1-2.1 5.7-3 8-2 5.5-4.2 11.3-6 16-.8 2.1-2.2 5.8-3.1 8.3s-2.3 6.2-3.1 8.2c-.8 2.1-2 5.5-2.8 7.5-.8 2.1-2.1 5.7-3 8-.9 2.4-2.2 6-3 8-.8 2.1-2.2 5.8-3.1 8.3s-2.3 6.1-3 8-2.1 5.5-3 8-2.3 6.2-3.1 8.2c-1.8 4.8-4 10.6-6 16-.9 2.4-2.2 5.9-2.9 7.8s-1.9 5.3-2.8 7.5c-.8 2.2-2.3 6-3.2 8.5-2.2 5.7-4.4 11.5-6 16-.7 1.9-2 5.4-2.9 7.7-.9 2.4-2.3 6.2-3.2 8.5-.9 2.4-2 5.1-2.5 6-.5 1-.9 2.7-.9 3.8 0 2 .6 2 27.8 2h27.9l1.2-2.8c.7-1.5 3.1-7.4 5.3-13.2s4.9-12.8 6-15.5c1.1-2.8 2.4-6.4 2.8-8 1-3.5 2.2-6.7 9-24 2.8-7.2 5.5-14.4 6-16 1.4-4.7 4.1-11.9 4.9-13 .5-.5 1.1-2.3 1.5-3.9.5-2.1 1-2.6 1.8-1.8 1.1 1.1.6 8.7-3.8 67.7-.9 11.5-1.4 23-1.2 25.5l.3 4.5 28.5.3c15.7.1 29.5 0 30.7-.3s2.5-1.5 2.8-2.8c.8-2.7 6.2-17.1 8-21.2.7-1.7 1.5-3.9 1.8-5s1.4-4.3 2.5-7c1-2.8 4.3-11.3 7.1-19 2.9-7.7 5.9-15.3 6.7-16.8.8-1.6 1.4-3.5 1.4-4.2 0-.8.7-3.1 1.6-5.2 2.5-5.6 6.3-15.2 8.9-22.3.7-1.9 2.1-5.5 3-8s2.3-6.1 3-8 2-5.4 2.9-7.8c.9-2.3 2.3-6 3.1-8.2s2.2-5.8 3-8 2.2-5.8 3-8 2.2-5.8 3-8 2.2-5.8 3-8 2.2-5.8 3-8 2.2-5.9 3.1-8.3c.9-2.3 2.2-5.8 2.9-7.7 1.4-3.8 3.4-9.2 5.9-15.8.9-2.3 2.3-6 3.1-8.2 3.1-8.4 4.8-12.6 6.2-16.1.8-2 1.3-4.7 1.1-6l-.3-2.4-24.5-.3c-13.5-.2-25.9 0-27.6.3-3.3.6-3.2.2-11.9 23.5-.8 2.2-2.2 5.8-3 8s-2.1 5.7-2.9 7.7c-.8 2.1-2.1 5.7-3 8-.9 2.4-2.3 6.2-3.2 8.5-3.1 8.2-4.3 11.3-7.4 19.8-5.7 15.2-6.2 16.5-7.5 19.5-.7 1.6-1.6 3.9-1.9 4.9-.4 1.2-1 1.6-1.6 1s-.4-6.2.5-15.4c.8-8 1.5-18.1 1.5-22.5s.7-15 1.4-23.5c1.7-18.6 2.3-37 1.3-38.8-1.2-1.9-57-1.7-59 .2zm157.9.5c-.9 1-2.1 3.1-2.6 4.7-.4 1.6-1.8 5.4-3 8.4s-2.5 6.6-3 8-1.8 5-3 8-2.5 6.6-3 8-1.8 5-3 8-2.5 6.6-3 8-1.8 5-3 8-2.5 6.6-3 8-1.8 5-3 8-2.5 6.6-3 8-1.8 5-3 8-2.5 6.6-3 8-1.8 5-3 8-2.5 6.6-3 8-1.8 5-3 8-2.5 6.6-3 8-1.8 5-3 8c-3 7.8-5 13.1-6 16-.5 1.4-1.8 5-3 8s-2.5 6.6-3 8-1.8 5-3 8-2.5 6.6-3 8-1.8 5-3 8-2.5 6.6-3 8-1.8 5-3 8-2.5 6.6-3 8-1.8 5-3 8c-4.1 10.4-6.5 9.5 25.2 9.8l27.7.2 1.7-3.2c.9-1.7 2-4.3 2.4-5.7.5-1.4 1.8-5.1 3-8.1s2.5-6.6 3-8 1.8-5 3-8 2.5-6.6 3-8 1.8-5 3-8 2.5-6.6 3-8 1.8-5 3-8 2.5-6.6 3-8 1.8-5 3-8 2.5-6.6 3-8 1.8-5 3-8 2.5-6.6 3-8 1.8-5 3-8 2.5-6.6 3-8 1.8-5 3-8 2.5-6.6 3-8 1.8-5 3-8 2.5-6.6 3-8 1.8-5 3-8 2.5-6.6 3-8 1.8-5 3-8 2.5-6.6 3-8 1.8-5 3-8 2.5-6.6 3-8 1.8-5 3-8 2.5-6.6 3-8 1.8-5 3-8c4.9-12.6 5.3-14.2 3.8-15.1-.7-.5-13-.9-27.4-.9-24.2 0-26.2.1-27.8 1.9z"/><path d="m439.5 6.6c-.9 1.5-2.1 3.8-2.5 5.3-.5 1.4-1.8 5.1-3 8.1s-2.5 6.6-3 8-1.8 5-3 8-2.6 6.8-3.1 8.5c-.5 1.6-1.3 3.9-1.8 5s-3 7.8-5.6 15c-2.6 7.1-5.1 13.9-5.6 15s-1.3 3.3-1.8 5c-.5 1.6-1.9 5.5-3.1 8.5s-2.5 6.6-3 8-1.8 5-3 8-2.5 6.6-3 8-1.8 5-3 8-2.5 6.6-3 8-1.8 5-3 8-2.5 6.6-3 8-1.8 5-3 8c-3 7.8-5 13.1-6 16-.5 1.4-1.8 5-3 8s-2.5 6.6-3 8-1.8 5-3 8c-1.1 3-3 8.2-4.1 11.5s-2.4 6.9-2.9 8-2.1 5.1-3.5 9c-1.4 3.8-2.9 7.9-3.4 9-5 11.5-7.3 10.5 24.8 10.5 27.8 0 28 0 29.5-2.2.9-1.2 1.6-3 1.6-3.9 0-1 .6-3 1.4-4.6.8-1.5 2.2-4.7 3-7.1.9-2.3 2.3-6 3.1-8.2s2.1-5.7 2.9-7.8c.8-2 2.1-5.6 3-8 .9-2.3 2.2-5.9 3-8 .8-2 3.5-9.1 6.1-15.7 2.5-6.6 5.2-13.6 6-15.5 5-12.9 5.9-14.9 6.6-13.8.3.7 1 17.7 1.4 37.8s1 41 1.4 46.5l.6 10 37 .5 37 .5-4.9 2.2c-2.7 1.3-5.6 2.3-6.5 2.3-1 0-3.7.6-6.2 1.4-2.4.7-7.3 2.2-10.9 3.1-7.5 2-15.6 4.2-22 6-2.5.7-7.4 2-11 2.9-3.6 1-9 2.4-12 3.2-9.9 2.7-16.4 4.5-21.8 5.9-6 1.7-13.8 3.8-21.5 5.9-2.8.8-8.1 2.2-11.7 3.1-3.6 1-8.5 2.3-11 3s-7.4 2-11 3-8.5 2.3-11 3-7.4 2-11 3c-3.6.9-9 2.3-12 3.2-3 .8-7.9 2.1-10.8 2.9-7.7 2.1-15.5 4.2-21.5 5.8-2.8.8-8.1 2.2-11.7 3.1-3.6 1-8.5 2.3-11 3s-7.4 2-11 3c-7.9 2.1-16 4.3-22 6-2.5.7-7.4 2-11 3-3.6.9-8.7 2.3-11.5 3-16.4 4.4-19.9 4.9-38.5 4.8-19 0-21.5-.3-37.5-5.3-3.3-1-8.8-3.4-12.3-5.2s-7.5-3.9-9-4.7-7-5.7-12.2-11c-7.3-7.4-10.3-11.3-13.2-17.1-6.7-13.9-8.9-22.7-9.5-38.5-.5-12.8 1.5-27.6 5.7-42 1.2-3.9 2.5-8.4 3-10 1.4-4.8 3.6-10.4 7.9-20.4 6.4-14.7 5.4-14.1-10.5 5.6-19.7 24.5-33.1 43-49.6 68.8-2.4 3.8-4.8 7.7-5.1 8.5-.4.8-1.6 2.8-2.7 4.5-2 3.2-3 4.9-7.9 14-11.3 20.7-19.2 38.8-23.6 54-3.9 13.3-4.4 15.3-5.9 23-2.3 11.8-2.1 34 .4 43 4.1 14.9 8.2 22.5 17.4 32.3 9.6 10.1 29.3 23.8 38.2 26.5 1.1.3 4.4 1.5 7.4 2.6 13.9 5.3 22.1 6.5 45 6.5 21.7 0 26.7-.6 44.5-5 10-2.5 25-6.9 29.5-8.6 1.3-.5 5.1-1.8 8.5-2.9 3.3-1.1 9.4-3.4 13.5-5.1 4.1-1.6 9.3-3.7 11.5-4.5 2.2-.9 5.4-2.1 7-2.9 1.7-.7 11.3-4.7 21.5-8.9 22.3-9.3 23.4-9.8 28.5-12 2.2-.9 5.5-2.3 7.3-3.1 1.7-.8 4.8-2.1 6.7-2.9 4.4-2 9.5-4.2 14-6 1.9-.8 5.1-2.2 7-3 5.3-2.2 10.1-4.2 14.3-6.1 2-.9 5.1-2.2 6.7-2.9 7.3-3 14.6-6.1 21-8.9 2.2-1 5.4-2.4 7-3.1 1.7-.7 4.7-2 6.7-2.9 4.2-1.9 9-3.9 14.3-6.1 8.2-3.5 12.1-5.2 23.8-10.4 3.7-1.7 7.1-3.1 7.6-3.1s2.4-.8 4.3-1.7c4.8-2.4 2.7-1.5 51.3-22.3 24.7-10.6 45.6-19.6 46.5-20 3-1.4 8.6-3.8 14-6 3-1.2 8-3.3 11-4.7 9-4.1 11.8-5.3 15.5-6.8 7.3-3.1 16.7-7.2 19.5-8.5.9-.4 18.6-8.1 39.5-17s38.6-16.6 39.5-17c1.7-.9 7.4-3.3 12.3-5.3 3.7-1.6 10.5-4.6 12.7-5.7.9-.4 20.2-8.7 43-18.5s42.1-18.1 43-18.5c1.4-.7 3.8-1.8 12-5.2 4.3-1.8 11-4.8 13.1-5.8.8-.4 12.3-5.4 25.5-11 13.1-5.6 24.3-10.6 24.9-11.1.5-.5 1.5-.9 2.2-.9s4.2-1.4 7.6-3c3.5-1.7 6.7-3 7.1-3 .3 0 3.7-1.4 7.4-3.1 3.7-1.8 8.1-3.8 9.7-4.5 12.8-5.6 15.3-7.2 14-9.4-.9-1.4-3.7-1.3-9.8.5-6.5 2-13.3 3.8-21.7 6-3.6 1-8.5 2.3-11 3s-7.4 2-11 3-8.5 2.3-11 3-7.4 2-11 3c-3.6.9-8.9 2.3-11.7 3.1-2.9.8-7.7 2-10.5 2.8-2.9.8-8.2 2.2-11.8 3.1-3.6 1-8.7 2.4-11.5 3.1-14.9 4.2-24.7 6.9-32.5 8.9-3.6 1-8.5 2.3-11 3s-7.4 2-11 3-8.5 2.3-11 3-7.4 2-11 3c-3.6.9-8.9 2.3-11.7 3.1-2.9.8-7.7 2-10.5 2.8-2.9.8-8.2 2.2-11.8 3.2-13.2 3.4-17.6 4.6-19.8 5.5-1.3.5-3.2.9-4.3.9-1.8 0-2-.4-1.4-3.3.4-1.7 1.3-4.3 2-5.7s1.5-3.6 1.6-5l.4-2.5-30.9-.3c-19.5-.1-31.4-.6-32.2-1.3s-1-1.8-.4-3.7c2.9-9.1 13.2-36.5 16.5-44 .8-1.8 1.5-4.1 1.5-5.2 0-1 1-2.6 2.2-3.4 1.9-1.4 6.3-1.6 27.9-1.6 28.6 0 27 .4 29.4-7.2.8-2.4 2.3-6.8 3.5-9.8 8.2-21.4 9.3-24.7 8.7-26.4-.6-1.4-3.5-1.6-25.7-1.6-20.1 0-25.2-.3-25.6-1.4-.5-1.3 8.6-27.3 14.2-40.4.8-1.8 1.4-3.9 1.4-4.8 0-2.8 5.2-3.4 32.1-3.4h26.9l1.6-3.8c.9-2 2-4.8 2.4-6.2.5-1.4 1.8-5 3-8s2.5-6.6 3-8 1.8-4.9 2.9-7.9 1.8-5.7 1.5-6-38.9-.7-85.9-.9c-80.3-.2-85.4-.1-87.3 1.5-2 1.8-34.4 40.5-41.2 49.3-1.9 2.5-4.5 5.6-5.7 7s-3.6 4-5.2 5.8c-3.4 3.9-5.1 2.7-2.8-2.1.8-1.8 2.2-5.1 3.1-7.5 5.8-15.5 6.3-16.9 12.1-31.7 2.5-6.6 5.3-13.5 6.1-15.3 1.8-4.2 1.8-5.8-.2-6.6-.9-.3-13.4-.6-27.9-.6h-26.3zm144.2 10.6c-.3 1.3-1.5 4.8-2.7 7.8s-2.5 6.6-3 8-1.8 5-3 8-2.5 6.6-3 8-1.8 5-3 8-2.5 6.6-3 8-1.8 5-3 8-2.5 6.6-3 8-1.8 5-3 8-2.5 6.6-3 8-1.8 5-3 8-2.5 6.6-3 8-1.8 5-3 8-2.5 6.6-3 8-1.8 5-3 8-2.5 6.6-3 8-1.8 5-3 8-2.5 6.6-3 8c-1 2.9-3 8.2-6 16-1.2 3-2.5 6.6-3 8s-1.8 5-3 8-2.5 6.6-3 8-1.8 5-3 8-2.6 6.9-3.1 8.7c-.8 2.6-3.5 5.1-4.5 4.1-.1-.2-.7-23-1.3-50.8s-1.4-53.9-1.7-58.1c-.7-8.7-.7-8.8 7.3-17.2 2.7-2.9 7.1-7.7 9.8-10.7 2.6-3 9.6-10.7 15.4-17s13.3-14.4 16.6-18 9.9-10.9 14.7-16.1c4.8-5.3 10.6-11.7 12.9-14.2 4.5-5.1 6.4-5.9 5.6-2.5z"/><path d="m719 5.7c-4.6 3.2-5.9 5.6-6 10.5 0 3.9.6 5.4 3.1 8.3 2.9 3.3 3.5 3.5 9 3.5 5.1 0 6.3-.4 9.1-2.9 3-2.7 3.3-3.5 3.3-8.6 0-5.3-.3-5.9-3.7-9.1-3.1-2.8-4.6-3.4-8.1-3.4-2.4 0-5.3.7-6.7 1.7zm14.8 9.9c.3 3.7-1 5.7-3.1 4.8-1.8-.7-2.4-4.4-.7-4.4.6 0 1-.9 1-2.1 0-3.2 2.5-1.7 2.8 1.7zm-14.5-.4c.7 2.3.1 3.8-1.4 3.8-.5 0-.9-1.4-.9-3 0-3.5 1.5-4 2.3-.8zm8.5 8c-.3.7-1.3 1.3-2.3 1.3s-2-.6-2.2-1.3c-.3-.7.5-1.2 2.2-1.2s2.5.5 2.3 1.2zm-577.8 265c-10.7 2.6-12.2 17.5-2.3 22.2 6.7 3.2 14.1.9 17.3-5.4 2.7-5.2 2.5-7-.9-11.7-3.4-4.6-8.4-6.5-14.1-5.1zm-1.2 12.4c-.2 2.2-.7 3.8-1.3 3.6-1.5-.4-2.3-4.5-1.3-7.1 1.3-3.6 3-1.2 2.6 3.5zm6-4.5c-.2.6-.8 1-1.3 1s-1.1-.4-1.3-1 .4-1.1 1.3-1.1 1.5.5 1.3 1.1zm7.2 3.9c0 .9-.6 2.4-1.3 3.4-1.1 1.5-1.5 1.6-2.5.4-.8-1.1-.9-2.4-.1-5.3 1-3.7 1.2-3.8 2.5-2 .8 1 1.4 2.6 1.4 3.5zm-7.4 6.6c-.5 1.3-1 1.4-1.8.6-.6-.6-.8-1.8-.4-2.8.5-1.3 1-1.4 1.8-.6.6.6.8 1.8.4 2.8zm360.4 168.3c-6.2.9-16.8 6.4-21.7 11.2-4.8 4.6-10.2 12.6-12.5 18.4-2.5 6.4-4.8 14.9-4.8 18.1 0 4.2-1.5 6.2-2.3 3.2-.4-1.2-.7-3.3-.7-4.4 0-3.3-2.9-12.3-5.8-18.4-5-10.3-15.4-19.4-26.7-23.3-4.4-1.5-8.4-1.7-30-1.5l-25 .3-.6 3c-.4 1.6-.7 29.9-.8 62.7l-.1 59.8 2.6.6c1.5.4 12.8.4 25.3.1 24.9-.6 28.4-1.3 38-7.6 12.7-8.2 19.3-20.1 23.6-42.4.7-3.5 2.5-2.6 2.5 1.3 0 5 3.6 18.2 6.8 25.1 5.5 11.8 14.1 19.5 26.7 24.1 7 2.6 23.2 2.5 30.8-.1 13.9-4.8 23.4-15.4 29.3-32.6 1.9-5.8 4.4-23.8 4.4-32-.1-13-3.5-31-7.4-39.5-9.6-20.7-27.2-29.6-51.6-26.1zm11.5 31.3c4.5 2 6.3 7.2 7.5 21.9.9 10.1.9 16.2 0 25.3-1.6 16-4 20.6-10.6 20.6-2.9 0-3.8-.6-5.7-3.7-5-8.6-7-29.8-4.2-46.4 2-12.5 4.4-16.9 10.2-18.8.1-.1 1.4.4 2.8 1.1zm-98.8 6.8c4.1 2.5 5.8 5.7 7.7 15.2 2.5 11.8 1.8 26-1.7 36.5-1.4 4.2-9 10.4-10.7 8.7-1-1-1.5-59.7-.5-61.4.9-1.4 1.6-1.3 5.2 1zm-190.7-36.2c-11.8 4.4-19 11.6-22.4 22.5-1.4 4.5-2.6-.2-2.6-10.4v-10.9h-36v42.5c0 36.5-.2 43-1.6 46.4-2.3 5.8-6.7 6.9-11.1 2.8-2.2-2-2.3-2.6-2.3-20.6 0-10.2-.3-30.4-.7-44.8l-.6-26.3h-73.7v45.9c0 43.7-.1 46-1.9 48.2-1.6 2-2.8 2.4-6.4 2.2-2.5-.1-5.7-.9-7.1-1.8-5-3.3-5.6-2-5.6 13.3 0 16.1-.1 16 9.9 19.2 21.8 6.9 43-5 47-26.5 1.1-5.7 1.8-6.5 2.6-2.9 1.4 6.2 4 12.1 7.6 16.9 4.8 6.4 8.8 9 18.9 12.6 7.7 2.7 26 2.7 34.9-.1 11.5-3.6 20.7-12.7 23.3-22.8 1.5-6.2 3.1-3.8 3.3 5 .1 4 .3 8 .3 8.9.2 1.9 7.8 6.2 15.8 8.9 7.7 2.7 21 2.7 29 .1 8.6-2.8 12.4-5 17.4-10 6-6 8.6-11.2 10.7-21.4 1.6-7.9 1.6-8.6-.1-15.7-2.9-12-6.5-16.4-28-35.3-5.3-4.8-6.6-6.4-6.6-8.8 0-4 4-7.9 7.9-7.9 3.8 0 13.1 3.4 16.4 6 3 2.4 4.6 2.5 6.1.4 1.1-1.5 6.6-1.9 20.1-1.4 1.3 0 1.5 6.1 1.7 46.2l.3 46.3h36l.3-45.5c.1-26.3.6-45.8 1.2-46.4.5-.5 4.5-.8 8.9-.7 7.1.2 8.1 0 9.1-1.8.6-1.3 1-7.4.8-16.3l-.3-14.3-38.1-.3c-33-.2-38.3 0-39.4 1.3-1.5 1.8-4.3 1.9-7.1.4-8.6-4.6-29.3-6.3-37.9-3.1zm-22 48.8c0 4.4 6.8 12.7 21.2 25.7 9.9 9 12.1 12.5 10.6 16.9-2.3 6.5-10.8 7.8-20.6 3-8.2-4.1-12.6-6.6-13.4-7.7-.9-1.2-1.1-38.9-.2-39.8 1-.9 2.4.2 2.4 1.9zm380.5-46.3c-.3.6-.4 28.9-.3 62.7l.3 61.5 18.3.3 18.2.2v-46.2c0-25.5.4-46.8.8-47.5.5-.8 1.3-.9 2.2-.3.8.6 5.7 1 10.7 1h9.3l.2 46.2.3 46.3 17.4.3c9.6.1 17.8-.1 18.3-.6s.9-21.3.8-46.6v-45.6h8.4c11.9 0 11.7.3 11.4-17.8l-.3-14.7-57.8-.2c-45-.2-57.9 0-58.2 1z"/><path d="m708.1 567.2c-4.5 1.3-8.8 4.5-11.4 8.8-1.7 2.7-2.1 5-2.1 10.7 0 6.4.3 7.7 3 11.5 4.2 6 9.5 8.8 16.7 8.8 7.3 0 12.7-2.6 16.7-8.2 2.7-3.7 3-4.8 3-12.2 0-8-.1-8.2-4-12.8-5.8-6.7-13.5-9.1-21.9-6.6z"/></svg>