<svg xmlns="http://www.w3.org/2000/svg" viewBox="0 0 612.001 612" enable-background="new 0 0 612.001 612"><path d="M424.055 1.842c-103.799 0-187.944 66.595-187.944 148.745 0 48.941 29.999 92.226 76.091 119.333-4.508 24.715-18.863 53.832-38.936 73.906 49.008-3.658 92.142-17.711 120.385-46.613 9.921 1.28 20.028 2.119 30.405 2.119 103.8 0 187.945-66.595 187.945-148.745-.001-82.149-84.147-148.745-187.946-148.745zm-88.102 178.112c-16.219 0-29.367-13.148-29.367-29.368 0-16.219 13.148-29.368 29.367-29.368s29.367 13.149 29.367 29.368c0 16.221-13.148 29.368-29.367 29.368zm88.102 0c-16.219 0-29.367-13.148-29.367-29.368 0-16.219 13.148-29.368 29.367-29.368 16.22 0 29.367 13.149 29.367 29.368 0 16.221-13.148 29.368-29.367 29.368zm88.102 0c-16.22 0-29.367-13.148-29.367-29.368 0-16.219 13.148-29.368 29.367-29.368 16.22 0 29.368 13.149 29.368 29.368 0 16.221-13.148 29.368-29.368 29.368zm-124.58 312.916c-59.589-47.889-76.252-24.348-103.29 2.686-18.875 18.883-66.644-20.549-107.889-61.797-41.248-41.252-80.671-89.012-61.797-107.891 27.039-27.035 50.573-43.708 2.67-103.279-47.887-59.595-79.809-13.842-106 12.351-30.237 30.227-1.593 142.87 109.735 254.218 111.344 111.33 223.987 139.955 254.207 109.74 26.187-26.196 71.954-58.114 12.364-106.028zm-313.197-237.972l-3.485 1.426c-2.841 1.088-6.238 2.32-10.019 3.965-1.764.85-3.742 1.77-5.546 2.904-1.871 1.117-3.73 2.384-5.406 3.951-1.831 1.482-3.254 3.376-4.901 5.361-1.224 2.189-2.804 4.426-3.657 7.114-1.239 2.544-1.683 5.475-2.423 8.358-.57 2.925-.669 5.965-1.032 8.935-.037 6.001.196 11.765.969 16.677.404 4.994 1.672 9.213 2.172 12.137l.962 4.609-2.478-4.008c-1.495-2.629-4.033-6.006-6.261-10.807-2.568-4.668-4.963-10.412-7.242-16.874-.811-3.334-1.911-6.792-2.52-10.499-.429-3.746-1.138-7.61-.853-11.679-.123-4.062.708-8.167 1.463-12.315 1.201-4.019 2.48-8.092 4.44-11.716 1.79-3.704 4.044-7.057 6.296-9.98 2.266-3.013 4.604-5.479 6.808-7.773 4.397-4.326 8.215-7.487 10.439-9.427 1.273-1.066 1.794-1.643 2.362-2.149l.77-.721 20.435 31.961-1.293.55zm306.687 303.622c-2.005 2.496-5.149 6.357-9.413 10.732-2.272 2.154-4.616 4.488-7.534 6.693-2.732 2.283-6.055 4.373-9.438 6.334-3.488 1.918-7.199 3.562-11.118 4.785-3.879 1.182-7.905 2.135-11.858 2.457l-5.88.42-5.704-.307c-3.753-.049-7.249-1.049-10.616-1.609-3.358-.623-6.403-1.871-9.319-2.707-2.916-.787-5.531-2.225-7.95-3.182-4.9-1.945-8.41-4.193-11.057-5.584l-4.084-2.252 4.607.707c2.913.391 7.166 1.311 12.091 1.41 2.48.051 5.024.484 7.843.223 2.782-.217 5.684-.076 8.588-.596 2.884-.578 5.877-.742 8.654-1.791l4.172-1.279 3.87-1.809c10.218-4.949 15.777-13.668 18.999-20.947 1.594-3.754 2.735-7.068 3.597-9.662l1.473-4.289 33.1 18.535-3.023 3.718z"/></svg>