<svg height="511pt" viewBox="1 -17 511.99895 511" width="511pt" xmlns="http://www.w3.org/2000/svg"><path d="M175.262 344.602h161.477v106.883h-161.477zm0 0" fill="#9a9999"/><path d="M305.156 344.602h31.582v106.883h-31.582zm0 0" fill="#696867"/><path d="M493.676 371.383h-475.352c-9.789 0-17.801-8.008-17.801-17.797v-334.762c0-9.789 8.012-17.797 17.801-17.797h475.352c9.789 0 17.797 8.008 17.797 17.797v334.762c0 9.789-8.008 17.797-17.797 17.797zm0 0" fill="#fff8f7"/><path d="M493.676 371.91h-475.352c-10.105 0-18.324-8.223-18.324-18.324v-334.762c0-10.105 8.219-18.324 18.324-18.324h475.352c10.105 0 18.324 8.219 18.324 18.324v334.762c0 10.102-8.219 18.324-18.324 18.324zm0 0" fill="#fff4f1"/><path d="M511.473 43.066v-24.414c0-9.695-7.711-17.625-17.137-17.625h-476.672c-9.426 0-17.137 7.93-17.137 17.625v24.414zm0 0" fill="#d0cfd1"/><path d="M493.676 1.027h-31.582c9.789 0 17.797 8.008 17.797 17.797v334.762c0 9.789-8.008 17.797-17.797 17.797h31.582c9.789 0 17.801-8.008 17.801-17.797v-334.762c-.004-9.789-8.012-17.797-17.801-17.797zm0 0" fill="#eeebe8"/><path d="M494.336 1.027h-31.582c9.426 0 17.137 7.93 17.137 17.625v24.414h31.586v-24.414c-.004-9.695-7.715-17.625-17.141-17.625zm0 0" fill="#b4b4b4"/><path d="M.527 318.023v35.41c0 10.16 7.355 18.477 16.348 18.477h478.25c8.992 0 16.352-8.316 16.352-18.477v-35.41zm0 0" fill="#d0cfd1"/><path d="M479.891 318.023v35.41c0 10.16-7.355 18.477-16.348 18.477h31.582c8.992 0 16.348-8.313 16.348-18.477v-35.41zm0 0" fill="#b4b4b4"/><path d="M367.613 476.945c12.613 0 20.824-13.398 14.965-24.57-9.422-17.965-28.223-30.289-49.762-30.289h-153.633c-21.539 0-40.34 12.324-49.762 30.289-5.859 11.172 2.348 24.57 14.961 24.57zm0 0" fill="#d0cfd1"/><path d="M382.578 452.375c-9.422-17.965-28.223-30.289-49.762-30.289h-31.582c21.535 0 40.336 12.324 49.762 30.289 5.859 11.172-2.352 24.57-14.965 24.57h31.582c12.613 0 20.824-13.398 14.965-24.57zm0 0" fill="#b4b4b4"/><path d="M199.117 126.805h-140.707c-10.855 0-19.656 8.801-19.656 19.656 0 10.855 8.801 19.656 19.656 19.656h11.441l20.695 22.168 20.699-22.168h87.875c10.855 0 19.656-8.801 19.656-19.656 0-10.855-8.801-19.656-19.66-19.656zm0 0" fill="#9ddbdf"/><path d="M199.117 126.805h-31.582c10.855 0 19.656 8.801 19.656 19.656 0 10.855-8.801 19.656-19.656 19.656h31.582c10.859 0 19.66-8.801 19.66-19.656 0-10.855-8.801-19.656-19.66-19.656zm0 0" fill="#7cd6e6"/><path d="M199.117 217.828h-140.707c-10.855 0-19.656 8.801-19.656 19.656s8.801 19.656 19.656 19.656h11.441l20.695 22.164 20.699-22.164h87.875c10.855 0 19.656-8.801 19.656-19.656s-8.801-19.656-19.66-19.656zm0 0" fill="#9ddbdf"/><path d="M199.117 217.828h-31.582c10.855 0 19.656 8.801 19.656 19.656s-8.801 19.656-19.656 19.656h31.582c10.859 0 19.66-8.801 19.66-19.656s-8.801-19.656-19.66-19.656zm0 0" fill="#7cd6e6"/><path d="M312.879 86.801h140.711c10.855 0 19.656 8.801 19.656 19.656s-8.801 19.656-19.656 19.656h-11.441l-20.699 22.164-20.695-22.164h-87.875c-10.855 0-19.656-8.801-19.656-19.656 0-10.859 8.801-19.656 19.656-19.656zm0 0" fill="#ffe056"/><path d="M453.59 86.801h-31.582c10.855 0 19.656 8.801 19.656 19.656s-8.801 19.656-19.656 19.656h-11.441l-4.906 5.254 15.793 16.91 20.695-22.164h11.441c10.855 0 19.656-8.801 19.656-19.656 0-10.859-8.801-19.656-19.656-19.656zm0 0" fill="#f9cd45"/><path d="M302.352 194.18h151.238c10.855 0 19.656 8.801 19.656 19.66 0 10.855-8.801 19.656-19.656 19.656h-11.441l-20.699 22.164-20.695-22.164h-98.402c-10.855 0-19.656-8.801-19.656-19.656 0-10.859 8.801-19.66 19.656-19.66zm0 0" fill="#ffe056"/><path d="M453.59 194.18h-31.582c10.855 0 19.656 8.801 19.656 19.66 0 10.855-8.801 19.656-19.656 19.656h-11.441l-4.906 5.254 15.793 16.91 20.695-22.164h11.441c10.855 0 19.656-8.801 19.656-19.656 0-10.859-8.801-19.66-19.656-19.66zm0 0" fill="#f9cd45"/><path d="M265.531 344.438c0 4.445-3.602 8.043-8.043 8.043-4.441 0-8.043-3.598-8.043-8.043 0-4.441 3.602-8.043 8.043-8.043 4.441 0 8.043 3.602 8.043 8.043zm0 0" fill="#9a9999"/><path d="M355.043 272.324c0-3.777 3.063-6.84 6.84-6.84 3.781 0 6.844 3.063 6.844 6.84 0 3.781-3.063 6.844-6.844 6.844-3.777 0-6.84-3.063-6.84-6.844zm-28.426 0c0-3.777 3.063-6.84 6.844-6.84 3.777 0 6.84 3.063 6.84 6.84 0 3.781-3.063 6.844-6.84 6.844-3.781 0-6.844-3.063-6.844-6.844zm-28.426 0c0-3.777 3.063-6.84 6.844-6.84 3.777 0 6.844 3.063 6.844 6.84 0 3.781-3.066 6.844-6.844 6.844-3.781 0-6.844-3.063-6.844-6.844zm0 0" fill="#e3ded9"/></svg>