<svg height="512pt" viewBox="0 -3 512 511" width="512pt" xmlns="http://www.w3.org/2000/svg"><path d="M226.805 104.223h-211.148c-8.609 0-15.656 7.043-15.656 15.656v32.543c0 8.609 7.047 15.656 15.656 15.656h77.324l13.59 23.535c4.066 7.047 14.234 7.047 18.305 0l13.586-23.535h88.344c8.613 0 15.656-7.047 15.656-15.656v-32.543c0-8.613-7.043-15.656-15.656-15.656zm0 0" fill="#fff4f1"/><path d="M237.242 104.223h-31.313c8.613 0 15.656 7.043 15.656 15.656v32.543c0 8.609-7.043 15.656-15.656 15.656h31.313c8.613 0 15.656-7.047 15.656-15.656v-32.543c0-8.613-7.043-15.656-15.656-15.656zm0 0" fill="#edeae6"/><path d="M402.871 369.078c0 75.18-60.945 136.121-136.125 136.121-75.176 0-136.121-60.941-136.121-136.121s60.945-136.121 136.121-136.121c75.18 0 136.125 60.941 136.125 136.121zm0 0" fill="#9ddbdf"/><path d="M266.746 232.957c-5.293 0-10.516.313-15.656.902 67.805 7.766 120.469 65.336 120.469 135.219s-52.664 127.453-120.469 135.219c5.141.59 10.363.902 15.656.902 75.18 0 136.125-60.945 136.125-136.121 0-75.18-60.945-136.121-136.125-136.121zm0 0" fill="#7cd6e6"/><path d="M315.211 369.078c0-75.18-21.699-136.121-48.465-136.121s-48.461 60.941-48.461 136.121 21.695 136.121 48.461 136.121 48.465-60.941 48.465-136.121zm0 0" fill="#fff4f1"/><path d="M266.746 232.957c-5.477 0-10.742 2.555-15.656 7.262 19.086 18.289 32.809 69.07 32.809 128.859s-13.723 110.574-32.809 128.859c4.914 4.707 10.18 7.262 15.656 7.262 26.77 0 48.465-60.945 48.465-136.121 0-75.18-21.695-136.121-48.465-136.121zm0 0" fill="#eae6e2"/><path d="M481.301 392h-173.559c-10.066 0-18.297 8.234-18.297 18.297v38.027c0 10.063 8.234 18.293 18.297 18.293h53.766l15.879 27.504c4.754 8.234 16.637 8.234 21.387 0l15.883-27.504h66.645c10.063 0 18.293-8.23 18.293-18.293v-38.027c0-10.063-8.234-18.297-18.293-18.297zm0 0" fill="#fff4f1"/><path d="M489.648 392h-31.313c10.063 0 18.297 8.234 18.297 18.297v38.027c0 10.063-8.234 18.293-18.297 18.293h31.313c10.063 0 18.297-8.23 18.297-18.293v-38.027c0-10.063-8.234-18.297-18.297-18.297zm0 0" fill="#edeae6"/><path d="M341.555.5h148.523c8.613 0 15.66 7.047 15.66 15.656v32.543c0 8.613-7.047 15.656-15.66 15.656h-35.574l-13.586 23.539c-4.07 7.043-14.238 7.043-18.305 0l-13.59-23.539h-67.469c-8.609 0-15.656-7.043-15.656-15.656v-32.543c0-8.609 7.047-15.656 15.656-15.656zm0 0" fill="#fff4f1"/><path d="M496.344.5h-31.313c8.609 0 15.656 7.047 15.656 15.656v32.543c0 8.613-7.047 15.656-15.656 15.656h31.313c8.609 0 15.656-7.043 15.656-15.656v-32.543c0-8.609-7.047-15.656-15.656-15.656zm0 0" fill="#edeae6"/><path d="M436.094 196.344c0 27.063-35.813 73.027-55.094 95.813-6.258 7.402-17.652 7.402-23.914 0-19.277-22.785-55.09-68.75-55.09-95.813 0-37.031 30.02-67.051 67.047-67.051 37.031 0 67.051 30.02 67.051 67.051zm0 0" fill="#f86654"/><path d="M369.043 129.293c-5.391 0-10.629.656-15.656 1.859 29.477 7.055 51.395 33.555 51.395 65.191 0 25.414-31.578 67.492-51.395 91.398 1.289 1.551 2.523 3.027 3.699 4.414 6.262 7.402 17.656 7.402 23.918 0 19.277-22.785 55.09-68.75 55.09-95.813 0-37.031-30.02-67.051-67.051-67.051zm0 0" fill="#ea543c"/><path d="M394.473 197.43c0 13.992-11.344 25.336-25.336 25.336-13.992 0-25.332-11.344-25.332-25.336 0-13.992 11.34-25.336 25.332-25.336s25.336 11.344 25.336 25.336zm0 0" fill="#fff4f1"/></svg>