<svg height="512pt" viewBox="0 -5 512 512" width="512pt" xmlns="http://www.w3.org/2000/svg"><path d="M146.34 424.707h80.93v15.406h-80.93zm0 0-85.746-362.629h15.402v168.34h-15.402zm0 0 36.152 183.149h111.871v15.402h-111.871zm0 0 171.531-143.579h-15.406v-16.465c0-12.742 10.367-23.105 23.109-23.105h88.246v15.402h-88.246c-4.25 0-7.703 3.457-7.703 7.703zm0 0-15.406 53.274h15.406v36.668h-15.406zm0 0-10.187 148.492h15.406v93.25h-15.406zm0 0 187.062 66.969h15.406v79.691h-15.406zm0 0 15.406-63.555h-15.406v-38.496c0-4.629-2.652-7.703-4.41-7.703h-118.164v-15.402h118.164c10.926 0 19.816 10.363 19.816 23.105zm0 0" fill="#e3ded9"/><path d="M97.109 251.547c0 17.109-3.598 30.98-20.711 30.98-17.109 0-30.98-13.871-30.98-30.98 0-17.113 13.871-30.98 30.98-30.98 17.113 0 20.711 13.871 20.711 30.98zm0 0" fill="#9ddbdf"/><path d="M76.234 220.609c-5.609.027-10.859 1.555-15.383 4.188 9.332 5.297 15.66 15.289 15.723 26.789s-6.156 21.563-15.434 26.957c4.555 2.586 9.82 4.055 15.43 4.023 17.109-.09 30.902-14.035 30.813-31.145-.094-17.109-14.039-30.906-31.148-30.813zm0 0" fill="#7cd6e6"/><path d="M299.984 154.922h-88.133c-8.473 0-15.402-6.934-15.402-15.406v-22.859c0-8.473 6.93-15.402 15.402-15.402h88.133c8.473 0 15.402 6.93 15.402 15.402v22.859c0 8.473-6.93 15.406-15.402 15.406zm0 0" fill="#5e8ee1"/><path d="M310.254 101.254h-30.809c8.469 0 15.402 6.93 15.402 15.402v22.859c0 8.473-6.934 15.406-15.402 15.406h30.809c8.473 0 15.402-6.934 15.402-15.406v-22.859c0-8.473-6.93-15.402-15.402-15.402zm0 0" fill="#467bff"/><path d="M131.691 501.313h-116.285c-8.473 0-15.406-6.934-15.406-15.406v-113.113c0-8.473 6.934-15.402 15.406-15.402h116.285c8.473 0 15.406 6.93 15.406 15.402v113.113c0 8.473-6.934 15.406-15.406 15.406zm0 0" fill="#ffe056"/><path d="M135.801 357.391h-30.809c8.469 0 15.402 6.93 15.402 15.402v113.113c0 8.473-6.934 15.406-15.402 15.406h30.809c8.473 0 15.402-6.934 15.402-15.406v-113.113c0-8.473-6.93-15.402-15.402-15.402zm0 0" fill="#f9cd45"/><path d="M305.367 250.242c0 32.707-16.246 59.223-48.953 59.223-32.711 0-59.223-26.516-59.223-59.223 0-32.711 26.512-59.223 59.223-59.223 32.707 0 48.953 26.516 48.953 59.223zm0 0" fill="#ffd5cc"/><path d="M256.414 191.02c-5.332 0-10.492.715-15.406 2.035 25.234 6.781 43.816 29.809 43.816 57.188 0 27.375-18.582 50.402-43.816 57.184 4.914 1.324 10.074 2.039 15.406 2.039 32.707 0 59.223-26.516 59.223-59.223 0-32.711-26.516-59.223-59.223-59.223zm0 0" fill="#fdb1aa"/><path d="M278.34 250.242c0 12.109-9.816 21.926-21.926 21.926-12.113 0-21.93-9.816-21.93-21.926 0-12.113 9.816-21.93 21.93-21.93 12.109 0 21.926 9.816 21.926 21.93zm0 0" fill="#fff4f1"/><path d="M458.438 469.387c0 17.109-3.598 30.98-20.711 30.98-17.109 0-30.98-13.871-30.98-30.98s13.871-30.98 30.98-30.98c17.113 0 20.711 13.871 20.711 30.98zm0 0" fill="#5e8ee1"/><path d="M437.73 438.406c-5.609 0-10.867 1.496-15.406 4.105 9.305 5.344 15.574 15.375 15.574 26.875s-6.27 21.531-15.574 26.875c4.539 2.605 9.797 4.105 15.406 4.105 17.109 0 30.98-13.871 30.98-30.98-.004-17.109-13.871-30.98-30.98-30.98zm0 0" fill="#2970d6"/><path d="M272.414 420.453c0 19.664-5.668 35.602-25.328 35.602s-35.598-15.938-35.598-35.602c0-19.66 15.938-35.598 35.598-35.598 19.66 0 25.328 15.938 25.328 35.598zm0 0" fill="#ffe89f"/><path d="M247.086 384.855c-6.445 0-12.484 1.723-17.699 4.719 10.691 6.145 17.895 17.668 17.895 30.883s-7.207 24.738-17.895 30.879c5.215 2.996 11.254 4.719 17.699 4.719 19.66 0 35.598-15.938 35.598-35.598.004-19.664-15.938-35.602-35.598-35.602zm0 0" fill="#f9e075"/><path d="M496.594 382.824h-137.613c-8.473 0-15.406-6.934-15.406-15.406v-45.188c0-8.473 6.934-15.402 15.406-15.402h137.613c8.473 0 15.406 6.93 15.406 15.402v45.188c0 8.473-6.934 15.406-15.406 15.406zm0 0" fill="#fc9086"/><path d="M496.594 306.828h-30.809c8.473 0 15.406 6.93 15.406 15.402v45.188c0 8.473-6.934 15.406-15.406 15.406h30.809c8.473 0 15.406-6.934 15.406-15.406v-45.188c0-8.473-6.934-15.402-15.406-15.402zm0 0" fill="#f57a73"/><path d="M153.371 75.996h-137.613c-8.473 0-15.406-6.934-15.406-15.402v-45.188c0-8.473 6.934-15.406 15.406-15.406h137.613c8.473 0 15.406 6.934 15.406 15.406v45.188c0 8.469-6.934 15.402-15.406 15.402zm0 0" fill="#f86654"/><path d="M158.508 0h-30.809c8.473 0 15.402 6.934 15.402 15.406v45.188c0 8.469-6.93 15.402-15.402 15.402h30.809c8.473 0 15.402-6.934 15.402-15.402v-45.188c0-8.473-6.93-15.406-15.402-15.406zm0 0" fill="#ea543c"/><path d="M487.027 144.949h-116.289c-8.473 0-15.402-6.934-15.402-15.406v-113.109c0-8.473 6.93-15.406 15.402-15.406h116.289c8.473 0 15.402 6.934 15.402 15.406v113.109c0 8.473-6.93 15.406-15.402 15.406zm0 0" fill="#ffe056"/><path d="M492.16 1.027h-30.809c8.473 0 15.406 6.934 15.406 15.406v113.109c0 8.473-6.934 15.406-15.406 15.406h30.809c8.473 0 15.406-6.934 15.406-15.406v-113.109c0-8.473-6.934-15.406-15.406-15.406zm0 0-389.527 396.977h-66.383c-4.254 0-7.703-3.449-7.703-7.703 0-4.254 3.449-7.703 7.703-7.703h66.383c4.254 0 7.699 3.449 7.699 7.703 0 4.254-3.445 7.703-7.699 7.703zm0 0 0 39.047h-66.383c-4.254 0-7.703-3.449-7.703-7.699 0-4.254 3.449-7.703 7.703-7.703h66.383c4.254 0 7.699 3.449 7.699 7.703 0 4.25-3.445 7.699-7.699 7.699zm0 0 0 39.051h-66.383c-4.254 0-7.703-3.449-7.703-7.703 0-4.254 3.449-7.703 7.703-7.703h66.383c4.254 0 7.699 3.449 7.699 7.703 0 4.254-3.445 7.703-7.699 7.703zm0 0 359.441-434.461h-66.383c-4.254 0-7.703-3.445-7.703-7.699s3.449-7.703 7.703-7.703h66.383c4.254 0 7.703 3.449 7.703 7.703s-3.449 7.699-7.703 7.699zm0 0 0 39.05h-66.383c-4.254 0-7.703-3.449-7.703-7.703 0-4.254 3.449-7.703 7.703-7.703h66.383c4.254 0 7.703 3.449 7.703 7.703 0 4.254-3.449 7.703-7.703 7.703zm0 0 0 39.047h-66.383c-4.254 0-7.703-3.449-7.703-7.703s3.449-7.699 7.703-7.699h66.383c4.254 0 7.703 3.445 7.703 7.699s-3.449 7.703-7.703 7.703zm0 0" fill="#f9cd45"/></svg>