<svg height="511pt" viewBox="-1 0 511 511.99968" width="511pt" xmlns="http://www.w3.org/2000/svg"><path d="M394.727 436.508h-278.145c-8.676 0-15.711-7.035-15.711-15.715v-405.078c0-8.68 7.035-15.715 15.711-15.715h278.145c8.676 0 15.715 7.035 15.715 15.715v405.078c0 8.68-7.039 15.715-15.715 15.715zm0 0" fill="#fff4f1"/><path d="M394.727 0h-31.43c8.68 0 15.715 7.035 15.715 15.715v405.078c0 8.68-7.035 15.715-15.715 15.715h31.43c8.676 0 15.715-7.035 15.715-15.715v-405.078c0-8.68-7.039-15.715-15.715-15.715zm0 0" fill="#ece8e5"/><path d="M189.27 328.57h-21.344c-4.629 0-8.383-3.754-8.383-8.383v-9.711c0-5.207 4.223-9.43 9.43-9.43h19.25c5.207 0 9.43 4.223 9.43 9.43l10.473 4.332-10.473 5.383c0 4.625-3.754 8.379-8.383 8.379zm0 0" fill="#f45a3c"/><path d="M227.379 328.57h-21.348c-4.629 0-8.379-3.754-8.379-8.383v-25.941c0-5.207 4.219-9.43 9.426-9.43h19.25c5.211 0 9.43 4.223 9.43 9.43l10.477 12.445-10.477 13.496c0 4.629-3.75 8.383-8.379 8.383zm0 0" fill="#ffd5cc"/><path d="M265.484 328.57h-21.344c-4.629 0-8.383-3.754-8.383-8.383v-41.469c0-5.207 4.223-9.43 9.43-9.43h19.25c5.207 0 9.43 4.223 9.43 9.43l10.477 20.211-10.477 21.258c0 4.629-3.754 8.383-8.383 8.383zm0 0" fill="#5e8ee1"/><path d="M303.594 328.57h-21.348c-4.629 0-8.379-3.754-8.379-8.383v-53.465c0-5.207 4.219-9.43 9.426-9.43h19.254c5.207 0 9.426 4.223 9.426 9.43l10.477 26.211-10.477 27.254c0 4.629-3.75 8.383-8.379 8.383zm0 0" fill="#7cd6e6"/><path d="M341.699 328.57h-21.344c-4.629 0-8.383-3.754-8.383-8.383v-69.695c0-5.207 4.223-9.43 9.43-9.43h19.25c5.207 0 9.43 4.223 9.43 9.43v69.695c0 4.629-3.754 8.383-8.383 8.383zm0 0" fill="#ffe056"/><path d="M215.941 68.551h-61.73c-4.34 0-7.855-3.52-7.855-7.859 0-4.336 3.516-7.855 7.855-7.855h61.73c4.34 0 7.859 3.52 7.859 7.855 0 4.34-3.52 7.859-7.859 7.859zm0 0 132.594 51.332h-194.324c-4.34 0-7.855-3.52-7.855-7.859 0-4.336 3.516-7.855 7.855-7.855h194.324c4.34 0 7.855 3.52 7.855 7.855 0 4.34-3.516 7.859-7.855 7.859zm0 0 0 31.426h-194.324c-4.34 0-7.855-3.516-7.855-7.855s3.516-7.855 7.855-7.855h194.324c4.34 0 7.855 3.516 7.855 7.855s-3.516 7.855-7.855 7.855zm0 0 0 31.429h-194.324c-4.34 0-7.855-3.52-7.855-7.855 0-4.34 3.516-7.859 7.855-7.859h194.324c4.34 0 7.855 3.52 7.855 7.859 0 4.336-3.516 7.855-7.855 7.855zm0 0 0 31.43h-194.324c-4.34 0-7.855-3.52-7.855-7.859s3.516-7.855 7.855-7.855h194.324c4.34 0 7.855 3.516 7.855 7.855s-3.516 7.859-7.855 7.859zm0 0 6.395 119.91h-195.25c-3.625 0-6.59-2.965-6.59-6.59s2.965-6.59 6.59-6.59h195.25c3.625 0 6.59 2.965 6.59 6.59s-2.965 6.59-6.59 6.59zm0 0" fill="#e3ded9"/><path d="M127.664 489.699c-9.859-17-28.887-46.27-50.758-46.27-21.926 0-41 29.332-50.836 46.406-.594 1.031-1.059 2.082-1.406 3.141 13.145 11.734 30.613 18.887 49.793 18.887 20.898 0 39.758-8.508 53.207-22.164zm0 0" fill="#fff4f1"/><path d="M76.676 443.551c-4.586.031-9.035 1.355-13.297 3.57 5.398 2.715 10.523 6.867 15.242 11.688 16.895 17.254 8.262 46.691-15.359 51.707-.641.137-1.281.262-1.93.383 4.336.746 8.797 1.133 13.355 1.098 20.898-.141 39.699-8.777 53.059-22.527-9.977-16.93-29.203-46.066-51.07-45.918zm0 0" fill="#e8e4e0"/><path d="M76.91 461.18c21.867 0 40.895 11.52 50.754 28.52 12.84-13.039 20.75-30.766 20.75-50.316 0-40.027-33.113-72.477-73.957-72.477s-73.957 32.449-73.957 72.477c0 21.238 9.32 40.336 24.168 53.594.344-1.059.809-2.113 1.402-3.145 9.836-17.074 28.91-28.652 50.84-28.652zm0 0" fill="#f7ee7d"/><path d="M74.457 366.906c-3.578 0-7.098.254-10.539.734 35.852 5.016 63.414 35.223 63.414 71.746 0 13.547-3.801 26.215-10.406 37.059 4.246 3.859 7.879 8.324 10.738 13.254 12.84-13.039 20.75-30.766 20.75-50.316 0-40.027-33.113-72.477-73.957-72.477zm0 0" fill="#ffe056"/><path d="M93.121 415.953c0-12.129-7.762-21.961-17.332-21.961s-17.332 9.832-17.332 21.961c0 12.133 7.762 21.965 17.332 21.965s17.332-9.832 17.332-21.965zm0 0" fill="#ffd5cc"/><path d="M308.863 489.699c-9.859-17-28.887-46.27-50.758-46.27-21.926 0-41 29.332-50.836 46.406-.594 1.031-1.059 2.082-1.406 3.141 13.145 11.734 30.613 18.887 49.793 18.887 20.895 0 39.754-8.508 53.207-22.164zm0 0" fill="#fff4f1"/><path d="M257.875 443.551c-4.586.031-9.035 1.355-13.301 3.57 5.402 2.715 10.523 6.867 15.246 11.688 16.891 17.254 8.262 46.691-15.359 51.707-.641.137-1.285.262-1.93.383 4.336.746 8.797 1.133 13.355 1.098 20.898-.141 39.699-8.777 53.055-22.527-9.973-16.93-29.199-46.066-51.066-45.918zm0 0" fill="#e8e4e0"/><path d="M258.105 461.18c21.871 0 40.898 11.52 50.758 28.52 12.836-13.039 20.746-30.766 20.746-50.316 0-40.027-33.109-72.477-73.953-72.477-40.848 0-73.957 32.449-73.957 72.477 0 21.238 9.316 40.336 24.164 53.594.348-1.059.813-2.113 1.406-3.145 9.836-17.074 28.91-28.652 50.836-28.652zm0 0" fill="#fc9086"/><path d="M255.656 366.906c-3.582 0-7.098.254-10.543.734 35.852 5.016 63.418 35.223 63.418 71.746 0 13.547-3.801 26.215-10.406 37.059 4.246 3.859 7.879 8.324 10.738 13.254 12.836-13.039 20.746-30.766 20.746-50.316 0-40.027-33.109-72.477-73.953-72.477zm0 0" fill="#f57a73"/><path d="M274.32 415.953c0-12.129-7.762-21.961-17.332-21.961-9.574 0-17.332 9.832-17.332 21.961 0 12.133 7.758 21.965 17.332 21.965 9.57 0 17.332-9.832 17.332-21.965zm0 0" fill="#ffd5cc"/><path d="M489.375 489.699c-9.859-17-28.887-46.27-50.754-46.27-21.93 0-41.004 29.332-50.84 46.406-.594 1.031-1.059 2.082-1.402 3.141 13.141 11.734 30.609 18.887 49.789 18.887 20.898 0 39.758-8.508 53.207-22.164zm0 0" fill="#fff4f1"/><path d="M438.387 443.551c-4.582.031-9.035 1.355-13.297 3.57 5.402 2.715 10.523 6.867 15.242 11.688 16.895 17.254 8.266 46.691-15.355 51.707-.641.137-1.285.262-1.934.383 4.336.746 8.801 1.133 13.359 1.098 20.895-.141 39.699-8.777 53.055-22.527-9.973-16.93-29.199-46.066-51.07-45.918zm0 0" fill="#e8e4e0"/><path d="M438.621 461.18c21.867 0 40.895 11.52 50.754 28.52 12.84-13.039 20.75-30.766 20.75-50.316 0-40.027-33.113-72.477-73.957-72.477s-73.957 32.449-73.957 72.477c0 21.238 9.32 40.336 24.168 53.594.344-1.059.809-2.113 1.402-3.145 9.836-17.074 28.91-28.652 50.84-28.652zm0 0" fill="#9ddbdf"/><path d="M436.168 366.906c-3.578 0-7.098.254-10.539.734 35.852 5.016 63.414 35.223 63.414 71.746 0 13.547-3.801 26.215-10.406 37.059 4.246 3.859 7.879 8.324 10.738 13.254 12.84-13.039 20.75-30.766 20.75-50.316 0-40.027-33.113-72.477-73.957-72.477zm0 0" fill="#7cd6e6"/><path d="M454.832 415.953c0-12.129-7.758-21.961-17.332-21.961-9.57 0-17.332 9.832-17.332 21.961 0 12.133 7.762 21.965 17.332 21.965 9.574 0 17.332-9.832 17.332-21.965zm0 0" fill="#ffd5cc"/></svg>