<svg height="511pt" viewBox="1 -37 511.99897 511" width="511pt" xmlns="http://www.w3.org/2000/svg"><path d="M252.402 140.344h242.867c9.203 0 16.73 7.527 16.73 16.73v265.539c0 14.418-18.023 20.953-27.262 9.887l-25.563-30.609h-206.773c-9.203 0-16.73-7.527-16.73-16.73v-228.086c0-9.203 7.527-16.73 16.73-16.73zm0 0" fill="#fff4f1"/><path d="M495.27 140.344h-30.848c9.203 0 16.73 7.527 16.73 16.73v265.535c0 1.699-.258 3.281-.711 4.742l4.297 5.145c9.242 11.066 27.262 4.535 27.262-9.887v-265.535c0-9.203-7.527-16.73-16.73-16.73zm0 0" fill="#e3ded9"/><path d="M350.668 368.488h-46.141c-8.48 0-15.422-6.941-15.422-15.422v-17.734c0-8.484 6.941-15.426 15.422-15.426h46.141c8.48 0 15.422 6.941 15.422 15.426v17.734c0 8.48-6.941 15.422-15.422 15.422zm0 0" fill="#ffd5cc"/><path d="M350.668 319.906h-30.848c8.48 0 15.422 6.941 15.422 15.426v17.734c0 8.48-6.941 15.422-15.422 15.422h30.848c8.48 0 15.422-6.941 15.422-15.422v-17.734c0-8.484-6.941-15.426-15.422-15.426zm0 0" fill="#fda59d"/><path d="M464.73 246.199c0 19.34-15.68 35.02-35.02 35.02-19.344 0-35.023-15.68-35.023-35.02 0-19.344 15.68-35.023 35.023-35.023 19.34 0 35.02 15.68 35.02 35.023zm0 0" fill="#ffe056"/><path d="M429.711 211.176c-5.125 0-9.984 1.109-14.371 3.086 12.176 5.484 20.656 17.715 20.656 31.938 0 14.219-8.48 26.449-20.656 31.934 4.387 1.977 9.246 3.086 14.371 3.086 19.34 0 35.02-15.68 35.02-35.02 0-19.344-15.68-35.023-35.02-35.023zm0 0" fill="#f9cd45"/><path d="M462.734 187.473h-170.602c-4.262 0-7.711-3.453-7.711-7.711 0-4.262 3.449-7.715 7.711-7.715h170.602c4.262 0 7.715 3.453 7.715 7.715 0 4.258-3.453 7.711-7.715 7.711zm0 0 4.567 143.101h-76.73c-4.262 0-7.715-3.453-7.715-7.711 0-4.258 3.453-7.711 7.715-7.711h76.73c4.262 0 7.715 3.453 7.715 7.711 0 4.258-3.453 7.711-7.715 7.711zm0 0 0 33.352h-76.73c-4.262 0-7.715-3.453-7.715-7.711 0-4.258 3.453-7.711 7.715-7.711h76.73c4.262 0 7.715 3.453 7.715 7.711 0 4.258-3.453 7.711-7.715 7.711zm0 0-92.879-141.219h-80.809c-4.258 0-7.711-3.453-7.711-7.715 0-4.258 3.453-7.711 7.711-7.711h80.809c4.262 0 7.715 3.453 7.715 7.711 0 4.262-3.453 7.715-7.715 7.715zm0 0 0 35.231h-80.809c-4.258 0-7.711-3.453-7.711-7.711 0-4.258 3.453-7.711 7.711-7.711h80.809c4.262 0 7.715 3.453 7.715 7.711 0 4.258-3.453 7.711-7.715 7.711zm0 0 0 32.64h-80.809c-4.258 0-7.711-3.453-7.711-7.715 0-4.258 3.453-7.711 7.711-7.711h80.809c4.262 0 7.715 3.453 7.715 7.711 0 4.262-3.453 7.715-7.715 7.715zm0 0" fill="#e3ded9"/><path d="M259.598.5h-242.867c-9.203 0-16.73 7.527-16.73 16.73v265.539c0 14.418 18.02 20.953 27.262 9.887l25.563-30.609h206.773c9.203 0 16.73-7.527 16.73-16.73v-228.086c0-9.203-7.527-16.73-16.73-16.73zm0 0" fill="#fff4f1"/><path d="M259.598.5h-30.848c9.203 0 16.73 7.527 16.73 16.73v228.086c0 9.199-7.527 16.73-16.73 16.73h30.848c9.203 0 16.73-7.527 16.73-16.73v-228.086c0-9.203-7.527-16.73-16.73-16.73zm0 0" fill="#e3ded9"/><path d="M228.559 128.805c0 45.277-36.707 81.984-81.984 81.984-45.281 0-81.988-36.707-81.988-81.984 0-45.281 36.707-81.988 81.988-81.988 45.277 0 81.984 36.707 81.984 81.988zm0 0" fill="#fc9086"/><path d="M146.574 46.816c-5.277 0-10.426.52-15.426 1.469 37.906 7.219 66.563 40.516 66.563 80.52s-28.656 73.297-66.563 80.52c5 .949 10.148 1.469 15.426 1.469 45.281 0 81.984-36.707 81.984-81.988s-36.703-81.988-81.984-81.988zm0 0" fill="#f57a73"/><path d="M155.223 122.305c-5.199 4.063-5.293 6.898-5.293 11.813 0 1.797-.945 3.879-5.578 3.879-3.875 0-5.195-1.418-5.195-6.336 0-8.129 3.59-12.004 6.332-14.367 3.117-2.645 8.41-5.574 8.41-10.68 0-4.348-3.781-6.426-8.504-6.426-9.641 0-7.563 7.277-12.664 7.277-2.555 0-5.672-1.703-5.672-5.387 0-5.105 5.859-12.664 18.617-12.664 12.098 0 20.133 6.711 20.133 15.594 0 8.887-8.035 15.313-10.586 17.297zm-3.496 29.488c0 3.875-3.215 7.277-7.277 7.277-4.066 0-7.184-3.402-7.184-7.277 0-3.969 3.215-7.277 7.184-7.277s7.277 3.309 7.277 7.277zm0 0" fill="#fff4f1"/></svg>