<svg height="511pt" viewBox="0 -59 511.99888 511" width="511pt" xmlns="http://www.w3.org/2000/svg"><path d="M462.926 57.887c-23.789-34.656-63.688-57.387-108.902-57.387-72.906 0-132.012 59.102-132.012 132.012 0 3.188.121 6.352.344 9.484l.012.348v99.277c0 84.09 68.168 152.254 152.254 152.254 19.031 0 34.457-15.426 34.457-34.457v-27.898c0-11.703 9.488-21.188 21.191-21.188h33.824c11.703 0 21.188-9.488 21.188-21.191v-58.73c0-3.043 2.465-5.504 5.504-5.504 14.855 0 25.098-14.883 19.797-28.758l-24.211-63.352c-.23-.602-.348-1.238-.355-1.883-.32-27.086-8.797-52.211-23.09-73.027" fill="#9ddbdf"/><path d="M49.07 57.887c23.789-34.656 63.691-57.387 108.902-57.387 72.91 0 132.012 59.102 132.012 132.012 0 3.188-.117 6.352-.34 9.484l-.012.352v99.273c0 84.09-68.168 152.258-152.254 152.258-19.031 0-34.461-15.43-34.461-34.461v-27.895c0-11.703-9.484-21.191-21.188-21.191h-33.824c-11.707 0-21.191-9.488-21.191-21.191v-58.73c0-3.043-2.465-5.504-5.504-5.504-14.852 0-25.098-14.883-19.797-28.754l24.211-63.355c.23-.598.348-1.238.355-1.879.32-27.09 8.797-52.215 23.09-73.031" fill="#ffd5cc"/><path d="M256 337.059c21.031-26.109 33.633-59.297 33.633-95.438v-99.277l.012-.348c.223-3.133.34-6.297.34-9.484 0-34.012-12.863-65.012-33.984-88.414-21.121 23.402-33.984 54.402-33.984 88.414 0 3.188.117 6.352.34 9.484l.012.348v99.277c0 36.141 12.598 69.328 33.633 95.438zm0 0" fill="#fc9086"/><path d="M377.707 331.52v27.898c0 15.531-10.281 28.664-24.406 32.965 6.969.977 14.082 1.492 21.32 1.492 19.031 0 34.457-15.426 34.457-34.457v-27.898c0-11.703 9.488-21.188 21.191-21.188h-31.371c-11.703 0-21.191 9.484-21.191 21.188zm0 0 132.875-135.372l-24.207-63.355c-.23-.598-.348-1.238-.355-1.879-.32-27.086-8.801-52.211-23.09-73.027-23.793-34.656-63.691-57.387-108.906-57.387-5.313 0-10.547.324-15.695.934 38.676 4.574 72.23 25.863 93.23 56.453 14.289 20.816 22.77 45.941 23.09 73.027.008.641.125 1.277.355 1.879l24.207 63.355c5.305 13.871-4.941 28.754-19.793 28.754-3.039 0-5.504 2.465-5.504 5.504v58.734c0 11.703-9.488 21.191-21.191 21.191h31.371c11.703 0 21.191-9.488 21.191-21.191v-58.734c0-3.039 2.465-5.504 5.504-5.504 14.852 0 25.094-14.883 19.793-28.754zm0 0" fill="#7cd6e6"/><path d="M256 44.098c-5.91 6.547-11.172 13.688-15.688 21.324 11.625 19.66 18.301 42.594 18.301 67.09 0 3.188-.117 6.352-.34 9.484l-.012.348v99.277c0 25.949-6.496 50.379-17.949 71.758 4.5 8.395 9.758 16.32 15.688 23.68 21.031-26.109 33.633-59.297 33.633-95.438v-99.277l.012-.348c.223-3.133.34-6.297.34-9.484 0-34.012-12.863-65.012-33.984-88.414zm0 0" fill="#f57a73"/><path d="M349.469 135.766c-18.301 18.305-47.527 18.754-47.527 18.754s.449-29.227 18.754-47.527c18.305-18.305 47.531-18.758 47.531-18.758s-.453 29.227-18.758 47.531zm0 0-185.723-40.539c18.305 18.305 47.531 18.754 47.531 18.754s-.453-29.223-18.758-47.527c-18.305-18.305-47.527-18.758-47.527-18.758s.449 29.227 18.754 47.531zm0 0" fill="#55e08f"/></svg>