<svg height="512pt" viewBox="0 -16 512.00104 512" width="512pt" xmlns="http://www.w3.org/2000/svg"><path d="M512 232.473v228.664c0 9.895-5.934 17.914-13.25 17.914h-200.098v-204.969l34.734-41.609zm0 0" fill="#fc9086"/><path d="M498.75 114.41h-184.492c-8.617 0-15.605 6.984-15.605 15.602v16.996c0 9.438 8.301 16.617 17.668 15.461 2.113-.266 4.289-.328 6.512-.176 16.523 1.137 29.91 14.523 31.043 31.047 1.34 19.563-14.133 35.848-33.406 35.848-1.504 0-2.984-.102-4.434-.293-9.242-1.227-17.383 6.176-17.383 15.5v52.336h58.371c9.793 0 16.93-8.895 15.289-18.551-.414-2.426-.563-4.941-.422-7.516.91-16.723 14.363-30.387 31.07-31.535 19.563-1.344 35.852 14.129 35.852 33.406 0 2.074-.188 4.105-.547 6.074-1.738 9.465 5.773 18.121 15.395 18.121h58.34v-169.074c0-7.316-5.934-13.246-13.25-13.246zm0 0" fill="#5e8ee1"/><path d="M480.793 245.773v216.328c0 9.359-5.934 16.949-13.254 16.949h31.211c7.316 0 13.25-7.59 13.25-16.949v-216.328zm0 0" fill="#f57a73"/><path d="M498.75 114.41h-31.207c7.316 0 13.25 5.93 13.25 13.25v169.07h31.207v-169.074c0-7.316-5.934-13.246-13.25-13.246zm0 0" fill="#467bff"/><path d="M235.086 57.754c-1.598-.109-3.172-.105-4.719 0-9.152.637-17.02-6.359-17.02-15.539v-26.609c0-8.617-6.984-15.605-15.605-15.605h-184.492c-7.316 0-13.25 5.934-13.25 13.25v153.469c0 8.617 6.988 15.602 15.605 15.602h42.434c9.504 0 16.688 8.41 15.438 17.832-.277 2.121-.363 4.305-.227 6.531 1.016 16.629 14.438 30.168 31.059 31.309 19.566 1.344 35.855-14.129 35.855-33.406 0-1.602-.113-3.18-.332-4.723-1.316-9.309 6.199-17.539 15.602-17.539h42.313c8.617 0 15.602-6.988 15.602-15.605v-26.613c0-9.035 7.656-16.285 16.664-15.563.895.07 1.793.105 2.707.105 19.27 0 34.738-16.273 33.406-35.828-1.125-16.527-14.512-29.922-31.039-31.066zm0 0" fill="#ffe056"/><path d="M266.125 88.82c-1.125-16.527-14.512-29.922-31.039-31.063-1.598-.109-3.172-.109-4.719-.004-9.152.637-17.02-6.359-17.02-15.535v-26.613c0-8.617-6.984-15.605-15.605-15.605h-31.207c8.617 0 15.605 6.988 15.605 15.605v26.613c0 9.176 7.863 16.172 17.02 15.535 1.547-.105 3.121-.105 4.719.004 16.527 1.141 29.914 14.535 31.035 31.063 1.332 19.555-14.137 35.828-33.406 35.828-.914 0-1.813-.035-2.707-.109-9.004-.719-16.664 6.531-16.664 15.566v26.613c0 8.617-6.984 15.602-15.602 15.602h31.207c8.617 0 15.605-6.984 15.605-15.602v-26.613c0-9.035 7.656-16.285 16.66-15.566.895.074 1.797.109 2.707.109 19.27 0 34.738-16.273 33.41-35.828zm0 0" fill="#f9cd45"/><path d="M318.363 357.594c-1.129-.074-2.246-.09-3.352-.055-8.91.293-16.359-6.668-16.359-15.582v-45.227h-67.855c-9.238 0-16.063 7.523-15.559 16.746.414 7.605-1.707 15.883-7.207 24.016-1.094 1.613-2.496 3.016-4.113 4.105-26.949 18.184-55.605-.695-55.605-26.262 0-.668.02-1.336.059-1.992.531-9-6.547-16.613-15.563-16.613h-31.898c-8.621 0-15.605 6.988-15.605 15.605v153.469c0 7.316 5.93 13.25 13.25 13.25h200.098v-38.992c0-8.762 7.219-15.984 15.969-15.598.5.023 1 .035 1.504.035 19.273 0 34.746-16.285 33.406-35.848-1.137-16.574-14.594-29.977-31.168-31.059zm0 0" fill="#9ddbdf"/></svg>