<svg height="512pt" viewBox="0 -23 512 512" width="512pt" xmlns="http://www.w3.org/2000/svg"><path d="M206.047 351.633h99.906v88.043h-99.906zm0 0" fill="#9a9999"/><path d="M274.777 351.633h31.176v88.043h-31.176zm0 0" fill="#696867"/><path d="M259.813 0h-244.227c-8.57 0-15.586 7.016-15.586 15.586v356.277c0 8.574 7.016 15.586 15.586 15.586h244.227l41.566-173.773zm0 0" fill="#9ddbdf"/><path d="M475.629 0h-215.77v387.449h215.77c8.57 0 15.586-7.012 15.586-15.586v-356.277c0-8.57-7.012-15.586-15.586-15.586zm0 0" fill="#ffd5cc"/><path d="M480.824 15.586v311.598l16.813 10.391 14.363-10.391v-311.598c0-8.57-7.016-15.586-15.586-15.586h-31.176c8.57 0 15.586 7.016 15.586 15.586zm0 0" fill="#fdaca4"/><path d="M332.914 465.047h-153.828c-9.156 0-16.648-7.492-16.648-16.648 0-9.16 7.492-16.652 16.648-16.652h153.828c9.156 0 16.648 7.492 16.648 16.652 0 9.156-7.492 16.648-16.648 16.648zm0 0" fill="#b4b4b4"/><path d="M0 327.27v40.219c0 10.98 8.984 19.961 19.965 19.961h472.07c10.98 0 19.965-8.98 19.965-19.961v-40.219zm0 0" fill="#e3ded9"/><path d="M480.824 327.27v40.219c0 10.98-8.984 19.961-19.965 19.961h31.176c10.98 0 19.965-8.98 19.965-19.961v-40.219zm0 0" fill="#b4b4b4"/><path d="M191.863 85.785h-113.379c-8.707 0-15.832-7.121-15.832-15.828v-5.66c0-8.707 7.125-15.828 15.832-15.828h113.379c8.703 0 15.828 7.121 15.828 15.828v5.66c0 8.707-7.125 15.828-15.828 15.828zm0 0" fill="#fff4f1"/><path d="M191.863 48.465h-31.176c8.703 0 15.828 7.125 15.828 15.832v5.66c0 8.707-7.125 15.828-15.828 15.828h31.176c8.703 0 15.828-7.121 15.828-15.828v-5.66c0-8.707-7.125-15.832-15.828-15.832zm0 0" fill="#e3ded9"/><path d="M332.914 431.746h-31.176c9.156 0 16.648 7.492 16.648 16.652 0 9.156-7.492 16.648-16.648 16.648h31.176c9.156 0 16.648-7.492 16.648-16.648 0-9.16-7.492-16.652-16.648-16.652zm0 0" fill="#9a9999"/><path d="M445.867 85.785h-113.379c-8.707 0-15.832-7.121-15.832-15.828v-5.66c0-8.707 7.125-15.828 15.832-15.828h113.379c8.703 0 15.828 7.121 15.828 15.828v5.66c0 8.707-7.125 15.828-15.828 15.828zm0 0" fill="#9ddbdf"/><path d="M445.867 48.465h-31.176c8.703 0 15.828 7.125 15.828 15.832v5.66c0 8.707-7.125 15.828-15.828 15.828h31.176c8.703 0 15.828-7.121 15.828-15.828v-5.66c0-8.707-7.125-15.832-15.828-15.832zm0 0" fill="#7cd6e6"/><path d="M187.953 268.375c-9.781-16.863-28.656-45.895-50.348-45.895-21.754 0-40.672 29.094-50.43 46.031-.59 1.023-1.051 2.066-1.395 3.117 13.035 11.637 30.367 18.734 49.391 18.734 20.73 0 39.438-8.441 52.781-21.988zm0 0" fill="#fff4f1"/><path d="M137.375 222.598c-4.551.031-8.965 1.348-13.191 3.543 5.359 2.695 10.438 6.809 15.121 11.594 16.758 17.113 8.195 46.316-15.234 51.289-.637.137-1.273.262-1.918.383 4.305.738 8.73 1.121 13.25 1.09 20.73-.141 39.383-8.707 52.629-22.348-9.895-16.793-28.965-45.699-50.656-45.551zm0 0" fill="#e8e4e0"/><path d="M137.605 240.086c21.691 0 40.566 11.426 50.348 28.289 12.734-12.934 20.582-30.516 20.582-49.91 0-39.707-32.848-71.895-73.363-71.895s-73.363 32.188-73.363 71.895c0 21.066 9.246 40.012 23.973 53.164.344-1.055.805-2.098 1.395-3.121 9.758-16.938 28.676-28.422 50.43-28.422zm0 0" fill="#f7ee7d"/><path d="M135.172 146.57c-3.551 0-7.039.25-10.457.73 35.566 4.973 62.91 34.938 62.91 71.164 0 13.441-3.773 26.008-10.324 36.766 4.211 3.828 7.816 8.254 10.652 13.145 12.734-12.934 20.582-30.516 20.582-49.91 0-39.707-32.848-71.895-73.363-71.895zm0 0" fill="#ffe056"/><path d="M153.688 195.223c0-12.031-7.699-21.785-17.191-21.785-9.496 0-17.195 9.754-17.195 21.785 0 12.035 7.699 21.789 17.195 21.789 9.492 0 17.191-9.754 17.191-21.789zm0 0" fill="#ffd5cc"/><path d="M441.957 268.375c-9.781-16.863-28.656-45.895-50.348-45.895-21.754 0-40.672 29.094-50.43 46.031-.59 1.023-1.051 2.066-1.395 3.117 13.035 11.637 30.367 18.734 49.391 18.734 20.73 0 39.438-8.441 52.781-21.988zm0 0" fill="#fff4f1"/><path d="M391.379 222.598c-4.551.031-8.965 1.348-13.191 3.543 5.359 2.695 10.438 6.809 15.121 11.594 16.758 17.113 8.195 46.316-15.234 51.289-.637.137-1.273.262-1.918.383 4.301.738 8.73 1.121 13.25 1.09 20.73-.141 39.383-8.707 52.629-22.348-9.895-16.793-28.965-45.699-50.656-45.551zm0 0" fill="#e8e4e0"/><path d="M391.609 240.086c21.691 0 40.566 11.426 50.348 28.289 12.734-12.934 20.582-30.516 20.582-49.91 0-39.707-32.848-71.895-73.363-71.895s-73.363 32.188-73.363 71.895c0 21.066 9.246 40.012 23.973 53.164.344-1.055.805-2.098 1.395-3.121 9.758-16.938 28.676-28.422 50.43-28.422zm0 0" fill="#f7ee7d"/><path d="M389.176 146.57c-3.551 0-7.039.25-10.457.73 35.566 4.973 62.91 34.938 62.91 71.164 0 13.441-3.773 26.008-10.324 36.766 4.211 3.828 7.816 8.254 10.652 13.145 12.734-12.934 20.582-30.516 20.582-49.91 0-39.707-32.848-71.895-73.363-71.895zm0 0" fill="#ffe056"/><path d="M407.691 195.223c0-12.031-7.699-21.785-17.191-21.785-9.496 0-17.195 9.754-17.195 21.785 0 12.035 7.699 21.789 17.195 21.789 9.492 0 17.191-9.754 17.191-21.789zm0 0" fill="#ffd5cc"/><path d="M259.859 357.359c0 5.035-4.082 9.117-9.117 9.117-5.035 0-9.117-4.082-9.117-9.117s4.082-9.117 9.117-9.117c5.035 0 9.117 4.082 9.117 9.117zm0 0" fill="#b4b4b4"/></svg>