<svg height="512pt" viewBox="-3 0 512 512" width="512pt" xmlns="http://www.w3.org/2000/svg"><path d="M267.914 0h-29.648c-8.629 0-15.625 6.996-15.625 15.625v109.008c0 8.629 6.996 15.621 15.625 15.621h29.648c8.625 0 15.621-6.992 15.621-15.621v-109.008c0-8.629-6.992-15.625-15.621-15.625zm0 0" fill="#9a9999"/><path d="M267.766 0h-29.121c-.406 0-.805.031-1.207.059 8.145.617 14.563 7.34 14.563 15.566v109.008c0 8.223-6.418 14.949-14.563 15.563.402.031.801.059 1.207.059h29.121c8.711 0 15.77-6.992 15.77-15.621v-109.008c0-8.629-7.059-15.625-15.77-15.625zm0 0" fill="#696867"/><path d="M475.973 512h-445.766c-16.613 0-30.207-13.594-30.207-30.207v-300.285c0-16.613 13.594-30.207 30.207-30.207h445.766c16.613 0 30.207 13.594 30.207 30.207v300.285c-.004 16.613-13.594 30.207-30.207 30.207zm0 0" fill="#fff4f1"/><path d="M475.973 151.301h-31.25c16.613 0 30.207 13.594 30.207 30.207v300.285c0 16.613-13.594 30.207-30.207 30.207h31.25c16.613 0 30.203-13.594 30.203-30.207v-300.285c0-16.613-13.59-30.207-30.203-30.207zm0 0" fill="#e3ded9"/><path d="M222.641 116.148v55.918c0 8.629 6.996 15.625 15.625 15.625h29.648c8.625 0 15.621-6.996 15.621-15.625v-55.918zm0 0" fill="#b4b4b4"/><path d="M252.289 116.148v55.918c0 8.359-6.57 15.164-14.824 15.582.266.016.531.043.801.043h29.648c8.625 0 15.621-6.996 15.621-15.625v-55.918zm0 0" fill="#9a9999"/><path d="M458.195 409.086h-410.895c-4.313 0-7.809-3.496-7.809-7.813 0-4.313 3.496-7.809 7.809-7.809h410.895c4.316 0 7.813 3.496 7.813 7.809 0 4.316-3.5 7.813-7.813 7.813zm0 0-255.058 39.059h-155.836c-4.313 0-7.809-3.496-7.809-7.813 0-4.313 3.496-7.813 7.809-7.813h155.84c4.313 0 7.809 3.5 7.809 7.813 0 4.316-3.496 7.813-7.813 7.813zm0 0 255.058 0h-155.836c-4.316 0-7.813-3.496-7.813-7.813 0-4.313 3.496-7.813 7.813-7.813h155.836c4.313 0 7.809 3.5 7.809 7.813 0 4.316-3.496 7.813-7.809 7.813zm0 0" fill="#e3ded9"/><path d="M148.094 337.996c-8.199-14.137-24.023-38.477-42.211-38.477-18.238 0-34.102 24.391-42.281 38.59-.492.859-.879 1.734-1.168 2.613 10.93 9.758 25.461 15.711 41.406 15.711 17.383 0 33.066-7.078 44.254-18.438zm0 0" fill="#fff4f1"/><path d="M105.688 299.617c-3.813.027-7.512 1.129-11.059 2.973 4.492 2.258 8.75 5.707 12.676 9.719 14.051 14.352 6.875 38.832-12.77 43.004-.535.113-1.07.219-1.605.32 3.605.617 7.316.938 11.105.914 17.383-.117 33.02-7.301 44.125-18.738-8.293-14.082-24.285-38.316-42.473-38.191zm0 0" fill="#e8e4e0"/><path d="M105.883 314.281c18.188 0 34.012 9.578 42.211 23.715 10.676-10.84 17.258-25.586 17.258-41.844 0-33.289-27.539-60.281-61.512-60.281-33.969 0-61.508 26.988-61.508 60.281 0 17.664 7.75 33.547 20.102 44.574.285-.883.672-1.758 1.168-2.613 8.18-14.203 24.043-23.832 42.281-23.832zm0 0" fill="#f7ee7d"/><path d="M103.84 235.871c-2.977 0-5.902.215-8.766.613 29.82 4.172 52.746 29.293 52.746 59.668 0 11.27-3.164 21.805-8.656 30.824 3.531 3.211 6.555 6.922 8.93 11.023 10.68-10.844 17.258-25.586 17.258-41.844 0-33.297-27.539-60.285-61.512-60.285zm0 0" fill="#ffe056"/><path d="M119.363 276.668c0-10.09-6.453-18.27-14.414-18.27-7.957 0-14.41 8.18-14.41 18.27 0 10.086 6.453 18.266 14.41 18.266 7.961 0 14.414-8.18 14.414-18.266zm0 0" fill="#ffd5cc"/><path d="M299.039 337.996c-8.199-14.137-24.023-38.477-42.211-38.477-18.238 0-34.102 24.391-42.281 38.59-.492.859-.879 1.734-1.168 2.613 10.93 9.758 25.461 15.711 41.406 15.711 17.383 0 33.07-7.078 44.254-18.438zm0 0" fill="#fff4f1"/><path d="M256.637 299.617c-3.816.027-7.516 1.129-11.063 2.973 4.492 2.258 8.754 5.707 12.68 9.719 14.047 14.352 6.871 38.832-12.773 43.004-.535.113-1.07.219-1.605.32 3.605.617 7.316.938 11.109.914 17.379-.117 33.016-7.301 44.125-18.738-8.297-14.082-24.289-38.316-42.473-38.191zm0 0" fill="#e8e4e0"/><path d="M256.828 314.281c18.188 0 34.012 9.578 42.211 23.715 10.68-10.84 17.258-25.586 17.258-41.844 0-33.289-27.539-60.281-61.512-60.281-33.969 0-61.508 26.988-61.508 60.281 0 17.664 7.75 33.547 20.102 44.574.285-.883.672-1.758 1.168-2.613 8.18-14.203 24.043-23.832 42.281-23.832zm0 0" fill="#fc9086"/><path d="M254.789 235.871c-2.977 0-5.902.215-8.766.613 29.816 4.172 52.742 29.293 52.742 59.668 0 11.27-3.164 21.805-8.656 30.824 3.531 3.211 6.555 6.922 8.93 11.023 10.68-10.844 17.258-25.586 17.258-41.844 0-33.297-27.539-60.285-61.508-60.285zm0 0" fill="#f57a73"/><path d="M270.309 276.668c0-10.09-6.453-18.27-14.414-18.27-7.957 0-14.41 8.18-14.41 18.27 0 10.086 6.453 18.266 14.41 18.266 7.961 0 14.414-8.18 14.414-18.266zm0 0" fill="#ffd5cc"/><path d="M442.578 337.996c-8.199-14.137-24.027-38.477-42.215-38.477-18.234 0-34.098 24.391-42.277 38.59-.496.859-.883 1.734-1.172 2.613 10.93 9.758 25.461 15.711 41.41 15.711 17.383 0 33.066-7.078 44.254-18.438zm0 0" fill="#fff4f1"/><path d="M400.172 299.617c-3.813.027-7.516 1.129-11.059 2.973 4.492 2.258 8.75 5.707 12.676 9.719 14.051 14.352 6.875 38.832-12.77 43.004-.535.113-1.07.219-1.609.32 3.605.617 7.32.938 11.109.914 17.383-.117 33.016-7.301 44.125-18.738-8.297-14.082-24.285-38.316-42.473-38.191zm0 0" fill="#e8e4e0"/><path d="M400.363 314.281c18.188 0 34.016 9.578 42.215 23.715 10.676-10.84 17.254-25.586 17.254-41.844 0-33.289-27.535-60.281-61.508-60.281s-61.508 26.988-61.508 60.281c0 17.664 7.75 33.547 20.098 44.574.289-.883.676-1.758 1.172-2.613 8.18-14.203 24.043-23.832 42.277-23.832zm0 0" fill="#9ddbdf"/><path d="M398.324 235.871c-2.977 0-5.902.215-8.766.613 29.816 4.172 52.742 29.293 52.742 59.668 0 11.27-3.16 21.805-8.652 30.824 3.531 3.211 6.551 6.922 8.93 11.023 10.676-10.844 17.258-25.586 17.258-41.844 0-33.297-27.539-60.285-61.512-60.285zm0 0" fill="#7cd6e6"/><path d="M413.848 276.668c0-10.09-6.453-18.27-14.414-18.27-7.961 0-14.414 8.18-14.414 18.27 0 10.086 6.453 18.266 14.414 18.266 7.961 0 14.414-8.18 14.414-18.266zm0 0" fill="#ffd5cc"/></svg>