<svg height="512pt" viewBox="0 -9 512.00104 512" width="512pt" xmlns="http://www.w3.org/2000/svg"><path d="M163.988 68.723c-2.715 0-5.352-1.422-6.789-3.949-2.121-3.746-.809-8.504 2.938-10.625 33.52-19.004 71.727-29.051 110.48-29.051 36.332 0 72.418 8.887 104.355 25.703 3.809 2.004 5.27 6.715 3.266 10.523-2.004 3.809-6.719 5.27-10.523 3.266-29.711-15.641-63.285-23.906-97.094-23.906-36.07 0-71.613 9.344-102.797 27.023-1.215.688-2.535 1.016-3.836 1.016zm0 0 32.539 118.429c-1.773 0-3.559-.602-5.023-1.836l-54.133-45.676c-3.289-2.773-3.703-7.691-.93-10.98 2.777-3.289 7.691-3.707 10.984-.934l54.129 45.676c3.293 2.773 3.707 7.691.934 10.98-1.543 1.828-3.742 2.77-5.961 2.77zm0 0 241.375-37.57c0-2.715 1.422-5.352 3.949-6.789 3.746-2.121 8.504-.809 10.625 2.938 19.004 33.52 29.051 71.723 29.051 110.48 0 36.332-8.887 72.418-25.703 104.355-2.004 3.809-6.715 5.27-10.523 3.266-3.809-2.004-5.27-6.719-3.266-10.527 15.641-29.707 23.906-63.281 23.906-97.094 0-36.066-9.344-71.613-27.023-102.793-.688-1.215-1.016-2.535-1.016-3.836zm0 0-118.429 32.539c0-1.773.605-3.559 1.84-5.023l45.672-54.129c2.777-3.293 7.691-3.707 10.984-.934 3.289 2.777 3.703 7.695.93 10.984l-45.676 54.133c-2.773 3.289-7.691 3.703-10.98.93-1.828-1.543-2.77-3.746-2.77-5.961zm0 0 37.57 241.375c2.719 0 5.352 1.422 6.789 3.953 2.121 3.742.809 8.5-2.938 10.621-33.52 19.008-71.723 29.051-110.48 29.051-36.332 0-72.418-8.887-104.355-25.699-3.809-2.008-5.27-6.719-3.266-10.527 2.004-3.809 6.719-5.27 10.527-3.266 29.707 15.641 63.281 23.906 97.094 23.906 36.066 0 71.613-9.344 102.793-27.023 1.215-.688 2.535-1.016 3.836-1.016zm0 0-32.539-118.43c1.777 0 3.559.602 5.023 1.836l54.133 45.676c3.289 2.773 3.707 7.691.93 10.98-2.777 3.293-7.691 3.707-10.98.934l-54.133-45.676c-3.289-2.773-3.707-7.691-.934-10.98 1.543-1.828 3.746-2.77 5.961-2.77zm0 0-241.375 37.575c0 2.715-1.422 5.352-3.949 6.785-3.746 2.121-8.5.809-10.625-2.938-19.004-33.52-29.051-71.723-29.051-110.48 0-36.328 8.887-72.414 25.703-104.355 2.004-3.809 6.715-5.27 10.523-3.266 3.813 2.004 5.27 6.719 3.266 10.527-15.641 29.707-23.906 63.281-23.906 97.094 0 36.066 9.344 71.613 27.023 102.793.688 1.215 1.016 2.535 1.016 3.84zm0 0 118.43-32.543c0 1.777-.602 3.559-1.836 5.023l-45.676 54.133c-2.773 3.289-7.691 3.707-10.98.93-3.293-2.777-3.707-7.691-.934-10.98l45.676-54.133c2.773-3.289 7.691-3.707 10.98-.934 1.828 1.543 2.77 3.746 2.77 5.961zm0 0" fill="#e3ded9"/><path d="M356.945 244.152c0 51.73-41.934 93.66-93.66 93.66-51.727 0-93.66-41.93-93.66-93.66 0-51.727 41.934-93.66 93.66-93.66 51.727 0 93.66 41.934 93.66 93.66zm0 0" fill="#ffe056"/><path d="M263.285 150.492c-5.313 0-10.52.449-15.586 1.301 44.305 7.422 78.074 45.945 78.074 92.363 0 46.414-33.77 84.938-78.074 92.359 5.066.852 10.273 1.301 15.586 1.301 51.727 0 93.66-41.934 93.66-93.66 0-51.73-41.934-93.664-93.66-93.664zm0 0" fill="#f9cd45"/><path d="M260.516 275.875c-11.75-.395-21.344-6.465-21.344-12.73 0-3.328 2.938-8.223 6.656-8.223 4.113 0 7.441 5.777 14.688 7.047v-15.859c-9.008-3.43-19.582-7.637-19.582-20.172 0-12.434 9.203-18.406 19.582-19.875v-2.742c0-1.367 1.566-2.641 3.723-2.641 1.859 0 3.719 1.273 3.719 2.641v2.449c6.07.195 17.527 1.762 17.527 8.52 0 2.645-1.762 8.027-6.07 8.027-3.23 0-5.094-3.133-11.457-3.621v14.293c8.91 3.328 19.289 7.934 19.289 21.148 0 12.141-7.836 19.484-19.289 21.344v2.84c0 1.371-1.859 2.645-3.719 2.645-2.156 0-3.723-1.273-3.723-2.645zm.98-45.234v-11.652c-4.406.883-6.266 3.133-6.266 5.484 0 2.84 2.543 4.602 6.266 6.168zm5.48 18.113v13.121c3.328-.785 5.973-2.645 5.973-6.168 0-3.234-2.445-5.289-5.973-6.953zm0 0" fill="#f8b53c"/><path d="M142.563 137.664c-11.051-19.059-32.383-51.871-56.898-51.871-24.582 0-45.969 32.879-56.996 52.023-.664 1.156-1.188 2.336-1.574 3.523 14.734 13.152 34.32 21.176 55.82 21.176 23.43 0 44.57-9.539 59.648-24.852zm0 0" fill="#fff4f1"/><path d="M85.402 85.926c-5.141.035-10.129 1.523-14.91 4.004 6.055 3.047 11.797 7.699 17.09 13.102 18.938 19.344 9.266 52.348-17.219 57.969-.715.152-1.438.297-2.164.43 4.863.836 9.863 1.27 14.977 1.234 23.426-.16 44.504-9.84 59.48-25.254-11.184-18.984-32.738-51.648-57.254-51.484zm0 0" fill="#e8e4e0"/><path d="M85.66 105.691c24.52 0 45.852 12.914 56.902 31.973 14.395-14.617 23.262-34.492 23.262-56.406 0-44.879-37.121-81.258-82.914-81.258s-82.91 36.379-82.91 81.258c0 23.805 10.449 45.219 27.094 60.082.387-1.188.91-2.367 1.574-3.523 11.027-19.145 32.41-32.125 56.992-32.125zm0 0" fill="#f7ee7d"/><path d="M82.914 0c-4.016 0-7.957.285-11.82.824 40.195 5.621 71.098 39.488 71.098 80.434 0 15.188-4.262 29.391-11.668 41.547 4.762 4.328 8.836 9.332 12.039 14.859 14.395-14.617 23.262-34.492 23.262-56.406 0-44.879-37.121-81.258-82.91-81.258zm0 0" fill="#ffe056"/><path d="M103.836 54.988c0-13.598-8.699-24.621-19.43-24.621s-19.43 11.023-19.43 24.621c0 13.602 8.699 24.625 19.43 24.625s19.43-11.023 19.43-24.625zm0 0" fill="#ffd5cc"/><path d="M488.738 137.664c-11.051-19.059-32.387-51.871-56.902-51.871-24.582 0-45.965 32.879-56.992 52.023-.664 1.156-1.188 2.336-1.574 3.523 14.73 13.152 34.32 21.176 55.816 21.176 23.43 0 44.574-9.539 59.652-24.852zm0 0" fill="#fff4f1"/><path d="M431.578 85.926c-5.145.035-10.133 1.523-14.91 4.004 6.055 3.047 11.797 7.699 17.09 13.102 18.938 19.344 9.262 52.348-17.219 57.969-.719.152-1.441.297-2.164.43 4.859.836 9.863 1.27 14.973 1.234 23.43-.16 44.508-9.84 59.48-25.254-11.18-18.984-32.734-51.648-57.25-51.484zm0 0" fill="#e8e4e0"/><path d="M431.836 105.691c24.52 0 45.852 12.914 56.902 31.973 14.395-14.617 23.262-34.492 23.262-56.406 0-44.879-37.121-81.258-82.914-81.258s-82.914 36.379-82.914 81.258c0 23.805 10.449 45.219 27.094 60.082.391-1.188.91-2.367 1.578-3.523 11.027-19.145 32.41-32.125 56.992-32.125zm0 0" fill="#9ddbdf"/><path d="M429.086 0c-4.012 0-7.953.285-11.816.824 40.195 5.621 71.098 39.488 71.098 80.434 0 15.188-4.262 29.391-11.668 41.547 4.762 4.328 8.836 9.332 12.039 14.859 14.395-14.617 23.262-34.492 23.262-56.406 0-44.879-37.121-81.258-82.914-81.258zm0 0" fill="#7cd6e6"/><path d="M450.012 54.988c0-13.598-8.699-24.621-19.43-24.621s-19.43 11.023-19.43 24.621c0 13.602 8.699 24.625 19.43 24.625s19.43-11.023 19.43-24.625zm0 0" fill="#ffd5cc"/><path d="M488.738 469.684c-11.051-19.059-32.387-51.871-56.902-51.871-24.582 0-45.965 32.879-56.992 52.023-.664 1.152-1.188 2.332-1.574 3.523 14.73 13.152 34.32 21.172 55.816 21.172 23.43 0 44.574-9.535 59.652-24.848zm0 0" fill="#fff4f1"/><path d="M431.578 417.945c-5.145.035-10.133 1.523-14.91 4.004 6.055 3.047 11.797 7.699 17.09 13.102 18.938 19.344 9.262 52.348-17.219 57.969-.719.152-1.441.297-2.164.43 4.859.836 9.863 1.27 14.973 1.234 23.43-.16 44.508-9.844 59.48-25.258-11.18-18.98-32.734-51.645-57.25-51.48zm0 0" fill="#e8e4e0"/><path d="M431.836 437.711c24.52 0 45.852 12.914 56.902 31.973 14.395-14.617 23.262-34.492 23.262-56.406 0-44.879-37.121-81.258-82.914-81.258s-82.914 36.379-82.914 81.258c0 23.805 10.449 45.219 27.094 60.082.391-1.191.91-2.371 1.578-3.523 11.027-19.145 32.41-32.125 56.992-32.125zm0 0" fill="#467bff"/><path d="M429.086 332.02c-4.012 0-7.953.285-11.816.824 40.195 5.621 71.098 39.488 71.098 80.434 0 15.188-4.262 29.391-11.668 41.547 4.762 4.328 8.836 9.332 12.039 14.859 14.395-14.617 23.262-34.492 23.262-56.406 0-44.879-37.121-81.258-82.914-81.258zm0 0" fill="#2970d6"/><path d="M450.012 387.008c0-13.598-8.699-24.621-19.43-24.621s-19.43 11.023-19.43 24.621c0 13.602 8.699 24.625 19.43 24.625s19.43-11.023 19.43-24.625zm0 0" fill="#ffd5cc"/><path d="M142.563 469.684c-11.051-19.059-32.383-51.871-56.898-51.871-24.582 0-45.969 32.879-56.996 52.023-.664 1.152-1.188 2.332-1.574 3.523 14.734 13.152 34.32 21.172 55.82 21.172 23.43 0 44.57-9.535 59.648-24.848zm0 0" fill="#fff4f1"/><path d="M85.402 417.945c-5.141.035-10.129 1.523-14.91 4.004 6.055 3.047 11.797 7.699 17.09 13.102 18.938 19.344 9.266 52.348-17.219 57.969-.715.152-1.438.297-2.164.43 4.863.836 9.863 1.27 14.977 1.234 23.426-.16 44.504-9.844 59.48-25.258-11.184-18.98-32.738-51.645-57.254-51.48zm0 0" fill="#e8e4e0"/><path d="M85.66 437.711c24.52 0 45.852 12.914 56.902 31.973 14.395-14.617 23.262-34.492 23.262-56.406 0-44.879-37.121-81.258-82.914-81.258s-82.91 36.379-82.91 81.258c0 23.805 10.449 45.219 27.094 60.082.387-1.191.91-2.371 1.574-3.523 11.027-19.145 32.41-32.125 56.992-32.125zm0 0" fill="#fc9086"/><path d="M82.914 332.02c-4.016 0-7.957.285-11.82.824 40.195 5.621 71.098 39.488 71.098 80.434 0 15.188-4.262 29.391-11.668 41.547 4.762 4.328 8.836 9.332 12.039 14.859 14.395-14.617 23.262-34.492 23.262-56.406 0-44.879-37.121-81.258-82.91-81.258zm0 0" fill="#f57a73"/><path d="M103.836 387.008c0-13.598-8.699-24.621-19.43-24.621s-19.43 11.023-19.43 24.621c0 13.602 8.699 24.625 19.43 24.625s19.43-11.023 19.43-24.625zm0 0" fill="#ffd5cc"/></svg>