<svg height="512pt" viewBox="0 -9 512.00006 512" width="512pt" xmlns="http://www.w3.org/2000/svg"><path d="M252.688 295.215h-75.145c-8.586 0-15.547-6.961-15.547-15.547v-75.145c0-8.586 6.961-15.547 15.547-15.547h75.145c8.586 0 15.547 6.961 15.547 15.547v75.145c0 8.586-6.961 15.547-15.547 15.547zm0 0" fill="#dc8839"/><path d="M123.449 185.281c0-19.574-11.02-35.441-24.613-35.441s-24.613 15.867-24.613 35.441 11.02 35.445 24.613 35.445 24.613-15.871 24.613-35.445zm0 0" fill="#ffd5cc"/><path d="M28.488 467.293c-5.262.004-10.449-2.418-13.797-6.984-5.582-7.609-3.938-18.305 3.676-23.887l61.25-44.918-9.746-42.832c-.137-9.438 6.262-18.34 15.699-18.48 9.414-.152 27.453 8.539 27.594 17.977l.758 51.652c.082 5.531-2.516 10.762-6.98 14.031l-68.359 50.133c-3.047 2.234-6.59 3.309-10.094 3.309zm0 0" fill="#be7511"/><path d="M36.656 487.453c2.863 2.859 7.734 2.316 9.734-1.203 6.898-12.133 5.18-27.836-5.168-38.184s-26.051-12.066-38.184-5.168c-3.52 2-4.063 6.871-1.203 9.734zm0 0" fill="#b4b4b4"/><path d="M217.391 234.566h-119.016c-.594-.027-1.195-.043-1.797-.043-19.172 0-34.863 15.688-34.863 34.863v71.977l35.246 10.367 34.48-10.367v-71.977c0-1.129-.059-2.242-.164-3.344h86.113c8.652 0 15.734-7.082 15.734-15.738s-7.082-15.738-15.734-15.738zm0 0" fill="#ffe056"/><path d="M252.688 188.977h-31.094c8.586 0 15.547 6.961 15.547 15.547v75.145c0 8.586-6.961 15.547-15.547 15.547h31.094c8.586 0 15.547-6.961 15.547-15.547v-75.145c0-8.586-6.961-15.547-15.547-15.547zm0 0" fill="#be7511"/><path d="M100.348 341.363l-15.566 4.68h31.094l15.566-4.68v-71.977c0-1.129-.059-2.242-.164-3.344h-27.676c-1.816 0-3.254 1.488-3.254 3.309v.035zm0 0 117.043-106.797h-31.094c8.652 0 15.734 7.082 15.734 15.738s-7.082 15.738-15.734 15.738h31.094c8.652 0 15.734-7.086 15.734-15.738 0-8.656-7.082-15.738-15.734-15.738zm0 0" fill="#f9cd45"/><path d="M200.938 59.363c-3.035-3.035-7.957-3.035-10.992 0l-3.945 3.945-3.945-3.945c-3.035-3.035-7.957-3.035-10.992 0-3.035 3.035-3.035 7.957 0 10.992l3.945 3.945-3.945 3.945c-3.035 3.035-3.035 7.957 0 10.992 1.516 1.52 3.508 2.277 5.496 2.277 1.988 0 3.98-.758 5.496-2.277l3.945-3.945 3.945 3.945c1.516 1.52 3.508 2.277 5.496 2.277 1.988 0 3.98-.758 5.496-2.277 3.035-3.035 3.035-7.957 0-10.992l-3.945-3.945 3.945-3.945c3.035-3.035 3.035-7.957 0-10.992zm0 0 244.695 53.575l3.945-3.945c3.035-3.035 3.035-7.957 0-10.992-3.035-3.039-7.957-3.039-10.992 0l-3.949 3.945-3.945-3.945c-3.035-3.039-7.957-3.039-10.992 0-3.035 3.035-3.035 7.957 0 10.992l3.945 3.945-3.945 3.945c-3.035 3.035-3.035 7.957 0 10.992 1.52 1.516 3.508 2.277 5.5 2.277 1.988 0 3.977-.762 5.496-2.277l3.945-3.945 3.945 3.945c1.516 1.516 3.508 2.277 5.496 2.277s3.98-.762 5.496-2.277c3.035-3.035 3.035-7.961 0-10.992zm0 0-81.84-110.661c-3.035-3.035-7.957-3.035-10.992 0l-3.945 3.945-3.945-3.945c-3.035-3.035-7.957-3.035-10.992 0-3.035 3.035-3.035 7.957 0 10.992l3.945 3.945-3.945 3.945c-3.035 3.035-3.035 7.957 0 10.992 1.516 1.516 3.508 2.277 5.496 2.277 1.988 0 3.98-.758 5.496-2.277l3.945-3.945 3.945 3.945c1.52 1.516 3.508 2.277 5.5 2.277 1.988 0 3.977-.758 5.496-2.277 3.035-3.035 3.035-7.957 0-10.992l-3.945-3.945 3.945-3.945c3.035-3.035 3.035-7.957-.004-10.992zm0 0" fill="#d0cfd1"/><path d="M131.445 341.363l44.363 42.035 1.418 1.258c2.875 2.551 4.391 6.086 4.496 9.625l1.563 70.035c.211 8.059-6.223 14.762-14.363 14.969-8.145.211-14.918-6.152-15.129-14.215-.008-.234-9.039-62.418-9.039-62.418l-66.227-35.746c-10.277-4.75-17.461-14.984-16.813-25.547" fill="#dc8839"/><path d="M198.645 494.754c4.098 0 7.109-3.902 6.008-7.848-3.738-13.398-16.027-23.23-30.621-23.23s-26.883 9.832-30.621 23.23c-1.102 3.945 1.91 7.848 6.008 7.848zm0 0" fill="#b4b4b4"/><path d="M496.453 295.215h-75.145c-8.586 0-15.547-6.961-15.547-15.547v-75.145c0-8.586 6.961-15.547 15.547-15.547h75.145c8.586 0 15.547 6.961 15.547 15.547v75.145c0 8.586-6.961 15.547-15.547 15.547zm0 0" fill="#dc8839"/><path d="M367.211 185.281c0-19.574-11.02-35.441-24.613-35.441s-24.609 15.867-24.609 35.441 11.016 35.445 24.609 35.445 24.613-15.871 24.613-35.445zm0 0" fill="#ffd5cc"/><path d="M272.25 467.293c-5.258.004-10.445-2.418-13.793-6.984-5.582-7.609-3.938-18.305 3.672-23.887l61.254-44.918-9.746-42.832c-.137-9.438 6.258-18.34 15.695-18.48 9.418-.152 27.453 8.539 27.598 17.977l.758 51.652c.082 5.531-2.52 10.762-6.98 14.031l-68.363 50.133c-3.047 2.234-6.586 3.309-10.094 3.309zm0 0" fill="#be7511"/><path d="M280.418 487.453c2.863 2.859 7.734 2.316 9.734-1.203 6.902-12.133 5.18-27.836-5.168-38.184s-26.051-12.066-38.184-5.168c-3.52 2-4.063 6.871-1.199 9.734zm0 0" fill="#b4b4b4"/><path d="M461.152 234.566h-119.016c-.594-.027-1.191-.043-1.793-.043-19.176 0-34.863 15.688-34.863 34.863v71.977l35.246 10.367 34.48-10.367v-71.977c0-1.129-.059-2.242-.164-3.344h86.109c8.656 0 15.738-7.082 15.738-15.738s-7.082-15.738-15.738-15.738zm0 0" fill="#fc9086"/><path d="M496.453 188.977h-31.094c8.586 0 15.547 6.961 15.547 15.547v75.145c0 8.586-6.961 15.547-15.547 15.547h31.094c8.586 0 15.547-6.961 15.547-15.547v-75.145c0-8.586-6.961-15.547-15.547-15.547zm0 0" fill="#be7511"/><path d="M344.113 341.363l-15.57 4.68h31.094l15.57-4.68v-71.977c0-1.129-.059-2.242-.164-3.344h-27.676c-1.82 0-3.258 1.488-3.254 3.309v.035zm0 0 117.039-106.797h-31.094c8.656 0 15.738 7.082 15.738 15.738s-7.082 15.738-15.738 15.738h31.094c8.656 0 15.738-7.086 15.738-15.738 0-8.656-7.082-15.738-15.738-15.738zm0 0" fill="#f57a73"/><path d="M375.207 341.363l44.363 42.035 1.422 1.258c2.871 2.551 4.387 6.086 4.492 9.625l1.563 70.035c.215 8.059-6.219 14.762-14.363 14.969-8.145.211-14.918-6.152-15.129-14.215-.008-.234-9.039-62.418-9.039-62.418l-66.227-35.746c-10.277-4.75-17.457-14.984-16.809-25.547" fill="#dc8839"/><path d="M442.41 494.754c4.098 0 7.109-3.902 6.008-7.848-3.742-13.398-16.031-23.23-30.621-23.23-14.594 0-26.883 9.832-30.621 23.23-1.102 3.945 1.91 7.848 6.008 7.848zm0 0" fill="#b4b4b4"/></svg>