<svg height="512pt" viewBox="-1 0 512 512" width="512pt" xmlns="http://www.w3.org/2000/svg"><path d="M173.617 149.617h320.266c8.68 0 15.719 7.039 15.719 15.719v330.945c0 8.68-7.039 15.719-15.719 15.719h-478.164c-8.68 0-15.719-7.039-15.719-15.719v-330.945c0-8.68 7.039-15.719 15.719-15.719h27.168" fill="#fff4f1"/><path d="M493.883 149.617h-31.438c8.68 0 15.719 7.039 15.719 15.719v330.945c0 8.68-7.039 15.719-15.719 15.719h31.438c8.68 0 15.719-7.039 15.719-15.719v-330.945c0-8.68-7.039-15.719-15.719-15.719zm0 0" fill="#e3ded9"/><path d="M457.293 265.719c0 31.043-25.164 56.207-56.211 56.207-31.043 0-56.207-25.164-56.207-56.207 0-31.047 25.164-56.211 56.207-56.211 31.047 0 56.211 25.164 56.211 56.211zm0 0" fill="#9ddbdf"/><path d="M401.082 209.508c-5.789 0-11.375.879-16.637 2.504 22.922 7.094 39.574 28.453 39.574 53.707 0 25.25-16.652 46.609-39.574 53.703 5.258 1.629 10.848 2.508 16.637 2.508 31.047 0 56.211-25.168 56.211-56.211s-25.164-56.211-56.211-56.211zm0 0" fill="#7cd6e6"/><path d="M281.051 260.133h-225.723c-4.344 0-7.859-3.52-7.859-7.859 0-4.34 3.516-7.859 7.859-7.859h225.723c4.34 0 7.859 3.52 7.859 7.859 0 4.34-3.52 7.859-7.859 7.859zm0 0 172.359 122.91h-104.652c-4.34 0-7.859-3.52-7.859-7.859s3.52-7.859 7.859-7.859h104.652c4.34 0 7.855 3.52 7.855 7.859s-3.516 7.859-7.855 7.859zm0 0 0 33.727h-104.652c-4.34 0-7.859-3.52-7.859-7.859s3.52-7.859 7.859-7.859h104.652c4.34 0 7.855 3.52 7.855 7.859s-3.516 7.859-7.855 7.859zm0 0 0 33.726h-104.652c-4.34 0-7.859-3.52-7.859-7.859 0-4.344 3.52-7.859 7.859-7.859h104.652c4.34 0 7.855 3.516 7.855 7.859 0 4.34-3.516 7.859-7.855 7.859zm0 0-172.359-224.84h-225.723c-4.344 0-7.859-3.516-7.859-7.855 0-4.344 3.516-7.859 7.859-7.859h225.723c4.34 0 7.859 3.516 7.859 7.859 0 4.34-3.52 7.855-7.859 7.855zm0 0" fill="#e3ded9"/><path d="M304.711 394.695h-39.168c-3.844 0-6.961 3.121-6.961 6.965l-10.48 23.566 10.48 23.566c0 3.848 3.117 6.965 6.961 6.965h39.168c3.848 0 6.965-3.117 6.965-6.965v-47.137c0-3.844-3.117-6.961-6.965-6.961zm0 0" fill="#5e8ee1"/><path d="M172.684 150.836c-12.109-20.883-35.484-56.836-62.344-56.836-26.938 0-50.367 36.027-62.449 57-.727 1.266-1.301 2.559-1.723 3.863 16.141 14.41 37.602 23.199 61.156 23.199 25.672 0 48.84-10.449 65.359-27.227zm0 0" fill="#fff4f1"/><path d="M110.055 94.148c-5.633.039-11.102 1.668-16.336 4.387 6.633 3.34 12.926 8.438 18.723 14.355 20.754 21.195 10.152 57.355-18.863 63.516-.785.168-1.578.324-2.371.473 5.324.914 10.805 1.391 16.406 1.352 25.672-.176 48.766-10.781 65.172-27.672-12.254-20.801-35.871-56.594-62.73-56.41zm0 0" fill="#e8e4e0"/><path d="M110.34 115.805c26.859 0 50.234 14.148 62.344 35.031 15.77-16.016 25.488-37.789 25.488-61.805 0-49.172-40.672-89.031-90.848-89.031-50.172 0-90.844 39.859-90.844 89.031 0 26.086 11.449 49.547 29.688 65.832.422-1.301.996-2.594 1.723-3.859 12.082-20.977 35.512-35.199 62.449-35.199zm0 0" fill="#fc9086"/><path d="M107.324 0c-4.395 0-8.715.313-12.945.906 44.039 6.156 77.898 43.262 77.898 88.125 0 16.641-4.668 32.207-12.781 45.523 5.215 4.742 9.676 10.227 13.188 16.281 15.77-16.016 25.488-37.793 25.488-61.805 0-49.172-40.672-89.031-90.848-89.031zm0 0" fill="#f57a73"/><path d="M130.254 60.25c0-14.898-9.531-26.977-21.289-26.977-11.758 0-21.289 12.078-21.289 26.977 0 14.902 9.531 26.98 21.289 26.98 11.758 0 21.289-12.078 21.289-26.98zm0 0" fill="#ffd5cc"/><path d="M392.332 150.836c-12.109-20.883-35.484-56.836-62.348-56.836-26.934 0-50.363 36.027-62.445 57-.73 1.266-1.301 2.559-1.727 3.863 16.145 14.41 37.605 23.199 61.16 23.199 25.672 0 48.84-10.449 65.359-27.227zm0 0" fill="#fff4f1"/><path d="M329.699 94.148c-5.633.039-11.098 1.668-16.332 4.387 6.633 3.34 12.926 8.438 18.723 14.355 20.75 21.195 10.148 57.355-18.863 63.516-.789.168-1.578.324-2.375.473 5.328.914 10.809 1.391 16.406 1.352 25.672-.176 48.766-10.781 65.176-27.672-12.254-20.801-35.871-56.594-62.734-56.41zm0 0" fill="#e8e4e0"/><path d="M329.984 115.805c26.863 0 50.238 14.148 62.348 35.031 15.77-16.016 25.488-37.789 25.488-61.805 0-49.172-40.672-89.031-90.848-89.031-50.172 0-90.844 39.859-90.844 89.031 0 26.086 11.445 49.547 29.684 65.832.426-1.301 1-2.594 1.727-3.859 12.082-20.977 35.512-35.199 62.445-35.199zm0 0" fill="#9ddbdf"/><path d="M326.973 0c-4.395 0-8.715.313-12.945.906 44.039 6.156 77.898 43.262 77.898 88.125 0 16.641-4.668 32.207-12.781 45.523 5.215 4.742 9.676 10.227 13.188 16.281 15.77-16.016 25.488-37.793 25.488-61.805 0-49.172-40.672-89.031-90.848-89.031zm0 0" fill="#7cd6e6"/><path d="M349.902 60.25c0-14.898-9.531-26.977-21.289-26.977-11.758 0-21.289 12.078-21.289 26.977 0 14.902 9.531 26.98 21.289 26.98 11.758 0 21.289-12.078 21.289-26.98zm0 0" fill="#ffd5cc"/><path d="M252.547 368.141h-39.168c-3.848 0-6.965 3.117-6.965 6.965l-10.477 36.844 10.477 36.844c0 3.848 3.117 6.965 6.965 6.965h39.168c3.848 0 6.961-3.117 6.961-6.965v-73.691c0-3.844-3.117-6.961-6.961-6.961zm0 0" fill="#9ddbdf"/><path d="M93.27 303.742h-39.172c-3.844 0-6.961 3.121-6.961 6.965v138.086c0 3.848 3.117 6.965 6.961 6.965h39.172c3.844 0 6.961-3.117 6.961-6.965l10.48-69.043-10.48-48.941v-20.102c0-3.844-3.117-6.965-6.961-6.965zm0 0" fill="#fc9086"/><path d="M199.453 351.543h-39.168c-3.844 0-6.961 3.121-6.961 6.965l-10.48 51.598 10.48 38.691c0 3.844 3.117 6.961 6.961 6.961h39.168c3.848 0 6.965-3.117 6.965-6.961v-90.289c-.004-3.848-3.117-6.965-6.965-6.965zm0 0" fill="#ffe056"/><path d="M146.359 326.316h-39.168c-3.844 0-6.961 3.117-6.961 6.961v115.516c0 3.848 3.117 6.965 6.961 6.965h39.168c3.848 0 6.965-3.117 6.965-6.965v-115.516c0-3.844-3.117-6.961-6.965-6.961zm0 0" fill="#ffd5cc"/></svg>