<svg height="512pt" viewBox="-30 0 512 512" width="512pt" xmlns="http://www.w3.org/2000/svg"><path d="M446.473 339.121l-7.676-77.121h-180.371l-7.781 77.098c-.93 9.211 6.297 17.203 15.555 17.203h164.715c9.25 0 16.473-7.98 15.559-17.18zm0 0" fill="#be7511"/><path d="M48.828 285.715c-4.891-13.039-19.43-19.645-32.469-14.754-13.039 4.895-19.645 19.43-14.754 32.473 4.895 13.039 19.434 19.645 32.473 14.75 13.039-4.891 19.645-19.43 14.75-32.469zm0 0 154.836.004c-4.895-13.039-19.43-19.645-32.469-14.75-13.043 4.891-19.645 19.43-14.754 32.469 4.895 13.039 19.43 19.645 32.469 14.754 13.043-4.895 19.645-19.434 14.754-32.473zm0 0" fill="#ffd5cc"/><path d="M300.723 83.422c0 46.07-37.348 83.418-83.418 83.418-46.074 0-83.422-37.348-83.422-83.418 0-46.074 37.348-83.422 83.422-83.422 46.07 0 83.418 37.348 83.418 83.422zm0 0" fill="#fff4f1"/><path d="M217.305 0c-5.281 0-10.441.512-15.449 1.449 38.688 7.25 67.973 41.18 67.973 81.973 0 40.789-29.285 74.719-67.973 81.969 5.008.938 10.168 1.449 15.449 1.449 46.07 0 83.418-37.348 83.418-83.418s-37.348-83.422-83.418-83.422zm0 0" fill="#e6e2dd"/><path d="M359.426 117.406c0 9.102-7.375 16.48-16.477 16.48s-16.48-7.379-16.48-16.48 7.379-16.477 16.48-16.477c9.102 0 16.477 7.375 16.477 16.477zm0 0-247.492 13.797c0 9.102-7.379 16.48-16.48 16.48s-16.477-7.379-16.477-16.48c0-9.098 7.375-16.477 16.477-16.477s16.48 7.379 16.48 16.477zm0 0" fill="#fff4f1"/><path d="M237.949 54.004c-8.965 0-16.738 5.059-20.645 12.473-3.906-7.414-11.684-12.473-20.645-12.473-12.883 0-23.324 10.445-23.324 23.324 0 3.57.652 7.031 2.234 9.98 7.836 14.594 41.734 31.969 41.734 31.969s33.941-17.168 41.73-31.969c1.559-2.965 2.238-6.41 2.238-9.98 0-12.879-10.445-23.324-23.324-23.324zm0 0" fill="#f86654"/><path d="M237.949 54.004c-5.93 0-11.328 2.223-15.441 5.867 4.824 4.27 7.867 10.508 7.867 17.457 0 3.57-.676 7.016-2.234 9.98-4.234 8.043-16.184 16.781-26.223 23.086 8.379 5.289 15.387 8.883 15.387 8.883s33.941-17.168 41.73-31.969c1.559-2.965 2.238-6.41 2.238-9.98 0-12.879-10.445-23.324-23.324-23.324zm0 0" fill="#ea543c"/><path d="M197.418 496.367v-57.754c0-37.543-30.434-67.98-67.977-67.98h-49.883c-37.391 0-67.98 30.594-67.98 67.98v57.754c0 8.633 7 15.633 15.633 15.633h14.891l62.637-20.844 60.949 20.844h16.102c8.633 0 15.629-7 15.629-15.633zm0 0" fill="#5e8ee1"/><path d="M129.441 370.633h-33.988c39.09 0 71.07 28.891 71.07 67.98v73.387h15.266c8.633 0 15.633-7 15.633-15.633v-57.754c-.004-37.543-30.438-67.98-67.98-67.98zm0 0" fill="#467bff"/><path d="M142.949 380.766c0 21.465-17.402 38.867-38.867 38.867-21.465 0-38.863-17.402-38.863-38.867s17.398-38.863 38.863-38.863 38.867 17.398 38.867 38.863zm0 0-114.004-133.536l.199 66.086c.125 41.5 34.18 75.355 75.68 75.23s75.352-34.18 75.227-75.68l-.195-65.633h-150.91zm0 0" fill="#ffd5cc"/><path d="M81.984 315.633c-.012-4.84-3.949-8.754-8.789-8.738-4.84.016-8.75 3.949-8.734 8.789.012 4.84 3.949 8.75 8.789 8.738 4.84-.016 8.75-3.949 8.734-8.789zm0 0 61.903-.188c-.016-4.84-3.949-8.75-8.789-8.738-4.84.016-8.754 3.953-8.738 8.793.016 4.836 3.949 8.75 8.789 8.734 4.84-.016 8.75-3.949 8.738-8.789zm0 0" fill="#fc9086"/><path d="M179.855 247.23h-30.898l.199 65.637c.109 36.277-25.75 66.867-59.984 74.07 5.055 1.063 10.289 1.625 15.652 1.609 41.5-.125 75.352-34.184 75.227-75.68zm0 0" fill="#fdc1bb"/><path d="M160.59 185.82c-11.559.422-21.781 5.75-28.742 13.906-6.863-6.063-15.973-9.613-25.848-9.25-11.414.414-21.434 5.961-27.922 14.332-6.883-13.703-21.293-22.875-37.617-22.281-22.32.816-39.75 19.566-38.938 41.887.816 22.316 19.57 39.746 41.887 38.934 13.27-.484 24.813-7.313 31.816-17.461 6.625 11.535 19.258 19.109 33.477 18.59 9.875-.359 18.699-4.563 25.105-11.113 7.535 7.629 18.121 12.199 29.68 11.777 21.902-.801 39.012-19.207 38.211-41.109s-19.203-39.012-41.109-38.211zm0 0" fill="#dc8839"/><path d="M201.699 224.031c-.801-21.902-19.203-39.012-41.109-38.211-4.965.18-9.684 1.273-14.004 3.102 13.758 5.824 23.637 19.195 24.215 35.109.621 16.938-9.473 31.77-24.203 38.004 5.176 2.191 10.898 3.324 16.891 3.105 21.902-.801 39.012-19.203 38.211-41.109zm0 0" fill="#be7511"/><path d="M165.688 512c0-34.129-27.668-61.793-61.793-61.793-34.129 0-61.793 27.664-61.793 61.793" fill="#fff4f1"/><path d="M103.895 450.207c-5.336 0-10.512.676-15.449 1.945 26.652 6.859 46.344 31.055 46.344 59.848h30.898c0-34.129-27.668-61.793-61.793-61.793zm0 0" fill="#e3ded9"/><path d="M104.055 363.699c-6.047 0-11.828-2.246-16.289-6.332-2.594-2.371-2.77-6.395-.395-8.988 2.371-2.59 6.395-2.766 8.988-.395 2.105 1.93 4.84 2.988 7.699 2.988h.035c2.871-.008 5.613-1.086 7.719-3.035 2.574-2.387 6.602-2.23 8.988.344 2.387 2.578 2.234 6.605-.344 8.992-4.457 4.125-10.254 6.406-16.328 6.426h-.074zm0 0" fill="#fc9086"/><path d="M294.695 285.723c-4.891-13.039-19.43-19.645-32.469-14.754-13.043 4.895-19.645 19.43-14.754 32.473 4.895 13.039 19.43 19.645 32.473 14.75 13.039-4.891 19.645-19.43 14.75-32.469zm0 0 154.832.004c-4.891-13.039-19.43-19.645-32.469-14.75-13.039 4.891-19.645 19.43-14.75 32.469 4.891 13.039 19.43 19.645 32.469 14.754 13.039-4.895 19.645-19.43 14.75-32.473zm0 0" fill="#ffd5cc"/><path d="M443.273 496.367v-54.664c0-39.25-31.82-71.07-71.07-71.07h-43.703c-39.086 0-71.07 31.98-71.07 71.07v54.664c0 8.633 7 15.633 15.637 15.633h14.887l62.641-20.844 60.945 20.844h16.102c8.633 0 15.633-7 15.633-15.633zm0 0" fill="#5e8ee1"/><path d="M375.293 370.633h-33.984c39.086 0 71.07 28.891 71.07 67.98v73.387h15.262c8.633 0 15.633-7 15.633-15.633v-57.754c0-37.543-30.438-67.98-67.98-67.98zm0 0" fill="#467bff"/><path d="M388.801 380.766c0 21.465-17.402 38.867-38.863 38.867-21.465 0-38.867-17.402-38.867-38.867s17.402-38.863 38.867-38.863c21.461 0 38.863 17.398 38.863 38.863zm0 0-114-133.536l.195 66.086c.125 41.5 34.18 75.355 75.68 75.23s75.352-34.18 75.227-75.68l-.195-65.633h-150.906zm0 0" fill="#ffd5cc"/><path d="M327.84 315.629c-.012-4.84-3.949-8.75-8.789-8.734-4.84.016-8.75 3.949-8.734 8.789.012 4.84 3.949 8.75 8.789 8.734 4.84-.012 8.75-3.949 8.734-8.789zm0 0 61.902-.184c-.016-4.84-3.949-8.75-8.789-8.738-4.84.016-8.754 3.949-8.738 8.789s3.949 8.754 8.789 8.738 8.75-3.949 8.738-8.789zm0 0" fill="#fc9086"/><path d="M425.707 247.23h-30.895l.195 65.637c.109 36.277-25.75 66.867-59.984 74.07 5.059 1.063 10.293 1.625 15.652 1.609 41.5-.125 75.352-34.184 75.227-75.68zm0 0" fill="#fdc1bb"/><path d="M411.539 512c0-34.129-27.664-61.793-61.793-61.793s-61.793 27.664-61.793 61.793" fill="#fff4f1"/><path d="M349.746 450.207c-5.336 0-10.512.676-15.449 1.945 26.652 6.859 46.344 31.055 46.344 59.848h30.898c0-34.129-27.664-61.793-61.793-61.793zm0 0" fill="#e3ded9"/><path d="M349.91 363.699c-6.047 0-11.832-2.246-16.293-6.332-2.59-2.371-2.77-6.395-.395-8.988 2.371-2.59 6.398-2.766 8.988-.395 2.105 1.93 4.84 2.988 7.699 2.988h.035c2.875-.008 5.613-1.086 7.719-3.035 2.578-2.387 6.602-2.23 8.988.344 2.391 2.578 2.234 6.605-.344 8.992-4.453 4.125-10.25 6.406-16.324 6.426h-.074zm0 0" fill="#fc9086"/><path d="M442.43 274.125l-.023-8.688c-.156-51.656-42.551-93.797-94.211-93.641-51.656.152-93.797 42.547-93.641 94.203l.023 8.121h187.852zm0 0" fill="#dc8839"/><path d="M442.406 265.438c-.156-51.656-42.551-93.797-94.211-93.641-5.16.016-10.227.457-15.164 1.285 44.262 7.406 78.336 46.055 78.477 92.355l.023 8.688h30.898zm0 0" fill="#be7511"/></svg>