<svg height="511pt" viewBox="0 -109 511.99992 511" width="511pt" xmlns="http://www.w3.org/2000/svg"><path d="M373.102 163.387l-105.695-82.57-20.938-38.473c-7.004-12.871-20.41-20.875-34.977-20.875h-49.973c-6.445 0-14.563 5.227-21.973 11.477l-69.129-.328v140.09h40.59l166.531 117.633c8.66 6.625 21.121 4.906 27.695-3.824 6.543-8.695 4.871-21.188-3.695-27.832 8.656 6.527 21.039 4.789 27.582-3.906 6.543-8.695 4.871-21.184-3.691-27.832 8.656 6.527 21.035 4.789 27.582-3.902 6.543-8.695 4.871-21.188-3.695-27.832 8.656 6.527 21.039 4.789 27.582-3.906 6.57-8.73 4.863-21.293-3.797-27.918zm0 0" fill="#ffd5cc"/><path d="M373.102 163.387l-105.695-82.57-20.938-38.473c-7.004-12.871-20.41-20.875-34.977-20.875h-31.828c14.563 0 27.969 8.004 34.977 20.875l20.934 38.473 105.695 82.57c8.66 6.625 10.367 19.188 3.797 27.918-3.035 4.035-7.336 6.574-11.934 7.48-5.012.988-8.457 5.453-8.027 10.547.398 4.742-.863 9.641-3.926 13.707-3.039 4.039-7.336 6.574-11.934 7.48-5.012.988-8.461 5.457-8.031 10.547.402 4.742-.863 9.641-3.926 13.711-3.035 4.035-7.332 6.574-11.93 7.48-5.012.984-8.461 5.453-8.031 10.543.398 4.742-.863 9.645-3.926 13.711l-.477.57 4.613 3.258c8.66 6.625 21.121 4.902 27.695-3.828 6.543-8.691 4.871-21.184-3.695-27.832 8.656 6.531 21.039 4.793 27.582-3.902 6.543-8.695 4.871-21.188-3.691-27.832 8.656 6.527 21.035 4.789 27.582-3.906 6.543-8.691 4.871-21.184-3.695-27.828 8.656 6.527 21.039 4.789 27.582-3.906 6.57-8.73 4.863-21.293-3.797-27.918zm0 0" fill="#fececa"/><path d="M137.711 217.406l-2.602-1.973c-7.637-5.797-9.145-16.789-3.348-24.426l17.891-23.574c5.797-7.637 16.785-9.145 24.426-3.348l2.602 1.973c7.637 5.797 9.145 16.789 3.348 24.426l-17.891 23.574c-5.797 7.641-16.789 9.145-24.426 3.348zm0 0 30.367 23.047l-2.602-1.977c-7.641-5.797-9.145-16.789-3.352-24.426l17.891-23.574c5.797-7.637 16.789-9.145 24.426-3.348l2.602 1.977c7.637 5.793 9.145 16.785 3.348 24.422l-17.887 23.574c-5.797 7.641-16.789 9.145-24.426 3.352zm0 0 30.363 23.043l-2.602-1.977c-7.637-5.797-9.145-16.785-3.348-24.426l17.891-23.57c5.797-7.641 16.789-9.145 24.426-3.352l2.602 1.977c7.637 5.797 9.145 16.789 3.348 24.426l-17.891 23.574c-5.797 7.637-16.789 9.145-24.426 3.348zm0 0 30.368 23.043l-2.602-1.973c-7.641-5.797-9.145-16.789-3.352-24.426l17.891-23.574c5.797-7.637 16.789-9.145 24.426-3.348l2.602 1.973c7.637 5.797 9.145 16.789 3.352 24.426l-17.891 23.574c-5.797 7.637-16.789 9.145-24.426 3.348zm0 0" fill="#ffe0da"/><path d="M80.117 189.648l-66.949-11.738c-8.656-1.52-14.445-9.766-12.926-18.426l25.563-145.816c1.52-8.656 9.766-14.445 18.426-12.926l66.945 11.734c8.66 1.52 14.449 9.77 12.93 18.426l-25.563 145.816c-1.52 8.66-9.77 14.445-18.426 12.93zm0 0" fill="#5e8ee1"/><path d="M377.895 55.031s-27.637-33.563-44.418-33.563h-52.281c-15.234 0-29.262 8.305-36.59 21.664l-43.984 80.168c-2.844 5.18.148 11.668 5.949 12.793 11.441 2.223 29.371 3.137 43.012-8.023 21.715-17.766 33.559-32.57 33.559-32.57s.984 25.66 33.559 25.66l69.629 57.25h26.113l-.887-122.57s-33.113-.266-33.66-.809zm0 0" fill="#ffe0da"/><path d="M411.555 55.84s-33.113-.266-33.66-.813c0 0-27.637-33.559-44.418-33.559h-31.828c16.777 0 44.414 33.559 44.414 33.559l.027.016c20.469 9.297 33.844 29.445 34.004 51.926l.484 66.711 5.75 4.727h26.113zm0 0" fill="#fececa"/><path d="M431.883 189.648l66.949-11.738c8.656-1.516 14.445-9.766 12.926-18.422l-25.563-145.82c-1.52-8.656-9.766-14.445-18.426-12.926l-66.945 11.734c-8.66 1.52-14.449 9.77-12.93 18.426l25.563 145.816c1.52 8.66 9.766 14.445 18.426 12.93zm0 0" fill="#5e8ee1"/><path d="M511.758 159.484l-25.563-145.816c-1.52-8.656-9.766-14.445-18.426-12.926l-16.672 2.922c3.52 2.328 6.117 6.031 6.902 10.516l27.738 158.223c.484 2.746.223 5.449-.625 7.914l13.719-2.406c8.656-1.516 14.445-9.766 12.926-18.426zm0 0" fill="#467bff"/></svg>