<svg height="512pt" viewBox="0 0 512 512" width="512pt" xmlns="http://www.w3.org/2000/svg"><path d="M254.492 137.5h87.305v-93.594h-87.305l-16.477 45.41zm0 0" fill="#fff4f1"/><path d="M341.797 108.059h-106.688l19.383 29.441h87.305zm0 0" fill="#e3ded9"/><path d="M254.531 43.906h-170.418c-14.32 0-25.93 11.609-25.93 25.93v41.734c0 14.32 11.609 25.93 25.93 25.93h170.418zm0 0" fill="#5e8ee1"/><path d="M254.531 108.059h-170.09c-14.5 0-26.258-11.758-26.258-26.262v29.445c0 14.504 11.758 26.258 26.258 26.258h170.09zm0 0" fill="#467bff"/><path d="M137.504 257.508v-87.305h-93.598v87.305l45.41 16.477zm0 0" fill="#fff4f1"/><path d="M108.059 170.203v106.688l29.445-19.383v-87.305zm0 0" fill="#e3ded9"/><path d="M43.906 257.465v170.422c0 14.32 11.609 25.93 25.93 25.93h41.734c14.32 0 25.934-11.609 25.934-25.93v-170.422zm0 0" fill="#5e8ee1"/><path d="M108.059 257.465v170.09c0 14.504-11.758 26.262-26.262 26.262h29.445c14.504 0 26.262-11.758 26.262-26.262v-170.09zm0 0" fill="#467bff"/><path d="M190.52 97.813c-7.434-5.281-17.832-3.516-23.109 3.914l-11.582 16.313-.07-94.707c0-9.117-7.461-16.578-16.578-16.578-9.117 0-16.574 7.461-16.574 16.578v-6.758c0-9.117-7.461-16.574-16.578-16.574-9.117 0-16.574 7.461-16.574 16.574v6.145c0-9.117-7.461-16.578-16.574-16.578-9.117 0-16.578 7.461-16.578 16.578v13.539l-.02 7.066c0-9.117-7.461-16.578-16.578-16.578s-16.574 7.461-16.574 16.578l2 116.832c0 36.613 30.621 66.293 67.234 66.293 29.977 0 58.121-19.906 66.313-47.215l35.762-58.313c5.277-7.434 3.516-17.832-3.918-23.109zm0 0" fill="#ffd5cc"/><path d="M190.52 97.813c-7.434-5.281-17.832-3.516-23.109 3.914l-11.582 16.313-.07-94.707c0-9.117-7.461-16.578-16.578-16.578-7.977 0-14.684 5.711-16.234 13.246v10.191c13.133 30.258 25.734 89.332 17.086 127.668-8.262 36.617-29.727 53.344-58.523 67.695 3.543.578 7.164.895 10.852.895 29.98 0 58.121-19.902 66.316-47.215l35.762-58.309c5.277-7.438 3.516-17.836-3.918-23.113zm0 0" fill="#fececa"/><path d="M257.508 374.496h-87.305v93.598h87.305l16.477-45.41zm0 0" fill="#fff4f1"/><path d="M170.203 403.941h106.688l-19.383-29.445h-87.305zm0 0" fill="#e3ded9"/><path d="M257.469 468.094h170.418c14.32 0 25.93-11.613 25.93-25.934v-41.734c0-14.32-11.609-25.93-25.93-25.93h-170.418zm0 0" fill="#5e8ee1"/><path d="M257.469 403.941h170.09c14.5 0 26.258 11.758 26.258 26.258v-29.441c0-14.504-11.758-26.262-26.258-26.262h-170.09zm0 0" fill="#467bff"/><path d="M97.813 321.477c-5.277 7.434-3.516 17.836 3.918 23.113l16.309 11.582-94.707.07c-9.117 0-16.574 7.461-16.574 16.578 0 9.117 7.457 16.574 16.574 16.574h-6.754c-9.117 0-16.578 7.457-16.578 16.574s7.461 16.574 16.574 16.574h6.145c-9.117 0-16.578 7.461-16.578 16.578 0 9.117 7.461 16.574 16.578 16.574h13.539l7.066.023c-9.117 0-16.578 7.461-16.578 16.574 0 9.117 7.461 16.578 16.578 16.578l116.832-2c36.613 0 66.293-30.621 66.293-67.234 0-29.977-19.906-58.121-47.215-66.316l-58.313-35.762c-7.43-5.277-17.832-3.512-23.109 3.918zm0 0" fill="#ffd5cc"/><path d="M179.234 353.324l-58.309-35.762c-7.434-5.281-17.836-3.516-23.113 3.914l-.242.379 51.309 31.469c27.313 8.195 47.215 36.336 47.215 66.316 0 36.254-29.109 66.613-65.227 67.203v.531l29.293-.504c36.609 0 66.289-30.621 66.289-67.234 0-29.977-19.902-58.121-47.215-66.313zm0 0" fill="#ffccc4"/><path d="M374.496 254.492v87.305h93.598v-87.305l-45.41-16.477zm0 0" fill="#fff4f1"/><path d="M403.941 341.797v-106.688l-29.445 19.383v87.305zm0 0" fill="#e3ded9"/><path d="M468.094 254.531v-170.418c0-14.32-11.609-25.93-25.93-25.93h-41.734c-14.32 0-25.934 11.609-25.934 25.93v170.418zm0 0" fill="#5e8ee1"/><path d="M403.941 254.531v-170.09c0-14.504 11.758-26.258 26.262-26.258h-29.445c-14.504 0-26.262 11.754-26.262 26.258v170.09zm0 0" fill="#467bff"/><path d="M321.48 414.188c7.434 5.277 17.832 3.516 23.109-3.918l11.582-16.309.07 94.707c0 9.117 7.461 16.574 16.578 16.574 9.117 0 16.574-7.457 16.574-16.574v6.754c0 9.117 7.461 16.578 16.578 16.578 9.117 0 16.574-7.461 16.574-16.578v-6.141c0 9.117 7.461 16.574 16.574 16.574 9.117 0 16.578-7.457 16.578-16.574v-13.539l.02-7.066c0 9.117 7.461 16.578 16.578 16.578s16.574-7.461 16.574-16.578l-2-116.836c0-36.609-30.621-66.289-67.234-66.289-29.977 0-58.121 19.902-66.313 47.215l-35.762 58.309c-5.277 7.434-3.516 17.836 3.918 23.113zm0 0" fill="#ffd5cc"/><path d="M486.871 351.84c0-36.609-30.621-66.289-67.234-66.289-5.18 0-10.301.605-15.277 1.73 29.566 6.809 52.156 33.117 52.156 64.559l2 116.836c0 2.352-.504 4.59-1.398 6.621 2.57 5.844 8.414 9.953 15.18 9.953 9.117 0 16.574-7.457 16.574-16.574zm0 0" fill="#ffccc4"/><path d="M414.188 190.52c5.281-7.434 3.516-17.832-3.914-23.113l-16.313-11.582 94.707-.07c9.117 0 16.578-7.457 16.578-16.574s-7.461-16.578-16.578-16.578h6.758c9.117 0 16.574-7.457 16.574-16.574s-7.461-16.574-16.574-16.574h-6.145c9.117 0 16.578-7.461 16.578-16.578s-7.461-16.574-16.578-16.574h-13.539l-7.066-.023c9.117 0 16.578-7.457 16.578-16.574s-7.461-16.574-16.578-16.574l-116.832 2c-36.613 0-66.293 30.621-66.293 67.23 0 29.98 19.906 58.121 47.215 66.316l58.313 35.762c7.43 5.277 17.832 3.516 23.109-3.918zm0 0" fill="#ffd5cc"/><path d="M414.188 190.52c5.277-7.434 3.516-17.832-3.918-23.113l-16.309-11.582 94.707-.07c9.117 0 16.574-7.457 16.574-16.574 0-7.977-5.707-14.684-13.242-16.238h-10.191c-30.258 13.137-89.332 25.738-127.668 17.09-36.617-8.266-53.344-29.727-67.695-58.523-.582 3.539-.895 7.164-.895 10.852 0 29.977 19.902 58.121 47.211 66.316l58.313 35.762c7.434 5.277 17.836 3.516 23.113-3.918zm0 0" fill="#fececa"/></svg>