<svg height="512pt" viewBox="-45 0 511 512" width="512pt" xmlns="http://www.w3.org/2000/svg"><path d="M297.625 231.664c-3.023-3.023-7.922-3.023-10.941 0l-47.023 47.023v-205.09c0-4.273-3.465-7.738-7.742-7.738-4.273 0-7.738 3.465-7.738 7.738v62.453l-47.023-47.027c-3.023-3.023-7.922-3.02-10.941 0-3.023 3.023-3.023 7.926 0 10.945l57.902 57.906.063.059v163.285l-33.891-33.895c-3.023-3.023-7.922-3.023-10.945 0-3.023 3.023-3.023 7.922 0 10.945l44.836 44.836v13.031c0 4.273 3.465 7.738 7.742 7.738 4.273 0 7.738-3.465 7.738-7.738v-55.563l57.965-57.969c3.023-3.02 3.023-7.922 0-10.941zm0 0" fill="#e3b569"/><path d="M291.535 512h-112.152c-6.816 0-12.395-5.578-12.395-12.398l-16.531-98.711c0-6.82 5.578-12.398 12.398-12.398h145.211c6.816 0 12.395 5.578 12.395 12.398l-16.527 98.711c0 6.82-5.582 12.398-12.398 12.398zm0 0" fill="#dc8839"/><path d="M308.066 388.492h-30.957c6.816 0 12.395 5.578 12.395 12.398l-16.527 98.711c0 6.82-5.578 12.398-12.398 12.398h30.957c6.816 0 12.398-5.578 12.398-12.398l16.527-98.711c0-6.82-5.578-12.398-12.395-12.398zm0 0" fill="#be7511"/><path d="M319.77 408.285h-168.621c-8.512 0-15.477-6.965-15.477-15.477v-19.023c0-8.512 6.965-15.477 15.477-15.477h168.621c8.516 0 15.48 6.965 15.48 15.477v19.023c0 8.512-6.965 15.477-15.48 15.477zm0 0" fill="#dc8839"/><path d="M319.77 358.309h-30.957c8.516 0 15.48 6.965 15.48 15.477v19.023c0 8.512-6.965 15.477-15.48 15.477h30.957c8.516 0 15.48-6.965 15.48-15.477v-19.023c0-8.512-6.965-15.477-15.48-15.477zm0 0" fill="#be7511"/><path d="M262.367 69.324c-12 12-28.551 14.91-36.965 6.496-8.414-8.414-5.508-24.965 6.492-36.965 12.004-12 41.391-10.922 41.391-10.922s1.082 29.391-10.918 41.391zm0 0 34.52 89.067c-7.379.27-16.055-3.273-23.113-10.148-11.234-10.953-10.586-38.137-10.586-38.137s27.16-1.348 38.395 9.602c6.523 6.359 10.234 14.172 10.695 21.148m-105.368 19.386c13.43 2.707 22.777 12.539 20.875 21.957-1.898 9.418-14.328 14.852-27.758 12.141-13.43-2.707-25.828-22.953-25.828-22.953s19.281-13.855 32.711-11.145zm0 0 185.981 105.508c-12.004-12-28.551-14.906-36.965-6.492-8.414 8.414-5.508 24.965 6.492 36.965l41.391 10.918s1.082-29.391-10.918-41.391zm0 0-309.856 61.699c12-12.004 14.906-28.551 6.492-36.965-8.414-8.414-24.965-5.508-36.965 6.492l-10.918 41.391s29.391 1.082 41.391-10.918zm0 0-45.547-269.937c16.973 0 30.73-9.648 30.73-21.547 0-11.898-13.758-21.547-30.73-21.547-16.973 0-36.988 21.547-36.988 21.547s20.016 21.547 36.988 21.547zm0 0" fill="#55e08f"/><path d="M157.922 117.168c-9.406-16.219-27.563-44.148-48.43-44.148-20.922 0-39.125 27.988-48.508 44.277-.566.984-1.012 1.988-1.34 3 12.539 11.195 29.207 18.023 47.508 18.023 19.941 0 37.938-8.121 50.77-21.152zm0 0" fill="#fc9086"/><path d="M109.27 73.137c-4.375.027-8.621 1.293-12.688 3.406 5.152 2.594 10.039 6.551 14.543 11.152 16.121 16.465 7.887 44.551-14.652 49.336-.613.133-1.227.254-1.844.367 4.137.711 8.395 1.078 12.746 1.051 19.938-.137 37.879-8.375 50.625-21.496-9.52-16.156-27.863-43.961-48.73-43.816zm0 0" fill="#f7938e"/><path d="M109.492 89.957c20.867 0 39.023 10.992 48.43 27.211 12.25-12.438 19.801-29.355 19.801-48.008-.004-38.195-31.598-69.16-70.57-69.16-38.977 0-70.57 30.965-70.57 69.16 0 20.262 8.895 38.488 23.063 51.137.328-1.012.773-2.016 1.34-3 9.383-16.289 27.586-27.34 48.508-27.34zm0 0" fill="#fff4f1"/><path d="M107.152 0c-3.418 0-6.773.242-10.059.703 34.211 4.785 60.512 33.609 60.512 68.457 0 12.926-3.625 25.016-9.93 35.363 4.051 3.684 7.52 7.941 10.246 12.645 12.25-12.438 19.801-29.355 19.801-48.008-.004-38.195-31.598-69.16-70.57-69.16zm0 0" fill="#e3ded9"/><path d="M124.961 46.805c0-11.574-7.402-20.957-16.535-20.957-9.137 0-16.539 9.383-16.539 20.957 0 11.574 7.402 20.957 16.539 20.957 9.133 0 16.535-9.383 16.535-20.957zm0 0" fill="#ffd5cc"/><path d="M401.34 248.906c-9.41-16.219-27.566-44.148-48.43-44.148-20.926 0-39.125 27.988-48.512 44.277-.566.984-1.008 1.988-1.34 3 12.539 11.195 29.211 18.023 47.512 18.023 19.938 0 37.934-8.117 50.77-21.152zm0 0" fill="#fc9086"/><path d="M352.688 204.875c-4.379.027-8.621 1.293-12.691 3.406 5.156 2.594 10.043 6.551 14.547 11.152 16.117 16.465 7.883 44.551-14.656 49.336-.609.133-1.227.254-1.84.367 4.137.711 8.391 1.078 12.742 1.051 19.941-.137 37.883-8.375 50.625-21.496-9.516-16.156-27.859-43.961-48.727-43.816zm0 0" fill="#f7938e"/><path d="M352.91 221.695c20.863 0 39.02 10.988 48.43 27.211 12.25-12.438 19.797-29.355 19.797-48.008 0-38.195-31.594-69.16-70.566-69.16-38.977 0-70.57 30.965-70.57 69.16 0 20.262 8.895 38.488 23.063 51.137.328-1.012.773-2.016 1.34-3 9.383-16.289 27.582-27.34 48.508-27.34zm0 0" fill="#fff4f1"/><path d="M350.566 131.738c-3.414 0-6.77.242-10.055.703 34.207 4.785 60.512 33.609 60.512 68.457 0 12.926-3.629 25.016-9.93 35.363 4.051 3.684 7.516 7.941 10.246 12.645 12.25-12.438 19.797-29.355 19.797-48.008 0-38.195-31.594-69.16-70.57-69.16zm0 0" fill="#e3ded9"/><path d="M368.379 178.543c0-11.574-7.406-20.957-16.539-20.957-9.133 0-16.535 9.383-16.535 20.957s7.402 20.953 16.535 20.953 16.539-9.379 16.539-20.953zm0 0" fill="#ffd5cc"/><path d="M179.102 302.387c-9.41-16.219-27.566-44.145-48.434-44.145-20.922 0-39.121 27.984-48.508 44.277-.566.98-1.008 1.988-1.34 2.996 12.539 11.195 29.211 18.023 47.512 18.023 19.938 0 37.934-8.117 50.77-21.152zm0 0" fill="#fc9086"/><path d="M130.449 258.355c-4.379.027-8.621 1.293-12.691 3.406 5.156 2.594 10.043 6.555 14.547 11.152 16.117 16.465 7.883 44.555-14.656 49.34-.609.129-1.227.25-1.844.363 4.141.711 8.395 1.082 12.746 1.051 19.941-.137 37.883-8.375 50.625-21.496-9.516-16.156-27.859-43.957-48.727-43.816zm0 0" fill="#f7938e"/><path d="M130.668 275.18c20.867 0 39.023 10.988 48.434 27.211 12.25-12.441 19.797-29.355 19.797-48.008 0-38.199-31.594-69.16-70.566-69.16-38.977 0-70.57 30.961-70.57 69.16 0 20.262 8.895 38.488 23.059 51.137.332-1.012.777-2.016 1.344-3 9.383-16.293 27.582-27.34 48.504-27.34zm0 0" fill="#fff4f1"/><path d="M128.328 185.223c-3.414 0-6.77.242-10.059.699 34.211 4.785 60.516 33.609 60.516 68.461 0 12.926-3.629 25.016-9.93 35.359 4.051 3.684 7.516 7.945 10.246 12.648 12.25-12.441 19.797-29.355 19.797-48.008 0-38.199-31.594-69.16-70.57-69.16zm0 0" fill="#e3ded9"/><path d="M146.137 232.023c0-11.574-7.402-20.957-16.535-20.957s-16.535 9.383-16.535 20.957c0 11.574 7.402 20.957 16.535 20.957s16.535-9.383 16.535-20.957zm0 0" fill="#ffd5cc"/></svg>