<svg height="512pt" viewBox="0 0 512 512.00078" width="512pt" xmlns="http://www.w3.org/2000/svg"><path d="M259.664 259.352c0 54.82-75.891 184.465-111.629 242.48-8.352 13.559-28.055 13.559-36.406 0-35.738-58.016-111.629-187.66-111.629-242.48 0-71.707 58.129-134 129.832-134 71.707 0 129.832 62.293 129.832 134zm0 0" fill="#f86654"/><path d="M129.832 125.352c-5.285 0-10.492.348-15.613 1.004 64.34 8.242 114.215 66.574 114.215 132.992 0 54.824-75.891 184.469-111.629 242.48-.77 1.254-1.641 2.391-2.586 3.41 9.305 10.031 26.238 8.898 33.82-3.41 35.738-58.012 111.629-187.656 111.629-242.48-.004-71.703-58.129-133.996-129.836-133.996zm0 0" fill="#ea543c"/><path d="M511.914 103.781c0 42.461-58.781 142.871-86.457 187.805-6.469 10.504-21.73 10.504-28.199 0-27.68-44.934-86.457-145.344-86.457-187.805 0-55.535 45.02-103.781 100.555-103.781 55.535 0 100.559 48.246 100.559 103.781zm0 0" fill="#ffe056"/><path d="M411.355 0c-5.313 0-10.527.445-15.617 1.293 48.121 8.008 84.941 52.266 84.941 102.488 0 41.699-56.691 139.293-84.941 185.336l1.52 2.469c6.469 10.5 21.727 10.5 28.199 0 27.676-44.934 86.457-145.344 86.457-187.805 0-55.535-45.023-103.781-100.559-103.781zm0 0" fill="#f9cd45"/><path d="M267.074 34.992c-31.059 0-61.27 8.066-87.992 23.355l3.563-14.719c1.016-4.191-1.559-8.41-5.75-9.426-4.191-1.02-8.41 1.559-9.426 5.75l-8.453 34.891c-.527 2.191-.09 4.5 1.211 6.34 1.297 1.84 3.324 3.031 5.566 3.266l31.348 3.285c.277.027.551.043.824.043 3.945 0 7.336-2.984 7.754-6.996.449-4.289-2.664-8.129-6.949-8.578l-10.535-1.105c24.016-13.422 51.059-20.488 78.84-20.488 4.313 0 7.809-3.496 7.809-7.809s-3.496-7.809-7.809-7.809zm0 0 115.68 311.461c-1.219-1.895-3.195-3.172-5.422-3.5l-31.18-4.629c-4.266-.629-8.238 2.313-8.871 6.578s2.313 8.238 6.578 8.871l12.133 1.801c-20.945 16.391-45.66 27.422-71.754 31.965-4.246.738-7.09 4.781-6.352 9.031.66 3.797 3.957 6.469 7.684 6.469.445 0 .895-.035 1.348-.117 27.301-4.754 53.215-15.984 75.48-32.602l-3.656 12.688c-1.195 4.145 1.195 8.473 5.34 9.664.723.211 1.449.309 2.164.309 3.391 0 6.516-2.227 7.5-5.648l9.941-34.496c.625-2.164.285-4.488-.934-6.383zm0 0" fill="#e3ded9"/><path d="M192.402 308.258c-11.641-20.066-34.102-54.617-59.914-54.617-25.883 0-48.398 34.621-60.008 54.777-.703 1.215-1.25 2.457-1.66 3.711 15.512 13.848 36.137 22.293 58.773 22.293 24.668 0 46.93-10.043 62.809-26.164zm0 0" fill="#fc9086"/><path d="M132.215 253.785c-5.414.035-10.664 1.602-15.695 4.215 6.375 3.207 12.418 8.105 17.992 13.797 19.941 20.367 9.754 55.113-18.129 61.035-.758.16-1.516.309-2.277.453 5.117.875 10.383 1.332 15.766 1.297 24.668-.168 46.859-10.363 62.625-26.594-11.773-19.984-34.469-54.379-60.281-54.203zm0 0" fill="#f57a73"/><path d="M132.488 274.594c25.813 0 48.277 13.598 59.914 33.664 15.152-15.391 24.492-36.316 24.492-59.391 0-47.254-39.086-85.559-87.301-85.559s-87.301 38.305-87.301 85.559c0 25.063 11.004 47.613 28.527 63.262.41-1.254.957-2.496 1.66-3.711 11.609-20.156 34.125-33.824 60.008-33.824zm0 0" fill="#fff4f1"/><path d="M129.594 163.309c-4.227 0-8.379.301-12.441.871 42.32 5.918 74.855 41.574 74.855 84.688 0 15.988-4.484 30.945-12.281 43.746 5.012 4.555 9.301 9.824 12.676 15.645 15.152-15.391 24.492-36.316 24.492-59.391 0-47.254-39.086-85.559-87.301-85.559zm0 0" fill="#e3ded9"/><path d="M151.625 221.211c0-14.32-9.16-25.926-20.457-25.926-11.301 0-20.457 11.605-20.457 25.926 0 14.316 9.156 25.926 20.457 25.926 11.297 0 20.457-11.609 20.457-25.926zm0 0" fill="#ffd5cc"/><path d="M454.563 133.973c-8.004-13.805-23.457-37.57-41.215-37.57-17.805 0-33.293 23.816-41.281 37.68-.484.84-.863 1.691-1.141 2.555 10.668 9.527 24.855 15.336 40.43 15.336 16.973 0 32.285-6.906 43.207-18zm0 0" fill="#9ddbdf"/><path d="M413.16 96.5c-3.727.023-7.34 1.102-10.801 2.898 4.387 2.207 8.547 5.578 12.379 9.492 13.719 14.012 6.711 37.914-12.469 41.988-.523.109-1.047.215-1.57.313 3.52.602 7.145.918 10.844.891 16.973-.113 32.238-7.129 43.086-18.293-8.098-13.75-23.711-37.41-41.469-37.289zm0 0" fill="#7cd6e6"/><path d="M413.348 110.816c17.758 0 33.211 9.352 41.215 23.156 10.426-10.586 16.852-24.98 16.852-40.855 0-32.508-26.887-58.859-60.059-58.859-33.168 0-60.055 26.352-60.055 58.859 0 17.242 7.566 32.754 19.625 43.52.281-.863.656-1.715 1.141-2.551 7.988-13.867 23.477-23.27 41.281-23.27zm0 0" fill="#fff4f1"/><path d="M411.355 34.258c-2.906 0-5.762.207-8.559.598 29.113 4.074 51.496 28.602 51.496 58.262 0 11-3.086 21.289-8.449 30.094 3.449 3.137 6.398 6.762 8.719 10.762 10.426-10.586 16.852-24.98 16.852-40.855 0-32.508-26.891-58.859-60.059-58.859zm0 0" fill="#e3ded9"/><path d="M426.512 74.09c0-9.852-6.301-17.836-14.074-17.836-7.77 0-14.07 7.984-14.07 17.836 0 9.852 6.301 17.836 14.07 17.836 7.773 0 14.074-7.984 14.074-17.836zm0 0" fill="#ffd5cc"/></svg>