<svg height="512pt" viewBox="0 -12 512.00497 512" width="512pt" xmlns="http://www.w3.org/2000/svg"><path d="M392.34.004c-66.223-.133-120.012 53.441-120.145 119.664-.133 66.223 53.445 120.012 119.664 120.145 66.223.133 120.012-53.445 120.145-119.664.133-66.223-53.441-120.012-119.664-120.145zm0 0" fill="#5e8ee1"/><path d="M392.262 39.695c-44.301-.09-80.285 35.75-80.375 80.051-.09 44.301 35.754 80.285 80.055 80.375 44.301.09 80.285-35.75 80.371-80.051.09-44.301-35.75-80.289-80.051-80.375zm0 0" fill="#fff4f1"/><path d="M392.336.004c-5.398-.012-10.715.34-15.922 1.02 58.676 7.906 103.867 58.234 103.746 119.059s-45.512 110.973-104.223 118.645c5.211.699 10.52 1.074 15.918 1.086 66.223.129 120.012-53.445 120.145-119.668.133-66.223-53.445-120.008-119.664-120.141zm0 0" fill="#467bff"/><path d="M392.254 39.695c-5.449-.012-10.773.527-15.922 1.555 36.66 7.457 64.215 39.906 64.137 78.754-.074 38.848-27.762 71.188-64.449 78.5 5.145 1.047 10.465 1.605 15.918 1.617 44.301.086 80.285-35.754 80.371-80.055.09-44.301-35.754-80.285-80.055-80.371zm0 0" fill="#fff4f1"/><path d="M15 316.559c-10.523-.02-17.762-10.578-13.988-20.402l28.438-73.973c.488-73.703 60.453-133.23 134.238-133.082 73.996.148 133.863 60.254 133.715 134.25-.004 3.297-.137 6.563-.379 9.801l-.219 111.945c-.16 79.266-64.543 143.391-143.805 143.234-25.395-.051-45.941-20.676-45.891-46.074l.023-11.715c.031-14.965-12.078-27.121-27.043-27.152-27.75-.055-50.203-22.594-50.145-50.344l.043-21.441c.016-8.293-6.695-15.031-14.988-15.047zm0 0 487.129 57.363c5.723.012 9.68-5.715 7.648-11.063l-15.297-40.273c-.105-40.066-32.574-72.551-72.684-72.633-40.227-.078-72.898 32.465-72.98 72.688 0 1.793.063 3.57.188 5.332l-.121 60.852c-.086 43.09 34.773 78.09 77.859 78.176 13.805.027 25.02-11.145 25.047-24.949l.012-6.367c.016-8.133 6.625-14.715 14.762-14.699 15.082.027 27.336-12.176 27.367-27.262l.023-11.656c.008-4.508 3.668-8.156 8.176-8.145zm0 0" fill="#ffd5cc"/><path d="M163.688 89.102c-5.289-.012-10.504.297-15.633.879 66.871 7.637 118.758 64.477 118.621 133.367-.008 3.297-.141 6.566-.379 9.805l-.223 111.945c-.145 72.535-54.074 132.383-123.965 141.902 3.488.855 7.133 1.324 10.891 1.332 79.262.156 143.645-63.969 143.805-143.234l.219-111.945c.242-3.238.375-6.504.379-9.805.148-73.996-59.719-134.098-133.715-134.246zm0 0 346.089 273.757l-15.297-40.273c-.105-40.066-32.574-72.555-72.684-72.633-5.32-.012-10.504.563-15.504 1.637 32.789 7.047 57.367 36.148 57.457 70.996l15.301 40.273c2.352 6.191-3.324 12.887-10.465 10.605-2.906-.926-5.348 1.008-5.355 4.059l-.031 16.199c-.027 15.086-12.281 27.289-27.367 27.258-8.137-.016-14.742 6.566-14.758 14.703l-.016 6.367c-.02 9.84-5.723 18.336-13.996 22.398 6.285 1.648 12.879 2.535 19.684 2.547 13.813 0 25.016-11.184 25.043-24.996l.012-6.316c.016-8.137 6.625-14.719 14.762-14.703 15.086.031 27.336-12.172 27.367-27.258l.023-11.906c.008-4.516 3.703-7.887 8.215-7.898 5.699-.012 9.637-5.723 7.609-11.059zm0 0" fill="#fececa"/><path d="M397.547 176.648c-1.27 0-2.527.055-3.773.141-8.77-17.672-26.969-29.84-48.039-29.883-10.563-.023-20.41 3.02-28.73 8.27-8.297-5.285-18.133-8.363-28.695-8.387-21.125-.039-39.414 12.117-48.227 29.832-1.828-.191-3.68-.293-5.555-.297-29.672-.059-53.773 23.945-53.832 53.613-.059 29.672 23.945 53.773 53.617 53.832.695 0 1.383-.023 2.07-.051 6.375 22.5 27.027 39.012 51.574 39.059 10.563.023 20.414-3.02 28.73-8.27 8.297 5.285 18.133 8.363 28.699 8.387 24.527.047 45.234-16.359 51.715-38.809l.23.008c29.672.059 53.773-23.945 53.832-53.617.059-29.668-23.945-53.77-53.617-53.828zm0 0" fill="#fc9086"/><path d="M397.547 176.648c-1.27-.004-2.527.055-3.773.141-8.77-17.672-26.969-29.844-48.039-29.883-5.539-.012-10.883.824-15.914 2.379 14.074 4.398 25.652 14.422 32.113 27.438 1.246-.086 2.504-.141 3.773-.137 29.672.059 53.676 24.156 53.617 53.828-.059 29.672-24.16 53.676-53.828 53.617l-.234-.008c-5.016 17.371-18.551 31.117-35.781 36.426 5.023 1.574 10.363 2.434 15.906 2.445 24.527.047 45.234-16.359 51.715-38.809l.23.008c29.672.059 53.773-23.945 53.832-53.617.059-29.668-23.945-53.77-53.617-53.828zm0 0" fill="#f57a73"/><path d="M412.953 113.078l-11.188-.023.051-24.906c.008-4.395-3.547-7.969-7.945-7.977-4.398-.008-7.969 3.551-7.977 7.945l-.063 31.555c-.07.43-.117.863-.117 1.313-.012 4.398 3.547 7.969 7.941 7.977l19.266.039c4.395.008 7.965-3.551 7.973-7.945.012-4.395-3.547-7.965-7.941-7.977zm0 0" fill="#d0cfd1"/><path d="M269.16 205.484c-1.477-.004-2.965-.414-4.297-1.273-3.691-2.387-4.75-7.313-2.367-11.008 6.82-10.559 18.387-16.844 30.941-16.82 9.813.02 19.027 3.859 25.949 10.809 3.105 3.117 3.094 8.156-.023 11.258-3.113 3.102-8.152 3.09-11.258-.023-3.918-3.938-9.141-6.113-14.699-6.125-7.113-.012-13.668 3.555-17.535 9.539-1.527 2.363-4.094 3.648-6.711 3.645zm0 0 126.957 35.508c-2.461-.004-4.887-1.145-6.438-3.293-3.262-4.5-8.078-7.465-13.566-8.344-7.023-1.125-14.055 1.371-18.813 6.684-2.93 3.273-7.965 3.551-11.238.617-3.277-2.93-3.555-7.965-.621-11.238 8.387-9.363 20.785-13.773 33.191-11.781 9.688 1.551 18.188 6.781 23.941 14.73 2.578 3.559 1.777 8.535-1.781 11.113-1.414 1.023-3.055 1.516-4.676 1.512zm0 0" fill="#f57a73"/><path d="M156.801 145.477l4.047-4.031c3.113-3.102 3.125-8.145.023-11.258-3.105-3.113-8.145-3.125-11.258-.023l-4.047 4.031-4.035-4.047c-3.102-3.117-8.141-3.125-11.254-.023-3.117 3.105-3.125 8.145-.023 11.258l4.031 4.047-4.047 4.035c-3.117 3.102-3.125 8.141-.023 11.254 1.551 1.559 3.586 2.34 5.621 2.344 2.039.004 4.078-.77 5.633-2.32l4.051-4.031 4.031 4.047c1.551 1.559 3.586 2.34 5.621 2.344 2.039.004 4.078-.77 5.633-2.32 3.117-3.102 3.125-8.141.023-11.258zm0 0" fill="#fdb0a9"/><path d="M234.699 48.445l4.047-4.031c3.117-3.102 3.125-8.145.023-11.258-3.102-3.113-8.141-3.125-11.258-.023l-4.047 4.031-4.031-4.047c-3.102-3.113-8.145-3.125-11.258-.023s-3.125 8.145-.023 11.258l4.031 4.047-4.047 4.031c-3.113 3.105-3.125 8.145-.023 11.258 1.551 1.559 3.59 2.34 5.625 2.344 2.035.004 4.074-.77 5.633-2.32l4.047-4.031 4.031 4.047c1.551 1.559 3.586 2.34 5.625 2.344 2.035.004 4.074-.77 5.633-2.32 3.113-3.102 3.125-8.141.02-11.258zm0 0-91.668-42.59c-3.102-3.117-8.141-3.125-11.258-.023l-4.047 4.031-4.031-4.047c-3.102-3.117-8.145-3.125-11.258-.023-3.113 3.102-3.125 8.141-.023 11.258l4.031 4.047-4.047 4.031c-3.113 3.102-3.125 8.145-.023 11.258 1.551 1.559 3.59 2.34 5.625 2.344 2.035.004 4.074-.77 5.633-2.32l4.047-4.031 4.031 4.047c1.551 1.559 3.59 2.34 5.625 2.344 2.035.004 4.074-.77 5.633-2.32 3.113-3.105 3.125-8.145.023-11.258l-4.035-4.047 4.051-4.031c3.117-3.105 3.125-8.145.023-11.258zm0 0" fill="#e3ded9"/></svg>