<svg height="512pt" viewBox="0 -49 512 512" width="512pt" xmlns="http://www.w3.org/2000/svg"><path d="M195.664 368.953h-26.637c12.27 0 22.309 10.039 22.309 22.309v.734c0 12.27-10.039 22.309-22.309 22.309h26.637c12.27 0 22.309-10.039 22.309-22.309v-.734c0-12.27-10.039-22.309-22.309-22.309zm0 0" fill="#b4b4b4"/><path d="M186.156 384.52l-1.004-1.648c-33.02-54.172-51.281-113.922-53.453-174.852l-1.5-42.148c-.648 0-15.441-1.555-21.051-2.145v-.227l-1.066.113-1.063-.113-.004.227c-5.609.59-20.402 2.145-21.047 2.145l-1.504 42.145c-2.168 60.934-20.434 120.684-53.449 174.855l-1.004 1.648s68.645.594 78.07.113c9.426.48 78.074-.113 78.074-.113zm0 0" fill="#ffe056"/><path d="M81.449 384.633c-1.512.078-4.547.125-8.57.156 7.895.027 15.613.043 21.887.023-6.375-.02-11.258-.074-13.316-.18zm0 0 103.703-1.762c-33.016-54.172-51.281-113.918-53.449-174.852l-1.504-42.148c-.645 0-15.441-1.555-21.047-2.145l-.004-.227-1.063.113-1.066-.113v.227c-2.777.293-7.805.82-12.254 1.281 4.539.469 8.473.863 8.797.863l1.504 42.148c2.168 60.93 20.434 120.68 53.449 174.852l1.004 1.648s-22.047.191-42.867.27c21.094.148 69.504-.27 69.504-.27zm0 0" fill="#f9cd45"/><path d="M154.113 109.152c0 26.184-21.227 47.414-47.414 47.414-26.184 0-47.41-21.23-47.41-47.414 0-26.188 21.227-47.414 47.41-47.414 26.188 0 47.414 21.227 47.414 47.414zm0 0" fill="#ffe056"/><path d="M102.582 61.738c-4.625 0-9.09.676-13.316 1.91 19.699 5.754 34.094 23.941 34.094 45.504 0 21.559-14.395 39.746-34.094 45.504 4.227 1.234 8.691 1.91 13.316 1.91 26.188 0 47.414-21.23 47.414-47.414 0-26.188-21.227-47.414-47.414-47.414zm0 0" fill="#f9cd45"/><path d="M130.836 179.41h-47.086c-8.086 0-14.703-6.617-14.703-14.703v-2.41c0-8.086 6.617-14.703 14.703-14.703h47.086c8.086 0 14.703 6.617 14.703 14.703v2.41c0 8.086-6.613 14.703-14.703 14.703zm0 0" fill="#ffe056"/><path d="M197.012 414.305h-176.051c-11.527 0-20.961-9.43-20.961-20.957v-3.438c0-11.527 9.434-20.957 20.961-20.957h176.051c11.527 0 20.957 9.43 20.957 20.957v3.438c.004 11.527-9.43 20.957-20.957 20.957zm0 0" fill="#f9cd45"/><path d="M480.184 384.52l-1.004-1.648c-33.016-54.172-51.281-113.922-53.449-174.852l-1.5-42.148c-.648 0-15.441-1.555-21.051-2.145v-.227l-1.066.113-1.066-.113v.227c-5.609.59-20.402 2.145-21.051 2.145l-1.5 42.145c-2.172 60.934-20.434 120.684-53.453 174.855l-1.004 1.648s68.648.594 78.074.113c9.426.48 78.07-.113 78.07-.113zm0 0" fill="#fc9086"/><path d="M375.477 384.633c-1.512.078-4.543.125-8.566.156 7.895.027 15.609.043 21.883.023-6.375-.02-11.258-.074-13.316-.18zm0 0 103.703-1.762c-33.016-54.172-51.281-113.918-53.449-174.852l-1.5-42.148c-.648 0-15.441-1.555-21.051-2.145v-.227l-1.066.113-1.066-.113v.227c-2.777.293-7.805.82-12.254 1.281 4.539.469 8.473.863 8.801.863l1.5 42.148c2.168 60.93 20.434 120.68 53.449 174.852l1.008 1.648s-22.051.191-42.871.27c21.094.148 69.504-.27 69.504-.27zm0 0" fill="#f57a73"/><path d="M448.145 109.152c0 26.184-21.23 47.414-47.414 47.414-26.188 0-47.414-21.23-47.414-47.414 0-26.188 21.227-47.414 47.414-47.414 26.184 0 47.414 21.227 47.414 47.414zm0 0" fill="#fc9086"/><path d="M400.73 61.738c-4.625 0-9.09.676-13.32 1.91 19.703 5.754 34.098 23.941 34.098 45.504 0 21.559-14.395 39.746-34.098 45.504 4.227 1.234 8.695 1.91 13.32 1.91 26.184 0 47.414-21.23 47.414-47.414 0-26.188-21.23-47.414-47.414-47.414zm0 0" fill="#f57a73"/><path d="M424.867 179.41h-47.086c-8.086 0-14.703-6.617-14.703-14.703v-2.41c0-8.086 6.617-14.703 14.703-14.703h47.086c8.086 0 14.703 6.617 14.703 14.703v2.41c0 8.086-6.617 14.703-14.703 14.703zm0 0 66.172 234.895h-176.051c-11.527 0-20.961-9.43-20.961-20.957v-3.438c0-11.527 9.434-20.957 20.961-20.957h176.051c11.527 0 20.961 9.43 20.961 20.957v3.438c0 11.527-9.434 20.957-20.961 20.957zm0 0" fill="#fc9086"/><path d="M491.039 368.953h-31.156c11.527 0 20.957 9.43 20.957 20.957v3.438c0 11.527-9.43 20.957-20.957 20.957h31.156c11.527 0 20.961-9.43 20.961-20.957v-3.438c0-11.527-9.434-20.957-20.961-20.957zm0 0" fill="#f57a73"/><path d="M354.965 379.355l-1.176-1.93c-38.621-63.371-59.988-133.262-62.527-204.543l-1.754-49.305c-.758 0-18.063-1.816-24.625-2.508v-.262l-1.246.133-1.246-.133v.262c-6.563.691-23.867 2.508-24.625 2.508l-1.758 49.305c-2.535 71.281-23.902 141.172-62.523 204.543l-1.176 1.93s80.301.691 91.328.133c11.027.559 91.328-.133 91.328-.133zm0 0" fill="#b4b4b4"/><path d="M232.477 379.488c-1.766.09-5.313.148-10.02.18 9.234.035 18.262.051 25.598.027-7.457-.023-13.168-.086-15.578-.207zm0 0 121.312-2.062c-38.621-63.371-59.988-133.266-62.527-204.543l-1.754-49.305c-.758 0-18.063-1.816-24.625-2.508v-.262l-1.246.129-1.246-.129v.262c-3.25.344-9.129.961-14.332 1.496 5.305.547 9.91 1.012 10.293 1.012l1.754 49.305c2.535 71.277 23.902 141.172 62.527 204.543l1.176 1.926s-25.793.223-50.148.316c24.676.176 81.305-.316 81.305-.316zm0 0" fill="#9a9999"/><path d="M317.484 55.465c0 30.633-24.832 55.465-55.465 55.465-30.633 0-55.465-24.832-55.465-55.465 0-30.633 24.832-55.465 55.465-55.465 30.633 0 55.465 24.832 55.465 55.465zm0 0" fill="#e5dcde"/><path d="M262.02 0c-5.41 0-10.637.789-15.578 2.234 23.043 6.734 39.883 28.008 39.883 53.23 0 25.219-16.84 46.496-39.883 53.23 4.941 1.445 10.168 2.234 15.578 2.234 30.633 0 55.465-24.832 55.465-55.465 0-30.633-24.832-55.465-55.465-55.465zm0 0" fill="#d0cfd1"/><path d="M289.145 139.418h-52.863c-10.07 0-18.309-8.238-18.309-18.309v-.605c0-10.066 8.238-18.305 18.309-18.305h52.863c10.07 0 18.309 8.238 18.309 18.305v.605c0 10.07-8.238 18.309-18.309 18.309zm0 0 66.554 274.781h-192.402c-14.352 0-26.098-11.746-26.098-26.098v-.863c0-14.352 11.746-26.098 26.098-26.098h192.402c14.352 0 26.098 11.746 26.098 26.098v.863c0 14.352-11.742 26.098-26.098 26.098zm0 0" fill="#e3ded9"/><path d="M366.086 361.141h-31.16c14.355 0 26.098 11.746 26.098 26.102v.859c0 14.352-11.742 26.098-26.098 26.098h31.16c14.352 0 26.098-11.746 26.098-26.098v-.859c0-14.355-11.742-26.102-26.098-26.102zm0 0" fill="#b4b4b4"/></svg>