<svg height="512pt" viewBox="0 -18 512 512" width="512pt" xmlns="http://www.w3.org/2000/svg"><path d="M53.457 371.117h-35.625c-9.809 0-17.832-8.023-17.832-17.832v-335.453c0-9.809 8.023-17.832 17.832-17.832h476.336c9.809 0 17.832 8.023 17.832 17.832v335.453c0 9.809-8.023 17.832-17.832 17.832h-409.063" fill="#fff4f1"/><path d="M175.094 344.281h161.809v107.105h-161.809zm0 0" fill="#9a9999"/><path d="M305.254 344.281h31.648v107.105h-31.648zm0 0" fill="#696867"/><path d="M217.035 317.066v-274.57l-108.516-10.547-108.52 10.547v274.57l114.258 10.551zm0 0" fill="#5e8ee1"/><path d="M217.035 317.066v-274.57l-15.824-10.547-15.824 10.547v274.57l15.824 10.551zm0 0" fill="#467bff"/><path d="M512 42.129v-24.469c0-9.711-7.727-17.66-17.172-17.66h-477.656c-9.445 0-17.172 7.949-17.172 17.66v24.469zm0 0-512 274.992v35.484c0 10.184 7.371 18.512 16.383 18.512h479.234c9.012 0 16.383-8.328 16.383-18.512v-35.484zm0 0" fill="#e3ded9"/><path d="M494.168 0h-31.648c9.805 0 17.832 8.027 17.832 17.836v335.449c0 9.809-8.023 17.832-17.832 17.832h31.648c9.805 0 17.832-8.023 17.832-17.832v-335.453c0-9.805-8.027-17.832-17.832-17.832zm0 0" fill="#eeebe8"/><path d="M494.828 0h-31.648c9.445 0 17.172 7.945 17.172 17.66v24.469h31.648v-24.469c0-9.711-7.727-17.66-17.172-17.66zm0 0" fill="#b4b4b4"/><path d="M364.238 475.195c9.84 0 16.445-10.043 12.617-19.105-8.039-19.027-26.855-32.461-48.656-32.461h-144.398c-21.801 0-40.617 13.434-48.656 32.461-3.828 9.063 2.777 19.105 12.617 19.105zm0 0" fill="#d0cfd1"/><path d="M480.352 317.121v35.484c0 10.184-7.371 18.512-16.383 18.512h31.648c9.008 0 16.383-8.328 16.383-18.512v-35.484zm0 0" fill="#b4b4b4"/><path d="M67.449 85.867c0 8.359-6.777 15.137-15.137 15.137-8.355 0-15.133-6.777-15.133-15.137 0-8.359 6.777-15.137 15.133-15.137 8.359 0 15.137 6.777 15.137 15.137zm0 0" fill="#9ddbdf"/><path d="M67.449 148.512c0 8.359-6.777 15.133-15.137 15.133-8.355 0-15.133-6.773-15.133-15.133s6.777-15.137 15.133-15.137c8.359 0 15.137 6.777 15.137 15.137zm0 0" fill="#fff4f1"/><path d="M67.449 148.512c0 8.359-6.777 15.133-15.137 15.133-8.355 0-15.133-6.773-15.133-15.133s6.777-15.137 15.133-15.137c8.359 0 15.137 6.777 15.137 15.137zm0 0" fill="#ffe056"/><path d="M67.449 211.152c0 8.359-6.777 15.137-15.137 15.137-8.355 0-15.133-6.777-15.133-15.137s6.777-15.133 15.133-15.133c8.359 0 15.137 6.773 15.137 15.133zm0 0" fill="#fc9086"/><path d="M67.449 273.797c0 8.355-6.777 15.133-15.137 15.133-8.355 0-15.133-6.777-15.133-15.133 0-8.359 6.777-15.137 15.133-15.137 8.359 0 15.137 6.777 15.137 15.137zm0 0" fill="#467bff"/><path d="M305.566 191.801h159.988c8.547 0 15.477 6.93 15.477 15.48 0 8.547-6.93 15.477-15.477 15.477h-15.684l-15.602 15.121c-2.863 2.773-7.414 2.773-10.277 0l-15.602-15.121h-102.824c-8.547 0-15.477-6.93-15.477-15.477 0-8.551 6.93-15.48 15.477-15.48zm0 0" fill="#ffe056"/><path d="M347.766 83.598h117.789c8.547 0 15.477 6.93 15.477 15.477 0 8.551-6.93 15.48-15.477 15.48h-15.684l-15.602 15.117c-2.863 2.777-7.414 2.777-10.277 0l-15.602-15.117h-60.625c-8.551 0-15.48-6.93-15.48-15.48 0-8.547 6.93-15.477 15.48-15.477zm0 0" fill="#fc9086"/><path d="M467.762 281.043c0-4.367 3.543-7.91 7.91-7.91s7.914 3.543 7.914 7.91c0 4.379-3.547 7.914-7.914 7.914s-7.91-3.535-7.91-7.914zm-27.43 0c0-4.367 3.547-7.91 7.914-7.91 4.367 0 7.91 3.543 7.91 7.91 0 4.379-3.543 7.914-7.91 7.914s-7.914-3.535-7.914-7.914zm-27.426 0c0-4.367 3.543-7.91 7.91-7.91s7.914 3.543 7.914 7.91c0 4.379-3.547 7.914-7.914 7.914-4.367 0-7.91-3.535-7.91-7.914zm0 0" fill="#e3ded9"/><path d="M166.52 92.754h-72.996c-4.367 0-7.91-3.543-7.91-7.91 0-4.371 3.543-7.914 7.91-7.914h72.996c4.371 0 7.914 3.543 7.914 7.914 0 4.367-3.543 7.91-7.914 7.91zm0 0 0 62.758h-72.996c-4.367 0-7.91-3.543-7.91-7.91 0-4.371 3.543-7.914 7.91-7.914h72.996c4.371 0 7.914 3.543 7.914 7.914 0 4.367-3.543 7.91-7.914 7.91zm0 0 0 62.761h-72.996c-4.367 0-7.91-3.543-7.91-7.914 0-4.367 3.543-7.91 7.91-7.91h72.996c4.371 0 7.914 3.543 7.914 7.91 0 4.371-3.543 7.914-7.914 7.914zm0 0 0 62.758h-72.996c-4.367 0-7.91-3.543-7.91-7.914 0-4.367 3.543-7.91 7.91-7.91h72.996c4.371 0 7.914 3.543 7.914 7.91 0 4.371-3.543 7.914-7.914 7.914zm0 0" fill="#2970d6"/></svg>