<svg height="512pt" viewBox="0 -25 512 512" width="512pt" xmlns="http://www.w3.org/2000/svg"><path d="M264.773 462.105h53.012c54.25 0 98.23-43.98 98.23-98.234v-253.418h-151.242zm0 0" fill="#9a9999"/><path d="M385.684 110.453v253.422c0 54.25-43.98 98.23-98.234 98.23h30.336c54.25 0 98.23-43.98 98.23-98.23v-253.422zm0 0" fill="#81807f"/><path d="M225.758 421.66l-53.012 40.445c-54.25 0-98.23-43.98-98.23-98.234v-309.031c0-8.375 6.793-15.168 15.168-15.168h136.074zm0 0" fill="#696867"/><path d="M323.398 462.105h-151.238v-446.938c0-8.379 6.789-15.168 15.164-15.168h120.91c8.375 0 15.164 6.789 15.164 15.168zm0 0" fill="#b4b4b4"/><path d="M172.16 339.063h151.238v123.043h-151.238zm0 0" fill="#fff4f1"/><path d="M248.984 339.063h74.414v123.043h-74.414zm0 0" fill="#ebe7e4"/><path d="M293.066 339.063h30.332v123.043h-30.332zm0 0" fill="#e3ded9"/><path d="M98.789 362.355c0-11.094-7.098-20.086-15.852-20.086s-15.852 8.992-15.852 20.086 7.098 20.086 15.852 20.086 15.852-8.992 15.852-20.086zm0 0" fill="#ffd5cc"/><path d="M82.938 390.023c-12.922 0-23.434-12.41-23.434-27.668s10.512-27.672 23.434-27.672 23.434 12.414 23.434 27.672c0 15.258-10.512 27.668-23.434 27.668zm0-40.172c-4.402 0-8.266 5.844-8.266 12.504 0 6.66 3.863 12.504 8.266 12.504s8.266-5.844 8.266-12.504c0-6.66-3.859-12.504-8.266-12.504zm0 0" fill="#18191b"/><path d="M140.094 94.027h-35.426c-4.188 0-7.586-3.395-7.586-7.582s3.398-7.582 7.586-7.582h35.426c4.188 0 7.582 3.395 7.582 7.582s-3.395 7.582-7.582 7.582zm0 0 0 36.348h-8.125c-4.191 0-7.586-3.395-7.586-7.582s3.395-7.586 7.586-7.586h8.125c4.188 0 7.582 3.398 7.582 7.586s-3.395 7.582-7.582 7.582zm0 0 0 36.348h-18.238c-4.188 0-7.582-3.395-7.582-7.582s3.395-7.582 7.582-7.582h18.238c4.188 0 7.582 3.395 7.582 7.582s-3.395 7.582-7.582 7.582zm0 0 0 36.347h-28.348c-4.191 0-7.586-3.395-7.586-7.582s3.395-7.586 7.586-7.586h28.348c4.188 0 7.582 3.398 7.582 7.586s-3.395 7.582-7.582 7.582zm0 0 0 36.348h-28.348c-4.191 0-7.586-3.395-7.586-7.582s3.395-7.586 7.586-7.586h28.348c4.188 0 7.582 3.398 7.582 7.586s-3.395 7.582-7.582 7.582zm0 0 0 36.348h-28.348c-4.191 0-7.586-3.395-7.586-7.582 0-4.191 3.395-7.586 7.586-7.586h28.348c4.188 0 7.582 3.395 7.582 7.586 0 4.188-3.395 7.582-7.582 7.582zm0 0 0 36.347h-28.348c-4.191 0-7.586-3.395-7.586-7.582s3.395-7.586 7.586-7.586h28.348c4.188 0 7.582 3.398 7.582 7.586s-3.395 7.582-7.582 7.582zm0 0" fill="#9a9999"/><path d="M374.055 200.199h-28.348c-4.188 0-7.582-3.395-7.582-7.582s3.395-7.582 7.582-7.582h28.348c4.188 0 7.582 3.395 7.582 7.582s-3.395 7.582-7.582 7.582zm0 0 0 36.352h-28.348c-4.188 0-7.582-3.398-7.582-7.586s3.395-7.582 7.582-7.582h28.348c4.188 0 7.582 3.395 7.582 7.582s-3.395 7.586-7.582 7.586zm0 0 0 36.344h-28.348c-4.188 0-7.582-3.395-7.582-7.582s3.395-7.582 7.582-7.582h28.348c4.188 0 7.582 3.395 7.582 7.582s-3.395 7.582-7.582 7.582zm0 0 0 36.347h-28.348c-4.188 0-7.582-3.395-7.582-7.582s3.395-7.586 7.582-7.586h28.348c4.188 0 7.582 3.398 7.582 7.586s-3.395 7.582-7.582 7.582zm0 0-10.11 36.348h-18.238c-4.188 0-7.582-3.395-7.582-7.582s3.395-7.582 7.582-7.582h18.238c4.188 0 7.582 3.395 7.582 7.582s-3.395 7.582-7.582 7.582zm0 0" fill="#b4b4b4"/><path d="M232.875 57.684h-28.348c-4.191 0-7.586-3.398-7.586-7.586s3.395-7.582 7.586-7.582h28.348c4.188 0 7.582 3.395 7.582 7.582s-3.395 7.586-7.582 7.586zm0 0 59.703 0h-28.352c-4.188 0-7.582-3.398-7.582-7.586s3.395-7.582 7.582-7.582h28.352c4.188 0 7.582 3.395 7.582 7.582s-3.395 7.586-7.582 7.586zm0 0-59.703 39.086h-28.348c-4.191 0-7.586-3.398-7.586-7.586s3.395-7.582 7.586-7.582h28.348c4.188 0 7.582 3.395 7.582 7.582s-3.395 7.586-7.582 7.586zm0 0 59.703 0h-28.352c-4.188 0-7.582-3.398-7.582-7.586s3.395-7.582 7.582-7.582h28.352c4.188 0 7.582 3.395 7.582 7.582s-3.395 7.586-7.582 7.586zm0 0-59.703 39.082h-28.348c-4.191 0-7.586-3.395-7.586-7.582s3.395-7.582 7.586-7.582h28.348c4.188 0 7.582 3.395 7.582 7.582s-3.395 7.582-7.582 7.582zm0 0 59.703 0h-28.352c-4.188 0-7.582-3.395-7.582-7.582s3.395-7.582 7.582-7.582h28.352c4.188 0 7.582 3.395 7.582 7.582s-3.395 7.582-7.582 7.582zm0 0-59.703 39.089h-28.348c-4.191 0-7.586-3.398-7.586-7.586s3.395-7.582 7.586-7.582h28.348c4.188 0 7.582 3.395 7.582 7.582s-3.395 7.586-7.582 7.586zm0 0 59.703 0h-28.352c-4.188 0-7.582-3.398-7.582-7.586s3.395-7.582 7.582-7.582h28.352c4.188 0 7.582 3.395 7.582 7.582s-3.395 7.586-7.582 7.586zm0 0-59.703 39.082h-28.348c-4.191 0-7.586-3.395-7.586-7.582s3.395-7.582 7.586-7.582h28.348c4.188 0 7.582 3.395 7.582 7.582s-3.395 7.582-7.582 7.582zm0 0 59.703 0h-28.352c-4.188 0-7.582-3.395-7.582-7.582s3.395-7.582 7.582-7.582h28.352c4.188 0 7.582 3.395 7.582 7.582s-3.395 7.582-7.582 7.582zm0 0-59.703 39.09h-28.348c-4.191 0-7.586-3.395-7.586-7.586 0-4.188 3.395-7.582 7.586-7.582h28.348c4.188 0 7.582 3.395 7.582 7.582 0 4.191-3.395 7.586-7.582 7.586zm0 0 59.703 0h-28.352c-4.188 0-7.582-3.395-7.582-7.586 0-4.188 3.395-7.582 7.582-7.582h28.352c4.188 0 7.582 3.395 7.582 7.582 0 4.191-3.395 7.586-7.582 7.586zm0 0-59.703 39.086h-28.348c-4.191 0-7.586-3.398-7.586-7.586s3.395-7.582 7.586-7.582h28.348c4.188 0 7.582 3.395 7.582 7.582s-3.395 7.586-7.582 7.586zm0 0 59.703 0h-28.352c-4.188 0-7.582-3.398-7.582-7.586s3.395-7.582 7.582-7.582h28.352c4.188 0 7.582 3.395 7.582 7.582s-3.395 7.586-7.582 7.586zm0 0" fill="#9a9999"/><path d="M277.137 409.629c-4.188 0-7.586-3.395-7.586-7.582v-13.707c0-4.188 3.398-7.582 7.586-7.582s7.582 3.395 7.582 7.582v13.707c0 4.188-3.395 7.582-7.582 7.582zm0 0-60.668 0c-4.188 0-7.586-3.395-7.586-7.582v-13.707c0-4.188 3.398-7.582 7.586-7.582s7.582 3.395 7.582 7.582v13.707c0 4.188-3.395 7.582-7.582 7.582zm0 0" fill="#d0cfd1"/><path d="M468.563 421.66c-8.406-14.496-24.637-39.457-43.285-39.457-18.699 0-34.969 25.016-43.355 39.574-.508.879-.902 1.777-1.199 2.68 11.207 10.008 26.105 16.109 42.461 16.109 17.824 0 33.906-7.258 45.379-18.906zm0 0" fill="#fff4f1"/><path d="M425.078 382.305c-3.91.027-7.703 1.16-11.34 3.047 4.605 2.316 8.973 5.855 13 9.965 14.406 14.715 7.047 39.82-13.098 44.098-.547.117-1.098.227-1.648.328 3.699.633 7.504.965 11.395.938 17.82-.121 33.855-7.484 45.246-19.211-8.508-14.441-24.902-39.289-43.555-39.164zm0 0" fill="#e3ded9"/><path d="M425.277 397.344c18.648 0 34.875 9.82 43.285 24.316 10.949-11.117 17.695-26.234 17.695-42.906 0-34.137-28.238-61.813-63.07-61.813-34.836 0-63.074 27.676-63.074 61.813 0 18.109 7.949 34.398 20.609 45.703.297-.902.695-1.801 1.199-2.68 8.387-14.563 24.656-24.434 43.355-24.434zm0 0" fill="#fc9086"/><path d="M423.188 316.941c-3.055 0-6.055.215-8.992.629 30.578 4.273 54.086 30.035 54.086 61.184 0 11.551-3.242 22.359-8.875 31.605 3.621 3.293 6.719 7.098 9.156 11.301 10.949-11.117 17.695-26.234 17.695-42.906 0-34.141-28.238-61.813-63.07-61.813zm0 0" fill="#f57a73"/><path d="M439.102 358.773c0-10.348-6.617-18.734-14.781-18.734-8.16 0-14.777 8.387-14.777 18.734 0 10.344 6.617 18.73 14.777 18.73 8.164 0 14.781-8.387 14.781-18.73zm0 0" fill="#ffd5cc"/><path d="M487.141 165.313c-11.813-20.363-34.609-55.43-60.809-55.43-26.27 0-49.125 35.137-60.906 55.594-.711 1.234-1.27 2.496-1.684 3.766 15.746 14.059 36.676 22.629 59.652 22.629 25.035 0 47.633-10.191 63.746-26.559zm0 0" fill="#fff4f1"/><path d="M426.055 110.027c-5.496.035-10.824 1.625-15.934 4.277 6.473 3.254 12.609 8.227 18.262 14.004 20.242 20.668 9.902 55.938-18.398 61.945-.766.164-1.539.316-2.313.461 5.195.891 10.539 1.355 16 1.316 25.039-.168 47.563-10.516 63.566-26.988-11.949-20.285-34.984-55.195-61.184-55.016zm0 0" fill="#e3ded9"/><path d="M426.332 131.148c26.199 0 48.996 13.801 60.809 34.164 15.383-15.617 24.859-36.855 24.859-60.277 0-47.961-39.672-86.836-88.605-86.836-48.938 0-88.609 38.875-88.609 86.836 0 25.441 11.168 48.324 28.957 64.207.414-1.27.973-2.531 1.684-3.766 11.785-20.457 34.637-34.328 60.906-34.328zm0 0" fill="#ffe056"/><path d="M423.395 18.199c-4.289 0-8.504.305-12.629.879 42.953 6.012 75.977 42.199 75.977 85.957 0 16.23-4.551 31.41-12.465 44.402 5.086 4.625 9.438 9.973 12.863 15.875 15.383-15.617 24.859-36.855 24.859-60.277 0-47.961-39.672-86.836-88.605-86.836zm0 0" fill="#f9cd45"/><path d="M445.754 76.965c0-14.535-9.297-26.316-20.762-26.316-11.469 0-20.766 11.781-20.766 26.316 0 14.531 9.297 26.313 20.766 26.313 11.465 0 20.762-11.781 20.762-26.313zm0 0" fill="#ffd5cc"/><path d="M113.992 177.09c-8.836-15.238-25.895-41.477-45.496-41.477-19.656 0-36.754 26.293-45.574 41.598-.531.926-.949 1.867-1.258 2.816 11.781 10.52 27.441 16.934 44.633 16.934 18.734 0 35.641-7.629 47.695-19.871zm0 0" fill="#fff4f1"/><path d="M68.289 135.723c-4.113.027-8.102 1.215-11.922 3.199 4.84 2.438 9.434 6.156 13.664 10.477 15.145 15.469 7.406 41.855-13.766 46.352-.574.121-1.152.238-1.734.344 3.887.668 7.887 1.016 11.973.984 18.734-.125 35.59-7.867 47.563-20.191-8.941-15.18-26.176-41.297-45.777-41.164zm0 0" fill="#e3ded9"/><path d="M68.496 151.527c19.602 0 36.66 10.324 45.5 25.563 11.508-11.688 18.598-27.578 18.598-45.102 0-35.887-29.684-64.973-66.297-64.973s-66.297 29.09-66.297 64.973c0 19.035 8.355 36.156 21.664 48.039.313-.949.727-1.891 1.258-2.816 8.82-15.305 25.918-25.684 45.574-25.684zm0 0-2.199-84.511c-3.207 0-6.363.227-9.449.66 32.137 4.496 56.848 31.574 56.848 64.313 0 12.145-3.406 23.5-9.328 33.223 3.805 3.461 7.063 7.461 9.625 11.879 11.512-11.688 18.602-27.578 18.602-45.102 0-35.883-29.684-64.973-66.297-64.973zm0 0" fill="#9ddbdf"/><path d="M83.027 110.984c0-10.875-6.953-19.688-15.535-19.688-8.578 0-15.535 8.813-15.535 19.688s6.957 19.688 15.535 19.688c8.582 0 15.535-8.813 15.535-19.688zm0 0" fill="#ffd5cc"/><path d="M127.137 426.813c-8.836-15.238-25.895-41.477-45.496-41.477-19.656 0-36.754 26.293-45.574 41.598-.531.926-.949 1.867-1.258 2.816 11.781 10.52 27.441 16.934 44.633 16.934 18.734 0 35.641-7.629 47.695-19.871zm0 0" fill="#fff4f1"/><path d="M81.434 385.445c-4.113.027-8.102 1.215-11.922 3.199 4.84 2.438 9.434 6.156 13.664 10.477 15.145 15.469 7.406 41.855-13.766 46.352-.574.121-1.152.238-1.734.344 3.887.668 7.887 1.016 11.977.984 18.73-.125 35.586-7.867 47.559-20.191-8.941-15.18-26.176-41.297-45.777-41.164zm0 0" fill="#e3ded9"/><path d="M81.641 401.25c19.602 0 36.66 10.324 45.5 25.563 11.508-11.688 18.598-27.578 18.598-45.102 0-35.883-29.684-64.973-66.297-64.973s-66.297 29.09-66.297 64.973c0 19.035 8.355 36.16 21.664 48.039.313-.949.727-1.891 1.258-2.816 8.82-15.305 25.918-25.684 45.574-25.684zm0 0" fill="#5e8ee1"/><path d="M79.441 316.738c-3.207 0-6.363.227-9.449.66 32.137 4.496 56.848 31.574 56.848 64.313 0 12.145-3.406 23.504-9.328 33.223 3.805 3.461 7.063 7.461 9.625 11.879 11.512-11.688 18.602-27.578 18.602-45.102 0-35.883-29.684-64.973-66.297-64.973zm0 0" fill="#467bff"/><path d="M96.172 360.707c0-10.875-6.953-19.688-15.535-19.688-8.578 0-15.535 8.813-15.535 19.688s6.957 19.688 15.535 19.688c8.582 0 15.535-8.813 15.535-19.688zm0 0" fill="#ffd5cc"/></svg>