<svg height="512pt" viewBox="0 -6 512.00194 512" width="512pt" xmlns="http://www.w3.org/2000/svg"><path d="M33.527 472.621c-6.199 0-12.316-2.852-16.262-8.238-6.582-8.973-4.641-21.582 4.328-28.16l72.215-52.957-11.492-50.496c-.16-11.129 7.383-21.621 18.508-21.785 11.102-.18 32.367 10.066 32.531 21.191l.895 60.895c.098 6.52-2.969 12.688-8.23 16.543l-80.594 59.102c-3.59 2.637-7.762 3.906-11.898 3.906zm0 0" fill="#2970d6"/><path d="M214.184 386.543c-.125-4.172-1.91-8.34-5.301-11.348l-1.672-1.484-59.566-60.723h-72.016l-.191.379c-7.398 15.668 1.25 33.586 17.082 40.906l78.078 42.137-.316.949 10.973 71.75c-.004.277-.008.613 0 .891.25 9.504 8.234 17.004 17.836 16.758 9.602-.246 17.184-8.145 16.938-17.648zm0 0" fill="#5e8ee1"/><path d="M230.617 500.766c4.871 0 8.465-4.648 7.145-9.336-4.438-15.754-18.902-27.305-36.078-27.305-17.172 0-31.641 11.551-36.078 27.305-1.32 4.691 2.273 9.336 7.148 9.336zm0 0-187.523-10.618c3.445 3.445 9.27 2.703 11.652-1.551 8.004-14.273 5.938-32.672-6.207-44.816-12.141-12.141-30.539-14.207-44.816-6.203-4.25 2.383-4.992 8.207-1.547 11.652zm0 0" fill="#b4b4b4"/><path d="M248.906 124.277c-7.219-7.215-19.023-7.215-26.238 0l-83.082 83.078c-7.063-5.719-16.035-9.16-25.781-9.16-22.605 0-41.102 18.492-41.102 41.102v81.191h82.203v-75.977l93.996-93.996c7.219-7.219 7.219-19.023.004-26.238zm0 0" fill="#9ddbdf"/><path d="M249.078 124.453c-7.215-7.41-19.453-7.137-26.766.18l-2.672 2.672c4.645 7.18 3.836 16.93-2.441 23.211l-71.504 71.504c-14.402 14.398-22.492 33.934-22.492 54.301v44.168h31.707v-75.977l93.996-93.996c7.152-7.156 7.211-18.832.172-26.063zm0 0" fill="#7cd6e6"/><path d="M143.035 130.898c0-23.078-12.988-41.785-29.016-41.785-16.023 0-29.016 18.707-29.016 41.785 0 23.074 12.992 41.781 29.016 41.781 16.027 0 29.016-18.707 29.016-41.781zm0 0 112.945-33.933c-.098-6.137-6.539-10.223-12.051-7.523-11.051 5.41-18.578 16.852-18.363 29.969.23 14.211 9.48 26.156 22.203 30.484 3.188 1.086 6.441-.391 8.008-3.039.141-.234.203-.512.203-.785zm0 0" fill="#ffd5cc"/><path d="M478.473 472.621c6.199 0 12.316-2.852 16.266-8.238 6.578-8.973 4.641-21.582-4.332-28.16l-72.211-52.957 11.488-50.496c.164-11.129-7.379-21.621-18.504-21.785-11.102-.18-32.367 10.066-32.531 21.191l-.895 60.895c-.098 6.52 2.969 12.688 8.227 16.543l80.594 59.102c3.59 2.637 7.766 3.906 11.898 3.906zm0 0" fill="#2970d6"/><path d="M297.82 386.543c.121-4.172 1.91-8.34 5.297-11.348l1.676-1.484 59.566-60.723h72.016l.191.379c7.398 15.668-1.254 33.586-17.086 40.906l-78.078 42.137.32.949-10.973 71.75v.891c-.25 9.504-8.238 17.004-17.84 16.758-9.598-.246-17.184-8.148-16.934-17.648zm0 0" fill="#5e8ee1"/><path d="M281.387 500.766c-4.875 0-8.469-4.648-7.148-9.336 4.438-15.754 18.906-27.305 36.078-27.305 17.176 0 31.641 11.551 36.078 27.305 1.32 4.691-2.273 9.336-7.145 9.336zm0 0 187.523-10.618c-3.445 3.445-9.273 2.703-11.656-1.551-8-14.273-5.938-32.672 6.207-44.816 12.145-12.141 30.539-14.207 44.816-6.203 4.25 2.383 4.996 8.207 1.547 11.652zm0 0" fill="#b4b4b4"/><path d="M263.098 124.277c7.215-7.215 19.023-7.215 26.238 0l83.078 83.078c7.063-5.719 16.039-9.16 25.781-9.16 22.609 0 41.102 18.492 41.102 41.102v81.191h-82.203v-75.977l-93.996-93.996c-7.215-7.219-7.215-19.023 0-26.238zm0 0" fill="#fc9086"/><path d="M359.754 198.758c1.191-.199 2.402-.344 3.625-.438l-73.637-73.637c-5.699-5.699-14.418-7.422-21.676-3.918-3.293 1.59-5.703 3.898-7.41 6.539l58.695 58.691c10.582 10.586 25.637 15.227 40.402 12.762zm0 0 38.441-.563c-5.605 0-10.957 1.145-15.84 3.203 14.789 6.238 25.238 20.906 25.238 37.898v81.191h31.703v-81.191c0-22.605-18.496-41.102-41.102-41.102zm0 0" fill="#f57a73"/><path d="M426.996 130.898c0-23.078-12.988-41.785-29.016-41.785-16.023 0-29.016 18.707-29.016 41.785 0 23.074 12.992 41.781 29.016 41.781 16.027 0 29.016-18.707 29.016-41.781zm0 0-170.976-33.933c.102-6.137 6.539-10.223 12.051-7.523 11.051 5.41 18.578 16.852 18.363 29.969-.23 14.211-9.477 26.156-22.203 30.484-3.184 1.086-6.441-.391-8.008-3.039-.141-.234-.203-.512-.203-.785l-10.566-28.781zm0 0" fill="#ffd5cc"/><path d="M199.363 48.496c-3.094-3.098-8.113-3.098-11.207 0l-4.023 4.02-4.023-4.02c-3.094-3.098-8.113-3.098-11.207 0-3.098 3.094-3.098 8.113 0 11.207l4.023 4.023-4.023 4.023c-3.098 3.094-3.098 8.113 0 11.207 1.547 1.547 3.574 2.32 5.605 2.32 2.027 0 4.055-.773 5.602-2.32l4.023-4.023 4.023 4.023c1.547 1.547 3.574 2.32 5.602 2.32 2.031 0 4.059-.773 5.605-2.32 3.098-3.094 3.098-8.113 0-11.207l-4.023-4.023 4.023-4.023c3.098-3.094 3.098-8.113 0-11.207zm0 0 110.18-30.941l4.02-4.023c3.098-3.094 3.098-8.113 0-11.207-3.094-3.098-8.113-3.098-11.207 0l-4.023 4.02-4.023-4.02c-3.094-3.098-8.113-3.098-11.207 0-3.098 3.094-3.098 8.113 0 11.207l4.02 4.023-4.02 4.02c-3.098 3.098-3.098 8.117 0 11.211 1.547 1.547 3.574 2.32 5.605 2.32 2.027 0 4.055-.773 5.605-2.32l4.02-4.023 4.023 4.023c1.547 1.547 3.578 2.32 5.605 2.32 2.027 0 4.059-.773 5.605-2.32 3.094-3.098 3.094-8.113 0-11.211zm0 0-39.996 191.269c-3.098-3.094-8.113-3.094-11.211 0l-4.02 4.023-4.023-4.023c-3.094-3.094-8.113-3.094-11.207 0-3.098 3.094-3.098 8.113 0 11.207l4.02 4.023-4.02 4.023c-3.098 3.094-3.098 8.113 0 11.207 1.547 1.547 3.574 2.324 5.602 2.324s4.059-.773 5.605-2.324l4.023-4.02 4.02 4.02c1.551 1.547 3.578 2.324 5.605 2.324 2.031 0 4.059-.773 5.605-2.324 3.098-3.094 3.098-8.113 0-11.207l-4.02-4.023 4.02-4.023c3.098-3.094 3.098-8.113 0-11.207zm0 0" fill="#e3ded9"/></svg>