<svg height="511pt" viewBox="1 -15 511.99899 511" width="511pt" xmlns="http://www.w3.org/2000/svg"><path d="M474.109 176.469h-75.293c-4.379 0-7.926-3.551-7.926-7.926 0-4.379 3.551-7.926 7.926-7.926h67.367v-48.43c0-4.375 3.551-7.926 7.926-7.926 4.379 0 7.926 3.551 7.926 7.926v56.355c0 4.375-3.547 7.926-7.926 7.926zm0 0 0 201.261c-4.379 0-7.926-3.547-7.926-7.926v-48.426h-67.367c-4.379 0-7.926-3.551-7.926-7.926 0-4.379 3.551-7.926 7.926-7.926h75.293c4.379 0 7.926 3.547 7.926 7.926v56.352c0 4.379-3.547 7.926-7.926 7.926zm0 0" fill="#e3ded9"/><path d="M512 401.934c0 21.594-17.508 39.098-39.102 39.098s-39.098-17.504-39.098-39.098 17.504-39.098 39.098-39.098 39.102 17.504 39.102 39.098zm0 0" fill="#5e8ee1"/><path d="M472.898 362.836c-5.645 0-11.004 1.203-15.852 3.355 13.695 6.086 23.25 19.793 23.25 35.742 0 15.949-9.555 29.66-23.25 35.742 4.848 2.152 10.207 3.359 15.852 3.359 21.594 0 39.102-17.508 39.102-39.098 0-21.598-17.508-39.102-39.102-39.102zm0 0" fill="#467bff"/><path d="M512 80.059c0 21.594-17.508 39.102-39.102 39.102s-39.098-17.508-39.098-39.102 17.504-39.098 39.098-39.098 39.102 17.504 39.102 39.098zm0 0" fill="#ffd5cc"/><path d="M472.898 40.961c-5.645 0-11.004 1.203-15.852 3.355 13.695 6.082 23.25 19.793 23.25 35.742 0 15.949-9.555 29.66-23.25 35.742 4.848 2.152 10.207 3.355 15.852 3.355 21.594 0 39.102-17.504 39.102-39.098s-17.508-39.098-39.102-39.098zm0 0" fill="#fdbbb5"/><path d="M114.637 176.469h-75.293c-4.379 0-7.926-3.551-7.926-7.926v-56.355c0-4.375 3.547-7.926 7.926-7.926 4.375 0 7.926 3.551 7.926 7.926v48.43h67.367c4.379 0 7.926 3.547 7.926 7.926 0 4.375-3.547 7.926-7.926 7.926zm0 0-75.293 201.261c-4.379 0-7.926-3.547-7.926-7.926v-56.352c0-4.379 3.547-7.926 7.926-7.926h75.293c4.379 0 7.926 3.547 7.926 7.926 0 4.375-3.547 7.926-7.926 7.926h-67.367v48.426c0 4.379-3.551 7.926-7.926 7.926zm0 0" fill="#e3ded9"/><path d="M292.332 46.145v-29.793c0-8.719-7.133-15.852-15.848-15.852h-37.324c-8.719 0-15.852 7.133-15.852 15.852v29.793zm0 0" fill="#f7ee7d"/><path d="M276.48.5h-31.699c8.715 0 15.848 7.133 15.848 15.852v29.793h31.703v-29.793c0-8.719-7.133-15.852-15.852-15.852zm0 0" fill="#f9cd45"/><path d="M374.824 482.199h-231.047c-16.156 0-29.375-13.219-29.375-29.375v-362.801c0-16.156 13.219-29.379 29.375-29.379h231.047c16.156 0 29.375 13.223 29.375 29.379v362.801c0 16.156-13.219 29.375-29.375 29.375zm0 0" fill="#fff4f1"/><path d="M373.555 60.645h-31.703c16.855 0 30.645 13.793 30.645 30.648v360.262c0 16.855-13.789 30.648-30.645 30.648h31.703c16.855 0 30.645-13.793 30.645-30.648v-360.262c0-16.855-13.789-30.648-30.645-30.648zm0 0" fill="#e8e4e0"/><path d="M315.652 92.504h-112.703c-8.355 0-15.195-6.836-15.195-15.195v-29.988c0-8.355 6.84-15.195 15.195-15.195h112.703c8.355 0 15.195 6.84 15.195 15.195v29.992c0 8.355-6.84 15.191-15.195 15.191zm0 0" fill="#ffe056"/><path d="M314.996 32.125h-31.703c8.719 0 15.852 7.133 15.852 15.852v28.676c0 8.719-7.133 15.852-15.852 15.852h31.703c8.719 0 15.852-7.133 15.852-15.852v-28.676c0-8.719-7.133-15.852-15.852-15.852zm0 0" fill="#f9cd45"/><path d="M206.836 161.367c0 11.398-9.238 20.637-20.637 20.637-11.395 0-20.637-9.238-20.637-20.637 0-11.398 9.242-20.637 20.637-20.637 11.398 0 20.637 9.238 20.637 20.637zm0 0 0 85.598c0 11.398-9.238 20.637-20.637 20.637-11.395 0-20.637-9.238-20.637-20.637 0-11.398 9.242-20.637 20.637-20.637 11.398 0 20.637 9.238 20.637 20.637zm0 0 0 85.598c0 11.395-9.238 20.633-20.637 20.633-11.395 0-20.637-9.238-20.637-20.633 0-11.398 9.242-20.637 20.637-20.637 11.398 0 20.637 9.238 20.637 20.637zm0 0 0 85.597c0 11.395-9.238 20.633-20.637 20.633-11.395 0-20.637-9.238-20.637-20.633 0-11.398 9.242-20.637 20.637-20.637 11.398 0 20.637 9.238 20.637 20.637zm0 0" fill="#9ddbdf"/><path d="M262.703 154.191h-21.141c-4.375 0-7.922-3.547-7.922-7.922 0-4.379 3.547-7.926 7.922-7.926h21.141c4.379 0 7.926 3.547 7.926 7.926 0 4.375-3.547 7.922-7.926 7.922zm0 0 90.336 25.168h-111.477c-4.375 0-7.922-3.547-7.922-7.926 0-4.375 3.547-7.926 7.922-7.926h111.477c4.375 0 7.926 3.551 7.926 7.926 0 4.379-3.551 7.926-7.926 7.926zm0 0-90.336 60.43h-21.141c-4.375 0-7.922-3.547-7.922-7.922 0-4.379 3.547-7.926 7.922-7.926h21.141c4.379 0 7.926 3.547 7.926 7.926 0 4.375-3.547 7.922-7.926 7.922zm0 0 90.336 25.168h-111.477c-4.375 0-7.922-3.551-7.922-7.926 0-4.379 3.547-7.926 7.922-7.926h111.477c4.375 0 7.926 3.547 7.926 7.926 0 4.375-3.551 7.926-7.926 7.926zm0 0-90.336 60.43h-21.141c-4.375 0-7.922-3.547-7.922-7.926 0-4.375 3.547-7.926 7.922-7.926h21.141c4.379 0 7.926 3.551 7.926 7.926 0 4.379-3.547 7.926-7.926 7.926zm0 0 90.336 25.168h-111.477c-4.375 0-7.922-3.551-7.922-7.926 0-4.379 3.547-7.926 7.922-7.926h111.477c4.375 0 7.926 3.547 7.926 7.926 0 4.375-3.551 7.926-7.926 7.926zm0 0-90.336 60.429h-21.141c-4.375 0-7.922-3.547-7.922-7.926 0-4.375 3.547-7.926 7.922-7.926h21.141c4.379 0 7.926 3.551 7.926 7.926 0 4.379-3.547 7.926-7.926 7.926zm0 0 90.336 25.164h-111.477c-4.375 0-7.922-3.547-7.922-7.926 0-4.375 3.547-7.926 7.922-7.926h111.477c4.375 0 7.926 3.551 7.926 7.926 0 4.379-3.551 7.926-7.926 7.926zm0 0" fill="#e3ded9"/><path d="M78.199 404.863c0 21.594-17.508 39.102-39.102 39.102s-39.098-17.508-39.098-39.102 17.504-39.098 39.098-39.098 39.102 17.504 39.102 39.098zm0 0" fill="#f7ee7d"/><path d="M39.098 365.766c-5.641 0-11.004 1.203-15.848 3.355 13.691 6.086 23.246 19.793 23.246 35.742s-9.555 29.66-23.246 35.742c4.844 2.152 10.207 3.359 15.848 3.359 21.598 0 39.102-17.508 39.102-39.102s-17.504-39.098-39.102-39.098zm0 0" fill="#f9cd45"/><path d="M78.598 80.059c0 21.594-17.508 39.102-39.102 39.102s-39.098-17.508-39.098-39.102 17.504-39.098 39.098-39.098 39.102 17.504 39.102 39.098zm0 0" fill="#fc9086"/><path d="M39.496 40.961c-5.645 0-11.004 1.203-15.848 3.355 13.691 6.082 23.246 19.793 23.246 35.742 0 15.949-9.555 29.66-23.246 35.742 4.844 2.152 10.203 3.355 15.848 3.355 21.594 0 39.102-17.504 39.102-39.098s-17.508-39.098-39.102-39.098zm0 0" fill="#f57a73"/></svg>