<svg height="511pt" viewBox="-30 0 511 511.99894" width="511pt" xmlns="http://www.w3.org/2000/svg"><path d="M156.379 484.66c-12.086-20.836-35.41-56.715-62.215-56.715-26.879 0-50.262 35.953-62.316 56.883-.727 1.262-1.297 2.551-1.723 3.852 16.109 14.383 37.523 23.152 61.035 23.152 25.613 0 48.734-10.43 65.219-27.172zm0 0" fill="#fff4f1"/><path d="M93.879 428.094c-5.621.035-11.074 1.66-16.301 4.375 6.621 3.332 12.898 8.418 18.688 14.328 20.707 21.148 10.129 57.234-18.828 63.383-.785.164-1.574.32-2.367.469 5.316.914 10.785 1.387 16.375 1.348 25.613-.172 48.66-10.762 65.035-27.613-12.227-20.754-35.797-56.473-62.602-56.289zm0 0" fill="#e8e4e0"/><path d="M94.164 449.703c26.805 0 50.133 14.121 62.215 34.957 15.738-15.98 25.438-37.711 25.438-61.676 0-49.066-40.59-88.848-90.66-88.848-50.066 0-90.656 39.781-90.656 88.848 0 26.031 11.422 49.445 29.625 65.695.422-1.301.992-2.59 1.723-3.852 12.055-20.93 35.438-35.125 62.316-35.125zm0 0" fill="#f7ee7d"/><path d="M91.156 334.137c-4.387 0-8.699.313-12.918.902 43.945 6.148 77.734 43.176 77.734 87.945 0 16.605-4.66 32.141-12.754 45.43 5.203 4.73 9.656 10.203 13.164 16.246 15.734-15.98 25.434-37.711 25.434-61.676 0-49.066-40.59-88.848-90.66-88.848zm0 0" fill="#ffe056"/><path d="M114.039 394.266c0-14.871-9.512-26.922-21.246-26.922s-21.246 12.051-21.246 26.922c0 14.867 9.512 26.922 21.246 26.922s21.246-12.055 21.246-26.922zm0 0" fill="#ffd5cc"/><path d="M426.73 484.66c-12.086-20.836-35.41-56.715-62.219-56.715-26.875 0-50.258 35.953-62.316 56.883-.727 1.262-1.297 2.551-1.719 3.852 16.105 14.383 37.523 23.152 61.031 23.152 25.617 0 48.734-10.43 65.223-27.172zm0 0" fill="#fff4f1"/><path d="M364.227 428.094c-5.621.035-11.074 1.66-16.301 4.375 6.621 3.332 12.898 8.418 18.688 14.328 20.707 21.148 10.129 57.234-18.824 63.383-.785.164-1.578.32-2.367.469 5.313.914 10.781 1.387 16.371 1.348 25.617-.172 48.664-10.762 65.035-27.613-12.227-20.754-35.793-56.473-62.602-56.289zm0 0" fill="#e8e4e0"/><path d="M364.512 449.703c26.809 0 50.133 14.121 62.219 34.957 15.734-15.98 25.434-37.711 25.434-61.676 0-49.066-40.59-88.848-90.656-88.848-50.07 0-90.66 39.781-90.66 88.848 0 26.031 11.426 49.445 29.625 65.695.426-1.301.996-2.59 1.723-3.852 12.059-20.93 35.438-35.125 62.316-35.125zm0 0" fill="#f86654"/><path d="M361.508 334.137c-4.391 0-8.703.313-12.922.902 43.949 6.148 77.738 43.176 77.738 87.945 0 16.605-4.66 32.141-12.758 45.43 5.203 4.73 9.66 10.203 13.164 16.246 15.734-15.98 25.434-37.711 25.434-61.676 0-49.066-40.59-88.848-90.656-88.848zm0 0" fill="#ea543c"/><path d="M384.387 394.266c0-14.871-9.512-26.922-21.246-26.922s-21.246 12.051-21.246 26.922c0 14.867 9.512 26.922 21.246 26.922s21.246-12.055 21.246-26.922zm0 0" fill="#ffd5cc"/><path d="M299.375 171.281c-13.754-23.711-40.297-64.535-70.801-64.535-30.586 0-57.191 40.91-70.91 64.727-.828 1.438-1.477 2.906-1.961 4.383 18.332 16.367 42.703 26.348 69.453 26.348 29.148 0 55.457-11.867 74.219-30.922zm0 0" fill="#fff4f1"/><path d="M228.254 106.914c-6.398.043-12.605 1.891-18.551 4.98 7.535 3.789 14.68 9.578 21.262 16.301 23.563 24.07 11.527 65.133-21.422 72.125-.895.191-1.793.367-2.695.535 6.051 1.039 12.273 1.578 18.633 1.535 29.152-.199 55.375-12.242 74.008-31.422-13.914-23.621-40.734-64.266-71.234-64.055zm0 0" fill="#e8e4e0"/><path d="M228.574 131.504c30.504 0 57.047 16.066 70.801 39.777 17.906-18.184 28.941-42.91 28.941-70.18 0-55.836-46.188-101.102-103.16-101.102-56.977 0-103.164 45.266-103.164 101.102 0 29.621 13 56.266 33.711 74.754.484-1.477 1.133-2.945 1.961-4.383 13.719-23.816 40.324-39.969 70.91-39.969zm0 0" fill="#5e8ee1"/><path d="M225.156 0c-4.992 0-9.902.355-14.703 1.027 50.008 6.992 88.457 49.129 88.457 100.074 0 18.895-5.301 36.57-14.516 51.695 5.922 5.383 10.992 11.609 14.98 18.484 17.906-18.184 28.941-42.91 28.941-70.18 0-55.836-46.188-101.102-103.16-101.102zm0 0" fill="#467bff"/><path d="M251.191 68.418c0-16.918-10.824-30.637-24.176-30.637s-24.176 13.719-24.176 30.637c0 16.922 10.824 30.637 24.176 30.637s24.176-13.715 24.176-30.637zm0 0" fill="#ffd5cc"/><path d="M311.246 250.258h-73.246v-16.297c0-4.504-3.652-8.16-8.16-8.16s-8.16 3.656-8.16 8.16v16.297h-73.246c-28.449 0-51.594 23.145-51.594 51.594v1.57c0 4.508 3.652 8.16 8.16 8.16 4.504 0 8.156-3.652 8.156-8.16v-1.57c0-19.449 15.824-35.273 35.277-35.273h162.813c19.449 0 35.273 15.824 35.273 35.273v1.613c0 4.508 3.652 8.16 8.16 8.16s8.16-3.652 8.16-8.16v-1.613c0-28.449-23.145-51.594-51.594-51.594zm0 0" fill="#e3ded9"/></svg>