<svg height="512pt" viewBox="0 -13 512.00102 512" width="512pt" xmlns="http://www.w3.org/2000/svg"><path d="M430.996 180.105h-173.605v-88.035c0-4.238-3.434-7.672-7.668-7.672-4.238 0-7.672 3.434-7.672 7.672v88.035h-174.711c-12.855 0-23.316 10.461-23.316 23.316v23.445c0 4.234 3.434 7.668 7.672 7.668 4.234 0 7.672-3.434 7.672-7.668v-23.445c0-4.398 3.578-7.973 7.973-7.973h174.711v25.832c0 4.238 3.434 7.672 7.672 7.672 4.234 0 7.668-3.434 7.668-7.672v-25.832h173.605c4.395 0 7.973 3.578 7.973 7.973v20.094c0 4.238 3.434 7.672 7.672 7.672 4.234 0 7.672-3.434 7.672-7.672v-20.094c0-12.855-10.461-23.316-23.316-23.316zm0 0-327.031 259.11h-36.625c-4.398 0-7.973-3.578-7.973-7.973v-99.363c0-4.238-3.438-7.672-7.672-7.672-4.238 0-7.672 3.434-7.672 7.672v99.363c0 12.855 10.461 23.316 23.316 23.316h36.625c4.238 0 7.672-3.434 7.672-7.672s-3.434-7.672-7.672-7.672zm0 0 342.676-118.36c-4.238 0-7.672 3.438-7.672 7.672v102.715c0 4.395-3.578 7.973-7.973 7.973h-38.266c-4.234 0-7.668 3.434-7.668 7.672 0 4.234 3.434 7.672 7.668 7.672h38.266c12.855 0 23.316-10.461 23.316-23.316v-102.715c0-4.234-3.438-7.672-7.672-7.672zm0 0" fill="#e3ded9"/><path d="M89.555 332.777h-74.211c-8.473 0-15.344-6.871-15.344-15.344v-74.215c0-8.473 6.871-15.34 15.344-15.34h74.211c8.473 0 15.344 6.867 15.344 15.34v74.215c0 8.473-6.871 15.344-15.344 15.344zm0 0" fill="#ffe056"/><path d="M88.395 227.879h-33.004c9.113 0 16.5 7.387 16.5 16.504v71.891c0 9.113-7.387 16.504-16.5 16.504h33.004c9.113 0 16.504-7.391 16.504-16.504v-71.891c0-9.117-7.391-16.504-16.504-16.504zm0 0" fill="#f9cd45"/><path d="M311.492 280.641c0 33.957-27.527 61.484-61.484 61.484-33.961 0-61.488-27.527-61.488-61.484s27.527-61.484 61.488-61.484c33.957 0 61.484 27.527 61.484 61.484zm0 0" fill="#fc9086"/><path d="M250.008 219.156c-6.18 0-12.141.918-17.77 2.617 25.293 7.621 43.719 31.09 43.719 58.867s-18.426 51.242-43.719 58.867c5.629 1.695 11.59 2.617 17.77 2.617 33.957 0 61.484-27.527 61.484-61.484s-27.527-61.484-61.484-61.484zm0 0" fill="#f57a73"/><path d="M410.633 98.332h-319.074c-8.438 0-15.344-6.906-15.344-15.344v-67.645c0-8.438 6.906-15.344 15.344-15.344h319.074c8.438 0 15.34 6.906 15.34 15.344v67.645c0 8.438-6.902 15.344-15.34 15.344zm0 0" fill="#5e8ee1"/><path d="M410.633 0h-30.688c8.441 0 15.344 6.906 15.344 15.344v67.645c0 8.438-6.902 15.344-15.344 15.344h30.688c8.438 0 15.34-6.906 15.34-15.344v-67.645c0-8.438-6.902-15.344-15.34-15.344zm0 0" fill="#467bff"/><path d="M382.883 485.59h-263.574c-8.441 0-15.344-6.902-15.344-15.34v-52.043c0-8.441 6.902-15.344 15.344-15.344h263.574c8.438 0 15.34 6.902 15.34 15.344v52.043c0 8.438-6.902 15.34-15.34 15.34zm0 0" fill="#ffeec6"/><path d="M382.883 402.863h-30.684c8.438 0 15.34 6.902 15.34 15.344v52.043c0 8.438-6.902 15.34-15.34 15.34h30.684c8.438 0 15.34-6.902 15.34-15.34v-52.043c0-8.441-6.902-15.344-15.34-15.344zm0 0" fill="#ffe89f"/><path d="M360.301 57.516h-226.465c-4.234 0-7.672-3.434-7.672-7.672s3.438-7.672 7.672-7.672h226.465c4.234 0 7.668 3.434 7.668 7.672s-3.434 7.672-7.668 7.672zm0 0" fill="#467bff"/><path d="M319.082 444.223c0-4.234 3.434-7.672 7.668-7.672s7.672 3.438 7.672 7.672c0 4.242-3.438 7.668-7.672 7.668s-7.668-3.426-7.668-7.668zm-33.754 0c0-4.234 3.438-7.672 7.672-7.672s7.668 3.438 7.668 7.672c0 4.242-3.434 7.668-7.668 7.668s-7.672-3.426-7.672-7.668zm-33.754 0c0-4.234 3.438-7.672 7.672-7.672s7.672 3.438 7.672 7.672c0 4.242-3.438 7.668-7.672 7.668s-7.672-3.426-7.672-7.668zm-33.754 0c0-4.234 3.438-7.672 7.672-7.672s7.672 3.438 7.672 7.672c0 4.242-3.438 7.668-7.672 7.668s-7.672-3.426-7.672-7.668zm-33.754 0c0-4.234 3.438-7.672 7.672-7.672s7.672 3.438 7.672 7.672c0 4.242-3.438 7.668-7.672 7.668s-7.672-3.426-7.672-7.668zm-33.75 0c0-4.234 3.434-7.672 7.668-7.672s7.672 3.438 7.672 7.672c0 4.242-3.438 7.668-7.672 7.668s-7.668-3.426-7.668-7.668zm0 0" fill="#ffe056"/><path d="M510.973 322.313l-57.344-99.324c-1.371-2.371-3.902-3.832-6.645-3.832s-5.273 1.461-6.645 3.832l-57.344 99.324c-.684 1.188-1.027 2.512-1.027 3.836 0 1.324.344 2.648 1.027 3.836 1.371 2.375 3.902 3.836 6.645 3.836h114.688c2.742 0 5.273-1.461 6.645-3.836.688-1.188 1.027-2.512 1.027-3.836 0-1.324-.344-2.648-1.027-3.836zm0 0" fill="#9ddbdf"/><path d="M510.973 322.313l-57.344-99.324c-1.371-2.371-3.902-3.832-6.645-3.832s-5.273 1.461-6.645 3.832l-8.699 15.07 48.648 84.254c.684 1.188 1.027 2.512 1.027 3.836 0 1.324-.344 2.648-1.027 3.836-1.371 2.375-3.902 3.836-6.645 3.836h30.684c2.742 0 5.273-1.461 6.645-3.836.688-1.188 1.027-2.512 1.027-3.836 0-1.324-.344-2.648-1.027-3.836zm0 0" fill="#7cd6e6"/></svg>