<svg height="511pt" viewBox="1 -22 511.99896 511" width="511pt" xmlns="http://www.w3.org/2000/svg"><path d="M212.664 403.461v-68.387c0-36.422-29.801-66.223-66.227-66.223h-40.723c-36.422 0-66.223 29.801-66.223 66.223v68.387zm0 0 243.5 0v-68.387c0-36.422-29.801-66.223-66.227-66.223h-40.723c-36.422 0-66.223 29.801-66.223 66.223v68.387zm0 0" fill="#5e8ee1"/><path d="M146.438 268.852h-31.195c36.422 0 66.223 29.801 66.223 66.223v68.387h31.199v-68.387c0-36.422-29.801-66.223-66.227-66.223zm0 0 243.5 0h-31.195c36.422 0 66.223 29.801 66.223 66.223v68.387h31.199v-68.387c0-36.422-29.801-66.223-66.227-66.223zm0 0" fill="#467bff"/><path d="M299.176 168.203l.184 61.582c.113 38.672 31.848 70.215 70.52 70.098 38.672-.113 70.215-31.848 70.098-70.52l-.18-61.16zm0 0" fill="#ffd5cc"/><path d="M439.797 168.203h-31.199l.184 61.16c.102 33.383-23.402 61.578-54.707 68.746 5.086 1.164 10.375 1.789 15.805 1.773 38.672-.113 70.215-31.848 70.098-70.52zm0 0" fill="#fdb4ad"/><path d="M55.676 168.203l.184 61.582c.113 38.672 31.848 70.215 70.52 70.098 38.672-.113 70.215-31.848 70.098-70.52l-.184-61.16zm0 0" fill="#ffd5cc"/><path d="M196.297 168.203h-31.199l.184 61.16c.102 33.383-23.402 61.578-54.707 68.746 5.09 1.164 10.375 1.789 15.805 1.773 38.672-.113 70.215-31.848 70.102-70.52zm0 0" fill="#fdb4ad"/><path d="M213.613 186.465l-.023-8.094c-.145-48.137-39.648-87.402-87.785-87.258-48.137.145-87.406 39.648-87.262 87.785l.023 7.566zm0 0" fill="#dc8839"/><path d="M213.586 178.371c-.145-48.137-39.645-87.402-87.785-87.258-5.23.016-10.348.52-15.332 1.43 40.652 7.395 71.793 43.105 71.922 85.828l.023 8.094h31.195zm0 0" fill="#be7511"/><path d="M457.109 186.465l-.023-8.094c-.145-48.137-39.645-87.402-87.785-87.258-48.137.145-87.402 39.648-87.258 87.785l.023 7.566zm0 0" fill="#e3b569"/><path d="M457.086 178.371c-.145-48.137-39.645-87.402-87.785-87.258-5.23.016-10.348.52-15.332 1.43 40.652 7.395 71.793 43.105 71.922 85.828l.023 8.094h31.195zm0 0" fill="#cb9558"/><path d="M475.68 467.914l-439.375-.066c-19.969-.004-36.309-16.348-36.305-36.32v-.859c.004-19.973 16.348-36.313 36.316-36.309l439.375.07c19.973 0 36.313 16.344 36.309 36.316v.863c-.004 19.969-16.348 36.309-36.32 36.305zm0 0" fill="#e3ded9"/><path d="M173.883 394.387l270.613.039c19.973.004 36.313 16.348 36.309 36.32v.859c-.004 19.91-16.242 36.203-36.129 36.305l31.004.004c19.973.004 36.316-16.332 36.32-36.309v-.859c.004-19.973-16.336-36.316-36.309-36.32m-388.902-.059l-50.469-.008-.191.004 137.758.023" fill="#d0cfd1"/><path d="M173.883 393.23c0 24.051-19.496 43.547-43.547 43.547s-43.547-19.496-43.547-43.547 19.496-43.547 43.547-43.547 43.547 19.496 43.547 43.547zm0 0 226.09-23.527c-2.402-3.535-7.426-4.02-10.449-1l-16.457 16.457c-4.859 4.863-12.742 4.863-17.602 0l-16.461-16.457c-3.02-3.02-8.043-2.535-10.445 1-12.055 17.754-9.551 42.738 7.516 57.488 8.039 6.949 18.105 10.449 28.191 10.508 10.086-.063 20.152-3.559 28.191-10.508 17.066-14.75 19.57-39.734 7.516-57.488zm0 0" fill="#ffe056"/><path d="M340.402 41.031l-5.008-27.141c-.781-4.234-4.848-7.039-9.082-6.254-4.234.781-7.039 4.848-6.258 9.082l.844 4.566c-21.938-13.613-47.102-20.785-73.121-20.785-27.961 0-54.695 8.184-77.668 23.723l1.383-7.504c.781-4.234-2.02-8.301-6.254-9.082-4.238-.785-8.305 2.02-9.086 6.254l-5.004 27.141c-.43 2.328.223 4.727 1.773 6.52 1.484 1.715 3.637 2.695 5.895 2.695l.301-.008 25.906-1c4.305-.168 7.656-3.789 7.492-8.094-.168-4.305-3.816-7.637-8.094-7.492h-.07c19.102-11.504 40.805-17.555 63.426-17.555s44.504 6.121 63.688 17.723l-4.34-.168c-4.281-.148-7.926 3.188-8.094 7.492-.164 4.305 3.188 7.926 7.492 8.094l25.906 1 .301.008c2.258 0 4.41-.98 5.895-2.695 1.551-1.793 2.207-4.191 1.777-6.52zm0 0" fill="#e3ded9"/></svg>