<svg height="512pt" viewBox="-55 0 512 512" width="512pt" xmlns="http://www.w3.org/2000/svg"><path d="M175.152 496.488v-480.977c0-8.531 6.98-15.512 15.512-15.512h20.301c8.531 0 15.512 6.98 15.512 15.512v480.977c0 8.531-6.98 15.512-15.512 15.512h-20.301c-8.531 0-15.512-6.98-15.512-15.512zm0 0" fill="#dc8839"/><path d="M210.965 0h-20.301c-1.316 0-2.59.184-3.813.496 6.703 1.711 11.703 7.801 11.703 15.016v480.977c0 7.215-5 13.301-11.703 15.016 1.223.313 2.496.496 3.813.496h20.301c8.531 0 15.512-6.98 15.512-15.512v-480.977c0-8.531-6.98-15.512-15.512-15.512zm0 0" fill="#be7511"/><path d="M281.195 64.996v-11.605c0-8.531-6.98-15.512-15.512-15.512h-129.738c-8.531 0-15.512 6.98-15.512 15.512v11.605l80.379 10.34zm0 0" fill="#cb9558"/><path d="M28.301 87.629h345.027v330.223h-345.027zm0 0" fill="#fff4f1"/><path d="M342.301 87.629h31.027v330.223h-31.027zm0 0" fill="#e3ded9"/><path d="M386.117 105.465h-370.605c-8.531 0-15.512-6.98-15.512-15.512v-10.547c0-8.531 6.98-15.512 15.512-15.512h370.602c8.535 0 15.516 6.98 15.516 15.512v10.547c0 8.531-6.98 15.512-15.512 15.512zm0 0" fill="#b4b4b4"/><path d="M386.117 63.895h-31.027c8.531 0 15.512 6.98 15.512 15.512v10.547c0 8.531-6.98 15.512-15.512 15.512h31.027c8.531 0 15.512-6.98 15.512-15.512v-10.547c0-8.531-6.98-15.512-15.512-15.512zm0 0" fill="#9a9999"/><path d="M386.117 442.484h-370.605c-8.531 0-15.512-6.98-15.512-15.516v-10.543c0-8.535 6.98-15.516 15.512-15.516h370.602c8.535 0 15.516 6.98 15.516 15.516v10.543c0 8.535-6.98 15.516-15.512 15.516zm0 0" fill="#b4b4b4"/><path d="M386.117 400.91h-31.027c8.531 0 15.512 6.98 15.512 15.516v10.543c0 8.535-6.98 15.516-15.512 15.516h31.027c8.531 0 15.512-6.98 15.512-15.516v-10.543c0-8.535-6.98-15.516-15.512-15.516zm0 0" fill="#9a9999"/><path d="M123.352 172.941l8.141-8.141c3.031-3.027 3.031-7.938 0-10.969-3.031-3.027-7.941-3.027-10.969 0l-8.141 8.141-8.141-8.141c-3.031-3.027-7.941-3.027-10.969 0-3.031 3.031-3.031 7.941 0 10.969l8.141 8.141-8.141 8.141c-3.031 3.031-3.031 7.941 0 10.969 1.516 1.516 3.5 2.273 5.484 2.273s3.973-.758 5.484-2.273l8.141-8.141 8.141 8.141c1.516 1.516 3.5 2.273 5.484 2.273 1.988 0 3.973-.758 5.488-2.273 3.027-3.027 3.027-7.941 0-10.969zm0 0" fill="#b4b4b4"/><path d="M147.375 261.258l-16.785-17.949c-1.645-1.762-3.918-2.586-6.148-2.445-2.207-.117-4.453.703-6.082 2.445l-16.785 17.949c-2.926 3.129-2.762 8.039.367 10.965 1.496 1.398 3.398 2.09 5.297 2.09 2.07 0 4.141-.824 5.668-2.461l3.813-4.074v50.141c0 4.285 3.469 7.758 7.754 7.758s7.758-3.473 7.758-7.758v-50.141l3.813 4.074c1.527 1.637 3.594 2.461 5.668 2.461 1.898 0 3.797-.691 5.293-2.09 3.133-2.926 3.297-7.836.371-10.965zm0 0 137.598 59.125l-35.457-35.457 5.578.188.266.004c4.16 0 7.605-3.305 7.746-7.496.145-4.281-3.211-7.867-7.492-8.012l-24.559-.828c-2.332-.082-4.48.906-5.965 2.52-1.715 1.48-2.77 3.691-2.688 6.133l.824 24.563c.145 4.191 3.586 7.496 7.75 7.496l.266-.004c4.281-.145 7.633-3.734 7.492-8.016l-.188-5.578 35.453 35.457c1.516 1.516 3.504 2.273 5.488 2.273s3.969-.758 5.484-2.273c3.027-3.031 3.027-7.941 0-10.969zm0 0-14.243-138.067h-50.141l4.074-3.813c3.129-2.926 3.297-7.832.367-10.965-2.922-3.125-7.832-3.293-10.961-.367l-17.953 16.785c-1.75 1.637-2.57 3.898-2.441 6.117-.129 2.219.691 4.477 2.441 6.113l17.953 16.785c1.496 1.398 3.398 2.09 5.293 2.09 2.074 0 4.141-.824 5.668-2.457 2.926-3.129 2.762-8.039-.367-10.965l-4.078-3.813h50.145c4.285 0 7.758-3.473 7.758-7.758 0-4.281-3.473-7.754-7.758-7.754zm0 0" fill="#e3ded9"/><path d="M322.93 322.34c-6.402-6.406-14.918-9.934-23.973-9.934-9.059 0-17.57 3.527-23.973 9.934-6.406 6.402-9.934 14.914-9.934 23.973 0 9.055 3.527 17.57 9.934 23.973 6.609 6.609 15.289 9.914 23.973 9.914s17.363-3.305 23.973-9.914c6.402-6.402 9.934-14.918 9.934-23.973 0-9.059-3.531-17.57-9.934-23.973zm0 0-198.453-9.93c-18.695 0-33.906 15.207-33.906 33.902s15.211 33.902 33.906 33.902 33.902-15.207 33.902-33.902-15.207-33.902-33.902-33.902zm0 0 174.48-155.551c-18.695 0-33.906 15.207-33.906 33.902s15.211 33.906 33.906 33.906 33.902-15.211 33.902-33.906c.004-18.695-15.207-33.902-33.902-33.902zm0 0" fill="#f86654"/></svg>