<svg height="512pt" viewBox="-7 0 511 512" width="512pt" xmlns="http://www.w3.org/2000/svg"><path d="M360.563 512h-344.27c-8.723 0-15.793-7.07-15.793-15.793v-480.414c0-8.723 7.07-15.793 15.793-15.793h344.27c8.723 0 15.793 7.07 15.793 15.793v480.414c0 8.723-7.07 15.793-15.793 15.793zm0 0" fill="#fff4f1"/><path d="M360.563 0h-31.586c8.723 0 15.793 7.07 15.793 15.793v480.414c0 8.723-7.07 15.793-15.793 15.793h31.586c8.723 0 15.793-7.07 15.793-15.793v-480.414c0-8.723-7.07-15.793-15.793-15.793zm0 0" fill="#e9e5e1"/><path d="M485.105 346.113l-4.445.109c-1.156-21.227-8.848-40.73-21.074-56.566l3.734-2.73c6.109-4.461 6.957-13.273 1.797-18.805-10.598-11.355-23.395-20.625-37.453-27.133-6.871-3.18-14.98.391-17.305 7.594l-1.844 5.707c-9.387-2.859-19.34-4.41-29.652-4.41-11.113 0-21.809 1.813-31.832 5.113l-2.059-6.305c-2.348-7.199-10.465-10.742-17.328-7.539-14.039 6.551-26.805 15.859-37.367 27.25-5.145 5.547-4.27 14.355 1.855 18.797l5.059 3.676c-12.281 16.406-19.707 36.633-20.223 58.535l-4.996.004c-7.555.008-13.418 6.609-12.531 14.113 1.84 15.543 6.691 30.445 14.355 44.063 3.707 6.586 12.34 8.461 18.445 4.008l2.691-1.961c12.273 17.766 30.031 31.449 50.813 38.609l-.566 1.754c-2.332 7.191 2.137 14.824 9.555 16.281 7.574 1.488 15.297 2.238 23.09 2.238h.008c7.828 0 15.586-.758 23.195-2.258 7.418-1.469 11.883-9.105 9.543-16.297l-.363-1.117c22.438-7.266 41.48-22.113 54.121-41.508l2.074 1.43c6.23 4.293 14.824 2.188 18.344-4.516 7.215-13.75 11.742-28.891 13.242-44.309.73-7.535-5.316-14.012-12.883-13.828zm-106.238 65.645c-33.043 0-59.922-26.879-59.922-59.922 0-33.039 26.879-59.918 59.922-59.918 33.039 0 59.918 26.879 59.918 59.918 0 33.043-26.883 59.922-59.918 59.922zm0 0" fill="#b4b4b4"/><path d="M485.105 346.117l-4.445.105c-1.156-21.223-8.848-40.73-21.074-56.566l3.734-2.727c6.109-4.465 6.957-13.273 1.797-18.805-10.598-11.355-23.395-20.625-37.453-27.133-6.871-3.18-14.98.391-17.305 7.594l-1.844 5.703c-1.484-.453-2.988-.859-4.5-1.246 26.156 22.133 49.082 67.824 49.082 104.766 0 58.762-48.328 95.066-103.949 105.809 1.555 1.293 3.441 2.238 5.586 2.66 7.574 1.488 15.297 2.238 23.086 2.238h.008c7.832 0 15.59-.758 23.199-2.258 7.418-1.469 11.883-9.105 9.543-16.297l-.363-1.117c22.438-7.266 41.48-22.109 54.117-41.508l2.078 1.43c6.23 4.293 14.824 2.188 18.34-4.516 7.219-13.75 11.746-28.891 13.242-44.309.734-7.535-5.313-14.012-12.879-13.824zm0 0" fill="#9a9999"/><path d="M94.117 148.008c0 11.832-9.59 21.422-21.422 21.422s-21.422-9.59-21.422-21.422 9.59-21.422 21.422-21.422 21.422 9.59 21.422 21.422zm0 0 0 97.953c0 11.832-9.59 21.422-21.422 21.422s-21.422-9.59-21.422-21.422 9.59-21.422 21.422-21.422 21.422 9.59 21.422 21.422zm0 0 0 97.949c0 11.832-9.59 21.426-21.422 21.426s-21.422-9.594-21.422-21.426c0-11.828 9.59-21.422 21.422-21.422s21.422 9.594 21.422 21.422zm0 0 0 97.953c0 11.832-9.59 21.422-21.422 21.422s-21.422-9.59-21.422-21.422 9.59-21.422 21.422-21.422 21.422 9.59 21.422 21.422zm0 0" fill="#ffe056"/><path d="M303.77 91.25h-235.559c-8.688 0-15.793-7.105-15.793-15.793v-5.402c0-8.688 7.105-15.793 15.793-15.793h235.559c8.684 0 15.789 7.105 15.789 15.793v5.402c0 8.688-7.105 15.793-15.789 15.793zm0 0 0-36.988h-31.586c8.688 0 15.793 7.105 15.793 15.793v5.402c0 8.688-7.105 15.793-15.793 15.793h31.586c8.684 0 15.789-7.105 15.789-15.793v-5.402c0-8.688-7.105-15.793-15.789-15.793zm0 0" fill="#9ddbdf"/><path d="M309.348 139.016h-180.148c-4.359 0-7.895-3.535-7.895-7.898 0-4.359 3.535-7.895 7.895-7.895h180.148c4.363 0 7.898 3.535 7.898 7.895 0 4.363-3.535 7.898-7.898 7.898zm0 0-75.192 27.398h-104.957c-4.359 0-7.895-3.535-7.895-7.895 0-4.363 3.535-7.898 7.895-7.898h104.957c4.359 0 7.895 3.535 7.895 7.898 0 4.359-3.535 7.895-7.895 7.895zm0 0 54.137 70.551h-159.094c-4.359 0-7.895-3.535-7.895-7.895 0-4.359 3.535-7.895 7.895-7.895h159.094c4.359 0 7.895 3.535 7.895 7.895 0 4.359-3.535 7.895-7.895 7.895zm0 0-85.723 27.402h-73.371c-4.359 0-7.895-3.535-7.895-7.898 0-4.359 3.535-7.895 7.895-7.895h73.371c4.359 0 7.895 3.535 7.895 7.895 0 4.363-3.535 7.898-7.895 7.898zm0 0 33.082 70.551h-106.453c-4.359 0-7.895-3.535-7.895-7.895 0-4.363 3.535-7.898 7.895-7.898h106.453c4.359 0 7.895 3.535 7.895 7.898 0 4.359-3.535 7.895-7.895 7.895zm0 0-33.082 27.398h-73.371c-4.359 0-7.895-3.535-7.895-7.895 0-4.363 3.535-7.898 7.895-7.898h73.371c4.359 0 7.895 3.535 7.895 7.898 0 4.359-3.535 7.895-7.895 7.895zm0 0-40.613 70.555h-32.758c-4.359 0-7.895-3.535-7.895-7.898 0-4.359 3.535-7.895 7.895-7.895h32.758c4.359 0 7.895 3.535 7.895 7.895 0 4.363-3.535 7.898-7.895 7.898zm0 0 51.141 27.399h-83.898c-4.359 0-7.895-3.535-7.895-7.895 0-4.363 3.535-7.898 7.895-7.898h83.898c4.363 0 7.898 3.535 7.898 7.898 0 4.359-3.535 7.895-7.898 7.895zm0 0 269.933-269.188l4.004-4.004c3.086-3.086 3.086-8.086 0-11.168-3.082-3.086-8.082-3.082-11.164 0l-4.008 4.008-4.008-4.008c-3.082-3.082-8.082-3.082-11.164 0-3.086 3.082-3.086 8.082 0 11.168l4.008 4.004-4.008 4.008c-3.086 3.086-3.086 8.086 0 11.168 1.539 1.543 3.563 2.313 5.582 2.313 2.02 0 4.043-.77 5.582-2.313l4.008-4.008 4.008 4.008c1.539 1.543 3.563 2.313 5.582 2.313s4.043-.77 5.582-2.313c3.086-3.082 3.086-8.082 0-11.168zm0 0-48.129-88.945c-3.086-3.086-8.086-3.086-11.168 0l-4.008 4.004-4.004-4.004c-3.086-3.086-8.086-3.086-11.168 0-3.082 3.082-3.082 8.082 0 11.164l4.008 4.008-4.008 4.008c-3.082 3.082-3.082 8.082 0 11.164 1.543 1.543 3.563 2.313 5.582 2.313 2.023 0 4.043-.77 5.586-2.313l4.004-4.004 4.008 4.004c1.543 1.543 3.563 2.313 5.582 2.313 2.023 0 4.043-.77 5.586-2.313 3.082-3.082 3.082-8.082 0-11.164l-4.008-4.008 4.008-4.008c3.082-3.082 3.082-8.082 0-11.164zm0 0 20.188-51.774c1.539 1.543 3.563 2.313 5.582 2.313s4.043-.77 5.582-2.313l4.008-4.004 4.008 4.004c1.539 1.543 3.563 2.313 5.582 2.313 2.02 0 4.043-.77 5.582-2.313 3.086-3.082 3.086-8.082 0-11.164l-4.004-4.008 4.004-4.008c3.086-3.082 3.086-8.082 0-11.164-3.082-3.086-8.082-3.086-11.164 0l-4.008 4.004-4.008-4.004c-3.082-3.086-8.082-3.086-11.164 0-3.086 3.082-3.086 8.082 0 11.164l4.008 4.008-4.008 4.008c-3.086 3.082-3.086 8.082 0 11.164zm0 0" fill="#e3ded9"/><path d="M429.91 398.773c-9.293-16.023-27.23-43.613-47.844-43.613-20.672 0-38.652 27.648-47.922 43.742-.563.973-1 1.965-1.324 2.965 12.387 11.059 28.855 17.805 46.934 17.805 19.699 0 37.477-8.023 50.156-20.898zm0 0" fill="#fff4f1"/><path d="M381.848 355.273c-4.324.031-8.52 1.281-12.539 3.367 5.094 2.563 9.922 6.473 14.371 11.016 15.926 16.266 7.789 44.016-14.477 48.742-.605.129-1.211.25-1.82.363 4.086.703 8.293 1.066 12.59 1.035 19.699-.133 37.422-8.273 50.012-21.234-9.402-15.961-27.527-43.43-48.137-43.289zm0 0" fill="#e3ded9"/><path d="M382.066 371.895c20.613 0 38.551 10.855 47.844 26.879 12.102-12.289 19.559-28.996 19.559-47.426 0-37.734-31.215-68.324-69.715-68.324-38.504 0-69.715 30.59-69.715 68.324 0 20.016 8.785 38.023 22.781 50.52.324-1 .762-1.992 1.324-2.965 9.27-16.094 27.25-27.008 47.922-27.008zm0 0" fill="#fc9086"/><path d="M379.754 283.023c-3.375 0-6.691.238-9.938.695 33.797 4.727 59.781 33.199 59.781 67.629 0 12.77-3.586 24.715-9.809 34.934 4 3.641 7.426 7.848 10.121 12.492 12.102-12.289 19.559-28.996 19.559-47.426 0-37.734-31.215-68.324-69.715-68.324zm0 0" fill="#f57a73"/><path d="M397.348 329.262c0-11.434-7.316-20.703-16.336-20.703-9.023 0-16.34 9.27-16.34 20.703 0 11.434 7.316 20.703 16.34 20.703 9.02 0 16.336-9.27 16.336-20.703zm0 0" fill="#ffd5cc"/></svg>