<svg height="512pt" viewBox="0 -43 512 512" width="512pt" xmlns="http://www.w3.org/2000/svg"><path d="M157.551 425.762h-130.402c-8.973 0-16.25-7.277-16.25-16.25v-245.219h162.902l10.832 101.805-10.832 143.414c0 8.973-7.277 16.25-16.25 16.25zm0 0" fill="#b4b4b4"/><path d="M320.453 425.762h-130.402c-8.977 0-16.25-7.277-16.25-16.25v-245.219h162.898l10.836 117.082-10.836 128.137c.004 8.973-7.273 16.25-16.246 16.25zm0 0" fill="#d0cfd1"/><path d="M483.352 425.762h-130.398c-8.977 0-16.25-7.277-16.25-16.25v-245.219h162.898v245.219c0 8.973-7.273 16.25-16.25 16.25zm0 0" fill="#b4b4b4"/><path d="M173.801 399.328v10.184c0 8.973 7.273 16.25 16.25 16.25h130.398c8.977 0 16.25-7.277 16.25-16.25v-10.184zm0 0 162.902 0v10.184c0 8.973 7.273 16.25 16.25 16.25h130.402c8.973 0 16.25-7.277 16.25-16.25v-10.184zm0 0-325.805 0v10.184c0 8.973 7.277 16.25 16.25 16.25h130.402c8.973 0 16.25-7.277 16.25-16.25v-10.184zm0 0" fill="#9a9999"/><path d="M274.211 237.574c2.297 7.074 8.891 11.863 16.328 11.863 16.633 0 23.551 21.285 10.094 31.063-6.02 4.371-8.535 12.121-6.238 19.195 5.141 15.82-12.965 28.973-26.422 19.195-6.016-4.371-14.168-4.371-20.184 0-13.457 9.777-31.563-3.375-26.422-19.195 2.301-7.074-.219-14.824-6.238-19.195-13.453-9.777-6.539-31.063 10.094-31.063 7.438 0 14.031-4.789 16.328-11.863 5.141-15.816 27.52-15.816 32.66 0zm0 0" fill="#f7ee7d"/><path d="M290.539 249.438c-7.438 0-14.031-4.789-16.328-11.863-5.141-15.816-27.52-15.816-32.66 0-.512 1.582-1.25 3.043-2.156 4.363 3.145 4.605 8.398 7.5 14.176 7.5 16.633 0 23.547 21.285 10.09 31.063-6.016 4.371-8.535 12.121-6.234 19.195 2.039 6.281.41 12.137-3.133 16.309 4.664-.996 9.648-.039 13.68 2.891 13.457 9.773 31.563-3.379 26.422-19.199-2.297-7.074.219-14.824 6.238-19.195 13.453-9.777 6.539-31.063-10.094-31.063zm0 0" fill="#f9cd45"/><path d="M107.055 283.836c2.07 6.371 8.004 10.684 14.703 10.684 14.977 0 21.203 19.164 9.086 27.969-5.418 3.938-7.684 10.914-5.613 17.285 4.625 14.242-11.676 26.09-23.793 17.285-5.418-3.938-12.758-3.938-18.176 0-12.117 8.805-28.418-3.039-23.793-17.285 2.07-6.371-.195-13.348-5.613-17.285-12.117-8.805-5.891-27.969 9.086-27.969 6.699 0 12.633-4.313 14.703-10.684 4.629-14.246 24.781-14.246 29.41 0zm0 0" fill="#f7ee7d"/><path d="M121.758 294.52c-6.699 0-12.633-4.313-14.703-10.684-4.629-14.246-24.781-14.246-29.41 0-.461 1.422-1.125 2.734-1.941 3.93 2.828 4.145 7.563 6.754 12.766 6.754 14.977 0 21.203 19.164 9.086 27.969-5.418 3.938-7.688 10.914-5.617 17.285 1.84 5.656.371 10.926-2.82 14.684 4.199-.895 8.691-.035 12.32 2.602 12.117 8.805 28.418-3.039 23.793-17.285-2.07-6.371.195-13.348 5.613-17.285 12.117-8.805 5.891-27.969-9.086-27.969zm0 0" fill="#f9cd45"/><path d="M432.855 292.059c2.07 6.371 8.008 10.684 14.707 10.684 14.977 0 21.203 19.164 9.086 27.969-5.418 3.938-7.688 10.914-5.617 17.285 4.629 14.246-11.676 26.09-23.789 17.285-5.422-3.934-12.758-3.934-18.176 0-12.117 8.805-28.422-3.039-23.793-17.285 2.07-6.371-.195-13.348-5.617-17.285-12.117-8.805-5.887-27.969 9.09-27.969 6.699 0 12.633-4.313 14.703-10.684 4.629-14.242 24.781-14.242 29.406 0zm0 0" fill="#f7ee7d"/><path d="M447.563 302.742c-6.699 0-12.637-4.313-14.707-10.684-4.625-14.242-24.777-14.242-29.406 0-.461 1.426-1.125 2.738-1.941 3.93 2.828 4.145 7.563 6.754 12.762 6.754 14.98 0 21.207 19.164 9.09 27.969-5.422 3.938-7.688 10.914-5.617 17.285 1.836 5.656.371 10.926-2.82 14.684 4.199-.895 8.688-.035 12.32 2.602 12.117 8.805 28.418-3.039 23.789-17.285-2.07-6.371.199-13.348 5.617-17.285 12.117-8.805 5.891-27.969-9.086-27.969zm0 0" fill="#f9cd45"/><path d="M486.832 195.648c-11.957-20.617-35.035-56.117-61.559-56.117-26.594 0-49.73 35.574-61.66 56.281-.719 1.25-1.281 2.527-1.703 3.813 15.938 14.23 37.129 22.906 60.387 22.906 25.352.004 48.223-10.316 64.535-26.883zm0 0" fill="#fff4f1"/><path d="M424.992 139.676c-5.563.039-10.957 1.648-16.129 4.332 6.551 3.297 12.762 8.328 18.488 14.176 20.488 20.93 10.023 56.633-18.625 62.715-.777.164-1.559.32-2.344.465 5.258.902 10.668 1.371 16.199 1.336 25.348-.172 48.148-10.648 64.352-27.324-12.098-20.535-35.418-55.879-61.941-55.699zm0 0" fill="#e3ded9"/><path d="M425.273 161.063c26.523 0 49.602 13.969 61.559 34.586 15.574-15.813 25.168-37.313 25.168-61.023 0-48.551-40.16-87.91-89.699-87.91-49.543 0-89.703 39.359-89.703 87.91 0 25.754 11.305 48.922 29.313 65 .422-1.285.984-2.563 1.707-3.813 11.926-20.707 35.063-34.75 61.656-34.75zm0 0" fill="#fc9086"/><path d="M422.301 46.715c-4.344 0-8.609.309-12.785.895 43.484 6.082 76.918 42.719 76.918 87.016 0 16.43-4.613 31.797-12.625 44.949 5.152 4.684 9.559 10.094 13.023 16.074 15.574-15.813 25.168-37.316 25.168-61.023 0-48.551-40.16-87.91-89.699-87.91zm0 0" fill="#f57a73"/><path d="M444.938 106.207c0-14.711-9.414-26.637-21.02-26.637-11.609 0-21.023 11.926-21.023 26.637 0 14.715 9.414 26.641 21.023 26.641 11.605 0 21.02-11.926 21.02-26.641zm0 0" fill="#ffd5cc"/><path d="M154.234 195.648c-11.957-20.617-35.035-56.117-61.559-56.117-26.598 0-49.73 35.574-61.66 56.281-.723 1.25-1.285 2.527-1.703 3.813 15.938 14.23 37.129 22.906 60.387 22.906 25.348.004 48.223-10.316 64.535-26.883zm0 0" fill="#fff4f1"/><path d="M92.395 139.676c-5.563.039-10.961 1.648-16.129 4.332 6.551 3.297 12.762 8.328 18.488 14.176 20.488 20.93 10.02 56.633-18.629 62.715-.777.164-1.559.32-2.344.465 5.262.902 10.672 1.371 16.203 1.336 25.344-.172 48.148-10.648 64.348-27.324-12.098-20.535-35.414-55.879-61.938-55.699zm0 0" fill="#e3ded9"/><path d="M92.676 161.063c26.523 0 49.602 13.969 61.559 34.586 15.57-15.813 25.168-37.313 25.168-61.023 0-48.551-40.16-87.91-89.699-87.91-49.543 0-89.703 39.359-89.703 87.91 0 25.758 11.305 48.922 29.313 65 .418-1.285.984-2.559 1.703-3.809 11.93-20.711 35.063-34.754 61.66-34.754zm0 0" fill="#9ddbdf"/><path d="M89.699 46.715c-4.34 0-8.605.309-12.785.895 43.484 6.082 76.918 42.719 76.918 87.016 0 16.43-4.609 31.797-12.621 44.949 5.148 4.684 9.559 10.094 13.023 16.074 15.57-15.813 25.168-37.316 25.168-61.023 0-48.551-40.16-87.91-89.703-87.91zm0 0" fill="#7cd6e6"/><path d="M112.34 106.207c0-14.711-9.414-26.637-21.023-26.637s-21.02 11.926-21.02 26.637c0 14.715 9.41 26.641 21.02 26.641s21.023-11.926 21.023-26.641zm0 0" fill="#ffd5cc"/><path d="M331.551 179.367c-14.402-24.832-42.195-67.582-74.141-67.582-32.027 0-59.891 42.84-74.258 67.781-.867 1.504-1.547 3.039-2.051 4.59 19.195 17.137 44.715 27.59 72.727 27.59 30.527 0 58.074-12.43 77.723-32.379zm0 0" fill="#fff4f1"/><path d="M257.074 111.957c-6.699.047-13.199 1.984-19.426 5.219 7.887 3.969 15.367 10.027 22.262 17.07 24.68 25.203 12.074 68.203-22.43 75.527-.938.199-1.875.387-2.824.563 6.336 1.086 12.852 1.652 19.512 1.605 30.527-.207 57.988-12.824 77.5-32.906-14.57-24.73-42.652-67.293-74.594-67.078zm0 0" fill="#e3ded9"/><path d="M257.41 137.711c31.945 0 59.738 16.824 74.141 41.656 18.75-19.043 30.309-44.941 30.309-73.496 0-58.469-48.367-105.871-108.031-105.871s-108.027 47.402-108.027 105.871c0 31.02 13.613 58.922 35.301 78.285.504-1.551 1.184-3.086 2.051-4.594 14.367-24.938 42.23-41.852 74.258-41.852zm0 0" fill="#ffe056"/><path d="M253.828 0c-5.227 0-10.367.371-15.395 1.074 52.367 7.324 92.633 51.449 92.633 104.797 0 19.789-5.555 38.297-15.203 54.137 6.203 5.637 11.512 12.16 15.688 19.359 18.75-19.043 30.309-44.941 30.309-73.496 0-58.469-48.367-105.871-108.031-105.871zm0 0" fill="#f9cd45"/><path d="M281.094 71.648c0-17.719-11.336-32.082-25.316-32.082-13.98 0-25.316 14.363-25.316 32.082s11.336 32.082 25.316 32.082c13.98 0 25.316-14.363 25.316-32.082zm0 0" fill="#ffd5cc"/></svg>