<svg height="512pt" viewBox="0 0 512.00102 512" width="512pt" xmlns="http://www.w3.org/2000/svg"><path d="M79.207 212.078c-4.496 0-8.141-3.645-8.141-8.141v-64.941c0-4.496 3.645-8.141 8.141-8.141s8.141 3.645 8.141 8.141v64.941c0 4.496-3.645 8.141-8.141 8.141zm0 0 176.664 0c-4.496 0-8.141-3.645-8.141-8.141v-64.941c0-4.496 3.645-8.141 8.141-8.141s8.141 3.645 8.141 8.141v64.941c0 4.496-3.645 8.141-8.141 8.141zm0 0 176.668 0c-4.496 0-8.145-3.645-8.145-8.141v-64.941c0-4.496 3.645-8.141 8.145-8.141 4.496 0 8.141 3.645 8.141 8.141v64.941c0 4.496-3.645 8.141-8.141 8.141zm0 0" fill="#e3ded9"/><path d="M489.996 130.223c-10.457-18.027-30.633-49.066-53.824-49.066-23.254 0-43.484 31.105-53.914 49.211-.629 1.094-1.121 2.207-1.488 3.332 13.934 12.441 32.465 20.031 52.801 20.031 22.16 0 42.16-9.023 56.426-23.508zm0 0" fill="#fff4f1"/><path d="M435.922 81.281c-4.863.035-9.582 1.441-14.102 3.789 5.727 2.883 11.16 7.281 16.164 12.395 17.918 18.297 8.766 49.516-16.285 54.836-.68.145-1.359.277-2.047.406 4.598.789 9.328 1.199 14.164 1.164 22.164-.148 42.102-9.309 56.266-23.891-10.578-17.953-30.969-48.855-54.16-48.699zm0 0" fill="#e3ded9"/><path d="M436.172 99.98c23.191 0 43.367 12.215 53.824 30.242 13.613-13.824 22.004-32.625 22.004-53.355 0-42.453-35.113-76.867-78.43-76.867-43.316 0-78.434 34.414-78.434 76.867 0 22.516 9.887 42.773 25.629 56.832.367-1.125.859-2.238 1.492-3.332 10.43-18.105 30.656-30.387 53.914-30.387zm0 0" fill="#fc9086"/><path d="M433.57 0c-3.797 0-7.527.27-11.18.781 38.023 5.316 67.254 37.352 67.254 76.086 0 14.363-4.031 27.801-11.035 39.301 4.504 4.094 8.355 8.828 11.387 14.055 13.613-13.824 22.004-32.625 22.004-53.355 0-42.453-35.113-76.867-78.43-76.867zm0 0" fill="#f57a73"/><path d="M453.363 52.02c0-12.867-8.23-23.293-18.379-23.293-10.152 0-18.383 10.426-18.383 23.293 0 12.863 8.23 23.289 18.383 23.289 10.148 0 18.379-10.426 18.379-23.289zm0 0" fill="#ffd5cc"/><path d="M312.426 130.223c-10.457-18.027-30.633-49.066-53.824-49.066-23.254 0-43.484 31.105-53.914 49.211-.629 1.094-1.121 2.207-1.488 3.332 13.938 12.441 32.465 20.031 52.801 20.031 22.164 0 42.164-9.023 56.426-23.508zm0 0" fill="#fff4f1"/><path d="M258.355 81.281c-4.863.035-9.582 1.441-14.105 3.789 5.73 2.883 11.16 7.281 16.168 12.395 17.914 18.297 8.762 49.516-16.285 54.836-.684.145-1.363.277-2.051.406 4.598.789 9.332 1.199 14.164 1.164 22.164-.148 42.102-9.309 56.266-23.891-10.578-17.953-30.965-48.855-54.156-48.699zm0 0" fill="#e3ded9"/><path d="M258.602 99.98c23.191 0 43.371 12.215 53.824 30.242 13.613-13.824 22.004-32.625 22.004-53.355 0-42.453-35.113-76.867-78.43-76.867s-78.43 34.414-78.43 76.867c0 22.516 9.883 42.773 25.629 56.832.367-1.125.859-2.238 1.488-3.332 10.43-18.105 30.66-30.387 53.914-30.387zm0 0" fill="#9ddbdf"/><path d="M256 0c-3.797 0-7.527.27-11.176.781 38.02 5.316 67.25 37.352 67.25 76.086 0 14.363-4.031 27.801-11.035 39.301 4.504 4.094 8.355 8.828 11.387 14.055 13.617-13.824 22.008-32.625 22.008-53.355-.004-42.453-35.117-76.867-78.434-76.867zm0 0" fill="#7cd6e6"/><path d="M275.793 52.02c0-12.867-8.227-23.293-18.379-23.293-10.152 0-18.379 10.426-18.379 23.293 0 12.863 8.227 23.289 18.379 23.289 10.152 0 18.379-10.426 18.379-23.289zm0 0" fill="#ffd5cc"/><path d="M134.855 130.223c-10.453-18.027-30.633-49.066-53.824-49.066-23.254 0-43.48 31.105-53.91 49.211-.633 1.094-1.125 2.207-1.492 3.332 13.938 12.441 32.465 20.031 52.805 20.031 22.16 0 42.16-9.023 56.422-23.508zm0 0" fill="#fff4f1"/><path d="M80.785 81.281c-4.863.035-9.582 1.441-14.102 3.789 5.727 2.883 11.16 7.281 16.164 12.395 17.914 18.297 8.766 49.516-16.285 54.836-.68.145-1.363.277-2.047.406 4.598.789 9.328 1.199 14.164 1.164 22.164-.148 42.102-9.309 56.266-23.891-10.578-17.953-30.969-48.855-54.16-48.699zm0 0" fill="#e3ded9"/><path d="M81.031 99.98c23.191 0 43.371 12.215 53.824 30.242 13.617-13.824 22.008-32.625 22.008-53.355 0-42.453-35.117-76.867-78.434-76.867-43.316 0-78.43 34.414-78.43 76.867 0 22.516 9.883 42.773 25.629 56.832.367-1.125.859-2.238 1.488-3.332 10.434-18.105 30.66-30.387 53.914-30.387zm0 0" fill="#ffe056"/><path d="M78.43 0c-3.793 0-7.523.27-11.176.781 38.02 5.316 67.254 37.352 67.254 76.086 0 14.363-4.031 27.801-11.039 39.301 4.504 4.094 8.359 8.828 11.391 14.055 13.613-13.824 22.004-32.625 22.004-53.355 0-42.453-35.117-76.867-78.434-76.867zm0 0" fill="#f9cd45"/><path d="M98.227 52.02c0-12.867-8.23-23.293-18.383-23.293-10.148 0-18.379 10.426-18.379 23.293 0 12.863 8.23 23.289 18.379 23.289 10.152 0 18.383-10.426 18.383-23.289zm0 0" fill="#ffd5cc"/><path d="M474.434 511.391h-433.324c-8.992 0-16.285-7.289-16.285-16.285v-278.969c0-8.992 7.293-16.281 16.285-16.281l213.016 43.418 220.309-43.418c8.992 0 16.285 7.289 16.285 16.281v278.973c-.004 8.992-7.293 16.281-16.285 16.281zm0 0" fill="#9ddbdf"/><path d="M474.434 199.855h-32.563c8.992 0 16.281 7.289 16.281 16.281v278.973c0 8.992-7.289 16.281-16.281 16.281h32.563c8.992 0 16.285-7.289 16.285-16.281v-278.973c-.004-8.992-7.293-16.281-16.285-16.281zm0 0 16.281 19.133v-2.852c0-8.992-7.289-16.281-16.281-16.281h-433.324c-8.992 0-16.285 7.289-16.285 16.281v.68l207.824 124.379c14.609 7.492 31.918 7.57 46.594.207zm0 0" fill="#7cd6e6"/><path d="M24.824 465.02v30.086c0 8.996 7.293 16.285 16.285 16.285h433.324c8.992 0 16.285-7.289 16.285-16.285v-30.086zm0 0" fill="#5e8ee1"/><path d="M458.152 465.02v30.086c0 8.996-7.289 16.285-16.281 16.285h32.563c8.992 0 16.281-7.289 16.281-16.285v-30.086zm0 0" fill="#467bff"/><path d="M319.266 405.711c-10.457-18.027-30.633-49.066-53.824-49.066-23.254 0-43.484 31.102-53.914 49.211-.629 1.094-1.121 2.207-1.488 3.332 13.934 12.441 32.465 20.031 52.801 20.031 22.16 0 42.16-9.023 56.426-23.508zm0 0" fill="#fff4f1"/><path d="M265.195 356.77c-4.863.035-9.582 1.441-14.105 3.789 5.73 2.883 11.16 7.281 16.168 12.395 17.914 18.297 8.762 49.516-16.289 54.832-.68.145-1.359.281-2.047.41 4.598.789 9.332 1.195 14.164 1.164 22.164-.152 42.102-9.309 56.266-23.891-10.578-17.953-30.969-48.855-54.156-48.699zm0 0" fill="#e3ded9"/><path d="M265.438 375.469c23.191 0 43.371 12.215 53.828 30.242 13.613-13.828 22.004-32.625 22.004-53.359 0-42.449-35.117-76.863-78.43-76.863-43.316 0-78.434 34.414-78.434 76.863 0 22.52 9.887 42.777 25.629 56.836.367-1.125.859-2.242 1.492-3.332 10.43-18.109 30.66-30.387 53.91-30.387zm0 0" fill="#ffd5cc"/><path d="M262.84 275.488c-3.797 0-7.527.27-11.18.781 38.023 5.316 67.254 37.352 67.254 76.082 0 14.367-4.031 27.805-11.035 39.305 4.504 4.094 8.355 8.828 11.387 14.055 13.617-13.824 22.004-32.625 22.004-53.355 0-42.453-35.113-76.867-78.43-76.867zm0 0" fill="#ffccc4"/><path d="M282.633 327.508c0-12.867-8.227-23.293-18.379-23.293s-18.379 10.426-18.379 23.293c0 12.863 8.227 23.289 18.379 23.289s18.379-10.426 18.379-23.289zm0 0" fill="#fff4f1"/></svg>