<svg height="512pt" viewBox="-34 0 512 512" width="512pt" xmlns="http://www.w3.org/2000/svg"><path d="M365.598 158.012l-131.973-107.285 10.383-10.434 131.973 107.285zm0 0-295.364 0l131.973-107.285-10.387-10.434-131.973 107.285zm0 0" fill="#e3ded9"/><path d="M428.465 512h-413.191c-8.438 0-15.273-6.836-15.273-15.273v-342.559c0-8.434 6.836-15.27 15.273-15.27h413.191c8.434 0 15.273 6.836 15.273 15.27v342.559c0 8.438-6.84 15.273-15.273 15.273zm0 0" fill="#fff4f1"/><path d="M428.465 135.668h-30.543c8.434 0 15.273 6.836 15.273 15.273v342.559c0 8.434-6.84 15.27-15.273 15.27h30.543c8.434 0 15.273-6.836 15.273-15.27v-342.559c0-8.438-6.84-15.273-15.273-15.273zm0 0" fill="#e3ded9"/><path d="M443.738 179.305v-28.363c0-8.438-6.84-15.273-15.273-15.273h-413.191c-8.438 0-15.273 6.836-15.273 15.273v28.363zm0 0" fill="#5e8ee1"/><path d="M428.465 135.668h-30.543c8.434 0 15.273 6.836 15.273 15.273v28.363h30.543v-28.363c0-8.438-6.84-15.273-15.273-15.273zm0 0" fill="#467bff"/><path d="M372.883 286.461h-248.93v-42.922h248.93c8.434 0 15.273 6.836 15.273 15.273v12.375c0 8.434-6.84 15.273-15.273 15.273zm0 0" fill="#f7ee7d"/><path d="M372.883 243.539h-30.543c8.434 0 15.273 6.836 15.273 15.273v12.375c0 8.434-6.84 15.273-15.273 15.273h30.543c8.434 0 15.273-6.84 15.273-15.273v-12.375c0-8.438-6.84-15.273-15.273-15.273zm0 0" fill="#f9cd45"/><path d="M229.816 368.371h-90.59c-8.434 0-15.27-6.84-15.27-15.273v-12.375c0-8.438 6.836-15.273 15.27-15.273h90.59c8.434 0 15.27 6.836 15.27 15.273v12.375c0 8.434-6.836 15.273-15.27 15.273zm0 0" fill="#9ddbdf"/><path d="M229.816 325.449h-30.547c8.438 0 15.273 6.836 15.273 15.273v12.375c0 8.434-6.836 15.273-15.273 15.273h30.547c8.434 0 15.27-6.84 15.27-15.273v-12.375c0-8.438-6.836-15.273-15.27-15.273zm0 0" fill="#7cd6e6"/><path d="M372.883 450.281h-119.199c-8.438 0-15.273-6.84-15.273-15.273v-12.375c0-8.434 6.836-15.273 15.273-15.273h119.199c8.434 0 15.273 6.84 15.273 15.273v12.375c0 8.434-6.84 15.273-15.273 15.273zm0 0" fill="#fc9086"/><path d="M373.348 407.359h-31.008c8.434 0 15.273 6.84 15.273 15.273v12.375c0 8.434-6.84 15.273-15.273 15.273h31.008c8.434 0 15.27-6.84 15.27-15.273v-12.375c0-8.438-6.836-15.273-15.27-15.273zm0 0" fill="#f57a73"/><path d="M89.363 258.969c0 11.57-9.379 20.953-20.949 20.953-11.574 0-20.953-9.383-20.953-20.953s9.379-20.953 20.953-20.953c11.57 0 20.949 9.383 20.949 20.953zm0 0" fill="#ffe056"/><path d="M89.363 347.137c0 11.574-9.379 20.953-20.949 20.953-11.574 0-20.953-9.379-20.953-20.953 0-11.57 9.379-20.949 20.953-20.949 11.57 0 20.949 9.379 20.949 20.949zm0 0" fill="#9ddbdf"/><path d="M89.363 434.691c0 11.57-9.379 20.949-20.949 20.949-11.574 0-20.953-9.379-20.953-20.949 0-11.574 9.379-20.953 20.953-20.953 11.57 0 20.949 9.379 20.949 20.953zm0 0" fill="#fc9086"/><path d="M217.16 0c-19.055 0-34.559 15.504-34.559 34.555 0 19.055 15.504 34.559 34.559 34.559s34.555-15.504 34.555-34.559c0-19.051-15.5-34.555-34.555-34.555zm0 0" fill="#467bff"/><path d="M125.605 477.047c-4.219 0-7.637-3.418-7.637-7.637v-253.656c0-4.219 3.418-7.637 7.637-7.637s7.637 3.418 7.637 7.637v253.656c0 4.219-3.422 7.637-7.637 7.637zm0 0" fill="#d0cfd1"/></svg>