<svg height="512pt" viewBox="0 -2 512.00102 512" width="512pt" xmlns="http://www.w3.org/2000/svg"><path d="M247.672 279.137h15.285v37.891h-15.285zm0 0 37.402-15.715c-3.855 0-6.984-3.125-6.984-6.984s3.129-6.984 6.984-6.984c11.219 0 20.348-9.129 20.348-20.348v-8.457h-18.07c-3.855 0-6.984-3.129-6.984-6.984 0-3.859 3.125-6.984 6.984-6.984h22.016c5.527 0 10.023 4.496 10.023 10.023v12.406c0 18.918-15.395 34.313-34.316 34.313zm0 0-58.125 0c3.855 0 6.984-3.125 6.984-6.984s-3.125-6.984-6.984-6.984c-11.219 0-20.348-9.129-20.348-20.348v-8.457h18.07c3.855 0 6.984-3.129 6.984-6.984 0-3.859-3.129-6.984-6.984-6.984h-22.016c-5.527 0-10.023 4.496-10.023 10.023v12.406c0 18.918 15.395 34.313 34.316 34.313zm0 0" fill="#e3ded9"/><path d="M219.055 215.656v32.43c0 20.328 16.629 36.957 36.957 36.957 20.324 0 36.957-16.629 36.957-36.957v-32.43c0-8.441-6.844-15.289-15.285-15.289h-43.344c-8.441 0-15.285 6.848-15.285 15.289zm0 0 59.441 120.227c2.316 0 4.117-2.113 3.637-4.383-2.613-12.398-13.672-21.781-26.816-21.781-13.148 0-24.207 9.383-26.82 21.781-.477 2.27 1.32 4.383 3.637 4.383zm0 0" fill="#ffe056"/><path d="M277.684 200.367h-30.574c8.441 0 15.285 6.848 15.285 15.289v32.43c0 14.883-8.918 27.773-21.668 33.617 4.664 2.137 9.84 3.34 15.285 3.34 20.328 0 36.957-16.629 36.957-36.957v-32.43c0-8.441-6.844-15.289-15.285-15.289zm0 0 4.449 131.133c-2.609-12.398-13.672-21.781-26.816-21.781-5.652 0-10.914 1.742-15.289 4.703 5.805 3.93 10.043 10.012 11.535 17.078.477 2.27-1.324 4.383-3.641 4.383h30.574c2.316 0 4.117-2.117 3.637-4.383zm0 0" fill="#f9cd45"/><path d="M305.684 113.613c-9.121-15.727-26.727-42.809-46.961-42.809-20.289 0-37.934 27.137-47.035 42.934-.551.957-.98 1.93-1.301 2.91 12.16 10.855 28.324 17.473 46.066 17.473 19.336.004 36.785-7.871 49.23-20.508zm0 0" fill="#fff4f1"/><path d="M258.508 70.918c-4.242.027-8.359 1.254-12.301 3.305 4.996 2.512 9.734 6.352 14.102 10.813 15.629 15.965 7.648 43.199-14.207 47.84-.594.125-1.191.246-1.789.355 4.012.688 8.141 1.047 12.359 1.016 19.336-.129 36.73-8.121 49.09-20.84-9.23-15.668-27.02-42.629-47.254-42.488zm0 0" fill="#e8e4e0"/><path d="M258.723 87.23c20.234 0 37.84 10.656 46.961 26.383 11.879-12.063 19.199-28.461 19.199-46.551 0-37.035-30.637-67.063-68.43-67.063-37.789 0-68.426 30.027-68.426 67.063 0 19.648 8.621 37.32 22.359 49.586.32-.98.75-1.953 1.301-2.906 9.102-15.801 26.746-26.512 47.035-26.512zm0 0" fill="#9ddbdf"/><path d="M256.453 0c-3.309 0-6.566.234-9.75.68 33.172 4.641 58.676 32.59 58.676 66.383 0 12.535-3.516 24.258-9.629 34.289 3.93 3.57 7.289 7.703 9.934 12.262 11.879-12.063 19.199-28.461 19.199-46.551 0-37.039-30.637-67.063-68.43-67.063zm0 0" fill="#7cd6e6"/><path d="M273.723 45.383c0-11.223-7.18-20.32-16.035-20.32s-16.035 9.098-16.035 20.32c0 11.223 7.18 20.32 16.035 20.32s16.035-9.098 16.035-20.32zm0 0" fill="#ffd5cc"/><path d="M117.656 302.875c-9.121-15.727-26.727-42.809-46.961-42.809-20.285 0-37.934 27.137-47.035 42.938-.551.953-.98 1.926-1.301 2.906 12.16 10.855 28.324 17.477 46.07 17.477 19.336 0 36.785-7.875 49.227-20.512zm0 0" fill="#fff4f1"/><path d="M70.484 260.18c-4.246.027-8.363 1.254-12.305 3.305 4.996 2.512 9.734 6.352 14.102 10.813 15.633 15.965 7.648 43.199-14.207 47.84-.594.125-1.188.246-1.789.355 4.012.688 8.141 1.047 12.359 1.016 19.336-.129 36.73-8.121 49.09-20.84-9.23-15.668-27.02-42.629-47.25-42.488zm0 0" fill="#e8e4e0"/><path d="M70.695 276.492c20.234 0 37.84 10.656 46.961 26.383 11.879-12.063 19.199-28.465 19.199-46.551 0-37.035-30.637-67.063-68.426-67.063-37.793 0-68.43 30.023-68.43 67.063 0 19.648 8.621 37.32 22.359 49.586.32-.98.75-1.953 1.301-2.906 9.102-15.801 26.75-26.512 47.035-26.512zm0 0" fill="#5e8ee1"/><path d="M68.43 189.262c-3.313 0-6.566.234-9.754.68 33.172 4.641 58.676 32.59 58.676 66.383 0 12.535-3.516 24.258-9.629 34.289 3.93 3.57 7.293 7.703 9.938 12.262 11.875-12.063 19.195-28.465 19.195-46.551 0-37.039-30.637-67.063-68.426-67.063zm0 0" fill="#467bff"/><path d="M85.699 234.645c0-11.223-7.18-20.32-16.035-20.32-8.859 0-16.039 9.098-16.039 20.32 0 11.223 7.18 20.324 16.039 20.324 8.855 0 16.035-9.102 16.035-20.324zm0 0" fill="#ffd5cc"/><path d="M492.805 302.875c-9.125-15.727-26.73-42.809-46.965-42.809-20.285 0-37.934 27.137-47.035 42.938-.551.953-.98 1.926-1.301 2.906 12.16 10.855 28.324 17.477 46.07 17.477 19.336 0 36.785-7.875 49.23-20.512zm0 0" fill="#fff4f1"/><path d="M445.625 260.18c-4.242.027-8.359 1.254-12.301 3.305 4.996 2.512 9.734 6.352 14.102 10.813 15.629 15.965 7.648 43.199-14.207 47.84-.594.125-1.188.246-1.789.355 4.012.688 8.141 1.047 12.359 1.016 19.336-.129 36.73-8.121 49.09-20.84-9.23-15.668-27.02-42.629-47.254-42.488zm0 0" fill="#e8e4e0"/><path d="M445.84 276.492c20.234 0 37.84 10.656 46.965 26.383 11.875-12.063 19.195-28.465 19.195-46.551 0-37.035-30.637-67.063-68.426-67.063-37.793 0-68.43 30.027-68.43 67.063 0 19.648 8.625 37.32 22.359 49.586.32-.98.75-1.953 1.301-2.906 9.102-15.801 26.75-26.512 47.035-26.512zm0 0" fill="#5e8ee1"/><path d="M443.57 189.262c-3.309 0-6.566.234-9.75.68 33.172 4.641 58.676 32.59 58.676 66.383 0 12.535-3.516 24.258-9.629 34.289 3.93 3.57 7.289 7.703 9.938 12.262 11.875-12.063 19.195-28.465 19.195-46.551 0-37.039-30.637-67.063-68.43-67.063zm0 0" fill="#467bff"/><path d="M460.844 234.645c0-11.223-7.18-20.32-16.039-20.32-8.855 0-16.035 9.098-16.035 20.32 0 11.223 7.18 20.324 16.035 20.324 8.859 0 16.039-9.102 16.039-20.324zm0 0" fill="#ffd5cc"/><path d="M305.684 487.516c-9.121-15.73-26.727-42.809-46.961-42.809-20.289 0-37.934 27.137-47.035 42.934-.551.953-.98 1.93-1.301 2.91 12.16 10.855 28.324 17.473 46.066 17.473 19.336 0 36.785-7.871 49.23-20.508zm0 0" fill="#fff4f1"/><path d="M258.508 444.816c-4.242.031-8.359 1.258-12.301 3.305 4.996 2.516 9.734 6.355 14.102 10.816 15.629 15.961 7.648 43.199-14.207 47.84-.594.125-1.191.242-1.789.355 4.012.688 8.141 1.047 12.359 1.016 19.336-.129 36.73-8.121 49.09-20.844-9.23-15.664-27.02-42.625-47.254-42.488zm0 0" fill="#e8e4e0"/><path d="M258.723 461.133c20.234 0 37.84 10.656 46.961 26.383 11.879-12.063 19.199-28.465 19.199-46.551 0-37.039-30.637-67.063-68.43-67.063-37.789 0-68.426 30.023-68.426 67.063 0 19.648 8.621 37.32 22.359 49.586.32-.98.75-1.953 1.301-2.906 9.102-15.801 26.746-26.512 47.035-26.512zm0 0" fill="#9ddbdf"/><path d="M256.453 373.902c-3.309 0-6.566.234-9.75.68 33.172 4.641 58.676 32.59 58.676 66.383 0 12.531-3.516 24.258-9.629 34.289 3.93 3.57 7.289 7.703 9.934 12.262 11.879-12.063 19.199-28.465 19.199-46.551 0-37.039-30.637-67.063-68.43-67.063zm0 0" fill="#7cd6e6"/><path d="M273.723 419.285c0-11.223-7.18-20.32-16.035-20.32s-16.035 9.098-16.035 20.32 7.18 20.32 16.035 20.32 16.035-9.098 16.035-20.32zm0 0" fill="#ffd5cc"/><path d="M83.082 167.102c-3.691-2.047-5.023-6.695-2.977-10.395 2.039-3.688 6.695-5.023 10.383-2.977 3.691 2.051 5.027 6.695 2.988 10.387-1.398 2.527-4.008 3.941-6.695 3.941-1.254 0-2.527-.305-3.699-.957zm17.668-28.598c-3.281-2.648-3.789-7.469-1.141-10.75 2.66-3.281 7.473-3.793 10.754-1.133 3.281 2.652 3.789 7.461 1.141 10.742-1.52 1.875-3.719 2.844-5.953 2.844-1.691 0-3.383-.559-4.801-1.703zm22.34-25.109c-2.77-3.18-2.445-8.012.734-10.781 3.18-2.785 8.012-2.457 10.781.723 2.785 3.18 2.457 8.012-.723 10.793-1.457 1.262-3.238 1.883-5.023 1.883-2.129 0-4.25-.887-5.77-2.617zm26.348-20.883c-2.191-3.617-1.031-8.316 2.574-10.508v.012c3.609-2.191 8.316-1.031 10.5 2.578 2.191 3.609 1.027 8.316-2.578 10.496-1.246.746-2.609 1.102-3.953 1.102-2.59 0-5.109-1.305-6.543-3.68zm0 0 269.832 68.875c-2.191-3.621-1.031-8.316 2.578-10.5 3.617-2.191 8.316-1.027 10.496 2.578 2.191 3.621 1.031 8.316-2.578 10.5-1.242.754-2.598 1.109-3.953 1.109-2.578 0-5.105-1.316-6.543-3.688zm-19.035-26.051c-2.773-3.18-2.449-8.012.73-10.781 3.18-2.781 8.012-2.457 10.785.723 2.781 3.18 2.453 8.012-.727 10.793-1.457 1.262-3.25 1.887-5.031 1.887-2.133 0-4.254-.887-5.758-2.621zm-23.25-22.379c-3.281-2.66-3.781-7.473-1.129-10.754 2.648-3.281 7.457-3.789 10.75-1.141 3.281 2.66 3.793 7.469 1.133 10.754-1.508 1.863-3.719 2.84-5.941 2.84-1.691 0-3.395-.559-4.813-1.699zm-26.75-18.027c-3.691-2.051-5.023-6.707-2.977-10.398 2.047-3.688 6.695-5.023 10.383-2.973h.012c3.691 2.035 5.023 6.695 2.977 10.383-1.398 2.52-4.004 3.945-6.695 3.945-1.254 0-2.52-.316-3.699-.957zm0 0 .16 336.289c-2.188-3.609-1.027-8.305 2.582-10.496 3.617-2.184 8.313-1.031 10.496 2.578 2.18 3.617 1.027 8.316-2.578 10.496-1.246.754-2.609 1.109-3.957 1.109-2.586 0-5.102-1.313-6.543-3.688zm27.895-18.742c-2.77-3.18-2.445-8.012.734-10.793 3.18-2.77 8.012-2.445 10.781.734 2.785 3.18 2.457 8.012-.723 10.781-1.457 1.266-3.242 1.887-5.023 1.887-2.129 0-4.25-.887-5.77-2.609zm24.258-23.285c-3.285-2.652-3.793-7.461-1.145-10.742 2.66-3.281 7.473-3.793 10.754-1.141 3.281 2.648 3.793 7.469 1.141 10.75-1.52 1.863-3.719 2.832-5.953 2.832-1.691 0-3.383-.551-4.797-1.699zm19.871-27.109c-3.688-2.051-5.023-6.695-2.984-10.387 2.047-3.699 6.695-5.035 10.395-2.984 3.688 2.047 5.023 6.695 2.977 10.395h.008c-1.395 2.516-4.004 3.934-6.695 3.934-1.254 0-2.527-.305-3.699-.957zm0 0-267.165 72.171c-3.688-2.035-5.023-6.695-2.973-10.383 2.047-3.691 6.691-5.023 10.383-2.988 3.699 2.051 5.035 6.707 2.984 10.398-1.395 2.516-4.004 3.941-6.695 3.941-1.254 0-2.527-.316-3.699-.969zm-28.953-19.504c-3.281-2.66-3.789-7.469-1.129-10.754 2.648-3.281 7.461-3.789 10.742-1.141 3.281 2.66 3.789 7.473 1.141 10.754-1.508 1.863-3.719 2.832-5.953 2.832-1.684 0-3.383-.551-4.801-1.691zm-25.141-24.215c-2.781-3.18-2.457-8.012.723-10.793 3.18-2.773 8.012-2.445 10.793.734 2.773 3.18 2.445 8.012-.734 10.793-1.445 1.262-3.242 1.883-5.023 1.883-2.129 0-4.25-.883-5.758-2.617zm-20.609-28.188c-2.18-3.621-1.016-8.316 2.59-10.5 3.609-2.191 8.316-1.027 10.5 2.578 2.18 3.621 1.027 8.316-2.59 10.5-1.234.754-2.602 1.109-3.945 1.109-2.586 0-5.117-1.313-6.555-3.688zm0 0" fill="#d0cfd1"/></svg>