<svg height="512pt" viewBox="-41 0 512 512" width="512pt" xmlns="http://www.w3.org/2000/svg"><path d="M419.953 172.66c0-95.359-66.848-172.66-162.203-172.66-95.359 0-172.66 77.301-172.66 172.66 0 78.641 52.582 144.996 124.5 165.844v91.199h96.316v-91.199c71.922-20.848 114.047-87.203 114.047-165.844zm0 0" fill="#ffe056"/><path d="M257.75 0c-5.289 0-10.516.25-15.684.715 88.008 7.926 156.98 81.875 156.98 171.945 0 78.641-52.582 144.996-124.504 165.844v91.199h31.363v-91.199c71.922-20.848 124.5-87.203 124.5-165.844 0-95.359-77.301-172.66-172.656-172.66zm0 0" fill="#f9cd45"/><path d="M257.793 512c-26.633 0-48.223-21.59-48.223-48.219v-73.836h96.441v73.836c0 29.418-21.586 48.219-48.219 48.219zm0 0" fill="#e3ded9"/><path d="M274.648 389.945v73.836c0 23.172-13.395 39.746-32.098 45.746 4.793 1.594 9.914 2.473 15.242 2.473 26.633 0 48.219-18.801 48.219-48.219v-73.836zm0 0" fill="#d0cfd1"/><path d="M338.285 168.961c0 50.828-30.75 92.031-81.578 92.031s-92.035-41.203-92.035-92.031 41.207-92.031 92.035-92.031 81.578 41.203 81.578 92.031zm0 0-81.578-92.031c-5.348 0-10.586.461-15.684 1.336 43.359 7.441 76.352 45.215 76.352 90.695 0 45.48-32.992 83.254-76.352 90.695 5.098.875 10.336 1.336 15.684 1.336 50.828 0 92.031-41.203 92.031-92.031s-41.203-92.031-92.031-92.031zm0 0" fill="#fff4f1"/><path d="M289.52 168.961c0 23.898-8.918 43.27-32.813 43.27-23.898 0-43.27-19.371-43.27-43.27 0-23.895 19.371-43.27 43.27-43.27 23.895 0 32.813 19.375 32.813 43.27zm0 0" fill="#f86654"/><path d="M256.707 125.691c-5.535 0-10.82 1.051-15.684 2.945 16.141 6.281 27.586 21.961 27.586 40.324s-11.445 34.043-27.586 40.324c4.863 1.895 10.148 2.945 15.684 2.945 23.895 0 43.266-19.371 43.266-43.27 0-23.895-19.371-43.27-43.266-43.27zm0 0" fill="#ea543c"/><path d="M320.535 397.871h-125.574c-4.332 0-7.844-3.512-7.844-7.844 0-4.328 3.512-7.84 7.844-7.84h125.574c4.332 0 7.84 3.512 7.84 7.84 0 4.332-3.508 7.844-7.84 7.844zm0 0" fill="#9a9999"/><path d="M256.227 159.16h-189.934l-20.738-20.734c-3.063-3.063-8.023-3.063-11.086 0s-3.063 8.023 0 11.086l9.645 9.648h-9.992l-20.734-20.734c-3.063-3.063-8.027-3.063-11.09 0s-3.063 8.023 0 11.086l17.23 17.234-17.23 17.23c-3.063 3.063-3.063 8.027 0 11.086 1.531 1.531 3.539 2.297 5.543 2.297 2.008 0 4.016-.766 5.547-2.297l20.223-20.223h9.996l-9.137 9.137c-3.063 3.059-3.063 8.023 0 11.086 1.531 1.531 3.539 2.297 5.547 2.297 2.004 0 4.012-.766 5.543-2.297l20.223-20.223h190.449c4.332 0 7.84-3.512 7.84-7.84 0-4.332-3.512-7.84-7.844-7.84zm0 0" fill="#e3ded9"/></svg>