<svg height="512pt" viewBox="0 0 512 511" width="512pt" xmlns="http://www.w3.org/2000/svg"><path d="M350.234 215.086c0-52.043-42.188-94.234-94.234-94.234s-94.234 42.191-94.234 94.234c0 42.922 28.695 79.137 67.949 90.516v49.777h52.57v-49.777c39.254-11.379 67.949-47.594 67.949-90.516zm0 0" fill="#ffe056"/><path d="M256 120.852c-5.207 0-10.316.43-15.297 1.242 44.77 7.309 78.941 46.156 78.941 92.992 0 42.922-28.699 79.137-67.953 90.516v49.777h30.594v-49.777c39.254-11.379 67.949-47.594 67.949-90.516 0-52.043-42.188-94.234-94.234-94.234zm0 0" fill="#f9cd45"/><path d="M222.059 335.176v38.805c0 18.727 15.234 33.965 33.965 33.965 19.684 0 33.969-14.285 33.969-33.965v-38.805zm0 0" fill="#d0cfd1"/><path d="M259.398 335.176v38.805c0 13.918-7.148 25.129-18.293 30.504 4.508 2.215 9.57 3.461 14.918 3.461 19.684 0 33.969-14.285 33.969-33.965v-38.805zm0 0" fill="#b4b4b4"/><path d="M289.676 219.039c0 34.922-35.063 63.234-35.063 63.234s-35.059-28.313-35.059-63.234c0-34.926 35.059-63.234 35.059-63.234s35.063 28.309 35.063 63.234zm0 0" fill="#f9cd45"/><path d="M254.613 155.805s-7.332 5.934-15.293 15.703c9.441 11.586 19.766 28.578 19.766 47.531 0 18.949-10.324 35.941-19.766 47.531 7.961 9.766 15.293 15.703 15.293 15.703s35.063-28.313 35.063-63.234c0-34.926-35.063-63.234-35.063-63.234zm0 0" fill="#f8b53c"/><path d="M290.27 341.375h-68.539c-4.223 0-7.648-3.426-7.648-7.648 0-4.227 3.426-7.648 7.648-7.648h68.539c4.223 0 7.648 3.422 7.648 7.648 0 4.223-3.426 7.648-7.648 7.648zm0 0" fill="#9a9999"/><path d="M134.164 135.668c-9.277-15.992-27.18-43.531-47.758-43.531-20.629 0-38.578 27.594-47.832 43.66-.559.973-.996 1.961-1.32 2.957 12.363 11.039 28.801 17.773 46.848 17.773 19.66 0 37.406-8.008 50.063-20.859zm0 0" fill="#fff4f1"/><path d="M86.191 92.25c-4.316.027-8.504 1.277-12.516 3.359 5.082 2.559 9.902 6.461 14.344 10.996 15.895 16.234 7.773 43.934-14.449 48.652-.602.129-1.211.25-1.816.363 4.078.699 8.277 1.063 12.566 1.035 19.664-.137 37.352-8.262 49.922-21.199-9.387-15.93-27.477-43.348-48.051-43.207zm0 0" fill="#e8e4e0"/><path d="M86.406 108.836c20.578 0 38.48 10.84 47.758 26.832 12.078-12.266 19.523-28.945 19.523-47.34 0-37.664-31.156-68.195-69.586-68.195-38.434 0-69.59 30.531-69.59 68.195 0 19.98 8.77 37.953 22.742 50.426.324-.996.762-1.984 1.32-2.957 9.254-16.063 27.203-26.961 47.832-26.961zm0 0" fill="#9ddbdf"/><path d="M84.102 20.133c-3.367 0-6.68.238-9.918.691 33.73 4.719 59.668 33.141 59.668 67.504 0 12.746-3.578 24.672-9.793 34.871 3.996 3.633 7.414 7.832 10.105 12.473 12.078-12.266 19.523-28.949 19.523-47.34 0-37.668-31.156-68.199-69.586-68.199zm0 0" fill="#7cd6e6"/><path d="M101.664 66.285c0-11.414-7.301-20.668-16.309-20.668-9.008 0-16.309 9.254-16.309 20.668s7.301 20.664 16.309 20.664c9.008 0 16.309-9.25 16.309-20.664zm0 0" fill="#ffd5cc"/><path d="M472.453 135.668c-9.277-15.992-27.18-43.531-47.758-43.531-20.629 0-38.578 27.594-47.832 43.66-.559.973-.996 1.961-1.32 2.957 12.363 11.039 28.801 17.773 46.848 17.773 19.66 0 37.406-8.008 50.063-20.859zm0 0" fill="#fff4f1"/><path d="M424.48 92.25c-4.316.027-8.504 1.277-12.516 3.359 5.082 2.559 9.902 6.461 14.344 10.996 15.895 16.234 7.773 43.934-14.449 48.652-.602.129-1.211.25-1.816.363 4.078.699 8.277 1.063 12.566 1.035 19.664-.137 37.352-8.262 49.922-21.199-9.387-15.93-27.477-43.348-48.051-43.207zm0 0" fill="#e8e4e0"/><path d="M424.695 108.836c20.578 0 38.48 10.84 47.758 26.832 12.078-12.266 19.523-28.945 19.523-47.34 0-37.664-31.156-68.195-69.586-68.195-38.434 0-69.59 30.531-69.59 68.195 0 19.98 8.77 37.953 22.742 50.426.324-.996.762-1.984 1.32-2.957 9.254-16.063 27.203-26.961 47.832-26.961zm0 0" fill="#5e8ee1"/><path d="M422.391 20.133c-3.367 0-6.68.238-9.918.691 33.73 4.719 59.668 33.141 59.668 67.504 0 12.746-3.578 24.672-9.793 34.871 3.996 3.633 7.414 7.832 10.105 12.473 12.078-12.266 19.523-28.949 19.523-47.34 0-37.668-31.156-68.199-69.586-68.199zm0 0" fill="#467bff"/><path d="M439.949 66.285c0-11.414-7.301-20.668-16.305-20.668-9.008 0-16.309 9.254-16.309 20.668s7.301 20.664 16.309 20.664c9.004 0 16.305-9.25 16.305-20.664zm0 0" fill="#ffd5cc"/><path d="M134.164 479.16c-9.277-15.992-27.18-43.535-47.758-43.535-20.629 0-38.578 27.598-47.832 43.664-.559.969-.996 1.961-1.32 2.957 12.363 11.039 28.801 17.773 46.848 17.773 19.66-.004 37.406-8.008 50.063-20.859zm0 0" fill="#fff4f1"/><path d="M86.191 435.738c-4.316.031-8.504 1.277-12.516 3.363 5.082 2.555 9.902 6.461 14.344 10.996 15.895 16.234 7.773 43.934-14.449 48.652-.602.125-1.211.246-1.816.359 4.078.699 8.277 1.063 12.566 1.035 19.664-.133 37.352-8.262 49.922-21.199-9.387-15.93-27.477-43.348-48.051-43.207zm0 0" fill="#e8e4e0"/><path d="M86.406 452.328c20.578 0 38.48 10.84 47.758 26.832 12.078-12.266 19.523-28.945 19.523-47.34 0-37.664-31.156-68.199-69.586-68.199-38.434 0-69.59 30.535-69.59 68.199 0 19.98 8.77 37.953 22.742 50.426.324-.996.762-1.988 1.32-2.957 9.254-16.066 27.203-26.961 47.832-26.961zm0 0" fill="#5e8ee1"/><path d="M84.102 363.621c-3.367 0-6.68.242-9.918.695 33.73 4.715 59.668 33.141 59.668 67.504 0 12.746-3.578 24.668-9.793 34.871 3.996 3.633 7.414 7.832 10.105 12.469 12.078-12.266 19.523-28.945 19.523-47.34 0-37.664-31.156-68.199-69.586-68.199zm0 0" fill="#467bff"/><path d="M101.664 409.773c0-11.414-7.301-20.664-16.309-20.664-9.008 0-16.309 9.25-16.309 20.664 0 11.414 7.301 20.664 16.309 20.664 9.008 0 16.309-9.25 16.309-20.664zm0 0" fill="#ffd5cc"/><path d="M472.453 479.16c-9.277-15.992-27.18-43.535-47.758-43.535-20.629 0-38.578 27.598-47.832 43.664-.559.969-.996 1.961-1.32 2.957 12.363 11.039 28.801 17.773 46.848 17.773 19.66-.004 37.406-8.008 50.063-20.859zm0 0" fill="#fff4f1"/><path d="M424.48 435.738c-4.316.031-8.504 1.277-12.516 3.363 5.082 2.555 9.902 6.461 14.344 10.996 15.895 16.234 7.773 43.934-14.449 48.652-.602.125-1.211.246-1.816.359 4.078.699 8.277 1.063 12.566 1.035 19.664-.133 37.352-8.262 49.922-21.199-9.387-15.93-27.477-43.348-48.051-43.207zm0 0" fill="#e8e4e0"/><path d="M424.695 452.328c20.578 0 38.48 10.84 47.758 26.832 12.078-12.266 19.523-28.945 19.523-47.34 0-37.664-31.156-68.199-69.586-68.199-38.434 0-69.59 30.535-69.59 68.199 0 19.98 8.77 37.953 22.742 50.426.324-.996.762-1.988 1.32-2.957 9.254-16.066 27.203-26.961 47.832-26.961zm0 0" fill="#9ddbdf"/><path d="M422.391 363.621c-3.367 0-6.68.242-9.918.695 33.73 4.715 59.668 33.141 59.668 67.504 0 12.746-3.578 24.668-9.793 34.871 3.996 3.633 7.414 7.832 10.105 12.469 12.078-12.266 19.523-28.945 19.523-47.34 0-37.664-31.156-68.199-69.586-68.199zm0 0" fill="#7cd6e6"/><path d="M439.949 409.773c0-11.414-7.301-20.664-16.305-20.664-9.008 0-16.309 9.25-16.309 20.664 0 11.414 7.301 20.664 16.309 20.664 9.004 0 16.305-9.25 16.305-20.664zm0 0" fill="#ffd5cc"/><path d="M153.406 30.133c-1.621-3.906.215-8.383 4.121-10.004 3.895-1.633 8.371.215 10.004 4.109 1.621 3.906-.227 8.383-4.121 10.004-.961.398-1.957.59-2.938.59-2.996 0-5.844-1.773-7.066-4.699zm194.898 3.988c-3.906-1.621-5.75-6.098-4.129-9.996 1.621-3.895 6.098-5.75 10.004-4.129 3.895 1.621 5.738 6.098 4.117 10.004-1.223 2.938-4.066 4.711-7.066 4.711-.969 0-1.969-.184-2.926-.59zm-164.367-15.48c-1.102-4.078 1.316-8.281 5.395-9.383v.012c4.078-1.102 8.277 1.316 9.371 5.395 1.102 4.078-1.316 8.27-5.395 9.371-.664.184-1.336.266-1.988.266-3.375 0-6.465-2.254-7.383-5.66zm134.449 5.313c-4.078-1.09-6.496-5.281-5.406-9.359 1.094-4.082 5.285-6.508 9.363-5.414 4.078 1.09 6.504 5.281 5.414 9.359-.918 3.426-4.008 5.68-7.383 5.68-.664 0-1.324-.094-1.988-.266zm-102.676-12.676c-.551-4.191 2.395-8.035 6.586-8.586 4.191-.551 8.027 2.398 8.578 6.59s-2.398 8.023-6.578 8.586c-.348.039-.684.059-1.008.059-3.785 0-7.066-2.805-7.578-6.648zm71.676 6.547c-4.191-.551-7.137-4.383-6.598-8.574.551-4.191 4.387-7.141 8.574-6.598 4.191.539 7.141 4.383 6.598 8.574-.496 3.855-3.793 6.66-7.574 6.66-.328 0-.664-.02-1-.063zm-39.199-9.676c-.008-4.223 3.418-7.648 7.641-7.648 4.219-.012 7.645 3.418 7.656 7.637 0 4.223-3.426 7.648-7.648 7.66-4.223 0-7.648-3.426-7.648-7.648zm0 0 .329 496.703c0-4.23 3.426-7.656 7.648-7.656 4.223 0 7.648 3.414 7.648 7.637.008 4.23-3.418 7.656-7.641 7.656-4.219 0-7.645-3.414-7.656-7.637zm-25.879 5.488c-4.191-.551-7.141-4.387-6.598-8.578.551-4.191 4.383-7.137 8.574-6.598 4.18.551 7.137 4.387 6.598 8.578-.512 3.852-3.793 6.656-7.578 6.656-.324 0-.66-.02-.996-.059zm58.488-6.629c-.551-4.191 2.398-8.035 6.578-8.586 4.191-.551 8.035 2.395 8.586 6.586.551 4.191-2.395 8.027-6.586 8.578-.34.051-.676.07-1.012.07-3.781 0-7.066-2.805-7.566-6.648zm-91.469.102c-4.078-1.09-6.504-5.293-5.414-9.371 1.09-4.078 5.293-6.508 9.371-5.406 4.078 1.094 6.496 5.285 5.406 9.363-.91 3.414-4.008 5.668-7.383 5.668-.652 0-1.316-.082-1.98-.254zm123.641-5.488c-1.102-4.078 1.316-8.277 5.395-9.371 4.078-1.102 8.27 1.316 9.371 5.395 1.102 4.082-1.316 8.27-5.395 9.371-.672.184-1.336.266-1.996.266-3.367 0-6.457-2.254-7.375-5.66zm-155.477-5.34c-3.895-1.625-5.738-6.09-4.117-9.996 1.621-3.895 6.086-5.75 9.992-4.129s5.75 6.098 4.129 10.004c-1.223 2.938-4.066 4.711-7.066 4.711-.977 0-1.977-.184-2.938-.59zm186.648-4.234c-1.621-3.906.227-8.383 4.121-10.004 3.895-1.629 8.371.215 10.004 4.109 1.621 3.898-.215 8.383-4.121 10.004-.957.398-1.957.594-2.934.594-3 0-5.836-1.766-7.07-4.703zm0 0 138.032-129.954c-3.906-1.621-5.75-6.098-4.129-10.004 1.621-3.895 6.098-5.738 9.992-4.117 3.906 1.621 5.75 6.086 4.129 9.992-1.223 2.938-4.066 4.711-7.066 4.711-.98 0-1.969-.184-2.926-.582zm11.449-30.551c-4.078-1.09-6.504-5.281-5.414-9.359 1.094-4.078 5.285-6.508 9.371-5.414 4.082 1.09 6.496 5.281 5.406 9.359-.918 3.426-4.008 5.68-7.383 5.68-.652 0-1.316-.09-1.98-.266zm7.324-31.793c-4.191-.543-7.148-4.387-6.598-8.566.539-4.191 4.383-7.148 8.566-6.598 4.191.539 7.148 4.387 6.598 8.566-.5 3.855-3.797 6.668-7.578 6.668-.328 0-.664-.02-.988-.07zm-4.57-40.117c-.008-4.23 3.418-7.656 7.641-7.656 4.219 0 7.645 3.414 7.656 7.637 0 4.23-3.426 7.656-7.648 7.656-4.223 0-7.648-3.414-7.648-7.637zm-2.07-31.551c-.551-4.188 2.398-8.023 6.59-8.574 4.18-.551 8.023 2.395 8.574 6.578.551 4.191-2.395 8.035-6.586 8.586-.336.039-.676.059-1 .059-3.785 0-7.078-2.793-7.578-6.648zm-6.18-30.988c-1.09-4.078 1.328-8.27 5.406-9.371 4.078-1.09 8.27 1.328 9.371 5.406 1.09 4.078-1.324 8.27-5.406 9.371-.66.172-1.324.266-1.988.266-3.375 0-6.465-2.254-7.383-5.672zm-10.207-29.898c-1.621-3.895.227-8.371 4.121-9.992 3.895-1.633 8.371.215 10.004 4.109 1.621 3.895-.215 8.371-4.121 10.004-.957.398-1.957.59-2.938.59-2.996 0-5.84-1.773-7.066-4.711zm0 0-458.617 191.074c-1.621-3.902.215-8.379 4.121-10.004 3.895-1.629 8.371.215 10.004 4.113 1.621 3.902-.215 8.379-4.121 10-.957.41-1.957.594-2.938.594-2.996 0-5.844-1.766-7.066-4.703zm-10.859-31.813c-1.09-4.082 1.324-8.281 5.406-9.371 4.078-1.102 8.27 1.313 9.371 5.395 1.09 4.078-1.328 8.277-5.406 9.371-.664.184-1.324.266-1.988.266-3.375 0-6.465-2.246-7.383-5.66zm-6.566-32.969c-.551-4.18 2.395-8.023 6.586-8.574 4.184-.551 8.027 2.395 8.578 6.586.551 4.18-2.398 8.023-6.59 8.574-.336.043-.672.074-1.008.074-3.773-.012-7.059-2.805-7.566-6.66zm-2.203-33.527c0-4.223 3.426-7.648 7.648-7.648 4.223-.012 7.648 3.414 7.648 7.637.008 4.223-3.418 7.648-7.641 7.66-4.219 0-7.645-3.426-7.656-7.648zm8.758-24.965c-4.191-.551-7.148-4.383-6.598-8.574.543-4.18 4.375-7.137 8.566-6.598 4.191.551 7.148 4.383 6.598 8.574-.5 3.855-3.781 6.66-7.566 6.66-.336 0-.66-.02-1-.063zm5.336-32.18c-4.082-1.094-6.496-5.293-5.406-9.371 1.09-4.082 5.281-6.496 9.363-5.406 4.078 1.09 6.504 5.281 5.414 9.363-.918 3.414-4.008 5.668-7.383 5.668-.652 0-1.328-.082-1.988-.254zm9.543-31.203c-3.906-1.621-5.75-6.098-4.129-9.996 1.621-3.902 6.098-5.75 9.992-4.129 3.906 1.621 5.75 6.098 4.129 9.992-1.223 2.949-4.066 4.723-7.066 4.723-.977 0-1.969-.195-2.926-.59zm0 0" fill="#d0cfd1"/></svg>