<?xml version="1.0" encoding="utf-8"?>
<!-- Generator: Adobe Illustrator 22.1.0, SVG Export Plug-In . SVG Version: 6.00 Build 0)  -->
<svg xmlns="http://www.w3.org/2000/svg" xmlns:xlink="http://www.w3.org/1999/xlink" x="0px" y="0px"
	 viewBox="0 0 200.4 66.5" style="enable-background:new 0 0 200.4 66.5;" xml:space="preserve">
<style type="text/css">
	.airbnb-original-0{fill:#FF5A5F;}
</style>
<path class="airbnb-original-0" d="M105.4,17.6c0,2.2-1.8,4.1-4.1,4.1s-4.1-1.8-4.1-4.1s1.7-4.1,4.1-4.1C103.7,13.7,105.4,15.5,105.4,17.6z
	 M88.7,25.8c0,0.4,0,1,0,1s-1.9-2.5-6-2.5c-6.8,0-12.1,5.2-12.1,12.3c0,7.1,5.2,12.3,12.1,12.3c4.2,0,6-2.6,6-2.6v1.1
	c0,0.5,0.4,0.9,0.9,0.9h5V24.9c0,0-4.6,0-5,0C89.1,24.9,88.7,25.4,88.7,25.8z M88.7,40.8c-0.9,1.4-2.8,2.6-5,2.6c-4,0-7-2.5-7-6.7
	s3.1-6.7,7-6.7c2.2,0,4.2,1.2,5,2.6V40.8z M98.4,24.9h6v23.4h-6V24.9z M187.7,24.3c-4.1,0-6,2.5-6,2.5V13.7h-6v34.7c0,0,4.6,0,5,0
	c0.5,0,0.9-0.4,0.9-0.9v-1.1l0,0c0,0,1.9,2.6,6,2.6c6.8,0,12.1-5.2,12.1-12.3C199.8,29.5,194.5,24.3,187.7,24.3z M186.7,43.3
	c-2.3,0-4.1-1.2-5-2.6v-8.4c0.9-1.2,2.9-2.6,5-2.6c4,0,7,2.5,7,6.7S190.7,43.3,186.7,43.3z M172.6,34.5v14h-6V35.2
	c0-3.9-1.2-5.4-4.6-5.4c-1.8,0-3.7,0.9-4.9,2.3v16.3h-6V24.9h4.7c0.5,0,0.9,0.4,0.9,0.9v1c1.7-1.8,4.1-2.5,6.4-2.5
	c2.6,0,4.8,0.7,6.5,2.2C171.8,28.3,172.6,30.5,172.6,34.5z M136.6,24.3c-4.1,0-6,2.5-6,2.5V13.7h-6v34.7c0,0,4.6,0,5,0
	c0.5,0,0.9-0.4,0.9-0.9v-1.1l0,0c0,0,1.9,2.6,6,2.6c6.8,0,12.1-5.2,12.1-12.3C148.7,29.5,143.4,24.3,136.6,24.3z M135.6,43.3
	c-2.3,0-4.1-1.2-5-2.6v-8.4c0.9-1.2,2.9-2.6,5-2.6c4,0,7,2.5,7,6.7S139.6,43.3,135.6,43.3z M119.4,24.3c1.8,0,2.7,0.3,2.7,0.3v5.5
	c0,0-5-1.7-8.1,1.9v16.4h-6V24.9c0,0,4.6,0,5,0c0.5,0,0.9,0.4,0.9,0.9v1C115.1,25.5,117.6,24.3,119.4,24.3z M57.3,46.3
	c-0.3-0.7-0.6-1.6-0.9-2.2c-0.5-1.1-1-2.2-1.4-3.2l-0.1-0.1c-4.3-9.3-8.9-18.8-13.8-28.2l-0.2-0.4c-0.5-0.9-1-1.9-1.5-2.9
	c-0.6-1.1-1.2-2.3-2.2-3.4c-2-2.5-4.9-3.9-7.9-3.9c-3.1,0-5.9,1.4-8,3.7C20.3,6.9,19.6,8,19,9.2c-0.5,1-1,2-1.5,2.9l-0.2,0.4
	c-4.8,9.3-9.5,18.8-13.8,28.2l-0.1,0.1c-0.4,1-0.9,2.1-1.4,3.2c-0.3,0.7-0.6,1.4-0.9,2.2c-0.8,2.3-1.1,4.5-0.7,6.7
	c0.7,4.7,3.8,8.6,8.1,10.3c1.6,0.7,3.3,1,5,1c0.5,0,1.1-0.1,1.6-0.1c2.1-0.2,4.2-0.9,6.2-2.1c2.6-1.4,5-3.5,7.7-6.5
	c2.7,3,5.2,5,7.7,6.5c2.1,1.2,4.2,1.9,6.2,2.1c0.5,0.1,1.1,0.1,1.6,0.1c1.7,0,3.5-0.3,5-1c4.4-1.7,7.4-5.7,8.1-10.3
	C58.3,50.7,58.1,48.6,57.3,46.3z M29.2,49.5c-3.4-4.2-5.5-8.2-6.3-11.6c-0.3-1.4-0.4-2.7-0.2-3.8c0.1-1,0.5-1.9,1-2.6
	c1.2-1.7,3.2-2.7,5.5-2.7s4.4,1,5.5,2.7c0.5,0.7,0.9,1.6,1,2.6c0.2,1.1,0.1,2.4-0.2,3.8C34.7,41.2,32.5,45.2,29.2,49.5z M54,52.4
	c-0.4,3.2-2.6,6-5.7,7.3c-1.5,0.6-3.1,0.8-4.7,0.6c-1.6-0.2-3.1-0.7-4.7-1.6c-2.2-1.2-4.5-3.2-7.1-6c4.1-5,6.6-9.7,7.5-13.8
	c0.4-1.9,0.5-3.7,0.3-5.3c-0.2-1.6-0.8-3-1.7-4.2c-1.9-2.8-5.2-4.4-8.8-4.4s-6.9,1.7-8.8,4.4c-0.9,1.2-1.4,2.7-1.7,4.2
	c-0.2,1.6-0.2,3.4,0.3,5.3c0.9,4.1,3.5,8.8,7.5,13.8c-2.6,2.9-4.9,4.8-7.1,6c-1.6,0.9-3.2,1.4-4.7,1.6c-1.7,0.2-3.3-0.1-4.7-0.6
	c-3.1-1.2-5.2-4.1-5.7-7.3c-0.2-1.6-0.1-3.1,0.6-4.9c0.2-0.6,0.5-1.2,0.8-2c0.4-1,0.9-2.1,1.4-3.1l0.1-0.1c4.3-9.3,8.9-18.8,13.7-28
	l0.2-0.4c0.5-0.9,1-1.9,1.5-2.9c0.5-1,1.1-1.9,1.7-2.7c1.3-1.5,3.1-2.3,5-2.3s3.7,0.8,5,2.3c0.7,0.8,1.2,1.7,1.7,2.7
	c0.5,0.9,1,1.9,1.5,2.9l0.2,0.4c4.7,9.3,9.3,18.8,13.6,28v0.1c0.5,1,0.9,2.1,1.4,3.1c0.3,0.7,0.6,1.4,0.8,2
	C54.1,49.2,54.3,50.8,54,52.4z"/>
</svg>
