<?xml version="1.0" encoding="utf-8"?>
<!-- Generator: Adobe Illustrator 22.1.0, SVG Export Plug-In . SVG Version: 6.00 Build 0)  -->
<svg xmlns="http://www.w3.org/2000/svg" xmlns:xlink="http://www.w3.org/1999/xlink" x="0px" y="0px"
	 viewBox="0 0 200.4 66.5" style="enable-background:new 0 0 200.4 66.5;" xml:space="preserve">
<style type="text/css">
	.alphabet-original-0{fill:#ED1C24;}
</style>
<path class="alphabet-original-0" d="M188.3,38.4V25h-4.5v-4.4h4.5v-7.8h4.8v7.8h6.2V25h-6.2v13c0,2.9,1.2,4.2,3.4,4.2c0.9,0,1.5-0.1,2.2-0.4
	l1.7,4.1c-1.1,0.5-2.2,0.7-3.8,0.7C191.2,46.6,188.3,43.6,188.3,38.4z M157.5,33.4c0-7.2,5-13.6,12.5-13.6c7.6,0,12.5,5.4,12.5,13.6
	c0,0.4-0.1,0.9-0.1,0.9h-20.1c0.3,5.4,4.2,8.3,8.1,8.3c2.8,0,5.6-1.1,7-4.4l4.3,1.8c-1.5,3.6-5.3,7-11.1,7
	C162.7,47,157.5,41.1,157.5,33.4L157.5,33.4z M169.9,24.2c-3.5,0-6.3,2.4-7.3,6.1h14.8C177.2,28.1,175.4,24.2,169.9,24.2z
	 M134.1,42.6h-0.2v3.5h-4.6V8.9h4.8v11.7l-0.2,3.5h0.2c1.5-2.3,4.6-4.4,8.7-4.4c6.4,0,12.1,5.8,12.1,13.6S149.2,47,142.8,47
	C138.7,47,135.5,44.9,134.1,42.6z M150.1,33.4c0-5.7-3.8-9.2-8.1-9.2s-8.1,3.4-8.1,9.2s3.8,9.2,8.1,9.2
	C146.2,42.6,150.1,39.1,150.1,33.4z M101.7,38.4c0-5.8,5.2-8.9,11.2-8.9c3.4,0,5.9,1,6.9,1.6v-0.7c0-3.8-3.1-6.2-6.7-6.2
	c-2.7,0-5.2,1.3-6.1,3.7l-4.4-1.9c0.9-2.3,4-6.2,10.3-6.2c6.2,0,11.3,3.7,11.3,10.9v15.4h-4.6v-3.5h-0.2c-1.4,2.1-4,4.4-8.4,4.4
	C106.1,47,101.7,43.8,101.7,38.4z M119.8,35.2c0,0-2-1.7-6.1-1.7c-5,0-7,2.7-7,5c0,2.7,2.8,4.1,5.3,4.1
	C115.8,42.6,119.8,39.3,119.8,35.2z M80.1,20.7l-0.2,3.5h0.2c1.4-2.3,4.6-4.4,8.1-4.4c6.5,0,9.7,4.4,9.7,10.7v15.6h-4.8V31.3
	c0-5.3-2.7-7.1-6.3-7.1c-4.2,0-6.7,4-6.7,7.9v14.1h-4.8V8.9h4.8L80.1,20.7L80.1,20.7z M50.9,42.6h-0.2l0.2,3.5v11.2h-4.8V20.7h4.6
	v3.5h0.2c1.5-2.3,4.6-4.4,8.7-4.4c6.4,0,12.1,5.8,12.1,13.6S66,47,59.6,47C55.5,47,52.4,44.9,50.9,42.6z M66.9,33.4
	c0-5.7-3.8-9.2-8.1-9.2c-4.3,0-8.1,3.4-8.1,9.2s3.8,9.2,8.1,9.2C63.1,42.6,66.9,39.1,66.9,33.4z M36.2,46.1H41V8.9h-4.8
	C36.2,8.9,36.2,46.1,36.2,46.1z M14,8.9L0,46.1h5.3l3.6-10.1h15.6l3.6,10.1h5.3l-14-37.2H14z M16.6,14.8h0.2l6.1,16.8H10.6
	C10.6,31.6,16.6,14.8,16.6,14.8z"/>
</svg>
