<?xml version="1.0" encoding="utf-8"?>
<!-- Generator: Adobe Illustrator 22.1.0, SVG Export Plug-In . SVG Version: 6.00 Build 0)  -->
<svg xmlns="http://www.w3.org/2000/svg" xmlns:xlink="http://www.w3.org/1999/xlink" x="0px" y="0px"
	 viewBox="0 0 200.4 66.5" style="enable-background:new 0 0 200.4 66.5;" xml:space="preserve">
<style type="text/css">
	.boring-company-original-0{fill:#221F23;}
</style>
<g>
	<g>
		<path class="boring-company-original-0" d="M180.1,33.5c-0.1,0.3-0.1,0.6-0.2,0.9c-0.3,3.4-1.5,6.4-4.1,8.8c-1.7,1.7-3.8,2.7-6.2,3.2
			c-2.9,0.7-5.7,0.7-8.6-0.2c-4.2-1.3-7.2-4-8.7-8.1c-1.4-3.6-1.4-7.3-0.2-11c1.3-3.9,3.8-6.6,7.6-8.1c2.8-1.1,5.7-1.3,8.7-0.9
			c2.5,0.3,4.7,1.2,6.7,2.8c1.4,1.2,2.4,2.6,3.3,4.2c0.2,0.3,0,0.4-0.2,0.5c-1.2,0.5-2.4,1-3.5,1.5c-0.8,0.3-1.6,0.6-2.3,1
			c-0.5,0.2-0.5,0.2-0.7-0.3c-0.6-1.2-1.4-2.3-2.6-3c-2.7-1.4-7.1-1-9.1,2.9c-0.9,1.8-1.2,3.8-1.1,5.8c0.1,1.6,0.5,3,1.4,4.4
			c1.3,1.9,3.2,2.8,5.5,2.8c1.4,0,2.8-0.2,4.1-1c1.1-0.7,1.7-1.8,2-3.1c0.1-0.3-0.2-0.3-0.4-0.3c-1.6,0-3.2,0-4.8,0
			c-0.6,0-0.6,0-0.6-0.6c0-1.5,0-3,0-4.4c0-0.5,0-0.5,0.5-0.5c4.5,0,9.1,0,13.6,0C180.1,31.7,180.1,32.6,180.1,33.5z"/>
		<path class="boring-company-original-0" d="M35.4-0.3c0.1,0.2,0.1,0.3,0.1,0.5c0,1.5,0,2.9,0,4.4C35.5,4.9,35.6,5,36,5c1.4,0,2.8,0,4.2,0
			c0.4,0,0.5-0.1,0.5-0.5c0-1.5,0-2.9,0-4.4c0-0.3,0.1-0.4,0.4-0.4c0.9,0,1.8,0,2.7,0c0.3,0,0.4,0.1,0.4,0.4c0,4.2,0,8.5,0,12.7
			c0,0.5,0,0.5-0.5,0.5c-0.9,0-1.7,0-2.6,0c-0.4,0-0.5-0.1-0.5-0.5c0-1.5,0-3.1,0-4.6c0-0.6,0-0.6-0.6-0.6c-1.4,0-2.7,0-4.1,0
			c-0.5,0-0.5,0-0.5,0.5c0,1.5,0,3.1,0,4.6c0,0.5,0,0.5-0.5,0.5c-0.9,0-1.7,0-2.6,0c-0.3,0-0.5-0.1-0.5-0.4c0-4.3,0-8.6,0-12.9
			c0-0.3,0.1-0.4,0.4-0.4c0.8,0,1.5,0,2.3,0c0.2,0,0.3,0,0.5,0C35.2-0.3,35.3-0.3,35.4-0.3z"/>
		<path d="M54.8-0.3c0,0.2,0.1,0.4,0.1,0.6c0,0.7,0,1.4,0,2c0,0.3-0.1,0.4-0.4,0.4c-1.1,0-2.2,0-3.4,0c-0.3,0-0.5,0.1-0.5,0.5
			c0,0.5,0,1,0,1.5c0,0.3,0.1,0.4,0.4,0.4c1,0,2.1,0,3.1,0c0.3,0,0.5,0.1,0.5,0.5c0,0.7,0,1.4,0,2.1c0,0.3-0.1,0.4-0.4,0.4
			c-1,0-2,0-3,0c-0.5,0-0.5,0-0.6,0.6c0,0.5,0,0.9,0,1.4c0,0.4,0.1,0.5,0.5,0.5c1.1,0,2.2,0,3.3,0c0.3,0,0.4,0.1,0.4,0.4
			c0,0.7,0,1.4,0,2.1c0,0.3-0.1,0.5-0.4,0.5c-2.3,0-4.6,0-6.9,0c-0.3,0-0.4-0.1-0.4-0.4c0-4.3,0-8.5,0-12.8c0-0.3,0.1-0.4,0.5-0.4
			c2.2,0,4.4,0,6.7,0C54.4-0.3,54.6-0.3,54.8-0.3C54.8-0.3,54.8-0.3,54.8-0.3z"/>
		<path class="boring-company-original-0" d="M30.3-0.3c0,0.1,0.1,0.3,0.1,0.4c0,0.8,0,1.5,0,2.3c0,0.3-0.1,0.4-0.4,0.4c-0.7,0-1.4,0-2.1,0
			c-0.4,0-0.5,0.1-0.5,0.5c0,3.2,0,6.4,0,9.6c0,0.6,0,0.6-0.6,0.6c-0.8,0-1.6,0-2.4,0c-0.5,0-0.6,0-0.6-0.5c0-3.2,0-6.4,0-9.6
			c0-0.6,0-0.6-0.6-0.6c-0.8,0-1.6,0-2.3,0c0-1,0-2,0-3c0.1,0,0.3,0,0.4,0c0.1,0,0.2,0,0.3,0c2.6,0,5.3,0,7.9,0c0.1,0,0.2,0,0.3,0
			C30.1-0.3,30.2-0.3,30.3-0.3z"/>
		<path class="boring-company-original-0" d="M60.6,47c-3.9-0.1-7.3-1.1-10.3-3.7c-2.5-2.1-4-4.8-4.6-8c-0.9-5.2,0.5-9.7,4.3-13.4c1.7-1.6,3.8-2.7,6.1-3.3
			c2.8-0.7,5.6-0.8,8.4-0.1c5.1,1.2,8.7,4.2,10.4,9.2c2,5.8,0.3,12.4-4.9,16.2c-2,1.5-4.2,2.4-6.6,2.7C62.6,46.8,61.6,46.9,60.6,47z
			"/>
		<path class="boring-company-original-0" d="M139.2,35.3c0-0.1,0-0.3,0-0.4c0-5.2,0-10.4,0-15.5c0-0.6,0-0.6,0.6-0.6c2,0,4,0,6,0c0.3,0,0.4,0.1,0.4,0.4
			c0,8.8,0,17.7,0,26.5c0,0.4-0.1,0.5-0.5,0.5c-2.1,0-4.1,0-6.2,0c-0.3,0-0.5-0.1-0.7-0.4c-3.5-4.4-6.9-8.8-10.4-13.2
			c-0.7-0.9-1.4-1.8-2.1-2.7c-0.1-0.1-0.1-0.3-0.2-0.4c-0.1,0-0.1,0.1-0.2,0.1c0,0.1,0,0.2,0,0.4c0,5.2,0,10.4,0,15.6
			c0,0.5,0,0.5-0.5,0.5c-2,0-4.1,0-6.1,0c-0.4,0-0.5-0.1-0.5-0.5c0-8.8,0-17.6,0-26.4c0-0.5,0-0.5,0.5-0.5c2.1,0,4.1,0,6.2,0
			c0.3,0,0.5,0.1,0.7,0.3c4.2,5.3,8.4,10.7,12.5,16c0.1,0.1,0.1,0.2,0.2,0.4C139.1,35.4,139.2,35.4,139.2,35.3z"/>
		<path class="boring-company-original-0" d="M37.1,31.5c0.6,0.2,1.2,0.4,1.7,0.6c2.1,0.8,3.3,2.4,3.6,4.6c0.2,1.7,0.2,3.3-0.5,4.9c-0.9,2-2.5,3.3-4.6,4
			c-1.4,0.4-2.8,0.6-4.2,0.6c-3.6,0-7.3,0-10.9,0c-0.4,0-0.5-0.1-0.5-0.5c0-8.8,0-17.6,0-26.4c0-0.3,0.1-0.5,0.4-0.5
			c3.6,0,7.2,0,10.8,0c1.4,0,2.8,0.3,4,1c1.6,0.9,2.5,2.2,2.8,3.9c0.3,1.4,0.3,2.8,0,4.2c-0.3,1.4-1.1,2.4-2.3,3.2
			C37.4,31.3,37.3,31.4,37.1,31.5z M28.8,37.7c0,0.8,0,1.7,0,2.5c0,0.2,0,0.4,0.3,0.4c1.2-0.1,2.5-0.1,3.7-0.2
			c0.5-0.1,1.1-0.3,1.6-0.6c0.9-0.6,1.1-1.5,1-2.5c-0.1-1.2-0.9-1.8-1.9-2.1c-1.4-0.4-2.9-0.4-4.3-0.4c-0.3,0-0.4,0.1-0.3,0.4
			C28.8,36,28.8,36.9,28.8,37.7z M28.8,26.9c0,0.8,0,1.5,0,2.3c0,0.3,0.1,0.4,0.4,0.4c0.8-0.1,1.6,0,2.4-0.2c1.1-0.2,1.7-0.9,1.9-2
			c0.2-1.3-0.4-2.4-1.5-2.9c-0.9-0.4-1.9-0.3-2.9-0.2c-0.1,0-0.2,0.2-0.2,0.4C28.8,25.4,28.8,26.1,28.8,26.9z"/>
		<path class="boring-company-original-0" d="M103,46.1c-0.2,0-0.3,0-0.5,0c-2.6,0-5.3,0-7.9,0c-0.3,0-0.5-0.1-0.7-0.4c-2-3.2-4.1-6.4-6.2-9.6
			c-0.1-0.1-0.2-0.2-0.4-0.3c0,0.2,0,0.3,0,0.5c0,3.1,0,6.2,0,9.3c0,0.5,0,0.5-0.5,0.5c-2,0-4.1,0-6.1,0c-0.5,0-0.5,0-0.5-0.5
			c0-8.8,0-17.6,0-26.3c0-0.3,0-0.5,0.4-0.5c3.7,0,7.4,0,11.1,0c2,0,3.9,0.5,5.5,1.7c1.8,1.3,2.7,3.2,3,5.4c0.2,1.5,0.1,3.1-0.4,4.5
			c-0.8,2.1-2.3,3.5-4.4,4.2c-0.2,0.1-0.4,0.1-0.6,0.2c-0.4,0.1-0.4,0.2-0.2,0.5c0.9,1.1,1.7,2.2,2.6,3.4c1.8,2.4,3.6,4.7,5.5,7.1
			C102.8,45.9,102.9,45.9,103,46.1z M87.4,27.6c0,1,0,2,0,3c0,0.2,0,0.4,0.3,0.4c1-0.1,2-0.1,3-0.3c1.4-0.3,2.4-1.5,2.4-2.9
			c0.1-1.7-0.7-2.9-2.2-3.3c-1-0.3-2.1-0.3-3.1-0.3c-0.3,0-0.4,0.1-0.4,0.4C87.4,25.6,87.4,26.6,87.4,27.6z"/>
		<path class="boring-company-original-0" d="M113.2,32.5c0,4.4,0,8.8,0,13.2c0,0.3-0.1,0.4-0.4,0.4c-2.1,0-4.2,0-6.3,0c-0.4,0-0.4-0.2-0.4-0.5
			c0-3.7,0-7.5,0-11.3c0-5,0-10.1,0-15.1c0-0.5,0-0.5,0.5-0.5c2,0,4.1,0,6.1,0c0.5,0,0.5,0,0.5,0.5
			C113.2,23.7,113.2,28.1,113.2,32.5C113.2,32.5,113.2,32.5,113.2,32.5z"/>
		<path class="boring-company-original-0" d="M117.4,58.5c-0.1,0.1-0.1,0.2-0.2,0.3c-0.9,2.3-1.9,4.5-2.8,6.8c-0.1,0.3-0.3,0.5-0.6,0.4
			c-1.1,0-0.9,0.1-1.3-0.9c-0.8-2.1-1.7-4.3-2.5-6.4c0-0.1-0.1-0.2-0.2-0.3c0,0-0.1,0-0.1,0c-0.1,0.4-0.1,0.8-0.2,1.3
			c-0.3,2-0.6,4-0.9,6c0,0.2-0.1,0.3-0.4,0.3c-0.9,0-1.9,0-2.8,0c-0.3,0-0.3-0.2-0.3-0.4c0.1-0.8,0.3-1.7,0.4-2.5
			c0.3-1.9,0.6-3.8,1-5.7c0.3-1.5,0.5-3.1,0.8-4.6c0.1-0.3,0.2-0.5,0.5-0.4c0.9,0,1.7,0,2.6,0c0.3,0,0.5,0.1,0.6,0.4
			c0.7,1.9,1.4,3.9,2.2,5.8c0.1,0.3,0.2,0.6,0.4,0.9c0,0,0.1,0,0.1,0c0.1-0.3,0.2-0.6,0.4-0.9c0.7-1.9,1.5-3.9,2.2-5.8
			c0.1-0.3,0.3-0.4,0.6-0.4c0.9,0,1.8,0,2.7,0c0.3,0,0.4,0.1,0.4,0.4c0.5,3,1,6,1.5,9c0.2,1.3,0.4,2.6,0.7,3.8
			c0.1,0.3,0,0.4-0.3,0.4c-0.9,0-1.8,0-2.7,0c-0.3,0-0.4-0.1-0.5-0.4c-0.2-1.4-0.4-2.7-0.6-4.1c-0.1-0.9-0.3-1.8-0.4-2.7
			C117.6,58.7,117.6,58.6,117.4,58.5C117.5,58.5,117.5,58.5,117.4,58.5z"/>
		<path class="boring-company-original-0" d="M154.3,57.8c0,0.3-0.1,0.4-0.1,0.6c0,2.4,0,4.8,0,7.2c0,0.5,0,0.5-0.5,0.5c-0.9,0-1.7,0-2.6,0
			c-0.3,0-0.4-0.1-0.4-0.4c0-4.3,0-8.6,0-12.9c0-0.3,0.1-0.4,0.4-0.4c0.9,0,1.9,0,2.8,0c0.2,0,0.4,0.1,0.5,0.3c2,2.5,4,5,6,7.6
			c0.1,0.1,0.2,0.2,0.4,0.4c0-0.3,0-0.4,0-0.6c0-2.4,0-4.8,0-7.2c0-0.5,0-0.5,0.5-0.5c0.9,0,1.7,0,2.6,0c0.3,0,0.5,0.1,0.5,0.4
			c0,4.3,0,8.6,0,12.9c0,0.3-0.1,0.4-0.4,0.4c-0.9,0-1.8,0-2.7,0c-0.3,0-0.5-0.1-0.7-0.3c-2-2.5-4-5.1-6-7.6
			C154.5,58,154.4,58,154.3,57.8z"/>
		<path class="boring-company-original-0" d="M96,66.5c-3-0.1-5.4-1.2-6.8-3.8c-2.1-3.8-0.4-9.1,4.4-10.4c2.5-0.7,4.9-0.4,7,1.2c2,1.4,2.9,3.4,2.8,5.8
			c-0.1,3.5-2.5,6.3-6,6.9C96.9,66.4,96.4,66.4,96,66.5z M92,59.2c0,2.1,1.7,3.8,3.9,3.8c2.2,0,3.9-1.6,3.9-3.7
			c0-2.1-1.7-3.8-3.9-3.8C93.7,55.4,92,57.1,92,59.2z"/>
		<path class="boring-company-original-0" d="M147.1,66c-0.4,0-0.9,0-1.3,0c-0.4,0-0.5-0.1-0.6-0.5c-0.2-0.5-0.4-1.1-0.5-1.6c-0.1-0.3-0.2-0.4-0.5-0.4
			c-1.5,0-2.9,0-4.4,0c-0.3,0-0.4,0.1-0.5,0.4c-0.2,0.6-0.4,1.1-0.6,1.7c-0.1,0.2-0.2,0.3-0.4,0.3c-1,0-2,0-3.1,0
			c-0.3,0-0.4-0.1-0.2-0.4c1.6-4.3,3.3-8.5,4.9-12.8c0.1-0.3,0.3-0.5,0.7-0.5c1,0,2,0,3,0c0.3,0,0.4,0.1,0.5,0.4
			c1.4,3.8,2.9,7.6,4.4,11.4c0.2,0.5,0.4,1,0.6,1.5c0.1,0.3,0.1,0.4-0.3,0.4C148.1,66,147.6,66,147.1,66z M142,56.5
			c-0.1,0.2-0.2,0.3-0.2,0.4c-0.4,1.2-0.9,2.4-1.3,3.7c-0.1,0.3,0,0.4,0.3,0.4c0.8,0,1.6,0,2.4,0c0.3,0,0.4-0.1,0.3-0.4
			c-0.2-0.6-0.4-1.2-0.6-1.8C142.5,58.1,142.3,57.3,142,56.5z"/>
		<path class="boring-company-original-0" d="M124.5,59.2c0-2.1,0-4.2,0-6.3c0-0.5,0-0.5,0.5-0.5c1.8,0,3.6,0,5.4,0c0.7,0,1.5,0.2,2.1,0.5
			c1.3,0.5,1.9,1.5,2.2,2.8c0.2,1.1,0.2,2.3-0.3,3.3c-0.7,1.7-2.1,2.3-3.8,2.4c-0.8,0.1-1.5,0-2.3,0c-0.3,0-0.5,0.1-0.4,0.4
			c0,1.2,0,2.5,0,3.7c0,0.3-0.1,0.4-0.4,0.4c-0.9,0-1.8,0-2.7,0c-0.4,0-0.5-0.1-0.5-0.5C124.5,63.4,124.5,61.3,124.5,59.2z
			 M128.1,56.9c0,0.5,0,0.9,0,1.4c0,0.2,0.1,0.3,0.3,0.3c0.4,0,0.8,0,1.2,0c1.3-0.1,1.9-0.9,1.6-2.2c-0.1-0.6-0.6-1.1-1.2-1.2
			c-0.5-0.1-1.1-0.1-1.6-0.1c-0.3,0-0.3,0.1-0.3,0.4C128.1,56,128.1,56.5,128.1,56.9z"/>
		<path class="boring-company-original-0" d="M86.4,61.8c0,0.2,0,0.5,0,0.7c0,1,0,1.9,0,2.9c0,0.3-0.1,0.5-0.4,0.6c-1,0.3-2.1,0.6-3.1,0.5
			c-2.8-0.2-4.9-1.6-6.1-4.1c-1.9-3.9-0.1-8.5,4.1-10c1.8-0.6,3.6-0.5,5.3,0.2c0.1,0.1,0.3,0.2,0.3,0.4c0,1.2,0,2.4,0,3.6
			c0,0,0,0.1,0,0.1c-2.1-1.7-4.2-2-6,0.3c-1.1,1.4-0.9,3.5,0.2,4.8c0.8,0.8,1.7,1.3,2.9,1.2c1.1,0,2-0.5,2.9-1.3
			C86.3,61.7,86.4,61.7,86.4,61.8z"/>
		<path class="boring-company-original-0" d="M165.6,52.4c0.2,0,0.3,0,0.4,0c1.1,0,2.2,0,3.3,0c0.3,0,0.4,0.1,0.6,0.3c0.7,1,1.4,2,2.1,3
			c0.2,0.4,0.3,0.4,0.6,0c0.7-1,1.3-2,2-3c0.2-0.3,0.4-0.4,0.7-0.4c1.1,0,2.2,0,3.3,0c0.1,0,0.2,0,0.4,0c-0.1,0.2-0.1,0.3-0.2,0.3
			c-1.5,2.1-3,4.3-4.5,6.4c-0.1,0.2-0.2,0.5-0.2,0.7c0,1.9,0,3.8,0,5.7c0,0.4-0.1,0.5-0.5,0.5c-0.9,0-1.8,0-2.6,0
			c-0.3,0-0.4-0.1-0.4-0.4c0-1.9,0-3.8,0-5.7c0-0.3-0.1-0.6-0.2-0.8c-1.5-2.1-2.9-4.2-4.4-6.3C165.8,52.7,165.7,52.6,165.6,52.4z"/>
	</g>
</g>
</svg>
