<?xml version="1.0" encoding="utf-8"?>
<!-- Generator: Adobe Illustrator 22.1.0, SVG Export Plug-In . SVG Version: 6.00 Build 0)  -->
<svg xmlns="http://www.w3.org/2000/svg" xmlns:xlink="http://www.w3.org/1999/xlink" x="0px" y="0px"
	 viewBox="0 0 200.4 66.5" style="enable-background:new 0 0 200.4 66.5;" xml:space="preserve">
<style type="text/css">
	.embark-original-0{fill:#CF4037;}
</style>
<g>
	<path d="M64,37.1c0.5-2.6,0.2-3.6-1.7-3.6c-1.7,0-2.8,1-3.3,3.6l-4.3,20.4H44.3l6.6-30.9h10L60,30.4h0.2c1.9-3.1,5-4.7,8.5-4.7
		c4.3,0,6,1.6,6.6,4.8c2.4-3.6,5.7-4.8,8.8-4.8c4.5,0,7.6,1.7,6.2,8.5l-5,23.3H75l4.3-20.4c0.5-2.6,0.2-3.6-1.7-3.6
		c-1.9,0-2.8,1-3.3,3.6L70,57.5H59.7L64,37.1L64,37.1z M97.1,16.7h10.4L104.6,30h0.2c1.7-3.1,4.5-4.3,7.3-4.3c6,0,8.8,3.6,6.2,15.7
		c-2.4,11.4-5.9,16.9-12.8,16.9c-3.6,0-5.5-1.7-6-5l-1,4.1h-9.8L97.1,16.7L97.1,16.7z M103,50.6c2.4,0,3.5-1.9,4.8-8.5
		c1.4-6.7,1.2-8.6-1.2-8.6c-2.2,0-3.1,1.9-4.7,8.6C100.6,48.7,100.8,50.6,103,50.6L103,50.6z M133.1,57.5c-0.2-1,0-2.2,0.2-3.5h-0.2
		c-1.7,2.8-4.8,4.3-7.9,4.3c-6.2,0-7.8-3.8-6.6-9.2c1.2-5.7,3.8-8.5,10.7-10l4.1-0.9c2.4-0.5,3.5-1.6,3.8-3.5
		c0.3-1.9-0.2-2.8-2.1-2.8c-1.9,0-2.9,0.9-3.8,4h-8.8c1.9-8.8,9.3-10.4,14-10.4c7.3,0,11.9,1.9,10.2,10l-3.3,15
		c-0.5,2.9-0.9,5.2-0.3,6.7L133.1,57.5L133.1,57.5L133.1,57.5z M134.8,46.2l0.9-3.6h-0.2c-0.7,0.7-2.1,0.7-3.8,1.4
		c-1.7,0.7-2.6,1.9-2.9,4c-0.5,2.1,0.2,3.5,1.7,3.5C132.9,51.4,134.1,49.7,134.8,46.2L134.8,46.2z M152.1,26.6h10l-1,4.8
		c1.9-3.6,5.2-5.7,8.1-5.7h1.7l-2.1,9.7c-0.9-0.2-1.7-0.2-2.6-0.2c-3.6,0-6,1.4-6.9,5.4l-3.6,16.9h-10.2L152.1,26.6z M175.4,16.7
		h10.4l-4.3,20.5l8.1-10.7h10.9l-11.2,12.8l5.7,18.1H184l-2.9-10.7l-2.4,2.8l-1.6,7.9h-10.4L175.4,16.7L175.4,16.7z"/>
	<path class="embark-original-0" d="M24.1,57.5H11l4.8-20.7H0.1l2.4-10.4h15.7l4.5-19.2h13l-2.4,10.7l-2.1,8.5h16.6l-2.4,10.4H28.9L24.1,57.5
		L24.1,57.5z"/>
	<path d="M50.9,17.9L53.3,7h-15l-2.6,10.9H50.9z M41.9,57.5l2.6-10.7H28.8l-2.6,10.7H41.9z"/>
</g>
</svg>
