<?xml version="1.0" encoding="utf-8"?>
<!-- Generator: Adobe Illustrator 22.1.0, SVG Export Plug-In . SVG Version: 6.00 Build 0)  -->
<svg xmlns="http://www.w3.org/2000/svg" xmlns:xlink="http://www.w3.org/1999/xlink" x="0px" y="0px"
	 viewBox="0 0 200.4 66.5" style="enable-background:new 0 0 200.4 66.5;" xml:space="preserve">
<style type="text/css">
	.fitbit-original-0{fill:#00B0B9;}
	.fitbit-original-1{fill:#002A3A;}
</style>
<g id="blue">
	<g>
		<path class="fitbit-original-0" d="M29,10.9c0,2.1-1.8,3.9-3.9,3.9s-3.9-1.8-3.9-3.9S23,7,25.1,7S29,8.8,29,10.9z M25.1,18
			c-2.3,0-4.1,1.8-4.1,4.1c0,2.3,1.8,4.1,4.1,4.1s4.1-1.8,4.1-4.1C29.2,19.7,27.4,18,25.1,18z M25.1,28.9c-2.3,0-4.2,1.9-4.2,4.2
			c0,2.3,1.9,4.2,4.2,4.2c2.3,0,4.2-1.9,4.2-4.2C29.4,30.9,27.4,28.9,25.1,28.9z M25.1,40.1c-2.3,0-4.1,1.8-4.1,4.1
			c0,2.3,1.8,4.1,4.1,4.1s4.1-1.8,4.1-4.1C29.2,42,27.4,40.1,25.1,40.1z M25.1,51.4c-2.1,0-3.9,1.8-3.9,3.9c0,2.1,1.8,3.9,3.9,3.9
			c2.1,0,3.9-1.8,3.9-3.9C29,53.2,27.2,51.4,25.1,51.4z M35.9,17.4c-2.5,0-4.6,2.1-4.6,4.6c0,2.5,2.1,4.6,4.6,4.6
			c2.5,0,4.6-2.1,4.6-4.6C40.5,19.5,38.4,17.4,35.9,17.4z M35.9,28.4c-2.7,0-4.8,2.1-4.8,4.8c0,2.7,2.1,4.8,4.8,4.8
			c2.7,0,4.8-2.1,4.8-4.8C40.7,30.5,38.6,28.4,35.9,28.4z M35.9,39.5c-2.5,0-4.6,2.1-4.6,4.6c0,2.5,2.1,4.6,4.6,4.6
			c2.5,0,4.6-2.1,4.6-4.6C40.5,41.7,38.4,39.5,35.9,39.5z M47.1,27.9c-2.8,0-5.3,2.3-5.3,5.3c0,2.8,2.3,5.3,5.3,5.3
			c3,0,5.3-2.3,5.3-5.3C52.2,30.2,49.9,27.9,47.1,27.9z M14.2,18.5c-1.9,0-3.5,1.6-3.5,3.5c0,1.9,1.6,3.5,3.5,3.5
			c1.9,0,3.5-1.6,3.5-3.5C17.7,20.1,16.1,18.5,14.2,18.5z M14.2,29.5c-2.1,0-3.7,1.6-3.7,3.7s1.6,3.7,3.7,3.7s3.7-1.6,3.7-3.7
			S16.3,29.5,14.2,29.5z M14.2,40.6c-1.9,0-3.5,1.6-3.5,3.5c0,1.9,1.6,3.5,3.5,3.5c1.9,0,3.5-1.6,3.5-3.5
			C17.7,42.2,16.1,40.6,14.2,40.6z M3.2,30C1.4,30,0,31.4,0,33.2c0,1.8,1.4,3.2,3.2,3.2s3.2-1.4,3.2-3.2C6.4,31.4,5,30,3.2,30z"/>
	</g>
</g>
<g id="wordmark">
	<g>
		<path class="fitbit-original-1" d="M92.3,26.3c-0.4,0-0.7,0.4-0.7,0.7v27.8c0,0.4,0.4,0.7,0.7,0.7h3.4c0.4,0,0.7-0.4,0.7-0.7V27
			c0-0.4-0.4-0.7-0.7-0.7L92.3,26.3L92.3,26.3z"/>
		<g>
			<g>
				<path class="fitbit-original-1" d="M94.1,14.6c-1.8,0-3.2,1.4-3.2,3.2s1.4,3.2,3.2,3.2c1.8,0,3.2-1.4,3.2-3.2S95.9,14.6,94.1,14.6z"/>
			</g>
		</g>
		<path class="fitbit-original-1" d="M163.6,26.3c-0.4,0-0.7,0.4-0.7,0.7v27.8c0,0.4,0.4,0.7,0.7,0.7h3.4c0.4,0,0.7-0.4,0.7-0.7V27
			c0-0.4-0.4-0.7-0.7-0.7L163.6,26.3L163.6,26.3z"/>
		<g>
			<g>
				<path class="fitbit-original-1" d="M165.2,14.6c-1.8,0-3.2,1.4-3.2,3.2s1.4,3.2,3.2,3.2s3.2-1.4,3.2-3.2S167,14.6,165.2,14.6z"/>
			</g>
		</g>
		<path class="fitbit-original-1" d="M198.8,52.8c0.2-0.2,0.2-0.4,0.2-0.5l0,0c0-0.2,0-0.2,0-0.2s0-0.2-0.2-0.2c0,0-0.2-0.2-0.4-0.2
			c-0.2,0-0.2,0-0.4,0h-0.9v2.5h0.4v-0.9h0.5l0,0l0.7,0.9h0.4l-0.9-1.1C198.6,53.2,198.8,53,198.8,52.8z M197.6,53v-0.9h0.7
			c0.2,0,0.4,0,0.5,0.2c0.2,0,0.2,0.2,0.2,0.4l0,0c0,0.2,0,0.4-0.2,0.4c-0.2,0-0.4,0.2-0.5,0.2h-0.7V53z"/>
		<path class="fitbit-original-1" d="M198.1,50.7c-1.2,0-2.3,1.1-2.3,2.3s1.1,2.3,2.3,2.3c1.2,0,2.3-1.1,2.3-2.3S199.3,50.7,198.1,50.7z
			 M198.1,55.1c-1.2,0-2.1-0.9-2.1-2.1c0-1.2,0.9-2.1,2.1-2.1c1.2,0,2.1,0.9,2.1,2.1C200.2,54.2,199.2,55.1,198.1,55.1z"/>
		<path class="fitbit-original-1" d="M119.9,30.9c0.4,0,0.7-0.4,0.7-0.7v-3.4c0-0.4-0.4-0.7-0.7-0.7h-7.1V15.5c0-0.4-0.4-0.7-0.7-0.7h-3.4
			c-0.4,0-0.7,0.4-0.7,0.7v10.6h-3.5c-0.4,0-0.7,0.4-0.7,0.7v3.4c0,0.4,0.4,0.7,0.7,0.7h3.5V47c0,5,3.4,8.1,8.1,8.1h3.5
			c0.4,0,0.7-0.4,0.7-0.7V51c0-0.4-0.4-0.7-0.7-0.7h-3c-2.3,0-3.9-1.6-3.9-4.1V30.7h7.1L119.9,30.9L119.9,30.9z"/>
		<path class="fitbit-original-1" d="M190.3,30.9c0.4,0,0.7-0.4,0.7-0.7v-3.4c0-0.4-0.4-0.7-0.7-0.7h-7.1V15.5c0-0.4-0.4-0.7-0.7-0.7h-3.4
			c-0.4,0-0.7,0.4-0.7,0.7v10.6h-3.5c-0.4,0-0.7,0.4-0.7,0.7v3.4c0,0.4,0.4,0.7,0.7,0.7h3.5V47c0,5,3.4,8.1,8.1,8.1h3.5
			c0.4,0,0.7-0.4,0.7-0.7V51c0-0.4-0.4-0.7-0.7-0.7H187c-2.3,0-3.9-1.6-3.9-4.1V30.7h7.3L190.3,30.9L190.3,30.9z"/>
		<path class="fitbit-original-1" d="M71.3,30.9v23.7c0,0.4,0.4,0.7,0.7,0.7h3.4c0.4,0,0.7-0.4,0.7-0.7V30.9h7.8c0.4,0,0.7-0.4,0.7-0.7v-3.4
			c0-0.4-0.4-0.7-0.7-0.7h-7.8v-6.2c0-2.5,1.8-4.2,3.9-4.2h3.9c0.4,0,0.7-0.4,0.7-0.7v-3.4c0-0.4-0.4-0.7-0.7-0.7h-3.7
			c-5,0-8.8,4.1-8.8,8.8v6.4h-3.5c-0.4,0-0.7,0.4-0.7,0.7v3.4c0,0.4,0.4,0.7,0.7,0.7L71.3,30.9L71.3,30.9z"/>
	</g>
	<path class="fitbit-original-1" d="M152.3,29.6c-2.7-2.8-6.4-4.4-10.3-4.4c-3.7,0-7.4,1.6-9.7,3.9V11.4c0-0.4-0.4-0.7-0.7-0.7h-3.4
		c-0.4,0-0.7,0.4-0.7,0.7v29.2c0,10.8,7.3,15.6,14.3,15.6c7.1,0,14.3-4.8,14.3-15.6C156.4,36.3,155,32.5,152.3,29.6z M142,51.7
		c-7.1,0-9.7-5.7-9.7-11c0-6.5,3.9-10.8,9.7-10.8c5.8,0,9.7,4.4,9.7,10.8C151.6,46.1,149.1,51.7,142,51.7z"/>
</g>
</svg>
