<?xml version="1.0" encoding="utf-8"?>
<!-- Generator: Adobe Illustrator 22.1.0, SVG Export Plug-In . SVG Version: 6.00 Build 0)  -->
<svg xmlns="http://www.w3.org/2000/svg" xmlns:xlink="http://www.w3.org/1999/xlink" x="0px" y="0px"
	 viewBox="0 0 200.4 66.5" style="enable-background:new 0 0 200.4 66.5;" xml:space="preserve">
<style type="text/css">
	.google-original-0{fill:#4885ED;}
	.google-original-1{fill:#DB3236;}
	.google-original-2{fill:#F4C20D;}
	.google-original-3{fill:#3CBA54;}
</style>
<path id="g_1_" class="google-original-0" d="M49.5,23.2H26.1v6.9h16.6C41.9,39.8,33.8,44,26.1,44c-9.8,0-18.3-7.7-18.3-18.5C7.9,15,16,7,26.2,7
	c7.9,0,12.5,5,12.5,5l4.9-5c0,0-6.2-6.9-17.6-6.9C11.4,0,0.3,12.2,0.3,25.4c0,12.9,10.5,25.5,26,25.5c13.6,0,23.6-9.3,23.6-23.1
	C49.9,24.9,49.5,23.2,49.5,23.2L49.5,23.2z"/>
<path id="o_1_" class="google-original-1" d="M68.6,18.2c-9.6,0-16.5,7.5-16.5,16.2c0,8.9,6.7,16.5,16.6,16.5c9,0,16.3-6.9,16.3-16.3
	C85,23.7,76.5,18.2,68.6,18.2L68.6,18.2z M68.7,24.6c4.7,0,9.2,3.8,9.2,9.9c0,6-4.4,9.9-9.2,9.9c-5.2,0-9.3-4.2-9.3-10
	C59.3,28.8,63.4,24.6,68.7,24.6L68.7,24.6z"/>
<path id="o" class="google-original-2" d="M104.4,18.2c-9.6,0-16.5,7.5-16.5,16.2c0,8.9,6.7,16.5,16.6,16.5c9,0,16.3-6.9,16.3-16.3
	C120.8,23.7,112.3,18.2,104.4,18.2L104.4,18.2z M104.5,24.6c4.7,0,9.2,3.8,9.2,9.9c0,6-4.4,9.9-9.2,9.9c-5.2,0-9.3-4.2-9.3-10
	C95.1,28.8,99.2,24.6,104.5,24.6L104.5,24.6z"/>
<path id="g" class="google-original-0" d="M139.5,18.2c-8.8,0-15.7,7.7-15.7,16.4c0,9.8,8,16.4,15.6,16.4c4.7,0,7.1-1.9,9-4v3.2c0,5.6-3.4,9-8.6,9
	c-5,0-7.5-3.7-8.4-5.8L125,56c2.2,4.7,6.7,9.6,14.7,9.6c8.7,0,15.4-5.5,15.4-17.1V19.2h-6.9v2.8C146.2,19.7,143.3,18.2,139.5,18.2
	L139.5,18.2z M140.1,24.6c4.3,0,8.7,3.7,8.7,10c0,6.4-4.4,9.9-8.8,9.9c-4.7,0-9.1-3.8-9.1-9.9C131,28.3,135.5,24.6,140.1,24.6
	L140.1,24.6z"/>
<path id="e" class="google-original-1" d="M185.7,18.1c-8.3,0-15.3,6.6-15.3,16.3c0,10.3,7.8,16.4,16.1,16.4c6.9,0,11.2-3.8,13.7-7.2l-5.7-3.8
	c-1.5,2.3-3.9,4.5-8,4.5c-4.6,0-6.7-2.5-8-5l21.9-9.1l-1.1-2.7C197.1,22.5,192.2,18.1,185.7,18.1L185.7,18.1z M185.9,24.4
	c3,0,5.1,1.6,6.1,3.5L177.3,34C176.7,29.3,181.2,24.4,185.9,24.4L185.9,24.4z"/>
<path id="l" class="google-original-3" d="M159.9,49.9h7.2V1.7h-7.2V49.9z"/>
</svg>
