<?xml version="1.0" encoding="utf-8"?>
<!-- Generator: Adobe Illustrator 22.1.0, SVG Export Plug-In . SVG Version: 6.00 Build 0)  -->
<svg xmlns="http://www.w3.org/2000/svg" xmlns:xlink="http://www.w3.org/1999/xlink" x="0px" y="0px"
	 viewBox="0 0 200.4 66.5" style="enable-background:new 0 0 200.4 66.5;" xml:space="preserve">
<style type="text/css">
	.samsung-original-0{fill:#034EA2;}
</style>
<path id="samsung_1_" class="samsung-original-0" d="M200.3,16.1C197.6,0.5,150.7-4.4,95.7,5.2C71.7,9.4,50,15.6,33.5,22.6c0.9-0.2,1.8-0.3,2.9-0.3
	c2.9,0,7,0.7,7,5.2V29h-5.1c0,0,0-0.9,0-1.3c0-1.1-0.7-1.9-1.9-1.9c-1.3,0-1.7,0.7-1.9,1.4c0,0.2-0.1,0.7,0,1.1
	c0.6,2.4,8.4,3.7,9.3,8c0.1,0.4,0.3,1.6,0,3.4c-0.5,3.4-3.6,4.7-7.3,4.7c-3.9,0-7.5-1.4-7.5-6l0-1.6h5.5v2c0,1.1,0.8,1.9,2.1,1.9
	c1.4,0,1.8-0.7,2-1.4c0.1-0.4,0.2-1,0-1.5c-1.1-2.7-8.4-3.9-9.3-8.1c-0.2-1-0.2-1.9,0-2.8c0.2-1.4,0.9-2.5,1.9-3.2
	C11.2,32.5-0.6,42.3,0.9,50.8c2.7,15.6,49.5,20.5,104.6,10.9c24.6-4.3,46.6-10.7,63.3-17.9c-0.9,0.2-1.8,0.3-2.8,0.3
	c-3.7,0-6.9-1.3-7.3-5.1c-0.1-0.7-0.1-1-0.1-1.4l0-8.7c0-0.4,0-1,0.1-1.4c0.5-3.9,3.6-5.1,7.2-5.1c3.7,0,6.9,1.2,7.2,5.1
	c0.1,0.7,0,1.4,0,1.4v0.7h-5.2v-1.2c0,0,0-0.5-0.1-0.8c-0.1-0.5-0.5-1.5-2.1-1.5c-1.5,0-1.9,1-2.1,1.5c-0.1,0.3-0.1,0.6-0.1,1v9.4
	c0,0.3,0,0.5,0.1,0.8c0.1,0.6,0.6,1.5,2.1,1.5c1.5,0,2-0.9,2.1-1.5c0-0.2,0-0.5,0-0.8v-3H166v-3h7.3v5.5c0,0.4,0,0.7-0.1,1.4
	c-0.2,1.7-0.9,2.9-2,3.7C190.4,34,201.7,24.4,200.3,16.1z M58.5,43.6l-2.8-18.7h-0.1l-2.8,18.7h-5.6L51,23h9.2L64,43.6L58.5,43.6
	L58.5,43.6z M85.9,43.6l-0.1-18.6h-0.1l-3.5,18.6H77l-3.5-18.6h-0.1l-0.1,18.6h-5.2L68.6,23H77l2.5,15.8h0.1L82.2,23h8.4l0.4,20.6
	L85.9,43.6L85.9,43.6L85.9,43.6z M110.8,39.7c-0.5,3.4-3.5,4.7-7.2,4.7c-3.8,0-7.4-1.4-7.4-5.9l0-1.6h5.5l0,2c0,1.1,0.8,1.9,2.1,1.9
	c1.4,0,1.8-0.7,2-1.4c0.1-0.4,0.2-1,0-1.5c-1.1-2.6-8.3-3.9-9.2-8c-0.2-1-0.2-1.8,0-2.8c0.5-3.3,3.5-4.5,7.1-4.5
	c2.9,0,6.9,0.7,6.9,5.1V29h-5.1c0,0,0-0.9,0-1.3c0-1.1-0.7-1.8-1.9-1.8c-1.3,0-1.7,0.7-1.9,1.4c-0.1,0.2-0.1,0.7,0,1.1
	c0.6,2.4,8.3,3.7,9.2,7.9C110.8,36.8,111,37.9,110.8,39.7z M130.1,39.2c-0.4,3.9-3.4,5.1-7.2,5.1c-3.8,0-6.8-1.3-7.2-5.1
	c0-0.2-0.1-1,0-1.4V23h5.2v15.3c0,0.3,0,0.6,0,0.8c0.1,0.5,0.5,1.5,2,1.5c1.4,0,1.9-1,2-1.5c0-0.2,0.1-0.5,0-0.8V23h5.2v14.8
	C130.2,38.2,130.2,39,130.1,39.2z M153.3,43.4h-7.3l-5.1-16.8h-0.1l0.3,16.8h-5.1V23h7.7l4.7,16.2h0.1L148.2,23h5.1L153.3,43.4
	L153.3,43.4z"/>
</svg>
