<?xml version="1.0" encoding="utf-8"?>
<!-- Generator: Adobe Illustrator 22.1.0, SVG Export Plug-In . SVG Version: 6.00 Build 0)  -->
<svg xmlns="http://www.w3.org/2000/svg" xmlns:xlink="http://www.w3.org/1999/xlink" x="0px" y="0px"
	 viewBox="0 0 200.4 66.5" style="enable-background:new 0 0 200.4 66.5;" xml:space="preserve">
<style type="text/css">
	.shopify-original-0{fill:#95BF47;}
	.shopify-original-1{fill:#5E8E3E;}
	.shopify-original-2{fill:#FFFFFF;}
</style>
<path class="shopify-original-0" d="M43,15.5c0-0.3-0.3-0.4-0.5-0.5c-0.2,0-4.5-0.3-4.5-0.3s-3-3-3.3-3.3c-0.3-0.3-1-0.2-1.2-0.2
	c0,0-0.7,0.2-1.7,0.5c-1-2.9-2.7-5.5-5.8-5.5h-0.3c-0.9-1.2-2-1.7-2.9-1.7c-7.2,0-10.6,9-11.7,13.6c-2.8,0.9-4.8,1.5-5,1.5
	c-1.5,0.5-1.6,0.5-1.8,2C4.1,22.9,0,54.6,0,54.6l31.9,6l17.3-3.7C49.1,56.8,43.1,15.8,43,15.5z M30.1,12.3c-0.8,0.3-1.7,0.5-2.7,0.8
	v-0.6c0-1.8-0.3-3.2-0.7-4.4C28.3,8.5,29.4,10.3,30.1,12.3z M24.8,8.6c0.4,1.1,0.7,2.7,0.7,4.8v0.3c-1.7,0.5-3.7,1.1-5.6,1.7
	C21,11.4,23,9.3,24.8,8.6z M22.6,6.6c0.3,0,0.6,0.1,0.9,0.3c-2.3,1.1-4.8,3.8-5.8,9.3c-1.5,0.5-3,0.9-4.4,1.4
	C14.6,13.4,17.5,6.6,22.6,6.6z"/>
<path class="shopify-original-1" d="M42.6,15.1c-0.2,0-4.5-0.3-4.5-0.3s-3-3-3.3-3.3c-0.1-0.1-0.3-0.2-0.5-0.2l-2.4,49.3l17.3-3.7
	c0,0-6.1-41-6.1-41.3C43,15.2,42.8,15.1,42.6,15.1z"/>
<path class="shopify-original-2" d="M26,24.6l-2.1,6.3c0,0-1.9-1-4.2-1c-3.4,0-3.5,2.1-3.5,2.6c0,2.9,7.5,4,7.5,10.8c0,5.3-3.4,8.8-7.9,8.8
	c-5.5,0-8.3-3.4-8.3-3.4L9,43.9c0,0,2.9,2.5,5.3,2.5c1.6,0,2.2-1.3,2.2-2.2c0-3.8-6.2-4-6.2-10.2c0-5.2,3.8-10.3,11.3-10.3
	C24.6,23.8,26,24.6,26,24.6z"/>
<path d="M69.3,36.5c-1.7-0.9-2.6-1.7-2.6-2.8c0-1.4,1.2-2.3,3.2-2.3c2.2,0,4.2,0.9,4.2,0.9l1.6-4.8c0,0-1.5-1.1-5.7-1.1
	c-5.9,0-10.1,3.4-10.1,8.2c0,2.7,1.9,4.8,4.5,6.3c2.1,1.2,2.8,2,2.8,3.3c0,1.3-1,2.3-3,2.3c-2.9,0-5.6-1.5-5.6-1.5L57,49.7
	c0,0,2.5,1.7,6.7,1.7c6.1,0,10.5-3,10.5-8.4C74.2,40.1,72,38,69.3,36.5L69.3,36.5z M93.6,26.4c-3,0-5.4,1.4-7.2,3.6l-0.1,0l2.6-13.6
	h-6.8L75.5,51h6.8l2.3-11.9c0.9-4.5,3.2-7.3,5.4-7.3c1.5,0,2.1,1,2.1,2.5c0,0.9-0.1,2.1-0.3,3l-2.6,13.6H96l2.7-14
	c0.3-1.5,0.5-3.3,0.5-4.4C99.1,28.7,97.1,26.4,93.6,26.4L93.6,26.4z M114.5,26.4c-8.2,0-13.6,7.4-13.6,15.6c0,5.3,3.3,9.5,9.4,9.5
	c8,0,13.4-7.2,13.4-15.6C123.7,31,120.9,26.4,114.5,26.4L114.5,26.4z M111.2,46.2c-2.3,0-3.3-2-3.3-4.4c0-3.9,2-10.3,5.7-10.3
	c2.4,0,3.2,2.1,3.2,4.1C116.8,39.8,114.8,46.2,111.2,46.2z M141.1,26.4c-4.6,0-7.2,4-7.2,4h-0.1l0.4-3.6h-6c-0.3,2.5-0.8,6.2-1.4,9
	l-4.7,24.9h6.8l1.9-10.1h0.1c0,0,1.4,0.9,4,0.9c8,0,13.2-8.2,13.2-16.4C148.1,30.4,146.1,26.4,141.1,26.4L141.1,26.4z M134.6,46.3
	c-1.8,0-2.8-1-2.8-1l1.1-6.4c0.8-4.2,3-7.1,5.4-7.1c2.1,0,2.7,1.9,2.7,3.7C141,40.1,138.4,46.3,134.6,46.3z M157.8,16.6
	c-2.2,0-3.9,1.7-3.9,3.9c0,2,1.3,3.4,3.2,3.4h0.1c2.1,0,3.9-1.4,4-3.9C161.2,18,159.9,16.6,157.8,16.6L157.8,16.6z M148.3,50.9h6.8
	l4.6-24.1h-6.8 M177,26.9h-4.7l0.2-1.1c0.4-2.3,1.8-4.4,4-4.4c1.2,0,2.2,0.3,2.2,0.3l1.3-5.3c0,0-1.2-0.6-3.7-0.6
	c-2.4,0-4.8,0.7-6.7,2.3c-2.3,2-3.4,4.8-3.9,7.7l-0.2,1.1h-3.2l-1,5.1h3.2l-3.6,19h6.8l3.6-19h4.7L177,26.9L177,26.9z M193.3,26.9
	c0,0-4.3,10.7-6.2,16.5h-0.1c-0.1-1.9-1.7-16.5-1.7-16.5h-7.2l4.1,22.1c0.1,0.5,0,0.8-0.1,1.1c-0.8,1.5-2.1,3-3.7,4.1
	c-1.3,0.9-2.7,1.5-3.8,1.9l1.9,5.8c1.4-0.3,4.2-1.4,6.7-3.7c3.1-2.9,6-7.4,8.9-13.5l8.3-17.8L193.3,26.9L193.3,26.9z"/>
</svg>
