<?xml version="1.0" encoding="utf-8"?>
<!-- Generator: Adobe Illustrator 23.0.3, SVG Export Plug-In . SVG Version: 6.00 Build 0)  -->
<svg version="1.1" id="Layer_1" xmlns="http://www.w3.org/2000/svg" xmlns:xlink="http://www.w3.org/1999/xlink" x="0px" y="0px"
	 viewBox="0 0 200.4 66.5" style="enable-background:new 0 0 200.4 66.5;" xml:space="preserve">
<style type="text/css">
	.st0{fill:#E01E5A;}
	.st1{fill:#36C5F0;}
	.st2{fill:#2EB67D;}
	.st3{fill:#ECB22E;}
</style>
<title>slack_cmyk</title>
<desc>Created with Sketch.</desc>
<g>
	<g>
		<path d="M64.1,47.8l2.5-5.8c2.7,2,6.3,3.1,9.9,3.1c2.6,0,4.3-1,4.3-2.5c0-4.3-15.7-0.9-15.8-11.7c0-5.5,4.8-9.7,11.7-9.7
			c4.1,0,8.2,1,11.1,3.3l-2.3,5.9c-2.7-1.7-6-2.9-9.1-2.9c-2.1,0-3.6,1-3.6,2.3c0,4.2,15.8,1.9,16,12.2c0,5.6-4.7,9.5-11.5,9.5
			C72.1,51.5,67.6,50.3,64.1,47.8"/>
		<path d="M160.2,39.9c-1.3,2.2-3.6,3.7-6.3,3.7c-4,0-7.2-3.2-7.2-7.2s3.2-7.2,7.2-7.2c2.7,0,5,1.5,6.3,3.7l6.9-3.8
			c-2.6-4.6-7.6-7.8-13.2-7.8c-8.4,0-15.1,6.8-15.1,15.1s6.8,15.1,15.1,15.1c5.7,0,10.6-3.1,13.2-7.8L160.2,39.9z"/>
		<rect x="92.1" y="8.6" width="8.6" height="42.3"/>
		<polygon points="170.5,8.6 170.5,50.9 179.1,50.9 179.1,38.3 189.4,50.9 200.5,50.9 187.4,35.9 199.5,21.8 188.9,21.8 179.1,33.5 
			179.1,8.6 		"/>
		<path d="M126.4,40c-1.3,2.1-3.8,3.6-6.7,3.6c-4,0-7.2-3.2-7.2-7.2s3.2-7.2,7.2-7.2c2.9,0,5.5,1.6,6.7,3.7V40z M126.4,21.8v3.4
			c-1.4-2.4-4.9-4-8.6-4c-7.6,0-13.6,6.7-13.6,15.1s6,15.2,13.6,15.2c3.7,0,7.2-1.7,8.6-4v3.4h8.6V21.8
			C135.1,21.8,126.4,21.8,126.4,21.8z"/>
	</g>
	<g>
		<g>
			<path class="st0" d="M10.6,40c0,2.9-2.4,5.3-5.3,5.3S0,42.9,0,40s2.4-5.3,5.3-5.3h5.3V40z"/>
			<path class="st0" d="M13.3,40c0-2.9,2.4-5.3,5.3-5.3S24,37,24,40v13.3c0,2.9-2.4,5.3-5.3,5.3s-5.3-2.4-5.3-5.3V40z"/>
		</g>
		<g>
			<path class="st1" d="M18.6,18.5c-2.9,0-5.3-2.4-5.3-5.3c0-2.9,2.4-5.3,5.3-5.3s5.3,2.4,5.3,5.3v5.3H18.6z"/>
			<path class="st1" d="M18.6,21.3c2.9,0,5.3,2.4,5.3,5.3s-2.4,5.3-5.3,5.3H5.3c-2.9,0-5.3-2.4-5.3-5.3s2.4-5.3,5.3-5.3H18.6z"/>
		</g>
		<g>
			<path class="st2" d="M40,26.6c0-2.9,2.4-5.3,5.3-5.3s5.3,2.4,5.3,5.3s-2.4,5.3-5.3,5.3H40V26.6z"/>
			<path class="st2" d="M37.3,26.6c0,2.9-2.4,5.3-5.3,5.3c-2.9,0-5.3-2.4-5.3-5.3V13.2c0-2.9,2.4-5.3,5.3-5.3c2.9,0,5.3,2.4,5.3,5.3
				V26.6z"/>
		</g>
		<g>
			<path class="st3" d="M32,48c2.9,0,5.3,2.4,5.3,5.3c0,2.9-2.4,5.3-5.3,5.3c-2.9,0-5.3-2.4-5.3-5.3V48H32z"/>
			<path class="st3" d="M32,45.3c-2.9,0-5.3-2.4-5.3-5.3s2.4-5.3,5.3-5.3h13.4c2.9,0,5.3,2.4,5.3,5.3s-2.4,5.3-5.3,5.3H32z"/>
		</g>
	</g>
</g>
</svg>
