<?xml version="1.0" encoding="utf-8"?>
<!-- Generator: Adobe Illustrator 22.1.0, SVG Export Plug-In . SVG Version: 6.00 Build 0)  -->
<svg xmlns="http://www.w3.org/2000/svg" xmlns:xlink="http://www.w3.org/1999/xlink" x="0px" y="0px"
	 viewBox="0 0 200.4 66.5" style="enable-background:new 0 0 200.4 66.5;" xml:space="preserve">
<style type="text/css">
	.spotify-original-0{fill:#1ED760;}
</style>
<path class="spotify-original-0" d="M30.1,3.2C13.5,3.2,0,16.6,0,33.2c0,16.6,13.5,30.1,30.1,30.1c16.6,0,30.1-13.5,30.1-30.1
	C60.1,16.6,46.7,3.2,30.1,3.2C30.1,3.2,30.1,3.2,30.1,3.2z M43.8,46.5c-0.5,0.9-1.7,1.2-2.6,0.6c-7.1-4.3-15.9-5.3-26.4-2.9
	c-1,0.2-2-0.4-2.2-1.4c-0.2-1,0.4-2,1.4-2.2C25.5,38,35.3,39.1,43.2,44C44.1,44.5,44.4,45.6,43.8,46.5z M47.5,38.3
	c-0.7,1.1-2.1,1.5-3.2,0.8c-8.1-5-20.4-6.4-29.9-3.5c-1.2,0.4-2.5-0.3-2.9-1.6c-0.4-1.2,0.3-2.5,1.6-2.9c10.9-3.3,24.5-1.7,33.8,4
	C47.8,35.8,48.2,37.2,47.5,38.3L47.5,38.3z M47.8,29.8c-9.7-5.8-25.7-6.3-34.9-3.5c-1.5,0.5-3.1-0.4-3.5-1.9C9,23,9.8,21.4,11.3,21
	c10.6-3.2,28.3-2.6,39.4,4c1.3,0.8,1.8,2.5,1,3.9C50.9,30.2,49.2,30.6,47.8,29.8L47.8,29.8z M81.8,30.9c-5.2-1.2-6.1-2.1-6.1-3.9
	c0-1.7,1.6-2.9,4-2.9c2.3,0,4.7,0.9,7.1,2.7c0.1,0.1,0.2,0.1,0.3,0.1c0.1,0,0.2-0.1,0.2-0.1l2.5-3.6c0.1-0.1,0.1-0.3-0.1-0.5
	c-2.9-2.3-6.2-3.5-10-3.5c-5.6,0-9.5,3.4-9.5,8.2c0,5.2,3.4,7,9.2,8.4c5,1.1,5.8,2.1,5.8,3.8c0,1.9-1.7,3.1-4.4,3.1
	c-3,0-5.5-1-8.3-3.4c-0.1-0.1-0.2-0.1-0.2-0.1c-0.1,0-0.2,0.1-0.2,0.1l-2.8,3.4c-0.1,0.1-0.1,0.4,0,0.5c3.2,2.9,7.2,4.4,11.4,4.4
	c6,0,9.9-3.3,9.9-8.4C90.7,34.9,88.1,32.5,81.8,30.9C81.8,30.9,81.8,30.9,81.8,30.9z M104.3,25.8c-2.6,0-4.8,1-6.5,3.1v-2.4
	c0-0.2-0.2-0.3-0.3-0.3h-4.6c-0.2,0-0.3,0.2-0.3,0.3V53c0,0.2,0.2,0.3,0.3,0.3h4.6c0.2,0,0.3-0.2,0.3-0.3v-8.3c1.8,2,3.9,3,6.5,3
	c4.9,0,9.8-3.7,9.8-10.9C114.1,29.6,109.2,25.8,104.3,25.8L104.3,25.8L104.3,25.8z M108.7,36.7c0,3.6-2.2,6.2-5.5,6.2
	c-3.2,0-5.6-2.7-5.6-6.2c0-3.5,2.4-6.2,5.6-6.2C106.4,30.5,108.7,33.1,108.7,36.7L108.7,36.7z M126.7,25.8c-6.3,0-11.2,4.8-11.2,11
	c0,6.1,4.9,10.9,11.1,10.9c6.3,0,11.2-4.8,11.2-10.9C137.9,30.6,133,25.8,126.7,25.8L126.7,25.8z M126.7,42.9
	c-3.3,0-5.8-2.7-5.8-6.2c0-3.6,2.4-6.1,5.8-6.1c3.4,0,5.9,2.7,5.9,6.2C132.5,40.4,130.1,42.9,126.7,42.9z M151.2,26.2h-5.1V21
	c0-0.2-0.2-0.3-0.3-0.3h-4.6c-0.2,0-0.3,0.2-0.3,0.3v5.2h-2.2c-0.2,0-0.3,0.2-0.3,0.3v4c0,0.2,0.2,0.3,0.3,0.3h2.2v10.3
	c0,4.2,2.1,6.3,6.2,6.3c1.7,0,3-0.3,4.3-1.1c0.1-0.1,0.2-0.2,0.2-0.3v-3.8c0-0.1-0.1-0.2-0.2-0.3c-0.1-0.1-0.2-0.1-0.3,0
	c-0.9,0.4-1.8,0.7-2.7,0.7c-1.5,0-2.2-0.7-2.2-2.2v-9.6h5.1c0.2,0,0.3-0.2,0.3-0.3v-4C151.6,26.4,151.4,26.2,151.2,26.2L151.2,26.2
	L151.2,26.2z M169,26.3v-0.6c0-1.9,0.7-2.7,2.3-2.7c1,0,1.7,0.2,2.6,0.5c0.1,0,0.2,0,0.3,0c0.1-0.1,0.1-0.2,0.1-0.3v-3.9
	c0-0.1-0.1-0.3-0.2-0.3c-0.9-0.3-2.1-0.6-3.9-0.6c-4.3,0-6.6,2.4-6.6,7v1h-2.2c-0.2,0-0.3,0.2-0.3,0.3v4c0,0.2,0.2,0.3,0.3,0.3h2.2
	v15.9c0,0.2,0.2,0.3,0.3,0.3h4.6c0.2,0,0.3-0.2,0.3-0.3V30.9h4.3l6.6,15.9c-0.8,1.7-1.5,2-2.5,2c-0.8,0-1.7-0.2-2.6-0.7
	c-0.1,0-0.2-0.1-0.3,0c-0.1,0-0.2,0.1-0.2,0.2l-1.6,3.5c-0.1,0.2,0,0.4,0.1,0.4c1.6,0.9,3.1,1.3,5,1.3c3.4,0,5.3-1.6,7-5.9l8.1-20.8
	c0-0.1,0-0.2,0-0.3c-0.1-0.1-0.2-0.1-0.3-0.1H188c-0.1,0-0.3,0.1-0.3,0.2l-5,14.2l-5.4-14.2c-0.1-0.1-0.2-0.2-0.3-0.2L169,26.3
	L169,26.3L169,26.3z M158.7,26.2h-4.6c-0.2,0-0.3,0.2-0.3,0.3v20.3c0,0.2,0.2,0.3,0.3,0.3h4.6c0.2,0,0.3-0.2,0.3-0.3V26.6
	C159.1,26.4,158.9,26.2,158.7,26.2C158.7,26.2,158.7,26.2,158.7,26.2z M156.4,17c-1.8,0-3.3,1.5-3.3,3.3c0,1.8,1.5,3.3,3.3,3.3
	c1.8,0,3.3-1.5,3.3-3.3C159.7,18.5,158.3,17,156.4,17z M197.1,32.8c-1.8,0-3.3-1.5-3.3-3.3s1.4-3.3,3.3-3.3s3.3,1.5,3.3,3.3
	C200.4,31.3,199,32.8,197.1,32.8z M197.1,26.5c-1.7,0-2.9,1.3-2.9,3c0,1.6,1.3,2.9,2.9,2.9c1.7,0,2.9-1.3,2.9-3
	C200.1,27.8,198.8,26.5,197.1,26.5z M197.9,29.8l0.9,1.3H198l-0.8-1.2h-0.7v1.2h-0.7v-3.4h1.5c0.8,0,1.3,0.4,1.3,1.1
	C198.7,29.3,198.3,29.7,197.9,29.8L197.9,29.8z M197.3,28.3h-0.9v1.1h0.9c0.4,0,0.7-0.2,0.7-0.5C198,28.4,197.7,28.3,197.3,28.3z"/>
</svg>
