<?xml version="1.0" encoding="utf-8"?>
<!-- Generator: Adobe Illustrator 22.1.0, SVG Export Plug-In . SVG Version: 6.00 Build 0)  -->
<svg xmlns="http://www.w3.org/2000/svg" xmlns:xlink="http://www.w3.org/1999/xlink" x="0px" y="0px"
	 viewBox="0 0 200.4 66.5" style="enable-background:new 0 0 200.4 66.5;" xml:space="preserve">
<style type="text/css">
	.uber-original-0{fill:#000203;}
</style>
<g id="Page-1">
	<g id="Group">
		<path id="Fill-1" class="uber-original-0" d="M31.5,13.4v23.1c0,7.7-3.4,10.9-11.4,10.9c-8,0-11.4-3.2-11.4-10.9V12.4H1c-0.7,0-1,0.3-1,1v23.4
			c0,12.9,8.2,17.4,20.1,17.4c11.9,0,20.1-4.5,20.1-17.4V12.4h-7.7C31.9,12.4,31.5,12.8,31.5,13.4"/>
		<path id="Fill-2" class="uber-original-0" d="M143.2,19.1c0.6,0,0.9-0.2,1.1-0.7l2.2-5.5c0.1-0.3,0-0.5-0.3-0.5h-31c-2.9,0-4,0.9-4,2.9v35.8
			c0,1.7,0.8,2.4,3.1,2.4h28.9c0.6,0,0.9-0.2,1.1-0.7l2.2-5.5c0.1-0.3,0-0.5-0.3-0.5h-26.5v-7.3c0-2.5,1.4-3.7,5.1-3.7h11.5
			c0.6,0,0.9-0.2,1.1-0.7l2.1-5.3c0.1-0.3,0-0.5-0.3-0.5h-19.6V19.1H143.2"/>
		<path id="Fill-3" class="uber-original-0" d="M80.5,46.9H65.3v-7.5c0-2.5,1.4-3.7,5.1-3.7h10.1c4.8,0,6.2,1.9,6.2,5.6
			C86.7,45.2,85.3,46.9,80.5,46.9z M65.3,19h13.6c4.5,0,5.8,1.7,5.8,5.3c0,3.5-1.3,5.3-5.8,5.3H65.3V19z M88.6,31.9
			c3.4-1.8,4.8-5.1,4.8-9c0-9.1-7.4-10.4-15.1-10.4H60.8c-2.9,0-4,0.9-4,2.9v35.8c0,1.7,0.8,2.4,3.1,2.4h21.5
			c8.1,0,13.9-3.2,13.9-11.4C95.3,37.3,93.2,33.1,88.6,31.9L88.6,31.9z"/>
		<path id="Fill-4" class="uber-original-0" d="M184.2,31.5h-14.3V19h14.3c5.3,0,6.5,2.1,6.5,6.2C190.8,29.5,189.6,31.5,184.2,31.5z M200.3,52.8
			L191.1,37c4.6-1.2,8.3-4.2,8.3-11.9c0-10-6.2-12.7-16.4-12.7h-17.6c-2.9,0-4,0.9-4,2.9v37.2c0,0.7,0.3,1,1,1h7.5v-12
			c0-2.5,1.4-3.7,5.1-3.7h7.6l8.3,15c0.3,0.4,0.5,0.7,1.1,0.7h7.8C200.5,53.6,200.5,53.1,200.3,52.8L200.3,52.8z"/>
	</g>
</g>
</svg>
