<?xml version="1.0" encoding="utf-8"?>
<!-- Generator: Adobe Illustrator 23.0.3, SVG Export Plug-In . SVG Version: 6.00 Build 0)  -->
<svg xmlns="http://www.w3.org/2000/svg" xmlns:xlink="http://www.w3.org/1999/xlink" x="0px" y="0px"
	 viewBox="0 0 200.4 66.5" style="enable-background:new 0 0 200.4 66.5;" xml:space="preserve">
<style type="text/css">
	.weebly-original-0{fill:#0099D6;}
</style>
<g id="layer1" transform="translate(-55.605517,-332.37293)">
	<path id="path11537" class="weebly-original-0" d="M157.7,357.2c-3.6,0-6.1,2.8-6.5,6.3h13C163.8,359.9,161.6,357.2,157.7,357.2L157.7,357.2z
		 M189.6,357.9c-4.4,0-6.4,4.1-6.4,8.1c0,3.9,1.9,8.5,6.4,8.5c4.3,0,6.4-4.4,6.4-8.2C195.9,362.4,193.9,357.9,189.6,357.9z
		 M125.7,357.2c-3.6,0-6.1,2.8-6.5,6.3h13C131.8,359.9,129.6,357.2,125.7,357.2z M241.9,345.6c-4.1,0-7.4,2.3-8.9,6.2l-1,2.7l-1-2.7
		c-1.4-3.8-4.8-6.3-8.9-6.3c-0.5,0-1,0.1-1.6,0.2v-3.7c0-5.6-4-9.7-9.3-9.7s-9.3,4.2-9.3,9.7v7.1c-3.1-2.6-6.9-3.9-11-3.9
		c-0.9,0-1.8,0.1-2.7,0.2v-3.4c0-5.6-3.9-9.7-9.1-9.7c-5.2,0-9.1,4.2-9.1,9.7v7.8c-3.5-3-7.8-4.7-12.6-4.7c-5.6,0-10.7,2.3-14.4,6.5
		c-0.6,0.6-1.1,1.4-1.6,2.2c-0.5-0.7-1-1.4-1.6-2.1c-3.8-4.3-9-6.6-14.5-6.6c-4.2,0-8.1,1.3-11.3,3.7c-1.6-2.3-4.3-3.7-7.6-3.7
		c-4.2,0-7.8,2.9-8.9,7.1c-2-6.4-7-7.1-9.1-7.1s-7.1,0.7-9.1,7.1c-1.1-4.2-4.6-7.1-8.9-7.1c-5.2,0-9.4,3.7-9.4,8.5
		c0,2.1,0.5,3.8,1.1,5.6l7.1,20.1c2.4,6.7,7.2,7.6,9.9,7.6c4.2,0,7.5-2.2,9.2-6c1.7,3.8,5,6,9.2,6c2.7,0,7.5-1,9.9-7.7l0.8-2.3
		c3.5,6.2,9.9,10,17.7,10c5.7,0,13.2-2.4,16.7-6.9c3.7,4.3,9.2,6.9,15.6,6.9c4.3,0,9.8-1.4,13.6-4.1c1.6,2.3,4.3,3.7,7.4,3.7
		c1.8,0,3.5-0.4,4.8-1.2c2.1,1,4.3,1.6,6.7,1.6c4.7,0,9-1.7,12.3-5c1.5,3.1,4.5,5,8.2,5c3.9,0,7.2-2.4,8.5-5.8c0,0-1.4,7.5-1.4,8.9
		c0,4.9,4.1,8.7,9.4,8.7c3.8,0,7-2.4,8.6-6.5l13.7-34c0.5-1.2,0.8-2.6,0.8-4.1C250.9,349.1,246.2,345.6,241.9,345.6L241.9,345.6z
		 M109.6,357.6l-7.1,20.1c-0.9,2.4-2.3,4.2-5,4.2c-2.5,0-4.1-1.4-4.8-3.8l-4.3-13.4h-0.1L84,378.1c-0.8,2.4-2.3,3.8-4.8,3.8
		c-2.8,0-4.2-1.8-5-4.2l-7.1-20c-0.6-1.7-0.9-2.8-0.9-3.9c0-1.9,1.7-3.4,4.2-3.4c2.1,0,3.5,1.3,3.9,3.3l4.8,16h0.1l4.9-15.6
		c0.6-2.3,1.8-3.7,4.2-3.7c2.4,0,3.6,1.4,4.2,3.7l4.9,15.6h0.1l4.8-16c0.4-2,1.9-3.3,3.9-3.3c2.4,0,4.2,1.5,4.2,4.1
		C110.4,355.4,109.9,356.3,109.6,357.6z M126.6,375c4.2,0,7.1-3.4,9.3-3.4c1.7,0,3.4,1.7,3.4,3.5c0,3.5-7.3,6.9-13.4,6.9
		c-9.3,0-15.3-6.7-15.3-15.7c0-8.3,6.1-15.8,14.7-15.8c8.9,0,14.7,8.1,14.7,14.9c0,2.4-1.1,3.7-3.6,3.7h-17.5
		C119.5,373.1,122.8,375,126.6,375z M168.6,369.1h-17.5c0.5,4,3.9,5.8,7.7,5.8c4.2,0,7.1-3.4,9.3-3.4c1.7,0,3.4,1.7,3.4,3.5
		c0,3.5-7.3,6.9-13.4,6.9c-9.3,0-15.3-6.7-15.3-15.7c0-8.3,6.1-15.8,14.7-15.8c8.9,0,14.7,8.1,14.7,14.9
		C172.2,367.9,171,369.1,168.6,369.1L168.6,369.1z M190.7,382c-2.8,0-6-1.2-7.5-3.7c-0.5,2.2-1.8,3.4-4.1,3.4
		c-2.4,0-4.1-1.8-4.1-4.5v-35c0-2.8,1.6-4.5,4-4.5c2.4,0,4,1.8,4,4.5v11.1c2.3-1.9,5-2.9,7.8-2.9c8.8,0,13.3,8.2,13.3,16.2
		C204.2,374.3,198.9,382,190.7,382L190.7,382z M215.4,377.4c0,2.8-1.7,4.5-4.1,4.5c-2.4,0-4.1-1.8-4.1-4.5v-35.4
		c0-2.8,1.7-4.5,4.1-4.5s4.1,1.8,4.1,4.5V377.4z M245.4,356.4l-13.6,34.1c-0.6,1.7-1.9,3.2-3.8,3.2c-2.8,0-4.3-1.7-4.3-3.5
		c0-0.8,0.2-1.6,0.5-2.4l3.6-8.9l-9-22.6c-0.2-0.6-0.4-1.2-0.4-2.1c0-2.1,2.2-3.5,3.8-3.5c2,0,3.4,1.1,4.1,2.9l5.6,15.4l6.1-15.4
		c0.6-1.8,2.1-2.9,4.1-2.9c1.7,0,3.8,1.5,3.8,3.5C245.8,355.2,245.7,355.7,245.4,356.4z"/>
</g>
</svg>
