<svg xmlns="http://www.w3.org/2000/svg" viewBox="34.261 75.146 130.052 49.151"><path fill="#231F20" d="M110.393 75.148c1.686.002 3.371-.006 5.058.005-.002 1.286-.002 2.572 0 3.858-1.687.002-3.372 0-5.058.002v-3.865zM63.844 80.779c2.224-.835 5.197-.228 6.324 2.039.893-1.074 2.047-2.008 3.457-2.259 1.767-.308 3.831-.112 5.171 1.195 1.199 1.202 1.501 2.982 1.548 4.608.005 3.284-.003 6.569.003 9.852-1.676-.005-3.355 0-5.032-.002.014-2.817-.002-5.634.011-8.45-.008-.797-.03-1.654-.487-2.342-.695-1.041-2.363-1.094-3.229-.244-.63.697-.668 1.698-.696 2.585-.01 2.811 0 5.625-.002 8.439-1.699.025-3.399.005-5.1.014.002-2.921 0-5.842.005-8.76-.008-.852-.097-1.809-.722-2.446-1.003-.819-2.781-.407-3.266.818-.395.948-.423 1.998-.434 3.009 0 2.46 0 4.919.003 7.378-1.681-.002-3.363 0-5.042-.002.011-5.1.005-10.198.003-15.298 1.624 0 3.249-.003 4.872.003-.005.684-.01 1.371-.027 2.058.702-.914 1.529-1.794 2.64-2.195zM105.064 81.504c1.211-.901 2.809-1.052 4.263-.824a640.379 640.379 0 0 0-.003 4.597c-1.151-.23-2.385-.426-3.512.02-1.314.495-2.203 1.875-2.149 3.273-.005 2.548 0 5.095 0 7.645-1.695-.002-3.391 0-5.089-.002.002-5.1.002-10.198 0-15.298 1.643-.003 3.283-.003 4.924 0 0 .876-.006 1.756-.023 2.635.418-.757.862-1.546 1.589-2.046zM117.118 85.071c.86-2.182 2.835-3.86 5.118-4.38 2.563-.589 5.472-.212 7.572 1.454 1.352 1.049 2.045 2.704 2.276 4.364-1.626.02-3.256.008-4.883.008-.175-.475-.271-1.011-.63-1.391-1.047-1.16-3.062-1.046-4.116.039-.882 1.003-.983 2.41-.979 3.682-.004 1.16.274 2.405 1.119 3.251.961.928 2.592.944 3.645.158.664-.492.859-1.332 1.104-2.077 1.61.006 3.219.003 4.828 0-.158 1.894-1.068 3.732-2.594 4.892-3.62 2.743-9.656 1.998-12.051-2.022-1.423-2.382-1.425-5.442-.409-7.978zM153.941 82.933c1.744-2.553 5.479-3.201 8.125-1.75 1.521.868 2.192 2.671 2.225 4.35.041 3.559-.003 7.117.021 10.679-1.674.002-3.348-.003-5.019.002-.004-2.888.011-5.778-.006-8.667-.026-.927-.106-2.064-.989-2.598-1.076-.587-2.619-.483-3.441.493-.666.785-.803 1.863-.791 2.857.013 2.638 0 5.274.01 7.912-1.68.002-3.358 0-5.038.002.007-5.101.003-10.201 0-15.301 1.642-.003 3.28 0 4.923-.003-.003.677-.009 1.351-.02 2.024zM110.391 80.91c1.688.006 3.373-.002 5.06.006-.002 5.097-.002 10.195 0 15.292-1.687.008-3.372 0-5.058.005 0-5.099 0-10.199-.002-15.303zM47.708 75.154a392.944 392.944 0 0 0-5.642.005c-2.572 7.027-5.309 13.996-7.805 21.05 1.875.011 3.747 0 5.62.005.442-1.247.883-2.498 1.309-3.75 2.448-.003 4.894-.011 7.342.005.421 1.248.855 2.493 1.278 3.74 1.929.008 3.855 0 5.785.005-2.639-7.018-5.261-14.039-7.887-21.06zm-5.232 13.201c.802-2.462 1.619-4.919 2.377-7.396.832 2.452 1.572 4.93 2.363 7.396a1872.3 1872.3 0 0 0-4.74 0zM97.665 89.793c.076-2.625-.559-5.467-2.523-7.335-3.09-2.883-8.422-2.633-11.405.286-3.438 3.212-3.206 9.59.638 12.385 2.592 1.8 6.106 1.984 9.014.893 1.979-.728 3.476-2.451 4.028-4.474-1.561-.002-3.122-.005-4.679.003-.977 1.908-3.814 2.242-5.332.822-.714-.66-.909-1.653-1.085-2.562 3.78-.035 7.561-.002 11.344-.018zM87.42 84.764c1.01-1.077 2.885-1.256 3.995-.229.742.591 1.053 1.526 1.201 2.429-2.091.006-4.183.006-6.273 0 .233-.782.472-1.613 1.077-2.2zM147.857 86.088c-.006-1.401-.201-2.943-1.25-3.971-1.342-1.311-3.317-1.588-5.108-1.668-2.175-.072-4.556.115-6.345 1.481-1.161.866-1.684 2.292-1.818 3.69 1.564.015 3.131 0 4.693.011.271-.597.504-1.294 1.139-1.6 1.03-.519 2.389-.435 3.328.248.794.53.695 2.003-.278 2.265-2.538.714-5.396.418-7.7 1.872-1.761 1.104-2.086 3.499-1.484 5.344.461 1.44 1.811 2.432 3.256 2.732 2.32.514 4.966.039 6.73-1.63.09.449.186.899.28 1.35 1.521-.003 3.038.01 4.562-.008-.008-3.372-.003-6.745-.005-10.116zm-6.024 6.942c-.947.618-2.271.733-3.278.192-1.044-.594-.979-2.303.074-2.855 1.339-.732 2.93-.704 4.348-1.226-.036 1.333.022 2.976-1.144 3.889zM133.943 98.21c1.68-.003 3.354-.003 5.033 0-.002 7.019-.008 14.036.004 21.058-1.68.002-3.357 0-5.039 0 .008-7.018.004-14.039.002-21.058zM110.77 106.602c.901-2.287 3.539-3.424 5.873-2.849-.017 1.524-.012 3.05-.002 4.575-1.254-.264-2.631-.471-3.814.152-1.2.554-1.881 1.877-1.887 3.166-.01 2.539-.004 5.08.004 7.621-1.68.002-3.36 0-5.039.002.016-5.119-.012-10.235.013-15.353 1.627.008 3.255.002 4.878.005a79.88 79.88 0 0 1-.026 2.681zM47.848 98.207c-1.874 0-3.749.003-5.623 0-2.64 7.016-5.246 14.043-7.89 21.057 1.899.01 3.799.008 5.694.002l1.303-3.73c2.449-.057 4.897-.057 7.343-.01.426 1.246.857 2.49 1.278 3.74 1.929.006 3.858.006 5.788 0-2.654-7.011-5.256-14.039-7.893-21.059zm-5.216 13.207a531.147 531.147 0 0 1 2.377-7.337c.847 2.421 1.583 4.88 2.331 7.332-1.57.005-3.139 0-4.708.005zM133.098 112.85c.088-2.686-.582-5.602-2.646-7.465-3.166-2.798-8.497-2.457-11.415.551-3.452 3.398-2.949 10.111 1.335 12.606 2.657 1.5 6.046 1.577 8.827.372 1.816-.777 3.121-2.428 3.66-4.307-1.566-.01-3.137-.006-4.702 0-.989 1.955-3.946 2.25-5.423.705-.635-.655-.803-1.588-.973-2.447 3.779-.038 7.557-.006 11.337-.015zm-11.306-2.881c.228-.767.476-1.574 1.058-2.154.98-1.03 2.737-1.238 3.875-.347.816.571 1.142 1.56 1.354 2.484-2.097.046-4.192.021-6.287.017zM70.253 105.415c-1.526-1.688-4.041-2.289-6.21-1.731-1.138.289-2.029 1.104-2.765 1.977.013-.579.024-1.156.03-1.736-1.61-.003-3.221 0-4.831-.003-.015 6.794.005 13.584-.012 20.377h5.095c-.022-2.212.027-4.424-.056-6.634 1.96 2.542 6.005 2.736 8.381.688 1.814-1.58 2.538-4.078 2.542-6.416-.014-2.315-.567-4.778-2.174-6.522zm-4.098 9.75c-1.178 1.157-3.448.862-4.208-.636-.599-1.135-.628-2.467-.569-3.721.069-1.277.646-2.68 1.894-3.213 1.022-.459 2.355-.26 3.097.613.813.938 1.014 2.24 1.008 3.439-.06 1.246-.307 2.603-1.222 3.518zM87.307 105.668c-1.528-1.895-4.245-2.607-6.551-1.947-1.1.315-1.974 1.104-2.653 1.996.003-.599.006-1.197.006-1.797-1.6.003-3.199 0-4.799.003-.005 6.791 0 13.583-.005 20.374h5.059c-.014-2.212.021-4.424-.022-6.634 1.937 2.537 5.966 2.737 8.337.712 1.69-1.443 2.459-3.708 2.553-5.875.1-2.393-.378-4.939-1.925-6.832zm-4.221 9.4c-1.146 1.254-3.496 1.012-4.298-.512-.626-1.22-.681-2.654-.558-3.994.119-1.263.783-2.604 2.05-3.041.916-.323 2.031-.176 2.743.516.898.846 1.163 2.146 1.184 3.331.002 1.296-.239 2.696-1.121 3.7zM104.82 108.652c.006-1.344-.383-2.784-1.44-3.684-1.301-1.107-3.075-1.379-4.724-1.465-2.202-.091-4.598.074-6.445 1.409-1.209.86-1.777 2.329-1.868 3.767 1.558.002 3.116.006 4.674 0 .258-.63.527-1.351 1.201-1.639 1.017-.459 2.303-.376 3.232.252.793.516.739 1.975-.215 2.281-2.589.748-5.532.418-7.859 1.974-1.595 1.082-1.932 3.281-1.438 5.031.357 1.36 1.505 2.413 2.831 2.825 2.462.753 5.314.246 7.266-1.471.071.442.145.885.226 1.324 1.521.016 3.041.006 4.564.008-.011-3.534.006-7.073-.005-10.612zm-5.653 7.11c-.794.898-2.16.938-3.249.689-1.291-.344-1.517-2.307-.392-2.98 1.346-.789 2.984-.74 4.424-1.287-.03 1.212.03 2.578-.783 3.578z"/><path d="M142.445 100.917a1.538 1.538 0 0 1-1.11.448c-.446 0-.821-.153-1.128-.459a1.528 1.528 0 0 1-.459-1.128c0-.463.166-.848.495-1.155.31-.287.674-.43 1.092-.43.438 0 .812.154 1.12.465.312.31.466.683.466 1.121 0 .45-.159.828-.476 1.138zm-2.043-2.058a1.272 1.272 0 0 0-.379.919c0 .367.129.68.386.937.255.258.563.387.926.387.36 0 .668-.131.923-.389.256-.26.383-.571.383-.935 0-.353-.127-.659-.381-.919a1.245 1.245 0 0 0-.925-.396c-.364 0-.675.133-.933.396zm.239 1.802v-1.758a99.344 99.344 0 0 1 .851.004c.14.01.255.04.346.091.156.086.234.226.234.419 0 .148-.041.254-.123.32a.589.589 0 0 1-.305.118.58.58 0 0 1 .248.102c.104.084.155.214.155.395v.156a.315.315 0 0 0 .017.104l.018.051h-.439a1.273 1.273 0 0 1-.027-.243.942.942 0 0 0-.029-.216.213.213 0 0 0-.13-.129.514.514 0 0 0-.157-.027l-.102-.007h-.096v.622l-.461-.002zm.838-1.411a.748.748 0 0 0-.267-.037h-.112v.51h.178a.423.423 0 0 0 .252-.064c.062-.044.092-.112.092-.209-.001-.096-.048-.163-.143-.2z"/></svg>