<svg xmlns="http://www.w3.org/2000/svg" viewBox="0 0 456.008 560.035"><path d="M380.844 297.529c.787 84.752 74.349 112.955 75.164 113.314-.622 1.988-11.754 40.191-38.756 79.652-23.343 34.117-47.568 68.107-85.731 68.811-37.499.691-49.557-22.236-92.429-22.236-42.859 0-56.256 21.533-91.753 22.928-36.837 1.395-64.889-36.891-88.424-70.883-48.093-69.53-84.846-196.475-35.496-282.165 24.516-42.554 68.328-69.501 115.882-70.192 36.173-.69 70.315 24.336 92.429 24.336 22.1 0 63.59-30.096 107.208-25.676 18.26.76 69.517 7.376 102.429 55.552-2.652 1.644-61.159 35.704-60.523 106.559m-70.475-208.111c19.557-23.673 32.72-56.628 29.129-89.418-28.19 1.133-62.278 18.785-82.498 42.445-18.121 20.952-33.991 54.487-29.709 86.628 31.421 2.431 63.52-15.967 83.078-39.655"/></svg>