
<svg xmlns="http://www.w3.org/2000/svg" width="2500" height="776" viewBox="0 0 236.104 73.299"><path d="M233.43 55.626c1.442 0 2.674-1.12 2.674-2.653 0-1.519-1.232-2.639-2.674-2.639-1.456 0-2.688 1.12-2.688 2.639 0 1.534 1.232 2.653 2.688 2.653zM106.232 26.808c-4.524 0-7.261 1.111-11.154 4.417l3.856-13.454H81.883l-11.45 38.346h9.814l3.286-4.06c3.06 3.886 10.394 4.76 15.148 4.658 9.119-.196 19.329-5.793 21.474-15.885 2.159-10.15-3.656-14.022-13.923-14.022z"/><path d="M102.591 41.559c-1.087 3.828-3.266 8.28-8.022 8.28-1.963 0-3.191-.746-4.418-1.949l2.877-11.346c2.181-1.768 4.095-2.873 6.177-2.873 4.06 0 4.704 3.248 3.386 7.888z" fill="#fff"/><path d="M144.993 27.001h-17.052l-8.688 29.116h17.052zM214.909 26.71c-13.634 0-26.137 8.166-27.292 15.296-1.681 10.379 6.301 13.742 20.734 13.742 11.918 0 23.212-4.812 24.861-9.33H216.74c-.909 1.721-2.732 2.649-6.233 2.649-4.115 0-6.772-1.117-5.663-5.688h29.725l.352-1.452c2.898-11.937-8.22-15.217-20.012-15.217z"/><path d="M219.093 38.218h-12.996c.862-3.549 3.56-5.135 7.429-5.135 4.114 0 6.415 1.639 5.567 5.135z" fill="#fff"/><path d="M40.361 13.79C20.139 13.79 2.05 25.996.339 36.572-2.154 51.967 9.238 56.438 30.63 57.261c17.832.686 34.131-7.539 36.578-14.238h-24.13c-1.349 2.552-4.054 3.928-9.247 3.928-6.102 0-9.533-1.655-7.888-8.436H69.52l.522-2.152C74.341 18.655 57.851 13.79 40.361 13.79z"/><path d="M46.571 30.858H28.229c1.216-5.264 5.024-7.615 10.484-7.615 5.808 0 9.055 2.431 7.858 7.615z" fill="#fff"/><path d="M178.866 36.917l15.834-9.056h-13.991l-17.733 10.165 6.157-20.078h-17.051l-11.707 38.169h17.052l2.581-8.413 5.24-2.997 5.028 11.41h17.052z"/><ellipse transform="rotate(-3.296 138.318 20.742)" cx="138.198" cy="20.728" rx="8.629" ry="3.432"/><path d="M66.342 17.396c2.449-1.03 40.376-16.419 113.099-13.461 0 0-78.445-12.692-143.137 7.514a53.952 53.952 0 0 1 4.057-.159c11.747 0 20.453 2.052 25.981 6.106zM29.961 60.101c-4.995-.192-9.29-.581-12.981-1.191 2.869 1.607 17.687 9.642 46.172 14.389 0 0-12.103-3.634-23.613-13.613a59.783 59.783 0 0 1-9.578.415zM78.479 63.36l.417-.938h-6.55l-.417.938H74.7l-3.249 7.297h1.101L75.8 63.36zM81.273 64.563c-.34 0-.688.08-1.046.238-.358.159-.767.421-1.225.787l1.405-3.166h-1.021l-3.656 8.234h1.021l1.136-2.558c.328-.743.624-1.281.888-1.615s.581-.597.952-.79a2.367 2.367 0 0 1 1.095-.288c.249 0 .425.062.527.185s.132.282.086.476c-.032.135-.166.463-.403.986l-1.646 3.603h1.021l1.606-3.518c.258-.561.413-.946.462-1.155.1-.427.046-.771-.162-1.03-.206-.259-.554-.389-1.04-.389zM86.988 64.563c-.56 0-1.113.148-1.663.445-.551.297-1.048.751-1.494 1.361-.446.611-.745 1.241-.897 1.891-.117.497-.125.939-.022 1.328.102.389.313.685.635.888.322.204.704.305 1.146.305.709 0 1.372-.221 1.988-.663s1.054-.909 1.312-1.399l-.966-.094c-.289.43-.629.759-1.021.986-.392.228-.762.342-1.111.342-.371 0-.651-.146-.839-.44-.188-.293-.217-.719-.085-1.276.022-.094.052-.198.089-.314h4.406c.124-.306.221-.604.289-.896.179-.762.107-1.363-.214-1.803-.323-.441-.84-.661-1.553-.661z"/><path d="M87.827 66.917c-.01.045-.029.119-.058.224h-3.362c.318-.601.691-1.05 1.121-1.349.43-.299.862-.448 1.299-.448.402 0 .699.136.892.406.191.271.228.66.108 1.167z" fill="#fff"/><path d="M100.544 65.985h-4.321l1.166-2.625h4.242l.424-.938h-5.351l-3.656 8.235h1.101l1.658-3.735h4.329zM105.459 64.688l-1.182 2.59c-.231.514-.412.874-.543 1.078-.2.32-.427.598-.681.833s-.534.421-.841.559-.604.207-.892.207c-.269 0-.458-.058-.569-.173-.111-.115-.142-.275-.094-.481.042-.179.138-.429.287-.751l1.776-3.86h-1.012l-1.593 3.446c-.282.61-.453 1.042-.512 1.293-.089.379-.024.699.195.961.22.262.559.393 1.018.393.745 0 1.568-.401 2.47-1.204l-.479 1.079h.941l2.73-5.969h-1.019zM111.518 64.563a2.69 2.69 0 0 0-1.142.278c-.395.186-.842.482-1.342.888l.465-1.042h-.941l-2.65 5.969h1.021l1.227-2.775c.407-.904.86-1.543 1.36-1.916.5-.372 1.014-.559 1.542-.559.262 0 .448.062.558.185.11.124.142.284.095.482-.041.176-.146.446-.315.812l-1.722 3.771h1.021l1.647-3.602c.214-.474.347-.822.399-1.042.104-.44.047-.792-.168-1.055-.217-.262-.568-.394-1.055-.394zM119.722 64.688l-2.65 5.969h1.021l2.65-5.969zM123.672 64.563c-.674 0-1.237.168-1.69.504-.454.336-.736.739-.847 1.21-.063.269-.056.507.023.714.08.207.227.388.442.541.128.093.436.254.921.483.485.229.779.422.881.58a.638.638 0 0 1 .085.5c-.058.244-.22.456-.487.636s-.625.269-1.075.269c-.322 0-.589-.065-.8-.197-.21-.131-.336-.3-.377-.507-.042-.207-.028-.456.041-.749l-1.03.062c-.212.767-.116 1.321.287 1.661.403.341.95.511 1.639.511.505 0 .965-.085 1.377-.255.413-.17.744-.397.992-.681.248-.284.407-.574.477-.869.104-.444.034-.821-.213-1.132-.155-.194-.584-.458-1.286-.793-.421-.201-.677-.35-.767-.448a.51.51 0 0 1-.137-.495c.044-.188.182-.361.415-.522.233-.161.526-.242.879-.242.438 0 .753.105.944.315.19.211.251.496.181.856l.999-.062c.118-.566.022-1.023-.287-1.37-.31-.346-.839-.52-1.587-.52zM138.244 64.38a1.787 1.787 0 0 0-.001-.911c-.078-.275-.229-.492-.453-.65s-.518-.27-.882-.333c-.223-.042-.573-.062-1.053-.062h-2.634l-3.657 8.234h4.086c.541 0 1.058-.113 1.551-.34.492-.227.921-.548 1.285-.963s.6-.85.707-1.303c.092-.394.062-.737-.091-1.031s-.436-.514-.85-.66c.558-.179 1.003-.44 1.334-.785.332-.346.552-.743.658-1.196z"/><path d="M136.067 68.053c-.061.258-.184.505-.367.741s-.405.425-.665.569-.577.246-.952.305c-.187.034-.538.051-1.055.051h-1.947l1.263-2.844h2.19c.71 0 1.167.1 1.367.3.202.2.257.493.166.878zM137.198 64.444c-.115.487-.38.857-.798 1.112-.417.255-1.045.382-1.884.382h-1.755l1.145-2.578h1.842c.527 0 .877.039 1.05.115s.296.199.371.368c.073.168.083.369.029.601z" fill="#fff"/><path d="M138.098 68.46c-.3 1.274.301 2.314 1.38 2.314.559 0 1.194-.325 1.766-.819l.02.026-.264.676h1.105l2.192-5.837c-.301-.104-.919-.182-1.335-.182-2.847 0-4.426 1.963-4.864 3.822z"/><path d="M141.632 68.967c-.445.455-1.134.897-1.576.897-.676 0-1-.663-.781-1.599.184-.78 1.157-2.873 3.63-2.665l-1.273 3.367z" fill="#fff"/><path d="M147.479 69.625c-.362.25-.709.375-1.041.375-.332 0-.581-.127-.747-.38-.167-.253-.19-.634-.071-1.142.114-.485.318-.989.613-1.513.295-.524.623-.915.984-1.172a1.966 1.966 0 0 1 1.159-.386c.354 0 .614.106.78.319.167.212.207.507.122.884l1.015-.062c.141-.598.065-1.077-.225-1.44-.291-.362-.757-.544-1.4-.544a3.47 3.47 0 0 0-1.771.49c-.56.327-1.043.804-1.451 1.432a6.072 6.072 0 0 0-.84 1.916c-.177.751-.112 1.335.194 1.753.306.418.784.627 1.435.627.602 0 1.181-.181 1.738-.542.557-.362 1.051-.916 1.482-1.661l-.993-.094c-.293.511-.621.891-.983 1.14zM156.04 64.688l-3.66 2.864 2.278-5.13h-1.021l-3.656 8.235h1.021l.884-1.992 1.484-1.067.487 3.059h1.112l-.657-3.741 3.073-2.228zM162.597 64.688l-2.65 5.969h1.021l2.65-5.969zM167.652 64.563a2.69 2.69 0 0 0-1.142.278c-.395.186-.842.482-1.342.888l.464-1.042h-.941l-2.65 5.969h1.021l1.227-2.775c.407-.904.86-1.543 1.36-1.916.5-.372 1.014-.559 1.542-.559.262 0 .448.062.558.185.11.124.142.284.095.482-.041.176-.146.446-.315.812l-1.722 3.771h1.021l1.647-3.602c.214-.474.347-.822.399-1.042.104-.44.047-.792-.168-1.055-.215-.262-.567-.394-1.054-.394zM175.525 68.767l1.464-3.298h1l.34-.781h-1l.96-2.156-1.325.698-.651 1.458h-.797l-.34.781h.797l-1.535 3.467c-.208.472-.328.773-.359.904-.061.259-.02.463.125.612.192.199.49.298.893.298.229 0 .472-.032.73-.096l.364-.831a2.634 2.634 0 0 1-.617.067c-.157 0-.263-.032-.317-.096-.054-.063-.067-.155-.039-.275.021-.081.123-.332.307-.752zM182.714 64.563c-.339 0-.688.08-1.045.238-.358.159-.767.421-1.225.787l1.406-3.166h-1.021l-3.656 8.234h1.021l1.136-2.558c.328-.743.624-1.281.888-1.615s.581-.597.952-.79a2.37 2.37 0 0 1 1.095-.288c.249 0 .424.062.527.185.103.124.131.282.085.476-.032.135-.166.463-.403.986l-1.645 3.603h1.021l1.606-3.518c.258-.561.413-.946.461-1.155.101-.427.047-.771-.161-1.03-.208-.259-.556-.389-1.042-.389zM188.688 64.563c-.559 0-1.113.148-1.663.445-.55.297-1.048.751-1.494 1.361-.446.611-.745 1.241-.898 1.891-.117.497-.124.939-.022 1.328.101.389.313.685.635.888s.704.305 1.146.305c.709 0 1.372-.221 1.988-.663.617-.442 1.054-.909 1.312-1.399l-.966-.094c-.289.43-.629.759-1.021.986-.392.228-.761.342-1.11.342-.372 0-.651-.146-.839-.44-.188-.293-.216-.719-.085-1.276.022-.094.052-.198.09-.314h4.405c.125-.306.221-.604.29-.896.179-.762.108-1.363-.214-1.803s-.841-.661-1.554-.661z"/><path d="M189.528 66.917l-.058.224h-3.362c.318-.601.692-1.05 1.121-1.349.43-.299.862-.448 1.299-.448.402 0 .7.136.892.406s.227.66.108 1.167z" fill="#fff"/><path d="M200.954 66.359c.558-.179 1.003-.44 1.334-.785.332-.344.55-.742.657-1.194a1.799 1.799 0 0 0 0-.911 1.156 1.156 0 0 0-.453-.65c-.224-.159-.518-.27-.881-.333-.223-.042-.574-.062-1.054-.062h-2.635l-3.656 8.234h4.086c.541 0 1.057-.113 1.55-.34a3.84 3.84 0 0 0 1.286-.963c.364-.416.6-.85.707-1.303.093-.394.062-.737-.091-1.031-.153-.296-.436-.516-.85-.662z"/><path d="M200.769 68.053a1.932 1.932 0 0 1-.366.741c-.184.236-.405.425-.665.569s-.577.246-.952.305c-.187.034-.539.051-1.055.051h-1.947l1.262-2.844h2.19c.71 0 1.167.1 1.367.3.201.2.256.493.166.878zM199.218 65.938h-1.756l1.145-2.578h1.842c.527 0 .877.039 1.05.115s.296.199.371.368c.074.168.084.369.03.601-.115.487-.381.857-.798 1.112s-1.045.382-1.884.382z" fill="#fff"/><path d="M204.598 64.688l-2.65 5.969h1.021l2.65-5.969zM210.437 68.579l-.994-.094c-.293.511-.622.891-.983 1.141-.363.25-.709.375-1.041.375s-.581-.127-.748-.38-.189-.634-.07-1.142c.114-.485.318-.989.612-1.513.295-.524.623-.915.984-1.172a1.965 1.965 0 0 1 1.158-.386c.354 0 .614.106.78.319.167.212.208.507.123.884l1.015-.062c.141-.598.065-1.077-.225-1.44-.291-.362-.758-.544-1.4-.544-.62 0-1.21.164-1.771.49-.56.327-1.043.804-1.451 1.432a6.046 6.046 0 0 0-.839 1.916c-.177.751-.112 1.335.194 1.753s.784.627 1.435.627c.602 0 1.181-.181 1.738-.542.558-.363 1.052-.917 1.483-1.662zM217.056 64.688l-3.79 4.78a39.69 39.69 0 0 0 .188-1.778l.258-3.002h-1l-.413 5.972-.463.582c-.274.341-.509.573-.703.697a.978.978 0 0 1-.532.141 2 2 0 0 1-.591-.09l-.291.97c.206.08.426.12.661.12.37 0 .722-.108 1.056-.324.334-.217.764-.658 1.287-1.326l5.387-6.741h-1.054zM220.259 69.625c-.362.25-.708.375-1.04.375-.332 0-.581-.127-.748-.38s-.189-.634-.07-1.142c.114-.485.317-.989.612-1.513.294-.524.623-.915.984-1.172a1.965 1.965 0 0 1 1.158-.386c.354 0 .614.106.78.319.167.212.208.507.123.884l1.015-.062c.141-.598.065-1.077-.226-1.44-.291-.362-.757-.544-1.4-.544-.621 0-1.211.164-1.771.49-.56.327-1.043.804-1.451 1.432a6.046 6.046 0 0 0-.839 1.916c-.177.751-.112 1.335.194 1.753s.784.627 1.435.627c.602 0 1.181-.181 1.738-.542.557-.362 1.051-.916 1.482-1.661l-.994-.094c-.292.511-.619.891-.982 1.14zM226.447 62.422l-3.665 8.235h1.021l3.666-8.235zM232.306 65.224c-.322-.44-.84-.661-1.553-.661-.559 0-1.113.148-1.663.445s-1.048.751-1.494 1.361c-.445.611-.744 1.241-.897 1.891-.117.497-.125.939-.022 1.328.102.389.313.685.635.888.322.204.704.305 1.147.305.709 0 1.372-.221 1.988-.663s1.053-.909 1.311-1.399l-.966-.094c-.289.43-.629.759-1.021.986-.392.228-.762.342-1.11.342-.372 0-.652-.146-.84-.44-.188-.293-.216-.719-.085-1.276.022-.094.052-.198.09-.314h4.405c.125-.306.221-.604.29-.896.179-.762.107-1.363-.215-1.803z"/><path d="M231.593 66.917c-.011.045-.03.119-.059.224h-3.362c.318-.601.691-1.05 1.121-1.349.43-.299.862-.448 1.299-.448.402 0 .699.136.892.406s.228.66.109 1.167z" fill="#fff"/><path d="M233.347 69.824c-.329 0-.66.268-.737.597-.078.33.127.597.457.597s.66-.268.738-.597c.076-.329-.128-.597-.458-.597zM206.499 62.984c.077-.33-.127-.597-.457-.597-.329 0-.66.268-.737.597-.078.33.127.597.457.597s.659-.267.737-.597zM164.07 62.984c.077-.33-.127-.597-.457-.597-.329 0-.66.268-.737.597-.078.33.127.597.457.597s.659-.267.737-.597zM119.918 62.984c-.078.33.127.597.457.597s.66-.268.738-.597c.077-.33-.127-.597-.457-.597s-.661.268-.738.597z"/><path d="M231.274 52.974c0-1.253.945-2.198 2.156-2.198 1.197 0 2.142.945 2.142 2.198 0 1.274-.945 2.212-2.142 2.212-1.211 0-2.156-.938-2.156-2.212z" fill="#fff"/><path d="M232.87 53.184h.532l.805 1.323h.518l-.868-1.344c.448-.056.791-.294.791-.84 0-.602-.357-.868-1.078-.868h-1.162v3.052h.462v-1.323z"/><path d="M232.87 52.792v-.945h.63c.322 0 .665.07.665.448 0 .469-.35.497-.742.497h-.553z" fill="#fff"/></svg>