<svg xmlns="http://www.w3.org/2000/svg" viewBox="0 0 1013.718 1013.696"><linearGradient id="a" gradientUnits="userSpaceOnUse" x1="-1120.126" y1="2189.824" x2="-44.679" y2="1150.587" gradientTransform="matrix(1 0 0 -1 1045.93 2135.176)"><stop offset="0" stop-color="#dff4ff"/><stop offset=".098" stop-color="#d6eaf5"/><stop offset=".268" stop-color="#bfd0d9"/><stop offset=".488" stop-color="#98a5ac"/><stop offset=".747" stop-color="#646b6e"/><stop offset="1" stop-color="#2b2b2b"/></linearGradient><path d="M506.86 0c-279.92 0-506.86 226.918-506.86 506.848 0 279.927 226.94 506.849 506.86 506.849 279.94 0 506.857-226.922 506.857-506.849.002-279.93-226.915-506.848-506.857-506.848zm0 988.352c-265.939 0-481.495-215.573-481.495-481.504 0-265.927 215.556-481.512 481.495-481.512 265.938 0 481.511 215.584 481.511 481.512 0 265.93-215.573 481.504-481.511 481.504z" fill="url(#a)"/><path d="M992.004 506.848c0 267.914-217.228 485.134-485.144 485.134-267.919 0-485.123-217.22-485.123-485.134 0-267.929 217.204-485.133 485.123-485.133 267.916 0 485.144 217.204 485.144 485.133z" fill="#333"/><radialGradient id="b" cx="-1052.247" cy="2101.652" r="720.108" gradientTransform="matrix(1 0 0 -1 1045.93 2135.176)" gradientUnits="userSpaceOnUse"><stop offset="0" stop-color="#fff"/><stop offset=".306" stop-color="#a8a8a8"/><stop offset=".646" stop-color="#4f4f4f"/><stop offset=".885" stop-color="#161616"/><stop offset="1"/></radialGradient><path d="M988.371 506.848c0 265.931-215.573 481.504-481.511 481.504-265.939 0-481.495-215.573-481.495-481.504 0-265.927 215.556-481.512 481.495-481.512 265.938 0 481.511 215.585 481.511 481.512z" fill="url(#b)"/><linearGradient id="c" gradientUnits="userSpaceOnUse" x1="-818.029" y1="1409.977" x2="-133.081" y2="748.092" gradientTransform="matrix(-1 0 0 1 58.906 -545.52)"><stop offset="0" stop-color="#dff4ff"/><stop offset=".086" stop-color="#d6eaf5"/><stop offset=".233" stop-color="#bed0d9"/><stop offset=".424" stop-color="#96a4ac"/><stop offset=".652" stop-color="#5f686d"/><stop offset=".907" stop-color="#1a1d1e"/><stop offset="1"/></linearGradient><path d="M829.677 506.848c0 178.28-144.53 322.804-322.815 322.804-178.289 0-322.819-144.522-322.819-322.804 0-178.289 144.53-322.815 322.819-322.815 178.284-.001 322.815 144.527 322.815 322.815z" fill="url(#c)"/><path d="M519.791 175.308l33.533-88.877v88.877h25.469v-127.287h-38.275l-34.814 91.136h.331l-34.812-91.136h-38.276v127.287h25.469v-88.877l33.533 88.877zm349.522 57.076l-43.514 63.447 68.347-33.615 18.538 22.231-107.569 54.012-21.735-26.315 41.697-62.869-.247-.31-69.357 29.686-21.984-26.138 72.532-96.044 18.542 22.243-45.417 61.159 70.287-31.349z"/><path d="M281.427 208.068c-10.251-9.951-26.069-12.951-40.939-3.733 2.847-7.363 1.691-14.858.187-19.015-6.414-11.662-8.662-13.137-13.899-17.561-17.097-14.324-35.082-2.093-47.93 13.219l-62.116 74.028 97.65 81.925 65.5-78.047c14.971-17.838 17.282-35.523 1.547-50.816zm-126.321 35.7l37.311-44.464c4.33-5.146 14.106-4.939 20.375.341 6.908 5.795 6.929 14.002 2.289 19.54l-36.896 43.95-23.079-19.367zm102.934 7.393l-38.896 46.353-24.355-20.47 39.186-46.711c4.434-5.281 14.312-6.817 20.974-1.229 7.504 6.312 8.246 15.912 3.091 22.057z" fill="#333"/><radialGradient id="d" cx="-1181.576" cy="2174.985" r="1730.313" gradientTransform="matrix(1 0 0 -1 1045.93 2135.176)" gradientUnits="userSpaceOnUse"><stop offset="0" stop-color="#fff"/><stop offset=".31" stop-color="#fdfdfd"/><stop offset=".451" stop-color="#f6f6f6"/><stop offset=".557" stop-color="#e9e9e9"/><stop offset=".646" stop-color="#d7d7d7"/><stop offset=".724" stop-color="#bfbfbf"/><stop offset=".794" stop-color="#a2a2a2"/><stop offset=".859" stop-color="#808080"/><stop offset=".92" stop-color="#575757"/><stop offset=".975" stop-color="#2b2b2b"/><stop offset="1" stop-color="#141414"/></radialGradient><path fill="url(#d)" d="M520.06 170.39l33.533-88.875v88.875h25.47v-127.287h-38.279l-34.811 91.133h.33l-34.812-91.133h-38.278v127.287h25.47v-88.875l33.536 88.875z"/><radialGradient id="e" cx="-1181.653" cy="2174.985" r="1730.461" gradientTransform="matrix(1 0 0 -1 1045.93 2135.176)" gradientUnits="userSpaceOnUse"><stop offset="0" stop-color="#fff"/><stop offset=".31" stop-color="#fdfdfd"/><stop offset=".451" stop-color="#f6f6f6"/><stop offset=".557" stop-color="#e9e9e9"/><stop offset=".646" stop-color="#d7d7d7"/><stop offset=".724" stop-color="#bfbfbf"/><stop offset=".794" stop-color="#a2a2a2"/><stop offset=".859" stop-color="#808080"/><stop offset=".92" stop-color="#575757"/><stop offset=".975" stop-color="#2b2b2b"/><stop offset="1" stop-color="#141414"/></radialGradient><path fill="url(#e)" d="M869.563 223.844l-43.496 63.449 68.347-33.626 18.52 22.242-107.553 54.012-21.736-26.325 41.7-62.861-.245-.319-69.38 29.698-21.96-26.151 72.531-96.033 18.539 22.234-45.41 61.158 70.26-31.337z"/><radialGradient id="f" cx="-1181.748" cy="2175.493" r="1731.785" gradientTransform="matrix(1 0 0 -1 1045.93 2135.176)" gradientUnits="userSpaceOnUse"><stop offset="0" stop-color="#fff"/><stop offset=".31" stop-color="#fdfdfd"/><stop offset=".451" stop-color="#f6f6f6"/><stop offset=".557" stop-color="#e9e9e9"/><stop offset=".646" stop-color="#d7d7d7"/><stop offset=".724" stop-color="#bfbfbf"/><stop offset=".794" stop-color="#a2a2a2"/><stop offset=".859" stop-color="#808080"/><stop offset=".92" stop-color="#575757"/><stop offset=".975" stop-color="#2b2b2b"/><stop offset="1" stop-color="#141414"/></radialGradient><path d="M276.868 205.563c-10.229-9.951-26.068-12.953-40.916-3.743 2.824-7.364 1.67-14.86.166-18.996-6.415-11.682-8.642-13.137-13.923-17.57-17.096-14.333-35.059-2.095-47.887 13.231l-62.14 74.016 97.653 81.926 65.499-78.059c14.954-17.839 17.283-35.512 1.548-50.805zm-126.316 35.698l37.307-44.453c4.312-5.155 14.086-4.949 20.376.319 6.909 5.806 6.93 14.023 2.268 19.54l-36.873 43.959-23.078-19.365zm102.951 7.393l-38.896 46.352-24.398-20.47 39.207-46.721c4.434-5.269 14.291-6.806 20.953-1.216 7.547 6.32 8.29 15.9 3.134 22.055z" fill="url(#f)"/><radialGradient id="g" cx="-871.677" cy="1935.101" r="466.718" gradientTransform="matrix(1 0 0 -1 1045.93 2135.176)" gradientUnits="userSpaceOnUse"><stop offset="0" stop-color="#e6e6e6"/><stop offset=".104" stop-color="#d6d6d6"/><stop offset=".307" stop-color="#adadad"/><stop offset=".588" stop-color="#6c6c6c"/><stop offset=".933" stop-color="#121212"/><stop offset="1"/></radialGradient><path d="M194.788 506.853c0-172.358 139.725-312.083 312.073-312.083 172.367 0 312.072 139.724 312.072 312.083 0 172.351-139.705 312.07-312.072 312.07-172.35 0-312.073-139.72-312.073-312.07z" fill="url(#g)"/><radialGradient id="h" cx="-744.024" cy="1872.327" r="678.742" gradientTransform="matrix(1 0 0 -1 1045.93 2135.176)" gradientUnits="userSpaceOnUse"><stop offset="0" stop-color="#fff"/><stop offset=".344" stop-color="#fdfdfd"/><stop offset=".481" stop-color="#f6f6f6"/><stop offset=".582" stop-color="#eaeaea"/><stop offset=".665" stop-color="#d8d8d8"/><stop offset=".737" stop-color="#c2c2c2"/><stop offset=".802" stop-color="#a6a6a6"/><stop offset=".86" stop-color="#848484"/><stop offset=".913" stop-color="#5f5f5f"/><stop offset=".949" stop-color="#404040"/><stop offset=".957" stop-color="#404040"/><stop offset="1" stop-color="#404040"/><stop offset="1"/></radialGradient><path d="M203.76 506.853c0-167.399 135.701-303.112 303.102-303.112s303.12 135.712 303.12 303.112-135.722 303.112-303.121 303.112-303.101-135.712-303.101-303.112z" fill="url(#h)"/><radialGradient id="i" cx="-943.312" cy="2129.614" r="1202.06" gradientTransform="matrix(1 0 0 -1 1045.93 2135.176)" gradientUnits="userSpaceOnUse"><stop offset=".169" stop-color="#fff"/><stop offset=".196" stop-color="#e0eff7"/><stop offset=".241" stop-color="#b2d9ec"/><stop offset=".287" stop-color="#8bc5e2"/><stop offset=".335" stop-color="#6bb5da"/><stop offset=".384" stop-color="#52a9d4"/><stop offset=".436" stop-color="#41a0cf"/><stop offset=".491" stop-color="#369bcd"/><stop offset=".556" stop-color="#39c"/><stop offset=".606" stop-color="#3396c8"/><stop offset=".655" stop-color="#328ebc"/><stop offset=".705" stop-color="#3180a8"/><stop offset=".754" stop-color="#2f6d8c"/><stop offset=".803" stop-color="#2d5468"/><stop offset=".851" stop-color="#2a373d"/><stop offset=".871" stop-color="#292929"/></radialGradient><path d="M203.284 506.853h303.576v-303.576c-167.669 0-303.576 135.908-303.576 303.576z" fill="url(#i)"/><radialGradient id="j" cx="-943.312" cy="2129.623" r="1202.037" gradientTransform="matrix(1 0 0 -1 1045.93 2135.176)" gradientUnits="userSpaceOnUse"><stop offset=".169" stop-color="#fff"/><stop offset=".196" stop-color="#e0eff7"/><stop offset=".241" stop-color="#b2d9ec"/><stop offset=".287" stop-color="#8bc5e2"/><stop offset=".335" stop-color="#6bb5da"/><stop offset=".384" stop-color="#52a9d4"/><stop offset=".436" stop-color="#41a0cf"/><stop offset=".491" stop-color="#369bcd"/><stop offset=".556" stop-color="#39c"/><stop offset=".606" stop-color="#3396c8"/><stop offset=".655" stop-color="#328ebc"/><stop offset=".705" stop-color="#3180a8"/><stop offset=".754" stop-color="#2f6d8c"/><stop offset=".803" stop-color="#2d5468"/><stop offset=".851" stop-color="#2a373d"/><stop offset=".871" stop-color="#292929"/></radialGradient><path d="M506.86 506.853v303.578c167.667 0 303.576-135.933 303.576-303.578h-303.576z" fill="url(#j)"/><radialGradient id="k" cx="-865.303" cy="1929.222" r="457.773" gradientTransform="matrix(1 0 0 -1 1045.93 2135.176)" gradientUnits="userSpaceOnUse"><stop offset="0" stop-color="#e6e6e6"/><stop offset=".104" stop-color="#d6d6d6"/><stop offset=".307" stop-color="#adadad"/><stop offset=".588" stop-color="#6c6c6c"/><stop offset=".933" stop-color="#121212"/><stop offset="1"/></radialGradient><path fill="url(#k)" d="M812.95 501.458h-300.708v-300.708h-10.766v300.708h-300.708v10.767h300.708v300.717h10.766v-300.717h300.708z"/><linearGradient id="l" gradientUnits="userSpaceOnUse" x1="-599.096" y1="2043.521" x2="-152.677" y2="1612.133" gradientTransform="matrix(1 0 0 -1 1045.93 2135.176)"><stop offset="0" stop-color="#f0f4ff"/><stop offset=".109" stop-color="#ebeff9"/><stop offset=".247" stop-color="#dce0ea"/><stop offset=".403" stop-color="#c4c7cf"/><stop offset=".57" stop-color="#a2a4ab"/><stop offset=".747" stop-color="#76777c"/><stop offset=".929" stop-color="#414243"/><stop offset="1" stop-color="#2b2b2b"/></linearGradient><path d="M512.242 209.267c160.142 2.848 289.366 132.062 292.232 292.191h5.359c-2.862-163.099-134.481-294.736-297.593-297.583l.002 5.392z" fill="url(#l)"/><path d="M208.729 501.418c2.845-160.347 132.256-289.747 292.604-292.604v-5.383c-163.336 2.856-295.12 134.669-297.987 297.986l5.383.001z" fill="#c2d7e8"/><linearGradient id="m" gradientUnits="userSpaceOnUse" x1="-961.44" y1="1679.306" x2="-515.015" y2="1247.911" gradientTransform="matrix(1 0 0 -1 1045.93 2135.176)"><stop offset="0" stop-color="#f0f4ff"/><stop offset=".109" stop-color="#ebeff9"/><stop offset=".247" stop-color="#dce0ea"/><stop offset=".403" stop-color="#c4c7cf"/><stop offset=".57" stop-color="#a2a4ab"/><stop offset=".747" stop-color="#76777c"/><stop offset=".929" stop-color="#414243"/><stop offset="1" stop-color="#2b2b2b"/></linearGradient><path d="M501.476 804.433c-160.14-2.844-289.364-132.068-292.211-292.208h-5.381c2.865 163.108 134.483 294.75 297.593 297.595l-.001-5.387z" fill="url(#m)"/><path d="M804.475 512.225c-2.866 160.14-132.092 289.364-292.232 292.208v5.387c163.11-2.845 294.747-134.485 297.593-297.595h-5.361z" fill="#12404f"/><linearGradient id="n" gradientUnits="userSpaceOnUse" x1="-745.471" y1="1833.135" x2="-513.982" y2="1609.44" gradientTransform="matrix(1 0 0 -1 1045.93 2135.176)"><stop offset="0" stop-color="#c2d7e8"/><stop offset=".134" stop-color="#bacfe1"/><stop offset=".343" stop-color="#a4bacd"/><stop offset=".6" stop-color="#8098ac"/><stop offset=".894" stop-color="#4e697f"/><stop offset="1" stop-color="#3a566d"/></linearGradient><path fill="url(#n)" d="M495.724 203.432v292.119h-292.11v5.764h297.862v-297.883z"/><linearGradient id="o" gradientUnits="userSpaceOnUse" x1="-861.404" y1="1778.32" x2="-419.473" y2="1351.268" gradientTransform="matrix(1 0 0 -1 1045.93 2135.176)"><stop offset="0" stop-color="#f0f4ff"/><stop offset=".097" stop-color="#e8ebf6"/><stop offset=".257" stop-color="#d1d4dd"/><stop offset=".459" stop-color="#abaeb5"/><stop offset=".695" stop-color="#78797d"/><stop offset=".958" stop-color="#363637"/><stop offset="1" stop-color="#2b2b2b"/></linearGradient><path fill="url(#o)" d="M495.229 806.995v-288.604h-289.2v-5.691h294.892v294.295z"/><linearGradient id="p" gradientUnits="userSpaceOnUse" x1="-535.674" y1="1619.907" x2="-380.656" y2="1470.109" gradientTransform="matrix(1 0 0 -1 1045.93 2135.176)"><stop offset="0" stop-color="#d9def0"/><stop offset=".123" stop-color="#d4daec"/><stop offset=".263" stop-color="#c7cfe2"/><stop offset=".411" stop-color="#b0bcd1"/><stop offset=".566" stop-color="#90a1b8"/><stop offset=".725" stop-color="#677f99"/><stop offset=".885" stop-color="#355674"/><stop offset=".972" stop-color="#173d5d"/></linearGradient><path fill="url(#p)" d="M518.409 806.995v-288.604h288.602v-5.691h-294.274v294.295z"/><linearGradient id="q" gradientUnits="userSpaceOnUse" x1="-694.251" y1="1940.398" x2="-252.797" y2="1513.809" gradientTransform="matrix(1 0 0 -1 1045.93 2135.176)"><stop offset="0" stop-color="#f0f4ff"/><stop offset=".109" stop-color="#ebeff9"/><stop offset=".247" stop-color="#dce0ea"/><stop offset=".403" stop-color="#c4c7cf"/><stop offset=".57" stop-color="#a2a4ab"/><stop offset=".747" stop-color="#76777c"/><stop offset=".929" stop-color="#414243"/><stop offset="1" stop-color="#2b2b2b"/></linearGradient><path fill="url(#q)" d="M518.409 206.011v288.602h288.602v5.682h-294.274v-294.284z"/></svg>