
<svg xmlns="http://www.w3.org/2000/svg" width="2500" height="2445" viewBox="0 0 48.066 47.009"><path d="M44.623 35.79a2.43 2.43 0 0 1-1.913-.93L27.136 14.747l6.869-6.625a194.594 194.594 0 0 1 5.489-5.066C41.241 1.507 43.96.88 46.308.88c.024 0 0-.854 0-.854h-13.43V.83l2.076.033c.735.012 1.47.055 2.196.179.552.088.859.731.576 1.219a12.423 12.423 0 0 1-1.939 2.588c-3.457 3.517-12.235 11.955-13.23 12.909-.02-1.732.001-16.905.001-16.905l5.218.001V0H12.564v.854L17.192.85l.01 34.91-4.81-.002v.953c-.001-.013 15.321 0 15.321 0v-.928l-5.192.001.004-16.495c-.008-.002.378-.322.647-.545.505.627 1.091 1.353 1.097 1.355l11.933 15.67-4.702.001v.952h16.176v-.928c.012 0-2.241-.004-3.053-.004z"/><path d="M12.463 9.098a6.456 6.456 0 0 0-5.509-1.115 8.388 8.388 0 0 0-4.226 2.656C.06 13.741-.728 18.184.704 22.027c.9 2.381 2.591 4.574 4.981 5.601a8.219 8.219 0 0 0 3.051.652 3.07 3.07 0 0 0 .428-.023 7.34 7.34 0 0 0 3.671-1.57c.39-.313.93-.735 1.435-.398.374.245.503 1.177.507 1.182h.499l.006-6.546-.505-.003s-.035.576-.041.833c-.064.726-.236 1.496-.581 2.142-.118.228-.239.452-.36.673-1.207 2.21-3.942 3.798-6.474 3.001a4.65 4.65 0 0 1-2.871-2.635C3.146 21.811 2.953 18.326 3.423 15a22.05 22.05 0 0 1 .537-2.662 5.925 5.925 0 0 1 2.49-3.423c.23-.15.484-.266.744-.354 2.133-.711 4.567.021 5.96 1.794a7.961 7.961 0 0 1 1.597 3.704c.023.191.089.572.089.572h.468l.003-5.931-.553.001c.005 0-.001.232-.004.345-.013.586-.649.785-1.156.699-.448-.077-.786-.378-1.135-.647zM47.206.073v.093h-.235v.681h-.096V.166h-.235V.073h.566zM47.397.073h.136l.2.655.199-.655h.134v.774h-.09V.39l.001-.078.001-.118-.199.653h-.094l-.2-.653v.024l.001.086.002.085v.457h-.091V.073z"/><g><path d="M14.078 46.762h-.468v-.642a1.7 1.7 0 0 1-1.437.729c-1.082 0-1.957-.855-1.957-1.917 0-1.076.861-1.911 1.964-1.911.568 0 1.103.268 1.43.735v-.648h.468v3.654zM14.939 40.98h.467v5.781h-.467zM19.976 43.107h.468v3.655h-.468zM21.207 43.107h.468v.475c.388-.414.59-.527 1.031-.527.995 0 1.451.665 1.451 1.72v1.987h-.468v-1.987c0-.789-.275-1.299-.977-1.299-.428 0-.758.213-.932.574-.073.167-.106.367-.106.708v2.004h-.468v-3.655zM30.424 40.98h.468v5.781h-.468z"/><circle cx="20.263" cy="41.238" r=".286"/><path d="M36.125 43.107h.468v3.655h-.468z"/><circle cx="36.412" cy="41.238" r=".286"/><path d="M9.788 45.779a2.482 2.482 0 1 1 .046-3.882l.312-.361a2.96 2.96 0 1 0-.038 4.599l-.32-.356zM15.808 43.111l1.789 3.898 1.856-3.898h-.507l-1.349 2.835-1.283-2.835zM37.407 43.107h.468v.475c.388-.414.59-.527 1.031-.527.995 0 1.451.665 1.451 1.72v1.987h-.467v-1.987c0-.789-.275-1.299-.977-1.299-.428 0-.758.213-.932.574-.073.167-.106.367-.106.708v2.004h-.468v-3.655zM26.246 40.98h.505v2.621l2.454-2.621h.621l-2.322 2.558 2.271 3.224h-.604l-1.998-2.864-.422.417v2.447h-.505z"/><path d="M12.167 46.428c.789 0 1.443-.675 1.443-1.49 0-.829-.642-1.497-1.437-1.497-.815 0-1.49.682-1.49 1.49.001.815.682 1.497 1.484 1.497z" fill="#fff"/><path d="M33.507 46.428c-.728 0-1.376-.608-1.417-1.33h3.334c-.007-.441-.026-.581-.127-.849-.268-.728-.995-1.229-1.791-1.229a1.906 1.906 0 0 0-1.911 1.911 1.92 1.92 0 0 0 1.917 1.917c.687 0 1.329-.392 1.664-.979l-.4-.251c-.216.471-.736.81-1.269.81zm.007-2.987c.688 0 1.25.488 1.424 1.236h-2.833c.126-.721.714-1.236 1.409-1.236z"/></g></svg>