<svg xmlns="http://www.w3.org/2000/svg" viewBox="0 0 4528.955 2998.568"><path d="M323.955 2998.336c-1.925-.221-8.45-.897-14.5-1.505-55.227-5.546-114.181-28.13-160.524-61.494-69.482-50.023-118.445-122.861-138.868-206.583-10.853-44.487-13.01-94.33-6.069-140.183 18.611-122.938 99.85-228.241 212.545-275.507 28.125-11.795 56.037-19.254 88.916-23.761 18.226-2.497 62.613-2.511 81-.022 38.993 5.275 72.043 15.108 106 31.538 37.364 18.078 63.222 36.692 94.521 68.044 27.362 27.409 44.258 50.221 63.847 86.208l4.167 7.655-14.768 10.924c-20.344 15.048-68.065 49.098-83.607 59.654l-12.84 8.721-5.281-11.479c-6.53-14.191-11.179-22.602-18.707-33.845-30.08-44.922-78.047-77.008-130.332-87.181-27.666-5.383-61.726-4.783-89 1.566-28.64 6.668-59.741 21.625-83.5 40.159-9.577 7.471-27.203 24.95-34.958 34.669-41.845 52.436-57.258 119.238-42.907 185.961 4.969 23.1 17.83 53.281 31.247 73.327 35.51 53.054 89.94 87.044 151.592 94.664 10.899 1.348 37.153 1.348 48.052 0 54.599-6.749 105.048-35.116 139.521-78.452 10.152-12.763 17.227-23.81 25.296-39.5 3.536-6.875 6.724-12.5 7.085-12.5s25.498 17.739 55.86 39.422l55.204 39.421-5.594 10.579c-11.609 21.956-31.58 49.555-50.181 69.347-31.69 33.72-62.557 56.634-102.718 76.255-34.687 16.945-71.442 27.754-110.5 32.494-8.757 1.064-53.773 2.116-59.999 1.404zm472-358.92v-345.5h134v248h350v-248h134v691h-134v-304h-350v304h-134v-345.5zm753.38 284.25c14.936-33.688 83.848-189.162 153.137-345.5l125.982-284.249 94 .01 94 .011 152.289 341.239c83.759 187.682 153.148 343.151 154.201 345.489l1.912 4.25h-160.451l-30.977-68.495-30.976-68.495-179.301.245-179.302.245-30.63 68.25-30.629 68.25h-160.414l27.159-61.25zm496.443-215.144c-.565-2.438-122.302-274.551-122.823-274.544-.372.005-115.987 269.831-117.834 275.004-.205.574 46.026.934 120.324.934 102.633 0 120.607-.208 120.333-1.394zm387.177-69.106v-345.5l94.25.021 94.25.021 147.5 207.165 147.5 207.165.252-207.186.252-207.186h134.996v691.018l-54.167-.259-54.167-.259-187.083-259.712c-102.896-142.842-187.421-259.729-187.833-259.75-.413-.021-.75 116.962-.75 259.962v260h-135v-345.5zm863 0v-345.5h483v139h-348v138h322v139h-322v138h398v137h-533v-345.5zm722 0v-345.5h135v554h376v137h-511v-345.5zM1704.49 2118.177c-144.237-6.672-304.854-50.467-434.34-118.43-99.406-52.176-178.192-110.562-260.728-193.224-64.645-64.742-112.337-124.38-152.708-190.955l-17.673-29.145 25.072-13.298c48.854-25.911 271.564-139.951 273.312-139.951.976 0 10.177 12.523 20.446 27.83 116.062 172.987 297.632 285.518 510.111 316.146 37.145 5.354 148.843 4.5 189.292-1.447 45.009-6.618 98.995-18.892 133.285-30.303 2.231-.742-2.031-7.666-11.842-19.229-75.949-89.527-145.184-212.405-184.135-326.799-70.457-206.927-75.473-429.046-14.4-637.745 37.925-129.599 103.194-255.391 185.852-358.189 12.315-15.315 22.392-28.828 22.392-30.027 0-4.079-64.524-21.254-106.814-28.432-65.337-11.089-167.621-12.464-226.671-3.047-99.357 15.846-200.203 53.057-279.007 102.949-87.817 55.6-161.048 127.051-219.485 214.153l-25.804 38.459-32.845-17.243c-18.064-9.483-85.17-44.26-149.123-77.279S832.2 542.76 831.957 542.546c-1.017-.897 39.021-64.578 55.501-88.274 50.039-71.947 138.893-167.231 204.539-219.341 171.658-136.26 362.491-213 577.338-232.165 39.854-3.556 138.676-3.587 177.122-.057 136.4 12.522 253.321 45.595 374.116 105.818l57.729 28.782 19.34-11.005c31.23-17.771 86.717-43.412 128.857-59.548C2544.736 21.485 2663.812-.064 2795.375 0c91.873.045 168.518 9.072 251.721 29.647 187.973 46.482 348.274 135.628 486.39 270.487 74.878 73.112 133.559 147.761 180.938 230.175l7.18 12.491-116.86 60.287c-64.274 33.159-131.51 67.97-149.413 77.357l-32.551 17.07-24.605-37.117c-121.404-183.138-319.99-302.365-537.355-322.618-64.35-5.996-159.903-.475-217.986 12.596-29.893 6.727-78.421 20.592-78.408 22.402.008.946 7.947 11.455 17.644 23.354 124.563 152.839 202.339 339.146 227.469 544.888 5.998 49.106 6.798 174.479 1.423 223.093-22.699 205.295-100.324 394.752-224.231 547.272-28.091 34.576-26.891 32.184-17.882 35.664 4.254 1.644 24.162 7.151 44.241 12.238 102.046 25.856 211.894 29.51 315.034 10.477 187.592-34.617 356.545-145.562 465.211-305.489 10.105-14.874 19.232-28.039 20.28-29.26 1.048-1.219 26.097 9.91 55.664 24.731 58.571 29.36 242.036 124.3 244.004 126.267 3.278 3.278-55.192 90.072-91.051 135.156-33.948 42.682-122.933 131.563-165.446 165.255-153.637 121.754-326.053 196.198-515.962 222.777-218.054 30.518-448.982-10.353-636.874-112.716l-26.555-14.466-32.936 17.426c-163.19 86.342-350.376 127.501-539.969 118.733zm609.199-599.82c90.94-112.57 147.682-249.121 161.666-389.052 4.693-46.964 1.904-142.632-5.405-185.396-20.114-117.676-63.151-218.537-132.577-310.706-13.074-17.355-32.111-40.558-42.307-51.558l-18.537-20.003-17.199 18.65c-22.672 24.583-60.453 74.737-79.496 105.528-96.69 156.35-128.26 348.432-87.313 531.25 25.767 115.044 85.009 230.936 164.846 322.477l18.385 21.08 8.046-7.615c4.424-4.187 17.875-19.783 29.891-34.655z"/></svg>