
<svg xmlns="http://www.w3.org/2000/svg" viewBox="0 0 22.071 14.913"><g fill="#cf4037"><path d="M8.702 6.719c.179-.139.399-.179.598-.259.18-.1.24-.3.18-.499-.02-.08-.06-.14-.14-.16-.299-.08-.559.08-.858.04-.06-.02-.12-.06-.12-.12.04-.219.1-.439.18-.659.459-1.117.998-2.175 1.477-3.272.1-.279.3-.559.2-.858-.08-.28-.459-.2-.678-.12-.261.12-.48.279-.72.418-.14.08-.319.04-.459.12-.419.3-.579.759-.778 1.178-.239.459-.399.918-.599 1.377-.339.799-.738 1.557-1.097 2.355l-1.94.438s1.38-3.232 1.959-4.889c.02-.08 0-.2-.06-.259-.22-.18-.519-.08-.758 0-.439 1.018-.862 2.023-1.317 3.054-.299.678-.474 1.002-.733 1.701-.04.1-.225.674-.225.674-1.12.412-1.69.562-2.575.838-.059.259-.199.479-.239.739.219.02.479 0 .658.08.14.06.06.299.16.419.22.18.499.24.679.479.1.12.12.279.12.439-.02.439-.239.838-.379 1.277a42.17 42.17 0 0 1-.579 1.696c-.06.16.04.339.08.499.06.1.18.159.299.08.1-.08.16-.2.22-.299.2-.399.339-.798.499-1.197.339-.918.619-1.836.958-2.754.678-.14 1.337-.339 2.036-.339.04 0 .02.1.02.16-.339 1.397-.818 2.615-1.137 3.992-.04.12-.08.279-.02.339.379.379.698.758.998 1.217.02.02.06.04.1.04.14.02.299.02.419.02.16-.02.18-.26.24-.399.539-1.257.858-2.535 1.257-3.832.14-.419.279-.818.399-1.257.1-.399.2-.778.359-1.157.06-.12.16-.2.259-.28.338-.382.637-.76 1.057-1.06zM21.894.272c-.24-.359-.759-.279-1.058-.06-.798.599-.958 1.557-1.337 2.395-.1.2-.22.379-.299.559-.938 1.956-1.677 3.912-2.595 5.868-.206.411-.349.848-.519 1.337-.02.02-.04.02-.06.04-.06-.12-.24-.2-.22-.339.1-1.696.339-3.333.559-5.05.06-.399.12-.758.2-1.157.08-.479.2-.878.299-1.357.08-.339.1-.658.12-.998 0-.339.02-.719-.12-1.038-.1-.24-.299-.539-.619-.459-.12.04-.219.14-.339.18-.339.08-.798-.02-.958.339-1.237 2.954-2.192 5.938-3.073 9.021-.12.419-.279.798-.339 1.237-.06.399-.16.758-.24 1.158-.08.459-.259.878-.299 1.337-.04.239-.04.459-.021.698.075.22.504-.03.639-.219.06-.439.16-.858.26-1.317.18-.938.459-1.796.738-2.694a46.64 46.64 0 0 1 1.437-3.952c.04-.12.06-.28.2-.379 0 .878-.16 1.736-.18 2.615-.02 1.337-.08 2.654-.08 3.992 0 .14.14.219.24.319.399.319.785.605 1.011 1.064.044.089.187-.067.266-.146.2-.22.359-.479.459-.739.219-.519.419-1.018.639-1.537.738-1.716 1.477-3.413 2.335-5.069.02.02.04.04.04.06-.259 2.595-.758 5.09-.898 7.664 0 .14.16.24.219.359.14.339.299.679.619.858.24.12.559.02.639-.22.04-.18.04-.379.06-.579.04-.2.1-.399.12-.599.08-.519.18-.998.279-1.537.14-.838.279-1.597.439-2.435.519-2.754 1.038-5.229 1.537-7.983.079-.418.159-.877-.1-1.237zM10.338 10.122c-.275-.092-.536.248-.698.429-.1-.18-.18-.459-.04-.599.281-.281.391-.498.26-.918-.12-.419-.659-.519-1.038-.379-.273.095-.381.467-.355.803.01.138.042.27.095.375.04.08.08.219.14.299-.257.07-.671.567-.923 1.085-.129.266-.215.538-.215.761 0 .419.589.698.938.588.235-.074.399-.239.619-.359.2.159.339.379.579.539.021 0 .06 0 .06-.02.08-.399-.1-.798.08-1.138.14-.239.359-.399.519-.639.167-.251.26-.744-.021-.827zm-1.357 1.367c-.02.16-.16.22-.319.259-.08.02-.16-.02-.22-.1a.32.32 0 0 1-.035-.254.69.69 0 0 1 .095-.205c.06-.1.202-.167.319-.12.2.081.2.261.16.42zm.279-1.856c-.098-.025-.16-.128-.197-.234a.917.917 0 0 1-.042-.185c-.012-.101.08-.188.18-.18.115.01.279.08.259.24-.02.14-.04.379-.2.359z"/></g></svg>