<svg xmlns="http://www.w3.org/2000/svg" viewBox="0 0 192.756 192.756"><g fill-rule="evenodd" clip-rule="evenodd"><path fill="#fff" d="M0 0h192.756v192.756h-192.756v-192.756z"/><path d="M73.68 77.552h15.609l-2.145 4.885c5.123-2.74 10.961-5.719 17.159-5.719 5.719 0 9.055 1.906 9.174 6.077 6.314-3.694 11.318-6.077 18.111-6.077 8.816 0 10.127 4.885 7.982 9.532l-11.318 25.378h-15.609l9.65-21.566c1.072-2.502 1.43-4.885-2.502-4.885-2.979 0-6.553 1.668-8.102 2.741l-10.605 23.71h-15.608l9.651-21.566c1.191-2.502 1.43-4.885-2.502-4.885-2.979 0-6.553 1.668-7.983 2.741l-10.724 23.71h-15.609l15.371-34.076zm72.205 23.354c1.668 3.574 4.887 4.646 10.486 4.646 4.289 0 7.506-1.191 8.102-2.621.596-1.191.477-2.145-7.506-3.217-7.625-.953-11.439-1.906-13.107-4.17-1.549-2.026-1.43-4.647-.477-6.792 2.979-6.553 12.512-12.034 24.426-12.034 7.27 0 15.133 1.43 16.443 6.792l-11.08 4.17c-.119-2.145-4.648-3.456-7.865-3.456-3.336 0-6.314.596-7.268 2.622-.596 1.43.834 1.787 5.957 2.383 13.465 1.43 18.826 4.766 15.848 11.439-3.217 7.148-11.678 11.914-28.119 11.914-8.342 0-14.656-1.668-17.158-7.148l11.318-4.528zm-94.963-23.354l-5.481 12.273h-11.439l5.481-12.273h-15.608l-15.371 34.077h15.609l6.076-13.463h11.439l-5.958 13.463h15.609l15.252-34.077h-15.609z"/><path fill="#656668" d="M69.867 119.018l-13.107 28.595h12.63l13.107-28.595h-12.63zm26.69 28.595l13.107-28.595h-12.631l-13.106 28.595h12.63zm7.267-102.47l-11.795 25.856h12.631l11.795-25.856h-12.631zm27.049 0l-11.797 25.856h12.631l11.676-25.856h-12.51z"/></g></svg>