
<svg viewBox="1.947 .089 295.504 142.91" xmlns="http://www.w3.org/2000/svg"><path d="m193.314 52.304c-1.405-1.871-1.648-5.18-4.497-5.474-2.766-.747-5.519-1.544-8.31-2.19l-16.398 2.669-1.921 8.838 26.515 3.458 6.916 4.612 18.061 1.92 8.454-3.073c-8.761-2.828-17.734-5.08-26.25-8.602-1.047-.482-1.773-1.364-2.57-2.158z" fill="#db0026" fill-rule="evenodd"/><path d="m225.528 62.681c-.592-.772-1.547-1.08-2.207-1.377-.646-.305-.553-.934-1.093-1.117-.552-.177-1.519.949-2.27.715-.75-.246-.695-1.648-1.321-1.855-.642-.202-1.757.849-2.34.662-.588-.17-.702-1.643-1.269-1.83-.56-.171-1.75.876-2.331.696-.583-.196-.62-1.63-1.268-1.843-.645-.198-1.778.874-2.34.68-.582-.179-.638-1.61-1.256-1.818-.625-.199-1.77.852-2.347.663-.594-.192-.756-1.662-1.297-1.84-.553-.169-1.631.699-2.509.649-6.089-.568-8.418-4.398-8.833-3.265-.406 1.11 1.27 3.811 3.376 4.723 1.68.73 19.817 5.752 20.293 5.976.463.229 1.608.739 1.2 1.4-.63.846-2.402.01-2.853-.364-.456-.379-.352-.517-.78-.632-.972-.23-1.511 1.541-2.539 1.304-.936-.21-.87-2.09-1.82-2.31-1.049-.254-1.524 1.528-2.522 1.296-.828-.187-.941-2.102-1.83-2.316-1.02-.247-1.483 1.54-2.546 1.292-.914-.214-.863-2.082-1.819-2.312-.955-.226-1.622 1.506-2.524 1.301-.905-.21-1.037-2.118-1.84-2.308-.823-.183-1.47.787-2.575.931 0 0-3.173.858-8.189-4.382-5.026-5.229-7.087-6.245-9.948-4.115-4.67 3.479-7.57 1.179-8.416.145-1.015-1.186.048-2.275.048-2.275s1.483 2.29 3.35 2.33c3.009.09 5.278-4.015 10.434-4.088 6.532-.235 8.235 2.085 10.02 2.27 1.654.162 2.206-.105 3.35-.77h-.006c.926-.329 1.731 1.46 2.701 1.1 1.026-.387.276-2.19 1.38-2.606 1.033-.37 1.707 1.443 2.695 1.075 1.039-.38.377-2.233 1.375-2.594 1.027-.371 1.627 1.46 2.693 1.069 1.071-.381.38-2.216 1.354-2.585 1.006-.367 1.733 1.435 2.721 1.083.936-.334.401-2.253 1.375-2.602 1.012-.363 1.665 1.445 2.743 1.049.886-.309.396-2.23 1.315-2.578.918-.343 1.77 1.438 2.726 1.08.896-.33.372-2.239 1.325-2.596 1.01-.364 1.789 1.416 2.743 1.08.945-.339.228-1.879 1.46-2.49 0 0 1.706-.561 1.598-1.813-.014-.21-.366-2.886-3.175-3.453-2.702-.543-24.034 5.357-24.31 5.017-1.963-3.88-4.479-2.801-4.862-2.715-.39.1-2.772 1.113-5.41.1-5.18-2.345-9.316 3.618-12.153 2.833-2.613-.734-4.61-.311-5.706.062-1.003.347-2.629 1.653-6.075.468-26.635-9.094-47.452-1.144-47.452-1.144-11.737 3.921-13.239 0-13.239 0s-3.863-5.247 23.334-11.505c39.09-8.98 40.27-23.84 39.807-24.78-.642-1.363-.887.243-2.174 1.72-1.08 1.228-2.336.621-2.336.621-1.23-.59-2.017.814-2.017.814s-1.582 2.456-2.981 1.06c-1.345-1.345-3.13 1.69-3.797 1.81-.799.14-1.189-.25-2.26-.742-1.606-.71-3.33 2.216-4.212 2.423-1.351.31-2.3-1.592-3.461-.79-3.474 2.4-4.02 2.733-4.956 1.8-.69-.707-.793-1.472-3.113.75-1.975 1.893-2.92 2.248-3.713 1.044-.816-1.212-.606-2.867-4 .39-1.62 1.555-2.448 1.585-3.376.886-.699-.525-.694-3.03-3.128-.762-2.206 2.04-3.808 2.935-4.432 1.123-.69-2.036-3.29.375-3.891.943-.624.567-1.96 2.068-2.897.519-.936-1.559-3.178.768-4.511 2.244-1.029 1.147-1.86.262-2.946-.466-1.233-.846-4.926 4.309-5.26 4.617-.338.294-.595 0-1.441-.717-1.3-1.102-4.807 5.022-5.375 5.421 0 0-.24.529-1.196-.384-1.36-1.294-8.583 8.213-11.309 18.97-3.487 13.79 2.069 24.366 2.069 24.366s1.669.05 2.38-1.077l1.081-2.438c.877-2.032 2.314-1.393 2.314-1.393l-3.406 10.139c-.538 1.335-.213 3.224.977 5.01 1.121 1.794 1.894 3.007 2.793 3.841 2.765 2.604 2.482-.476 2.554-.86.324-1.649 2.15-.383 3.583.407 2.601 1.46 2.312-1.764 2.882-2.815.396-.753 1.675-.787 3.063.376 1.08.903 2.155-2.156 2.155-2.156 1.348-6.52-1.82-7.274-3.533-7.37l-3.468-.158s.228-.992.589-1.921l.155-.658c3.782-9.425-2.539-11.244-4.43-11.094-2.086.186-1.94-1.143-1.94-1.143s11.424-2.25 9.294 9.866c0 0-.42 2.11-.673 3.21l3.14.367c2.701.337 3.181 3.533 3.181 3.533s9.937 2.627 15.573 1.577c0 0 2.519-.6 3.218-2.168 0 0 3.65-8.6 14.306-8.963 0 0 .375 1.113-1.328 1.693-2.04.688-8.842 1.228-10.255 9.04v.031c-.154 1.282.19 4.012 2.97 5.277 2.37 1.069 3.204 5.383 3.696 6.548 1.38 3.307 3.445.146 3.445.146s1.31-2.67 2.432-1.189c1.898 2.497 2.78 1.239 3.211-.351.472-1.716 1.159-2.465 3.146-.378.848.906 2.514.206 2.68-1.344.352-3.413 2.657-.7 2.987-.568.395.15 2.809-.393 1.458-4.242 0 0-1.825-3.668-10.053-5.25-1.93-.366-1.623-1.764-1.623-1.764l1.812.255c.54.088 5.325.619 5.835.7 20.07 1.98 35.299-4.828 35.757-5.313 15.59 2.987 36.79 1.969 40.77.535 4-1.41 4.298-3.746 3.838-4.369zm-32.191-24.879c.326-.525.634-.822.917-.965 1.21-.688 1.982 1.465 1.835 1.544-.007.004-.035.013-.047.018-.002.003-.002.011-.004.014-.19.092-2.524.754-2.754.602-.462-.32.053-1.213.053-1.213zm-8.864.681s.3-.38.884-.573c.576-.21 1.445-.245 2.597.497 1.325.842 1.291 1.5 1.291 1.5a1.665 1.665 0 0 1 -.169.066c-.96.372-4.9.855-4.9.855a1.888 1.888 0 0 1 .297-2.345zm-73.48-19.064c.662.51.028 3.449-.444 3.016l-3.402-1.8s3.168-1.711 3.846-1.216zm-5.533 1.877c.669.498.042 3.443-.432 3.005l-3.393-1.803c.001 0 3.153-1.713 3.825-1.202zm-1.914 5.745c.672.502.042 3.452-.438 3.026l-3.398-1.825s3.16-1.7 3.836-1.201zm-3.238 7.714-3.402-1.807s3.164-1.714 3.835-1.21c.68.502.03 3.45-.433 3.017zm-.64 5.819-3.393-1.808s3.157-1.706 3.83-1.213c.673.498.046 3.434-.438 3.02zm-.063-17.23c.675.501.038 3.433-.436 3.016l-3.404-1.813s3.17-1.712 3.84-1.203zm-2.951 4.479c.666.5.035 3.433-.434 3.016l-3.398-1.807s3.16-1.718 3.832-1.21zm-6.064 7.027s3.17-1.72 3.833-1.211c.676.498.04 3.437-.435 3.011zm2.604 7.36-3.39-1.814s3.162-1.702 3.83-1.2c.675.5.042 3.436-.44 3.014zm-2.418-12.347c.67.49.037 3.433-.438 3.008l-3.386-1.813s3.145-1.702 3.824-1.195zm-3.056 5.926c.673.498.042 3.454-.444 3.019l-3.39-1.804c.001 0 3.162-1.699 3.834-1.215zm-4.467 7.02s3.162-1.7 3.832-1.2c.678.496.033 3.444-.433 3.016zm6.062 6.64-3.395-1.809s3.164-1.713 3.836-1.21c.672.504.03 3.44-.441 3.02zm4.868 3.945-3.395-1.802s3.165-1.713 3.837-1.216c.666.494.023 3.453-.442 3.018zm1.522-6.157-3.397-1.815s3.164-1.7 3.836-1.213c.672.503.035 3.441-.439 3.028zm4.517 8.814-3.39-1.807s3.146-1.709 3.825-1.208c.67.505.047 3.43-.435 3.015zm1.63-5.672-3.392-1.806s3.157-1.7 3.827-1.198c.67.494.046 3.438-.435 3.004zm1.124-5.36-3.393-1.81s3.158-1.7 3.836-1.2c.673.505.03 3.432-.443 3.01zm4.773 10.347-3.394-1.818s3.159-1.697 3.836-1.204c.68.5.036 3.451-.442 3.022zm1.47-5.647-3.392-1.803s3.163-1.719 3.835-1.21c.662.485.025 3.435-.444 3.013zm1.23-5.982-3.393-1.808s3.16-1.695 3.837-1.203c.667.502.03 3.437-.444 3.01zm4.767 10.57-3.404-1.808s3.164-1.711 3.843-1.213c.666.515.023 3.456-.439 3.02zm1.14-6.04-3.392-1.817s3.164-1.704 3.833-1.209c.674.507.036 3.434-.44 3.025zm1.184-6.202-3.394-1.81s3.159-1.703 3.834-1.207c.67.513.036 3.443-.44 3.017zm5.108 9.854-3.397-1.791s3.163-1.71 3.827-1.213c.682.498.045 3.433-.43 3.004zm.93-5.95-3.403-1.798s3.161-1.707 3.829-1.215c.69.505.043 3.456-.427 3.013zm1.178-5.83-3.405-1.798s3.17-1.718 3.836-1.223c.671.507.036 3.456-.431 3.02zm5.2 10.523-3.396-1.81s3.154-1.711 3.833-1.21c.68.505.039 3.437-.438 3.02zm.926-5.555-3.398-1.802s3.167-1.723 3.833-1.21c.671.486.037 3.441-.435 3.012zm1.118-5.927-3.402-1.804s3.164-1.727 3.842-1.212c.672.503.043 3.435-.44 3.016zm4.705 11.585-3.388-1.807s3.158-1.716 3.83-1.204c.673.494.035 3.433-.442 3.011zm1.121-5.964-3.404-1.803s3.17-1.72 3.843-1.21c.666.504.03 3.437-.439 3.013zm1.272-5.937-3.399-1.804s3.165-1.72 3.838-1.208c.678.497.035 3.441-.44 3.012zm4.683 11.901-3.398-1.816s3.16-1.706 3.831-1.194c.671.493.047 3.432-.433 3.01zm1.087-5.633-3.39-1.814s3.156-1.692 3.827-1.21c.674.507.04 3.453-.437 3.024zm1.285-5.766-3.387-1.805s3.159-1.704 3.834-1.212c.662.5.027 3.443-.447 3.017zm4.28 12.25-3.398-1.826s3.164-1.693 3.836-1.188c.679.49.044 3.435-.439 3.014zm1.2-5.463-3.395-1.801s3.168-1.708 3.834-1.208c.679.509.023 3.442-.439 3.01zm1.297-5.58-3.404-1.799s3.167-1.71 3.843-1.222c.669.498.023 3.434-.439 3.02zm5.294 6.759-3.392-1.789s3.158-1.714 3.836-1.223c.667.506.031 3.444-.444 3.012z" fill="#004526"/><path d="m68.99 98.793c-.71-1.883-2.057-2.694-4.524-2.731-.225-.007-11.64.01-11.64.01l-16.898 46.008h8.225a4.018 4.018 0 0 0 1.96-.326c1.6-.73 2.385-2.585 2.613-3.218 0 .016 2.299-6.41 2.457-6.83l16.999-.006c.355 1.084 3.453 10.36 3.453 10.36h11.132l-7.061-22.39zm-3.428 23.463-11.455.002c1.236-3.382 4.312-11.94 5.625-15.404 1.135 3.494 5.8 15.289 5.83 15.402zm83.526-26.552h-.006c-13.167.018-22.718 9.902-22.718 23.49 0 13.315 9.762 23.36 22.724 23.36 12.955 0 23.114-10.254 23.114-23.36 0-13.174-10.159-23.49-23.114-23.49m.33 36.586c-6.712 0-11.972-5.804-11.972-13.22 0-7.347 5.147-12.882 11.964-12.882 6.768 0 11.676 5.414 11.676 12.882-.001 7.542-5.02 13.22-11.668 13.22zm52.571-17.223-.432-.126c.012.006-4.282-1.3-4.293-1.312l-.641-.228c-3.507-1.267-5.997-2.33-5.997-4.371v-.15c.348-3.389 6.64-3.425 6.7-3.425 3.469 0 6.136.53 9.514 1.888l.072.027.145.042c.78.158 1.463.18 2.016.057l.935-.354c1.343-.738 2.678-4.65 3.19-6.297l.166-.528-.413-.38c-.162-.155-1.146-.965-4.725-2.3-3.64-1.364-8.795-1.577-8.795-1.577l-2.544-.011c-13.283 0-18.354 8.197-18.515 13.702-.11 5.485 3.013 8.308 7.732 10.872 1.974 1.094 5.58 2.1 8.195 2.831-.013-.012 2.707.794 2.707.794 4.948 1.554 6.839 3.28 6.487 5.958-.158.885-1.83 2.35-5.629 2.35-2.89 0-5.502-.444-8.221-1.393-1.306-.519-2.657-1.189-4.084-2.036l-.069-.043-.146-.063c-.79-.295-1.497-.418-2.104-.367l-1.045.225c-1.525.571-3.646 4.443-4.494 6.08l-.334.647.577.457c.102.069 2.462 1.945 4.467 3.119 2.36 1.308 5.011 2.255 8.14 2.888 1.262.23 3.266.52 6.405.52 10.293 0 17.77-5.213 18.63-12.977.374-7.044-3.948-11.64-13.597-14.519zm22.004-18.938c-.427-.007-2.673.037-3.964 1.231-.594.546-.905 1.276-.905 2.098l-.007 7.279s12.418-.01 14.044-.01v35.37l11.504-.01v-35.36c1.534-.002 9.039-.002 9.039-.002.425 0 2.666-.048 3.961-1.237a2.82 2.82 0 0 0 .908-2.104v-7.255zm-197.328 35.556h-12.914c0-1.696-.036-31.36-.036-31.36 0-1.302-.39-2.335-1.173-3.057-1.251-1.175-3.114-1.169-3.809-1.154l-6.786-.015.017 45.98h28.79l.02-7.307c0-.935-.399-3.087-4.109-3.087zm82.315-25.782c2.79-.186 5.138 0 7.353.606 1.189.397 2.263.476 3.173.219l.918-.408c1.288-.793 2.21-4.835 2.645-7.164l.1-.546-.47-.338c-.117-.085-.483-.341-4.652-1.466a33.985 33.985 0 0 0 -8.842-1.137l-.184.002c-9.528 0-23.876 6.289-24.287 23.606v.098c.411 17.323 14.76 23.61 24.294 23.61l.177.007c1.666.007 5.04-.13 8.842-1.15 4.17-1.116 4.535-1.375 4.657-1.462l.466-.33-.1-.549c-.435-2.342-1.357-6.375-2.645-7.174v-.006l-.915-.403c-.913-.249-1.988-.168-3.194.237-2.203.592-4.55.784-7.37.598-7.216-.706-11.55-5.617-11.877-13.466.326-7.774 4.661-12.684 11.91-13.384zm183.675 36.155c1.777-.039 4.796-1.086 4.796-4.619l-.034-5.77-20.273.01s.034-6.614.034-7.71h16.735l-.029-10.637s-15.02.018-16.677.018c-.004-1.258 0-5.347 0-6.612 1.657 0 15.363-.019 15.363-.019.421.007 2.715.009 3.957-1.23.868-.87.908-2.453.908-3.278v-6.073h-31.891l.006 45.957z"/></svg>