<svg xmlns="http://www.w3.org/2000/svg" viewBox="0 0 192.756 192.756"><g fill-rule="evenodd" clip-rule="evenodd"><path fill="#fff" d="M0 0h192.756v192.756h-192.756v-192.756z"/><path fill="#cc2229" d="M95.964 102.18h-56.071l-27.793 48.799h56.233l27.631-48.799zm28.489-50.061l-28.035-49.284-28.116 49.284 28.116 49.365 28.035-49.365zm-.029 98.86h56.232l-27.793-48.799h-56.071l27.632 48.799z"/><path d="M121.93 189.216h4.199v-22.432h-4.199v22.432zm47.093 0h4.2v-22.432h-4.2v22.432zm-126.015 0h4.199v-22.432h-4.199v22.432zm20.249-22.432h-12.987v3.804h4.329v18.628h4.329v-18.628h4.329v-3.804zm97.358 8.527h-9.455v-8.527h-4.199v22.432h4.199v-10.101h9.455v10.101h4.197v-22.432h-4.197v8.527zm-131.161 1.508l-3.936-10.035h-4.854v22.432h4.198v-13.905l4.592 11.15 4.46-11.281v14.036h4.197v-22.432h-4.722l-3.935 10.035zm69.378-10.033h-4.16v16.004c0 1.742-1.951 3.153-3.693 3.153-1.741 0-3.692-1.411-3.692-3.153v-16.004h-4.237l.062 15.808c0 4.047 3.819 7.328 7.866 7.328 4.048 0 7.867-3.281 7.867-7.328l-.013-15.808zm16.191 10.296c.59-.394 2.82-1.706 2.82-4.525 0-3.937-3.148-5.707-5.248-5.772h-9.725v22.432h8.609c3.412 0 7.084-1.64 7.084-5.969.001-3.739-1.768-5.183-3.54-6.166zm-3.345 8.33h-4.607v-14.824h4.41c1.182 0 2.1.984 2.1 2.165s-.459 2.558-2.033 2.558h-1.834v3.805h1.965c1.182 0 2.82 1.115 2.756 3.41-.058 1.967-1.642 2.886-2.757 2.886zm-46.74-3.476c-.033.229 0 .492.015.918 0 3.868 3.135 6.807 7.003 6.807 3.868 0 7.003-2.61 7.003-6.479 0-2.035-.797-3.607-2.182-4.887-1.131-1.044-4.353-2.61-5.608-3.378-1.181-.722-1.738-1.278-1.766-2.328 0-1.537 1.016-2.619 2.553-2.619a2.783 2.783 0 0 1 2.783 2.783c.028.394.038.787.038 1.049h3.719v-1.049c0-3.611-2.276-6.474-6.54-6.474-3.611 0-6.54 2.473-6.54 6.474.013 1.771.833 3.476 2.867 4.821 2.185 1.444 4.919 2.524 5.837 3.443.554.554.897 1.319.897 2.164 0 1.69-1.371 2.897-3.062 2.897s-3.05-1.487-3.258-2.897c-.044-.36-.153-.983-.12-1.246h-3.639v.001zm70.904-7.019c-1.182-.722-1.738-1.278-1.768-2.328 0-1.537 1.018-2.619 2.555-2.619a2.783 2.783 0 0 1 2.781 2.783c.029.394.039.787.039 1.049h3.719v-1.049c0-3.611-2.277-6.474-6.539-6.474-3.613 0-6.541 2.473-6.541 6.474.014 1.771.834 3.476 2.867 4.821 2.186 1.444 4.92 2.524 5.838 3.443.553.554.896 1.319.896 2.164 0 1.69-1.371 2.897-3.061 2.897-1.691 0-3.051-1.487-3.26-2.897-.043-.36-.152-.983-.119-1.246h-3.641c-.033.229 0 .492.016.918 0 3.868 3.135 6.807 7.004 6.807 3.867 0 7.002-2.61 7.002-6.479 0-2.035-.797-3.607-2.182-4.887-1.13-1.043-4.352-2.609-5.606-3.377z"/></g></svg>