<svg xmlns="http://www.w3.org/2000/svg" viewBox="0 0 192.756 192.756"><g fill-rule="evenodd" clip-rule="evenodd"><path fill="#fff" d="M0 0h192.756v192.756h-192.756v-192.756z"/><path d="M104.127 95.542s-1.559-.964-2.523-1.337c0 0-2.984-1.383-3.576-2.041 0 0-1.163-1.096-.482-2.369 0 0 .285-.833 1.514-.833 0 0 1.6.088 1.6 1.403v1.855h5.734l-.01-2.732s.441-4.474-6.754-4.671c0 0-5.659-.372-7.282 2.676 0 0-.637.68-.637 3.048v1.711s-.065 1.974.943 3.246c0 0 .57.834 1.974 1.754 0 0 2.851 1.535 4.562 2.414 0 0 1.727.986 1.5 2.555 0 0-.141 1.611-1.809 1.545 0 0-1.525-.068-1.525-1.648v-1.854h-6.11v2.693s-.171 5.15 7.68 5.15c0 0 7.502.152 7.852-5.285v-2.193c-.001 0 .265-3.332-2.651-5.087zm-29.356-10.084l-1.92 12.032h-.449l-1.834-11.924h-9.578l-.48 21.789h5.671l.068-16.417h.446l3.006 16.414h5.966l2.969-16.408h.395l.137 16.411h5.701l-.614-21.897h-9.484zm-33.758.091l-3.773 21.781h6.105l2.235-16.888h.502l2.234 16.888h6.104l-3.772-21.781h-9.635zm128.102 9.693v3.213h1.566v3.449c0 1.686-1.441 1.717-1.441 1.717-1.752 0-1.686-1.602-1.686-1.602v-11.93c0-1.229 1.555-1.295 1.555-1.295 1.492 0 1.502 1.466 1.502 1.466v1.814h5.748c.188-3.541-.518-4.398-.518-4.398-1.426-3.202-6.82-3.027-6.82-3.027-8.289 0-7.369 6.36-7.369 6.36v11.535c.178 5.965 8.346 5.359 8.484 5.354 3.633-.402 4.73-1.557 4.73-1.557 1.01-.75 1.27-1.789 1.27-1.789.289-.605.361-2.533.361-2.533v-6.777h-7.382zm-19.053 3.545h-.25l-5.833-13.323h-6.979v21.893h5.68l-.34-13.321h.254l6.043 13.321h6.767v-21.895h-5.752l.41 13.325zm-26.927 3.115s.082 1.797-1.584 1.797c0 0-1.752.094-1.752-1.752l-.018-16.47h-6.23v16.339s-.639 6.184 8.088 6.184c0 0 7.584.09 7.584-5.9v-16.622h-6.088v16.424zm-93.999-6.36s-1.557-.964-2.522-1.336c0 0-2.982-1.382-3.574-2.041 0 0-1.163-1.098-.481-2.368 0 0 .284-.833 1.512-.833 0 0 1.601.087 1.601 1.402v1.855h5.736l-.011-2.733s.438-4.474-6.754-4.67c0 0-.542-.035-1.337.005 0 0-4.357.234-5.915 2.624l-.031.047s-.636.679-.636 3.048v1.711s-.066 1.974.943 3.246c0 0 .57.834 1.974 1.754 0 0 2.85 1.535 4.561 2.414 0 0 1.729.984 1.5 2.555 0 0-.141 1.611-1.808 1.545 0 0-1.525-.068-1.525-1.648v-1.855h-6.111v2.695s-.171 5.15 7.68 5.15c0 0 7.5.152 7.853-5.285v-2.191c0-.002.262-3.336-2.655-5.091z"/></g></svg>