<svg xmlns="http://www.w3.org/2000/svg" viewBox="0 0 56 56" enable-background="new 0 0 56 56"><path d="M36.985 0h-29.022c-.808 0-1.463.655-1.463 1.926v53.074c0 .345.655 1 1.463 1h40.074c.808 0 1.463-.655 1.463-1v-42.022c0-.696-.093-.92-.257-1.085l-11.636-11.636c-.165-.164-.389-.257-.622-.257z" fill="#E9E9E0"/><path d="M48.037 56h-40.074c-.808 0-1.463-.655-1.463-1.463v-15.537h43v15.537c0 .808-.655 1.463-1.463 1.463z" fill="#FFC14F"/><g fill="#fff"><path d="M20.067 53l3.527-10.063h1.627l3.501 10.063h-1.695l-.725-2.092h-3.787l-.739 2.092h-1.709zm2.83-3.199h3.008l-1.49-4.348-1.518 4.348zM32.536 53h-1.668v-10.076h1.668v10.076z"/></g><path d="M37.5 11v.461c-3.071.968-5.503 3.382-6.502 6.44-.687-.555-1.548-.901-2.498-.901-1.859 0-3.411 1.28-3.858 3h-3.142v-2h-6v6h6v-2h2.921c-.336 2.663-1.985 4.978-4.389 6.163-.668-1.279-1.992-2.163-3.532-2.163-2.206 0-4 1.794-4 4s1.794 4 4 4c2.146 0 3.888-1.702 3.982-3.825 2.655-1.151 4.647-3.387 5.524-6.073.686.553 1.546.898 2.494.898 1.859 0 3.411-1.28 3.858-3h3.142v2h6v-6h-6v2h-2.931c.379-3.019 2.444-5.514 5.222-6.518.592 1.473 2.027 2.518 3.709 2.518 2.206 0 4-1.794 4-4v-1h-8zm-18 11h-2v-2h2v2zm-3 10c-1.103 0-2-.897-2-2s.897-2 2-2 2 .897 2 2-.897 2-2 2zm21-12h2v2h-2v-2zm-9 3c-1.103 0-2-.897-2-2s.897-2 2-2 2 .897 2 2-.897 2-2 2zm13-9c-.723 0-1.353-.389-1.704-.964.232-.021.466-.036.704-.036h2.731c-.345.597-.992 1-1.731 1z" fill="#C8BDB8"/><path fill="#D9D7CA" d="M37.5.151v11.849h11.849z"/></svg>