<svg xmlns="http://www.w3.org/2000/svg" viewBox="0 0 56 56" enable-background="new 0 0 56 56"><path d="M36.985 0h-29.022c-.808 0-1.463.655-1.463 1.926v53.074c0 .345.655 1 1.463 1h40.074c.808 0 1.463-.655 1.463-1v-42.022c0-.696-.093-.92-.257-1.085l-11.636-11.636c-.165-.164-.389-.257-.622-.257z" fill="#E9E9E0"/><path fill="#D9D7CA" d="M37.5.151v11.849h11.849z"/><path d="M48.037 56h-40.074c-.808 0-1.463-.655-1.463-1.463v-15.537h43v15.537c0 .808-.655 1.463-1.463 1.463z" fill="#D75E72"/><g fill="#fff"><path d="M16.361 53l3.527-10.063h1.627l3.501 10.063h-1.696l-.725-2.092h-3.787l-.738 2.092h-1.709zm2.83-3.199h3.008l-1.49-4.348-1.518 4.348zM29.828 53.055l-3.131-10.131h1.873l2.338 8.695 2.475-8.695h1.859l-3.281 10.131h-2.133zM38.988 53h-1.668v-10.076h1.668v10.076z"/></g><path fill="#C8BDB8" d="M23.5 28v-14l11 7z"/></svg>