<svg xmlns="http://www.w3.org/2000/svg" viewBox="0 0 56 56" enable-background="new 0 0 56 56"><path d="M36.985 0h-29.022c-.808 0-1.463.655-1.463 1.926v53.074c0 .345.655 1 1.463 1h40.074c.808 0 1.463-.655 1.463-1v-42.022c0-.696-.093-.92-.257-1.085l-11.636-11.636c-.165-.164-.389-.257-.622-.257z" fill="#E9E9E0"/><path fill="#D9D7CA" d="M37.5.151v11.849h11.849z"/><path d="M48.037 56h-40.074c-.808 0-1.463-.655-1.463-1.463v-15.537h43v15.537c0 .808-.655 1.463-1.463 1.463z" fill="#9777A8"/><g fill="#fff"><path d="M17.082 44.168v3.172h4.211v1.121h-4.211v3.295h4.635v1.244h-6.303v-10.076h6.303v1.244h-4.635zM28.58 48.105l2.557 4.895h-1.9l-1.6-3.801h-.137l-1.723 3.801h-1.9l2.557-4.895-2.721-5.182h1.873l1.777 4.102h.137l1.928-4.102h1.873l-2.721 5.182zM35.266 44.168v3.172h4.211v1.121h-4.211v3.295h4.634v1.244h-6.303v-10.076h6.303v1.244h-4.634z"/></g><path d="M33.5 32c-.099 0-.2-.015-.299-.046-.527-.165-.821-.726-.656-1.253l5-16c.165-.527.726-.821 1.253-.656.527.165.821.726.656 1.253l-5 16c-.133.428-.528.702-.954.702z" fill="#9777A8"/><circle cx="29" cy="19.5" r="1.5" fill="#9777A8"/><circle cx="29" cy="26.5" r="1.5" fill="#9777A8"/><path d="M23.5 30h-2c-3.86 0-7-3.14-7-7s3.14-7 7-7h2c.552 0 1 .448 1 1s-.448 1-1 1h-2c-2.757 0-5 2.243-5 5s2.243 5 5 5h2c.552 0 1 .448 1 1s-.448 1-1 1z" fill="#9777A8"/></svg>