<svg xmlns="http://www.w3.org/2000/svg" viewBox="0 0 56 56" enable-background="new 0 0 56 56"><path d="M36.985 0h-29.022c-.808 0-1.463.655-1.463 1.926v53.074c0 .345.655 1 1.463 1h40.074c.808 0 1.463-.655 1.463-1v-42.022c0-.696-.093-.92-.257-1.085l-11.636-11.636c-.165-.164-.389-.257-.622-.257z" fill="#E9E9E0"/><path fill="#D9D7CA" d="M37.5.151v11.849h11.849z"/><path d="M48.037 56h-40.074c-.808 0-1.463-.655-1.463-1.463v-15.537h43v15.537c0 .808-.655 1.463-1.463 1.463z" fill="#CE3C3B"/><g fill="#fff"><path d="M17.246 44.168v3.172h4.211v1.121h-4.211v4.539h-1.668v-10.076h6.303v1.244h-4.635zM25.299 42.924v8.832h4.635v1.244h-6.303v-10.076h1.668zM31.205 53l3.527-10.063h1.627l3.5 10.063h-1.695l-.725-2.092h-3.787l-.738 2.092h-1.709zm2.83-3.199h3.008l-1.49-4.348-1.518 4.348z"/></g><circle cx="25.5" cy="16" r="2" fill="#C8BDB8"/><g fill="#C8BDB8"><path d="M34.985 13.929l-.707-.707c-2.077-2.078-4.84-3.222-7.778-3.222s-5.701 1.144-7.778 3.222c-2.078 2.077-3.222 4.84-3.222 7.778s1.144 5.701 3.222 7.778c2.077 2.078 4.84 3.222 7.778 3.222s5.701-1.144 7.778-3.222l.707-.707-7.071-7.071 7.071-7.071zm-2.867 14.103c-1.59 1.276-3.551 1.968-5.618 1.968-2.404 0-4.664-.936-6.364-2.636s-2.636-3.96-2.636-6.364.936-4.664 2.636-6.364 3.96-2.636 6.364-2.636c2.067 0 4.028.692 5.618 1.968l-7.032 7.032 7.032 7.032zM35.5 20h-3c-.553 0-1 .447-1 1s.447 1 1 1h3c.553 0 1-.447 1-1s-.447-1-1-1zM41.5 20h-2c-.553 0-1 .447-1 1s.447 1 1 1h2c.553 0 1-.447 1-1s-.447-1-1-1z"/></g></svg>