<svg xmlns="http://www.w3.org/2000/svg" viewBox="0 0 56 56" enable-background="new 0 0 56 56"><path d="M36.985 0h-29.022c-.808 0-1.463.655-1.463 1.926v53.074c0 .345.655 1 1.463 1h40.074c.808 0 1.463-.655 1.463-1v-42.022c0-.696-.093-.92-.257-1.085l-11.636-11.636c-.165-.164-.389-.257-.622-.257z" fill="#E9E9E0"/><path fill="#D9D7CA" d="M37.5.151v11.849h11.849z"/><path d="M48.037 56h-40.074c-.808 0-1.463-.655-1.463-1.463v-15.537h43v15.537c0 .808-.655 1.463-1.463 1.463z" fill="#EC6630"/><g fill="#fff"><path d="M17.455 42.924v10.076h-1.641v-4.539h-4.361v4.539h-1.668v-10.076h1.668v4.416h4.361v-4.416h1.641zM27.107 42.924v1.121h-3.007v8.955h-1.654v-8.955h-3.008v-1.121h7.669zM36.705 42.924h1.668v10.076h-1.668v-6.932l-2.256 5.605h-1.449l-2.27-5.605v6.932h-1.668v-10.076h1.668l2.994 6.891 2.981-6.891zM42.57 42.924v8.832h4.635v1.244h-6.303v-10.076h1.668z"/></g><g fill="#EC6630"><path d="M23.207 16.293c-.391-.391-1.023-.391-1.414 0l-6 6c-.391.391-.391 1.023 0 1.414l6 6c.195.195.451.293.707.293s.512-.098.707-.293c.391-.391.391-1.023 0-1.414l-5.293-5.293 5.293-5.293c.391-.391.391-1.023 0-1.414zM41.207 22.293l-6-6c-.391-.391-1.023-.391-1.414 0s-.391 1.023 0 1.414l5.293 5.293-5.293 5.293c-.391.391-.391 1.023 0 1.414.195.195.451.293.707.293s.512-.098.707-.293l6-6c.391-.391.391-1.023 0-1.414z"/></g></svg>