<svg xmlns="http://www.w3.org/2000/svg" viewBox="0 0 56 56" enable-background="new 0 0 56 56"><path d="M36.985 0h-29.022c-.808 0-1.463.655-1.463 1.926v53.074c0 .345.655 1 1.463 1h40.074c.808 0 1.463-.655 1.463-1v-42.022c0-.696-.093-.92-.257-1.085l-11.636-11.636c-.165-.164-.389-.257-.622-.257z" fill="#E9E9E0"/><path fill="#D9D7CA" d="M37.5.151v11.849h11.849z"/><path d="M48.037 56h-40.074c-.808 0-1.463-.655-1.463-1.463v-15.537h43v15.537c0 .808-.655 1.463-1.463 1.463z" fill="#9777A8"/><g fill="#fff"><path d="M17.021 42.719v7.848c0 .474-.087.873-.26 1.196s-.405.583-.697.779-.627.333-1.005.41c-.378.077-.768.116-1.169.116-.2 0-.436-.021-.704-.062s-.547-.104-.834-.191-.563-.185-.827-.294-.487-.232-.67-.369l.697-1.107c.091.063.221.13.39.198s.354.132.554.191.41.111.629.157.424.068.615.068c.483 0 .868-.094 1.155-.28s.439-.504.458-.95v-7.711h1.668zM25.184 50.238c0 .364-.075.718-.226 1.06s-.362.643-.636.902-.61.467-1.012.622-.856.232-1.367.232c-.219 0-.444-.012-.677-.034s-.467-.062-.704-.116c-.237-.055-.463-.13-.677-.226s-.398-.212-.554-.349l.287-1.176c.128.073.289.144.485.212l.608.191s.419.107.629.144.405.055.588.055c.556 0 .982-.13 1.278-.39s.444-.645.444-1.155c0-.31-.104-.574-.314-.793s-.472-.417-.786-.595-.654-.355-1.019-.533-.706-.388-1.025-.629-.583-.526-.793-.854-.314-.738-.314-1.23c0-.446.082-.843.246-1.189s.385-.641.663-.882.602-.426.971-.554.759-.191 1.169-.191c.419 0 .843.039 1.271.116s.774.203 1.039.376l-.191.39-.205.396-.164.308-.082.137-.185-.109-.294-.137s-.296-.077-.506-.096-.479-.014-.807.014c-.183.019-.355.07-.52.157s-.31.193-.438.321-.228.271-.301.431-.109.313-.109.458c0 .364.104.658.314.882s.47.419.779.588.647.333 1.012.492.704.354 1.019.581.576.513.786.854.318.781.318 1.319zM35.082 47.914c0 .848-.107 1.595-.321 2.242s-.511 1.185-.889 1.613-.82.752-1.326.971-1.06.328-1.661.328-1.155-.109-1.661-.328-.948-.542-1.326-.971-.675-.966-.889-1.613-.321-1.395-.321-2.242.107-1.593.321-2.235.511-1.178.889-1.606.82-.754 1.326-.978 1.06-.335 1.661-.335 1.155.111 1.661.335.948.549 1.326.978.675.964.889 1.606.321 1.387.321 2.235zm-4.238 3.815c.337 0 .658-.066.964-.198s.579-.349.82-.649.431-.695.567-1.183.21-1.082.219-1.784c-.009-.684-.08-1.265-.212-1.743s-.314-.873-.547-1.183-.497-.533-.793-.67-.608-.205-.937-.205c-.337 0-.658.063-.964.191s-.579.344-.82.649-.431.699-.567 1.183c-.137.483-.21 1.075-.219 1.777.009.684.08 1.267.212 1.75s.314.877.547 1.183.497.528.793.67.609.212.937.212zM44.68 42.924v10.076h-1.668l-3.951-6.945v6.945h-1.668v-10.076h1.668l3.951 6.945v-6.945h1.668z"/></g><g fill="#9777A8"><path d="M19.5 19v-4c0-.551.448-1 1-1 .553 0 1-.448 1-1s-.447-1-1-1c-1.654 0-3 1.346-3 3v4c0 1.103-.897 2-2 2-.553 0-1 .448-1 1s.447 1 1 1c1.103 0 2 .897 2 2v4c0 1.654 1.346 3 3 3 .553 0 1-.448 1-1s-.447-1-1-1c-.552 0-1-.449-1-1v-4c0-1.2-.542-2.266-1.382-3 .84-.734 1.382-1.8 1.382-3z"/><circle cx="27.5" cy="18.5" r="1.5"/><path d="M39.5 21c-1.103 0-2-.897-2-2v-4c0-1.654-1.346-3-3-3-.553 0-1 .448-1 1s.447 1 1 1c.552 0 1 .449 1 1v4c0 1.2.542 2.266 1.382 3-.84.734-1.382 1.8-1.382 3v4c0 .551-.448 1-1 1-.553 0-1 .448-1 1s.447 1 1 1c1.654 0 3-1.346 3-3v-4c0-1.103.897-2 2-2 .553 0 1-.448 1-1s-.447-1-1-1zM27.5 24c-.553 0-1 .448-1 1v3c0 .552.447 1 1 1s1-.448 1-1v-3c0-.552-.447-1-1-1z"/></g></svg>