<svg xmlns="http://www.w3.org/2000/svg" viewBox="0 0 56 56" enable-background="new 0 0 56 56"><path d="M36.985 0h-29.022c-.808 0-1.463.655-1.463 1.926v53.074c0 .345.655 1 1.463 1h40.074c.808 0 1.463-.655 1.463-1v-42.022c0-.696-.093-.92-.257-1.085l-11.636-11.636c-.165-.164-.389-.257-.622-.257z" fill="#E9E9E0"/><path d="M48.037 56h-40.074c-.808 0-1.463-.655-1.463-1.463v-15.537h43v15.537c0 .808-.655 1.463-1.463 1.463z" fill="#659C35"/><path fill="#D9D7CA" d="M37.5.151v11.849h11.849z"/><g fill="#fff"><path d="M17.385 53h-1.641v-10.076h2.898c.428 0 .852.068 1.271.205.419.137.795.342 1.128.615.333.273.602.604.807.991s.308.822.308 1.306c0 .511-.087.973-.26 1.388-.173.415-.415.764-.725 1.046-.31.282-.684.501-1.121.656s-.921.232-1.449.232h-1.217v3.637zm0-8.832v3.992h1.504c.2 0 .398-.034.595-.103.196-.068.376-.18.54-.335.164-.155.296-.371.396-.649.1-.278.15-.622.15-1.032 0-.164-.023-.354-.068-.567-.046-.214-.139-.419-.28-.615-.142-.196-.34-.36-.595-.492-.255-.132-.593-.198-1.012-.198h-1.23zM31.316 42.924v10.076h-1.668l-3.951-6.945v6.945h-1.668v-10.076h1.668l3.951 6.945v-6.945h1.668zM41.16 47.805v3.896c-.21.265-.444.48-.704.649s-.533.308-.82.417-.584.187-.889.233c-.306.046-.608.068-.909.068-.602 0-1.155-.109-1.661-.328s-.948-.542-1.326-.971c-.378-.429-.675-.966-.889-1.613-.214-.647-.321-1.395-.321-2.242s.107-1.593.321-2.235c.214-.643.51-1.178.889-1.606.378-.429.822-.754 1.333-.978.51-.224 1.062-.335 1.654-.335.547 0 1.057.091 1.531.273.474.183.897.456 1.271.82l-1.135 1.012c-.219-.265-.47-.456-.752-.574-.283-.118-.574-.178-.875-.178-.337 0-.659.063-.964.191-.306.128-.579.344-.82.649-.242.306-.431.699-.567 1.183s-.21 1.075-.219 1.777c.009.684.08 1.276.212 1.777.132.501.314.911.547 1.23s.497.556.793.711c.296.155.608.232.937.232l.403-.021c.168-.014.337-.036.506-.068.168-.032.33-.075.485-.13.155-.055.269-.132.342-.232v-2.488h-1.709v-1.121h3.336z"/></g><circle cx="18.931" cy="14.431" r="4.569" fill="#F3D55B"/><path fill="#88C057" d="M6.5 39h43v-11l-10-9.5-10.5 11.5-5.483-5.483z"/></svg>