<svg xmlns="http://www.w3.org/2000/svg" viewBox="0 0 52 52" enable-background="new 0 0 52 52"><path d="M40.824 52h-29.648c-6.173 0-11.176-5.003-11.176-11.176v-29.648c0-6.173 5.003-11.176 11.176-11.176h29.649c6.172 0 11.175 5.003 11.175 11.176v29.649c0 6.172-5.003 11.175-11.176 11.175z" fill="#3A3375"/><g fill="#E7ADFB"><path d="M27.44 39h-3.24l-2.76-9.04h-8.32l-2.64 9.04h-3.12l8.24-28h3.32l8.52 28zm-6.72-12l-3.48-11.36-3.36 11.36h6.84zM31.48 33.48c0 2.267 1.333 3.399 4 3.399 1.653 0 3.466-.546 5.44-1.64l1.08 2.361c-2.054 1.254-4.2 1.881-6.44 1.881-4.64 0-6.96-1.946-6.96-5.841v-8.2c0-2.16.673-3.841 2.02-5.04 1.346-1.2 3.126-1.801 5.34-1.801s3.94.594 5.18 1.78c1.24 1.187 1.86 2.834 1.86 4.94v5.481l-11.52.6v2.08zm8.6-5.24v-3.08c0-1.413-.44-2.42-1.32-3.021-.88-.6-1.907-.899-3.08-.899-1.174 0-2.167.359-2.98 1.08-.814.72-1.22 1.773-1.22 3.16v3.199l8.6-.439z"/></g></svg>