<svg xmlns="http://www.w3.org/2000/svg" viewBox="0 0 52 52" enable-background="new 0 0 52 52"><path d="M40.824 52h-29.648c-6.173 0-11.176-5.003-11.176-11.176v-29.648c0-6.173 5.003-11.176 11.176-11.176h29.649c6.172 0 11.175 5.003 11.175 11.176v29.649c0 6.172-5.003 11.175-11.176 11.175z" fill="#2F5074"/><g fill="#00F5F1"><path d="M28.08 39h-3.24l-2.76-9.04h-8.32l-2.64 9.04h-3.12l8.239-28h3.32l8.521 28zm-6.721-12l-3.479-11.36-3.36 11.36h6.839zM43.84 39h-2.76v-1.48c-1.147 1.28-2.694 1.921-4.641 1.921-5.014 0-7.52-2.44-7.52-7.32v-13.161h2.88v13.16c0 3.066 1.546 4.6 4.64 4.6 3.014 0 4.521-1.546 4.521-4.64v-13.12h2.88v20.04z"/></g></svg>