<svg xmlns="http://www.w3.org/2000/svg" viewBox="0 0 56 56" enable-background="new 0 0 56 56"><path d="M36.985 0h-29.022c-.808 0-1.463.655-1.463 1.926v53.074c0 .345.655 1 1.463 1h40.074c.808 0 1.463-.655 1.463-1v-42.022c0-.696-.093-.92-.257-1.085l-11.636-11.636c-.165-.164-.389-.257-.622-.257z" fill="#E9E9E0"/><path fill="#D9D7CA" d="M37.5.151v11.849h11.849z"/><path d="M48.037 56h-40.074c-.808 0-1.463-.655-1.463-1.463v-15.537h43v15.537c0 .808-.655 1.463-1.463 1.463z" fill="#0096E6"/><g fill="#fff"><path d="M23.58 51.975c-.374.364-.798.638-1.271.82s-.984.273-1.531.273c-.602 0-1.155-.109-1.661-.328s-.948-.542-1.326-.971-.675-.966-.889-1.613c-.214-.647-.321-1.395-.321-2.242s.107-1.593.321-2.235c.214-.643.511-1.178.889-1.606s.822-.754 1.333-.978 1.062-.335 1.654-.335c.547 0 1.058.091 1.531.273s.897.456 1.271.82l-1.135 1.012c-.228-.265-.48-.456-.759-.574s-.567-.178-.868-.178c-.337 0-.658.063-.964.191s-.579.344-.82.649-.431.699-.567 1.183-.21 1.075-.219 1.777c.009.684.08 1.267.212 1.75s.314.877.547 1.183.497.528.793.67.608.212.937.212.636-.06.923-.178.549-.31.786-.574l1.134.999zM31.633 50.238c0 .364-.075.718-.226 1.06s-.362.643-.636.902-.61.467-1.012.622-.856.232-1.367.232c-.219 0-.444-.012-.677-.034s-.467-.062-.704-.116-.463-.13-.677-.226-.398-.212-.554-.349l.287-1.176c.128.073.289.144.485.212l.608.191s.419.107.629.144.405.055.588.055c.556 0 .982-.13 1.278-.39s.444-.645.444-1.155c0-.31-.104-.574-.314-.793s-.472-.417-.786-.595-.654-.355-1.019-.533-.706-.388-1.025-.629-.583-.526-.793-.854-.314-.738-.314-1.23c0-.446.082-.843.246-1.189s.385-.641.663-.882.602-.426.971-.554.759-.191 1.169-.191c.419 0 .843.039 1.271.116s.774.203 1.039.376l-.191.39-.205.396-.164.308-.082.137-.185-.109-.294-.137s-.296-.077-.506-.096-.479-.014-.807.014c-.183.019-.355.07-.52.157s-.31.193-.438.321-.228.271-.301.431-.109.313-.109.458c0 .364.104.658.314.882s.47.419.779.588.647.333 1.012.492.704.354 1.019.581.576.513.786.854.318.781.318 1.319zM39.043 50.238c0 .364-.075.718-.226 1.06s-.362.643-.636.902-.61.467-1.012.622-.856.232-1.367.232c-.219 0-.444-.012-.677-.034s-.467-.062-.704-.116-.463-.13-.677-.226-.398-.212-.554-.349l.287-1.176c.128.073.289.144.485.212l.608.191s.419.107.629.144.405.055.588.055c.556 0 .982-.13 1.278-.39s.444-.645.444-1.155c0-.31-.104-.574-.314-.793s-.472-.417-.786-.595-.654-.355-1.019-.533-.706-.388-1.025-.629-.583-.526-.793-.854-.314-.738-.314-1.23c0-.446.082-.843.246-1.189s.385-.641.663-.882.602-.426.971-.554.759-.191 1.169-.191c.419 0 .843.039 1.271.116s.774.203 1.039.376l-.191.39-.205.396-.164.308-.082.137-.185-.109-.294-.137s-.296-.077-.506-.096-.479-.014-.807.014c-.183.019-.355.07-.52.157s-.31.193-.438.321-.228.271-.301.431-.109.313-.109.458c0 .364.104.658.314.882s.47.419.779.588.647.333 1.012.492.704.354 1.019.581.576.513.786.854.318.781.318 1.319z"/></g><g fill="#0096E6"><path d="M19.5 19v-4c0-.551.448-1 1-1 .553 0 1-.448 1-1s-.447-1-1-1c-1.654 0-3 1.346-3 3v4c0 1.103-.897 2-2 2-.553 0-1 .448-1 1s.447 1 1 1c1.103 0 2 .897 2 2v4c0 1.654 1.346 3 3 3 .553 0 1-.448 1-1s-.447-1-1-1c-.552 0-1-.449-1-1v-4c0-1.2-.542-2.266-1.382-3 .84-.734 1.382-1.8 1.382-3zM39.5 21c-1.103 0-2-.897-2-2v-4c0-1.654-1.346-3-3-3-.553 0-1 .448-1 1s.447 1 1 1c.552 0 1 .449 1 1v4c0 1.2.542 2.266 1.382 3-.84.734-1.382 1.8-1.382 3v4c0 .551-.448 1-1 1-.553 0-1 .448-1 1s.447 1 1 1c1.654 0 3-1.346 3-3v-4c0-1.103.897-2 2-2 .553 0 1-.448 1-1s-.447-1-1-1z"/></g></svg>