<svg xmlns="http://www.w3.org/2000/svg" viewBox="0 0 56 56" enable-background="new 0 0 56 56"><path d="M36.985 0h-29.022c-.808 0-1.463.655-1.463 1.926v53.074c0 .345.655 1 1.463 1h40.074c.808 0 1.463-.655 1.463-1v-42.022c0-.696-.093-.92-.257-1.085l-11.636-11.636c-.165-.164-.389-.257-.622-.257z" fill="#E9E9E0"/><path fill="#D9D7CA" d="M37.5.151v11.849h11.849z"/><path d="M48.037 56h-40.074c-.808 0-1.463-.655-1.463-1.463v-15.537h43v15.537c0 .808-.655 1.463-1.463 1.463z" fill="#E96360"/><g fill="#fff"><path d="M22.947 47.682c0 .829-.089 1.538-.267 2.126s-.403 1.08-.677 1.477-.581.709-.923.937-.672.398-.991.513c-.319.114-.611.187-.875.219-.264.03-.46.046-.587.046h-3.814v-10.076h3.035c.848 0 1.593.135 2.235.403s1.176.627 1.6 1.073.74.955.95 1.524c.209.57.314 1.156.314 1.758zm-4.867 4.115c1.112 0 1.914-.355 2.406-1.066s.738-1.741.738-3.09c0-.419-.05-.834-.15-1.244-.101-.41-.294-.781-.581-1.114s-.677-.602-1.169-.807-1.13-.308-1.914-.308h-.957v7.629h1.627zM30.098 47.695c.209.027.433.096.67.205.237.109.458.265.663.465s.376.444.513.731.205.617.205.991c0 .456-.068.848-.205 1.176s-.308.6-.513.813-.429.383-.67.506c-.242.123-.474.217-.697.28-.224.063-.422.103-.595.116l-.342.022h-3.787v-10.076h2.898c.428 0 .843.05 1.244.15.401.101.756.26 1.066.479.31.219.556.504.738.854.182.351.273.768.273 1.251 0 .282-.046.54-.137.772-.091.232-.205.436-.342.608s-.294.316-.472.431-.346.19-.51.226zm-1.901-.465l.615-.014c.209-.009.405-.06.588-.15.182-.091.33-.246.444-.465.114-.219.171-.533.171-.943 0-.164-.023-.335-.068-.513-.046-.178-.137-.34-.273-.485s-.333-.265-.588-.355c-.255-.091-.593-.137-1.012-.137h-1.094v3.063h1.217zm.834 4.567c.483 0 .861-.155 1.135-.465s.41-.725.41-1.244c0-.492-.142-.907-.424-1.244-.283-.337-.697-.506-1.244-.506h-1.928v3.459h2.051zM36.168 44.168v3.172h4.211v1.121h-4.211v4.539h-1.668v-10.076h6.303v1.244h-4.635z"/></g><path d="M24.5 16v-4h-12v22h33v-18h-21zm-10-2h8v2h-8v-2zm0 4h8v2h-8v-2zm0 4h8v2h-8v-2zm0 4h8v2h-8v-2zm8 6h-8v-2h8v2zm21 0h-19v-2h19v2zm0-4h-19v-2h19v2zm0-4h-19v-2h19v2zm-19-4v-2h19v2h-19z" fill="#C8BDB8"/></svg>