<svg xmlns="http://www.w3.org/2000/svg" viewBox="0 0 56 56" enable-background="new 0 0 56 56"><path d="M36.985 0h-29.022c-.808 0-1.463.655-1.463 1.926v53.074c0 .345.655 1 1.463 1h40.074c.808 0 1.463-.655 1.463-1v-42.022c0-.696-.093-.92-.257-1.085l-11.636-11.636c-.165-.164-.389-.257-.622-.257z" fill="#E9E9E0"/><path fill="#D9D7CA" d="M37.5.151v11.849h11.849z"/><path d="M18.5 13h-6c-.552 0-1-.448-1-1s.448-1 1-1h6c.552 0 1 .448 1 1s-.448 1-1 1zM21.5 18h-9c-.552 0-1-.448-1-1s.448-1 1-1h9c.552 0 1 .448 1 1s-.448 1-1 1zM25.5 18c-.26 0-.52-.11-.71-.29-.18-.19-.29-.45-.29-.71 0-.26.11-.52.29-.71.37-.37 1.05-.37 1.42 0 .18.19.29.45.29.71 0 .26-.11.52-.29.71-.19.18-.45.29-.71.29zM37.5 18h-8c-.552 0-1-.448-1-1s.448-1 1-1h8c.552 0 1 .448 1 1s-.448 1-1 1zM12.5 33c-.26 0-.52-.11-.71-.29-.18-.19-.29-.45-.29-.71 0-.26.11-.52.29-.71.37-.37 1.05-.37 1.42 0 .18.19.29.44.29.71 0 .26-.11.52-.29.71-.19.18-.45.29-.71.29zM24.5 33h-8c-.552 0-1-.448-1-1s.448-1 1-1h8c.552 0 1 .448 1 1s-.448 1-1 1zM43.5 18h-2c-.552 0-1-.448-1-1s.448-1 1-1h2c.552 0 1 .448 1 1s-.448 1-1 1zM34.5 23h-22c-.552 0-1-.448-1-1s.448-1 1-1h22c.552 0 1 .448 1 1s-.448 1-1 1zM43.5 23h-6c-.552 0-1-.448-1-1s.448-1 1-1h6c.552 0 1 .448 1 1s-.448 1-1 1zM16.5 28h-4c-.552 0-1-.448-1-1s.448-1 1-1h4c.552 0 1 .448 1 1s-.448 1-1 1zM30.5 28h-10c-.552 0-1-.448-1-1s.448-1 1-1h10c.552 0 1 .448 1 1s-.448 1-1 1zM43.5 28h-9c-.552 0-1-.448-1-1s.448-1 1-1h9c.552 0 1 .448 1 1s-.448 1-1 1z" fill="#8697CB"/><path d="M48.037 56h-40.074c-.808 0-1.463-.655-1.463-1.463v-15.537h43v15.537c0 .808-.655 1.463-1.463 1.463z" fill="#0096E6"/><g fill="#fff"><path d="M23.5 47.682c0 .829-.089 1.538-.267 2.126s-.403 1.08-.677 1.477-.581.709-.923.937-.672.398-.991.513c-.319.114-.611.187-.875.219-.264.03-.46.046-.587.046h-3.814v-10.076h3.034c.848 0 1.593.135 2.235.403s1.176.627 1.6 1.073.74.955.95 1.524c.21.57.315 1.156.315 1.758zm-4.867 4.115c1.112 0 1.914-.355 2.406-1.066s.738-1.741.738-3.09c0-.419-.05-.834-.15-1.244-.101-.41-.294-.781-.581-1.114s-.677-.602-1.169-.807-1.13-.308-1.914-.308h-.957v7.629h1.627zM33.475 47.914c0 .848-.107 1.595-.321 2.242-.214.647-.511 1.185-.889 1.613-.378.429-.82.752-1.326.971s-1.06.328-1.661.328-1.155-.109-1.661-.328-.948-.542-1.326-.971c-.378-.429-.675-.966-.889-1.613-.214-.647-.321-1.395-.321-2.242s.107-1.593.321-2.235c.214-.643.51-1.178.889-1.606.378-.429.82-.754 1.326-.978s1.06-.335 1.661-.335 1.155.111 1.661.335.948.549 1.326.978c.378.429.674.964.889 1.606.213.642.321 1.387.321 2.235zm-4.239 3.815c.337 0 .658-.066.964-.198.305-.132.579-.349.82-.649.241-.301.431-.695.567-1.183s.209-1.082.219-1.784c-.009-.684-.08-1.265-.212-1.743-.132-.479-.314-.873-.547-1.183s-.497-.533-.793-.67c-.296-.137-.608-.205-.937-.205-.337 0-.659.063-.964.191-.306.128-.579.344-.82.649-.242.306-.431.699-.567 1.183s-.21 1.075-.219 1.777c.009.684.08 1.267.212 1.75.132.483.314.877.547 1.183s.497.528.793.67c.297.141.609.212.937.212zM42.607 51.975c-.374.364-.798.638-1.271.82-.474.183-.984.273-1.531.273-.602 0-1.155-.109-1.661-.328s-.948-.542-1.326-.971c-.378-.429-.675-.966-.889-1.613-.214-.647-.321-1.395-.321-2.242s.107-1.593.321-2.235c.214-.643.51-1.178.889-1.606.378-.429.822-.754 1.333-.978.51-.224 1.062-.335 1.654-.335.547 0 1.057.091 1.531.273.474.183.897.456 1.271.82l-1.135 1.012c-.228-.265-.481-.456-.759-.574-.278-.118-.567-.178-.868-.178-.337 0-.659.063-.964.191-.306.128-.579.344-.82.649-.242.306-.431.699-.567 1.183s-.21 1.075-.219 1.777c.009.684.08 1.267.212 1.75.132.483.314.877.547 1.183s.497.528.793.67c.296.142.608.212.937.212s.636-.06.923-.178.549-.31.786-.574l1.134.999z"/></g></svg>