<svg xmlns="http://www.w3.org/2000/svg" viewBox="0 0 52 52" enable-background="new 0 0 52 52"><path d="M40.824 52h-29.648c-6.173 0-11.176-5.003-11.176-11.176v-29.648c0-6.173 5.003-11.176 11.176-11.176h29.649c6.172 0 11.175 5.003 11.175 11.176v29.649c0 6.172-5.003 11.175-11.176 11.175z" fill="#255C26"/><g fill="#25EB00"><path d="M12.521 39h-8.321v-28.04h7.521c3.013 0 5.313.827 6.899 2.48s2.38 3.854 2.38 6.6v10.96c0 5.334-2.826 8-8.479 8zm5.599-7.6v-11.76c0-2-.58-3.486-1.74-4.46-1.159-.973-2.579-1.46-4.26-1.46h-5.04v22.68h4.8c2.96 0 4.854-.787 5.681-2.36.373-.693.559-1.573.559-2.64zM42.721 39h-3.44l-3.68-14.56-3.721 14.56h-3.44l-6.24-20.04h3.08l4.84 16.08 4.12-16.08h2.84l4.12 16.08 4.72-16.08h3.08l-6.279 20.04z"/></g></svg>