<svg xmlns="http://www.w3.org/2000/svg" viewBox="0 0 56 56" enable-background="new 0 0 56 56"><path d="M36.985 0h-29.022c-.808 0-1.463.655-1.463 1.926v53.074c0 .345.655 1 1.463 1h40.074c.808 0 1.463-.655 1.463-1v-42.022c0-.696-.093-.92-.257-1.085l-11.636-11.636c-.165-.164-.389-.257-.622-.257z" fill="#E9E9E0"/><path fill="#D9D7CA" d="M37.5.151v11.849h11.849z"/><path d="M48.037 56h-40.074c-.808 0-1.463-.655-1.463-1.463v-15.537h43v15.537c0 .808-.655 1.463-1.463 1.463z" fill="#8697CB"/><g fill="#fff"><path d="M19.947 47.682c0 .829-.089 1.538-.267 2.126s-.403 1.08-.677 1.477-.581.709-.923.937-.672.398-.991.513c-.319.114-.611.187-.875.219-.264.03-.46.046-.587.046h-3.814v-10.076h3.035c.848 0 1.593.135 2.235.403s1.176.627 1.6 1.073.74.955.95 1.524c.209.57.314 1.156.314 1.758zm-4.867 4.115c1.112 0 1.914-.355 2.406-1.066s.738-1.741.738-3.09c0-.419-.05-.834-.15-1.244-.101-.41-.294-.781-.581-1.114s-.677-.602-1.169-.807-1.13-.308-1.914-.308h-.957v7.629h1.627zM35 42.924l-2.721 10.131h-2.133l-1.654-7.602-1.764 7.602h-2.146l-2.557-10.131h1.859l1.777 8.695 1.914-8.695h1.859l1.777 8.695 1.928-8.695h1.861zM44.57 47.805v3.896c-.21.265-.444.48-.704.649s-.533.308-.82.417-.583.187-.889.233-.608.068-.909.068c-.602 0-1.155-.109-1.661-.328s-.948-.542-1.326-.971c-.378-.429-.675-.966-.889-1.613-.214-.647-.321-1.395-.321-2.242s.107-1.593.321-2.235c.214-.643.51-1.178.889-1.606.378-.429.822-.754 1.333-.978s1.062-.335 1.654-.335c.547 0 1.058.091 1.531.273s.897.456 1.271.82l-1.135 1.012c-.219-.265-.47-.456-.752-.574s-.574-.178-.875-.178c-.337 0-.658.063-.964.191s-.579.344-.82.649-.431.699-.567 1.183c-.137.483-.21 1.075-.219 1.777.009.684.08 1.276.212 1.777.132.501.314.911.547 1.23s.497.556.793.711.608.232.937.232l.403-.021.506-.068s.33-.075.485-.13.269-.132.342-.232v-2.488h-1.709v-1.121h3.336z"/></g><path fill="#C8BDB8" d="M12.5 13h15v15.065h-15z"/><path fill="#ADA29E" d="M34.5 14h2v7h-2zM34.5 29h2v7h-2zM40.5 30h-10v-10h10v10zm-8-2h6v-6h-6v6zM39.5 24h7v2h-7zM24.5 24h7v2h-7z"/></svg>