<svg xmlns="http://www.w3.org/2000/svg" viewBox="0 0 52 52" enable-background="new 0 0 52 52"><path d="M40.824 52h-29.648c-6.173 0-11.176-5.003-11.176-11.176v-29.648c0-6.173 5.003-11.176 11.176-11.176h29.649c6.172 0 11.175 5.003 11.175 11.176v29.649c0 6.172-5.003 11.175-11.176 11.175z" fill="#5E4F11"/><g fill="#E7EB00"><path d="M10.88 39h-2.88v-28h13.36v2.8h-10.48v8.681h6.48l-1.08 2.8h-5.4v13.719zM39.72 39h-3.44l-3.68-14.56-3.72 14.56h-3.44l-6.24-20.04h3.08l4.84 16.08 4.12-16.08h2.84l4.12 16.08 4.72-16.08h3.08l-6.28 20.04z"/></g></svg>