<svg xmlns="http://www.w3.org/2000/svg" viewBox="0 0 52 52" enable-background="new 0 0 52 52"><path d="M40.824 52h-29.648c-6.173 0-11.176-5.003-11.176-11.176v-29.648c0-6.173 5.003-11.176 11.176-11.176h29.649c6.172 0 11.175 5.003 11.175 11.176v29.649c0 6.172-5.003 11.175-11.176 11.175z" fill="#6D4C13"/><g fill="#FFBD2E"><path d="M30.68 39h-3.24l-2.76-9.04h-8.32l-2.64 9.04h-3.12l8.24-28h3.32l8.52 28zm-6.72-12l-3.48-11.36-3.36 11.36h6.84zM37.479 12.24c0 .453-.16.84-.48 1.16-.32.319-.7.479-1.14.479-.44 0-.827-.166-1.16-.5-.334-.333-.5-.713-.5-1.14s.166-.807.5-1.141c.333-.333.72-.5 1.16-.5.44 0 .82.16 1.14.48.321.322.48.709.48 1.162zm-.239 26.76h-2.88v-20.04h2.88v20.04z"/></g></svg>