<svg xmlns="http://www.w3.org/2000/svg" viewBox="0 0 52 52" enable-background="new 0 0 52 52"><path d="M40.824 52h-29.648c-6.173 0-11.176-5.003-11.176-11.176v-29.648c0-6.173 5.003-11.176 11.176-11.176h29.649c6.172 0 11.175 5.003 11.175 11.176v29.649c0 6.172-5.003 11.175-11.176 11.175z" fill="#6F2B41"/><g fill="#FF70BD"><path d="M18.08 39h-2.88v-25.28l-2.64-.08v-2.64h5.52v28zM27.68 19.4c1.173-.507 2.593-.761 4.26-.761s3.073.374 4.22 1.12v-8.759h2.88v28c-2.293.32-4.414.48-6.36.48-1.947 0-3.707-.4-5.28-1.2-2.08-1.066-3.12-2.92-3.12-5.561v-7.56c0-2.799 1.133-4.719 3.4-5.759zm8.48 3.12c-1.387-.746-2.907-1.119-4.56-1.119-1.574 0-2.714.406-3.42 1.22-.707.813-1.06 1.847-1.06 3.1v7.12c0 1.227.44 2.188 1.32 2.88.96.719 2.146 1.079 3.56 1.079 1.413 0 2.8-.106 4.16-.319v-13.961z"/></g></svg>