<svg xmlns="http://www.w3.org/2000/svg" viewBox="0 0 56 56" enable-background="new 0 0 56 56"><path d="M36.985 0h-29.022c-.808 0-1.463.655-1.463 1.926v53.074c0 .345.655 1 1.463 1h40.074c.808 0 1.463-.655 1.463-1v-42.022c0-.696-.093-.92-.257-1.085l-11.636-11.636c-.165-.164-.389-.257-.622-.257z" fill="#E9E9E0"/><path fill="#D9D7CA" d="M37.5.151v11.849h11.849z"/><path d="M48.037 56h-40.074c-.808 0-1.463-.655-1.463-1.463v-15.537h43v15.537c0 .808-.655 1.463-1.463 1.463z" fill="#71C285"/><g fill="#fff"><path d="M20.453 53h-1.668v-10.076h1.668v10.076zM28.67 50.238c0 .364-.075.718-.226 1.06s-.362.643-.636.902-.611.467-1.012.622c-.401.155-.857.232-1.367.232-.219 0-.444-.012-.677-.034s-.468-.062-.704-.116c-.237-.055-.463-.13-.677-.226s-.399-.212-.554-.349l.287-1.176c.127.073.289.144.485.212l.608.191c.209.06.419.107.629.144.209.036.405.055.588.055.556 0 .982-.13 1.278-.39s.444-.645.444-1.155c0-.31-.105-.574-.314-.793-.21-.219-.472-.417-.786-.595s-.654-.355-1.019-.533c-.365-.178-.707-.388-1.025-.629-.319-.241-.584-.526-.793-.854-.21-.328-.314-.738-.314-1.23 0-.446.082-.843.246-1.189s.385-.641.663-.882.602-.426.971-.554.759-.191 1.169-.191c.419 0 .843.039 1.271.116.428.077.774.203 1.039.376l-.191.39-.205.396-.164.308-.082.137-.185-.109-.294-.137c-.128-.046-.297-.077-.506-.096-.21-.019-.479-.014-.807.014-.183.019-.355.07-.52.157s-.311.193-.438.321c-.128.128-.229.271-.301.431-.073.159-.109.313-.109.458 0 .364.104.658.314.882.209.224.469.419.779.588.31.169.646.333 1.012.492.364.159.704.354 1.019.581s.576.513.786.854c.212.342.318.781.318 1.319zM38.568 47.914c0 .848-.107 1.595-.321 2.242s-.511 1.185-.889 1.613-.82.752-1.326.971-1.06.328-1.661.328-1.155-.109-1.661-.328-.948-.542-1.326-.971-.675-.966-.889-1.613-.321-1.395-.321-2.242.107-1.593.321-2.235.511-1.178.889-1.606.82-.754 1.326-.978 1.06-.335 1.661-.335 1.155.111 1.661.335.948.549 1.326.978.675.964.889 1.606.321 1.387.321 2.235zm-4.238 3.815c.337 0 .658-.066.964-.198s.579-.349.82-.649.431-.695.567-1.183.209-1.082.219-1.784c-.01-.684-.08-1.265-.212-1.743s-.314-.873-.547-1.183-.497-.533-.793-.67-.608-.205-.937-.205c-.338 0-.658.063-.964.191s-.579.344-.82.649-.431.699-.567 1.183-.21 1.075-.219 1.777c.009.684.08 1.267.212 1.75s.314.877.547 1.183.497.528.793.67.609.212.937.212z"/></g><circle cx="27.5" cy="21" r="12" fill="#C8BDB8"/><circle cx="27.5" cy="21" r="3" fill="#E9E9E0"/><path d="M25.379 18.879c.132-.132.276-.245.425-.347l-2.361-8.813c-1.615.579-3.134 1.503-4.427 2.796-1.294 1.293-2.217 2.812-2.796 4.427l8.813 2.361c.101-.148.214-.292.346-.424zM30.071 23.486l2.273 8.483c1.32-.582 2.56-1.402 3.641-2.484 1.253-1.253 2.16-2.717 2.743-4.275l-8.188-2.194c-.285-.077-.546.184-.469.47z" fill="#D3CCC9"/></svg>