<svg xmlns="http://www.w3.org/2000/svg" viewBox="0 0 56 56" enable-background="new 0 0 56 56"><path d="M36.985 0h-29.022c-.808 0-1.463.655-1.463 1.926v53.074c0 .345.655 1 1.463 1h40.074c.808 0 1.463-.655 1.463-1v-42.022c0-.696-.093-.92-.257-1.085l-11.636-11.636c-.165-.164-.389-.257-.622-.257z" fill="#E9E9E0"/><path fill="#D9D7CA" d="M37.5.151v11.849h11.849z"/><path d="M48.037 56h-40.074c-.808 0-1.463-.655-1.463-1.463v-15.537h43v15.537c0 .808-.655 1.463-1.463 1.463z" fill="#EEAF4B"/><g fill="#fff"><path d="M26.021 42.719v7.848c0 .474-.087.873-.26 1.196-.174.323-.406.583-.697.779-.292.196-.627.333-1.005.41s-.769.116-1.169.116c-.201 0-.436-.021-.704-.062s-.547-.104-.834-.191-.563-.185-.827-.294c-.265-.109-.488-.232-.67-.369l.697-1.107c.091.063.221.13.39.198s.353.132.554.191c.2.06.41.111.629.157s.424.068.615.068c.482 0 .868-.094 1.155-.28s.439-.504.458-.95v-7.711h1.668zM34.184 50.238c0 .364-.075.718-.226 1.06s-.362.643-.636.902-.611.467-1.012.622c-.401.155-.857.232-1.367.232-.219 0-.444-.012-.677-.034s-.468-.062-.704-.116c-.237-.055-.463-.13-.677-.226s-.399-.212-.554-.349l.287-1.176c.127.073.289.144.485.212l.608.191c.209.06.419.107.629.144.209.036.405.055.588.055.556 0 .982-.13 1.278-.39s.444-.645.444-1.155c0-.31-.105-.574-.314-.793-.21-.219-.472-.417-.786-.595s-.654-.355-1.019-.533c-.365-.178-.707-.388-1.025-.629-.319-.241-.584-.526-.793-.854-.21-.328-.314-.738-.314-1.23 0-.446.082-.843.246-1.189s.385-.641.663-.882.602-.426.971-.554.759-.191 1.169-.191c.419 0 .843.039 1.271.116.428.077.774.203 1.039.376l-.191.39-.205.396-.164.308-.082.137-.185-.109-.294-.137c-.128-.046-.297-.077-.506-.096-.21-.019-.479-.014-.807.014-.183.019-.355.07-.52.157s-.311.193-.438.321c-.128.128-.229.271-.301.431-.073.159-.109.313-.109.458 0 .364.104.658.314.882.209.224.469.419.779.588.31.169.646.333 1.012.492.364.159.704.354 1.019.581s.576.513.786.854c.212.342.318.781.318 1.319z"/></g><g fill="#EEAF4B"><path d="M19.5 19v-4c0-.551.448-1 1-1 .553 0 1-.448 1-1s-.447-1-1-1c-1.654 0-3 1.346-3 3v4c0 1.103-.897 2-2 2-.553 0-1 .448-1 1s.447 1 1 1c1.103 0 2 .897 2 2v4c0 1.654 1.346 3 3 3 .553 0 1-.448 1-1s-.447-1-1-1c-.552 0-1-.449-1-1v-4c0-1.2-.542-2.266-1.382-3 .84-.734 1.382-1.8 1.382-3z"/><circle cx="27.5" cy="18.5" r="1.5"/><path d="M39.5 21c-1.103 0-2-.897-2-2v-4c0-1.654-1.346-3-3-3-.553 0-1 .448-1 1s.447 1 1 1c.552 0 1 .449 1 1v4c0 1.2.542 2.266 1.382 3-.84.734-1.382 1.8-1.382 3v4c0 .551-.448 1-1 1-.553 0-1 .448-1 1s.447 1 1 1c1.654 0 3-1.346 3-3v-4c0-1.103.897-2 2-2 .553 0 1-.448 1-1s-.447-1-1-1zM27.5 24c-.553 0-1 .448-1 1v3c0 .552.447 1 1 1s1-.448 1-1v-3c0-.552-.447-1-1-1z"/></g></svg>