<svg xmlns="http://www.w3.org/2000/svg" viewBox="0 0 56 56" enable-background="new 0 0 56 56"><path d="M36.985 0h-29.022c-.808 0-1.463.655-1.463 1.926v53.074c0 .345.655 1 1.463 1h40.074c.808 0 1.463-.655 1.463-1v-42.022c0-.696-.093-.92-.257-1.085l-11.636-11.636c-.165-.164-.389-.257-.622-.257z" fill="#E9E9E0"/><path fill="#D9D7CA" d="M37.5.151v11.849h11.849z"/><path d="M48.037 56h-40.074c-.808 0-1.463-.655-1.463-1.463v-15.537h43v15.537c0 .808-.655 1.463-1.463 1.463z" fill="#7D6599"/><path d="M35.67 14.986c-.567-.796-1.3-1.543-2.308-2.351-3.914-3.131-4.757-6.277-4.862-6.738v-.897c0-.553-.447-1-1-1s-1 .447-1 1v18.412h-3.706c-3.882 0-6.294 1.961-6.294 5.117 0 3.466 2.24 5.706 5.706 5.706 3.471 0 6.294-2.823 6.294-6.294v-11.473l.298.243c.34.336.861.72 1.521 1.205 2.318 1.709 6.2 4.567 5.224 7.793-.029.098-.043.195-.043.291 0 .43.278.826.71.957.097.029.194.043.29.043.43 0 .826-.278.957-.71 1.627-5.375-.422-9.39-1.787-11.304zm-9.17 12.955c0 2.368-1.926 4.294-4.294 4.294-2.355 0-3.706-1.351-3.706-3.706 0-2.576 2.335-3.117 4.294-3.117h3.706v2.529zm5.005-11.633c-.571-.422-1.065-.785-1.371-1.081l-1.634-1.34v-3.473c.827 1.174 1.987 2.483 3.612 3.783.858.688 1.472 1.308 1.929 1.95.716 1.003 1.431 2.339 1.788 3.978-1.327-1.61-3.084-2.904-4.324-3.817z" fill="#C8BDB8"/><g fill="#fff"><path d="M22.4 42.924h1.668v10.076h-1.668v-6.932l-2.256 5.605h-1.449l-2.27-5.605v6.932h-1.668v-10.076h1.668l2.994 6.891 2.981-6.891zM28.211 53h-1.641v-10.076h2.898c.429 0 .853.068 1.271.205s.795.342 1.128.615.602.604.807.991.308.822.308 1.306c0 .511-.087.973-.26 1.388s-.415.764-.725 1.046-.684.501-1.121.656-.921.232-1.449.232h-1.217v3.637zm0-8.832v3.992h1.504c.2 0 .398-.034.595-.103s.376-.18.54-.335.296-.371.396-.649.15-.622.15-1.032c0-.164-.022-.354-.068-.567s-.139-.419-.28-.615-.34-.36-.595-.492-.593-.198-1.012-.198h-1.23zM38.615 47.695c.21.027.426.096.649.205s.431.265.622.465.351.444.479.731.191.617.191.991c0 .456-.066.85-.198 1.183s-.299.608-.499.827-.426.395-.677.526-.494.23-.731.294-.453.104-.649.123l-.458.027c-.766 0-1.369-.053-1.812-.157s-.75-.212-.923-.321l.369-1.176.232.15s.178.107.314.157.328.091.574.123.583.048 1.012.048c.629 0 1.099-.171 1.408-.513s.465-.772.465-1.292c0-.492-.142-.907-.424-1.244s-.697-.506-1.244-.506h-1.395.014l-.014-1.107h.93l.608-.014s.398-.06.581-.15.333-.246.451-.465.178-.533.178-.943c0-.164-.014-.337-.041-.52s-.103-.351-.226-.506-.303-.28-.54-.376-.565-.144-.984-.144-.754.039-1.005.116l-.567.185-.479-1.23c.219-.063.49-.132.813-.205s.791-.109 1.401-.109c.429 0 .834.053 1.217.157s.718.271 1.005.499.515.52.684.875.253.774.253 1.258c0 .282-.05.54-.15.772s-.228.436-.383.608-.328.316-.52.431-.367.191-.531.227z"/></g></svg>