<svg xmlns="http://www.w3.org/2000/svg" viewBox="0 0 56 56" enable-background="new 0 0 56 56"><path d="M36.985 0h-29.022c-.808 0-1.463.655-1.463 1.926v53.074c0 .345.655 1 1.463 1h40.074c.808 0 1.463-.655 1.463-1v-42.022c0-.696-.093-.92-.257-1.085l-11.636-11.636c-.165-.164-.389-.257-.622-.257z" fill="#E9E9E0"/><path d="M48.037 56h-40.074c-.808 0-1.463-.655-1.463-1.463v-15.537h43v15.537c0 .808-.655 1.463-1.463 1.463z" fill="#FF5364"/><g fill="#fff"><path d="M22.4 42.924h1.668v10.076h-1.668v-6.932l-2.256 5.605h-1.449l-2.27-5.605v6.932h-1.668v-10.076h1.668l2.994 6.891 2.981-6.891zM28.211 53h-1.641v-10.076h2.898c.428 0 .852.068 1.271.205.419.137.795.342 1.128.615.333.273.602.604.807.991s.308.822.308 1.306c0 .511-.087.973-.26 1.388-.173.415-.415.764-.725 1.046-.31.282-.684.501-1.121.656s-.921.232-1.449.232h-1.217v3.637zm0-8.832v3.992h1.504c.2 0 .398-.034.595-.103.196-.068.376-.18.54-.335s.296-.371.396-.649c.1-.278.15-.622.15-1.032 0-.164-.023-.354-.068-.567-.046-.214-.139-.419-.28-.615-.142-.196-.34-.36-.595-.492-.255-.132-.593-.198-1.012-.198h-1.23zM38.479 50.648h-4.361v-1.298l4.361-6.426h1.668v6.426h1.053v1.299h-1.053v2.351h-1.668v-2.352zm0-1.298v-4.512l-2.899 4.512h2.899z"/></g><path d="M24.5 28c-.166 0-.331-.041-.481-.123-.32-.176-.519-.512-.519-.877v-14c0-.365.199-.701.519-.877.321-.175.71-.162 1.019.033l11 7c.287.184.462.502.462.844s-.175.66-.463.844l-11 7c-.163.103-.35.156-.537.156zm1-13.179v10.357l8.137-5.178-8.137-5.179zM28.5 35c-8.271 0-15-6.729-15-15s6.729-15 15-15 15 6.729 15 15-6.729 15-15 15zm0-28c-7.168 0-13 5.832-13 13s5.832 13 13 13 13-5.832 13-13-5.832-13-13-13z" fill="#C8BDB8"/><path fill="#D9D7CA" d="M37.5.151v11.849h11.849z"/></svg>