<svg xmlns="http://www.w3.org/2000/svg" viewBox="0 0 52 52" enable-background="new 0 0 52 52"><path d="M40.824 52h-29.648c-6.173 0-11.176-5.003-11.176-11.176v-29.648c0-6.173 5.003-11.176 11.176-11.176h29.649c6.172 0 11.175 5.003 11.175 11.176v29.649c0 6.172-5.003 11.175-11.176 11.175z" fill="#393687"/><g fill="#89D3FF"><path d="M12.16 39h-2.88v-28h9.64c2.613 0 4.553.813 5.82 2.44 1.266 1.626 1.9 3.76 1.9 6.399 0 .934-.027 1.74-.08 2.42-.054.681-.22 1.534-.5 2.561-.28 1.026-.66 1.866-1.14 2.52-.48.654-1.213 1.227-2.2 1.72-.987.494-2.16.74-3.52.74h-7.04v9.2zm0-12h6.68c.96 0 1.773-.187 2.44-.56.666-.374 1.153-.773 1.46-1.2.306-.427.546-1.04.72-1.84.173-.801.267-1.4.28-1.801.013-.399.02-.973.02-1.72 0-4.053-1.694-6.08-5.08-6.08h-6.52v13.201zM29.48 33.92l2.8-.12c.106.987.6 1.754 1.48 2.3.88.547 1.893.82 3.04.82s2.14-.26 2.98-.78c.84-.52 1.26-1.266 1.26-2.239s-.36-1.747-1.08-2.32c-.72-.573-1.6-1.026-2.64-1.36-1.04-.333-2.086-.686-3.14-1.06-1.054-.373-1.98-.96-2.78-1.76-.987-.934-1.48-2.073-1.48-3.42s.54-2.601 1.62-3.761 2.833-1.739 5.26-1.739c.854 0 1.653.1 2.4.3.746.2 1.28.394 1.6.58l.48.279-.92 2.521c-.854-.666-1.974-1-3.36-1-1.387 0-2.42.26-3.1.78-.68.52-1.02 1.18-1.02 1.979 0 .88.426 1.574 1.28 2.08.853.507 1.813.934 2.88 1.28 1.066.347 2.126.733 3.18 1.16 1.053.427 1.946 1.094 2.68 2s1.1 2.106 1.1 3.6c0 1.494-.6 2.794-1.8 3.9-1.2 1.106-2.954 1.66-5.26 1.66-2.307 0-4.114-.547-5.42-1.64-1.307-1.093-1.987-2.44-2.04-4.04z"/></g></svg>