<svg xmlns="http://www.w3.org/2000/svg" viewBox="0 0 56 56" enable-background="new 0 0 56 56"><path d="M36.985 0h-29.022c-.808 0-1.463.655-1.463 1.926v53.074c0 .345.655 1 1.463 1h40.074c.808 0 1.463-.655 1.463-1v-42.022c0-.696-.093-.92-.257-1.085l-11.636-11.636c-.165-.164-.389-.257-.622-.257z" fill="#E9E9E0"/><path fill="#D9D7CA" d="M37.5.151v11.849h11.849z"/><path d="M48.037 56h-40.074c-.808 0-1.463-.655-1.463-1.463v-15.537h43v15.537c0 .808-.655 1.463-1.463 1.463z" fill="#F6712E"/><g fill="#fff"><path d="M17.581 53h-1.641v-10.076h2.898c.428 0 .852.068 1.271.205.419.137.795.342 1.128.615.333.273.602.604.807.991s.308.822.308 1.306c0 .511-.087.973-.26 1.388-.173.415-.415.764-.725 1.046-.31.282-.684.501-1.121.656s-.921.232-1.449.232h-1.217v3.637zm0-8.832v3.992h1.504c.2 0 .398-.034.595-.103.196-.068.376-.18.54-.335s.296-.371.396-.649c.1-.278.15-.622.15-1.032 0-.164-.023-.354-.068-.567-.046-.214-.139-.419-.28-.615-.142-.196-.34-.36-.595-.492-.255-.132-.593-.198-1.012-.198h-1.23zM25.853 53h-1.641v-10.076h2.898c.428 0 .852.068 1.271.205.419.137.795.342 1.128.615.333.273.602.604.807.991s.308.822.308 1.306c0 .511-.087.973-.26 1.388-.173.415-.415.764-.725 1.046-.31.282-.684.501-1.121.656s-.921.232-1.449.232h-1.217v3.637zm0-8.832v3.992h1.504c.2 0 .398-.034.595-.103.196-.068.376-.18.54-.335s.296-.371.396-.649c.1-.278.15-.622.15-1.032 0-.164-.023-.354-.068-.567-.046-.214-.139-.419-.28-.615-.142-.196-.34-.36-.595-.492-.255-.132-.593-.198-1.012-.198h-1.23zM39.606 42.924v1.121h-3.008v8.955h-1.654v-8.955h-3.008v-1.121h7.67z"/></g><path d="M39.5 30h-24v-16h24v16zm-22-2h20v-12h-20v12zM20.499 35c-.175 0-.353-.046-.514-.143-.474-.284-.627-.898-.343-1.372l3-5c.284-.474.898-.627 1.372-.343.474.284.627.898.343 1.372l-3 5c-.187.313-.518.486-.858.486zM34.501 35c-.34 0-.671-.173-.858-.485l-3-5c-.284-.474-.131-1.088.343-1.372.474-.283 1.088-.131 1.372.343l3 5c.284.474.131 1.088-.343 1.372-.161.096-.339.142-.514.142zM27.5 16c-.552 0-1-.447-1-1v-3c0-.553.448-1 1-1s1 .447 1 1v3c0 .553-.448 1-1 1z" fill="#C8BDB8"/><path fill="#D3CCC9" d="M17.5 16h20v12h-20z"/></svg>