<svg xmlns="http://www.w3.org/2000/svg" viewBox="0 0 52 52" enable-background="new 0 0 52 52"><path d="M40.824 52h-29.648c-6.173 0-11.176-5.003-11.176-11.176v-29.648c0-6.173 5.003-11.176 11.176-11.176h29.649c6.172 0 11.175 5.003 11.175 11.176v29.649c0 6.172-5.003 11.175-11.176 11.175z" fill="#653E66"/><g fill="#F8A3FF"><path d="M15.32 39h-2.88v-28h9.64c2.613 0 4.554.813 5.82 2.44 1.267 1.626 1.9 3.76 1.9 6.399 0 .934-.027 1.74-.08 2.42-.054.681-.22 1.534-.5 2.561s-.66 1.866-1.141 2.52c-.479.654-1.213 1.227-2.199 1.72-.987.494-2.16.74-3.521.74h-7.04v9.2zm0-12h6.681c.96 0 1.772-.187 2.439-.56.666-.374 1.153-.773 1.46-1.2s.547-1.04.72-1.84c.174-.8.267-1.4.28-1.8.014-.399.021-.973.021-1.72 0-4.053-1.694-6.08-5.08-6.08h-6.521v13.2zM36.521 39h-2.88v-20.04h2.8v1.04c1.2-.88 2.72-1.32 4.56-1.32.906 0 1.906.107 3 .32l-.72 2.72c-.934-.293-1.899-.439-2.899-.439s-1.895.26-2.681.779c-.787.521-1.18 1.221-1.18 2.101v14.839z"/></g></svg>