<svg xmlns="http://www.w3.org/2000/svg" viewBox="0 0 56 56" enable-background="new 0 0 56 56"><path d="M36.985 0h-29.022c-.808 0-1.463.655-1.463 1.926v53.074c0 .345.655 1 1.463 1h40.074c.808 0 1.463-.655 1.463-1v-42.022c0-.696-.093-.92-.257-1.085l-11.636-11.636c-.165-.164-.389-.257-.622-.257z" fill="#E9E9E0"/><path d="M48.037 56h-40.074c-.808 0-1.463-.655-1.463-1.463v-15.537h43v15.537c0 .808-.655 1.463-1.463 1.463z" fill="#5889C4"/><g fill="#fff"><path d="M17.385 53h-1.641v-10.076h2.898c.428 0 .852.068 1.271.205.419.137.795.342 1.128.615.333.273.602.604.807.991s.308.822.308 1.306c0 .511-.087.973-.26 1.388-.173.415-.415.764-.725 1.046-.31.282-.684.501-1.121.656s-.921.232-1.449.232h-1.217v3.637zm0-8.832v3.992h1.504c.2 0 .398-.034.595-.103.196-.068.376-.18.54-.335.164-.155.296-.371.396-.649.1-.278.15-.622.15-1.032 0-.164-.023-.354-.068-.567-.046-.214-.139-.419-.28-.615-.142-.196-.34-.36-.595-.492-.255-.132-.593-.198-1.012-.198h-1.23zM29.73 50.238c0 .364-.075.718-.226 1.06s-.362.643-.636.902-.611.467-1.012.622c-.401.155-.857.232-1.367.232-.219 0-.444-.012-.677-.034s-.467-.062-.704-.116c-.237-.055-.463-.13-.677-.226-.214-.096-.399-.212-.554-.349l.287-1.176c.127.073.289.144.485.212s.398.132.608.191c.209.06.419.107.629.144.209.036.405.055.588.055.556 0 .982-.13 1.278-.39.296-.26.444-.645.444-1.155 0-.31-.105-.574-.314-.793-.21-.219-.472-.417-.786-.595s-.654-.355-1.019-.533c-.365-.178-.707-.388-1.025-.629-.319-.241-.583-.526-.793-.854-.21-.328-.314-.738-.314-1.23 0-.446.082-.843.246-1.189s.385-.641.663-.882.602-.426.971-.554.759-.191 1.169-.191c.419 0 .843.039 1.271.116.428.077.774.203 1.039.376l-.191.39-.205.396-.164.308-.082.137-.185-.109-.294-.137c-.128-.046-.296-.077-.506-.096-.21-.019-.479-.014-.807.014-.183.019-.355.07-.52.157s-.31.193-.438.321-.228.271-.301.431c-.073.159-.109.313-.109.458 0 .364.104.658.314.882.209.224.469.419.779.588.31.169.647.333 1.012.492.364.159.704.354 1.019.581s.576.513.786.854c.213.342.318.781.318 1.319zM39.629 47.682c0 .829-.089 1.538-.267 2.126s-.403 1.08-.677 1.477-.581.709-.923.937-.672.398-.991.513c-.319.114-.611.187-.875.219-.264.03-.46.046-.587.046h-3.814v-10.076h3.035c.848 0 1.593.135 2.235.403s1.176.627 1.6 1.073.74.955.95 1.524c.209.57.314 1.156.314 1.758zm-4.867 4.115c1.112 0 1.914-.355 2.406-1.066s.738-1.741.738-3.09c0-.419-.05-.834-.15-1.244-.101-.41-.294-.781-.581-1.114s-.677-.602-1.169-.807-1.13-.308-1.914-.308h-.957v7.629h1.627z"/></g><path d="M38.894 11.163c-.463-.301-1.082-.171-1.384.291-1.433 2.196-3.979 5.164-5.19 6.375l-2.788 2.788-2.828-2.828 2.786-2.789c1.771-1.771 6.271-5.442 8.116-6.102l.112-.02c.521-.117.827-.617.735-1.143-.093-.526-.616-.885-1.143-.814l-.283.062c-2.439.813-7.457 5.108-8.952 6.604l-7.185 7.185-.285-.014c-2.971 0-5.463 2.125-5.983 5.016l-.108.073-.02.536c-.034.942-.302 4.052-2.343 4.546-.517.129-.858.625-.793 1.152l.162.919h7l2.086-.03c3.367 0 6.107-2.74 6.107-6.107 0-.193-.011-.383-.029-.572l7.049-7.048c1.305-1.305 3.925-4.358 5.451-6.696.302-.463.172-1.082-.29-1.384zm-18.288 19.807h-3.739l.015.03h-1.661c.887-1.341 1.161-3.037 1.244-4.045l.082-.504c.213-2.106 1.958-3.694 4.06-3.694l.354.036.167.021c1.045.134 1.956.655 2.6 1.411l.171.208.226.345.142.26.174.387.077.247c.045.147.091.294.12.449l.005.026c.041.234.072.471.072.716-.002 2.264-1.844 4.107-4.109 4.107zm4.91-7.723l-.02-.026c-.605-.811-1.405-1.465-2.332-1.895l2.123-2.123 2.828 2.828-2.071 2.07c-.151-.3-.329-.585-.528-.854z" fill="#C8BDB8"/><path fill="#D9D7CA" d="M37.5.151v11.849h11.849z"/></svg>