<svg xmlns="http://www.w3.org/2000/svg" viewBox="0 0 56 56" enable-background="new 0 0 56 56"><path d="M36.985 0h-29.022c-.808 0-1.463.655-1.463 1.926v53.074c0 .345.655 1 1.463 1h40.074c.808 0 1.463-.655 1.463-1v-42.022c0-.696-.093-.92-.257-1.085l-11.636-11.636c-.165-.164-.389-.257-.622-.257z" fill="#E9E9E0"/><path fill="#D9D7CA" d="M37.5.151v11.849h11.849z"/><path d="M48.037 56h-40.074c-.808 0-1.463-.655-1.463-1.463v-15.537h43v15.537c0 .808-.655 1.463-1.463 1.463z" fill="#90BAE1"/><g fill="#fff"><path d="M20.83 53l-1.9-3.65-.109.007-.212.007h-1.238v3.636h-1.641v-10.076h2.898c.428 0 .852.068 1.271.205.419.137.795.342 1.128.615s.602.604.807.991.308.822.308 1.306c0 .729-.169 1.349-.506 1.859-.338.511-.793.889-1.367 1.135l2.297 3.965h-1.736zm-3.459-4.84h1.49c.2 0 .4-.034.602-.103.2-.068.383-.18.547-.335s.296-.371.396-.649c.1-.278.15-.622.15-1.032 0-.164-.023-.354-.068-.567-.046-.214-.139-.419-.28-.615s-.34-.36-.595-.492c-.256-.132-.593-.198-1.012-.198h-1.23v3.991zM31.891 42.924v1.121h-3.008v8.955h-1.654v-8.955h-3.008v-1.121h7.67zM35.555 44.168v3.172h4.211v1.121h-4.211v4.539h-1.668v-10.076h6.303v1.244h-4.635z"/></g><g fill="#C8BDB8"><path d="M12.5 13h6c.553 0 1-.448 1-1s-.447-1-1-1h-6c-.553 0-1 .448-1 1s.447 1 1 1zM12.5 18h9c.553 0 1-.448 1-1s-.447-1-1-1h-9c-.553 0-1 .448-1 1s.447 1 1 1zM25.5 18c.26 0 .52-.11.71-.29.18-.19.29-.45.29-.71 0-.26-.11-.52-.29-.71-.38-.37-1.04-.37-1.42 0-.181.19-.29.44-.29.71s.109.52.29.71c.189.18.45.29.71.29zM29.5 18h8c.553 0 1-.448 1-1s-.447-1-1-1h-8c-.553 0-1 .448-1 1s.447 1 1 1zM11.79 31.29c-.181.19-.29.44-.29.71s.109.52.29.71c.189.18.439.29.71.29.27 0 .52-.11.71-.29.18-.19.29-.45.29-.71 0-.26-.11-.52-.29-.71-.37-.37-1.05-.37-1.42 0zM24.5 31h-8c-.553 0-1 .448-1 1s.447 1 1 1h8c.553 0 1-.448 1-1s-.447-1-1-1zM41.5 18h2c.553 0 1-.448 1-1s-.447-1-1-1h-2c-.553 0-1 .448-1 1s.447 1 1 1zM12.5 23h22c.553 0 1-.448 1-1s-.447-1-1-1h-22c-.553 0-1 .448-1 1s.447 1 1 1zM43.5 21h-6c-.553 0-1 .448-1 1s.447 1 1 1h6c.553 0 1-.448 1-1s-.447-1-1-1zM12.5 28h4c.553 0 1-.448 1-1s-.447-1-1-1h-4c-.553 0-1 .448-1 1s.447 1 1 1zM30.5 26h-10c-.553 0-1 .448-1 1s.447 1 1 1h10c.553 0 1-.448 1-1s-.447-1-1-1zM43.5 26h-9c-.553 0-1 .448-1 1s.447 1 1 1h9c.553 0 1-.448 1-1s-.447-1-1-1z"/></g></svg>