<svg xmlns="http://www.w3.org/2000/svg" viewBox="0 0 56 56" enable-background="new 0 0 56 56"><path d="M36.985 0h-29.022c-.808 0-1.463.655-1.463 1.926v53.074c0 .345.655 1 1.463 1h40.074c.808 0 1.463-.655 1.463-1v-42.022c0-.696-.093-.92-.257-1.085l-11.636-11.636c-.165-.164-.389-.257-.622-.257z" fill="#E9E9E0"/><path fill="#D9D7CA" d="M37.5.151v11.849h11.849z"/><circle cx="25.5" cy="25" r="10" fill="#fff"/><path d="M25.5 36c-6.065 0-11-4.935-11-11s4.935-11 11-11 11 4.935 11 11-4.935 11-11 11zm0-20c-4.963 0-9 4.037-9 9s4.037 9 9 9 9-4.037 9-9-4.037-9-9-9zM42.5 45c-.256 0-.512-.098-.707-.293l-11-11c-.391-.391-.391-1.023 0-1.414s1.023-.391 1.414 0l11 11c.391.391.391 1.023 0 1.414-.195.195-.451.293-.707.293z" fill="#556080"/><path d="M25.5 22h-6c-.553 0-1-.447-1-1s.447-1 1-1h6c.553 0 1 .447 1 1s-.447 1-1 1zM30.5 22h-2c-.553 0-1-.447-1-1s.447-1 1-1h2c.553 0 1 .447 1 1s-.447 1-1 1zM24.5 30h-2c-.553 0-1-.447-1-1s.447-1 1-1h2c.553 0 1 .447 1 1s-.447 1-1 1zM30.5 30h-2c-.553 0-1-.447-1-1s.447-1 1-1h2c.553 0 1 .447 1 1s-.447 1-1 1zM23.5 26h-4c-.553 0-1-.447-1-1s.447-1 1-1h4c.553 0 1 .447 1 1s-.447 1-1 1zM32.5 26h-5c-.553 0-1-.447-1-1s.447-1 1-1h5c.553 0 1 .447 1 1s-.447 1-1 1z" fill="#D1D4D1"/></svg>