<svg xmlns="http://www.w3.org/2000/svg" viewBox="0 0 56 56" enable-background="new 0 0 56 56"><path d="M36.985 0h-29.022c-.808 0-1.463.655-1.463 1.926v53.074c0 .345.655 1 1.463 1h40.074c.808 0 1.463-.655 1.463-1v-42.022c0-.696-.093-.92-.257-1.085l-11.636-11.636c-.165-.164-.389-.257-.622-.257z" fill="#E9E9E0"/><path fill="#D9D7CA" d="M37.5.151v11.849h11.849z"/><path d="M48.037 56h-40.074c-.808 0-1.463-.655-1.463-1.463v-15.537h43v15.537c0 .808-.655 1.463-1.463 1.463z" fill="#E57E25"/><g fill="#fff"><path d="M21.459 50.238c0 .364-.075.718-.226 1.06s-.362.643-.636.902-.61.467-1.012.622-.856.232-1.367.232c-.219 0-.444-.012-.677-.034s-.467-.062-.704-.116-.463-.13-.677-.226-.398-.212-.554-.349l.287-1.176c.128.073.289.144.485.212l.608.191s.419.107.629.144.405.055.588.055c.556 0 .982-.13 1.278-.39.296-.26.444-.645.444-1.155 0-.31-.104-.574-.314-.793s-.472-.417-.786-.595-.654-.355-1.019-.533-.706-.388-1.025-.629-.583-.526-.793-.854-.314-.738-.314-1.23c0-.446.082-.843.246-1.189s.385-.641.663-.882.602-.426.971-.554.759-.191 1.169-.191c.419 0 .843.039 1.271.116s.774.203 1.039.376l-.191.39-.205.396-.164.308-.082.137-.185-.109-.294-.137s-.296-.077-.506-.096-.479-.014-.807.014c-.183.019-.355.07-.52.157s-.31.193-.438.321-.228.271-.301.431-.109.313-.109.458c0 .364.104.658.314.882s.47.419.779.588.647.333 1.012.492.704.354 1.019.581.576.513.786.854.318.781.318 1.319zM25.861 53.055l-3.131-10.131h1.873l2.338 8.695 2.475-8.695h1.859l-3.281 10.131h-2.133zM40.668 47.805v3.896c-.21.265-.444.48-.704.649s-.533.308-.82.417-.583.187-.889.233-.608.068-.909.068c-.602 0-1.155-.109-1.661-.328s-.948-.542-1.326-.971-.675-.966-.889-1.613-.321-1.395-.321-2.242.107-1.593.321-2.235.511-1.178.889-1.606.822-.754 1.333-.978 1.062-.335 1.654-.335c.547 0 1.058.091 1.531.273s.897.456 1.271.82l-1.135 1.012c-.219-.265-.47-.456-.752-.574s-.574-.178-.875-.178c-.337 0-.658.063-.964.191s-.579.344-.82.649-.431.699-.567 1.183-.21 1.075-.219 1.777c.009.684.08 1.276.212 1.777s.314.911.547 1.23.497.556.793.711.608.232.937.232l.403-.021.506-.068s.33-.075.485-.13.269-.132.342-.232v-2.488h-1.709v-1.121h3.336z"/></g><path d="M45.5 22v-6h-6v2h-6v-4h-10v4h-6v-2h-6v6h6v-2h3.548c-4.566 2.636-7.548 7.588-7.548 13 0 .552.447 1 1 1s1-.448 1-1c0-5.246 3.229-9.999 8-11.995v2.995h10v-2.995c4.771 1.997 8 6.75 8 11.995 0 .552.447 1 1 1s1-.448 1-1c0-5.412-2.982-10.364-7.548-13h3.548v2h6zm-30-2h-2v-2h2v2zm16 2h-6v-6h6v6zm10-4h2v2h-2v-2z" fill="#C8BDB8"/></svg>