<svg xmlns="http://www.w3.org/2000/svg" viewBox="0 0 56 56" enable-background="new 0 0 56 56"><path d="M36.985 0h-29.022c-.808 0-1.463.655-1.463 1.926v53.074c0 .345.655 1 1.463 1h40.074c.808 0 1.463-.655 1.463-1v-42.022c0-.696-.093-.92-.257-1.085l-11.636-11.636c-.165-.164-.389-.257-.622-.257z" fill="#E9E9E0"/><path fill="#D9D7CA" d="M37.5.151v11.849h11.849z"/><g fill="#C8BDB8"><path d="M26.5 42h2v14h-2zM30.5 23v-2h-2v-2h-2v2h-2v2h2v2h-2v2h2v2h-2v2h2v3h2v-3h2v-2h-2v-2h2v-2h-2v-2z"/></g><path fill="#CBB292" d="M23.5 34h8v8h-8z"/><path d="M32.5 43h-10v-10h10v10zm-8-2h6v-6h-6v6zM23.5 36h8v2h-8z" fill="#5E5F62"/></svg>