<svg xmlns="http://www.w3.org/2000/svg" viewBox="0 0 56 56" enable-background="new 0 0 56 56"><path d="M36.985 0h-29.022c-.808 0-1.463.655-1.463 1.926v53.074c0 .345.655 1 1.463 1h40.074c.808 0 1.463-.655 1.463-1v-42.022c0-.696-.093-.92-.257-1.085l-11.636-11.636c-.165-.164-.389-.257-.622-.257z" fill="#E9E9E0"/><path fill="#D9D7CA" d="M37.5.151v11.849h11.849z"/><path d="M48.037 56h-40.074c-.808 0-1.463-.655-1.463-1.463v-15.537h43v15.537c0 .808-.655 1.463-1.463 1.463z" fill="#556080"/><g fill="#fff"><path d="M25.266 42.924v1.326l-4.799 7.205-.273.219h5.072v1.326h-6.699v-1.326l4.799-7.205.287-.219h-5.086v-1.326h6.699zM29.271 53h-1.668v-10.076h1.668v10.076zM33.414 53h-1.641v-10.076h2.898c.428 0 .852.068 1.271.205.419.137.795.342 1.128.615.333.273.602.604.807.991s.308.822.308 1.306c0 .511-.087.973-.26 1.388-.173.415-.415.764-.725 1.046-.31.282-.684.501-1.121.656s-.921.232-1.449.232h-1.217v3.637zm0-8.832v3.992h1.504c.2 0 .398-.034.595-.103.196-.068.376-.18.54-.335s.296-.371.396-.649c.1-.278.15-.622.15-1.032 0-.164-.023-.354-.068-.567-.046-.214-.139-.419-.28-.615-.142-.196-.34-.36-.595-.492-.255-.132-.593-.198-1.012-.198h-1.23z"/></g><g fill="#C8BDB8"><path d="M28.5 24v-2h2v-2h-2v-2h2v-2h-2v-2h2v-2h-2v-2h2v-2h-2v-2h-2v2h-2v2h2v2h-2v2h2v2h-2v2h2v2h-2v2h2v2h-4v5c0 2.757 2.243 5 5 5s5-2.243 5-5v-5h-4zm2 5c0 1.654-1.346 3-3 3s-3-1.346-3-3v-3h6v3zM26.5 30h2c.552 0 1-.447 1-1s-.448-1-1-1h-2c-.552 0-1 .447-1 1s.448 1 1 1z"/></g></svg>