<svg viewBox="0 0 160 100" xmlns="http://www.w3.org/2000/svg"><title/><g transform="translate(-1)" fill="none"><path d="M149 0h-140c-4 0-8 4-8 8v80c0 8 4 12 12 12h136c8 0 12-4 12-12v-76c0-8-4-12-12-12zm0 0" fill="#F4F4F4"/><circle cx="81" cy="50" fill="#306FC5" r="44"/><path d="M92 58.578v5.315c-.7.439-1.448.825-2.244 1.158-1.904.798-3.99 1.197-6.258 1.197s-4.354-.399-6.258-1.197-3.535-1.897-4.893-3.297c-1.358-1.4-2.422-3.052-3.192-4.956-.77-1.904-1.155-3.962-1.155-6.174s.385-4.27 1.155-6.174c.77-1.904 1.834-3.556 3.192-4.956 1.358-1.4 2.989-2.499 4.893-3.297s3.99-1.197 6.258-1.197 4.354.399 6.258 1.197c.796.333 1.544.72 2.244 1.158v5.315l-.354-.404c-.98-1.064-2.156-1.911-3.528-2.541-1.372-.63-2.912-.945-4.62-.945-1.708 0-3.248.315-4.62.945-1.372.63-2.548 1.477-3.528 2.541-.98 1.064-1.736 2.317-2.268 3.759-.532 1.442-.798 2.975-.798 4.599s.266 3.157.798 4.599c.532 1.442 1.288 2.695 2.268 3.759.98 1.064 2.156 1.911 3.528 2.541 1.372.63 2.912.945 4.62.945 1.708 0 3.248-.315 4.62-.945 1.372-.63 2.548-1.477 3.528-2.541l.354-.404zm-46 2.63l11.928-11.844c.42-.392.826-.819 1.218-1.281.392-.462.742-.945 1.05-1.449.308-.504.553-1.036.735-1.596.182-.56.273-1.148.273-1.764 0-.728-.133-1.386-.399-1.974-.266-.588-.63-1.085-1.092-1.491-.462-.406-1.008-.721-1.638-.945-.63-.224-1.295-.336-1.995-.336-1.456 0-2.66.406-3.612 1.218-.952.812-1.554 1.932-1.806 3.36l-4.368-.378c.196-1.316.581-2.457 1.155-3.423.574-.966 1.288-1.771 2.142-2.415.854-.644 1.834-1.12 2.94-1.428 1.106-.308 2.303-.462 3.591-.462 1.288 0 2.499.175 3.633.525 1.134.35 2.128.868 2.982 1.554.854.686 1.526 1.54 2.016 2.562.49 1.022.735 2.219.735 3.591 0 .98-.147 1.897-.441 2.751-.294.854-.679 1.659-1.155 2.415s-1.022 1.47-1.638 2.142c-.616.672-1.26 1.33-1.932 1.974l-9.786 9.45h14.952v3.528h-19.488v-4.284zm63.46 5.04c-2.268 0-4.354-.399-6.258-1.197s-3.535-1.897-4.893-3.297c-1.358-1.4-2.422-3.052-3.192-4.956-.77-1.904-1.155-3.962-1.155-6.174s.385-4.27 1.155-6.174c.77-1.904 1.834-3.556 3.192-4.956 1.358-1.4 2.989-2.499 4.893-3.297s3.99-1.197 6.258-1.197 4.354.399 6.258 1.197 3.535 1.897 4.893 3.297c1.358 1.4 2.422 3.052 3.192 4.956.77 1.904 1.155 3.962 1.155 6.174s-.385 4.27-1.155 6.174c-.77 1.904-1.834 3.556-3.192 4.956-1.358 1.4-2.989 2.499-4.893 3.297s-3.99 1.197-6.258 1.197zm0-3.78c1.708 0 3.248-.315 4.62-.945 1.372-.63 2.548-1.477 3.528-2.541.98-1.064 1.736-2.317 2.268-3.759.532-1.442.798-2.975.798-4.599s-.266-3.157-.798-4.599c-.532-1.442-1.288-2.695-2.268-3.759-.98-1.064-2.156-1.911-3.528-2.541-1.372-.63-2.912-.945-4.62-.945-1.708 0-3.248.315-4.62.945-1.372.63-2.548 1.477-3.528 2.541-.98 1.064-1.736 2.317-2.268 3.759-.532 1.442-.798 2.975-.798 4.599s.266 3.157.798 4.599c.532 1.442 1.288 2.695 2.268 3.759.98 1.064 2.156 1.911 3.528 2.541 1.372.63 2.912.945 4.62.945zm0 0" fill="#fff"/></g></svg>