<svg xmlns="http://www.w3.org/2000/svg" xmlns:sketch="http://www.bohemiancoding.com/sketch/ns" viewBox="0 0 72 45"><title>creditcards_amazon-payments</title><desc>Created with Sketch.</desc><defs><linearGradient x1="50%" y1="0%" x2="50%" y2="100%" id="a"><stop stop-color="#fff" offset="0%"/><stop stop-color="#EAEBED" offset="100%"/></linearGradient></defs><g sketch:type="MSLayerGroup" fill="none"><path d="M72 40.5c0 2.475-2.025 4.5-4.5 4.5h-63c-2.475 0-4.5-2.025-4.5-4.5v-36c0-2.475 2.025-4.5 4.5-4.5h63c2.475 0 4.5 2.025 4.5 4.5v36z" fill="url(#a)" sketch:type="MSShapeGroup"/><path d="M67.5.15c2.399 0 4.35 1.951 4.35 4.35v36c0 2.399-1.951 4.35-4.35 4.35h-63c-2.399 0-4.35-1.951-4.35-4.35v-36c0-2.399 1.951-4.35 4.35-4.35h63zm0-.15h-63c-2.475 0-4.5 2.025-4.5 4.5v36c0 2.475 2.025 4.5 4.5 4.5h63c2.475 0 4.5-2.025 4.5-4.5v-36c0-2.475-2.025-4.5-4.5-4.5z" fill="#999" sketch:type="MSShapeGroup"/><g sketch:type="MSShapeGroup"><path d="M42.528 20.36c-2.948 2.221-7.222 3.402-10.902 3.402-5.158 0-9.803-1.947-13.317-5.187-.276-.254-.03-.602.302-.405 3.792 2.253 8.482 3.609 13.325 3.609 3.267 0 6.859-.692 10.164-2.123.498-.216.916.335.428.703M43.755 18.93c-.377-.493-2.492-.234-3.442-.117-.288.035-.333-.222-.073-.408 1.688-1.21 4.453-.861 4.774-.456.324.409-.085 3.239-1.667 4.59-.243.208-.475.097-.367-.177.356-.907 1.152-2.939.775-3.432" fill="#F79821"/><path d="M40.379 9.857v-1.176c.001-.179.133-.298.292-.298l5.162-.001c.165 0 .297.123.297.297v1.009c-.002.169-.141.39-.389.74l-2.674 3.897c.992-.024 2.042.128 2.944.646.203.117.258.289.274.459v1.255c0 .173-.185.373-.38.269-1.588-.85-3.697-.942-5.454.011-.18.097-.367-.1-.367-.273v-1.193c0-.191.004-.517.192-.808l3.098-4.537h-2.697c-.165 0-.297-.12-.299-.296M21.551 17.201h-1.57c-.15-.01-.269-.124-.281-.271l.001-8.228c0-.165.135-.296.303-.296l1.462-.001c.153.008.276.126.286.277v1.074h.029c.381-1.039 1.099-1.524 2.067-1.524.982 0 1.598.485 2.038 1.524.381-1.039 1.246-1.524 2.17-1.524.66 0 1.378.277 1.818.9.498.693.396 1.697.396 2.58l-.002 5.193c0 .164-.135.296-.303.296h-1.569c-.158-.01-.282-.138-.282-.296l-.001-4.362c0-.346.029-1.212-.044-1.541-.117-.554-.469-.71-.923-.71-.381 0-.777.26-.938.675-.161.416-.147 1.108-.147 1.576v4.362c0 .164-.135.296-.303.296h-1.569c-.158-.01-.282-.138-.282-.296l-.002-4.362c0-.918.147-2.268-.967-2.268-1.129 0-1.085 1.316-1.085 2.268l-.001 4.362c0 .164-.135.296-.303.296" fill="#0A0B09"/><path d="M50.589 9.911c-1.158 0-1.231 1.61-1.231 2.614 0 1.004-.014 3.151 1.217 3.151 1.217 0 1.275-1.732 1.275-2.788 0-.692-.029-1.524-.235-2.182-.176-.571-.528-.796-1.026-.796zm-.014-1.68c2.331 0 3.591 2.043 3.591 4.641 0 2.51-1.392 4.502-3.591 4.502-2.287 0-3.533-2.044-3.533-4.589 0-2.563 1.261-4.554 3.533-4.554zM57.188 17.201h-1.565c-.157-.01-.282-.138-.282-.296l-.003-8.232c.013-.151.143-.268.302-.268l1.456-.001c.137.008.25.103.279.231v1.259h.029c.44-1.126 1.055-1.662 2.14-1.662.703 0 1.393.26 1.832.97.41.658.41 1.766.41 2.562v5.178c-.017.146-.146.259-.301.259h-1.574c-.145-.009-.263-.119-.279-.259v-4.468c0-.9.103-2.217-.982-2.217-.381 0-.733.26-.909.658-.22.503-.25 1.004-.25 1.559v4.431c-.003.164-.138.296-.305.296" fill="#0A0B09"/><path d="M37.848 17.18c-.104.095-.254.102-.371.037-.521-.443-.615-.647-.9-1.068-.862.896-1.472 1.166-2.589 1.166-1.322 0-2.351-.833-2.351-2.499 0-1.301.691-2.187 1.675-2.62.852-.382 2.042-.451 2.953-.556v-.208c0-.382.029-.833-.191-1.163-.191-.295-.558-.417-.882-.417-.599 0-1.131.313-1.262.963-.027.145-.13.287-.273.295l-1.522-.168c-.129-.03-.271-.135-.234-.335.35-1.885 2.017-2.454 3.512-2.454.764 0 1.763.208 2.365.798.764.729.69 1.701.69 2.76v2.497c0 .751.306 1.081.593 1.486.1.146.123.319-.005.426-.321.275-.89.78-1.204 1.065l-.004-.004zm-1.583-3.909c0 .625.015 1.145-.294 1.701-.25.451-.647.729-1.087.729-.602 0-.955-.469-.955-1.163 0-1.365 1.2-1.614 2.336-1.614v.347zM17.262 17.18c-.104.095-.254.102-.371.037-.522-.443-.615-.647-.9-1.068-.862.896-1.473 1.166-2.589 1.166-1.322 0-2.351-.833-2.351-2.499 0-1.301.69-2.187 1.675-2.62.852-.382 2.042-.451 2.952-.556v-.208c0-.382.03-.833-.19-1.163-.191-.295-.559-.417-.882-.417-.599 0-1.132.313-1.262.963-.027.145-.13.287-.273.295l-1.522-.168c-.129-.03-.271-.135-.234-.335.35-1.885 2.017-2.454 3.512-2.454.764 0 1.763.208 2.365.798.764.729.69 1.701.69 2.76v2.497c0 .751.306 1.081.593 1.486.1.146.123.319-.005.426-.321.275-.891.78-1.204 1.065l-.004-.004zm-1.583-3.909c0 .625.015 1.145-.294 1.701-.25.451-.647.729-1.087.729-.602 0-.955-.469-.955-1.163 0-1.365 1.2-1.614 2.336-1.614v.347z" fill="#0A0B09"/></g><g fill="#F79821" sketch:type="MSShapeGroup"><path d="M29.48 28.452c.975-1.811 3.479-1.895 4.159.232.147-.211.393-.728.902-1.113 1.349-1.019 3.122-.363 3.501 1.271.109.468.16.957.166 1.437.02 1.561.016 3.121-.002 4.682 0 .465-.041.574-.649.574-.595 0-.625-.129-.625-.514-.009-1.686.015-3.373-.024-5.058-.01-.407-.149-.849-.353-1.206-.406-.711-1.148-.799-1.775-.261-.568.488-.872 1.119-.879 1.86-.015 1.561-.005 3.121-.007 4.682-.001.467.012.552-.621.552-.712 0-.664-.087-.666-.562-.007-1.756-.008-3.512-.011-5.267-.001-.515-.217-.955-.583-1.291-.587-.538-1.468-.308-1.948.45-.354.56-.489 1.173-.494 1.815-.012 1.463-.018 2.927.005 4.389.007.435-.085.466-.555.466-.591 0-.675.037-.674-.461.006-2.481.006-4.961-.001-7.441 0-.375.084-.394.582-.394.451 0 .558-.003.558.415l-.003.742M8.165 28.362c.562-.821 1.284-1.26 2.297-1.245.863.013 1.455.457 1.934 1.089.552.729.795 1.586.851 2.474.068 1.093.04 2.185-.416 3.224-.679 1.545-2.042 2.179-3.477 1.6-.4-.162-.716-.527-1.102-.824l-.006 3.15c0 .358-.056.358-.606.358-.498 0-.602 0-.602-.375l-.008-10.071c0-.318-.086-.457.374-.457.84 0 .761-.112.761.701v.374zm.435 5.147c.357 1.004 1.459 1.433 2.247.874.338-.24.576-.663.768-1.047.393-.789.311-1.657.243-2.492-.046-.564-.176-1.154-.416-1.665-.596-1.269-1.789-1.171-2.603-.171-.291.358-.595.926-.595 2.274 0 1.369.24 1.901.356 2.226zm10.662 1.013c-.613.885-1.468 1.31-2.482 1.296-1.745-.023-2.846-1.123-2.548-2.912.241-1.449 1.015-2.081 2.529-2.266.695-.085 1.625-.118 2.326-.153 0 0 .02-1.199-.152-1.587-.342-.771-1.654-.911-2.504-.503-.401.192-.603.424-.75.807-.179.465.032.339-1.075.275-.332-.019-.171-.386-.104-.605.329-1.074 1.299-1.529 2.391-1.655.53-.061 1.082-.064 1.609.012.99.144 1.634.827 1.798 1.82.058.353.086.715.09 1.073.011 1.142-.006 2.285.008 3.427.007.567.019 1.14.104 1.699.044.286-.081.378-.276.397-.738 0-.956.056-.973-.36l.009-.766zm-.117-3.12c-.893.035-1.819.121-2.506.331-.989.302-1.376 1.375-1.008 2.23.4.928 1.741 1.132 2.554.377.96-.892.96-1.715.96-2.937zm21.549.091c-.019.97.048 1.849.749 2.539.917.902 2.254.707 2.886-.422.351-.627.242-.755 1.043-.415.372.158.379.242.271.505-.512 1.248-1.542 1.925-2.737 1.997-2.178.131-3.223-1.398-3.508-2.979-.237-1.313-.185-2.619.428-3.851.937-1.882 3.266-2.441 4.804-1.098 1.041.909 1.312 2.187 1.22 3.526-.005.077-.085.199-.364.199h-4.792zm.069-.94c1.222 0 2.575.016 3.743.001 0 0 0-.689-.278-1.414-.335-.872-1.433-1.322-2.194-.925-.84.437-1.271 1.26-1.271 2.339zm21.15 5.14c-1.228 0-2.107-.316-2.774-1.276-.156-.224-.263-.486-.361-.742-.072-.271.013-.337.39-.456.582-.184.596-.303.84.187.634 1.275 2.246 1.582 3.294.748.68-.541.458-1.671-.447-1.963-.608-.196-1.243-.317-1.874-.435-.988-.185-1.854-.922-1.956-1.808-.12-1.035.017-1.853 1.056-2.479.917-.56 2.396-.601 3.35-.09.438.235.877.729 1.111 1.396.125.356.082.379-.317.477-.609.15-.672.173-.793-.077-.474-.977-1.079-1.243-2.036-1.03-.808.181-1.11.546-1.087 1.237.02.572.448.937 1.175 1.093.775.166 1.568.312 2.298.602.792.314 1.135 1.02 1.197 1.85 0 1.533-.881 2.765-3.066 2.765m-13.665-7.314c.281-.321.49-.643.775-.87.817-.65 2.04-.646 2.87-.02.443.334 1.012 1.098 1.012 2.551l.011 4.932c-.001.497-.017.55-.665.55-.527 0-.569-.103-.561-.537.026-1.463.019-2.926.003-4.389-.004-.383-.011-.829-.073-1.209-.106-.656-.503-1.114-1.198-1.208-.662-.09-1.125.326-1.506.822-.446.58-.563 1.262-.576 1.954-.025 1.365.002 2.731.002 4.096 0 .438-.107.465-.591.465-.577 0-.646.015-.646-.451.02-2.466.021-4.933-.002-7.399-.005-.481-.005-.465.658-.465.524 0 .487.112.487.503v.674m-23.814 4.841c.427-1.334 1.805-5.667 1.805-5.667.079-.241.079-.247.937-.247.304 0 .181.216.039.648l-2.746 8.701s-.209.64-.557 1.105c-.508.679-1.17.737-2.08.668-.476-.036-.476-.109-.454-.61.022-.501.048-.45.595-.384.28.033.928.227 1.345-.654.184-.389.495-1.533.495-1.533l-2.36-7.397c-.147-.475-.216-.556.434-.556.837 0 .727.05.9.639l1.646 5.288m31.882-6.014h1.22c.381 0 .392.06.392.456 0 .51-.011.575-.375.575h-1.238c-.009.168-.004 5.122-.004 5.122-.007.832.302 1.355 1.357 1.218.639-.083.674-.167.674.334.001.621.039.607-.425.689-.399.07-.819.109-1.213.055-1.152-.159-1.573-.999-1.596-1.96l-.012-5.458h-.896c-.452 0-.378-.148-.378-.529 0-.47-.038-.492.365-.502h.909v-1.576c0-.399-.005-.438.73-.57.483-.087.492.061.492.484l-.004 1.662"/></g></g></svg>