<svg xmlns="http://www.w3.org/2000/svg" viewBox="0 0 72 45"><path d="M65.552.347l.73.002.605.007c.366.01.796.03 1.21.106.383.068.707.175 1.022.334.313.16.6.368.85.62.25.25.46.538.62.853.16.313.266.638.335 1.023.074.41.095.84.104 1.208l.01.604v34.664l-.01.6c-.01.367-.03.8-.105 1.21-.07.382-.174.706-.334 1.02-.16.317-.37.603-.62.853-.25.253-.537.46-.852.62-.314.16-.638.267-1.02.336-.42.075-.868.095-1.207.104l-.607.008-.73.003h-59.113l-.725-.002-.602-.007c-.343-.01-.79-.03-1.21-.104-.383-.068-.708-.175-1.022-.335-.314-.16-.6-.367-.852-.62-.25-.25-.458-.536-.62-.852-.158-.313-.264-.638-.333-1.023-.076-.416-.096-.844-.106-1.212l-.01-.602v-34.662l.01-.602c.01-.365.03-.795.105-1.21.07-.382.175-.707.335-1.022.16-.314.367-.6.62-.85.25-.252.537-.46.852-.62.313-.16.638-.267 1.02-.335.414-.075.843-.095 1.21-.106l.602-.008.733-.003h59.105" fill="#fff"/><path d="M65.552-.066h-59.842l-.623.01c-.452.012-.907.038-1.354.116-.453.08-.875.21-1.287.415-.404.2-.775.464-1.096.777-.32.313-.59.675-.796 1.07-.21.402-.344.814-.425 1.257-.082.435-.11.88-.12 1.32l-.01.607v33.854l.01.607c.012.44.04.886.12 1.322.08.44.214.853.425 1.255.205.396.475.757.795 1.07.32.314.69.577 1.096.778.412.205.834.335 1.287.414.447.078.902.106 1.354.117l.623.007.738.004h59.104l.738-.002.622-.007c.452-.013.907-.04 1.355-.118.453-.08.875-.21 1.287-.414.405-.2.774-.463 1.096-.777.322-.313.59-.675.797-1.07.21-.403.343-.815.423-1.257.08-.437.108-.882.12-1.323l.01-.606v-33.852l-.01-.607c-.014-.44-.04-.884-.12-1.32-.082-.443-.215-.855-.424-1.257-.207-.396-.476-.756-.796-1.07-.32-.313-.692-.576-1.096-.778-.41-.203-.834-.333-1.287-.414-.448-.077-.903-.103-1.354-.115l-.622-.01h-.738zm0 .937l.73.003.604.008c.366.01.797.03 1.21.104.383.067.707.17 1.023.327.312.157.598.36.848.605.252.245.46.526.622.833.16.306.265.623.334 1 .074.4.095.82.104 1.18l.01.587v33.837l-.01.585c-.01.36-.03.782-.104 1.184-.07.373-.174.69-.334.995-.16.308-.37.588-.62.832-.252.246-.538.45-.853.605-.314.156-.638.26-1.02.327-.42.073-.867.093-1.207.102l-.607.007-.73.003h-59.112l-.726-.002-.6-.007c-.345-.01-.792-.03-1.21-.103-.385-.066-.71-.17-1.024-.327-.315-.156-.6-.36-.853-.605-.25-.244-.458-.524-.62-.833-.158-.307-.264-.623-.333-1-.074-.4-.094-.818-.104-1.178l-.01-.586v-33.839l.01-.59c.01-.356.03-.776.104-1.18.07-.374.175-.69.335-1 .16-.305.367-.585.62-.83.25-.244.536-.448.85-.604.314-.155.64-.26 1.022-.326.414-.075.843-.095 1.211-.105l.6-.007.735-.003h59.103m-5.636 15.894l-2.89 7.858c-.18.475-.35.953-.502 1.418l-.217.663h-.054l-.22-.687c-.15-.46-.312-.913-.477-1.345l-3.09-7.906h-1.654l4.42 11.367c.117.275.134.4.134.45 0 .015-.007.11-.135.455-.277.68-.594 1.267-.94 1.743-.353.482-.677.874-.966 1.163-.336.336-.684.613-1.036.82-.36.212-.688.385-.98.514l-.165.075.538 1.31.172-.066c.14-.052.403-.172.802-.367.404-.2.85-.514 1.327-.94.41-.356.786-.78 1.117-1.256.326-.467.653-1.018.972-1.63.316-.608.633-1.303.943-2.062.31-.763.64-1.616.985-2.535l3.57-9.04zm-12.086 8.346c0 .167-.04.394-.115.666-.094.283-.234.562-.415.828-.18.264-.407.507-.675.72-.267.21-.586.38-.948.506s-.78.19-1.24.19c-.282 0-.555-.048-.818-.14-.26-.09-.49-.228-.687-.41-.196-.18-.357-.414-.48-.698-.123-.28-.185-.63-.185-1.035 0-.664.18-1.203.53-1.596.36-.408.827-.723 1.38-.935.563-.218 1.19-.36 1.864-.425.547-.053 1.084-.08 1.59-.08l.197.003zm1.574 2.417c-.017-.48-.025-.962-.025-1.442v-4.715c0-.56-.056-1.13-.165-1.696-.114-.578-.33-1.11-.643-1.577-.316-.473-.758-.864-1.308-1.16-.55-.296-1.267-.446-2.13-.446-.63 0-1.246.082-1.827.244-.585.164-1.158.437-1.707.813l-.127.086.525 1.224.19-.126c.4-.27.85-.484 1.34-.637.49-.15.99-.23 1.486-.23.646 0 1.162.12 1.53.35.373.233.655.523.837.86.19.348.312.72.367 1.104.058.4.086.76.086 1.066v.137c-2.295-.01-4.088.372-5.278 1.138-1.25.805-1.884 1.952-1.884 3.405 0 .418.075.84.223 1.257.152.422.378.8.676 1.122.3.326.687.592 1.15.792.46.2 1.004.3 1.61.3.48 0 .93-.06 1.34-.18.403-.123.772-.284 1.092-.485.32-.198.603-.42.844-.663l.295-.324h.06l.142 1.375h1.492l-.04-.22c-.082-.44-.13-.898-.147-1.368zm-11.986-7.8c-.796.667-1.92 1.006-3.35 1.006-.39 0-.762-.018-1.103-.05-.284-.027-.544-.07-.778-.13v-7.213c.204-.038.457-.073.754-.105.377-.04.83-.06 1.352-.06.645 0 1.24.076 1.77.23.523.15.98.374 1.36.665.37.288.664.662.867 1.113.203.457.306 1.002.306 1.62 0 1.284-.398 2.267-1.18 2.926zm1.424-6.478c-.483-.468-1.11-.83-1.855-1.08-.74-.246-1.63-.37-2.643-.37-.698 0-1.354.033-1.942.1-.583.067-1.123.143-1.608.227l-.156.027v16.964h1.548v-7.147c.523.09 1.12.137 1.78.137.875 0 1.696-.112 2.44-.333.75-.222 1.408-.565 1.956-1.02.55-.458.988-1.03 1.307-1.7.316-.672.48-1.462.48-2.35 0-.738-.117-1.4-.345-1.968-.228-.57-.552-1.07-.96-1.488zm-15.456 7.08c-.02-2.413 1.968-3.574 2.06-3.63-1.124-1.635-2.863-1.86-3.484-1.886-1.483-.147-2.897.874-3.648.874-.753 0-1.91-.85-3.144-.825-1.617.023-3.108.94-3.94 2.387-1.678 2.922-.426 7.238 1.21 9.6.8 1.158 1.752 2.457 3.008 2.41 1.208-.046 1.66-.78 3.12-.78 1.457-.003 1.87.78 3.142.756 1.298-.028 2.123-1.18 2.92-2.344.913-1.34 1.292-2.64 1.312-2.706-.027-.015-2.528-.97-2.556-3.855zm-2.76-7.08c.665-.807 1.113-1.925.99-3.04-.958.038-2.12.64-2.803 1.443-.618.713-1.154 1.853-1.007 2.945 1.07.084 2.157-.543 2.822-1.348" fill="#100f0d"/></svg>