<svg xmlns="http://www.w3.org/2000/svg" viewBox="0 0 72 45" enable-background="new 0 0 72 45"><linearGradient id="a" gradientUnits="userSpaceOnUse" x1="36" x2="36" y2="45"><stop offset="0" stop-color="#fff"/><stop offset="1" stop-color="#BDCCD4"/></linearGradient><path fill="url(#a)" d="M72 40.5c0 2.475-2.025 4.5-4.5 4.5h-63c-2.475 0-4.5-2.025-4.5-4.5v-36c0-2.475 2.025-4.5 4.5-4.5h63c2.475 0 4.5 2.025 4.5 4.5v36z"/><path fill="#999" d="M67.5.15c2.399 0 4.35 1.951 4.35 4.35v36c0 2.399-1.951 4.35-4.35 4.35h-63c-2.399 0-4.35-1.951-4.35-4.35v-36c0-2.399 1.951-4.35 4.35-4.35h63m0-.15h-63c-2.475 0-4.5 2.025-4.5 4.5v36c0 2.475 2.025 4.5 4.5 4.5h63c2.475 0 4.5-2.025 4.5-4.5v-36c0-2.475-2.025-4.5-4.5-4.5z"/><path fill="#005189" d="M38.472 33.906c6.236.03 11.928-5.085 11.928-11.308 0-6.804-5.692-11.507-11.928-11.505h-5.367c-6.311-.001-11.505 4.703-11.505 11.506 0 6.225 5.194 11.338 11.505 11.308h5.367z"/><path fill="#fff" d="M35.499 28.658v-12.355c2.484.952 4.247 3.356 4.252 6.177-.006 2.821-1.769 5.224-4.252 6.178m-8.987-6.178c.006-2.818 1.767-5.222 4.249-6.177v12.354c-2.482-.956-4.243-3.358-4.249-6.177m6.618-10.443c-5.767.003-10.44 4.676-10.441 10.443.001 5.768 4.674 10.44 10.441 10.442 5.768-.001 10.442-4.674 10.443-10.442-.001-5.768-4.675-10.441-10.443-10.443"/></svg>