<svg xmlns="http://www.w3.org/2000/svg" xmlns:xlink="http://www.w3.org/1999/xlink" viewBox="0 0 72 45" enable-background="new 0 0 72 45"><linearGradient id="a" gradientUnits="userSpaceOnUse" x1="36" y1=".15" x2="36" y2="44.534"><stop offset="0" stop-color="#fff"/><stop offset="1" stop-color="#CECECE"/></linearGradient><path fill="url(#a)" d="M72 40.5c0 2.475-2.025 4.5-4.5 4.5h-63c-2.475 0-4.5-2.025-4.5-4.5v-36c0-2.475 2.025-4.5 4.5-4.5h63c2.475 0 4.5 2.025 4.5 4.5v36z"/><linearGradient id="b" gradientUnits="userSpaceOnUse" x1="36" y1=".15" x2="36" y2="44.534"><stop offset="0" stop-color="#fff"/><stop offset="1" stop-color="#E6E6E6"/></linearGradient><path fill="url(#b)" d="M72 40.5c0 2.475-2.025 4.5-4.5 4.5h-63c-2.475 0-4.5-2.025-4.5-4.5v-36c0-2.475 2.025-4.5 4.5-4.5h63c2.475 0 4.5 2.025 4.5 4.5v36z"/><path fill="#999" d="M67.5.15c2.399 0 4.35 1.951 4.35 4.35v36c0 2.399-1.951 4.35-4.35 4.35h-63c-2.399 0-4.35-1.951-4.35-4.35v-36c0-2.399 1.951-4.35 4.35-4.35h63m0-.15h-63c-2.475 0-4.5 2.025-4.5 4.5v36c0 2.475 2.025 4.5 4.5 4.5h63c2.475 0 4.5-2.025 4.5-4.5v-36c0-2.475-2.025-4.5-4.5-4.5z"/><path fill="#CECECE" d="M67.5.15c2.399 0 4.35 1.951 4.35 4.35v36c0 2.399-1.951 4.35-4.35 4.35h-63c-2.399 0-4.35-1.951-4.35-4.35v-36c0-2.399 1.951-4.35 4.35-4.35h63m0-.15h-63c-2.475 0-4.5 2.025-4.5 4.5v36c0 2.475 2.025 4.5 4.5 4.5h63c2.475 0 4.5-2.025 4.5-4.5v-36c0-2.475-2.025-4.5-4.5-4.5z"/><path fill="#F48120" d="M71.85 21.147c-8.821 8.758-25.409 20.167-51.935 23.703h47.585c2.399 0 4.35-1.951 4.35-4.35v-19.353z"/><path fill="#231F20" d="M10.634 16.171h-2.607v9.105h2.593c1.379 0 2.375-.325 3.249-1.051 1.039-.86 1.653-2.155 1.653-3.495 0-2.687-2.008-4.559-4.888-4.559zm2.075 6.84c-.558.504-1.283.724-2.431.724h-.477v-6.021h.477c1.148 0 1.844.205 2.431.736.614.547.984 1.394.984 2.267-.001.874-.37 1.747-.984 2.294zm3.63-6.84h1.776v9.105h-1.776zm6.119 3.494c-1.066-.394-1.379-.654-1.379-1.146 0-.574.558-1.009 1.323-1.009.532 0 .969.219 1.432.737l.929-1.217c-.764-.668-1.677-1.009-2.676-1.009-1.611 0-2.84 1.119-2.84 2.609 0 1.254.572 1.897 2.24 2.497.695.245 1.049.409 1.228.519.355.232.532.56.532.942 0 .738-.587 1.284-1.379 1.284-.847 0-1.529-.424-1.938-1.214l-1.147 1.105c.818 1.201 1.801 1.733 3.152 1.733 1.846 0 3.14-1.227 3.14-2.99.002-1.447-.597-2.102-2.617-2.841zm3.179 1.065c0 2.676 2.102 4.752 4.806 4.752.765 0 1.419-.15 2.227-.531v-2.091c-.71.711-1.339.997-2.144.997-1.789 0-3.058-1.297-3.058-3.141 0-1.748 1.31-3.127 2.976-3.127.847 0 1.488.302 2.227 1.025v-2.09c-.78-.395-1.421-.559-2.185-.559-2.692 0-4.849 2.118-4.849 4.765zm21.115 1.557l-2.428-6.116h-1.94l3.864 9.339h.956l3.933-9.339h-1.925zm5.188 2.989h5.037v-1.541h-3.262v-2.458h3.142v-1.542h-3.142v-2.021h3.262v-1.543h-5.037zm12.07-6.417c0-1.705-1.174-2.688-3.222-2.688h-2.634v9.105h1.774v-3.658h.232l2.458 3.658h2.184l-2.866-3.836c1.337-.272 2.074-1.187 2.074-2.581zm-3.564 1.504h-.519v-2.758h.547c1.106 0 1.707.463 1.707 1.35.001.915-.6 1.408-1.735 1.408z"/><linearGradient id="c" gradientUnits="userSpaceOnUse" x1="40.573" y1="24.637" x2="37.219" y2="19.386"><stop offset="0" stop-color="#F89F20"/><stop offset=".25" stop-color="#F79A20"/><stop offset=".533" stop-color="#F68D20"/><stop offset=".62" stop-color="#F58720"/><stop offset=".723" stop-color="#F48120"/><stop offset="1" stop-color="#F37521"/></linearGradient><circle fill="url(#c)" cx="38.094" cy="20.755" r="4.844"/><linearGradient id="d" gradientUnits="userSpaceOnUse" x1="40.044" y1="24.566" x2="35.142" y2="14.985"><stop offset="0" stop-color="#F58720" stop-opacity="0"/><stop offset=".359" stop-color="#E16F27" stop-opacity=".27"/><stop offset=".703" stop-color="#D4602C" stop-opacity=".53"/><stop offset=".982" stop-color="#D05B2E" stop-opacity=".74"/></linearGradient><circle opacity=".65" fill="url(#d)" cx="38.094" cy="20.755" r="4.844"/><g opacity=".5"><defs><circle id="e" opacity=".5" cx="38.093" cy="20.757" r="4.844"/></defs><clipPath><use xlink:href="#e" overflow="visible"/></clipPath></g></svg>