<svg xmlns="http://www.w3.org/2000/svg" viewBox="0 0 512 512" enable-background="new 0 0 512 512"><path d="M512 402.282c0 16.716-13.55 30.267-30.265 30.267h-451.47c-16.715 0-30.265-13.553-30.265-30.267v-292.565c0-16.716 13.55-30.266 30.265-30.266h451.469c16.716 0 30.265 13.551 30.265 30.266l.001 292.565z" fill="#E7E8E3"/><path fill="#4A9E19" d="M438.217 214.704l-24.662 48.844-10.437 19.976-12.405-23.879-22.693-44.941h-24.085l47.302 89.127-18.4 34.752h23.402l64-123.879z"/><path d="M21.517 402.282v-292.565c0-16.716 13.552-30.266 30.267-30.266h-21.52c-16.714 0-30.264 13.552-30.264 30.266v292.565c0 16.716 13.55 30.267 30.265 30.267h21.52c-16.715 0-30.268-13.553-30.268-30.267z" opacity=".15" fill="#202121" enable-background="new"/><path d="M151.926 262.88c.689 0 6.885-53.677-50.237-53.677l-.374.004-.315-.004-.009.009c-36.621.265-47.97 21.16-51.2 36.704l-.037.041c-1.642 7.653-4.742 29.708 9.347 45.82l.009.01c7.447 8.379 19.854 15.14 40.515 15.14l.306-.006.378.006c46.802 0 48.865-29.591 48.865-29.591h-22.023s-3.863 14.791-25.265 15.151c-.518.001-1.037.003-1.576-.013-28.665 0-30.852-27.772-30.96-29.508l-.004-.085h82.58v-.001zm-81.896-13.765s.713-13.424 11.997-21.034c.565-.342 1.148-.673 1.768-.983l-.269.047c4.311-2.502 9.987-4.179 17.474-4.179 29.594 0 29.594 26.15 29.594 26.15l-60.564-.001z" fill="#C60C1E"/><path d="M214.178 209.944c-.791-.035-1.585-.052-2.381-.052-25.646 0-35.403 14.555-35.765 15.112v-51.588h-23.581v132.131h22.283l1.298-7.905c5.124 4.464 15.402 10.659 33.015 10.659 9.087-.607 17.639-2.682 25.016-6.282 15.535-7.15 26.124-21.947 26.6-43.271 0-29.999-21.959-47.725-46.485-48.804zm19.652 66.248c-4.067 8.294-12.148 16.627-28.223 16.968-32.346.69-32.346-34.41-32.346-34.41s-.536-13.37 7.481-23.444c1.976-2.307 4.432-4.398 7.481-6.049 1.542-.78 29.237-14.304 45.094 11.601 4.513 9.084 3.95 19.27 3.95 19.27s.148 7.908-3.437 16.064z" fill="#064C91"/><path d="M355.633 304.174c0-.677-.666-7.372-.687-21.353.016-9.738.328-18.523.302-25.922.007-3.887-.066-7.423-.304-10.535-.689-10.323.689-36.471-44.045-38.538 0 0-42.667-.69-47.485 26.84h22.975c.445-1.077 1.491-3.265 3.268-5.442 1.697-1.948 7.167-6.903 18.824-6.959.348.003.687.001 1.045.012 8.934.287 14.716 2.273 18.433 5.437l.105.078.059.057c.526.461 1.002.952 1.448 1.46l.009-.009s.709.703 1.508 2.054l.23.361-.039-.017c.687 1.229 1.407 2.902 1.791 5.061v.006c.604 2.704.539 4.778.539 4.778v4.157c-3.326.125-17.924.663-23.396.663-8.742 0-34.383.882-46.308 12.945-3.469 3.245-5.921 7.341-6.683 12.518-4.128 27.528 19.957 35.787 39.226 35.787l.294-.006.397.006c18.771 0 29.703-5.241 37.889-15.061l.648 12.305h19.956l-.059-.683h.06zm-55.055-10.324s-20.646 0-22.022-16.516c-1.378-17.893 31.656-16.518 31.656-16.518h23.397c.691 0 4.82 33.723-33.031 33.034z" fill="#F48D1C"/></svg>