<svg xmlns="http://www.w3.org/2000/svg" viewBox="0 0 72 45" enable-background="new 0 0 72 45"><linearGradient id="a" gradientUnits="userSpaceOnUse" x1="36" y1=".15" x2="36" y2="44.534"><stop offset="0" stop-color="#fff"/><stop offset="1" stop-color="#ccc"/></linearGradient><path fill="url(#a)" d="M72 40.5c0 2.475-2.025 4.5-4.5 4.5h-63c-2.475 0-4.5-2.025-4.5-4.5v-36c0-2.475 2.025-4.5 4.5-4.5h63c2.475 0 4.5 2.025 4.5 4.5v36z"/><path fill="#999" d="M67.5.15c2.399 0 4.35 1.951 4.35 4.35v36c0 2.399-1.951 4.35-4.35 4.35h-63c-2.399 0-4.35-1.951-4.35-4.35v-36c0-2.399 1.951-4.35 4.35-4.35h63m0-.15h-63c-2.475 0-4.5 2.025-4.5 4.5v36c0 2.475 2.025 4.5 4.5 4.5h63c2.475 0 4.5-2.025 4.5-4.5v-36c0-2.475-2.025-4.5-4.5-4.5z"/><linearGradient id="b" gradientUnits="userSpaceOnUse" x1="15.331" y1="22.5" x2="28.075" y2="22.5"><stop offset="0" stop-color="#1D2970"/><stop offset="1" stop-color="#006DBA"/></linearGradient><path fill="url(#b)" d="M23.035 37.999h-7.704v-25.821c0-2.859 2.318-5.177 5.177-5.177h7.567v25.958c0 2.784-2.256 5.04-5.04 5.04z"/><linearGradient id="c" gradientUnits="userSpaceOnUse" x1="29.628" y1="22.5" x2="42.372" y2="22.5"><stop offset="0" stop-color="#6E2B2F"/><stop offset="1" stop-color="#E30138"/></linearGradient><path fill="url(#c)" d="M37.332 37.999h-7.704v-25.821c0-2.859 2.318-5.177 5.177-5.177h7.567v25.958c0 2.784-2.256 5.04-5.04 5.04z"/><linearGradient id="d" gradientUnits="userSpaceOnUse" x1="43.925" y1="22.5" x2="56.669" y2="22.5"><stop offset="0" stop-color="#007B40"/><stop offset="1" stop-color="#55B330"/></linearGradient><path fill="url(#d)" d="M51.629 37.999h-7.704v-25.821c0-2.859 2.318-5.177 5.177-5.177h7.567v25.958c0 2.784-2.257 5.04-5.04 5.04z"/><path fill="#fff" d="M22.584 23.624v-6.093h4.431v6.093c0 2.625-1.972 4.128-6.397 4.128-3.066 0-5.284-.642-5.284-.642v-2.184s2.079 1.159 4.438 1.159 2.812-1.742 2.812-2.461zm7.044-4.701v7.149c.463.418 2.194 1.681 6.23 1.681 2.694 0 5.078-.641 5.078-.641v-2.186s-2.055 1.162-4.43 1.162-3.953-1.321-3.953-3.588 1.453-3.59 3.953-3.59l4.43 1.163v-2.187s-2.209-.64-5.078-.64c-4.043.001-5.713 1.194-6.23 1.677zm22.633 3.468v-.06c.412 0 2.352-.504 2.352-2.372 0-1.726-1.577-2.413-3.204-2.413h-7.485v9.922l8.133-.003c2.229 0 3.164-1.434 3.164-2.45.001-2-1.903-2.624-2.96-2.624zm-5.813-3.316h2.669c1.097 0 1.373.798 1.373 1.206 0 .408-.141 1.31-1.274 1.31h-2.768v-2.516zm2.99 6.778h-2.991v-2.726h3.009s1.39.747 1.39 1.363-.466 1.363-1.408 1.363z"/></svg>