<svg xmlns="http://www.w3.org/2000/svg" viewBox="0 0 526.77502 140.375"><path d="M63.213.009h-40.973c-2.804 0-5.189 2.038-5.626 4.806l-16.571 105.065c-.33 2.072 1.276 3.942 3.379 3.942h19.561c2.804 0 5.188-2.037 5.625-4.811l4.469-28.337c.432-2.775 2.822-4.812 5.62-4.812h12.971c26.99 0 42.566-13.06 46.635-38.942 1.833-11.323.078-20.22-5.225-26.45-5.823-6.843-16.152-10.461-29.865-10.461zm4.727 38.374c-2.241 14.702-13.474 14.702-24.336 14.702h-6.183l4.337-27.457c.258-1.66 1.695-2.882 3.373-2.882h2.833c7.399 0 14.379 0 17.985 4.217 2.151 2.517 2.81 6.255 1.989 11.419m117.75-.473h-19.62c-1.671 0-3.115 1.222-3.374 2.882l-.868 5.488-1.373-1.989c-4.247-6.165-13.72-8.226-23.174-8.226-21.681 0-40.2 16.421-43.806 39.457-1.875 11.491.791 22.479 7.309 30.141 5.979 7.045 14.534 9.981 24.713 9.981 17.47 0 27.157-11.232 27.157-11.232l-.875 5.452c-.33 2.085 1.276 3.954 3.368 3.954h17.672c2.81 0 5.183-2.037 5.626-4.811l10.604-67.154c.336-2.067-1.264-3.942-3.361-3.942zm-27.349 38.187c-1.893 11.209-10.79 18.734-22.136 18.734-5.697 0-10.251-1.828-13.175-5.291-2.9-3.439-4.002-8.334-3.079-13.786 1.767-11.113 10.814-18.883 21.987-18.883 5.572 0 10.101 1.851 13.085 5.343 2.99 3.529 4.175 8.454 3.319 13.882m131.844-38.186h-19.716c-1.881 0-3.649.935-4.715 2.499l-27.194 40.056-11.526-38.493c-.725-2.409-2.947-4.062-5.464-4.062h-19.375c-2.355 0-3.99 2.3-3.241 4.517l21.718 63.733-20.417 28.823c-1.606 2.27.011 5.393 2.786 5.393h19.692c1.869 0 3.619-.911 4.679-2.445l65.578-94.659c1.57-2.265-.041-5.362-2.804-5.362" fill="#283b82"/><path d="M355.462.009h-40.979c-2.797 0-5.183 2.038-5.62 4.806l-16.571 105.065c-.329 2.072 1.276 3.942 3.368 3.942h21.029c1.952 0 3.625-1.425 3.93-3.367l4.702-29.781c.431-2.775 2.822-4.812 5.62-4.812h12.965c26.995 0 42.566-13.06 46.64-38.942 1.84-11.323.072-20.22-5.23-26.45-5.817-6.843-16.14-10.461-29.854-10.461zm4.728 38.374c-2.235 14.702-13.467 14.702-24.336 14.702h-6.176l4.344-27.457c.258-1.66 1.683-2.882 3.366-2.882h2.834c7.394 0 14.379 0 17.985 4.217 2.151 2.517 2.804 6.255 1.984 11.419m117.742-.473h-19.609c-1.684 0-3.116 1.222-3.368 2.882l-.869 5.488-1.377-1.989c-4.247-6.165-13.714-8.226-23.168-8.226-21.683 0-40.194 16.421-43.801 39.457-1.869 11.491.785 22.479 7.304 30.141 5.991 7.045 14.534 9.981 24.712 9.981 17.47 0 27.157-11.232 27.157-11.232l-.875 5.452c-.329 2.085 1.276 3.954 3.38 3.954h17.668c2.797 0 5.183-2.037 5.62-4.811l10.61-67.154c.323-2.067-1.282-3.942-3.385-3.942zm-27.35 38.187c-1.881 11.209-10.79 18.734-22.136 18.734-5.686 0-10.251-1.828-13.175-5.291-2.899-3.439-3.99-8.334-3.079-13.786 1.779-11.113 10.814-18.883 21.988-18.883 5.571 0 10.1 1.851 13.084 5.343 3.001 3.529 4.188 8.454 3.319 13.882m50.48-73.204l-16.818 106.989c-.329 2.072 1.276 3.942 3.368 3.942h16.906c2.81 0 5.195-2.037 5.626-4.811l16.582-105.059c.33-2.074-1.275-3.949-3.366-3.949h-18.933c-1.671.005-3.109 1.229-3.366 2.888" fill="#469bdb"/></svg>