<svg xmlns="http://www.w3.org/2000/svg" viewBox="0 0 72 45" enable-background="new 0 0 72 45"><linearGradient id="a" gradientUnits="userSpaceOnUse" x1="36" x2="36" y2="45"><stop offset="0" stop-color="#fff"/><stop offset="1" stop-color="#BDCCD4"/></linearGradient><path fill="url(#a)" d="M72 40.5c0 2.475-2.025 4.5-4.5 4.5h-63c-2.475 0-4.5-2.025-4.5-4.5v-36c0-2.475 2.025-4.5 4.5-4.5h63c2.475 0 4.5 2.025 4.5 4.5v36z"/><path fill="#999" d="M67.5.15c2.399 0 4.35 1.951 4.35 4.35v36c0 2.399-1.951 4.35-4.35 4.35h-63c-2.399 0-4.35-1.951-4.35-4.35v-36c0-2.399 1.951-4.35 4.35-4.35h63m0-.15h-63c-2.475 0-4.5 2.025-4.5 4.5v36c0 2.475 2.025 4.5 4.5 4.5h63c2.475 0 4.5-2.025 4.5-4.5v-36c0-2.475-2.025-4.5-4.5-4.5z"/><path fill="#369" d="M58.313 19.693c-.657-.367-1.684-.552-3.09-.552-.695 0-1.394.056-2.095.164-.515.079-.567.092-.887.161-.658.143-.759.801-.759.801l-.211.869c-.12.555.197.532.337.489.287-.087.443-.173 1.028-.305.56-.127 1.151-.222 1.623-.218.692 0 1.219.076 1.569.222.35.153.523.413.523.785.001.088.003.172-.028.245-.029.068-.084.134-.25.156-.988.059-1.697.149-2.551.274-.842.119-1.58.322-2.196.603-.657.292-1.149.681-1.487 1.176-.33.496-.495 1.097-.496 1.806 0 .669.241 1.215.706 1.639.471.418 1.083.625 1.824.625.463-.003.825-.037 1.085-.102.257-.065.537-.157.834-.285.221-.093.46-.226.712-.394l.652-.435.008.014-.063.278-.004.007.002.005c-.072.335.13.614.462.647l.004.006h.029l.001.002 1.331-.002h.247l.024-.009c.339-.042.664-.318.741-.65l1.263-5.452c.029-.128.052-.276.066-.447l.029-.416c.003-.77-.328-1.34-.983-1.707zm-3.06 6.496c-.215.135-.441.251-.679.35-.319.129-.622.196-.902.196-.43 0-.76-.061-.984-.191-.224-.123-.341-.338-.337-.644 0-.354.081-.629.251-.845.17-.207.424-.374.738-.499.312-.106.697-.193 1.14-.256.394-.05 1.174-.14 1.274-.14.1-.001.166-.056.122.21-.02.115-.245 1.04-.348 1.46-.031.126-.199.31-.275.359z"/><path fill="#036" d="M36.583 19.262c-.37 0-.856.3-1.087.662 0 0-2.478 4.249-2.722 4.674-.132.228-.266.083-.289-.002l-.768-4.644c-.084-.366-.466-.679-.944-.678l-1.545.003c-.373 0-.605.298-.522.659 0 0 1.181 6.696 1.412 8.271.115.871-.012 1.025-.012 1.025l-1.532 2.671c-.224.362-.102.659.269.659l1.791-.001c.371 0 .862-.295 1.083-.658l6.89-11.653s.659-.995.051-.987c-.413.005-2.075-.001-2.075-.001m-21.75 2.369c-.521.381-1.244.572-2.182.572h-.424c-.374 0-.61-.296-.527-.66l.521-2.244c.079-.361.452-.661.826-.658l.566-.004c.661 0 1.164.113 1.503.338.334.219.504.565.498 1.03.009.701-.257 1.243-.781 1.626m3.735-3.458c-.215-.419-.537-.76-.948-1.017-.427-.263-.923-.445-1.501-.554-.582-.104-1.262-.155-2.042-.162l-3.61.003c-.375.005-.743.299-.829.659l-2.436 10.583c-.084.362.151.661.524.661h1.73c.374 0 .745-.292.828-.661l.596-2.568c.08-.359.449-.656.824-.656h.494c2.115-.002 3.756-.435 4.935-1.301 1.177-.864 1.766-2.01 1.763-3.427.004-.624-.103-1.145-.328-1.56"/><path fill="#369" d="M46.236 21.674c-.518.377-1.246.566-2.182.566h-.431c-.372.004-.613-.297-.524-.658l.519-2.247c.077-.356.455-.658.822-.655l.569-.003c.664.003 1.16.114 1.503.335.337.223.5.57.503 1.031.002.704-.258 1.245-.779 1.631m3.733-3.463c-.216-.419-.541-.757-.953-1.02-.422-.262-.923-.445-1.504-.552-.574-.101-1.256-.158-2.034-.16l-3.619.002c-.373.006-.738.299-.824.659l-2.433 10.587c-.089.36.153.659.519.658l1.736-.003c.368.003.744-.295.83-.654l.587-2.569c.082-.36.457-.662.831-.656h.495c2.118 0 3.76-.435 4.936-1.301 1.173-.87 1.763-2.012 1.763-3.432-.004-.622-.109-1.145-.33-1.559"/><path fill="#036" d="M26.905 19.685c-.657-.366-1.684-.551-3.089-.551-.695 0-1.394.055-2.095.164-.515.078-.567.092-.887.161-.658.144-.759.802-.759.802l-.211.869c-.119.555.197.532.338.489.287-.087.443-.172 1.029-.305.559-.127 1.151-.222 1.623-.218.693 0 1.219.076 1.569.222.35.153.523.413.523.785.002.089.004.172-.027.245-.029.068-.085.134-.25.156-.987.06-1.696.149-2.551.274-.843.119-1.579.322-2.196.603-.657.292-1.148.682-1.486 1.176-.331.496-.496 1.097-.497 1.806 0 .669.241 1.215.706 1.639.471.418 1.083.626 1.824.626.463-.003.825-.037 1.086-.102.257-.065.537-.157.832-.285.222-.093.46-.227.713-.395l.653-.435.007.014-.063.278-.004.008.003.005c-.072.336.129.615.461.647l.004.006h.029l.001.002 1.331-.002h.247l.024-.009c.34-.043.664-.319.741-.649l1.263-5.452c.029-.128.052-.276.064-.446l.03-.416c0-.775-.332-1.346-.986-1.712zm-3.061 6.496c-.215.135-.441.251-.679.349-.319.128-.623.196-.903.196-.429 0-.76-.061-.984-.191-.223-.124-.341-.338-.337-.645 0-.353.083-.629.252-.844.171-.208.423-.375.737-.499.313-.106.698-.193 1.141-.255.394-.05 1.175-.139 1.274-.141.099 0 .166-.056.121.21-.019.115-.245 1.04-.348 1.46-.031.128-.198.311-.274.36z"/><path fill="#369" d="M64.276 16.566h-1.551c-.345 0-.689.261-.799.594l-.029.065-.095.433-2.132 9.667-.091.392.004.006c-.072.333.129.602.456.638l.01.014h1.606c.341 0 .681-.256.795-.583l.034-.076 2.319-10.492-.004-.001c.079-.359-.152-.657-.523-.657z"/></svg>