<svg xmlns="http://www.w3.org/2000/svg" viewBox="0 0 512 512" enable-background="new 0 0 512 512"><path d="M512 402.282c0 16.716-13.55 30.267-30.265 30.267h-451.47c-16.715 0-30.265-13.553-30.265-30.267v-292.565c0-16.716 13.55-30.266 30.265-30.266h451.469c16.716 0 30.265 13.551 30.265 30.266l.001 292.565z" fill="#51B151"/><path d="M21.517 402.282v-292.565c0-16.716 13.552-30.266 30.267-30.266h-21.52c-16.714 0-30.264 13.552-30.264 30.266v292.565c0 16.716 13.55 30.267 30.265 30.267h21.52c-16.715 0-30.268-13.553-30.268-30.267z" opacity=".15" fill="#202121" enable-background="new"/><path d="M59.272 270.962c3.87 1.992 11.198 4.84 17.697 4.84 5.528 0 8.432-2.847 8.432-6.263 0-3.415-2.213-5.836-8.432-8.968-7.746-3.985-14.244-9.82-14.244-18.503 0-14.52 12.307-24.056 29.726-24.056 7.883 0 14.104 1.709 17.282 3.558l-4.7 14.519c-2.765-1.28-7.604-2.99-13.55-2.99-5.252 0-8.711 2.278-8.711 6.121 0 2.848 2.767 5.267 8.159 7.829 7.465 3.843 15.209 9.537 15.209 19.217 0 15.941-13.135 24.624-31.108 24.481-8.435-.141-16.591-2.42-20.6-5.408l4.84-14.377zm47.389 19.787l18.666-101.062h19.909l-7.604 40.425h.276c5.67-6.406 12.72-10.534 21.57-10.534 10.506 0 17.006 6.833 17.006 18.789 0 3.273-.554 8.683-1.245 12.526l-7.328 39.856h-19.911l7.052-38.147c.552-2.706.828-5.694.828-8.541 0-4.697-1.798-7.971-6.774-7.971-7.052 0-14.102 8.825-16.591 22.775l-5.946 31.884h-19.908zm101.934 0c-17.28 0-28.759-11.529-28.759-28.752 0-24.055 16.315-43.984 40.371-43.984 18.252 0 28.759 12.811 28.759 28.753 0 25.337-17.006 43.983-40.232 43.983h-.139zm2.627-15.657c10.784 0 17.006-16.37 17.006-28.183 0-6.548-2.765-13.239-10.645-13.239-11.474 0-17.282 17.082-17.282 27.9 0 8.113 4.01 13.522 10.784 13.522h.137zm29.51 42.878l13.135-70.886c1.522-8.255 3.041-20.354 3.872-27.472h17.834l-1.243 10.676h.276c5.531-7.544 13.55-11.672 21.707-11.672 14.654 0 21.843 12.099 21.843 26.476 0 24.055-15.622 46.259-39.263 46.259-5.394 0-10.093-1.422-12.444-2.847h-.415l-5.392 29.466h-19.911.001zm28.483-45.407c2.211 1.992 5.116 3.273 9.126 3.273 10.644 0 18.942-15.515 18.942-29.181 0-5.551-2.352-11.386-8.711-11.386-7.467 0-14.381 8.54-16.867 22.205l-2.49 15.089zm48.942 17.122l12.859-69.604h19.772l-12.72 69.604h-19.911zm25.165-78.714c-5.809 0-10.093-4.271-10.093-10.676 0-7.401 5.67-12.383 12.168-12.383 6.222 0 10.645 4.127 10.645 10.675 0 7.828-5.807 12.384-12.581 12.384h-.139zm8.146 78.719l9.954-53.947h-8.711l2.765-15.657h8.85l.552-3.558c1.522-8.398 4.703-17.081 11.475-22.916 5.528-4.698 12.72-6.548 19.357-6.548 4.7 0 8.296.712 10.506 1.707l-3.456 16.227c-1.795-.712-3.871-1.139-6.361-1.139-6.498 0-10.506 5.836-11.75 12.811l-.552 3.416h13.272l-2.904 15.657h-13.133l-9.956 53.947h-19.908zm70.471-69.296l4.148 30.318c.969 7.259 1.658 12.241 2.213 16.653h.278c1.517-4.27 3.039-8.825 5.944-16.368l12.305-30.603h21.015l-24.193 49.961c-8.987 18.504-17.006 31.173-25.994 39.856-7.88 7.687-17.282 11.103-21.707 11.814l-4.424-17.508c3.18-.996 7.604-2.705 11.474-5.551 4.564-3.273 8.435-7.402 11.064-12.099.55-.997.55-1.85.274-3.273l-13.272-63.199 20.875-.001z" fill="#fff"/></svg>