<svg viewBox="0 0 160 100" xmlns="http://www.w3.org/2000/svg"><title/><g fill="none"><path d="M148 0h-140c-4 0-8 4-8 8v80c0 8 4 12 12 12h136c8 0 12-4 12-12v-76c0-8-4-12-12-12zm0 0" fill="#6A3494"/><path d="M109.663 38.571c2.977 0 5.39-2.366 5.39-5.284 0-2.919-2.413-5.287-5.39-5.287-2.974 0-5.386 2.368-5.386 5.287 0 2.918 2.412 5.284 5.386 5.284zm-41.284 2.853c-.243.6-1.993 5.451-6.227 10.478v-21.497l-11.281 2.188v38.964h11.281v-12.044c3.267 4.807 4.881 12.044 4.881 12.044h13.512c-1.337-5.45-7.183-15.501-7.183-15.501 5.247-6.526 7.552-13.479 7.919-14.632h-12.901zm29.658-.406c-10.104.318-15.234 4.765-15.234 13.605v16.934h11.023v-13.809c0-5.294.707-7.563 7.11-7.779v-8.796c-1.078-.224-2.9-.155-2.9-.155zm-66.086 4.697c-1.382-.089-4.581-.291-4.581-3.116 0-3.409 4.606-3.409 6.333-3.409 3.037 0 6.971.88 9.781 1.704 0 0 1.567.542 2.9 1.098l.125.033v-9.336l-.17-.049c-3.315-1.138-7.171-2.233-14.318-2.233-12.324 0-16.69 7.042-16.69 13.076 0 3.478 1.519 11.662 15.633 12.606 1.196.072 4.371.251 4.371 3.171 0 2.41-2.599 3.832-6.971 3.832-4.792 0-9.44-1.199-12.263-2.335v9.616c4.226 1.087 8.991 1.63 14.575 1.63 12.05 0 17.446-6.663 17.446-13.267 0-7.488-6.039-12.352-16.171-13.018zm72.247 25.842h10.934v-30.098h-10.934v30.098zm31.523-39.232v39.232h10.936v-41.151l-10.936 1.919zm-15.957 0l10.926-1.919v41.151h-10.926v-39.232zm0 0" fill="#fff"/></g></svg>