<svg xmlns="http://www.w3.org/2000/svg" viewBox="0 0 512 512" enable-background="new 0 0 512 512"><path d="M512 402.282c0 16.715-13.55 30.267-30.265 30.267h-451.47c-16.715 0-30.265-13.553-30.265-30.267v-292.565c0-16.716 13.55-30.266 30.265-30.266h451.469c16.716 0 30.265 13.551 30.265 30.266l.001 292.565z" fill="#00A051"/><path d="M21.517 402.282v-292.565c0-16.716 13.552-30.266 30.267-30.266h-21.52c-16.714 0-30.264 13.552-30.264 30.266v292.565c0 16.715 13.55 30.267 30.265 30.267h21.52c-16.715 0-30.268-13.553-30.268-30.267z" opacity=".15" fill="#202121" enable-background="new"/><path d="M323.261 265.742c-.572-14.328-4.01-28.082-9.741-40.694-5.732-12.607-13.754-24.645-23.5-34.387l-28.074 26.948-.009-.012-.574.573c5.732 5.734 10.32 12.611 13.756 20.063 3.439 7.447 5.73 14.898 6.879 22.922 1.143 8.025 1.143 16.05-.574 24.071-1.722 8.025-4.585 15.477-8.024 22.353-3.439 6.304-7.452 12.038-12.038 16.624-4.582 4.582-10.317 8.595-16.046 12.033-5.734 3.439-12.036 5.734-18.341 7.452-8.598 2.291-17.193 2.865-25.791 1.72-8.596-.572-17.193-2.867-25.219-6.876-8.024-3.444-15.471-8.599-21.205-14.903l-27.509 27.51c10.316 10.316 22.352 18.341 35.533 24.071 12.606 6.306 26.937 9.171 41.265 9.746 14.328.57 28.656-1.722 42.413-6.882 10.891-4.009 21.207-9.168 30.376-16.047 9.172-6.876 17.191-14.901 24.07-24.07 6.879-9.171 12.036-19.489 16.05-30.378 4.586-13.18 6.876-27.508 6.303-41.837z" fill="#fff"/><path d="M350.2 136.214c-13.183-5.73-27.511-9.168-41.842-9.168-11.254-.451-22.509.874-33.487 3.962l-1.008.28-.322.096c-2.531.732-5.063 1.564-7.593 2.538-13.754 5.158-25.791 12.607-36.106 21.207-10.318 8.021-18.342 18.34-24.646 28.656-6.302 10.89-10.889 22.923-13.181 34.961-2.294 12.035-2.865 24.645-1.148 37.255 1.722 12.607 5.161 24.645 10.891 35.534 5.159 10.889 12.036 20.631 20.63 29.226l-.02-.042c.387.397.771.795 1.168 1.19l27.509-27.509c-5.729-5.732-10.889-12.611-14.328-20.06-3.437-7.447-6.302-15.472-6.876-23.497-1.143-8.024-.574-16.62 1.148-24.645 1.717-8.025 4.585-16.049 9.167-22.926 4.013-6.878 9.746-13.755 16.624-18.911 6.876-5.733 14.903-10.319 24.07-13.185 8.598-2.864 18.342-4.581 27.509-4.013 8.6-.57 17.768 1.72 26.368 5.16 8.598 3.438 16.62 9.168 23.495 15.475l27.513-27.512c-10.315-10.319-22.352-18.344-35.535-24.072z" fill="#34495E"/></svg>