<svg xmlns="http://www.w3.org/2000/svg" viewBox="0 0 72 45" enable-background="new 0 0 72 45"><linearGradient id="a" gradientUnits="userSpaceOnUse" x1="36" x2="36" y2="45"><stop offset="0" stop-color="#fff"/><stop offset="1" stop-color="#BDCCD4"/></linearGradient><path fill="url(#a)" d="M72 40.5c0 2.475-2.025 4.5-4.5 4.5h-63c-2.475 0-4.5-2.025-4.5-4.5v-36c0-2.475 2.025-4.5 4.5-4.5h63c2.475 0 4.5 2.025 4.5 4.5v36z"/><path fill="#999" d="M67.5.15c2.399 0 4.35 1.951 4.35 4.35v36c0 2.399-1.951 4.35-4.35 4.35h-63c-2.399 0-4.35-1.951-4.35-4.35v-36c0-2.399 1.951-4.35 4.35-4.35h63m0-.15h-63c-2.475 0-4.5 2.025-4.5 4.5v36c0 2.475 2.025 4.5 4.5 4.5h63c2.475 0 4.5-2.025 4.5-4.5v-36c0-2.475-2.025-4.5-4.5-4.5z"/><path fill="#0058A0" d="M26.629 30.689l2.521-16.224h4.178l-2.614 16.224h-4.021m19.174-15.86c-.826-.325-2.125-.679-3.743-.679-4.13 0-7.037 2.196-7.061 5.339-.026 2.325 2.075 3.622 3.659 4.395 1.628.792 2.175 1.299 2.168 2.008-.011 1.084-1.299 1.58-2.5 1.58-1.672 0-2.561-.245-3.935-.848l-.537-.258-.584 3.621c.974.451 2.78.842 4.654.862 4.389 0 7.241-2.169 7.275-5.526.015-1.844-1.098-3.242-3.509-4.396-1.46-.75-2.356-1.247-2.345-2.006.001-.672.757-1.392 2.393-1.392 1.366-.022 2.356.293 3.126.622l.375.185.564-3.507m11.06-.364h-3.572c-1.001 0-1.751.314-2.19 1.369l-6.204 14.854h4.387s.716-2.031.878-2.469l5.351.027c.125.565.509 2.442.509 2.442h3.877l-3.288-16.223m-5.245 10.324c.346-.737 1.664-4.48 1.664-4.48-.024.043.344-.916.555-1.522l.282 1.364s.802 3.901.967 4.638h-3.468zm-28.305-10.42l-4.135 11.068-.461-2.223c-.762-2.583-3.145-5.374-5.798-6.777l3.735 14.154 4.418.01 6.575-16.136h-4.454"/><path fill="#FAA61A" d="M15.148 14.465h-6.736l-.056.32c5.242 1.34 8.71 4.567 10.15 8.456l-1.464-7.422c-.253-1.026-.987-1.354-1.894-1.354z"/></svg>