<svg viewBox="0 0 160 100" xmlns="http://www.w3.org/2000/svg"><title/><g fill="none"><path d="M148 0h-140c-4 0-8 4-8 8v80c0 8 4 12 12 12h136c8 0 12-4 12-12v-76c0-8-4-12-12-12zm0 0" fill="#1C1C1C"/><path d="M54.412 65.823c-1.001-.217-2.134-.757-2.742-1.306-.271-.245-.665-.797-.88-1.233l-.389-.789-.034-5.399-.034-5.399h5.734v4.621c0 4.164.021 4.662.209 5.03.261.512.503.662.903.561.654-.164.676-.343.676-5.496v-4.717h5.844v4.873c0 2.775-.052 5.146-.12 5.507-.381 2.007-1.752 3.265-4.079 3.742-1.149.236-4.011.238-5.088.005zm46.04-.058c-1.204-.315-1.983-.761-2.844-1.625-1.33-1.335-1.867-2.909-1.867-5.468 0-2.56.547-4.145 1.9-5.502 1.292-1.295 2.834-1.828 5.293-1.828 2.471 0 4.013.532 5.316 1.835 1.359 1.359 1.892 2.907 1.892 5.495 0 2.598-.524 4.131-1.872 5.479-1.358 1.358-2.818 1.859-5.384 1.848-1.137-.005-1.798-.069-2.433-.235zm3.048-3.877c.786-.551.986-4.605.296-6.013-.391-.798-1.29-.803-1.694-.01-.73 1.432-.459 5.789.382 6.127.304.122.761.076 1.017-.103zm29.174-11.504v-15.384h2.146v30.768h-2.146v-15.384zm11.283.179v-15.205h2.028v30.41h-2.028v-15.205zm-76.204 8.109v-6.976h6.894l.352.984c.194.541.749 2.121 1.234 3.511l.881 2.527.032-3.511.032-3.511h4.766v13.952l-3.429-.001-3.429-.001-1.252-3.632-1.252-3.632-.032 3.634-.032 3.634h-4.766v-6.976zm18.485 0v-6.976h5.724v13.952h-5.724v-6.976zm27.667 0v-6.976h6.886l1.238 3.548 1.238 3.548.032-3.548.032-3.548h4.766v13.952h-6.87l-1.246-3.602-1.246-3.602-.032 3.602-.032 3.602h-4.766v-6.976zm-59.229-9.127c-1.36-.243-2.74-.953-3.314-1.705-.432-.567-.748-1.43-.849-2.325l-.083-.736h2.818c2.761 0 2.818.005 2.818.244 0 .345.318.918.59 1.064.434.232.958.143 1.328-.226.759-.759.397-1.022-2.639-1.924-3.138-.932-3.741-1.285-4.268-2.498-.48-1.104-.428-2.899.116-3.964.557-1.091 1.868-1.949 3.514-2.297 1.126-.239 3.85-.233 5.026.01 2.234.462 3.427 1.659 3.582 3.598l.06.745h-5.28v-.277c0-.41-.473-.796-.975-.796-.406 0-1.052.368-1.052.6 0 .298.621.599 1.946.944 2.949.767 3.891 1.156 4.695 1.94.772.752 1.036 1.475 1.038 2.836.001.623-.069 1.348-.156 1.61-.449 1.364-1.531 2.35-3.163 2.88-.862.28-1.179.317-3.049.349-1.148.02-2.364-.013-2.702-.073zm-38.799-.337c0-.056-.644-3.075-1.431-6.708s-1.431-6.727-1.431-6.876v-.271l2.59.032 2.59.032.478 3.601c.263 1.981.491 3.587.508 3.571.017-.017.247-1.503.511-3.303s.511-3.42.549-3.6l.069-.328h5.92l.125.745c.069.41.293 1.926.498 3.369.205 1.443.41 2.72.455 2.837.045.117.295-1.399.555-3.369l.473-3.582h2.597c2.394 0 2.597.016 2.598.209 0 .115-.656 3.254-1.46 6.976l-1.46 6.768h-6.234l-.127-.865c-.07-.476-.299-2.099-.51-3.607-.211-1.509-.417-2.782-.458-2.83-.041-.048-.31 1.575-.597 3.607l-.522 3.695h-3.142c-1.728 0-3.142-.046-3.142-.103zm3.292-6.066c-.04-.04-.068.031-.063.157.006.139.034.167.072.072.034-.086.03-.189-.009-.229zm17.339-.807v-6.976h10.732v3.936h-5.128v1.074h4.77v3.936h-4.77v1.074h5.366v3.936h-10.972v-6.976zm33.392 1.968v-5.009h-3.34v-3.936h12.402v3.936h-3.34v10.018h-5.724v-5.009zm12.403-1.968v-6.976h10.732v3.936h-5.128v1.074h4.77v3.936h-4.77v1.074h5.366v3.936h-10.972v-6.976zm14.668 0v-6.976h4.824c5.067 0 5.652.048 6.625.54 1.115.564 1.544 1.386 1.548 2.965.001.583-.059 1.264-.134 1.514-.181.605-.732 1.254-1.319 1.553l-.478.244.503.249c.862.427 1.071.938 1.375 3.371.106.853.297 1.974.423 2.491.126.517.229.96.229.984 0 .024-1.286.043-2.858.043h-2.858l-.12-.447c-.066-.246-.231-1.199-.366-2.117-.278-1.895-.408-2.125-1.282-2.265l-.507-.081v4.91h-5.606v-6.976zm7.103-1.743c.438-.438.492-.951.143-1.357-.237-.276-.409-.346-.965-.392l-.676-.056v2.206l.607-.058c.428-.041.691-.142.892-.343zm9.831 1.743v-6.976h6.886l1.238 3.548 1.238 3.548.032-3.548.032-3.548h4.766v13.952h-6.862l-1.25-3.602-1.25-3.602-.032 3.602-.032 3.602h-4.766v-6.976zm0 0" fill="#DFAC16"/></g></svg>