<svg width="80" height="27" viewBox="0 0 80 27" fill="none" xmlns="http://www.w3.org/2000/svg">
<path d="M0 5.86829H2.79441V12.0559H8.66267V5.86829H11.4571V21.0779H8.66267V14.7306H2.79441V21.0779H0V5.86829ZM20.3194 16.1278C20.3194 17.4052 19.2814 18.4431 18.004 18.4431C16.7265 18.4431 15.6886 17.4052 15.6886 16.1278V9.58086H13.0539V16.1278C13.0539 18.8423 15.2894 21.0779 18.004 21.0779C20.7186 21.0779 22.9541 18.8423 22.9541 16.1278V9.58086H20.3194V16.1278ZM30.3393 9.62078C29.022 9.62078 28.1038 10.02 27.2255 10.8583V5.86829H24.5908V15.1697C24.5908 18.6427 27.1058 21.038 29.9401 21.038C33.0938 21.038 35.8483 18.6028 35.8483 15.3294C35.8483 12.1358 33.2934 9.62078 30.3393 9.62078ZM30.4192 18.6028C28.6228 18.6028 27.2255 17.0859 27.2255 15.3294C27.2255 13.5729 28.5828 12.0559 30.4192 12.0559C31.9361 12.0559 33.3333 13.5729 33.3333 15.3294C33.2934 17.1258 31.9361 18.6028 30.4192 18.6028ZM40.3194 10.2994C40.3194 8.98206 41.1976 8.54294 42.1956 8.54294C42.994 8.54294 44.0319 9.14174 44.7106 9.8603L46.4271 7.82437C45.5489 6.66669 43.7924 5.86829 42.3553 5.86829C39.481 5.86829 37.4052 7.54493 37.4052 10.2994C37.4052 15.4491 43.7525 13.8124 43.7525 16.6867C43.7525 17.5649 42.8743 18.3633 41.8762 18.3633C40.3194 18.3633 39.8004 17.6048 39.0818 16.8064L37.1657 18.8024C38.4032 20.3194 39.9202 21.0779 41.7565 21.0779C44.4711 21.0779 46.7066 19.4012 46.7066 16.7266C46.6267 11.018 40.3194 12.7745 40.3194 10.2994ZM53.6128 9.50102C50.7784 9.50102 48.2635 11.8962 48.2635 15.3693V24.7106H50.8982V19.6807C51.7764 20.5589 52.6946 20.9182 54.012 20.9182C56.9661 20.9182 59.521 18.4431 59.521 15.2096C59.521 11.9362 56.7665 9.50102 53.6128 9.50102ZM54.0918 18.4831C52.2954 18.4831 50.8982 16.9661 50.8982 15.2096C50.8982 13.4531 52.2555 11.9362 54.0918 11.9362C55.6088 11.9362 57.006 13.4531 57.006 15.2096C57.006 16.9661 55.6088 18.4831 54.0918 18.4831ZM79.0818 18.6028C77.525 18.6028 77.0858 17.9242 77.0858 16.8863V12.2954H79.521V9.98006H77.0459V6.90621L74.3713 8.10382V17.4451C74.3713 19.8403 76.008 21.038 78.2834 21.038C78.6028 21.038 79.0818 20.998 79.3613 20.9581L80 18.5629C79.7206 18.6028 79.3613 18.6028 79.0818 18.6028Z" fill="#2D374B"/>
<path d="M72.0547 12.4551C71.5357 11.5769 70.8172 10.8583 69.9389 10.3393C69.2603 9.94012 68.5816 9.7006 67.7832 9.58084V6.78643C68.5816 6.46707 69.0607 5.70859 69.0607 4.87026C69.0607 3.71258 68.1425 2.75449 66.9449 2.75449C65.7872 2.75449 64.8291 3.71258 64.8291 4.87026C64.8291 5.70859 65.2683 6.46707 66.0667 6.78643V9.58084C65.4279 9.66068 64.7892 9.86028 64.1904 10.1796C62.9928 9.26148 59.0008 6.26747 56.6854 4.47106C56.7253 4.27146 56.7653 4.07186 56.7653 3.87226C56.7653 2.59481 55.7273 1.51697 54.41 1.51697C53.0926 1.51697 52.0547 2.55489 52.0547 3.87226C52.0547 5.1497 53.0926 6.22755 54.41 6.22755C54.8491 6.22755 55.2483 6.10779 55.6076 5.86827L56.0866 6.22755L62.7932 11.0579C62.4339 11.3772 62.1146 11.7365 61.8351 12.1757C61.3162 13.014 60.9569 13.9721 60.9569 14.9701V15.1697C60.9569 15.8882 61.0766 16.5669 61.3162 17.2056C61.5158 17.7645 61.8351 18.2834 62.1944 18.7226L59.9589 20.9581C59.2802 20.7186 58.5617 20.8783 58.0427 21.3573C57.6834 21.6767 57.5238 22.1557 57.5238 22.6347C57.5238 23.1138 57.7233 23.5529 58.0427 23.9122C58.3621 24.2715 58.8411 24.4311 59.3202 24.4311C59.7992 24.4311 60.2782 24.2315 60.5976 23.9122C60.9569 23.5928 61.1166 23.1138 61.1166 22.6347C61.1166 22.4351 61.0766 22.2755 61.0367 22.0759L63.3521 19.7605C63.6715 19.9601 63.9908 20.1597 64.39 20.3194C65.1086 20.6387 65.907 20.8383 66.7852 20.8383H66.9449C67.903 20.8383 68.8212 20.5988 69.6994 20.1597C70.6176 19.6806 71.2962 19.002 71.8551 18.1238C72.374 17.2455 72.6934 16.3274 72.6934 15.2495V15.2096C72.8132 14.2515 72.5736 13.2934 72.0547 12.4551ZM69.2603 17.2854C68.6216 17.9641 67.903 18.4032 67.1046 18.4032H66.9848C66.5058 18.4032 66.0667 18.2834 65.6275 18.0439C65.1086 17.8044 64.7493 17.4052 64.4299 16.9661C64.1106 16.527 63.9509 16.008 63.9509 15.489V15.3293C63.9509 14.8104 64.0307 14.3313 64.3102 13.8523C64.5896 13.3333 64.9489 12.9341 65.4279 12.6547C65.907 12.3353 66.4259 12.1757 66.9848 12.1757H67.0247C67.5437 12.1757 68.0228 12.2954 68.4619 12.495C68.9409 12.7345 69.3002 13.0938 69.6196 13.5329C69.899 13.9721 70.0587 14.4511 70.1385 14.9701C70.1385 15.0898 70.1385 15.2096 70.1385 15.2894C70.0587 16.008 69.7792 16.6866 69.2603 17.2854Z" fill="#2D374B"/>
</svg>
