<svg width="227" height="88" viewBox="0 0 227 88" fill="none" xmlns="http://www.w3.org/2000/svg">
<path d="M155.1 50.7001C151 50.7001 147.5 51.7001 144.5 53.1001C143.4 50.9001 142.3 49.0001 142.1 47.6001C142 46.0001 141.7 45.0001 142 43.0001C142.3 41.0001 143.4 38.3001 143.4 38.0001C143.4 37.8001 143.1 36.8001 140.8 36.8001C138.5 36.8001 136.4 37.2001 136.2 37.9001C136 38.5001 135.5 39.9001 135.2 41.4001C134.8 43.5001 130.5 51.1001 128.1 55.1001C127.3 53.5001 126.6 52.2001 126.5 51.1001C126.3 49.5001 126 48.5001 126.3 46.5001C126.6 44.5001 127.7 41.8001 127.7 41.5001C127.7 41.3001 127.4 40.3001 125.1 40.3001C122.8 40.3001 120.7 40.7001 120.5 41.4001C120.3 42.0001 120 43.5001 119.5 44.9001C119 46.3001 113.3 59.0001 111.8 62.3001C111 64.0001 110.4 65.3001 109.9 66.2001C109.9 66.2001 109.9 66.3001 109.8 66.4001C109.4 67.2001 109.2 67.6001 109.2 67.6001C108.9 68.2001 108.5 68.7001 108.4 68.7001C108.3 68.7001 108 67.2001 108.4 65.1001C109.3 60.7001 111.3 53.8001 111.3 53.6001C111.3 53.5001 111.7 52.3001 110 51.7001C108.3 51.1001 107.7 52.1001 107.6 52.1001C107.5 52.1001 107.3 52.5001 107.3 52.5001C107.3 52.5001 109.2 44.8001 103.8 44.8001C100.4 44.8001 95.8001 48.5001 93.5001 51.8001C92.1001 52.6001 89.0001 54.3001 85.7001 56.1001C84.4001 56.8001 83.1001 57.5001 81.9001 58.2001C81.8001 58.1001 81.7001 58.0001 81.6001 57.9001C75.0001 50.8001 63.0001 45.8001 63.5001 36.5001C63.7001 33.1001 64.9001 24.2001 86.6001 13.3001C104.5 4.50005 118.8 6.90005 121.3 12.3001C124.8 20.1001 113.7 34.4001 95.1001 36.5001C88.0001 37.3001 84.3001 34.6001 83.4001 33.5001C82.4001 32.4001 82.3001 32.4001 81.9001 32.6001C81.3001 32.9001 81.7001 33.9001 81.9001 34.4001C82.5001 35.8001 84.7001 38.4001 88.6001 39.7001C92.0001 40.8001 100.3 41.4001 110.3 37.5001C121.5 33.2001 130.3 21.1001 127.7 11.0001C125.2 0.800058 108.1 -2.49995 92.0001 3.20005C82.4001 6.60005 72.0001 12.0001 64.6001 18.9001C55.7001 27.2001 54.3001 34.4001 54.9001 37.4001C57.0001 48.1001 71.8001 55.1001 77.7001 60.3001C77.4001 60.5001 77.1001 60.6001 76.9001 60.7001C73.9001 62.2001 62.7001 68.1001 59.8001 74.3001C56.6001 81.4001 60.3001 86.4001 62.8001 87.1001C70.4001 89.2001 78.2001 85.4001 82.4001 79.2001C86.6001 72.9001 86.1001 64.8001 84.1001 61.1001C84.1001 61.1001 84.1001 61.0001 84.0001 61.0001C84.8001 60.6001 85.6001 60.1001 86.3001 59.6001C87.8001 58.7001 89.3001 57.9001 90.6001 57.2001C89.9001 59.2001 89.3001 61.5001 89.1001 65.0001C88.8001 69.0001 90.4001 74.2001 92.6001 76.2001C93.6001 77.1001 94.7001 77.1001 95.4001 77.1001C97.9001 77.1001 99.0001 75.0001 100.3 72.5001C101.8 69.5001 103.2 66.0001 103.2 66.0001C103.2 66.0001 101.5 75.5001 106.2 75.5001C107.9 75.5001 109.6 73.3001 110.4 72.2001C110.4 72.2001 110.4 72.1001 110.5 72.0001C110.7 71.7001 110.8 71.6001 110.8 71.6001C111.5 70.4001 113 67.7001 115.3 63.2001C118.2 57.4001 121.1 50.2001 121.1 50.2001C121.1 50.2001 121.4 52.0001 122.2 54.9001C122.7 56.6001 123.8 58.5001 124.6 60.4001C123.9 61.4001 123.5 61.9001 123.5 61.9001C122.9 62.6001 122.4 63.4001 121.7 64.2001C119.4 67.0001 116.6 70.1001 116.2 71.1001C115.8 72.2001 115.9 73.0001 116.7 73.6001C117.3 74.1001 118.4 74.1001 119.6 74.1001C121.7 74.0001 123.2 73.4001 123.9 73.1001C125 72.7001 126.3 72.1001 127.6 71.2001C129.9 69.5001 131.3 67.1001 131.1 63.9001C131 62.2001 130.5 60.4001 129.8 58.8001C130 58.5001 130.2 58.2001 130.4 57.9001C134 52.6001 136.8 46.9001 136.8 46.9001C136.8 46.9001 137.1 48.7001 137.9 51.6001C138.3 53.1001 139.2 54.7001 140 56.3001C136.6 59.0001 134.5 62.2001 133.8 64.3001C132.5 68.2001 133.5 69.9001 135.5 70.3001C136.4 70.5001 137.7 70.1001 138.6 69.7001C139.8 69.3001 141.2 68.7001 142.5 67.7001C144.8 66.0001 147 63.7001 146.8 60.5001C146.7 59.1001 146.4 57.6001 145.8 56.2001C148.7 55.0001 152.4 54.3001 157.1 54.9001C167.2 56.1001 169.2 62.4001 168.9 65.1001C168.5 67.8001 166.4 69.2001 165.7 69.7001C165 70.1001 164.8 70.3001 164.8 70.6001C164.9 71.1001 165.2 71.0001 165.8 71.0001C166.6 70.9001 171.1 68.8001 171.3 64.0001C171.6 57.4001 165.7 50.6001 155.1 50.7001ZM76.9001 77.0001C73.5001 80.7001 68.9001 82.0001 66.8001 80.9001C64.6001 79.6001 65.5001 74.2001 69.6001 70.4001C72.1001 68.0001 75.3001 65.8001 77.5001 64.5001C78.0001 64.2001 78.7001 63.8001 79.6001 63.2001C79.7001 63.1001 79.8001 63.1001 79.8001 63.1001C80.0001 63.0001 80.1001 62.9001 80.3001 62.8001C81.9001 68.3001 80.5001 73.2001 76.9001 77.0001ZM101.4 60.4001C100.2 63.3001 97.8001 70.6001 96.3001 70.2001C95.0001 69.9001 94.2001 64.3001 96.0001 58.9001C96.9001 56.2001 98.9001 52.9001 100 51.6001C101.8 49.6001 103.9 48.9001 104.3 49.7001C105 50.7001 102.1 58.6001 101.4 60.4001ZM121.6 70.0001C121.1 70.3001 120.6 70.4001 120.4 70.3001C120.3 70.2001 120.6 69.9001 120.6 69.9001C120.6 69.9001 123.1 67.2001 124.1 65.9001C124.7 65.2001 125.4 64.3001 126.1 63.4001C126.1 63.5001 126.1 63.6001 126.1 63.7001C126.2 66.9001 123 69.1001 121.6 70.0001ZM137.2 66.5001C136.8 66.2001 136.9 65.4001 138.1 62.7001C138.6 61.7001 139.7 59.9001 141.6 58.2001C141.8 58.9001 142 59.5001 141.9 60.2001C141.9 64.3001 139 65.8001 137.2 66.5001Z" fill="#2D374B"/>
</svg>
