<svg xmlns="http://www.w3.org/2000/svg" viewBox="0 0 512 512" enable-background="new 0 0 512 512"><path d="M454.531 52.245l-198.531-52.245-198.531 52.245s-49.633 370.939 198.531 459.755c248.163-88.816 198.531-459.755 198.531-459.755z" fill="#518EF8"/><path d="M256 0v512c-248.163-88.816-198.531-459.755-198.531-459.755l198.531-52.245z" fill="#73AAF9"/><circle cx="256" cy="242.939" r="141.061" fill="#3A5BBC"/><g fill="#F2F2F2"><path d="M256 126.485c30.354 0 54.962 24.607 54.962 54.962s-24.608 54.961-54.962 54.961-54.975-24.607-54.975-54.962 24.621-54.961 54.975-54.961zM365.192 332.238c-25.861 31.595-65.176 51.762-109.192 51.762-44.029 0-83.331-20.167-109.192-51.762 16.875-43.833 59.402-74.932 109.192-74.932s92.317 31.099 109.192 74.932z"/></g></svg>