<svg xmlns="http://www.w3.org/2000/svg" viewBox="0 0 512 512" enable-background="new 0 0 512 512"><path d="M481.241 201.453v248.419c0 16.544-13.392 29.948-29.948 29.948h-390.599c-16.544 0-29.948-13.405-29.948-29.948v-248.419c9.327 5.519 20.21 8.683 31.826 8.683 15.823 0 30.386-5.905 41.487-15.733 11.102-9.815 18.718-23.58 20.634-39.275l2.135-17.547c-.309 2.637-.476 5.274-.476 7.86 0 35.21 28.623 64.695 64.823 64.695 35.801 0 64.823-29.022 64.823-64.81 0 35.789 29.009 64.81 64.81 64.81 36.226 0 64.836-29.485 64.836-64.72 0-2.56-.154-5.146-.476-7.77l2.135 17.483c1.917 15.694 9.532 29.459 20.622 39.275 11.102 9.828 25.677 15.733 41.487 15.733 11.62 0 22.503-3.165 31.829-8.684z" fill="#518EF8"/><path d="M481.241 250.385v30.012c-9.327 5.519-20.21 8.683-31.826 8.683-15.81 0-30.385-5.905-41.487-15.733-11.089-9.815-18.705-23.58-20.622-39.275l-2.135-17.483c.322 2.624.476 5.21.476 7.77 0 35.235-28.61 64.72-64.836 64.72-35.801 0-64.81-29.022-64.81-64.81 0 35.789-29.022 64.81-64.823 64.81-36.2 0-64.823-29.485-64.823-64.695 0-2.586.167-5.223.476-7.86l-2.135 17.547c-1.917 15.694-9.532 29.459-20.634 39.275-11.102 9.828-25.664 15.733-41.487 15.733-11.616 0-22.5-3.165-31.826-8.683v-30.012c9.327 5.519 20.21 8.683 31.826 8.683 15.823 0 30.386-5.905 41.487-15.733 11.102-9.815 18.718-23.58 20.634-39.275l2.135-17.547c-.309 2.637-.476 5.274-.476 7.86 0 35.21 28.623 64.695 64.823 64.695 35.801 0 64.823-29.022 64.823-64.81 0 35.789 29.009 64.81 64.81 64.81 36.226 0 64.836-29.485 64.836-64.72 0-2.56-.154-5.146-.476-7.77l2.135 17.483c1.917 15.694 9.532 29.459 20.622 39.275 11.102 9.828 25.677 15.733 41.487 15.733 11.617.001 22.5-3.164 31.826-8.683z" fill="#4786E2"/><g fill="#ACD1FC"><path d="M385.171 188.508c.322 2.624.476 5.21.476 7.77 0 35.235-28.61 64.72-64.836 64.72-35.801 0-64.81-29.022-64.81-64.81l-30.874-75.351 30.873-88.658h110.119l33.104 88.76-14.065 67.401.013.168zM145.869 32.181l28.658 97.416-47.684 58.744v.001l-2.148 17.649c-1.917 15.694-9.532 29.459-20.634 39.275-11.102 9.828-25.664 15.733-41.487 15.733-11.616 0-22.5-3.165-31.826-8.683v-.013c-18.411-10.884-30.748-30.94-30.748-53.877v-4.644l42.621-145.966c2.705-9.266 11.201-15.635 20.854-15.635h82.394z"/></g><g fill="#3A5BBC"><path d="M481.241 252.315c-9.327 5.519-20.21 8.683-31.826 8.683-15.81 0-30.385-5.905-41.487-15.733-11.089-9.815-18.705-23.58-20.622-39.275l-2.135-17.483-.013-.167-19.039-156.16h82.395c9.652 0 18.148 6.369 20.854 15.634l42.632 145.968v4.644c0 22.937-12.35 42.993-30.759 53.889zM256 32.181v164.007c0 35.789-29.022 64.81-64.823 64.81-36.2 0-64.823-29.485-64.823-64.695 0-2.586.167-5.223.476-7.86l.013-.103 19.026-156.16h110.131z"/></g><path d="M384.708 445.486c-35.481 0-64.347-28.866-64.347-64.347s28.866-64.347 64.347-64.347c17.194 0 33.356 6.692 45.506 18.841l-13.644 13.644c-8.506-8.506-19.821-13.19-31.861-13.19-24.841 0-45.051 20.209-45.051 45.051 0 24.842 20.21 45.051 45.051 45.051 21.53 0 39.581-15.182 44.01-35.403h-44.011v-19.296h64.347v9.648c0 35.481-28.866 64.348-64.347 64.348z" fill="#fff"/></svg>