<svg xmlns="http://www.w3.org/2000/svg" viewBox="0 0 512 512" enable-background="new 0 0 512 512"><path d="M441.412 140.235v338.781c0 18.219-14.778 32.983-32.983 32.983h-304.857c-18.219 0-32.983-14.764-32.983-32.983v-446.033c-.001-18.219 14.763-32.983 32.983-32.983h197.605l140.235 140.235z" fill="#518EF8"/><g fill="#fff"><path d="M161.18 257.054h189.626v21.071h-189.626zM161.18 304.112h189.626v21.071h-189.626zM161.18 351.171h189.626v21.071h-189.626zM161.18 398.23h134.855v21.071h-134.855z"/></g><path fill="#3A5BBC" d="M320.31 137.188l121.102 49.891v-46.844l-68.661-20.273z"/><path d="M441.412 140.235h-107.252c-18.22 0-32.983-14.764-32.983-32.983v-107.252l140.235 140.235z" fill="#ACD1FC"/></svg>