<svg xmlns="http://www.w3.org/2000/svg" viewBox="0 0 512 512" enable-background="new 0 0 512 512"><path d="M397.504 425.529v51.919h-397.504v-442.896l36.571 28.207 36.559-28.207 36.571 28.207 36.571-28.207 36.571 28.207 36.558-28.207 36.584 28.207 36.558-28.207 36.571 28.207 36.584-28.207 36.571 28.207 36.571-28.207 36.584 28.207 36.576-28.207v328.387h-114.496v62.59z" fill="#E6E6E6"/><path fill="#3A5BBC" d="M35.699 219.324h220.041v220.041h-220.041z"/><path fill="#518EF8" d="M35.699 123.668h440.59v57.118h-440.59z"/><g fill="#ccc"><path d="M290.461 226.738h195.599v19.543h-195.599zM290.461 273.993h195.599v19.543h-195.599zM290.461 321.247h195.599v19.543h-195.599zM290.461 368.502h116.815v19.543h-116.815zM290.461 415.757h116.815v19.543h-116.815z"/></g><path d="M145.725 393.074c-35.137 0-63.723-28.586-63.723-63.723s28.586-63.723 63.723-63.723c17.019 0 33.021 6.629 45.058 18.666l-13.818 13.818c-8.346-8.346-19.44-12.941-31.239-12.941-24.361 0-44.18 19.819-44.18 44.18s19.819 44.18 44.18 44.18c21.003 0 38.631-14.734 43.091-34.409h-43.092v-19.542h63.723v9.772c.001 35.136-28.586 63.722-63.723 63.722z" fill="#fff"/><path fill="#999" d="M512 362.939l-114.496 114.509v-114.50900000000001z"/></svg>