<svg xmlns="http://www.w3.org/2000/svg" viewBox="0 0 512 512" enable-background="new 0 0 512 512"><path fill="#D32E2A" d="M385.829 128v128l-38.4 35.072-40.229-35.072-34.743-14.629 34.133-75.861z"/><path fill="#3A5BBC" d="M384 385.219h-128l-.61-1.828-29.257-27.1 29.257-48.25 15.239-36.193 85.333 30.195z"/><path fill="#FBBB00" d="M256.61 128.61l31.695 36.291-31.695 39.058-15.239 36.193-79.847-39.899-33.524-73.472h128z"/><path fill="#28B446" d="M239.543 270.629l-35.048 76.214-78.324 37.157v-128l37.791-23.442 40.838 23.442z"/><path fill="#518EF8" d="M512 256l-128 129.219-113.371-113.371 36.571-15.848h78.629z"/><path fill="#91C646" d="M255.39 383.391v128.609l-129.219-128 113.372-113.371 15.847 36.571v.841z"/><path fill="#FFD837" d="M241.371 240.152l-36.571 15.848h-204.8l128-129.219z"/><path fill="#F14336" d="M385.829 128l-113.372 113.371-15.847-36.571v-204.8z"/></svg>