<svg width="80" height="27" viewBox="0 0 80 27" fill="none" xmlns="http://www.w3.org/2000/svg">
<path d="M48.2608 19.0021C43.4305 21.038 38.2009 22.036 33.4504 22.036C26.3846 22.036 19.5582 20.1198 14.0093 16.8863C13.5303 16.6068 13.171 17.1258 13.5702 17.4851C18.68 22.0759 25.4664 24.8703 33.0113 24.8703C38.3606 24.8703 44.5881 23.1538 48.8995 20.0001C49.5782 19.4811 48.9394 18.6827 48.2608 19.0021Z" fill="#2D374B"/>
<path d="M45.5458 17.2057C45.1866 17.4852 45.2664 17.8444 45.6656 17.8045C47.0229 17.6448 50.1367 17.2856 50.6955 18.0041C51.2544 18.7227 50.0967 21.5969 49.5778 22.9143C49.4181 23.3135 49.7774 23.4732 50.0967 23.1938C52.4121 21.2776 53.0109 17.2057 52.4919 16.6468C52.0129 15.9682 47.981 15.4892 45.5458 17.2057Z" fill="#2D374B"/>
<path d="M53.9283 12.2955C52.6109 11.5371 51.054 11.3375 49.6169 11.3774L53.5291 5.78856C53.8884 5.30952 54.088 4.99015 54.088 4.75063V3.31351C54.088 3.03407 53.8884 2.91431 53.6489 2.91431H46.1039C45.8644 2.91431 45.7047 3.11391 45.7047 3.31351V4.99015C45.7047 5.2696 45.9043 5.38936 46.1439 5.38936H50.096L45.5451 11.8564C45.2656 12.2556 45.2656 12.7347 45.2656 13.0141V14.7307C45.2656 15.0101 45.5451 15.2496 45.7846 15.09C48.3395 13.7327 51.4133 13.8524 53.7287 15.09C54.0081 15.2496 54.2876 14.9303 54.2876 14.7307V12.9742C54.2876 12.6947 54.2077 12.4951 53.9283 12.2955Z" fill="#2D374B"/>
<path d="M16.0038 15.4891H18.3191C18.5986 15.4891 18.7583 15.2895 18.7583 15.0899V8.86231C18.7583 7.50503 18.6784 5.62878 20.3551 5.62878C21.9918 5.62878 21.7523 7.54495 21.7523 8.86231V15.0899C21.7523 15.3294 21.9519 15.4891 22.1515 15.4891H24.4668C24.7463 15.4891 24.906 15.2895 24.906 15.0899V8.86231C24.906 8.18367 24.866 7.18566 25.1455 6.58686C25.385 5.98806 25.9439 5.62878 26.5028 5.62878C27.1814 5.62878 27.7004 5.8683 27.8201 6.62678C27.9399 7.10582 27.9 8.34335 27.9 8.82239V15.0499C27.9 15.2895 28.0996 15.4491 28.2992 15.4491H30.6145C30.894 15.4491 31.0537 15.2495 31.0537 15.0499V7.62479C31.0537 6.34734 31.2133 4.91021 30.4549 3.95213C29.8161 3.07389 28.7383 2.63477 27.8201 2.63477C26.5028 2.63477 25.2253 3.35333 24.6664 4.83037C24.0277 3.35333 23.1495 2.63477 21.7123 2.63477C20.3151 2.63477 19.2772 3.35333 18.7183 4.83037H18.6784V3.31341C18.6784 3.07389 18.4788 2.95413 18.2792 2.91421H16.1634C15.884 2.91421 15.7243 3.11381 15.7243 3.31341V15.0499C15.6046 15.2895 15.7642 15.4491 16.0038 15.4891Z" fill="#2D374B"/>
<path d="M60.556 2.67468C57.2427 2.67468 55.4062 5.54893 55.4062 9.18167C55.4062 12.8144 57.2427 15.7286 60.556 15.7286C63.7497 15.7286 65.7855 12.8543 65.7855 9.30143C65.8254 5.62877 63.9892 2.67468 60.556 2.67468ZM60.556 13.2934C58.7596 13.2934 58.7595 10.2196 58.7595 8.78247C58.7595 7.34534 58.8794 5.06989 60.556 5.06989C61.3145 5.06989 61.7936 5.38925 62.0331 6.22758C62.3125 7.14574 62.3525 8.34335 62.3525 9.34135C62.4323 10.8583 62.3525 13.2934 60.556 13.2934Z" fill="#2D374B"/>
<path d="M73.6508 2.67468C72.0539 2.67468 71.1757 3.47309 70.537 5.06989H70.4971V3.27349C70.4571 3.07388 70.2575 2.95412 70.0979 2.95412H67.9821C67.7426 2.95412 67.5829 3.15372 67.543 3.31341V15.0499C67.543 15.2895 67.7426 15.4491 67.9422 15.4491H70.2176C70.4971 15.4491 70.6567 15.2495 70.6567 15.0499V8.74255C70.6567 7.94414 70.6967 7.22558 71.016 6.50702C71.2955 5.94814 71.8144 5.58885 72.3334 5.58885C73.9302 5.58885 73.7705 7.4651 73.7705 8.74255V15.1298C73.8104 15.3294 73.9701 15.4891 74.1697 15.4891H76.4851C76.7246 15.4891 76.8843 15.3294 76.9242 15.1298V7.74454C76.9242 6.58686 76.9242 5.02997 76.3254 4.11181C75.6867 3.03396 74.6887 2.67468 73.6508 2.67468Z" fill="#2D374B"/>
<path d="M39.7582 7.54495C38.4409 7.70463 36.7243 7.82439 35.4469 8.34336C34.0097 8.98208 33.0117 10.2196 33.0117 12.0959C33.0117 14.4911 34.4888 15.6487 36.4449 15.6487C38.0816 15.6487 38.9598 15.2895 40.2373 13.9721C40.6365 14.5709 40.7961 14.8503 41.5546 15.4891C41.7542 15.5689 41.9139 15.5689 42.1135 15.4491C42.5526 15.0499 43.4309 14.3314 43.87 13.9322C44.0696 13.7725 44.0297 13.533 43.87 13.3334C43.4708 12.7346 43.0317 12.2955 43.0317 11.2176V7.66471C43.0317 6.14775 43.1514 4.75054 42.0337 3.71262C41.1954 2.87429 39.6784 2.55493 38.5606 2.55493C36.365 2.55493 33.9698 3.35334 33.4508 6.02799C33.4109 6.30743 33.6105 6.46711 33.7702 6.50703L35.9259 6.78647C36.1654 6.78647 36.2852 6.54695 36.3251 6.38727C36.5247 5.4691 37.2832 5.02998 38.1614 5.02998C38.6405 5.02998 39.1594 5.22958 39.4788 5.62879C39.7981 6.10783 39.7582 6.74655 39.7582 7.30543V7.54495ZM39.2792 12.2955C38.9199 12.9342 38.361 13.3334 37.6824 13.3334C36.8041 13.3334 36.2852 12.6547 36.2852 11.6567C36.2852 9.70064 38.0417 9.34136 39.7183 9.34136V9.8204C39.7582 10.7785 39.7582 11.537 39.2792 12.2955Z" fill="#2D374B"/>
<path d="M13.8097 13.3334C13.4105 12.7346 12.9714 12.2955 12.9714 11.2176V7.66471C12.9714 6.14775 13.0911 4.75054 11.9734 3.71262C11.0951 2.87429 9.61808 2.55493 8.50031 2.55493C6.3047 2.55493 3.90949 3.35334 3.39053 6.02799C3.35061 6.30743 3.55021 6.46711 3.70989 6.50703L5.94542 6.74655C6.18494 6.74655 6.3047 6.50703 6.34462 6.34735C6.54422 5.42918 7.30271 4.99006 8.22087 4.99006C8.69991 4.99006 9.21887 5.18966 9.53824 5.58886C9.8576 6.06791 9.81768 6.70663 9.81768 7.26551V7.54495C8.46039 7.70463 6.74383 7.82439 5.46638 8.34336C4.02925 8.98208 3.03125 10.2196 3.03125 12.0959C3.03125 14.4911 4.5083 15.6487 6.46438 15.6487C8.10111 15.6487 8.97935 15.2895 10.2568 13.9721C10.656 14.5709 10.8157 14.8503 11.5742 15.4891C11.7738 15.5689 11.9334 15.5689 12.133 15.4491C12.5722 15.0499 13.4504 14.3314 13.8895 13.9322C14.0093 13.7725 13.9694 13.533 13.8097 13.3334ZM9.33864 12.2955C8.97935 12.9342 8.42047 13.3334 7.74183 13.3334C6.86359 13.3334 6.38454 12.6547 6.38454 11.6567C6.38454 9.70064 8.14103 9.34136 9.81768 9.34136V9.8204C9.73784 10.7785 9.77776 11.537 9.33864 12.2955Z" fill="#2D374B"/>
</svg>
