<svg width="100" height="33" viewBox="0 0 100 33" fill="none" xmlns="http://www.w3.org/2000/svg">
<path d="M21.8281 1.37569C22.5336 1.37569 23.2424 1.37569 23.9508 1.3708C23.943 3.90544 23.9763 6.44058 23.9352 8.97522C23.9171 10.6112 23.2268 12.3547 21.7273 13.1664C20.0327 14.0293 17.884 14.0245 16.2226 13.0866C14.8083 12.2589 14.1209 10.5569 14.1591 8.96984C14.1669 6.43764 14.1615 3.90544 14.1645 1.37324H16.2246C16.23 3.56544 16.2197 5.75518 16.227 7.94737C16.2632 8.95467 16.2657 10.051 16.8713 10.9096C17.6854 12.0304 19.3933 12.1361 20.5405 11.505C21.5786 10.8788 21.8002 9.57305 21.8208 8.45763C21.8384 6.09763 21.8227 3.73568 21.8281 1.37569ZM31.0244 1.42217C32.8091 0.891852 34.8007 1.21376 36.3902 2.16431C36.3804 2.90597 36.3804 3.64518 36.3804 4.38488C35.0463 3.3903 33.2714 2.65891 31.6149 3.23815C30.8987 3.45243 30.43 4.31443 30.7749 5.00814C31.0582 5.6725 31.8287 5.86574 32.4383 6.11329C33.7518 6.63626 35.2665 6.91708 36.2405 8.02711C37.4924 9.53929 37.1754 12.2315 35.3413 13.1512C33.2778 14.2201 30.6991 13.8801 28.7207 12.7672C28.7183 12.0045 28.7183 11.2447 28.7104 10.482C30.1996 11.6287 32.2656 12.3088 34.0894 11.6106C35.084 11.2501 35.2102 9.70269 34.3086 9.16846C32.9094 8.32114 31.1913 8.14844 29.8493 7.18761C28.6698 6.33931 28.322 4.65786 28.8117 3.33355C29.1771 2.37272 30.0612 1.70542 31.0244 1.42217ZM50.1764 1.19028C52.984 3.7665 55.7149 6.4303 58.4711 9.06279V1.37324H60.5317V13.8107C57.7211 11.1415 54.9884 8.39305 52.1621 5.73855V13.5391C51.4953 13.544 50.8305 13.544 50.1661 13.5465C50.1696 9.42873 50.149 5.31195 50.1764 1.19028ZM65.9449 1.3708C68.4311 1.3708 70.9144 1.38352 73.3977 1.36297C73.4128 1.98917 73.4128 2.61488 73.4128 3.24108C71.6306 3.24108 69.8504 3.23815 68.0676 3.24108V6.13384C69.6571 6.13922 71.2441 6.13384 72.8336 6.13922V8.00412C71.244 8.0064 69.6553 8.0064 68.0676 8.00412C68.0676 9.22717 68.0676 10.4541 68.073 11.6777C69.8503 11.6698 71.6306 11.6777 73.4055 11.6723C73.408 12.3166 73.4104 12.9628 73.4104 13.6071H65.94C65.9449 9.52902 65.9376 5.45138 65.9449 1.3708ZM79.4513 1.84974C81.3832 0.731877 83.8513 1.07433 85.747 2.10512C85.7832 2.86243 85.7832 3.6217 85.7808 4.3795C84.4051 3.3492 82.552 2.61244 80.8632 3.28756C79.9048 3.63001 79.7937 5.07517 80.6645 5.57466C82.0833 6.38872 83.8176 6.5531 85.1443 7.55306C86.927 8.88227 86.7954 12.0999 84.7578 13.1302C82.6943 14.2123 80.0902 13.8929 78.1167 12.7491C78.1167 11.9966 78.1167 11.2447 78.104 10.4923C79.5413 11.5197 81.3705 12.2183 83.1429 11.7393C83.797 11.5744 84.3973 10.9869 84.3043 10.2658C84.3176 9.71443 83.9311 9.23011 83.4467 9.0036C82.0554 8.282 80.4136 8.07848 79.1524 7.10249C77.5061 5.8271 77.6148 2.90352 79.4513 1.84974ZM91.8163 1.89133C93.7326 0.731877 96.2418 1.04351 98.1351 2.10218C98.1429 2.85215 98.1429 3.59919 98.1483 4.34868C96.7853 3.31838 94.9253 2.62026 93.259 3.30028C92.3295 3.66083 92.2233 5.06489 93.0731 5.57466C94.5261 6.42003 96.3347 6.5531 97.6639 7.63329C98.8077 8.53492 99.0367 10.2066 98.5935 11.5255C98.1786 12.6996 96.9962 13.3846 95.8343 13.635C94.0515 14.0034 92.148 13.6737 90.5639 12.7828C90.538 12.0177 90.538 11.2525 90.5355 10.4874C92.0345 11.6004 94.0775 12.3137 95.8988 11.6126C96.8905 11.252 97.0426 9.73204 96.1488 9.18069C94.711 8.28151 92.8975 8.15333 91.5502 7.08635C89.9617 5.81193 90.036 2.9637 91.8163 1.89133ZM0.960938 1.37324C3.12084 1.49946 5.36391 1.05574 7.45386 1.73673C9.77471 2.48084 10.1044 6.11084 7.9871 7.29035C9.91659 8.08925 10.3593 10.825 9.0355 12.3396C8.22144 13.3082 6.89223 13.5656 5.68924 13.6018C4.11249 13.6277 2.53867 13.6018 0.961916 13.6096V1.37324H0.960938ZM3.02544 3.24353C3.02283 4.31525 3.02283 5.3868 3.02544 6.45819C4.13304 6.40437 5.28221 6.61278 6.36388 6.30115C7.67009 5.92249 7.68036 3.7714 6.38198 3.38002C5.2871 3.10166 4.14086 3.29245 3.02544 3.24353ZM3.02544 8.26439C3.02055 9.42335 3.023 10.5828 3.02544 11.7378C4.29741 11.6478 5.66331 11.9878 6.8663 11.4546C8.05902 10.8724 7.9509 8.88863 6.70144 8.44295C5.51655 8.07359 4.24653 8.34511 3.02544 8.26439ZM42.2432 1.37324H44.3058V13.6096H42.2432V1.37324ZM33.7988 20.3716C35.7229 19.1529 38.2889 19.491 40.19 20.5908C40.1797 21.3275 40.1797 22.0643 40.1821 22.8006C38.7913 21.7835 36.8799 20.9978 35.2053 21.7781C34.3785 22.1724 34.2704 23.4008 35.0145 23.9341C36.5399 24.9027 38.5672 24.9492 39.8832 26.2735C40.7638 27.1052 40.9106 28.432 40.6846 29.5655C40.4219 30.699 39.4327 31.5439 38.3427 31.8648C36.4347 32.4519 34.2934 32.1353 32.5777 31.1383C32.5831 30.3835 32.5855 29.6291 32.5777 28.8742C34.0283 29.9637 35.9988 30.6799 37.7815 30.041C38.8578 29.7524 39.0721 28.0988 38.0981 27.5577C36.6583 26.6585 34.8267 26.5455 33.5023 25.4326C32.0009 24.1635 32.0988 21.4327 33.7988 20.3716ZM9.14117 19.8564H11.1993C11.2042 23.8905 11.205 27.9263 11.2018 31.9636H9.14117V19.8564ZM17.0597 19.5732C19.8008 22.19 22.5355 24.8176 25.3006 27.4095C25.3109 24.8695 25.303 22.3319 25.3055 19.7948C25.9904 19.7919 26.6774 19.7909 27.3666 19.7919C27.3714 23.9214 27.3612 28.0479 27.3714 32.1774C24.5765 29.5283 21.8359 26.8195 19.0621 24.1469C19.0488 26.7515 19.0621 29.3581 19.0567 31.9651H17.0602C17.0576 27.8332 17.0574 23.7025 17.0597 19.5732ZM46.0425 19.8564H48.1036V31.9636H46.0425V19.8564ZM54.031 19.8564C55.6901 19.8564 57.3508 19.8546 59.0132 19.8511C60.9011 19.8281 62.8511 20.7943 63.7738 22.4816C64.7654 24.2535 64.8295 26.456 64.2141 28.3649C63.5546 30.3707 61.5914 31.7895 59.4999 31.925C57.6786 32.0179 55.8548 31.9382 54.031 31.9636V19.8564ZM56.1537 21.7238V30.0933C57.6297 30.0395 59.2191 30.3203 60.5919 29.6301C61.9128 28.9496 62.5165 27.4041 62.4778 25.982C62.5316 24.5446 62.0243 22.9322 60.7005 22.1954C59.3116 21.42 57.6659 21.8221 56.1537 21.7238ZM68.8406 19.8564C71.3082 19.8542 73.777 19.8542 76.2469 19.8564C76.2469 20.4797 76.244 21.103 76.244 21.7267C74.4619 21.7215 72.681 21.7215 70.9012 21.7267V24.5549C72.4882 24.5578 74.0769 24.5588 75.6672 24.5578V26.3611C74.0777 26.3611 72.4873 26.3582 70.9012 26.3611V30.0909C72.6815 30.0963 74.4642 30.0909 76.2469 30.0938V31.9612H68.8406V19.8564ZM82.3029 19.854C83.9746 19.8692 85.6468 19.8383 87.316 19.8643C88.7347 19.9 90.2347 20.717 90.6427 22.1489C91.0086 23.3935 90.921 24.8695 90.1221 25.933C89.6329 26.569 88.8394 26.8092 88.0977 27.0127C89.5452 28.648 90.9817 30.2951 92.4073 31.9539C91.5919 31.9695 90.7796 31.9695 89.9705 31.9539C88.5894 30.313 87.1819 28.6952 85.7945 27.0646C85.3361 27.0675 84.8802 27.0675 84.4247 27.0675C84.4198 28.6981 84.4222 30.3287 84.4222 31.9597C83.7139 31.962 83.0055 31.962 82.2971 31.9597V19.8501L82.3029 19.854ZM84.4222 21.6602C84.4174 22.8607 84.4198 24.0613 84.4222 25.2613C85.5225 25.1997 86.6727 25.434 87.7377 25.0916C89.0542 24.5632 89.0826 22.4498 87.7866 21.8867C86.7211 21.4792 85.5435 21.7189 84.4281 21.6621" fill="#2D374B"/>
</svg>
