<svg width="140" height="47" viewBox="0 0 140 47" fill="none" xmlns="http://www.w3.org/2000/svg">
<g clip-path="url(#clip0)">
<path d="M96.2674 23.8697C93.7525 23.5204 92.7744 22.8916 92.8443 21.9136C92.984 20.1671 95.1497 19.9575 96.477 20.0274C99.0619 20.2369 99.6207 22.4725 99.6207 22.7519L102.136 22.5423C101.996 20.9355 100.669 17.7918 96.8962 17.5124C94.8004 17.3727 92.984 17.7918 91.7964 18.8397C90.8882 19.6082 90.1197 20.7958 89.98 21.9835C89.7006 25.8258 93.473 26.3847 95.8483 26.734C98.8523 27.1531 99.5509 27.5723 99.481 28.69C99.481 29.2489 99.1317 29.8078 98.7126 30.1571C98.0838 30.6461 96.8263 30.8557 95.5688 30.716C92.7046 30.4365 92.495 28.6202 92.495 28.2709L89.98 28.3407C89.98 29.8777 91.0279 32.8817 95.2894 33.3707C97.5948 33.6501 99.481 32.9515 100.459 32.2529C101.577 31.4146 102.206 30.0174 102.275 28.69C102.485 24.708 98.6427 24.219 96.2674 23.8697Z" fill="#2D374B"/>
<path d="M110.659 30.7161C114.431 30.7161 114.152 26.4546 114.152 26.4546V17.9316H117.086V26.3847C117.086 26.3847 117.086 26.4546 117.086 26.6642C117.086 27.9217 116.946 33.3009 110.728 33.3009H110.519C104.301 33.3009 104.162 27.9915 104.162 26.6642C104.162 26.5245 104.162 26.3847 104.162 26.3847V17.9316H107.096V26.3847C107.166 26.3847 106.886 30.7161 110.659 30.7161Z" fill="#2D374B"/>
<path d="M136.926 28.3405C136.088 29.8076 134.411 30.6459 132.595 30.6459C130.08 30.6459 128.054 29.0392 127.705 26.5242H139.93C139.93 26.1749 139.93 25.6859 139.93 25.3366C139.93 20.5861 136.717 17.5122 132.455 17.5122C128.194 17.5122 124.771 20.5162 124.771 25.3366C124.771 30.1569 128.194 33.2308 132.455 33.2308C135.11 33.2308 137.625 32.113 139.022 29.8775L136.926 28.3405ZM132.525 20.2368C134.97 20.2368 136.717 21.7737 137.136 24.2887H127.774C128.124 21.7038 130.01 20.2368 132.525 20.2368Z" fill="#2D374B"/>
<path d="M80.9681 17.582C78.8723 17.582 76.7066 18.5601 75.7286 20.2367V17.8615H72.7944V40.2168H75.7286V30.7158C76.7066 32.4623 78.8723 33.3006 80.9681 33.3006C85.0898 33.3006 88.513 30.2966 88.513 25.4762C88.513 20.7257 85.0898 17.582 80.9681 17.582ZM80.6886 30.576C78.2435 30.576 75.6587 28.8295 75.6587 25.616C75.6587 22.4024 78.1737 20.3066 80.8284 20.3066C83.5529 20.3066 85.7186 22.3325 85.7186 25.3365C85.6487 28.4104 83.3433 30.576 80.6886 30.576Z" fill="#2D374B"/>
<path d="M122.605 9.68799H119.67V32.9515H122.605V9.68799Z" fill="#2D374B"/>
<path d="M64.4113 17.4424C64.3414 17.4424 64.2716 17.4424 64.2017 17.4424C64.2017 17.4424 61.6867 17.4424 59.3115 18.4204L59.5909 19.1889L60.1498 20.7957C60.9881 20.4464 62.3853 20.0272 64.2017 19.9574C64.2716 19.9574 64.3414 19.9574 64.4113 19.9574C67.6249 19.9574 67.6947 22.8915 67.6947 22.8915V23.6599L62.6648 23.5901C62.3155 23.5901 60.2895 23.5901 58.8225 24.9873C58.4732 25.3366 58.1937 25.6859 57.9841 26.1051C57.7047 26.7338 57.4951 27.4324 57.4951 28.2009C57.4951 29.1789 57.7746 30.0871 58.1937 30.8556C58.4033 31.2049 58.6827 31.5542 58.9622 31.8336C59.9402 32.7418 61.3374 33.3007 62.8744 33.3007C63.0141 33.3007 63.1538 33.3007 63.2237 33.3007C64.9702 33.2308 66.577 32.5322 67.6249 30.8556V32.9514H70.2097V23.4504C70.2796 21.0053 68.7426 17.4424 64.4113 17.4424ZM63.1538 30.9254C62.2456 30.9953 60.1498 30.5063 60.1498 28.2009C60.1498 27.5721 60.7087 26.1051 62.5251 26.1051C64.3414 26.1051 67.555 26.1051 67.555 26.1051C67.6249 28.8995 65.9482 30.7857 63.1538 30.9254Z" fill="#2D374B"/>
<path d="M49.1118 30.3667C44.4311 30.3667 40.8682 26.5942 40.8682 21.9136C40.8682 17.233 44.501 13.3906 49.1118 13.3906C51.3473 13.3906 53.3034 14.2988 54.7704 15.696L56.5169 13.3208C54.6307 11.5743 51.976 10.5264 49.1118 10.5264C42.8243 10.5264 37.8643 15.6262 37.8643 21.9136C37.8643 28.201 42.8243 33.3008 49.1118 33.3008C51.6966 33.3008 54.002 32.4625 55.8183 31.1351L54.8403 28.4106C53.2335 29.5284 51.0678 30.3667 49.1118 30.3667Z" fill="#2D374B"/>
<path d="M0 30.2965H3.63273V28.061H8.24351V30.2965H11.8064V12.9712H0V30.2965Z" fill="#2D374B"/>
<path d="M18.0938 8.08105C17.5349 8.08105 17.1157 8.50022 17.1157 9.0591C17.1157 9.61798 17.5349 10.0371 18.0938 10.0371C18.6526 10.0371 19.0718 9.61798 19.0718 9.0591C19.1417 8.57008 18.6526 8.08105 18.0938 8.08105Z" fill="#2D374B"/>
<path d="M18.0938 12.6221C17.5349 12.6221 17.1157 13.0412 17.1157 13.6001C17.1157 14.159 17.5349 14.5782 18.0938 14.5782C18.6526 14.5782 19.0718 14.159 19.0718 13.6001C19.1417 13.1111 18.6526 12.6221 18.0938 12.6221Z" fill="#2D374B"/>
<path d="M18.0938 17.2329C17.5349 17.2329 17.1157 17.6521 17.1157 18.211C17.1157 18.7698 17.5349 19.189 18.0938 19.189C18.6526 19.189 19.0718 18.7698 19.0718 18.211C19.1417 17.6521 18.6526 17.2329 18.0938 17.2329Z" fill="#2D374B"/>
<path d="M22.7744 8.08105C22.2155 8.08105 21.7964 8.50022 21.7964 9.0591C21.7964 9.61798 22.2155 10.0371 22.7744 10.0371C23.3333 10.0371 23.7525 9.61798 23.7525 9.0591C23.7525 8.57008 23.3333 8.08105 22.7744 8.08105Z" fill="#2D374B"/>
<path d="M22.7744 12.6221C22.2155 12.6221 21.7964 13.0412 21.7964 13.6001C21.7964 14.159 22.2155 14.5782 22.7744 14.5782C23.3333 14.5782 23.7525 14.159 23.7525 13.6001C23.7525 13.1111 23.3333 12.6221 22.7744 12.6221Z" fill="#2D374B"/>
<path d="M22.7744 17.2329C22.2155 17.2329 21.7964 17.6521 21.7964 18.211C21.7964 18.7698 22.2155 19.189 22.7744 19.189C23.3333 19.189 23.7525 18.7698 23.7525 18.211C23.7525 17.6521 23.3333 17.2329 22.7744 17.2329Z" fill="#2D374B"/>
<path d="M27.3154 8.08105C26.7566 8.08105 26.3374 8.50022 26.3374 9.0591C26.3374 9.61798 26.7566 10.0371 27.3154 10.0371C27.8743 10.0371 28.2935 9.61798 28.2935 9.0591C28.2935 8.57008 27.8743 8.08105 27.3154 8.08105Z" fill="#2D374B"/>
<path d="M27.3154 12.6221C26.7566 12.6221 26.3374 13.0412 26.3374 13.6001C26.3374 14.159 26.7566 14.5782 27.3154 14.5782C27.8743 14.5782 28.2935 14.159 28.2935 13.6001C28.2935 13.1111 27.8743 12.6221 27.3154 12.6221Z" fill="#2D374B"/>
<path d="M27.3154 17.2329C26.7566 17.2329 26.3374 17.6521 26.3374 18.211C26.3374 18.7698 26.7566 19.189 27.3154 19.189C27.8743 19.189 28.2935 18.7698 28.2935 18.211C28.2935 17.6521 27.8743 17.2329 27.3154 17.2329Z" fill="#2D374B"/>
<path d="M6.07776 24.2885C2.79433 24.2186 0.0697788 26.8035 -8.15348e-05 30.017C-0.0699418 33.2306 2.51489 35.9552 5.79832 36.0949C9.08176 36.1647 11.7364 33.5799 11.8762 30.2965C11.8762 27.0829 9.29134 24.3584 6.07776 24.2885ZM7.89413 32.3224H3.91209V28.3404H7.89413V32.3224Z" fill="#2D374B"/>
<path d="M6.07776 24.2885C2.79433 24.2186 0.0697788 26.8035 -8.15348e-05 30.017C-0.0699418 33.2306 2.51489 35.9552 5.79832 36.0949C9.08176 36.1647 11.7364 33.5799 11.8762 30.2965C11.8762 27.0829 9.29134 24.3584 6.07776 24.2885ZM7.89413 32.3224H3.91209V28.3404H7.89413V32.3224Z" fill="white" fill-opacity="0.2"/>
<path d="M5.93812 19.1189C9.21766 19.1189 11.8762 16.4603 11.8762 13.1808C11.8762 9.90126 9.21766 7.24268 5.93812 7.24268C2.65859 7.24268 0 9.90126 0 13.1808C0 16.4603 2.65859 19.1189 5.93812 19.1189Z" fill="white"/>
<path d="M16.627 23.1709V35.3266H28.7826V23.1709H16.627ZM26.3375 31.9733H19.1419V30.4364H26.3375V31.9733ZM26.3375 27.9913H19.1419V26.4543H26.3375V27.9913Z" fill="#2D374B"/>
</g>
<defs>
<clipPath id="clip0">
<rect width="140" height="47" fill="white"/>
</clipPath>
</defs>
</svg>
