<svg width="80" height="27" viewBox="0 0 80 27" fill="none" xmlns="http://www.w3.org/2000/svg">
<path d="M0.960938 5.22949V15.2894H3.79527V5.22949H0.960938Z" fill="#2D374B"/>
<path d="M7.98791 10.2994H7.10967L9.98392 5.22949H7.82823L4.91406 10.2994L8.10767 15.2894H11.2214L7.98791 10.2994Z" fill="#2D374B"/>
<path d="M66.2704 5.22949C66.2704 5.22949 66.2704 10.2594 66.2704 11.6566C65.472 10.459 62.0389 5.22949 62.0389 5.22949H59.6836V15.2495H62.1986C62.1986 15.2495 62.1986 10.1796 62.1986 8.78239C62.997 9.97999 66.5099 15.2495 66.5099 15.2495H68.7455V5.22949H66.2704Z" fill="#2D374B"/>
<path d="M40.4008 5.22949H37.9258V15.2894H43.9138V13.5728H40.4008V5.22949Z" fill="#2D374B"/>
<path d="M17.6078 5.22949L13.1367 15.2894H15.1327L16.2505 12.7345H19.7235L20.7615 15.2894H23.6357L19.2445 5.26941C19.2046 5.22949 17.6078 5.22949 17.6078 5.22949ZM19.0848 11.2574H16.8493L18.007 8.58279L19.0848 11.2574Z" fill="#2D374B"/>
<path d="M50.7015 5.22949L46.2305 15.2495H48.2265L49.3043 12.6946H52.7774L53.8153 15.2495H56.6896L52.2983 5.22949C52.2584 5.22949 50.7015 5.22949 50.7015 5.22949ZM52.1786 11.2574H49.943L51.1007 8.58279L52.1786 11.2574Z" fill="#2D374B"/>
<path d="M27.0273 5.1897V15.2895H29.5024C29.5024 15.2895 29.5024 12.2156 29.5024 11.7366C29.702 11.7366 30.7 11.7366 30.7 11.7366C30.8198 11.7366 31.6182 11.7765 32.4166 11.4971C33.2549 11.2176 34.5323 10.1797 34.5323 8.46315C34.5323 7.58491 34.3327 6.90626 33.8936 6.3873C33.2549 5.5889 32.1371 5.1897 30.4605 5.1897H27.0273ZM30.181 6.86634C31.4186 6.86634 31.9774 7.34539 31.9774 8.42323C31.9774 9.02203 31.8178 9.50107 31.4585 9.82044C31.219 10.06 30.8597 10.0999 30.0214 10.0999C30.0214 10.0999 29.6621 10.0999 29.4625 10.0999C29.4625 9.66075 29.4625 7.30547 29.4625 6.86634C29.702 6.86634 30.181 6.86634 30.181 6.86634Z" fill="#2D374B"/>
<path fill-rule="evenodd" clip-rule="evenodd" d="M72.8572 0.119629H71.0607C75.2124 2.55476 77.8073 5.46893 77.8073 8.54278C77.8073 17.6845 58.4061 24.431 34.6935 24.431C21.0009 24.431 8.82521 22.0757 0.960938 18.3631V20.2793C9.10465 24.0318 21.2005 26.3871 34.6935 26.3871C60.2823 26.427 79.0448 18.6426 79.0448 9.02182C79.0448 5.74837 76.8092 2.71444 72.8572 0.119629Z" fill="#2D374B"/>
</svg>
