<svg width="80" height="27" viewBox="0 0 80 27" fill="none" xmlns="http://www.w3.org/2000/svg">
<path d="M17.1657 6.1876C17.1657 6.06784 17.0459 6.02792 16.9661 5.988C16.8862 5.988 15.1697 5.86824 15.1697 5.86824C15.1697 5.86824 13.9721 4.67064 13.8523 4.55088C13.7325 4.43112 13.4531 4.47104 13.3733 4.47104C13.3733 4.47104 13.0938 4.55088 12.6946 4.67064C12.2954 3.51295 11.6168 2.47503 10.3792 2.47503H10.2595C9.9002 1.99599 9.46108 1.79639 9.1018 1.79639C6.22755 1.79639 4.87026 5.3892 4.43114 7.22553C3.31337 7.58481 2.51497 7.82433 2.43513 7.82433C1.83633 8.02393 1.79641 8.02393 1.71657 8.62273C1.63673 9.1417 0 21.7964 0 21.7964L12.7345 24.1916L19.6407 22.7146C19.6008 22.6746 17.2056 6.30736 17.1657 6.1876ZM12.016 4.91016C11.6966 5.02992 11.3373 5.10976 10.9381 5.22952V4.99C10.9381 4.27144 10.8184 3.71255 10.6587 3.23351C11.2974 3.39319 11.7365 4.11176 12.016 4.91016ZM9.9002 3.43311C10.0599 3.87224 10.1796 4.51096 10.1796 5.34928V5.46904C9.501 5.66864 8.7026 5.90816 7.94411 6.14768C8.38323 4.55088 9.18164 3.71255 9.9002 3.43311ZM9.02196 2.63471C9.14172 2.63471 9.26148 2.67463 9.38124 2.75447C8.46307 3.19359 7.46507 4.27144 7.06587 6.46705C6.46707 6.66665 5.86826 6.82633 5.30938 7.02593C5.82834 5.34928 6.98603 2.63471 9.02196 2.63471Z" fill="#2D374B"/>
<path d="M17.0058 6.02795C16.926 6.02795 15.2094 5.90819 15.2094 5.90819C15.2094 5.90819 14.0118 4.71059 13.8921 4.59083C13.8521 4.55091 13.7723 4.51099 13.6925 4.51099L12.7344 24.1916L19.6406 22.7146C19.6406 22.7146 17.2054 6.34731 17.2054 6.22755C17.1655 6.06787 17.0857 6.02795 17.0058 6.02795Z" fill="#2D374B"/>
<path d="M10.3774 9.82046L9.53909 12.3354C9.53909 12.3354 8.78061 11.9362 7.86245 11.9362C6.50516 11.9362 6.46524 12.7746 6.46524 12.9742C6.46524 14.1318 9.45925 14.571 9.45925 17.2855C9.45925 19.4013 8.10197 20.7985 6.30556 20.7985C4.10995 20.7985 2.99219 19.4412 2.99219 19.4412L3.59099 17.5251C3.59099 17.5251 4.74867 18.5231 5.70676 18.5231C6.34548 18.5231 6.585 18.0041 6.585 17.6448C6.585 16.1278 4.10995 16.048 4.10995 13.573C4.10995 11.4971 5.62692 9.46118 8.62093 9.46118C9.81853 9.5011 10.3774 9.82046 10.3774 9.82046Z" fill="white"/>
<path d="M27.6641 14.5708C26.9854 14.2116 26.6262 13.8922 26.6262 13.4531C26.6262 12.8942 27.1052 12.5349 27.9036 12.5349C28.7819 12.5349 29.5803 12.8942 29.5803 12.8942L30.219 10.978C30.219 10.978 29.6202 10.5389 27.9435 10.5389C25.5882 10.5389 23.9116 11.8962 23.9116 13.8124C23.9116 14.8902 24.6701 15.7285 25.708 16.3273C26.5463 16.8064 26.8258 17.1257 26.8258 17.6447C26.8258 18.1637 26.4266 18.5629 25.6282 18.5629C24.4705 18.5629 23.3926 17.9641 23.3926 17.9641L22.7539 19.8403C22.7539 19.8403 23.7519 20.519 25.4286 20.519C27.8637 20.519 29.6202 19.3213 29.6202 17.1657C29.6202 16.008 28.7419 15.1696 27.6641 14.5708ZM37.3647 10.5389C36.1671 10.5389 35.209 11.0978 34.4904 11.976H34.4505L35.4884 6.54689H32.7739L30.1391 20.3593H32.8537L33.7719 15.6088C34.1312 13.8124 35.0493 12.6946 35.9276 12.6946C36.5264 12.6946 36.7659 13.0938 36.7659 13.6926C36.7659 14.0519 36.726 14.5309 36.6461 14.8902L35.6082 20.3194H38.3228L39.4006 14.7305C39.5204 14.1317 39.6002 13.4132 39.6002 12.974C39.5603 11.4571 38.7619 10.5389 37.3647 10.5389ZM45.708 10.5389C42.4345 10.5389 40.2789 13.493 40.2789 16.7665C40.2789 18.8822 41.5962 20.5589 44.0314 20.5589C47.225 20.5589 49.3807 17.6846 49.3807 14.3313C49.3807 12.3752 48.2629 10.5389 45.708 10.5389ZM44.3906 18.4431C43.4725 18.4431 43.0733 17.6447 43.0733 16.6866C43.0733 15.1297 43.8717 12.5748 45.3487 12.5748C46.3068 12.5748 46.6262 13.4132 46.6262 14.2116C46.6262 15.8882 45.8278 18.4431 44.3906 18.4431ZM56.3268 10.5389C54.4904 10.5389 53.4525 12.1357 53.4525 12.1357H53.4126L53.5723 10.6986H51.1771C51.0573 11.6966 50.8577 13.1736 50.6182 14.2914L48.7419 24.2315H51.4565L52.215 20.1996H52.2549C52.2549 20.1996 52.8138 20.5589 53.8517 20.5589C57.0453 20.5589 59.1212 17.2854 59.1212 14.012C59.1212 12.1357 58.3228 10.5389 56.3268 10.5389ZM53.732 18.483C53.0134 18.483 52.6142 18.0838 52.6142 18.0838L53.0533 15.5289C53.3727 13.8523 54.2509 12.6946 55.209 12.6946C56.0473 12.6946 56.2868 13.4531 56.2868 14.1716C56.2868 16.008 55.2489 18.483 53.732 18.483ZM62.9934 6.62673C62.1152 6.62673 61.4365 7.30538 61.4365 8.18362C61.4365 8.98202 61.9555 9.54091 62.714 9.54091H62.7539C63.5922 9.54091 64.3108 8.98202 64.3507 7.98402C64.3507 7.18562 63.8318 6.62673 62.9934 6.62673ZM59.201 20.3194H61.9156L63.7519 10.6986H61.0373L59.201 20.3194ZM70.6581 10.7385H68.7819L68.8617 10.2994C69.0214 9.38123 69.5803 8.5429 70.4585 8.5429C70.9375 8.5429 71.3367 8.66266 71.3367 8.66266L71.8557 6.54689C71.8557 6.54689 71.3767 6.30737 70.3787 6.30737C69.4206 6.30737 68.4625 6.58681 67.704 7.22554C66.7859 8.02394 66.3467 9.1417 66.1471 10.2994L66.0673 10.7385H64.7898L64.3906 12.7744H65.6681L64.231 20.3593H66.9455L68.3827 12.7744H70.2589L70.6581 10.7385ZM77.1651 10.7385C77.1651 10.7385 75.4485 15.01 74.69 17.3253H74.6501C74.6102 16.5669 73.9715 10.7385 73.9715 10.7385H71.0972L72.7339 19.5609C72.7739 19.7605 72.734 19.8802 72.694 20C72.3747 20.5988 71.8557 21.1976 71.217 21.6367C70.698 21.996 70.1391 22.2355 69.7 22.3952L70.4585 24.7106C71.0174 24.5908 72.1351 24.1517 73.1332 23.2335C74.3707 22.0758 75.5284 20.2794 76.6861 17.8443L79.9994 10.7385H77.1651Z" fill="#2D374B"/>
</svg>
