<svg width="200" height="67" viewBox="0 0 200 67" fill="none" xmlns="http://www.w3.org/2000/svg">
<path d="M44.6108 11.7537C45.9082 11.7537 47.1058 11.3545 48.0041 10.5561C48.9023 9.75767 49.4013 8.65988 49.4013 7.46227C49.4013 6.16487 48.9023 5.16687 48.0041 4.26867C47.1058 3.47027 46.008 3.07104 44.6108 3.07104C43.3134 3.07104 42.2156 3.47027 41.3174 4.36847C40.4192 5.26667 40.02 6.26467 40.02 7.46227C40.02 8.65988 40.4192 9.65787 41.3174 10.5561C42.2156 11.3545 43.3134 11.7537 44.6108 11.7537Z" fill="#2D374B"/>
<path d="M73.3534 0.176758V20.6358H73.1538C72.8544 20.1368 72.3554 19.6378 71.8564 19.1388C71.2576 18.6398 70.559 18.1408 69.7606 17.7416C68.9622 17.3424 68.064 16.9432 66.9662 16.6438C65.8684 16.3444 64.6708 16.2446 63.3734 16.2446C61.2776 16.2446 59.3814 16.6438 57.6847 17.4422C55.9881 18.2406 54.4911 19.3384 53.1937 20.7356C51.9961 22.1328 50.9981 23.7297 50.2995 25.6259C49.6009 27.5221 49.3015 29.5181 49.3015 31.6139C49.3015 33.7097 49.6009 35.8055 50.2995 37.6019C50.8983 39.4981 51.8963 41.0949 53.1937 42.4921C54.4911 43.8893 55.9881 44.9871 57.6847 45.7855C59.4812 46.5839 61.4772 46.9831 63.7726 46.9831C65.8684 46.9831 67.7646 46.5839 69.561 45.7855C71.3574 44.9871 72.7546 43.6897 73.8524 41.8933H73.9522V46.0849H80.8384V0.176758H73.3534ZM73.054 34.8075C72.6548 35.9053 72.056 36.8035 71.3574 37.6019C70.559 38.4003 69.6608 39.0989 68.6628 39.4981C67.565 39.9971 66.3674 40.1967 65.07 40.1967C63.7726 40.1967 62.575 39.9971 61.4772 39.4981C60.3794 38.9991 59.4812 38.4003 58.7826 37.6019C57.9841 36.8035 57.4851 35.9053 57.0859 34.8075C56.6867 33.7097 56.4871 32.7117 56.4871 31.5141C56.4871 30.4163 56.6867 29.3185 57.0859 28.2207C57.4851 27.1229 58.0839 26.2247 58.7826 25.4263C59.581 24.6279 60.4792 23.9293 61.4772 23.5301C62.575 23.031 63.7726 22.8314 65.07 22.8314C66.3674 22.8314 67.565 23.031 68.6628 23.5301C69.7606 24.0291 70.6588 24.6279 71.3574 25.4263C72.1558 26.2247 72.6548 27.1229 73.054 28.2207C73.4532 29.3185 73.6528 30.4163 73.6528 31.5141C73.6528 32.6119 73.4532 33.7097 73.054 34.8075Z" fill="#2D374B"/>
<path d="M130.739 19.9373L123.553 27.1229V40.3963H123.353C122.954 39.8973 122.555 39.3983 121.956 38.8993C121.357 38.4003 120.659 37.9013 119.86 37.5021C119.062 37.1029 118.164 36.7037 117.066 36.4043C116.367 36.2047 115.469 36.1049 114.571 36.0051L99.501 51.2746C99.501 53.3704 99.8004 55.3664 100.499 57.2626C101.098 59.1588 102.096 60.7556 103.393 62.1528C104.691 63.55 106.188 64.6478 107.884 65.3464C109.681 66.1448 111.677 66.544 113.872 66.544C115.968 66.544 117.864 66.1448 119.661 65.3464C121.457 64.548 122.854 63.2506 123.852 61.4542H123.952V65.8454H130.838V19.9373H130.739ZM123.253 54.4682C122.854 55.566 122.255 56.4642 121.557 57.2626C120.858 58.061 119.86 58.7596 118.862 59.1588C117.764 59.6578 116.667 59.8574 115.269 59.8574C113.972 59.8574 112.774 59.6578 111.677 59.1588C110.579 58.6598 109.681 58.061 108.982 57.2626C108.283 56.4642 107.685 55.566 107.285 54.4682C106.886 53.3704 106.687 52.3724 106.687 51.1748C106.687 50.077 106.886 48.9792 107.285 47.8814C107.685 46.7836 108.283 45.8854 108.982 45.087C109.681 44.2886 110.579 43.5899 111.677 43.1907C112.774 42.6917 113.872 42.4921 115.269 42.4921C116.567 42.4921 117.764 42.6917 118.862 43.1907C119.96 43.6897 120.858 44.2886 121.557 45.087C122.255 45.8854 122.854 46.7836 123.253 47.8814C123.653 48.9792 123.852 50.077 123.852 51.1748C123.852 52.3724 123.653 53.4702 123.253 54.4682Z" fill="#2D374B"/>
<path d="M162.275 44.9872C161.477 43.091 160.279 41.4941 158.882 40.1967C157.485 38.8993 155.788 37.8015 153.892 37.1029C151.996 36.4043 149.9 36.0051 147.704 36.0051C145.509 36.0051 143.513 36.4043 141.517 37.1029C139.621 37.8015 137.924 38.8993 136.527 40.1967C135.13 41.4941 134.032 43.091 133.134 44.9872C132.335 46.8834 131.936 48.9792 131.936 51.2746C131.936 53.57 132.335 55.6658 133.134 57.562C133.932 59.4582 135.13 61.055 136.527 62.3524C137.924 63.6498 139.621 64.7476 141.517 65.4462C143.413 66.1448 145.509 66.544 147.704 66.544C149.9 66.544 151.896 66.1448 153.892 65.4462C155.788 64.7476 157.485 63.6498 158.882 62.3524C160.279 61.055 161.377 59.4582 162.275 57.562C163.074 55.6658 163.473 53.57 163.473 51.2746C163.573 48.9792 163.174 46.8834 162.275 44.9872ZM155.689 54.4682C155.289 55.566 154.691 56.4642 153.992 57.2626C153.293 58.061 152.395 58.7596 151.297 59.1588C150.2 59.6578 149.102 59.8574 147.704 59.8574C146.407 59.8574 145.209 59.6578 144.112 59.1588C143.014 58.6598 142.116 58.061 141.417 57.2626C140.718 56.4642 140.12 55.566 139.72 54.4682C139.321 53.3704 139.122 52.3724 139.122 51.1748C139.122 50.077 139.321 48.9792 139.72 47.8814C140.12 46.7836 140.619 45.8854 141.417 45.087C142.116 44.2886 143.014 43.59 144.112 43.1908C145.209 42.6918 146.307 42.4922 147.704 42.4922C149.002 42.4922 150.2 42.6918 151.297 43.1908C152.395 43.6898 153.293 44.2886 153.992 45.087C154.691 45.8854 155.289 46.7836 155.689 47.8814C156.088 48.9792 156.287 50.077 156.287 51.1748C156.287 52.3724 156.088 53.4702 155.689 54.4682Z" fill="#2D374B"/>
<path d="M186.128 52.6718C185.329 51.574 184.431 50.6758 183.234 50.077C182.036 49.4782 180.838 48.9792 179.441 48.6798C178.144 48.3804 176.946 48.081 175.649 47.7816C174.451 47.4822 173.553 47.1828 172.755 46.7836C171.956 46.3844 171.557 45.6858 171.557 44.8874C171.557 43.7896 172.056 42.9912 172.954 42.4922C173.852 41.9932 174.85 41.7936 175.848 41.7936C178.244 41.7936 180.14 42.7916 181.537 44.7876L186.427 40.3963C185.23 38.7995 183.733 37.6019 181.836 37.0031C179.94 36.3045 178.044 36.0051 176.048 36.0051C174.551 36.0051 173.154 36.2047 171.757 36.5041C170.359 36.9033 169.062 37.4023 167.964 38.2007C166.866 38.9991 165.968 39.9971 165.369 41.0949C164.671 42.2926 164.371 43.6898 164.371 45.2866C164.371 47.1828 164.771 48.58 165.569 49.6778C166.367 50.7756 167.266 51.574 168.463 52.1728C169.661 52.7716 170.858 53.1708 172.256 53.4702C173.653 53.7696 174.85 53.9692 176.048 54.3684C177.246 54.6678 178.144 55.067 178.942 55.566C179.741 56.065 180.14 56.7636 180.14 57.7616C180.14 58.3604 179.94 58.8594 179.641 59.2586C179.341 59.6578 178.942 60.057 178.443 60.3564C177.944 60.6558 177.445 60.8554 176.846 60.9552C176.248 61.055 175.749 61.1548 175.25 61.1548C173.753 61.1548 172.455 60.8554 171.357 60.1568C170.26 59.4582 169.262 58.6598 168.363 57.562L163.473 62.1528C164.97 63.8494 166.667 65.047 168.563 65.6458C170.459 66.2446 172.555 66.6438 174.85 66.6438C176.248 66.6438 177.645 66.544 179.142 66.2446L187.425 57.9612C187.425 57.7616 187.425 57.562 187.425 57.3624C187.325 55.2666 186.926 53.7696 186.128 52.6718Z" fill="#2D374B"/>
<path d="M33.8322 17.3425L26.0478 37.5022H25.948L18.2634 17.3425L12.6746 22.9313L22.1556 46.085H29.8402L40.9181 18.1409V46.085H48.2035V17.3425H33.8322Z" fill="#2D374B"/>
<path d="M108.483 34.4084V29.4183C108.483 28.7197 108.483 27.9213 108.383 27.0231C108.383 26.1249 108.184 25.1269 107.984 24.2287C107.785 23.2307 107.385 22.3325 106.886 21.3345C106.387 20.4363 105.689 19.5381 104.691 18.8395C103.793 18.1409 102.595 17.5421 101.198 17.0431C99.8005 16.5441 98.0041 16.3445 96.0081 16.3445C93.7127 16.3445 91.5171 16.7437 89.3215 17.4423C87.1258 18.1409 85.2296 19.3385 83.6328 21.0351L87.4252 24.8275C88.4233 23.9293 89.5211 23.1309 90.9183 22.6319C92.2157 22.1329 93.7127 21.8335 95.2097 21.8335C97.1059 21.8335 98.7027 22.3325 100 23.2307C101.298 24.1289 101.896 25.5261 101.896 27.3225V28.1209H100.1C98.9023 28.1209 97.6049 28.1209 96.2077 28.2207C94.8105 28.3205 93.5131 28.4203 92.1159 28.6199C90.7187 28.8195 89.4213 29.2187 88.2237 29.6179C86.9262 30.0171 85.8284 30.6159 84.9302 31.4143C83.9322 32.1129 83.2336 33.1109 82.6348 34.2087C82.036 35.3066 81.8364 36.7038 81.8364 38.2008C81.8364 39.6978 82.1358 40.8954 82.7346 41.9932C83.3334 43.091 84.1318 43.9892 85.1298 44.6878C86.1278 45.3864 87.2256 45.9852 88.523 46.2846C89.8205 46.6838 91.1179 46.7836 92.4153 46.7836C94.0121 46.7836 95.4093 46.584 96.8065 46.085L108.483 34.4084ZM101.497 34.7078C101.497 36.8036 100.898 38.4004 99.7007 39.598C98.5031 40.7956 96.7067 41.3944 94.1119 41.3944C93.5131 41.3944 92.9143 41.2946 92.3155 41.1948C91.7167 41.095 91.1179 40.7956 90.7187 40.4962C90.2197 40.1968 89.8205 39.7976 89.5211 39.2986C89.2217 38.7996 89.0221 38.3006 89.0221 37.602C89.0221 36.5042 89.4213 35.7058 90.2197 35.107C91.0181 34.5082 91.9163 34.109 93.0141 33.8096C94.1119 33.5101 95.3095 33.3105 96.5071 33.2107C97.8045 33.1109 98.9023 33.1109 99.9003 33.1109H101.397V34.7078H101.497Z" fill="#2D374B"/>
</svg>
