<svg height="512pt" viewBox="0 -37 512 511" width="512pt" xmlns="http://www.w3.org/2000/svg"><path d="M259.477 69.016v-38.035c0-16.762-13.719-30.48-30.48-30.48h-198.516c-16.762 0-30.48 13.719-30.48 30.48v38.035zm0 0" fill="#ffe056"/><path d="M228.996.5h-31.535c16.766 0 30.48 13.719 30.48 30.48v38.035h31.535v-38.035c0-16.762-13.719-30.48-30.48-30.48zm0 0" fill="#f9cd45"/><path d="M481.52 437.742h-450.781c-16.766 0-30.48-13.715-30.48-30.48v-336.363c0-16.766 13.715-30.484 30.48-30.484h450.781c16.762 0 30.48 13.719 30.48 30.484v336.363c0 16.766-13.719 30.48-30.48 30.48zm0 0" fill="#ffe056"/><path d="M481.52 40.414h-31.535c16.766 0 30.48 13.719 30.48 30.484v336.363c0 16.766-13.715 30.48-30.48 30.48h31.535c16.762 0 30.48-13.715 30.48-30.48v-336.363c0-16.766-13.719-30.484-30.48-30.484zm0 0" fill="#f9cd45"/><path d="M.258 384.625v22.637c0 16.766 13.715 30.48 30.48 30.48h450.781c16.762 0 30.48-13.715 30.48-30.48v-22.637zm0 0" fill="#f8b53c"/><path d="M480.465 384.625v22.637c0 16.766-13.715 30.48-30.48 30.48h31.535c16.762 0 30.48-13.715 30.48-30.48v-22.637zm0 0" fill="#dc8839"/><path d="M378.289 156.887h-244.324c-6.887 0-12.52-5.633-12.52-12.52v-42.887c0-6.887 5.633-12.52 12.52-12.52h244.324c6.887 0 12.52 5.633 12.52 12.52v42.887c0 6.887-5.633 12.52-12.52 12.52zm0 0" fill="#fff4f1"/><path d="M350.902 131.258h-194.684c-4.355 0-7.883-3.531-7.883-7.883 0-4.355 3.527-7.883 7.883-7.883h194.684c4.352 0 7.883 3.527 7.883 7.883 0 4.352-3.531 7.883-7.883 7.883zm0 0-204.914 178.855c-8.242-14.211-24.152-38.684-42.438-38.684-18.332 0-34.281 24.523-42.504 38.797-.496.863-.887 1.742-1.176 2.629 10.988 9.809 25.594 15.793 41.629 15.793 17.473 0 33.242-7.113 44.488-18.535zm0 0" fill="#e3ded9"/><path d="M103.355 271.527c-3.832.027-7.555 1.137-11.117 2.988 4.516 2.27 8.797 5.742 12.746 9.773 14.121 14.426 6.906 39.039-12.844 43.23-.535.113-1.074.223-1.613.32 3.625.621 7.355.945 11.168.922 17.473-.121 33.191-7.34 44.359-18.836-8.34-14.156-24.414-38.52-42.699-38.398zm0 0" fill="#d9d8da"/><path d="M103.551 286.27c18.285 0 34.195 9.633 42.438 23.844 10.734-10.898 17.348-25.723 17.348-42.066 0-33.469-27.684-60.602-61.836-60.602s-61.836 27.133-61.836 60.602c0 17.754 7.793 33.727 20.207 44.809.289-.887.676-1.766 1.172-2.625 8.227-14.277 24.172-23.961 42.508-23.961zm0 0" fill="#fff4f1"/><path d="M101.5 207.445c-2.992 0-5.934.211-8.813.613 29.977 4.195 53.023 29.453 53.023 59.988 0 11.328-3.176 21.922-8.699 30.988 3.551 3.227 6.586 6.957 8.977 11.078 10.734-10.898 17.352-25.723 17.352-42.066-.004-33.469-27.688-60.602-61.84-60.602zm0 0" fill="#e3ded9"/><path d="M117.105 248.457c0-10.145-6.488-18.363-14.492-18.363-8 0-14.488 8.219-14.488 18.363 0 10.141 6.488 18.363 14.488 18.363 8.004 0 14.492-8.223 14.492-18.363zm0 0" fill="#ffd5cc"/><path d="M301.832 310.113c-8.242-14.211-24.152-38.684-42.438-38.684-18.332 0-34.281 24.523-42.504 38.797-.496.863-.887 1.742-1.176 2.629 10.988 9.809 25.594 15.793 41.629 15.793 17.473 0 33.242-7.113 44.488-18.535zm0 0" fill="#fff4f1"/><path d="M259.199 271.527c-3.832.027-7.555 1.137-11.117 2.988 4.516 2.27 8.797 5.742 12.742 9.773 14.125 14.426 6.91 39.039-12.84 43.23-.535.113-1.074.223-1.613.32 3.625.621 7.355.945 11.168.922 17.473-.121 33.191-7.34 44.359-18.836-8.34-14.156-24.414-38.52-42.699-38.398zm0 0" fill="#e8e4e0"/><path d="M259.395 286.27c18.285 0 34.195 9.633 42.438 23.844 10.734-10.898 17.348-25.723 17.348-42.066 0-33.469-27.684-60.602-61.836-60.602s-61.836 27.133-61.836 60.602c0 17.754 7.793 33.727 20.207 44.809.289-.887.676-1.766 1.172-2.625 8.227-14.277 24.172-23.961 42.508-23.961zm0 0" fill="#fc9086"/><path d="M257.344 207.445c-2.992 0-5.934.211-8.813.613 29.977 4.195 53.023 29.453 53.023 59.988 0 11.328-3.18 21.922-8.703 30.988 3.551 3.227 6.59 6.957 8.98 11.078 10.734-10.898 17.348-25.723 17.348-42.066 0-33.469-27.684-60.602-61.836-60.602zm0 0" fill="#f57a73"/><path d="M272.949 248.457c0-10.145-6.488-18.363-14.488-18.363-8.004 0-14.492 8.219-14.492 18.363 0 10.141 6.488 18.363 14.492 18.363 8 0 14.488-8.223 14.488-18.363zm0 0" fill="#ffd5cc"/><path d="M457.676 310.113c-8.242-14.211-24.152-38.684-42.438-38.684-18.332 0-34.281 24.523-42.508 38.797-.496.863-.883 1.742-1.172 2.629 10.988 9.809 25.594 15.793 41.629 15.793 17.473 0 33.242-7.113 44.488-18.535zm0 0" fill="#fff4f1"/><path d="M415.043 271.527c-3.832.027-7.551 1.137-11.117 2.988 4.516 2.27 8.801 5.742 12.746 9.773 14.125 14.426 6.91 39.039-12.84 43.23-.539.113-1.074.223-1.617.32 3.625.621 7.355.945 11.168.922 17.473-.121 33.191-7.34 44.359-18.836-8.34-14.156-24.414-38.52-42.699-38.398zm0 0" fill="#e8e4e0"/><path d="M415.238 286.27c18.285 0 34.195 9.633 42.438 23.844 10.734-10.898 17.348-25.723 17.348-42.066 0-33.469-27.684-60.602-61.836-60.602s-61.836 27.133-61.836 60.602c0 17.754 7.793 33.727 20.207 44.809.289-.887.676-1.766 1.172-2.625 8.227-14.277 24.176-23.961 42.508-23.961zm0 0" fill="#9ddbdf"/><path d="M413.188 207.445c-2.992 0-5.934.211-8.813.613 29.977 4.195 53.023 29.453 53.023 59.988 0 11.328-3.18 21.922-8.699 30.988 3.551 3.227 6.586 6.957 8.977 11.078 10.734-10.898 17.348-25.723 17.348-42.066 0-33.469-27.684-60.602-61.836-60.602zm0 0" fill="#7cd6e6"/><path d="M428.793 248.457c0-10.145-6.488-18.363-14.492-18.363-8 0-14.488 8.219-14.488 18.363 0 10.141 6.488 18.363 14.488 18.363 8.004 0 14.492-8.223 14.492-18.363zm0 0" fill="#ffd5cc"/></svg>