<svg height="512pt" viewBox="-3 0 512 512.0021" width="512pt" xmlns="http://www.w3.org/2000/svg"><path d="M313.684 448.996c0 34.797-28.211 63.004-63.004 63.004-34.797 0-63.004-28.207-63.004-63.004s28.207-63.004 63.004-63.004c34.793 0 63.004 28.207 63.004 63.004zm0 0" fill="#9ddbdf"/><path d="M250.68 385.992c-5.441 0-10.719.688-15.754 1.984 27.176 6.996 47.254 31.664 47.254 61.02 0 29.359-20.078 54.027-47.254 61.02 5.035 1.297 10.313 1.988 15.754 1.988 34.793 0 63.004-28.211 63.004-63.004 0-34.797-28.211-63.008-63.004-63.008zm0 0" fill="#92ddea"/><path d="M239.75 476.277c-.309 0-.613-.016-.918-.051-2.395-.281-4.527-1.645-5.789-3.695l-9.633-15.637c-2.277-3.703-1.125-8.555 2.578-10.836 3.703-2.277 8.555-1.125 10.836 2.578l4.402 7.148 31.766-31.766c3.074-3.074 8.063-3.074 11.137 0 3.074 3.078 3.074 8.063 0 11.141l-38.813 38.813c-1.484 1.484-3.492 2.305-5.566 2.305zm0 0" fill="#fff4f1"/><path d="M446.906 308.797c-4.348 0-7.875 3.523-7.875 7.875v18.047c0 4.344-3.531 7.875-7.875 7.875h-172.602v-25.922c0-4.352-3.527-7.875-7.875-7.875-4.352 0-7.879 3.523-7.879 7.875v25.922h-172.598c-4.344 0-7.879-3.531-7.879-7.875v-18.047c0-4.352-3.523-7.875-7.875-7.875-4.348 0-7.875 3.523-7.875 7.875v18.047c0 13.027 10.598 23.629 23.629 23.629h360.953c13.027 0 23.625-10.602 23.625-23.629v-18.047c0-4.352-3.523-7.875-7.875-7.875zm0 0" fill="#e3ded9"/><path d="M213.273 111.578c-8.957-15.445-26.246-42.043-46.117-42.043-19.926 0-37.258 26.652-46.195 42.168-.539.934-.961 1.891-1.277 2.855 11.941 10.66 27.816 17.16 45.242 17.16 18.992 0 36.129-7.73 48.348-20.141zm0 0" fill="#fff4f1"/><path d="M166.945 69.645c-4.168.031-8.211 1.234-12.082 3.246 4.906 2.469 9.559 6.238 13.848 10.621 15.352 15.68 7.512 42.426-13.953 46.984-.582.125-1.168.238-1.754.348 3.941.676 7.996 1.027 12.137 1 18.988-.129 36.074-7.977 48.211-20.469-9.066-15.387-26.535-41.863-46.406-41.73zm0 0" fill="#e8e4e0"/><path d="M167.156 85.668c19.871 0 37.16 10.465 46.117 25.91 11.668-11.844 18.855-27.953 18.855-45.719 0-36.375-30.086-65.859-67.203-65.859-37.113 0-67.199 29.484-67.199 65.859 0 19.297 8.465 36.652 21.957 48.699.316-.965.738-1.922 1.277-2.855 8.938-15.516 26.27-26.035 46.195-26.035zm0 0" fill="#5e8ee1"/><path d="M164.926 0c-3.25 0-6.449.23-9.578.668 32.578 4.559 57.625 32.008 57.625 65.191 0 12.309-3.453 23.824-9.457 33.676 3.859 3.508 7.16 7.566 9.758 12.043 11.668-11.844 18.855-27.953 18.855-45.719 0-36.375-30.086-65.859-67.203-65.859zm0 0" fill="#467bff"/><path d="M181.887 44.57c0-11.023-7.051-19.957-15.75-19.957-8.695 0-15.746 8.934-15.746 19.957 0 11.023 7.051 19.957 15.746 19.957 8.699 0 15.75-8.934 15.75-19.957zm0 0" fill="#ffd5cc"/><path d="M388.75 111.578c-8.957-15.445-26.25-42.043-46.121-42.043-19.922 0-37.254 26.652-46.191 42.168-.543.934-.965 1.891-1.277 2.855 11.941 10.66 27.816 17.16 45.242 17.16 18.988 0 36.125-7.73 48.348-20.141zm0 0" fill="#fff4f1"/><path d="M342.422 69.645c-4.168.031-8.211 1.234-12.086 3.246 4.91 2.469 9.563 6.238 13.852 10.621 15.352 15.68 7.508 42.426-13.953 46.984-.582.125-1.168.238-1.758.348 3.941.676 7.996 1.027 12.137 1 18.992-.129 36.074-7.977 48.211-20.469-9.063-15.387-26.535-41.863-46.402-41.73zm0 0" fill="#e8e4e0"/><path d="M342.629 85.668c19.871 0 37.164 10.465 46.121 25.91 11.664-11.844 18.855-27.953 18.855-45.719 0-36.375-30.09-65.859-67.203-65.859-37.117 0-67.203 29.484-67.203 65.859 0 19.297 8.469 36.652 21.961 48.699.313-.965.738-1.922 1.277-2.855 8.938-15.516 26.27-26.035 46.191-26.035zm0 0" fill="#5e8ee1"/><path d="M340.402 0c-3.254 0-6.449.23-9.578.668 32.578 4.559 57.625 32.008 57.625 65.191 0 12.309-3.457 23.824-9.457 33.676 3.859 3.508 7.16 7.566 9.758 12.043 11.664-11.844 18.855-27.953 18.855-45.719 0-36.375-30.09-65.859-67.203-65.859zm0 0" fill="#467bff"/><path d="M357.363 44.57c0-11.023-7.051-19.957-15.75-19.957-8.695 0-15.75 8.934-15.75 19.957 0 11.023 7.055 19.957 15.75 19.957 8.699 0 15.75-8.934 15.75-19.957zm0 0" fill="#ffd5cc"/><path d="M115.551 256.41c-8.957-15.445-26.246-42.039-46.121-42.039-19.922 0-37.254 26.648-46.191 42.164-.543.938-.965 1.891-1.277 2.855 11.941 10.66 27.816 17.164 45.242 17.164 18.988 0 36.125-7.734 48.348-20.145zm0 0" fill="#fff4f1"/><path d="M69.219 214.477c-4.164.027-8.207 1.234-12.082 3.246 4.91 2.469 9.563 6.238 13.852 10.621 15.352 15.676 7.508 42.426-13.953 46.984-.586.125-1.168.238-1.758.348 3.941.676 7.996 1.027 12.141 1 18.988-.129 36.07-7.977 48.211-20.469-9.066-15.387-26.539-41.863-46.41-41.73zm0 0" fill="#e8e4e0"/><path d="M69.43 230.496c19.875 0 37.164 10.469 46.121 25.914 11.668-11.848 18.855-27.953 18.855-45.719 0-36.371-30.09-65.859-67.203-65.859s-67.203 29.488-67.203 65.859c0 19.297 8.469 36.652 21.961 48.699.313-.965.738-1.922 1.277-2.855 8.938-15.516 26.27-26.039 46.191-26.039zm0 0" fill="#5e8ee1"/><path d="M67.203 144.832c-3.254 0-6.449.23-9.578.668 32.578 4.559 57.625 32.008 57.625 65.191 0 12.309-3.453 23.824-9.457 33.676 3.859 3.508 7.16 7.566 9.758 12.043 11.668-11.848 18.855-27.953 18.855-45.719 0-36.371-30.09-65.859-67.203-65.859zm0 0" fill="#467bff"/><path d="M84.164 189.402c0-11.023-7.051-19.957-15.75-19.957-8.695 0-15.746 8.934-15.746 19.957 0 11.023 7.051 19.957 15.746 19.957 8.699 0 15.75-8.934 15.75-19.957zm0 0" fill="#ffd5cc"/><path d="M301.012 256.41c-8.957-15.445-26.246-42.039-46.117-42.039-19.926 0-37.258 26.648-46.195 42.164-.539.938-.961 1.891-1.277 2.855 11.941 10.66 27.816 17.164 45.242 17.164 18.988 0 36.125-7.734 48.348-20.145zm0 0" fill="#fff4f1"/><path d="M254.684 214.477c-4.168.027-8.211 1.234-12.086 3.246 4.91 2.469 9.563 6.238 13.852 10.621 15.352 15.676 7.508 42.426-13.953 46.984-.582.125-1.168.238-1.754.348 3.938.676 7.992 1.027 12.137 1 18.988-.129 36.074-7.977 48.211-20.469-9.066-15.387-26.539-41.863-46.406-41.73zm0 0" fill="#e8e4e0"/><path d="M254.895 230.496c19.871 0 37.16 10.469 46.117 25.914 11.668-11.848 18.855-27.953 18.855-45.719 0-36.371-30.09-65.859-67.203-65.859s-67.203 29.488-67.203 65.859c0 19.297 8.469 36.652 21.961 48.699.316-.965.738-1.922 1.277-2.855 8.938-15.516 26.27-26.039 46.195-26.039zm0 0" fill="#5e8ee1"/><path d="M252.664 144.832c-3.25 0-6.449.23-9.578.668 32.578 4.559 57.625 32.008 57.625 65.191 0 12.309-3.453 23.824-9.457 33.676 3.859 3.508 7.16 7.566 9.758 12.043 11.668-11.848 18.855-27.953 18.855-45.719 0-36.371-30.09-65.859-67.203-65.859zm0 0" fill="#467bff"/><path d="M269.625 189.402c0-11.023-7.051-19.957-15.75-19.957-8.695 0-15.746 8.934-15.746 19.957 0 11.023 7.051 19.957 15.746 19.957 8.699 0 15.75-8.934 15.75-19.957zm0 0" fill="#ffd5cc"/><path d="M486.477 259.488c-8.961-15.445-26.25-42.039-46.121-42.039-19.926 0-37.258 26.648-46.195 42.164-.539.938-.961 1.891-1.277 2.855 11.941 10.66 27.816 17.164 45.242 17.164 18.992 0 36.129-7.73 48.352-20.145zm0 0" fill="#fff4f1"/><path d="M440.145 217.559c-4.168.027-8.211 1.23-12.086 3.246 4.91 2.469 9.563 6.238 13.852 10.617 15.352 15.68 7.512 42.43-13.953 46.984-.582.125-1.168.242-1.754.352 3.938.676 7.992 1.027 12.137.996 18.988-.129 36.074-7.977 48.211-20.469-9.066-15.387-26.535-41.863-46.406-41.727zm0 0" fill="#e8e4e0"/><path d="M440.355 233.578c19.871 0 37.16 10.465 46.121 25.914 11.664-11.848 18.852-27.957 18.852-45.719 0-36.375-30.086-65.859-67.203-65.859-37.113 0-67.199 29.484-67.199 65.859 0 19.297 8.469 36.652 21.957 48.699.316-.965.738-1.922 1.277-2.859 8.938-15.516 26.27-26.035 46.195-26.035zm0 0" fill="#5e8ee1"/><path d="M438.125 147.91c-3.25 0-6.445.234-9.578.672 32.578 4.555 57.625 32.004 57.625 65.191 0 12.309-3.453 23.82-9.453 33.676 3.855 3.508 7.156 7.563 9.758 12.043 11.664-11.848 18.852-27.957 18.852-45.719 0-36.375-30.086-65.863-67.203-65.863zm0 0" fill="#467bff"/><path d="M455.086 192.48c0-11.02-7.051-19.957-15.746-19.957-8.699 0-15.75 8.938-15.75 19.957 0 11.023 7.051 19.957 15.75 19.957 8.695 0 15.746-8.934 15.746-19.957zm0 0" fill="#ffd5cc"/></svg>