<svg height="512pt" viewBox="0 -2 512 511" width="512pt" xmlns="http://www.w3.org/2000/svg"><path d="M102.781 121.57c3.203-3.293 6.602-6.289 10.152-8.98 6.73-5.094 16.406-.617 16.773 7.813.367 8.441 10.098 12.961 16.789 7.797l54.191-41.848c5.707-4.402 5.328-13.133-.742-17.023l-57.633-36.969c-7.113-4.559-16.414.789-16.043 9.23l.23 5.309c.238 5.465-3.789 10.145-9.215 10.801-19.918 2.418-39.156 11.535-54.051 27.324-32.672 34.625-32.168 89.535 1.145 123.547l.645.648c5.91 5.918 15.996.543 14.332-7.656-5.676-27.902 2.082-58.031 23.426-79.992zm0 0 298.332 264.567c-3.742 2.668-7.625 5-11.605 7.012-7.531 3.801-16.246-2.344-15.09-10.707 1.156-8.367-7.602-14.563-15.109-10.688l-60.84 31.414c-6.406 3.305-7.602 11.961-2.332 16.883l50.043 46.73c6.172 5.77 16.285 2.18 17.441-6.191l.727-5.266c.746-5.414 5.551-9.297 11.008-8.965 20.027 1.207 40.594-4.301 58.086-17.152 38.367-28.184 47.75-82.285 21.102-121.738l-.516-.754c-4.75-6.883-15.641-3.41-15.477 4.949.559 28.469-12.492 56.715-37.438 74.473zm0 0" fill="#ebe8e4"/><path d="M454.543 307.469l-.516-.754c-4.754-6.883-15.641-3.41-15.477 4.949.156 7.941-.75 15.863-2.672 23.543 8.68 34.27-3.605 72.02-33.531 94-17.492 12.852-38.059 18.355-58.086 17.152-5.277-.32-9.934 3.305-10.91 8.445l12.824 11.977c6.176 5.766 16.285 2.18 17.441-6.191l.73-5.266c.746-5.414 5.551-9.297 11.008-8.965 20.027 1.203 40.59-4.301 58.082-17.152 38.371-28.184 47.75-82.285 21.105-121.738zm0 0" fill="#e3ded9"/><path d="M191.762 474.617c-14.867-25.633-43.563-69.77-76.539-69.77-33.066 0-61.828 44.23-76.66 69.977-.895 1.555-1.598 3.141-2.117 4.738 19.816 17.691 46.16 28.484 75.082 28.484 31.512 0 59.953-12.832 80.234-33.43zm0 0" fill="#fff4f1"/><path d="M114.875 405.027c-6.918.047-13.625 2.047-20.055 5.387 8.145 4.098 15.867 10.355 22.984 17.625 25.477 26.02 12.465 70.41-23.156 77.973-.965.203-1.938.398-2.914.578 6.539 1.125 13.266 1.707 20.141 1.66 31.516-.215 59.867-13.238 80.008-33.973-15.039-25.531-44.031-69.473-77.008-69.25zm0 0" fill="#e8e4e0"/><path d="M115.223 431.617c32.977 0 61.672 17.367 76.539 43 19.359-19.656 31.289-46.391 31.289-75.871 0-60.363-49.934-109.297-111.523-109.297-61.594 0-111.527 48.934-111.527 109.297 0 32.023 14.055 60.828 36.445 80.816.52-1.598 1.223-3.184 2.117-4.738 14.832-25.746 43.594-43.207 76.66-43.207zm0 0" fill="#f7ee7d"/><path d="M111.527 289.449c-5.398 0-10.703.383-15.898 1.109 54.066 7.563 95.633 53.113 95.633 108.188 0 20.43-5.734 39.539-15.695 55.887 6.406 5.82 11.883 12.555 16.195 19.984 19.359-19.656 31.289-46.391 31.289-75.871 0-60.363-49.934-109.297-111.523-109.297zm0 0" fill="#ffe056"/><path d="M139.672 363.414c0-18.289-11.703-33.117-26.137-33.117s-26.133 14.828-26.133 33.117c0 18.293 11.699 33.121 26.133 33.121s26.137-14.828 26.137-33.121zm0 0" fill="#ffd5cc"/><path d="M480.711 185.672c-14.867-25.637-43.563-69.77-76.539-69.77-33.066 0-61.828 44.227-76.66 69.973-.895 1.555-1.598 3.141-2.121 4.742 19.82 17.691 46.164 28.48 75.082 28.48 31.516 0 59.957-12.832 80.238-33.426zm0 0" fill="#fff4f1"/><path d="M403.824 116.078c-6.918.047-13.625 2.047-20.055 5.387 8.145 4.098 15.867 10.355 22.984 17.625 25.477 26.02 12.461 70.41-23.156 77.973-.965.203-1.938.398-2.914.578 6.539 1.125 13.266 1.707 20.141 1.66 31.516-.215 59.867-13.238 80.008-33.973-15.039-25.531-44.035-69.473-77.008-69.25zm0 0" fill="#e8e4e0"/><path d="M404.172 142.668c32.977 0 61.672 17.367 76.539 43.004 19.359-19.66 31.289-46.395 31.289-75.875 0-60.363-49.934-109.297-111.527-109.297-61.59 0-111.523 48.934-111.523 109.297 0 32.023 14.055 60.828 36.441 80.816.523-1.598 1.227-3.184 2.121-4.738 14.832-25.746 43.594-43.207 76.66-43.207zm0 0" fill="#fc9086"/><path d="M400.473.5c-5.395 0-10.699.383-15.895 1.109 54.066 7.563 95.633 53.113 95.633 108.188 0 20.43-5.734 39.539-15.695 55.891 6.402 5.82 11.883 12.551 16.195 19.984 19.359-19.66 31.289-46.395 31.289-75.875 0-60.363-49.934-109.297-111.527-109.297zm0 0" fill="#f57a73"/><path d="M428.621 74.469c0-18.293-11.703-33.121-26.137-33.121s-26.133 14.828-26.133 33.121c0 18.289 11.699 33.117 26.133 33.117s26.137-14.828 26.137-33.117zm0 0" fill="#ffd5cc"/></svg>