<svg height="511pt" viewBox="0 0 511 511.99911" width="511pt" xmlns="http://www.w3.org/2000/svg"><path d="M363.809 250.254l-4.223.105c-1.102-20.176-8.41-38.715-20.035-53.77l3.551-2.594c5.809-4.242 6.617-12.617 1.707-17.875-10.074-10.793-22.238-19.605-35.602-25.789-6.527-3.023-14.234.371-16.445 7.219l-1.754 5.422c-8.922-2.719-18.383-4.195-28.184-4.195-10.566 0-20.73 1.723-30.258 4.863l-1.957-5.996c-2.23-6.84-9.949-10.207-16.469-7.164-13.344 6.227-25.48 15.074-35.52 25.902-4.891 5.273-4.059 13.645 1.762 17.867l4.809 3.492c-11.672 15.598-18.73 34.82-19.223 55.641l-4.746.004c-7.184.008-12.758 6.281-11.914 13.414 1.75 14.773 6.363 28.938 13.648 41.883 3.52 6.262 11.727 8.039 17.535 3.809l2.555-1.863c11.664 16.887 28.547 29.895 48.297 36.699l-.539 1.664c-2.215 6.836 2.031 14.094 9.086 15.477 7.195 1.418 14.539 2.129 21.945 2.129h.004c7.441 0 14.82-.719 22.051-2.148 7.051-1.395 11.297-8.652 9.074-15.488l-.348-1.063c21.328-6.91 39.43-21.02 51.441-39.453l1.973 1.359c5.922 4.078 14.094 2.074 17.434-4.293 6.863-13.07 11.164-27.461 12.59-42.117.695-7.16-5.051-13.313-12.246-13.141zm-100.984 62.395c-31.402 0-56.953-25.551-56.953-56.953 0-31.406 25.551-56.953 56.953-56.953 31.406 0 56.953 25.547 56.953 56.953 0 31.402-25.547 56.953-56.953 56.953zm0 0" fill="#b4b4b4"/><path d="M363.809 250.254l-4.223.105c-1.102-20.176-8.41-38.715-20.035-53.77l3.551-2.594c5.809-4.242 6.617-12.617 1.707-17.875-10.074-10.793-22.238-19.605-35.602-25.789-6.527-3.023-14.234.371-16.445 7.219l-1.754 5.422c-2.676-.816-5.406-1.504-8.176-2.09 27.574 20.504 45.445 53.332 45.445 90.336 0 55.652-40.414 101.855-93.496 110.891 1.441 1.141 3.164 1.98 5.109 2.363 7.195 1.414 14.539 2.129 21.945 2.129h.004c7.441 0 14.82-.723 22.051-2.148 7.051-1.395 11.297-8.652 9.074-15.492l-.348-1.063c21.328-6.906 39.43-21.016 51.441-39.453l1.973 1.359c5.922 4.082 14.094 2.078 17.434-4.289 6.863-13.074 11.164-27.465 12.59-42.121.695-7.16-5.051-13.313-12.246-13.141zm0 0" fill="#9a9999"/><path d="M423.871 346.902c-3.988 0-7.91.285-11.75.82 39.969 5.59 70.695 39.266 70.695 79.98 0 15.102-4.238 29.227-11.602 41.316 4.734 4.301 8.785 9.277 11.973 14.773 14.313-14.535 23.129-34.297 23.129-56.09.004-44.625-36.91-80.801-82.445-80.801zm0 0" fill="#f57a73"/><path d="M158.648 152.715c-12.258-21.141-35.926-57.543-63.121-57.543-27.27 0-50.992 36.477-63.227 57.711-.738 1.285-1.316 2.594-1.746 3.91 16.344 14.59 38.07 23.488 61.922 23.488 25.992 0 49.445-10.582 66.172-27.566zm0 0" fill="#fff4f1"/><path d="M95.238 95.32c-5.703.039-11.238 1.691-16.539 4.445 6.719 3.379 13.09 8.539 18.957 14.531 21.012 21.461 10.277 58.07-19.098 64.309-.797.168-1.598.328-2.402.477 5.395.926 10.941 1.406 16.613 1.367 25.988-.176 49.371-10.918 65.984-28.016-12.406-21.059-36.32-57.297-63.516-57.113zm0 0" fill="#e8e4e0"/><path d="M95.527 117.25c27.195 0 50.859 14.324 63.121 35.465 15.969-16.215 25.809-38.262 25.809-62.574 0-49.781-41.184-90.141-91.98-90.141-50.797 0-91.977 40.359-91.977 90.141 0 26.41 11.59 50.164 30.055 66.652.43-1.32 1.008-2.629 1.746-3.91 12.234-21.234 35.957-35.633 63.227-35.633zm0 0" fill="#ffe056"/><path d="M92.477 0c-4.449 0-8.824.316-13.109.914 44.59 6.238 78.871 43.805 78.871 89.227 0 16.848-4.73 32.605-12.945 46.09 5.281 4.801 9.801 10.355 13.355 16.484 15.969-16.215 25.805-38.262 25.805-62.574.004-49.781-41.18-90.141-91.977-90.141zm0 0" fill="#f9cd45"/><path d="M115.691 61.004c0-15.086-9.652-27.316-21.555-27.316-11.906 0-21.555 12.23-21.555 27.316 0 15.086 9.648 27.313 21.555 27.313 11.902 0 21.555-12.227 21.555-27.313zm0 0" fill="#ffd5cc"/><path d="M486.457 152.715c-12.258-21.141-35.926-57.543-63.121-57.543-27.27 0-50.992 36.477-63.227 57.711-.738 1.285-1.316 2.594-1.746 3.91 16.344 14.59 38.07 23.488 61.922 23.488 25.992 0 49.445-10.582 66.172-27.566zm0 0" fill="#fff4f1"/><path d="M423.047 95.32c-5.703.039-11.238 1.691-16.539 4.445 6.719 3.379 13.086 8.539 18.957 14.531 21.012 21.461 10.277 58.07-19.098 64.309-.797.168-1.598.328-2.402.477 5.395.926 10.941 1.406 16.613 1.367 25.988-.176 49.371-10.918 65.984-28.016-12.406-21.059-36.32-57.297-63.516-57.113zm0 0" fill="#e8e4e0"/><path d="M423.336 117.25c27.195 0 50.859 14.324 63.121 35.465 15.969-16.215 25.809-38.262 25.809-62.574 0-49.781-41.184-90.141-91.98-90.141s-91.977 40.359-91.977 90.141c0 26.41 11.59 50.164 30.055 66.652.434-1.32 1.012-2.629 1.75-3.91 12.23-21.234 35.953-35.633 63.223-35.633zm0 0" fill="#9ddbdf"/><path d="M420.285 0c-4.449 0-8.824.316-13.109.914 44.59 6.238 78.871 43.805 78.871 89.227 0 16.848-4.727 32.605-12.941 46.09 5.277 4.801 9.797 10.355 13.352 16.484 15.969-16.215 25.809-38.262 25.809-62.574 0-49.781-41.184-90.141-91.98-90.141zm0 0" fill="#7cd6e6"/><path d="M443.5 61.004c0-15.086-9.652-27.316-21.555-27.316-11.906 0-21.555 12.23-21.555 27.316 0 15.086 9.648 27.313 21.555 27.313 11.902 0 21.555-12.227 21.555-27.313zm0 0" fill="#ffd5cc"/><path d="M486.457 483.246c-12.258-21.141-35.926-57.539-63.121-57.539-27.27 0-50.992 36.477-63.227 57.711-.738 1.281-1.316 2.59-1.746 3.906 16.344 14.594 38.07 23.492 61.922 23.492 25.992 0 49.445-10.582 66.172-27.57zm0 0" fill="#fff4f1"/><path d="M423.047 425.855c-5.703.039-11.238 1.688-16.539 4.441 6.719 3.379 13.086 8.539 18.957 14.535 21.012 21.461 10.277 58.07-19.098 64.305-.797.172-1.598.328-2.402.477 5.395.926 10.941 1.406 16.613 1.367 25.988-.176 49.371-10.914 65.984-28.016-12.406-21.055-36.32-57.293-63.516-57.109zm0 0" fill="#e8e4e0"/><path d="M423.336 447.781c27.195 0 50.859 14.324 63.121 35.465 15.969-16.211 25.809-38.262 25.809-62.57 0-49.785-41.184-90.145-91.98-90.145s-91.977 40.359-91.977 90.145c0 26.406 11.59 50.164 30.055 66.648.434-1.32 1.012-2.625 1.75-3.906 12.23-21.234 35.953-35.637 63.223-35.637zm0 0" fill="#fc9086"/><path d="M420.285 330.531c-4.449 0-8.824.316-13.109.918 44.59 6.234 78.871 43.805 78.871 89.227 0 16.848-4.727 32.605-12.941 46.09 5.277 4.801 9.797 10.352 13.352 16.48 15.969-16.211 25.809-38.262 25.809-62.57 0-49.785-41.184-90.145-91.98-90.145zm0 0" fill="#f57a73"/><path d="M443.5 391.535c0-15.086-9.652-27.316-21.555-27.316-11.906 0-21.555 12.23-21.555 27.316 0 15.086 9.648 27.316 21.555 27.316 11.902 0 21.555-12.23 21.555-27.316zm0 0" fill="#ffd5cc"/><path d="M158.648 484.262c-12.258-21.141-35.922-57.539-63.121-57.539-27.27 0-50.992 36.473-63.227 57.711-.738 1.281-1.316 2.59-1.746 3.906 16.344 14.594 38.07 23.492 61.922 23.492 25.992 0 49.445-10.582 66.172-27.57zm0 0" fill="#fff4f1"/><path d="M95.238 426.871c-5.703.039-11.238 1.688-16.539 4.441 6.719 3.379 13.09 8.539 18.957 14.535 21.012 21.457 10.277 58.07-19.098 64.305-.797.168-1.598.328-2.402.477 5.395.926 10.941 1.406 16.613 1.367 25.988-.176 49.371-10.914 65.984-28.016-12.406-21.059-36.32-57.293-63.516-57.109zm0 0" fill="#e8e4e0"/><path d="M95.527 448.797c27.195 0 50.859 14.324 63.121 35.465 15.969-16.215 25.809-38.262 25.809-62.574 0-49.781-41.184-90.141-91.98-90.141-50.797 0-91.977 40.359-91.977 90.141 0 26.41 11.59 50.168 30.055 66.652.434-1.32 1.012-2.629 1.75-3.91 12.23-21.234 35.953-35.633 63.223-35.633zm0 0" fill="#5e8ee1"/><path d="M92.477 331.547c-4.449 0-8.824.316-13.109.914 44.59 6.238 78.871 43.805 78.871 89.227 0 16.848-4.73 32.609-12.945 46.094 5.281 4.797 9.801 10.352 13.355 16.48 15.969-16.215 25.805-38.262 25.805-62.574.004-49.781-41.18-90.141-91.977-90.141zm0 0" fill="#467bff"/><path d="M115.691 392.551c0-15.086-9.652-27.316-21.555-27.316-11.906 0-21.555 12.23-21.555 27.316 0 15.086 9.648 27.313 21.555 27.313 11.902 0 21.555-12.227 21.555-27.313zm0 0" fill="#ffd5cc"/><path d="M234.172 48.414c.313 0 .637-.02.961-.063 4.172-.527 7.113-4.34 6.586-8.5-.527-4.184-4.332-7.125-8.504-6.598-4.168.527-7.121 4.332-6.594 8.504.488 3.844 3.766 6.656 7.551 6.656zm0 0 84.437 5.914c.68.184 1.371.273 2.039.273 3.34 0 6.391-2.199 7.324-5.57 1.129-4.059-1.246-8.246-5.293-9.375-4.051-1.113-8.25 1.258-9.367 5.309-1.125 4.047 1.25 8.238 5.297 9.363zm0 0-126.882 3.856c.813 0 1.633-.129 2.445-.406 3.977-1.348 6.109-5.66 4.762-9.648-1.352-3.977-5.664-6.105-9.641-4.758-3.988 1.348-6.117 5.66-4.77 9.648 1.074 3.168 4.027 5.164 7.203 5.164zm0 0 85.453-10.989l.551.02c3.957 0 7.293-3.063 7.578-7.07.293-4.191-2.863-7.832-7.051-8.129-4.191-.305-7.836 2.863-8.129 7.055-.305 4.188 2.863 7.832 7.051 8.125zm0 0 205.082 232.61c.293-4.191-2.863-7.836-7.051-8.129-4.191-.293-7.836 2.863-8.129 7.051-.293 4.191 2.859 7.836 7.051 8.129.184.02.367.02.551.02 3.957 0 7.293-3.063 7.578-7.07zm0 0-17.016 49.726c.68.184 1.371.273 2.039.273 3.34 0 6.391-2.211 7.324-5.578 1.129-4.051-1.246-8.242-5.297-9.367-4.047-1.125-8.238 1.25-9.363 5.297s1.246 8.25 5.297 9.375zm0 0-1.543-128.636c.801 0 1.633-.133 2.434-.406 3.988-1.348 6.121-5.672 4.77-9.648-1.348-3.977-5.672-6.117-9.648-4.77-3.977 1.352-6.109 5.672-4.758 9.648h-.012c1.078 3.176 4.039 5.176 7.215 5.176zm0 0 2.223 35.785c.488 3.848 3.766 6.656 7.539 6.656.324 0 .637-.02.965-.059 4.168-.527 7.121-4.344 6.594-8.516-.527-4.168-4.344-7.121-8.504-6.594-4.168.539-7.121 4.344-6.594 8.512zm0 0-147.367 221.367c-3.988 1.348-6.117 5.66-4.77 9.648 1.074 3.164 4.039 5.164 7.203 5.164.813 0 1.637-.133 2.445-.406 3.98-1.348 6.109-5.66 4.77-9.648-1.348-3.977-5.672-6.109-9.648-4.758zm0 0-40.961 9.426c-4.172.527-7.125 4.344-6.598 8.512.488 3.836 3.766 6.648 7.539 6.648.328 0 .652-.023.977-.063 4.168-.527 7.113-4.332 6.586-8.504-.531-4.168-4.336-7.121-8.504-6.594zm0 0-42.047 1.156c-4.191-.293-7.832 2.863-8.137 7.051-.297 4.191 2.859 7.836 7.063 8.129.18.02.363.02.535.02 3.969 0 7.305-3.063 7.59-7.07.293-4.191-2.859-7.836-7.051-8.129zm0 0-186.524-138.469c.801 0 1.633-.133 2.438-.406 3.984-1.348 6.117-5.672 4.766-9.648-1.348-3.977-5.672-6.117-9.648-4.77-3.977 1.352-6.117 5.672-4.77 9.648 1.078 3.176 4.039 5.176 7.215 5.176zm0 0-17.32-49.097c.488 3.844 3.754 6.645 7.539 6.645.316 0 .641-.02.965-.059 4.172-.527 7.121-4.336 6.586-8.504h.008c-.535-4.172-4.34-7.125-8.512-6.594-4.172.535-7.121 4.34-6.594 8.512zm0 0 11.699-80.098c.691.195 1.371.273 2.039.273 3.34.012 6.395-2.199 7.336-5.57 1.117-4.047-1.258-8.246-5.305-9.375-4.051-1.113-8.238 1.258-9.367 5.309-1.125 4.047 1.25 8.238 5.297 9.363zm0 0-12.937 35.058c-.305 4.188 2.852 7.832 7.055 8.125l.535.02c3.957 0 7.305-3.063 7.59-7.07.297-4.191-2.859-7.832-7.051-8.129-4.199-.305-7.832 2.863-8.129 7.055zm0 0" fill="#d0cfd1"/></svg>