<svg height="512pt" viewBox="-1 0 512 512.00046" width="512pt" xmlns="http://www.w3.org/2000/svg"><path d="M324.664 63.559l-2.66.063c-.691-12.691-5.289-24.352-12.602-33.824l2.234-1.629c3.652-2.672 4.16-7.938 1.074-11.246-6.336-6.789-13.988-12.332-22.395-16.223-4.109-1.902-8.957.23-10.348 4.539l-1.102 3.41c-5.613-1.707-11.563-2.637-17.73-2.637-6.645 0-13.039 1.086-19.031 3.059l-1.23-3.77c-1.406-4.305-6.262-6.422-10.363-4.508-8.395 3.918-16.031 9.484-22.348 16.293-3.074 3.32-2.551 8.586 1.109 11.242l3.027 2.195c-7.344 9.813-11.785 21.906-12.094 35.004h-2.984c-4.52.008-8.023 3.953-7.496 8.441 1.102 9.293 4.004 18.203 8.586 26.348 2.215 3.938 7.379 5.059 11.031 2.395l1.609-1.172c7.336 10.625 17.957 18.805 30.383 23.086l-.34 1.047c-1.395 4.301 1.277 8.867 5.715 9.738 4.527.891 9.145 1.34 13.805 1.34h.004c4.684 0 9.32-.453 13.871-1.352 4.438-.879 7.105-5.445 5.707-9.746l-.219-.668c13.418-4.344 24.805-13.223 32.359-24.816l1.242.852c3.727 2.566 8.863 1.309 10.969-2.699 4.316-8.223 7.02-17.277 7.918-26.496.438-4.504-3.18-8.375-7.703-8.266zm-63.527 25.813c-12.348 0-22.395-10.043-22.395-22.391 0-12.348 10.047-22.395 22.395-22.395 12.348 0 22.395 10.047 22.395 22.395 0 12.348-10.047 22.391-22.395 22.391zm0 0" fill="#b4b4b4"/><path d="M324.664 63.559l-2.656.063c-.695-12.691-5.293-24.352-12.602-33.82l2.23-1.633c3.652-2.672 4.16-7.938 1.074-11.246-6.336-6.789-13.988-12.332-22.395-16.223-4.109-1.902-8.957.234-10.348 4.539l-1.102 3.414c-5.613-1.711-11.563-2.641-17.73-2.641-3.734 0-7.387.355-10.934 1.008 26.41 7.898 45.668 32.375 45.668 61.355 0 32.051-23.543 58.605-54.281 63.309 1.035 1.855 2.844 3.277 5.121 3.727 4.527.891 9.145 1.34 13.805 1.34h.004c4.684 0 9.32-.453 13.871-1.352 4.438-.879 7.105-5.441 5.707-9.746l-.219-.668c13.418-4.344 24.805-13.223 32.359-24.816l1.242.855c3.727 2.566 8.867 1.305 10.969-2.703 4.316-8.223 7.023-17.273 7.918-26.496.438-4.504-3.18-8.375-7.703-8.266zm0 0" fill="#9a9999"/><path d="M341.648 253.801l-3.672.09c-.953-17.527-7.305-33.633-17.402-46.711l3.086-2.254c5.043-3.688 5.746-10.961 1.48-15.531-8.75-9.375-19.32-17.031-30.93-22.406-5.672-2.625-12.367.324-14.289 6.273l-1.52 4.711c-7.754-2.363-15.973-3.645-24.488-3.645-9.18 0-18.012 1.496-26.285 4.227l-1.699-5.211c-1.941-5.941-8.645-8.867-14.313-6.227-11.594 5.414-22.137 13.102-30.859 22.508-4.25 4.578-3.523 11.852 1.531 15.523l4.18 3.031c-10.141 13.551-16.273 30.254-16.699 48.34l-4.125.004c-6.242.008-11.086 5.457-10.352 11.656 1.52 12.836 5.527 25.141 11.855 36.387 3.063 5.438 10.191 6.984 15.234 3.309l2.223-1.617c10.133 14.672 24.801 25.973 41.961 31.883l-.469 1.449c-1.926 5.938 1.766 12.242 7.891 13.445 6.254 1.23 12.633 1.848 19.066 1.848h.008c6.465 0 12.875-.625 19.156-1.863 6.125-1.211 9.813-7.52 7.883-13.457l-.301-.926c18.527-6 34.254-18.258 44.691-34.273l1.711 1.18c5.145 3.543 12.246 1.805 15.148-3.73 5.961-11.355 9.699-23.859 10.938-36.59.602-6.227-4.391-11.574-10.641-11.422zm-41.914 23.402c-7.383 18.055-25.141 30.805-45.82 30.805-27.285 0-49.484-22.195-49.484-49.48s22.199-49.48 49.484-49.48c21.715 0 40.211 14.063 46.855 33.563m0 0c1.699 4.996 2.625 10.352 2.625 15.918 0 6.605-1.301 12.91-3.66 18.676" fill="#b4b4b4"/><path d="M341.648 253.801l-3.672.09c-.953-17.527-7.305-33.633-17.402-46.711l3.086-2.254c5.043-3.688 5.746-10.961 1.48-15.531-8.75-9.375-19.32-17.031-30.93-22.402-5.672-2.629-12.367.32-14.289 6.27l-1.52 4.711c-7.754-2.359-15.973-3.645-24.488-3.645-.676 0-1.344.027-2.012.043 33.855 14.371 57.602 47.922 57.602 87.02 0 44.828-31.219 82.367-73.102 92.059 5.48.934 11.043 1.434 16.652 1.434h.004c6.469 0 12.875-.625 19.16-1.867 6.125-1.207 9.813-7.516 7.879-13.453l-.297-.926c18.527-6 34.25-18.262 44.688-34.277l1.715 1.18c5.145 3.547 12.242 1.805 15.148-3.727 5.961-11.355 9.695-23.859 10.938-36.594.602-6.223-4.391-11.57-10.641-11.418zm0 0" fill="#9a9999"/><path d="M125.164 198.23c0-19.848-11.172-35.938-24.953-35.938-13.785 0-24.957 16.09-24.957 35.938 0 19.844 11.172 35.934 24.957 35.934 13.781 0 24.953-16.09 24.953-35.934zm0 0" fill="#ffd5cc"/><path d="M28.883 484.16c-5.332 0-10.59-2.453-13.984-7.082-5.66-7.719-3.992-18.563 3.723-24.223l62.105-45.539-9.883-43.43c-.141-9.566 6.348-18.594 15.918-18.734 9.543-.156 27.832 8.656 27.977 18.227l.77 52.367c.082 5.609-2.555 10.91-7.078 14.227l-69.313 50.828c-3.09 2.27-6.68 3.359-10.234 3.359zm0 0" fill="#7cd6e6"/><path d="M37.164 504.598c2.902 2.902 7.844 2.352 9.871-1.219 6.996-12.301 5.25-28.223-5.242-38.715-10.488-10.492-26.41-12.234-38.711-5.238-3.57 2.027-4.121 6.969-1.219 9.867zm0 0" fill="#b4b4b4"/><path d="M220.41 248.199h-120.668c-.602-.031-1.211-.047-1.82-.047-19.441 0-35.348 15.906-35.348 35.348v72.98l35.734 10.508 34.961-10.508v-72.98c0-1.141-.059-2.273-.168-3.391h87.309c8.777 0 15.957-7.18 15.957-15.953 0-8.777-7.18-15.957-15.957-15.957zm0 0" fill="#fc9086"/><path d="M101.746 356.48l-15.785 4.742h31.523l15.785-4.742v-72.98c0-1.141-.059-2.273-.168-3.391h-28.059c-1.844 0-3.301 1.512-3.301 3.355v73.015zm0 0 118.664-108.281h-31.527c8.777 0 15.957 7.18 15.957 15.957 0 8.773-7.18 15.953-15.957 15.953h31.527c8.777 0 15.957-7.18 15.957-15.953 0-8.777-7.18-15.957-15.957-15.957zm0 0" fill="#f57a73"/><path d="M133.27 356.48l44.98 42.617 1.441 1.277c2.914 2.586 4.449 6.168 4.555 9.758l1.586 71.008c.215 8.172-6.309 14.965-14.563 15.176-8.258.215-15.125-6.238-15.34-14.41-.008-.242-9.164-63.289-9.164-63.289l-67.148-36.238c-10.418-4.82-17.703-15.195-17.043-25.902" fill="#9ddbdf"/><path d="M201.406 512c4.152 0 7.207-3.957 6.09-7.957-3.793-13.586-16.25-23.551-31.047-23.551-14.793 0-27.254 9.965-31.047 23.551-1.117 4 1.938 7.957 6.094 7.957zm0 0" fill="#b4b4b4"/><path d="M434.094 198.23c0-19.848-11.172-35.938-24.953-35.938s-24.953 16.09-24.953 35.938c0 19.844 11.172 35.934 24.953 35.934s24.953-16.09 24.953-35.934zm0 0" fill="#ffd5cc"/><path d="M480.469 484.16c5.328 0 10.59-2.453 13.984-7.082 5.66-7.719 3.992-18.563-3.727-24.223l-62.102-45.539 9.883-43.43c.137-9.566-6.348-18.594-15.918-18.734-9.547-.156-27.836 8.656-27.977 18.227l-.77 52.367c-.082 5.609 2.555 10.91 7.078 14.227l69.313 50.828c3.09 2.27 6.68 3.359 10.234 3.359zm0 0" fill="#467bff"/><path d="M472.188 504.598c-2.902 2.902-7.844 2.352-9.871-1.219-6.996-12.301-5.25-28.223 5.238-38.715 10.492-10.492 26.414-12.234 38.715-5.238 3.57 2.027 4.121 6.969 1.219 9.867zm0 0" fill="#b4b4b4"/><path d="M288.941 248.199h120.668c.602-.031 1.211-.047 1.82-.047 19.441 0 35.348 15.906 35.348 35.348v72.98l-35.734 10.508-34.961-10.508v-72.98c0-1.141.059-2.273.164-3.391h-87.305c-8.777 0-15.957-7.18-15.957-15.953 0-8.777 7.18-15.957 15.957-15.957zm0 0" fill="#ffe056"/><path d="M411.43 248.152c-.609 0-1.219.016-1.82.047h-27.891c18.609.953 33.531 16.469 33.531 35.301v72.977l-19.797 5.824 15.59 4.688 35.734-10.512v-72.977c0-19.441-15.906-35.348-35.348-35.348zm0 0" fill="#f9cd45"/><path d="M376.082 356.48l-44.98 42.617-1.441 1.277c-2.914 2.586-4.449 6.168-4.559 9.758l-1.582 71.008c-.215 8.172 6.305 14.965 14.563 15.176 8.258.215 15.125-6.238 15.34-14.41.008-.242 9.164-63.289 9.164-63.289l67.148-36.238c10.418-4.82 17.699-15.195 17.043-25.902" fill="#5e8ee1"/><path d="M307.945 512c-4.152 0-7.211-3.957-6.094-7.957 3.793-13.586 16.254-23.551 31.047-23.551 14.797 0 27.258 9.965 31.047 23.551 1.117 4-1.938 7.957-6.09 7.957zm0 0" fill="#b4b4b4"/></svg>