<svg height="511.999pt" viewBox="1 1 511.99897 511.99897" width="511.999pt" xmlns="http://www.w3.org/2000/svg"><path d="M379.406 249.949l-5.117.125c-1.332-24.441-10.188-46.898-24.27-65.137l4.305-3.141c7.035-5.141 8.012-15.285 2.066-21.656-12.203-13.074-26.941-23.75-43.129-31.242-7.91-3.66-17.25.449-19.926 8.746l-2.121 6.566c-10.809-3.293-22.27-5.078-34.145-5.078-12.801 0-25.113 2.086-36.656 5.891l-2.367-7.262c-2.703-8.289-12.055-12.371-19.953-8.684-16.168 7.543-30.871 18.266-43.031 31.379-5.926 6.391-4.918 16.531 2.133 21.648l5.828 4.227c-14.141 18.898-22.691 42.188-23.289 67.406l-5.75.008c-8.699.008-15.453 7.609-14.43 16.25 2.117 17.898 7.707 35.055 16.527 50.738 4.27 7.586 14.211 9.742 21.242 4.613l3.098-2.258c14.133 20.461 34.582 36.215 58.512 44.461l-.652 2.016c-2.684 8.285 2.461 17.074 11.004 18.754 8.719 1.711 17.613 2.574 26.586 2.574h.008c9.016 0 17.953-.871 26.711-2.602 8.543-1.688 13.684-10.48 10.992-18.762l-.418-1.289c25.836-8.367 47.762-25.461 62.316-47.797l2.391 1.648c7.172 4.941 17.074 2.516 21.121-5.199 8.313-15.836 13.523-33.27 15.25-51.023.844-8.676-6.121-16.133-14.836-15.922zm-122.336 75.586c-38.047 0-68.996-30.953-68.996-68.996 0-38.047 30.949-69 68.996-69s68.996 30.953 68.996 69c0 38.043-30.949 68.996-68.996 68.996zm0 0" fill="#b4b4b4"/><path d="M379.406 249.949l-5.117.125c-1.332-24.441-10.188-46.898-24.27-65.137l4.305-3.141c7.035-5.141 8.012-15.285 2.066-21.656-12.203-13.074-26.941-23.75-43.129-31.242-7.91-3.66-17.25.449-19.926 8.746l-2.121 6.57c-5.496-1.676-11.16-2.957-16.961-3.816 38.23 22.508 71.152 64.078 71.152 111.648 0 67.895-59.523 123.578-126.012 129.027 1.988 3.609 5.48 6.379 9.891 7.246 8.719 1.715 17.613 2.578 26.586 2.578h.012c9.012 0 17.949-.871 26.711-2.602 8.543-1.688 13.684-10.484 10.992-18.766l-.422-1.285c25.836-8.371 47.766-25.465 62.32-47.797l2.387 1.645c7.176 4.945 17.074 2.52 21.121-5.195 8.316-15.836 13.523-33.273 15.25-51.027.844-8.68-6.121-16.133-14.836-15.922zm0 0" fill="#9a9999"/><path d="M184.063 43.59c5.191-3.5 10.672-6.66 16.422-9.461 25.082-12.223 52.789-16.387 80.133-12.051l.238.043c40.969 7.121 75.766 31.691 95.465 67.406 4.422 8.02 1.508 18.102-6.508 22.523-8.02 4.422-18.102 1.508-22.523-6.508-14.801-26.832-41.039-45.32-71.996-50.738-41.785-6.582-84.375 14.168-103.59 50.484-2.977 5.621-8.723 8.828-14.668 8.828-2.613 0-5.266-.621-7.738-1.93-8.094-4.281-11.184-14.313-6.898-22.406 4.781-9.039 10.598-17.398 17.328-24.961m-.001.001c7.129-8.012 15.289-15.133 24.336-21.23" fill="#f7ee7d"/><path d="M285.398 40.145c0-22.172-12.23-40.145-27.316-40.145-15.09 0-27.32 17.973-27.32 40.145s12.23 40.145 27.32 40.145c15.086 0 27.316-17.973 27.316-40.145zm0 0" fill="#ffd5cc"/><path d="M397.883 157.035c0-2.613.621-5.266 1.93-7.738 4.281-8.094 14.313-11.184 22.406-6.898 24.109 12.758 43.355 32.844 55.652 58.086 12.223 25.082 16.387 52.789 12.051 80.133l-.043.238c-7.121 40.969-31.691 75.766-67.406 95.465-8.02 4.422-18.102 1.508-22.523-6.508-4.422-8.02-1.508-18.102 6.508-22.523 26.832-14.801 45.32-41.039 50.738-71.996 6.582-41.785-14.168-84.375-50.484-103.59-5.621-2.977-8.828-8.723-8.828-14.668zm0 0" fill="#7cd6e6"/><path d="M512 258.082c0-15.09-17.973-27.32-40.145-27.32s-40.145 12.23-40.145 27.32c0 15.086 17.973 27.316 40.145 27.316s40.145-12.23 40.145-27.316zm0 0" fill="#ffd5cc"/><path d="M354.965 397.883c2.613 0 5.266.621 7.738 1.93 8.094 4.281 11.18 14.313 6.898 22.406-12.758 24.109-32.844 43.355-58.086 55.652-25.086 12.223-52.793 16.387-80.133 12.051l-.242-.043c-40.965-7.121-75.762-31.691-95.461-67.406-4.422-8.02-1.508-18.102 6.508-22.523 8.02-4.422 18.102-1.508 22.523 6.508 14.801 26.832 41.035 45.32 71.992 50.738 41.785 6.582 84.375-14.168 103.594-50.484 2.977-5.621 8.723-8.828 14.668-8.828zm0 0" fill="#f7ee7d"/><path d="M281.238 471.855c0-22.172-12.23-40.145-27.32-40.145-15.086 0-27.316 17.973-27.316 40.145s12.23 40.145 27.316 40.145c15.09 0 27.32-17.973 27.32-40.145zm0 0" fill="#ffd5cc"/><path d="M114.117 354.965c0 2.613-.621 5.266-1.93 7.738-4.281 8.094-14.313 11.18-22.406 6.898-24.109-12.758-43.355-32.844-55.652-58.086-12.223-25.086-16.387-52.793-12.051-80.133l.043-.242c7.121-40.965 31.691-75.762 67.406-95.461 8.02-4.422 18.102-1.508 22.523 6.508 4.422 8.02 1.508 18.102-6.508 22.523-26.832 14.801-45.32 41.035-50.738 71.992-6.582 41.785 14.168 84.375 50.484 103.594 5.621 2.977 8.828 8.723 8.828 14.668zm0 0" fill="#7cd6e6"/><path d="M80.289 253.918c0-15.086-17.973-27.316-40.145-27.316s-40.145 12.23-40.145 27.316c0 15.09 17.973 27.32 40.145 27.32s40.145-12.23 40.145-27.32zm0 0" fill="#ffd5cc"/></svg>