<svg height="512pt" viewBox="0 -50 512 512" width="512pt" xmlns="http://www.w3.org/2000/svg"><path d="M138.926 387.316c-10.664-18.387-31.246-50.047-54.902-50.047-23.719 0-44.352 31.727-54.988 50.195-.645 1.117-1.145 2.254-1.52 3.402 14.215 12.688 33.113 20.43 53.855 20.43 22.605 0 43.004-9.203 57.555-23.98zm0 0" fill="#fff4f1"/><path d="M83.773 337.402c-4.961.031-9.773 1.469-14.387 3.863 5.844 2.938 11.383 7.426 16.488 12.641 18.273 18.664 8.941 50.508-16.609 55.93-.695.148-1.391.285-2.09.418 4.691.805 9.516 1.223 14.449 1.188 22.605-.152 42.941-9.496 57.387-24.367-10.785-18.316-31.582-49.832-55.238-49.672zm0 0" fill="#e8e4e0"/><path d="M84.023 356.473c23.656 0 44.238 12.457 54.902 30.844 13.887-14.102 22.445-33.277 22.445-54.422 0-43.301-35.816-78.402-80-78.402s-80 35.102-80 78.402c0 22.969 10.082 43.633 26.145 57.973.375-1.148.875-2.285 1.52-3.402 10.637-18.469 31.27-30.992 54.988-30.992zm0 0" fill="#9ddbdf"/><path d="M81.371 254.492c-3.871 0-7.676.277-11.402.797 38.781 5.426 68.598 38.102 68.598 77.605 0 14.652-4.109 28.359-11.254 40.086 4.59 4.176 8.523 9.008 11.613 14.336 13.887-14.102 22.445-33.277 22.445-54.422 0-43.301-35.816-78.402-80-78.402zm0 0" fill="#7cd6e6"/><path d="M101.563 307.551c0-13.121-8.395-23.758-18.75-23.758-10.352 0-18.746 10.637-18.746 23.758 0 13.121 8.395 23.758 18.746 23.758 10.355 0 18.75-10.637 18.75-23.758zm0 0" fill="#ffd5cc"/><path d="M489.078 387.316c-10.664-18.387-31.246-50.047-54.902-50.047-23.719 0-44.352 31.727-54.988 50.195-.645 1.117-1.145 2.254-1.52 3.402 14.215 12.688 33.113 20.43 53.855 20.43 22.605 0 43.008-9.203 57.555-23.98zm0 0" fill="#fff4f1"/><path d="M433.926 337.402c-4.961.031-9.773 1.469-14.387 3.863 5.844 2.938 11.383 7.426 16.488 12.641 18.273 18.664 8.941 50.508-16.609 55.93-.695.148-1.391.285-2.09.418 4.691.805 9.516 1.223 14.449 1.188 22.605-.152 42.941-9.496 57.387-24.367-10.785-18.316-31.582-49.832-55.238-49.672zm0 0" fill="#e8e4e0"/><path d="M434.176 356.473c23.656 0 44.238 12.457 54.902 30.844 13.887-14.102 22.445-33.277 22.445-54.422 0-43.301-35.816-78.402-80-78.402s-80 35.102-80 78.402c0 22.969 10.082 43.633 26.145 57.973.375-1.148.875-2.285 1.52-3.402 10.637-18.469 31.27-30.992 54.988-30.992zm0 0" fill="#9ddbdf"/><path d="M431.523 254.492c-3.871 0-7.676.277-11.402.797 38.781 5.426 68.598 38.102 68.598 77.605 0 14.652-4.109 28.359-11.254 40.086 4.59 4.176 8.523 9.008 11.613 14.336 13.887-14.102 22.445-33.277 22.445-54.422 0-43.301-35.816-78.402-80-78.402zm0 0" fill="#7cd6e6"/><path d="M451.715 307.551c0-13.121-8.395-23.758-18.75-23.758-10.352 0-18.746 10.637-18.746 23.758 0 13.121 8.395 23.758 18.746 23.758 10.355 0 18.75-10.637 18.75-23.758zm0 0" fill="#ffd5cc"/><path d="M173.27 49.465h-137.531c-19.656 0-35.738 16.086-35.738 35.742s16.082 35.738 35.738 35.738h39.078c1.254 0 2.414.668 3.039 1.754l7.18 12.438c4.711 8.16 16.492 8.16 21.203 0l7.18-12.438c.629-1.086 1.785-1.754 3.039-1.754h56.813c19.656 0 35.738-16.082 35.738-35.738s-16.082-35.742-35.738-35.742zm0 0" fill="#e3ded9"/><path d="M173.27 49.465h-30.293c19.656 0 35.738 16.082 35.738 35.742 0 19.656-16.082 35.738-35.738 35.738h30.293c19.656 0 35.738-16.082 35.738-35.738s-16.082-35.742-35.738-35.742zm0 0" fill="#d0cfd1"/><path d="M476.258 49.465h-137.527c-19.656 0-35.738 16.082-35.738 35.742 0 19.656 16.082 35.738 35.738 35.738h39.078c1.254 0 2.41.668 3.039 1.754l7.18 12.438c4.711 8.16 16.492 8.16 21.203 0l7.18-12.438c.625-1.086 1.785-1.754 3.039-1.754h56.813c19.656 0 35.738-16.082 35.738-35.738s-16.082-35.742-35.742-35.742zm0 0" fill="#e3ded9"/><path d="M476.258 49.465h-30.293c19.66 0 35.742 16.082 35.742 35.742 0 19.656-16.082 35.738-35.742 35.738h30.293c19.66 0 35.742-16.082 35.742-35.738s-16.082-35.742-35.742-35.742zm0 0" fill="#d0cfd1"/><path d="M435.129 0h-369.582c-20.824 0-37.859 17.035-37.859 37.859 0 20.82 17.039 37.855 37.859 37.855h163.199l16.109 27.906c4.824 8.355 16.883 8.355 21.703 0l16.113-27.906h152.457c20.82 0 37.855-17.035 37.855-37.855 0-20.824-17.035-37.859-37.855-37.859zm0 0" fill="#fff4f1"/><path d="M446.547 0h-30.957c20.82 0 37.855 17.035 37.855 37.855 0 20.824-17.035 37.855-37.855 37.855h30.957c20.82 0 37.855-17.035 37.855-37.855 0-20.82-17.035-37.855-37.855-37.855zm0 0" fill="#d0cfd1"/><path d="M374.148 38.656c0-4.297 3.488-7.785 7.785-7.785s7.785 3.488 7.785 7.785c0 4.305-3.488 7.785-7.785 7.785s-7.785-3.48-7.785-7.785zm-44.637 0c0-4.297 3.48-7.785 7.789-7.785 4.297 0 7.785 3.488 7.785 7.785 0 4.305-3.488 7.785-7.785 7.785-4.309 0-7.789-3.48-7.789-7.785zm-44.633 0c0-4.297 3.477-7.785 7.785-7.785 4.297 0 7.785 3.488 7.785 7.785 0 4.305-3.488 7.785-7.785 7.785-4.309 0-7.785-3.48-7.785-7.785zm-44.633 0c0-4.297 3.477-7.785 7.785-7.785 4.297 0 7.785 3.488 7.785 7.785 0 4.305-3.488 7.785-7.785 7.785-4.309 0-7.785-3.48-7.785-7.785zm-44.633 0c0-4.297 3.477-7.785 7.785-7.785 4.297 0 7.785 3.488 7.785 7.785 0 4.305-3.488 7.785-7.785 7.785-4.309 0-7.785-3.48-7.785-7.785zm-44.637 0c0-4.297 3.477-7.785 7.785-7.785 4.297 0 7.785 3.488 7.785 7.785 0 4.305-3.488 7.785-7.785 7.785-4.309 0-7.785-3.48-7.785-7.785zm-44.633 0c0-4.297 3.477-7.785 7.785-7.785 4.297 0 7.785 3.488 7.785 7.785 0 4.305-3.488 7.785-7.785 7.785-4.309 0-7.785-3.48-7.785-7.785zm0 0" fill="#e3ded9"/><path d="M348.695 376.48c-15.793-27.23-46.273-74.113-81.305-74.113-35.125 0-65.68 46.98-81.438 74.332-.949 1.652-1.695 3.336-2.246 5.035 21.051 18.793 49.035 30.254 79.754 30.254 33.477 0 63.688-13.629 85.234-35.508zm0 0" fill="#fff4f1"/><path d="M267.02 302.559c-7.348.047-14.477 2.172-21.305 5.719 8.652 4.352 16.859 11 24.418 18.723 27.063 27.641 13.238 74.793-24.602 82.828-1.027.219-2.055.422-3.094.613 6.949 1.191 14.094 1.813 21.398 1.762 33.477-.227 63.594-14.059 84.988-36.086-15.977-27.121-46.777-73.797-81.805-73.559zm0 0" fill="#e8e4e0"/><path d="M267.391 330.801c35.031 0 65.512 18.449 81.305 45.68 20.566-20.883 33.238-49.281 33.238-80.598 0-64.121-53.043-116.105-118.473-116.105s-118.469 51.984-118.469 116.105c0 34.016 14.93 64.617 38.715 85.852.551-1.699 1.297-3.383 2.246-5.035 15.758-27.352 46.313-45.898 81.438-45.898zm0 0" fill="#9ddbdf"/><path d="M263.461 179.777c-5.73 0-11.367.41-16.883 1.18 57.43 8.035 101.586 56.422 101.586 114.926 0 21.703-6.09 42-16.672 59.367 6.805 6.184 12.625 13.336 17.203 21.23 20.566-20.883 33.238-49.281 33.238-80.598 0-64.121-53.043-116.105-118.473-116.105zm0 0" fill="#7cd6e6"/><path d="M293.359 258.352c0-19.43-12.43-35.184-27.762-35.184s-27.762 15.754-27.762 35.184 12.43 35.184 27.762 35.184 27.762-15.754 27.762-35.184zm0 0" fill="#ffd5cc"/></svg>