<svg height="511.999pt" viewBox="1 1 511.99897 511.99897" width="511.999pt" xmlns="http://www.w3.org/2000/svg"><path d="M471.855 252.047c0 117.32-95.105 212.426-212.426 212.426-117.32 0-212.43-95.105-212.43-212.426s95.109-212.43 212.43-212.43c117.32 0 212.426 95.109 212.426 212.43zm0 0" fill="#dc8839"/><path d="M259.43 39.617c-5.238 0-10.426.199-15.566.57 110.051 7.973 196.859 99.773 196.859 211.859 0 112.082-86.809 203.883-196.859 211.855 5.141.371 10.328.57 15.566.57 117.32 0 212.426-95.105 212.426-212.43 0-117.32-95.105-212.426-212.426-212.426zm0 0" fill="#be7511"/><path d="M157.035 114.117c-2.613 0-5.266-.621-7.738-1.93-8.094-4.281-11.184-14.313-6.898-22.406 12.758-24.109 32.844-43.355 58.086-55.652 25.082-12.223 52.789-16.387 80.133-12.051l.238.043c40.969 7.121 75.766 31.691 95.465 67.406 4.422 8.02 1.508 18.102-6.508 22.523-8.02 4.422-18.102 1.508-22.523-6.508-14.801-26.832-41.039-45.32-71.996-50.738-41.785-6.582-84.375 14.168-103.59 50.484-2.977 5.621-8.723 8.828-14.668 8.828zm0 0" fill="#fc9086"/><path d="M285.398 40.145c0-22.172-12.23-40.145-27.316-40.145-15.09 0-27.32 17.973-27.32 40.145s12.23 40.145 27.32 40.145c15.086 0 27.316-17.973 27.316-40.145zm0 0" fill="#ffd5cc"/><path d="M454.996 233.738c-6.957-26.258-24.195-49.289-48.285-62.035-5.621-2.977-8.828-8.723-8.828-14.668 0-2.613.621-5.266 1.93-7.738 4.281-8.094 14.313-11.184 22.406-6.898 24.109 12.758 43.355 32.844 55.652 58.086 12.223 25.082 16.387 52.789 12.051 80.133l-.043.238c-7.121 40.969-31.691 75.766-67.406 95.465-8.02 4.422-18.102 1.508-22.523-6.508-4.422-8.02-1.508-18.102 6.508-22.523 23.859-13.16 41.121-35.363 48.461-61.887" fill="#467bff"/><path d="M512 258.082c0-15.09-17.973-27.32-40.145-27.32s-40.145 12.23-40.145 27.32c0 15.086 17.973 27.316 40.145 27.316s40.145-12.23 40.145-27.316zm0 0" fill="#ffd5cc"/><path d="M354.965 397.883c2.613 0 5.266.621 7.738 1.93 8.094 4.281 11.18 14.313 6.898 22.406-12.758 24.109-32.844 43.355-58.086 55.652-25.086 12.223-52.793 16.387-80.133 12.051l-.242-.043c-40.965-7.121-75.762-31.691-95.461-67.406-4.422-8.02-1.508-18.102 6.508-22.523 8.02-4.422 18.102-1.508 22.523 6.508 14.801 26.832 41.035 45.32 71.992 50.738 41.785 6.582 84.375-14.168 103.594-50.484 2.977-5.621 8.723-8.828 14.668-8.828zm0 0" fill="#fc9086"/><path d="M281.238 471.855c0-22.172-12.23-40.145-27.32-40.145-15.086 0-27.316 17.973-27.316 40.145s12.23 40.145 27.316 40.145c15.09 0 27.32-17.973 27.32-40.145zm0 0" fill="#ffd5cc"/><path d="M114.117 354.965c0 2.613-.621 5.266-1.93 7.738-4.281 8.094-14.313 11.18-22.406 6.898-24.109-12.758-43.355-32.844-55.652-58.086-12.223-25.086-16.387-52.793-12.051-80.133l.043-.242c7.121-40.965 31.691-75.762 67.406-95.461 8.02-4.422 18.102-1.508 22.523 6.508 4.422 8.02 1.508 18.102-6.508 22.523-26.832 14.801-45.32 41.035-50.738 71.992-6.582 41.785 14.168 84.375 50.484 103.594 5.621 2.977 8.828 8.723 8.828 14.668zm0 0" fill="#467bff"/><path d="M80.289 253.918c0-15.086-17.973-27.316-40.145-27.316s-40.145 12.23-40.145 27.316c0 15.09 17.973 27.32 40.145 27.32s40.145-12.23 40.145-27.32zm0 0" fill="#ffd5cc"/><path d="M348.91 247.262c0 50.891-41.258 92.148-92.152 92.148-50.895 0-92.148-41.258-92.148-92.148 0-50.895 41.254-92.152 92.148-92.152 50.895 0 92.152 41.258 92.152 92.152zm0 0" fill="#fff4f1"/><path d="M269.785 240.738c-7.277 5.688-7.406 9.652-7.406 16.531 0 2.512-1.324 5.422-7.805 5.422-5.422 0-7.273-1.984-7.273-8.859 0-11.375 5.027-16.797 8.859-20.102 4.363-3.703 11.77-7.805 11.77-14.945 0-6.082-5.289-8.992-11.898-8.992-13.492 0-10.582 10.184-17.723 10.184-3.57 0-7.934-2.379-7.934-7.539 0-7.141 8.199-17.719 26.051-17.719 16.926 0 28.168 9.391 28.168 21.82 0 12.43-11.242 21.422-14.809 24.199zm-4.895 41.262c0 5.422-4.496 10.18-10.184 10.18s-10.051-4.758-10.051-10.18c0-5.555 4.496-10.184 10.051-10.184s10.184 4.629 10.184 10.184zm0 0" fill="#e3b569"/></svg>