<svg height="511pt" viewBox="-7 1 511 511.99974" width="511pt" xmlns="http://www.w3.org/2000/svg"><path d="M450.418 60.023h-210.492c-9.621 0-17.492 7.871-17.492 17.492s7.871 17.492 17.492 17.492h210.492c9.621 0 17.492-7.871 17.492-17.492s-7.871-17.492-17.492-17.492zm0 0" fill="#ffe056"/><path d="M372.531 52.316c0-21.758-12.25-39.398-27.359-39.398s-27.359 17.641-27.359 39.398c0 21.758 12.25 39.395 27.359 39.395s27.359-17.637 27.359-39.395zm0 0" fill="#ffd5cc"/><path d="M327.254 84.031h138.066c17.434 0 31.566 14.133 31.566 31.57v357.785c0 17.438-14.133 31.57-31.566 31.57h-250.004c-17.434 0-31.566-14.133-31.566-31.57v-357.785c0-17.438 14.133-31.57 31.566-31.57z" fill="#fff4f1"/><path d="M433.156 457.363h-172.012c-11.898 0-21.543-9.648-21.543-21.543v-12.938c0-11.898 9.645-21.543 21.543-21.543h172.012c11.898 0 21.543 9.645 21.543 21.543v12.938c0 11.895-9.645 21.543-21.543 21.543zm0 0" fill="#fc9086"/><path d="M369.055 190.375h-103.984c-14.637 0-26.508-11.867-26.508-26.508 0-14.641 11.867-26.508 26.508-26.508h103.984c14.641 0 26.508 11.867 26.508 26.508 0 14.641-11.867 26.508-26.508 26.508zm0 0" fill="#e3ded9"/><path d="M433.156 401.34h-31.125c11.898 0 21.543 9.645 21.543 21.543v12.938c0 11.895-9.645 21.539-21.543 21.539h31.125c11.898 0 21.543-9.645 21.543-21.539v-12.938c0-11.898-9.645-21.543-21.543-21.543zm0 0" fill="#f57a73"/><path d="M369.055 137.359h-31.121c14.641 0 26.508 11.867 26.508 26.508 0 14.641-11.867 26.508-26.508 26.508h31.121c14.641 0 26.508-11.867 26.508-26.508 0-14.641-11.867-26.508-26.508-26.508zm0 0" fill="#d0cfd1"/><path d="M465.316 84.031h-31.121c17.434 0 31.566 14.133 31.566 31.57v357.785c0 17.438-14.133 31.57-31.566 31.57h31.121c17.438 0 31.57-14.133 31.57-31.57v-357.785c0-17.438-14.133-31.57-31.57-31.57zm0 0-84.363 157.371h-142.652c-4.297 0-7.777-3.484-7.777-7.781s3.48-7.781 7.777-7.781h142.652c4.297 0 7.781 3.484 7.781 7.781s-3.484 7.781-7.781 7.781zm0 0 69.68 43.571h-212.332c-4.297 0-7.777-3.484-7.777-7.781s3.48-7.781 7.777-7.781h212.332c4.297 0 7.781 3.484 7.781 7.781s-3.484 7.781-7.781 7.781zm0 0 0 43.574h-212.332c-4.297 0-7.777-3.484-7.777-7.781s3.48-7.781 7.777-7.781h212.332c4.297 0 7.781 3.484 7.781 7.781s-3.484 7.781-7.781 7.781zm0 0 0 43.57h-212.332c-4.297 0-7.777-3.484-7.777-7.781s3.48-7.777 7.777-7.777h212.332c4.297 0 7.781 3.48 7.781 7.777 0 4.297-3.484 7.781-7.781 7.781zm0 0" fill="#e3ded9"/><path d="M374.805 429.348c0-4.297 3.477-7.781 7.781-7.781 4.293 0 7.781 3.484 7.781 7.781 0 4.305-3.488 7.781-7.781 7.781-4.305 0-7.781-3.477-7.781-7.781zm-33.199 0c0-4.297 3.484-7.781 7.781-7.781s7.781 3.484 7.781 7.781c0 4.305-3.484 7.781-7.781 7.781-4.293 0-7.781-3.477-7.781-7.781zm-33.195 0c0-4.297 3.484-7.781 7.781-7.781 4.293 0 7.777 3.484 7.777 7.781 0 4.305-3.484 7.781-7.777 7.781-4.297 0-7.781-3.477-7.781-7.781zm0 0" fill="#f86654"/><path d="M60.727 65.969c-3.039-3.039-7.965-3.039-11.004 0l-3.949 3.945-3.945-3.945c-3.039-3.039-7.965-3.039-11.004 0-3.039 3.039-3.039 7.965 0 11l3.945 3.953-3.945 3.945c-3.039 3.039-3.039 7.969 0 11.004 1.52 1.52 3.512 2.281 5.5 2.281 1.992 0 3.984-.762 5.504-2.281l3.949-3.949 3.949 3.949c1.52 1.52 3.512 2.281 5.5 2.281 1.992 0 3.984-.762 5.504-2.281 3.039-3.039 3.039-7.965 0-11.004l-3.949-3.945 3.945-3.949c3.039-3.039 3.039-7.965 0-11.004zm0 0 124.476-48.739l3.949-3.949c3.039-3.039 3.039-7.965 0-11.004-3.039-3.035-7.965-3.035-11.004 0l-3.949 3.949-3.949-3.949c-3.039-3.035-7.965-3.035-11.004 0-3.039 3.039-3.039 7.969 0 11.004l3.949 3.949-3.949 3.949c-3.039 3.039-3.039 7.965 0 11.004 1.52 1.516 3.512 2.277 5.504 2.277s3.984-.758 5.504-2.277l3.949-3.949 3.945 3.949c1.52 1.516 3.512 2.277 5.504 2.277 1.992 0 3.984-.758 5.504-2.277 3.039-3.039 3.039-7.969 0-11.004zm0 0" fill="#e3ded9"/><path d="M133.883 177.625c0-21.152-11.906-38.297-26.594-38.297s-26.594 17.145-26.594 38.297c0 21.148 11.906 38.293 26.594 38.293s26.594-17.145 26.594-38.293zm0 0" fill="#ffd5cc"/><path d="M31.277 482.332c-5.68 0-11.285-2.613-14.902-7.547-6.031-8.223-4.254-19.781 3.969-25.813l66.18-48.531-10.527-46.281c-.152-10.195 6.762-19.816 16.957-19.965 10.176-.164 29.664 9.227 29.816 19.426l.82 55.809c.09 5.977-2.723 11.625-7.543 15.16l-73.863 54.168c-3.289 2.41-7.117 3.574-10.906 3.574zm0 0" fill="#be7511"/><path d="M40.105 504.109c3.094 3.094 8.355 2.508 10.516-1.297 7.457-13.109 5.598-30.074-5.582-41.258-11.184-11.18-28.148-13.035-41.258-5.582-3.801 2.16-4.391 7.426-1.297 10.516zm0 0" fill="#b4b4b4"/><path d="M235.383 230.875h-128.594c-.641-.035-1.289-.051-1.938-.051-20.719 0-37.668 16.953-37.668 37.672v77.77l38.082 11.199 37.254-11.199v-77.77c0-1.219-.063-2.426-.176-3.613h93.039c9.352 0 17.004-7.652 17.004-17.004s-7.652-17.004-17.004-17.004zm0 0" fill="#ffe056"/><path d="M108.926 346.266l-16.824 5.055h33.598l16.82-5.055v-77.77c0-1.219-.063-2.426-.176-3.613h-29.906c-1.965 0-3.516 1.609-3.512 3.574v.039zm0 0 126.457-115.391h-33.594c9.352 0 17.004 7.652 17.004 17.004s-7.652 17.004-17.004 17.004h33.594c9.352 0 17.004-7.652 17.004-17.004s-7.652-17.004-17.004-17.004zm0 0" fill="#f9cd45"/><path d="M142.523 346.266l47.934 45.418 1.531 1.359c3.109 2.754 4.746 6.578 4.859 10.398l1.688 75.672c.23 8.707-6.719 15.949-15.52 16.176-8.801.227-16.117-6.652-16.348-15.359-.008-.254-9.766-67.445-9.766-67.445l-71.559-38.617c-11.102-5.133-18.863-16.191-18.16-27.602" fill="#dc8839"/><path d="M215.133 512c4.426 0 7.68-4.219 6.492-8.48-4.043-14.477-17.32-25.098-33.086-25.098-15.77 0-29.047 10.621-33.086 25.098-1.191 4.262 2.063 8.48 6.492 8.48zm0 0" fill="#b4b4b4"/></svg>