<svg height="512pt" viewBox="0 -24 512.00205 512" width="512pt" xmlns="http://www.w3.org/2000/svg"><path d="M286.84 452.074l-15.66 6.008c-7.945 3.047-16.859-.926-19.906-8.875l-79.957-208.543 44.438-17.039 79.957 208.547c3.047 7.945-.926 16.855-8.871 19.902zm0 0" fill="#dc8839"/><path d="M295.711 432.168l-79.961-208.543-26.867 10.301 76.008 198.242c3.047 7.945-.926 16.859-8.871 19.906l-2.582.988c4.047 5.281 11.215 7.52 17.742 5.016l15.66-6.004c7.945-3.047 11.918-11.957 8.871-19.906zm0 0" fill="#be7511"/><path d="M73.305 452.074l15.66 6.008c7.945 3.047 16.855-.926 19.902-8.875l79.961-208.543-44.438-17.039-79.961 208.547c-3.047 7.945.926 16.855 8.875 19.902zm0 0 116.004 11.524h-16.773c-8.512 0-15.41-6.898-15.41-15.41v-223.348h47.59v223.348c0 8.512-6.898 15.41-15.406 15.41zm0 0" fill="#dc8839"/><path d="M144.391 223.625l-3.949 10.305 17.566 6.734-79.957 208.543c-.547 1.422-1.285 2.711-2.164 3.859l13.078 5.012c7.945 3.047 16.855-.922 19.902-8.871l79.961-208.543zm0 0 29.507 1.215v223.348c0 5.977-3.41 11.148-8.387 13.703 2.109 1.082 4.492 1.707 7.023 1.707h16.773c8.508 0 15.406-6.898 15.406-15.41v-223.348zm0 0" fill="#be7511"/><path d="M367.543 183.773c0 101.492-82.277 183.77-183.77 183.77-101.496 0-183.773-82.277-183.773-183.77 0-101.496 82.277-183.773 183.773-183.773 101.492 0 183.77 82.277 183.77 183.773zm0 0" fill="#fff4f1"/><path d="M183.773 0c-5.191 0-10.328.227-15.41.648 94.281 7.832 168.359 86.82 168.359 183.125s-74.078 175.293-168.359 183.121c5.082.426 10.219.652 15.41.652 101.492 0 183.77-82.277 183.77-183.773s-82.277-183.773-183.77-183.773zm0 0" fill="#e3ded9"/><path d="M327.984 183.773c0 79.648-64.566 144.215-144.211 144.215-79.648 0-144.215-64.566-144.215-144.215 0-79.648 64.566-144.215 144.215-144.215 79.645 0 144.211 64.566 144.211 144.215zm0 0" fill="#f86654"/><path d="M183.773 39.559c-5.207 0-10.348.281-15.41.82 72.398 7.691 128.805 68.953 128.805 143.395 0 74.441-56.406 135.703-128.805 143.395 5.063.539 10.203.82 15.41.82 79.645 0 144.211-64.566 144.211-144.215 0-79.648-64.566-144.215-144.211-144.215zm0 0" fill="#ea543c"/><path d="M284.148 183.773c0 55.438-44.941 100.375-100.375 100.375-55.438 0-100.379-44.938-100.379-100.375s44.941-100.375 100.379-100.375c55.434 0 100.375 44.938 100.375 100.375zm0 0" fill="#fff4f1"/><path d="M228.258 183.773c0 24.57-19.918 44.488-44.484 44.488-24.57 0-44.488-19.918-44.488-44.488s19.918-44.488 44.488-44.488c24.566 0 44.484 19.918 44.484 44.488zm0 0" fill="#f86654"/><path d="M183.773 139.285c-5.418 0-10.609.973-15.41 2.746 16.973 6.266 29.074 22.59 29.074 41.742 0 19.152-12.102 35.473-29.074 41.742 4.801 1.773 9.992 2.742 15.41 2.742 24.566 0 44.484-19.918 44.484-44.484 0-24.57-19.918-44.488-44.484-44.488zm0 0" fill="#ea543c"/><path d="M504.297 174.691h-21.023l7.109-7.496c2.93-3.086 2.801-7.965-.289-10.891-3.086-2.93-7.965-2.801-10.891.285l-17.168 18.102h-275.883c-4.258 0-7.707 3.449-7.707 7.703 0 4.254 3.449 7.707 7.707 7.707h236.555l21.574 15.797c1.375 1.004 2.969 1.488 4.547 1.488 2.375 0 4.715-1.094 6.223-3.156 2.516-3.434 1.77-8.254-1.664-10.766l-4.594-3.367h55.504c4.258 0 7.707-3.449 7.707-7.703 0-4.254-3.453-7.703-7.707-7.703zm0 0" fill="#b4b4b4"/></svg>