<svg height="512pt" viewBox="0 0 512.00889 512" width="512pt" xmlns="http://www.w3.org/2000/svg"><path d="M302.332 107.629c-1.941 0-3.891-.711-5.414-2.148-3.18-2.988-3.332-7.988-.34-11.168l51.473-52.121c2.988-3.18 7.988-3.332 11.168-.34 3.176 2.992 3.328 7.992.336 11.168l-51.469 52.125c-1.555 1.652-3.652 2.484-5.754 2.484zm0 0 72.574 85.766c-1.426 0-2.867-.387-4.168-1.195l-66.063-46.141c-3.707-2.305-4.84-7.176-2.535-10.879 2.305-3.707 7.176-4.844 10.883-2.535l66.066 46.141c3.703 2.305 4.84 7.176 2.531 10.883-1.496 2.406-4.078 3.727-6.715 3.727zm0 0-64.062-66.02c-4.152 0-7.637-3.242-7.879-7.441-.254-4.359 3.07-8.094 7.426-8.348l148.172-14.781c4.367-.262 8.094 3.074 8.348 7.43s-3.07 8.094-7.426 8.348l-148.176 14.777-.465.016zm0 0 149.433-41.957c-1.57 0-3.16-.469-4.543-1.441l-54.297-38.254c-3.566-2.516-4.422-7.445-1.91-11.012 2.516-3.566-.129-9.934 3.441-7.422l65.434 46.281c3.566 2.512.855 4.93-1.66 8.496-1.535 2.184-3.98 3.352-6.465 3.352zm0 0-419.918 374.75c-.258 0-.52-.012-.785-.039-4.344-.426-7.516-4.297-7.086-8.637l10.094-97.668c.426-4.344 4.285-7.512 8.637-7.09 4.344.43 7.516 4.297 7.09 8.641l-10.094 97.668c-.402 4.078-3.84 7.125-7.855 7.125zm0 0 27.586-146.559c-2.641 0-5.219-1.32-6.715-3.723-2.309-3.703-1.176-8.578 2.527-10.887l83.781-54.195c3.707-2.305 8.578-1.176 10.887 2.527 2.305 3.707 1.176 8.578-2.531 10.887l-83.781 54.195c-1.301.809-2.742 1.195-4.168 1.195zm0 0 107.282 115.524c-4.332 0-7.859-3.492-7.898-7.832l-1.234-154.914c-.035-4.363 3.469-7.93 7.836-7.969h.066c4.332 0 7.863 3.496 7.898 7.836l1.234 154.914c.039 4.363-3.469-2.605-7.832-2.566l-.07 10.531zm0 0-15.422 10.074c-2.063 0-4.125-.805-5.676-2.406l-83.297-84.773c-3.035-3.133-2.957-8.137.18-11.172 3.133-3.035 8.137-2.957 11.172.176l83.297 84.773c3.035 3.137 2.957 8.137-.18 11.172-1.531 1.488-3.516 2.23-5.496 2.23zm0 0-90.707 42.328c-3.605 0-6.863-2.484-7.699-6.152-.965-4.254 1.699-8.488 5.953-9.457l81.445-18.508c4.258-.965 8.488 1.699 9.457 5.953s-1.699 8.488-5.953 9.457l-81.445 18.508c-.59.133-1.18.199-1.758.199zm0 0 348.144-300.519c-2.336 0-4.652-1.031-6.211-3.012-2.699-3.426-2.109-8.395 1.316-11.094l55.473-53.156c3.426-2.699 8.395-2.109 11.094 1.32 2.699 3.426 2.113 8.395-1.316 11.094l-55.469 53.156c-1.449 1.141-3.176 1.691-4.887 1.691zm0 0-28.297 285.711l-.234-.004-177.93-4.938c-4.359-.129-7.793-3.766-7.664-8.129.125-4.281 3.637-7.668 7.895-7.668l.234.004 167.828 4.938c4.359.129 7.793 3.766 7.664 8.129-.125 4.281 6.465 7.668 2.207 7.668zm0 0 24.969-49.688c-3.934 0-7.336-2.934-7.832-6.934l-12.871-188.477c-.535-4.332 2.543-8.273 6.871-8.809 4.328-.539 8.277 2.539 8.813 6.871l12.871 188.477c.535 4.328-2.543 8.273-6.875 8.809-.328.043-.652.063-.977.063zm0 0-152.687-293.473c-.602 0-1.211-.066-1.824-.211l-195.703-45.492c-4.25-1.004-6.879-5.258-5.875-9.504 1-4.25 5.258-6.879 9.504-5.879l195.703 45.492c4.25 1.004 6.879 5.258 5.875 9.508-.855 3.633-4.102 6.086-7.68 6.086zm0 0-223.77 193.965c-4.215 0-7.715-3.324-7.891-7.574l-5.801-210.492c-.18-4.363 3.207-8.043 7.566-8.223 4.352-.195 8.043 3.207 8.223 7.566l5.801 210.492c.18 4.363-3.207 8.043-7.566 8.223l-.332.008zm0 0 156.125-77.593c-3.98 0-7.402-2.996-7.844-7.043-.477-4.34 2.656-8.238 6.992-8.715l184.93-31.59c4.344-.473 8.242 2.656 8.715 6.992.477 4.34-2.656 8.238-6.992 8.715l-184.934 31.59c-.289.035-.582.051-.867.051zm0 0 6.492 192.57c-1.805 0-3.617-.617-5.102-1.871-3.328-2.82-3.742-7.805-.926-11.137l183.262-215.289c2.816-3.328 7.805-3.746 11.133-.926 3.332 2.82 3.746 7.809.926 11.137l-183.258 215.289c-1.563 1.844-3.789 2.797-6.035 2.797zm0 0-17.437-209.258c-2.363 0-4.699-1.055-6.254-3.07-2.672-3.453-2.035-8.414 1.418-11.082l94.086-82.949c3.453-2.672 8.418-2.035 11.086 1.418 2.668 3.453 2.031 8.418-1.422 11.086l-94.086 82.949c-1.438 1.109-3.141 1.648-4.828 1.648zm0 0" fill="#e3ded9"/><path d="M68.906 479.59c0 17.363-14.078 31.438-31.441 31.438s-31.441-14.074-31.441-31.438c0-17.367 14.078-31.441 31.441-31.441s31.441 14.074 31.441 31.441zm0 0" fill="#9ddbdf"/><path d="M37.465 448.145c-4.293 0-8.387.867-12.113 2.422 11.348 4.746 19.324 15.949 19.324 29.02 0 13.07-7.977 24.277-19.324 29.02 3.727 1.559 7.82 2.422 12.113 2.422 17.363 0 31.441-14.074 31.441-31.441 0-17.363-14.078-31.441-31.441-31.441zm0 0" fill="#7cd6e6"/><path d="M83.859 324.859c0 17.363-14.074 31.441-31.438 31.441-17.367 0-31.441-14.078-31.441-31.441s14.074-31.441 31.441-31.441c17.363 0 31.438 14.078 31.438 31.441zm0 0" fill="#fc9086"/><path d="M52.422 293.418c-4.297 0-8.387.863-12.117 2.422 11.352 4.742 19.328 15.949 19.328 29.02s-7.977 24.273-19.328 29.02c3.73 1.559 7.82 2.422 12.117 2.422 17.363 0 31.438-14.078 31.438-31.441s-14.074-31.441-31.438-31.441zm0 0" fill="#f57a73"/><path d="M431.117 188.305c-.125-17.363-14.309-31.336-31.672-31.207-17.363.125-31.336 14.309-31.207 31.672.129 17.363 14.309 31.336 31.672 31.207 17.363-.129 31.336-14.309 31.207-31.672zm0 0" fill="#fc9086"/><path d="M399.441 157.074c-4.211.031-8.219.895-11.875 2.426 11.266 4.711 19.223 15.797 19.32 28.781.098 13.156-7.902 24.477-19.332 29.25 3.801 1.59 7.977 2.457 12.352 2.426 17.367-.133 31.336-14.313 31.207-31.676-.129-17.363-14.309-31.336-31.672-31.207zm0 0" fill="#f57a73"/><path d="M512.008 100.996c-.129-17.363-14.309-31.336-31.672-31.207-17.367.129-31.336 14.309-31.211 31.676.129 17.363 14.313 31.336 31.676 31.207s31.336-14.309 31.207-31.676zm0 0" fill="#9ddbdf"/><path d="M480.324 69.766c-4.211.031-8.219.898-11.875 2.426 11.266 4.711 19.223 15.797 19.32 28.781.098 13.156-7.902 24.477-19.332 29.25 3.801 1.59 7.977 2.457 12.355 2.426 17.363-.129 31.332-14.313 31.203-31.676-.129-17.363-14.309-31.336-31.672-31.207zm0 0" fill="#7cd6e6"/><path d="M405.273 31.23c-.129-17.367-14.309-31.34-31.672-31.211-17.367.129-31.336 14.309-31.211 31.676.129 17.363 14.313 31.336 31.676 31.207 17.363-.129 31.336-14.309 31.207-31.672zm0 0" fill="#ffe056"/><path d="M373.59.004c-4.211.031-8.215.898-11.875 2.426 11.266 4.711 19.223 15.797 19.32 28.781.098 13.156-7.902 24.477-19.332 29.25 3.801 1.59 7.977 2.457 12.355 2.426 17.363-.129 31.332-14.313 31.203-31.676-.125-17.363-14.309-31.336-31.672-31.207zm0 0" fill="#f9cd45"/><path d="M320.203 120.488c-.129-17.363-14.313-31.336-31.676-31.207-17.363.129-31.336 14.309-31.207 31.672.129 17.367 14.309 31.336 31.672 31.211 17.363-.129 31.336-14.313 31.211-31.676zm0 0" fill="#9ddbdf"/><path d="M288.523 89.266c-4.211.031-8.215.898-11.875 2.426 11.266 4.711 19.223 15.797 19.32 28.781.098 13.152-7.902 24.477-19.332 29.25 3.801 1.59 7.977 2.457 12.355 2.426 17.363-.133 31.332-14.313 31.203-31.676-.125-17.363-14.309-31.336-31.672-31.207zm0 0" fill="#7cd6e6"/><path d="M199.859 237.938c0 15.648-12.688 28.332-28.332 28.332-15.648 0-28.332-12.684-28.332-28.332s12.684-28.332 28.332-28.332c15.645 0 28.332 12.684 28.332 28.332zm0 0" fill="#ffe056"/><path d="M74.039 78.75c0 20.445-16.574 37.02-37.02 37.02-20.445 0-37.02-16.574-37.02-37.02s16.574-37.02 37.02-37.02c20.445 0 37.02 16.574 37.02 37.02zm0 0" fill="#5e8ee1"/><path d="M171.527 209.605c-4.336 0-8.441.977-12.117 2.719 9.586 4.543 16.219 14.301 16.219 25.613 0 11.309-6.633 21.07-16.219 25.613 3.676 1.738 7.781 2.715 12.117 2.715 15.645 0 28.332-12.684 28.332-28.332 0-15.645-12.688-28.328-28.332-28.328zm0 0" fill="#f9cd45"/><path d="M37.02 41.73c-4.242 0-8.316.723-12.113 2.039 14.492 5.02 24.902 18.777 24.902 34.98s-10.41 29.961-24.902 34.984c3.797 1.313 7.871 2.035 12.113 2.035 20.445 0 37.02-16.574 37.02-37.02s-16.574-37.02-37.02-37.02zm0 0" fill="#2970d6"/><path d="M212.637 444.555c0 17.363-14.074 31.438-31.441 31.438-17.363 0-31.441-14.074-31.441-31.438 0-17.367 14.078-31.441 31.441-31.441 17.367 0 31.441 14.074 31.441 31.441zm0 0" fill="#ffe056"/><path d="M181.195 413.113c-4.906 0-9.555 1.125-13.695 3.133 10.504 5.09 17.746 15.852 17.746 28.309 0 12.453-7.242 23.215-17.746 28.309 4.141 2.004 8.789 3.133 13.695 3.133 17.367 0 31.441-14.078 31.441-31.441 0-17.367-14.074-31.441-31.441-31.441zm0 0" fill="#f9cd45"/><path d="M452.879 447.719c0 20.445-16.574 37.02-37.02 37.02s-37.02-16.574-37.02-37.02 16.574-37.02 37.02-37.02 37.02 16.574 37.02 37.02zm0 0" fill="#9ddbdf"/><path d="M415.859 410.699c-4.242 0-8.316.723-12.113 2.039 14.492 5.02 24.906 18.781 24.906 34.98 0 16.203-10.414 29.961-24.906 34.98 3.797 1.316 7.871 2.039 12.113 2.039 20.445 0 37.02-16.574 37.02-37.02.004-20.445-16.574-37.02-37.02-37.02zm0 0" fill="#7cd6e6"/></svg>