<svg height="512pt" viewBox="0 -12 512 511" width="512pt" xmlns="http://www.w3.org/2000/svg"><path d="M490.512 257.684h-261.438c-8.734 0-15.879 7.145-15.879 15.875v157.359c0 8.73 7.145 15.875 15.879 15.875h95.148l18.992 32.895c6.109 10.586 21.387 10.586 27.5 0l18.988-32.895h100.813c8.73 0 15.875-7.145 15.875-15.875v-157.359c0-8.73-7.145-15.875-15.879-15.875zm0 0" fill="#ffd5cc"/><path d="M490.512 257.684h-31.75c8.73 0 15.875 7.145 15.875 15.875v157.359c0 8.73-7.145 15.875-15.875 15.875h31.75c8.734 0 15.879-7.145 15.879-15.875v-157.359c0-8.73-7.145-15.875-15.879-15.875zm0 0" fill="#ffccc4"/><path d="M218.387 70.273h-205.883c-6.879 0-12.504 5.625-12.504 12.5v123.918c0 6.879 5.625 12.504 12.504 12.504h74.93l12.031 20.84c6.109 10.586 21.387 10.586 27.5 0l12.031-20.84h79.387c6.879 0 12.504-5.629 12.504-12.504v-123.918c0-6.875-5.625-12.5-12.5-12.5zm0 0" fill="#9ddbdf"/><path d="M218.387 70.27h-31.754c6.875 0 12.5 5.625 12.5 12.504v123.918c0 6.879-5.625 12.504-12.5 12.504h31.754c6.875 0 12.5-5.625 12.5-12.504v-123.918c0-6.875-5.625-12.504-12.5-12.504zm0 0" fill="#7cd6e6"/><path d="M499.496.5h-205.883c-6.875 0-12.5 5.625-12.5 12.504v123.918c0 6.875 5.625 12.5 12.5 12.5h74.93l12.035 20.844c6.109 10.582 21.387 10.582 27.5 0l12.031-20.844h79.387c6.879 0 12.504-5.625 12.504-12.5v-123.918c0-6.879-5.625-12.504-12.504-12.504zm0 0" fill="#ffe89f"/><path d="M499.496.5h-31.75c6.875 0 12.5 5.625 12.5 12.504v123.918c0 6.875-5.625 12.5-12.5 12.5h31.75c6.879 0 12.504-5.625 12.504-12.5v-123.918c0-6.879-5.625-12.504-12.504-12.504zm0 0" fill="#f9cd45"/><path d="M307.895 292.5c-33.535 0-60.723 27.188-60.723 60.719 0 33.535 27.188 60.723 60.723 60.723s60.719-27.188 60.719-60.723c0-33.531-27.184-60.719-60.719-60.719zm0 87.055c-14.547 0-26.336-11.789-26.336-26.336 0-14.543 11.789-26.332 26.336-26.332 14.543 0 26.332 11.789 26.332 26.332 0 14.547-11.789 26.336-26.332 26.336zm0 0" fill="#fc9086"/><path d="M68.621 128.289c0 11.617-9.418 21.039-21.039 21.039-11.617 0-21.039-9.422-21.039-21.039 0-11.621 9.422-21.039 21.039-21.039 11.621 0 21.039 9.418 21.039 21.039zm0 0" fill="#7cd6e6"/><path d="M355.734 58.949c0 12.352-10.012 22.363-22.363 22.363-12.348 0-22.359-10.012-22.359-22.363 0-12.348 10.012-22.359 22.359-22.359 12.352 0 22.363 10.012 22.363 22.359zm0 0" fill="#f9cd45"/><path d="M168.348 136.68h-66.48c-4.383 0-7.938-3.555-7.938-7.938 0-4.383 3.555-7.938 7.938-7.938h66.48c4.387 0 7.941 3.555 7.941 7.938 0 4.383-3.555 7.938-7.941 7.938zm0 0-1.168 41.156h-135.797c-4.387 0-7.941-3.555-7.941-7.938 0-4.383 3.555-7.938 7.941-7.938h135.797c4.383 0 7.938 3.555 7.938 7.938 0 4.383-3.555 7.938-7.938 7.938zm0 0 288.015-116.844h-66.48c-4.387 0-7.938-3.555-7.938-7.938 0-4.383 3.551-7.938 7.938-7.938h66.48c4.387 0 7.938 3.555 7.938 7.938 0 4.383-3.551 7.938-7.938 7.938zm0 0-1.168 47.508h-135.801c-4.383 0-7.938-3.555-7.938-7.938s3.555-7.938 7.938-7.938h135.801c4.387 0 7.938 3.555 7.938 7.938s-3.555 7.938-7.938 7.938zm0 0" fill="#fff4f1"/><path d="M458.938 307.246h-63.691c-4.383 0-7.938-3.555-7.938-7.938 0-4.387 3.555-7.941 7.938-7.941h63.691c4.383 0 7.938 3.555 7.938 7.941 0 4.383-3.555 7.938-7.938 7.938zm0 0 0 48.016h-63.691c-4.383 0-7.938-3.555-7.938-7.938 0-4.383 3.555-7.938 7.938-7.938h63.691c4.383 0 7.938 3.555 7.938 7.938 0 4.383-3.555 7.938-7.938 7.938zm0 0 0 48.019h-63.691c-4.383 0-7.938-3.555-7.938-7.941 0-4.383 3.555-7.938 7.938-7.938h63.691c4.383 0 7.938 3.555 7.938 7.938 0 4.387-3.555 7.941-7.938 7.941zm0 0" fill="#fc9086"/></svg>