<svg height="511pt" viewBox="-1 0 511 511.99965" width="511pt" xmlns="http://www.w3.org/2000/svg"><path d="M249.855 66.758v-35.844h109.973v35.844l17.148 10.305 13.77-10.305v-51.301c0-8.535-6.922-15.457-15.461-15.457h-140.887c-8.539 0-15.457 6.922-15.457 15.457v51.301l11.098 10.305zm0 0" fill="#5e8ee1"/><path d="M494.223 66.82l-192.516 41.223-187.262-41.223c-8.539 0-15.461 6.922-15.461 15.457v247.434c0 8.539 6.922 15.457 15.461 15.457h379.777c8.539 0 15.457-6.918 15.457-15.457v-247.434c0-8.535-6.918-15.457-15.457-15.457zm0 0" fill="#dc8839"/><path d="M509.68 81.27c0-7.98-6.469-14.449-14.445-14.449h-381.801c-7.98 0-14.449 6.469-14.449 14.449 0 65.691 53.258 118.949 118.949 118.949h172.801c65.691 0 118.945-53.258 118.945-118.949zm0 0-15.457-14.45h-30.914c8.535 0 15.457 6.922 15.457 15.457v247.434c0 8.539-6.922 15.457-15.457 15.457h30.914c8.539 0 15.457-6.918 15.457-15.457v-247.434c0-8.535-6.918-15.457-15.457-15.457zm0 0" fill="#be7511"/><path d="M495.234 66.82h-30.918c7.98 0 14.449 6.469 14.449 14.449 0 65.691-53.258 118.949-118.949 118.949h30.914c65.695 0 118.949-53.258 118.949-118.949 0-7.98-6.465-14.449-14.445-14.449zm0 0" fill="#b06911"/><path d="M320.91 229.492h-38.406c-8.539 0-15.457-6.918-15.457-15.457v-19.234c0-8.535 6.918-15.457 15.457-15.457h38.406c8.539 0 15.461 6.922 15.461 15.457v19.234c0 8.539-6.922 15.457-15.461 15.457zm0 0" fill="#ffe056"/><path d="M128.324 338.984c-9.91-17.086-29.035-46.508-51.02-46.508-22.039 0-41.211 29.484-51.098 46.645-.598 1.035-1.066 2.094-1.414 3.16 13.211 11.793 30.773 18.984 50.051 18.984 21.004 0 39.961-8.551 53.48-22.281zm0 0" fill="#fff4f1"/><path d="M77.074 292.598c-4.609.031-9.082 1.363-13.367 3.59 5.43 2.73 10.574 6.902 15.32 11.75 16.98 17.344 8.309 46.934-15.438 51.973-.645.137-1.293.266-1.941.387 4.359.75 8.844 1.137 13.426 1.105 21.008-.141 39.906-8.824 53.332-22.645-10.023-17.02-29.352-46.309-51.332-46.16zm0 0" fill="#e3ded9"/><path d="M77.305 310.32c21.984 0 41.109 11.578 51.02 28.668 12.906-13.105 20.859-30.926 20.859-50.574 0-40.238-33.285-72.859-74.344-72.859-41.055 0-74.34 32.617-74.34 72.855 0 21.348 9.367 40.547 24.293 53.871.348-1.066.816-2.121 1.41-3.16 9.891-17.16 29.063-28.801 51.102-28.801zm0 0" fill="#ffe056"/><path d="M74.84 215.555c-3.598 0-7.133.254-10.594.738 36.039 5.043 63.746 35.406 63.746 72.117 0 13.617-3.82 26.355-10.461 37.254 4.27 3.879 7.922 8.367 10.793 13.324 12.906-13.105 20.859-30.926 20.859-50.574 0-40.242-33.285-72.859-74.344-72.859zm0 0" fill="#f9cd45"/><path d="M93.602 264.859c0-12.191-7.801-22.078-17.422-22.078s-17.418 9.887-17.418 22.078 7.797 22.078 17.418 22.078c9.621 0 17.422-9.887 17.422-22.078zm0 0" fill="#ffccc4"/><path d="M208.125 409.645c-9.91-17.086-29.035-46.508-51.02-46.508-22.039 0-41.211 29.48-51.098 46.645-.598 1.035-1.066 2.094-1.414 3.16 13.211 11.793 30.773 18.984 50.051 18.984 21.004 0 39.961-8.551 53.48-22.281zm0 0" fill="#fff4f1"/><path d="M156.875 363.258c-4.609.031-9.082 1.363-13.367 3.59 5.43 2.73 10.574 6.902 15.32 11.75 16.98 17.344 8.309 46.934-15.438 51.973-.645.137-1.289.266-1.941.387 4.359.746 8.844 1.137 13.426 1.105 21.008-.145 39.906-8.824 53.332-22.645-10.023-17.02-29.352-46.309-51.332-46.16zm0 0" fill="#e3ded9"/><path d="M157.105 380.98c21.984 0 41.109 11.574 51.02 28.664 12.906-13.105 20.859-30.926 20.859-50.574 0-40.238-33.285-72.855-74.344-72.855-41.055 0-74.34 32.617-74.34 72.855 0 21.344 9.367 40.547 24.293 53.871.348-1.066.816-2.121 1.41-3.16 9.891-17.164 29.063-28.801 51.102-28.801zm0 0" fill="#5e8ee1"/><path d="M154.641 286.215c-3.598 0-7.133.254-10.594.738 36.039 5.039 63.746 35.406 63.746 72.117 0 13.617-3.82 26.352-10.461 37.254 4.27 3.879 7.922 8.367 10.793 13.32 12.906-13.105 20.859-30.926 20.859-50.574 0-40.238-33.285-72.855-74.344-72.855zm0 0" fill="#467bff"/><path d="M173.402 335.52c0-12.195-7.797-22.078-17.418-22.078s-17.422 9.883-17.422 22.078c0 12.191 7.801 22.078 17.422 22.078s17.418-9.887 17.418-22.078zm0 0" fill="#ffccc4"/><path d="M288.141 489.582c-9.91-17.09-29.039-46.508-51.02-46.508-22.043 0-41.215 29.48-51.102 46.645-.598 1.035-1.063 2.094-1.41 3.16 13.207 11.793 30.77 18.984 50.047 18.984 21.008 0 39.965-8.551 53.484-22.281zm0 0" fill="#fff4f1"/><path d="M236.887 443.195c-4.609.027-9.082 1.363-13.367 3.59 5.43 2.73 10.578 6.902 15.32 11.746 16.984 17.344 8.309 46.934-15.434 51.977-.645.137-1.293.266-1.945.383 4.359.75 8.844 1.137 13.426 1.105 21.008-.141 39.906-8.82 53.332-22.645-10.023-17.02-29.352-46.309-51.332-46.156zm0 0" fill="#e3ded9"/><path d="M237.121 460.914c21.98 0 41.109 11.578 51.02 28.668 12.902-13.105 20.855-30.926 20.855-50.574 0-40.238-33.281-72.859-74.34-72.859s-74.34 32.621-74.34 72.855c0 21.348 9.367 40.547 24.293 53.871.348-1.063.813-2.121 1.41-3.156 9.887-17.164 29.059-28.805 51.102-28.805zm0 0" fill="#9ddbdf"/><path d="M234.656 366.148c-3.598 0-7.137.258-10.594.742 36.035 5.039 63.746 35.402 63.746 72.113 0 13.617-3.824 26.355-10.461 37.254 4.266 3.883 7.918 8.367 10.793 13.324 12.902-13.105 20.855-30.926 20.855-50.574 0-40.238-33.281-72.859-74.34-72.859zm0 0" fill="#7cd6e6"/><path d="M253.418 415.453c0-12.191-7.801-22.074-17.422-22.074s-17.422 9.883-17.422 22.074c0 12.195 7.801 22.078 17.422 22.078s17.422-9.883 17.422-22.078zm0 0" fill="#ffccc4"/></svg>