<svg height="512pt" viewBox="0 0 512 512.00104" width="512pt" xmlns="http://www.w3.org/2000/svg"><path d="M501.582 405.984l-.113-6.902c-.07-23.523-19.375-42.715-42.898-42.645-23.523.074-42.711 19.375-42.641 42.898v.113l.109 6.902c.07 23.523 19.375 42.715 42.898 42.645 23.523-.074 42.715-19.375 42.645-42.898zm0 0" fill="#dc8839"/><path d="M501.582 405.984l-.113-6.902c-.07-23.523-19.375-42.715-42.898-42.645-5.457.02-10.676 1.082-15.477 2.98 15.816 6.25 27.109 21.684 27.164 39.664l.113 6.902v.113c.055 18.066-11.258 33.633-27.164 39.918 4.879 1.93 10.184 2.996 15.73 2.98 23.523-.074 42.715-19.375 42.645-42.898zm0 0" fill="#be7511"/><path d="M366.219 405.984l-.109-6.902c-.074-23.523-19.375-42.715-42.898-42.645-23.527.074-42.715 19.375-42.645 42.898v.113l.113 6.902c.07 23.523 19.375 42.715 42.898 42.645 23.523-.074 42.711-19.375 42.641-42.898zm0 0" fill="#dc8839"/><path d="M366.238 405.832l-.148-6.902c-.191-23.523-19.594-42.613-43.117-42.422-5.457.043-10.668 1.133-15.461 3.055 15.852 6.172 27.223 21.551 27.367 39.527l.148 6.902v.113c.148 18.066-11.086 33.691-26.961 40.059 4.891 1.902 10.203 2.941 15.75 2.898 23.52-.191 42.613-19.594 42.422-43.117zm0 0" fill="#be7511"/><path d="M230.859 405.984l-.113-6.902c-.07-23.523-19.375-42.715-42.898-42.645-23.523.074-42.711 19.375-42.641 42.898v.113l.109 6.902c.074 23.523 19.375 42.715 42.898 42.645 23.523-.074 42.715-19.375 42.645-42.898zm0 0" fill="#dc8839"/><path d="M230.859 405.984l-.113-6.902c-.07-23.523-19.375-42.715-42.898-42.645-5.457.02-10.672 1.082-15.477 2.98 15.816 6.25 27.109 21.684 27.164 39.664l.113 6.902v.113c.051 18.066-11.258 33.633-27.164 39.918 4.879 1.93 10.184 2.996 15.73 2.98 23.523-.074 42.711-19.375 42.641-42.898zm0 0" fill="#be7511"/><path d="M95.5 405.984l-.113-6.902c-.07-23.523-19.375-42.715-42.898-42.645-23.523.074-42.711 19.375-42.641 42.898v.113h-.004l.113 6.902c.07 23.523 19.375 42.715 42.898 42.645 23.523-.074 42.715-19.375 42.641-42.898zm0 0" fill="#dc8839"/><path d="M95.5 405.984l-.113-6.902c-.07-23.523-19.375-42.715-42.898-42.645-5.457.02-10.676 1.082-15.48 2.98 15.82 6.25 27.113 21.684 27.168 39.664l.113 6.902h-.004v.113c.055 18.066-11.258 33.633-27.164 39.918 4.883 1.93 10.188 2.996 15.734 2.98 23.523-.074 42.711-19.375 42.641-42.898zm0 0" fill="#be7511"/><path d="M376.066 496.395v-25.992c0-22.156-18.129-40.285-40.285-40.285h-24.773c-22.156 0-40.285 18.129-40.285 40.285v25.992c0 8.617 6.988 15.605 15.605 15.605h74.133c8.617 0 15.605-6.984 15.605-15.605zm0 0" fill="#ffd5cc"/><path d="M335.781 430.117h-24.773c-1.086 0-2.156.055-3.219.141 20.664 1.656 37.063 19.074 37.063 40.145v41.598h15.605c8.621 0 15.605-6.984 15.605-15.605v-25.992c.004-22.156-18.125-40.285-40.281-40.285zm0 0" fill="#fda8a1"/><path d="M240.703 496.395v-25.992c0-22.156-18.129-40.285-40.285-40.285h-24.77c-22.16 0-40.285 18.129-40.285 40.285v25.992c0 8.617 6.984 15.605 15.605 15.605h74.129c8.621 0 15.605-6.984 15.605-15.605zm0 0" fill="#ffe056"/><path d="M201.207 430.117h-25.559c-1.086 0-2.156.055-3.223.141 20.664 1.656 37.066 19.074 37.066 40.145v41.598h15.605c8.617 0 15.605-6.984 15.605-15.605v-26.781c0-21.723-17.773-39.496-39.496-39.496zm0 0" fill="#f9cd45"/><path d="M105.344 496.395v-25.992c0-22.156-18.129-40.285-40.285-40.285h-24.773c-22.156 0-40.285 18.129-40.285 40.285v25.992c0 8.621 6.988 15.605 15.605 15.605h74.133c8.617 0 15.605-6.984 15.605-15.605zm0 0" fill="#fc9086"/><path d="M66.109 430.117h-25.824c-1.082 0-2.156.055-3.219.141 20.664 1.656 37.063 19.074 37.063 40.145v41.598h15.609c8.617 0 15.605-6.984 15.605-15.605v-27.043c0-21.578-17.656-39.234-39.234-39.234zm0 0" fill="#f57a73"/><path d="M511.426 496.395v-25.992c0-22.156-18.129-40.285-40.285-40.285h-24.773c-22.156 0-40.285 18.129-40.285 40.285v25.992c0 8.621 6.988 15.605 15.605 15.605h74.133c8.617 0 15.605-6.984 15.605-15.605zm0 0" fill="#9ddbdf"/><path d="M471.141 430.117h-24.773c-1.082 0-2.152.055-3.219.141 20.664 1.656 37.066 19.074 37.066 40.145v41.598h15.605c8.617 0 15.605-6.984 15.605-15.605v-25.992c0-22.156-18.129-40.285-40.285-40.285zm0 0" fill="#7cd6e6"/><path d="M254.984 303.199c-4.309 0-7.801-3.492-7.801-7.801v-29.332c0-4.309 3.492-7.801 7.801-7.801s7.805 3.492 7.805 7.801v29.332c0 4.309-3.496 7.801-7.805 7.801zm0 0" fill="#d0cfd1"/><path d="M397.957 264.441h-296.348c-18.391 0-33.297-14.906-33.297-33.297v-197.848c0-18.387 14.906-33.297 33.297-33.297h296.348c18.391 0 33.297 14.91 33.297 33.297v197.848c0 18.391-14.906 33.297-33.297 33.297zm0 0" fill="#fff4f1"/><path d="M408.359 0h-31.211c18.391 0 33.301 14.91 33.301 33.297v197.848c0 18.391-14.91 33.297-33.301 33.297h31.211c18.391 0 33.301-14.906 33.301-33.297v-197.848c0-18.387-14.91-33.297-33.301-33.297zm0 0" fill="#e9e5e1"/><path d="M254.41 135.18h-35.617c-4.309 0-7.805 3.492-7.805 7.801v68.102c0 4.309 3.496 7.801 7.805 7.801h35.617c4.309 0 7.801-3.492 7.801-7.801v-68.102c0-4.309-3.492-7.801-7.801-7.801zm0 0" fill="#ffe056"/><path d="M191.684 160.895h-35.617c-4.309 0-7.805 3.496-7.805 7.805v42.383c0 4.309 3.496 7.801 7.805 7.801h35.617c4.309 0 7.805-3.492 7.805-7.801v-42.383c0-4.313-3.496-7.805-7.805-7.805zm0 0" fill="#fc9086"/><path d="M379.863 100.316h-35.621c-4.309 0-7.801 3.492-7.801 7.801v101.969c0 4.309 3.492 7.805 7.801 7.805h35.621c4.309 0 7.801-3.496 7.801-7.805v-101.969c0-4.309-3.492-7.801-7.801-7.801zm0 0" fill="#7cd6e6"/><path d="M317.137 100.078h-35.617c-4.313 0-7.805 3.496-7.805 7.805v103.199c0 4.309 3.492 7.801 7.805 7.801h35.617c4.309 0 7.801-3.492 7.801-7.801v-103.199c0-4.309-3.492-7.805-7.801-7.805zm0 0" fill="#ffd5cc"/><path d="M298.488 53.145v-.691l-.004-.074-.035-.344-.012-.105-.023-.219-.012-.09-.086-.418-.051-.238-.02-.086-.125-.406-.078-.25-.027-.074-.145-.352-.129-.297-.031-.07-.148-.27-.18-.336-.047-.078-.145-.215-.234-.34-.047-.07-.188-.223-.246-.293-.055-.063-.219-.223-.254-.246-.074-.066-.25-.207-.25-.203-.098-.07-.27-.18-.043-.027-.215-.145-.121-.07-.211-.113-.258-.137-.082-.043-.012-.004-.113-.055-.191-.078-.309-.125-.121-.051-.078-.027-.27-.078-.023-.008-.402-.121-.027-.004-.184-.035c-.188-.043-.371-.082-.559-.109h-.024l-27.555-3.824c-4.273-.594-8.211 2.383-8.801 6.652-.594 4.27 2.387 8.211 6.656 8.801l2.164.301-122.832 59.785c-3.879 1.887-5.488 6.559-3.602 10.434 1.352 2.773 4.129 4.387 7.02 4.387 1.148 0 2.313-.254 3.41-.789l125.707-61.184-2.418 5.031c-1.871 3.883-.234 8.547 3.648 10.414 1.09.523 2.242.773 3.375.773 2.906 0 5.695-1.629 7.039-4.422l12.148-25.25.027-.066.047-.102.168-.414.082-.211.023-.059.117-.398.082-.285.008-.035.059-.301.078-.41.004-.027v-.02l.02-.18.047-.52v-.055zm0 0" fill="#d0cfd1"/><path d="M254.984 334.594c-12.387 0-22.469-10.078-22.469-22.465 0-12.391 10.082-22.469 22.469-22.469 12.391 0 22.469 10.078 22.469 22.469 0 12.387-10.078 22.465-22.469 22.465zm0 0" fill="#e3ded9"/><path d="M151.828 55.086h-4.336v-4.34c0-4.309-3.496-7.805-7.805-7.805s-7.805 3.496-7.805 7.805v4.34h-4.336c-4.309 0-7.805 3.492-7.805 7.801s3.496 7.805 7.805 7.805h4.336v4.336c0 4.309 3.496 7.805 7.805 7.805s7.805-3.496 7.805-7.805v-4.336h4.336c4.309 0 7.805-3.496 7.805-7.805 0-4.309-3.496-7.801-7.805-7.801zm0 0 239.684 169h-263.965c-4.309 0-7.805-3.492-7.805-7.805 0-4.309 3.496-7.801 7.805-7.801h263.965c4.309 0 7.801 3.492 7.801 7.801 0 4.313-3.492 7.805-7.801 7.805zm0 0" fill="#d0cfd1"/></svg>