<svg height="512pt" viewBox="0 -5 512 512" width="512pt" xmlns="http://www.w3.org/2000/svg"><path d="M22.34 286.699v188.098c0 15.293 12.395 27.688 27.684 27.688h47.492c15.293 0 27.688-12.395 27.688-27.688v-188.098l-54.934-10.348zm0 0" fill="#5e8ee1"/><path d="M94.16 286.699v188.098c0 15.293-12.395 27.688-27.688 27.688h31.043c15.293 0 27.688-12.395 27.688-27.688v-188.098l-14.859-10.348zm0 0" fill="#467bff"/><path d="M22.34 190.785h102.863v95.949h-102.863zm0 0" fill="#fff4f1"/><path d="M94.16 190.785h31.043v95.949h-31.043zm0 0" fill="#e3ded9"/><path d="M91.961 255.871h-38.047c-29.777 0-53.914-24.137-53.914-53.914v-67.699l145.875-20.695v88.395c0 29.777-24.137 53.914-53.914 53.914zm0 0" fill="#ffd5cc"/><path d="M54.148 165.492h-.32c-10.02 0-18.219-8.195-18.219-18.215v-52.285c0-10.02 8.199-18.219 18.219-18.219h.32c10.02 0 18.215 8.199 18.215 18.219v52.285c0 10.02-8.195 18.215-18.215 18.215zm0 0 36.754 0h-.32c-10.02 0-18.219-8.195-18.219-18.215v-59.094c0-10.02 8.199-18.219 18.219-18.219h.32c10.02 0 18.219 8.199 18.219 18.219v59.094c0 10.02-8.199 18.215-18.219 18.215zm0 0" fill="#ffccc4"/><path d="M127.656 165.492h-.32c-10.02 0-18.215-8.195-18.215-18.215v-51.605c0-10.02 8.195-18.215 18.215-18.215h.32c10.02 0 18.219 8.195 18.219 18.215v51.605c0 10.02-8.199 18.215-18.219 18.215zm0 0" fill="#ffd5cc"/><path d="M127.656 165.492h-.32c-10.02 0-18.215-8.195-18.215-18.215v-51.605c0-10.02 8.195-18.215 18.215-18.215h.32c10.02 0 18.219 8.195 18.219 18.215v51.605c0 10.02-8.199 18.215-18.219 18.215zm0 0-109.437.055c-10.02 0-18.219-8.199-18.219-18.219v-29.234c0-10.02 8.199-18.215 18.219-18.215s18.215 8.195 18.215 18.215v29.234c0 10.02-8.195 18.219-18.215 18.219zm0 0" fill="#ffccc4"/><path d="M145.875 204.297v-42.68c0-6.926-2.75-13.566-7.648-18.461l-23.48-23.484c-3.016-3.016-7.957-3.016-10.973 0l-.043.043c-8.621 8.609-8.621 22.699-.012 31.313l12.176 12.172c-3.406-.75-6.945-1.148-10.578-1.148-27.023 0-48.934 19.883-48.934 46.91 0 24.863 17.691 43.5 41.703 46.629 26.453-3.285 47.789-23.949 47.789-51.293zm0 0" fill="#ffd5cc"/><path d="M68.801 208.961c0-24.867 18.555-43.676 42.574-46.523-1.984-.246-4.004-.387-6.055-.387-27.027 0-48.938 19.883-48.938 46.91 0 24.863 17.691 43.5 41.703 46.629 2.156-.266 4.277-.664 6.359-1.156-20.867-5.238-35.645-22.754-35.645-45.473zm0 0" fill="#ffccc4"/><path d="M205.402 328.09v146.707c0 15.293 12.395 27.688 27.684 27.688h47.492c15.289 0 27.688-12.395 27.688-27.688v-146.707l-54.934-10.348zm0 0" fill="#fc9086"/><path d="M277.223 328.09v146.707c0 15.293-12.398 27.688-27.688 27.688h31.043c15.289 0 27.688-12.395 27.688-27.688v-146.707l-14.863-10.348zm0 0" fill="#f57a73"/><path d="M205.402 232.176h102.863v95.949h-102.863zm0 0" fill="#fff4f1"/><path d="M277.223 232.176h31.043v95.949h-31.043zm0 0" fill="#e3ded9"/><path d="M275.023 297.262h-38.047c-29.777 0-53.914-24.137-53.914-53.914v-67.695l145.875-20.695v88.391c0 29.777-24.137 53.914-53.914 53.914zm0 0" fill="#ffd5cc"/><path d="M237.211 206.883h-.32c-10.02 0-18.219-8.195-18.219-18.215v-52.285c0-10.02 8.199-18.219 18.219-18.219h.32c10.02 0 18.219 8.199 18.219 18.219v52.285c0 10.02-8.199 18.215-18.219 18.215zm0 0 36.754 0h-.32c-10.02 0-18.215-8.195-18.215-18.215v-59.094c0-10.02 8.195-18.219 18.215-18.219h.32c10.02 0 18.219 8.199 18.219 18.219v59.094c0 10.02-8.199 18.215-18.219 18.215zm0 0" fill="#ffccc4"/><path d="M310.719 206.883h-.32c-10.02 0-18.215-8.195-18.215-18.215v-51.605c0-10.02 8.195-18.215 18.215-18.215h.32c10.02 0 18.219 8.195 18.219 18.215v51.605c0 10.02-8.199 18.215-18.219 18.215zm0 0" fill="#ffd5cc"/><path d="M310.719 206.883h-.32c-10.02 0-18.215-8.195-18.215-18.215v-51.605c0-10.02 8.195-18.215 18.215-18.215h.32c10.02 0 18.219 8.195 18.219 18.215v51.605c0 10.02-8.199 18.215-18.219 18.215zm0 0-109.442.055c-10.02 0-18.215-8.195-18.215-18.215v-29.238c0-10.02 8.195-18.215 18.215-18.215s18.219 8.195 18.219 18.215v29.238c0 10.02-8.199 18.215-18.219 18.215zm0 0" fill="#ffccc4"/><path d="M328.938 245.688v-42.68c0-6.926-2.75-13.566-7.648-18.461l-23.48-23.484c-3.016-3.016-7.953-3.016-10.973 0l-.043.043c-8.617 8.609-8.621 22.699-.008 31.313l12.172 12.172c-3.406-.75-6.945-1.148-10.574-1.148-27.027 0-48.938 19.883-48.938 46.91 0 24.863 17.691 43.5 41.703 46.629 26.453-3.285 47.789-23.949 47.789-51.293zm0 0" fill="#ffd5cc"/><path d="M251.863 250.352c0-24.867 18.555-43.676 42.574-46.523-1.984-.246-4.004-.387-6.055-.387-27.027 0-48.938 19.883-48.938 46.91 0 24.863 17.691 43.504 41.703 46.629 2.16-.266 4.277-.66 6.359-1.156-20.867-5.238-35.645-22.754-35.645-45.473zm0 0" fill="#ffccc4"/><path d="M388.465 379.828v94.969c0 15.293 12.395 27.688 27.684 27.688h47.492c15.293 0 27.688-12.395 27.688-27.688v-94.969l-54.934-10.348zm0 0" fill="#ffe056"/><path d="M460.285 379.828v94.969c0 15.293-12.398 27.688-27.688 27.688h31.043c15.293 0 27.688-12.395 27.688-27.688v-94.969l-14.859-10.348zm0 0" fill="#f9cd45"/><path d="M388.465 283.914h102.863v95.949h-102.863zm0 0" fill="#fff4f1"/><path d="M460.285 283.914h31.043v95.949h-31.043zm0 0" fill="#e3ded9"/><path d="M458.086 349h-38.047c-29.777 0-53.914-24.137-53.914-53.914v-67.695l145.875-20.695v88.391c0 29.777-24.137 53.914-53.914 53.914zm0 0" fill="#ffd5cc"/><path d="M420.273 258.621h-.32c-10.02 0-18.219-8.195-18.219-18.215v-52.285c0-10.02 8.199-18.215 18.219-18.215h.32c10.02 0 18.219 8.195 18.219 18.215v52.285c-.004 10.02-8.199 18.215-18.219 18.215zm0 0 36.754 0h-.32c-10.02 0-18.219-8.195-18.219-18.215v-59.094c0-10.02 8.199-18.219 18.219-18.219h.32c10.02 0 18.219 8.199 18.219 18.219v59.094c0 10.02-8.199 18.215-18.219 18.215zm0 0" fill="#ffccc4"/><path d="M493.781 258.621h-.32c-10.02 0-18.215-8.195-18.215-18.215v-51.605c0-10.02 8.195-18.215 18.215-18.215h.32c10.02 0 18.219 8.195 18.219 18.215v51.605c0 10.02-8.199 18.215-18.219 18.215zm0 0" fill="#ffd5cc"/><path d="M493.781 258.621h-.32c-10.02 0-18.215-8.195-18.215-18.215v-51.605c0-10.02 8.195-18.215 18.215-18.215h.32c10.02 0 18.219 8.195 18.219 18.215v51.605c0 10.02-8.199 18.215-18.219 18.215zm0 0-109.437.055c-10.02 0-18.219-8.195-18.219-18.215v-29.238c0-10.02 8.199-18.215 18.219-18.215s18.215 8.195 18.215 18.215v29.238c0 10.02-8.195 18.215-18.215 18.215zm0 0" fill="#ffccc4"/><path d="M512 297.426v-42.68c0-6.926-2.75-13.566-7.648-18.461l-23.48-23.48c-3.016-3.02-7.953-3.02-10.973-.004l-.043.043c-8.617 8.609-8.621 22.699-.008 31.313l12.172 12.172c-3.406-.75-6.945-1.148-10.574-1.148-27.027 0-48.938 19.883-48.938 46.91 0 24.863 17.691 43.5 41.703 46.629 26.453-3.285 47.789-23.949 47.789-51.293zm0 0" fill="#ffd5cc"/><path d="M434.926 302.09c0-24.867 18.555-43.676 42.574-46.523-1.984-.246-4.004-.387-6.055-.387-27.027 0-48.938 19.883-48.938 46.91 0 24.863 17.691 43.504 41.703 46.629 2.156-.266 4.277-.66 6.359-1.156-20.867-5.238-35.645-22.754-35.645-45.473zm0 0" fill="#ffccc4"/><path d="M219.953 63.832l3.938-3.941c3.031-3.027 3.031-7.941 0-10.973s-7.945-3.031-10.973 0l-3.941 3.938-3.938-3.938c-3.031-3.031-7.945-3.031-10.973 0-3.031 3.031-3.031 7.945 0 10.973l3.938 3.941-3.938 3.938c-3.031 3.031-3.031 7.945 0 10.973 1.512 1.52 3.5 2.273 5.484 2.273 1.988 0 3.973-.754 5.488-2.273l3.938-3.938 3.941 3.938c1.512 1.52 3.5 2.273 5.484 2.273 1.988 0 3.973-.754 5.488-2.273 3.031-3.027 3.031-7.941 0-10.973zm0 0 248.231 38.57l3.938-3.938c3.031-3.031 3.031-7.945 0-10.977s-7.941-3.031-10.973 0l-3.941 3.938-3.938-3.938c-3.031-3.031-7.945-3.031-10.977 0s-3.031 7.945 0 10.977l3.941 3.938-3.941 3.938c-3.031 3.031-3.031 7.945 0 10.977 1.516 1.516 3.504 2.273 5.488 2.273 1.988 0 3.973-.758 5.488-2.273l3.941-3.941 3.938 3.941c1.516 1.516 3.504 2.273 5.488 2.273s3.973-.758 5.488-2.273c3.031-3.031 3.031-7.945 0-10.977zm0 0-95.989-85.214l3.938-3.941c3.031-3.027 3.031-7.941 0-10.973-3.031-3.031-7.945-3.031-10.977 0l-3.938 3.938-3.938-3.938c-3.035-3.031-7.945-3.031-10.977 0s-3.031 7.945 0 10.973l3.938 3.941-3.938 3.938c-3.031 3.031-3.031 7.945 0 10.973 1.516 1.52 3.5 2.273 5.488 2.273 1.984 0 3.973-.754 5.488-2.273l3.938-3.938 3.938 3.938c1.516 1.52 3.504 2.273 5.488 2.273 1.988 0 3.973-.754 5.488-2.273 3.031-3.027 3.031-7.941 0-10.973zm0 0" fill="#e3ded9"/></svg>