<svg xmlns="http://www.w3.org/2000/svg" viewBox="0 0 63.665 63.665"><path d="M44.353 21.586l.07-.006h-.007zm-6.574-3.57v.001l-.004-.007zm4.493 7.13l.018-.011-.018.011zm-5.064-6.23l.018.029-.003-.006-.015-.023zm-22.32-.724l.002-.003-.01.009zm44.61-6.672h-55.331c-2.298 0-4.167 1.893-4.167 4.221v32.182c0 2.327 1.869 4.222 4.167 4.222h55.331c2.298 0 4.167-1.893 4.167-4.222v-32.182c0-2.328-1.87-4.221-4.167-4.221zm2.534 24.695l-.194.126s.043.068-.05.059c-.094-.008-.194.076-.194.076l-.011.025-.039.085-.354.276c-.212.153-.145-.066-.145-.066l.177-.136c.085-.051-.004-.142-.032-.151-.178-.06-.076-.126.032-.126.11 0 .085-.035.118-.085l.134-.186v-.186l.018-.429c0-.074.062.018.09.068l.003.006.093.076.042.117-.051.052-.041.092.016.068.118-.094-.05.153.033.092.084.034.118-.042.142-.026-.057.122zm-32.034-22.602l.012-.01.039-.036h.148l.043.03.072-.021.117-.038.109.017.025.029.122-.008.105-.018.072.004v.008l.08-.017.127.017.084-.004.014.036.002.006.019-.006.095-.031.095.031.033.01.117.03.143-.013.076.068.084.029.055.084-.003.002.028.015c.109.06-.05.109-.025.109l.319-.017c.06-.008.253-.033.497-.033l.235.067s-.066.059-.177.067l-.253.042s-.144.126-.456.21c-.311.083-.303.135-.303.135l.278.109c.042.018-.101.05-.303.05-.202 0-.076.103.101.103l.084.118s-.219.083-.102.083c.118 0 .025.05-.076.11-.058.034-.152.034-.212.028l.086.073c-.009.051-.101 0-.169 0h-.245l-.278.025c-.042 0 .05.058.143.1l.169.092.134.152c.084.093-.017.119-.168.119s-.186-.06-.194-.119c-.009-.06-.144.009-.144.009s-.194.101-.092.109l.48.075-.161.042-.614.169-.336.101-.345.06c-.177.034-.068.076-.203.152s-.135.084-.413.193c-.277.109-.21.017-.346.017-.134 0-.193.092-.227.092v.134c0 .083-.034.102-.202.211s-.177 0-.16.067c.017.068-.076.161-.076.161l-.157.23-.135.101c-.142 0-.193 0-.235-.05l-.084-.11-.236-.025c-.126-.034-.126-.109-.203-.177-.075-.068-.016-.287-.025-.404l-.05-.379c-.017-.211.202-.328.202-.328l.304-.093c.067-.009.134-.126.109-.126s-.202-.025-.303-.077c-.101-.051.018-.092.109-.092.093 0 .253.076.253.076l-.109-.22-.278.068c-.16.017-.118-.102-.118-.102s.16-.017.244-.101c.084-.084-.009-.21-.017-.328-.008-.119-.051-.101-.262-.194-.21-.092-.261.035-.455.035l-.396-.076c-.253-.051.371-.177.371-.177l-.497-.017c-.227 0-.067-.126.186-.126.252 0 .438-.109.632-.109s.134-.093-.009-.118l.573-.16.194-.035c.018-.025.219-.084.287-.084h.472l.134.043.134-.016.093-.09.134-.025.097-.042.021.025.084.005.071-.025.051.004.105-.076.047.013.13-.009.059.021.097-.046.037-.024.03-.019.118.004.017.015.015.011zm26.313 23.193c0-.094.143-.094.185-.043l.127.043c.101 0 .244-.085.244-.085s.059-.041.008.085-.255.344-.33.344l-.261.102c-.118 0-.01-.235.016-.261l.011-.185zm.504-.414l-.134-.169-.27.151-.085-.033-.066-.068-.151-.065-.219-.102.101-.134-.018-.237h-.1l.083-.202c-.201.152-.218.051-.218.051.135-.032.218-.236.218-.236l.019-.184-.22.202-.287.186-.032-.271s-.152-.253-.203-.27-.168-.017-.253-.068c-.084-.049-.286-.033-.539.102-.252.134-.286.05-.286.05-.488-.017-.388.253-.574.338-.186.084-.236 0-.438 0s-.472.169-.606.202c-.136.032-.186.017-.303-.068-.118-.084.017-.219.017-.219s.117-.033.201-.134c.085-.102 0-.388 0-.488 0-.102-.051-.186-.051-.388 0-.203-.05-.338.051-.422l-.017-.354c.033-.236.169-.202.186-.271.017-.067.051-.236.236-.32l.354-.186c.118-.017.32-.101.472-.101s.168-.152.235-.152c.068 0 .185-.118.185-.202l.153-.354.102.202.032-.169.085.017.084-.118s.051-.152.118-.235c.067-.084.185-.052.252-.084.067-.035.086-.102.22-.052.136.052.084.203.084.203h.235c.236 0 .035-.066.017-.203-.017-.134.086-.218.254-.286.167-.067.1-.017.236-.017l.152-.167c.1.084.319.101.421.101.101 0 .151.017.285.068.137.051 0 .068-.134.152-.135.084-.135.068-.101.152.033.084-.085.084-.085.084s-.067.051.051.152l.201.203.219.117.187.135c.135.05.135-.05.252-.152.118-.101.085-.354.085-.472 0-.119.033-.253.118-.556.084-.303.168-.034.168-.034l.102.606c.084-.118.201.118.201.118l.052.775s.235.102.404.27c.169.169-.017.456.051.388.066-.067.185-.034.151.084-.033.116.033.169.033.169.236.336.118.707.118.707.201.219-.186.656-.404.893-.219.237-.236.237-.287.237-.05 0-.118.184-.369.388-.254.203-.22.287-.338.488-.117.202-.151-.017-.371.051-.22.067-.322.201-.322.201zm-7.452-11.188c-.023-.18-.091-.09-.112-.203-.023-.113-.158-.147-.214-.192l-.092-.071-.021-.029-.111-.179-.227.021-.136.023-.088.011-.226.08-.09.235c-.022.078-.111.102-.169.089-.056-.012-.077.101-.077.101l-.091.113c-.057.022-.112.089-.157.157-.045.067-.136.111-.146.202-.011.09-.124.202-.259.202-.134 0-.066.191-.066.281s.055.169.055.281l-.067.213.022.214c0 .111-.102.146-.134.19l-.08.113s0 .134-.179.179c-.179.045-.258-.416-.291-.551-.034-.134-.237-.359-.248-.527-.01-.169-.156-.338-.214-.45-.055-.112-.111-.292-.145-.46l-.089-.686-.191.191c-.146.09-.247-.011-.247-.011l-.203-.258c.214-.012.237-.136.237-.136-.347.077-.29-.094-.393-.144l-.068-.014c-.201 0-.169-.101-.234-.224-.068-.124-.091-.011-.416-.022-.208-.008-.32.004-.403.013l-.125.009-.494-.113-.27-.303-.439.102c-.169-.033-.269-.213-.269-.213-.227-.078-.328-.281-.417-.449-.09-.169-.291.112-.291.19l.036.098c.054.095.157.22.244.306.122.124.022.112.101.258.066.123.211.286.29.313l.035.001.371-.045c.089-.044.326-.348.326-.348l.025.199.02.06c.032.068.112.113.168.158l.19.032.134.147.079.09c.035.057.045.191-.089.303-.135.112-.08.112-.18.112-.102 0-.034.135-.034.168v.124s-.146.045-.156.146c-.013.101-.058.079-.202.079-.147 0 .022.157-.034.168l-.224.011h-.137c-.032 0-.09.09-.101.169-.011.08-.09.08-.202.135s-.124.134-.27.134c-.147 0-.158.158-.158.158s-.234.089-.427.089l-.224.124c-.169.056-.159 0-.214-.068-.058-.067-.058-.123-.079-.27-.023-.146 0-.225 0-.326l-.011-.126-.058-.087c-.078-.09-.19-.112-.28-.326-.089-.214-.146-.168-.292-.281-.146-.112-.101-.46-.101-.46-.068-.27-.157-.202-.271-.315-.111-.112-.045-.213-.214-.438l-.225-.291c-.035-.06-.06-.153-.076-.251-.03-.177-.036-.373-.036-.423l-.011-.225c0-.089.067-.112.123-.157l.012-.01.056-.146v-.371l-.009-.06-.06-.02-.246-.021c-.079-.023-.023.112-.157.123-.135.011-.123 0-.226-.09-.1-.09-.19-.021-.19-.021l-.078.089-.102-.012-.214-.023-.066-.157c-.023-.056-.068-.067-.124-.067-.058 0-.103-.102-.124-.157-.022-.056-.045-.123-.045-.269l.014-.115-.171-.087-.013-.013-.18.035-.056.068c-.057.067-.068.101-.124.021-.057-.079-.033.057-.033.057l.089.157.169.191-.068.067-.145-.067.089.112-.056.011.011.113-.179-.023-.124-.068-.074-.119-.035-.191-.059-.091-.03.001c-.067.011-.112-.179-.135-.213-.022-.034-.011-.258-.011-.258l-.21-.168-.016-.011-.134-.012-.157-.101c-.09-.034-.136-.146-.168-.169l-.182-.179-.056-.054-.113.031c-.101 0-.044.203-.044.203l.168.135c.112.078.125.135.125.135l.056.124.168.055.044.102c.035.022.112 0 .326.157.214.158.079.27-.034.124-.112-.146-.213-.011-.167.023.044.035.179.191.111.191-.068 0-.102.067-.146.146l-.167.09-.079.202s-.36-.146-.393-.19c-.034-.045.01-.101.122-.101l.292-.022s.056-.08.157-.101c.102-.023-.033-.079-.146-.281-.111-.202-.213-.146-.313-.18-.102-.034-.19-.124-.314-.225s-.113-.055-.113-.19c0-.136-.068-.136-.259-.181-.157-.037-.146.019-.163.071l-.017.03c-.045.057-.077.125-.18.146l-.393-.089-.113.157-.067.235-.179.045-.237.213c-.123.101.012.314-.068.314l-.146.203c-.056-.011-.134.124-.134.124h-.202l-.259.033c-.111 0-.067.113-.134.124-.067.012-.078-.01-.112-.136-.034-.124-.146-.101-.191-.066l-.012.01-.122-.01-.113-.034s-.011-.28-.067-.28l.022-.169c.034-.056.135-.112.135-.292l-.014-.234-.008-.057c-.124-.179.225-.247.225-.247l.808.101.1-.041.082-.015c.066 0 .032-.236.032-.326l-.032-.202c-.012-.033-.103-.123-.227-.236-.124-.113-.201 0-.201-.045s0-.168.055-.179l.227.022.156-.011.022-.113c-.022-.09-.012-.111.067-.033l.213.023s.022-.089.08-.089c.057 0 .066-.09.066-.147l.019-.03-.14.027-.253.017-.186.008-.21.025c-.143 0-.219.042-.219.042.017-.152.126-.202.236-.194.108.008.159-.126.159-.126-.084.134-.193.034-.243.034-.051 0-.119-.051-.109-.084l.185-.026-.051-.134.186-.076c.151-.076.025-.101.025-.101s-.061-.076-.061-.167c0-.093-.075-.051-.075-.051l-.193.035.109-.109h-.101l.126-.059h-.152l.066-.093s-.134-.017-.134-.076.016-.101.092-.168l.136-.168.278.025-.117.084c-.061.033-.086.101-.077.126l.135-.05.228.041s-.008.119-.151.186l-.152.084s.067-.042.219.008c.151.05.076.219.076.219s.043-.043.126.025c.084.067.033.085.067.193l.008.136.212-.026c.067.026.033.035 0 .118l-.136.152.102.058.023.046.125-.051c.032-.032-.017-.065.125-.097l.021-.004c.167-.034.1-.057.179-.203.077-.146.09-.044.337-.123l.032-.012.192-.078c.045 0 .078-.146.078-.146l-.123-.18v-.158c0-.044.135-.056.135-.056l.089-.079c.045-.044.101-.056.157-.056l-.045.158.102.067c.032.045.011.045-.079.101-.09.057-.102.034-.123.146-.021.113.068.068.101.102l.146.056.169-.056c.032-.034.145.056.145.056l.083.023.041.01.269-.089.258-.079.091.09s.337-.011.236-.045l.056-.064.057-.058-.012-.136-.032-.124c-.08-.113-.09-.125.056-.181l.247.113s.022.068.112.056c.073-.009.093-.102 0-.19l-.08-.057c-.179-.101.124-.235.124-.235l.416-.012.068-.045.135-.079-.123-.034h-.124l-.09.079h-.113l-.18.023h-.202l-.169-.079-.067-.056-.067-.292.146-.202s.27-.213.304-.213l.056-.103c.033-.042-.093-.059-.171-.064l-.054-.003-.203.033-.134.102c-.067.044.057.078.057.078l-.224.169c-.136.089-.361.111-.326.348.033.235.224.19.257.314.035.124-.269.225-.269.225s-.034.135-.023.281c.012.146-.067.168-.146.168-.079 0-.169 0-.179.045-.013.046-.045.068-.113.068-.067 0-.112-.068-.112-.113s.033-.068-.022-.225c-.058-.157-.022-.157-.146-.212-.124-.056.136-.124.023-.124h-.035c-.078-.001-.078-.01-.089-.09-.012-.089-.09.103-.135.114-.046.01-.079.101-.292.134-.214.033-.203-.056-.203-.056l-.09-.157.146-.191-.179.079-.022-.191.271-.022-.214-.011-.044-.101.134-.067.134-.057.057-.169h.303s.078-.135.135-.135l.189-.134c.045-.012.08-.135.08-.135l.045-.123.134-.112c.033-.012.102-.023.113-.103.011-.078.056-.134.089-.111.034.023.203-.011.203-.011l.056-.136c.034-.011.146-.033.146-.089h.146l.101-.022.136-.023h.102c0-.033.045-.089.146-.123l.157-.011-.045.146.124-.102-.015.107.101-.102.113-.067.011.124.023-.056.168.056.102.045h-.045l.045.101s.214-.067.259-.035c.045.035.079.057.235.057.158 0 .327.023.416.112.09.09.169.09.304.102.135.011.225.112.225.213 0 .101-.27.146-.46.135-.192-.011-.395-.1-.439-.1s-.169-.035-.079.033l.214.09s-.045.067.023.146l.033.123.135.012c.044 0 .111.045.19.112.078.067.145-.034-.034-.112s-.023-.181.067-.113c.089.068.28.089.338.068l-.067-.169c.032-.056.246-.158.324-.158l.136.068.057-.022c0-.067-.136-.124-.159-.258-.021-.136.013-.136.146-.136.135 0 .314.136.157.136s-.09.078-.032.123c.056.045.28.023.28.023l.045-.101.179-.146.182-.045.122-.057c.033-.01.169-.044.157.023l-.078.113.191-.012.066-.068.248.034s.079-.101.146-.101l.112.056s.012.113.09.023c.078-.089-.101-.146-.101-.146s-.271-.045-.214-.134c.056-.091.259.101.259.101l.415-.023c.079 0 .168 0 .303.09l.259.112c.089.089.102.057.157.057l.01-.09s-.101-.023-.123-.089l-.156-.068c-.113-.033-.068-.089-.068-.089l-.089-.068c-.08-.022 0-.112.056-.112.057 0 .057-.089.023-.202-.034-.113.056-.124.179-.124.124 0 .314.157.314.157s-.045.158.022.191l.18.146.045.18c.012.09.078.067.135.101.056.033.089.056.065.18-.021.124-.393.112-.393.112.113.135.36.101.36.101l.122.011.023-.067s.101-.1.101-.19c0-.091-.111-.147-.111-.147l.246-.023c.112 0 .236.214.236.214l.158-.034s-.158.034-.18-.111c-.023-.147-.393-.112-.528-.112s-.124-.091-.101-.169c.023-.08-.023-.112-.169-.169-.146-.056.033-.168.033-.168s-.033-.146.032-.113c.068.034.113.134.113.213 0 .079.033.068.18.068h.259s-.349-.135-.338-.168c.011-.034.101-.034.236-.045l.415.147s-.045-.135-.157-.135c-.111 0-.213-.202-.213-.202h.696s-.089-.068-.021-.18c.066-.113.518-.203.518-.203l.517.011c.313 0 .324-.044.224-.078s.079-.146.214-.157c.134-.012.19.078.19.078s.157 0 .27.034l.123.056s.338-.021.719.068c.383.089.078.235-.101.291-.094.029-.16.089-.2.139l.077-.004c.235 0 .395-.067.395-.067l.932.034.012.078.585.023-.103-.146s.495.023.698.079c.201.057.278.202.336.271.057.067.359.145.438.135.078-.012-.034-.225-.034-.225l.102.091.169.021.124-.021.225.011.271.021-.214-.19.101-.023s.606-.011.73.056c.124.068.011.136.011.136s.09-.011.09-.079c0-.067.191-.045.303-.045.113 0 .125.102.125.102l.258.012s.113.111.281.123l.427-.067c.179 0 .584.101.663.179.078.079.246.068.304.068h.493c.157 0 .427.033.472.045.045.011.113.089.282.112.167.023-.214-.213-.214-.213l.393.023c.079 0 .539 0 .785.101.249.101.428.124.606.157.182.034.473.045.63.169.157.123.369.19.369.19l-.156-.169s.438.067.618.112c.179.044.168.067.168.147 0 .078-.202.011-.202.011.146.079.235.19.235.19l-.271-.011c-.1 0-.348-.09-.415-.158-.067-.067-.134-.011-.291-.021-.157-.011-.136-.023-.181-.09-.045-.067-.214-.067-.067.045s-.068.169-.236.157c-.168-.011.058.068.18.068.124 0 .213.033.382.168.169.136.281.181.281.181l-.202-.023c-.09 0-.045.124-.27.134-.227.011-.079.135-.158.236l-.068.09c-.065-.067-.426-.012-.415-.09.013-.078-.111.18-.146.078l-.145.012c-.089 0-.158.034-.102.124l.058.168c0 .1.077.078.156.044l.124.09s.012.135.167.135c.158 0 .057.056.147.111l-.192.011c-.045.034-.01.067.169.181.179.112.079.146 0 .146-.077 0-.179.023-.09.112l.124.146-.153-.009.098.11c.19.225-.068.281-.068.281l-1.021-.978-.022-.1-.035-.18c-.021-.112.09-.089.124-.124.035-.033.035-.101.035-.19s-.058-.158.066-.213c.125-.057.012-.123.012-.123l-.113-.192h-.191l.067.068v.168s-.01.079-.156.057c-.146-.023-.157-.18-.157-.18l-.416.022-.011.18-.045.124.09.079.134.079s-.404.045-.427.011l.022-.034c.023-.034-.202-.078-.291-.078l-.182-.012-.066.078h-.697c-.124 0-.113.08-.124.135l.021.134-.1.124-.035.168c0 .101-.079.135-.134.192l-.023.101.235-.023.169.18.136.034c.068.066.136.01.045-.09-.09-.101.202-.044.337.045.134.089.189.101.27.202l.032.04.046.073c.101.157.078.258.134.348l.203.235c.089.113.022.068.011.191l.012.293c0 .134 0 .111-.125.314-.124.203-.124.247-.124.281 0 .034-.11.124-.179.124-.067 0-.179.01-.201-.079-.013-.05-.06-.014-.098.027l-.047.056-.014.019-.023.123.023.112c.057.034-.011.135-.011.135s-.013.18-.146.18c-.135 0-.045.101.023.123.068.023.18.057.225.112.045.057.068.113.202.226.135.112.101.146.18.27.079.123.011.213.011.213l-.27.033-.171.031s-.067-.101-.056-.225c.011-.124-.09-.18-.135-.202l.079-.034-.123-.146c-.034-.046-.169-.012-.271-.012s-.066-.056-.066-.168l-.035-.179c.013-.033-.146-.068-.146-.068l-.072.022-.062.013c-.033 0-.202.045-.214.146-.011.101-.179.01-.11 0 .066-.012.066-.136.021-.136-.044 0-.021-.079.023-.091.045-.011 0-.134-.112-.146-.113-.01-.091.103-.146.158l-.113.056v.113l-.237-.012c-.011.134.146.213.227.213.077 0 .124-.012.111.056-.011.068.034.135.113.135l.101-.078c.057-.045.102-.09.157-.012.057.079.068 0 .146 0l.089.09c.034.079-.045.056-.045.056-.19 0-.348.404-.291.404.056 0 .169.045.304.212.134.169.09.214.224.304l-.101.045c.169.023.292.203.258.203l-.179.101c.214 0 .282.157.282.192 0 .033-.045.225-.09.336l-.102.202-.022.19c-.022.091-.158.225-.236.316-.079.09-.124.247-.28.247-.158 0-.259.134-.371.146-.113.011-.168.068-.168.068l-.282.067c-.056.023.011.135.011.179 0 .045-.09 0-.135-.023l-.021-.089-.012-.134c-.01-.068-.193-.019-.281-.004l-.033.004-.123.112-.045.101-.102.101c-.055.033-.045.135-.045.202l.192.212c.078.091.146.179.403.405.259.224.192.483.192.663 0 .179-.056.168-.157.27-.101.101-.246.089-.246.089v.157c0 .057-.124.103-.158.147-.033.045-.101.079-.134.056-.034-.022-.068-.191-.057-.235l-.057-.09.004-.02c-.014-.046-.165-.079-.194-.059-.033.023-.079-.056-.103-.157l-.029-.087-.071-.126-.225-.045-.022-.147s-.146.044-.146.135l-.017.122-.073.249c-.033.068-.012.213.045.27.057.057.102.112.146.213l.045.247c.023.068.214.112.258.112.045 0 .113.09.214.226.102.135.113.157.113.348 0 .191 0 .124.068.225.066.101.01.179-.035.179s-.078.023-.179-.033c-.101-.057-.191-.125-.259-.237l-.089-.235c-.034-.057-.124-.135-.124-.236 0-.1.022-.202-.056-.259-.079-.056-.089-.168-.112-.225s-.146-.045-.203-.146c-.056-.101.035-.089.035-.146 0-.057-.035-.338-.022-.439.01-.101 0-.191-.035-.258l-.112-.28-.034-.213s-.056-.179-.122-.258l-.271.191c-.225.112-.27-.135-.213-.27.064-.138-.06-.093-.081-.272zm-2.553 19.923l-.494-.742c-.153-.231-.053-.42.226-.42h.023c.277 0 .615.195.754.436l.034.061c.139.24.362.238.498-.002l.031-.055c.136-.242.469-.438.744-.438.276 0 .373.187.218.416l-.492.73c-.154.231-.157.604-.002.835l.537.804c.154.231.055.418-.224.418h-.039c-.278 0-.615-.194-.753-.436l-.053-.094c-.139-.24-.362-.242-.5-.001l-.057.095c-.138.241-.477.436-.754.436h-.014c-.277 0-.377-.187-.222-.416l.532-.793c.158-.229.159-.604.007-.834zm.325-18.171c.024-.134.177.194.287.338.108.144.066.337-.178.388-.244.049-.114-.7-.109-.726zm-3.68 18.171l-.493-.742c-.153-.231-.054-.42.225-.42h.022c.278 0 .615.195.755.436l.035.061c.138.24.36.238.498-.002l.029-.055c.137-.242.47-.438.746-.438s.372.187.218.416l-.493.73c-.155.231-.156.604-.002.835l.537.804c.155.231.056.418-.224.418h-.04c-.277 0-.615-.194-.753-.436l-.054-.094c-.136-.24-.361-.242-.5-.001l-.055.095c-.139.241-.479.436-.755.436h-.014c-.277 0-.377-.187-.222-.416l.533-.793c.16-.229.161-.604.007-.834zm-3.355 0l-.492-.742c-.154-.231-.053-.42.225-.42h.023c.277 0 .614.195.753.436l.034.061c.139.24.362.238.498-.002l.031-.055c.136-.242.47-.438.745-.438.276 0 .374.187.218.416l-.493.73c-.154.231-.155.604-.002.835l.538.804c.153.231.054.418-.225.418h-.04c-.277 0-.615-.194-.752-.436l-.054-.094c-.137-.24-.362-.242-.501-.001l-.056.095c-.138.241-.476.436-.754.436h-.013c-.276 0-.378-.187-.222-.416l.533-.793c.158-.229.158-.604.006-.834zm.915-12.475c-.066-.136-.101-.146-.101-.304s-.021-.179.034-.258l.258-.204.269-.134.169-.213s.101-.09.101-.157l.034-.237s-.023-.089.122.079c.146.169.146.112.168.292.023.179.034.314 0 .337s-.156-.146-.145-.023c.011.125.056.157.056.157s.079.09-.032.09c-.113 0-.103.078-.08.213l-.012.033-.449 1.326s-.101.101-.179.101c-.079 0-.18.135-.314 0s-.157-.113-.134-.214c.021-.101.066-.179.021-.225-.045-.045-.135-.056-.079-.191l.157-.246c.08-.145.204-.088.136-.222zm1.214-6.089c-.078.101-.101.584-.235.82-.136.236-.157.348-.202.45-.045.101-.157.258-.214.292-.056.035-.213.236-.236.281l-.169.089c-.034.034-.201.146-.236.213l-.201.281-.146.146-.008.013c-.027.04-.108.16-.183.177l-.068.226c-.065.044-.077.089-.077.213v.008c-.006.11-.111.019-.101.172.011.157.034.224.078.292l.045.293.096.299.051.128s-.022.045-.022.292-.034.247 0 .371c.032.124.022.135-.057.249-.08.112-.19.179-.246.225l-.292.145-.136.192-.214.169c-.077.044-.258.077-.124.213.137.135.158.281.137.505-.023.226-.079.325-.158.325 0 0-.448.114-.358.315l.029.069c.062.146.062.192-.076.29-.157.113-.314.18-.359.404-.045.226-.09.293-.359.382-.271.09-.226.293-.359.293l-.428.112c-.089 0-.201-.112-.381 0-.18.111-.292.201-.449-.045l-.112-.608c-.158-.201-.158-.382-.18-.449l-.027-.047c-.069-.101-.242-.301-.242-.47 0-.202-.112-.674-.112-.674s-.451-.74-.428-.966l.016-.109c.044-.253.16-.66.276-.834.135-.203.112-.472.045-.517s-.112-.315-.045-.315-.045-.023-.112-.203l-.059-.301-.057-.184-.098-.132-.098-.093c-.177-.177-.37-.429-.353-.57.022-.169.102-.225.102-.292l.009-.082.047-.177.028-.058c.027-.049.051-.105-.005-.201l-.136-.179-.075-.11-.002-.003-.226.066-.226.046c-.079 0-.124.011-.112-.09.012-.1.112-.1-.012-.19-.123-.09-.112-.134-.202-.134l-.227-.001-.009.001-.163.027-.039.006-.067.067-.134.057-.158.067-.124.045-.112.045-.029.009-.105-.009-.112-.068h-.259c-.124 0-.169.056-.202.056l-.146.066-.096.018-.027.004s-.033.045-.123-.033l-.213-.157-.247-.213-.079-.103-.044-.033-.135-.09-.113-.124v-.134l-.014-.043-.086-.136-.101-.113-.09-.124-.02-.008c-.034-.017-.096-.06-.071-.126 0 0-.101.035-.146-.034l-.04-.058-.005-.008s-.089-.057-.079-.136l.012-.078.023-.101v-.135l.022-.124.101-.191.022-.073.001-.084.023-.258-.012-.157c0-.1.056-.224 0-.247l-.068-.066-.045-.136.045-.123.157-.224.067-.168.079-.124c.023-.045.023-.225.202-.326.177-.1.125-.231.156-.247l.158-.079.157-.113s.168.012.168-.068c0-.078.09-.157.09-.157l.011-.089-.022-.146.057-.147.112-.19c.045-.078.101-.067.169-.101l.146-.078.112-.102.056-.157.023-.101.067-.045c.079.01.124.09.124.09l.111.044h.258l.091.035.037.003.063-.048.033-.045.18-.056.103-.067.179-.057.113-.022.258-.023.314-.056h.191l.146-.011.146-.012.146-.033s.134.022.134.079c0 .056.101-.012.101-.012s-.101.112-.078.146c.023.034.078.124.045.18l-.101.157.033.124.091.067.076.049.081.063.202.023.258.023s.079.023.09.135c.012.112.034.112.079.112s.201-.034.259.023l.078.1c.068.056.202.09.259.045l.101-.068c0-.078-.057-.213 0-.258.057-.046.089-.146.156-.146.069 0 .169-.067.237.011l.124.113s.146.078.214.078l.052.012.096.044h.269c.057.011.247.19.359.146.112-.044.122-.146.27-.146l.214.068.158.022.146.01c.023 0 .074.174.099.322l.014.161c-.012.124.09.28-.057.158l-.157-.169-.124-.225.033.124s.179.203.179.292-.032.067.068.19c.101.124.18.259.214.438l.06.173.02.085c-.033.033.045-.033.09.091l.168.416.012.213.113.124.142.104.049.098c.035.146-.056.022.091.225l.156.27c.112.021.226.135.304.225l.135.179c.057.044.102.089.102.157v.158l.002.02.065.071.113.089.256-.021.192-.091.247-.034s.247.012.304-.033l.156-.112s.117-.047.038.055zm-8.732 18.564l-.493-.742c-.152-.231-.053-.42.226-.42h.022c.277 0 .614.195.755.436l.035.061c.138.24.359.238.497-.002l.029-.055c.137-.242.47-.438.747-.438.275 0 .372.187.218.416l-.492.73c-.156.231-.157.604-.003.835l.537.804c.155.231.055.418-.224.418h-.04c-.277 0-.615-.194-.751-.436l-.054-.094c-.138-.24-.362-.242-.502-.001l-.055.095c-.139.241-.477.436-.754.436h-.014c-.277 0-.377-.187-.222-.416l.533-.793c.157-.229.159-.604.005-.834zm-3.354 0l-.493-.742c-.153-.231-.053-.42.225-.42h.023c.278 0 .615.195.754.436l.034.061c.139.24.362.238.498-.002l.031-.055c.136-.242.469-.438.746-.438s.373.187.218.416l-.493.73c-.155.231-.156.604-.002.835l.538.804c.154.231.054.418-.224.418h-.04c-.278 0-.615-.194-.752-.436l-.053-.094c-.138-.24-.363-.242-.501-.001l-.056.095c-.138.241-.477.436-.754.436h-.013c-.277 0-.377-.187-.222-.416l.534-.793c.153-.229.154-.604.002-.834zm.656-28.618l.194-.092s.161-.05.042-.05c-.118 0-.227.059-.261.008-.033-.05.261-.186.32-.134l.084.109.202-.042.194-.034.194-.008c.109-.042.328.042.346.168 0 0-.135.161-.278.178-.143.016-.336.076-.345.109-.008.033-.092.033-.168.033s-.193-.042-.228-.076c-.034-.033-.202-.025-.202-.025l.11-.092-.204-.052zm4.221 4.347l.075-.008.06.076c.018.025-.033.286-.033.286l-.075.017-.034.067h-.084v-.27l-.043-.092.067-.042.067-.034zm-.06-.262c.017-.059.151-.017.151.06 0 .075-.017.143-.103.143-.081.001-.048-.203-.048-.203zm-2.561-2.037c-.075 0-.117.051-.1-.085.017-.134.041-.184.135-.126.092.06.143.026.143.026s-.049-.152.085-.152l.21.008c.051.035.244.126.043.126-.202 0-.152.017-.067.092l.019.034c-.035.034.057.253-.086.279l-.236.067c-.102.042-.102.084-.202.05-.101-.033-.126-.033-.126-.092s.042-.135.109-.152c.065-.017.149-.075.073-.075zm4.163-4.197c.101.102.21.102.269.102.06 0 .026.051-.109.051l-.27-.051c-.059-.025-.024-.143-.168-.126-.145.017-.103-.017-.202.126-.102.143-.042.193-.16.143-.118-.05-.094.068-.271-.05-.178-.118-.169-.101.093-.152 0 0 .102-.093.009-.093l-.244.093c-.101 0-.236 0-.236-.102 0-.101.008-.176.126-.176h.387l.447-.042h.784s.075.067-.085.118c-.159.051-.187.059-.303.059-.117 0-.304-.016-.345-.033l-.135-.017s.311.049.413.15zm4.397 1.129l-.295.051-.202-.109-.328-.034c0-.066.067-.076.135-.109.067-.034.05-.051.067-.136l.051-.134.059-.06.109-.109.218-.051.127-.092.371-.009.101-.042.202-.051c.051 0 .068-.026.151.059 0 0-.834.203-1.053.463-.218.262.169.338.287.363zm2.924-1.381c.009-.043.034-.135.177-.135.144 0 .068-.084.237.017.169.101.101.093.244.101.143.009.185-.008.26.051.077.059.127.202.06.194-.025-.003-.177 0-.455-.067l-.354-.093c-.093-.009-.177-.027-.169-.068zm1.121.109s.126.06.548.068c.421.008.067.093.009.093l-.296.016h-.185l-.076-.177zm5.157.464l.387.025c.026 0 .194.042.077.126 0 0-.363.058-.472.058-.11 0-.287-.017-.413-.093-.128-.076.059-.22.176-.126.119.093.135.076.169.067.034-.007-.085-.057.076-.057zm5.644.665c.707.093.269.152-.052.152-.319 0 .052-.152.052-.152zm-.135 6.892c.026.135-.085.06-.143.025-.061-.033-.11-.05-.118 0-.008.051-.051.135-.102.067-.051-.067-.075.042-.092.102-.018.058-.043.05-.118-.035-.076-.083-.008.084-.008.186 0 .101-.043.135-.126.21-.086.076-.11 0-.11-.135 0-.134-.033-.168-.126-.194-.093-.025-.118-.109-.059-.21.059-.101.209-.32.396-.337.185-.017.193-.033.312.017.117.05.084.042.075-.135-.009-.177.126-.143.203-.152.075-.008.083-.075.118-.244.033-.168-.118-.393-.135-.413-.109-.126.067-.21.193-.109.126.102.287.245.287.387 0 .143-.084.118-.084.143s.143.144.16.294l.051.194c.009.186 0 .084-.108.051-.11-.035-.094.05-.203.109-.108.059-.06.093-.168.017-.111-.075-.12.028-.095.162zm-.682 5.359c.084.109-.018.092-.117.092-.102 0-.194-.126-.178-.311.017-.186-.085-.05-.085-.05h-.201l-.102.118.076-.202.108-.042.094-.076.051.093.067-.017c-.017-.033.033-.143.137-.101.101.042.058.017.058-.092s.084-.06.135.067l.06.278c.059.194-.068.119-.144.051-.076-.069-.044.082.041.192zm-.876 1.372c.098.04.079.076.059.093.069-.034.43-.109.43-.109l-.193.151c-.067.034-.051.093-.051.126 0 .034.059.236.092.311.034.076.117.11.117.11l-.117.041-.109.109c-.025.025-.093-.025-.093-.101l-.059-.134v-.144l.008-.076c-.042 0-.145-.059-.134.059l-.009.54-.144-.026v-.169l.01-.236-.126-.025.008-.16s.041.076.067-.109c.025-.186.118-.379.118-.379s.041-.278.235-.262l.371.035s.262-.068.304-.118c.043-.051.084.034-.018.143-.101.109.051.126-.177.126h-.488c-.085 0-.169-.033-.143.051.025.087-.127.087.042.153zm-.481.01l-.186.135c-.034.101-.034.203-.034.253l-.076.261v-.119s-.118.085-.202.085l-.051-.085h-.11l-.134-.084-.06.068-.193.025c.024-.042.033-.159 0-.134l-.126.025h-.145l-.016-.328s-.052.025-.118-.144c-.067-.168-.051-.235-.043-.319l.051-.133.025-.037s.058.06.151.068l.145.009.024-.186c.009-.033.118-.076.187-.076s.033.042.134-.068l.093-.186s.102-.109.169-.101l.101-.051.076-.169c.067-.067.067-.143.067-.143s.212-.092.228.009c.017.1.101.151.101.151l.194.059-.042.092h-.135l.075.076-.118.034-.12.013-.022.004.076.168s-.035.152.051.161c.084.008.084.177.084.177s-.05.075.05.092c.102.017.085.068.085.068s-.228-.026-.245.084c-.016.11.093.152.009.246zm-.892 1.348l.261.026.237.109c.067.051-.068.059-.11.051l-.219-.008c-.092-.017-.177 0-.336-.068l-.363-.084c-.109-.068-.176-.051-.278-.077-.1-.025-.151-.025-.285-.109-.136-.084-.085-.21.144-.194.228.018.142.084.286.177.144.093.328-.034.328-.034l.211.026.227-.017c.151 0 .134.084.134.084l-.201.034-.036.084zm-.709-5.073c-.134.092-.228.051-.252-.126-.024-.177.279-.202.279-.202l.134.084s-.026.151-.161.244zm2.097.69l.06.135c.032.076.059 0 .059-.025l.126-.008.102.118.117.161-.058.067-.043-.084-.118-.076-.084-.017-.101-.068-.06.008h-.109l.017-.135-.067-.068-.102-.042-.118-.237h.143l-.033-.084c-.041-.016-.024-.27-.024-.27l.009-.143.108.05.135-.034.034.177.076.144c.024.06.06.093-.025.143l-.084.059-.033.118.073.111zm-.277-1.641l-.126.244s-.177-.051-.169-.227c.008-.177.219-.556.286-.311l.009.294zm1.601-4.551s.126.068-.009.068h-.134s.068.227.017.152l-.151-.169c-.059-.076 0-.186-.118-.287-.116-.101-.142-.125-.201-.235l-.135-.211-.109-.177c-.102-.05-.135-.109-.22-.253-.083-.143-.024-.151-.024-.151s.024-.118.1 0l.186.21.177.21c.11.152.177.135.237.194.058.058.27.253.276.287l-.033.025c-.024-.017-.161-.161-.21-.118-.053.042.108.33.351.455zm.169.977s-.21.05-.202-.101c.009-.152 0-.194.06-.194.059 0 .193.118.059-.067l-.152-.236c-.06-.092.008-.119.008-.119s.279.236.456.253c.177.017.234.017.27.084.033.068.159.126.06.126-.102 0-.16-.059-.16.058 0 .119.008.22-.11.152-.118-.067-.093-.126-.219-.075-.126.051-.185-.068-.177-.025l.107.144zm-5.456 24.398l-.493-.742c-.152-.231-.053-.42.226-.42h.022c.276 0 .614.195.755.436l.034.061c.139.24.36.238.498-.002l.029-.055c.137-.242.47-.438.746-.438s.373.187.218.416l-.492.73c-.155.231-.156.604-.002.835l.537.804c.155.231.054.418-.224.418h-.041c-.276 0-.614-.194-.75-.436l-.055-.094c-.137-.24-.361-.242-.501-.001l-.055.095c-.139.241-.477.436-.754.436h-.014c-.277 0-.377-.187-.222-.416l.533-.793c.156-.229.158-.604.005-.834zm8.555-14.346c-.127-.059-.235-.277-.235-.277l-.051-.084c-.094-.06-.035-.084-.177-.093-.144-.008-.144-.033-.194.018-.053.05-.035.084-.144.084l-.153.017.202.06s.051.101-.043.101h-.167l-.207-.013-.046-.004s-.117-.21-.228-.168l-.286.068s.024-.253.16-.219c0 0 .051-.245-.059-.338-.11-.092-.255-.193-.371-.193-.118 0-.203-.076-.203-.101l-.117-.059-.059-.101s-.025.159-.076.159l-.083-.109s-.009-.135-.068-.135l.076-.051.177-.008v-.075l-.271-.009-.043-.11s-.159.026-.193-.075l.06-.076s.151-.093.209-.093l.169.042c.043 0 .128.042.128.109l.009.202.032.093s.076-.058.076.025c0 .084.025.118.06.118.033 0 .16-.067.178-.143.017-.075.032-.118.117-.118.084 0 .108-.177.235-.092.128.084.16.135.254.142l.193.025.041.027c.087.055.256.144.32.152.076.008.177.033.277.092.102.058.152.092.152.194 0 .101 0 .118.06.118.059 0 .136.05.136.076 0 .025.186.025.186.109s-.169.05-.145.118l.22.26.059.144.21.168c.026.025.237.186.034.144-.199-.045-.284-.062-.411-.121zm-35.286 14.346l-.493-.742c-.153-.231-.053-.42.225-.42h.023c.278 0 .616.195.754.436l.035.061c.138.24.361.238.498-.002l.03-.055c.137-.242.47-.438.746-.438s.373.187.218.416l-.493.73c-.155.231-.156.604-.002.835l.538.804c.154.231.054.418-.225.418h-.04c-.277 0-.615-.194-.752-.436l-.053-.094c-.137-.24-.362-.242-.501-.001l-.055.095c-.139.241-.477.436-.754.436h-.014c-.276 0-.376-.187-.222-.416l.534-.793c.155-.229.156-.604.003-.834zm1.551-7.004l.008.003.004.004-.003.01-.009.002-.016.002-.009-.002-.007-.011.002-.006.005-.003.003-.014.013.002.006.003v.009l.003.001zm.084-.039l-.016-.012-.017-.012-.006-.017-.002-.017.02.002.002-.003.021.022.023-.005.009-.016.007-.012h.019l.014.011.007.012.019.003.008-.013.005-.007.008-.008.021-.003.001.017.005.011-.008.014-.007.017-.016.017-.02.01-.001.026-.011.021-.035.006-.035-.002-.012.008v.01l.018.006.005.014-.015.01-.001.009-.016.002-.009-.011-.016-.002-.009.004-.019.002-.003-.006-.015-.004v-.014l.025-.007.01-.013.009-.004.004-.021.005-.018.043-.007.007-.014-.026-.006zm.004-.086h.016v.008l-.002.007-.007.005-.004-.009-.003-.011zm.064-.013v-.011h.012l.005.008h.011l.007.009-.009.007-.02-.003-.006-.01zm.127.104l-.001-.021-.014-.007-.002-.036h.019v-.028h.049l.001.028.014.005v.014l.015-.002.01-.01.002-.017.007-.009.022.006h.02l.002.013v.02l-.025.003.002.012h.02l.003.016-.011.019-.02.005-.013.008-.021.015-.025.004-.032-.012.002.02-.008.013-.026.002v.016l.003.014-.008.008-.014-.011-.019.006.005.011.011.006v.024l-.014.002-.014-.021-.014-.024-.018-.006.005-.014.013-.008.009-.013.009-.009.006-.014.008-.016h.021l.009.01h.012v-.022zm.261-3.913c.067.127.051.152-.068.243-.118.094-.101.144-.169.304-.067.16-.142.244-.101.144.042-.101-.025-.144-.025-.144s-.076.144-.093.26c-.016.116-.065.367-.122.458l-.004.006c-.06.085-.143.077-.295.127-.152.051-.169-.059-.338-.085l-.208-.035-.019.035c.008.067.126.067.261.126l-.008.178c.068.101.118.075.118.178 0 .1-.017.168-.134.303-.118.135-.532.075-.616.075-.083 0 .052.143.109.236.06.094.017.101-.041.177-.06.075-.135-.025-.337-.033-.202-.009.017.143.025.21l.253.109c.093.052 0 .068-.109.161-.109.092 0 .108 0 .151s-.025.143-.143.159c-.118.018-.144.126-.101.245.042.118.126.143.219.143s.16-.008.16.186-.017.109-.084.127c-.067.018-.051.06-.067.201-.017.144-.008.101-.118.119-.109.017-.017.101.126.235l.245.328s.649.253.69.261l-.161.06-.135-.009h-.134l-.1.026-.018-.002-.244-.008c-.05 0-.167-.033-.235-.067l-.228-.034c-.033 0-.193-.152-.193-.152l-.102-.051-.033-.068-.118-.108-.076-.043s-.068-.05-.135-.202l-.043-.081v-.003c0-.042-.118-.169-.16-.209l-.134-.22s.06-.144.101-.144l.101-.151-.126-.017-.194-.018.035-.186.084-.017.06-.093-.009-.219-.033-.235s-.035-.16-.077-.186c-.042-.025-.042.067-.034.16.008.092.042.194.008.229-.035.032-.066-.018-.092-.145l-.017-.201-.092-.236c-.077-.102.033-.193.042-.296.008-.101-.135-.177-.21-.312-.077-.135.042-.118.042-.118l.017-.438-.017-.455-.035-.218c-.016-.076-.117-.252-.05-.202.068.05-.017-.338-.017-.338s-.051-.742-.051-.986c0-.243-.068-1.001-.084-.968l-.072-.058-.03-.019c-.051-.017-.125-.144-.185-.236l-.328-.126-.354-.244c-.16-.118-.185-.262-.185-.262l-.084-.186c-.051-.093-.21-.244-.235-.42-.025-.177-.109-.337-.194-.505-.084-.169-.159-.228-.303-.27-.142-.042-.042-.16-.042-.21 0-.223.036-.299.071-.333l.063-.047c.017-.051.109-.176-.008-.144-.117.035-.109-.109-.117-.235-.009-.126.025-.143.051-.169.025-.025.092-.051.059-.186-.034-.135.067-.118.109-.118l.112-.099.014-.01-.009-.093c-.008-.093.035-.083.144-.118l.109-.237c0-.034.017-.531 0-.589l-.101-.142-.033-.203c-.034-.076-.152-.035-.194-.017l-.127.109-.031.026.005.01.059.083c.034.118-.152.058-.152-.018s-.134-.134-.227-.134c-.092 0-.126-.009-.177-.084-.051-.076-.034-.084-.219-.135-.137-.038-.149-.215-.161-.314l.197.013.118.028.123.084c0 .073.01.061.161.188.11.093.148.093.187.083l.074-.014.235-.127s.109.025.262.119c.152.093-.034.336-.034.336s.134-.083.134-.219c0-.134.236-.151.236-.151v-.229c0-.092.143-.101.194-.151.05-.051.077.1.077.1l.051-.068c.008-.042.034-.076.118-.076l.168-.101.169-.076c.118-.025.043.06.043.06l-.111.058-.038.04.038.078c.051.076-.076.152-.084.261-.008.109.084.136.168.136s.026-.109-.051-.21c-.075-.101.144-.227.203-.227h.261l.084.084s-.009.101.101.101.118-.06.236-.06.169.119.235.101c.067-.017.152-.126.152-.126l.371.051-.109.025c-.144 0 .034.068.143.126l.168.068c.052.05-.101.143-.101.143s.118.062.241.06h.012c.127-.009.177.311.245.303.055-.007.165.109.205.153l.014.014h.202l.275.058.028.003c.076 0 .363.219.363.219l.024.017.06.042.084.245c.025.092-.025.119.092.202l.093.101c.008.084-.008.101-.109.144-.101.042-.017.125-.017.125l.194.017c.059 0 .126-.008.151.084l-.045.136.053-.06c.043-.051.118-.084.194-.059l.303.143c.144.067.152.067.152.152l-.018.186.059-.061c.169-.159.278-.041.338-.008h.219l.193.008c.076.01.211.161.253.194.042.035.109.118.27.227l.262.034c.126 0 0 .093.042.211.043.118.059.218.059.421 0 .202-.093.303-.194.387l-.194.177-.076.22-.059.152c-.025-.043-.109-.152-.109.034l-.017.816-.077.203-.008.227c0 .068-.093.21-.093.21l-.042.228s-.009.058-.118.058l-.042.127s-.253.018-.362 0c-.109-.017-.337.177-.404.235l-.312.328c-.093.1.033.219.1.345zm-9.705-9.705c0-.186-.245-.328-.312-.472l-.161-.186-.016-.126c-.051-.042-.144-.143-.144-.218l-.143-.109c-.051-.059-.025-.211-.033-.345-.008-.135.033-.227-.092-.295-.126-.067-.093.068-.169.185-.076.119.008.144.051.194.042.051.06.144.076.278l.143.32c.017.16-.017.346.076.404.093.059.144.135.093.279-.05.143-.143-.143-.143-.143l-.236-.22.016-.177-.025-.152s-.118-.051-.219-.143c-.101-.093-.127-.126-.042-.126s.092-.033.118-.117c.025-.085-.042-.085-.118-.177-.076-.092-.084-.194-.084-.194l-.021-.409-.005-.038c-.017-.109-.025-.202-.194-.27-.168-.068-.219-.134-.219-.211 0-.076.067-.152.042-.362l-.126-.388c-.042-.193.126-.371.152-.405.025-.034.119-.161.126-.228.008-.067.135-.209.278-.336l.235-.388c.16-.151.117-.169.126-.227l.044-.18.006-.022-.011-.04-.022-.087s0-.084-.151-.244c-.152-.16.151-.092.151-.092l.002-.003.003-.006.002-.004.012-.025.013-.026.035-.088.009-.152.041-.37.001-.162-.008-.03-.026.044-.04.054-.055.014-.039-.014-.026.008-.114-.013-.006-.001-.025-.048v-.095l.043-.056.028-.032.024-.042.003-.006.013-.028.01-.042-.027.018-.008-.029.034-.04.006-.003.001-.011-.032-.153-.134-.261c-.067-.134-.144-.008-.286-.093-.144-.084-.126-.008-.253-.008-.125 0-.084-.033-.152-.118-.068-.084-.21 0-.21 0l-.042.126c-.043.059-.051.025-.354.068-.303.042-.194.076-.387.101-.194.025.312-.235.312-.235l-.456.185-.186.126c-.177.093-.606.228-.606.228-.783.371-1.407.472-1.819.548-.412.076.008-.076.008-.076 1.432-.303 1.744-.708 1.744-.708l-.101.042-.143-.05-.169.034c-.109.017-.125-.034-.067-.102l.033-.076c-.025.017-.152.026-.152-.076 0-.101.261-.134.261-.134s-.168 0-.177-.034c-.009-.035.109-.161.185-.186l.278-.084c.042-.033.101-.109.194-.109l.185.008c.025-.034.161-.085.253-.085s.126-.008.193-.075c.068-.068.228-.109.228-.109l-.48.008-.278.017c-.178 0 .093-.118.093-.118l-.043-.043c.051-.025.152-.1.337-.118l.253-.058.186.043c.101.016.21-.01.277-.017.068-.009-.016-.051-.084-.051s-.051.025-.059-.084c-.009-.109-.077-.136-.102-.16-.026-.025.236-.135.337-.152l.345-.076c.101-.034.245-.008.362-.067.118-.059.194-.059.32-.068l.329-.109h.345c.126 0 .229.018.346.076h.143s.168.093.362.102l.396-.009.158.016.07.027.045-.001c.067.009.162.056.174.103.018.059.152.033.21.033l.27-.017.27-.017.202-.119.261.068c.068-.009.151-.034.236-.11.084-.076.169-.017.16.017l-.025.101c.066.026.101-.017.143-.076.042-.058.152-.025.152-.025s-.118.119-.017.119l.134-.084c.051-.017.101 0 .186.034l.202.092c.06.059.118 0 .371 0s.177.144.008.168c-.168.025-.109.068-.109.068s.413-.06.548-.06c.134 0 .101.008.144.076l.06.126c.042.025.059-.05.076-.109l.16-.135c.068-.042.16-.025.321-.025.16 0 .202.135.202.135l.245-.042.169-.017h.245s.109.026.109.127l.093.017.076-.109.177-.127s.177-.042.262-.093l.27-.109c.05-.058.033.135.042.168.008.034.068-.008.151-.084.084-.076.16-.017.236.084.076.101-.042.101-.152.109-.109.009-.043.084.008.103l.068-.033.194-.084.177-.068c.051-.034.06-.136.16-.186.101-.051.144 0 .185 0 .043 0 .177.068.194.126l-.21.093c-.16.075.034.059.051.143.017.084-.076.058-.278.109l-.193.051h-.346c-.092 0-.084.017-.117.092l-.077.06-.186-.008-.177-.009.109.076.227.051c0 .043-.042.051-.278.135l-.169.034-.186.025c-.093.009-.379.051-.21.06s-.026.143-.101.143c-.472 0-.985.674-.985.674s.194-.017.194.084c0 .1-.134.244-.134.244l.312-.025c.168 0 .253.21.387.21.135 0 .177.118.177.118l.413.026c.042 0 .025.058-.068.159l-.101.16c-.134.101-.05.068-.076.186l.042.144c.016.109.051.058.143.058l.169-.118c.092-.05.109-.059.101-.16-.009-.101.067-.329.067-.329.573-.119.674-.354.707-.446.034-.093.025-.102-.092-.228-.118-.126.126-.245.21-.245s.076-.068.076-.143c0-.076.093-.068.126-.245.034-.176.227-.083.286-.05.06.034.152-.017.287-.034.134-.017.218.025.227.102.008.076.034.127.109.127.076 0 .143.017.143.093s.127.033-.135.161c-.262.125-.034.135 0 .142.034.009.068.009.084.102.017.092.067.058.101.008.034-.051.144-.084.295-.16.152-.076.287-.253.287-.253s.117.521.067.666l-.092.126c-.027.076.084.119.193.186l.202.059c.126.033.126.05.042.068l-.152.05-.27.068c-.144.025-.034.101.042.101.076 0 .151-.06.244-.101.093-.042.168-.077.168.025l.126.092-.025.202c-.026.109-.084.109-.32.126s-.219.051-.329.126l-.177.084h-.237l-.328.017-.412.008-.084.109-.118.051-.149.063-.161.084-.227.16-.152.093.092.051.027-.013.139-.109c.091-.079.193-.166.23-.166l.337-.143c.152-.051.194.009.363.009.168 0 0 .143-.051.202l-.109.084c-.06.034-.06.136-.068.194-.008.059.118.084.194.101l.177-.008s.109-.008.118-.068c.008-.058.118-.126.152-.126s-.093.152-.009.143c.084-.009.126.042.034.117-.093.077-.177.126-.21.126s-.202.084-.278.084l-.278.067s-.093 0-.21.118c-.118.118-.177-.076-.084-.202.092-.126.346-.185.286-.177l-.21.076-.093.032-.051.069-.11.037-.092-.002-.253.118c-.118.025-.177.076-.295.286-.084.151-.052.18-.027.186h-.167l-.328.093c-.177.026-.152.008-.16.11-.009.1-.21.295-.21.295l-.084-.034s.025.084-.101.244c-.126.16-.076.06-.084-.219-.009-.278-.052.068-.052.068v.22c0 .058-.109.084-.143.092l.101.017.017.101-.144.068h.109v.109l-.109.042-.076.051-.127.143c-.083.093-.076.042-.219.101-.144.059-.169.118-.447.312-.277.194-.168.447-.168.472 0 .025.034.237.034.505 0 .27.009.169-.101.346-.109.177-.152 0-.219-.126-.067-.125-.067-.253-.076-.371l.008-.193c.026-.068-.109-.101-.177-.21-.067-.109-.067.008-.143.067-.076.06-.109-.009-.177-.136-.068-.126-.068.068-.371 0l-.22.06s.017.093-.076.161c-.093.067-.134 0-.194-.06-.058-.059-.109 0-.21 0h-.336c-.27 0-.093.025-.186.135-.092.109-.034.051-.21.109-.177.059-.177.134-.185.227l-.04.203-.012.059c-.008.067-.076.067-.093.236-.017.167-.084.456-.084.64 0 .186.109.236.161.354.051.119.025.101.143.101s.017.127.186.127c.169 0 .262-.143.346-.06.084.084.109.008.092-.024-.017-.033.017-.076.102-.135.084-.059.109-.144.109-.303 0-.16.328-.152.547-.152.219 0 .093.135.042.202-.051.066-.076.101-.076.244l-.011.123-.073.112-.102.236-.126.152-.026.033.121.007.033.009.354-.033c.236-.008.295.068.295.068l.052.108.04.161-.045.138c-.021.051 0 .174-.056.276-.056.101-.048.143-.045.208.003.064-.064.037-.123-.005l-.124-.127-.093-.068c-.042-.009-.006.102.017.135l-.036.023-.009-.015-.227-.185-.038-.145-.015-.029-.075-.021-.253-.042-.188-.054-.214-.127-.052-.039c-.042-.033-.202-.278-.286-.304-.084-.025-.177.051-.219.127-.042.076-.211-.051-.346-.084l-.202-.101-.396-.27-.235-.042c-.084-.01-.303-.253-.379-.328-.076-.076.009-.126.06-.21.048-.085.04-.101.04-.286zm-10.521 8.71v-2.074h2.094v2.12h-2.089l-.005-.046zm5.533-3.167l-.547.001v3.212h-1.8v-5.301h2.068c1.319 0 2.423.885 2.784 2.088h-2.505zm-3.438 0h-1.959c.281-.94 1.017-1.676 1.959-1.955v1.955zm0 4.306v1.646c-.837-.25-1.522-.852-1.861-1.646h1.861zm1.091 0h1.8v1.777h-1.8v-1.777zm2.893 0h1.861c-.338.794-1.025 1.396-1.861 1.646v-1.646zm0-1.093v-2.12h2.094v2.074l-.005.046h-2.089zm-4.713 11.9l-.493-.742c-.153-.231-.053-.42.225-.42h.022c.277 0 .615.195.754.436l.034.061c.139.24.362.238.498-.002l.03-.055c.137-.242.47-.438.746-.438s.374.187.219.416l-.493.73c-.155.231-.156.604-.002.835l.538.804c.154.231.054.418-.224.418h-.04c-.277 0-.614-.194-.752-.436l-.053-.094c-.138-.24-.362-.242-.501-.001l-.055.095c-.139.242-.477.436-.755.436h-.013c-.278 0-.377-.187-.222-.416l.533-.793c.156-.229.157-.604.004-.834zm3.355 0l-.493-.742c-.153-.231-.053-.42.225-.42h.023c.278 0 .616.195.754.436l.035.061c.138.24.362.238.498-.002l.03-.055c.137-.242.47-.438.746-.438s.373.187.218.416l-.493.73c-.155.231-.156.604-.002.835l.538.804c.154.231.054.418-.225.418h-.041c-.277 0-.614-.194-.752-.436l-.053-.094c-.137-.24-.362-.242-.501-.001l-.055.095c-.139.241-.477.436-.754.436h-.014c-.277 0-.377-.187-.222-.416l.534-.793c.156-.229.157-.604.004-.834zm3.354 0l-.492-.742c-.153-.231-.054-.42.225-.42h.023c.277 0 .614.195.754.436l.034.061c.139.24.361.238.498-.002l.03-.055c.136-.242.469-.438.746-.438s.373.187.218.416l-.493.73c-.155.231-.156.604-.002.835l.538.804c.154.231.055.418-.224.418h-.041c-.277 0-.615-.194-.752-.436l-.053-.094c-.137-.24-.363-.242-.501-.001l-.056.095c-.138.241-.477.436-.754.436h-.013c-.278 0-.377-.187-.222-.416l.533-.793c.156-.229.157-.604.004-.834zm7.95-30.543l-.144.048.287.072-.156.036s.251.072.275.013c.024-.061.132-.168.192-.168l.036.095.252.024-.3.156h-.335l-.275.037-.36.011c-.035-.011.072-.048.204-.06.131-.012-.216-.059-.312-.048-.095.012-.227-.035-.179-.047l.179-.061c.083-.024-.035-.059-.108-.048l-.359.084s-.203-.096-.144-.096l.288-.06.31-.061h.288c.096.012.239-.024.239-.024s-.095.096-.061.12c.039.024.183-.023.183-.023zm3.22-.228l-.263.024-.24.012-.155-.096-.012-.132s.107-.131.18-.131h.288l.143-.024.144.048.132.035-.024-.083v-.108s.06-.083.192-.083.263.037.574-.024c.312-.06.288-.072.586-.072h1.568c.167.012.288.12.288.12l-.228.037-.347.059-.371.06-.274.144-.275.012c-.107 0-.503-.024-.575 0-.072.024-.179.18-.119.18h.203l-.407.047-.048.06-.24.024c-.12 0-.083.084-.048.12.037.037-.119.037-.119.037l-.432-.012-.275.024-.432.024s-.467.107-.108.107c.36 0 .671-.035.707-.035l.335.011s-.011.12-.192.144l-.335.061-.3-.012h-.587c-.036 0-.084-.167-.012-.179.072-.013.083-.155.083-.155h-.24s.083-.156.168-.12c.084.036.252.084.335.084l.18-.049h.192l.191-.072h.168l.096.036.048-.06-.143-.063zm-1.209.862l.288-.155s.144.107.12.144l-.12.107s.083.155.131.155l.095-.371.155-.095-.107.131.131-.048.192-.011.227-.012v.083l-.096.084-.096.072.287-.024.168-.011-.144-.06s-.144-.156.012-.168c.156-.011.371.096.407.096.037 0-.011.072-.059.084l.132.084c-.047.024.167.084.167.084l.036.107s.24.096.096.096.144.083.298.096c.156.013-.059.096-.059.096s-.288-.011-.275.061l.312.083.335.181c.216.096.132.155-.072.166-.203.013-.144.072-.24.144-.095.072-.108.048-.131-.024-.024-.072-.167-.18-.227-.18l-.144.096s0 .06.144.216-.013.144-.084.264c-.072.119-.179.048-.263-.06-.083-.107-.179-.048-.024.107.155.156-.024.132-.024.167l-.276-.084c-.072-.012-.24-.024-.262-.227-.024-.204-.371-.12-.456-.12l-.179.037c-.132 0 .095-.192.095-.192l.179-.06.299.036c.084 0 .096-.072.096-.072s.083-.179.191-.191c.107-.012.18-.072.18-.157l-.192-.227c-.024-.096-.275-.18-.275-.18l-.107.083h-.396c-.203 0-.467-.048-.467-.048h-.179l-.011-.084.227-.059-.215-.013.011-.144.169-.083zm1.988 3.723l.203-.011c.175-.011-.173.164-.25.199l.177.028-.083.096s.037.048.12.012c.084-.036.215.036.215.036l-.012.133v.131l.024.061-.06.108-.131.035-.12-.071-.024-.107s-.131.072-.419.072h-.288s.108-.275.192-.3c.084-.024.155-.096.229-.203.071-.108.239-.191.239-.191l-.012-.028zm-2.275-3.735l-.156.011-.179.12-.048.132v.121h-.191l-.144.107h-.155l-.048-.121.179-.119.251-.156.12-.18.275-.168s.395.084.359.096l-.263.157zm.227-.336l-.157.012h-.191l.132-.12.191-.024c.061.001.025.132.025.132zm-.131-.442l-.12-.012-.036-.06-.167.012-.012-.061-.132-.036.228-.036h.132l.12.06-.013.133zm-.455.251l.011-.083.192.035-.048.097-.048.107c-.024.048-.108.012-.18.012h-.167l-.036-.119.155-.12.048.155.073-.084zm-.036.287c.024.061-.12.179-.12.179h-.108s.037.179-.024.191l-.24.037s0 .072-.144.072l-.072-.12-.143-.072s.061-.144.167-.096l.108.048.048-.131.107-.06h.179c.062.001.218-.107.242-.048zm-1.042.695c-.096.048-.288.048-.323.048-.036 0 .156.096-.048.096-.203 0-.168.059-.36 0l-.239-.096c-.059.037-.288.132-.527.132l-.335.012-.013-.107s-.312.048-.288-.072c.024-.12.227-.12.407-.12h.335l-.562-.084c-.048-.011.048-.048.168-.048l-.013-.132c.072-.083.108-.095.263-.095l.348-.011.264.011c.095.048.215.072.263.024l.012.048c.06-.026.078.033.083.07v-.011c0-.131.179-.24.275-.215.096.023.132.096.132.096l.011-.168h.264l-.072.048s-.264.204-.312.359c-.044.155.363.167.267.215zm-1.268-.766l.107.155-.12.073c-.037 0-.586.072-.802.203-.215.132-.239.144-.299.144l-.216-.107s-.371-.06-.203-.072c.167-.012.25-.083.347-.131l.227-.083.107-.096c.024-.048-.036-.084.107-.06.144.024.384.024.467.024l.278-.05zm.035 9.876c.037-.037-.035-.156-.035-.156s-.133.071-.18.011c-.048-.059-.179-.084-.274-.084l-.131-.107c-.072-.012-.347.119-.383.119l.048-.107c.059-.061.215-.157.371-.168.155-.013.144 0 .228.072.083.072.108 0 .442.192.335.191.575.395.575.395-.192.084-.611 0-.575-.011l.036-.108s-.157-.011-.122-.048zm-3.65 20.356l-.493-.742c-.153-.231-.053-.42.225-.42h.023c.277 0 .614.195.754.436l.035.061c.138.24.361.238.498-.002l.03-.055c.137-.242.47-.438.746-.438.275 0 .373.187.218.416l-.493.73c-.155.231-.156.604-.002.835l.538.804c.154.231.054.418-.224.418h-.04c-.278 0-.615-.194-.752-.436l-.053-.094c-.138-.24-.362-.242-.501-.001l-.055.095c-.139.241-.477.436-.754.436h-.014c-.277 0-.377-.187-.222-.416l.534-.793c.154-.229.156-.604.002-.834zm10.061 0l-.493-.742c-.153-.231-.054-.42.225-.42h.023c.277 0 .615.195.754.436l.035.061c.138.24.361.238.498-.002l.03-.055c.136-.242.47-.438.746-.438s.373.187.218.416l-.492.73c-.156.231-.157.604-.002.835l.537.804c.154.231.055.418-.224.418h-.041c-.277 0-.615-.194-.752-.436l-.053-.094c-.138-.24-.363-.242-.501-.001l-.056.095c-.138.241-.477.436-.754.436h-.014c-.278 0-.377-.187-.222-.416l.533-.793c.158-.229.159-.604.005-.834zm32.573-7.277l-.145-.061c-.024 0-.151.043-.161-.025-.008-.066.077-.108.204-.201.126-.093.496-.244.63-.312.136-.066.312-.102.447-.261.135-.16.211-.127.211-.127s.102-.151.178-.168l.084.034.017.083.145-.067-.103.159-.235.186s-.118.034-.193.108l-.11.136s-.177 0-.227.033l-.219.187c-.109.076-.15.21-.312.243l-.211.053z"/></svg>