<svg xmlns="http://www.w3.org/2000/svg" viewBox="0 0 58.99 58.989"><path d="M25.127 35.653c.206 0 .341-.108.406-.324.063-.215.096-.526.096-.934 0-.427-.033-.742-.096-.948-.064-.204-.2-.307-.406-.307-.207 0-.344.104-.411.307-.066.206-.1.521-.1.948 0 .407.034.718.1.934.068.216.205.324.411.324zm-5.562-2.512c-.206 0-.343.104-.411.307-.066.206-.1.521-.1.948 0 .407.033.718.1.934.067.216.205.324.411.324.207 0 .342-.108.406-.324.064-.215.096-.526.096-.934 0-.427-.032-.742-.096-.948-.064-.204-.198-.307-.406-.307zm8.306 7.258c-.144 0-.256.041-.335.122-.079.084-.129.193-.15.333h.967c-.01-.149-.061-.263-.15-.339-.089-.077-.199-.116-.332-.116zm.038-7.258c-.207 0-.344.104-.411.307-.067.206-.1.521-.1.948 0 .407.033.718.1.934.066.216.204.324.411.324.206 0 .342-.108.406-.324.063-.215.096-.526.096-.934 0-.427-.033-.742-.096-.948-.065-.204-.201-.307-.406-.307zm-5.562 0c-.207 0-.344.104-.411.307-.066.206-.1.521-.1.948 0 .407.034.718.1.934.067.216.204.324.411.324.206 0 .341-.108.406-.324.063-.215.096-.526.096-.934 0-.427-.033-.742-.096-.948-.065-.204-.2-.307-.406-.307zm-.272 8.049l-.128.023c-.12.021-.206.046-.258.077-.088.051-.132.13-.132.237 0 .097.027.167.082.21.054.043.12.064.198.064.123 0 .235-.036.34-.107.103-.07.157-.199.161-.389v-.208l-.109.054-.154.039zm-10.849-5.537c.207 0 .342-.108.406-.324.063-.215.096-.526.096-.934 0-.427-.032-.742-.096-.948-.064-.204-.2-.307-.406-.307-.206 0-.344.104-.411.307-.066.206-.1.521-.1.948 0 .407.033.718.1.934.067.216.204.324.411.324zm-2.693 5.537l-.128.023c-.12.021-.206.046-.258.077-.089.051-.132.13-.132.237 0 .097.027.167.082.21.054.043.119.064.198.064.123 0 .235-.036.34-.107.103-.07.157-.199.161-.389v-.208l-.109.054-.154.039zm5.796-.791c-.144 0-.256.041-.335.122-.08.084-.129.193-.15.333h.968c-.01-.149-.061-.263-.15-.339-.089-.077-.2-.116-.333-.116zm-8.664-4.746c.206 0 .342-.108.407-.324.063-.215.095-.526.095-.934 0-.427-.032-.742-.095-.948-.065-.204-.201-.307-.407-.307-.207 0-.344.104-.41.307-.067.206-.1.521-.1.948 0 .407.033.718.1.934.066.217.203.324.41.324zm2.781-2.512c-.207 0-.344.104-.41.307-.067.206-.101.521-.101.948 0 .407.034.718.101.934.066.217.204.324.41.324s.342-.108.406-.324c.064-.215.096-.526.096-.934 0-.427-.032-.742-.096-.948-.065-.204-.2-.307-.406-.307zm5.56 2.512c.207 0 .342-.108.406-.324.063-.215.096-.526.096-.934 0-.427-.032-.742-.096-.948-.064-.204-.2-.307-.406-.307-.206 0-.344.104-.411.307-.066.206-.1.521-.1.948 0 .407.033.718.1.934.069.216.205.324.411.324zm40.461-26.231h-50.569c-2.149 0-3.898 1.771-3.898 3.948v29.41c0 2.177 1.749 3.948 3.898 3.948h33.047l-1.042-1.041-1.041-1.042-3.378-3.377c-.813-.814-.813-2.133 0-2.946l4.765-4.765c.407-.407.94-.61 1.474-.61s1.065.203 1.473.61l3.534 3.534 10.02-10.021c.391-.391.922-.61 1.474-.61s1.082.22 1.473.61l.582.583 1.041 1.042 1.042 1.042v-16.367c.002-2.177-1.745-3.948-3.895-3.948zm-26.87 32.257c.085.054.19.08.311.08.128 0 .231-.033.311-.1l.115-.146h.575c-.015.126-.084.256-.209.389-.192.207-.462.312-.808.312-.286 0-.539-.089-.757-.264-.219-.178-.328-.464-.328-.861 0-.372.099-.656.296-.856.198-.199.453-.298.768-.298.188 0 .355.033.505.101s.274.173.372.317c.089.129.145.277.171.445.016.1.022.24.019.426h-1.565c.008.217.084.368.224.455zm1.259-5.932c-.182.314-.498.472-.947.472-.451 0-.767-.157-.949-.472-.181-.315-.273-.767-.273-1.352 0-.584.091-1.035.273-1.351.181-.318.497-.477.949-.477.45 0 .765.158.947.477.182.315.273.767.273 1.351-.001.585-.091 1.037-.273 1.352zm-3.016 4.825c-.05-.1-.141-.15-.275-.15-.155 0-.263.065-.322.193-.03.069-.046.149-.046.246v1.28h-.565v-1.28c0-.126-.014-.22-.04-.277-.048-.105-.141-.156-.278-.156-.16 0-.268.051-.323.156-.03.06-.045.147-.045.265v1.294h-.57v-2.146h.546v.312c.07-.111.135-.19.197-.238.109-.085.25-.125.424-.125.164 0 .296.035.399.107.081.067.143.152.186.259.074-.127.164-.22.273-.279.116-.059.245-.087.387-.087.095 0 .188.016.28.055.091.036.175.101.25.193.061.075.102.168.122.276l.02.317-.004 1.354h-.577v-1.368l-.039-.201zm-3.596-.13c-.063-.032-.153-.049-.273-.049-.134 0-.23.032-.285.099-.04.049-.067.115-.081.196h-.542c.012-.188.064-.342.159-.464.148-.188.405-.283.769-.283.236 0 .446.047.63.141.184.094.275.269.275.527v.986l.004.249.033.15.083.064v.084h-.611l-.036-.122-.016-.131c-.078.085-.167.157-.27.215-.122.07-.259.104-.413.104-.196 0-.357-.056-.485-.166-.127-.112-.192-.27-.192-.473 0-.265.102-.455.307-.573.112-.065.278-.111.497-.139l.193-.024.224-.049c.081-.033.121-.088.121-.158.001-.088-.028-.149-.091-.184zm.103-4.221c-.451 0-.767-.157-.949-.474-.182-.315-.273-.766-.273-1.35 0-.585.09-1.035.273-1.353.181-.317.497-.477.949-.477.45 0 .766.159.948.477.181.317.273.768.273 1.353 0 .584-.09 1.034-.273 1.35-.182.315-.498.474-.948.474zm1.559-1.825c0-.584.091-1.035.273-1.351.181-.318.497-.477.949-.477.45 0 .766.158.947.477.182.315.273.767.273 1.351 0 .585-.091 1.036-.273 1.352-.182.314-.498.472-.947.472-.451 0-.767-.157-.949-.472-.182-.316-.273-.768-.273-1.352zm-3.392 1.351c-.181.314-.498.472-.948.472-.451 0-.767-.157-.949-.472-.181-.315-.273-.767-.273-1.352 0-.584.09-1.035.273-1.351.181-.318.497-.477.949-.477.45 0 .766.158.948.477.181.315.273.767.273 1.351 0 .585-.091 1.037-.273 1.352zm.102 3.488v2.907h-.607l-1.184-2.062v2.062h-.565v-2.907h.636l1.155 2.027v-2.027h.565zm-6.561 2.444c.085.054.189.08.311.08.128 0 .232-.033.312-.1l.115-.146h.574c-.015.126-.084.256-.208.389-.193.207-.462.312-.808.312-.287 0-.539-.089-.757-.264-.219-.178-.328-.464-.328-.861 0-.372.099-.656.296-.856.198-.199.453-.298.769-.298.188 0 .355.033.505.101.15.067.274.173.372.317.089.129.145.277.171.445.016.1.022.24.019.426h-1.568c.009.217.085.368.225.455zm-1.756-1.107c-.05-.1-.142-.15-.276-.15-.155 0-.262.065-.322.193-.03.069-.046.149-.046.246v1.28h-.565v-1.28c0-.126-.014-.22-.04-.277-.048-.105-.141-.156-.278-.156-.16 0-.268.051-.323.156-.03.06-.044.147-.044.265v1.294h-.57v-2.146h.546v.312c.069-.111.135-.19.197-.238.109-.085.25-.125.424-.125.164 0 .296.035.398.107.082.067.143.152.186.259.074-.127.165-.22.274-.279.116-.059.245-.087.386-.087.095 0 .188.016.28.055.092.036.175.101.25.193.061.075.101.168.122.276l.02.317-.004 1.354h-.576v-1.368l-.039-.201zm-3.597-.13c-.062-.032-.153-.049-.273-.049-.134 0-.23.032-.286.099-.04.049-.066.115-.08.196h-.542c.012-.188.065-.342.159-.464.149-.188.405-.283.769-.283.237 0 .446.047.63.141.184.094.275.269.275.527v.986l.004.249.033.15.082.064v.084h-.612l-.036-.122-.015-.131c-.078.085-.168.157-.27.215-.122.07-.259.104-.413.104-.196 0-.357-.056-.485-.166-.127-.112-.191-.27-.191-.473 0-.265.102-.455.307-.573.112-.065.278-.111.497-.139l.192-.024.224-.049c.08-.033.121-.088.121-.158.003-.088-.027-.149-.09-.184zm.691-4.695c-.182.314-.497.472-.948.472s-.767-.157-.949-.472c-.181-.315-.272-.767-.272-1.352 0-.584.09-1.035.272-1.351.183-.318.498-.477.949-.477.45 0 .766.158.948.477.181.315.272.767.272 1.351.001.585-.09 1.037-.272 1.352zm-3.24-11.418v-2.074h2.094v2.121h-2.088l-.006-.047zm8.173 0l-.005.048h-2.089v-2.121h2.094v2.073zm-2.094 1.139h1.862c-.338.795-1.025 1.397-1.862 1.646v-1.646zm-.545-4.305l-.547.001v3.212h-1.8v-5.302h2.069c1.319 0 2.423.886 2.784 2.089h-2.506zm-3.439 0h-1.959c.281-.941 1.018-1.676 1.959-1.957v1.957zm0 4.305v1.646c-.838-.249-1.523-.851-1.862-1.646h1.862zm1.091 0h1.8v1.779h-1.8v-1.779zm1.887 7.1c.45 0 .766.158.948.477.181.315.272.767.272 1.351 0 .585-.09 1.036-.272 1.352-.182.314-.497.472-.948.472s-.767-.157-.949-.472c-.181-.315-.272-.767-.272-1.352 0-.584.09-1.035.272-1.351.182-.318.498-.477.949-.477zm-5.561 0c.45 0 .766.158.948.477.182.315.273.767.273 1.351 0 .585-.09 1.036-.273 1.352-.181.314-.497.472-.948.472s-.767-.157-.949-.472c-.181-.315-.273-.767-.273-1.352 0-.584.091-1.035.273-1.351.182-.318.497-.477.949-.477zm-.947 6.667h.636l1.154 2.027v-2.027h.566v2.907h-.607l-1.184-2.062v2.062h-.565v-2.907zm8.068-4.839c0-.584.09-1.035.272-1.351.183-.318.498-.477.949-.477.45 0 .766.158.948.477.181.315.273.767.273 1.351 0 .585-.091 1.036-.273 1.352-.181.314-.497.472-.948.472s-.767-.157-.949-.472c-.182-.316-.272-.768-.272-1.352zm35.202-9.378c-.821 0-1.594-.202-2.291-.537-.849.54-1.848.863-2.925.863-3.023 0-5.483-2.459-5.483-5.483s2.46-5.483 5.483-5.483c.938 0 1.807.258 2.579.674.781-.448 1.675-.725 2.637-.725 2.948 0 5.347 2.398 5.347 5.346-.001 2.947-2.399 5.345-5.347 5.345zm8.293 13.945l-5.685 5.683-1.042 1.042-1.041 1.041h5.953c2.148 0 3.897-1.77 3.897-3.946v-5.903l-1.041 1.042-1.041 1.041zm-12.581-19.432h-1.042c.006-.238.034-.469.071-.697h3.972c-.056-.288-.139-.563-.244-.83h-3.521c.083-.248.179-.485.294-.716h2.864c-.183-.299-.388-.579-.63-.83h-1.72c.197-.26.415-.501.655-.721-.505-.2-1.052-.319-1.627-.319-2.45 0-4.442 1.993-4.442 4.442s1.992 4.442 4.442 4.442c.689 0 1.335-.172 1.92-.454-.188-.15-.376-.299-.544-.473h.833c.129-.102.228-.235.345-.347.163-.157.34-.301.479-.482h-2.31c-.131-.205-.246-.419-.348-.641h3.069c.143-.263.256-.54.346-.829h-3.709c-.063-.233-.11-.472-.142-.716h4.009c.031-.215.066-.427.066-.65l-.018-.179h-3.068zm15.29 13.777l-.626-.626-1.041-1.042-1.042-1.041-2.056-2.057-11.494 11.495-5.008-5.007-4.765 4.765 4.85 4.851 1.042 1.042 1.042 1.041 2.839 2.838.025-.026 2.812-2.812 1.042-1.041 1.041-1.042 8.63-8.63 1.042-1.042 1.041-1.042z"/></svg>