<svg xmlns="http://www.w3.org/2000/svg" viewBox="0 0 61.871 61.871"><path d="M49.914 30.337l-3.328-12.417-44.212 11.853 3.903 14.56c.339 1.262 1.617 2.013 2.856 1.683l.562-.151v-15.528h40.219zm-5.619-20.962c-.339-1.261-1.616-2.014-2.856-1.682l-39.725 10.65c-1.239.333-1.97 1.624-1.631 2.884l.674 2.516 44.213-11.852-.675-2.516zm-32.517 23.045v21.836h50.093v-21.836h-50.093zm25.046 19.855c-4.104 0-7.441-4.01-7.441-8.937 0-1.001.144-1.96.398-2.859.996-3.527 3.773-6.077 7.043-6.077 2.105 0 4.004 1.06 5.359 2.752 1.287 1.607 2.082 3.785 2.082 6.185 0 4.927-3.338 8.936-7.441 8.936zm.313-8.361v2.308c.308-.039.531-.109.671-.212.245-.182.368-.494.368-.938 0-.339-.116-.606-.345-.804-.135-.113-.366-.232-.694-.354zm-1.582-2.87c0 .331.123.594.372.785.137.107.35.206.638.296v-2.073c-.343.008-.597.099-.763.275-.165.176-.247.415-.247.717zm1.269-4.56c-1.953 0-3.655 1.341-4.593 3.338-.482 1.029-.766 2.229-.766 3.517 0 3.785 2.399 6.854 5.358 6.854 2.96 0 5.358-3.069 5.358-6.854 0-2.304-.892-4.337-2.255-5.579-.874-.8-1.945-1.276-3.102-1.276zm1.895 10.573c-.444.275-.972.436-1.582.483v1.187h-.572v-1.175c-.775-.087-1.354-.257-1.735-.508-.674-.453-1.005-1.224-.992-2.314h1.594c.056.495.133.828.23.998.152.264.453.436.903.514v-2.521l-.479-.143c-.753-.221-1.282-.527-1.592-.921s-.464-.867-.464-1.423c0-.365.061-.699.181-.998.119-.298.288-.557.505-.773.246-.246.521-.413.815-.524l.117-.054c.111-.036.257-.065.424-.092l.491-.056v-.785h.572v.796c.639.051 1.141.209 1.505.473.662.421 1.005 1.104 1.027 2.048h-1.553c-.031-.35-.09-.605-.176-.767-.147-.279-.416-.434-.805-.461v2.25c.933.323 1.56.608 1.881.855.528.414.794.996.794 1.749.004.992-.361 1.711-1.089 2.162z"/></svg>