<svg xmlns="http://www.w3.org/2000/svg" viewBox="0 0 63.745 63.745"><path d="M57.063 21.217v5.511l.266.65-.266.108v9.717l3.665-1.495.804 1.967c.354.87-.045 1.859-.89 2.205l-44.237 18.057c-.837.342-1.831-.104-2.178-.952l-.803-1.968 33.854-13.819h-23.803l-13.45 5.49-2.241-5.491h-2.25l6.766 16.574c.587 1.438 1.959 2.367 3.497 2.367.48 0 .951-.092 1.397-.274l44.236-18.057c1.908-.78 2.819-2.986 2.03-4.92l-6.397-15.67zm-12.197 5.222v-1.339l-.777 1.339zm-26.855-1.339l-.775 1.339h.775zm5.087 1.917c.078-.102.116-.234.116-.398 0-.181-.044-.32-.133-.417-.089-.097-.197-.145-.326-.145-.104 0-.197.032-.276.095-.12.093-.18.243-.18.45 0 .167.045.304.135.409.09.106.205.159.343.159.136 0 .243-.052.321-.153zm-14.148 7.519c.116 0 .225-.033.324-.102.099-.066.15-.189.153-.37v-.199l-.104.052-.144.036-.122.023-.248.073c-.084.049-.127.125-.127.228 0 .092.026.156.077.197.053.042.117.062.191.062zm21.12-7.37c.139 0 .25-.042.329-.126.079-.084.119-.204.119-.356 0-.158-.041-.279-.121-.361-.082-.083-.19-.123-.327-.123s-.246.041-.327.123c-.081.082-.121.202-.121.361 0 .153.04.272.119.356s.19.126.329.126zm-15.362 6.033c-.138 0-.244.038-.32.116-.076.078-.123.185-.142.318h.922c-.009-.144-.057-.251-.142-.325-.086-.073-.192-.109-.318-.109zm17.799-8.237c-.104 0-.193.029-.268.087-.117.091-.176.247-.176.466 0 .184.038.322.113.415.075.092.19.138.345.138.086 0 .164-.024.238-.073.139-.088.208-.243.208-.46 0-.176-.04-.315-.122-.418-.083-.104-.195-.155-.338-.155zm-2.438.769c.125 0 .221-.036.289-.108.067-.072.102-.163.102-.277 0-.123-.035-.219-.102-.289-.068-.07-.165-.104-.289-.104-.123 0-.22.034-.289.104-.07.07-.104.166-.104.289 0 .112.034.205.104.277.069.073.166.108.289.108zm-8.812 8.246l-.246.073c-.084.049-.127.125-.127.228 0 .092.026.156.077.197.051.041.115.062.188.062.117 0 .225-.033.324-.102.099-.067.15-.189.153-.37v-.199l-.104.052-.144.036-.121.023zm8.99 0c-.115.018-.197.044-.247.073-.084.049-.127.125-.127.228 0 .092.026.156.077.197.051.041.115.062.189.062.116 0 .225-.033.324-.102.099-.067.15-.189.153-.37v-.199l-.104.052-.144.036-.121.023zm5.331-.662c-.077.078-.123.185-.143.318h.923c-.01-.144-.059-.251-.144-.325-.086-.073-.191-.109-.317-.109-.138 0-.244.038-.319.116zm14.053-6.145c.136 0 .242-.052.32-.153.079-.102.117-.234.117-.398 0-.181-.045-.32-.134-.417-.088-.097-.196-.145-.326-.145-.104 0-.197.032-.275.095-.12.093-.18.243-.18.45 0 .167.044.304.135.409.09.106.206.159.343.159zm-44.322-.289c.058.189.179.285.36.285s.3-.095.357-.285c.049-.162.072-.4.08-.686l.006-.133c0-.374-.028-.652-.084-.832-.056-.18-.175-.27-.357-.27s-.301.089-.36.27c-.06.18-.088.458-.088.832 0 .184.008.345.024.484.011.131.032.244.062.335zm-3.133 12.035c.484.229 1.02.368 1.589.368h48.228c1.016 0 1.935-.413 2.614-1.078.706-.694 1.151-1.661 1.151-2.735v-28.05c0-1.074-.445-2.042-1.151-2.735-.68-.665-1.599-1.079-2.614-1.079h-48.227c-2.077 0-3.766 1.712-3.766 3.814v28.05c0 1.524.895 2.835 2.176 3.445zm2.42-12.854c0-.513.08-.91.239-1.188.159-.279.436-.418.833-.418.396 0 .674.14.833.418.145.254.216.617.228 1.065l.011.122c0 .513-.08.908-.239 1.185s-.437.416-.833.416c-.396 0-.674-.138-.833-.416-.074-.128-.126-.288-.166-.466-.046-.207-.073-.443-.073-.718zm29.142-12.452c0-2.834 2.308-5.141 5.142-5.141 1.117 0 2.146.369 2.99.977.877-.701 1.974-1.138 3.181-1.138 1.035 0 1.996.313 2.803.845.667.438 1.209 1.033 1.61 1.724.438.755.708 1.62.708 2.554 0 2.824-2.298 5.122-5.121 5.122-1.107 0-2.125-.361-2.963-.96-.883.712-1.988 1.158-3.208 1.158-1.66 0-3.121-.803-4.061-2.026-.426-.551-.739-1.183-.912-1.878-.101-.398-.169-.808-.169-1.237zm-.968 19.766c-.046-.1-.134-.148-.266-.148-.154 0-.256.049-.309.148-.029.056-.042.141-.042.252v1.233h-.544v-2.046h.521v.299c.066-.106.129-.182.188-.227.104-.08.238-.121.404-.121.155 0 .283.033.38.103.076.063.137.146.176.247.071-.121.157-.208.262-.266.111-.057.233-.084.369-.084.09 0 .18.018.267.052.088.036.167.097.238.185.057.072.098.159.116.264l.019.303-.004 1.292h-.548v-1.306l-.039-.191c-.047-.094-.134-.143-.262-.143-.149 0-.251.062-.308.185-.028.064-.043.144-.043.234v1.221h-.54v-1.221c.002-.121-.01-.21-.035-.265zm.041-6.914c-.114.068-.255.103-.422.103-.247 0-.466-.085-.658-.256-.192-.171-.288-.417-.288-.738 0-.333.096-.604.289-.81.192-.207.441-.31.749-.31.474 0 .798.209.974.628.101.237.149.55.149.937 0 .376-.047.689-.144.94-.184.479-.519.718-1.007.718-.234 0-.443-.069-.628-.207-.186-.139-.293-.34-.32-.603h.608c.015.091.054.165.116.223.062.058.146.085.252.085.2 0 .342-.111.423-.335.045-.123.072-.301.083-.538-.053.073-.112.126-.176.163zm-3.653-.856c-.044-.117-.067-.226-.067-.327 0-.227.085-.419.255-.579.17-.159.411-.238.722-.238.31 0 .551.079.722.238s.255.352.255.579c0 .101-.023.21-.068.327-.044.116-.143.217-.293.303.153.085.269.199.347.34.077.142.117.299.117.474 0 .262-.097.485-.291.668-.193.183-.464.275-.812.275-.348 0-.611-.092-.79-.275s-.269-.406-.269-.668c0-.174.04-.332.119-.474.079-.141.193-.248.345-.319-.149-.099-.247-.207-.292-.324zm1.372 7.635c-.06-.032-.146-.049-.261-.049-.128 0-.22.033-.272.095l-.076.188h-.518c.012-.179.062-.326.151-.441.142-.18.386-.271.732-.271.225 0 .425.045.601.133.175.09.262.258.262.505v.94l.004.237.032.143.08.063v.078h-.583l-.033-.117-.015-.124c-.075.081-.16.149-.257.205-.115.067-.247.101-.394.101-.187 0-.341-.054-.462-.158-.122-.106-.183-.256-.183-.45 0-.252.098-.434.294-.547.107-.062.266-.104.474-.131l.183-.022.215-.047c.077-.032.115-.083.115-.152-.001-.089-.031-.148-.089-.179zm-2.144.125c-.052-.105-.152-.158-.297-.158-.181 0-.304.077-.372.231-.035.081-.052.185-.052.312v1.109h-.537v-2.046h.519v.299c.068-.104.133-.182.194-.227.109-.083.25-.124.418-.124.211 0 .383.055.517.167.135.11.202.295.202.551v1.381h-.549v-1.246c0-.108-.013-.191-.043-.249zm-2.977 1.086l.196.03h.053l.054-.004v.401l-.254.009c-.253.008-.426-.036-.519-.131-.06-.062-.091-.157-.091-.285v-1.262h-.286v-.38h.286v-.573h.531v.573h.333v.38h-.333v1.084l.03.158zm.105-8.259c-.087.192-.166.429-.237.707-.07.278-.105.508-.105.687h-.634c.019-.558.202-1.136.549-1.739.225-.373.413-.633.564-.78h-1.549l.008-.549h2.195v.479c-.092.089-.219.25-.382.481-.163.229-.3.467-.409.714zm-8.733.724v-.533l1.143-1.886h.687v1.942h.351v.478h-.352v.669h-.598v-.669l-1.231-.001zm1.398 5.172h.579v2.273h1.385v.499h-1.964v-2.772zm1.361-4.66c-.189-.159-.296-.384-.317-.675h.608c.024.133.071.235.139.307s.167.108.298.108c.151 0 .267-.054.346-.16.08-.105.119-.24.119-.401 0-.158-.038-.293-.111-.402-.074-.109-.19-.164-.347-.164l-.193.028c-.096.034-.168.098-.217.19l-.548-.026.218-1.717h1.71v.519h-1.27l-.111.679.221-.122c.088-.033.196-.049.323-.049.257 0 .481.086.672.259.191.173.286.423.286.754 0 .287-.093.543-.276.77-.184.226-.459.338-.827.338-.291.002-.534-.077-.723-.236zm2.001 5.812c-.06-.032-.146-.049-.26-.049-.128 0-.22.033-.273.095-.039.046-.064.109-.076.188h-.517c.012-.179.062-.326.151-.441.142-.18.387-.271.732-.271.225 0 .425.045.601.133.175.09.263.258.263.505v.94l.004.237.032.143.08.063v.078h-.583l-.034-.117-.014-.124c-.074.081-.161.149-.257.205-.116.067-.247.101-.394.101-.187 0-.341-.054-.463-.158-.122-.106-.182-.256-.182-.45 0-.252.098-.434.294-.547.107-.062.266-.104.474-.131l.184-.022.214-.047c.075-.037.114-.088.114-.155-.002-.086-.031-.145-.09-.176zm.361-6.065c-.145-.256-.217-.585-.217-.991 0-.237.01-.43.03-.579.036-.265.105-.485.208-.661.088-.15.205-.271.348-.362.143-.092.315-.138.515-.138.289 0 .519.074.691.222s.268.345.29.591h-.607l-.059-.165c-.065-.097-.165-.146-.298-.146-.199 0-.341.111-.424.334-.046.123-.077.304-.095.545.076-.09.164-.156.264-.197.1-.042.214-.062.343-.062.276 0 .502.094.678.281.176.188.265.427.265.718s-.086.546-.259.768c-.173.222-.442.333-.807.333-.391 0-.68-.163-.866-.491zm1.858 7.015c-.05-.031-.237-.085-.562-.161-.232-.059-.396-.131-.491-.217-.095-.086-.143-.209-.143-.368 0-.19.074-.353.223-.489.149-.136.359-.205.628-.205.256 0 .465.051.626.154.162.103.254.277.278.528h-.536l-.058-.163c-.06-.072-.16-.108-.301-.108-.117 0-.2.019-.25.054l-.075.129c0 .062.027.106.079.133.053.029.239.078.559.148.214.051.374.126.48.229.105.103.159.23.159.385 0 .203-.077.368-.228.497-.151.128-.386.192-.702.192-.323 0-.562-.067-.715-.204-.154-.136-.231-.309-.231-.52h.544c.012.095.036.162.074.202.066.073.19.108.371.108.106 0 .19-.016.252-.047.062-.03.094-.078.094-.141 0-.057-.024-.104-.075-.136zm-9.314.229c.083.051.18.077.296.077.122 0 .221-.031.298-.094l.11-.143h.547c-.015.122-.081.245-.2.371-.183.199-.44.299-.771.299-.273 0-.514-.084-.722-.252-.208-.168-.313-.441-.313-.82 0-.355.094-.627.283-.817.188-.188.432-.283.733-.283.178 0 .339.032.482.096.143.062.261.164.354.303.084.122.138.264.164.423.015.096.021.231.018.408h-1.493c.007.203.08.348.214.432zm-.495-9.109c0 .184-.054.338-.163.464-.068.079-.14.132-.214.161.056 0 .135.047.239.144.156.145.233.341.233.592 0 .262-.091.494-.273.694-.182.199-.452.298-.808.298-.439 0-.745-.144-.917-.431-.09-.153-.14-.354-.15-.6h.6c0 .124.02.227.059.308.074.15.209.225.405.225.119 0 .224-.041.313-.123.089-.083.133-.2.133-.355 0-.205-.083-.341-.248-.409-.094-.039-.243-.059-.445-.059v-.438c.198-.003.337-.022.415-.059.092-.041.141-.121.171-.219l.033-.146c0-.118-.035-.214-.103-.289-.07-.074-.167-.112-.292-.112-.144 0-.25.046-.318.138-.068.091-.101.213-.097.367h-.57c.005-.154.033-.301.08-.439.05-.122.128-.233.235-.337.08-.073.175-.128.284-.167.11-.039.245-.058.405-.058.297 0 .537.077.719.23.166.14.245.328.261.554l.013.066zm-1.181 8.053c-.048-.094-.135-.143-.264-.143-.148 0-.25.062-.306.185-.029.064-.044.144-.044.234v1.221h-.539v-1.221c0-.122-.013-.211-.038-.265-.045-.1-.133-.148-.265-.148-.153 0-.255.049-.309.148-.029.056-.042.141-.042.252v1.233h-.544v-2.046h.521v.299c.066-.106.129-.182.188-.227.104-.08.239-.121.404-.121.156 0 .284.033.38.103.078.063.137.146.176.247.071-.121.158-.208.261-.266.11-.057.233-.084.369-.084.091 0 .18.018.267.052.088.036.167.097.239.185.057.072.097.159.116.264l.019.303-.004 1.292h-.549v-1.306l-.036-.191zm24.953-8.254c-.072-.087-.178-.131-.312-.131-.186 0-.312.07-.379.208-.038.081-.062.208-.069.381h-.594c.01-.264.059-.478.145-.641.163-.311.452-.465.868-.465.329 0 .591.09.786.273.194.182.291.423.291.724 0 .23-.069.435-.206.614-.092.119-.239.251-.445.397l-.244.174-.315.235-.143.17h1.357v.539h-2.128c.004-.223.053-.427.142-.611.088-.208.293-.427.619-.659.28-.201.464-.346.547-.434.126-.135.19-.284.19-.445 0-.133-.038-.242-.11-.329zm-1.345 7.744c.143.062.263.164.354.303.085.122.139.264.165.423.014.096.021.231.016.408h-1.493c.008.204.08.35.215.433.082.051.18.077.296.077.122 0 .221-.031.298-.094l.111-.143h.546c-.015.122-.08.245-.198.371-.184.199-.441.299-.771.299-.272 0-.514-.084-.722-.252s-.312-.441-.312-.82c0-.355.094-.627.282-.817.188-.188.433-.283.734-.283.177-.001.338.031.479.095zm-.961-5.268h-.627v-2.144h-.73v-.416c.193-.008.328-.022.404-.039.123-.027.223-.081.299-.162.054-.056.093-.13.12-.223l.023-.124h.511v3.108zm7.041-1.308c-.094-.039-.243-.059-.445-.059v-.438c.197-.003.337-.022.415-.059.136-.061.204-.181.204-.365 0-.118-.035-.214-.104-.289-.069-.074-.167-.112-.291-.112-.145 0-.25.046-.318.138-.067.091-.101.213-.097.367h-.569c.004-.154.032-.301.079-.439.049-.122.129-.233.235-.337.08-.073.175-.128.284-.167.11-.039.245-.058.404-.058.297 0 .537.077.721.23.181.153.272.359.272.619 0 .183-.056.338-.163.463-.069.08-.141.133-.215.161.057 0 .136.048.241.144.156.145.233.342.233.592 0 .262-.091.493-.273.693-.182.199-.452.299-.809.299-.439 0-.746-.144-.916-.432-.091-.152-.14-.353-.149-.6h.599c0 .125.02.227.061.309.073.15.209.225.403.225.119 0 .224-.041.313-.123.089-.083.134-.2.134-.355-.001-.202-.085-.338-.249-.407zm3.358.161v.478h-.353v.669h-.598v-.669h-1.229v-.534l1.142-1.886h.688v1.942h.35zm1.661-.233c-.073-.109-.189-.164-.347-.164l-.192.028c-.096.034-.169.098-.218.19l-.547-.026.218-1.717h1.711v.519h-1.271l-.111.679.22-.122c.09-.033.196-.049.323-.049.258 0 .481.086.672.259.191.173.286.423.286.754 0 .287-.092.543-.275.77s-.459.338-.827.338c-.296 0-.539-.079-.728-.237-.189-.159-.297-.383-.318-.675h.608c.024.133.071.235.14.307s.169.108.299.108c.152 0 .267-.054.347-.16.078-.106.118-.241.118-.402.004-.156-.035-.291-.108-.4zm3.146-.946h-.608l-.059-.165c-.065-.097-.165-.146-.298-.146-.199 0-.342.111-.425.334-.045.123-.077.304-.094.545.075-.09.163-.156.263-.197.1-.042.216-.063.344-.063.274 0 .501.094.678.282.176.188.265.427.265.717 0 .291-.087.546-.26.768-.173.222-.441.333-.807.333-.391 0-.68-.164-.865-.491-.146-.256-.217-.585-.217-.991 0-.237.011-.43.03-.579.035-.265.105-.484.208-.661.089-.15.205-.271.349-.362.143-.092.315-.138.516-.138.288 0 .519.074.69.222.171.149.267.346.29.592zm-40.096-.798c.33 0 .591.09.786.273.195.182.292.423.292.724 0 .23-.068.435-.206.614-.089.117-.235.247-.437.39l-.008.006-.245.174-.315.235-.143.17h1.357v.539h-2.129c.005-.208.051-.397.129-.572l.014-.04c.087-.208.292-.427.618-.659.281-.201.464-.346.546-.434.127-.135.191-.284.191-.445 0-.131-.037-.241-.109-.328s-.177-.131-.312-.131c-.186 0-.312.07-.379.208-.039.081-.062.208-.068.381h-.595c.01-.264.058-.478.144-.641.071-.135.177-.228.296-.304l.188-.077c.117-.039.233-.083.385-.083zm-4.448 10.399h-.539v-2.772h.607l1.1 1.933v-1.933h.54v2.772h-.579l-1.127-1.967v1.967h-.002zm1.858-7.275v-2.144h-.732v-.416c.193-.008.327-.022.404-.039.123-.027.223-.081.299-.162.053-.056.092-.13.119-.223l.024-.124h.511v3.109h-.353l-.272-.001zm-2.009-9.713v-1.978h1.986v2.023h-1.981l-.005-.045zm1.986 2.644c-.792-.237-1.44-.807-1.762-1.558h1.762v1.558zm1.041-1.558h1.717v1.685h-1.717v-1.685zm2.758 0h1.763c-.322.751-.971 1.321-1.763 1.558v-1.558zm1.986-1.086l-.004.045h-1.98v-2.023h1.985l-.001 1.978zm-2.506-3.02l-.521.001v3.063h-1.717v-5.045h1.973c1.251 0 2.299.839 2.642 1.98h-2.377zm-3.279 0h-1.857c.268-.891.965-1.586 1.857-1.853v1.853zm.527 18.916c.107-.061.266-.105.474-.131l.184-.023.214-.047c.077-.033.116-.084.116-.151 0-.085-.029-.142-.088-.175-.06-.032-.146-.049-.26-.049-.128 0-.22.033-.273.095l-.076.188h-.517c.011-.179.062-.326.151-.441.142-.18.387-.271.732-.271.225 0 .425.045.601.133.175.09.263.258.263.505v.94l.004.237.032.143.079.063v.078h-.583l-.033-.117-.015-.124c-.074.081-.161.149-.257.205-.116.067-.247.101-.394.101-.187 0-.341-.054-.463-.158-.122-.106-.182-.256-.182-.45-.002-.256.096-.439.291-.551zm27.383-17.455c.75.849 1.836 1.395 3.056 1.395.873 0 1.679-.279 2.345-.748h1.722l.035-.034c.278-.223.533-.473.751-.756h-2.999c-.121-.195-.232-.399-.329-.611h3.721c.134-.251.244-.515.329-.791h-4.327l-.057-.188c-.039-.162-.055-.329-.075-.495h4.616c.028-.204.062-.408.062-.62l-.019-.171h-4.714c.007-.226.033-.447.068-.664h4.577c-.053-.274-.133-.538-.232-.791h-4.149c.079-.237.169-.463.279-.683h3.525l-.25-.331c-.114-.156-.216-.322-.351-.461h-2.434l.148-.18c-.645-.422-1.413-.674-2.24-.674-2.261 0-4.1 1.839-4.1 4.099 0 .29.032.571.09.843.146.708.489 1.339.952 1.861z"/></svg>