<svg xmlns="http://www.w3.org/2000/svg" viewBox="0 0 61.094 61.094"><path d="M8.803 28.594c-.217 0-.36.108-.43.323-.07.215-.105.545-.105.995 0 .426.034.752.105.979.071.226.213.34.43.34s.358-.114.426-.34c.067-.227.101-.553.101-.979 0-.448-.033-.779-.101-.995-.068-.215-.208-.323-.426-.323zm.093 8.44l-.135.024c-.126.022-.216.049-.271.082-.093.053-.14.137-.14.25 0 .101.028.173.085.218.057.045.126.067.208.067.128 0 .247-.037.356-.111.108-.074.165-.211.169-.408v-.218l-.114.056-.158.04zm5.738-5.805c.217 0 .358-.114.426-.34.066-.227.101-.553.101-.98 0-.446-.033-.777-.101-.993-.068-.215-.209-.323-.426-.323s-.361.108-.43.323c-.07.215-.105.545-.105.993 0 .428.035.754.105.98.07.226.213.34.43.34zm.34 4.975c-.151 0-.269.043-.353.129-.083.087-.135.202-.157.35h1.015c-.011-.156-.063-.275-.157-.357-.093-.081-.21-.122-.348-.122zm5.489-7.61c-.216 0-.36.108-.43.323-.07.215-.105.545-.105.995 0 .426.034.752.105.979.07.226.214.34.43.34.217 0 .358-.114.426-.34.067-.227.1-.553.1-.979 0-.448-.033-.779-.1-.995-.067-.215-.208-.323-.426-.323zm5.831 2.635c.217 0 .358-.114.426-.34.066-.227.1-.553.1-.98 0-.446-.034-.777-.1-.993-.068-.215-.209-.323-.426-.323s-.36.108-.43.323c-.07.215-.105.545-.105.993 0 .428.034.754.105.98.072.227.214.34.43.34zm-14.575 0c.217 0 .358-.114.426-.34.066-.227.101-.553.101-.98 0-.446-.034-.777-.101-.993-.068-.215-.209-.323-.426-.323s-.361.108-.43.323c-.07.215-.105.545-.105.993 0 .428.035.754.105.98.07.226.213.34.43.34zm-5.832 0c.217 0 .358-.114.426-.34.067-.227.101-.553.101-.98 0-.446-.033-.777-.101-.993-.068-.215-.209-.323-.426-.323-.216 0-.36.108-.43.323-.07.215-.105.545-.105.993 0 .428.035.754.105.98.071.226.214.34.43.34zm37.112 5.673h6.513v-6.639h-6.513v6.526zm-13.789-8.308c-.217 0-.361.108-.43.323-.07.215-.105.545-.105.995 0 .426.035.752.105.979.069.226.213.34.43.34s.358-.114.426-.34c.066-.227.1-.553.1-.979 0-.448-.034-.779-.1-.995-.068-.215-.208-.323-.426-.323zm-5.831 0c-.217 0-.36.108-.43.323-.07.215-.105.545-.105.995 0 .426.035.752.105.979.07.226.213.34.43.34s.358-.114.426-.34c.067-.227.1-.553.1-.979 0-.448-.033-.779-.1-.995-.068-.215-.208-.323-.426-.323zm5.794 7.61c-.151 0-.269.043-.352.129-.083.087-.136.202-.158.35h1.015c-.01-.156-.063-.275-.157-.357-.093-.081-.21-.122-.348-.122zm-6.078.83l-.134.024c-.125.022-.216.049-.271.082-.093.053-.14.137-.14.25 0 .101.028.173.085.218.056.045.126.067.207.067.128 0 .248-.037.356-.111.108-.074.165-.211.168-.408v-.218l-.114.056-.157.04zm37.999 1.669v-30.839c0-2.255-1.811-4.09-4.036-4.09h-53.021c-2.227 0-4.037 1.834-4.037 4.09v30.839c0 2.255 1.81 4.089 4.037 4.089h30.796v-5.89h1.596v-6.98c0-3.435 2.794-6.229 6.228-6.229h7.196c3.433 0 6.227 2.794 6.227 6.229v6.98h1.825v5.794c1.82-.395 3.189-2.033 3.189-3.993zm-32.209-1.157c.09.056.199.084.325.084.134 0 .243-.035.327-.103l.122-.156h.601c-.016.135-.088.271-.219.407-.202.22-.484.328-.848.328-.3 0-.565-.093-.794-.276-.229-.185-.344-.485-.344-.902 0-.391.104-.689.311-.897.207-.209.475-.313.806-.313.196 0 .373.036.53.106.158.07.288.182.39.333.093.135.152.29.18.467.015.104.023.253.019.447h-1.641c.008.225.087.385.235.475zm1.32-6.219c-.19.33-.521.497-.993.497-.473 0-.804-.167-.995-.497-.191-.331-.286-.803-.286-1.415 0-.614.095-1.086.286-1.418.19-.333.521-.5.995-.5.472 0 .803.166.993.5.191.332.286.805.286 1.418 0 .612-.095 1.084-.286 1.415zm-3.163 5.06c-.052-.105-.149-.158-.29-.158-.163 0-.275.068-.336.203-.032.073-.048.157-.048.258v1.343h-.593v-1.343c0-.132-.014-.23-.042-.291-.05-.109-.146-.163-.292-.163-.168 0-.281.054-.34.163-.031.062-.048.155-.048.277v1.356h-.597v-2.25h.572v.33c.073-.116.142-.202.207-.251.115-.087.263-.132.445-.132.172 0 .311.038.417.114.085.068.15.16.194.271.077-.133.173-.229.287-.291.121-.062.256-.094.406-.094.099 0 .197.02.294.058.096.038.184.106.262.203.063.079.106.175.128.289l.021.334-.004 1.419h-.604v-1.435c.003-.086-.01-.155-.039-.21zm-3.771-.137c-.064-.034-.16-.052-.286-.052-.142 0-.242.035-.3.103-.042.052-.069.12-.083.208h-.569c.012-.197.067-.36.166-.487.156-.198.424-.298.805-.298.248 0 .468.049.661.147.192.098.288.281.288.554v1.034l.005.26.035.157.087.067v.087h-.641l-.038-.128-.017-.137c-.083.088-.176.163-.283.225-.127.072-.271.109-.432.109-.205 0-.375-.058-.508-.175-.133-.116-.201-.281-.201-.494 0-.278.107-.479.322-.603.118-.068.292-.116.521-.145l.203-.025.235-.052c.084-.035.126-.092.126-.167.001-.088-.031-.15-.096-.188zm.108-4.426c-.473 0-.804-.167-.995-.497-.191-.331-.286-.803-.286-1.415 0-.614.095-1.086.286-1.418.19-.333.521-.5.995-.5.472 0 .803.166.994.5.19.332.285.805.285 1.418 0 .612-.095 1.084-.285 1.415-.19.33-.521.497-.994.497zm1.635-1.912c0-.614.095-1.086.286-1.418.19-.333.521-.5.995-.5.472 0 .803.166.994.5.191.332.286.805.286 1.418 0 .612-.095 1.084-.286 1.415-.19.33-.521.497-.994.497s-.804-.167-.995-.497c-.191-.331-.286-.803-.286-1.415zm-3.556 1.415c-.19.33-.522.497-.994.497-.473 0-.804-.167-.995-.497-.191-.331-.285-.803-.285-1.415 0-.614.094-1.086.285-1.418.191-.333.522-.5.995-.5.472 0 .803.166.994.5.19.332.286.805.286 1.418 0 .612-.096 1.084-.286 1.415zm.106 3.658v3.046h-.637l-1.24-2.162v2.162h-.594v-3.046h.668l1.209 2.124v-2.124h.594zm-6.878 2.561c.089.056.199.084.325.084.135 0 .244-.035.327-.103l.122-.156h.602c-.016.135-.089.271-.219.407-.203.22-.485.328-.848.328-.3 0-.564-.093-.794-.276-.229-.185-.344-.485-.344-.902 0-.391.104-.689.311-.897.208-.209.475-.313.807-.313.196 0 .373.036.53.106s.288.182.39.333c.093.135.152.29.179.467.016.104.023.253.02.447h-1.641c.006.225.086.385.233.475zm-1.843-1.159c-.052-.105-.148-.158-.29-.158-.162 0-.275.068-.336.203-.032.073-.048.157-.048.258v1.343h-.593v-1.343c0-.132-.014-.23-.042-.291-.05-.109-.147-.163-.292-.163-.168 0-.281.054-.34.163-.031.062-.047.155-.047.277v1.356h-.598v-2.25h.573v.33c.073-.116.142-.202.206-.251.115-.087.263-.132.445-.132.172 0 .311.038.417.114.085.068.15.16.194.271.077-.133.173-.229.287-.291.121-.062.256-.094.406-.094.099 0 .197.02.293.058.096.038.184.106.262.203.063.079.106.175.128.289l.021.334-.004 1.419h-.604v-1.435c.004-.086-.009-.155-.038-.21zm-3.77-.137c-.065-.034-.161-.052-.287-.052-.142 0-.242.035-.3.103-.042.052-.07.12-.083.208h-.569c.012-.197.067-.36.165-.487.156-.198.425-.298.805-.298.249 0 .468.049.661.147.193.098.289.281.289.554v1.034l.004.26.036.157.086.067v.087h-.641l-.037-.128-.017-.137c-.082.088-.176.163-.282.225-.127.073-.272.11-.432.11-.206 0-.375-.058-.508-.175-.134-.116-.201-.281-.201-.494 0-.278.107-.479.323-.603.118-.068.292-.116.521-.145l.202-.025.236-.052c.084-.035.127-.092.127-.167-.002-.089-.033-.151-.098-.189zm.725-4.923c-.191.33-.522.497-.994.497-.473 0-.804-.167-.995-.497-.19-.331-.286-.803-.286-1.415 0-.614.095-1.086.286-1.418.19-.333.522-.5.995-.5.472 0 .803.166.994.5.19.332.285.805.285 1.418 0 .612-.095 1.084-.285 1.415zm-3.41-11.973v-2.174h2.208v2.225h-2.203l-.005-.051zm8.594 0l-.005.051h-2.204v-2.225h2.208v2.174zm-2.209 1.195h1.967c-.357.841-1.082 1.478-1.967 1.739v-1.739zm-.571-4.515v.001h-.573v3.368h-1.887v-5.572h2.168c1.391 0 2.554.933 2.933 2.203h-2.641zm-3.606 0h-2.067c.296-.992 1.074-1.77 2.067-2.063v2.063zm0 4.515v1.739c-.884-.262-1.611-.898-1.967-1.739h1.967zm1.146 0h1.887v1.878h-1.887v-1.878zm1.977 7.444c.472 0 .803.166.993.499.191.333.286.805.286 1.417 0 .613-.095 1.085-.286 1.416-.19.332-.521.497-.993.497-.473 0-.804-.165-.995-.497-.19-.331-.285-.803-.285-1.416 0-.612.095-1.084.285-1.417.191-.332.522-.499.995-.499zm-5.832 0c.472 0 .803.166.994.499.19.333.285.805.285 1.417 0 .613-.095 1.085-.285 1.416-.191.332-.522.497-.994.497-.473 0-.804-.165-.995-.497-.191-.331-.286-.803-.286-1.416 0-.612.095-1.084.286-1.417.191-.332.523-.499.995-.499zm-.992 6.992h.668l1.209 2.124v-2.124h.593v3.046h-.636l-1.24-2.162v2.162h-.594v-3.046zm8.459-5.073c0-.614.095-1.086.285-1.418.191-.333.522-.5.995-.5.472 0 .803.166.994.5.191.332.286.805.286 1.418 0 .612-.095 1.084-.286 1.415-.19.33-.521.497-.994.497s-.804-.167-.995-.497c-.19-.331-.285-.803-.285-1.415zm36.913-9.861c-.86 0-1.666-.212-2.395-.561-.89.569-1.943.904-3.075.904-3.156 0-5.726-2.568-5.726-5.725s2.569-5.725 5.726-5.725c.987 0 1.92.251 2.732.695.812-.463 1.738-.749 2.737-.749 3.076 0 5.578 2.503 5.578 5.58.001 3.078-2.501 5.581-5.577 5.581zm-4.523-5.728h-1.042c.006-.249.034-.491.073-.731h4.14c-.059-.301-.146-.59-.256-.87h-3.664c.088-.26.189-.51.312-.751h2.973c-.19-.313-.406-.607-.661-.87h-1.769c.213-.278.446-.533.707-.767-.543-.222-1.136-.349-1.759-.349-2.583 0-4.684 2.101-4.684 4.683 0 2.583 2.101 4.683 4.684 4.683.741 0 1.435-.189 2.058-.498-.201-.158-.402-.315-.582-.5h.841c.13-.101.226-.233.344-.347.179-.17.368-.327.52-.523h-2.393c-.137-.213-.257-.439-.365-.672h3.189c.148-.276.269-.565.362-.87h-3.865c-.066-.245-.114-.494-.148-.751h4.179c.032-.225.069-.447.069-.682l-.018-.188-3.245.003zm8.775 22.466v-6.867c0-2.573-2.094-4.666-4.665-4.666h-7.194c-2.571 0-4.666 2.094-4.666 4.666v6.867h3.445v-6.867c0-.673.548-1.221 1.221-1.221h7.194c.674 0 1.221.548 1.221 1.221v6.867h3.444zm-18.123 3.919v16.612h19.948v-18.856h-19.948v2.244zm13.037 4.807c0 1.062-.531 1.999-1.338 2.569l1.876 3.33c.293.521.047.941-.551.941h-5.899c-.597 0-.852-.428-.572-.954l1.709-3.199c-.913-.553-1.527-1.544-1.527-2.688 0-1.17.645-2.18 1.591-2.724.462-.265.988-.428 1.559-.428.569 0 1.096.163 1.558.428.948.544 1.594 1.554 1.594 2.725z"/></svg>