<svg xmlns="http://www.w3.org/2000/svg" viewBox="0 0 58.36 58.36"><path d="M11.225 33.564c.207 0 .342-.107.406-.323.063-.216.096-.527.096-.934 0-.428-.032-.743-.096-.948-.064-.205-.2-.308-.406-.308-.206 0-.344.104-.411.308-.066.205-.1.521-.1.948 0 .406.033.717.1.934.067.216.205.323.411.323zm13.902 0c.206 0 .341-.107.406-.323.063-.216.096-.527.096-.934 0-.428-.033-.743-.096-.948-.064-.205-.2-.308-.406-.308-.207 0-.344.104-.411.308-.066.205-.1.521-.1.948 0 .406.034.717.1.934.068.216.204.323.411.323zm-16.682-2.512c-.207 0-.344.104-.41.308-.067.205-.101.521-.101.948 0 .406.034.717.101.934.066.216.204.323.41.323s.342-.107.406-.323c.064-.216.096-.527.096-.934 0-.428-.032-.743-.096-.948-.064-.205-.2-.308-.406-.308zm-2.781 2.512c.206 0 .342-.107.406-.323.063-.216.096-.527.096-.934 0-.428-.032-.743-.096-.948-.064-.205-.2-.308-.406-.308-.207 0-.344.104-.41.308-.067.205-.101.521-.101.948 0 .406.034.717.101.934.067.216.203.323.41.323zm2.868 5.537l-.128.024c-.12.021-.206.047-.258.077-.089.051-.132.13-.132.238 0 .096.027.164.081.207s.12.065.198.065c.123 0 .235-.034.339-.105s.157-.201.162-.389v-.21l-.109.054-.153.039zm5.474-5.537c.207 0 .342-.107.406-.323.063-.216.096-.527.096-.934 0-.428-.032-.743-.096-.948-.064-.205-.2-.308-.406-.308-.206 0-.344.104-.411.308-.066.205-.1.521-.1.948 0 .406.033.717.1.934.068.216.204.323.411.323zm.323 4.745c-.144 0-.256.041-.335.124-.08.082-.129.192-.15.332h.968c-.01-.148-.06-.263-.15-.34-.089-.075-.201-.116-.333-.116zm5.236-7.257c-.206 0-.343.104-.411.308-.066.205-.1.521-.1.948 0 .406.033.717.1.934.067.216.205.323.411.323.207 0 .342-.107.406-.323.064-.216.096-.527.096-.934 0-.428-.032-.743-.096-.948-.064-.205-.199-.308-.406-.308zm2.509 8.049l-.128.024c-.12.021-.206.047-.258.077-.088.051-.132.13-.132.238 0 .096.027.164.082.207.054.043.12.065.198.065.123 0 .235-.034.34-.105.104-.071.157-.201.161-.389v-.21l-.109.054-.154.039zm5.834-8.049c-.207 0-.344.104-.411.308-.067.205-.1.521-.1.948 0 .406.033.717.1.934.066.216.204.323.411.323.206 0 .342-.107.406-.323.063-.216.096-.527.096-.934 0-.428-.033-.743-.096-.948-.064-.205-.201-.308-.406-.308zm-.037 7.257c-.144 0-.256.041-.335.124-.079.082-.129.192-.15.332h.967c-.01-.148-.06-.263-.15-.34-.089-.075-.2-.116-.332-.116zm-5.525-7.257c-.206 0-.343.104-.41.308-.066.205-.1.521-.1.948 0 .406.034.717.1.934.067.216.204.323.41.323.207 0 .342-.107.406-.323.063-.216.096-.527.096-.934 0-.428-.033-.743-.096-.948-.064-.205-.199-.308-.406-.308zm-18.449 13.589h27.271l.047-.058.985-.984 1.041-1.042 2.504-2.503-4.53-4.53c-.812-.812-.812-2.132 0-2.945l4.972-4.971c.391-.391.921-.61 1.473-.61s1.083.22 1.474.61l4.528 4.529 4.528-4.529c.391-.391.922-.61 1.474-.61s1.082.22 1.473.61l4.971 4.971.171.209c.573.747.573 1.782 0 2.529l-.171.209-4.529 4.529 2.504 2.502.978.978.826.826c1.446-.576 2.476-1.999 2.476-3.667v-29.412c0-2.177-1.749-3.948-3.896-3.948h-50.57c-2.148-.001-3.897 1.77-3.897 3.948v29.41c0 2.176 1.749 3.949 3.897 3.949zm23.7-5.051c.085.054.19.08.311.08.128 0 .231-.032.311-.1l.115-.146h.575c-.015.126-.084.257-.209.389-.192.209-.462.313-.808.313-.286 0-.539-.09-.757-.265-.219-.177-.328-.463-.328-.86 0-.373.099-.657.296-.856.198-.2.453-.299.768-.299.188 0 .355.034.505.102.15.066.274.173.372.317.089.128.145.276.171.445.016.099.022.24.019.425h-1.565c.007.216.082.368.224.455zm1.258-5.932c-.181.315-.498.472-.947.472-.451 0-.767-.156-.949-.472-.181-.315-.273-.766-.273-1.351 0-.584.091-1.036.273-1.352.181-.318.498-.476.949-.476.449 0 .765.157.947.476.182.315.273.768.273 1.352 0 .586-.091 1.034-.273 1.351zm-3.016 4.826c-.05-.101-.142-.151-.275-.151-.155 0-.263.065-.322.193-.03.069-.046.15-.046.246v1.281h-.564v-1.281c0-.126-.014-.22-.04-.277-.048-.104-.141-.155-.278-.155-.16 0-.268.051-.323.155-.03.061-.045.147-.045.265v1.294h-.57v-2.146h.546v.313c.07-.112.135-.191.197-.239.109-.084.25-.125.424-.125.164 0 .296.035.399.107.081.067.143.153.186.259.074-.126.164-.22.273-.279.116-.059.245-.087.387-.087.095 0 .188.019.28.055.091.037.175.101.25.192.06.074.101.168.122.275l.02.317-.004 1.355h-.577v-1.369l-.04-.198zm-3.596-.13c-.062-.032-.153-.049-.273-.049-.134 0-.23.033-.286.099-.04.049-.067.115-.08.196h-.542c.012-.188.064-.342.159-.464.148-.187.405-.282.769-.282.236 0 .446.047.63.14.184.094.275.27.275.527v.986l.004.25.033.149.083.065v.083h-.612l-.035-.122-.016-.13c-.078.084-.167.156-.27.214-.122.07-.259.105-.413.105-.196 0-.357-.057-.485-.167-.127-.112-.192-.269-.192-.472 0-.265.102-.456.307-.574.112-.065.278-.111.497-.139l.193-.023.224-.05c.081-.033.121-.087.121-.158.002-.09-.028-.149-.091-.184zm.103-4.224c-.451 0-.767-.156-.949-.472-.182-.315-.273-.766-.273-1.351 0-.584.09-1.036.273-1.352.181-.318.498-.476.949-.476.45 0 .766.157.948.476.181.315.273.768.273 1.352 0 .585-.091 1.035-.273 1.351-.181.316-.497.472-.948.472zm1.559-1.822c0-.584.091-1.036.273-1.352.181-.318.498-.476.949-.476.45 0 .765.157.947.476.182.315.273.768.273 1.352 0 .585-.091 1.035-.273 1.351-.181.315-.498.472-.947.472-.451 0-.767-.156-.949-.472-.182-.318-.273-.767-.273-1.351zm-3.391 1.35c-.181.315-.497.472-.948.472-.451 0-.767-.156-.949-.472-.181-.315-.273-.766-.273-1.351 0-.584.09-1.036.273-1.352.181-.318.498-.476.949-.476.45 0 .766.157.948.476.181.315.273.768.273 1.352 0 .586-.092 1.034-.273 1.351zm.101 3.489v2.906h-.607l-1.184-2.062v2.062h-.565v-2.906h.636l1.155 2.026v-2.026h.565zm-6.56 2.443c.085.054.189.08.311.08.128 0 .232-.032.312-.1l.115-.146h.574c-.015.126-.084.257-.208.389-.193.209-.462.313-.808.313-.287 0-.539-.09-.757-.265-.219-.177-.328-.463-.328-.86 0-.373.099-.657.296-.856.198-.2.453-.299.769-.299.188 0 .355.034.505.102.15.066.274.173.372.317.089.128.145.276.171.445.016.099.022.24.019.425h-1.568c.008.216.084.368.225.455zm-1.757-1.106c-.05-.101-.142-.151-.276-.151-.155 0-.262.065-.322.193-.03.069-.046.15-.046.246v1.281h-.564v-1.281c0-.126-.014-.22-.04-.277-.048-.104-.141-.155-.278-.155-.16 0-.268.051-.323.155-.03.061-.044.147-.044.265v1.294h-.57v-2.146h.546v.313c.069-.112.135-.191.197-.239.109-.084.25-.125.424-.125.164 0 .296.035.398.107.082.067.143.153.186.259.074-.126.165-.22.274-.279.116-.059.245-.087.386-.087.095 0 .188.019.28.055.092.037.175.101.25.192.06.074.101.168.122.275l.02.317-.004 1.355h-.576v-1.369l-.04-.198zm-3.597-.13c-.062-.032-.153-.049-.273-.049-.134 0-.23.033-.287.099-.04.049-.066.115-.079.196h-.542c.012-.188.065-.342.159-.464.148-.187.405-.282.769-.282.237 0 .446.047.63.14.184.094.275.27.275.527v.986l.004.25.033.149.083.065v.083h-.613l-.036-.122-.015-.13c-.078.084-.168.156-.27.214-.122.07-.259.105-.413.105-.196 0-.357-.057-.485-.167-.127-.112-.191-.269-.191-.472 0-.265.102-.456.307-.574.112-.065.278-.111.497-.139l.192-.023.224-.05c.08-.033.121-.087.121-.158.004-.09-.027-.149-.09-.184zm.692-4.696c-.183.316-.498.472-.948.472-.451 0-.767-.156-.949-.472-.181-.315-.272-.766-.272-1.351 0-.584.09-1.036.272-1.352.182-.318.497-.476.949-.476.45 0 .766.157.948.476.181.315.272.768.272 1.352.001.586-.091 1.034-.272 1.351zm-3.241-11.418v-2.074h2.094v2.121h-2.088l-.006-.047zm8.174 0l-.005.046h-2.09v-2.121h2.095v2.075zm-2.095 1.139h1.863c-.338.795-1.025 1.397-1.863 1.646v-1.646zm-.544-4.305l-.547.001v3.212h-1.8v-5.302h2.069c1.319 0 2.424.886 2.784 2.088h-2.506zm-3.44 0h-1.959c.281-.94 1.018-1.676 1.959-1.955v1.955zm0 4.305v1.646c-.838-.249-1.524-.851-1.863-1.646h1.863zm1.091 0h1.8v1.779h-1.8v-1.779zm1.887 7.1c.45 0 .766.158.948.476.181.317.272.769.272 1.354 0 .584-.091 1.033-.272 1.349-.183.315-.498.474-.948.474-.451 0-.767-.158-.949-.474-.181-.315-.272-.765-.272-1.349 0-.585.09-1.036.272-1.354.182-.318.498-.476.949-.476zm-5.561 0c.45 0 .766.158.948.476.182.317.273.769.273 1.354 0 .584-.09 1.033-.273 1.349-.182.315-.498.474-.948.474-.451 0-.767-.158-.949-.474-.181-.315-.273-.765-.273-1.349 0-.585.091-1.036.273-1.354.181-.318.497-.476.949-.476zm-.947 6.668h.636l1.154 2.026v-2.026h.566v2.906h-.607l-1.184-2.062v2.062h-.565v-2.906zm8.068-4.839c0-.584.09-1.036.272-1.352.182-.318.497-.476.949-.476.45 0 .765.157.948.476.182.315.273.768.273 1.352 0 .585-.091 1.035-.273 1.351-.181.315-.497.472-.948.472s-.767-.156-.949-.472c-.182-.318-.272-.767-.272-1.351zm35.203-9.379c-.824 0-1.595-.203-2.293-.537-.848.539-1.846.863-2.923.863-3.025 0-5.485-2.46-5.485-5.484 0-3.023 2.46-5.483 5.485-5.483.936 0 1.806.258 2.577.674.781-.447 1.675-.725 2.637-.725 2.948 0 5.347 2.398 5.347 5.346s-2.397 5.346-5.345 5.346zm-4.291-5.488h-1.042c.007-.237.034-.469.071-.697h3.973c-.054-.288-.139-.563-.244-.83h-3.52c.083-.248.179-.485.294-.716h2.864c-.184-.299-.388-.581-.631-.83h-1.718c.197-.261.415-.501.655-.721-.505-.2-1.052-.319-1.627-.319-2.451 0-4.443 1.993-4.443 4.441 0 2.449 1.992 4.442 4.443 4.442.689 0 1.335-.172 1.918-.454-.188-.149-.375-.299-.543-.472h.833c.129-.101.229-.234.345-.348.163-.157.34-.301.479-.481h-2.311c-.131-.205-.246-.419-.348-.641h3.069c.142-.264.256-.54.346-.829h-3.708c-.063-.233-.109-.472-.142-.717h4.01c.03-.214.065-.427.065-.65l-.019-.179-3.069.001zm-8.551 26.158l-1.041 1.042-1.416 1.415 4.97 4.97 6.004-6.002 6.002 6.002 4.969-4.97-1.414-1.415-1.042-1.042-1.042-1.042-2.503-2.503 6.001-6.003-4.969-4.971-6.002 6.002-6.004-6.002-4.97 4.971 6.001 6.003-2.502 2.503z"/></svg>