<svg xmlns="http://www.w3.org/2000/svg" xmlns:xlink="http://www.w3.org/1999/xlink" viewBox="0 0 1077.87 830.33"><defs><linearGradient x1=".93" x2=".93" y1="901.66" y2="901.62" gradientTransform="matrix(923.39 0 0 -923.39 -144.23 832770.04)" gradientUnits="userSpaceOnUse"><stop offset="0" stop-color="#86bbe5"/><stop offset="1" stop-color="#1072ba"/></linearGradient><linearGradient x1="1.04" x2="1.04" y1="900.82" y2="900.88" gradientTransform="matrix(2421.88 0 0 -2421.88 -2442.88 2182095.07)" gradientUnits="userSpaceOnUse"><stop offset=".25" stop-color="#dbdbda"/><stop offset="1" stop-color="#fff"/></linearGradient><radialGradient cx="1.01" cy="900.89" r=".04" gradientTransform="matrix(2240.23 0 0 -2240.23 -2170.42 2018527.63)" gradientUnits="userSpaceOnUse"><stop offset="0" stop-color="#2abce1"/><stop offset=".11" stop-color="#2abbe1"/><stop offset="1" stop-color="#3375f8"/></radialGradient><linearGradient x1="1" x2=".99" y1="900.89" y2="900.86" gradientTransform="matrix(2240.23 0 0 -2240.23 -2163.79 2018526.69)" gradientUnits="userSpaceOnUse"><stop offset="0" stop-opacity="0"/><stop offset="1"/></linearGradient><linearGradient x1="228.65" x2="228.65" y1="849.79" y2="390.48" gradientUnits="userSpaceOnUse"><stop offset="0" stop-color="#808080" stop-opacity=".25"/><stop offset=".54" stop-color="#808080" stop-opacity=".12"/><stop offset="1" stop-color="#808080" stop-opacity=".1"/></linearGradient><linearGradient x1="980.95" x2="980.95" y1="422.53" y2="420.56" xlink:href="#6ba3456a-6d1c-41ff-82a1-c15c4f80e95c"/><linearGradient x1="1069.87" x2="1069.87" y1="642.26" y2="632.24" xlink:href="#6ba3456a-6d1c-41ff-82a1-c15c4f80e95c"/><linearGradient x1="972.81" x2="972.81" y1="288.48" y2="288.24" xlink:href="#6ba3456a-6d1c-41ff-82a1-c15c4f80e95c"/><linearGradient x1="1002.06" x2="1002.06" y1="694.42" y2="258.08" xlink:href="#6ba3456a-6d1c-41ff-82a1-c15c4f80e95c"/><linearGradient x1="611.37" x2="611.37" y1="587.56" y2="234.5" xlink:href="#6ba3456a-6d1c-41ff-82a1-c15c4f80e95c"/></defs><title>mobile browsers</title><path fill="#38d39f" d="M663.83 111.34c-46.25 39.26-106.24 36.72-158.8 16.3s-100.87-56.8-152.1-82.65c-42.93-21.69-87.99-35.89-133.59-42.24-65.28-9-138.18 2-183.66 65.44-50.65 70.68-46.76 198.16 8 263 27.87 33 64.36 49.2 96.18 75s61.28 68.56 58.57 118.3c-2.5 46-31.68 81.37-61.87 103.53-23.33 17.14-52.06 35.85-54.87 71.33-2.72 34.34 21.44 61.24 44.5 76.54 75.27 49.92 168 49.44 243-1.26 26.76-18.08 51.35-42.13 79.4-56.23 73.65-37 154.8.26 232.8 13.88 66 11.53 133.7 5.56 198-17.47 38.62-13.82 77.4-35 104.52-74.36 19.57-28.4 31.76-64.34 43.2-99.84q18.3-56.8 35.2-114.37c6.74-23 13.4-46.54 15.14-71.2 3.16-44.67-10.16-88.83-28.3-126.54-43.1-89.52-115.64-152.47-194.2-168.47s-161.67 15.25-222.6 83.6" opacity=".1"/><path d="M274.6 237.5s-27.32 6.34-34.88 22l-8.3-2.93v10.2l-17.3-4.6s11.7 6.33 5.12 14.62l-26.3 23.13s-13.4-12.44 4.64-36.58 56.78-41.46 77-25.85zm-1.96-7.07s-47.1-66.57-112.3-12.2c0 0 20.37 1 25.74 4.64 0 0 .24-13.9 4.87-10.24l2.7 10.73 15.1 2.2s3.52-12.44 7.74-10.25l5.67 10.74 12.2.73s2.43-11.22 5.1-9.5l4.9 8.53s21.45-1.22 28.27 4.63zm4.64 0l-11.22-27.27s.5-9.5 3.66-10l-6.1 2.44-5.12-5.85 3.66-9.5s-7.32 7.06-9.76 7.06l-17.55-9.5 7.56-9s-9.75 10.5-17.3 7.08-34.16-15.44-25.86-17.88 24.88-15.1 51.2-1.46 46.83 48.53 26.84 73.9zm4.87 0l18.54-33.56 6.82 1.86-1.22-10.24 14.38-9.77 3.17 5.12v-10.7l16.34-6.08 4.14 4.4s-2.44-9.52 10-8l17.32-.16s-11.72 16.65-18.8 22.63l-9.25-3.05 4 8.78-17.15 10s-10.24-6.64-10.73-4.78l4.14 8.48s-42.68 20.44-41.7 25.07zm6.59 4.14s10-18.28 25.36-16.82l4.63 5.85s-4.14-9.75 12.44-13.17l40.48-5.08 4.4 8.3 5.1-8.3 18.3 8.3s-4.15 14.58-33.4 16.78l-4.64-7.07-.73 7.07-16.58 5.36s-4.15-8.8-5.86-7.57l-1 7.56s-24.12 6.36-48.5-1.23zm-4.88 3.71s3.9 26.53 9.27 29.7l15.12 4.88-15.85 1.95 8 12.7 14.88 6.82-11.22 2.2-.73 6.58 6.34 2.92-7.28 3.14s-4.88 18.3-11.95 27.07c0 0 18.77-4.63 24.87-14.63l9-25.6s1-22.93-3.17-29-32.66-30.37-37.3-28.72zm-6.1 6.54l-3.17 1.95-5.86 12.2h10.24l-1.22-14.15zm-.96 16.58l-10 2.2v7.3s5.84 2.2 5.84 4.15zm-12.94 11.22l-2.44 10.5 8.78 4.12v-9.5l-6.34-5.12zm-3.29 13.16l-3.17 17.44s8.9-4.5 10.5-3.3l.84-9.26s-5.8-6.22-8.17-4.88zm-4.02 20.62l.85 5.72 10.25 3.04v-10.48l-2.57-3s-8.9 2.13-8.53 4.7zm-1.45 8.76c.1.73 0 15.12 0 15.12h13l-.5-11.6zm-.02 16.84l1.45 17.56 12.2-7.44-.6-8.42-13.05-1.7zm1.45 19.63l.87 12.07 14.87-.85-2.07-19.03-13.67 7.8zm.87 15.47l2.44 11.35 14.75-2.56-2.33-10.62-14.87 1.83zm1.83 15.5l2.38 8.9 16.4 2.44-2.68-13.54-16.1 2.2zm2.71 12.67l6.7 22.68s7.94-14.26 13.42-13.4l-2.68-8.55s-16.12-2.56-17.44-.73zm7.66 25.49l5 13.3s16-6 18.3-4.4l-10-23.38s-9.28 14-13.3 14.48zm7.2 16.58l7.18 14.4 15.24-9.52-6.34-10.36-16.1 5.48zm9.13 16.96l5.97 9.38h24.27l-15.12-19.14-15.12 9.75zm6.95 12.55l17.07 23.3 17.2-14.65-8.42-8.65h-25.85zm35.85 11.65l-16.6 13.1 22.33 8.53 7.92-10-13.65-11.64zm97.69-180.07s21.06 4.88 26.9 16.92l6.38-2.26v7.9l13.35-3.6s-9 4.9-4 11.3l20.3 17.85s10.34-9.58-3.57-28.2-43.75-31.96-59.36-19.92zm1.52-5.46s36.32-51.32 86.6-9.4c0 0-15.73.76-19.86 3.58 0 0-.2-10.72-3.76-7.9l-2.07 8.27-11.66 1.7s-2.72-9.6-6-7.9l-4.4 8.27-9.4.55s-1.87-8.64-4-7.33l-3.75 6.58s-16.46-.94-21.7 3.57zm-3.59 0l8.65-21.05s-.37-7.33-2.82-7.7l4.7 1.87 3.95-4.52-2.82-7.33s5.65 5.45 7.53 5.45l13.54-7.33-5.83-7s7.52 8.08 13.35 5.45 26.34-11.8 19.9-13.66-19.16-11.66-39.47-1.13-36.1 37.4-20.68 56.94zm-3.75 0l-14.3-25.87-5.26 1.43.94-7.9-11.04-7.47-2.45 4v-8.28l-12.6-4.7-3.2 3.4s1.88-7.34-7.7-6.22l-13.35-.1s9 12.9 14.47 17.5l7.15-2.36-3.1 6.77 13.25 7.7s7.9-5.1 8.27-3.68l-3.2 6.53s32.85 15.67 32.1 19.24zm-5.08 3.19s-7.7-14.1-19.56-13l-3.57 4.5s3.2-7.5-9.6-10.14l-31.2-3.92-3.4 6.4-3.94-6.4-14.1 6.4s3.2 11.24 25.76 12.93l3.57-5.45.56 5.45 12.78 4.23s3.2-6.77 4.5-5.83l.76 5.83s18.62 4.84 37.42-1zm3.76 2.87s-3 20.45-7.15 22.9l-11.65 3.76 12.22 1.5-6.2 9.77-11.48 5.26 8.65 1.7.57 5.07-4.9 2.25 5.65 2.45s3.75 14.1 9.2 20.87c0 0-14.48-3.57-19.18-11.28l-6.95-19.75s-.75-17.68 2.44-22.38 25.2-23.42 28.78-22.14zm4.69 5.04l2.45 1.5 4.5 9.4h-7.9l.95-10.9zm.76 12.78l7.7 1.7v5.6s-4.5 1.7-4.5 3.2zm9.97 8.65l1.87 8.1-6.77 3.17v-7.32l4.9-3.95zm2.53 10.15l2.45 13.44s-6.87-3.5-8.1-2.55l-.65-7.14s4.52-4.78 6.3-3.75zm3.1 15.89l-.65 4.42-7.9 2.35v-8.08l2-2.35s6.85 1.68 6.55 3.67zm1.13 6.76c-.1.57 0 11.66 0 11.66h-10.06l.38-8.93zm0 12.98l-1.12 13.54-9.4-5.74.46-6.48 10.06-1.32zm-1.12 15.14l-.67 9.3-11.47-.66 1.6-14.66 10.54 6.02zm-.67 11.93l-1.88 8.75-11.38-1.98 1.78-8.18 11.47 1.4zm-1.41 11.95l-1.83 6.85-12.65 1.9 2.07-10.45 12.4 1.7zm-2.06 9.76l-5.17 17.5s-6.1-11-10.34-10.35l2.06-6.57s12.4-1.98 13.44-.57zm-5.92 19.64l-3.86 10.26s-12.3-4.6-14.1-3.4l7.7-18s7.15 10.77 10.26 11.15zm-5.56 12.8l-5.54 11.1-11.75-7.34 4.9-8 12.4 4.24zm-7.05 13.06l-4.6 7.24h-18.7l11.63-14.75 11.65 7.5zm-5.35 9.69l-13.16 17.95-13.26-11.28 6.5-6.67h19.92zm-27.64 8.97l12.78 10.1-17.2 6.6-6.1-7.72 10.52-8.98zm-135.58 22.36s50.82-21.62 92.35-17a83.85 83.85 0 0 0 8.54.55c17 .18 77 1.85 104.68 16.43z" fill="#38d39f" opacity=".1"/><g opacity=".6"><path fill="#ef3f36" d="M653.84 123.68s27-1.22 41.38 26h-43.68s-8.24-.26-15.28 9.73c-2 4.2-4.2 8.53-1.76 17-3.5-5.94-18.65-32.3-18.65-32.3s10.68-19.35 38-20.42z"/><path fill="#fcd900" d="M693.8 192.67s-12.46 24-43.16 22.84c3.8-6.55 21.85-37.8 21.85-37.8s4.35-7-.8-18.1c-2.6-3.87-5.28-7.9-13.88-10 6.92-.07 37.32 0 37.32 0s11.4 18.88-1.33 43.07z"/><path fill="#61bc5b" d="M614.06 192.86s-14.57-22.82 1.8-48.8c3.8 6.56 21.84 37.8 21.84 37.8s3.9 7.3 16.07 8.38c4.64-.34 9.46-.63 15.63-7-3.4 6-18.65 32.3-18.65 32.3s-22.1.42-36.7-22.7z"/><path fill="#5ab055" d="M650.63 215.74l6.15-25.64a20.6 20.6 0 0 0 12.4-6.73c-3.5 6.18-18.55 32.37-18.55 32.37z"/><path fill="#fff" d="M633.26 170a20.47 20.47 0 1 1 20.47 20.46 20.47 20.47 0 0 1-20.47-20.46z"/><path fill="url(#53136407-b789-46d5-907d-ca290195799e)" d="M697.75 204.83a17 17 0 1 1 17 17 17 17 0 0 1-17-17z" transform="translate(-61.06 -34.84)"/><path fill="#eaca05" d="M695.13 149.57l-25.3 7.42a20.52 20.52 0 0 0-12-7.43h37.32z"/><path fill="#df3a32" d="M634 175.48c-3.54-6.16-18.15-31.4-18.15-31.4l18.73 18.54a18.47 18.47 0 0 0-1.2 9.62l.63 3.24z"/></g><path fill="#3277bc" d="M779.7 329.06h48.33c0-17.16-7.48-28.85-27.9-28.85-24.1 0-48.64 15.7-60.3 35.3 3.6-34 28-61.43 64.66-61.43 31.43 0 61.22 24 61.22 64v15.2h-85.78c0 20.67 18 28.86 36.93 28.86 23 0 37.23-10.33 37.23-10.33v29s-16.07 9.76-41.7 9.76c-33.3 0-56.8-23.86-56.8-53.53a52.62 52.62 0 0 1 33.6-49.56c-9.48 10.44-9.52 21.62-9.52 21.62z" opacity=".6"/><ellipse cx="991.07" cy="687.99" fill="#38d39f" rx="111.1" ry="13.79" transform="translate(-158.92 133.75) rotate(-9.27)" opacity=".1"/><g opacity=".6"><circle cx="75.2" cy="338.65" r="70.91" fill="url(#a)"/><circle cx="75.2" cy="338.65" r="65.59" fill="url(#1d73b751-b12d-4ea1-a464-c37bb7568519)"/><path fill="#f3f3f3" d="M75.3 289a.8.8 0 0 1-.82-.77v-11.58a.83.83 0 0 1 1.66 0v11.58a.84.84 0 0 1-.83.78z"/><path fill="#fff" d="M75.3 289.06a.86.86 0 0 1-.87-.83v-11.58a.86.86 0 0 1 .88-.83.87.87 0 0 1 .9.83v11.58a.9.9 0 0 1-.9.83zm0-13.13a.78.78 0 0 0-.76.72v11.58a.74.74 0 0 0 .77.72.78.78 0 0 0 .8-.72v-11.58a.84.84 0 0 0-.8-.72z"/><path fill="#f3f3f3" d="M80.85 282.8a.84.84 0 0 1-.77-.83l.38-5.15a.8.8 0 0 1 .9-.72.85.85 0 0 1 .77.83l-.4 5.15a.8.8 0 0 1-.88.72z"/><path fill="#fff" d="M80.85 282.86a.9.9 0 0 1-.83-.9l.4-5.14a.87.87 0 0 1 .93-.78.9.9 0 0 1 .83.9l-.4 5.14a.83.83 0 0 1-.93.78zm.5-6.7a.73.73 0 0 0-.77.66l-.4 5.15a.78.78 0 0 0 .73.78.73.73 0 0 0 .78-.67l.4-5.15a.83.83 0 0 0-.73-.78z"/><path fill="#f3f3f3" d="M85 290a.85.85 0 0 1-.66-.94l2.27-11.35a.77.77 0 0 1 1-.6.85.85 0 0 1 .67.94l-2.33 11.36a.83.83 0 0 1-.94.6z"/><path fill="#fff" d="M85 290.06a.9.9 0 0 1-.7-1l2.26-11.35a.9.9 0 0 1 1-.66.9.9 0 0 1 .72 1l-2.28 11.35a.93.93 0 0 1-1 .66zm2.6-12.9a.8.8 0 0 0-.88.55l-2.27 11.36a.8.8 0 0 0 .6.9.8.8 0 0 0 .9-.57l2.27-11.36a.8.8 0 0 0-.6-.88z"/><path fill="#f3f3f3" d="M91.65 285.02a.82.82 0 0 1-.6-1l1.38-5a.8.8 0 0 1 1-.56.83.83 0 0 1 .6 1l-1.38 5a.8.8 0 0 1-1 .56z"/><path fill="#fff" d="M91.65 285.07a.83.83 0 0 1-.6-1.05l1.38-5a.88.88 0 0 1 1-.6.83.83 0 0 1 .6 1.04l-1.37 5a.85.85 0 0 1-1.05.6zm1.83-6.48a.77.77 0 0 0-.94.5l-1.38 5a.7.7 0 0 0 .55.87.77.77 0 0 0 .95-.5l1.4-5a.8.8 0 0 0-.57-.9z"/><path fill="#f3f3f3" d="M94.37 292.83a.8.8 0 0 1-.44-1.05l4.43-10.7a.76.76 0 0 1 1.05-.38.8.8 0 0 1 .45 1l-4.43 10.7a.76.76 0 0 1-1 .38z"/><path fill="#fff" d="M94.37 292.9a.87.87 0 0 1-.5-1.12l4.43-10.7a.9.9 0 0 1 1.17-.44.86.86 0 0 1 .5 1.1l-4.44 10.7a.86.86 0 0 1-1.16.45zm5-12.15a.76.76 0 0 0-1 .4l-4.43 10.68a.72.72 0 0 0 .44.94.75.75 0 0 0 1-.38l4.43-10.7a.8.8 0 0 0-.43-.95z"/><path fill="#f3f3f3" d="M101.85 289.28a.83.83 0 0 1-.4-1.05l2.34-4.6a.82.82 0 0 1 1.1-.33.83.83 0 0 1 .38 1.05l-2.32 4.6a.8.8 0 0 1-1.1.33z"/><path fill="#fff" d="M101.85 289.34a.84.84 0 0 1-.4-1.16l2.34-4.6a.87.87 0 1 1 1.54.77l-2.33 4.6a.85.85 0 0 1-1.15.4zm3.05-6a.74.74 0 0 0-1 .33l-2.33 4.6a.83.83 0 0 0 .33 1 .74.74 0 0 0 1-.33l2.33-4.6a.83.83 0 0 0-.3-1.04z"/><path fill="#f3f3f3" d="M102.94 297.48a.76.76 0 0 1-.23-1.1l6.44-9.6a.8.8 0 0 1 1.1-.2.76.76 0 0 1 .23 1.1l-6.43 9.58a.74.74 0 0 1-1.1.22z"/><path fill="#fff" d="M102.94 297.54a1 1 0 0 1-.28-1.22l6.43-9.58a.87.87 0 0 1 1.2-.23 1 1 0 0 1 .28 1.23l-6.43 9.6a.88.88 0 0 1-1.2.2zm7.3-10.9a.77.77 0 0 0-1.04.15l-6.43 9.58a.72.72 0 0 0 .22 1 .78.78 0 0 0 1.04-.16l6.43-9.53a.8.8 0 0 0-.22-1z"/><path fill="#f3f3f3" d="M111.04 295.43a.8.8 0 0 1-.16-1.1l3.2-4.05a.8.8 0 0 1 1.12-.1.8.8 0 0 1 .16 1.1l-3.2 4a.8.8 0 0 1-1.12.1z"/><path fill="#fff" d="M111 295.5a.88.88 0 0 1-.18-1.23l3.22-4a.8.8 0 0 1 1.2-.1.86.86 0 0 1 .18 1.2l-3.2 4.05a.82.82 0 0 1-1.23.07zm4.14-5.27a.7.7 0 0 0-1 .1l-3.2 4a.78.78 0 0 0 .15 1 .73.73 0 0 0 1.05-.1l3.2-4a.77.77 0 0 0-.16-1.05z"/><path fill="#f3f3f3" d="M110.5 303.74a.75.75 0 0 1 0-1.1l8.2-8.15a.8.8 0 0 1 1.1 0 .8.8 0 0 1 0 1.1l-8.15 8.14a.8.8 0 0 1-1.16 0z"/><path fill="#fff" d="M110.43 303.8a.88.88 0 0 1 0-1.22l8.2-8.14a.86.86 0 1 1 1.22 1.2l-8.2 8.16a.88.88 0 0 1-1.22 0zm9.37-9.3a.77.77 0 0 0-1.06 0l-8.2 8.13a.77.77 0 0 0 0 1.06.78.78 0 0 0 1 0l8.2-8.16a.78.78 0 0 0 0-1.05z"/><path fill="#f3f3f3" d="M118.8 303.3a.78.78 0 0 1 .06-1.1l3.93-3.33a.8.8 0 0 1 1.04 1.22l-3.9 3.3a.8.8 0 0 1-1.14-.1z"/><path fill="#fff" d="M118.74 303.36a.87.87 0 0 1 .06-1.22l3.93-3.33a.84.84 0 0 1 1.22.12.87.87 0 0 1 0 1.22l-4 3.33a.84.84 0 0 1-1.23-.1zm5.1-4.38a.78.78 0 0 0-1.05-.1l-3.94 3.28a.77.77 0 0 0 1 1.17l3.94-3.33a.72.72 0 0 0 .04-1.02z"/><path fill="#f3f3f3" d="M116.58 311.28a.76.76 0 0 1 .23-1.1l9.64-6.44a.85.85 0 0 1 1.1.22.75.75 0 0 1-.2 1.1l-9.65 6.44a.88.88 0 0 1-1.12-.22z"/><path fill="#fff" d="M116.53 311.28a.88.88 0 0 1 .22-1.22l9.64-6.43a.86.86 0 0 1 1.2.28.9.9 0 0 1-.2 1.23l-9.65 6.42a.85.85 0 0 1-1.22-.27zm11-7.26a.73.73 0 0 0-1-.22l-9.64 6.42a.76.76 0 0 0 .82 1.28l9.64-6.43a.8.8 0 0 0 .17-1.05z"/><path fill="#f3f3f3" d="M124.84 312.44a.8.8 0 0 1 .28-1.1l4.48-2.56a.83.83 0 0 1 1.1.34.8.8 0 0 1-.27 1.1l-4.5 2.55a.82.82 0 0 1-1.1-.33z"/><path fill="#fff" d="M124.78 312.5a.87.87 0 0 1 .28-1.17l4.5-2.55a.9.9 0 0 1 1.15.34.86.86 0 0 1-.27 1.16l-4.5 2.55a.9.9 0 0 1-1.16-.33zm5.87-3.33a.7.7 0 0 0-1-.28l-4.5 2.54a.8.8 0 0 0-.27 1 .7.7 0 0 0 1 .28l4.5-2.55a.76.76 0 0 0 .27-1z"/><path fill="#f3f3f3" d="M121.13 319.8a.77.77 0 0 1 .44-1l10.7-4.43a.84.84 0 0 1 1.04.45.77.77 0 0 1-.43 1.05l-10.7 4.43a.8.8 0 0 1-1.04-.5z"/><path fill="#fff" d="M121.07 319.86a.92.92 0 0 1 .44-1.16l10.7-4.43a.85.85 0 0 1 1.1.5.9.9 0 0 1-.43 1.16l-10.7 4.43a.86.86 0 0 1-1.1-.5zm12.13-5a.78.78 0 0 0-.94-.44l-10.7 4.43a.76.76 0 0 0-.38 1 .8.8 0 0 0 .94.44l10.7-4.44a.76.76 0 0 0 .38-1.04z"/><path fill="#f3f3f3" d="M128.94 322.58a.8.8 0 0 1 .5-1.05l4.87-1.6a.78.78 0 0 1 1 .5.8.8 0 0 1-.5 1.04l-4.86 1.6a.76.76 0 0 1-1-.5z"/><path fill="#fff" d="M128.88 322.63a.84.84 0 0 1 .56-1.1l4.87-1.6a.9.9 0 0 1 1.12.54.85.85 0 0 1-.56 1.1l-4.87 1.6a1 1 0 0 1-1.12-.54zm6.43-2.1a.77.77 0 0 0-.93-.5l-4.88 1.6a.73.73 0 0 0-.45.95.77.77 0 0 0 .94.5l4.87-1.6a.77.77 0 0 0 .44-.95z"/><path fill="#f3f3f3" d="M123.94 329.16a.75.75 0 0 1 .6-.94l11.4-2.2a.8.8 0 0 1 .94.66.75.75 0 0 1-.6.94l-11.34 2.22a.83.83 0 0 1-1-.68z"/><path fill="#fff" d="M123.84 329.16a.9.9 0 0 1 .67-1.05l11.36-2.2a.86.86 0 0 1 1 .7.9.9 0 0 1-.67 1.06l-11.36 2.22a.86.86 0 0 1-1-.72zm12.9-2.5a.74.74 0 0 0-.82-.6l-11.36 2.2a.72.72 0 0 0-.55.9.73.73 0 0 0 .84.6l11.35-2.2a.74.74 0 0 0 .55-.9z"/><path fill="#f3f3f3" d="M131.04 333.44a.77.77 0 0 1 .67-.9l5.1-.6a.8.8 0 0 1 .9.72.77.77 0 0 1-.67.9l-5.1.6a.85.85 0 0 1-.88-.72z"/><path fill="#fff" d="M131 333.44a.87.87 0 0 1 .7-1l5.1-.6a.87.87 0 0 1 .95.77.88.88 0 0 1-.72 1l-5.1.62a.86.86 0 0 1-.94-.77zm6.7-.78a.77.77 0 0 0-.84-.66l-5.1.6a.75.75 0 0 0-.6.84.8.8 0 0 0 .82.66l5.1-.6a.73.73 0 0 0 .6-.84z"/><path fill="#f3f3f3" d="M124.84 338.8a.8.8 0 0 1 .77-.82h11.6a.83.83 0 0 1 0 1.66h-11.6a.8.8 0 0 1-.76-.83z"/><path fill="#fff" d="M124.78 338.8a.87.87 0 0 1 .83-.88h11.6a.9.9 0 0 1 0 1.78h-11.6a.87.87 0 0 1-.82-.9zm13.13.07a.78.78 0 0 0-.7-.78h-11.6a.75.75 0 0 0-.7.77.8.8 0 0 0 .7.77h11.6a.82.82 0 0 0 .7-.77z"/><path fill="#f3f3f3" d="M131 344.4a.84.84 0 0 1 .82-.77l5.15.4a.8.8 0 0 1 .72.87.84.84 0 0 1-.84.78l-5.15-.4a.9.9 0 0 1-.7-.88z"/><path fill="#fff" d="M130.94 344.4a.9.9 0 0 1 .9-.83l5.14.4a.88.88 0 0 1 .78.93.9.9 0 0 1-.9.83l-5.14-.38a1 1 0 0 1-.78-.95zm6.76.5a.7.7 0 0 0-.66-.77l-5.16-.4a.78.78 0 0 0-.77.73.7.7 0 0 0 .67.78l5.16.38a.82.82 0 0 0 .76-.72z"/><path fill="#f3f3f3" d="M123.84 348.45a.86.86 0 0 1 .94-.67l11.36 2.28a.77.77 0 0 1 .6.94.85.85 0 0 1-.93.66l-11.35-2.27a.83.83 0 0 1-.6-.95z"/><path fill="#fff" d="M123.8 348.45a.9.9 0 0 1 1-.72l11.35 2.27a.9.9 0 0 1-.33 1.77l-11.36-2.27a.93.93 0 0 1-.66-1zm12.9 2.6a.78.78 0 0 0-.56-.88l-11.36-2.28a.77.77 0 0 0-.33 1.5l11.36 2.26a.8.8 0 0 0 .9-.6z"/><path fill="#f3f3f3" d="M128.83 355.1a.8.8 0 0 1 1-.6l5 1.37a.8.8 0 0 1 .55 1 .82.82 0 0 1-1 .6l-5-1.38a.8.8 0 0 1-.55-1z"/><path fill="#fff" d="M128.77 355.1a.83.83 0 0 1 1-.6l5 1.37a.9.9 0 0 1 .6 1.05.83.83 0 0 1-1 .6l-5-1.37a.86.86 0 0 1-.6-1.05zm6.48 1.82a.77.77 0 0 0-.5-.94l-5-1.38a.7.7 0 0 0-.9.55.77.77 0 0 0 .5.94l5 1.38a.8.8 0 0 0 .9-.56z"/><path fill="#f3f3f3" d="M121.02 357.76a.8.8 0 0 1 1-.45l10.7 4.44a.84.84 0 0 1 .43 1.06.8.8 0 0 1-1 .44l-10.7-4.43a.8.8 0 0 1-.43-1z"/><path fill="#fff" d="M120.94 357.7a.86.86 0 0 1 1.1-.5l10.7 4.43a.9.9 0 0 1 .44 1.17.86.86 0 0 1-1.1.5l-10.7-4.44a.9.9 0 0 1-.44-1.16zm12.13 5a.75.75 0 0 0-.4-1l-10.67-4.43a.73.73 0 0 0-.95.45.75.75 0 0 0 .4 1l10.7 4.44a.73.73 0 0 0 .94-.42z"/><path fill="#f3f3f3" d="M124.62 365.23a.83.83 0 0 1 1-.38l4.6 2.32a.8.8 0 0 1 .33 1.1.83.83 0 0 1-1 .4l-4.6-2.33a.82.82 0 0 1-.33-1.1z"/><path fill="#fff" d="M124.56 365.16a.85.85 0 0 1 1.16-.4l4.6 2.34a.87.87 0 0 1-.77 1.55l-4.6-2.33a.83.83 0 0 1-.4-1.16zm6 3.05a.72.72 0 0 0-.33-1l-4.6-2.32a.82.82 0 0 0-1 .33.72.72 0 0 0 .33 1l4.6 2.34a.73.73 0 0 0 1-.33z"/><path fill="#f3f3f3" d="M116.47 366.3a.76.76 0 0 1 1.1-.23l9.65 6.42a.8.8 0 0 1 .22 1.1.76.76 0 0 1-1.1.22l-9.65-6.43a.77.77 0 0 1-.23-1.1z"/><path fill="#fff" d="M116.42 366.23a1 1 0 0 1 1.22-.28l9.64 6.43a.9.9 0 0 1 .22 1.22 1 1 0 0 1-1.22.28l-9.64-6.43a.84.84 0 0 1-.22-1.22zm10.9 7.3a.78.78 0 0 0-.15-1.04l-9.64-6.43a.7.7 0 0 0-1 .22.78.78 0 0 0 .16 1.04l9.63 6.43a.72.72 0 0 0 1-.23z"/><path fill="#f3f3f3" d="M118.52 374.32a.8.8 0 0 1 1.1-.17l4 3.16a.8.8 0 0 1 .13 1.12.8.8 0 0 1-1.1.17l-4.06-3.17a.8.8 0 0 1-.08-1.1z"/><path fill="#fff" d="M118.47 374.26a.88.88 0 0 1 1.22-.16l4 3.16a.87.87 0 1 1-1 1.38l-4.06-3.16a.88.88 0 0 1-.17-1.22zm5.32 4.16a.72.72 0 0 0-.13-1.05l-4-3.16a.8.8 0 0 0-1.05.17.73.73 0 0 0 .1 1.06l4 3.16a.8.8 0 0 0 1.07-.18z"/><path fill="#f3f3f3" d="M110.27 373.77a.73.73 0 0 1 1.1 0l8.2 8.14a.8.8 0 0 1 0 1.12.75.75 0 0 1-1.1 0l-8.2-8.15a.83.83 0 0 1 0-1.1z"/><path fill="#fff" d="M110.27 373.7a.88.88 0 0 1 1.22 0l8.2 8.15a.86.86 0 0 1-1.23 1.22l-8.2-8.14a.78.78 0 0 1 0-1.22zm9.3 9.26a.78.78 0 0 0 0-1.05l-8.2-8.13a.77.77 0 0 0-1.05 0 .78.78 0 0 0 0 1.05l8.2 8.14a.7.7 0 0 0 1.06 0z"/><path fill="#f3f3f3" d="M110.77 382.02a.78.78 0 0 1 1.1.06l3.38 3.87a.8.8 0 0 1-1.2 1.06l-3.4-3.84a.8.8 0 0 1 .12-1.14z"/><path fill="#fff" d="M110.7 382.02a.87.87 0 0 1 1.23.06l3.38 3.87a.83.83 0 0 1-.1 1.22.87.87 0 0 1-1.26 0l-3.38-3.9a.87.87 0 0 1 .1-1.2zm4.44 5a.76.76 0 0 0 .1-1l-3.37-3.86a.76.76 0 0 0-1.05-.05.78.78 0 0 0-.1 1.06l3.37 3.88a.72.72 0 0 0 1 0z"/><path fill="#f3f3f3" d="M102.8 379.9a.76.76 0 0 1 1.14.26l6.42 9.58a.84.84 0 0 1-.22 1.1.76.76 0 0 1-1.1-.2l-6.43-9.6a.86.86 0 0 1 .23-1.1z"/><path fill="#fff" d="M102.8 379.86a.88.88 0 0 1 1.2.22l6.43 9.6a.84.84 0 0 1-.27 1.2.88.88 0 0 1-1.22-.22l-6.43-9.58a.85.85 0 0 1 .3-1.22zm7.3 10.9a.7.7 0 0 0 .22-1l-6.38-9.6a.76.76 0 0 0-1.05-.16.7.7 0 0 0-.24 1l6.43 9.6a.84.84 0 0 0 1 .15z"/><path fill="#f3f3f3" d="M101.63 388.16a.8.8 0 0 1 1.1.28l2.55 4.5a.83.83 0 0 1-.33 1.1.8.8 0 0 1-1.1-.28l-2.56-4.5a.9.9 0 0 1 .33-1.1z"/><path fill="#fff" d="M101.63 388.06a.86.86 0 0 1 1.16.27l2.54 4.5a.85.85 0 0 1-.33 1.16.87.87 0 0 1-1.16-.3l-2.55-4.48a.85.85 0 0 1 .33-1.16zm3.32 5.87a.74.74 0 0 0 .28-1l-2.55-4.48a.8.8 0 0 0-1-.28.74.74 0 0 0-.28 1l2.55 4.48a.73.73 0 0 0 1 .28z"/><path fill="#f3f3f3" d="M94.26 384.46a.8.8 0 0 1 1.05.4l4.5 10.68a.85.85 0 0 1-.44 1.05.82.82 0 0 1-1.06-.4l-4.48-10.7a.83.83 0 0 1 .44-1.04z"/><path fill="#fff" d="M94.26 384.4a.92.92 0 0 1 1.16.45l4.52 10.7a.85.85 0 0 1-.5 1.1.9.9 0 0 1-1.16-.45l-4.5-10.7a.9.9 0 0 1 .5-1.1zm5 12.13a.7.7 0 0 0 .4-.94l-4.5-10.7a.76.76 0 0 0-1-.4.7.7 0 0 0-.38.95l4.48 10.7a.77.77 0 0 0 1.04.38z"/><path fill="#f3f3f3" d="M91.54 392.32a.82.82 0 0 1 1.06.5l1.6 4.88a.78.78 0 0 1-.5 1 .8.8 0 0 1-1-.5l-1.6-4.87a.76.76 0 0 1 .5-1z"/><path fill="#fff" d="M91.5 392.27a.86.86 0 0 1 1.1.5l1.6 4.87a.9.9 0 0 1-.55 1.1.87.87 0 0 1-1.1-.5l-1.6-4.86a1 1 0 0 1 .55-1.1zm2.15 6.37a.77.77 0 0 0 .5-.94l-1.6-4.88a.73.73 0 0 0-.95-.44.77.77 0 0 0-.5.94l1.6 4.88a.7.7 0 0 0 .88.46h.07z"/><path fill="#f3f3f3" d="M85 387.28a.75.75 0 0 1 .95.6l2.33 11.37a.8.8 0 0 1-.67.94.75.75 0 0 1-.93-.62l-2.33-11.36a.9.9 0 0 1 .67-.94z"/><path fill="#fff" d="M85 387.23a.9.9 0 0 1 1.06.66l2.33 11.35a.85.85 0 0 1-.68 1 .9.9 0 0 1-1.05-.67l-2.33-11.36a.82.82 0 0 1 .67-1zm2.6 12.9a.76.76 0 0 0 .62-.88l-2.28-11.36a.7.7 0 0 0-.88-.56.76.76 0 0 0-.6.88l2.3 11.36a.8.8 0 0 0 .9.56z"/><path fill="#f3f3f3" d="M80.8 394.48a.86.86 0 0 1 .94.67l.66 5.1a.8.8 0 0 1-.72.88.85.85 0 0 1-.94-.66l-.66-5.1a.8.8 0 0 1 .72-.9z"/><path fill="#fff" d="M80.8 394.43a.87.87 0 0 1 1 .72l.67 5.1a.9.9 0 0 1-1.77.22l-.67-5.1a.87.87 0 0 1 .77-.94zm.83 6.65a.78.78 0 0 0 .66-.83l-.67-5.1a.74.74 0 0 0-.83-.6.8.8 0 0 0-.67.82l.67 5.1a.75.75 0 0 0 .83.6z"/><path fill="#f3f3f3" d="M75.1 388.28a.8.8 0 0 1 .82.78v11.57a.83.83 0 0 1-1.66 0v-11.57a.85.85 0 0 1 .83-.78z"/><path fill="#fff" d="M75.1 388.22a.87.87 0 0 1 .88.83v11.58a.9.9 0 0 1-1.78 0v-11.57a.9.9 0 0 1 .9-.84zm0 13.13a.78.78 0 0 0 .77-.72v-11.57a.76.76 0 0 0-.78-.73.78.78 0 0 0-.78.73v11.57a.8.8 0 0 0 .77.72z"/><path fill="#f3f3f3" d="M69.55 394.48a.85.85 0 0 1 .78.83l-.4 5.17a.8.8 0 0 1-.88.72.84.84 0 0 1-.77-.84l.38-5.16a.82.82 0 0 1 .9-.72z"/><path fill="#fff" d="M69.55 394.43a.9.9 0 0 1 .83.88l-.4 5.17a.86.86 0 0 1-.93.77.9.9 0 0 1-.83-.88l.4-5.16a.83.83 0 0 1 .93-.77zm-.5 6.7a.74.74 0 0 0 .78-.66l.4-5.16a.78.78 0 0 0-.73-.76.74.74 0 0 0-.78.66l-.4 5.16a.82.82 0 0 0 .73.77z"/><path fill="#f3f3f3" d="M65.4 387.28a.85.85 0 0 1 .66.94l-2.27 11.36a.77.77 0 0 1-.95.6.85.85 0 0 1-.67-.93l2.28-11.36a.82.82 0 0 1 .94-.62z"/><path fill="#fff" d="M65.4 387.23a.9.9 0 0 1 .72 1l-2.27 11.36a.9.9 0 0 1-1.78-.34l2.27-11.36a1 1 0 0 1 1.06-.66zm-2.6 12.93a.8.8 0 0 0 .88-.55l2.26-11.38a.76.76 0 0 0-1.5-.33l-2.27 11.35a.8.8 0 0 0 .62.9z"/><path fill="#f3f3f3" d="M58.75 392.27a.83.83 0 0 1 .6 1l-1.38 5a.8.8 0 0 1-1 .56.83.83 0 0 1-.6-1l1.37-5a.8.8 0 0 1 1-.55z"/><path fill="#fff" d="M58.75 392.2a.85.85 0 0 1 .6 1.07l-1.38 5a.9.9 0 0 1-1 .6.85.85 0 0 1-.6-1.04l1.38-5a.86.86 0 0 1 1-.6zm-1.8 6.5a.76.76 0 0 0 .93-.5l1.4-5a.7.7 0 0 0-.57-.9.77.77 0 0 0-.93.5l-1.38 5a.78.78 0 0 0 .54.9z"/><path fill="#f3f3f3" d="M56.03 384.46a.8.8 0 0 1 .45 1.05l-4.43 10.66a.78.78 0 0 1-1.06.4.86.86 0 0 1-.45-1.06l4.4-10.65a.77.77 0 0 1 1-.4z"/><path fill="#fff" d="M56.03 384.4a.86.86 0 0 1 .5 1.1l-4.43 10.66a.87.87 0 0 1-1.16.44.84.84 0 0 1-.5-1.1l4.43-10.7a.86.86 0 0 1 1.16-.4zm-5 12.13a.76.76 0 0 0 1-.38l4.43-10.7a.7.7 0 0 0-.44-.94.76.76 0 0 0-1 .4l-4.43 10.7a.8.8 0 0 0 .4.93z"/><path fill="#f3f3f3" d="M48.56 388a.83.83 0 0 1 .38 1.05l-2.32 4.6a.82.82 0 0 1-1.1.34.85.85 0 0 1-.4-1.07l2.33-4.6a.8.8 0 0 1 1.1-.33z"/><path fill="#fff" d="M48.56 387.95a.84.84 0 0 1 .38 1.2l-2.32 4.6a.86.86 0 0 1-1.17.4.84.84 0 0 1-.38-1.17l2.32-4.6a.85.85 0 0 1 1.16-.43zm-3.05 6a.74.74 0 0 0 1-.34l2.33-4.58a.82.82 0 0 0-.33-1 .73.73 0 0 0-1 .33l-2.32 4.6a.82.82 0 0 0 .33 1z"/><path fill="#f3f3f3" d="M47.45 379.8a.76.76 0 0 1 .22 1.1l-6.43 9.6a.8.8 0 0 1-1.1.22.77.77 0 0 1-.23-1.1l6.44-9.6a.76.76 0 0 1 1.1-.22z"/><path fill="#fff" d="M47.45 379.75a1 1 0 0 1 .27 1.22l-6.42 9.58a.87.87 0 0 1-1.22.22 1 1 0 0 1-.28-1.22l6.43-9.58a.88.88 0 0 1 1.22-.22zm-7.3 10.9a.78.78 0 0 0 1-.15l6.4-9.6a.7.7 0 0 0-.2-1 .78.78 0 0 0-1 .18l-6.4 9.53a.78.78 0 0 0 .22 1.06z"/><path fill="#f3f3f3" d="M39.36 381.85a.8.8 0 0 1 .17 1.1l-3.22 4.06a.8.8 0 0 1-1.26-1l3.2-4.04a.8.8 0 0 1 1.12-.1z"/><path fill="#fff" d="M39.42 381.8a.88.88 0 0 1 .16 1.22l-3.2 4a.82.82 0 0 1-1.23.1.88.88 0 0 1-.17-1.2l3.22-4a.82.82 0 0 1 1.22-.12zm-4.16 5.26a.72.72 0 0 0 1.05-.1l3.23-4a.8.8 0 0 0-.17-1.07.73.73 0 0 0-1 .1l-3.22 4.05a.78.78 0 0 0 .17 1z"/><path fill="#f3f3f3" d="M39.94 373.54a.73.73 0 0 1 0 1.1l-8.2 8.15a.78.78 0 0 1-1.1 0 .77.77 0 0 1 0-1.1l8.14-8.16a.8.8 0 0 1 1.16 0z"/><path fill="#fff" d="M39.94 373.5a.88.88 0 0 1 0 1.2l-8.2 8.15a.86.86 0 1 1-1.22-1.22l8.2-8.14a.88.88 0 0 1 1.22 0zm-9.36 9.3a.76.76 0 0 0 1 0l8.2-8.15a.74.74 0 0 0-1-1.05l-8.2 8.14a.76.76 0 0 0 0 1.05z"/><path fill="#f3f3f3" d="M31.6 374a.8.8 0 0 1 0 1.1l-3.93 3.32a.8.8 0 0 1-1.1-1.26l3.93-3.32a.77.77 0 0 1 1.1.15z"/><path fill="#fff" d="M31.66 373.93a.86.86 0 0 1-.06 1.22l-3.93 3.32a.82.82 0 0 1-1.22-.1.87.87 0 0 1 .06-1.23l3.94-3.32a.83.83 0 0 1 1.22.1zm-5.1 4.38a.8.8 0 0 0 1.06.12l3.93-3.32a.77.77 0 0 0-1-1.17l-3.93 3.33a.72.72 0 0 0-.06 1z"/><path fill="#f3f3f3" d="M33.82 366a.75.75 0 0 1-.22 1.12l-9.66 6.42a.84.84 0 0 1-1.1-.22.76.76 0 0 1 .2-1.1l9.65-6.43a.88.88 0 0 1 1.1.2z"/><path fill="#fff" d="M33.88 366a.9.9 0 0 1-.23 1.23l-9.65 6.42a.84.84 0 0 1-1.2-.27.88.88 0 0 1 .22-1.22l9.64-6.43a.86.86 0 0 1 1.22.28zm-11 7.27a.72.72 0 0 0 1 .22l9.64-6.44a.7.7 0 0 0 .17-1 .73.73 0 0 0-1-.22l-9.65 6.42a.8.8 0 0 0-.16 1.06z"/><path fill="#f3f3f3" d="M25.57 364.85a.8.8 0 0 1-.28 1.1l-4.5 2.55a.83.83 0 0 1-1.1-.33.8.8 0 0 1 .24-1.1l4.5-2.56a.83.83 0 0 1 1.1.35z"/><path fill="#fff" d="M25.62 364.8a.86.86 0 0 1-.28 1.15l-4.48 2.55a.9.9 0 0 1-1.17-.33.86.86 0 0 1 .27-1.16l4.5-2.54a.88.88 0 0 1 1.15.33zm-5.87 3.36a.7.7 0 0 0 1 .27l4.48-2.55a.77.77 0 0 0 .28-1 .7.7 0 0 0-1-.28l-4.47 2.56a.75.75 0 0 0-.28 1z"/><path fill="#f3f3f3" d="M29.28 357.48a.77.77 0 0 1-.45 1.05l-10.7 4.43a.83.83 0 0 1-1-.44.77.77 0 0 1 .45-1.05l10.7-4.43a.8.8 0 0 1 1 .44z"/><path fill="#fff" d="M29.33 357.42a.92.92 0 0 1-.44 1.17l-10.69 4.41a.86.86 0 0 1-1.1-.5.9.9 0 0 1 .43-1.16l10.7-4.44a.86.86 0 0 1 1.1.5zm-12.13 5a.8.8 0 0 0 .94.45l10.7-4.43a.75.75 0 0 0 .38-1 .77.77 0 0 0-.94-.44l-10.7 4.43a.74.74 0 0 0-.38 1z"/><path fill="#f3f3f3" d="M21.47 354.7a.8.8 0 0 1-.5 1.06l-4.88 1.6a.78.78 0 0 1-1-.5.8.8 0 0 1 .48-1l4.88-1.6a.77.77 0 0 1 1 .45z"/><path fill="#fff" d="M21.52 354.65a.84.84 0 0 1-.58 1.1l-4.88 1.62a.9.9 0 0 1-1.1-.56.84.84 0 0 1 .55-1.1l4.88-1.6a.94.94 0 0 1 1.1.55zm-6.42 2.1a.77.77 0 0 0 .94.5l4.9-1.6a.74.74 0 0 0 .45-.94.78.78 0 0 0-1-.5l-4.88 1.62a.76.76 0 0 0-.42.94z"/><path fill="#f3f3f3" d="M26.45 348.16a.75.75 0 0 1-.6.94l-11.36 2.2a.8.8 0 0 1-1-.65.75.75 0 0 1 .6-.94l11.36-2.2a.82.82 0 0 1 .94.66z"/><path fill="#fff" d="M26.56 348.16a.9.9 0 0 1-.62 1l-11.4 2.22a.86.86 0 0 1-1-.72.9.9 0 0 1 .67-1.05l11.37-2.2a.85.85 0 0 1 1 .76zm-12.9 2.5a.74.74 0 0 0 .83.6l11.34-2.22a.72.72 0 0 0 .56-.88.74.74 0 0 0-.83-.6l-11.36 2.2a.74.74 0 0 0-.54.9z"/><path fill="#f3f3f3" d="M19.36 343.85a.77.77 0 0 1-.66.9l-5.1.6a.82.82 0 0 1-.9-.72.78.78 0 0 1 .68-.9l5.1-.6a.84.84 0 0 1 .88.72z"/><path fill="#fff" d="M19.42 343.85a.9.9 0 0 1-.72 1l-5.1.6a.87.87 0 0 1-.94-.77.9.9 0 0 1 .72-1l5.1-.6a.86.86 0 0 1 .94.77zm-6.7.78a.8.8 0 0 0 .82.66l5.1-.62a.73.73 0 0 0 .6-.83.77.77 0 0 0-.82-.66l-5.1.6a.75.75 0 0 0-.6.83z"/><path fill="#f3f3f3" d="M25.57 338.48a.8.8 0 0 1-.78.83h-11.59a.83.83 0 0 1 0-1.65h11.6a.8.8 0 0 1 .77.83z"/><path fill="#fff" d="M25.62 338.48a.86.86 0 0 1-.83.88h-11.59a.86.86 0 0 1-.82-.88.87.87 0 0 1 .83-.9h11.6a.87.87 0 0 1 .82.9zm-13.13-.06a.78.78 0 0 0 .7.78h11.6a.74.74 0 0 0 .7-.78.78.78 0 0 0-.7-.77h-11.59a.8.8 0 0 0-.7.77z"/><path fill="#e2e2e2" d="M19.42 332.88a.85.85 0 0 1-.83.78l-5.17-.4a.8.8 0 0 1-.72-.88.84.84 0 0 1 .84-.77l5.16.4a.9.9 0 0 1 .72.88z"/><path fill="#fff" d="M19.47 332.88a.9.9 0 0 1-.88.83l-5.17-.37a.87.87 0 0 1-.77-.95.9.9 0 0 1 .88-.83l5.16.4a1 1 0 0 1 .77.93zm-6.76-.5a.7.7 0 0 0 .68.78l5.15.4a.8.8 0 0 0 .78-.73.7.7 0 0 0-.66-.78l-5.15-.4a.84.84 0 0 0-.8.73z"/><path fill="#f3f3f3" d="M26.56 328.84a.85.85 0 0 1-.94.66l-11.36-2.34a.77.77 0 0 1-.6-.95.84.84 0 0 1 .94-.65l11.34 2.3a.92.92 0 0 1 .6 1z"/><path fill="#fff" d="M26.62 328.84a.9.9 0 0 1-1 .72l-11.36-2.27a.9.9 0 0 1-.66-1.07.9.9 0 0 1 1-.72l11.34 2.3a.94.94 0 0 1 .67 1.04zm-12.9-2.6a.8.8 0 0 0 .54.88l11.36 2.27a.78.78 0 0 0 .9-.62.8.8 0 0 0-.57-.88l-11.35-2.27a.8.8 0 0 0-.9.6z"/><path fill="#f3f3f3" d="M21.58 322.16a.83.83 0 0 1-1 .6l-5-1.38a.8.8 0 0 1-.55-1 .82.82 0 0 1 1-.6l5 1.37a.8.8 0 0 1 .56 1z"/><path fill="#fff" d="M21.63 322.16a.84.84 0 0 1-1 .6l-5-1.38a.88.88 0 0 1-.7-1.02.86.86 0 0 1 1.07-.6l5 1.38a.85.85 0 0 1 .6 1zm-6.48-1.83a.77.77 0 0 0 .5.94l5 1.4a.7.7 0 0 0 .88-.57.77.77 0 0 0-.5-.94l-5-1.38a.8.8 0 0 0-.9.55z"/><path fill="#f3f3f3" d="M29.4 319.53a.8.8 0 0 1-1 .44l-10.7-4.43a.84.84 0 0 1-.45-1.05.8.8 0 0 1 1-.45l10.7 4.43a.8.8 0 0 1 .43 1.05z"/><path fill="#fff" d="M29.44 319.6a.86.86 0 0 1-1.1.5l-10.7-4.45a.9.9 0 0 1 .67-1.66l10.69 4.41a.92.92 0 0 1 .44 1.17zm-12.13-5a.75.75 0 0 0 .4 1l10.69 4.4a.7.7 0 0 0 .93-.44.76.76 0 0 0-.38-1l-10.7-4.43a.74.74 0 0 0-.94.45z"/><path fill="#f3f3f3" d="M25.8 312.05a.83.83 0 0 1-1 .4l-4.66-2.3a.8.8 0 0 1-.34-1.1.84.84 0 0 1 1.06-.38l4.6 2.32a.83.83 0 0 1 .33 1.1z"/><path fill="#fff" d="M25.84 312.16a.85.85 0 0 1-1.16.4l-4.6-2.4a.87.87 0 1 1 .78-1.55l4.6 2.33a.84.84 0 0 1 .38 1.23zm-6-3.05a.73.73 0 0 0 .33 1l4.6 2.34a.83.83 0 0 0 1-.34.73.73 0 0 0-.33-1l-4.66-2.33a.68.68 0 0 0-.94.33z"/><path fill="#f3f3f3" d="M33.94 311a.76.76 0 0 1-1.1.22l-9.6-6.37a.8.8 0 0 1-.2-1.1.75.75 0 0 1 1.1-.23l9.63 6.43a.72.72 0 0 1 .17 1z"/><path fill="#fff" d="M34 311.06a1 1 0 0 1-1.23.27l-9.6-6.42a.9.9 0 0 1-.2-1.2 1 1 0 0 1 1.2-.3l9.6 6.44a.84.84 0 0 1 .22 1.22zm-10.93-7.32a.8.8 0 0 0 .17 1.06l9.64 6.42a.73.73 0 0 0 1-.22.78.78 0 0 0-.17-1l-9.63-6.43a.73.73 0 0 0-1 .22z"/><path fill="#f3f3f3" d="M31.88 302.97a.8.8 0 0 1-1.1.16l-4-3.15a.8.8 0 0 1-.12-1.1.8.8 0 0 1 1.1-.18l4 3.16a.8.8 0 0 1 .12 1.1z"/><path fill="#fff" d="M31.94 303.02a.87.87 0 0 1-1.22.17l-4-3.17a.87.87 0 0 1 1.06-1.38l4 3.15a.88.88 0 0 1 .17 1.22zm-5.32-4.15a.72.72 0 0 0 .1 1.05l4 3.16a.8.8 0 0 0 1.07-.17.73.73 0 0 0-.12-1.04l-4-3.16a.8.8 0 0 0-1 .17z"/><path fill="#f3f3f3" d="M40.13 303.52a.73.73 0 0 1-1.1 0l-8.26-8.14a.8.8 0 0 1 0-1.1.75.75 0 0 1 1.1 0l8.2 8.13a.8.8 0 0 1 .07 1.12z"/><path fill="#fff" d="M40.13 303.58a.86.86 0 0 1-1.2 0l-8.2-8.15a.86.86 0 0 1 0-1.22.88.88 0 0 1 1.2 0l8.2 8.16a.78.78 0 0 1 0 1.22zm-9.3-9.26a.77.77 0 0 0 0 1.06l8.2 8.14a.74.74 0 1 0 1-1.05l-8.2-8.2a.7.7 0 0 0-1 .06z"/><path fill="#f3f3f3" d="M39.64 295.27a.8.8 0 0 1-1.1-.06l-3.4-3.87a.78.78 0 0 1 .12-1.1.8.8 0 0 1 1.1.05l3.4 3.88a.8.8 0 0 1-.12 1.1z"/><path fill="#fff" d="M39.7 295.27a.88.88 0 0 1-1.23-.06l-3.38-3.87a.82.82 0 0 1 .1-1.2.85.85 0 0 1 1.22.04l3.38 3.88a.87.87 0 0 1-.1 1.22zm-4.44-5a.78.78 0 0 0-.1 1.05l3.37 3.84a.77.77 0 0 0 1.16-1l-3.4-3.88a.72.72 0 0 0-1.04-.05z"/><path fill="#f3f3f3" d="M47.6 297.37a.74.74 0 0 1-1.1-.22l-6.48-9.58a.84.84 0 0 1 .23-1.1.74.74 0 0 1 1.1.2l6.43 9.6a.78.78 0 0 1-.17 1.1z"/><path fill="#fff" d="M47.6 297.43a.9.9 0 0 1-1.2-.22l-6.46-9.58a.85.85 0 0 1 .28-1.22.9.9 0 0 1 1.22.23l6.42 9.58a.84.84 0 0 1-.25 1.23zm-7.3-10.92a.73.73 0 0 0-.22 1l6.43 9.6a.77.77 0 0 0 1.06.16.73.73 0 0 0 .22-1l-6.43-9.52a.78.78 0 0 0-1-.23z"/><path fill="#f3f3f3" d="M48.78 289.16a.8.8 0 0 1-1.1-.27l-2.56-4.5a.83.83 0 0 1 .33-1.1.8.8 0 0 1 1.1.27l2.56 4.5a.86.86 0 0 1-.32 1.1z"/><path fill="#fff" d="M48.78 289.23a.87.87 0 0 1-1.17-.28l-2.53-4.5a.83.83 0 0 1 .33-1.15.86.86 0 0 1 1.16.28l2.55 4.5a.85.85 0 0 1-.32 1.15zm-3.33-5.87a.73.73 0 0 0-.27 1l2.55 4.5a.8.8 0 0 0 1 .27.75.75 0 0 0 .28-1l-2.54-4.5a.72.72 0 0 0-1-.26z"/><path fill="#f3f3f3" d="M56.14 292.83a.8.8 0 0 1-1-.4l-4.48-10.68a.83.83 0 0 1 .44-1 .8.8 0 0 1 1 .38l4.5 10.7a.85.85 0 0 1-.46 1.05z"/><path fill="#fff" d="M56.14 292.9a.92.92 0 0 1-1.16-.46l-4.5-10.7a.87.87 0 0 1 .5-1.1.93.93 0 0 1 1.18.45l4.48 10.68a.9.9 0 0 1-.5 1.1zm-5-12.15a.7.7 0 0 0-.38.94l4.48 10.7a.76.76 0 0 0 1 .37.7.7 0 0 0 .4-.94l-4.54-10.67a.78.78 0 0 0-1-.4z"/><path fill="#f3f3f3" d="M58.86 284.96a.8.8 0 0 1-1-.5l-1.6-4.87a.78.78 0 0 1 .5-1 .87.87 0 0 1 1 .5l1.6 4.87a.76.76 0 0 1-.5 1z"/><path fill="#fff" d="M58.94 285.02a.85.85 0 0 1-1.1-.5l-1.6-4.88a.87.87 0 0 1 .55-1.1.85.85 0 0 1 1.1.5l1.6 4.87a1 1 0 0 1-.56 1.12zm-2.16-6.37a.76.76 0 0 0-.5.94l1.6 4.86a.74.74 0 0 0 .95.45.77.77 0 0 0 .5-.93l-1.6-4.88a.7.7 0 0 0-.87-.48h-.08z"/><path fill="#f3f3f3" d="M65.4 290a.73.73 0 0 1-.94-.6l-2.33-11.36a.8.8 0 0 1 .66-.94.74.74 0 0 1 .93.6l2.33 11.36a.88.88 0 0 1-.66.94z"/><path fill="#fff" d="M65.4 290.06a.9.9 0 0 1-1.06-.67l-2.32-11.36a.84.84 0 0 1 .66-1 .9.9 0 0 1 1.05.67l2.33 11.36a.82.82 0 0 1-.66 1zm-2.6-12.9a.78.78 0 0 0-.62.9l2.33 11.35a.73.73 0 0 0 .9.56.78.78 0 0 0 .6-.9l-2.32-11.34a.8.8 0 0 0-.9-.56z"/><path fill="#f3f3f3" d="M69.6 282.8a.86.86 0 0 1-.94-.66l-.66-5.1a.8.8 0 0 1 .72-.9.86.86 0 0 1 .94.68l.67 5.1a.8.8 0 0 1-.72.88z"/><path fill="#fff" d="M69.6 282.86a.9.9 0 0 1-1-.72l-.66-5.1a.87.87 0 0 1 .78-.94.9.9 0 0 1 1 .72l.66 5.1a.86.86 0 0 1-.77.94zm-.82-6.65a.8.8 0 0 0-.67.84l.68 5.1a.74.74 0 0 0 .83.6.8.8 0 0 0 .67-.82l-.66-5.1a.74.74 0 0 0-.82-.6z"/><circle cx="75.59" cy="338.59" r="65.59" fill="url(#8458ccbc-c9b3-44b4-9883-119facb1121f)" fill-opacity=".2"/><path d="M121 297l-52.9 33.9h-.05v.05l-.05.05-33.02 54.46 48.52-39.06.06-.05v-.06l37.44-49.29z" opacity=".05"/><path fill="#cd151e" d="M120.02 293.83l-52.3 37.17 15.5 15.4 36.8-52.57"/><path fill="#fa5153" d="M67.78 330.9l7.8 7.7 44.44-44.77-52.24 37.06z"/><path fill="#acacac" d="M67.78 330.9l15.5 15.4-52.28 37.15 36.8-52.57z"/><path fill="#eee" d="M31 383.46l44.6-44.87-7.82-7.7-36.8 52.56z"/></g><ellipse cx="125.37" cy="805.65" fill="#38d39f" rx="113.45" ry="12.53" opacity=".1"/><ellipse cx="535.88" cy="548.39" fill="#38d39f" rx="79.91" ry="11.03" opacity=".1"/><path fill="url(#6ba3456a-6d1c-41ff-82a1-c15c4f80e95c)" d="M332.47 485.9v-.08l-.1-.06-.53-.37.1.08a1.8 1.8 0 0 0-2.35.5l-.23.33-12.15 17.48-2.13 3.06c-6.42-1.93-16.83 6.2-22.1 10.85l-.93.8c-.4-.93-.66-1.52-.66-1.52-.25 2.86-10.35 7.14-12.7 8.7a8.66 8.66 0 0 1-3.53 1.2c.33-10.9-8.07-22.33-8.07-22.33l-20.5-26.15a23.08 23.08 0 0 1 2.1-13.87c.17-.34.34-.67.53-1h.1a22.8 22.8 0 0 0-1.3 6.83c.06 1.78 1.7 10.35 4 10a1.25 1.25 0 0 0 1.2-.57c1.83-2.15 2-5.8 1.9-9.16a18.62 18.62 0 0 1-.33 2.95c.15-2.8-.17-5.77-.17-7.88 0-.84 0-1.67.06-2.5h.24v1-1h.27a27.6 27.6 0 0 0 12.56-5.82 6.77 6.77 0 0 0 4.72-2.2 4.6 4.6 0 0 1-.9 4.26c2.76-.13 5.1-2.27 6.15-4.78a16.68 16.68 0 0 0 .78-8 55.5 55.5 0 0 1-.58-8.13 29.77 29.77 0 0 0 .24-4.42 8.67 8.67 0 0 0-.24-1.35h.08a1.9 1.9 0 0 0 1.43-.55c1.14-.88 1.5-2.6 1.8-3.92a33.42 33.42 0 0 0 1.06-9.3c-.07.95-.2 1.9-.33 2.85.25-3.6-.25-7.1-2.63-9.7-1.64-1.8-3.93-2.85-6.13-3.9a4.74 4.74 0 0 1-2-1.42 5.93 5.93 0 0 1-.6-2.48c-.77-5.27-5.72-8.92-10.65-11.06-6.34-2.76-14-3.95-20.05-.67-3 1.6-5.3 4.1-8 6.12-3.38 2.56-7.28 4.36-10.9 6.6s-7.04 5.08-8.76 8.94c-2.65 6-.66 12.8-.33 19.3.54 10.25-3.68 21-12.04 27a10.84 10.84 0 0 0-2.65 2.3 2.86 2.86 0 0 0-.2 3.26c.42.57 1.1.88 1.57 1.4.95 1.1.76 2.74.4 4.13a25.8 25.8 0 0 1-7 11.84c.14 1.07 1.45 1.5 2.52 1.64a56.9 56.9 0 0 0 8.54.62h1.23l-.4 1c-1.56 4.1-3.57 10.36-2.9 14.2 1.05 6.07 4.2 33.78 2.62 38.63l2.44 40.35s.55 2.72 1.5 6.78c-2.47 5.83-5.3 12.28-6.7 14.87-2.84 5.2-1.44 31.7 8.35 43.47 0 0 4.04 5.72 3 7.8l.17 5.7 1.55 34.3a87.57 87.57 0 0 1-.73 10.48c-4.18 5.17-10.62 12.7-13.65 14-4.7 1.9-39.67 44.33-39.67 44.33s.28.52.82 1.36l-1 1.13-6.7 7.77-.54.6c-1.26-.22-9.65-1.75-16.3-2.23h-.66v-.29a24.88 24.88 0 0 0-7 .2 2.26 2.26 0 0 0-1.16.6c-2.27 2.77-3.5 46.42-3.5 46.42s2.43 21.84 10 23.06a4.4 4.4 0 0 0 1.2.23 3 3 0 0 0 .43 0 10.3 10.3 0 0 0 9-5.6 9.34 9.34 0 0 0 .75-2s-.88-3.9 1.48-9.27l6.74-14.72s8-8.4 6.56-12.48l.77-1.1c3-4.27 9.08-12.72 14-18.37l1-1.08a25.16 25.16 0 0 0 5.57 1.62s7.53-3 10.32-9.54c1.2-2.8 5.86-7.75 10.83-12.53l-.17 1.28-.17 41.74a29 29 0 0 0 5.14 2.83v1a134.26 134.26 0 0 1-1.08 17.8l-.15.92c-.62-.45-1.16-.6-1.5-.25-1.54 1.55-2.5 11.52-2.6 16.1v.46c-.24 4.6-2.85 11.25 5 11.6 5.9.24 31.23.63 44.8.82a30 30 0 0 0 20-7.1c4.3-3.68 6.92-8.07 1-11.3-.36-.2-.74-.38-1.16-.57l-13-2-22.2-11.34s-.13-6.85-2.8-5.7a7.4 7.4 0 0 0-2.25.9l-.4-.8a25.6 25.6 0 0 1-2.74-11.57v-1.1a19.5 19.5 0 0 0 1.85-1.9s-.17-15.58 1.58-18.53l7.2-32.7s.16-5.55 3.66-8.84l2.26-12.82s4.9-2.6 6.47-11.08l6.65-27s10.5-27.36 9.8-44.68l1.05-26.33 2.19-40.28v-.62c.88.67 1.47 1.2 1.47 1.2v-.43c.32.26.5.43.5.43s1.12-18.26.74-25.5c6.13-2.08 15.45-5.5 16-7.23.8-2.6 11.3-10.78 11.3-10.78a1.94 1.94 0 0 1-.64-.24c.33-.16.67-.33 1-.53 6.88-3.68 19.66-14.44 17.5-21l14-20.08a3.42 3.42 0 0 0-.3-4.33z" transform="translate(-61.06 -34.84)"/><path fill="#ecb4b6" d="M238.83 499.58a9.12 9.12 0 0 1-3.35 1.27c-4.37.13-8-11.7-8-11.7s1.24-1.27 3.22-3c5.86-5.22 18.15-14.85 23.9-9.46 6.5 6-8.24 18.8-15.77 22.88zm-66.41 282.12l-16.13 17.46s-14.93.17-12-8.06a30.17 30.17 0 0 0 1.23-5.47 134.75 134.75 0 0 0 1-17.62c0-3.86-.06-6.56-.06-6.56s23.5-10.3 21.1.42a20.15 20.15 0 0 0-.5 4.08 27.47 27.47 0 0 0 5.3 15.82z"/><path d="M172.42 781.7l-16.13 17.46s-14.93.17-12-8.06a30.17 30.17 0 0 0 1.23-5.47c2.13 1.64 5.2 6.5 5.2 6.5s10.28 3 13.1-6c1.6-5 4.1-7.53 6-8.74a25.78 25.78 0 0 0 2.6 4.3z" opacity=".1"/><path fill="#c17174" d="M209.82 807.92a29.3 29.3 0 0 1-19.64 7c-13.3-.2-38.15-.57-43.92-.82-7.72-.33-5.16-6.92-4.9-11.47v-.45c.08-4.54 1-14.4 2.53-15.95l6.8 6.86s10.3 3 13.12-6l8.58-9.87c2.6-1.13 2.74 5.66 2.74 5.66l21.8 11.26 12.77 2c.43.2.8.38 1.15.57 5.76 3.2 3.2 7.53-1.03 11.2z"/><circle cx="169.58" cy="789.69" r=".94" fill="#fff" opacity=".25"/><circle cx="178.41" cy="794.06" r=".94" fill="#fff" opacity=".25"/><circle cx="182.96" cy="796.1" r=".94" fill="#fff" opacity=".25"/><circle cx="192.39" cy="799.72" r=".94" fill="#fff" opacity=".25"/><circle cx="187.59" cy="798.17" r=".94" fill="#fff" opacity=".25"/><path fill="#c17174" d="M209.82 807.92a29.3 29.3 0 0 1-19.64 7c-13.3-.2-38.15-.57-43.92-.82-7.72-.33-5.16-6.92-4.9-11.47l48.46 3s19.85-3 21-8.92c5.8 3.22 3.23 7.56-1 11.22z"/><path fill="#fff" d="M209.82 807.92a29.3 29.3 0 0 1-19.64 7c-13.3-.2-38.15-.57-43.92-.82-7.72-.33-5.16-6.92-4.9-11.47l48.46 3s19.85-3 21-8.92c5.8 3.22 3.23 7.56-1 11.22z" opacity=".25"/><path fill="#ecb4b6" d="M119.6 737.98a32.8 32.8 0 0 0-4.87 4.87c-4.8 5.6-10.76 13.95-13.7 18.2-1.15 1.63-1.84 2.65-1.84 2.65l-6.45-.94s-6.94-10.6-6.8-10.9l5.48-11.65 2.1-2.44 6.57-7.7 3-3.5s22.32 7.2 16.5 11.42z"/><path d="M101.02 761.04c-1.14 1.64-1.83 2.66-1.83 2.66l-6.45-.94s-6.94-10.6-6.8-10.9l5.48-11.65 2.1-2.44.67.12h1.63c-5.74 6 .43 19.2.43 19.2s2.68.26 4.76 3.96z" opacity=".1"/><path fill="#c17174" d="M93.83 774.5s-4.3 9.25-6.6 14.57l-1.47 9.17a9 9 0 0 1-.73 2 10.12 10.12 0 0 1-8.78 5.55 3 3 0 0 1-.42 0c-7.82-.22-10.3-22.9-10.3-22.9s1.2-43.23 3.43-46a2.2 2.2 0 0 1 1.13-.6 24.4 24.4 0 0 1 6.84-.14c7.07.5 16.16 2.25 16.16 2.25h1.63c-5.75 6 .42 19.2.42 19.2s2.75.27 4.9 4.13l-6.22 12.76z"/><circle cx="84.38" cy="761.65" r=".94" fill="#fff" opacity=".25"/><circle cx="83.92" cy="769.13" r=".94" fill="#fff" opacity=".25"/><path fill="#c17174" d="M84.4 800.08a10.1 10.1 0 0 1-8.8 5.55 2.84 2.84 0 0 1-.4 0c-7.82-.2-10.3-22.9-10.3-22.9s1.2-43.22 3.42-46a2.2 2.2 0 0 1 1.13-.6 24.4 24.4 0 0 1 6.9-.18c-.14 7.76-.5 32.32 0 34.75s4.93 22.84 8.04 29.38z"/><path fill="#fff" d="M84.4 800.08a10.1 10.1 0 0 1-8.8 5.55 2.84 2.84 0 0 1-.4 0c-7.82-.2-10.3-22.9-10.3-22.9s1.2-43.22 3.42-46a2.2 2.2 0 0 1 1.13-.6 24.4 24.4 0 0 1 6.9-.18c-.14 7.76-.5 32.32 0 34.75s4.93 22.84 8.04 29.38z" opacity=".25"/><path fill="#c17174" d="M75.2 805.64c-7.82-.2-10.3-22.9-10.3-22.9s1.2-43.22 3.42-46a2.2 2.2 0 0 1 1.13-.6c1.64 2.45 3.08 7.84 1.78 19.73-2.44 22.5.5 23.92.5 23.92s3.65 19.12 3.47 25.84z"/><path d="M75.2 805.64c-7.82-.2-10.3-22.9-10.3-22.9s1.2-43.22 3.42-46a2.2 2.2 0 0 1 1.13-.6c1.64 2.45 3.08 7.84 1.78 19.73-2.44 22.5.5 23.92.5 23.92s3.65 19.12 3.47 25.84zm163.63-306.06a9.12 9.12 0 0 1-3.35 1.27c-4.37.13-8-11.7-8-11.7s1.24-1.27 3.22-3c1.43 3.2 5.37 11.83 8.13 13.43z" opacity=".1"/><path fill="#9f9eff" d="M210.8 495.32s3.6.25 5.9-1.3 12.22-5.78 12.48-8.6c0 0 5.9 14.4 9.26 14.9 0 0-10.3 8.1-11.06 10.7l-20.84 8.86z"/><path d="M210.8 495.32s3.6.25 5.9-1.3 12.22-5.78 12.48-8.6c0 0 5.9 14.4 9.26 14.9 0 0-10.3 8.1-11.06 10.7l-20.84 8.86zm-91.2 242.66a32.8 32.8 0 0 0-4.87 4.87c-7.76-3.25-12.76-9.88-14.67-12.8l3-3.48s22.36 7.2 16.53 11.4z" opacity=".1"/><path fill="#5e5a6b" d="M156.3 665s-12.6 16.8-17.2 18.7l-38.88 43.9s7.37 13.55 20.92 15.78c0 0 7.37-2.92 10.12-9.43l24.35-24.87z"/><path d="M156.3 665s-12.6 16.8-17.2 18.7l-38.88 43.9s7.37 13.55 20.92 15.78c0 0 7.37-2.92 10.12-9.43l24.35-24.87zm-38.12 56.3a54.84 54.84 0 0 0 11.45 0c6.8-.64 1.67 3.47-11.45 0zm-3.08 4.37s9 5.15 12.47 2.57-3.35 2.48-12.48-2.57zm52.5 36.13a20.15 20.15 0 0 0-.47 4.1c-6.95 6.3-15.32 4.36-20.55 2.06 0-3.87-.06-6.57-.06-6.57s23.5-10.3 21.1.4z" opacity=".1"/><path fill="#5e5a6b" d="M209.28 538.1l-.25 4.75-2.1 39.84s-1.7 8.9-1 26.06l-9.6 44.24s-5 18.35-6.52 26.75l-6.33 11s1.2 9.43-2.23 12.7l-3.6 8.74s-5.32 29.48-7 32.4l-1.7 18.33c-11.1 13.23-27.4 1.23-27.4 1.23l.18-41.33s4.63-38.07 8.06-43.4l3.43-19.88-1.52-34s-1.22-3.6-.17-5.66l-2.93-7.73c-9.6-11.66-11-37.9-8.18-43l11.1-25.72 11.44-6.72 20.73.62z"/><path d="M160.5 740.2s2.7 9.4 4.9 10.42l-4.9-10.4zm3.73-31.25s7 5.55 10 5.53l-10-5.53z" opacity=".1"/><path fill="#ecb4b6" d="M206.54 476.8v11.36l-7.47-3.22-7.45-3.2-16.2-15.96s-12.83-8.33-19.7-15.92c-3.9-4.33-5.88-8.42-2.43-10.57a21.82 21.82 0 0 0 4.48-3.95 74.1 74.1 0 0 0 8.94-13.2l.32-.57c3.34-6.13 5.55-11.36 5.55-11.36s9.38 3 15.43 7.28l1.4 1c3.36 2.77 5.04 6 1.93 9.16a25 25 0 0 0-2.2 2.65 20.7 20.7 0 0 0-1.4 2.18c-.17.33-.35.67-.5 1a23.06 23.06 0 0 0-2.07 13.73z"/><path fill="#464353" d="M205.17 396c.4.68.93 1.26 1.3 1.95a9.4 9.4 0 0 1 .56 4.8 27 27 0 0 0 .5 7.67c.53 2.25 1.52 4.43 1.6 6.75.1 3.28-1.6 6.3-3.24 9.13a6.6 6.6 0 0 0 4.7-2.2 4.55 4.55 0 0 1-.86 4.24c2.7-.12 5-2.24 6-4.73a16.5 16.5 0 0 0 .77-8 54.4 54.4 0 0 1-.57-8.04 29.23 29.23 0 0 0 .23-4.38c-.25-2.92-2-5.44-3.76-7.8l-3.46-4.74a2.5 2.5 0 0 0-1-.92c-3.3-1.4-3.7 4.68-2.77 6.3z"/><path d="M191.36 427.66a25 25 0 0 0-2.2 2.65 20.7 20.7 0 0 0-1.4 2.18c-.17.33-.35.67-.5 1a26.94 26.94 0 0 1-20.22-10.92l-.32-.45.32-.57c3.34-6.13 5.55-11.36 5.55-11.36s9.38 3 15.43 7.28l1.4 1c3.36 2.82 5.04 6.02 1.93 9.2z" opacity=".1"/><path fill="#ecb4b6" d="M215.78 405.5a27 27 0 0 1-22.1 26.56 28.26 28.26 0 0 1-4.9.44h-1.01a27 27 0 1 1 28-27z"/><path d="M192.3 472.25s13.6 7.68 10.12 1.2l-17.74-26.24 20.15 25.96s12.86 17.66 5.83 29.84c0 0-1 10.12.17 12.52l-.35 28s-4.8-4.46-7.37-3.6l-20.74 2.4zm16.98 65.85l-.25 4.75c-1.63-1.2-3.9-2.5-5.4-2-2.58.86-20.76 2.4-20.76 2.4l.84-5.9z" opacity=".1"/><path fill="#464353" d="M192.82 472.25s13.6 7.68 10.12 1.2l-17.74-26.25 20.14 25.96s12.86 17.66 5.83 29.84c0 0-1 10.12.17 12.52l-.34 28s-4.8-4.46-7.37-3.6l-20.76 2.4z"/><path d="M200.1 485.4c-.8 8.25-4.2 18-4.2 18s-2.4 24.37-5.48 31.57-1.72 17.15-3.43 35.5c-.63 6.6-2.76 11.14-5.63 14.2-4.72 5-11.46 6.1-16.78 5.78-.45 0-.86-.05-1.28-.1-8.57-.85-16.8-42.18-16.8-42.18s-3.94-35.15-2.4-39.95-1.54-32.25-2.57-38.25c-.66-3.8 1.3-10 2.83-14.06.9-2.33 1.62-3.94 1.62-3.94s2.92-9.26 7.72-14.06a7 7 0 0 1 5.1-2.13 12.56 12.56 0 0 1 6.34 2l.22.14s31.22 31.9 34.13 39.28c.82 2.1.9 5.05.6 8.23z" opacity=".1"/><path fill="#9f9eff" d="M199.07 484.9c-.8 8.23-4.2 18.05-4.2 18.05s-2.4 24.35-5.48 31.55-1.73 17.15-3.44 35.5c-.62 6.6-2.75 11.15-5.62 14.2-4.72 5-11.46 6.1-16.78 5.8l-1.26-.1c-8.58-.86-16.8-42.2-16.8-42.2s-3.95-35.15-2.4-39.95-1.55-32.24-2.58-38.25c-.66-3.8 1.3-10 2.83-14.06.9-2.33 1.62-3.94 1.62-3.94s2.92-9.26 7.72-14.06a7.08 7.08 0 0 1 5.08-2.14 12.62 12.62 0 0 1 6.35 2 1.77 1.77 0 0 1 .22.15s31.22 31.9 34.13 39.27c.8 2.05.9 5 .6 8.17z"/><path d="M164.1 610.43s-7.08 6.3-9.52 6l9.52-6zm1.84 6.05s-7.46 3.47-9.7 4 6.86-4.9 9.7-4zm28.9-94.68s11.06.14 12.73 3.6-9.13-5-12.73-3.6zm-1.54 6.06s8.48 1.8 11.05 3.85l-11.06-3.84zm-14.28-20.96s-1 34.85-4.82 39.35l4.82-39.36zm-9.52 98.5s-7.06 30.76 7.14 32.68l9.84-35z" opacity=".1"/><path fill="#ecb4b6" d="M168.94 604.9s-7.06 30.74 7.15 32.67l9.82-35z"/><path d="M215.6 402.5a10.08 10.08 0 0 1-1-1.86c-1.88-3.93-6.74-2-10.3-.13-.63.83-1.27 1.64-1.9 2.46a15.25 15.25 0 0 0-2.18 3.35 25.93 25.93 0 0 0-.9 3c-.5 1.76-1.22 3.42-1.87 5.1a59.35 59.35 0 0 0-3.8 17.66 28.26 28.26 0 0 1-4.9.44h-.13v-.13c.18-.68.33-1.37.47-2.06a35.75 35.75 0 0 0 .26-11.8v-.25c-.13-.88-.3-1.75-.37-2.63l-1 1.83c-2.16 4-4.42 8-8.48 9.75a17.38 17.38 0 0 1-5.15 1.17 28.8 28.8 0 0 0-6.44 1.07 4 4 0 0 0-1.87 1.12 5.55 5.55 0 0 0-.94 2.82 22.5 22.5 0 0 1-1 3.9 34.2 34.2 0 0 1-8.4 12.53l-.94.92a17.23 17.23 0 0 1-5.55 3.84 17 17 0 0 1-5.9.88c.9-2.33 1.63-3.94 1.63-3.94s2.92-9.26 7.72-14.06a7.08 7.08 0 0 1 5.1-2.14 75.2 75.2 0 0 0 9.25-13.77 27 27 0 1 1 48.57-19z" opacity=".1"/><path fill="#464353" d="M217.33 381.44c-1.6-1.78-3.85-2.82-6-3.85a4.5 4.5 0 0 1-1.95-1.43 5.94 5.94 0 0 1-.6-2.45c-.75-5.22-5.6-8.83-10.44-10.95-6.22-2.72-13.7-3.9-19.66-.65-2.9 1.57-5.2 4.05-7.8 6.05-3.33 2.55-7.15 4.33-10.7 6.54s-6.9 5-8.6 8.87c-2.6 5.9-.64 12.68-.3 19.12.5 10.14-3.63 20.76-11.83 26.76a10.32 10.32 0 0 0-2.6 2.27 2.86 2.86 0 0 0-.2 3.24c.4.56 1.08.87 1.53 1.4.94 1.07.75 2.7.38 4.07a25.47 25.47 0 0 1-6.87 11.72c.13 1.06 1.4 1.47 2.46 1.63a56.1 56.1 0 0 0 8.4.6 14.05 14.05 0 0 0 11.72-4.72c5-4.7 9.23-10.58 10.36-17.33a5.7 5.7 0 0 1 .94-2.83 4.16 4.16 0 0 1 1.87-1.12c3.73-1.3 8-.66 11.6-2.23 4.67-2 7-7 9.44-11.6.07.9.23 1.77.37 2.64a35.75 35.75 0 0 1-.7 14.13c-.67 2.62-1.64 5.2-1.57 7.9.05 2 2.08 12.45 4.75 9.32s1.7-10 1.7-13.93a59.63 59.63 0 0 1 3.9-21.24c.63-1.7 1.36-3.36 1.85-5.1a28 28 0 0 1 .9-3 15.92 15.92 0 0 1 2.18-3.35l1.9-2.45c3.57-1.88 8.43-3.8 10.32.13.72 1.52 1.1 3.2 3 1.73 1.12-.88 1.48-2.6 1.77-3.9 1.22-5.43 2.2-11.84-1.54-16z"/><path d="M181.14 475.86c-.73-18.48-26.58-22.3-32.6-4.82l-.14.35c-3.94 11.83-2.22 41.8-2.22 41.8s.5 20.1 2.4 26.8 7.2 25.88 7.2 29 4.93 14.9 7 15.77 3.12 7.54 3.63 8.74l2.06 16.82s19.38-1.2 19.72-4.3l-4.24-18.18s-3.4-6.18-3.85-11.15-3.2-7.2-2.67-10.64-1.55-5.15-1.55-7.38l-1.54-8.23s-3.26-2.57-2.74-5.66-4.63-9.27-3.26-11.5l1.7-7.72s1.7-24.7 2.9-31.42l8.23-17.5s0-.26-.03-.8zm-.8 108.34c-4.72 5-11.46 6.1-16.78 5.8-.62-2.35-1.52-5.22-2.83-5.77-2.08-.85-7-12.68-7-15.77s-5.32-22.3-7.2-29l-2.4-26.8s-1.72-30 2.23-41.8c0-.1.07-.23.12-.35 6-17.46 31.88-13.64 32.6 4.83v.85s-7 10.8-8.22 17.5l-2.92 31.4s-.35 5.48-1.72 7.7 3.77 8.4 3.26 11.5l2.74 5.66s1.54 6 1.54 8.23 2.06 3.94 1.55 7.37 2.24 5.66 2.68 10.64a27.66 27.66 0 0 0 2.36 8.03z" opacity=".1"/><path fill="#9f9eff" d="M180.1 475.34c-.72-18.47-26.57-22.3-32.6-4.82l-.12.36c-3.95 11.83-2.23 41.8-2.23 41.8s.5 20.1 2.4 26.8 7.2 25.9 7.2 29 4.93 14.9 7 15.76 3.12 7.55 3.63 8.75l2.05 16.8s19.38-1.2 19.72-4.3l-4.3-18.17s-3.4-6.17-3.83-11.17-3.18-7.2-2.66-10.63-1.55-5.14-1.55-7.37l-1.53-8.23s-3.26-2.58-2.74-5.66-4.63-9.26-3.26-11.5l1.7-7.7s1.73-24.7 2.93-31.4l8.23-17.5s0-.28-.02-.83z"/><path d="M148.28 522.84c.5-.5 10.3-11.32 13.37-7.46l-13.37 7.46zm.9 8.32c.38-.4 9.77-.77 12.1-6l-12.1 6zm-10.7-94.8a2.7 2.7 0 0 1 .5.94 4 4 0 0 0-.5-3.5c-.46-.53-1.13-.85-1.55-1.4l-.08-.15a2.67 2.67 0 0 0 .08 2.72c.42.56 1.1.87 1.55 1.4zm13.09-33.33v-2.92c-.18-3.48-.83-7.08-1-10.58-.2 4.3.76 8.8 1 13.17v.33zm40.08 42.97c-2.38 2.78-4.25-5.25-4.66-8.4a13.1 13.1 0 0 0-.1 1.65c.06 2 2.08 12.44 4.75 9.3 1.8-2.1 2-5.7 1.88-9.05-.1 2.5-.53 4.9-1.88 6.5zm-2.48-28.78a34.58 34.58 0 0 1 .37 4.07 35.1 35.1 0 0 0-.37-6.65c-.13-.88-.3-1.75-.38-2.63-2.48 4.6-4.77 9.55-9.45 11.58-3.63 1.58-7.86.95-11.6 2.24a4.2 4.2 0 0 0-1.87 1.12 5.7 5.7 0 0 0-.93 2.82c-1.14 6.76-5.38 12.63-10.37 17.33a14.1 14.1 0 0 1-11.73 4.74 56 56 0 0 1-8.38-.6 5.7 5.7 0 0 1-1.26-.34c-.38.44-.8.87-1.2 1.27.13 1.06 1.42 1.47 2.47 1.63a56 56 0 0 0 8.38.6 14.05 14.05 0 0 0 11.73-4.7c5-4.72 9.23-10.6 10.37-17.34a5.7 5.7 0 0 1 .93-2.83 4.2 4.2 0 0 1 1.87-1.12c3.74-1.28 8-.65 11.6-2.22 4.68-2 7-7 9.44-11.6.07.9.24 1.77.37 2.64zm30.03-22.35c-.3 1.3-.67 3-1.78 3.88-1.88 1.47-2.26-.2-3-1.7-1.9-3.95-6.75-2-10.3-.14l-1.92 2.46a15.25 15.25 0 0 0-2.17 3.35 25.93 25.93 0 0 0-.9 3c-.5 1.75-1.22 3.42-1.87 5.1a59.77 59.77 0 0 0-3.93 21.26v1.05a59.75 59.75 0 0 1 3.9-19.72c.66-1.7 1.38-3.36 1.87-5.1a25.93 25.93 0 0 1 .9-3 15.5 15.5 0 0 1 2.18-3.35l1.9-2.45c3.57-1.88 8.43-3.8 10.32.13.73 1.52 1.1 3.2 3 1.73 1.1-.88 1.48-2.6 1.77-3.9a33.84 33.84 0 0 0 1-9.2 44.15 44.15 0 0 1-.98 6.64z" opacity=".1"/><path fill="#464353" d="M242.58 492.23l.53.36a2.12 2.12 0 0 1-.54-2.96l23.84-34.6a2.12 2.12 0 0 1 3-.54l-.53-.37a3.4 3.4 0 0 1 .87 4.74l-22.42 32.5a3.4 3.4 0 0 1-4.74.86z"/><path fill="#9f9eff" d="M269.34 454.43l.4.28-26.22 38.13-.4-.28a1.74 1.74 34.56 0 1-.45-2.42l24.25-35.25a1.74 1.74 34.56 0 1 2.42-.45z"/><rect width=".43" height="3.77" x="325.83" y="493.97" fill="#464353" rx=".17" ry=".17" transform="translate(277.8 -132.29) rotate(34.56)"/><path fill="url(#260790a6-e20a-41bb-b8f2-dd07a6c5b8a1)" d="M980.48 422.53a4.58 4.58 0 0 0 .3-1.66l.63-.3c-.3.65-.6 1.3-.92 1.96z" transform="translate(-61.06 -34.84)" opacity=".1"/><path fill="url(#30ee0851-edd0-42ae-8888-8b7c338419cd)" d="M1009.94 607.31c0-.3-.1-.6-.16-.9-.67-2.77-1.42-6-2.08-9 .32 1.43 1.42 6.22 2.33 10z" opacity=".1"/><path fill="url(#74d52e99-55a9-4334-8e8a-d8672bc26f42)" d="M911.58 253.64l.3-.2.04-.04z" opacity=".1"/><path fill="url(#41ee2074-706a-405d-9675-ec670327ec87)" d="M1073.62 663.4c-1-1.34-1.65-5.9-1-7.6s1.56-19.46.82-20.78-4.8-3.18-4.85-3.2l-.2-.82-.22-1.1a32.36 32.36 0 0 0 4.44-5.27 15.28 15.28 0 0 1-6.28-12.6c0-8.62-9.4-36.25-9.4-36.25s-5.38-7.74-3.36-11.5l.22-14.8 4.26-6.86s.67-6.63 1.34-13.48-4-14.37-1.8-17.68l-.9-19.88s-2-21.05-5.26-28.1v-.05a59.86 59.86 0 0 1-1.42-9.14l-.1-2.4c5.28-9.47 13-23.53 12.74-24.77-.34-1.88 1.8-8.18 1.8-8.18l1.67-15.47s2.7-24.87 2.9-39.23l-7.83-19.9a6 6 0 0 0-5.54 1.2 5.7 5.7 0 0 1 2.46-1.52l.57-.12a5.25 5.25 0 0 1 2.45.43c-.1-.1-.46-.33-1-.67a4.8 4.8 0 0 0 1.35-.4 3.62 3.62 0 0 0 1.66-1.75 4.16 4.16 0 0 0 .77-1.37h-.17a4.88 4.88 0 0 0 .28-2 9.16 9.16 0 0 0-2-4.5c-4.54-6-12.1-9.6-15.64-16.22-3-5.7-2.5-12.56-1.5-18.92s2.4-12.9.85-19.17a25.38 25.38 0 0 0-10-14.1 40.63 40.63 0 0 0-16.34-6.64c-2.72-.5-5.6-.82-8.24.06-2 .68-3.78 2-5.77 2.83-4.53 1.83-9.73.73-14.47 1.9a19.5 19.5 0 0 0-10.7 7.63 30.3 30.3 0 0 0-2.76 4.65 48.9 48.9 0 0 0-3.28 8.25c-.54 1.7-.25 2.76-.48 3.68a3.45 3.45 0 0 1-.8.7 4.3 4.3 0 0 0-1.22 1.75 5.9 5.9 0 0 0 0 5.84 8.7 8.7 0 0 0 .18 2.3 20.64 20.64 0 0 0 1.24 3.2 53.1 53.1 0 0 1 1.4 38.38c-.57.27-1.15.55-1.76.86 0 0-.38.3-1 .88-2.65 2.52-9.62 10.15-9.08 20.56.67 12.82 0 31.16 0 31.16s-1.55 12.58-.65 16.78c-.25 3.88 0 11 4.55 15.66a7.37 7.37 0 0 0 8.43 1.43c2.15-1 4.54-2.6 5.45-4.57-1.6 3.23-3.53 6.23-5.92 7.32-3.35 1.55-2.52 8.85-2.52 8.85s-3.74 4.42-3.07 6.4-5.36 4.2-2.23 7.08c.18.17.47.4.84.72a20.1 20.1 0 0 0-6 11 160.74 160.74 0 0 1-4.14 19.1 1.46 1.46 0 0 0-.85 2.46 8 8 0 0 1-1.22 2.3 42.3 42.3 0 0 0-4.07 5.13 1.46 1.46 0 0 0-1 1.38 1.27 1.27 0 0 0 0 .28c-1.2 2.26-1.84 4.58-.74 6.25 2.46 3.77 2.9 16.6 2.9 16.6s-.9 11.48 1.58 15.24 4.48 27.63-.9 34.7c0 0-1.8 16.36-1.12 17.9s-2.9 5.53-1.8 8.85 6.5 64.3 5.83 66.74c0 0 1.86-.27 4.5-.48-.05.44-.1.9-.18 1.35-.16 1.1-.34 2.27-.55 3.4 0 .25-.08.48-.13.7-1-1.48-2.55-2.28-4.66-.5l-3.13 5.6s-4.58 8.73-9.56 9.5c-3.6.56-7.08 2.86-8.77 4.1-.65.5-1 .82-1 .82s-6.05 5 1.9 7.13a55.37 55.37 0 0 0 6.28 1.2 76.2 76.2 0 0 0 24.7-.64 41.27 41.27 0 0 1 6-.66c7.74-.28 10.37-2.2 10.37-2.2s.78-8.08 0-8.86a2.17 2.17 0 0 1-.3-.44c-1.24-2.14-4.47-10.84-4.47-10.84s-.36 0-.8.54l-.16-.7a48.7 48.7 0 0 1-.94-7.35v-1.34a6.86 6.86 0 0 1 2.4 1.28s.9-6.64 0-11.28.7-23 2.7-27.63 2.47-22.32 1.8-24.1c0 0 3.58-15.68 2.23-18.78l5.77-31.64s3.58-6.85 2.7-7.73c0 0 5.8-3.76 5.14-6.63l5.37-6.2s5.4 13 7.18 15 1.86 14.82 4.07 17.47 5.1 16.6 8 20.35 14.56 13.7 16.36 25c0 0 10.53 16.14 10.08 21.22-.18 2.14 1.9 5 5.25 6.36l-.16 1.27-.42 3.53s-3.17.36-3.7 7.28-.37 14.53-1.86 16.52a22.78 22.78 0 0 0-2.75 4.2c-1.66 3.6-1.73 8.23 8.3 9.72 15.34 2.3 19.08-6.2 19.08-6.2a25.62 25.62 0 0 0 1.2-5 2.88 2.88 0 0 0-.2-1.75z" transform="translate(-61.06 -34.84)"/><path fill="#3e373a" d="M911.6 268.6a19.9 19.9 0 0 0 1.2 3.14 53 53 0 0 1 .66 39.87c3.6-.22 7.17.36 10.76.64s7.3.23 10.62-1.17 6.24-4.4 6.72-8.12c.66-5-3-9.37-6.2-13.17s-6.4-8.15-7.36-13.2c-1.06-5.55.45-12.06-3.06-16.38a3.48 3.48 0 0 0-1.16-1c-1.9-.86-6.8-.83-8.7.24-2.9 1.64-4.14 5.98-3.47 9.16z"/><path fill="#e7c7ca" d="M1010.94 630.74a25.26 25.26 0 0 1-1.18 4.9s-3.63 8.37-18.58 6.1c-9.76-1.46-9.7-6.04-8.07-9.58a22.8 22.8 0 0 1 2.67-4.15c1.45-2 1.3-9.44 1.82-16.27l3.58-7.2.2 7.7c5.8-7.63 9.88 1.3 9.88 1.3s8.27.2 7.26-4.06c-1.08-4.5-2.7-11.67-2.7-11.67s4 1.86 4.74 3.17-.14 18.83-.8 20.5 0 6.18 1 7.5a2.84 2.84 0 0 1 .18 1.77zm0 0a25.26 25.26 0 0 1-1.18 4.9s-3.63 8.37-18.58 6.1c-9.76-1.46-9.7-6.04-8.07-9.58 1.38 2 4.47 3.6 11.1 3 10.14-.8 14.53-2.5 16.74-4.42z"/><path d="M1010.94 630.74a25.26 25.26 0 0 1-1.18 4.9s-3.63 8.37-18.58 6.1c-9.76-1.46-9.7-6.04-8.07-9.58 1.38 2 4.47 3.6 11.1 3 10.14-.8 14.53-2.5 16.74-4.42z" opacity=".1"/><path fill="#be6f72" d="M1008.15 609.02a8.14 8.14 0 0 1-5.7 7.77 11 11 0 0 1-9.58-1.47 5.65 5.65 0 0 1-2.37-5.28l.23-1.93.84-7 1.15-9.7s12.38-6.32 11.56-3.93c-.3.88.37 4.88 1.36 9.55.7 3.33 1.54 7 2.3 10.12a8.2 8.2 0 0 1 .2 1.85z"/><path d="M989.74 608.5s10.72-12.6 19.5 1.14l-1.47 8.8h-18z" opacity=".1"/><path fill="#e7c7ca" d="M989.74 609.36s10.72-12.6 19.5 1.15l-1.47 8.8h-18z"/><circle cx="1003.67" cy="616.05" r="1.09" fill="#4b4b5b"/><circle cx="989.73" cy="614.3" r="1.09" fill="#4b4b5b"/><circle cx="999.91" cy="623.44" r="1.09" fill="#4b4b5b"/><circle cx="990.4" cy="622.15" r="1.09" fill="#4b4b5b"/><circle cx="1002.02" cy="619.97" r="1.09" fill="#4b4b5b"/><circle cx="989.73" cy="618.23" r="1.09" fill="#4b4b5b"/><circle cx="998.82" cy="627.49" r="1.09" fill="#4b4b5b"/><circle cx="990.4" cy="626.08" r="1.09" fill="#4b4b5b"/><path fill="#be6f72" d="M917.94 643.93l-14.83 5s-7.84-7.85-5.66-10.25c.93-1 1.74-4.43 2.36-8 .2-1.12.38-2.27.54-3.36.5-3.55.8-6.53.8-6.53s17.24-8.3 14.4 0a20.56 20.56 0 0 0-.8 7.24 48.33 48.33 0 0 0 .9 7.26 68.5 68.5 0 0 0 2.3 8.63z"/><path d="M917.94 643.93l-14.83 5s-7.84-7.85-5.66-10.25c.93-1 1.74-4.43 2.36-8a15.4 15.4 0 0 1 1.73 4.84c12.82 7 13 2.83 13 2.83a7.7 7.7 0 0 1 1.1-3.05 68.5 68.5 0 0 0 2.3 8.63z" opacity=".1"/><path fill="#e7c7ca" d="M921.2 655.38s-2.58 1.9-10.1 2.18a40.87 40.87 0 0 0-5.87.66 73 73 0 0 1-24 .65 50.7 50.7 0 0 1-6.12-1.2c-7.73-2.13-1.85-7-1.85-7s.38-.32 1-.8c1.64-1.24 5-3.5 8.53-4 4.85-.78 9.32-9.4 9.32-9.4l3-5.5c4.74-4.1 6.38 5.5 6.38 5.5 12.82 7 13 2.84 13 2.84.7-3.75 2-3.75 2-3.75s3.2 8.6 4.35 10.74a2.17 2.17 0 0 0 .3.43c.8.7.06 8.65.06 8.65zm0 0s-2.58 1.9-10.1 2.18a40.87 40.87 0 0 0-5.87.66 73 73 0 0 1-24 .65 50.7 50.7 0 0 1-6.12-1.2c-7.73-2.13-1.85-7-1.85-7s.38-.32 1-.8c4.37 1 11.84 2.56 16.54 2.27 7-.43 13.73-1.56 13.73-1.56s12-3.77 16.4-4.33a2.17 2.17 0 0 0 .3.44c.7.72-.04 8.68-.04 8.68z"/><path d="M921.2 655.38s-2.58 1.9-10.1 2.18a40.87 40.87 0 0 0-5.87.66 73 73 0 0 1-24 .65 50.7 50.7 0 0 1-6.12-1.2c-7.73-2.13-1.85-7-1.85-7s.38-.32 1-.8c4.37 1 11.84 2.56 16.54 2.27 7-.43 13.73-1.56 13.73-1.56s12-3.77 16.4-4.33a2.17 2.17 0 0 0 .3.44c.7.72-.04 8.68-.04 8.68z" opacity=".1"/><circle cx="901.44" cy="640.01" r="1.09" fill="#4b4b5b"/><circle cx="895.2" cy="643.06" r="1.09" fill="#4b4b5b"/><circle cx="898.55" cy="641.5" r="1.09" fill="#4b4b5b"/><circle cx="891.68" cy="644.86" r="1.09" fill="#4b4b5b"/><path d="M915.5 620.8a20.56 20.56 0 0 0-.8 7.26c-3.87-1.3-10.2-1.07-14.4-.72.52-3.55.82-6.53.82-6.53s17.23-8.27 14.4 0zm90.14-23.8c-5.36 5.26-10.5 5.6-14.07 4.08l1.15-9.7s12.38-6.32 11.56-3.93c-.34.9.37 4.9 1.36 9.56z" opacity=".1"/><path fill="#4b4b5b" d="M911.6 418s-8.52 4.78-10 14.16-4.16 21.38-6.12 23.56-8.07 9.16-5.67 12.86l2.84 16.36s-.87 11.34 1.53 15.05 4.36 27.25-.87 34.23c0 0-1.75 16.14-1.1 17.67s-2.83 5.45-1.74 8.72 6.33 63.47 5.67 65.87c0 0 16.58-2.4 20.94 1.5 0 0 .87-6.53 0-11.1s.66-22.7 2.62-27.27 2.4-22 1.73-23.78c0 0 3.5-15.48 2.18-18.53l5.65-31.16s3.5-6.76 2.62-7.63c0 0 5.67-3.7 5-6.55l5.23-6.1s5.24 12.86 7 14.83 1.8 14.62 4 17.24 5 16.35 7.82 20.06 14.17 13.52 15.92 24.65c0 0 10.25 15.92 9.8 20.93s11.57 14.18 23.13-2.83a15.13 15.13 0 0 1-6.1-12.43c0-8.5-9.16-35.77-9.16-35.77s-5.23-7.63-3.27-11.34l.22-14.6 4.15-6.77s.65-6.54 1.3-13.3-3.92-14.18-1.74-17.45l-.87-19.6s-2.73-28.2-6.77-29.9l-75.94-11.6z"/><path fill="#be6f72" d="M931.46 378.5s-4.48.52-9.92 1c-7.87.75-17.75 1.5-18.92.73-2-1.3 0-17.9 0-17.9s.68-18.1 0-30.74c-.54-10.27 6.26-17.8 8.84-20.3.6-.56 1-.86 1-.86l2.18 1.74 12.43 21.16zm48.61-69.56l-12.2 7.4-20.08 15.28s-20.73-10.9-15.5-17.23a9.75 9.75 0 0 0 1.92-4.3c1.58-7.27-1.9-17.74-1.9-17.74s27.28-36.86 25.72-8.28c-.62 11.48 2.8 17.74 7.14 21.14 6.45 5.05 14.9 3.72 14.9 3.72z"/><ellipse cx="942.59" cy="276.16" rx="25.26" ry="26.76" opacity=".1"/><ellipse cx="942.59" cy="275.29" fill="#be6f72" rx="25.26" ry="26.76"/><path d="M980.07 308.94l-12.2 7.4-20.08 15.28s-20.73-10.9-15.5-17.23a9.75 9.75 0 0 0 1.92-4.3c22.86 19.55 29.8-.67 31-4.88 6.4 5.05 14.85 3.72 14.85 3.72zm-48.61 69.56s-4.48.52-9.92 1c-.2-4.7-.92-10-.8-13.23.23-5.45.23-6.1-1.52-9.16s-1.52-5.44-1.3-9.37c.2-3.76-.8-4.52-4.33-10.53l-.48-.8c-1.74-3-2.24-8.42-2.26-13.53a.06.06 0 0 0 0-.06c0-1.2 0-2.4.07-3.54v-.1c.13-3.45.4-6.4.56-7.8.6-.57 1-.87 1-.87l2.17 1.73 12.43 21.16z" opacity=".1"/><path fill="#e7c7ca" d="M998.6 314.16h-.04c-7.9-3.4-12.38 13.75-13.58 19.15-.22 1-.33 1.6-.33 1.6s.14 1.45.3 3.75c.6 7.72 1.62 25-.74 29.18a7.17 7.17 0 0 0-.55 1.4c-.74 2.56-.65 6.4-.27 10.12a99.73 99.73 0 0 0 1.93 11.38s5.24 13.3 3.06 22a32.26 32.26 0 0 0-.64 9.9 59.4 59.4 0 0 0 1.38 9c.2.86.35 1.35.35 1.35q-4.93 1.7-9.65 2.8a93.72 93.72 0 0 1-18.65 2.53c-29.5.95-49.12-13.18-53.76-17.04-.38-.3-.65-.54-.83-.7-3-2.84 2.84-5 2.18-7l3-6.33s-.8-7.2 2.47-8.72 5.67-6.76 7.5-11.12-.3-15.7-.1-21.15.23-6.1-1.52-9.16-1.52-5.45-1.3-9.38c.2-3.77-.8-4.53-4.33-10.54l-.47-.8c-1.74-3-2.24-8.42-2.25-13.53v-.06c0-1.2 0-2.4.06-3.55v-.06c.2-4.84.67-8.67.67-8.67 17.45-8.96 21.6.36 21.6.36 25.5 22 31.3-5.48 31.3-5.48 13.9-4.75 32.16 8 33.2 8.78z"/><path fill="#be6f72" d="M902.32 376.3s-2.18 11.63 4.13 18.13a7.08 7.08 0 0 0 8.2 1.4c2.1-1 4.46-2.55 5.34-4.5 1.72-3.88-3.72-22.78-17.68-15.04z"/><path d="M984.2 367.82a7.17 7.17 0 0 0-.55 1.4l1-25.5.3-5.08c.6 7.72 1.62 24.98-.74 29.18zm4.16 44.93a32.26 32.26 0 0 0-.64 9.9c-1.4 2.56-2.62 4.73-3.4 6.14l-1 1.73a40.9 40.9 0 0 0-3.55 5.3 10.36 10.36 0 0 0-1.47 4.32c0 3.35-3.38 25.7-19.4 20.15-10.37-3.6-3.76-14.6 2.22-21.94a82.84 82.84 0 0 1 6.38-7s1.85-2.36 3.63-4.82a29 29 0 0 0 3.13-5c.76-2.18 5.8-11.77 5.8-11.77s5-10.58 3.9-15.5c-.6-2.74-.67-9.53-.6-15a99.73 99.73 0 0 0 1.92 11.4s5.26 13.36 3.08 22.08z" opacity=".1"/><path fill="#be6f72" d="M998.6 314.16s7.86 5.46 7.64 19.63l-2.83 38.7-1.63 15.27s-2.07 6.22-1.74 8.07l-17.1 32.94s-5 6.27-5 9.63-3.37 25.7-19.4 20.15l8.6-28.9s6-7.63 6.78-9.8l5.8-11.8s5-10.56 3.9-15.47l-.43-22.72 1.1-27.88.43-7.1s4-23.54 13.9-20.72z"/><path fill="#9f9eff" d="M915.32 366.2l11.9-4.3a5.6 5.6 0 0 1 5.8 1.2l15.8 14.9s.86 2.4-.3 2.3l-18.17-17.14-16.87 5.67a2.8 2.8 0 0 1 1.84-2.62z"/><path fill="#4b4b5b" d="M932.16 386.22l16.35-5.92-18.16-17.12-16.87 5.67 18.7 17.37z"/><circle cx="907.59" cy="433.77" r="1.45" fill="#e7c7ca"/><circle cx="897.7" cy="452.45" r="1.45" fill="#e7c7ca"/><circle cx="976.68" cy="459.24" r="1.45" fill="#e7c7ca"/><circle cx="984.9" cy="485.63" r="1.45" fill="#e7c7ca"/><circle cx="981.7" cy="478.21" r="1.45" fill="#e7c7ca"/><circle cx="978.92" cy="468.72" r="1.45" fill="#e7c7ca"/><circle cx="902.31" cy="442.61" r="1.45" fill="#e7c7ca"/><circle cx="891.93" cy="462.15" r="1.45" fill="#e7c7ca"/><path fill="#464353" d="M998.56 314.16c-7.9-3.4-12.38 13.75-13.58 19.15l-12.4-17.73s-5.08 8.14-21.52 9.37l-20.42-12.5c-2.26-.18-12.47 18.2-16.18 24.8l-.47-.8c-1.75-3-2.25-8.42-2.26-13.53v-.05c0-1.18 0-2.37.06-3.55v-.14c.18-4.84.66-8.67.66-8.67 17.45-8.96 21.6.36 21.6.36 25.5 22 31.3-5.48 31.3-5.48 13.9-4.77 32.16 8.02 33.2 8.78z"/><path d="M901.77 473.6c.22.55 18.54 21.7 25.3 22.8l-25.3-22.8zm13.17-32.44s.2 14.92-4.4 18.3l4.4-18.3zm8.43 5.29s-.44 17.55 6.1 21.7c0 0-12-11.67-6.1-21.7zm-8.07 90.18s-12.22 9-15.6 9.7l15.6-9.7zm-3.05-276.95c-2.63 2.22-1.7 6.82 1 9s6.37 2.48 9.8 2.56c6.63.18 13.36-.2 19.78 1.42a16.13 16.13 0 0 1 7.58 3.88 17.1 17.1 0 0 1 3.95 7.85 43.07 43.07 0 0 1 1.35 13.13c-.16 3-.62 6-.2 8.9a29 29 0 0 0 2.78 7.94 329.7 329.7 0 0 0 16.85 31.25 5.9 5.9 0 0 0 2.2 2.4c1.57.77 3.42 0 5-.77a37.5 37.5 0 0 1-1.55-9.47 4.23 4.23 0 0 0 4.48-1.56 12.55 12.55 0 0 0 2-4.58l2.93-10.12c.9-3.12 2.25-6.7 5.37-7.63a20.3 20.3 0 0 0 3.3-.78 4.22 4.22 0 0 0 2-4.16 9 9 0 0 0-2-4.44c-4.4-5.94-11.77-9.46-15.22-16-3-5.63-2.45-12.4-1.47-18.68s2.34-12.74.83-18.9a25 25 0 0 0-9.7-13.94 39.27 39.27 0 0 0-15.92-6.54c-2.66-.5-5.47-.82-8 .05-2 .68-3.68 2-5.62 2.8-4.4 1.8-9.46.73-14.08 1.88a18.94 18.94 0 0 0-10.4 7.53 40 40 0 0 0-5.46 11.87c-.85 2.77.5 3.88-2 5.4" opacity=".1"/><path fill="#3e373a" d="M912.68 258.8c-2.63 2.23-1.68 6.83 1 9s6.36 2.48 9.8 2.57c6.62.17 13.35-.2 19.77 1.42a16 16 0 0 1 7.58 3.87 17.13 17.13 0 0 1 4 7.84 42.85 42.85 0 0 1 1.34 13.16c-.15 3-.62 6-.2 8.9a28.48 28.48 0 0 0 2.8 7.94 329.7 329.7 0 0 0 16.84 31.25 5.73 5.73 0 0 0 2.2 2.4c1.58.77 3.43 0 5-.77a38 38 0 0 1-1.54-9.47 4.26 4.26 0 0 0 4.48-1.55 12.5 12.5 0 0 0 2-4.6l2.94-10.1c.9-3.13 2.25-6.7 5.37-7.63a19.82 19.82 0 0 0 3.3-.77 4.23 4.23 0 0 0 2-4.16 8.9 8.9 0 0 0-2-4.45c-4.4-5.94-11.78-9.47-15.22-16-3-5.62-2.45-12.4-1.47-18.67s2.33-12.74.83-18.9a25.12 25.12 0 0 0-9.74-13.95 39.22 39.22 0 0 0-15.9-6.54 15.86 15.86 0 0 0-8 .05c-2 .67-3.68 2-5.62 2.8-4.4 1.8-9.47.72-14.08 1.87a18.92 18.92 0 0 0-10.4 7.52 39.92 39.92 0 0 0-5.47 11.87c-.86 2.78.5 3.9-2 5.4"/><path fill="#be6f72" d="M909.94 377.64s20-13.3 25.63-5.13l-17.57 18.22z"/><path fill="#3e373a" d="M916.48 314.42c-.08 1.28-.32 2.85-1 3.1 1.86-.06 3.7 1.3 5.55.9 1.37-.3 2.67-1.64 3.5-3.6a1.64 1.64 0 0 1 .47-.78c.2-.1.4 0 .6.12a58.3 58.3 0 0 1 10 7.57c1 1 2.16 2 3.28 1.5a25 25 0 0 0-2.14-10.5 13.38 13.38 0 0 0-5.72-6.26 17.54 17.54 0 0 0-6.72-1.75 6.58 6.58 0 0 1-2.9-.72c-1-.58-4.15-4.36-4.86-1.6-.35 1.32.1 4.15.1 5.63 0 2.13-.04 4.27-.16 6.4z"/><path d="M979.63 344.94a5.73 5.73 0 0 1-2.2-2.4 327.44 327.44 0 0 1-16.84-31.25 28.48 28.48 0 0 1-2.8-7.94c-.42-2.95 0-5.94.2-8.92a42.83 42.83 0 0 0-1.35-13.14 17.06 17.06 0 0 0-3.94-7.84 16 16 0 0 0-7.57-3.88c-6.42-1.63-13.15-1.25-19.77-1.42-3.44-.1-7.12-.42-9.8-2.56a6.78 6.78 0 0 1-2.24-7.2 4.57 4.57 0 0 1-.56.46c-2.57 2.23-1.62 6.78 1 8.92s6.37 2.47 9.8 2.56c6.63.17 13.35-.2 19.77 1.42a16 16 0 0 1 7.6 3.88 17.1 17.1 0 0 1 3.93 7.84 43.17 43.17 0 0 1 1.35 13.15c-.15 3-.62 6-.2 8.9a28.48 28.48 0 0 0 2.8 7.94 329.7 329.7 0 0 0 16.84 31.25 5.7 5.7 0 0 0 2.2 2.4c1.57.77 3.42 0 5-.77-.14-.44-.26-.88-.37-1.32a4 4 0 0 1-2.84-.1zm-67.16-85.89l.3-.2v-.04zm2.03-2.38l-.28.2.33-.24h-.05c2.07-1.4.87-2.54 1.68-5.2a40.54 40.54 0 0 1 5.32-11.66 25.3 25.3 0 0 0-1.6 2 40.14 40.14 0 0 0-5.46 11.87 18.58 18.58 0 0 0-.43 3.53 4.8 4.8 0 0 1 .5-.5zm86.7 53.37a19.8 19.8 0 0 1-3.3.76 6.42 6.42 0 0 0-3.64 3.23 5.07 5.07 0 0 1 1.9-1 19.94 19.94 0 0 0 3.3-.77 3.7 3.7 0 0 0 1.8-2.22zm-18.1 24.66c0 .75.06 1.5.13 2.26a4.94 4.94 0 0 0 2.6-1.64 7.7 7.7 0 0 0 .85-1.35 3.87 3.87 0 0 1-3.6.73zm-77.97 40.34s5.26-2.13 8.35-1.65" opacity=".1"/><path d="M920.3 399s2.67 4.16 16.17 5.9l-16.17-5.9zm-4.86 15.5s12.15 10.68 31.63 6.76l-31.63-6.76z" opacity=".1"/><path fill="url(#ec884c76-9555-4533-b4b1-fc1ed70dab81)" d="M656.12 303c-.28-.3-.57-.62-.86-.92 2.25-2.55 4.58-5.17 4.56-8.45 0-4-3.56-7-4.88-10.83-1.8-5.13.7-10.63 1.72-16a30 30 0 0 0-6.5-24.66 8.65 8.65 0 0 0-3.8-2.9c-2.34-.74-4.85.3-7.3.6-8.1 1-15.47-6-23.6-5.36a4.43 4.43 0 0 0-1.57.35 6.6 6.6 0 0 0-2.28 2.57c-2.53 3.72-6.78 5.57-11 7.48a5.94 5.94 0 0 0-1.5.68 41.4 41.4 0 0 0-3.7 1.9c-8 4.73-6.8 11.33-2.1 15.4-.93 4.6-5.6 8.62-4.8 13.32.63 3.7 4.47 6.2 5.2 9.88a9.87 9.87 0 0 1-1.17 6.17c-8.92 2.07-19 5.87-19.8 12.58-1.36 11.7-5.48 43.93-5.48 43.93s-4.77 25.83 13.36 13.62l-.23.68a149.67 149.67 0 0 0-6.65 30.45c-.2 1.54-.56 2.75-1.23 3.15-.24.14.24.37 1.3.66-.13.42-.26.85-.37 1.3a123.35 123.35 0 0 0-3.8 23.05 161.17 161.17 0 0 1-2.85 20.54c-4.3 21.6 0 49.3 0 49.3l9.37 44.12 1.6 7.55a11.23 11.23 0 0 0 3.8 2.74 59.35 59.35 0 0 1 1.3 8.22c0 .3 0 .62.07.93a3.9 3.9 0 0 0-2.78 1.74c-3.34 4.68.47 8.44-12.4 17.83-3.34 2.43-4.94 4.64-5.35 6.5a4.4 4.4 0 0 0 2.22 4.77 7.75 7.75 0 0 0 .9.5c.16.07.32.15.5.2l.5.2.5.16.54.14.5.1h.07l.56.1h.05l.5.06h2.76l.57-.06h.07l.5-.07h.15l.55-.1h.06l.52-.13h.14l.55-.16.53-.18.14-.06.54-.2c8.6-3.77 26.25-13.63 26.25-13.63v-1.23a1.77 1.77 0 0 0 0-.23v-.3c-.1-4.1-.5-13.53-2.36-13.16-.65.12-1.08 1-1.53 2.05l-.22-.43c-1.82-3.5-4.45-9.53-4.7-15.4a27.72 27.72 0 0 0 4.05-3.6s-1-4-1.78-8.3c-.7-3.7-1.3-7.56-1.08-9.1.47-3.28-5.73-28.64-5.73-28.64s.65-5.58 1.93-13.33c2.5-15.07 7.4-38.36 14.75-44.95l.5-.43s5.26.94 9.55 30.53l1.25 13.18a75 75 0 0 0 1.8 10.78 57 57 0 0 1 1.2 17.33c-.55 7.77-.78 16.9-.88 23.33-.08 4.84-.08 8.14-.08 8.14a18.46 18.46 0 0 0 2.86 2v4.3a3.6 3.6 0 0 1-1 2.46 6.76 6.76 0 0 0-1.44 2.65c-.83 1.5-1.54 3.95-1.83 7.87-1 12.68-1.43 11.27-1.43 11.27a16.7 16.7 0 0 0-1.08 4.27 7.7 7.7 0 0 0-.05.84v.5a1.15 1.15 0 0 1 0 .2v.71s0 .23.07.34v.14a3.37 3.37 0 0 0 .1.34v.1l.12.3a.56.56 0 0 0 0 .1 2.2 2.2 0 0 0 .18.33l.06.07a3.46 3.46 0 0 0 .22.3l.06.08.3.3.32.26h.06a3.6 3.6 0 0 0 .4.23h.07a3 3 0 0 0 .45.18h.08c.17 0 .34.1.53.15a4.9 4.9 0 0 0 .58.1h1.96l.82-.1c10-1.4 14.8-2.35 14.3-8-.28-3.4-1.1-8.33-1.68-11.72a17.86 17.86 0 0 0-1.65-4.94c0-.27.05-.54.07-.82a17.9 17.9 0 0 0-.56-7l.22-4.1a13.1 13.1 0 0 0 6.46-3.88s.07-3 .28-7.1c.32-6.23 1-14.84 2.1-18.26 1.92-5.64 0-25.36 0-25.36s-7.15-33.82-.47-48.38c5.9-12.84 5.84-25.7.17-38.2a2.23 2.23 0 0 0 .3-.3s-1.42-.95-1-11.75c.38-8.25-2-16.76-3.2-20.33a49.76 49.76 0 0 0 5.6 2c11 3.3 11.93-8.92 11.93-8.92l2.47-18.1 2.83-27.3c.75-2.16 1.8-7.5-3.7-13.8zm-48.5-18.1q0 .46-.07.9a12.37 12.37 0 0 1-.6 2.86 18.67 18.67 0 0 0 .58-3.8zm28.84 66.68c.17.3.33.62.48.9l-1.2-.6a27.1 27.1 0 0 1 2.15-6.4 44.64 44.64 0 0 0 2.9-7.38 74.3 74.3 0 0 0 .43 8.8c.95 7.52-4.77 4.7-4.77 4.7z" transform="translate(-61.06 -34.84)"/><path fill="#7e656a" d="M534.94 214.65c-1.53 1-3.12 2.24-3.67 4-.87 2.84 1.33 5.7 1.54 8.67.4 5.4-5.7 9.86-4.8 15.2.62 3.66 4.37 6.15 5.1 9.8 1.05 5.3-4.7 10-4.25 15.37.24 2.87 2.24 5.3 4.5 7.1a21.93 21.93 0 0 0 11 4.5c-.27-4.62-3.7-8.82-3.1-13.4.4-3.15 2.6-5.72 3.9-8.63 2.24-5.1 1.52-11 .17-16.4s-3.28-10.7-3.38-16.3c-.06-3.35 1.5-8.27.36-11.45-1.36-3.87-4.75-.25-7.36 1.53z"/><path d="M534.94 214.78c-1.53 1-3.12 2.24-3.67 4-.87 2.85 1.33 5.7 1.54 8.68.4 5.4-5.7 9.86-4.8 15.2.62 3.66 4.37 6.15 5.1 9.8 1.05 5.3-4.7 10-4.25 15.37.24 2.87 2.24 5.3 4.5 7.1a21.85 21.85 0 0 0 11 4.5c-.27-4.6-3.7-8.8-3.1-13.4.4-3.14 2.6-5.72 3.9-8.62 2.24-5.08 1.52-11 .17-16.38s-3.3-10.75-3.4-16.32c-.05-3.35 1.52-8.28.37-11.46-1.36-3.86-4.75-.24-7.36 1.54z" opacity=".1"/><path fill="#ffb9b9" d="M539.4 526.4l-4.2 4.2s-14.9 7.9-13-2.8a38.56 38.56 0 0 0 .33-9.63 59.72 59.72 0 0 0-2.65-13.2l14-2.8c-2.32 7.3 1.5 16.5 3.9 21.2.9 1.88 1.62 3.03 1.62 3.03zm31.74-8.47a42 42 0 0 1-.53 4.28s-11.66 7.96-12.57-.92c-.6-5.77.77-8.37 1.8-9.5a3.63 3.63 0 0 0 1-2.42v-10.44l10.24 3.24-.46 8.85a18 18 0 0 1 .54 6.93z"/><path d="M539.4 526.4l-4.2 4.2s-14.9 7.9-13-2.8a38.56 38.56 0 0 0 .33-9.63c3.26-.48 7.13 3.1 7.13 3.1 5.46 7.7 6.93 4.8 8.1 2.1.9 1.88 1.64 3.03 1.64 3.03z" opacity=".05"/><path fill="#8189a6" d="M529.62 522.2s-6.52-6.05-9.78-1.4.46 8.4-12.1 17.7 0 15.38 8.37 11.66l25.63-13.5s0-15.38-2.33-14.92-1.86 11.65-9.78.47z"/><path d="M571.14 517.93a42 42 0 0 1-.53 4.28s-11.66 7.96-12.57-.92c-.6-5.77.77-8.37 1.8-9.5a2.8 2.8 0 0 1 2.86-.28c1.85-.83 3.9.55 5.6 2.34a16.66 16.66 0 0 1 2.84 4.1z" opacity=".05"/><path fill="#8189a6" d="M562.7 512.43s-5.13-2.8-6.07 9.78l-1.4 11.2s-4.65 11.17 5.13 9.77 14.44-2.33 14-7.92c-.28-3.37-1.06-8.26-1.65-11.6a17 17 0 0 0-4.37-8.88c-1.73-1.8-3.78-3.17-5.64-2.34z"/><path fill="#4b4b5b" d="M579.46 452.8s1.86 19.57 0 25.16c-1.13 3.4-1.75 11.93-2.06 18.12-.2 4-.27 7-.27 7-8.85 9.32-19.1 0-19.1 0s0-3.27.08-8.06c.1-6.37.33-15.44.86-23.14a57.22 57.22 0 0 0-1.17-17.18 76.67 76.67 0 0 1-1.8-10.74l-1.23-13.07c-4.2-29.36-9.3-30.3-9.3-30.3l-.5.43c-7.17 6.54-12 29.63-14.4 44.58-1.26 7.7-1.88 13.23-1.88 13.23s6 25.16 5.58 28.42c-.22 1.5.37 5.34 1.06 9 .8 4.22 1.73 8.23 1.73 8.23-11.64 12.58-19.56 2.8-19.56 2.8l-1.56-7.46-9.14-43.75s-4.2-27.48 0-48.9a163.94 163.94 0 0 0 2.78-20.38 123.8 123.8 0 0 1 3.7-22.88q.86-3.3 1.9-6.6a229.88 229.88 0 0 1 34-3c12.35 0 24.13 1.7 27.52 7.7q1.18 2.07 2.14 4.15a44.62 44.62 0 0 1 .2 38.7c-6.57 14.4.42 47.94.42 47.94z"/><path fill="#ffb9b9" d="M540.33 283.73s-24.68-25.15-6-23.3c4.22.43 7.08-.32 9-1.74a9 9 0 0 0 3.32-6.66 27.52 27.52 0 0 0-1.6-10.7s25.16-20 20 5.13a43.27 43.27 0 0 0-1 7.77c-.07 5.34 1.68 7.38 4.15 8.22 4.15 1.42 10.33-.57 13.14 4 5.1 8.42-41 17.27-41 17.27z"/><path d="M565.02 246.47a43.27 43.27 0 0 0-1 7.77 18.2 18.2 0 0 1-2 .58 19.66 19.66 0 0 1-4.43.5 19.93 19.93 0 0 1-11-3.28 27.52 27.52 0 0 0-1.6-10.7s25.14-20.02 20.02 5.13z" opacity=".05"/><path fill="#ffb9b9" d="M577.6 234.36a20 20 0 0 1-15.6 19.54 19.66 19.66 0 0 1-4.43.5 20 20 0 0 1-20-20v-1.13a20 20 0 0 1 40 1.12z"/><path d="M540.33 283.73s-24.68-25.15-6-23.3c4.22.43 7.08-.32 9-1.74-3.6 6-7.66 16.73 10.58 15.7 16.7-.9 16.42-7.57 14.35-11.94 4.15 1.42 10.33-.57 13.14 4 5.04 8.42-41.07 17.27-41.07 17.27z" opacity=".05"/><path d="M579.46 368.04c-4.24 5.5-58.27-1.72-66.17-4.12q.84-3.3 1.88-6.6a229.88 229.88 0 0 1 34-3c12.35 0 24.13 1.7 27.52 7.7q1.18 2.07 2.14 4.15c.25 1.62.62 1.87.62 1.87z" opacity=".1"/><path fill="#c3c7d9" d="M545.46 256.25s-31.44 2.56-32.84 14.67c-1.34 11.58-5.36 43.55-5.36 43.55s-4.66 25.62 13 13.5l-.22.7a151.1 151.1 0 0 0-6.5 30.2c-.18 1.5-.54 2.72-1.2 3.1-2.32 1.4 62.42 10.72 67.08 4.67 0 0-1.4-.93-.93-11.65l-3.74-21.9s-3.73-11.18 1.4-21.9l3.26-14 17.7-13.5s3.82-6.55-3.17-14.64a24.2 24.2 0 0 0-16.63-8.2l-12.2-.87s13.37 14.38-11.8 15.78l-7.86-19.53z"/><path d="M524.5 281.87s.93 7.45-.94 9.78-2.32 13 0 19.56" opacity=".05"/><path d="M544.94 401.06c-7.16 6.54-12 29.63-14.4 44.58-3.4-20.8 10.7-55.25 10.7-55.25zm-7.87 103.44c-11.64 12.6-19.56 2.8-19.56 2.8l-1.56-7.48c4.4 2.3 11.84 4.07 19.4-3.54.8 4.22 1.73 8.23 1.73 8.23zm40.33-8.42c-.2 4-.27 7-.27 7-8.85 9.32-19.1 0-19.1 0s0-3.27.08-8.06a19.2 19.2 0 0 0 19.3 1.06z" opacity=".1"/><rect width="31.67" height="13.04" x="526.82" y="297.71" fill="#cdd0db" rx="3.75" ry="3.75"/><rect width="31.67" height="13.04" x="526.82" y="297.71" rx="3.75" ry="3.75" opacity=".05"/><rect width="31.67" height="13.04" x="526.82" y="298.17" fill="#5e5a6b" rx="3.75" ry="3.75"/><circle cx="551.74" cy="304.46" r="1.4" fill="#9da7c0"/><path d="M513.34 318.36a9.1 9.1 0 0 1 5.27-5.55 8.25 8.25 0 0 0 4.52-4c1.84-4.06 5.1-8.25 13.5-5.46l-2.34 4.66s19.1-2.8 11.64 2.8a71.7 71.7 0 0 1-16.77 8.85l-4.58 4.85a6.86 6.86 0 0 1-10.24-.2 5.92 5.92 0 0 1-1-5.94z" opacity=".05"/><path fill="#ffb9b9" d="M512.88 317.42a9.06 9.06 0 0 1 5.26-5.54 8.28 8.28 0 0 0 4.52-4.06c1.84-4.06 5.1-8.25 13.48-5.46l-2.33 4.66s19.1-2.8 11.66 2.8a71.46 71.46 0 0 1-16.77 8.84l-4.6 4.86a6.86 6.86 0 0 1-10.24-.2 6 6 0 0 1-.98-5.9z"/><path d="M578.53 327.05l-3.26 7.92-4.18-3.07-11.67-8.58-7.92-5.16c-11.17-8.4 0-9.78 0-9.78-4.18-1.87 0-3.73 0-3.73 14.92-3.26 12.12 8.85 12.12 8.85l9.44 4.9 3.14 1.62z" opacity=".05"/><path fill="#ffb9b9" d="M579.46 326.16l-3.26 7.9-4.18-3.06-11.66-8.57-7.92-5.12c-11.18-8.38 0-9.78 0-9.78-4.2-1.86 0-3.72 0-3.72 14.9-3.26 12.1 8.85 12.1 8.85l9.45 4.9 3.13 1.62z"/><path d="M579.46 326.16l-3.26 7.9-4.18-3.06c3.78.14 8.24-1.7 2-13.46l3.14 1.63z" opacity=".05"/><path fill="#c3c7d9" d="M596.7 279.07l.9 3.67-2.77 27.07-2.33 18.19s-.93 12.1-11.64 8.85l-11.65-6.52s15.38 5.13 5.6-13c0 0 5.6 2.8 4.66-4.65v-20.5z"/><path d="M577.6 234.36a20 20 0 0 1-15.6 19.54 10.12 10.12 0 0 1-.66-5.83c.94-3.8 5.34-6.6 4.85-10.48a2.64 2.64 0 0 0-.45-1.23c-1-1.3-3-.65-4.58-.33a8.72 8.72 0 0 1-9.75-6 13.6 13.6 0 0 1-13.85 3.2 20 20 0 0 1 40 1.12z" opacity=".05"/><path fill="#7e656a" d="M551.94 229.1a8.7 8.7 0 0 0 9.74 6c1.6-.32 3.6-1 4.58.33a2.54 2.54 0 0 1 .44 1.22c.5 3.9-3.9 6.67-4.84 10.47s1.88 7.7 2.5 11.7c.32 2.2 0 4.4 0 6.62s.5 4.6 2.15 6.07 4.68 1.5 5.77-.4c5.25 2.76 3.15 11.34 7.13 15.74 2.2 2.42 5.8 3 9.06 2.7a3.82 3.82 0 0 0 2.13-.7 3.7 3.7 0 0 0 1-2 15.86 15.86 0 0 0-.4-9.4c-.53-1.46-1.28-2.92-1.1-4.45a6.55 6.55 0 0 1 1.63-3.18c2.5-3.1 5.9-6.1 5.9-10.08s-3.5-7-4.78-10.73c-1.76-5.08.68-10.54 1.68-15.83a30 30 0 0 0-6.34-24.45 8.4 8.4 0 0 0-3.7-2.88c-2.3-.74-4.75.3-7.15.6-7.9 1-15.1-5.94-23-5.32a4.22 4.22 0 0 0-1.53.35 6.5 6.5 0 0 0-2.22 2.55c-3.5 5.24-10.4 6.73-15.8 10-15.86 9.52 5.02 26.7 17.14 15.08z"/><path fill="#fff" d="M516.1 548.3c-5.43 2.4-12.64.7-13.6-3.33-1.13 5.33 7.4 8 13.6 5.2 8.4-3.74 25.63-13.52 25.63-13.52v-1.85c-.53.28-17.36 9.82-25.62 13.5zm58.2-13.32c-.53 4.2-5.17 5.07-14 6.33-4.45.64-5.9-1.33-6.17-3.67-.3 3 .56 6.34 6.18 5.54 9.8-1.4 14.45-2.33 14-7.92a2.45 2.45 0 0 0 0-.27z" opacity=".3"/><path d="M590.28 287.5c-3.26.3-6.87-.28-9.07-2.7-4-4.4-1.87-13-7.1-15.75-1.1 1.92-4.14 1.9-5.78.42s-2.13-3.86-2.16-6.07.33-4.43 0-6.62c-.6-4-3.47-7.78-2.5-11.7s5.35-6.58 4.85-10.47a2.44 2.44 0 0 0-.43-1.2c-1-1.3-3-.66-4.58-.34a8.7 8.7 0 0 1-9.75-6c-10.8 10.4-28.6-2.24-21-11.8-11.88 9.64 7.6 24.74 19.12 13.67a8.7 8.7 0 0 0 9.74 6c1.6-.32 3.6-1 4.6.34a2.46 2.46 0 0 1 .43 1.2c.5 3.9-3.9 6.68-4.84 10.48s1.87 7.7 2.48 11.7c.33 2.2 0 4.42 0 6.63s.52 4.58 2.16 6.06 4.67 1.5 5.76-.42c5.24 2.77 3.15 11.36 7.13 15.75 2.2 2.42 5.8 3 9.06 2.7a3.82 3.82 0 0 0 2.12-.7 3 3 0 0 0 .86-1.36 6.1 6.1 0 0 1-1.1.2zm-37.88-85.5l.5-.72h-.13a6.57 6.57 0 0 0-2.22 2.55c-.22.32-.45.64-.7.93a13.13 13.13 0 0 0 2.56-2.75zm-25.58 130.3s-1.2 4.2 6.72 6.07l-6.72-6.06zm-3.46 12.43s-4 2.95 5.7 8.08l-5.7-8.07zm-9.06 49.22s11-3.1 12.46-7.76l-12.47 7.75zm0 59s4.7 2.33 7.7 2l-7.7-2zm1.64 6.52a15.78 15.78 0 0 0 6.07 1.24c3.94.17-6.06-1.23-6.06-1.23z" opacity=".1"/><ellipse cx="773.48" cy="657.98" fill="#38d39f" rx="19.1" ry="2.62" opacity=".1"/><ellipse cx="700.33" cy="665.4" fill="#38d39f" rx="19.1" ry="2.62" opacity=".1"/><ellipse cx="614.17" cy="655.36" fill="#38d39f" rx="19.1" ry="2.62" opacity=".1"/><ellipse cx="729.61" cy="686.52" fill="#38d39f" rx="13.58" ry="1.86" opacity=".1"/><ellipse cx="653.69" cy="684.66" fill="#38d39f" rx="13.58" ry="1.86" opacity=".1"/><path fill="#38d39f" d="M699.94 664.8s26.8-87.8-4.2-123c-23.16-26.3-49.46-23.15-61.24-19.9a21.74 21.74 0 0 0-14 11.68c-4.12 8.9-3.37 23.3 25.7 40.14 48.67 28.18 51.7 66.84 51.7 66.84z"/><path stroke="#565987" stroke-miterlimit="10" d="M638.67 534.4s78.95 24.67 61.27 130.4m-15.14-121.56s-10.88 7.32-7.43 18.33m-30.77-11.81s6.64-6.76 14.73-3m16.47 37s11.67-5.92 14.7 1.5m14.18 10.84s-8.76-.7-8.92 3.5" fill="none"/><path fill="#38d39f" d="M701 665.5s-31.36-63.8-40-62.4c-4.08.66-6 4.68-6.82 8.73a25.67 25.67 0 0 0 1.76 15.53c4.4 10.2 16.37 29.6 45.07 38.15z"/><path stroke="#565987" stroke-miterlimit="10" d="M661.26 615.16s32.92 47.75 39.28 49.84m-42.32-42.34h7.7m1.51 17.47l12.04.5m-4.71-14.48l-1.3 6.28m14.11 12.82l-.23 5.7" fill="none"/><path fill="#38d39f" d="M700.08 665.5s31.36-63.8 40-62.4c4.1.66 6 4.68 6.83 8.73a25.67 25.67 0 0 1-1.7 15.53c-4.47 10.2-16.42 29.6-45.12 38.15z"/><path stroke="#565987" stroke-miterlimit="10" d="M739.83 615.16s-32.9 47.8-39.3 49.88m42.32-42.38h-7.68m-1.52 17.47l-12.05.5m4.72-14.48l1.3 6.28m-14.12 12.82l.24 5.7" fill="none"/><path fill="#38d39f" d="M646.22 680.4a5.4 5.4 0 0 1-1.8-2.68 2.4 2.4 0 0 1 1.26-2.75c1.14-.44 2.37.36 3.3 1.16s2 1.72 3.2 1.55a4.93 4.93 0 0 1-1.5-4.57 1.93 1.93 0 0 1 .4-.92c.65-.68 1.8-.4 2.56.15 2.43 1.7 3.1 5 3.12 8a15.6 15.6 0 0 0 0-3.28 3.36 3.36 0 0 1 1.23-2.9 3.8 3.8 0 0 1 1.87-.44 3.85 3.85 0 0 1 3 .88 3 3 0 0 1-.12 3.74 11.6 11.6 0 0 1-3.15 2.52 7.1 7.1 0 0 0-2.25 2.15 2.3 2.3 0 0 0-.17.38h-6.74a19.26 19.26 0 0 1-4.22-2.97zm119.52-25.7a5.44 5.44 0 0 1-1.78-2.68 2.4 2.4 0 0 1 1.25-2.75c1.15-.44 2.38.36 3.3 1.16s2 1.72 3.2 1.55a4.88 4.88 0 0 1-1.5-4.57 1.93 1.93 0 0 1 .42-.92c.64-.68 1.8-.4 2.55.15 2.42 1.7 3.1 5 3.1 7.95a15 15 0 0 0 0-3.28 3.3 3.3 0 0 1 1.24-2.9 3.8 3.8 0 0 1 1.9-.44 3.87 3.87 0 0 1 3 .87 3 3 0 0 1-.13 3.74 11.74 11.74 0 0 1-3.15 2.52 7 7 0 0 0-2.25 2.14 2.6 2.6 0 0 0-.17.38h-6.76a19.1 19.1 0 0 1-4.2-2.9zm-39.8 25.7a5.46 5.46 0 0 1-1.8-2.68 2.4 2.4 0 0 1 1.26-2.75c1.15-.44 2.37.36 3.3 1.16s2 1.72 3.2 1.55a4.88 4.88 0 0 1-1.5-4.57 1.84 1.84 0 0 1 .42-.92c.63-.68 1.78-.4 2.55.15 2.42 1.7 3.1 5 3.1 8a15 15 0 0 0 0-3.28 3.36 3.36 0 0 1 1.24-2.9 3.8 3.8 0 0 1 1.9-.44 3.85 3.85 0 0 1 3 .88 3 3 0 0 1-.13 3.74 11.6 11.6 0 0 1-3.15 2.52 7.22 7.22 0 0 0-2.25 2.15 2.3 2.3 0 0 0-.17.38h-6.82a19.26 19.26 0 0 1-4.14-2.97zm-113-51.94s-2.56 3.35 1.18 8.4 6.83 9.3 5.58 12.46c0 0-5.64-9.38-10.24-9.5s-1.58-5.72 3.48-11.36z"/><path d="M612.94 628.46a4.2 4.2 0 0 0-.52 1.05c-4.48 5.27-6.87 10.2-2.56 10.3 4 .12 8.82 7.3 10 9.1 0 .15-.1.3-.14.42s-5.64-9.38-10.24-9.5-1.6-5.72 3.46-11.36z" opacity=".1"/><path fill="#ffd037" d="M608.17 632.72c0 1.18.14 2.14.3 2.14s.3-1 .3-2.14-.17-.62-.33-.62-.27-.55-.27.62zm-1.63 1.44c1 .56 1.94.9 2 .76s-.7-.72-1.74-1.28-.62-.15-.7 0-.6-.07.44.52z"/><path fill="#38d39f" d="M626.45 628.46s2.56 3.35-1.18 8.4-6.83 9.3-5.58 12.46c0 0 5.63-9.38 10.22-9.5s1.58-5.72-3.47-11.36z"/><path d="M626.45 628.46a4.2 4.2 0 0 1 .52 1.05c4.48 5.27 6.87 10.2 2.56 10.3-4 .12-8.82 7.3-10 9.1 0 .15.1.3.14.42s5.64-9.38 10.23-9.5 1.6-5.72-3.45-11.36z" opacity=".1"/><path fill="#ffd037" d="M631.2 632.72c0 1.18-.13 2.14-.3 2.14s-.3-1-.3-2.14.18-.62.34-.62.26-.55.26.62zm1.64 1.44c-1 .56-1.94.9-2 .76s.7-.72 1.73-1.28.63-.15.7 0 .6-.07-.43.52z"/><path fill="#a8a8a8" d="M630.4 648.9s-7.17-.24-9.32-1.77-11-3.37-11.54-.9-10.75 12.24-2.68 12.3 18.77-1.25 20.92-2.56l2.6-7.08z"/><path d="M606.72 657.68c8.08.06 18.77-1.26 20.92-2.57 1.64-1 2.3-4.57 2.5-6.22h.25s-.46 5.77-2.62 7.08-12.84 2.63-20.92 2.56c-2.33 0-3.13-.84-3.1-2.07.34.7 1.23 1.2 2.96 1.23z" opacity=".2"/><ellipse cx="541.73" cy="760.7" fill="#38d39f" rx="34.72" ry="5.13" opacity=".1"/><ellipse cx="625.79" cy="806.75" fill="#38d39f" rx="34.72" ry="5.13" opacity=".1"/><ellipse cx="985.69" cy="737.76" fill="#38d39f" rx="22.99" ry="2.57" opacity=".1"/><ellipse cx="889.22" cy="760.7" fill="#38d39f" rx="22.99" ry="2.57" opacity=".1"/><ellipse cx="840.77" cy="806.75" fill="#38d39f" rx="22.99" ry="2.57" opacity=".1"/><ellipse cx="291.08" cy="825.66" fill="#38d39f" rx="27.19" ry="4.67" opacity=".1"/><path fill="#38d39f" d="M303.2 778.73s-37.84 19.56-18.28 42.6c0 0 1.84 5 7.16 4.65 0 0-1.06-1.94 3-3.5a19.77 19.77 0 0 0 4.1-2.16 9.64 9.64 0 0 0 3.65-4.9s7.74-10.36 1.74-29.53c0 0 .77-5.43.1-6.3l-4.6 6.3s4.75 3.2 5.3 7.88c0 0-5-7.86-6-7-.22.18-2.3 3.45-2.3 3.45s8.26 5.6 8.87 12.85c0 0-4.64-10.16-9.65-11.6l-2.85 5.1s9 5.5 10 13.73c0 0-5.22-10.45-10.56-12.55l-2.13 5.4s8.68 5.53 9.48 12.4c0 0-7.26-11.5-9.88-11.12 0 0-1.63 5.08-1.4 6.64 0 0 6.12 4.1 6.23 8.13 0 0-5.66-7.15-6.53-6.68 0 0-.37 7.2 1.38 10.93 0 0-3-5.33-2.5-10.93a12 12 0 0 0-3.64 5.85s-1.62-4 3.75-7.6c0 0 .5-5.58 1.13-6.27 0 0-5.8 2.83-8.28 6.32 0 0 .9-5.2 8.78-7.77l2-5.48s-7.88 3.34-10.3 6.28c0 0 1.74-5.16 10.92-7.63l2.72-5s-7 2.36-10.42 5c0 0 2.65-4.43 11.26-6.46l2.2-3.16s-5.07 1.82-6.5 2.47l-1.7.33a18.3 18.3 0 0 1 9.12-4.14s4.98-6.2 4.63-6.53z"/></svg>