<svg xmlns="http://www.w3.org/2000/svg" viewBox="0 0 1074.392 584.231"><title>page not found</title><ellipse cx="540.643" cy="549.309" rx="527.5" ry="34.922" fill="#f2f2f2"/><path d="M520.426 167.01c-85.944 0-147.651 55.139-147.651 183.798 0 145.813 61.707 184.411 147.651 184.411s151.327-42.274 151.327-184.411c0-151.94-65.383-183.798-151.327-183.798zm.565 319.808c-59.527 0-90.626-34.923-90.626-135.916 0-89.112 32.372-136.105 91.899-136.105s91.899 30.868 91.899 136.105c0 98.447-33.645 135.916-93.172 135.916z" fill="#2f2e41"/><path d="M384.365 591.401h-35.534v-104.639a20.956 20.956 0 0 0-20.956-20.956h-8.326a20.956 20.956 0 0 0-20.956 20.956v104.639h-100.23a11.963 11.963 0 0 1-10.578-17.552l106.082-200.78a20.956 20.956 0 0 0-9.58-28.739l-6.262-2.957a20.956 20.956 0 0 0-27.429 9.07l-129.381 242.033a28.416 28.416 0 0 0-3.356 13.396 28.416 28.416 0 0 0 28.416 28.416h152.319v66.167a25.119 25.119 0 0 0 25.119 25.119 25.119 25.119 0 0 0 25.119-25.119v-66.167h35.534a21.443 21.443 0 0 0 21.443-21.443 21.443 21.443 0 0 0-21.443-21.443zM1042.362 591.401h-35.534v-104.639a20.956 20.956 0 0 0-20.956-20.956h-8.326a20.956 20.956 0 0 0-20.956 20.956v104.639h-100.23a11.963 11.963 0 0 1-10.578-17.552l106.082-200.78a20.956 20.956 0 0 0-9.58-28.739l-6.262-2.957a20.956 20.956 0 0 0-27.429 9.07l-129.381 242.033a28.416 28.416 0 0 0-3.356 13.396 28.416 28.416 0 0 0 28.416 28.416h152.319v66.167a25.119 25.119 0 0 0 25.119 25.119 25.119 25.119 0 0 0 25.119-25.119v-66.167h35.534a21.443 21.443 0 0 0 21.443-21.443 21.443 21.443 0 0 0-21.443-21.443z" transform="translate(-63.054 -157.885)" fill="#bac9e3"/><path d="M394.168 579.148h-35.534v-104.639a20.956 20.956 0 0 0-20.956-20.956h-8.326a20.956 20.956 0 0 0-20.956 20.956v104.639h-100.23a11.963 11.963 0 0 1-10.578-17.552l106.082-200.78a20.956 20.956 0 0 0-9.58-28.739l-6.262-2.957a20.956 20.956 0 0 0-27.429 9.07l-129.381 242.033a28.416 28.416 0 0 0-3.356 13.396 28.416 28.416 0 0 0 28.416 28.416h152.319v66.167a25.119 25.119 0 0 0 25.119 25.119 25.119 25.119 0 0 0 25.119-25.119v-66.167h35.534a21.443 21.443 0 0 0 21.443-21.443 21.443 21.443 0 0 0-21.443-21.443zM1060.742 579.148h-35.534v-104.639a20.956 20.956 0 0 0-20.956-20.956h-8.326a20.956 20.956 0 0 0-20.956 20.956v104.639h-100.23a11.963 11.963 0 0 1-10.578-17.552l106.082-200.78a20.956 20.956 0 0 0-9.58-28.739l-6.262-2.957a20.956 20.956 0 0 0-27.429 9.07l-129.381 242.033a28.416 28.416 0 0 0-3.356 13.396 28.416 28.416 0 0 0 28.416 28.416h152.319v66.167a25.119 25.119 0 0 0 25.119 25.119 25.119 25.119 0 0 0 25.119-25.119v-66.167h35.534a21.443 21.443 0 0 0 21.443-21.443 21.443 21.443 0 0 0-21.443-21.443z" transform="translate(-63.054 -157.885)" stroke="#3f3d56" stroke-miterlimit="10" fill="none"/><path d="M540.031 155.982c-85.944 0-147.651 55.139-147.651 183.798 0 145.813 61.707 184.411 147.651 184.411s151.327-42.274 151.327-184.411c0-151.94-65.383-183.798-151.327-183.798zm.565 319.808c-59.527 0-90.626-34.923-90.626-135.916 0-89.112 32.372-136.105 91.899-136.105s91.899 30.868 91.899 136.105c0 98.447-33.645 135.916-93.172 135.916z" stroke="#3f3d56" stroke-miterlimit="10" fill="none"/><circle cx="471.141" cy="18.25" r="12.901" fill="#2f2e41"/><ellipse cx="502.607" cy="46.885" rx="36.186" ry="46.885" fill="#2f2e41"/><path d="M565.661 237.494c-18.128 0-33.141-17.271-35.776-39.805a60.976 60.976 0 0 0-.41 7.08c0 25.894 16.201 46.885 36.186 46.885s36.186-20.991 36.186-46.885a60.976 60.976 0 0 0-.41-7.08c-2.634 22.534-17.648 39.805-35.776 39.805z" transform="translate(-63.054 -157.885)" opacity=".1"/><path d="M639.296 342.073c-.777 3.193-4.128 5.751-7.839 7.538-7.802 3.757-17.425 4.878-26.76 5.254a45.176 45.176 0 0 1-7.144-.132 20.537 20.537 0 0 1-12.251-5.631 1.681 1.681 0 0 1 .044-2.844c4.969-5.459 13.262-8.806 21.616-11.216 6.334-1.827 17.381-6.561 24.29-5.922 6.692.619 9.025 8.921 8.044 12.953z" transform="translate(-63.054 -157.885)" fill="#3f3d56"/><path d="M639.296 342.073c-.777 3.193-4.128 5.751-7.839 7.538-7.802 3.757-17.425 4.878-26.76 5.254a45.176 45.176 0 0 1-7.144-.132 20.537 20.537 0 0 1-12.251-5.631 1.681 1.681 0 0 1 .044-2.844c4.969-5.459 13.262-8.806 21.616-11.216 6.334-1.827 17.381-6.561 24.29-5.922 6.692.619 9.025 8.921 8.044 12.953z" transform="translate(-63.054 -157.885)" opacity=".1"/><path d="M540.098 318.206a19.77 19.77 0 0 0-1.199 15.075 26.339 26.339 0 0 0 8.829 12.497c10.095 8.092 23.988 9.205 36.925 9.093a284.649 284.649 0 0 0 33.905-2.324 40.538 40.538 0 0 0 11.001-2.554c4.222-1.827 7.933-5.178 9.436-9.526s.436-9.672-3.134-12.574c-3.137-2.55-7.463-2.9-11.498-3.143l-23.088-1.387c2.281-2.308 5.318-3.614 8.096-5.292 3.685-2.226 6.134-5.965 8.813-9.335a129.001 129.001 0 0 1 13.439-13.817c.751 4.31 3.478 7.85 6.687 10.824s6.908 5.368 10.244 8.2c8.079 6.858 13.896 16.167 22.392 22.5a43.829 43.829 0 0 0 16.049-8.012l-3.302-5.981a3.94 3.94 0 0 0-1.245-1.553c-.935-.575-2.14-.279-3.225-.441-2.901-.435-4.168-3.784-5.306-6.487-3.125-7.422-9.108-13.18-14.218-19.404a98.009 98.009 0 0 1-9.996-14.723c-1.717-3.102-3.288-6.331-5.617-9.003s-5.594-4.773-9.139-4.781c-3.132-.007-6.021 1.584-8.714 3.183a230.477 230.477 0 0 0-23.63 16.099c-3.944 3.062-7.863 6.296-12.489 8.174-1.947.79-4 1.331-5.869 2.292-3.273 1.684-5.757 4.534-8.431 7.064-9.538 9.023-22.596 14.869-35.717 15.337z" transform="translate(-63.054 -157.885)" fill="#3f3d56"/><path d="M588.374 253.983a23.774 23.774 0 0 1-1.734 8.033 10.045 10.045 0 0 1-5.768 5.573 12.375 12.375 0 0 1-5.623.182 10.882 10.882 0 0 1-4.582-1.561c-2.165-1.488-3.244-4.144-3.637-6.743-.393-2.596-.217-5.249-.469-7.863a42.944 42.944 0 0 0-1.202-6.255l-.513-2.042c-.167-.68-.33-1.359-.481-2.039-.138-.639-.267-1.281-.378-1.926-.091-.544-.173-1.092-.233-1.643a18.423 18.423 0 0 0-.809-4.811 14.607 14.607 0 0 0-1.687-2.854c-.286-.409-.563-.818-.818-1.243a5.89 5.89 0 0 1-.972-3.748 3.286 3.286 0 0 1 .148-.601l.085-.223a1.802 1.802 0 0 0 1.23-1.149 3.433 3.433 0 0 0-.148-1.778 11.318 11.318 0 0 0-.96-2.288c-.264-.478-1.161-1.34-1.167-1.888-.013-1.101 2.14-1.989 3.011-2.423a16.796 16.796 0 0 1 8.597-1.743c1.904.129 3.968.714 5.019 2.31.944 1.438.818 3.301 1.221 4.972a1.471 1.471 0 0 0 .299.664 1.341 1.341 0 0 0 .739.34 4.549 4.549 0 0 0 1.416.057h.003a2.931 2.931 0 0 0 .371-.054 4.957 4.957 0 0 0 2.033-.878q.585-.156 1.18-.255a.251.251 0 0 0 .047-.009c1.576 4.975 1.781 10.308 3.071 15.374.639 2.52 1.554 5.009 1.683 7.602l.016.346c.019.834-.047 1.674-.013 2.505a6.981 6.981 0 0 0 .126 1.114 15.611 15.611 0 0 0 .525 1.743l.009.028.164.554.091.403.003.009a14.938 14.938 0 0 1 .104 4.207z" transform="translate(-63.054 -157.885)" fill="#fbbebe"/><circle cx="503.237" cy="44.997" r="18.565" fill="#fbbebe"/><path d="M684.157 304.033a30.445 30.445 0 0 0-5.236-14.103q.722 4.295 1.447 8.587a3.214 3.214 0 0 1-3.367-1.035 10.337 10.337 0 0 1-1.765-3.276 67.466 67.466 0 0 0-8.21-14.736c-11.819-.985-23.502-5.884-33.896-11.595-10.396-5.708-20.126-12.552-30.384-18.502a43.573 43.573 0 0 0-5.544-2.832c-3.21-1.287-6.812-1.954-9.855-3.468l-.61-.318a12.578 12.578 0 0 1-1.945-1.306 10.344 10.344 0 0 1-.931-.856 20.351 20.351 0 0 1-3.559-5.953c-1.633-3.612-2.215-7.97-3.845-11.583a11.203 11.203 0 0 1 2.502-1.765h.003l.4-.198a11.94 11.94 0 0 1 2.004-.733q.585-.156 1.18-.255a.251.251 0 0 0 .047-.009 11.566 11.566 0 0 1 5.491.434c2.587.875 4.767 2.621 6.941 4.273a114.02 114.02 0 0 1 10.148 8.049c1.794 1.718 3.43 3.606 5.359 5.167a42.144 42.144 0 0 0 5.057 3.351q15.656 9.327 31.315 18.65c3.534 2.105 7.07 4.21 10.526 6.438 5.249 3.386 10.308 7.055 15.365 10.721q4.47 3.238 8.936 6.479a9.728 9.728 0 0 1 2.533 2.341 8.472 8.472 0 0 1 1.123 3.433 31.387 31.387 0 0 1-1.23 14.6z" transform="translate(-63.054 -157.885)" fill="#fbbebe"/><path d="M592.977 267.944c-1.252 5.617-6.929 9.012-9.896 13.946-3.688 6.123-2.184 13.241-.799 20.255q-3.795 3.271-7.593 6.542c-1.397 1.199-2.794 2.404-4.298 3.464a57.351 57.351 0 0 1-6.86 3.94q-3.361 1.728-6.721 3.458a32.128 32.128 0 0 1-6.58 2.788c-4.415 1.133-9.103.34-13.471-.972a6.088 6.088 0 0 1-1.473-.601 2.394 2.394 0 0 1-.699-.632 3.911 3.911 0 0 1-.444-2.539c.444-7.351 2.24-14.547 4.031-21.69a85.26 85.26 0 0 1 3.848-12.577 85.077 85.077 0 0 1 5.415-10.151 68.368 68.368 0 0 1 7.929-11.514 18.479 18.479 0 0 0 3.675-4.739c1.117-2.549.686-5.472.913-8.247a17.148 17.148 0 0 1 1.633-6.007v-.003a17.093 17.093 0 0 1 1.743-2.882l.916 2.13.598 1.394.768 1.787q1.1 2.558 2.196 5.113a21.59 21.59 0 0 0 3.335 5.944 6.499 6.499 0 0 0 11.123-.853 21.261 21.261 0 0 0 2.272-6.013 19.215 19.215 0 0 0 .252-7.835c-.758-5.009-2.889-10.126-4.437-14.78a14.945 14.945 0 0 1-1.079-4.871 3.351 3.351 0 0 1 .057-.56l.028-.145a11.94 11.94 0 0 1 2.004-.733q.585-.156 1.18-.255 2.044 11.064 4.094 22.127l.098.522c.195 1.057.393 2.115.614 3.169.198.957.412 1.91.651 2.857l.009.028.255.957.003.009c.242.868.513 1.731.818 2.58 1.85 5.12 5.076 10.274 3.889 15.588z" transform="translate(-63.054 -157.885)" fill="#bac9e3"/><path d="M668.321 346.877a6.583 6.583 0 0 0 .61 3.143c1.162 2.124 3.95 2.606 6.362 2.805a188.377 188.377 0 0 0 42.266-1.288 4.886 4.886 0 0 0 2.151-.668c1.99-1.395.763-4.795-1.41-5.884s-4.751-.826-7.135-1.297a22.479 22.479 0 0 1-6.678-2.896q-7.252-4.167-14.293-8.688c-2.795-1.795-6.093-3.71-9.24-2.646-8.525 2.884-12.69 8.222-12.634 17.418z" transform="translate(-63.054 -157.885)" fill="#3f3d56"/><path d="M564.437 240.874v.003l-.072.39-.116.645c-.39 1.998-.868 3.987-1.419 5.963-1.51 5.459-3.534 10.831-5.541 16.123q-8.081 21.287-16.164 42.577c-1.359 3.575-2.716 7.152-4.261 10.654l-1.576 3.534c-1.894 4.257-3.713 8.653-4.317 13.184a27.45 27.45 0 0 0-.192 9.04c.604 2.97 2.407 5.872 5.23 6.97 1.378.538 3.351 1.259 2.974 2.69-.204.787-1.098 1.171-1.901 1.303a7.312 7.312 0 0 1-5.966-1.718c-1.507-1.337-2.665-3.417-4.67-3.641-1.388-.151-2.665.68-3.936 1.262-5.186 2.369-11.227.711-16.674-.972.428-2.206 2.643-3.66 4.843-4.1 2.199-.444 4.474-.129 6.718-.189a3.51 3.51 0 0 0 2.042-.525 3.705 3.705 0 0 0 1.101-1.882 78.964 78.964 0 0 0 3.213-13.147c.724-4.666 1.026-9.405 2.058-14.015.802-3.597 2.042-7.08 3.106-10.61a224.682 224.682 0 0 0 5.06-22.077 78.02 78.02 0 0 0 1.425-9.368c.179-2.612.094-5.236.346-7.838a60.888 60.888 0 0 1 2.111-9.997q1.444-5.348 2.885-10.689c1.425-5.271 2.955-10.746 6.567-14.843a13.962 13.962 0 0 1 10.028-4.789 9.882 9.882 0 0 1 2.13.23l.349.088a8.634 8.634 0 0 1 2.174.9c1.114-.708 1.68-.459 2.42.632a6.973 6.973 0 0 1 .881 3.795 52.424 52.424 0 0 1-.856 10.415z" transform="translate(-63.054 -157.885)" fill="#fbbebe"/><path d="M565.661 245.046l-.047.047-.255.255-2.53 2.527-1.24-5.208-4.251-17.854a9.882 9.882 0 0 1 2.13.23 3.286 3.286 0 0 1 .148-.601l.201.689 1.441 4.902 2.728 9.308.45 1.532v.003z" transform="translate(-63.054 -157.885)" fill="#bac9e3"/><path d="M581.715 188.087a12.582 12.582 0 0 1-3.7 8.896 12.314 12.314 0 0 1-1.36 1.176 12.528 12.528 0 0 1-7.536 2.524h-15.096a12.59 12.59 0 0 1 0-25.18h15.096a12.629 12.629 0 0 1 12.596 12.584z" transform="translate(-63.054 -157.885)" fill="#2f2e41"/><circle cx="532.815" cy="18.25" r="12.901" fill="#2f2e41"/><path d="M595.554 163.234l-.472.012a12.898 12.898 0 0 1 0 25.778l.472.012a12.901 12.901 0 1 0 0-25.802zM534.195 163.234l.472.012a12.898 12.898 0 0 0 0 25.778l-.472.012a12.901 12.901 0 0 1 0-25.802zM576.655 198.159a12.528 12.528 0 0 1-7.536 2.524h-15.096a12.528 12.528 0 0 1-7.536-2.524z" transform="translate(-63.054 -157.885)" opacity=".1"/><path d="M611.086 133.756s3.252 9.372 6.229 6.876l-2.373-12.25z" fill="#fbbebe"/><path d="M1069.918 577.434a20.813 20.813 0 1 0 2.772-39.915l.521 10.712-5.068-9.18a20.734 20.734 0 0 0-10.684 11.723 20.408 20.408 0 0 0-1.197 5.63 20.809 20.809 0 0 0 13.656 21.031z" transform="translate(-63.054 -157.885)" fill="#57b894"/><path d="M1094.995 701.678c-1.789-9.11 5.963-17.187 13.621-22.437s16.605-10.408 19.218-19.317c3.755-12.804-7.43-24.53-16.136-34.642a125.3 125.3 0 0 1-16.524-24.557c-1.811-3.533-3.476-7.225-3.952-11.166-.686-5.675 1.137-11.323 2.974-16.737q9.179-27.052 19.628-53.65" transform="translate(-63.054 -157.885)" stroke="#3f3d56" stroke-miterlimit="10" fill="none"/><path d="M1070.775 574.676a20.813 20.813 0 1 0 2.772-39.915l.521 10.712-5.068-9.18a20.734 20.734 0 0 0-10.684 11.723 20.408 20.408 0 0 0-1.197 5.63 20.809 20.809 0 0 0 13.656 21.031z" transform="translate(-63.054 -157.885)" stroke="#3f3d56" stroke-miterlimit="10" fill="none"/><path d="M1092.451 515.473a20.788 20.788 0 0 1 14.98-13.198l1.714 10.184 3.177-10.696a20.81 20.81 0 1 1-19.871 13.71z" transform="translate(-63.054 -157.885)" fill="#57b894"/><path d="M1093.594 511.795a20.788 20.788 0 0 1 14.98-13.198l1.714 10.184 3.177-10.696a20.81 20.81 0 1 1-19.871 13.71z" transform="translate(-63.054 -157.885)" stroke="#3f3d56" stroke-miterlimit="10" fill="none"/><path d="M1108.045 625.489a20.81 20.81 0 0 0 18.419-37.023l-2.441 8.219-1.731-10.304a.362.362 0 0 0-.053-.02 20.811 20.811 0 1 0-14.194 39.127z" transform="translate(-63.054 -157.885)" fill="#57b894"/><path d="M1109.035 621.764a20.81 20.81 0 0 0 18.419-37.023l-2.441 8.219-1.731-10.304a.362.362 0 0 0-.053-.02 20.811 20.811 0 1 0-14.194 39.127z" transform="translate(-63.054 -157.885)" stroke="#3f3d56" stroke-miterlimit="10" fill="none"/><path d="M1086.378 660.051a20.801 20.801 0 1 0 4.011-16.297l9.273 13.957-12.67-7.408a20.616 20.616 0 0 0-.613 9.749z" transform="translate(-63.054 -157.885)" fill="#57b894"/><path d="M1087.235 657.294a20.801 20.801 0 1 0 4.011-16.297l9.273 13.957-12.67-7.408a20.616 20.616 0 0 0-.613 9.749z" transform="translate(-63.054 -157.885)" stroke="#3f3d56" stroke-miterlimit="10" fill="none"/><path d="M72.061 628.133a13.674 13.674 0 1 0 1.821-26.225l.342 7.038-3.33-6.032a13.623 13.623 0 0 0-7.019 7.702 13.409 13.409 0 0 0-.787 3.699 13.672 13.672 0 0 0 8.973 13.818z" transform="translate(-63.054 -157.885)" fill="#57b894"/><path d="M88.538 709.763c-1.175-5.986 3.918-11.292 8.949-14.741s10.91-6.838 12.626-12.692c2.467-8.412-4.882-16.117-10.601-22.76a82.324 82.324 0 0 1-10.856-16.135 22.21 22.21 0 0 1-2.597-7.336c-.451-3.729.747-7.439 1.954-10.996q6.031-17.773 12.896-35.249" transform="translate(-63.054 -157.885)" stroke="#3f3d56" stroke-miterlimit="10" fill="none"/><path d="M72.625 626.321a13.674 13.674 0 1 0 1.821-26.225l.342 7.038-3.33-6.032a13.623 13.623 0 0 0-7.019 7.702 13.409 13.409 0 0 0-.787 3.699 13.672 13.672 0 0 0 8.973 13.818z" transform="translate(-63.054 -157.885)" stroke="#3f3d56" stroke-miterlimit="10" fill="none"/><path d="M86.866 587.423a13.658 13.658 0 0 1 9.842-8.671l1.126 6.691 2.087-7.027a13.673 13.673 0 1 1-13.055 9.007z" transform="translate(-63.054 -157.885)" fill="#57b894"/><path d="M87.617 585.007a13.658 13.658 0 0 1 9.842-8.671l1.126 6.691 2.087-7.027a13.673 13.673 0 1 1-13.055 9.007z" transform="translate(-63.054 -157.885)" stroke="#3f3d56" stroke-miterlimit="10" fill="none"/><path d="M97.112 659.706a13.673 13.673 0 0 0 12.102-24.325l-1.604 5.4-1.137-6.77a.238.238 0 0 0-.035-.013 13.673 13.673 0 1 0-9.326 25.707z" transform="translate(-63.054 -157.885)" fill="#57b894"/><path d="M97.762 657.259a13.673 13.673 0 0 0 12.102-24.325l-1.604 5.4-1.137-6.77a.238.238 0 0 0-.035-.013 13.673 13.673 0 1 0-9.326 25.707z" transform="translate(-63.054 -157.885)" stroke="#3f3d56" stroke-miterlimit="10" fill="none"/><path d="M82.876 682.414a13.667 13.667 0 1 0 2.635-10.708l6.092 9.17-8.324-4.867a13.545 13.545 0 0 0-.403 6.405z" transform="translate(-63.054 -157.885)" fill="#57b894"/><path d="M83.439 680.602a13.667 13.667 0 1 0 2.635-10.708l6.092 9.17-8.324-4.867a13.545 13.545 0 0 0-.403 6.405z" transform="translate(-63.054 -157.885)" stroke="#3f3d56" stroke-miterlimit="10" fill="none"/><ellipse cx="480.946" cy="319.115" rx="17" ry="22" fill="#2f2e41"/><ellipse cx="573.446" cy="319.615" rx="17" ry="22" fill="#2f2e41"/><path d="M623.5 542.5c0 9.94-13.88 18-31 18s-31-8.06-31-18c0-8.61 10.41-15.81 24.32-17.57a50.104 50.104 0 0 1 6.68-.43 50.699 50.699 0 0 1 11.13 1.2c11.62 2.59 19.87 9.14 19.87 16.8z" transform="translate(-63.054 -157.885)" fill="#2f2e41"/><ellipse cx="484.946" cy="314.115" rx="17" ry="22" stroke="#3f3d56" stroke-miterlimit="10" fill="none"/><ellipse cx="577.446" cy="314.615" rx="17" ry="22" stroke="#3f3d56" stroke-miterlimit="10" fill="none"/><ellipse cx="533.446" cy="379.615" rx="31" ry="18" stroke="#3f3d56" stroke-miterlimit="10" fill="none"/><path d="M604 527.2a4.937 4.937 0 0 1-1.32 3.392 4.339 4.339 0 0 1-3.18 1.408h-10a4.664 4.664 0 0 1-4.5-4.8 4.905 4.905 0 0 1 .82-2.741 47.02 47.02 0 0 1 6.68-.459 47.665 47.665 0 0 1 11.13 1.28 5.067 5.067 0 0 1 .37 1.92z" transform="translate(-63.054 -157.885)" fill="#fff"/><circle cx="484.946" cy="308.115" r="5" fill="#fff"/><circle cx="577.946" cy="308.115" r="5" fill="#fff"/><circle cx="582.946" cy="355.115" r="5" fill="#bac9e3" opacity=".3"/><circle cx="460.946" cy="355.115" r="5" fill="#bac9e3" opacity=".3"/></svg>