<svg xmlns="http://www.w3.org/2000/svg" width="1130" height="799.21"><defs><linearGradient id="a" x1="784.71" x2="784.71" y1="837.27" y2="420.76" gradientUnits="userSpaceOnUse"><stop offset="0" stop-color="#808080" stop-opacity=".25"/><stop offset=".54" stop-color="#808080" stop-opacity=".12"/><stop offset="1" stop-color="#808080" stop-opacity=".1"/></linearGradient></defs><title>wireframing</title><path fill="#6c63ff" d="M1108.14 197.65a231.37 231.37 0 0 0-44.83-60.38l-621.85-5.18 512-60.8a337.4 337.4 0 0 0-103.88-17.42c-49.31-33.64-112.65-53.87-181.75-53.87-62 0-119.33 16.3-166.07 43.93-39.76-17.33-85.02-27.13-133.1-27.13-138.19 0-253.31 80.9-279.16 188.2zm21.86 89.95a197 197 0 0 0-19.38-84.92l-1077.76 95.67a209.7 209.7 0 0 0-25.25 53.9l333.76 42.07-341.37 30.68c10.27 121.44 133.43 217.35 283.88 217.35 75.73 0 144.54-24.3 195.53-63.94 51.16 40.4 120.6 65.2 197.18 65.2 113.57 0 211.6-54.67 257.25-133.72 91.58-24.57 162.72-86.28 187.07-163.46l-422.08-55.33h431.17v-3.5z" opacity=".1"/><path stroke="#535461" stroke-width="2" stroke-miterlimit="10" d="M283.42 553.07s-46.22-66.7-38.37-129.63a122.94 122.94 0 0 0-14.8-76.34 206.7 206.7 0 0 0-21.74-30.94" fill="none"/><path fill="#6c63ff" d="M213.22 276.47c3 9.05-4.7 40.74-4.7 40.74s-25.1-20.82-28.1-29.88a17.27 17.27 0 0 1 32.8-10.85zm43.7 41.19c-2.4 9.23-26.1 31.64-26.1 31.64s-9.73-31.12-7.32-40.35a17.27 17.27 0 1 1 33.42 8.7zm27.18 86.11c-6.73 6.76-38.5 14.14-38.5 14.14s7.32-31.77 14-38.52a17.27 17.27 0 0 1 24.47 24.4zm5.9 69.83c-5.5 7.8-35.56 20.44-35.56 20.44s1.83-32.56 7.33-40.35a17.27 17.27 0 0 1 28.23 19.91zm-93-111.15c8.58 4.16 41 .68 41 .68s-17.36-27.6-26-31.77a17.27 17.27 0 0 0-15 31.1zm7.9 81.53c9.45 1.4 39.35-11.62 39.35-11.62s-24.83-21.16-34.25-22.56a17.27 17.27 0 1 0-5.08 34.18zm18.6 78.18c9.06 3 40.73-4.8 40.73-4.8s-20.9-25-30-28a17.27 17.27 0 1 0-10.78 32.82z"/><path d="M213.22 276.47c3 9.05-4.7 40.74-4.7 40.74s-25.1-20.82-28.1-29.88a17.27 17.27 0 0 1 32.8-10.85zm43.7 41.19c-2.4 9.23-26.1 31.64-26.1 31.64s-9.73-31.12-7.32-40.35a17.27 17.27 0 1 1 33.42 8.7zm27.18 86.11c-6.73 6.76-38.5 14.14-38.5 14.14s7.32-31.77 14-38.52a17.27 17.27 0 0 1 24.47 24.4zm5.9 69.83c-5.5 7.8-35.56 20.44-35.56 20.44s1.83-32.56 7.33-40.35a17.27 17.27 0 0 1 28.23 19.91zm-93-111.15c8.58 4.16 41 .68 41 .68s-17.36-27.6-26-31.77a17.27 17.27 0 0 0-15 31.1zm7.9 81.53c9.45 1.4 39.35-11.62 39.35-11.62s-24.83-21.16-34.25-22.56a17.27 17.27 0 1 0-5.08 34.18zm18.6 78.18c9.06 3 40.73-4.8 40.73-4.8s-20.9-25-30-28a17.27 17.27 0 1 0-10.78 32.82z" opacity=".25"/><path stroke="#535461" stroke-width="2" stroke-miterlimit="10" d="M283.16 550.4s-69.28-42.25-87.62-103a123 123 0 0 0-44.46-63.8 206.7 206.7 0 0 0-32.4-19.47" fill="none"/><path fill="#6c63ff" d="M106.9 325.97c6.4 7.06 12.2 39.15 12.2 39.15s-31.38-8.88-37.8-15.94a17.27 17.27 0 1 1 25.6-23.2zm56.64 19.93c1.54 9.43-11 39.52-11 39.52s-21.54-24.5-23.1-33.93a17.27 17.27 0 0 1 34.1-5.6zm59.76 67.7c-3.44 8.9-29.48 28.53-29.48 28.53s-6.2-32-2.78-40.92a17.27 17.27 0 1 1 32.25 12.4zm33.7 61.43c-1.87 9.36-24.23 33.1-24.23 33.1s-11.52-30.5-9.65-39.86a17.27 17.27 0 1 1 33.88 6.76zm-130.12-63.88c9.54.33 37.77-16 37.77-16s-27.05-18.2-36.6-18.55a17.27 17.27 0 0 0-1.17 34.52zm40.29 71.32c9.2-2.54 31.26-26.56 31.26-26.56s-31.27-9.3-40.43-6.72a17.27 17.27 0 1 0 9.2 33.3zm48.67 63.95c9.5-1 35.3-20.9 35.3-20.9s-29.25-14.42-38.74-13.47a17.27 17.27 0 0 0 3.44 34.37z"/><ellipse cx="565.71" cy="734.08" fill="#6c63ff" rx="179" ry="10.62" opacity=".1"/><ellipse cx="746.87" cy="781.25" fill="#6c63ff" rx="46.86" ry="8.53" opacity=".1"/><path fill="#c8cad7" d="M648 715.4v6.42h-189.62v-5.22a62.33 62.33 0 0 0 4.3-115.12h184.07a62.37 62.37 0 0 0 1.25 113.92z"/><path d="M646.75 601.5a62.43 62.43 0 0 0-34.46 41.32h-115.17a62.43 62.43 0 0 0-34.46-41.33z" opacity=".1"/><path fill="#c8cad7" d="M241.2 568.82v36c0 19.88 14.56 36 32.5 36h558c17.96 0 32.5-16.12 32.5-36v-36z"/><path d="M648 715.4v6.42h-189.62v-5.22a62.2 62.2 0 0 0 14.62-7.78h163.4a62.47 62.47 0 0 0 11.6 6.6z" opacity=".1"/><rect width="315" height="19" x="395.71" y="710.82" fill="#c8cad7" rx="9.5" ry="9.5"/><path fill="#474157" d="M864.2 174.32a32.5 32.5 0 0 0-32.5-32.5h-558a32.5 32.5 0 0 0-32.5 32.5v401.5h623z"/><rect width="589" height="377" x="258.21" y="172.82" fill="#ededf4" rx="16" ry="16"/><circle cx="552.71" cy="157.32" r="7.5" fill="#fff"/><circle cx="552.71" cy="606.32" r="18.5" fill="#fff"/><path fill="#c8cad7" d="M847.2 188.82h-589a16 16 0 0 1 16-16h557a16 16 0 0 1 16 16z"/><circle cx="274.21" cy="180.82" r="4" fill="#ededf4"/><circle cx="286.21" cy="180.82" r="4" fill="#ededf4"/><circle cx="298.21" cy="180.82" r="4" fill="#ededf4"/><path fill="#6c63ff" d="M280.2 202.32h151v9h-151zm0 263h151v9h-151z"/><path fill="#6c63ff" d="M280.2 485.32h280v9h-280zm0 13.01h280v9h-280zm0 13h280v9h-280zm0-285.01h278v151h-278zm3 165h65v60h-65zm210 0h65v60h-65zm-106.5 0h65v60h-65zm230.85-121.08h191.33v140.83h-191.33z" opacity=".2"/><path fill="#ededf4" d="M637.7 298.82h151v9h-151zm0 18.68h151v9h-151zm0 18.66h151v9h-151zm0 18.66h151v9h-151zm0 18.68h151v9h-151z"/><path fill="#6c63ff" d="M640.88 427.07h144.67v25.33h-144.67zm-7.73 84.4h97v17h-97z"/><ellipse cx="258.43" cy="775.37" fill="#6c63ff" rx="28.6" ry="2.9" opacity=".1"/><ellipse cx="843.87" cy="733.9" fill="#6c63ff" rx="17.14" ry="1.74" opacity=".1"/><path fill="#6c63ff" d="M268.42 727.6s-37.3 19.27-18 42c0 0 1.8 5 7.06 4.58 0 0-1.05-1.9 3-3.43a19.57 19.57 0 0 0 4-2.14 9.5 9.5 0 0 0 3.6-4.8s7.64-10.22 1.73-29.1c0 0 .77-5.35.1-6.2l-4.58 6.1s4.7 3.14 5.22 7.76c0 0-4.88-7.75-5.94-6.87-.2.17-2.25 3.4-2.25 3.4s8.12 5.5 8.73 12.65c0 0-4.58-10-9.52-11.45l-2.8 5.05s8.9 5.4 9.9 13.52c0 0-5.16-10.3-10.42-12.38l-2.08 5.32s8.55 5.44 9.34 12.2c0 0-7.15-11.3-9.73-11 0 0-1.6 5-1.4 6.55 0 0 6.05 4 6.16 8 0 0-5.58-7.05-6.44-6.58 0 0-.37 7.07 1.35 10.76 0 0-2.94-5.26-2.47-10.77a11.84 11.84 0 0 0-3.58 5.8s-1.6-3.9 3.7-7.48c0 0 .5-5.5 1.1-6.2 0 0-5.73 2.8-8.16 6.24 0 0 .9-5.12 8.66-7.66l2-5.4s-7.76 3.3-10.15 6.2c0 0 1.72-5.1 10.76-7.52l2.7-5s-6.9 2.32-10.27 5c0 0 2.6-4.36 11.1-6.37l2.17-3.1s-5 1.8-6.4 2.43l-1.68.32a18.08 18.08 0 0 1 9-4.07s4.85-6.1 4.5-6.38z"/><ellipse cx="169.3" cy="731.19" fill="#6c63ff" rx="21.92" ry="2.22" opacity=".1"/><path fill="#6c63ff" d="M177 694.6s-28.58 14.76-13.82 32.16a5.5 5.5 0 0 0 5.4 3.5s-.8-1.45 2.28-2.62a15.52 15.52 0 0 0 3.08-1.64 7.3 7.3 0 0 0 2.77-3.7s5.85-7.82 1.32-22.3c0 0 .6-4.1.07-4.75l-3.48 4.77s3.6 2.4 4 5.94c0 0-3.74-5.93-4.55-5.26-.16.14-1.72 2.6-1.72 2.6s6.22 4.23 6.7 9.7c0 0-3.52-7.67-7.3-8.76l-2.14 3.86s6.8 4.14 7.57 10.36c0 0-3.95-7.9-8-9.48l-1.6 4.08s6.57 4.17 7.17 9.35c0 0-5.48-8.65-7.46-8.38 0 0-1.23 3.84-1.07 5 0 0 4.65 3.1 4.73 6.14 0 0-4.28-5.4-4.94-5 0 0-.28 5.42 1.04 8.25a16.5 16.5 0 0 1-1.9-8.24 9.12 9.12 0 0 0-2.74 4.4s-1.23-3 2.83-5.72c0 0 .38-4.22.85-4.74 0 0-4.4 2.14-6.25 4.77 0 0 .68-3.92 6.63-5.87l1.5-4.14s-5.94 2.52-7.78 4.75c0 0 1.32-3.9 8.25-5.75l2.06-3.8s-5.3 1.77-7.88 3.8c0 0 2-3.35 8.5-4.88l1.67-2.4s-3.84 1.38-4.9 1.88l-1.3.24a13.88 13.88 0 0 1 6.88-3.13s3.74-4.77 3.52-4.97zm674.74 10.4s-22.35 11.6-10.8 25.16a4.3 4.3 0 0 0 4.22 2.74s-.63-1.14 1.78-2.06a11.56 11.56 0 0 0 2.4-1.28 5.72 5.72 0 0 0 2.17-2.9s4.58-6.1 1-17.42c0 0 .46-3.2.06-3.72l-2.7 3.72s2.8 1.9 3.12 4.66c0 0-2.93-4.65-3.56-4.12-.13.1-1.35 2-1.35 2s4.87 3.3 5.23 7.58c0 0-2.74-6-5.7-6.85l-1.6 3.1s5.3 3.23 5.9 8.1c0 0-3.07-6.17-6.23-7.42l-1.24 3.2s5.12 3.25 5.6 7.3c0 0-4.3-6.77-5.83-6.55a16.37 16.37 0 0 0-.84 3.92s3.62 2.42 3.7 4.8c0 0-3.36-4.22-3.87-3.94 0 0-.23 4.25.8 6.46a13 13 0 0 1-1.48-6.45 7.12 7.12 0 0 0-2.14 3.46s-1-2.34 2.2-4.48c0 0 .3-3.3.67-3.7 0 0-3.43 1.66-4.88 3.72 0 0 .53-3.07 5.18-4.6l1.18-3.22s-4.65 2-6.1 3.7c0 0 1-3 6.47-4.5l1.6-3a26.7 26.7 0 0 0-6.15 3s1.57-2.6 6.65-3.8l1.3-1.88s-3 1.08-3.83 1.46l-1 .2a10.82 10.82 0 0 1 5.38-2.45s2.9-3.7 2.7-3.9z"/><ellipse cx="936.04" cy="795.71" fill="#6c63ff" rx="41.75" ry="3.49" opacity=".1"/><path fill="#6c63ff" d="M969.47 685.6a17.44 17.44 0 0 0-2.28 4.3c-.15.37-.28.8-.42 1.2a4.46 4.46 0 0 0-.8-.27 11 11 0 0 0-3.56-.3c0-.47.05-.95.07-1.47.13-5.27-.5-12.62-5.52-9.5-4.82 3-1.38 8 1.73 11.2.28.28.55.54.8.8-2.82 2-3.37 6.72-3.84 11.63s-4.64 10.27-7.4 13.32l-.8.85a10.12 10.12 0 0 0-8-2.07c-.1-.43-.23-.88-.37-1.35-2.24-8.1-6.9-22.1-12.83-25.17.26-.3.52-.64.8-1 2.5-3.3 5.34-8.2 1.15-9.44s-4.56 4.24-4.33 8.36q0 .78.1 1.47a6.15 6.15 0 0 0-4.38 2.14l-.64-.76c-3.4-4-9.64-10.37-11.52-5.56-1.76 4.48 3.72 10.3 7.58 13.67l.25.2c-2.6 10.52 8.7 19.1 14.8 22.84l.78.47c-8.4 9.9-13.58 28.46-13.58 28.46l23.52 4.2s15.6-13.46 13.6-26.1h.16c15.58-3.12 19.13-19.74 16.7-29.6l.27-.12a17.65 17.65 0 0 0 7.22-5.45c4.32-6.08-4.77-12.95-9.3-6.95z"/><path d="M969.47 685.6a17.44 17.44 0 0 0-2.28 4.3c-.15.37-.28.8-.42 1.2a4.46 4.46 0 0 0-.8-.27 11 11 0 0 0-3.56-.3c0-.47.05-.95.07-1.47.13-5.27-.5-12.62-5.52-9.5-4.82 3-1.38 8 1.73 11.2.28.28.55.54.8.8-2.82 2-3.37 6.72-3.84 11.63s-4.64 10.27-7.4 13.32l-.8.85a10.12 10.12 0 0 0-8-2.07c-.1-.43-.23-.88-.37-1.35-2.24-8.1-6.9-22.1-12.83-25.17.26-.3.52-.64.8-1 2.5-3.3 5.34-8.2 1.15-9.44s-4.56 4.24-4.33 8.36q0 .78.1 1.47a6.15 6.15 0 0 0-4.38 2.14l-.64-.76c-3.4-4-9.64-10.37-11.52-5.56-1.76 4.48 3.72 10.3 7.58 13.67l.25.2c-2.6 10.52 8.7 19.1 14.8 22.84l.78.47c-8.4 9.9-13.58 28.46-13.58 28.46l23.52 4.2s15.6-13.46 13.6-26.1h.16c15.58-3.12 19.13-19.74 16.7-29.6l.27-.12a17.65 17.65 0 0 0 7.22-5.45c4.32-6.08-4.77-12.95-9.3-6.95z" opacity=".1"/><path fill="#6c63ff" d="M922.65 692.36l-2.75 8s-1.53-1.08-3.46-2.78c-3.85-3.37-9.34-9.2-7.58-13.67 1.88-4.8 8.12 1.55 11.52 5.57 1.36 1.65 2.27 2.9 2.27 2.9zm5.81-4.6a40.53 40.53 0 0 1-2.68 3.16 39 39 0 0 1-.5-4.24c-.22-4.12.2-9.6 4.34-8.36s1.38 6.14-1.16 9.44zm35.47 1.27c-.1 2.65-.35 4.77-.35 4.77a34.92 34.92 0 0 1-3.43-3.07c-3.1-3.23-6.55-8.2-1.73-11.2 5.03-3.12 5.65 4.23 5.5 9.5zm16.24 3.47a17.7 17.7 0 0 1-7.2 5.46 22.5 22.5 0 0 1-2.43.88l-3.24-4.55a32.25 32.25 0 0 1 1.33-4.43 17.44 17.44 0 0 1 2.28-4.3c4.5-5.97 13.63.9 9.27 6.93z"/><path d="M920.38 689.52c1.36 1.6 2.27 2.84 2.27 2.84l-2.75 8s-1.53-1.08-3.46-2.78a15.8 15.8 0 0 1 3.1-7.07 13.1 13.1 0 0 1 .84-.98zm8.08-1.76a40.53 40.53 0 0 1-2.68 3.16 39 39 0 0 1-.5-4.24 5.55 5.55 0 0 1 3.18 1.08z" opacity=".1"/><path fill="#6c63ff" d="M942 719.72l-6.84 3s-1.5-.72-3.65-2.06c-7.17-4.42-21.63-15.55-12-28.67s17.78 10.4 21 21.9c.96 3.46 1.5 5.82 1.5 5.82z"/><path d="M960.15 690.73a5.6 5.6 0 0 1 3.78-1.7c-.1 2.65-.35 4.77-.35 4.77a34.92 34.92 0 0 1-3.43-3.07zm12.85 7.23a22.5 22.5 0 0 1-2.42.88l-3.24-4.55a32.25 32.25 0 0 1 1.33-4.43c2.05 1.22 3.6 4.26 4.33 8.1z" opacity=".1"/><path fill="#6c63ff" d="M956 727.68c-.38.08-.77.15-1.16.2-22.92 3.5-7.56-8.88-7.56-8.88s1-.95 2.44-2.5c2.76-3 6.92-8.4 7.4-13.34.72-7.43 1.55-14.4 10.32-12.36s10.24 32.53-11.44 36.88z"/><path fill="#d4dfec" d="M911.74 784.77h43.8v11.52h-43.8zm-6.97-37.44h57.23v40.2h-57.23z"/><path d="M911.74 784.77h43.8v11.52h-43.8zm-6.97-37.44h57.23v40.2h-57.23z" opacity=".1"/><path fill="#d4dfec" d="M914.62 784.77h43.8v11.52h-43.8z"/><path d="M940.5 713.92c1 3.44 1.48 5.8 1.48 5.8l-6.84 3s-1.5-.72-3.65-2.06c2.67-3.4 5.7-5.95 9-6.74zm15.5 13.76c-.38.08-.77.15-1.16.2-22.92 3.5-7.56-8.88-7.56-8.88s1-.95 2.44-2.5c4.28 3.42 6.03 7.28 6.28 11.18z" opacity=".1"/><path fill="#6c63ff" d="M918.7 749.6s12.84-46 30.84-31.8l-7.32 36z"/><circle cx="925.18" cy="699.21" r="1.44" opacity=".1"/><circle cx="925.06" cy="705.93" r="1.44" opacity=".1"/><circle cx="966.82" cy="700.53" r="1.44" opacity=".1"/><circle cx="933.22" cy="734.97" r="1.44" opacity=".1"/><circle cx="963.82" cy="711.69" r="1.44" opacity=".1"/><circle cx="948.94" cy="726.57" r="1.44" opacity=".1"/><circle cx="930.1" cy="702.09" r="1.44" opacity=".1"/><circle cx="962.86" cy="704.85" r="1.44" opacity=".1"/><circle cx="957.94" cy="716.01" r="1.44" opacity=".1"/><circle cx="942.82" cy="733.89" r="1.44" opacity=".1"/><circle cx="939.7" cy="726.81" r="1.44" opacity=".1"/><circle cx="932.26" cy="710.85" r="1.44" opacity=".1"/><path d="M914.62 784.77h43.8v4.2h-43.8z" opacity=".1"/><path fill="#d4dfec" d="M907.66 747.33h57.24v40.2h-57.24z"/><circle cx="944.74" cy="740.37" r="1.44" opacity=".1"/><circle cx="936.1" cy="742.17" r="1.44" opacity=".1"/><path fill="url(#a)" d="M872.28 624.13c-1.2-.86-1.7-2.93-1.88-5 0-.47-.07-.93-.1-1.37a5 5 0 0 0 1.4-1.26c2.37-3.36-3.3-15.55-3.3-15.55s2.2-6.36 0-11.84l-3.18-6.53s-7.4-15.2-6.3-17-1.83-16-4-18.85a41.54 41.54 0 0 0-2.92-3.54s.37-6.18-2.74-11l-6.57-18.2s-3.84-12.55-6.58-17a19 19 0 0 0-4-4.1c.43-2 1.42-4.66-1.42-20.34-1.16-6.44.65-10.28 2.14-16.65s1.17-13.75-3.4-18.56-11.66-5.7-17.33-9c-5-2.9-9.44-7.78-15.28-7.7-4.3.08-4.28.75-8.23 2.36-6.84 2.78-14.52 1.94-21.46 4.24-6.24 2.07-14.17 8.87-12.28 16.08a7.9 7.9 0 0 0 2.3 4.28c1.35 1.23 3 1.24 4.85.87 0 .12 0 .23-.06.35a18.47 18.47 0 0 0-.24 3c0 10.7 8.9 19.37 19.93 19.44l.17.7c.15.65.3 1.3.43 1.95-.52.7-1.06 1.4-1.57 2.08a20.08 20.08 0 0 0-3 5.33c-5.78 1.2-15.47 3.1-17 5.6-2 3.36-10.22 20-9.3 27.57.04.42.08 1 .12 1.6 0 0-5.06 9-5.8 11.83s-2.36 13.43-5.47 15.9-9.48 10.43-8.57 12l-8.58 3.53s-6.38 2.47-6 4.42c.1.6-.34 1.15-1 1.7-7.26-2.4-16.5-4-23.68-.37-10 5.07 7.54 8.56 18 10.1 1.72.25 3.24.45 4.42.6.07.33.4.63 1.24.92.66.23 1.64.6 2.78 1l.42-1.3c3.47 1.23 12.94 5.06 12.94 5.06s8.22 1.34 10.6-3.43c1-1.93 3.72-5 6.7-8l-.34 1.07-6.92 22.83s-10.95 17-10.4 20.67-3.47 13.08-4.38 14-10 27.74-14.8 29.5-11.13 7.96-9 9.9 11 8.3 15 6.2l11 1.76s7.67-1.26 13.9 1.74c.08.7.16 1.44.24 2.23.65 6 1.7 14.3 2.84 16.7 1.83 3.9 3.47 10.78 2 13.43s1.28 53.2 4 61.85c2.14 6.8 5.07 17.7 4.57 24.82-.3 4.33-.5 8.66-.52 13v.72l-.25.58v.4a35.9 35.9 0 0 0-1.6 4.6s-4.7 11.84-3.1 14.93a2.77 2.77 0 0 0 .74.87c2.27 1.82 8 2.2 10 2.3l-.1 3h2.7s.07-3 .25-6.75a18.4 18.4 0 0 0 1.16-6.58 26.9 26.9 0 0 1 2.4-11.38s.06-.3.12-.8a20.08 20.08 0 0 0 .17-3.12 11 11 0 0 0-1-5.3 11.9 11.9 0 0 1 .2-3.22c.73-2.65-1.1-21.2-1.1-21.2l3.1-34.1s1.83-26.34 1.1-33.23a21.9 21.9 0 0 1 .13-5.54 178.82 178.82 0 0 0 2-22.6v-2.13c6.64 2.28 17.9.4 17.9.4s2.62-.05 6.1 0c.1.73.2 1.44.3 2.13.52 3.7 1.15 7 1.8 8.4 1.82 3.9 3.47 10.8 2 13.44s1.27 53.2 4 61.85c2.15 6.77 5.08 17.67 4.58 24.8-.3 4.32-.48 8.65-.5 13v.8c-.1.2-.2.38-.27.58v.4a36.45 36.45 0 0 0-1.5 4.62s-4.72 11.85-3.12 14.94a2.63 2.63 0 0 0 .75.86c2.27 1.83 8 2.2 10 2.3l-.1 3h2.7s.07-3 .25-6.75a18.4 18.4 0 0 0 1.16-6.58 27 27 0 0 1 2.36-11.39 20.75 20.75 0 0 0 .3-3.9 10.94 10.94 0 0 0-1.06-5.32 12.3 12.3 0 0 1 .2-3.22c.73-2.65-1.1-21.2-1.1-21.2l3.1-34.1s1.84-26.34 1.1-33.23a22.33 22.33 0 0 1 .14-5.54 178.27 178.27 0 0 0 2-21.5v-2.15c.66-.8 2-1.45 5.7-2.7 6.4-2.1 19.17-12.72 24.28-13.42s9.67-4.07 8.2-6.72-9.48-4.4-8.75-8.47-4.92-6.54-7.47-13.25-13.7-12-13.88-17l-10.53-20.28s-10.4-17.28-12.7-27.84c0-.24-.08-.46-.12-.68h.14a19.12 19.12 0 0 1-.38-2.4c0-.23.05-.47.1-.68h-.15v-.45a1.64 1.64 0 0 1 .23-.14l.6-.34-.2.08a19.8 19.8 0 0 0 3.3-2.7 14.7 14.7 0 0 0 3.82-5.32 27 27 0 0 0 1.5-7l1.3-2c1.25 5.27 3.1 12.83 3.67 14.52a147.33 147.33 0 0 1 6.56 21.95 74.6 74.6 0 0 0 8 20.68s9.3 12.2 16.43 12.72 3.1 2.47 4.2 2.83l.3.07.12 1.43.3 4.15s7.3 29.7 15.53 25.45-1.78-24.26-4.5-26.2z" transform="translate(-35 -50.4)"/><path fill="#a1616a" d="M838.24 600.06c-7.9 4.22-14.92-25.26-14.92-25.26l-.3-4.13-.57-7.8 9.65 1.22a29.46 29.46 0 0 0 0 5.06c.17 2 .66 4.1 1.8 4.93 2.58 1.93 12.23 21.75 4.34 25.96zm-119.04 172.14l.68-.5a3.6 3.6 0 0 1-.67.5zm19.9-161.96v22.74a184 184 0 0 1-2 22.48 22.45 22.45 0 0 0-.13 5.5c.7 6.84-1 33-1 33l-3 33.86s1.75 18.42 1 21a12.74 12.74 0 0 0-.2 3.2c.1 3 .63 6.86.8 8v.36l-.1.08-14.68 11.2c2.33-2.14 2.93-7.1 2.92-11.7v-1.5q0-6.45.5-12.9c.48-7.07-2.34-17.9-4.4-24.64-2.63-8.6-5.27-58.78-3.86-61.4s-.18-9.5-1.93-13.35c-1.03-2.35-2.03-10.57-2.63-16.57-.38-3.64-.6-6.4-.6-6.4zm31.16 157.46l.72-.54a4.23 4.23 0 0 1-.72.54zm19.89-161.96v23.87a184.06 184.06 0 0 1-1.93 21.36 22.44 22.44 0 0 0-.13 5.5c.7 6.84-1 33-1 33l-3 33.86s1.75 18.42 1.05 21a12.24 12.24 0 0 0-.2 3.2c.1 3 .64 6.9.8 8 0 .22.05.33.05.33l-.1.08-14.7 11.2c2.27-2.2 2.86-7.1 2.85-11.63v-1.5c0-4.3.2-8.6.5-12.9.46-7.08-2.35-17.9-4.4-24.64-2.65-8.6-5.28-58.78-3.87-61.4s-.18-9.5-1.93-13.35c-.63-1.35-1.23-4.66-1.75-8.34-.93-6.68-1.6-14.63-1.6-14.63z"/><path d="M762.75 414.77l-.15.23a19.26 19.26 0 0 1-13.35 8 16.56 16.56 0 0 1-2.35.16c-.06-.24-.1-.48-.17-.7-1.15-5-2.37-9-2.37-9s1.3-1.9 3.22-4.3c5.2-6.57 14.75-16.94 14-3.08a23.77 23.77 0 0 0 1 8.3c.07.08.1.22.17.4z" opacity=".1"/><path fill="#a1616a" d="M766.18 403.1a19.3 19.3 0 0 1-16.93 19.15 18.66 18.66 0 0 1-2.38.15h-.14a19.3 19.3 0 1 1 19.45-19.3zm18.72 56.24l-18.72 16s-20.4-29.12-18-35.1c.77-1.86.68-5.18.2-8.88-.28-2-.67-4.2-1.1-6.3-.14-.64-.28-1.28-.42-1.9-.06-.25-.1-.5-.17-.72-1.16-5-2.38-9-2.38-9s1.3-1.9 3.22-4.3c5.2-6.56 14.75-16.93 14-3.07a23.77 23.77 0 0 0 1 8.3c0 .17.1.33.15.48 2.65 8.18 9.13 14.7 14.1 18.76a55.84 55.84 0 0 0 6.46 4.6z"/><path d="M709.8 623.23l29.3-13v22.74a10.1 10.1 0 0 1-1.9-.88c-5.8-3.6-13-.8-13.5-.8s-6.33 2.45-12.47-1.24c-.27-.16-.54-.3-.8-.44-.43-3.63-.64-6.4-.64-6.4zm80.35-17.49v23.87a10.7 10.7 0 0 0-1 2.22c-1.06 2.46-8.25 3.34-14.57 2.3a90.2 90.2 0 0 0-12.1-.76c-.94-6.68-1.6-14.63-1.6-14.63z" opacity=".1"/><path fill="#fa595f" d="M818.94 611.47c-4.92.7-17.2 11.23-23.34 13.34s-5.44 2.46-6.5 4.92-8.24 3.33-14.56 2.3l-18.25-.72s-13.3 2.3-19.13-1.3-13-.8-13.5-.8-6.33 2.45-12.47-1.24l-14.4-2.28s-6.66-3.86-10.52-1.75-12.28-4.2-14.4-6.14 4-8.08 8.6-9.84 13.35-28.43 14.22-29.3 4.74-10.18 4.2-13.86l10-20.54 6.67-22.66 2-7 .08-4.17c0-1.88.1-4.3.14-7 .17-11.2.36-27.8 0-35.32-.07-1.15-.13-2.1-.2-2.77-.9-7.54 7-24 8.94-27.37 1.44-2.5 10.76-4.38 16.3-5.55a35.7 35.7 0 0 0 3.93-.93 4.58 4.58 0 0 1 1.54-.12c5.25.2 20.7 3.45 20.7 3.45-1.4 42.3 1.4 34.92 1.4 34.92 4.57-3.5 1.76-34.57 1.76-34.57 2.28 1.05 4.6-1.6 4.6-1.6l8.9 3.7a88.06 88.06 0 0 1 7.86 5.3 23.66 23.66 0 0 1 5.5 5.4c2.62 4.4 6.3 16.86 6.3 16.86l-3.15 5c-2.76 4.44-7 11.25-11.35 18.15l-7.72 12.3c-3.45 5.47-6.26 9.92-7.43 11.73a4.37 4.37 0 0 0-.55 1.4 7.35 7.35 0 0 0-.13 1 15.73 15.73 0 0 0 .4 4.17c2.2 10.48 12.2 27.65 12.2 27.65s10 15.26 10.18 20.17 10.88 10.18 13.34 16.85 7.9 9.12 7.2 13.16 7 5.8 8.4 8.42-2.87 5.97-7.78 6.67z"/><path d="M832.08 569.16c-2.7 1.83-7.48 1.76-9.06 1.5l-.57-7.8 9.65 1.23a29.46 29.46 0 0 0-.02 5.06z" opacity=".1"/><path fill="#fa595f" d="M798.23 459.7l7.2 5.08s3.33 13.33 6.3 18.07l2.64 10.88a38 38 0 0 1 2.8 3.5c2.12 2.82 4.92 16.9 3.87 18.73l6.06 16.9s1 1 3.07 6.5v11.75s5.44 12.12 3.16 15.45-9.66 3-10.7 2.63 2.8-2.28-4-2.8l-15.8-12.64a75.44 75.44 0 0 1-7.73-20.53 151.12 151.12 0 0 0-6.3-21.75c-.9-2.63-4.75-19.65-4.75-19.65z"/><path d="M744.36 459.7s-.53 40.7-5.44 48.77zm28.44 14.38s-4.57 40.7-8.17 42.8l8.16-42.8zm-6.62-5.78s-1.1 38.38-6.9 42.17l6.9-42.18zm-50.42 72.63s-7.26 21.23-6.44 30l6.44-30zm59.74-20.98c-9.5 2.13-35.2 5.95-57.8-8.1 0-1.9.1-4.3.14-7 8.58 4.7 32.68 17 44.95 13.55 6.1-1.75 10-2.86 12.42-3.58a13.22 13.22 0 0 0 .28 5.13zm0-2.1c-9.5 2.12-35.2 5.94-57.8-8.1 0-1.9.1-4.3.14-7 8.58 4.7 32.68 17 44.95 13.55 6.1-1.74 10-2.86 12.42-3.57a13.23 13.23 0 0 0 .28 5.12z" opacity=".1"/><path fill="#605d82" d="M775.5 518.6c-9.5 2.12-35.2 5.94-57.8-8.1 0-1.9.1-4.3.14-7 8.58 4.7 32.68 17 44.95 13.55 6.1-1.74 10-2.86 12.42-3.57a13.23 13.23 0 0 0 .28 5.12z"/><path d="M775.5 518.6c-9.5 2.12-35.2 5.94-57.8-8.1 0-1.9.1-4.3.14-7 8.58 4.7 32.68 17 44.95 13.55 6.1-1.74 10-2.86 12.42-3.57a13.23 13.23 0 0 0 .28 5.12zm-40.9 241.47c0 .23-.04.38-.05.43l-14.67 11.2c2.34-2.14 2.94-7.1 2.93-11.7v-1.5a29.6 29.6 0 0 1 5.43-8.66c2.5-.65 4.07 0 5 1.13v.32a4.6 4.6 0 0 1 .52.77c1.47 2.53 1.05 6.66.86 8zm-1.13-5.67l-11.07 7.6.17-2.2a30.3 30.3 0 0 1 5.67-9.26c2.5-.64 4.07 0 5 1.13.1 1.64.23 2.72.23 2.72z" opacity=".1"/><path fill="#5a5773" d="M734.54 761.22a27.6 27.6 0 0 0-2.3 11.3 17.44 17.44 0 0 1-2.35 9.1 7.82 7.82 0 0 1-.78 1.12s-7.7-.06-10.38-2.3a2.63 2.63 0 0 1-.74-.84c-1.54-3.07 3-14.83 3-14.83 2.38-9.07 7.22-13.9 7.22-13.9 8.63-2.27 6.32 10.35 6.32 10.35z"/><path d="M729.9 781.6a7.82 7.82 0 0 1-.78 1.1s-7.7-.05-10.38-2.28c1.32-4.38 5.55-17.63 7.52-15.38s3.16 12.33 3.63 16.56z" opacity=".1"/><path fill="#5a5773" d="M728.83 765.9l-.53 19.85h2.58s.4-17.42 1.57-19.86h-3.62z"/><path d="M785.66 755.6l-.06.4-14.6 11.12c2.27-2.18 2.86-7.08 2.85-11.62v-1.5a29.57 29.57 0 0 1 5.4-8.66c2.5-.65 4.1 0 5.06 1.12v.33a4.16 4.16 0 0 1 .53.76c1.45 2.57 1.02 6.7.83 8.04zm-1.14-5.72l-11.07 7.6.18-2.2a30 30 0 0 1 5.66-9.24c2.5-.64 4.06-.05 5.04 1.13.04 1.64.18 2.7.18 2.7z" opacity=".1"/><path fill="#5a5773" d="M785.6 756.72a27.44 27.44 0 0 0-2.3 11.3 17.44 17.44 0 0 1-2.36 9.1 8.68 8.68 0 0 1-.77 1.12s-7.7-.06-10.38-2.3a2.76 2.76 0 0 1-.73-.85c-1.53-3.08 3-14.84 3-14.84 2.38-9.07 7.22-13.9 7.22-13.9 8.6-2.24 6.3 10.36 6.3 10.36z"/><path d="M780.94 777.13a8.68 8.68 0 0 1-.77 1.1s-7.7-.05-10.38-2.28c1.3-4.38 5.54-17.64 7.5-15.4s3.17 12.32 3.64 16.58z" opacity=".1"/><path fill="#5a5773" d="M779.9 761.4l-.55 19.84h2.58s.4-17.4 1.57-19.85h-3.6z"/><path d="M802.88 475.3c-.12 5-2.85 10.34-7.64 11.83-1.4.43-2.9.53-4.32.82a9.25 9.25 0 0 0-2 .6c-3.07 1.42-4.6 4.92-5.22 8.24-.22 1.13-.36 2.28-.5 3.44a24.8 24.8 0 0 1-1.37 6.47 16.38 16.38 0 0 1-6.74 7.7 43.4 43.4 0 0 1-11.2 4.67 25.15 25.15 0 0 0 3-20.9c-.64-2.05-2-4.34-4.17-4.28-1.7.04-2.9 1.54-4.16 2.68-6.2 5.58-15.9 3.1-23.75.28 14-14.23 17.9-37.34 9.45-55.4a18.28 18.28 0 0 1-1.72-4.46 9.32 9.32 0 0 1 .43-4.62 20.48 20.48 0 0 1 2.84-5.3c.5-.68 1-1.36 1.52-2.05.67-.9 1.34-1.83 1.94-2.78a15.3 15.3 0 0 0 2-4.33c.9-3.4-.36-7.7-3.65-8.86l-.18-.07c-3.64-1.15-4.77-1.5-7.25-4.4-1.66-1.95-2.6-5-5.44-5.58-2.18-.45-4.62.52-6.9 1.1a19.3 19.3 0 1 1 34.8 14.18c2.55 8.4 9.18 15.1 14.26 19.23l8.9 3.7a88.06 88.06 0 0 1 7.85 5.3 114.82 114.82 0 0 0 5.66 18.3 64.45 64.45 0 0 1 3 9 22.15 22.15 0 0 1 .55 5.48z" opacity=".1"/><path fill="#4a4347" d="M748.1 408.3c3.42 1.06 4.74 5.46 3.83 8.92s-3.36 6.26-5.43 9.17-3.9 6.38-3.28 9.9a18.28 18.28 0 0 0 1.72 4.47c8.44 18.05 4.5 41.15-9.45 55.4 7.84 2.8 17.55 5.3 23.74-.3 1.26-1.13 2.47-2.63 4.16-2.68 2.15-.08 3.54 2.22 4.17 4.27a25.13 25.13 0 0 1-3 20.9c7.23-2.1 15.17-5.36 17.94-12.36 1.25-3.12 1.25-6.6 1.87-9.92s2.15-6.8 5.22-8.22c2-.9 4.24-.8 6.3-1.43 4.8-1.5 7.53-6.8 7.65-11.82s-1.8-9.8-3.6-14.48c-10-26-.6-5.17-6.08-36.46-1.12-6.4.63-10.2 2.06-16.53s1.12-13.64-3.27-18.42-11.2-5.66-16.66-8.9c-4.83-2.88-9.08-7.73-14.7-7.64-4.12.06-4.1.73-7.9 2.33-6.58 2.75-13.95 1.92-20.63 4.2-6 2.06-13.62 8.8-11.8 16 2.45 9.7 9.17 2.56 14.4 3.65 2.85.6 3.8 3.62 5.45 5.57 2.52 2.88 3.64 3.23 7.28 4.37z"/><path fill="#a1616a" d="M685 526.5s-2.84-.3-6.66-.9c-10-1.52-26.9-5-17.3-10 8.84-4.62 21-.7 28.13 2.44a62.28 62.28 0 0 1 5.92 3z"/><path d="M738.22 465.48s-4.56 23-6.84 28.07l-6 18.43s-5.4 4.88-9.84 9.62l2-7 .08-4.17c0-1.88.1-4.3.14-7 .18-11.2.37-27.8 0-35.32.4-.72.64-1.17.64-1.17l3.55-5.63s5.8-15.44 9.12-19.83l7.15 24zm-50.42 57.96s-.52 2-1.38 4.7c-1.1-.44-2-.8-2.67-1-3-1 .53-2.28-.35-4.9-.75-2.27-2.14-1.56-3.74-2.2a43.7 43.7 0 0 1 3.4-4.06z" opacity=".1"/><path fill="#fa595f" d="M721.37 461.27l-3.55 5.63s-4.82 8.93-5.57 11.7-2.25 13.37-5.25 15.83-9.13 10.35-8.25 11.93l-8.25 3.5s-6.14 2.47-5.8 4.4-5.08 3.5-3.15 4.9 3.7 0 4.57 2.64-2.64 3.87.35 4.92l12.8 5.16s7.9 1.33 10.18-3.4l15.27-16.5s3.68-13.34 6-18.43l6.85-28.07s-3.7-28.43-7-24l-9.2 19.8z"/><path d="M711.37 506.54s-17.37 2.28-8.07 6.14h12.46zm-21.57 10.36s10.17-2.1 12.8 0h-12.8zm-1.06 5.26s.7-1.76 4.2 0h-4.2zm114.84 16.76s1.06 16 5.37 16.52l-5.37-16.52zm9.22-36.22s.73 4.9-3.85 5.77l3.85-5.77zm-51.95 47.6s-.23 49.36 9.83 55.44zm13.33 2.1s-.18 49.36 9.82 55.45zm-53.46 106.9a37 37 0 0 1 6.85 0c3.8.3-6.85 0-6.85 0zm0 3.44a37 37 0 0 1 6.85 0c3.8.35-6.85 0-6.85 0zm52.05-7.5a37 37 0 0 1 6.85 0c3.8.36-6.85 0-6.85 0zm1.17 2.76a37 37 0 0 1 6.85 0c3.8.35-6.86 0-6.86 0zm-34.76-163.57c14-14.23 17.9-37.33 9.45-55.4a18.28 18.28 0 0 1-1.72-4.46c-.62-3.52 1.2-7 3.3-9.9s4.52-5.72 5.42-9.18-.4-7.87-3.83-8.93c-3.65-1.14-4.78-1.5-7.26-4.4-1.66-1.95-2.6-5-5.44-5.57-5.24-1.1-12 6-14.4-3.66-1.4-5.42 2.64-10.6 7.3-13.7-5.82 2.42-12.54 8.82-10.82 15.6 2.45 9.68 9.17 2.56 14.4 3.65 2.85.58 3.8 3.6 5.45 5.55 2.5 2.92 3.6 3.27 7.25 4.4 3.42 1.07 4.74 5.47 3.83 8.93s-3.35 6.26-5.42 9.17-3.9 6.4-3.28 9.92a18.37 18.37 0 0 0 1.72 4.46c8.44 18.06 4.5 41.16-9.45 55.4 7.56 2.7 16.83 5.1 23 .3-5.85 2.06-13.25.03-19.5-2.2zm54.12-8.29a6.9 6.9 0 0 0-2 1.38c1.6-.4 3.26-.44 4.8-.93a9 9 0 0 0 3.27-1.83c-2 .56-4.17.5-6.06 1.37zm-17.4 27.76a55.34 55.34 0 0 1-7.6 2.74 25.13 25.13 0 0 0 3-20.9c-.64-2-2-4.34-4.18-4.28a5.33 5.33 0 0 0-3.32 1.9c2 .07 3.37 2.3 4 4.28a25.13 25.13 0 0 1-3 20.9 43.92 43.92 0 0 0 11.1-4.65z" opacity=".1"/></svg>