<svg viewBox="0 0 1440 1024" xmlns="http://www.w3.org/2000/svg"><title>BUILD PRODUCT@2x</title><desc>Created with Sketch.</desc><defs><linearGradient x1="50%" y1="14.066%" x2="50%" y2="100%" id="a"><stop stop-color="#E9F0FB" offset="0%"/><stop stop-color="#fff" offset="100%"/></linearGradient><linearGradient x1="157.42%" y1="-39.692%" x2="118.836%" y2="115.938%" id="b"><stop stop-color="#E5EDFF" offset="0%"/><stop stop-color="#6B9AD9" offset="100%"/></linearGradient><linearGradient x1="181.313%" y1="173.65%" x2="662.835%" y2="4%" id="c"><stop stop-color="#E5EDFF" offset="0%"/><stop stop-color="#6B9AD9" offset="100%"/></linearGradient><linearGradient x1="39.568%" y1="269.973%" x2="77.438%" y2="0%" id="d"><stop stop-color="#E5EDFF" offset="0%"/><stop stop-color="#6B9AD9" offset="100%"/></linearGradient><linearGradient x1="50%" y1="-104.29%" x2="50%" y2="100%" id="e"><stop stop-color="#fff" offset="0%"/><stop stop-color="#B3CDEF" offset="100%"/></linearGradient><linearGradient x1="45.815%" y1="15.16%" x2="75.941%" y2="70.686%" id="f"><stop stop-color="#F59BA9" offset="0%"/><stop stop-color="#F25267" offset="100%"/></linearGradient><linearGradient x1="-148.443%" y1="220.756%" x2="171.514%" y2="220.756%" id="g"><stop stop-color="#E5EDFF" offset="0%"/><stop stop-color="#6B9AD9" offset="100%"/></linearGradient><linearGradient x1="50%" y1="19.686%" x2="-33.812%" y2="294.476%" id="h"><stop stop-color="#F7FAFF" offset="0%"/><stop stop-color="#6B9AD9" offset="100%"/></linearGradient><linearGradient x1="83.28%" y1="11.256%" x2="111.029%" y2="953.538%" id="i"><stop stop-color="#476DB1" offset="0%"/><stop stop-color="#283F6F" offset="100%"/></linearGradient><linearGradient x1="50%" y1="-10.877%" x2="50%" y2="100%" id="j"><stop stop-color="#FFE579" offset="0%"/><stop stop-color="#FEB755" offset="100%"/></linearGradient><linearGradient x1="50%" y1="32.119%" x2="67.286%" y2="115.978%" id="k"><stop stop-color="#84F0A8" offset="0%"/><stop stop-color="#48B676" offset="100%"/></linearGradient><linearGradient x1="50%" y1="-142.327%" x2="50%" y2="170.165%" id="l"><stop stop-color="#95B7E5" offset="0%"/><stop stop-color="#476DB1" offset="100%"/></linearGradient><linearGradient x1="83.28%" y1="11.256%" x2="43.63%" y2="621.571%" id="m"><stop stop-color="#476DB1" offset="0%"/><stop stop-color="#283F6F" offset="100%"/></linearGradient><linearGradient x1="226.493%" y1="50%" x2="39.966%" y2="24.934%" id="n"><stop stop-color="#fff" offset="0%"/><stop stop-color="#E5EEFF" offset="100%"/></linearGradient><linearGradient x1="85.097%" y1="109.304%" x2="4.854%" y2="-47.176%" id="o"><stop stop-color="#032258" offset="0%"/><stop stop-color="#133E94" offset="100%"/></linearGradient><linearGradient x1="13.183%" y1="63.035%" x2="68.879%" y2="57.737%" id="p"><stop stop-color="#925948" offset="0%"/><stop stop-color="#B06C57" offset="100%"/></linearGradient><linearGradient x1="100%" y1="50%" x2="0%" y2="50%" id="q"><stop stop-color="#2865C6" offset="0%"/><stop stop-color="#10378A" offset="100%"/></linearGradient><linearGradient x1="60.731%" y1="0%" x2="52.081%" y2="50%" id="r"><stop stop-color="#3485F7" offset="0%"/><stop stop-color="#1A57CF" offset="100%"/></linearGradient><linearGradient x1="60.731%" y1="0%" x2="50%" y2="100%" id="s"><stop stop-color="#fff" offset="0%"/><stop stop-color="#E5EEFF" offset="100%"/></linearGradient><linearGradient x1="149.379%" y1="-86.566%" x2="157.42%" y2="219.658%" id="t"><stop stop-color="#E5EDFF" offset="0%"/><stop stop-color="#6B9AD9" offset="100%"/></linearGradient></defs><g fill="none"><path d="M.879 426.506c112.987-74.403 261.087-104.404 444.301-90.004 274.821 21.601 257.354 187.808 994.821 121.205v530.291h-1440l.879-561.492z" fill="url(#a)" opacity=".5"/><g fill-rule="nonzero"><path id="Table-base" fill="url(#b)" d="M138 582.721h393v15.991h-393z"/><path fill="url(#c)" d="M158 599h12v197.991h-12zM499 599h12v197.991h-12z"/><g><path d="M171 598h153c1.105 0 2 .895 2 2v118c0 1.105-.895 2-2 2h-153c-1.105 0-2-.895-2-2v-118c0-1.105.895-2 2-2z" id="Storage-base" fill="url(#d)"/><g id="Storage-base"><path d="M181 605h132c2.209 0 4 1.791 4 4v42c0 2.209-1.791 4-4 4h-132c-2.209 0-4-1.791-4-4v-42c0-2.209 1.791-4 4-4z" id="Storeage-base" fill="url(#e)"/><path d="M207.352 612.831h79.296c1.83 0 3.313 1.483 3.313 3.313s-1.483 3.313-3.313 3.313h-79.296c-1.83 0-3.313-1.483-3.313-3.313s1.483-3.313 3.313-3.313z" id="Rectangle-13-Copy-2" fill="url(#b)"/></g><g><path d="M181 663h132c2.209 0 4 1.791 4 4v42c0 2.209-1.791 4-4 4h-132c-2.209 0-4-1.791-4-4v-42c0-2.209 1.791-4 4-4z" fill="url(#e)"/><path d="M207.352 670.831h79.296c1.83 0 3.313 1.483 3.313 3.313s-1.483 3.313-3.313 3.313h-79.296c-1.83 0-3.313-1.483-3.313-3.313s1.483-3.313 3.313-3.313z" fill="url(#b)"/></g></g><path d="M253.773 577.404h116.305c1.105 0 2 .895 2 2s-.895 2-2 2h-113.078c-7.18 0-13-4-13-12.404s5.82-13 13-13 13 5.82 13 13c0 1.105-.895 2-2 2s-2-.895-2-2c0-4.971-4.029-9-9-9s-9 4.029-9 9c0 4.125 1.924 6.927 5.773 8.404z" fill="url(#f)"/></g><g fill-rule="nonzero"><path d="M274 486.092c-14.436-23.483-32.2-32.244-53.294-26.281-21.093 5.962-30.143 45.025-27.148 117.189" id="Table-lamp-base" stroke="#A4C1EB" stroke-width="4" stroke-linecap="round" stroke-linejoin="round"/><path d="M217 577h-50c-3.314 0-6 2.686-6 6h62c0-3.314-2.686-6-6-6zM270.366 476.974l-1.732 1c-3.348 1.933-4.495 6.214-2.562 9.562l7.5 12.99 13.856-8-7.5-12.99c-1.933-3.348-6.214-4.495-9.562-2.562z" id="Table-lamp-base" fill="url(#g)"/><path d="M276.5 490.876c-10.283 5.937-13.807 19.086-7.87 29.37l3.25 5.629 37.239-21.5-3.25-5.629c-5.937-10.283-19.086-13.807-29.37-7.87z" fill="url(#e)"/></g><g fill-rule="nonzero"><g><path id="Hammer-base" fill="url(#e)" d="M182 349h18v81h-18zM203 325h9c3.314 0 6 2.686 6 6v15c0 3.314-2.686 6-6 6h-9v-27z"/><path d="M151.68 339.72l9.737-6.47c8.097-5.38 17.602-8.25 27.324-8.25h17.26v27h-51.75c-2.899 0-5.25-2.351-5.25-5.25v-2.033c0-2.009 1.006-3.885 2.68-4.997z" fill="url(#g)"/></g><path d="M275.022 357.313v34.374l7.474 4.3c.93.535 1.504 1.527 1.504 2.6v18.967c0 1.073-.574 2.065-1.504 2.6l-5.994 3.449c-1.436.826-3.27.332-4.096-1.104-.262-.455-.4-.971-.4-1.496v-13.253c0-1.073-.574-2.065-1.504-2.6l-4.506-2.592c-.926-.533-2.066-.533-2.992 0l-4.506 2.592c-.93.535-1.504 1.527-1.504 2.6v13.253c0 1.657-1.343 3-3 3-.525 0-1.041-.138-1.496-.4l-5.994-3.449c-.93-.535-1.504-1.527-1.504-2.6v-18.967c0-1.073.574-2.065 1.504-2.6l7.503-4.316v-34.341l-7.503-4.316c-.93-.535-1.504-1.527-1.504-2.6v-18.967c0-1.073.574-2.065 1.504-2.6l5.994-3.449c1.436-.826 3.27-.332 4.096 1.104.262.455.4.971.4 1.496v13.253c0 1.073.574 2.065 1.504 2.6l4.506 2.592c.926.533 2.066.533 2.992 0l4.506-2.592c.93-.535 1.504-1.527 1.504-2.6v-13.253c0-1.657 1.343-3 3-3 .525 0 1.041.138 1.496.4l5.994 3.449c.93.535 1.504 1.527 1.504 2.6v18.967c0 1.073-.574 2.065-1.504 2.6l-7.474 4.3z" id="Path" fill="url(#e)"/><g><path d="M326 325h12c3.314 0 6 2.686 6 6v54h-24v-54c0-3.314 2.686-6 6-6zM326 382h12v45l-6 8.83-6-8.83z" id="Screwdriver-base" fill="url(#e)"/><path d="M320 373h24c1.657 0 3 1.343 3 3v6c0 1.657-1.343 3-3 3h-24c-1.657 0-3-1.343-3-3v-6c0-1.657 1.343-3 3-3z" fill="url(#g)"/></g></g><g fill-rule="nonzero"><path d="M364 230h753v455c0 2.209-1.791 4-4 4h-745c-2.209 0-4-1.791-4-4v-455z" fill="url(#h)"/><path d="M745 297h317c2.209 0 4 1.791 4 4v59c0 2.209-1.791 4-4 4h-317c-2.209 0-4-1.791-4-4v-59c0-2.209 1.791-4 4-4z" fill="url(#b)"/><g id="UI" stroke="#8AAFE1" stroke-dasharray="10,10" stroke-linecap="round" stroke-linejoin="round" stroke-width="4"><path d="M745 385h317c2.209 0 4 1.791 4 4v226c0 2.209-1.791 4-4 4h-317c-2.209 0-4-1.791-4-4v-226c0-2.209 1.791-4 4-4z"/><path d="M750.601 609.181s105.144-72.06 315.433-216.181" id="Path-3"/></g><g id="UI" fill="url(#b)"><path d="M429 493h180c2.209 0 4 1.791 4 4v50c0 2.209-1.791 4-4 4h-180c-2.209 0-4-1.791-4-4v-50c0-2.209 1.791-4 4-4z"/><path d="M429 571h260c2.209 0 4 1.791 4 4v50c0 2.209-1.791 4-4 4h-260c-2.209 0-4-1.791-4-4v-50c0-2.209 1.791-4 4-4z"/></g><g stroke="#8AAFE1" stroke-dasharray="10,10" stroke-linecap="round" stroke-linejoin="round" stroke-width="4"><path d="M418 279h273c2.209 0 4 1.791 4 4v175c0 2.209-1.791 4-4 4h-273c-2.209 0-4-1.791-4-4v-175c0-2.209 1.791-4 4-4z"/><path d="M417.206 458.471l270.034-170.953"/></g><g><path d="M304 120h713c11.046 0 20 8.954 20 20v55c0 2.209-1.791 4-4 4h-745c-2.209 0-4-1.791-4-4v-55c0-11.046 8.954-20 20-20z" fill="url(#i)"/><g transform="translate(284 120) translate(25 27)"><circle fill="url(#f)" cx="12.5" cy="12.5" r="12.5"/><circle fill="url(#j)" cx="51.5" cy="12.5" r="12.5"/><circle fill="url(#k)" cx="90.5" cy="12.5" r="12.5"/></g></g></g><g fill-rule="nonzero"><path d="M719 692h126v12h-126v-12zm0 43h126v12h-126v-12zm0 43h126v12h-126v-12z" id="Shape" fill="url(#l)"/><path id="Stairs-base" fill="url(#l)" d="M723 653h17l-20 187h-17zM841 653l20 187h-17l-20-187z"/><path fill="url(#m)" d="M710 632h147v27h-147z"/></g><g fill-rule="nonzero"><g id="Hand"><path d="M1035.863 345.473c24.48-56.663 40.376-56.524 52.323-63.026 7.965-4.335 12.125-.843 12.481 10.473-25.078 29.033-37.113 48.426-36.105 58.181 1.511 14.632-42.045 25.264-28.699-5.628z" fill="#B06C57"/><path d="M1080.672 400.215c11.317 5.631 13.265 17.624 5.844 35.976-2.63 6.505-11.892 7.688-24.348-1.691-14.932-11.243-42.36-58.077-29.014-88.969.09.19 1.773-2.82 1.647-4.826-.141-2.26-2.054-3.722-1.147-6.965 1.634-5.837 6.34-11.491 6.629-11.445 6.106.964 14.047 7.121 21.835 9.806 5.461 1.883 10.352 2.655 13.148 4.881 1.099.875-.473 9.991-3.392 14.663-1.355 2.168-5.55.914-5.195.536-3.893 18.181.771 34.192 13.994 48.034z" id="Sleeve" fill="url(#n)"/></g><g transform="matrix(-.966 -.259 -.259 .966 1301.848 332.159)"><path stroke="#979797" stroke-width=".8"/><path stroke="#979797" stroke-width=".8"/><g><path d="M185.354 102.149c-1.074 11.886-1.263 19.437-.568 22.654 1.043 4.826 24.048 18.078 2.224 21.553-14.549 2.316-27.894-9.715-40.034-36.092 5.837-1.069 9.547-4.036 11.127-8.901 1.581-4.865 1.943-9.355 1.087-13.468-4.307-23.461-4.989-36.918-2.045-40.372 2.944-3.454 14.009-7.373 33.196-11.757 18.517 12.684 27.247 21.001 26.189 24.949-1.587 5.923-3.71 4.884-4.777 8.865-1.067 3.981.874 6.849-.014 9.013-5.255 12.806-13.157 19.283-15.191 21.983-2.378 3.156-6.109 3.68-11.193 1.574z" fill="#B06C57"/><path d="M192.607 11.402c-5.959-4.059-21.674.466-25.562 3.631-5.117 4.167-7.626 9.314-7.527 15.441-5.213 5.62-8.362 10.662-9.447 15.126-1.195 4.914-6.375 8.997-5.931 15.692.204 3.079 4.34 7.543 4.443 9.991.659 15.581 4.431 16.592 7.933 19.362 4.024 3.183 8.517-2.532 14.816-9.922-6.643-5.628-4.091-16.455 1.403-17.767 2.905-.694 3.599 1.807 3.908 10.507.276 7.752-3.407 10.231-1.041 19.017 2.009 7.462 12.336 11.66 14.52 11.526 11.594-.712 15.774-11.932 16.71-15.404.095-.354.776-2.988-3.839-4.239-4.615-1.252-19.489 2.451-21.925-7.485-.854-3.484.079-8.566 2.8-15.247 4.605-1.161 7.674-2.3 9.208-3.415 4.793-3.488 6.896-7.875 9.216-6.798 15.656 7.269 21.958 17.15 28.797 7.716 6.838-9.434 1.359-10.804-.718-16.861-1.949-5.683.461-12.426-4.098-13.648-13.952-3.738-22.193-9.409-33.666-17.225zm10.355 80.215c-2.249 4.598-4.32 6.643-6.21 6.137-1.625-.435.905-1.578-.279-1.895-1.184-.317-2.729 1.757-3.348 1.591-2.564-.687-2.593-3.018-.084-6.994 2.982-1.049 5.317-1.426 7.004-1.129 1.687.296 2.659 1.06 2.917 2.29z" fill="url(#o)"/></g><g><path d="M32.937 496.556l26.76 9.405-7.777 21.146c-3.511 1.912-7.897 2.163-13.158.752-5.261-1.411-9.068-4.887-11.419-10.429l5.595-20.874z" id="leg" fill="url(#p)"/><path d="M27.807 516.334c1.697.915 5.618 7.249 12.999 11.231s11.976-5.796 12.8-4.313c1.607 2.89 4.087 8.719 7.441 17.486l12.08 15.757c1.449 1.89 1.937 4.346 1.32 6.645-.585 2.18-2.572 3.687-4.829 3.662-6.444-.071-11.152-.649-14.124-1.736-5.302-1.938-21.353-14.64-33.632-22.002-1.27-.761-1.983-2.742-1.72-4.777.642-4.966 1.281-8.575 1.915-10.828 1.744-6.188 4.053-12.041 5.75-11.126z" id="Shoes" fill="url(#q)"/><path d="M100.254 501.153l26.76 9.405-7.777 21.146c-3.511 1.912-7.897 2.163-13.158.752-5.261-1.411-9.068-4.887-11.419-10.429l5.595-20.874z" fill="url(#p)"/><path d="M95.577 518.238c2.233.599 2.14 9.003 11.853 11.607 9.713 2.604 12.66-4.464 13.822-3.181 2.264 2.502 5.429 6.193 9.493 11.073 16.301 10.446 22.593 18.788 18.874 25.027-.463 1.466-23.875-4.77-59.33-15.785-1.677-.521-2.733-2.299-2.548-4.288.452-4.854.999-8.409 1.643-10.667 1.767-6.202 3.961-14.386 6.194-13.787z" fill="url(#q)"/><path d="M101.838 404.432c-30.773 80.351-38.006 107.331-41.253 112.098-4.87 7.15-34.823-.881-33.851-12.321.648-7.627 11.512-48.148 32.589-121.564 15.098-79.978 11.786-93.44 17.083-111.721 5.297-18.281 19.949-44.861 43.958-79.739l22.658 59.641c5.295-5.681 11.777-12.581 19.447-20.699 21.763-6.812 20.171 20.099 19.096 45.85-1.074 25.751 1.371 92.072-14.874 138.367-29.561 84.249-36.049 103.402-39.296 108.169-4.87 7.15-34.823-.881-33.851-12.321.648-7.627 5.932-27.325 27.01-100.741 1.909-30.228 5.813-68.392 5.675-87.994.778 10.824-7.353 38.482-24.393 82.976z" fill="url(#r)"/></g><g><path d="M184.283 117.521c-.077 3.89.085 6.36.484 7.41.495 1.302 2.956 3.019 2.765 3.224-.884.948-2.116 13.93-3.833 14.306-2.393.524.096-13.737-3.906-13.614-6.322.194-14.799-6.472-26.031-20.988-.172-.222 2.19-1.84 1.909-2.207-.116-.152-1.274-.131-3.473.062-2.187 3.048-3.845 4.751-4.975 5.11-13.776 4.37-23.96 5.12-29.981 9.232-6.762 4.618-11.59 28.352-14.482 71.202-15.174 41.984-25.675 69.165-31.502 81.543 36.177 23.576 73.551 30.486 112.121 20.73 9.971-60.097 16.86-99.471 20.667-118.123 3.807-18.652 1.37-32.659-7.313-42.021l-12.449-15.865z" fill="url(#s)"/><path d="M183.283 144.129c.037-.551.514-.968 1.065-.931.551.037.968.514.931 1.065-4.915 73.335-15.65 131.725-26.058 152.125-.251.492-.853.687-1.345.436-.492-.251-.687-.853-.436-1.345 10.24-20.07 20.947-78.292 25.844-151.349z" fill="#5E9FBC"/></g><path d="M168.702 142.203c-9.238-3.665-30.485-17.167-23.701-30.695.901.055 2.445-.373 3.361-1.153 1.691-1.439 3.003-3.803 4.176-4.415 1.218-.258 2.542-.136 3.273-.373.608-.197.695-.682.996-1.473-11.421-2.362-33.193 8.112-41.522 13.799-6.762 4.618-15.973 31.07-27.632 79.355-6.189 23.096-12.073 40.898-17.653 53.406 10.497 6.84 40.18 28.113 49.895 23.666 40.513-18.542 50.973-126.602 48.807-132.119z" id="Vest-base" fill="url(#j)"/><path d="M88.195 233.964l38.934-4.57-12.146 13.315c-1.155 1.266-2.987 1.656-4.557.97l-22.231-9.715z" fill="#F0AA44"/><ellipse id="Vest-base" fill="url(#s)" transform="rotate(18 115.766 151.314)" cx="115.766" cy="151.314" rx="16.5" ry="32.14"/><path d="M190.463 147.425c7.086-5.508 7.703-13.275.193-21.168-.557-.585-2.644-3.461-6.263-8.626-.294-1.615-.277-3.035.051-4.26 4.843 1.845 16.315 10.726 21.322 23.704 4.334 11.233.571 58.852-1.187 98.637-.773 17.487 7.682 30.719 4.477 32.808-10.497 6.84-17.969 9.521-26.973 7.108-9.004-2.413 3.27-33.757 8.654-66.399 4.19-25.403-1.484-56.436-.276-61.803z" fill="url(#j)"/></g><g><path d="M1179.14 573.728l-.41 1.096-4.534 8.652c-2.033 12.476-3.464 18.921-4.294 19.334-.83.413-1.454-1.788-1.871-6.602-4.297 5.673-6.92 8.542-7.869 8.609-.948.066-.26-3.049 2.065-9.347-5.668 5.237-8.971 7.639-9.91 7.205-.939-.433.675-4.108 4.842-11.024-5.527 4.245-8.346 5.755-8.456 4.531-.11-1.224 3.144-5.689 9.763-13.393-4.944-.341-7.157-1.072-6.639-2.196.518-1.123 4.158-3.204 10.919-6.243 1.678-1.951 3.251-3.73 4.717-5.337 8.516-39.694 10.264-63.74 5.244-72.138-7.545-12.623-10.057-18.325-28.709-37.735-18.651-19.411-7.009-39.804 7.573-42.048 16.419-2.526 56.812 42.048 54.818 75.993-1.993 33.945-21.205 75.369-26.596 80.12-.217.191-.435.365-.656.524z" fill="#B06C57"/><path d="M1144 459.139c-18.651-19.411-7.009-39.804 7.573-42.048 16.419-2.526 56.812 42.048 54.818 75.993-.23 3.915-.689 7.929-1.329 11.974-.086.546 1.928.501 2.065 1.048.672 2.687 1.884 6.52.909 8.665-7.646 16.825-36.618 12.545-36.243 0 .084-2.823 1.065-4.968.916-7.251-.038-.576 2.567-.688 2.514-1.23-.402-4.147-1.24-7.286-2.514-9.417-7.545-12.623-10.057-18.325-28.709-37.735z" fill="url(#s)"/></g></g><g fill-rule="nonzero"><path d="M1146.736 333.091c9.465-19.427 1.389-42.849-18.038-52.314-19.427-9.465-42.849-1.389-52.314 18.038l70.351 34.276z" id="Helmet-base" fill="url(#j)"/><path d="M1143.685 314.817c.189.75.949 1.205 1.699 1.016.75-.189 1.205-.949 1.016-1.699-2.899-11.525-10.667-21.261-21.559-26.568-8.529-4.155-18.043-5.151-27.084-3.006-.752.178-1.218.933-1.039 1.685.178.752.933 1.218 1.685 1.039 8.418-1.997 17.27-1.071 25.212 2.799 10.142 4.941 17.371 14.002 20.07 24.734zM1147.99 330.517l-82.363-40.128c-3.317-1.616-7.316-.237-8.932 3.08l88.368 43.054 2.926-6.006z" fill="#EE9F3E"/></g><g fill-rule="nonzero"><g id="Leaves"><path d="M1293.63 539.282c-17.474-3.186-22.621 36.801-29.316 42.545-6.681 5.692-20.401 4.06-22.972 19.911-2.57 15.851 10.22 18.969 8.072 32.133-2.149 13.164-30.108 3.334-33.451 24.127-3.344 20.793 16.829 33.182 14.793 45.702-2.036 12.519-14.258 14.151-18.738 41.867-4.48 27.715 16.068 39.56 48.44 51.392s55.469 8.68 60.552-21.132c5.083-29.812-30.239-39.057-30.018-56.153.205-17.042 24.893-19.256 28.131-38.392 3.237-19.135-30.431-27.882-27.883-43.177 2.548-15.295 31.029-15.858 33.708-31.74 2.679-15.881-3.306-20.078-14.317-28.971-11.04-8.794.475-34.926-16.999-38.111z" id="Leaf" fill="url(#e)"/><path d="M1261.326 782.275c.636.412 1.378.133 1.658-.623.279-.757-.01-1.703-.647-2.114-15.302-9.821-21.488-22.589-18.838-38.73.133-.813-.314-1.655-1-1.88-.686-.225-1.35.25-1.483 1.061-2.884 17.591 3.993 31.78 20.309 42.287zM1270.093 715.387c.71.144 1.304-.423 1.327-1.267.023-.844-.535-1.643-1.245-1.786-11.505-2.322-19.195-11.677-23.262-28.317-.204-.828-.923-1.394-1.606-1.265-.683.128-1.071.902-.867 1.729 4.37 17.851 12.961 28.317 25.653 30.905zM1271.824 623.276c.492.068.903-.331.917-.891.014-.561-.373-1.07-.866-1.138-5.939-.82-9.903-5.236-12.01-13.456-.141-.547-.639-.902-1.111-.791-.473.11-.742.643-.601 1.19 2.315 9.024 6.906 14.143 13.67 15.086zM1275.375 613.23c-.477-.163-.73-.72-.566-1.245.165-.525.685-.819 1.162-.657 5.757 1.958 10.836-.366 15.424-7.17.307-.455.882-.568 1.285-.252.403.316.481.942.174 1.398-5.041 7.479-10.923 10.167-17.48 7.927zM1270.854 694.86c-.686-.271-1.042-1.117-.795-1.89.247-.773 1.003-1.182 1.689-.912 10.164 3.999 19.242.065 27.519-12.14.452-.669 1.286-.811 1.863-.318.576.493.677 1.437.224 2.106-8.946 13.199-19.189 17.629-30.5 13.153zM1271.164 768.347c-.676-.304-1.024-1.177-.777-1.951s.996-1.157 1.672-.855c10.024 4.487 19.009.877 27.238-11.161.45-.659 1.274-.769 1.841-.244s.662 1.487.213 2.147c-8.895 13.019-19.032 17.084-30.187 12.065z" id="leaves-base" fill="#98BBE9"/><path d="M1251.108 837.238c-.182 1.093.408 2.273 1.318 2.635.909.362 3.029.258 3.211-.839-.207-7.187.665-16.686 2.618-28.507 2.929-17.73 16.733-44.212 18.253-64.482 1.507-20.224-9.782-62.561-9.421-93.123.256-24.737 10.614-44.508 15.299-58.208 4.698-13.744 6.348-31.033 6.036-31.096-.374-.075-2.145 17.638-6.99 30.885-4.832 13.2-13.61 29.953-16.088 50.479-4.631 38.273 10.48 77.536 6.304 102.622s-13.862 38.252-18.581 59.926c-3.141 14.431-3.792 24.327-1.959 29.708z" fill="#8FAFDA"/></g><g id="Leaves"><path d="M1170.121 555.505c16.899-5.162 27.732 35.076 35.278 40.374 7.546 5.298 21.155 2.631 26.089 18.784 4.934 16.153-7.644 19.995-3.582 33.294 4.062 13.299 31.325 2.292 37.867 23.71 6.542 21.418-12.635 34.155-8.754 46.863 3.882 12.708 16.917 14.569 25.578 42.925 8.661 28.356-11.598 39.122-44.471 49.163-32.872 10.04-57.608 6.246-66.269-22.11-8.661-28.356 26.967-37.336 24.63-53.997-2.337-16.661-28.06-18.266-33.681-36.67-5.621-18.404 27.629-28.559 23.036-43.596-4.593-15.037-33.472-13.676-38.157-29.015-4.685-15.339.775-20.006 10.642-29.816 9.867-9.81-5.107-34.747 11.792-39.909z" id="Leaf" fill="url(#k)"/><path d="M1235.367 796.202c-.621.379-1.44.078-1.831-.674-.39-.752-.203-1.669.418-2.048 14.911-9.113 19.76-21.589 14.816-37.774-.249-.815.108-1.647.798-1.858.69-.211 1.451.279 1.7 1.095 5.397 17.668.007 31.536-15.901 41.259zM1217.246 730.56c-.72.166-1.393-.376-1.503-1.21-.11-.834.385-1.644 1.105-1.81 11.668-2.683 18.629-12.291 21.009-29.194.119-.844.798-1.446 1.517-1.345.719.101 1.205.868 1.086 1.712-2.555 18.148-10.335 28.886-23.214 31.848zM1203.386 638.551c-.491.111-.951-.255-1.027-.819-.076-.563.261-1.11.752-1.221 5.928-1.339 9.45-6.153 10.653-14.69.08-.57.543-.976 1.034-.907.491.069.823.587.743 1.157-1.32 9.377-5.4 14.953-12.155 16.479zM1198.897 628.507c-6.454 2.508-12.953.164-19.288-6.875-.385-.428-.398-1.043-.03-1.375.368-.331.979-.254 1.364.174 5.767 6.408 11.378 8.433 17.043 6.231.47-.182 1.054.083 1.306.592s.075 1.07-.395 1.253zM1214.675 709.938c-11.322 4.325-22.782.097-34.072-12.449-.57-.633-.597-1.537-.061-2.019.536-.482 1.432-.36 2.002.273 10.45 11.612 20.604 15.358 30.772 11.474.686-.262 1.547.135 1.922.886s.124 1.573-.563 1.835zM1223.742 782.323c-11.322 4.325-22.782.097-34.072-12.449-.57-.633-.597-1.537-.061-2.019.536-.482 1.432-.36 2.002.273 10.45 11.612 20.604 15.358 30.772 11.474.686-.262 1.547.135 1.922.886s.124 1.573-.563 1.835z" id="Leaves-base" fill="#5ACE87"/><path d="M1253.1 850.522c.33 1.08-.158 2.186-1.089 2.47-.931.284-3.218.026-3.548-1.054-.66-6.979-2.763-16.294-6.309-27.946-5.319-17.478-23.182-43.827-27.3-63.669-4.118-19.842 2.087-61.85-2.388-92.404-3.641-24.86-16.864-44.147-23.468-57.591-6.604-13.444-10.63-30.705-10.327-30.798.363-.111 4.572 17.573 11.26 30.513 6.687 12.94 17.893 29.282 23.238 49.832 9.95 38.255-.572 77.357 6.967 102.041 7.539 24.683 19.426 37.943 27.168 59.435 5.161 14.328 7.093 24.052 5.795 29.172z" id="Leaves-base" fill="#42B16D"/></g><g><path d="M1366.997 613.367c-15.609-8.29-31.096 23.84-39.023 26.676-7.927 2.836-20.684-2.56-27.464 10.205-6.78 12.765 4.837 18.936-.745 29.445-5.582 10.51-30.426-5.17-39.416 11.756-8.99 16.926 7.856 32.25 2.522 42.292-5.334 10.043-18.11 8.672-30.012 31.08-11.902 22.409 6.234 36.284 36.596 52.411 30.362 16.127 54.638 18.503 66.54-3.906 11.902-22.409-21.245-38.252-16.899-52.045 4.346-13.794 29.295-9.311 37.02-23.854 7.725-14.544-22.986-30.856-16.674-42.739 6.312-11.883 33.924-4.13 40.363-16.252 6.438-12.122 1.773-17.38-6.485-28.064-8.258-10.685 9.287-28.715-6.322-37.005z" fill="url(#s)"/><path d="M1273.924 805.466c.55.468 1.376.395 1.846-.162.47-.557.406-1.388-.144-1.856-13.198-11.235-16.293-23.068-9.499-35.858.342-.644.103-1.441-.534-1.779-.637-.338-1.431-.09-1.773.554-7.416 13.963-3.976 27.116 10.104 39.102zM1298.886 752.18c.678.262 1.438-.078 1.699-.759.261-.681-.077-1.445-.754-1.707-10.977-4.241-16.059-13.491-15.3-28.079.038-.728-.519-1.35-1.244-1.387-.725-.038-1.343.522-1.381 1.251-.814 15.663 4.865 26 16.981 30.681zM1324.148 676.692c.463.177.982-.052 1.16-.512.178-.46-.053-.975-.516-1.152-5.581-2.135-8.161-6.775-7.779-14.143.026-.492-.355-.911-.85-.937-.495-.026-.917.352-.943.844-.421 8.093 2.568 13.468 8.927 15.9zM1330.756 669.622c5.576 3.907 11.702 3.374 18.172-1.506.393-.297.47-.858.171-1.253-.298-.396-.859-.476-1.252-.18-5.89 4.443-11.179 4.903-16.073 1.474-.406-.284-.962-.187-1.244.218-.281.405-.18.963.225 1.247zM1305.813 736.074c9.789 6.784 20.602 5.758 32.133-2.939.582-.439.702-1.261.267-1.837-.434-.576-1.258-.687-1.84-.248-10.673 8.05-20.253 8.959-29.045 2.866-.593-.411-1.413-.261-1.832.334-.419.596-.277 1.412.316 1.823zM1287.977 796.25c9.789 6.784 20.602 5.758 32.133-2.939.582-.439.702-1.261.267-1.837-.434-.576-1.258-.687-1.84-.248-10.673 8.05-20.253 8.959-29.045 2.866-.593-.411-1.413-.261-1.832.334-.419.596-.277 1.412.316 1.823zM1250.025 848.133c-.453.853-.123 1.915.737 2.372.86.457 3.093.756 3.546-.098 1.513-5.851 4.709-13.381 9.588-22.592 7.318-13.817 27.82-32.402 34.28-48.526 6.459-16.123 5.778-53.66 13.93-78.912 6.633-20.547 21.782-34.118 29.828-44.173s14.092-23.98 13.812-24.129c-.336-.178-6.611 14.068-14.674 23.671-8.063 9.602-20.901 21.101-28.63 37.553-14.388 30.627-9.187 66.649-19.548 86.155-10.361 19.506-23.466 28.198-33.62 44.914-6.769 11.144-9.852 19.065-9.248 23.763z" fill="#D2DEF8"/></g><g><path id="Vase-base" fill="url(#b)" d="M1198.111 831.069h105.571l-23.46 66.194h-58.65z"/><path d="M1201.4 829h96.882c2.982 0 5.4 2.418 5.4 5.4v9.886c0 2.982-2.418 5.4-5.4 5.4h-96.882c-2.982 0-5.4-2.418-5.4-5.4v-9.886c0-2.982 2.418-5.4 5.4-5.4z" fill="url(#t)"/></g></g></g></svg>