<svg viewBox="0 0 1440 1024" xmlns="http://www.w3.org/2000/svg" xmlns:xlink="http://www.w3.org/1999/xlink"><title>CRM 2@2x</title><desc>Created with Sketch.</desc><defs><linearGradient x1="50%" y1="-104.29%" x2="50%" y2="100%" id="a"><stop stop-color="#fff" offset="0%"/><stop stop-color="#B3CDEF" offset="100%"/></linearGradient><linearGradient x1="50%" y1="32.119%" x2="67.286%" y2="115.978%" id="b"><stop stop-color="#84F0A8" offset="0%"/><stop stop-color="#48B676" offset="100%"/></linearGradient><linearGradient x1="60.731%" y1="0%" x2="50%" y2="100%" id="c"><stop stop-color="#fff" offset="0%"/><stop stop-color="#E5EEFF" offset="100%"/></linearGradient><linearGradient x1="157.42%" y1="-39.692%" x2="118.836%" y2="115.938%" id="d"><stop stop-color="#E5EDFF" offset="0%"/><stop stop-color="#6B9AD9" offset="100%"/></linearGradient><linearGradient x1="149.379%" y1="-86.566%" x2="157.42%" y2="219.658%" id="e"><stop stop-color="#E5EDFF" offset="0%"/><stop stop-color="#6B9AD9" offset="100%"/></linearGradient><linearGradient x1="50%" y1="19.686%" x2="-33.812%" y2="294.476%" id="f"><stop stop-color="#F7FAFF" offset="0%"/><stop stop-color="#6B9AD9" offset="100%"/></linearGradient><linearGradient x1="50%" y1="-10.877%" x2="50%" y2="100%" id="g"><stop stop-color="#FFE579" offset="0%"/><stop stop-color="#FEB755" offset="100%"/></linearGradient><linearGradient x1="45.815%" y1="15.16%" x2="75.941%" y2="70.686%" id="h"><stop stop-color="#F59BA9" offset="0%"/><stop stop-color="#F25267" offset="100%"/></linearGradient><linearGradient x1="62.246%" y1="-19.129%" x2="-33.812%" y2="294.476%" id="i"><stop stop-color="#F7FAFF" offset="0%"/><stop stop-color="#6B9AD9" offset="100%"/></linearGradient><linearGradient x1="83.28%" y1="11.256%" x2="111.029%" y2="953.538%" id="j"><stop stop-color="#476DB1" offset="0%"/><stop stop-color="#283F6F" offset="100%"/></linearGradient><linearGradient x1="50%" y1="-142.327%" x2="50%" y2="170.165%" id="k"><stop stop-color="#95B7E5" offset="0%"/><stop stop-color="#476DB1" offset="100%"/></linearGradient><linearGradient x1="83.28%" y1="11.256%" x2="59.889%" y2="97.31%" id="l"><stop stop-color="#476DB1" offset="0%"/><stop stop-color="#283F6F" offset="100%"/></linearGradient><path d="M20 25h3v-11c0-3.314 2.686-6 6-6s6 2.686 6 6v17c0 3.314-2.686 6-6 6-.341 0-.675-.028-1-.083-.325.055-.659.083-1 .083h-7v16h-20v-43c0-5.523 4.477-10 10-10s10 4.477 10 10v15z" id="m"/><linearGradient x1="83.28%" y1="11.256%" x2="50%" y2="152.078%" id="o"><stop stop-color="#476DB1" offset="0%"/><stop stop-color="#283F6F" offset="100%"/></linearGradient><linearGradient x1="50%" y1="0%" x2="50%" y2="100%" id="p"><stop stop-color="#36558E" offset="0%"/><stop stop-color="#233A67" offset="100%"/></linearGradient><linearGradient x1="69.466%" y1="75.602%" x2="69.466%" y2="14.038%" id="q"><stop stop-color="#F4AF92" offset="0%"/><stop stop-color="#EC906C" offset="100%"/></linearGradient><linearGradient x1="85.097%" y1="109.304%" x2="4.854%" y2="-47.176%" id="r"><stop stop-color="#032258" offset="0%"/><stop stop-color="#133E94" offset="100%"/></linearGradient><linearGradient x1="-8.771%" y1="109.673%" x2="17.311%" y2="15.43%" id="s"><stop stop-color="#FAD0BA" offset="0%"/><stop stop-color="#F2A384" offset="100%"/></linearGradient><linearGradient x1="100%" y1="50%" x2="0%" y2="50%" id="t"><stop stop-color="#2865C6" offset="0%"/><stop stop-color="#10378A" offset="100%"/></linearGradient><linearGradient x1="60.731%" y1="0%" x2="52.081%" y2="50%" id="u"><stop stop-color="#3485F7" offset="0%"/><stop stop-color="#1A57CF" offset="100%"/></linearGradient><linearGradient x1="50%" y1="27.773%" x2="55.228%" y2="103.623%" id="v"><stop stop-color="#1542AB" offset="0%"/><stop stop-color="#2B68EE" offset="100%"/></linearGradient><path d="M161.478 35.56c-7.039 18.502-11.815 31.63-14.328 39.384-3.772 11.639-5.236 21.239-4.392 28.798 2.531 22.67 9.574 30.095 3.473 84.324-2.385 21.201-15.778 51.047-18.362 74.687-4.026 36.827 5.874 49.567 3.394 55.657-3.394 8.336-39.617.675-57.744 19.588-5.838-11.252 16.341-50.927 16.341-56.987 0-6.06.755-51.572 19.382-84.957 12.418-22.257 17.163-54.814 14.234-97.671-31.209-5.992-54.035-13.805-68.479-23.44-14.444-9.635-32.776-30.422-54.996-62.36 3.315-8.39 7.117-12.584 11.405-12.584 6.432 0 50.015 39.496 83.71 44.287 14.125 2.009 25.468-6.327 36.146-8.727 16.987-3.819 29.358-3.674 31.417-4.378 2.236-.764 3.342-.193 3.321 1.713l-4.522 2.664z" id="w"/></defs><g fill="none"><g fill-rule="nonzero"><g id="Leaves"><path d="M1204.88 407.804c-16.645-2.973-21.922 36.401-28.364 42.11-6.427 5.659-19.505 4.18-22.103 19.792-2.598 15.613 9.579 18.562 7.408 31.528-2.171 12.966-28.761 3.555-32.142 24.035-3.381 20.48 15.755 32.48 13.698 44.811-2.058 12.331-13.735 14.048-18.264 41.347s14.971 38.76 45.753 50.1c30.782 11.34 52.852 8.029 57.975-21.337 5.123-29.366-28.498-38.135-28.131-54.95.352-16.762 23.93-19.166 27.195-38.015 3.264-18.849-28.783-27.143-26.212-42.209 2.571-15.066 29.754-15.881 32.456-31.524 2.702-15.644-2.971-19.716-13.397-28.362-10.455-8.548.773-34.353-15.872-37.326z" id="Leaf" fill="url(#a)"/><path d="M1171.83 647.078c.603.4 1.314.118 1.588-.628.274-.747.006-1.675-.598-2.073-14.512-9.519-20.298-22.019-17.621-37.918.135-.801-.285-1.625-.937-1.84-.652-.215-1.29.258-1.425 1.058-2.913 17.327 3.519 31.218 18.993 41.402zM1180.808 581.215c.676.135 1.248-.428 1.278-1.258.029-.83-.495-1.611-1.172-1.745-10.957-2.179-18.21-11.309-21.938-27.636-.187-.812-.868-1.362-1.521-1.229-.653.133-1.03.897-.843 1.708 4.006 17.516 12.109 27.73 24.196 30.16zM1183.303 490.61c.469.063.865-.333.883-.885.019-.551-.346-1.049-.816-1.111-5.66-.752-9.402-5.059-11.337-13.124-.129-.537-.601-.881-1.053-.768-.452.113-.714.639-.584 1.176 2.127 8.854 6.46 13.846 12.907 14.712zM1186.783 480.697c-.454-.156-.69-.702-.528-1.219.162-.518.661-.812 1.115-.657 5.475 1.873 10.344-.459 14.784-7.193.297-.451.847-.567 1.228-.26.382.307.45.922.153 1.373-4.879 7.402-10.516 10.099-16.752 7.956zM1181.722 561.021c-.652-.26-.984-1.089-.741-1.851.242-.763.968-1.171 1.62-.913 9.663 3.84 18.361-.112 26.371-12.191.438-.662 1.235-.81 1.78-.33.545.48.633 1.407.195 2.069-8.658 13.063-18.472 17.514-29.225 13.215zM1181.345 633.291c-.642-.292-.967-1.148-.724-1.912s.961-1.147 1.604-.856c9.524 4.321 18.131.688 26.094-11.226.435-.653 1.223-.768 1.759-.257.537.511.618 1.456.183 2.11-8.607 12.886-18.318 16.976-28.916 12.142z" id="leaves-base" fill="#98BBE9"/><path d="M1161.577 701.227c-.183 1.077.369 2.232 1.233 2.58.864.348 2.888.226 3.072-.854-.131-7.066.787-16.417 2.759-28.06 2.957-17.464 16.372-43.635 18.008-63.584 1.623-19.904-8.762-61.438-8.138-91.499.471-24.331 10.536-43.87 15.132-57.387 4.609-13.56 6.342-30.579 6.044-30.637-.356-.07-2.208 17.366-6.953 30.438-4.732 13.026-13.261 29.583-15.814 49.793-4.77 37.684 9.291 76.159 5.077 100.869-4.214 24.71-13.578 37.747-18.279 59.106-3.129 14.222-3.841 23.96-2.142 29.236z" fill="#8FAFDA"/></g><g id="Leaves"><path d="M1083.5 423.479c16.081-4.912 26.822 34.79 34.077 40.079 7.256 5.288 20.221 2.798 25.091 18.742 4.87 15.944-7.099 19.6-3.09 32.727 4.009 13.127 29.927 2.565 36.384 23.706 6.457 21.141-11.724 33.485-7.892 46.028 3.831 12.543 16.294 14.504 24.843 42.493 8.549 27.989-10.685 38.383-41.966 47.937-31.282 9.555-54.933 5.576-63.482-22.413s25.374-36.473 22.978-52.891c-2.396-16.418-26.968-18.252-32.516-36.418-5.548-18.165 26.093-27.83 21.559-42.672-4.533-14.843-32.089-13.789-36.713-28.929-4.624-15.14.542-19.679 9.864-29.235 9.322-9.556-5.219-34.243 10.862-39.155z" id="Leaf" fill="url(#b)"/><path d="M1148.17 660.979c-.589.367-1.374.062-1.754-.681-.38-.744-.21-1.644.378-2.011 14.144-8.82 18.649-21.049 13.77-37.024-.246-.805.087-1.62.743-1.82.656-.2 1.388.289 1.633 1.094 5.327 17.44.319 31.033-14.771 40.442zM1129.997 596.406c-.687.167-1.325-.364-1.425-1.186-.101-.822.374-1.623 1.061-1.79 11.124-2.703 17.801-12.215 20.15-28.899.117-.833.767-1.43 1.451-1.334.684.096 1.143.85 1.026 1.683-2.522 17.913-9.984 28.543-22.263 31.527zM1115.961 505.632c-.469.112-.905-.247-.974-.802-.07-.555.254-1.096.722-1.208 5.652-1.35 9.03-6.116 10.216-14.542.079-.562.522-.965.989-.899.467.066.781.575.702 1.137-1.303 9.256-5.216 14.776-11.656 16.314zM1111.849 495.62c-6.2 2.322-12.529-.069-18.782-7.017-.38-.422-.404-1.02-.053-1.336.351-.315.943-.229 1.323.193 5.692 6.325 11.157 8.39 16.598 6.352.451-.169 1.021.099 1.274.598.252.499.091 1.041-.36 1.21zM1127.835 575.924c-10.877 4.001-22.039-.308-33.183-12.691-.562-.625-.605-1.503-.095-1.962.51-.459 1.379-.324 1.942.301 10.314 11.461 20.204 15.278 29.973 11.686.659-.242 1.499.158 1.875.894.376.736.147 1.53-.512 1.772zM1137.208 647.243c-10.877 4.001-22.039-.308-33.183-12.691-.562-.625-.605-1.503-.095-1.962.51-.459 1.379-.324 1.942.301 10.314 11.461 20.204 15.278 29.973 11.686.659-.242 1.499.158 1.875.894.376.736.147 1.53-.512 1.772z" id="Leaves-base" fill="#5ACE87"/><path d="M1165.636 714.607c.326 1.066-.129 2.149-1.015 2.42-.886.271-3.072-.006-3.397-1.072-.699-6.874-2.799-16.061-6.299-27.562-5.251-17.251-22.564-43.357-26.692-62.923-4.127-19.566 1.379-60.842-3.195-90.952-3.722-24.499-16.536-43.609-22.974-56.904-6.437-13.295-10.452-30.32-10.163-30.408.346-.106 4.539 17.338 11.051 30.137 6.512 12.799 17.371 28.992 22.677 49.267 9.877 37.742.22 76.116 7.661 100.48 7.442 24.364 18.921 37.529 26.524 58.754 5.069 14.15 7.009 23.738 5.821 28.763z" id="Leaves-base" fill="#42B16D"/></g><g><path d="M1275.248 480.233c-14.853-7.889-30.147 23.732-37.788 26.614-7.64 2.881-19.799-2.218-26.477 10.354-6.677 12.572 4.378 18.444-1.12 28.794-5.498 10.35-29.105-4.635-37.959 12.035-8.854 16.67 7.09 31.417 1.836 41.308-5.253 9.891-17.485 8.726-29.207 30.795-11.722 22.069 5.478 35.383 34.371 50.73 28.893 15.346 52.139 17.335 63.861-4.735 11.722-22.069-19.846-37.1-15.489-50.643 4.357-13.544 28.22-9.505 35.828-23.828 7.608-14.323-21.617-29.846-15.401-41.549 6.216-11.703 32.588-4.505 38.929-16.443 6.341-11.938 1.939-17.014-5.833-27.345s9.301-28.198-5.552-36.087z" fill="url(#c)"/><path d="M1183.353 669.299c.521.45 1.314.367 1.772-.184.458-.551.408-1.363-.113-1.813-12.501-10.801-15.306-22.326-8.616-34.922.337-.634.119-1.41-.487-1.732-.606-.322-1.371-.069-1.708.566-7.304 13.751-4.186 26.562 9.151 38.085zM1208.16 617.073c.644.257 1.369-.079 1.618-.75.249-.671-.071-1.423-.715-1.679-10.44-4.158-15.26-13.257-14.513-27.625.037-.717-.492-1.328-1.182-1.364-.69-.036-1.279.517-1.317 1.234-.802 15.425 4.585 25.595 16.108 30.184zM1233.36 542.832c.44.173.935-.053 1.105-.506.17-.453-.049-.961-.489-1.134-5.308-2.093-7.756-6.657-7.378-13.914.025-.484-.336-.897-.807-.921-.471-.024-.873.348-.898.833-.414 7.971 2.421 13.258 8.469 15.642zM1239.592 535.723c5.362 3.676 11.33 3.064 17.702-1.742.387-.292.471-.834.187-1.211-.284-.377-.828-.445-1.215-.153-5.801 4.375-10.954 4.904-15.66 1.677-.39-.267-.933-.164-1.213.23s-.191.931.199 1.198zM1214.66 601.026c9.415 6.381 19.949 5.22 31.306-3.346.573-.432.703-1.227.29-1.775-.413-.548-1.213-.641-1.786-.209-10.511 7.928-19.845 8.957-28.301 3.226-.571-.387-1.371-.229-1.788.351-.417.581-.292 1.365.279 1.752zM1196.728 660.096c9.415 6.381 19.949 5.22 31.306-3.346.573-.432.703-1.227.29-1.775-.413-.548-1.213-.641-1.786-.209-10.511 7.928-19.845 8.957-28.301 3.226-.571-.387-1.371-.229-1.788.351-.417.581-.292 1.365.279 1.752zM1159.848 711.336c-.446.84-.145 1.874.674 2.309.818.435 2.955.696 3.402-.144 1.532-5.74 4.7-13.146 9.505-22.217 7.207-13.607 27.124-32.058 33.54-47.907 6.416-15.85 6.28-52.534 14.444-77.331 6.643-20.177 21.358-33.651 29.211-43.591 7.854-9.94 13.844-23.635 13.577-23.777-.319-.17-6.533 13.843-14.397 23.341-7.864 9.498-20.333 20.915-27.971 37.104-14.219 30.137-9.728 65.278-19.932 84.489-10.204 19.211-22.891 27.888-32.857 44.368-6.644 10.987-9.709 18.772-9.195 23.357z" fill="#D2DEF8"/></g><g id="vase"><path id="Vase-base" fill="url(#d)" d="M1112.994 695.039h99.706l-22.157 65.234h-55.392z"/><path d="M1116.4 693h90.9c2.982 0 5.4 2.418 5.4 5.4v9.586c0 2.982-2.418 5.4-5.4 5.4h-90.9c-2.982 0-5.4-2.418-5.4-5.4v-9.586c0-2.982 2.418-5.4 5.4-5.4z" fill="url(#e)"/></g></g><g transform="translate(341 141)" fill-rule="nonzero"><path d="M20 0h713c11.046 0 20 8.954 20 20v515c0 2.209-1.791 4-4 4h-745c-2.209 0-4-1.791-4-4v-515c0-11.046 8.954-20 20-20z" fill="url(#f)"/><path d="M54 129h173c2.209 0 4 1.791 4 4v175c0 2.209-1.791 4-4 4h-173c-2.209 0-4-1.791-4-4v-175c0-2.209 1.791-4 4-4z" fill="url(#d)"/><circle id="Chart-base" fill="url(#b)" cx="131" cy="409" r="81"/><path d="M131 328c35.887 0 66.323 23.338 76.959 55.664l-76.959 29.336v-85z" id="Chart-base" fill="url(#g)"/><g><path d="M399 187h32c2.209 0 4 1.791 4 4v52c0 2.209-1.791 4-4 4h-32c-2.209 0-4-1.791-4-4v-52c0-2.209 1.791-4 4-4z" id="Chart-bar-base" fill="url(#b)"/><path d="M499 167h32c2.209 0 4 1.791 4 4v72c0 2.209-1.791 4-4 4h-32c-2.209 0-4-1.791-4-4v-72c0-2.209 1.791-4 4-4z" id="Chart-bar-base" fill="url(#h)"/><path d="M549 217h32c2.209 0 4 1.791 4 4v22c0 2.209-1.791 4-4 4h-32c-2.209 0-4-1.791-4-4v-22c0-2.209 1.791-4 4-4zM600 187h32c2.209 0 4 1.791 4 4v52c0 2.209-1.791 4-4 4h-32c-2.209 0-4-1.791-4-4v-52c0-2.209 1.791-4 4-4z" id="Chart-bar-base" fill="url(#b)"/><path d="M650 157h32c2.209 0 4 1.791 4 4v82c0 2.209-1.791 4-4 4h-32c-2.209 0-4-1.791-4-4v-82c0-2.209 1.791-4 4-4z" id="Chart-bar-base" fill="url(#h)"/><path d="M449 137h32c2.209 0 4 1.791 4 4v102c0 2.209-1.791 4-4 4h-32c-2.209 0-4-1.791-4-4v-102c0-2.209 1.791-4 4-4z" fill="url(#b)"/></g><path d="M387 267h317c2.209 0 4 1.791 4 4v219c0 2.209-1.791 4-4 4h-317c-2.209 0-4-1.791-4-4v-219c0-2.209 1.791-4 4-4z" id="Chart-base" fill="url(#i)"/><g><path d="M265 147h50c2.209 0 4 1.791 4 4v50c0 2.209-1.791 4-4 4h-50c-2.209 0-4-1.791-4-4v-50c0-2.209 1.791-4 4-4z" id="UI-base" fill="url(#g)"/><path d="M265 235h50c2.209 0 4 1.791 4 4v50c0 2.209-1.791 4-4 4h-50c-2.209 0-4-1.791-4-4v-50c0-2.209 1.791-4 4-4z" id="UI-base" fill="url(#d)"/><path d="M265 323h50c2.209 0 4 1.791 4 4v50c0 2.209-1.791 4-4 4h-50c-2.209 0-4-1.791-4-4v-50c0-2.209 1.791-4 4-4z" id="UI-base" fill="url(#g)"/><path d="M265 411h50c2.209 0 4 1.791 4 4v50c0 2.209-1.791 4-4 4h-50c-2.209 0-4-1.791-4-4v-50c0-2.209 1.791-4 4-4z" fill="url(#d)"/></g><path d="M20 0h713c11.046 0 20 8.954 20 20v55c0 2.209-1.791 4-4 4h-745c-2.209 0-4-1.791-4-4v-55c0-11.046 8.954-20 20-20z" fill="url(#j)"/><g transform="translate(25 27)" fill="#fff"><circle cx="12.5" cy="12.5" r="12.5"/><circle cx="51.5" cy="12.5" r="12.5"/><circle cx="90.5" cy="12.5" r="12.5"/></g><g stroke="#D1D6FC" stroke-width="2"><path d="M413 305h269.572"/><path d="M413 337h269.572"/><path d="M413 369h269.572"/><path d="M413 401h269.572"/><path d="M413 433h269.572"/><path d="M413 465h269.572"/></g><path d="M406.829 448.205c-.554.955-1.778 1.28-2.734.726-.955-.554-1.28-1.778-.726-2.734l40.457-69.718c2.772-4.777 8.891-6.402 13.668-3.63.826.479 1.579 1.075 2.237 1.768l34.441 36.316c2.28 2.404 6.078 2.505 8.482.225.222-.21.427-.437.614-.679l65.908-85.074c3.382-4.366 9.664-5.163 14.03-1.781.881.683 1.642 1.508 2.251 2.441l31.454 48.214c1.811 2.775 5.528 3.557 8.304 1.747.632-.412 1.18-.94 1.616-1.555l55.893-78.838c.639-.901 1.887-1.114 2.788-.475.901.639 1.114 1.887.475 2.788l-55.893 78.838c-.727 1.026-1.641 1.905-2.694 2.592-4.626 3.018-10.822 1.714-13.839-2.911l-31.454-48.214c-.365-.56-.822-1.055-1.351-1.465-2.62-2.029-6.388-1.551-8.418 1.069l-65.908 85.074c-.312.403-.654.781-1.024 1.132-4.007 3.8-10.337 3.633-14.137-.375l-34.441-36.316c-.394-.416-.846-.773-1.342-1.061-2.866-1.663-6.538-.688-8.201 2.178l-40.457 69.718z" id="Chart-base" fill="#FEBD59"/><path d="M406.352 448.76c-.861.692-2.12.556-2.812-.305-.692-.861-.556-2.12.305-2.812l84.138-67.678c3.42-2.751 8.234-2.95 11.87-.491l36.437 24.644c2.405 1.627 5.631 1.298 7.658-.782l34.958-35.861c3.756-3.853 9.889-4.043 13.876-.429l39.84 36.107c2.293 2.078 5.79 2.071 8.075-.016l45.183-41.266c.816-.745 2.081-.688 2.826.128.745.816.688 2.081-.128 2.826l-45.183 41.266c-3.808 3.478-9.637 3.489-13.459.026l-39.84-36.107c-2.392-2.168-6.072-2.054-8.326.258l-34.958 35.861c-3.378 3.466-8.754 4.014-12.763 1.303l-36.437-24.644c-2.181-1.475-5.07-1.356-7.122.295l-84.138 67.678z" fill="#F25267"/></g><g fill-rule="nonzero"><path d="M861.212 838.763l18.852-177.451h-18.852v177.451zm22.411-180.65l-20.557 193.502c-.144 1.356-1.289 2.385-2.655 2.385-1.326 0-2.401-1.074-2.401-2.399v-193.488h25.613z" id="Shape" fill="url(#k)"/><path d="M1208.589 838.763v-177.451h-18.852l18.852 177.451zm-22.411-180.65h25.613v193.488c0 1.325-1.075 2.399-2.401 2.399-1.365 0-2.511-1.029-2.655-2.385l-20.557-193.502z" id="Table-base" fill="url(#k)"/><path fill="url(#l)" d="M838 643h393v15.991h-393z"/></g><g><g transform="translate(871 562) translate(15)"><mask id="n"><use xlink:href="#m"/></mask><use fill="url(#b)" fill-rule="nonzero" xlink:href="#m"/><path d="M0-3h1v62.784h-1v-62.784zm3 0h1v62.784h-1v-62.784zm3 0h1v62.784h-1v-62.784zm3 0h1v62.784h-1v-62.784zm3 0h1v62.784h-1v-62.784zm3 0h1v62.784h-1v-62.784zm3 0h1v62.784h-1v-62.784zm3 0h1v62.784h-1v-62.784zm3 0h1v62.784h-1v-62.784zm3 0h1v62.784h-1v-62.784zm3 0h1v62.784h-1v-62.784zm3 0h1v62.784h-1v-62.784z" fill="#42B16D" fill-rule="nonzero" mask="url(#n)"/></g><g fill-rule="nonzero"><path fill="url(#d)" d="M872 608h50l-11.111 32h-27.778z"/><path d="M873 607h47c1.105 0 2 .895 2 2v6c0 1.105-.895 2-2 2h-47c-1.105 0-2-.895-2-2v-6c0-1.105.895-2 2-2z" fill="url(#e)"/></g></g><g fill-rule="nonzero"><path id="Imac" fill="url(#o)" d="M1017.44 612h44.022v31h-44.022z"/><path d="M942.2 497h192.901c1.767 0 3.2 1.433 3.2 3.2v109.533c0 1.767-1.433 3.2-3.2 3.2h-192.901c-1.767 0-3.2-1.433-3.2-3.2v-109.533c0-1.767 1.433-3.2 3.2-3.2z" id="Imac" fill="url(#l)"/><path stroke="url(#p)" stroke-width="2" fill="url(#f)" d="M947.004 504.995h183.293v99.942h-183.293z"/></g><g><path d="M409.772 702.133c-11.278 16.822-66.065 26.445-164.36 28.867h-47.412l30.151-64.374 86.987-39.626c74.368 33.266 105.912 58.31 94.634 75.133z" id="Jacket" fill="#BF8D30" fill-rule="nonzero"/><g><path d="M318.358 367.795c8.328 3.805 12.36 5.366 12.095 4.685-.889-2.288-26.003-10.802-27.004-16.67-.606-3.55-.606-7.494 0-11.833l-21.476 13.606c1.941 8.113 1.37 14.821-1.715 20.125-3.084 5.304-9.148 10.005-18.19 14.103 24.99 21.658 43.188 33.152 54.594 34.483 17.109 1.996 15.292-11.629 1.737-31.67-9.037-13.36-9.051-22.303-.041-26.829z" fill="url(#q)"/><path d="M280.48 294.114c-30.908 47.501-36.201 52.241-33.012 67.405 6.558 31.178 97.568 63.351 108.545 36.289 10.977-27.062-14.183-13.014-12.969-36.289.445-8.536 9.989-27.098 28.633-55.687-46.283-30.119-76.682-34.025-91.197-11.718z" fill="url(#r)" fill-rule="nonzero"/><path d="M353.476 301.822l-7.854-.136c-14.539-3.108-28.627-.931-42.265 6.532-13.638 7.463-19.198 16.039-16.681 25.727l-5.661 23.569c1.95 8.146 1.383 14.88-1.701 20.202-3.084 5.322-9.151 10.037-18.2 14.144 25.036 21.761 43.265 33.314 54.686 34.658 17.131 2.017 15.302-11.663 1.714-31.791-9.058-13.419-9.079-22.397-.062-26.933 8.522 3.923 13.92 6.039 16.194 6.347 3.093.419 12.408-12.445 18.889-27.854.667-1.585 6.012-6.837 6.609-8.464 1.328-3.62-1.733-3.863-1.294-7.789.335-2.99 3.112-6.978 2.461-11.911-.407-3.083-2.685-8.517-6.834-16.301z" id="Face" fill="#F2A384" fill-rule="nonzero"/></g><g><path d="M344.024 844.381l-2.977 18.524c3.623 4.931 8.096 7.397 13.42 7.397s10.063-1.243 14.217-3.73l2.982-20.247-27.643-1.944zM251.682 844.381l-2.977 18.524c3.623 4.931 8.096 7.397 13.42 7.397s10.063-1.243 14.217-3.73l2.982-20.247-27.643-1.944z" fill="url(#s)" fill-rule="nonzero"/><path d="M248.612 860.364c-2.259 0-2.259 7.645-2.358 13.463-.036 2.118.347 5.345 1.149 9.68.329 1.777 1.776 3.079 3.491 3.141 36.258 1.315 58.106 1.279 58.173-.107 2.897-9.46 1.319-10.48-15.124-17.901-6.683-3.016-12.818-4.457-16.975-6.933-1.422-.847-4.401 6.002-14.23 6.002-9.828 0-11.868-7.346-14.127-7.346z" id="Shoes" fill="url(#t)" fill-rule="nonzero"/><path d="M239.366 541.759c.903 20.339.903 31.687 0 34.045-1.354 3.536 6.585 47.648 23.817 132.338-1.475 82.634-13.762 128.027-12.289 136.179 2.21 12.229 27.898 12.228 31.015 3.391 2.078-5.892 10.678-53.765 25.8-143.621l2.654-70.475c10.574 18.466 25.365 43.62 44.37 75.462-3.109 87.642-14.899 134.03-10.8 139.163 3.654 4.575 27.732 7.804 29.177.001 14.655-60.458 21.981-107.154 21.98-140.087-.002-32.934-15.094-88.399-45.277-166.396h-110.449z" fill="url(#u)" fill-rule="nonzero"/><path d="M340.954 860.364c-2.259 0-2.259 7.645-2.358 13.463-.036 2.118.347 5.345 1.149 9.68.329 1.777 1.776 3.079 3.491 3.141 36.258 1.315 58.106 1.279 58.173-.107 2.897-9.46 1.319-10.48-15.124-17.901-6.683-3.016-12.818-4.457-16.975-6.933-1.422-.847-4.401 6.002-14.23 6.002-9.828 0-11.868-7.346-14.127-7.346z" fill="url(#t)" fill-rule="nonzero"/><path d="M354.717 709.05l.364-.106-30.714-86.835c-2.048 1.728-6.715 5.564-14.003 11.508 10.571 18.461 25.356 43.605 44.353 75.433z" id="Shadow" fill="url(#v)" fill-rule="nonzero"/><path d="M261.711 585.172v257.266l17.792-127.754c.829-5.953.774-11.996-.164-17.933l-17.628-111.578z" stroke="#1542AB"/></g><path d="M316.556 392.349c6.191 9.873 10.483 16.505 2.94 20.167-7.542 3.662-24.637-5.129-51.285-26.373-32.208 12.248-35.515 21.975-42.113 29.181-6.598 7.206 17.733 141.79 27.468 150.695 14.129 12.923 35.476 17.409 61.359 13.925 18.391-2.476 31.292-19.392 28.816-37.783-.059-.439-.127-.876-.203-1.312-3.132-17.887-4.698-28.957-4.698-33.211 0-8.972 4.755-30.872 14.265-65.7l-20.95-43.505-15.601-6.083z" fill="url(#c)" fill-rule="nonzero"/><g id="Jacket" fill-rule="nonzero"><path d="M266.534 557.913c-14.456 49.17 9.113 106.311 3.583 133.448-27.551 2.884-51.608 16.896-72.172 42.035-8.692-11.189-12.587-35.761-11.685-73.716 1.353-56.932 14.922-60.098 17.014-86.015 1.395-17.278 1.395-38.781 0-64.511l12.537-98.219 50.723-24.063c9.637 81.248 9.637 138.262 0 171.042z" fill="url(#g)"/><path d="M204.262 536.766c11.424-11.642 22.682-28.753 31.457-53.802 8.491-24.236-.369-54.204-12.638-75.479l-7.27 3.449-12.537 98.219c.533 9.82.862 19.024.988 27.613z" fill="#EFB84F" opacity=".5"/></g><g id="Hand" fill-rule="nonzero"><path d="M112.767 528.167l-10.715.06c-13.128 4.443-20.106 6.369-20.934 5.779-.828-.59.981-2.324 5.428-5.201-7.709-1.242-11.84-2.305-12.393-3.188-.553-.883 2.818-1.818 10.115-2.804-7.994-2.791-12.023-4.752-12.087-5.883-.065-1.131 4.326-1.458 13.171-.98-6.961-3.165-9.877-5.115-8.748-5.85 1.128-.736 7.129.119 18.003 2.563-2.22-4.956-2.653-7.473-1.298-7.548 1.355-.076 5.247 2.375 11.676 7.353 31.52 7.108 34.114 12.341 7.783 15.701z" fill="#F2A384"/><path d="M206.29 427.147c2.447-26.794 12.393-39.081 29.839-36.86 13.741 1.749 27.002-5.093 28.362-2.927 1.229 1.959-8.99 12.546-6.356 20.741 6.648 20.687-11.611 79.098-45.022 99.77-61.282 37.916-78.911 25.462-94.628 23.734-10.478-1.152-12.089-7.259-4.835-18.32 42.455-12.716 66.475-24.074 72.062-34.075 5.587-10.001 12.446-27.355 20.577-52.063z" fill="url(#g)"/></g><path d="M488.898 368.628l8.248-6.906c12.877-5.131 19.446-8.189 19.706-9.177.26-.987-2.226-1.135-7.457-.442 5.119-5.947 7.611-9.437 7.475-10.469-.136-1.032-3.312.443-9.529 4.425 4.355-7.313 6.199-11.421 5.532-12.325-.668-.904-4.239 1.696-10.714 7.798 3.327-6.927 4.325-10.305 2.994-10.134-1.331.171-5.388 4.715-12.17 13.632-1.442-5.217-2.706-7.416-3.792-6.594-1.086.821-2.514 5.214-4.284 13.178-19.646 25.865-18.315 31.536 3.992 17.014z" fill="#F2A384" fill-rule="nonzero"/><g transform="matrix(-1 0 0 1 486 362)"><mask id="x"><use xlink:href="#w"/></mask><use fill="url(#g)" fill-rule="nonzero" xlink:href="#w"/><path d="M122.245 102.796c.138-7.876 1.393-14.275 3.767-19.195 2.374-4.92 3.039-7.82 1.997-8.698-25.895 12.786-47.571 15.685-65.029 8.698s-13.061 2.598 13.192 28.753l46.074-9.558z" fill="#EFB84F" fill-rule="nonzero" opacity=".5" mask="url(#x)"/></g><path d="M358.147 327c-2.339 4.077 42.74-27.148 33.389-53.179-9.351-26.031-30.63-18.016-37.221-17.897-6.591.119-45.143-30.606-76.563-6.262-15.618 12.101-11.862 27.6-22.018 51.144-4.03 9.341-16.63 9.365-20.715 19.065-4.085 9.7-3.625 22.476-5.36 30.331-2.338 10.584-23.154 23.858-15.226 40.814 7.928 16.956 29.594 16.364 58.625 10.655 13.417-2.638 7.295-17.363 11.908-23.75 5.368-7.433 15.907-9.296 17.769-14.891 3.463-10.401-1.032-10.984 0-17.113.688-4.086 2.345-8.219 4.97-12.4-6.994-.706-9.796-5.255-8.405-13.647 2.086-12.588 13.724-10.611 16.943-1.262l3.073-7.779c7.49 1.55 14.406 1.416 20.748-.402 6.342-1.818 11.496-3.845 15.463-6.08 4.298 10.827 5.172 18.378 2.621 22.653z" fill="url(#r)" fill-rule="nonzero"/></g></g></svg>