<?xml version="1.0" encoding="utf-8"?>
<svg id="master-artboard" viewBox="0 0 1397.7054443359375 1076.3779296875" version="1.1" xmlns="http://www.w3.org/2000/svg" x="0px" y="0px" style="enable-background:new 0 0 1400 980;" width="1397.7054443359375px" height="1076.3779296875px" xmlns:xlink="http://www.w3.org/1999/xlink"><rect id="ee-background" x="0" y="0" width="1397.7054443359375" height="1076.3779296875" style="fill: white; fill-opacity: 0; pointer-events: none;"/><defs><linearGradient x1="53.009%" y1="91.565%" x2="50%" y2="-39.412%" id="a"><stop stop-color="#fff" stop-opacity="0" offset="0%"/><stop stop-color="#E2EBFC" offset="100%"/></linearGradient><linearGradient x1="50%" y1="-104.29%" x2="50%" y2="100%" id="b"><stop stop-color="#fff" offset="0%"/><stop stop-color="#B3CDEF" offset="100%"/></linearGradient><linearGradient x1="50%" y1="32.119%" x2="67.286%" y2="115.978%" id="c"><stop stop-color="#84F0A8" offset="0%"/><stop stop-color="#48B676" offset="100%"/></linearGradient><linearGradient x1="60.731%" y1="0%" x2="50%" y2="100%" id="d"><stop stop-color="#fff" offset="0%"/><stop stop-color="#E5EEFF" offset="100%"/></linearGradient><linearGradient x1="157.42%" y1="-39.692%" x2="118.836%" y2="115.938%" id="e"><stop stop-color="#E5EDFF" offset="0%"/><stop stop-color="#6B9AD9" offset="100%"/></linearGradient><linearGradient x1="149.379%" y1="-86.566%" x2="157.42%" y2="219.658%" id="f"><stop stop-color="#E5EDFF" offset="0%"/><stop stop-color="#6B9AD9" offset="100%"/></linearGradient><linearGradient x1="47.638%" y1="95.908%" x2="47.638%" y2="6.77%" id="g"><stop stop-color="#fff" offset="0%"/><stop stop-color="#D9E5FF" offset="100%"/></linearGradient><linearGradient x1="157.42%" y1="-39.692%" x2="128.338%" y2="255.279%" id="h"><stop stop-color="#E5EDFF" offset="0%"/><stop stop-color="#6B9AD9" offset="100%"/></linearGradient><linearGradient x1="45.815%" y1="-60.154%" x2="45.815%" y2="82.765%" id="i"><stop stop-color="#F59BA9" offset="0%"/><stop stop-color="#DD4156" offset="100%"/></linearGradient><linearGradient x1="-8.771%" y1="109.673%" x2="17.311%" y2="15.43%" id="j"><stop stop-color="#FAD0BA" offset="0%"/><stop stop-color="#F2A384" offset="100%"/></linearGradient><linearGradient x1="100%" y1="50%" x2="0%" y2="50%" id="k"><stop stop-color="#2865C6" offset="0%"/><stop stop-color="#10378A" offset="100%"/></linearGradient><linearGradient x1="50%" y1="27.773%" x2="55.228%" y2="103.623%" id="l"><stop stop-color="#1542AB" offset="0%"/><stop stop-color="#2B68EE" offset="100%"/></linearGradient><linearGradient x1="60.731%" y1="0%" x2="52.081%" y2="50%" id="m"><stop stop-color="#3485F7" offset="0%"/><stop stop-color="#1A57CF" offset="100%"/></linearGradient><linearGradient x1="85.097%" y1="109.304%" x2="4.854%" y2="-47.176%" id="n"><stop stop-color="#032258" offset="0%"/><stop stop-color="#133E94" offset="100%"/></linearGradient><linearGradient x1="45.815%" y1="15.16%" x2="75.941%" y2="70.686%" id="p"><stop stop-color="#F59BA9" offset="0%"/><stop stop-color="#F25267" offset="100%"/></linearGradient><path d="M12.003 28.39c-12.554 51.057-14.713 91.495-6.476 121.316 12.356 44.731-7.789 96.713-3.062 121.4 39.022 9.936 56.251 22.682 51.686 38.24 7.429-10.179 10.759-32.533 9.988-67.061-1.156-51.792-2.754-54.672-4.542-78.249-1.193-15.718-1.193-35.28 0-58.687l-16.733-89.594c-6.45-3.961-11.338-6.812-14.664-8.553-3.326-1.741-8.286-4.044-14.878-6.908l-1.318 28.096z" id="o"/><path d="M135.707 32.546c-4.693 17.389-8.109 29.627-10.247 36.715-3.21 10.638-3.097 19.462-2.379 26.371 2.154 20.72 12.283 30.141 7.092 79.704-2.03 19.377-16.033 44.49-18.232 66.096-3.426 33.658 2.11 44.783 0 50.349-2.888 7.619-33.711.617-49.136 17.903-4.968-10.284 13.905-46.546 13.905-52.085 0-5.539.643-47.135 16.493-77.648 10.567-20.342 14.604-50.098 12.112-89.268-26.556-5.476-45.98-12.618-58.271-21.424-12.291-8.806-27.89-27.804-46.798-56.995 2.821-7.668 6.056-11.502 9.705-11.502 5.474 0 42.559 36.098 71.231 40.477 12.02 1.836 21.672-5.783 30.758-7.977 14.455-3.491 31.722-5.419 33.474-6.062-.296.93-.627 2.094-1.047 2.856-1.921-.508-4.808.321-8.66 2.488z" id="r"/><linearGradient x1="50%" y1="-142.327%" x2="50%" y2="170.165%" id="t"><stop stop-color="#95B7E5" offset="0%"/><stop stop-color="#476DB1" offset="100%"/></linearGradient><linearGradient x1="83.28%" y1="11.256%" x2="59.889%" y2="97.31%" id="u"><stop stop-color="#476DB1" offset="0%"/><stop stop-color="#283F6F" offset="100%"/></linearGradient><linearGradient x1="83.28%" y1="11.256%" x2="-16.125%" y2="448.776%" id="v"><stop stop-color="#476DB1" offset="0%"/><stop stop-color="#283F6F" offset="100%"/></linearGradient><linearGradient x1="50%" y1="19.686%" x2="-33.812%" y2="294.476%" id="w"><stop stop-color="#F7FAFF" offset="0%"/><stop stop-color="#6B9AD9" offset="100%"/></linearGradient><linearGradient x1="50%" y1="-10.877%" x2="50%" y2="100%" id="y"><stop stop-color="#FFE579" offset="0%"/><stop stop-color="#FEB755" offset="100%"/></linearGradient><path d="M76.025 21.335c10.99 0 18.836-3.275 23.538-9.824 32.596 3.278 52.763 13.136 60.501 29.574 6.8 14.448 8.276 18.657 20.855 41.2 5.926 10.62-4.983 22.547-32.729 35.78 16.167 32.624 28.444 50.816 36.831 54.576 2.845 2.703 2.845 11.309 1.811 14.837-1.938 6.61-30.107 46.458-44.307 41.276-9.466-3.455-29.989-11.571-61.569-24.349l-71.884-67.026-8.993-72.666c3.855-13.109 9.738-27.568 17.648-43.379 10.36-20.707 24.264-25.75 41.71-15.128.069 10.085 5.598 15.128 16.588 15.128z" id="x"/></defs><g transform="matrix(1.4075671253444326, 0, 0, 1.4075671253444326, -296.08504094436597, -181.8850987412589)"><title>START UP@2x</title><desc>Created with Sketch.</desc><g fill="none"><path d="M 929.190002 318.858002 A 464.595001 318.858002 0 0 1 464.595001 637.716003 A 464.595001 318.858002 0 0 1 0 318.858002 A 464.595001 318.858002 0 0 1 464.595001 0 A 464.595001 318.858002 0 0 1 929.190002 318.858002 Z" transform="translate(271 214)" fill="url(#a)"/><g id="Shadow" transform="translate(219 797)" fill="#E2EBFC" opacity=".806"><path d="M 584 10.958 A 219 10.958 0 0 1 365 21.916 A 219 10.958 0 0 1 146 10.958 A 219 10.958 0 0 1 365 0 A 219 10.958 0 0 1 584 10.958 Z"/><path d="M 938 73.487 A 154 20.764999 0 0 1 784 94.251999 A 154 20.764999 0 0 1 630 73.487 A 154 20.764999 0 0 1 784 52.722 A 154 20.764999 0 0 1 938 73.487 Z"/><path d="M 128 16.167999 A 64 13.168 0 0 1 64 29.335999 A 64 13.168 0 0 1 0 16.167999 A 64 13.168 0 0 1 64 2.999999 A 64 13.168 0 0 1 128 16.167999 Z"/><path d="M 406 74.232002 A 94 18.232 0 0 1 312 92.464003 A 94 18.232 0 0 1 218 74.232002 A 94 18.232 0 0 1 312 56.000002 A 94 18.232 0 0 1 406 74.232002 Z"/></g><g fill-rule="nonzero"><g id="Leaves"><path d="M332.209 520.626c-14.093-2.565-18.272 29.782-23.677 34.432-5.393 4.609-16.459 3.298-18.544 16.12-2.084 12.823 8.231 15.336 6.489 25.984-1.742 10.649-24.289 2.717-27 19.538-2.711 16.82 13.552 26.828 11.901 36.955-1.651 10.127-11.51 11.456-15.144 33.876-3.633 22.42 12.934 31.987 39.039 41.534 26.105 9.548 44.738 6.982 48.859-17.134 4.12-24.116-24.366-31.57-24.176-45.398.177-13.784 20.093-15.592 22.718-31.072 2.625-15.479-24.528-22.531-22.463-34.904 2.066-12.373 25.04-12.848 27.212-25.695 2.172-12.847-2.653-16.237-11.529-23.423-8.9-7.105.407-28.249-13.686-30.814z" id="Leaf" fill="url(#b)"/><path d="M305.985 717.188c.513.333 1.112.107 1.338-.505.226-.612-.007-1.378-.52-1.71-12.336-7.933-17.318-18.256-15.169-31.313.108-.658-.252-1.338-.805-1.52-.553-.182-1.089.203-1.197.86-2.339 14.23 3.199 25.702 16.354 34.189zM313.103 663.081c.573.116 1.052-.343 1.071-1.026.019-.682-.43-1.329-1.003-1.444-9.279-1.871-15.476-9.432-18.745-22.888-.164-.669-.744-1.127-1.295-1.022-.551.104-.865.731-.7 1.399 3.513 14.436 10.436 22.895 20.672 24.98zM314.562 588.578c.397.055.729-.268.741-.722.012-.453-.3-.865-.697-.92-4.79-.659-7.985-4.228-9.679-10.875-.113-.443-.514-.729-.896-.639-.381.089-.599.52-.485.963 1.862 7.297 5.561 11.434 11.017 12.193zM317.433 580.449c-.385-.131-.589-.582-.455-1.007.133-.425.553-.663.938-.532 4.642 1.58 8.741-.303 12.447-5.81.248-.368.712-.46 1.036-.205.325.255.387.762.14 1.13-4.071 6.053-8.818 8.231-14.105 6.424zM313.731 646.478c-.553-.218-.839-.902-.64-1.528.199-.625.81-.956 1.363-.739 8.196 3.228 15.522.039 22.207-9.838.365-.541 1.038-.657 1.503-.258.465.399.545 1.162.179 1.703-7.225 10.682-15.491 14.272-24.612 10.66zM313.93 705.916c-.545-.245-.825-.951-.626-1.578.2-.626.804-.936 1.35-.692 8.083 3.623 15.333.696 21.979-9.046.363-.534 1.028-.623 1.486-.199.457.424.533 1.202.17 1.736-7.184 10.536-15.364 13.831-24.359 9.779z" id="leaves-base" fill="#98BBE9"/><path d="M297.706 761.651c-.147.884.328 1.838 1.061 2.131.733.292 2.443.207 2.591-.68-.162-5.813.548-13.497 2.131-23.059 2.375-14.343 13.528-35.771 14.768-52.168 1.229-16.359-7.848-50.595-7.536-75.315.223-20.009 8.592-36.007 12.381-47.091 3.799-11.12 5.142-25.105 4.89-25.155-.302-.06-1.742 14.267-5.66 24.985-3.907 10.68-10.999 24.236-13.012 40.84-3.762 30.96 8.401 62.706 5.015 82.999-3.386 20.293-11.208 30.949-15.029 48.482-2.543 11.675-3.075 19.679-1.601 24.03z" fill="#8FAFDA"/></g><g id="Leaves"><path d="M232.277 533.614c13.628-4.163 22.397 28.391 28.487 32.682 6.091 4.291 17.067 2.143 21.059 15.212 3.992 13.069-6.151 16.167-2.865 26.927 3.286 10.76 25.271 1.877 30.564 19.205 5.293 17.329-10.167 27.617-7.027 37.898 3.14 10.282 13.657 11.796 20.664 34.738 7.007 22.942-9.328 31.635-35.837 39.732-26.51 8.097-46.467 5.01-53.474-17.932-7.007-22.942 21.727-30.179 19.829-43.657-1.897-13.478-22.648-14.795-27.196-29.684-4.548-14.89 22.267-23.08 18.551-35.246-3.716-12.166-27.011-11.086-30.801-23.496-3.791-12.41.611-16.181 8.563-24.109 7.952-7.928-4.145-28.109 9.484-32.271z" id="Leaf" fill="url(#c)"/><path d="M285.085 728.347c-.501.306-1.162.062-1.477-.546-.315-.608-.165-1.35.335-1.656 12.021-7.36 15.924-17.448 11.924-30.542-.201-.66.086-1.332.642-1.502.556-.17 1.17.227 1.372.887 4.366 14.295.028 25.508-12.797 33.36zM270.403 675.255c-.581.134-1.123-.304-1.212-.978-.088-.675.311-1.33.892-1.464 9.411-2.175 15.029-9.951 16.955-23.626.096-.683.644-1.17 1.224-1.089.58.082.972.701.875 1.384-2.068 14.683-8.346 23.373-18.734 25.773zM259.164 600.817c-.396.09-.767-.206-.828-.662-.061-.456.211-.898.607-.988 4.781-1.086 7.624-4.981 8.597-11.888.065-.461.438-.789.834-.734.396.056.664.475.599.936-1.068 7.587-4.361 12.099-9.809 13.336zM255.555 592.683c-5.209 2.018-10.461.115-15.586-5.58-.311-.346-.323-.843-.026-1.111.297-.267.79-.204 1.102.142 4.666 5.185 9.2 6.827 13.772 5.056.379-.147.852.068 1.055.48.204.412.062.865-.317 1.012zM268.351 658.561c-9.138 3.479-18.399.048-27.533-10.101-.461-.512-.484-1.243-.052-1.632.432-.389 1.156-.289 1.617.223 8.454 9.395 16.66 12.434 24.867 9.31.554-.211 1.249.111 1.554.718.304.608.102 1.271-.452 1.482zM275.718 717.115c-9.138 3.479-18.399.048-27.533-10.101-.461-.512-.484-1.243-.052-1.632.432-.389 1.156-.289 1.617.223 8.454 9.395 16.66 12.434 24.867 9.31.554-.211 1.249.111 1.554.718.304.608.102 1.271-.452 1.482z" id="Leaves-base" fill="#5ACE87"/><path d="M299.43 772.296c.267.874-.126 1.768-.877 1.997-.751.229-2.596.019-2.863-.855-.537-5.645-2.24-13.181-5.109-22.609-4.304-14.141-18.732-35.466-22.068-51.518-3.336-16.052 1.638-50.025-1.994-74.742-2.955-20.111-13.636-35.721-18.973-46.599-5.337-10.879-8.597-24.843-8.353-24.918.293-.089 3.701 14.217 9.105 24.688 5.404 10.471 14.455 23.698 18.782 40.323 8.054 30.949-.405 62.569 5.695 82.54 6.1 19.97 15.698 30.704 21.959 48.093 4.174 11.593 5.739 19.459 4.696 23.599z" id="Leaves-base" fill="#42B16D"/></g><g><path d="M391.795 579.785c-12.588-6.686-25.084 19.237-31.477 21.526-6.394 2.289-16.682-2.062-22.152 8.237-5.47 10.299 3.898 15.275-.605 23.755-4.504 8.479-24.539-4.166-31.792 9.49s6.332 26.016 2.028 34.118c-4.304 8.103-14.607 6.998-24.21 25.078-9.603 18.08 5.022 29.271 29.508 42.276 24.486 13.005 44.064 14.918 53.668-3.161 9.603-18.08-17.129-30.856-13.622-41.984 3.507-11.128 23.629-7.516 29.861-19.25 6.232-11.734-18.534-24.889-13.442-34.477 5.092-9.588 27.362-3.337 32.556-13.117 5.195-9.78 1.432-14.021-5.226-22.64-6.659-8.619 7.495-23.167-5.093-29.853z" fill="url(#d)"/><path d="M316.699 734.773c.443.377 1.11.319 1.489-.131s.327-1.12-.116-1.498c-10.643-9.062-13.137-18.608-7.656-28.927.276-.52.083-1.162-.43-1.435-.514-.273-1.154-.073-1.43.447-5.984 11.265-3.211 21.876 8.143 31.544zM336.841 691.784c.546.211 1.16-.063 1.37-.612.21-.549-.062-1.166-.608-1.377-8.852-3.422-12.95-10.884-12.339-22.654.031-.588-.419-1.089-1.003-1.119-.585-.03-1.083.421-1.114 1.009-.657 12.637 3.923 20.977 13.694 24.754zM357.227 630.879c.373.143.792-.042.935-.413.143-.371-.043-.787-.416-.93-4.501-1.722-6.582-5.466-6.273-11.411.021-.397-.286-.735-.685-.756-.399-.021-.74.284-.76.681-.339 6.53 2.071 10.866 7.199 12.828zM362.556 625.173c4.497 3.15 9.439 2.719 14.66-1.218.317-.239.379-.692.138-1.011-.241-.319-.693-.384-1.01-.145-4.752 3.585-9.019 3.957-12.966 1.192-.327-.229-.776-.15-1.003.176-.227.326-.146.777.182 1.006zM342.427 678.786c7.896 5.47 16.618 4.641 25.922-2.376.47-.354.566-1.018.216-1.482-.35-.464-1.015-.554-1.484-.199-8.611 6.495-16.339 7.23-23.431 2.317-.478-.332-1.14-.211-1.478.27-.338.481-.224 1.139.255 1.471zM328.033 727.335c7.896 5.47 16.618 4.641 25.922-2.376.47-.354.566-1.018.216-1.482-.35-.464-1.015-.554-1.484-.199-8.611 6.495-16.339 7.23-23.431 2.317-.478-.332-1.14-.211-1.478.27-.338.481-.224 1.139.255 1.471zM297.418 769.197c-.366.688-.1 1.545.594 1.914.694.368 2.494.609 2.86-.079 1.221-4.72 3.8-10.796 7.736-18.228 5.904-11.147 22.443-26.144 27.655-39.153 5.212-13.008 4.669-43.29 11.247-63.664 5.353-16.577 17.573-27.527 24.064-35.64s11.37-19.347 11.143-19.468c-.271-.144-5.334 11.351-11.839 19.098-6.504 7.748-16.86 17.026-23.097 30.3-11.609 24.71-7.42 53.77-15.779 69.508-8.359 15.738-18.931 22.752-27.122 36.239-5.461 8.991-7.949 15.382-7.462 19.172z" fill="#D2DEF8"/></g><g><path id="Vase-base" fill="url(#e)" d="M255.701 755.679h85.043l-18.898 53.722h-47.246z"/><path d="M259.4 754h75.944c2.982 0 5.4 2.418 5.4 5.4v5.988c0 2.982-2.418 5.4-5.4 5.4h-75.944c-2.982 0-5.4-2.418-5.4-5.4v-5.988c0-2.982 2.418-5.4 5.4-5.4z" fill="url(#f)"/></g></g><g><path d="M788.241 553.51c7.374 1.325 13.838 5.275 18.389 10.849 3.452-2.714 7.805-4.332 12.536-4.332 11.214 0 20.304 9.093 20.304 20.311 0 1.195-.103 2.365-.301 3.503l.301-.001c9.423 0 17.858 4.232 23.509 10.9 8.283-11.281 21.639-18.604 36.704-18.604 25.134 0 45.51 20.382 45.51 45.524 0 .469-.007.936-.021 1.401h.021c17.014 0 30.807 13.797 30.807 30.816s-13.793 30.816-30.807 30.816c-6.383 0-12.312-1.942-17.23-5.267-4.735 10.929-15.615 18.574-28.28 18.574-14.597 0-26.823-10.156-30.002-23.789-4.379 3.776-10.034 6.112-16.231 6.271-7.801 6.975-18.097 11.215-29.383 11.215-15.955 0-29.932-8.474-37.678-21.169-9.281 14.42-25.47 23.97-43.89 23.97-18.419 0-34.609-9.55-43.89-23.97-7.746 12.695-21.722 21.169-37.678 21.169-11.286 0-21.582-4.24-29.383-11.215-6.197-.159-11.852-2.495-16.231-6.271-3.179 13.633-15.405 23.789-30.002 23.789-12.665 0-23.545-7.645-28.28-18.574-4.918 3.325-10.847 5.267-17.23 5.267-17.014 0-30.807-13.797-30.807-30.816s13.793-30.816 30.807-30.816h.021c-.014-.465-.021-.932-.021-1.401 0-25.142 20.375-45.524 45.51-45.524 15.065 0 28.421 7.323 36.704 18.604 5.651-6.668 14.086-10.9 23.509-10.9l.301.001c-.198-1.138-.301-2.309-.301-3.503 0-11.217 9.091-20.311 20.304-20.311 4.731 0 9.084 1.619 12.536 4.332 4.551-5.574 11.015-9.524 18.389-10.849 3.74-6.258 8.939-11.543 15.128-15.384 2.71-14.25 15.229-25.023 30.263-25.023 14.864 0 27.27 10.531 30.167 24.541 6.539 3.876 12.025 9.342 15.924 15.867z" id="Path" fill="url(#g)"/><g fill-rule="nonzero"><path d="M601.419 410.848c14.003-17.626 35.007-29.299 63.013-35.018v105.756h-84.018c0-29.532 7.001-53.111 21.004-70.737zM881.479 410.848c14.003 17.626 21.004 41.205 21.004 70.737h-84.018v-105.756c28.006 5.72 49.01 17.393 63.013 35.018z" id="Rocket-base" fill="url(#e)"/><path d="M808.325 238.462c8.634 39.095 13.859 119.802 15.676 242.123.172 11.597-9.089 21.137-20.686 21.31l-.312.002h-121.708c-11.598 0-21-9.402-21-21l.002-.312c1.817-122.321 7.043-203.028 15.676-242.123 13.688-61.983 35.747-98.137 66.175-108.462 30.429 10.325 52.487 46.479 66.175 108.462z" id="Rocket-base" fill="url(#b)"/><path d="M670.246 433.496h42v7h-42v-7zm0 11.388h24.972v7h-24.972v-7z" id="Shape" fill="#9BBBE8"/><path d="M687.406 197.936c13.444-37.469 31.692-60.114 54.744-67.936 23.052 7.822 41.3 30.467 54.744 67.936h-109.488zM742.15 315.598c-23.588 0-42.709-19.128-42.709-42.723s19.122-42.723 42.709-42.723c23.588 0 42.709 19.128 42.709 42.723s-19.122 42.723-42.709 42.723z" id="Rocket-base" fill="url(#h)"/><path d="M742.15 307.898c19.334 0 35.009-15.68 35.009-35.023 0-19.343-15.675-35.023-35.009-35.023s-35.009 15.68-35.009 35.023c0 19.343 15.675 35.023 35.009 35.023z" id="Rocket-base" fill="#fff"/><path d="M681.237 501.896h125.327l-6.211 15.671c-2.115 5.337-7.274 8.842-13.015 8.842h-86.875c-5.741 0-10.9-3.505-13.015-8.842l-6.211-15.671zM741.449 375.129c5.115 0 9.348 3.979 9.663 9.085l6.441 104.375h-32.207l6.441-104.375c.315-5.105 4.547-9.085 9.663-9.085z" fill="url(#e)"/></g></g><g><path d="M922.904 709.823c9.64 15.41 56.467 24.224 140.481 26.443l31.75.733c1.803-3.338 2.754-8.083 2.855-14.234.101-6.151-.563-19.048-1.99-38.69l-92.211-43.076c-63.563 30.473-90.525 53.414-80.885 68.823z" id="Jacket" fill="url(#i)" fill-rule="nonzero"/><g><g id="Foot" fill-rule="nonzero"><path d="M991.996 836.28l2.683 14.315c-3.265 3.811-7.297 5.716-12.095 5.716-4.798 0-9.069-.961-12.813-2.883l-2.688-15.647 24.912-1.502z" id="Leg" fill="url(#j)"/><path d="M994.81 848.898c2.036 0 2.036 5.908 2.125 10.404.032 1.637-.313 4.131-1.036 7.481-.296 1.373-1.601 2.379-3.146 2.428-32.677 1.016-52.367.989-52.427-.082-2.611-7.31-1.189-8.099 13.63-13.834 6.023-2.331 11.552-3.444 15.298-5.358 1.281-.655 3.967 4.638 12.824 4.638 8.858 0 10.696-5.677 12.732-5.677z" id="Shoes" fill="url(#k)"/><path d="M980.246 579.488l55.68 11.849c4.091 24.806 6.136 38.534 6.136 41.186 0 2.652-53.626 95.917-55.583 111.952-1.956 16.035 10.238 94.344 6.668 97.914-3.181 3.182-19.214 5.805-25.838 2.624-12.76-42.044-22.199-79.153-22.197-102.056.001-22.903 8.852-109.227 35.133-163.467z" id="Pants" fill="url(#l)"/></g><g id="Foot"><path d="M1068.138 845.293l-24.912 1.502 2.688 15.647c3.744 1.922 8.015 2.883 12.813 2.883s8.829-1.905 12.095-5.716l-2.683-14.315z" fill="url(#j)" fill-rule="nonzero"/><path d="M1070.881 857.911c-2.036 0-3.874 5.677-12.732 5.677-8.858 0-11.543-5.293-12.824-4.638-3.746 1.914-9.275 3.027-15.298 5.358-14.819 5.735-16.241 6.523-13.63 13.834.06 1.071 19.75 1.098 52.427.082 1.546-.048 2.85-1.055 3.146-2.428.723-3.35 1.068-5.844 1.036-7.481-.089-4.496-.089-10.404-2.125-10.404z" id="Shoes" fill="url(#k)" fill-rule="nonzero"/><path d="M979.972 579.731c7.96 20.152 18.108 34.629 30.444 43.431 10.494 7.487-2.112 62.921 11.055 125.408 13.167 62.488 19.656 96.727 22.37 102.873 2.714 6.146 25.298 6.676 27.223-1.828 1.924-8.504-7.22-47.307-8.505-104.772 15.004-58.895 25.18-123.695 24.001-126.154-1.179-2.459 1.996-17.25-12.826-38.958h-93.763z" id="Pants" fill="url(#m)" fill-rule="nonzero"/><path d="M1061.923 838.355c-14.482-53.135-19.31-87.628-14.482-103.478 7.241-23.776 24.875-97.367 24.875-109.164" stroke="#5F90CC" stroke-linecap="round" stroke-linejoin="round" stroke-dasharray="5,10"/></g></g><g id="Hair" transform="translate(841 312) translate(178 26)" fill-rule="nonzero"><path d="M9.904 18.891c5.78-18.092 16.115-18.02 31.004.216 22.335 27.355 51.284-4.12 50.858 43.673-.426 47.793 71.231-9.23 50.993 70.959-11.575 45.863-73.981 35.837-107.899-6.482-25.386-31.674-25.205-93.903-28.213-96.343-4.685-3.8-3.6-7.808 3.256-12.023z" fill="url(#n)"/><path d="M 23.751 14.288 A 11.5 13.312 0 0 1 12.251 27.6 A 11.5 13.312 0 0 1 0.751 14.288 A 11.5 13.312 0 0 1 12.251 0.976 A 11.5 13.312 0 0 1 23.751 14.288 Z" fill="url(#c)" transform="matrix(-1 0 0 1 24.502 0)"/></g><g id="Head" fill-rule="nonzero"><path d="M957.781 355.071l6.412-.941 39.586 7.824 11.918 13.85 7.025 19.758c-.768 7.238.38 12.994 3.443 17.266 3.064 4.272 8.506 7.707 16.327 10.305-18.274 21.416-32.016 33.304-41.223 35.663-13.811 3.538-7.789-9.755 1.284-28.561 6.049-12.537-.761-19.002-8.599-21.974-6.574 4.282-10.776 6.675-12.605 7.179-2.488.686-11.415-9.445-18.282-22.071-.707-1.299-5.613-5.273-6.267-6.616-1.454-2.986 1.026-3.517.268-6.862-.577-2.547-3.255-5.699-3.223-10.027.02-2.705 1.332-7.636 3.936-14.793z" id="Face" fill="#F2A384"/><path d="M956.852 383.691c-1.474 2.937 5.024 6.156 6.79 9.677 2.539 3.035-27.918-2.189-26.239-35.591 1.679-33.402 21.047-31.54 26.381-32.487 5.334-.947 20.117-17.828 42.355-11.428 22.238 6.4 27.708 21.667 27.438 43.837-.326 26.744-9.28 42.181-14.626 42.88-5.978.781-15.725-2.759-29.242-10.619 5.527-1.7 7.058-5.946 4.592-12.736-3.699-10.186-12.767-6.686-13.866 1.636l-3.724-6.011-21.748.415c2.46 4.559 3.09 8.035 1.889 10.428z" id="Hair" fill="url(#n)"/></g><path d="M1003.913 427.099c-6.76 10.09-7.085 16.818-.975 20.184 6.111 3.366 19.159-4.728 39.146-24.283 26.095 11.257 41.815 20.197 47.16 26.82 5.345 6.623 2.911 35.984-7.304 88.081-10.774 25.431-20.105 32.238-27.992 40.422-11.447 11.878-39.528 10.916-61.244 12.48-12.058.869-19.965-.485-24.706-17.846 11.569-19.354 16.863-30.046 16.863-38.292 0-8.246-3.852-28.375-11.558-60.385l16.973-39.986 13.635-7.195z" id="Body" fill="url(#d)" fill-rule="nonzero"/><path d="M868.838 419.744l-11.328-11.128c-6.337-3.375-10.539-6.854-12.608-10.436-1.785-3.092.61-7.576 3.938-9.763.677-.445-7.548-9.543-6.821-9.767 1.911-.588 12.843 8.44 14.412 10.163 2.338 2.567 2.115-.596 4.727.664 1.741.84 3.11 4.895 4.107 12.165l13.265 10.782-9.692 7.319z" fill="#F2A384" fill-rule="nonzero"/><g id="Jacket" transform="translate(841 312) translate(199 116)"><mask id="q"><use xlink:href="#o"/></mask><use fill="url(#p)" fill-rule="nonzero" xlink:href="#o"/><path d="M26.518 80.63c-6.121-8.793-6.121-23.238 0-43.335 2.17-7.123 11.312-9.068 24.366 0 15.648 10.87 39.532 57.082 28.377 90.973-17.18 52.196-45.493 66.504-61.138 69.921-2.987.653-3.621-.937-9.869 5.988-7.088 7.856-6.242-1.836 2.537-29.076 20.087-30.482 29.292-50.881 27.614-61.196-1.678-10.315-5.64-21.407-11.887-33.277z" id="Shadow" fill="#A83C5F" fill-rule="nonzero" opacity=".5" mask="url(#q)"/></g><g fill-rule="nonzero"><path d="M1066.146 610.7c-4.546 6.798-9.98 12.855-16.3 18.169-9.48 7.972-14.548 14.394-15.787 13.687-1.239-.707 3.908-6.984 2.911-6.62-2.26.826-8.074 8.392-9.545 7.629-.46-.238 1.557-3.782 6.049-10.632-6.77 5.867-10.542 8.342-11.315 7.424-1.16-1.377 9.21-9.497 8.914-10.005-.517-.887-10.923 3.686-11.161 2.753-.623-2.453 11.877-7.826 14.122-9.721 5.669-4.784-5.159-4.539-5.006-7.147.102-1.739 5.68-1.596 16.734.427l14.287-15.947 6.099 9.982z" fill="#F2A384"/><path d="M1066.609 491.364c-6.121-8.777-6.121-23.195 0-43.255 2.17-7.11 11.312-9.051 24.366 0 15.648 10.85 35.064 62.739 23.909 96.568-20.461 62.049-38.997 63.337-50.445 71.132-7.632 5.196-12.017 1.792-13.154-10.213 21.512-33.379 31.43-55.217 29.752-65.513-1.678-10.296-6.487-26.536-14.428-48.718z" fill="url(#p)"/></g><g transform="translate(841 312) translate(18 87)"><mask id="s"><use xlink:href="#r"/></mask><use fill="url(#p)" fill-rule="nonzero" xlink:href="#r"/><path d="M104.854 94.487c.118-7.231 1.195-13.106 3.231-17.623 2.036-4.517 2.607-7.179 1.713-7.986-22.211 11.739-40.804 14.401-55.779 7.986-14.975-6.415-11.203 2.385 11.315 26.399l39.52-8.776z" fill="#A83C5F" fill-rule="nonzero" opacity=".5" mask="url(#s)"/></g></g><g id="Group-3" fill-rule="nonzero"><g><path d="M410.212 792.763l18.852-177.451h-18.852v177.451zm22.411-180.65l-20.557 193.502c-.144 1.356-1.289 2.385-2.655 2.385-1.326 0-2.401-1.074-2.401-2.399v-193.488h25.613z" fill="url(#t)"/><path d="M757.588 792.763v-177.451h-18.852l18.852 177.451zm-22.411-180.65h25.613v193.488c0 1.325-1.075 2.399-2.401 2.399-1.365 0-2.511-1.029-2.655-2.385l-20.557-193.502z" id="Table-base" fill="url(#t)"/><path fill="url(#u)" d="M387 597.721h393v15.991h-393z"/></g><g><path id="Imac-base" fill="url(#v)" d="M566.291 576.134h44.022v26.385h-44.022z"/><path d="M491.051 461h192.901c1.767 0 3.2 1.433 3.2 3.2v109.533c0 1.767-1.433 3.2-3.2 3.2h-192.901c-1.767 0-3.2-1.433-3.2-3.2v-109.533c0-1.767 1.433-3.2 3.2-3.2z" fill="url(#u)"/><g><path id="Display-base" fill="url(#w)" d="M495.855 468.995h183.293v99.942h-183.293z"/><path d="M610.851 543h11.941c.552 0 1 .448 1 1v19.628c0 .552-.448 1-1 1h-11.941c-.552 0-1-.448-1-1v-19.628c0-.552.448-1 1-1z" id="Display-base" fill="url(#e)"/><path d="M644.851 536h11.941c.552 0 1 .448 1 1v26.837c0 .552-.448 1-1 1h-11.941c-.552 0-1-.448-1-1v-26.837c0-.552.448-1 1-1z" id="Display-base" fill="url(#b)"/><path d="M661.851 546h11.941c.552 0 1 .448 1 1v16.837c0 .552-.448 1-1 1h-11.941c-.552 0-1-.448-1-1v-16.837c0-.552.448-1 1-1z" id="Display-base" fill="url(#e)"/><path d="M627.851 525h11.941c.552 0 1 .448 1 1v37.651c0 .552-.448 1-1 1h-11.941c-.552 0-1-.448-1-1v-37.651c0-.552.448-1 1-1z" id="Display-base" fill="url(#b)"/><g id="Display-base"><path d="M610.681 474h63.201c.442 0 .8.358.8.8v43.4c0 .442-.358.8-.8.8h-63.201c-.442 0-.8-.358-.8-.8v-43.4c0-.442.358-.8.8-.8z" fill="url(#b)"/><path d="M614.287 509.723l8.065-13.817c.445-.763 1.425-1.021 2.188-.575.13.076.248.169.351.278l6.866 7.198c.61.639 1.623.663 2.262.053l.158-.174 13.139-16.862c.543-.697 1.548-.822 2.246-.279.138.108.258.238.354.384l6.268 9.553c.485.739 1.477.945 2.216.46.166-.109.31-.247.425-.409l11.143-15.626-55.68 29.817zM614.287 509.723l16.776-13.417c.546-.437 1.312-.468 1.892-.078l7.267 4.887c.64.43 1.495.343 2.035-.208l6.97-7.108c.6-.612 1.577-.642 2.214-.068l7.944 7.158c.61.55 1.538.548 2.147-.004l9.009-8.181-56.253 17.02z" stroke="#fff" stroke-width="1.2" stroke-linecap="round" stroke-linejoin="round"/></g><g id="Display-base"><path d="M562.697 541.851c1.184.212 2.222.845 2.953 1.738.554-.435 1.253-.694 2.013-.694 1.801 0 3.261 1.457 3.261 3.254 0 .191-.017.379-.048.561h.048c1.513 0 2.868.678 3.776 1.746 1.33-1.807 3.475-2.981 5.895-2.981 4.037 0 7.309 3.265 7.309 7.293l-.003.224h.003c2.732 0 4.948 2.21 4.948 4.937 0 2.727-2.215 4.937-4.948 4.937-1.025 0-1.977-.311-2.767-.844-.76 1.751-2.508 2.976-4.542 2.976-2.344 0-4.308-1.627-4.818-3.811-.703.605-1.611.979-2.607 1.005-1.253 1.117-2.906 1.797-4.719 1.797-2.562 0-4.807-1.358-6.051-3.391-1.491 2.31-4.091 3.84-7.049 3.84s-5.558-1.53-7.049-3.84c-1.244 2.034-3.489 3.391-6.051 3.391-1.813 0-3.466-.679-4.719-1.797-.995-.025-1.903-.4-2.607-1.005-.51 2.184-2.474 3.811-4.818 3.811-2.034 0-3.781-1.225-4.542-2.976-.79.533-1.742.844-2.767.844-2.732 0-4.948-2.21-4.948-4.937 0-2.727 2.215-4.937 4.948-4.937h.003l-.003-.224c0-4.028 3.272-7.293 7.309-7.293 2.419 0 4.564 1.173 5.895 2.981.908-1.068 2.262-1.746 3.776-1.746h.048c-.032-.182-.048-.37-.048-.561 0-1.797 1.46-3.254 3.261-3.254.76 0 1.459.259 2.013.694.731-.893 1.769-1.526 2.953-1.738.601-1.003 1.436-1.849 2.43-2.465.435-2.283 2.446-4.009 4.86-4.009 2.387 0 4.38 1.687 4.845 3.932 1.05.621 1.931 1.497 2.557 2.542z" fill="url(#b)"/><g><path d="M532.693 518.995c2.249-2.824 5.622-4.694 10.12-5.61v16.943h-13.493c0-4.731 1.124-8.509 3.373-11.333zM577.671 518.995c2.249 2.824 3.373 6.602 3.373 11.333h-13.493v-16.943c4.498.916 7.871 2.786 10.12 5.61z" id="Display-base" fill="url(#e)"/><path d="M565.922 491.377c1.387 6.264 2.226 19.196 2.518 38.795.028 1.855-1.454 3.382-3.31 3.41h-19.621000000000002c-1.856 0-3.36-1.504-3.36-3.36v-.05c.292-19.6 1.131-32.531 2.518-38.795 2.198-9.93 5.741-15.723 10.628-17.377 4.887 1.654 8.429 7.446 10.628 17.377z" id="Display-base" fill="url(#b)"/><path d="M546.503 484.884c2.159-6.003 5.09-9.631 8.792-10.884 3.702 1.253 6.633 4.881 8.792 10.884h-17.584zM555.295 503.735c-3.788 0-6.859-3.064-6.859-6.845 0-3.78 3.071-6.845 6.859-6.845s6.859 3.064 6.859 6.845c0 3.78-3.071 6.845-6.859 6.845z" id="Display-base" fill="url(#h)"/><path d="M555.295 502.503c3.108 0 5.627-2.513 5.627-5.613 0-3.099-2.519-5.613-5.627-5.613-3.108 0-5.627 2.513-5.627 5.613 0 3.099 2.519 5.613 5.627 5.613z" id="Display-base" fill="#fff"/><path d="M545.512 533.582h20.127l-.999 2.514c-.339.853-1.164 1.413-2.082 1.413h-13.966c-.918 0-1.743-.56-2.082-1.413l-.999-2.514zM555.182 513.273c.822 0 1.501.639 1.552 1.459l1.034 16.719h-5.172l1.034-16.719c.051-.82.731-1.459 1.552-1.459z" fill="url(#e)"/></g></g></g></g></g><g><g fill-rule="nonzero"><path d="M588.839 794.198c1.221-.822 20.394-3.755 18.347 5.513-2.047 9.268-9.813 13.385-6.928 18.451 1.923 3.377 1.51 5.358-1.24 5.945l-11.373-5.945-4.957-8.139c3.287-10.002 5.338-15.277 6.152-15.825z" id="leg" fill="#B06C57"/><path d="M582.303 808.331c2.754-.299 3.861 6.564 8.266 7.995 4.405 1.431 8.881-3.02 9.832-2.115 2.78 2.644 7.307 4.962 11.962 8.522 11.452 8.759 12.492 9.821 8.41 15.981-.489 1.505-15.423-2.515-44.801-12.061-.166-3.533.148-6.681.943-9.442 1.192-4.142 2.635-8.582 5.389-8.88z" id="Shoes" fill="url(#k)"/><path d="M516.104 786.903c.535.822.155 5.878-1.14 15.168l-7.458 7.097-12.791 1.028c.438-1.066 1.062-2.795 1.872-5.186 1.215-3.587 1.658-5.776 3.395-15.107s15.321-4.234 16.123-3z" fill="#B06C57"/><path d="M507.354 796.173c4.73 0 9.307 4.896 10.499 9.038.795 2.762 1.109 5.909.943 9.442-11.727 3.131-18.741 4.222-21.041 3.275-9.265-3.817-1.35-16.264 0-17.548.951-.904 4.868-4.207 9.598-4.207z" fill="url(#k)"/><path d="M478.181 669.053c43.313-20.252 68.865-25.315 76.657-15.189 11.688 15.189 21.7 65.116-36.784 138.974-4.216 2.983-7.961 4.24-11.235 3.771-3.274-.469-6.001-3.455-8.182-8.957l16.158-65.968-45.642-6.187-13.076-28.541 22.105-17.903z" id="Pants" fill="#111AA7"/><path d="M568.181 669.053c45.801-5.149 72.597-2.661 80.389 7.465 11.688 15.189 5.903 50.618-36.662 125.478-8.118 2.211-13.815 3.083-17.088 2.613-3.274-.469-6.001-3.455-8.182-8.957l18.158-73.968-69.155 9.879 10.437-44.608 22.105-17.903z" fill="url(#m)"/></g><g transform="translate(376 378) translate(11 120)"><path d="M57.194 14.938c18.53 8.474 29.804 10.593 33.823 6.356 4.019-4.237 5.79-7.37 5.314-9.398 33.095 4.609 53.552 15.132 61.372 31.57 9.402 19.765 25.988 71.025 37.177 78.484 2.008-2.638 12.672-8.522 31.992-17.653-2.987-1.475-4.481-3.434-4.481-5.877 0-3.664 1.868-2.481 3.188-3.834 1.314-1.346 1.938-3.426 3.816-3.381 1.682.04 3.53.4 5.398.937.94.27 3.077-1.278 4.01-.937 5.164 1.89 10.007 5.541 10.007 6.857 0 1.316.675 3.664-1.733 6.235-.858.916-2.656 2.011-5.392 3.284-27.213 32.756-44.927 49.134-53.142 49.134-12.322 0-30.505-25.056-35.373-30.3-3.47 11.284-27.255 37.281-71.353 77.991l-72.648-67.026-7.162-73.471 58.063-57.701-2.875 8.731z" fill="#B06C57" fill-rule="nonzero"/><mask id="z"><use xlink:href="#x"/></mask><use fill="url(#y)" fill-rule="nonzero" xlink:href="#x"/><path d="M149.226 118.588c-7.282-8.993-12.542-15.788-15.781-20.383-2.132 6.047 17.662 70.579 41.298 74.991 15.757 2.941 20.224 1.745 13.401-3.588l-38.918-51.019z" fill="#EFAB45" fill-rule="nonzero" opacity=".5" mask="url(#z)"/></g><g fill-rule="nonzero"><path d="M451.574 490.308c-3.091 9.994-5.578 16.608-7.46 19.843-2.824 4.852 2.201 17.058 14.499 17.058 8.199 0 17.847-3.202 28.943-9.606-4.159-6.564-6.238-12.754-6.238-18.57 0-5.816 1.186-10.798 3.557-14.946 4.495 2.887 8.183 2.887 11.064 0 4.322-4.33 22.632-54.929-26.433-67.315-11.877-8.592-30.065 12.386-30.065 21.715v16.588c-5.847-2.527-8.77-.546-8.77 5.942 0 6.489 3.779 10.926 11.337 13.313l9.566 15.978z" fill="#B06C57"/><path d="M474.582 384.866c14.268-14.346 27.905-.133 30.468 15.9 2.616 16.361-14.104 33.159-14.104 33.159v19.425c-3.393-5.653-7.165-7.792-11.314-6.418-4.422 1.464-3.786 7.686-1.481 13.118 2.305 5.432 5.241 5.098 4.776 6.224-2.81 6.803-13.1 14.119-30.87 21.947-12.694-2.735-22.387-12.472-29.08-29.21-6.692-16.738-6.692-29.706 0-38.903-2.96-8.581.391-16.769 10.051-24.561 14.491-11.689 27.286 3.666 41.554-10.681z" fill="url(#n)"/></g><g transform="translate(376 378) translate(0 187)" fill-rule="nonzero"><path id="Chair-base" fill="#D2D9FF" d="M154 184h12v49h-12z"/><path d="M 104 296 A 9 9 0 0 1 95 305 A 9 9 0 0 1 86 296 A 9 9 0 0 1 95 287 A 9 9 0 0 1 104 296 Z" id="Wheel" fill="url(#u)"/><path d="M 230 296 A 9 9 0 0 1 221 305 A 9 9 0 0 1 212 296 A 9 9 0 0 1 221 287 A 9 9 0 0 1 230 296 Z" id="Wheel" fill="url(#u)"/><path d="M 169 306 A 9 9 0 0 1 160 315 A 9 9 0 0 1 151 306 A 9 9 0 0 1 160 297 A 9 9 0 0 1 169 306 Z" fill="url(#u)"/><path d="M147.882 243.914l-.693-7.452c-.014-.151-.019-.302-.016-.453.046-2.209 1.873-3.962 4.082-3.916l17.189.355.224.011c2.203.17 3.851 2.093 3.681 4.295l-.493 6.401 54.728 37.564c.148.102.292.21.431.325 2.605 2.149 2.974 6.004.825 8.609-2.466 2.988-6.709 3.798-10.102 1.927l-47.59-26.241-2.606 33.857c-.291 3.784-3.397 6.735-7.191 6.833-3.759.097-6.949-2.736-7.297-6.48l-3.268-35.146-49.287 27.177c-3.393 1.871-7.636 1.061-10.102-1.927-2.149-2.605-1.78-6.459.825-8.609.139-.115.283-.223.431-.325l55.812-38.309.415 1.504z" id="Chair-base" fill="url(#t)"/><path d="M19.229 1.789c-6.054-3.38-15.307-.215-18.23 4.027.941 5.998 1.536 8.591 1.561 8.729 9.506 51.258 46.342 100.61 75.011 131.499 16.343 17.608 30.196 31.654 41.558 42.139 11.03 1.717 21.181.541 30.454-3.529 6.045-2.653 15.526-1.872 15.256-10.186-.557-17.137-15.781-25.792-21.789-50.613-5.636-23.286.703-70.721-16.332-80.486-17.035-9.764-38.37 7.185-70.883-6.935-22.999-9.988-30.553-31.265-36.608-34.646z" id="Chair-base" fill="url(#u)"/><path d="M.871 5.255c7.402 58.857 13.828 97.584 19.279 116.18 8.267 28.203 18.798 40.077 30.166 51.387 11.368 11.31 53.881 31.016 87.844 32.761 30.06 1.544 72.039-7.241 87.567-16.899 15.528-9.658 23.561-30.363 6.005-35.511-17.557-5.148-74.152 16.052-79.483 13.739-29.664-12.869-20.622-102.157-34.922-111.625-13.593-9-42.579 2.557-77.49-12.851-10.233-4.516-23.221-16.91-38.965-37.18z" fill="url(#t)"/></g></g></g></g></svg>