<svg viewBox="0 0 1440 1024" xmlns="http://www.w3.org/2000/svg"><title>USING PRODUCT@2x</title><desc>Created with Sketch.</desc><defs><linearGradient x1="50%" y1="19.686%" x2="-33.812%" y2="294.476%" id="a"><stop stop-color="#F7FAFF" offset="0%"/><stop stop-color="#6B9AD9" offset="100%"/></linearGradient><linearGradient x1="140.584%" y1="-6.483%" x2="25.163%" y2="143.48%" id="b"><stop stop-color="#E5EDFF" offset="0%"/><stop stop-color="#6B9AD9" offset="100%"/></linearGradient><linearGradient x1="45.815%" y1="15.16%" x2="75.941%" y2="70.686%" id="c"><stop stop-color="#F59BA9" offset="0%"/><stop stop-color="#F25267" offset="100%"/></linearGradient><linearGradient x1="69.094%" y1="-23.472%" x2="0%" y2="149.058%" id="d"><stop stop-color="#F7FAFF" offset="0%"/><stop stop-color="#6B9AD9" offset="100%"/></linearGradient><linearGradient x1="84.355%" y1="14.667%" x2="25.163%" y2="143.48%" id="e"><stop stop-color="#E5EDFF" offset="0%"/><stop stop-color="#6B9AD9" offset="100%"/></linearGradient><linearGradient x1="50%" y1="19.686%" x2="-33.859%" y2="202.699%" id="f"><stop stop-color="#EEF3FF" offset="0%"/><stop stop-color="#6B9AD9" offset="100%"/></linearGradient><linearGradient x1="17.012%" y1="-9.919%" x2="132.295%" y2="110.02%" id="g"><stop stop-color="#E5EDFF" offset="0%"/><stop stop-color="#6B9AD9" offset="100%"/></linearGradient><linearGradient x1="50%" y1="0%" x2="55.252%" y2="81.647%" id="h"><stop stop-color="#FFE579" offset="0%"/><stop stop-color="#FEC644" offset="100%"/></linearGradient><linearGradient x1="61.039%" y1="-102.973%" x2="50%" y2="100%" id="i"><stop stop-color="#FFEDBF" offset="0%"/><stop stop-color="#FEC644" offset="100%"/></linearGradient><linearGradient x1="50%" y1="-10.877%" x2="50%" y2="100%" id="j"><stop stop-color="#FFE579" offset="0%"/><stop stop-color="#FEB755" offset="100%"/></linearGradient><linearGradient x1="50%" y1="27.773%" x2="55.228%" y2="103.623%" id="k"><stop stop-color="#1542AB" offset="0%"/><stop stop-color="#2B68EE" offset="100%"/></linearGradient><linearGradient x1="60.731%" y1="0%" x2="52.081%" y2="50%" id="l"><stop stop-color="#3485F7" offset="0%"/><stop stop-color="#1A57CF" offset="100%"/></linearGradient><linearGradient x1="107.254%" y1="-120.462%" x2="38.27%" y2="-120.462%" id="m"><stop stop-color="#FAD0BA" offset="0%"/><stop stop-color="#F2A384" offset="100%"/></linearGradient><linearGradient x1="50%" y1="32.119%" x2="50%" y2="100%" id="n"><stop stop-color="#84F0A8" offset="0%"/><stop stop-color="#48B676" offset="100%"/></linearGradient><linearGradient x1="50%" y1="3.643%" x2="60.668%" y2="53.317%" id="o"><stop stop-color="#46C36F" stop-opacity="0" offset="0%"/><stop stop-color="#4DBB7A" offset="100%"/></linearGradient><linearGradient x1="92.577%" y1="68.312%" x2="-38.154%" y2="23.909%" id="p"><stop stop-color="#092871" offset="0%"/><stop stop-color="#2B68EE" offset="100%"/></linearGradient><linearGradient x1="86.23%" y1="33.351%" x2="92.496%" y2="-19.001%" id="q"><stop stop-color="#F1A385" stop-opacity="0" offset="0%"/><stop stop-color="#F2A384" offset="100%"/></linearGradient><linearGradient x1="100%" y1="50%" x2="0%" y2="50%" id="r"><stop stop-color="#2865C6" offset="0%"/><stop stop-color="#10378A" offset="100%"/></linearGradient><linearGradient x1="50%" y1="32.119%" x2="67.286%" y2="115.978%" id="s"><stop stop-color="#84F0A8" offset="0%"/><stop stop-color="#48B676" offset="100%"/></linearGradient><linearGradient x1="50%" y1="3.643%" x2="60.514%" y2="145.158%" id="t"><stop stop-color="#46C36F" stop-opacity="0" offset="0%"/><stop stop-color="#4DBB7A" offset="100%"/></linearGradient><linearGradient x1="93.673%" y1="39.91%" x2="1.757%" y2="60.401%" id="u"><stop stop-color="#7BE7A1" offset="0%"/><stop stop-color="#84F0A8" offset="100%"/></linearGradient><linearGradient x1="50%" y1="0%" x2="50%" y2="100%" id="v"><stop stop-color="#A0ECC3" offset="0%"/><stop stop-color="#67D490" offset="100%"/></linearGradient></defs><g fill="none"><g transform="translate(188 147)" fill="#E2EBFC"><circle opacity=".3" cx="815.856" cy="247.479" r="247"/><circle opacity=".2" cx="247.759" cy="409.349" r="247"/></g><ellipse cx="290.759" cy="14" rx="290.5" ry="14" id="Shadow" transform="translate(392 848)" fill="#E2EBFC" opacity=".34"/><g fill-rule="nonzero"><path d="M247.914 373.681l86.267-86.267c.781-.781 2.047-.781 2.828 0l63.64 63.64c.781.781.781 2.047 0 2.828l-86.267 86.267c-.781.781-2.047.781-2.828 0l-63.64-63.64c-.781-.781-.781-2.047 0-2.828z" id="Video-bas" fill="url(#a)"/><path d="M346.909 386.409c-8.982 8.982-23.545 8.982-32.527 0s-8.982-23.545 0-32.527 23.545-8.982 32.527 0 8.982 23.545 0 32.527z" id="Video-bas" fill="url(#b)"/><path d="M323.918 366.339l11.556-3.564c1.056-.326 2.175.266 2.501 1.322.118.384.118.795 0 1.179l-3.564 11.556c-.326 1.056-1.445 1.647-2.501 1.322-.311-.096-.594-.267-.825-.497l-7.992-7.992c-.781-.781-.781-2.047 0-2.828.23-.23.514-.401.825-.497z" id="Video-bas" fill="#fff"/><path d="M247.914 373.681l86.267-86.267c.781-.781 2.047-.781 2.828 0l7.778 7.778-89.095 89.095-7.778-7.778c-.781-.781-.781-2.047 0-2.828z" id="Video-bas" fill="url(#b)"/><path d="M258.521 375.803c-.781.781-2.047.781-2.828 0-.781-.781-.781-2.047 0-2.828.781-.781 2.047-.781 2.828 0 .781.781.781 2.047 0 2.828zM263.471 370.853c-.781.781-2.047.781-2.828 0-.781-.781-.781-2.047 0-2.828.781-.781 2.047-.781 2.828 0 .781.781.781 2.047 0 2.828z" fill="#fff"/></g><g fill-rule="nonzero"><path d="M291.805 501.586c1.105-1.913 3.551-2.569 5.464-1.464l34.641 20c1.913 1.105 2.569 3.551 1.464 5.464l-9.374 18.414 8.704 4.984c.475.274.817.732.945 1.265.258 1.074-.404 2.154-1.478 2.412l-14.671 4.339-14.626 21.414c-1.105 1.913-3.551 2.569-5.464 1.464l-34.641-20c-1.913-1.105-2.569-3.551-1.464-5.464l30.5-52.828z" id="like-base" fill="url(#c)"/><path d="M291.294 537.087c-2.539-1.466-3.253-4.98-1.597-7.85 1.657-2.87 4.901-4.099 9.129-1.658 2.819 1.627 5.415 7.745 7.79 18.354-10.375 3.248-16.971 4.058-19.79 2.431-4.228-2.441-4.786-5.865-3.129-8.735 1.657-2.87 5.058-4.008 7.597-2.542z" fill="#fff"/></g><g id="Papper" fill-rule="nonzero"><path d="M389.148 683.958c9.076-7.699 16.943-13.966 23.601-18.803 9.987-7.255 22.953-7.955 29.434-6.193 7.303 5.454 26.398 20.31 34.272 27.974-4.643.901-8.767.901-14.924 2.504-22.131 5.761-29.948 25.179-32.904 26.405-5.514 2.288-3.181 1.236-6.509 1.673-2.219.292-13.209-10.895-32.969-33.56z" id="Papper-base" fill="url(#d)"/><path d="M390.439 676.709c-8.358 8.854-10.022 15.028-4.992 18.523 5.412 3.76 22.122 14.886 29.822 19.615 4.976 3.056 9.568 3.161 13.775.316-5.489 2.289-9.033 1.32-10.632-2.907-1.599-4.227.604-8.523 6.61-12.89l-34.583-22.657z" id="Papper-base" fill="url(#e)"/></g><path d="M824.083 756.832c-9.325-8.024-16.812-14.088-22.46-18.192-9.987-7.255-22.953-7.955-29.434-6.193-7.303 5.454-26.398 20.31-34.272 27.974 4.643.901 8.767.901 14.924 2.504 22.131 5.761 29.948 25.179 32.904 26.405 5.514 2.288 3.181 1.236 6.509 1.673 2.045.269 12.676-8.109 31.893-25.132 2.48-2.197 2.71-5.989.513-8.47-.18-.203-.373-.393-.578-.57z" id="Papper-base" fill="url(#a)" fill-rule="nonzero"/><g fill-rule="nonzero"><path d="M1055.324 689.782l-83.501-58.097c-22.146 49.245-54.868 84.262-98.166 105.048l71.449 67.266c55.901-20.733 92.64-58.806 110.218-114.218z" id="File-base" fill="url(#f)"/><path fill="#C5D7F3" style="mix-blend-mode:multiply" opacity=".517" d="M914.26 732l-6.512 4.383 53.109 43.881 7.949-4.251zM969.833 660.74l62.655 39.625-4.248 6.758-62.371-39.529zM960.433 676.978l62.655 39.625-4.248 6.758-62.371-39.529zM981.153 715.007l31.489 19.446-4.248 6.758-31.205-19.35zM951.687 690.511l20.352 15.381c-.536 1.299-1.234 2.777-2.094 4.434-3.931 7.574-9.478 14.182-16.244 19.351-2.755 2.105-5.072 3.939-6.95 5.503l-20.937-16.454c1.02-.609 2.152-1.303 3.397-2.082 8.724-5.463 15.838-13.169 20.607-22.323.716-1.375 1.339-2.645 1.868-3.809zM969.496 729.029l28.201 22.492c-3.247 4.872-6.876 8.99-10.886 12.352-4.01 3.363-8.236 5.831-12.677 7.406l-28.606-22.059c6.029-3.581 10.788-6.856 14.277-9.825 3.489-2.969 6.72-6.424 9.692-10.365z"/></g><g fill-rule="nonzero"><path d="M539.861 703c0-18.333 3.121-33.283 9.362-44.85 23.425 31.233 48.204 45.371 74.336 42.414.804 23.387-17.368 98.413 65.747 111.972-16.252 0-30.821-3.149-43.709-9.446-41.14-17.459-68.714-33.339-82.723-47.639-14.009-14.301-21.68-31.784-23.013-52.451z" id="Papper-base" fill="url(#f)"/><path d="M539.5 700.603c3.907 40.931 26.214 52.362 66.92 34.292 14.071 44.809 43.565 70.619 88.481 77.43-46.476-.76-83.38-10.965-110.713-30.615-27.332-19.65-42.228-46.686-44.688-81.108z" fill="url(#e)"/></g><g transform="translate(1013 352)"><path d="M47.569 121.538c-1.712-14.213-8.193-26.957-17.797-36.586-3.367-3.978-7.902-7.463-13.701-10.4-4.91-2.756-10.23-4.869-15.846-6.223.191-6.391 4.603-37.087 9.178-67.987 83.799 11.832 67.189 90.677 60.903 102.715-2.819 5.399-10.398 11.559-22.737 18.482z" id="Window-base" fill="url(#a)" fill-rule="nonzero"/><path d="M9.323.225c38.736 5.209 68.177 31.177 68.177 62.427 0 12.75-4.901 24.621-13.335 34.562 4.177-7.585 6.487-15.924 6.487-24.677 0-29.809-26.787-54.811-62.878-61.575l1.548-10.736z" id="Window-base" fill="url(#g)"/><circle id="Window-base" fill="url(#b)" fill-rule="nonzero" cx="16.36" cy="7.5" r="2.5"/><circle id="Window-base" fill="url(#b)" fill-rule="nonzero" cx="24.961" cy="9.945" r="2.5"/><path d="M9.661 125.034c31.397-4.326 56.631-22.298 64.931-45.641.623-.726.959-1.121.975-1.109 0 67.508-21.968 105.929-65.905 115.264v-68.514z" fill="url(#b)" fill-rule="nonzero"/></g><g fill-rule="nonzero"><path d="M511.303 265.651l68.389 55.38c1.288 1.043 1.486 2.932.443 4.219l-39.147 48.343c-1.043 1.288-2.932 1.486-4.219.443l-68.389-55.38c-1.288-1.043-1.486-2.932-.443-4.219l39.147-48.343c1.043-1.288 2.932-1.486 4.219-.443z" id="message-base" fill="url(#h)"/><path d="M468.947 318.463c-.218-.176-.352-.436-.369-.716-.034-.551.386-1.025.937-1.059l57.766-3.522c1.542-.094 2.903.998 3.145 2.524l9.164 57.736c.044.28-.032.566-.21.786-.348.429-.977.495-1.406.148l-69.027-55.897z" id="message-base" fill="url(#i)"/><path d="M510.873 265.302l69.262 56.087c.429.348.495.977.148 1.406-.168.207-.412.339-.677.366l-60.162 6.043c-1.632.164-3.094-1.014-3.28-2.644l-6.913-60.368c-.063-.549.331-1.044.88-1.107.267-.031.534.047.743.216z" fill="url(#j)"/></g><g fill-rule="nonzero"><path d="M732.742 363.13l-.008-.007c-.861-.692-.997-1.951-.305-2.812l13.01-16.172c.65-.808 1.811-.985 2.673-.407l4.627 3.104c.766.514 1.784.437 2.465-.186l55.353-50.673.032-.028c.83-.728 2.094-.646 2.822.184l41.572 47.387c.698.795.655 1.996-.096 2.74l-62.624 61.988c-.72.713-1.86.774-2.652.143l-56.868-45.264z" id="Folder-base" fill="url(#b)"/><path d="M789.317 408.261l-35.149-43.339c-.651-.802-.583-1.968.156-2.69l72.777-71.099c.79-.772 2.056-.757 2.828.033.148.151.271.325.364.515l25.769 52.402c.381.775.222 1.708-.396 2.312l-63.397 62.036c-.789.773-2.056.759-2.828-.031l-.124-.139z" id="Folder-base" fill="url(#a)"/><path fill="#A3C1EA" d="M790.835 401.692l-1.941-2.065 18.807-17.93 1.525 2.385z"/></g><g><g fill-rule="nonzero"><path d="M670.522 471.586l27.454-14.672h3.953c.966 0 1.794.691 1.968 1.641l14.215 77.903c.198 1.087-.522 2.128-1.609 2.327l-.279.031-32.92 1.31c-.996.04-1.869-.66-2.047-1.641l-11.758-64.777c-.155-.855.259-1.712 1.025-2.121z" id="Ipad-base" fill="url(#k)"/><path d="M666.623 471.623l30.95-14.514c1-.469 2.191-.038 2.66.962.075.16.128.328.159.502l13.756 78.015c.192 1.088-.535 2.125-1.622 2.317l-.16.022-32.963 3.095c-1.037.097-1.976-.618-2.157-1.644l-11.743-66.597c-.157-.89.302-1.774 1.12-2.158z" id="Ipad-base" fill="url(#l)"/><path d="M669.706 478.599l27.623-12.511c.503-.228 1.096-.005 1.323.498l.074.239 11.311 64.148c.096.544-.267 1.063-.811 1.158l-.076.01-29.322 2.878c-.52.051-.992-.307-1.082-.822l-9.613-54.515c-.079-.45.156-.896.572-1.085z" fill="url(#a)"/></g><g id="Hand" fill-rule="nonzero"><path d="M664.796 558.103l-14.296-1.865c5.932-10.121 9.742-19.304 11.428-27.549 1.803-4.872-.364-5.982 1.375-13.064.972-3.96 2.936-9.069 7.758-10.28.59 4.302 1.16 6.786 1.757 10.28.597 3.494 2.164-4.517 6.096-3.494 3.932 1.023-3.812 8.65-3.812 11.888 0 5.169-1.15 8.603-3.451 10.301l-6.855 23.783z" fill="url(#m)"/><path d="M645.724 556.823c8.386-11.107 12.58-17.365 12.58-18.774 0-2.113 13.804-1.972 13.804 2.707s-5.272 23.717-7.79 25.326c-1.679 1.073-8.409 1.591-20.193 1.556l1.598-10.816z" fill="url(#n)"/></g><g id="Jacket" fill-rule="nonzero"><path d="M658.008 563.029c40.981-.032 66.59-8.128 76.826-24.288 15.355-24.24 9.177-36.092 20.791-40.186 11.614-4.094 27.807 12.948 32.719 21.324 3.275 5.584 11.07 38.398 23.386 98.442l-142.035-18.163-11.688-37.128z" fill="url(#n)"/><path d="M748.134 526.633l1.814 6.771c.429 1.603-.522 3.25-2.124 3.679-1.603.429-3.25-.522-3.679-2.124l-1.814-6.771c-.755.122-1.323.274-1.704.456-.762.365 4.722-12.82 4.722-12.407 0 1.174.41 2.704 1.23 4.592l6.771-1.814c1.603-.429 3.25.522 3.679 2.124.429 1.603-.522 3.25-2.124 3.679l-6.771 1.814z" id="Texture" fill="#6EDB96"/><path d="M652.315 568.741c49.295-2.965 80.722-11.387 94.281-25.266 9.087-9.302 13.806-12.775 13.851-22.99.046-10.215-12.154-13.215-4.764-19.056 11.241-8.885 44.027 24.031 47.204 29.447 3.275 5.584 6.223 44.732 8.844 117.444l-142.035-18.163-17.381-61.416z" fill="url(#o)"/></g><g><path d="M615.87 558.546c-6.811-3.257-12.437-9.032-16.879-17.323-19.143-11.657-29.306-8.898-30.491 8.277 2.267 8.692 13.699 22.066 34.294 40.122l2.206 1.378 22.862-21.35-11.993-11.104z" fill="url(#m)"/><path d="M597.626 516.909c1.103.274 2.227.471 3.374.591 6.076.64 4.789 5.166 1.763 8.607 5.052 12.576 7.01 21.22 5.873 25.932-1.735 7.19-12.643 11.406-34.648 7.999l-21.385-15.432c-4.613 4.525-9.076 3.575-13.389-2.85-6.468-9.637 1.196-13.201 5.618-12.427 5.22-6.798 5.103-14.66-.353-23.585 11.115-.869 19.442-2.791 24.978-5.767 5.537-2.976 9.152-6.922 10.846-11.84 4.628 2.892 7.749 7.83 9.361 14.813l7.961 13.958zM577.099 493.886c1.416-1.741 2.484-3.657 3.205-5.749 4.628 2.892 7.749 7.83 9.361 14.813l7.961 13.958.374.09c-6.667.668-12.667-4.832-18.001-16.498-1.102-2.411-2.069-4.616-2.901-6.614z" id="Path" fill="url(#m)"/><path d="M508.5 548c-30 2.5-33-19.5-21-61.5s24.5-74.5-20-97-103 21.5-60.5 75 28 88 71.5 98.5c29 7 47 2.833 54-12.5-9.742 4.544-17.742 3.71-24-2.5z" id="Hair" fill="url(#p)"/><path d="M507 545.5c-2.667 5.333-1.667 10 3 14s10 4.167 16 .5l-19-14.5z" fill="url(#h)"/><path d="M580.5 488.5c-1.667 11.667-10 19.333-25 23 1.667 9.333.5 15.667-3.5 19l3 8c-4.667-4.667-8.167-7-10.5-7-3.5 0-9.5 4.5-4.5 11 3.333 4.333 7.5 5 12.5 2 8.333 1.667 18.5 7.5 30.5 17.5v7.5c-6.5 3-89.5 3.131-84-50 .811-7.835 2.087-14.965 3.828-21.389 7.824-28.872 37.571-45.934 66.443-38.11 3.398.921 6.698 2.171 9.854 3.732 11.516 5.698 17.844 17.375 10.375 39.267l-1.349-4.048c-1.399-4.196-4.074-7.85-7.651-10.452z" fill="url(#p)"/><path d="M497.497 566.112c-5.698-.393-12.03-1.43-18.997-3.112-43.5-10.5-29-45-71.5-98.5-33.206-41.8-4.756-77.802 30.5-80.817v.317c-20.667 9.667-28.667 22.5-24 38.5 7 24 35.5 20.5 31.5 48.5s18.5 13.5 18.5 43c0 19.381 15.539 43.511 33.997 52.112z" id="Path" fill="url(#p)"/><path d="M560.048 549.978c2.492-5.037 6.976-7.697 13.452-7.978 15.333-.667 25-5.833 29-15.5l.885 1.175c4.59 11.729 6.34 19.85 5.251 24.363-1.735 7.19-12.643 11.406-34.648 7.999l-13.94-10.059z" id="Path" fill="url(#q)"/></g><path d="M604.317 565.566c6.792-1.046 10.187-2.53 10.187-4.453 0-1.923-.409-3.249-1.227-3.977 23.367-1.069 37.447-1.248 42.24-.539 7.189 1.064 15.121 15.762 15.941 15.762.82 0 20.253 16.301 28.079 16.301 5.217 0 14.557 2.893 28.02 8.678l-20.129 18.909-82.866-10.957-20.246-39.725z" fill="url(#l)" fill-rule="nonzero"/><g><path d="M917.05 480.232c-1.219-.824-6.148-10.495 3.212-12.069 9.36-1.574 11.556-1.979 15.164-3.131 2.405-.768 4.156-2.028 5.253-3.781l-1.251 12.771-7.191 5.334c-9.311 1.133-14.373 1.425-15.186.876z" id="leg" fill="url(#m)" fill-rule="nonzero"/><path d="M929.092 480.486c-.009-2.77 6.932-3.153 8.816-7.385 1.884-4.231-2.075-9.148-1.076-9.999 2.92-2.488 5.698-6.748 9.726-11.005 9.908-10.473 11.073-11.397 16.773-6.693 1.446.644-4.113 15.075-16.678 43.295-3.531-.204-6.629-.846-9.292-1.925-3.995-1.619-8.259-3.517-8.269-6.288z" id="Shoes" fill="url(#r)" fill-rule="nonzero"/><path d="M801.14 478.81c14.431-7.251 116.229-19.552 122.889-15.881 3.591 1.98 3.957 8.822 1.098 20.526-.584 2.391-2.381 4.3-4.732 5.027-48.765 15.08-73.936 21.997-75.512 20.751-2.423-1.916-38.635 105.258-50.423 123.682-11.787 18.424-26.444 45.79-51.089 10.984-16.43-23.204-14.487-38.747 5.829-46.628 25.006-74.14 42.32-113.627 51.94-118.461z" id="Pants" fill="url(#k)" fill-rule="nonzero"/><path d="M944.321 420.026c-1.391-.48-8.655-8.546-.022-12.489 8.634-3.943 10.65-4.902 13.837-6.949 2.124-1.364 3.489-3.035 4.096-5.011l2.097 12.66-5.566 7.013c-8.701 3.504-13.514 5.096-14.442 4.776z" fill="url(#m)" fill-rule="nonzero"/><path d="M824.315 461.427c14.506-16.563 115.409-60.492 122.877-59.058 4.064.78 5.677 7.422 4.838 19.924-.151 2.255-1.557 4.233-3.636 5.118-21.99 9.365-50.293 27.193-84.91 53.485-4.312 54.336-8.307 88.559-11.985 102.669-5.517 21.165-25.421 78.7-59.616 53.213-22.797-16.991-27.135-40.895-13.014-71.712 20.626-58.05 35.775-92.596 45.446-103.639z" fill="url(#l)" fill-rule="nonzero"/><path d="M945.5 408.5c-57.667 28.333-93 48.333-106 60-13 11.667-17.5 49.833-13.5 114.5" id="Texture" stroke="#1A57CF" stroke-linecap="round" stroke-linejoin="round" stroke-dasharray="5,10"/><path d="M956.018 417.154c-.726-2.673 5.879-4.84 6.604-9.415.725-4.575-4.372-8.299-3.627-9.38 2.177-3.159 3.757-7.993 6.546-13.148 6.86-12.681 7.746-13.874 14.469-10.806 1.563.248-.071 15.626-4.904 46.136-3.464.717-6.622.899-9.474.546-4.278-.53-8.888-1.26-9.614-3.933z" fill="url(#r)" fill-rule="nonzero"/></g><g transform="translate(391 372) translate(178 119)"><path d="M17.53 77.57c8.006-8.989 13.806-13.483 17.398-13.483 5.388 0 5.388 6.473 9.402 8.301 11.926 5.432 86.545 53.025 133.788 12.63 47.244-40.395 47.063-84.265 56.222-84.265 9.16 0 41.981 45.811 51.66 74.747 5.884 17.591 9.451 36.327 10.702 56.206.231 3.665-1.23 7.234-3.963 9.686-48.192 43.234-98.605 61.936-151.239 56.108-81.281-9-134.268-68.182-140.215-91.832-3.964-15.766 1.451-25.132 16.245-28.098z" fill="url(#s)" fill-rule="nonzero"/><path d="M221.416 186.845c-2.391.929-4.786 1.802-7.187 2.62l-.583-2.174-8.587 2.301c-2.033.545-4.122-.662-4.666-2.694-.545-2.033.662-4.122 2.694-4.666l8.587-2.301-2.301-8.587c-.374-1.396.078-2.82 1.057-3.75 1.241-.287 2.411-.601 3.515-.941 1.312.317 2.414 1.323 2.788 2.719l2.301 8.587 8.587-2.301c2.033-.545 4.122.662 4.666 2.694.545 2.033-.662 4.122-2.694 4.666l-8.587 2.301.409 1.526zm-157.827-34.924c-7.859 0-14.23-6.371-14.23-14.23s6.371-14.23 14.23-14.23 14.23 6.371 14.23 14.23-6.371 14.23-14.23 14.23zm0-8.538c3.143 0 5.692-2.548 5.692-5.692 0-3.143-2.548-5.692-5.692-5.692-3.143 0-5.692 2.548-5.692 5.692s2.548 5.692 5.692 5.692zm90.727-22.197l6.286 6.286c1.488 1.488 1.488 3.9 0 5.388s-3.9 1.488-5.388 0l-6.286-6.286-6.286 6.286c-1.488 1.488-3.9 1.488-5.388 0s-1.488-3.9 0-5.388l6.286-6.286-6.286-6.286c-1.488-1.488-1.488-3.9 0-5.388s3.9-1.488 5.388 0l6.286 6.286 6.286-6.286c1.488-1.488 3.9-1.488 5.388 0s1.488 3.9 0 5.388l-6.286 6.286zm87.095-67.07l6.286 6.286c1.488 1.488 1.488 3.9 0 5.388s-3.9 1.488-5.388 0l-6.286-6.286-6.286 6.286c-1.488 1.488-3.9 1.488-5.388 0s-1.488-3.9 0-5.388l6.286-6.286-6.286-6.286c-1.488-1.488-1.488-3.9 0-5.388s3.9-1.488 5.388 0l6.286 6.286 6.286-6.286c1.488-1.488 3.9-1.488 5.388 0s1.488 3.9 0 5.388l-6.286 6.286zm-115.556 133.578c-8.584 0-15.543-6.959-15.543-15.543s6.959-15.543 15.543-15.543 15.543 6.959 15.543 15.543-6.959 15.543-15.543 15.543zm0-9.326c3.434 0 6.217-2.784 6.217-6.217 0-3.434-2.784-6.217-6.217-6.217-3.434 0-6.217 2.784-6.217 6.217 0 3.434 2.784 6.217 6.217 6.217zm84.441-50.362c-8.584 0-15.543-6.959-15.543-15.543s6.959-15.543 15.543-15.543 15.543 6.959 15.543 15.543-6.959 15.543-15.543 15.543zm0-9.326c3.434 0 6.217-2.784 6.217-6.217 0-3.434-2.784-6.217-6.217-6.217-3.434 0-6.217 2.784-6.217 6.217 0 3.434 2.784 6.217 6.217 6.217z" fill="#7DE9A2" fill-rule="nonzero"/><path d="M117.467 100.111c13.795 1.911 28.016 1.396 41.246-3.592-2.93 12.492-9.771 24.958-20.525 37.398-29.883 34.569-120.75.846-129.39-14.564-8.64-15.41 2.009-39.944 19.391-43.496 6.059-1.238 9.987 28.424 19.311 32.644 17.426 7.888 42.78-6.213 59.255-6.213 3.986 0 7.556-.725 10.712-2.176z" fill="#52C47D" fill-rule="nonzero" opacity=".5"/><path d="M286.02 75.559c5.872 17.574 9.433 36.29 10.683 56.147.231 3.665-1.23 7.234-3.963 9.686-48.192 43.234-98.605 61.936-151.239 56.108-36.113-3.999-66.641-17.903-89.94-34.197.974.388 1.954.787 2.94 1.197 92.5 38.5 58.5 2.5 128 5s38.5-34.5 71.5-43.5c21.725-5.925 32.398-22.739 32.02-50.441z" fill="url(#t)" fill-rule="nonzero"/><path d="M232.5 15.5c-22.333 59.333-54.167 90.667-95.5 94" id="Texture" stroke="#5FCC89"/><path d="M217.512 83.597c-.276-.25-.491-.56-.63-.906-.503-1.259.109-2.687 1.367-3.191l2.561-1.024c.76-.304 1.611-.284 2.356.054l17.024 7.738c2.289 1.04 3.687 3.398 3.501 5.905l-1.528 20.622c-.097 1.311-1.036 2.406-2.317 2.702l-1.337.309-.027.006c-1.618.358-3.219-.664-3.577-2.282-1.41-6.382-3.531-11.965-6.361-16.75-2.702-4.568-6.38-8.963-11.032-13.183z" id="texture" stroke="#5FCC89"/><circle id="texture" fill="#5FCC89" cx="239.658" cy="90.885" r="1.683"/><circle fill="#48C172" cx="34.524" cy="69.521" r="2.5"/><path d="M232.5 15.5c31.667 33.667 49.5 74.833 53.5 123.5" id="Texture" stroke="#48C172" stroke-linecap="round" stroke-linejoin="round" stroke-dasharray="5,10"/></g><g><path d="M707.297 555.837l-1.036-19.118c-3.174-4.943-4.761-9.999-4.761-15.168 0-7.429-8.09-11.322-5.758-13.517.47-.442 2.453-.823 4.964 0 2.29.751 5.107 7.321 7.555 8.438 1.055.482 2.277-3.115 3.036-5.433.571-1.743 1.049-5.327 1.049-6.218 0-.89-1.049-4.902-1.049-5.766 4-1.821 11.76 4.21 12.732 8.17 1.159 4.721-.439 12.463-4.796 23.225l2.36 23.521-14.296 1.865z" fill="url(#m)" fill-rule="nonzero"/><path d="M704.07 544.352c-5.457 32.043-16.615 48.064-33.474 48.064-25.289 0-62.421-29.722-79.804-26.17-17.383 3.552-21.634 18.697-12.994 34.107s99.507 49.133 129.39 14.564c19.922-23.046 26.418-46.182 19.487-69.406-2.908-2.908-6.309-4.461-10.201-4.661-3.892-.199-8.027.968-12.404 3.502z" fill="url(#u)" fill-rule="nonzero"/><path d="M609.297 609.005c-8.584 0-15.543-6.959-15.543-15.543s6.959-15.543 15.543-15.543 15.543 6.959 15.543 15.543-6.959 15.543-15.543 15.543zm0-9.326c3.434 0 6.217-2.784 6.217-6.217 0-3.434-2.784-6.217-6.217-6.217-3.434 0-6.217 2.784-6.217 6.217 0 3.434 2.784 6.217 6.217 6.217z" fill="url(#v)" fill-rule="nonzero" style="mix-blend-mode:overlay" opacity=".396"/><path d="M586.5 584c48.667 25.333 83.333 32 104 20s29-31.667 25-59" stroke="#5FCC89"/></g></g><g><path d="M584.432 363.184l117.843-31.576c1.067-.286 2.164.347 2.449 1.414l23.294 86.933c.286 1.067-.347 2.164-1.414 2.449l-117.843 31.576c-1.067.286-2.164-.347-2.449-1.414l-23.294-86.933c-.286-1.067.347-2.164 1.414-2.449z" id="Char-base" fill="url(#b)" fill-rule="nonzero"/><path id="Char-base" fill="url(#a)" d="M703.708 344.683l19.929 74.376-113.979 30.541-19.929-74.376z"/><path d="M592.557 370.324c-1.067.286-2.164-.347-2.449-1.414-.286-1.067.347-2.164 1.414-2.449 1.067-.286 2.164.347 2.449 1.414.286 1.067-.347 2.164-1.414 2.449zM599.318 368.512c-1.067.286-2.164-.347-2.449-1.414-.286-1.067.347-2.164 1.414-2.449 1.067-.286 2.164.347 2.449 1.414.286 1.067-.347 2.164-1.414 2.449z" id="Char-base" fill="#F2F5FF" fill-rule="nonzero"/><path fill="url(#b)" fill-rule="nonzero" d="M618.868 433.508l-4.273-2.597 16.391-26.965 19.333 3.47 14.123-28.751 17.09 5.529 13.507-24.684 4.386 2.4-15.493 28.316-16.91-5.471-13.877 28.249-19.667-3.53z"/></g></g></svg>