<svg xmlns="http://www.w3.org/2000/svg" width="1096" height="574.74" xmlns:xlink="http://www.w3.org/1999/xlink"><defs><linearGradient id="a" x1="819.07" x2="819.07" y1="732.58" y2="560.46" gradientUnits="userSpaceOnUse"><stop offset="0" stop-color="#808080" stop-opacity=".25"/><stop offset=".54" stop-color="#808080" stop-opacity=".12"/><stop offset="1" stop-color="#808080" stop-opacity=".1"/></linearGradient><pattern id="b" width="36.88" height="49.48" patternUnits="userSpaceOnUse"><path d="M0 0h36.88v49.48h-36.88z" fill="none"/><path d="M4.33 13.2c4.5 0 4.5-7 0-7s-4.52 7 0 7zm.17 3.96c4.52 0 4.53-7 0-7s-4.5 7 0 7zm0 3.78c4.52 0 4.53-7 0-7s-4.5 7 0 7zm-1.12 3.78c4.5 0 4.5-7 0-7s-4.5 7 0 7zm-2.28 3.58l.2.37a3.52 3.52 0 0 0 4.77 1.25 3.58 3.58 0 0 0 1.26-4.8l-.2-.36a3.52 3.52 0 0 0-4.78-1.26 3.6 3.6 0 0 0-1.26 4.8zm.4 1.8l.17.57a3.73 3.73 0 0 0 1.6 2.1 3.6 3.6 0 0 0 2.7.34 3.54 3.54 0 0 0 2.45-4.3l-.18-.56a3.68 3.68 0 0 0-1.6-2.1 3.6 3.6 0 0 0-2.7-.35 3.56 3.56 0 0 0-2.45 4.3zm.08 3.78v.38a3.54 3.54 0 0 0 3.5 3.5 3.56 3.56 0 0 0 3.5-3.5v-.38a3.54 3.54 0 0 0-3.5-3.5 3.57 3.57 0 0 0-3.5 3.5zm3.32 8.42c4.5 0 4.5-7 0-7s-4.52 7 0 7zm-3.13-.3v.2a3.54 3.54 0 0 0 3.5 3.5 3.56 3.56 0 0 0 3.5-3.5v-.2a3.54 3.54 0 0 0-3.5-3.5 3.56 3.56 0 0 0-3.5 3.5zm4.23 7.3c4.5 0 4.5-7 0-7s-4.52 7 0 7zm4-35.16c4.5 0 4.5-7 0-7s-4.52 7 0 7zm-3.4 6.8c4.5 0 4.5-7 0-7s-4.52 7 0 7zm1.88 6.06c4.5 0 4.5-7 0-7s-4.5 7 0 7zm0 2.26c4.5 0 4.5-7 0-7s-4.5 7 0 7zm6.42 4.54c4.5 0 4.52-7 0-7s-4.5 7 0 7zm-5.1 4.72c4.5 0 4.52-7 0-7s-4.5 7 0 7zm.76 6.61c4.5 0 4.5-7 0-7s-4.5 7 0 7zm0 4.35c4.5 0 4.5-7 0-7s-4.5 7 0 7zm2.27-31.36c2.57 0 2.58-4 0-4s-2.58 4 0 4zm.17 2.28c2.57 0 2.58-4 0-4s-2.58 4 0 4zm.1.6v.2a2 2 0 0 0 4 0v-.2a2 2 0 0 0-4 0zm2 4.87c2.57 0 2.58-4 0-4s-2.58 4 0 4zm1.5-14.8a1 1 0 0 0 0-2 1 1 0 0 0 0 2zm5.1 5.48a1 1 0 0 0 0-2 1 1 0 0 0 0 2zm-4.85-7.61v-.38a1 1 0 0 0-2 0v.38a1 1 0 0 0 2 0zm-.37-4.16v-.2a1 1 0 0 0-2 0v.2a1 1 0 0 0 2 0zm-1-2.78a1 1 0 0 0 0-2 1 1 0 0 0 0 2zm-4.92 0a1 1 0 0 0 0-2 1 1 0 0 0 0 2zm-.19 2.65a1 1 0 0 0 0-2 1 1 0 0 0 0 2zm-3.02 1.51a1 1 0 0 0 0-2 1 1 0 0 0 0 2zm4.53.94h.38a1 1 0 0 0 0-2h-.38a1 1 0 0 0 0 2zm1.4 3.9l.57 1.32a1 1 0 0 0 1.37.36 1 1 0 0 0 .36-1.37l-.58-1.31a1 1 0 0 0-1.37-.36 1 1 0 0 0-.35 1.36zm5.16 8.33v.2a1 1 0 0 0 2 0v-.2a1 1 0 0 0-2 0zm2.24 5.6l.2.38c.56 1.16 2.3.15 1.7-1l-.18-.37c-.57-1.15-2.3-.14-1.72 1zm1.45 4.45a2.48 2.48 0 0 0-.84 1.86 1 1 0 0 0 2 0 .56.56 0 0 1 .24-.44 1 1 0 0 0 0-1.42 1 1 0 0 0-1.4 0zm-1.81 4.02l-.54 1.72c-.38 1.23 1.55 1.76 1.93.53l.55-1.7c.38-1.24-1.55-1.77-1.93-.54zm-.88 3.6h-.2a1 1 0 0 0 0 2h.2a1 1 0 0 0 0-2zm-1.8 4.5l-.2.38c-.57 1.15 1.16 2.16 1.73 1l.2-.38c.57-1.15-1.16-2.16-1.73-1zm-1.84 6.37v.56a1 1 0 0 0 2 0v-.56a1 1 0 0 0-2 0zm-1.46 1.56a1 1 0 0 0 0-2 1 1 0 0 0 0 2zm0-8.13a1 1 0 0 0 0-2 1 1 0 0 0 0 2zm2.79-4.83a2 2 0 0 0 1-1.64 1 1 0 0 0-2 0c0-.13.2-.2 0-.08-1.15.58-.14 2.3 1 1.72zm.24-5.17a1 1 0 0 0 0-2 1 1 0 0 0 0 2zm.75-2.84a1 1 0 0 0 0-2 1 1 0 0 0 0 2zm.88-3.52l.2-.38c.57-1.15-1.16-2.16-1.73-1l-.2.38c-.57 1.15 1.16 2.16 1.73 1zm-1.07-8.94a1 1 0 0 0 0-2 1 1 0 0 0 0 2zm6.71.05l.57.94a1 1 0 0 0 1.73-1l-.56-1a1 1 0 0 0-1.73 1zm10.24 13.67v.2a1 1 0 0 0 2 0v-.2a1 1 0 0 0-2 0zm-10.88 9.51a1 1 0 0 0 0-2 1 1 0 0 0 0 2zm-1.15-10.23a1 1 0 0 0 0-2 1 1 0 0 0 0 2zm-4.61-7.1l.57-.56c.94-.9-.47-2.3-1.4-1.4l-.58.55c-.93.88.5 2.3 1.42 1.4z"/></pattern><linearGradient id="c" x1="462.91" x2="462.91" y1="660.68" y2="559.69" xlink:href="#a"/></defs><title>contact us</title><g opacity=".1"><ellipse cx="479.42" cy="362.12" fill="#3f3d56" rx="11.38" ry="14.9"/><path fill="#3f3d56" d="M488.43 298.37a18 18 0 0 0 2.38-9.1c0-8.24-5.1-14.9-11.38-14.9s-11.43 6.67-11.43 14.89a18 18 0 0 0 2.38 9.12 18.6 18.6 0 0 0 0 18.2 18.6 18.6 0 0 0 0 18.2 17.94 17.94 0 0 0-2.38 9.12c0 8.22 5.1 14.9 11.38 14.9s11.4-6.68 11.4-14.9a17.94 17.94 0 0 0-2.4-9.1 18.6 18.6 0 0 0 0-18.22 18.6 18.6 0 0 0 0-18.2z"/><ellipse cx="479.42" cy="271.07" fill="#3f3d56" rx="11.38" ry="14.9"/><ellipse cx="479.42" cy="252.86" fill="#3f3d56" rx="11.38" ry="14.9"/><path fill="#6c63ff" d="M436.82 128.23a53.08 53.08 0 0 1-4.24-6.24l29.9-4.92-32.34.24a54.62 54.62 0 0 1-1-43.2l43.4 22.5-40-29.4a54.53 54.53 0 1 1 90 61 54.54 54.54 0 0 1 6.2 9.93l-38.82 20.22 41.4-13.9a54.53 54.53 0 0 1-8.8 51.2 54.52 54.52 0 1 1-85.7 0 54.52 54.52 0 0 1 0-67.4z"/><path d="M534.2 161.94a54.27 54.27 0 0 1-11.68 33.7 54.52 54.52 0 1 1-85.7 0c-7.3-9.27 97.37-39.82 97.37-33.7z" opacity=".1"/></g><g opacity=".1"><ellipse cx="612.28" cy="330.26" fill="#3f3d56" rx="8.51" ry="11.13"/><path fill="#3f3d56" d="M619 282.63a13.43 13.43 0 0 0 1.77-6.8c0-6.15-3.8-11.14-8.5-11.14s-8.5 5-8.5 11.13a13.33 13.33 0 0 0 1.77 6.8 13.9 13.9 0 0 0 0 13.6 13.9 13.9 0 0 0 0 13.62 13.33 13.33 0 0 0-1.78 6.8c0 6.15 3.8 11.14 8.5 11.14s8.5-5 8.5-11.15a13.43 13.43 0 0 0-1.76-6.8 14 14 0 0 0 0-13.6 14 14 0 0 0 0-13.62z"/><ellipse cx="612.28" cy="262.22" fill="#3f3d56" rx="8.51" ry="11.13"/><ellipse cx="612.28" cy="248.61" fill="#3f3d56" rx="8.51" ry="11.13"/><path fill="#6c63ff" d="M580.44 155.48a39 39 0 0 1-3.17-4.66l22.35-3.67-24.17.18a40.84 40.84 0 0 1-.78-32.3l32.43 16.84-29.9-22a40.75 40.75 0 1 1 67.28 45.6 41.2 41.2 0 0 1 4.65 7.43l-29 15.07 30.93-10.38a40.76 40.76 0 0 1-6.57 38.25 40.74 40.74 0 1 1-64 0 40.74 40.74 0 0 1 0-50.38z"/><path d="M653.2 180.67a40.57 40.57 0 0 1-8.72 25.2 40.74 40.74 0 1 1-64 0c-5.48-6.94 72.72-29.77 72.72-25.2z" opacity=".1"/></g><g opacity=".1"><ellipse cx="1038.58" cy="322.12" fill="#3f3d56" rx="11.38" ry="14.9"/><path fill="#3f3d56" d="M1029.57 258.37a18 18 0 0 1-2.38-9.1c0-8.24 5.1-14.9 11.38-14.9s11.38 6.66 11.38 14.9a18 18 0 0 1-2.38 9.1 18.6 18.6 0 0 1 0 18.2 18.6 18.6 0 0 1 0 18.22 17.94 17.94 0 0 1 2.38 9.1c0 8.22-5.1 14.9-11.38 14.9s-11.4-6.68-11.4-14.9a17.94 17.94 0 0 1 2.4-9.1 18.6 18.6 0 0 1 0-18.22 18.6 18.6 0 0 1 0-18.2z"/><ellipse cx="1038.58" cy="231.07" fill="#3f3d56" rx="11.38" ry="14.9"/><ellipse cx="1038.58" cy="212.86" fill="#3f3d56" rx="11.38" ry="14.9"/><path fill="#6c63ff" d="M1081.18 88.23a53.08 53.08 0 0 0 4.24-6.24l-29.9-4.92 32.34.24a54.62 54.62 0 0 0 1-43.2l-43.4 22.5 40-29.4a54.53 54.53 0 1 0-90 61 54.54 54.54 0 0 0-6.2 9.93l38.82 20.22-41.4-13.9a54.53 54.53 0 0 0 8.8 51.2 54.52 54.52 0 1 0 85.7 0 54.52 54.52 0 0 0 0-67.4z"/><path d="M983.8 121.94a54.27 54.27 0 0 0 11.68 33.7 54.52 54.52 0 1 0 85.7 0c7.3-9.27-97.37-39.82-97.37-33.7z" opacity=".1"/></g><g opacity=".1"><ellipse cx="928.72" cy="324.26" fill="#3f3d56" rx="8.51" ry="11.13"/><path fill="#3f3d56" d="M922 276.63a13.43 13.43 0 0 1-1.77-6.8c0-6.15 3.8-11.14 8.5-11.14s8.5 5 8.5 11.13a13.33 13.33 0 0 1-1.77 6.8 13.9 13.9 0 0 1 0 13.6 13.9 13.9 0 0 1 0 13.62 13.33 13.33 0 0 1 1.78 6.8c0 6.15-3.8 11.14-8.5 11.14s-8.5-5-8.5-11.15a13.43 13.43 0 0 1 1.76-6.8 14 14 0 0 1 0-13.6 14 14 0 0 1 0-13.62z"/><ellipse cx="928.72" cy="256.22" fill="#3f3d56" rx="8.51" ry="11.13"/><ellipse cx="928.72" cy="242.61" fill="#3f3d56" rx="8.51" ry="11.13"/><path fill="#6c63ff" d="M960.56 149.48a39 39 0 0 0 3.17-4.66l-22.35-3.67 24.17.18a40.84 40.84 0 0 0 .78-32.3l-32.43 16.84 29.9-22a40.75 40.75 0 1 0-67.28 45.6 41.2 41.2 0 0 0-4.65 7.43l29 15.07-30.87-10.37a40.76 40.76 0 0 0 6.57 38.26 40.74 40.74 0 1 0 64 0 40.74 40.74 0 0 0 0-50.38z"/><path d="M887.8 174.67a40.57 40.57 0 0 0 8.72 25.2 40.74 40.74 0 1 0 64 0c5.48-6.94-72.72-29.77-72.72-25.2z" opacity=".1"/></g><g opacity=".1"><ellipse cx="61.59" cy="322.12" fill="#3f3d56" rx="11.38" ry="14.9"/><path fill="#3f3d56" d="M70.6 258.37a18 18 0 0 0 2.37-9.1c0-8.24-5.1-14.9-11.38-14.9s-11.4 6.66-11.4 14.9a18 18 0 0 0 2.38 9.1 18.67 18.67 0 0 0 0 18.2 18.67 18.67 0 0 0 0 18.22 17.93 17.93 0 0 0-2.37 9.1c0 8.22 5.1 14.9 11.4 14.9s11.4-6.65 11.4-14.87a17.94 17.94 0 0 0-2.38-9.1 18.6 18.6 0 0 0 0-18.22 18.6 18.6 0 0 0 0-18.2z"/><ellipse cx="61.59" cy="231.07" fill="#3f3d56" rx="11.38" ry="14.9"/><ellipse cx="61.59" cy="212.86" fill="#3f3d56" rx="11.38" ry="14.9"/><path fill="#6c63ff" d="M19 88.23a54.33 54.33 0 0 1-4.24-6.23l29.9-4.92-32.36.3a54.62 54.62 0 0 1-1-43.2l43.4 22.5-40-29.42a54.52 54.52 0 1 1 90 61 54.54 54.54 0 0 1 6.22 9.94l-38.84 20.17 41.4-13.9a54.6 54.6 0 0 1-8.8 51.2 54.52 54.52 0 1 1-85.7 0 54.52 54.52 0 0 1 0-67.4z"/><path d="M116.35 121.94a54.27 54.27 0 0 1-11.67 33.7 54.52 54.52 0 1 1-85.7 0c-7.3-9.27 97.37-39.82 97.37-33.7z" opacity=".1"/></g><g opacity=".1"><ellipse cx="171.44" cy="324.26" fill="#3f3d56" rx="8.51" ry="11.13"/><path fill="#3f3d56" d="M178.17 276.63a13.43 13.43 0 0 0 1.77-6.8c0-6.15-3.8-11.14-8.5-11.14s-8.5 5-8.5 11.13a13.43 13.43 0 0 0 1.77 6.8 13.9 13.9 0 0 0 0 13.6 13.9 13.9 0 0 0 0 13.62 13.43 13.43 0 0 0-1.77 6.8c0 6.15 3.8 11.14 8.5 11.14s8.5-5 8.5-11.15a13.43 13.43 0 0 0-1.76-6.8 14 14 0 0 0 0-13.6 14 14 0 0 0 0-13.62z"/><ellipse cx="171.44" cy="256.22" fill="#3f3d56" rx="8.51" ry="11.13"/><ellipse cx="171.44" cy="242.61" fill="#3f3d56" rx="8.51" ry="11.13"/><path fill="#6c63ff" d="M139.6 149.48a40.2 40.2 0 0 1-3.17-4.66l22.35-3.67-24.17.18a40.84 40.84 0 0 1-.77-32.3l32.43 16.84-29.9-22a40.75 40.75 0 1 1 67.28 45.6 40.12 40.12 0 0 1 4.65 7.43l-29 15.07 30.92-10.38a40.76 40.76 0 0 1-6.57 38.25 40.74 40.74 0 1 1-64 0 40.74 40.74 0 0 1 0-50.38z"/><path d="M212.36 174.67a40.57 40.57 0 0 1-8.72 25.2 40.74 40.74 0 1 1-64 0c-5.5-6.94 72.72-29.77 72.72-25.2z" opacity=".1"/></g><ellipse cx="548" cy="493.13" fill="#6c63ff" rx="548" ry="8.86" opacity=".1"/><ellipse cx="548" cy="565.88" fill="#6c63ff" rx="548" ry="8.86" opacity=".1"/><ellipse cx="548" cy="341.3" fill="#6c63ff" rx="548" ry="8.86" opacity=".1"/><ellipse cx="548" cy="417.21" fill="#6c63ff" rx="548" ry="8.86" opacity=".1"/><path fill="#6c63ff" d="M808.8 110.37a18.3 18.3 0 0 0-10.6 1.16 15.65 15.65 0 0 1-12.75 0 17.88 17.88 0 0 0-15 .3 9.24 9.24 0 0 1-4.3 1.07c-6.1 0-11.14-6.12-12.2-14.2a11.88 11.88 0 0 0 3-3.26c3.57-5.74 9.08-9.43 15.28-9.43s11.64 3.65 15.2 9.33a11.68 11.68 0 0 0 10.1 5.54h.15c4.9-.05 9.08 3.83 11.1 9.5zm18.5-25.35l-9.82 6.22 6-10.84a9.7 9.7 0 0 0-5.94-2.1h-.16a11.35 11.35 0 0 1-2-.16l-3.38 2.1 1.43-2.6a11.8 11.8 0 0 1-5.83-4.4l-6 3.77 3.76-6.83c-3.48-4.18-8.18-6.74-13.34-6.74-6.2 0-11.7 3.68-15.28 9.42a11.4 11.4 0 0 1-10.1 5.44h-.32c-6.84 0-12.38 7.74-12.38 17.3s5.54 17.32 12.38 17.32a9.4 9.4 0 0 0 4.3-1.08 17.86 17.86 0 0 1 15-.3 15.55 15.55 0 0 0 12.75 0 17.92 17.92 0 0 1 14.86.3 9.3 9.3 0 0 0 4.26 1.05c6.83 0 12.37-7.77 12.37-17.33a21.93 21.93 0 0 0-2.57-10.55zm-436.04 19.94a12.84 12.84 0 0 0-7.43.8 10.92 10.92 0 0 1-8.9 0 12.48 12.48 0 0 0-10.5.22 6.62 6.62 0 0 1-3 .75c-4.25 0-7.8-4.28-8.53-9.93a8.32 8.32 0 0 0 2.13-2.3c2.5-4 6.35-6.6 10.7-6.6s8.14 2.56 10.63 6.53a8.2 8.2 0 0 0 7.07 3.88h.1c3.37 0 6.3 2.7 7.73 6.66zm12.94-17.73l-6.86 4.36 4.17-7.6a6.75 6.75 0 0 0-4.14-1.48h-.12a7.5 7.5 0 0 1-1.42-.1l-2.33 1.47 1-1.83a8.3 8.3 0 0 1-4.1-3.1l-4.16 2.65 2.64-4.78a12.2 12.2 0 0 0-9.34-4.73c-4.34 0-8.2 2.6-10.7 6.6a8 8 0 0 1-7.06 3.82h-.23c-4.8 0-8.67 5.42-8.67 12.12s3.88 12.12 8.67 12.12a6.5 6.5 0 0 0 3-.76 12.5 12.5 0 0 1 10.48-.2 11.1 11.1 0 0 0 4.5 1 11 11 0 0 0 4.42-.94 12.54 12.54 0 0 1 10.4.2 6.48 6.48 0 0 0 3 .74c4.78 0 8.66-5.43 8.66-12.12a15.33 15.33 0 0 0-1.8-7.45zm-134.6 96.14a12.82 12.82 0 0 1 7.4.8 10.94 10.94 0 0 0 8.93 0 12.52 12.52 0 0 1 10.5.2 6.47 6.47 0 0 0 3 .77c4.24 0 7.78-4.3 8.5-9.94a8.15 8.15 0 0 1-2.1-2.3c-2.5-4-6.37-6.58-10.7-6.58s-8.15 2.54-10.65 6.52a8.2 8.2 0 0 1-7.06 3.88h-.1c-3.38.02-6.32 2.73-7.73 6.65zm-12.97-17.7l6.88 4.36-4.17-7.58a6.8 6.8 0 0 1 4.16-1.5h.1a8.52 8.52 0 0 0 1.43-.1l2.33 1.48-1-1.8a8.3 8.3 0 0 0 4.07-3.1l4.17 2.64-2.6-4.8a12.2 12.2 0 0 1 9.34-4.7c4.33 0 8.2 2.57 10.7 6.6a8 8 0 0 0 7.05 3.8h.23c4.78 0 8.66 5.43 8.66 12.12s-3.9 12.1-8.67 12.1a6.5 6.5 0 0 1-3-.74 12.48 12.48 0 0 0-10.5-.2 10.86 10.86 0 0 1-4.47 1 11 11 0 0 1-4.44-.95 12.52 12.52 0 0 0-10.4.2 6.48 6.48 0 0 1-3 .75c-4.78 0-8.66-5.42-8.66-12.12a15.44 15.44 0 0 1 1.77-7.46z" opacity=".1"/><path stroke="#3f3d56" stroke-width="4" stroke-miterlimit="10" d="M664.3 490.26c2.62-4.84-.34-10.76-3.74-15.07s-7.56-8.8-7.47-14.3c.12-7.9 8.5-12.56 15.2-16.74a74.3 74.3 0 0 0 13.64-11 20.13 20.13 0 0 0 4.2-5.62c1.38-3.08 1.34-6.6 1.25-10q-.44-16.9-1.68-33.76" fill="none"/><path fill="#6c63ff" d="M698.45 383.22a12.3 12.3 0 0 0-6.15-10.1l-2.76 5.46.1-6.6a12.3 12.3 0 1 0 8.8 11.24zm-21.95 83.32a12.3 12.3 0 0 1-23.25-5 12 12 0 0 1 .8-5 12.32 12.32 0 0 1 23 .13l-7.7 6.26 8.47-2a12.24 12.24 0 0 1-1.33 5.6zm-6.1-23.9a12.3 12.3 0 0 1-3.9-24.15l-.06 5.06 2.8-5.52a12.3 12.3 0 1 1 1.14 24.6zm29.9-19.89a12.3 12.3 0 1 1 5.44-23l-2.17 6 4.43-4.38a12.3 12.3 0 0 1-7.74 21.37z"/><path d="M696.8 386.5c-2.85.3-5.6 1.2-8.47 1.37s-6-.5-7.78-2.72a39.48 39.48 0 0 1-2.28-4 8.76 8.76 0 0 0-3.1-2.92 12.3 12.3 0 1 0 23 8.18c-.45.02-.92.05-1.38.1zm3.5 36.25a12.3 12.3 0 0 1-11.7-17.56 9.1 9.1 0 0 1 2.46 2.47 41.72 41.72 0 0 0 2.44 4.07c1.92 2.25 5.2 3 8.17 2.85s5.84-1 8.8-1.26c.4 0 .82-.06 1.24-.07a12.3 12.3 0 0 1-11.4 9.48zm-29.9 19.89a12.3 12.3 0 0 1-11.8-17.33 10 10 0 0 1 2.6 2.5 41.23 41.23 0 0 0 2.68 4.16c2.07 2.3 5.57 3.13 8.7 3s6-.8 9-1a12.33 12.33 0 0 1-11.17 8.68zm6.1 23.9a12.3 12.3 0 0 1-23.25-5 12 12 0 0 1 .8-5 12.3 12.3 0 0 1 2.7 2.4c1.17 1.43 1.94 3 3.3 4.38 2.5 2.47 6.58 3.5 10.2 3.58a51.7 51.7 0 0 0 6.24-.36z" opacity=".1"/><path stroke="#3f3d56" stroke-width="4" stroke-miterlimit="10" d="M54.3 418.26c2.62-4.84-.34-10.76-3.74-15.07s-7.56-8.83-7.47-14.3c.12-7.9 8.5-12.56 15.2-16.74a74.3 74.3 0 0 0 13.64-11 20.13 20.13 0 0 0 4.2-5.62c1.38-3.08 1.34-6.6 1.25-10q-.45-16.9-1.68-33.76" fill="none"/><path fill="#6c63ff" d="M88.45 311.22a12.3 12.3 0 0 0-6.15-10.1l-2.76 5.46.1-6.6a12.3 12.3 0 1 0 8.8 11.24zm-21.95 83.32a12.3 12.3 0 0 1-23.25-5 12 12 0 0 1 .8-5 12.32 12.32 0 0 1 23 .13l-7.7 6.26 8.47-2a12.24 12.24 0 0 1-1.33 5.6zm-6.1-23.9a12.3 12.3 0 0 1-3.9-24.15l-.06 5.06 2.8-5.52a12.3 12.3 0 1 1 1.14 24.6zm29.9-19.89a12.3 12.3 0 1 1 5.44-23l-2.17 6 4.43-4.38a12.3 12.3 0 0 1-7.74 21.37z"/><path d="M86.8 314.5c-2.85.3-5.6 1.2-8.47 1.37s-6-.5-7.78-2.72a39.48 39.48 0 0 1-2.28-4 8.76 8.76 0 0 0-3.1-2.92 12.3 12.3 0 1 0 23 8.18c-.45.02-.92.05-1.38.1zm3.5 36.25a12.3 12.3 0 0 1-11.7-17.56 9.1 9.1 0 0 1 2.46 2.47 41.72 41.72 0 0 0 2.44 4.07c1.92 2.25 5.2 3 8.17 2.85s5.84-1 8.8-1.26c.4 0 .82-.06 1.24-.07a12.3 12.3 0 0 1-11.4 9.48zm-29.9 19.89a12.3 12.3 0 0 1-11.8-17.33 10 10 0 0 1 2.6 2.5 41.23 41.23 0 0 0 2.68 4.16c2.07 2.3 5.57 3.13 8.7 3s6-.8 9-1a12.33 12.33 0 0 1-11.17 8.68zm6.1 23.9a12.3 12.3 0 0 1-23.25-5 12 12 0 0 1 .8-5 12.3 12.3 0 0 1 2.7 2.4c1.17 1.43 1.94 3 3.3 4.38 2.5 2.47 6.58 3.5 10.2 3.58a51.7 51.7 0 0 0 6.24-.36z" opacity=".1"/><path stroke="#3f3d56" stroke-width="4" stroke-miterlimit="10" d="M460.52 335.9c-2.6-4.84.35-10.76 3.76-15.07s7.55-8.8 7.46-14.3c-.12-7.9-8.5-12.55-15.2-16.73a74 74 0 0 1-13.64-11 19.78 19.78 0 0 1-4.2-5.6c-1.38-3.1-1.34-6.6-1.26-10q.45-16.9 1.67-33.77" fill="none"/><path fill="#6c63ff" d="M426.4 228.86a12.3 12.3 0 0 1 6.13-10.1l2.76 5.46-.1-6.6a12.62 12.62 0 0 1 4.06-.5 12.3 12.3 0 1 1-12.87 11.74zm21.94 83.32a12.3 12.3 0 1 0-.6-9.9l7.7 6.25-8.46-2a12.24 12.24 0 0 0 1.36 5.65zm6.08-23.9a12.3 12.3 0 0 0 3.9-24.15l.07 5.07-2.8-5.52a12.3 12.3 0 0 0-12.9 11.7 12.16 12.16 0 0 0 .53 4.2 12.3 12.3 0 0 0 11.2 8.7zm-29.88-19.91a12.3 12.3 0 1 0-5.45-23l2.17 6-4.48-4.3a12.2 12.2 0 0 0-4 8.5 11.9 11.9 0 0 0 .3 3.4 12.3 12.3 0 0 0 11.44 9.4z"/><path d="M428.05 232.14c2.84.3 5.6 1.2 8.45 1.37s6-.5 7.8-2.7a39.4 39.4 0 0 0 2.26-4 8.8 8.8 0 0 1 3.1-2.93 12.3 12.3 0 1 1-23 8.17c.46 0 .92.05 1.4.1zm-3.51 36.23a12.32 12.32 0 0 0 11.7-17.56 9.15 9.15 0 0 0-2.47 2.5 41.72 41.72 0 0 1-2.44 4.06c-1.9 2.25-5.2 3-8.16 2.85s-5.84-1-8.8-1.24c-.4 0-.83-.06-1.24-.07a12.3 12.3 0 0 0 11.4 9.47zm29.88 19.91a12.3 12.3 0 0 0 11.8-17.33 9.83 9.83 0 0 0-2.6 2.5 41.23 41.23 0 0 1-2.66 4.15c-2.08 2.3-5.57 3.13-8.72 3s-6-.8-9-1a12.3 12.3 0 0 0 11.18 8.68zm-6.08 23.9a12.3 12.3 0 0 0 22.45-10 11.82 11.82 0 0 0-2.7 2.4c-1.18 1.43-2 3-3.3 4.38-2.53 2.47-6.6 3.5-10.2 3.58a53.94 53.94 0 0 1-6.26-.36z" opacity=".1"/><circle cx="779.73" cy="238.18" r="99.96" fill="#3f3d56"/><path fill="#6c63ff" d="M822.64 263.96c-3.48-3.48-11.85-8.73-16-10.7-4.8-2.3-6.55-2.25-9.94.2-2.82 2-4.65 3.93-7.9 3.22s-9.65-5.55-15.86-11.74-11.03-12.57-11.72-15.86 1.2-5.08 3.23-7.9c2.44-3.4 2.5-5.15.2-9.94-2-4.15-7.2-12.5-10.7-16s-4.28-2.73-6.2-2a35.8 35.8 0 0 0-5.67 3c-3.48 2.33-5.43 4.27-6.8 7.2s-2.92 8.33 5.05 22.52a125.7 125.7 0 0 0 22.1 29.47 125.88 125.88 0 0 0 29.57 22.14c14.18 8 19.6 6.4 22.53 5.05s4.86-3.3 7.18-6.8a35.33 35.33 0 0 0 3-5.67c.67-1.92 1.45-2.7-2.06-6.2z"/><path d="M779.73 138.23a100 100 0 1 0 99.95 99.95 100 100 0 0 0-99.95-99.95zm0 186.62a86.67 86.67 0 1 1 86.67-86.67 86.67 86.67 0 0 1-86.67 86.67z" opacity=".1"/><circle cx="550.08" cy="390.01" r="99.96" fill="#3f3d56"/><path fill="#6c63ff" d="M606.93 359.8l-29.93 30.47a.54.54 0 0 0 0 .78l21 22.33a3.62 3.62 0 0 1-2.55 6.17 3.64 3.64 0 0 1-2.56-1.06l-20.89-22.26a.57.57 0 0 0-.8 0l-5.1 5.14a22.37 22.37 0 0 1-16 6.73 22.86 22.86 0 0 1-16.27-6.92l-4.9-5a.57.57 0 0 0-.8 0l-20.83 22.2a3.6 3.6 0 0 1-5.1 0 3.6 3.6 0 0 1 0-5.1l20.9-22.3a.6.6 0 0 0 0-.77l-29.92-30.44a.55.55 0 0 0-.94.4v60.92a8.92 8.92 0 0 0 8.9 8.9h97.86a8.92 8.92 0 0 0 8.9-8.9v-60.89a.55.55 0 0 0-.97-.4zm-56.85 41.07a15.14 15.14 0 0 0 10.92-4.5l43.6-44.37a8.7 8.7 0 0 0-5.5-2h-97.95a8.64 8.64 0 0 0-5.5 2l43.6 44.37a15.08 15.08 0 0 0 10.83 4.5z"/><path d="M548.82 290.06a100 100 0 1 0 99.95 99.94 100 100 0 0 0-99.95-99.94zm0 186.62a86.67 86.67 0 1 1 86.68-86.68 86.67 86.67 0 0 1-86.68 86.68z" opacity=".1"/><circle cx="312.85" cy="315.36" r="99.96" fill="#3f3d56"/><path fill="#6c63ff" d="M312.85 267.53l-39.85 91.94 3.72 3.72 36.14-15.95 36.14 15.96 3.72-3.73z"/><path d="M312.85 215.37a100 100 0 1 0 99.95 100 100 100 0 0 0-99.95-100zm0 186.62a86.67 86.67 0 1 1 86.67-86.63 86.67 86.67 0 0 1-86.67 86.66z" opacity=".1"/><path fill="url(#a)" d="M840.93 603.88q-1.36-3.32-2.8-6.62a19.65 19.65 0 0 0-3.4-5.9 6.24 6.24 0 0 0-2-1.5 8.53 8.53 0 0 0-2.6-.5 20.83 20.83 0 0 0-4.1-.12c-.54-.16-1.14-.37-1.73-.6a14.28 14.28 0 0 0 10.64-13.26v-.6a14.25 14.25 0 0 0-14.2-14.32 14 14 0 0 0-7.44 2.13 13.37 13.37 0 0 0-15 7.22 16.53 16.53 0 0 0-5.1 12.3v.63c.26 7.77 5.28 14 11.62 14.63a6.66 6.66 0 0 0-1.84 1.23c-1.94 1.88-2.26 4.85-2.47 7.55l-.14 2-3.36 1.2a.62.62 0 0 0-.15 1.1l3.2 2.28v.57s0 .43.07.65a4.6 4.6 0 0 0-1.24 1.77 8.18 8.18 0 0 0-.3 3.24l.13 2.8a21.9 21.9 0 0 0 .86 6.2c.42 1.24 2.24 4.23 3.55 4.25-1.2 5.5-1.52 17.1-1.52 17.1-.15.16.27.3 1 .42.72 5.52 3.07 21 7.24 27.8a58.64 58.64 0 0 1 1.57 6.77s1.18 14.7 2.75 19.07c1.34 3.72 2.4 12.9 2.7 15.56a1.53 1.53 0 0 0-1.12 1.14c-.8 2.38-5.9 6-5.9 6a24.76 24.76 0 0 0-4.43 2.83c-1.6 1.45-1.55 2.76 5.6 1.94 13.8-1.6 16.16-6 16.16-6s-.22-.74-.55-1.7a18.46 18.46 0 0 0-1.8-4.27c-.2-.2-.4.13-.64.63a85.63 85.63 0 0 1-.94-19.3s.4-6.77-1.58-11.54a21.83 21.83 0 0 1 0-7.55c.8-3.17-3.15-18.68-3.15-18.68l-2.3-11.43a3.28 3.28 0 0 1 .63 1.33l.06.23.06.33a.62.62 0 0 0 .16.3c1.54 6.4 5.76 24.13 5.76 26.73 0 3.18 3.94 11.13 3.94 11.13s1.57 13.12 4.33 18.28c2.1 3.93 2.15 9.7 2.05 12.23s-.47 3.27-1.26 4.06a9.66 9.66 0 0 0-1.5 2.6l-.08.18s-1.18 2.4-.4 2.8a19.37 19.37 0 0 0 9.47 1.2s1.58-2 1.58-2.8a12.52 12.52 0 0 0-.18-1.4c-.3-1.9-.83-4.85-.84-4.88.34-1.28-1-4.84-1-4.84l-.4-11.13a51.38 51.38 0 0 0-2.75-22.27s-2-7.15-1.57-9.14l-.8-23.06-.1-.3a22.78 22.78 0 0 1 .1-4.47c.4-4.76-1.17-14.7-1.57-15.1a13.1 13.1 0 0 1-.55-3.28c.1-.83.36-3.26.73-6.28a112.9 112.9 0 0 0 11.62-1 1.45 1.45 0 0 0 1-.4 1.4 1.4 0 0 0 .23-.8c.46-6-1.73-11.82-4-17.36zm-7.93 12.6c.4-2.84.85-5.6 1.3-7.65l.05.18a55.65 55.65 0 0 1 1.9 6.3 21.43 21.43 0 0 1-3.25 1.2z" transform="translate(-52 -162.63)"/><path fill="#be6f72" d="M750.37 486.05s2.36 21.23 7.47 29.48a57.2 57.2 0 0 1 1.57 6.68s1.2 14.55 2.76 18.87l2.75 16.12s5.5 6.27 7.48 1.17a82.82 82.82 0 0 1-1.18-20.44s.4-6.68-1.57-11.4a21.32 21.32 0 0 1 0-7.46c.78-3.15-3.15-18.47-3.15-18.47l-3.14-15.33z"/><path fill="#ff6f61" d="M775.13 562.3s-2.36 4.32-16.1 5.9c-7.15.8-7.2-.5-5.6-1.93a24.9 24.9 0 0 1 4.4-2.8s5.12-3.53 5.9-5.9l3.54-.38c3.93 5.88 4.72-1.6 5.5-.8a17.73 17.73 0 0 1 1.8 4.2c.34.96.56 1.7.56 1.7z"/><path d="M775.13 562.3s-2.36 4.32-16.1 5.9c-7.15.8-7.2-.5-5.6-1.93 1.13.7 3.4 1 7.94-.83 6.55-2.68 11.3-4.23 13.2-4.83.34.96.56 1.7.56 1.7zm-3.93-24.37s.4-6.68-1.57-11.4a21.32 21.32 0 0 1 0-7.46c.78-3.15-3.15-18.47-3.15-18.47l-3.14-15.33-2.72.16 3.1 15.17s3.94 15.32 3.16 18.47a21.32 21.32 0 0 0 0 7.46c2 4.72 1.57 11.4 1.57 11.4a82.82 82.82 0 0 0 1.18 20.44 3.44 3.44 0 0 1-1.14 1.62c1.45.65 3 .62 3.88-1.63a82.82 82.82 0 0 1-1.18-20.44z" opacity=".1"/><path fill="#3f3d56" d="M768.64 399.8a14 14 0 0 0-7.42 2.1 13.35 13.35 0 0 0-15 7.15 16.28 16.28 0 0 0-5.1 12.16c0 8.37 5.64 15.14 12.58 15.14 5 0 9.38-3.56 11.4-8.7a13.8 13.8 0 0 0 3.53.45 14.15 14.15 0 0 0 0-28.3z"/><path fill="#be6f72" d="M780.24 488.02l1.18 3.14s1.18 20.83.78 22.8l1.58 9a50.3 50.3 0 0 1 2.75 22l.4 11s1.56 4.32.78 5.1l-6.7-.7s.8-8.24-2-13.35l-4.32-18.07s-3.93-7.86-3.93-11l-6.3-28.7z"/><path fill="#3f3d56" d="M749.58 487.63s.4-14.15 2-18.47a29.33 29.33 0 0 0 1.75-6.27s23.8 4.3 25.76 2.72c0 0 .38 5.5.78 5.9s2 10.2 1.57 14.93v4.7s-16.12 2.37-16.5 0l-1.58-2.34s-14.57-.43-13.8-1.17z"/><g opacity=".1"><path d="M762.55 487.63s-9.94-.27-12.94-.8v.8c-.77.78 13.77 1.18 13.77 1.18a1 1 0 0 1 .54.23c-.52-1.4-1.35-1.4-1.35-1.4zm17.3-16.13c-.4-.38-.8-5.88-.8-5.88a1.7 1.7 0 0 1-.66.24c.13 1.66.4 4.2.66 4.47s2 10.22 1.57 14.94v4.7s-12.75 1.88-15.84.63l.1.56c.4 2.36 16.52 0 16.52 0s-.4 0 0-4.7-1.18-14.55-1.57-14.95z"/><path fill="url(#b)" d="M814.55 650.26s-9.94-.27-12.94-.8v.8c-.77.78 13.77 1.18 13.77 1.18a1 1 0 0 1 .54.22c-.52-1.4-1.35-1.4-1.35-1.4zm17.3-16.12c-.4-.4-.8-5.9-.8-5.9a1.7 1.7 0 0 1-.66.25c.13 1.65.4 4.2.66 4.46s2 10.22 1.57 14.94v4.7s-12.75 1.88-15.84.63l.1.56c.4 2.35 16.52 0 16.52 0s-.4 0 0-4.72-1.18-14.54-1.57-14.94z" transform="translate(-52 -162.63)"/></g><path fill="#be6f72" d="M766.9 424.55a5.2 5.2 0 0 0 1.5 1.94 3.36 3.36 0 0 0 1.4.6l-2.7 1.4a48.36 48.36 0 0 0-4 3 8.14 8.14 0 0 1-4.6 1.78 5.62 5.62 0 0 0 .64-5.6 5.22 5.22 0 0 1-.7-1.93c0-1.13 1-2 1.93-2.6.75-.5 1.52-1 2.3-1.5.6-.37 1.53-1.17 2.3-1.14s.86.72 1 1.42a11.1 11.1 0 0 0 .93 2.63z"/><path d="M766.9 424.55a5.2 5.2 0 0 0 1.5 1.94 3.36 3.36 0 0 0 1.4.6l-2.7 1.4a48.36 48.36 0 0 0-4 3 8.14 8.14 0 0 1-4.6 1.78 5.62 5.62 0 0 0 .64-5.6 5.22 5.22 0 0 1-.7-1.93c0-1.13 1-2 1.93-2.6.75-.5 1.52-1 2.3-1.5.6-.37 1.53-1.17 2.3-1.14s.86.72 1 1.42a11.1 11.1 0 0 0 .93 2.63z" opacity=".1"/><circle cx="776.11" cy="438.7" r="9.04" fill="#be6f72"/><path fill="#ff6f61" d="M788.88 567c0 .8-1.57 2.76-1.57 2.76a19.46 19.46 0 0 1-9.42-1.18c-.8-.4.4-2.75.4-2.75l.08-.2a9.54 9.54 0 0 1 1.5-2.55c.77-.78 1.24-4 1.24-4 2.44-4 6.77 1.73 6.77 1.73s.55 3 .84 4.83c.1.65.18 1.18.18 1.38z"/><path d="M788.88 567c0 .8-1.57 2.76-1.57 2.76a19.46 19.46 0 0 1-9.42-1.18c-.8-.4.4-2.75.4-2.75l.08-.2a19 19 0 0 0 8.56 1.77l1.8-1.8c.1.68.16 1.2.16 1.4z" opacity=".1"/><circle cx="758.03" cy="419.83" r="8.84" fill="#be6f72"/><path fill="#be6f72" d="M750.9 437.5c-1.94 1.86-2.26 4.8-2.46 7.46l-.3 3.9a19.72 19.72 0 0 0-.07 3.18c0 .65.16 1.3.22 2s.07 1.56.08 2.35v5.77a6.82 6.82 0 0 0 .64 3.47 2.36 2.36 0 0 0 3 1.08 3.42 3.42 0 0 0 1.24-1.92 29.85 29.85 0 0 0 2-7.32c.08-.87.1-1.74.17-2.6s.23-1.8.36-2.67c.55-3.67.8-7.4 1.05-11.1.07-1.1 1.06-5.43-.38-5.9-.7-.24-2.15.48-2.82.72a7.94 7.94 0 0 0-2.75 1.6z"/><path d="M750.9 437.5c-1.94 1.86-2.26 4.8-2.46 7.46l-.3 3.9a19.72 19.72 0 0 0-.07 3.18c0 .65.16 1.3.22 2s.07 1.56.08 2.35v5.77a6.82 6.82 0 0 0 .64 3.47 2.36 2.36 0 0 0 3 1.08 3.42 3.42 0 0 0 1.24-1.92 29.85 29.85 0 0 0 2-7.32c.08-.87.1-1.74.17-2.6s.23-1.8.36-2.67c.55-3.67.8-7.4 1.05-11.1.07-1.1 1.06-5.43-.38-5.9-.7-.24-2.15.48-2.82.72a7.94 7.94 0 0 0-2.75 1.6z" opacity=".1"/><path fill="#ff6f61" d="M769.23 425.53s-6.68 5.1-10.6 6.3c0 0-2.34 2.65-2.74 3.3s-1.2 7.7-2 9.27-2.76 5.1 0 8.64c0 0 .77 3.54.38 4.72s-1.82 5.5-.52 5.7 5.24 2.94 8.77 2.16l16.7 3s2.2-20.25 3.77-23.83l-3.54-1.2s-9.82-5.88-3.93-14.92c0 0-5.53-1.18-6.3-3.15z"/><path fill="#3f3d56" d="M744.84 449.2l8.12 5.75a.6.6 0 0 0 .7 0l2.2-1.65a.62.62 0 0 0 0-.94l-6.24-5.55a.6.6 0 0 0-.6-.1l-4.02 1.43a.6.6 0 0 0-.16 1.07z"/><path fill="#be6f72" d="M747.57 466.52a21.76 21.76 0 0 1-.85-6.13l-.12-2.78a8 8 0 0 1 .3-3.2 5.23 5.23 0 0 1 3.36-2.95 11.64 11.64 0 0 1 4.6-.33 1.18 1.18 0 0 1 .58.16 1.1 1.1 0 0 1 .32.54 3.62 3.62 0 0 1 .18 2.9 3 3 0 0 1-.92.94c-1.1.78-2.36 1.3-3.4 2.15a1.23 1.23 0 0 0-.45.58 1.35 1.35 0 0 0 0 .64 10.08 10.08 0 0 0 .52 1.6 1.6 1.6 0 0 0 .44.7l.64.36c.43.35 1.33.8 1.28 1.36-.15 2-1.35 4.24-1.82 6.22-.9 3.87-4.1-1.07-4.67-2.76z"/><path d="M760.2 465.62h-.22a6.73 6.73 0 0 0 2.57 0h.25a9 9 0 0 0-2.6 0zm20.63-21.42c-1.4 3.17-3.5 20.34-3.86 23.75 1.38.36 2.3.62 2.3.62s2.15-20.2 3.73-23.78z" opacity=".1"/><path fill="#be6f72" d="M776.42 438.98a3 3 0 0 0 1.3 1.95 17.3 17.3 0 0 1 2.28 2.32 16.43 16.43 0 0 1 2.27 4.55 55.75 55.75 0 0 1 1.9 6.22c-5 2.32-10.7 2.2-16 3.74a12.77 12.77 0 0 0-6 3.55 8.27 8.27 0 0 0-2.22 6.52.85.85 0 0 0 .12.4.84.84 0 0 0 .7.27 6 6 0 0 0 3.67-1.27 17.46 17.46 0 0 0 2.8-2.76 4.52 4.52 0 0 1 2-1.48c2.9-.9 6-.84 9-.9a113.42 113.42 0 0 0 13.42-1.05 1.08 1.08 0 0 0 1.2-1.2c.44-5.9-1.75-11.66-4-17.13q-1.35-3.3-2.78-6.55a19.4 19.4 0 0 0-3.4-5.82 6 6 0 0 0-2-1.48 8.46 8.46 0 0 0-2.68-.5 19 19 0 0 0-4.4-.08 9.36 9.36 0 0 0-.4 2.26c.07 2.7 1.25 5.23 2.4 7.67.16.37.6.4.82.75z"/><path stroke="#000" stroke-miterlimit="10" d="M760.4 444.04a7.33 7.33 0 0 0-1 3.82 5.14 5.14 0 0 0 .26 1.56 5.06 5.06 0 0 0 3.2 3" opacity=".1" fill="none"/><path fill="#3f3d56" d="M765.5 411.2a4.6 4.6 0 0 0-1.45.22c-1.3-2-4.4-3.38-8-3.38-4.78 0-8.65 2.47-8.65 5.5s3.87 5.5 8.65 5.5a12.17 12.17 0 0 0 5.2-1.1 4.7 4.7 0 1 0 4.23-6.75z"/><path d="M765.9 419.44a4.7 4.7 0 0 1-4.25-2.67 12.17 12.17 0 0 1-5.2 1.1c-4.76 0-8.63-2.46-8.63-5.5a3.3 3.3 0 0 1 0-.55 3.73 3.73 0 0 0-.44 1.73c0 3 3.87 5.5 8.65 5.5a12.17 12.17 0 0 0 5.2-1.1 4.7 4.7 0 0 0 8.86-1.17 4.7 4.7 0 0 1-4.2 2.66zm-19.67-8.07a13.35 13.35 0 0 1 15-7.15 14.14 14.14 0 0 1 21.52 10.86v-1.18a14.14 14.14 0 0 0-21.57-12 13.35 13.35 0 0 0-15 7.15 16.28 16.28 0 0 0-5.1 12.16v1.2a16 16 0 0 1 5.15-11.03z" opacity=".1"/><path stroke="#3f3d56" stroke-width="4" stroke-miterlimit="10" d="M836.4 414.37c2.6-4.83-.36-10.76-3.77-15.07s-7.55-8.8-7.46-14.3c.12-7.88 8.5-12.54 15.2-16.73a73.9 73.9 0 0 0 13.64-11 19.93 19.93 0 0 0 4.2-5.6c1.4-3.1 1.35-6.6 1.27-10q-.44-16.9-1.67-33.77" fill="none"/><path fill="#6c63ff" d="M870.52 307.3a12.3 12.3 0 0 0-6.14-10.08l-2.76 5.45.08-6.6a12.08 12.08 0 0 0-4.05-.5 12.3 12.3 0 1 0 12.87 11.73zm-21.95 83.33a12.3 12.3 0 1 1 .6-9.92l-7.7 6.27 8.46-2a12.24 12.24 0 0 1-1.36 5.66zm-6.07-23.91a12.3 12.3 0 0 1-3.92-24.15l-.06 5.07 2.8-5.5a12.32 12.32 0 0 1 12.86 11.72 12.3 12.3 0 0 1-11.72 12.87zm29.87-19.88a12.3 12.3 0 1 1 5.45-23l-2.18 6 4.48-4.3a12.24 12.24 0 0 1 4 8.5 11.88 11.88 0 0 1-.3 3.4 12.3 12.3 0 0 1-11.45 9.4z"/><path d="M868.87 310.58c-2.84.32-5.6 1.2-8.46 1.38s-6-.5-7.78-2.73a38.2 38.2 0 0 1-2.27-4 8.85 8.85 0 0 0-3.1-2.92 12.3 12.3 0 1 0 23 8.18c-.46.02-.92.05-1.38.1zm3.5 36.26a12.32 12.32 0 0 1-11.7-17.56 9.1 9.1 0 0 1 2.47 2.47 39.47 39.47 0 0 0 2.44 4.07c1.9 2.26 5.2 3 8.16 2.86s5.84-1 8.8-1.25c.4 0 .83-.07 1.24-.08a12.3 12.3 0 0 1-11.4 9.5zm-29.87 19.88a12.3 12.3 0 0 1-11.82-17.35 10.15 10.15 0 0 1 2.6 2.5c1 1.35 1.55 2.9 2.67 4.15 2.08 2.32 5.57 3.13 8.72 3.06s6-.82 9-1.05a12.3 12.3 0 0 1-11.18 8.7zm6.07 23.91a12.32 12.32 0 0 1-22.45-10 12.06 12.06 0 0 1 2.7 2.4c1.18 1.44 1.95 3 3.3 4.4 2.52 2.46 6.58 3.47 10.2 3.57a53.94 53.94 0 0 0 6.25-.37z" opacity=".1"/><path stroke="#3f3d56" stroke-width="4" stroke-miterlimit="10" d="M995.4 566.37c2.6-4.83-.36-10.76-3.77-15.07s-7.55-8.8-7.46-14.3c.12-7.88 8.5-12.54 15.2-16.73a73.9 73.9 0 0 0 13.64-11 19.93 19.93 0 0 0 4.2-5.6c1.4-3.1 1.35-6.6 1.27-10q-.43-16.9-1.67-33.77" fill="none"/><path fill="#6c63ff" d="M1029.52 459.3a12.3 12.3 0 0 0-6.14-10.08l-2.76 5.45.08-6.6a12.08 12.08 0 0 0-4-.5 12.3 12.3 0 1 0 12.87 11.73zm-21.95 83.33a12.3 12.3 0 1 1 .6-9.92l-7.7 6.27 8.46-2a12.24 12.24 0 0 1-1.36 5.66zm-6.07-23.91a12.3 12.3 0 0 1-3.92-24.15l-.06 5.07 2.8-5.5a12.32 12.32 0 0 1 12.86 11.72 12.3 12.3 0 0 1-11.72 12.87zm29.87-19.88a12.3 12.3 0 1 1 5.45-23l-2.18 6 4.48-4.3a12.24 12.24 0 0 1 4 8.5 11.88 11.88 0 0 1-.3 3.4 12.3 12.3 0 0 1-11.45 9.4z"/><path d="M1027.87 462.58c-2.84.32-5.6 1.2-8.46 1.38s-6-.5-7.78-2.73a38.2 38.2 0 0 1-2.27-4 8.85 8.85 0 0 0-3.1-2.92 12.3 12.3 0 1 0 23 8.18c-.46.02-.92.05-1.38.1zm3.5 36.26a12.32 12.32 0 0 1-11.7-17.56 9.1 9.1 0 0 1 2.47 2.47 39.47 39.47 0 0 0 2.44 4.07c1.9 2.26 5.2 3 8.16 2.86s5.84-1 8.8-1.25c.4 0 .83-.07 1.24-.08a12.3 12.3 0 0 1-11.4 9.5zm-29.87 19.88a12.3 12.3 0 0 1-11.82-17.35 10.15 10.15 0 0 1 2.6 2.5c1 1.35 1.55 2.9 2.67 4.15 2.08 2.32 5.57 3.13 8.72 3.06s6-.82 9-1.05a12.3 12.3 0 0 1-11.18 8.7zm6.07 23.91a12.32 12.32 0 0 1-22.45-10 12.06 12.06 0 0 1 2.7 2.4c1.18 1.44 2 3 3.3 4.4 2.52 2.46 6.58 3.47 10.2 3.57a53.94 53.94 0 0 0 6.25-.37z" opacity=".1"/><path fill="url(#c)" d="M530 587.9a9.8 9.8 0 0 0-3.9-7.9 11.5 11.5 0 0 0-9.62-11.3 11.48 11.48 0 0 0-7.65-8.54 9.76 9.76 0 0 0-1.42-.33h-1.67a11.26 11.26 0 0 0-10.9 9.62c-3.5-.8-6.7.24-7.3 2.46a3 3 0 0 0 .1 1.8c.6 1.7 2.55 3.36 5.16 4.17l.33.1.5.13h.12a8.84 8.84 0 0 0-.84 3.8 8.74 8.74 0 0 0 4.72 7.8l-.23.13a3.12 3.12 0 0 0-.77 1.06 15.86 15.86 0 0 0-1.47 3.53c-.25 1.06-.3 2.16-.6 3.2-.58 1.94-2.06 3.57-2.23 5.58-.08.9.07 2-.57 2.6a3.1 3.1 0 0 1-.5.35 4.13 4.13 0 0 0-1.12 1.17 3.88 3.88 0 0 1-.78 1.12c-.58.43-1.53.4-1.8 1.06s.44 1.46.27 2.2-.8.86-1.24 1.27a4.45 4.45 0 0 0-1.08 2 6.56 6.56 0 0 1-5.4-1.38 10.1 10.1 0 0 1 .56 2 8.76 8.76 0 0 0-2.9-1.47 9.2 9.2 0 0 1-3.1-2.3l1.65-.23-7.33-11.2-2.17-.44 1.94 3.73a1.2 1.2 0 0 0-.66.78 3.4 3.4 0 0 0-.06 1.27 22.73 22.73 0 0 0 .5 3l.56 2.62c.05.24.1.5.18.73a6.9 6.9 0 0 0-2.17.24 18.88 18.88 0 0 0-4.5-1.07 2.5 2.5 0 0 0-1 0 2.6 2.6 0 0 0-.95.77 30.76 30.76 0 0 0-3.35 4.72c-4 6.86-9.2 12.85-14.14 19.05-3.4 1.4-6.83 2.7-10.26 4l-7.38 2.83a11.2 11.2 0 0 1-4.58 1c-.7 0-1.57-.15-2 .45a4.2 4.2 0 0 0-.45 1l-.77.08a8.74 8.74 0 0 0-1.77-3.26 1.12 1.12 0 0 0-.83.64c-.18.33-.3.7-.5 1-.4.58-1.08.86-1.57 1.35s-.8 1.24-1.34 1.74a5.3 5.3 0 0 1-2.5 1 15.84 15.84 0 0 0-3.94 1.5 6.33 6.33 0 0 1-1.45.66 5.45 5.45 0 0 1-1.7.06l-3.9-.3a3.08 3.08 0 0 0-1.06.06 2 2 0 0 0-1.24 2 3.15 3.15 0 0 0 1.24 2.15 7.94 7.94 0 0 0 2.22 1.15 65.15 65.15 0 0 0 10.4 3.08v.8a17.75 17.75 0 0 0 8 1.9 1.24 1.24 0 0 0 .6-.12 1.32 1.32 0 0 0 .5-.78 32.17 32.17 0 0 0 1.55-7.66 4 4 0 0 0 1.4-.36c1.35-.37 2.7.55 4.08.7 1.7.2 3.3-.8 4.9-1.42l.7-.23a7.68 7.68 0 0 1-1.6 1.55c-.68.48-1.43.84-2.08 1.34a14.26 14.26 0 0 1-1.76 1.36 11.05 11.05 0 0 1-1.36.52 8.9 8.9 0 0 0-1.93 1 3.9 3.9 0 0 0-1.3 1.28 1.92 1.92 0 0 0-.1 1.8 1.9 1.9 0 0 0 1.28.9 5.3 5.3 0 0 0 1.6 0c2.1-.16 4.22-.35 6.33-.54a16.92 16.92 0 0 0 2.66-.38c.46-.1.92-.26 1.38-.4a12.3 12.3 0 0 1 2.4-.35 2 2 0 0 1 .7.08c.5.16.85.66 1.35.76a2 2 0 0 0 1-.13 22.3 22.3 0 0 1 4.68-.5c.7 0 1.5-.16 1.82-.8s-.26-1.67-.52-2.52a7.7 7.7 0 0 1-.22-1.66 10.4 10.4 0 0 0-1.16-3.94 10.3 10.3 0 0 1-.87-1.8 45.47 45.47 0 0 0 8.63-4.38 15.43 15.43 0 0 1 4.92-2.37 13.38 13.38 0 0 1 6.18.72 140.6 140.6 0 0 1 14.17 4.94c2.2.9 4.4 1.86 6.7 2.55a10.43 10.43 0 0 0 2.37 2.3 11 11 0 0 0 5.15 1.42 67.48 67.48 0 0 0 7.25.27 12.23 12.23 0 0 0 5.4-1 5.55 5.55 0 0 0 1.13-.75 4.48 4.48 0 0 0 3.56-1.32 8.63 8.63 0 0 0 2.7-4.28c.6-2.28.14-5 1.54-6.82l1.23-1.4a3.94 3.94 0 0 0 .64-2.3.47.47 0 0 1 .07-.1 8.47 8.47 0 0 0 .6-2.3 13.14 13.14 0 0 1 .65-1.82 56.2 56.2 0 0 0 1.86-5.4 31.5 31.5 0 0 0 .86-3.7c.15-1 .24-2 .32-3a18.63 18.63 0 0 1 .9-4.62 37.68 37.68 0 0 0 2.1-11.08v-.22a7.43 7.43 0 0 0 6.6-7.56 7.9 7.9 0 0 0-.7-3.23 10 10 0 0 0 1.34-5.04zm-35.78 43.48c.1.4.24.77.37 1.15-.6-.57-1.17-1.16-1.76-1.74.23.07.47.14.7.23a3.73 3.73 0 0 1 .65.35zm-2.83-1.92c-3.47-3-7.47-5.33-11-8.24 1.92.95 3.8 2.06 5.66 3.12q3.3 1.9 6.7 3.63a5.5 5.5 0 0 1-1.4 1.5zm1.46-7.56l.17-.17v1.2l-.93-.33a8.28 8.28 0 0 0 .73-.7zm-30.43 8.1a28.63 28.63 0 0 0 3.68-5.25c1.38 2.4 3.6 4.12 5.5 6.13-3.05-.4-6.1-.72-9.17-.88z" transform="translate(-52 -162.63)"/><path fill="#2f2e41" d="M415.35 438.25l2.18.44 7.43 10.98-3.27.44-6.35-11.87z"/><path fill="#fbbebe" d="M362.5 482.83a42.78 42.78 0 0 0 2.17 5.67 54 54 0 0 0 7.25-2.07 22.86 22.86 0 0 0-1.5-2 7.46 7.46 0 0 0-2.06-1.57 5.64 5.64 0 0 0-2.5 0l-3.37-.03z"/><path fill="#2f2e41" d="M368.37 485.76a4.52 4.52 0 0 1-2.48-2.82 9.08 9.08 0 0 0-1.9-3.37 1.08 1.08 0 0 0-.84.63c-.18.32-.3.68-.5 1-.4.57-1.1.85-1.6 1.33s-.8 1.23-1.33 1.72a5.32 5.32 0 0 1-2.53 1 16.4 16.4 0 0 0-4 1.47 6.9 6.9 0 0 1-1.47.66 5.82 5.82 0 0 1-1.72 0l-3.93-.28a3.08 3.08 0 0 0-1 0 1.9 1.9 0 0 0-1.25 2 3 3 0 0 0 1.25 2.12 8.3 8.3 0 0 0 2.24 1.14 65.9 65.9 0 0 0 10.57 3v.78a18.28 18.28 0 0 0 8.05 1.87 1.36 1.36 0 0 0 .6-.1 1.32 1.32 0 0 0 .5-.77 31.2 31.2 0 0 0 1.65-8.56 6.82 6.82 0 0 0-.17-2.2c-.22-.72.52-.42-.16-.7"/><path fill="#2f2e41" d="M443.93 470.9c-11.68.7-23.22-2.7-34.92-3.07a17.05 17.05 0 0 0-4.33.27 21.87 21.87 0 0 0-4.3 1.67c-6.27 2.92-12.76 5.34-19.24 7.75l-7.45 2.77a11.28 11.28 0 0 1-4.6 1c-.72 0-1.6-.16-2 .43-1.22 1.8-.65 4.43.15 6.45.26.65.7 1.36 1.4 1.43a4.07 4.07 0 0 0 1.42-.35c1.35-.36 2.7.55 4.1.7 1.72.18 3.32-.8 4.95-1.4 2.7-1 5.64-1 8.48-1.44 4.75-.78 9.16-3 13.28-5.5a15.5 15.5 0 0 1 4.95-2.34 13.7 13.7 0 0 1 6.24.7 143 143 0 0 1 14.3 4.87 66.6 66.6 0 0 0 7.45 2.73 27 27 0 0 0 16.72-1c1.87-.74 3.9-2 4-4.06.07-1.15-.83-2.16-1.42-3.15-.38-.63-.77-1.26-1.18-1.87-2-2.9-4.44-6.78-8-6.57z"/><path d="M443.93 470.9c-11.68.7-23.22-2.7-34.92-3.07a17.05 17.05 0 0 0-4.33.27 21.87 21.87 0 0 0-4.3 1.67c-6.27 2.92-12.76 5.34-19.24 7.75l-7.45 2.77a11.28 11.28 0 0 1-4.6 1c-.72 0-1.6-.16-2 .43-1.22 1.8-.65 4.43.15 6.45.26.65.7 1.36 1.4 1.43a4.07 4.07 0 0 0 1.42-.35c1.35-.36 2.7.55 4.1.7 1.72.18 3.32-.8 4.95-1.4 2.7-1 5.64-1 8.48-1.44 4.75-.78 9.16-3 13.28-5.5a15.5 15.5 0 0 1 4.95-2.34 13.7 13.7 0 0 1 6.24.7 143 143 0 0 1 14.3 4.87 66.6 66.6 0 0 0 7.45 2.73 27 27 0 0 0 16.72-1c1.87-.74 3.9-2 4-4.06.07-1.15-.83-2.16-1.42-3.15-.38-.63-.77-1.26-1.18-1.87-2-2.9-4.44-6.78-8-6.57z" opacity=".1"/><path fill="#fbbebe" d="M384.92 483.37q2.74.93 5.53 1.72c1-1.72 3-2.9 3.43-4.87a.46.46 0 0 0 0-.26.48.48 0 0 0-.2-.2 10.48 10.48 0 0 0-4.35-1.26c-1.2-.06-1.75 1.2-2.3 2.07-.2.4-1.62 3-2.1 2.8z"/><path fill="#2f2e41" d="M387.48 482.15a4 4 0 0 1-2.7-1.77c-.24-.45-.52-1.06-1.04-1s-.7.6-.8 1.07a30 30 0 0 1-1.5 5.2 9.74 9.74 0 0 1-3.24 4.24c-.68.46-1.43.8-2.1 1.3a14.43 14.43 0 0 1-1.77 1.35 10.5 10.5 0 0 1-1.36.5 9.43 9.43 0 0 0-1.94 1 3.85 3.85 0 0 0-1.33 1.27 1.83 1.83 0 0 0-.1 1.77 1.9 1.9 0 0 0 1.3.87 5.44 5.44 0 0 0 1.6 0c2.13-.15 4.26-.34 6.4-.53a18.44 18.44 0 0 0 2.66-.37l1.4-.38a11.06 11.06 0 0 1 2.42-.37 1.9 1.9 0 0 1 .7.07c.5.16.85.65 1.36.75a2.26 2.26 0 0 0 1-.13 22.08 22.08 0 0 1 4.73-.5c.7 0 1.52-.17 1.84-.8.4-.77-.25-1.64-.52-2.48a8 8 0 0 1-.22-1.63 9.94 9.94 0 0 0-1.17-3.87c-.55-1-1.3-2.1-.9-3.16a3 3 0 0 0 .35-1.1c-.15-1.7-4.1-1.1-5.07-1.32z"/><path fill="#fbbebe" d="M426.42 452.17a9.12 9.12 0 0 1-4.66-4.62c-.2-.44-.35-.9-.54-1.35a10.26 10.26 0 0 0-2.78-3.87 1.37 1.37 0 0 0-1-.43 1.1 1.1 0 0 0-.75.8 3.1 3.1 0 0 0-.1 1.26 22.27 22.27 0 0 0 .5 2.92l.58 2.58a5.66 5.66 0 0 0 .35 1.15 4 4 0 0 0 .95 1.14c.52.48 1.05.94 1.58 1.4a5.43 5.43 0 0 0 1 .7 5.8 5.8 0 0 0 1.77.5 15.06 15.06 0 0 1 6.64 2.57v-1.9a2.54 2.54 0 0 0-.5-1.4 8.87 8.87 0 0 0-3.05-1.43z"/><path d="M426.42 452.17a9.12 9.12 0 0 1-4.66-4.62c-.2-.44-.35-.9-.54-1.35a10.26 10.26 0 0 0-2.78-3.87 1.37 1.37 0 0 0-1-.43 1.1 1.1 0 0 0-.75.8 3.1 3.1 0 0 0-.1 1.26 22.27 22.27 0 0 0 .5 2.92l.58 2.58a5.66 5.66 0 0 0 .35 1.15 4 4 0 0 0 .95 1.14c.52.48 1.05.94 1.58 1.4a5.43 5.43 0 0 0 1 .7 5.8 5.8 0 0 0 1.77.5 15.06 15.06 0 0 1 6.64 2.57v-1.9a2.54 2.54 0 0 0-.5-1.4 8.87 8.87 0 0 0-3.05-1.43z" opacity=".1"/><ellipse cx="450.2" cy="429.57" fill="#2f2e41" rx="2.84" ry="2.86"/><path fill="#2f2e41" d="M448.44 427.85a3.07 3.07 0 0 0-2.24.32 3.1 3.1 0 0 0-.77 1.05 15.25 15.25 0 0 0-1.48 3.48c-.25 1-.3 2.13-.6 3.16-.6 1.9-2.08 3.5-2.25 5.5-.08.88.07 1.92-.58 2.52a3.68 3.68 0 0 1-.5.37 3.84 3.84 0 0 0-1.13 1.15 3.77 3.77 0 0 1-.8 1.1c-.58.42-1.54.38-1.82 1s.45 1.43.28 2.15-.8.86-1.25 1.26a4.37 4.37 0 0 0-1.07 2 6.67 6.67 0 0 1-5.44-1.34 17.32 17.32 0 0 1 .84 6.22 2.54 2.54 0 0 1-.5 1.92 34.64 34.64 0 0 1 6.67 1.16 4.6 4.6 0 0 0 2.92 0 4.86 4.86 0 0 0 1.34-1.06c1.2-1.22 2.46-2.55 2.75-4.24a24.9 24.9 0 0 0 .06-2.87 16.18 16.18 0 0 1 .73-3.5 41.53 41.53 0 0 0 1.26-7.18c.13-1.5 1.43-2.7 2.1-4 1.3-2.53 2.6-5.16 2.7-8 .04-.92-.28-2.07-1.22-2.17z"/><path d="M448.44 427.85a3.07 3.07 0 0 0-2.24.32 3.1 3.1 0 0 0-.77 1.05 15.25 15.25 0 0 0-1.48 3.48c-.25 1-.3 2.13-.6 3.16-.6 1.9-2.08 3.5-2.25 5.5-.08.88.07 1.92-.58 2.52a3.68 3.68 0 0 1-.5.37 3.84 3.84 0 0 0-1.13 1.15 3.77 3.77 0 0 1-.8 1.1c-.58.42-1.54.38-1.82 1s.45 1.43.28 2.15-.8.86-1.25 1.26a4.37 4.37 0 0 0-1.07 2 6.67 6.67 0 0 1-5.44-1.34 17.32 17.32 0 0 1 .84 6.22 2.54 2.54 0 0 1-.5 1.92 34.64 34.64 0 0 1 6.67 1.16 4.6 4.6 0 0 0 2.92 0 4.86 4.86 0 0 0 1.34-1.06c1.2-1.22 2.46-2.55 2.75-4.24a24.9 24.9 0 0 0 .06-2.87 16.18 16.18 0 0 1 .73-3.5 41.53 41.53 0 0 0 1.26-7.18c.13-1.5 1.43-2.7 2.1-4 1.3-2.53 2.6-5.16 2.7-8 .04-.92-.28-2.07-1.22-2.17z" opacity=".1"/><path fill="#2f2e41" d="M445.78 473.37c-2.43-1.16-4.2-3.3-6.18-5.16-3.75-3.52-8.34-6-12.3-9.32-2.6-2.2-5-4.74-7.82-6.58a19.57 19.57 0 0 0-8.4-2.93 2.23 2.23 0 0 0-1 0 2.3 2.3 0 0 0-.94.75 30.22 30.22 0 0 0-3.4 4.65c-5 8.5-12.1 15.64-18 23.54a1.5 1.5 0 0 0-.28.57 1.4 1.4 0 0 0 .22.87l1.2 2.34c.67 1.32 1.75 2.85 3.2 2.6a3.5 3.5 0 0 0 1.66-1.08l5.38-5.15 5.64-5.4c3.3-3.14 6.66-6.37 8.82-10.4 1.68 2.9 4.67 4.82 6.7 7.5.8 1 1.43 2.12 2.13 3.2 1.12 1.72 2.4 3.34 3.65 5l6.47 8.25a12.38 12.38 0 0 0 3 3 11.45 11.45 0 0 0 5.2 1.4 68.6 68.6 0 0 0 7.3.25 12.6 12.6 0 0 0 5.45-1 4.94 4.94 0 0 0 2.95-4.4 6.44 6.44 0 0 0-.93-2.72c-2.35-4.17-5.37-7.7-9.72-9.76z"/><ellipse cx="451.95" cy="431.55" fill="#e8e8f0" rx="2.19" ry="2.2"/><path fill="#fbbebe" d="M451.47 429.9a4.2 4.2 0 0 1 .24 3.16 12.82 12.82 0 0 1-1.4 2.9 13.85 13.85 0 0 1-1.83 2.6c3.38.17 6.65-1.15 9.62-2.75 2.4-1.28 4.78-2.87 6.06-5.28a2.8 2.8 0 0 1-2.24-.42 8 8 0 0 1-1.7-1.6l-1.7-1.9a7.6 7.6 0 0 1-1-1.36 3.78 3.78 0 0 1-.45-2.2 12.87 12.87 0 0 1-2.24 1.85c-1.2.78-2.54 1.35-3.76 2.13-.42.28-1.38.72-1.13 1.28s1.2 1 1.53 1.6z"/><path d="M451.47 429.9a4.2 4.2 0 0 1 .24 3.16 12.82 12.82 0 0 1-1.4 2.9 13.85 13.85 0 0 1-1.83 2.6c3.38.17 6.65-1.15 9.62-2.75 2.4-1.28 4.78-2.87 6.06-5.28a2.8 2.8 0 0 1-2.24-.42 8 8 0 0 1-1.7-1.6l-1.7-1.9a7.6 7.6 0 0 1-1-1.36 3.78 3.78 0 0 1-.45-2.2 12.87 12.87 0 0 1-2.24 1.85c-1.2.78-2.54 1.35-3.76 2.13-.42.28-1.38.72-1.13 1.28s1.2 1 1.53 1.6z" opacity=".1"/><path fill="#e8e8f0" d="M451.5 430.23a2.85 2.85 0 0 0 0 3.3c.1.12.47.87.62.88a.55.55 0 0 0 .38-.2 25.1 25.1 0 0 0 2.14-2.54 4.76 4.76 0 0 1 2.72-1.78 5.88 5.88 0 0 1 3.75 1.17 3.56 3.56 0 0 1 1.3 1 3.5 3.5 0 0 1 .42 1.43 68.9 68.9 0 0 1 .38 9.1 35.82 35.82 0 0 1-.43 6.54c-.22 1.1-.54 2.2-.7 3.33a21.24 21.24 0 0 0-.13 3v4.18a11 11 0 0 0 .16 2.3c.2.9.63 1.75.92 2.64a17.33 17.33 0 0 1 .6 3.13l.58 4.32c.18 1.36.32 2.85-.5 4-.38.5-.87.9-1.25 1.38-1.4 1.84-1 4.47-1.55 6.72a8.38 8.38 0 0 1-2.74 4.2 4.53 4.53 0 0 1-3.6 1.3c-1.77-.34-2.82-2.17-3.3-3.9s-.65-3.6-1.7-5.07a13.45 13.45 0 0 0-3.33-2.8 5.77 5.77 0 0 1-2.6-3.38l-.12-1.92a4.53 4.53 0 0 0-2.78-3.67c-.9-.35-2-.48-2.52-1.3a6.07 6.07 0 0 0 2.63-3.53 18.13 18.13 0 0 0 .64-4.46l.3-5c.14-2.26.2-4.48 1.2-6.5.43-.9 1-1.75 1.44-2.64a28.66 28.66 0 0 0 1.56-3.87c.72-2.07 1.44-4.13 2.08-6.2a11.68 11.68 0 0 1 1.14-2.9c.54-.94 1.32-2.07 2.33-2.27z"/><path fill="#2f2e41" d="M440.36 462.87h1.33l.27-2a4.17 4.17 0 0 1 .28-1.17 7 7 0 0 1 .77-1.12c1.3-1.85 1.2-4.3 1.53-6.55a33.33 33.33 0 0 1 2.92-8.56l2.58-5.75a7.94 7.94 0 0 0 .56-1.47 8.82 8.82 0 0 0 .17-1.7c0-.9.28-4.13.3-5 0-.33-.72-.15-.87-.44-.32-.63-.76 1.1-1.37 1.48a3.36 3.36 0 0 0-1.2 1.74c-.55 1.44-.9 3-1.4 4.43a9.05 9.05 0 0 1-2.42 3.92c-.52.46-1.13.83-1.63 1.33-1.6 1.58-1.76 4.1-1.8 6.35-.05 1.38-.3 14.52 0 14.52zm19.14-35.03a4.54 4.54 0 0 0-2.37 3.25 16.44 16.44 0 0 1-1.2 4c-1.62 2.8-5.75 3.63-6.9 6.68a12.3 12.3 0 0 0-.46 3.15c-.2 2.2-.92 4.3-1.14 6.48a28.87 28.87 0 0 0 .12 5.1l1.45 17.22a23 23 0 0 1-.43 7.58 7.3 7.3 0 0 0 4.34-.72c1.36-.62 2.6-1.47 3.9-2.2 2.25-1.23 4.73-2.1 6.7-3.75a4.1 4.1 0 0 0 .9-1 8.65 8.65 0 0 0 .6-2.26 12.2 12.2 0 0 1 .65-1.78 52.45 52.45 0 0 0 1.88-5.33 30.53 30.53 0 0 0 .86-3.64c.15-1 .24-2 .32-3a17.6 17.6 0 0 1 .92-4.55 36.65 36.65 0 0 0 2.1-10.92 5.7 5.7 0 0 0-.1-1.6 8.56 8.56 0 0 0-.88-1.83c-.6-1.13-1-2.37-1.52-3.52a17.3 17.3 0 0 0-5.9-6.2c-1.17-.8-2.53-1.63-3.84-1.16z"/><path fill="#fbbebe" d="M429.3 455.94a10.43 10.43 0 0 1-2.76-2.1c-.36-.4-.66-.88-1-1.3a6.8 6.8 0 0 0-3.46-2 16.9 16.9 0 0 0-4-.4 7.26 7.26 0 0 0-2.67.33 2.72 2.72 0 0 0-1.76 1.9 3.15 3.15 0 0 0 1.35 2.8 6.36 6.36 0 0 0 2.68 1.3 21.5 21.5 0 0 0 2.43.3c4.8.5 9.06 3.1 13.25 5.46q5.52 3.14 11.26 5.84a23.4 23.4 0 0 0 .2-3.45c0-.86-.07-2.18-.88-2.7a17.66 17.66 0 0 0-3.58-1.06 56.34 56.34 0 0 1-7.2-2.92c-1.33-.57-2.6-1.27-3.85-2z"/><ellipse cx="450.2" cy="420.35" fill="#fbbebe" rx="8.52" ry="8.57"/><path fill="#2f2e41" d="M461.93 437.55a13.66 13.66 0 0 0-1.65 3.1c-1 2.15-2.7 4-3.53 6.28s-.84 5.23-2.55 7.1a2.5 2.5 0 0 0-.75 1.08 5.16 5.16 0 0 1-.08.8c-.25.67-1.36.7-1.57 1.4-.06.2 0 .42-.1.62-.17.45-.77.52-1.16.8-.83.55-.66 1.85-1.25 2.66a2.25 2.25 0 0 1-2.14.75 7.5 7.5 0 0 1-2.2-.83 2.13 2.13 0 0 0-.8-.25 1.65 1.65 0 0 0-.93.32 5.67 5.67 0 0 0-2.3 4.85 15.84 15.84 0 0 0 1.32 5.43 2.18 2.18 0 0 0 .43.8 1.9 1.9 0 0 0 2.12.17 10 10 0 0 1 2.07-.93c1.32-.25 2.6.66 3.95.58a5.5 5.5 0 0 0 2.66-1.17 14.7 14.7 0 0 0 3.58-3c.58-.76 1-1.63 1.52-2.45a31.54 31.54 0 0 1 2.15-2.87l4.92-6a13.83 13.83 0 0 0 1.32-1.82 12.83 12.83 0 0 0 1-2.75 21.07 21.07 0 0 0 1-4.88 18.8 18.8 0 0 0-.36-4.1 14.5 14.5 0 0 0-1-3.9c-1.06-2.27-3.66-4.1-5.67-1.77z"/><path fill="#f86d70" d="M479.05 426.37a9.6 9.6 0 0 0-3.94-7.8 11.4 11.4 0 0 0-9.68-11.1 11.07 11.07 0 0 0-21.8.58c-3.55-.8-6.8.24-7.38 2.42s1.9 5 5.64 6a10.5 10.5 0 0 0 3.62.36 11.08 11.08 0 0 0 7.62 4.75 11.37 11.37 0 0 0 8.32 8.58 9.55 9.55 0 0 0 2.57 3.55v.84a7.2 7.2 0 1 0 14.43 0 7.7 7.7 0 0 0-.7-3.2 9.64 9.64 0 0 0 1.32-4.97z"/><path d="M438.64 410.93c.6-2.18 3.83-3.22 7.37-2.42a11.26 11.26 0 0 1 11-9.47h.74a10.84 10.84 0 0 0-3.14-.47 11.26 11.26 0 0 0-11 9.48c-3.54-.8-6.78.24-7.37 2.42s1.9 5 5.64 6a11 11 0 0 0 2.14.37c-3.56-1.07-5.95-3.67-5.36-5.9zm27.73 24.03a7.52 7.52 0 0 1 0-.82 9.34 9.34 0 0 1-2.57-3.55 11.34 11.34 0 0 1-8.32-8.6 11.05 11.05 0 0 1-7.63-4.74 9.6 9.6 0 0 1-2.13-.06 11.1 11.1 0 0 0 7.35 4.37 11.37 11.37 0 0 0 8.32 8.58 9.55 9.55 0 0 0 2.56 3.55v.83a7.34 7.34 0 0 0 7.17 7.46 7.46 7.46 0 0 1-4.76-7.04z" opacity=".1"/><ellipse cx="505.04" cy="584.74" fill="#fbbebe" rx="1.31" ry="1.75" transform="translate(-302.82 261.95) rotate(-37.22)"/></svg>