<svg xmlns="http://www.w3.org/2000/svg" width="938" height="435.27" xmlns:xlink="http://www.w3.org/1999/xlink"><defs><linearGradient id="a" x1="306" x2="306" y1="619" y2="328" gradientUnits="userSpaceOnUse"><stop offset="0" stop-color="#808080" stop-opacity=".25"/><stop offset=".54" stop-color="#808080" stop-opacity=".12"/><stop offset="1" stop-color="#808080" stop-opacity=".1"/></linearGradient><linearGradient id="b" x1="722.61" x2="722.61" y1="411.26" y2="295.87" xlink:href="#a"/><linearGradient id="c" x1="832.3" x2="832.3" y1="300.61" y2="232.85" xlink:href="#a"/><linearGradient id="d" x1="938.33" x2="938.33" y1="372.89" y2="303.17" xlink:href="#a"/><linearGradient id="e" x1="843.27" x2="843.27" y1="475.46" y2="409" xlink:href="#a"/><linearGradient id="f" x1="754.6" x2="754.6" y1="503.32" y2="434.16" xlink:href="#a"/><linearGradient id="g" x1="754.6" x2="754.6" y1="610.26" y2="541.1" xlink:href="#a"/><linearGradient id="h" x1="906.34" x2="906.34" y1="668.12" y2="598.42" xlink:href="#a"/><linearGradient id="i" x1="1002.31" x2="1002.31" y1="597.39" y2="455.26" xlink:href="#a"/><linearGradient id="j" x1="265.81" x2="265.81" y1="579.26" y2="482.51" gradientTransform="translate(-164.4 122.26) rotate(-19.56)" xlink:href="#a"/></defs><title>email capture</title><path fill="url(#a)" d="M279.7 395.15h197.3v-67.15h-197.3c-79.6 0-144.7 65.47-144.7 145.5 0 80 65.1 145.5 144.7 145.5h197.3v-67.15h-197.3a77.1 77.1 0 0 1-55-23.07 78.05 78.05 0 0 1 0-110.55 77.1 77.1 0 0 1 55-23.08z" transform="translate(-135 -232.85)" opacity=".5"/><path fill="#535461" d="M91.18 294.97a77 77 0 0 1 54.32-131.32h121v-66h-121c-78.65 0-143 64.35-143 143s64.35 143 143 143h121v-66h-121a76.4 76.4 0 0 1-54.32-22.68z"/><path fill="#e0e0e0" d="M265.5 317.65h75v66h-75zm0-220h75v66h-75z"/><path fill="url(#b)" d="M743 382.26c25.3 0 37-13.58 37-31.78 0-31.78-25.6-54.6-57.4-54.6a57.7 57.7 0 0 0 0 115.38 56.74 56.74 0 0 0 32.67-10.7 4.36 4.36 0 0 0 1.78-2.85 2.85 2.85 0 0 0-.9-2.65 3.62 3.62 0 0 0-5.26.62c-2.1 2.76-8.38 7.43-26.93 7.85-28.07.64-51.56-21.7-51.65-49.8-.1-27.84 22.78-49.83 50.3-50.14s49.66 19.13 49.66 46.28c0 17.28-12 25.3-26.53 25-4.63.3-5.55-1.54-4.94-8 .52-5.32 5.6-27.5 7.4-35.26a4.3 4.3 0 0 0-4.32-5.3h-.3a4.28 4.28 0 0 0-3.75 3.75 32.62 32.62 0 0 0-.26 3.76c-2.78-5.54-9.26-9.86-17-10.17-16.35.3-30.54 15.12-31.16 36.72 0 14.5 7.72 22.83 21 22.83 9.27 0 16-5.55 19.76-10.8.02 0-.3 9.26 10.84 9.88zm-29.3-6.48c-8.34 0-13.28-6.17-13.28-16 0-17 11.42-27.77 22.2-27.77 9.57 0 13.28 6.5 13.6 15.13-.03 13.87-8.98 28.65-22.55 28.65z" transform="translate(-135 -232.85)" opacity=".5"/><path fill="#6c63ff" d="M607.07 148.15c24.18 0 35.38-13 35.38-30.37 0-30.37-24.47-52.2-54.84-52.2a55.14 55.14 0 0 0 0 110.3 54.22 54.22 0 0 0 31.22-10.22 4.16 4.16 0 0 0 1.7-2.73 2.72 2.72 0 0 0-.84-2.54 3.46 3.46 0 0 0-5 .58c-2 2.63-8 7.1-25.73 7.5-26.83.6-49.27-20.75-49.36-47.6-.1-26.6 21.76-47.62 48.05-47.9s47.47 18.27 47.47 44.22c0 16.5-11.5 24.18-25.36 23.88-4.42.3-5.3-1.47-4.72-7.67.48-5.08 5.34-26.27 7.07-33.68a4.1 4.1 0 0 0-4.12-5.06h-.3a4.1 4.1 0 0 0-3.57 3.6 31.17 31.17 0 0 0-.24 3.6c-2.65-5.32-8.85-9.45-16.22-9.74-15.63.3-29.2 14.45-29.78 35.1 0 13.85 7.37 21.8 20.05 21.8 8.86 0 15.34-5.3 18.88-10.3-.03-.02-.32 8.83 10.3 9.43zm-28-6.2c-8 0-12.68-5.9-12.68-15.32 0-16.22 10.9-26.54 21.22-26.54 9.14 0 12.68 6.18 13 14.44-.03 13.25-8.62 27.4-21.56 27.4z"/><path fill="url(#c)" d="M844.26 283.58c14.86 0 21.74-8 21.74-18.66 0-18.66-15-32.07-33.7-32.07a33.88 33.88 0 0 0 0 67.76 33.32 33.32 0 0 0 19.18-6.27 2.56 2.56 0 0 0 1-1.68 1.67 1.67 0 0 0-.52-1.56 2.13 2.13 0 0 0-3.1.35c-1.23 1.62-4.92 4.36-15.8 4.6a29.54 29.54 0 0 1-30.34-29.23c-.05-16.35 13.38-29.27 29.53-29.45s29.17 11.23 29.17 27.18c0 10.15-7.07 14.86-15.58 14.68-2.72.18-3.26-.9-2.9-4.7.3-3.13 3.28-16.16 4.34-20.7a2.52 2.52 0 0 0-2.54-3.12h-.18a2.5 2.5 0 0 0-2.2 2.2 19.15 19.15 0 0 0-.14 2.22 11.64 11.64 0 0 0-10-6c-9.6.18-17.94 8.88-18.3 21.56 0 8.52 4.53 13.4 12.32 13.4a14.37 14.37 0 0 0 11.6-6.33s-.1 5.47 6.42 5.83zm-17.26-3.8c-4.9 0-7.8-3.62-7.8-9.42 0-10 6.7-16.3 13-16.3 5.63 0 7.8 3.8 8 8.87.07 8.15-5.2 16.85-13.2 16.85z" transform="translate(-135 -232.85)" opacity=".5"/><path fill="#6c63ff" d="M708.65 49.88c14.1 0 20.64-7.57 20.64-17.72 0-17.72-14.3-30.44-32-30.44a32.16 32.16 0 0 0 0 64.33 31.63 31.63 0 0 0 18.2-6 2.43 2.43 0 0 0 1-1.6 1.6 1.6 0 0 0-.49-1.45 2 2 0 0 0-2.93.35c-1.17 1.54-4.67 4.14-15 4.38a28 28 0 0 1-28.8-27.75c-.04-15.52 12.7-27.78 28-28s27.73 10.7 27.73 25.84c0 9.63-6.7 14.1-14.8 13.93-2.57.17-3.1-.86-2.74-4.47.28-3 3.12-15.33 4.12-19.65a2.4 2.4 0 0 0-2.4-3h-.18a2.38 2.38 0 0 0-2.08 2.1 18.18 18.18 0 0 0-.15 2.1 11 11 0 0 0-9.47-5.68c-9.12.17-17 8.43-17.37 20.47 0 8.08 4.3 12.73 11.7 12.73a13.64 13.64 0 0 0 11-6s-.17 5.18 6.02 5.53zm-16.34-3.6c-4.63 0-7.4-3.45-7.4-8.95 0-9.46 6.37-15.48 12.4-15.48 5.32 0 7.4 3.6 7.56 8.43 0 7.73-4.98 16-12.55 16z"/><path fill="url(#d)" d="M950.63 355.36c15.28 0 22.37-8.2 22.37-19.2 0-19.2-15.47-33-34.67-33a34.86 34.86 0 0 0 0 69.7 34.28 34.28 0 0 0 19.73-6.45 2.63 2.63 0 0 0 1.08-1.72 1.72 1.72 0 0 0-.54-1.6 2.2 2.2 0 0 0-3.18.37c-1.27 1.66-5.06 4.5-16.27 4.74a30.4 30.4 0 0 1-31.2-30.1c-.07-16.8 13.75-30.1 30.37-30.3s30 11.57 30 28c0 10.45-7.27 15.3-16 15.1-2.8.2-3.36-.92-3-4.84.3-3.2 3.38-16.6 4.47-21.3a2.6 2.6 0 0 0-2.62-3.2h-.2a2.58 2.58 0 0 0-2.25 2.27 19.7 19.7 0 0 0-.16 2.27 12 12 0 0 0-10.25-6.15c-9.88.2-18.45 9.13-18.83 22.18 0 8.76 4.65 13.8 12.67 13.8a14.78 14.78 0 0 0 11.93-6.53s-.18 5.6 6.53 5.96zm-17.7-3.9c-5 0-8-3.74-8-9.7 0-10.25 6.9-16.78 13.4-16.78 5.8 0 8 3.9 8.2 9.13 0 8.4-5.4 17.35-13.6 17.35z" transform="translate(-135 -232.85)" opacity=".5"/><path fill="#6c63ff" d="M814.68 121.15c14.1 0 20.64-7.57 20.64-17.72 0-17.72-14.28-30.44-32-30.44a32.16 32.16 0 0 0 0 64.32 31.63 31.63 0 0 0 18.2-6 2.43 2.43 0 0 0 1-1.6 1.6 1.6 0 0 0-.48-1.47 2 2 0 0 0-2.94.35c-1.17 1.54-4.67 4.14-15 4.38a28 28 0 0 1-28.8-27.76c-.04-15.52 12.7-27.78 28-28s27.7 10.77 27.7 25.94c0 9.63-6.7 14.1-14.8 13.93-2.57.17-3.1-.86-2.74-4.47.28-3 3.12-15.32 4.12-19.64a2.4 2.4 0 0 0-2.4-3h-.18a2.38 2.38 0 0 0-2.08 2.1 18.18 18.18 0 0 0-.15 2.1 11 11 0 0 0-9.46-5.7c-9.1.18-17 8.44-17.36 20.48 0 8.08 4.3 12.73 11.7 12.73a13.64 13.64 0 0 0 11-6s-.15 5.16 6.04 5.48zm-16.34-3.6c-4.64 0-7.4-3.45-7.4-8.95 0-9.46 6.36-15.48 12.38-15.48 5.33 0 7.4 3.6 7.57 8.43 0 7.76-5 16-12.56 16z"/><path fill="url(#e)" d="M855 458.76c14.57 0 21.32-7.82 21.32-18.3 0-18.3-14.75-31.45-33.05-31.45a33.23 33.23 0 0 0 0 66.47 32.68 32.68 0 0 0 18.8-6.16 2.5 2.5 0 0 0 1-1.64 1.64 1.64 0 0 0-.5-1.53 2.1 2.1 0 0 0-3 .36c-1.2 1.58-4.82 4.27-15.5 4.5a29 29 0 0 1-29.76-28.67c-.04-16 13.13-28.7 29-28.88s28.62 11 28.62 26.66c0 10-6.93 14.58-15.28 14.4-2.67.18-3.2-.9-2.84-4.62.2-3.07 3.2-15.88 4.2-20.3a2.47 2.47 0 0 0-2.5-3.06h-.17a2.46 2.46 0 0 0-2.15 2.16 18.8 18.8 0 0 0-.15 2.17 11.4 11.4 0 0 0-9.77-5.86c-9.42.17-17.6 8.7-17.95 21.14 0 8.35 4.45 13.15 12.1 13.15a14.1 14.1 0 0 0 11.36-6.23s-.16 5.33 6.24 5.7zm-16.9-3.76c-4.8 0-7.63-3.55-7.63-9.24 0-9.77 6.58-16 12.8-16 5.5 0 7.63 3.73 7.8 8.7.02 8.04-5.14 16.54-12.96 16.54z" transform="translate(-135 -232.85)" opacity=".5"/><path fill="#6c63ff" d="M719.62 225.38c14.1 0 20.64-7.57 20.64-17.72 0-17.72-14.28-30.44-32-30.44a32.16 32.16 0 0 0 0 64.33 31.63 31.63 0 0 0 18.2-6 2.43 2.43 0 0 0 1-1.6 1.6 1.6 0 0 0-.48-1.47 2 2 0 0 0-2.94.35c-1.17 1.54-4.67 4.14-15 4.38a28 28 0 0 1-28.8-27.75c-.04-15.52 12.7-27.78 28-28s27.76 10.69 27.76 25.86c0 9.63-6.7 14.1-14.8 13.93-2.57.17-3.1-.86-2.74-4.47.28-3 3.12-15.33 4.12-19.65a2.4 2.4 0 0 0-2.4-3h-.18a2.38 2.38 0 0 0-2.08 2.1 18.18 18.18 0 0 0-.15 2.1 11 11 0 0 0-9.46-5.7c-9.1.18-17 8.44-17.36 20.48 0 8.1 4.3 12.74 11.7 12.74a13.64 13.64 0 0 0 11-6s-.2 5.2 5.98 5.54zm-16.34-3.6c-4.64 0-7.4-3.45-7.4-8.95 0-9.46 6.36-15.48 12.38-15.48 5.33 0 7.4 3.6 7.57 8.43 0 7.73-4.98 15.98-12.55 15.98z"/><path fill="url(#f)" d="M766.8 485.94c15.17 0 22.2-8.14 22.2-19 0-19-15.35-32.73-34.4-32.73a34.58 34.58 0 0 0 0 69.17 34 34 0 0 0 19.57-6.4 2.6 2.6 0 0 0 1.07-1.72 1.7 1.7 0 0 0-.53-1.6 2.17 2.17 0 0 0-3.15.38c-1.26 1.65-5 4.45-16.14 4.7a30.15 30.15 0 0 1-31-29.84c-.04-16.7 13.66-29.88 30.15-30.07s29.77 11.47 29.77 27.74c0 10.36-7.2 15.16-15.9 15-2.77.18-3.33-.92-3-4.8.3-3.2 3.35-16.5 4.43-21.14a2.57 2.57 0 0 0-2.6-3.18h-.18a2.56 2.56 0 0 0-2.24 2.25 19.55 19.55 0 0 0-.16 2.26 11.88 11.88 0 0 0-10.17-6.1c-9.8.18-18.3 9.06-18.68 22 0 8.7 4.62 13.68 12.57 13.68a14.67 14.67 0 0 0 11.94-6.54s-.2 5.57 6.47 5.94zm-17.56-3.88c-5 0-8-3.7-8-9.62 0-10.17 6.84-16.64 13.3-16.64 5.74 0 8 3.88 8.15 9.06.04 8.32-5.32 17.2-13.46 17.2z" transform="translate(-135 -232.85)" opacity=".5"/><path fill="#6c63ff" d="M631 251.88c14.1 0 20.64-7.57 20.64-17.72 0-17.72-14.28-30.44-32-30.44a32.16 32.16 0 0 0 0 64.33 31.63 31.63 0 0 0 18.2-6 2.43 2.43 0 0 0 1-1.6 1.6 1.6 0 0 0-.48-1.47 2 2 0 0 0-2.94.35c-1.17 1.54-4.67 4.14-15 4.38a28 28 0 0 1-28.8-27.75c-.04-15.52 12.7-27.78 28-28s27.7 10.66 27.7 25.8c0 9.63-6.7 14.1-14.8 13.93-2.57.17-3.1-.86-2.74-4.47.28-3 3.12-15.32 4.12-19.64a2.4 2.4 0 0 0-2.4-3h-.18a2.38 2.38 0 0 0-2.08 2.1 18.18 18.18 0 0 0-.15 2.1 11 11 0 0 0-9.47-5.7c-9.12.18-17 8.44-17.37 20.48 0 8.08 4.3 12.73 11.7 12.73a13.64 13.64 0 0 0 11-6s-.2 5.27 6.04 5.6zm-16.34-3.6c-4.64 0-7.4-3.45-7.4-8.95 0-9.46 6.36-15.48 12.38-15.48 5.33 0 7.4 3.6 7.57 8.43-.03 7.74-5.02 16-12.58 16z"/><path fill="url(#g)" d="M766.8 592.88c15.17 0 22.2-8.14 22.2-19 0-19-15.35-32.73-34.4-32.73a34.58 34.58 0 0 0 0 69.16 34 34 0 0 0 19.57-6.4 2.6 2.6 0 0 0 1.07-1.7 1.7 1.7 0 0 0-.53-1.6 2.17 2.17 0 0 0-3.15.37c-1.26 1.65-5 4.45-16.14 4.7a30.15 30.15 0 0 1-31-29.84c-.04-16.7 13.66-29.87 30.15-30.06s29.77 11.47 29.77 27.74c0 10.37-7.2 15.17-15.9 15-2.77.2-3.33-.9-3-4.8.3-3.2 3.35-16.48 4.43-21.13a2.57 2.57 0 0 0-2.6-3.18h-.18a2.56 2.56 0 0 0-2.24 2.24 19.55 19.55 0 0 0-.16 2.26 11.88 11.88 0 0 0-10.17-6.1c-9.8.18-18.3 9.06-18.68 22 0 8.7 4.62 13.68 12.57 13.68a14.67 14.67 0 0 0 11.94-6.48s-.2 5.5 6.47 5.88zm-17.55-3.88c-5 0-8-3.7-8-9.62 0-10.17 6.84-16.64 13.3-16.64 5.74 0 8 3.88 8.15 9.06.04 8.32-5.32 17.2-13.46 17.2z" transform="translate(-135 -232.85)" opacity=".5"/><path fill="#6c63ff" d="M631 358.83c14.1 0 20.64-7.57 20.64-17.72 0-17.7-14.28-30.43-32-30.43a32.16 32.16 0 0 0 0 64.33 31.63 31.63 0 0 0 18.2-6 2.43 2.43 0 0 0 1-1.6 1.6 1.6 0 0 0-.48-1.47 2 2 0 0 0-2.94.35c-1.17 1.54-4.67 4.14-15 4.38a28 28 0 0 1-28.8-27.76c-.04-15.52 12.7-27.78 28-28s27.7 10.66 27.7 25.8c0 9.63-6.7 14.1-14.8 13.93-2.57.17-3.1-.86-2.74-4.47.28-3 3.12-15.33 4.12-19.65a2.4 2.4 0 0 0-2.4-3h-.18a2.38 2.38 0 0 0-2.08 2.1 18.18 18.18 0 0 0-.15 2.1 11 11 0 0 0-9.5-5.55c-9.12.17-17 8.43-17.37 20.47 0 8.08 4.3 12.73 11.7 12.73a13.64 13.64 0 0 0 11-6s-.17 5.13 6.07 5.48zm-16.34-3.6c-4.64 0-7.4-3.45-7.4-8.95 0-9.46 6.36-15.48 12.38-15.48 5.33 0 7.4 3.6 7.57 8.43-.03 7.73-5.02 16-12.58 16z"/><path fill="url(#h)" d="M918.64 650.6c15.28 0 22.36-8.2 22.36-19.2 0-19.18-15.47-33-34.66-33a34.85 34.85 0 0 0 0 69.7 34.27 34.27 0 0 0 19.73-6.45 2.63 2.63 0 0 0 1.08-1.73 1.72 1.72 0 0 0-.54-1.6 2.2 2.2 0 0 0-3.17.37c-1.27 1.65-5.06 4.48-16.26 4.73a30.4 30.4 0 0 1-31.18-30.05c-.06-16.82 13.76-30.1 30.38-30.3s30 11.56 30 28c0 10.45-7.27 15.3-16 15.1-2.8.2-3.35-.93-3-4.85.3-3.2 3.38-16.6 4.47-21.3a2.6 2.6 0 0 0-2.6-3.2h-.2a2.58 2.58 0 0 0-2.26 2.28 19.7 19.7 0 0 0-.17 2.27 12 12 0 0 0-10.25-6.15c-9.88.2-18.45 9.13-18.82 22.18 0 8.76 4.66 13.8 12.67 13.8a14.78 14.78 0 0 0 11.93-6.53s-.23 5.56 6.48 5.93zm-17.7-3.9c-5 0-8-3.74-8-9.7 0-10.25 6.9-16.77 13.42-16.77 5.78 0 8 3.9 8.2 9.13-.02 8.38-5.43 17.33-13.63 17.33z" transform="translate(-135 -232.85)" opacity=".5"/><path fill="#6c63ff" d="M782.7 416.4c14.1 0 20.63-7.56 20.63-17.7 0-17.73-14.28-30.45-32-30.45a32.16 32.16 0 0 0 0 64.33 31.63 31.63 0 0 0 18.2-6 2.43 2.43 0 0 0 1-1.6 1.6 1.6 0 0 0-.48-1.47 2 2 0 0 0-2.94.36c-1.16 1.54-4.66 4.14-15 4.38a28 28 0 0 1-28.78-27.76c-.05-15.52 12.7-27.78 28-28s27.67 10.73 27.67 25.86c0 9.63-6.7 14.1-14.8 13.93-2.57.17-3.1-.86-2.74-4.47.28-3 3.12-15.32 4.12-19.64a2.4 2.4 0 0 0-2.4-3h-.18a2.38 2.38 0 0 0-2.08 2.1 18.18 18.18 0 0 0-.15 2.1 11 11 0 0 0-9.46-5.7c-9.1.18-17 8.44-17.36 20.48 0 8.08 4.3 12.73 11.7 12.73a13.64 13.64 0 0 0 11-6s-.14 5.2 6.05 5.54zm-16.35-3.6c-4.64 0-7.4-3.44-7.4-8.94 0-9.46 6.36-15.48 12.38-15.48 5.33 0 7.4 3.6 7.57 8.43 0 7.75-4.98 16-12.55 16z"/><path fill="#6c63ff" d="M724.6 315.87c10.07 0 14.74-5.4 14.74-12.65 0-12.65-10.2-21.75-22.85-21.75a23 23 0 0 0 0 45.95 22.6 22.6 0 0 0 13-4.26 1.73 1.73 0 0 0 .7-1.14 1.13 1.13 0 0 0-.35-1.06 1.44 1.44 0 0 0-2.1.25c-.83 1.1-3.33 3-10.72 3.14a19.9 19.9 0 1 1-.54-39.8c10.92-.12 19.77 7.62 19.77 18.43 0 6.88-4.8 10.07-10.57 10-1.84.12-2.2-.6-2-3.2.2-2.1 2.23-10.94 2.94-14a1.7 1.7 0 0 0-1.72-2.1h-.12a1.7 1.7 0 0 0-1.5 1.5 13 13 0 0 0-.1 1.5 7.9 7.9 0 0 0-6.75-4.06c-6.5.13-12.16 6-12.4 14.63 0 5.77 3.06 9.1 8.34 9.1a9.74 9.74 0 0 0 7.85-4.3s-.07 3.6 4.35 3.84zm-11.67-2.58c-3.32 0-5.28-2.47-5.28-6.4 0-6.76 4.55-11.06 8.85-11.06 3.8 0 5.28 2.58 5.4 6 0 5.55-3.56 11.45-8.97 11.45zm-182.11 40.97c10.07 0 14.74-5.4 14.74-12.65 0-12.64-10.2-21.74-22.85-21.74a23 23 0 0 0 0 45.95 22.6 22.6 0 0 0 13-4.25 1.73 1.73 0 0 0 .72-1.14 1.13 1.13 0 0 0-.35-1.05 1.44 1.44 0 0 0-2.1.25c-.83 1.1-3.33 3-10.72 3.13a19.9 19.9 0 1 1-.54-39.8c10.94-.12 19.8 7.62 19.8 18.43 0 6.88-4.8 10.07-10.58 10-1.84.12-2.2-.6-2-3.2.2-2.1 2.23-10.94 2.94-14a1.7 1.7 0 0 0-1.72-2.1h-.12a1.7 1.7 0 0 0-1.5 1.5 13 13 0 0 0-.1 1.5 7.9 7.9 0 0 0-6.75-4.06c-6.5.12-12.16 6-12.4 14.62 0 5.77 3.06 9.1 8.34 9.1a9.74 9.74 0 0 0 7.87-4.3s-.07 3.6 4.35 3.84zm-11.67-2.58c-3.32 0-5.28-2.46-5.28-6.4 0-6.75 4.55-11.05 8.85-11.05 3.8 0 5.28 2.58 5.4 6 0 5.55-3.56 11.45-8.97 11.45zm-12.09-168.35c10.07 0 14.74-5.4 14.74-12.65 0-12.65-10.2-21.75-22.85-21.75a23 23 0 0 0 0 45.95 22.6 22.6 0 0 0 13-4.26 1.73 1.73 0 0 0 .7-1.14 1.13 1.13 0 0 0-.34-1.06 1.44 1.44 0 0 0-2.1.25c-.82 1.1-3.32 3-10.7 3.13a19.9 19.9 0 1 1-.55-39.8c10.93-.12 19.78 7.62 19.78 18.43 0 6.88-4.8 10.07-10.57 10-1.84.12-2.2-.6-2-3.2.2-2.1 2.23-10.94 2.94-14a1.7 1.7 0 0 0-1.72-2.1h-.12a1.7 1.7 0 0 0-1.5 1.5 13 13 0 0 0-.1 1.5 7.9 7.9 0 0 0-6.75-4.06c-6.5.12-12.15 6-12.4 14.62 0 5.76 3.07 9.08 8.35 9.08a9.74 9.74 0 0 0 7.86-4.3s-.06 3.6 4.36 3.85zm-11.67-2.58c-3.33 0-5.3-2.46-5.3-6.4 0-6.75 4.56-11.05 8.86-11.05 3.8 0 5.28 2.58 5.4 6 0 5.55-3.57 11.45-8.97 11.45zm395.61 8.05c10.07 0 14.74-5.4 14.74-12.64 0-12.65-10.2-21.75-22.85-21.75a23 23 0 0 0 0 45.96 22.6 22.6 0 0 0 13-4.26 1.73 1.73 0 0 0 .7-1.14 1.13 1.13 0 0 0-.35-1.06 1.44 1.44 0 0 0-2.1.25c-.83 1.1-3.33 3-10.72 3.13a19.9 19.9 0 1 1-.54-39.8c10.92-.12 19.77 7.62 19.77 18.43 0 6.9-4.8 10.08-10.57 10-1.84.13-2.2-.6-2-3.18.2-2.12 2.23-10.95 2.94-14a1.7 1.7 0 0 0-1.72-2.1h-.12a1.7 1.7 0 0 0-1.5 1.48 13 13 0 0 0-.1 1.5 7.9 7.9 0 0 0-6.75-4.05c-6.5.12-12.16 6-12.4 14.62 0 5.77 3.06 9.1 8.34 9.1a9.74 9.74 0 0 0 7.85-4.3s-.1 3.6 4.35 3.84zm-11.67-2.57c-3.32 0-5.28-2.46-5.28-6.4 0-6.75 4.55-11.05 8.85-11.05 3.8 0 5.28 2.58 5.4 6-.04 5.56-3.6 11.45-9 11.45z" opacity=".5"/><path fill="#6c63ff" d="M526.34 234.06c5.64 0 8.26-3 8.26-7.1 0-7.08-5.7-12.17-12.8-12.17a12.87 12.87 0 0 0 0 25.72 12.65 12.65 0 0 0 7.28-2.38 1 1 0 0 0 .4-.64.63.63 0 0 0-.2-.6.8.8 0 0 0-1.18.15c-.47.6-1.87 1.66-6 1.75a11.15 11.15 0 1 1-.3-22.3c6.12-.06 11.08 4.28 11.08 10.33 0 3.85-2.68 5.64-5.92 5.57-1 .07-1.24-.34-1.1-1.8.1-1.18 1.25-6.12 1.65-7.85a1 1 0 0 0-1-1.18h-.06a1 1 0 0 0-.83.84 7.27 7.27 0 0 0-.05.85 4.42 4.42 0 0 0-3.78-2.27c-3.65.07-6.8 3.37-6.95 8.2 0 3.22 1.72 5.08 4.68 5.08a5.46 5.46 0 0 0 4.4-2.4 2.23 2.23 0 0 0 2.44 2.2zm-6.54-1.44c-1.86 0-3-1.38-3-3.58 0-3.78 2.55-6.2 5-6.2 2.13 0 3 1.45 3 3.38.03 3.1-1.97 6.4-5 6.4zm72.35 55.38c5.64 0 8.26-3 8.26-7.1 0-7.1-5.7-12.18-12.8-12.18a12.87 12.87 0 0 0 0 25.73 12.65 12.65 0 0 0 7.3-2.38 1 1 0 0 0 .4-.64.63.63 0 0 0-.2-.6.8.8 0 0 0-1.2.15c-.46.6-1.86 1.66-6 1.75a11.15 11.15 0 1 1-.3-22.3c6.13-.06 11.1 4.28 11.1 10.33 0 3.85-2.7 5.64-5.93 5.57-1 .07-1.24-.34-1.1-1.8.1-1.18 1.25-6.12 1.65-7.85a1 1 0 0 0-1-1.18h-.07a1 1 0 0 0-.83.84 7.27 7.27 0 0 0-.06.84 4.42 4.42 0 0 0-3.78-2.27c-3.65.08-6.8 3.38-6.95 8.2 0 3.23 1.72 5.1 4.68 5.1a5.46 5.46 0 0 0 4.4-2.42 2.23 2.23 0 0 0 2.45 2.2zm-6.54-1.45c-1.85 0-3-1.38-3-3.58 0-3.78 2.56-6.2 5-6.2 2.14 0 3 1.45 3 3.38.04 3.1-1.95 6.4-4.98 6.4zm203.06-64.4c5.64 0 8.26-3 8.26-7.1 0-7.08-5.7-12.17-12.8-12.17a12.87 12.87 0 0 0 0 25.73 12.65 12.65 0 0 0 7.28-2.37 1 1 0 0 0 .4-.64.63.63 0 0 0-.2-.6.8.8 0 0 0-1.17.14c-.47.6-1.87 1.66-6 1.75a11.15 11.15 0 1 1-.3-22.3c6.12-.07 11.08 4.27 11.08 10.32 0 3.85-2.67 5.64-5.9 5.57-1 .06-1.25-.35-1.1-1.8.1-1.2 1.24-6.13 1.64-7.86a1 1 0 0 0-1-1.18h-.07a1 1 0 0 0-.83.84 7.27 7.27 0 0 0-.06.84 4.42 4.42 0 0 0-3.78-2.27c-3.65.07-6.8 3.37-6.95 8.2 0 3.22 1.72 5.08 4.68 5.08a5.46 5.46 0 0 0 4.4-2.4 2.23 2.23 0 0 0 2.44 2.2zm-6.54-1.44c-1.86 0-3-1.37-3-3.57 0-3.78 2.55-6.2 5-6.2 2.13 0 3 1.45 3 3.38.03 3.13-1.96 6.43-5 6.43zm-125.99-55.21c5.64 0 8.26-3 8.26-7.08 0-7.1-5.7-12.18-12.8-12.18a12.87 12.87 0 0 0 0 25.73 12.65 12.65 0 0 0 7.28-2.38 1 1 0 0 0 .4-.65.63.63 0 0 0-.2-.6.8.8 0 0 0-1.18.15c-.47.6-1.87 1.66-6 1.75a11.15 11.15 0 1 1-.3-22.3c6.12-.06 11.08 4.28 11.08 10.33 0 3.85-2.68 5.64-5.92 5.57-1 .07-1.24-.34-1.1-1.8.1-1.18 1.25-6.12 1.65-7.85a1 1 0 0 0-1-1.18h-.06a1 1 0 0 0-.83.84 7.27 7.27 0 0 0-.05.84 4.42 4.42 0 0 0-3.78-2.27c-3.65.07-6.8 3.37-6.95 8.2 0 3.22 1.72 5.08 4.68 5.08a5.46 5.46 0 0 0 4.4-2.4 2.23 2.23 0 0 0 2.44 2.2zm-6.54-1.43c-1.86 0-3-1.38-3-3.58 0-3.8 2.55-6.2 5-6.2 2.13 0 3 1.44 3 3.37.02 3.1-1.97 6.4-5 6.4z" opacity=".3"/><path fill="#6c63ff" d="M724.6 122.1c10.07 0 14.74-5.42 14.74-12.66 0-12.65-10.2-21.75-22.85-21.75a23 23 0 0 0 0 45.94 22.6 22.6 0 0 0 13-4.26 1.73 1.73 0 0 0 .7-1.14 1.13 1.13 0 0 0-.35-1.06 1.44 1.44 0 0 0-2.1.25c-.83 1.1-3.33 3-10.72 3.13a19.9 19.9 0 1 1-.54-39.8c10.92-.12 19.77 7.62 19.77 18.43 0 6.87-4.8 10.06-10.57 10-1.84.1-2.2-.62-2-3.2.2-2.12 2.23-10.95 2.94-14a1.7 1.7 0 0 0-1.72-2.1h-.12a1.7 1.7 0 0 0-1.5 1.48 13 13 0 0 0-.1 1.5 7.9 7.9 0 0 0-6.75-4.05c-6.5.12-12.16 6-12.4 14.62 0 5.77 3.06 9.1 8.34 9.1a9.74 9.74 0 0 0 7.85-4.3s-.07 3.6 4.35 3.84zm-11.67-2.6c-3.32 0-5.28-2.45-5.28-6.38 0-6.76 4.55-11.06 8.85-11.06 3.8 0 5.28 2.58 5.4 6 0 5.55-3.56 11.45-8.97 11.45z" opacity=".5"/><path fill="url(#i)" d="M1027.4 561.67c31.16 0 45.6-16.72 45.6-39.14 0-39.14-31.54-67.27-70.7-67.27s-70.68 31.92-70.68 71.07 31.54 71.07 70.7 71.07a69.9 69.9 0 0 0 40.22-13.17 5.37 5.37 0 0 0 2.2-3.52 3.5 3.5 0 0 0-1.1-3.26 4.46 4.46 0 0 0-6.48.77c-2.58 3.4-10.3 9.16-33.16 9.68-34.58.78-63.5-26.75-63.62-61.33-.1-34.3 28.06-61.4 61.95-61.77s61.2 23.56 61.2 57c0 21.28-14.83 31.16-32.7 30.78-5.7.38-6.83-1.9-6.07-9.88.62-6.55 6.9-33.87 9.1-43.43a5.3 5.3 0 0 0-5.3-6.53h-.4a5.27 5.27 0 0 0-4.6 4.62 40.18 40.18 0 0 0-.3 4.63c-3.43-6.84-11.4-12.16-20.9-12.54-20.15.38-37.63 18.62-38.4 45.22 0 17.86 9.5 28.12 25.85 28.12 11.4 0 19.77-6.84 24.33-13.3-.04.04-.42 11.44 13.27 12.2zm-36.1-8c-10.26 0-16.34-7.6-16.34-19.76 0-20.9 14.06-34.2 27.36-34.2 11.78 0 16.34 8 16.72 18.63-.04 17.1-11.04 35.36-27.75 35.36z" transform="translate(-135 -232.85)" opacity=".5"/><path fill="#6c63ff" d="M891.5 327.57c30.07 0 44-16.13 44-37.76 0-37.75-30.42-64.88-68.18-64.88s-68.2 30.8-68.2 68.55 30.44 68.55 68.2 68.55a67.42 67.42 0 0 0 38.8-12.7 5.18 5.18 0 0 0 2.12-3.4 3.38 3.38 0 0 0-1.05-3.16 4.3 4.3 0 0 0-6.27.74c-2.5 3.27-9.95 8.83-32 9.33-33.36.76-61.26-25.8-61.37-59.16-.1-33.1 27.06-59.22 59.76-59.6s59 22.74 59 55c0 20.54-14.3 30.07-31.53 29.7-5.5.37-6.6-1.83-5.88-9.53.6-6.32 6.64-32.67 8.78-41.9a5.1 5.1 0 0 0-5.13-6.28h-.37a5.08 5.08 0 0 0-4.44 4.46 38.75 38.75 0 0 0-.3 4.47c-3.3-6.6-11-11.74-20.17-12.1-19.44.36-36.3 18-37 43.62 0 17.23 9.15 27.13 24.92 27.13 11 0 19.06-6.6 23.46-12.83 0 .02-.37 11 12.83 11.75zm-34.82-7.7c-9.9 0-15.76-7.33-15.76-19.06 0-20.15 13.56-33 26.4-33 11.36 0 15.76 7.7 16.13 18 0 16.47-10.64 34.07-26.77 34.07z"/><path stroke="#535461" stroke-width="3" stroke-miterlimit="10" d="M364.35 123.15c.87-4.23 6.45-5.8 10.56-4.48s7.3 4.52 11 6.8 8.67 3.6 12.15 1c3.34-2.44 3.8-7.28 6.45-10.45s7.54-4.3 11.77-3.58 8.07 2.86 11.8 5l22.92 12.93m-94.65 17.78c.87-4.23 6.45-5.8 10.56-4.48s7.3 4.52 11 6.8 8.67 3.6 12.15 1c3.34-2.44 3.8-7.28 6.45-10.45s7.54-4.3 11.77-3.58 8.07 2.86 11.8 5l22.92 12.93m-78.65 202.78c.87 4.23 6.45 5.8 10.56 4.48s7.3-4.52 11-6.8 8.67-3.6 12.15-1c3.34 2.44 3.8 7.28 6.45 10.45s7.54 4.3 11.77 3.58 8.07-2.86 11.8-5l22.92-12.93m-94.65-17.78c.87 4.23 6.45 5.8 10.56 4.48s7.3-4.52 11-6.8 8.67-3.6 12.15-1c3.34 2.44 3.8 7.28 6.45 10.45s7.54 4.3 11.77 3.58 8.07-2.86 11.8-5l22.92-12.93" opacity=".2" fill="none"/><path fill="url(#j)" d="M296.37 567.28a5.86 5.86 0 0 0-2.45 2.44l-1.26-1.43c-.18-1.56-4-33.53-11.6-33.7-5.84-.15-12.15-.64-16.38 1l-.22-.63-2.26-6.35 6-2.13-.1-.26 4.75-1.68c.68-1-.8-.95-2.37-.7a1.43 1.43 0 0 0 .08-.28l2.75-16.3s.74-3.5-.87-4.46l-1.5 4.46-3 11.2s-8.62-4.33-13.78-6.17a7.43 7.43 0 0 0-1.9-.6c-.9-.22-1.54-.28-1.78-.1a7.4 7.4 0 0 0-2 .42l-.5.18-.27-.77-.1-.25a8.48 8.48 0 0 0 3.3-6.43 9.53 9.53 0 0 0-2.08-8.07.55.55 0 0 0 .18-.15.8.8 0 0 0 0-.8 5.9 5.9 0 0 0-4.36-3.35 6.3 6.3 0 0 1-2.22-.5c-.57-.32-1-.92-1.6-1.13a2.5 2.5 0 0 0-2.16.58 8.15 8.15 0 0 0-1.83 1.82 10.48 10.48 0 0 1-1.8 2.3c-.55.44-1.23.67-1.8 1.1a3.44 3.44 0 0 0-1.35 2.77 4.5 4.5 0 0 0 .4 1.65 9.47 9.47 0 0 0-.18 2.35l-.1.13.1-.1a9.52 9.52 0 0 0 5.78 8.24 8.48 8.48 0 0 0 4.8 1.35l.1.25.34 1a10 10 0 0 0-2.6 2.34l-.18.22c-.7 1-3 4.34-2 6.77q0 .14.1.3a10.08 10.08 0 0 0 .52 2.26l5.66 15.93.2.58.5 1.42a9.35 9.35 0 0 0 3.84 4.8c3.52.34 11.08 2.65 11.8 2.35l9.42 3.32-5 23s-2.8 4.35.54 4.3a68.4 68.4 0 0 0 9.72-1.5s.38-2.1-1.26-2.36a5.86 5.86 0 0 0-3.37.78l-.27-1.58s14.1-24.66 7.75-29.14c-1.22-.86-2.45-1.75-3.68-2.62l3.3-.84 10.46 27.13.08-.06c0 .6.16 5.13 2.78 3.43a68.4 68.4 0 0 0 7.46-6.4s-1-2-2.5-1.35zm-29-42.78l-6.6.4-1.77-5.13 9 4.6z" transform="translate(-135 -232.85)" opacity=".7"/><circle cx="241.94" cy="503.53" r="9.31" transform="translate(-289.62 -122.79) rotate(-19.56)"/><path fill="#6c63ff" d="M124.07 287.24l9.22 4.73a1.4 1.4 0 0 0 2-1l2.7-15.95h-2.33l-3 10.94s-16.6-7.4-18-6.24l9.4 7.52z"/><path stroke="#bdbdbd" stroke-width="5" stroke-miterlimit="10" d="M119.24 345.5m.76-29.1" fill="none"/><path fill="#6c63ff" d="M112.28 280a8.77 8.77-19.56 0 1 11.2 5.3l5.9 16.6-19.5 6.93-4.83-13.62a11.92 11.92-19.56 0 1 7.23-15.2z"/><path fill="#4d8af0" d="M133.12 312.7l-8.9 3.16a11.25 11.25 0 0 1-14.36-6.83l19.5-6.88z"/><path d="M105.94 292.3l13.9 6.2 13.16-4.7-.6-1.7-12.5.74-11.07-6.76c-1.76-1.08-2.1 1.14-2.82 3.07-.64 1.78-1.8 2.4-.06 3.16z" opacity=".05"/><path fill="#6c63ff" d="M105.7 292l14.05 6.24 13.16-4.68-.6-1.7-12.5.73-10.9-6.68c-1.9-1.15-2.2 1.13-2.9 3.22-.53 1.66-1.9 2.15-.3 2.85z"/><path fill="#fda57d" d="M132.3 291.86s6.5-1.76 5.24.06l-4.63 1.65zm3.35-16.83s-.1-5.3 1.47-4.36l.86 4.36z"/><path d="M109.86 309.03l.2.57 19.5-6.9-.2-.6-19.5 6.93z" opacity=".05"/><path fill="#4d8af0" d="M129 314.92l13.54-3.46 10.23 26.52 4.15-3.2s-3.76-32.83-11.36-33-16-1-19.38 3.3l2.82 9.84z"/><path d="M126.9 306.4s8.5 1.1 10.93 4.9" opacity=".1"/><path fill="#4d8af0" d="M121.87 316.56l13.13 4.64-4.92 22.48 5.23-.35s13.8-24.1 7.6-28.5-12.8-9.72-17.96-8l-3.07 9.73z"/><path d="M128.38 283.92l4.12 3.48.18-1.44-4.3-2.04z" opacity=".05"/><path fill="#333" d="M130.13 343.68s-2.74 4.27.53 4.2a66.9 66.9 0 0 0 9.5-1.45s.37-2.05-1.23-2.3a5.73 5.73 0 0 0-3.3.75l-.28-1.55zm22.74-5.83s0 5.2 2.72 3.4a66.9 66.9 0 0 0 7.28-6.25s-.77-1.94-2.27-1.3a5.73 5.73 0 0 0-2.4 2.38l-1.23-1.4z"/><rect width="5.17" height="7.76" x="242.97" y="509.07" fill="#fda57d" rx="2.59" ry="2.59" transform="translate(-292.57 -121.03) rotate(-19.56)"/><path d="M109.35 276.7a2.6 2.6 0 0 0-1.57 3.3l.3.82a8.28 8.28 0 0 0 4.86-1.73l-.3-.84a2.6 2.6 0 0 0-3.3-1.57z" opacity=".05"/><circle cx="242.79" cy="505.15" r="8.28" fill="#fda57d" transform="translate(-290.12 -122.41) rotate(-19.56)"/><path d="M99.86 274.72a2.9 2.9 0 0 0 2.44-2.8c.3-2.6.73-4.12 5.7-4.4s5.95-.47 5.72-1.78c-.15-.9-2.5-2.38-3.95-3.23a3.06 3.06 0 0 0-2.54-.16l-5.08 1.8-2.55 2.5-1.6 2.84.48 2.9z" opacity=".05"/><path d="M99.78 274.48a2.9 2.9 0 0 0 2.44-2.8c.3-2.6.73-4.12 5.7-4.4s5.95-.47 5.72-1.78c-.15-.9-2.5-2.38-3.95-3.23a3.06 3.06 0 0 0-2.55-.17l-5.1 1.8-2.54 2.5-1.6 2.84.5 2.9z"/><ellipse cx="235.56" cy="507.03" fill="#fda57d" rx=".84" ry="1.68" transform="translate(-291.16 -124.72) rotate(-19.56)"/><path d="M98.55 270.3a6.66 6.66 0 0 1-1.12-3.05 3.36 3.36 0 0 1 1.33-2.7l1.75-1.07a10.25 10.25 0 0 0 1.77-2.26 8 8 0 0 1 1.8-1.78 2.45 2.45 0 0 1 2.12-.56c.6.2 1 .8 1.55 1.12a6.15 6.15 0 0 0 2.17.47 5.76 5.76 0 0 1 4.26 3.26.8.8 0 0 1 0 .8.84.84 0 0 1-.42.23c-3.13 1.06-6.27 2.13-9.47 2.94a23.78 23.78 0 0 0-3 .87 10.07 10.07 0 0 0-3.85 2.72"/></svg>