<svg xmlns="http://www.w3.org/2000/svg" width="1013.449" height="610.281" viewBox="0 0 1013.44925 610.28138"><title>message sent</title><path fill="#f2f2f2" d="M689.47 348.4l8.7-1.5 2.48-.48a71.34 71.34 0 0 1 45.55-131.5l-11.4 27.08 27-23.57a1.22 1.22 0 0 1 .18.07 71.34 71.34 0 0 1 43.6 91c-.46 1.27-1 2.5-1.5 3.74 7.6-3.83 14.9-8.28 20.87-14 12.07-11.55 18.68-27.5 26.07-47.16 14.63-38.96 28.72-78.47 42.25-118.07a71.3 71.3 0 0 1-33.34-86.36c.73-2.06 1.57-4.04 2.46-6 .2-.48.43-.96.67-1.44.9-1.87 1.86-3.7 2.9-5.45l.54-.85q1.38-2.22 2.9-4.3c.38-.53.75-1.05 1.14-1.56 1.15-1.5 2.34-2.96 3.6-4.35.4-.47.85-.9 1.28-1.36q1.44-1.52 2.97-2.95c.52-.5 1.05-1 1.6-1.48.14-.13.27-.26.4-.4l.03.04a71.3 71.3 0 0 1 91.22-2.05l-14.82 35.3 26.68-23.3a70.94 70.94 0 0 1 2.64 84.02l.08.02c-.3.43-.63.82-.93 1.24q-.85 1.2-1.73 2.33c-.76 1-1.55 1.93-2.35 2.86-.6.7-1.2 1.4-1.84 2.08-.92 1-1.9 1.93-2.87 2.86-.55.54-1.1 1.1-1.68 1.64q-2.3 2.05-4.76 3.9c-.58.43-1.18.8-1.77 1.22-1.16.8-2.32 1.6-3.5 2.34-.76.46-1.52.88-2.27 1.3-1.1.64-2.2 1.24-3.33 1.8-.8.4-1.6.8-2.42 1.16-1.15.52-2.33 1-3.5 1.48-.8.3-1.6.63-2.4.9-1.33.48-2.68.9-4.03 1.27-.7.2-1.36.44-2.05.6-2.04.53-4.1.97-6.17 1.3-.4.08-.8.1-1.2.16-1.7.25-3.45.45-5.2.57-.75.06-1.5.06-2.26.1-1.4.05-2.82.08-4.25.05-.83-.02-1.65-.06-2.5-.1q-2.06-.13-4.14-.37c-.82-.1-1.64-.18-2.46-.3-1.5-.23-2.97-.53-4.46-.85l-.3-.06q-8.56 25.06-17.44 50a71.3 71.3 0 0 1 103.38 8.53l-24.67 27.28 33.4-13.32a71.1 71.1 0 0 1 2.85 54.3 69.98 69.98 0 0 1-9.06 17.54 71.3 71.3 0 0 1-128.86-31.3c-.62 1.7-1.23 3.4-1.86 5.06-6.52 17.34-14.63 38.92-30.92 54.52-11.04 10.58-24.62 17.3-37.65 22.96q-12.73 5.54-25.8 10.25a71.5 71.5 0 0 1-31.92 10.16c-13.75 3.82-27.67 7-41.72 9.47l-8.76 1.5c-7.87 1.36-15.95 2.75-23.96 4.35 1.16.34 2.3.67 3.46 1.07a71.36 71.36 0 0 1 47.64 69.43l-54.93 16.86 49.7 7.9a71.37 71.37 0 0 1-118.92 21.1q.76 2.53 1.53 5.06c1 3.35 2 6.68 2.97 9.97 13.08 44.93 7.45 80.28-15.85 99.53l-12.65-15.3c22.68-18.74 15.65-57.34 9.44-78.7-.95-3.23-1.93-6.5-2.92-9.8-8.52-28.3-18.18-60.36-5.67-89.84 18.85-44.43 73.17-53.73 116.82-61.2z"/><path fill="#3f3d56" d="M673.37 609h-384.83a47.58 47.58 0 0 1-47.6-47.6v-176.3a18.85 18.85 0 0 1 5.9-13.68l203.92-193.3a43.9 43.9 0 0 1 60.4 0l194.42 184.3a49.27 49.27 0 0 1 15.37 35.76v163.22a47.58 47.58 0 0 1-47.58 47.6z"/><path d="M240.95 388h476v192.26a28.73 28.73 0 0 1-28.73 28.74h-418.52a28.73 28.73 0 0 1-28.75-28.74v-192.26z" opacity=".1"/><path stroke="#3f3d56" stroke-miterlimit="10" d="M240.45 376.5" fill="none"/><rect width="354" height="354" x="303.454" y="236.492" fill="#6c63ff" rx="26.181"/><path d="M657.45 395.94v194.56h-354v-194.57l177 85.55 177-85.56z" opacity=".1"/><path fill="#3f3d56" d="M480.45 492.5l-226.8-109.63a9.2 9.2 0 0 0-13.2 8.3v188.6a28.73 28.73 0 0 0 28.74 28.72h422.51a28.73 28.73 0 0 0 28.73-28.74v-185.35a11.23 11.23 0 0 0-16.1-10.12z"/><path fill="#f2f2f2" d="M333.95 269h99v14h-99zm-8 51h294v8h-294zm0 27h294v8h-294zm0 27h294v8h-294z"/><path stroke="#3f3d56" stroke-miterlimit="10" d="M60.95 608.5h824" fill="none"/><path fill="#46455b" d="M0 485.35c0 58.96 37 106.67 82.7 106.67"/><path fill="#6c63ff" d="M82.7 592.02c0-59.62 41.28-107.87 92.3-107.87m-145.04 6.55c0 56 23.6 101.32 52.74 101.32"/><path fill="#46455b" d="M82.7 592.02c0-76.18 47.7-137.83 106.67-137.83"/><path fill="#a8a8a8" d="M65.3 592.78s11.73-.37 15.26-2.88 18.05-5.53 18.92-1.5 17.63 20.1 4.4 20.2-30.78-2.07-34.3-4.22l-4.28-11.6z"/><path d="M104.1 607.2c-13.24.1-30.76-2.07-34.3-4.22-2.68-1.64-3.75-7.5-4.1-10.22-.26 0-.4.02-.4.02s.74 9.45 4.27 11.6 21.06 4.32 34.3 4.2c3.82-.02 5.14-1.38 5.07-3.4-.53 1.23-2 2-4.84 2z" opacity=".2"/><path fill="#a0616a" d="M719.7 162.77c-.6 5.36-4.67 9.67-6.2 14.84-2.26 7.8 1.68 16.15 7.06 22.2a49.16 49.16 0 0 0 34.24 16.26 14.6 14.6 0 0 0 5.66-.6 12.12 12.12 0 0 0 4.3-2.96c4.06-4.07 6.24-9.72 7.1-15.4s.54-11.47.2-17.2a9.72 9.72 0 0 0-.64-3.5 8.9 8.9 0 0 0-2.23-2.73 52.07 52.07 0 0 0-9.6-6.97 11 11 0 0 1-4.02-3.07 9.94 9.94 0 0 1-1.24-3.7l-1.06-5.38a10.6 10.6 0 0 0-1.56-4.38c-1.87-2.53-5.45-2.87-8.6-3l-11.5-.44c-3.58-.14-8.3-1.17-11.78-.47-3.27.66-2.18 3.67-1.6 6.4a46.27 46.27 0 0 1 1.47 10.1z"/><path d="M719.7 162.77c-.6 5.36-4.67 9.67-6.2 14.84-2.26 7.8 1.68 16.15 7.06 22.2a49.16 49.16 0 0 0 34.24 16.26 14.6 14.6 0 0 0 5.66-.6 12.12 12.12 0 0 0 4.3-2.96c4.06-4.07 6.24-9.72 7.1-15.4s.54-11.47.2-17.2a9.72 9.72 0 0 0-.64-3.5 8.9 8.9 0 0 0-2.23-2.73 52.07 52.07 0 0 0-9.6-6.97 11 11 0 0 1-4.02-3.07 9.94 9.94 0 0 1-1.24-3.7l-1.06-5.38a10.6 10.6 0 0 0-1.56-4.38c-1.87-2.53-5.45-2.87-8.6-3l-11.5-.44c-3.58-.14-8.3-1.17-11.78-.47-3.27.66-2.18 3.67-1.6 6.4a46.27 46.27 0 0 1 1.47 10.1z" opacity=".1"/><path fill="#605d82" d="M792.9 403.78q-2.44 26.8-4.9 53.6c-1.26 14.07-2.57 28.2-5.07 42.07-.86 4.78-1.88 9.54-3.08 14.26-3.34 13.1-8.2 25.9-9.75 39.33-.05.4-.1.78-.13 1.18a34.2 34.2 0 0 1-1.67 8.74c-.8 2.05-2 3.9-2.84 5.94-1.68 4.05-1.9 8.53-2.1 12.92a55.68 55.68 0 0 0-19.2-6.56c-3.24-.48-6.86-.83-9.07-3.26-2.47-2.68-2.2-6.8-1.78-10.4q1.93-16.8 3.87-33.57a87.5 87.5 0 0 1 2.43-14.24c.44-1.56.98-3.1 1.52-4.62.75-2.1 1.5-4.22 2.08-6.38a76.83 76.83 0 0 0 1.7-10.63c1.34-11.26 2.93-22.5 4.33-33.75l.08-.6c2.1-17.05 3.7-34.2 3.23-51.37-.06-2.54-.17-5.08-.34-7.63-.23-3.7-.56-5.66 2.5-7.97 3.38-2.55 7.84-4.34 11.7-6 2.1-.92 25.02-9.06 25.56-7.27a44.7 44.7 0 0 1 1.67 11.7 130.25 130.25 0 0 1-.77 14.55z"/><path d="M782.93 499.45c-.86 4.78-1.88 9.54-3.08 14.26-3.34 13.1-8.2 25.9-9.75 39.33-.05.4-.1.78-.13 1.18-10.23-14.6-18.84-30.3-28.82-45.06.75-2.1 1.5-4.22 2.08-6.38a76.83 76.83 0 0 0 1.7-10.63c1.34-11.26 2.93-22.5 4.33-33.75l.08-.6a34.96 34.96 0 0 0 2.5 6.93c6.7 13.62 22.6 20.5 30.4 33.54q.36.6.7 1.2z" opacity=".1"/><path fill="#605d82" d="M699.97 379.72c.33 10.92 2.08 21.74 3.83 32.53l3.6 22.25c1.97 12.18 4.02 24.6 9.78 35.52 4.3 8.16 10.53 15.12 16.14 22.44 13.82 18 24.2 38.4 37.3 56.9 3.8 5.4 9.25 11.22 15.75 10.1 4.26-.74 7.36-4.3 10.7-7.03 3.97-3.23 8.73-5.6 11.84-9.63s3.73-10.77-.48-13.65a22.23 22.23 0 0 0-4.83-1.98c-6.54-2.48-10.77-8.86-13.46-15.3s-4.32-13.4-7.9-19.4c-7.8-13.02-23.7-19.9-30.4-33.53-3.77-7.62-4.13-16.42-4.4-24.92l-.74-21.66c-.08-2.37-.15-4.83.82-7 2.56-5.76 10.3-6.3 16.57-7.03a56.7 56.7 0 0 0 20.3-6.4c3.6-1.96 7.14-4.44 9.07-8.06 1.76-3.3 2-7.18 2.2-10.92l2.18-39.25c.2-3.38.36-6.87-.83-10.04-3-7.95-13.03-10.55-21.52-10.17-15.8.7-30.36 7.5-45.25 12.08a115.05 115.05 0 0 1-11.22 2.92c-3.34.67-7.38.4-10.57 1.47-5.67 1.9-5.52 14.3-6.33 19.44a163.7 163.7 0 0 0-2.16 30.32z"/><path fill="#535070" d="M784.22 561.1c1.4 1.4 1.85 3.47 2.2 5.4a184.6 184.6 0 0 1 3.14 32.7 5.34 5.34 0 0 0 .6 2.96 3.72 3.72 0 0 0 1.53 1.24c4 1.92 8.68-.75 12.03-3.7 6.22-5.44 11.48-12.75 11.83-21a48.78 48.78 0 0 1 .23-6.38c.53-3.1 2.35-5.8 3.95-8.53a72.05 72.05 0 0 0 6.54-14.68c.6-1.93 1-4.35-.5-5.7a5.48 5.48 0 0 0-1.8-.92l-18.17-6.75c-1.57-.6-5.5 9.48-6.1 10.58-1.54 2.7-3.05 4.22-6.1 4.85-3.12.63-6.83-.28-9.74 1.27-4.93 2.63-2.46 5.85.32 8.65zm-28.05 6.22a5.57 5.57 0 0 0-1.38-1.76 6.26 6.26 0 0 0-2.8-.94c-3.46-.6-7.56-.98-9.95 1.6-2.24 2.4-1.86 6.33-3.73 9.04-.6.86-1.4 1.56-1.9 2.47a9.3 9.3 0 0 0-.85 4.43c-.1 4.2-.2 8.4.1 12.58.24 3.5.83 7.2 3.03 9.94 3.52 4.4 9.87 5.04 15.5 5.33l4.57.24a8.9 8.9 0 0 0 3.74-.34 6.16 6.16 0 0 0 3.24-3.55c2.38-5.9-1.4-12.27-3.7-18.2-2.67-6.82-2.2-14.4-5.87-20.83z"/><path fill="#3f3d56" d="M718.4 132.6a3.77 3.77 0 0 1 .25-1.76c.67-1.18 2.4-.86 3.73-.53 5.3 1.35 10.88.14 16.33.45s11.6 3.04 12.7 8.4a39.82 39.82 0 0 0 10.07-10.36c1.52-2.27 2.83-4.87 2.63-7.58-.3-3.92-3.6-6.85-6.63-9.33l-9.07-7.42a13.67 13.67 0 0 0-4.07-2.58c-2.1-.72-4.38-.38-6.6-.38-6.6 0-13.64-3-19.5.02-2.46 1.26-4.3 3.42-6.1 5.53l-8.1 9.6a5.12 5.12 0 0 0-1.28 2.18c-.23 1.17.37 2.33.58 3.5.38 2.14-.54 4.43.17 6.48 1.17 3.42 5.32 3.9 7.85 5.86.95.72 2.43 3.2 3.55 3.16 2.03-.05 3.44-3.68 3.5-5.26z"/><circle cx="732.131" cy="134.925" r="25.932" fill="#a0616a"/><path fill="#3f3d56" d="M738.2 191.68a12.56 12.56 0 0 0-12.22-8.42 3.73 3.73 0 0 1-2.26-.28 3.1 3.1 0 0 1-.93-1.16 45.3 45.3 0 0 1-3.8-8.94c-.4-1.37-.97-3-2.36-3.35a3.2 3.2 0 0 0-3.02 1.3 26.6 26.6 0 0 1-2.15 2.72c-3.26 2.92-9.05.26-12.5 2.94-.57.43-1.04 1-1.63 1.38a7.6 7.6 0 0 1-1.9.82 182.62 182.62 0 0 0-19.63 7.7c2.3 13.85 4.67 27.96 10.07 40.94 2.56 6.18 5.48 12.23 7.53 18.6 4.56 14.1 4.76 29.2 4.8 44 .05 10.15 0 20.5-3.28 30.1a28.4 28.4 0 0 0-1.86 6.62c-.2 2.3.47 4.8 2.32 6.17a7.94 7.94 0 0 0 3.58 1.26c5.7.82 11.42-.7 17.02-2 15-3.47 30.32-5.46 45.6-7.44l25.6-3.32a14.86 14.86 0 0 0 5.3-1.37c4.68-2.57 5.12-9.6 2.2-14.1-1.38-2.14-3.35-3.9-4.52-6.18s-1.27-5.47.74-7.04c4.1-3.2 2.88-9.16 3.08-14.37q.82-21.83-.22-43.68a86.96 86.96 0 0 1-.15-9.06 80.2 80.2 0 0 1 2.84-15.1l7.77-30.64c-2.02-3.2-5.9-5.25-9.6-6.17s-7.52-1.2-11.15-2.33c-7.44-2.3-14.06-8.15-21.82-7.6a3.96 3.96 0 0 0-1.7.4c-1.74 1-1.47 3.53-1.58 5.54-.25 4.44-3.52 8.16-7.13 10.76s-7.74 4.5-11.05 7.48a4.93 4.93 0 0 0-1.97 3.78z"/><path fill="#a0616a" d="M635.45 220.73a30.6 30.6 0 0 1-5.45 2.8 17.93 17.93 0 0 0-5.22 2.54 8.2 8.2 0 0 0-1.82 2.25 9.98 9.98 0 0 0 9.2 14.87 20.04 20.04 0 0 0 6.8-2.04l18.3-7.93c3.1-1.34 6.44-2.9 7.9-5.95a1.38 1.38 0 0 0 .18-.94 1.56 1.56 0 0 0-.75-.8 40.87 40.87 0 0 1-10.66-10.04c-.75-1.02-1.67-3.42-2.73-4.03-3.86-2.23-12.65 7.25-15.75 9.26zm195.53-6.51l6.75 7.7c1.44 1.66 2.9 3.32 4.2 5.07a59.14 59.14 0 0 1 7.73 14.54c1.47 3.85 2.7 7.95 2.18 12.03a29.42 29.42 0 0 1-1.7 6.12 76.14 76.14 0 0 1-4.57 11.02 62.87 62.87 0 0 1-5.16 7.73 180.44 180.44 0 0 1-17.08 19.57c-2.3 2.28-3.28 5.97-4.28 9.06-1.85 5.7-6.25 10.12-10.5 14.32a29.24 29.24 0 0 1-4.53 3.9 14.7 14.7 0 0 1-8.2 2.33 9.02 9.02 0 0 1-3.7-.76c-2.92-1.38-4.4-4.75-4.7-7.97a16.95 16.95 0 0 1 1.4-8.52c3.88-8.57 13.82-12.28 20.84-18.54 4.12-3.65 7.27-8.26 10.38-12.82a44.35 44.35 0 0 0 5.24-9.2c1.57-4.18.96-9.13 2.33-13.4.57-1.8 1.6-3.4 2.22-5.2s.78-3.9-.3-5.44a7.9 7.9 0 0 0-3.06-2.23c-4.5-2.27-9.5-5.2-10.37-10.16a10.9 10.9 0 0 1 2-7.76 32.35 32.35 0 0 1 5.66-5.93c1.96-1.74 5.26-3.7 7.22-5.43zm-199.85 17.26c-1.2-2.4-2.68-4.86-5.1-6.05a9.36 9.36 0 0 0-7.37-.04 27.77 27.77 0 0 0-6.5 3.9l-5.8 4.3a14.3 14.3 0 0 0-3.45 3.18 13.45 13.45 0 0 0-1.8 4.94 35.25 35.25 0 0 0-.9 12.2c.92 6.55 4.87 12.27 9.22 17.26 2.72 3.12 6.08 6.26 10.2 6.4 1.8.05 3.78-.65 4.52-2.28a5.66 5.66 0 0 0 .4-2.02c.45-7.3-2.16-14.45-5.2-21.1a13.54 13.54 0 0 1-1.7-5.68 1.56 1.56 0 0 1 .25-.95 1.6 1.6 0 0 1 1-.5c4.16-.8 11.35 2.43 14.28-2.2 1.9-3-.7-8.64-2.05-11.37z"/><path fill="#3f3d56" d="M717.03 124.44a3.77 3.77 0 0 1 .26-1.76c.66-1.18 2.4-.86 3.72-.53 5.3 1.34 10.88.13 16.33.44s11.6 3.03 12.7 8.38a39.82 39.82 0 0 0 10.06-10.35c1.53-2.26 2.84-4.85 2.64-7.57-.3-3.92-3.6-6.85-6.63-9.33l-9.06-7.4a13.67 13.67 0 0 0-4.07-2.6c-2.1-.7-4.38-.37-6.6-.37-6.6 0-13.64-3-19.5.02-2.46 1.26-4.3 3.42-6.1 5.53l-8.1 9.6a5.12 5.12 0 0 0-1.28 2.2c-.24 1.16.36 2.32.57 3.5.38 2.13-.54 4.42.17 6.47 1.17 3.42 5.32 3.9 7.85 5.86.94.73 2.42 3.2 3.54 3.17 2.03-.05 3.44-3.68 3.5-5.26zm-55.08 71.06a10.54 10.54 0 0 0-2.7 2.53c-.96 1.44-1.15 3.25-1.97 4.77-1.75 3.25-5.84 4.4-8.4 7.07a2.64 2.64 0 0 0-.8 1.38 3.08 3.08 0 0 0 .7 2l12.3 19.32c4.08.36 8-2.2 12.1-1.86 1.54.14 3.1.66 4.57.2a13.08 13.08 0 0 0 2.93-1.78c2.44-1.54 5.7-1.72 7.74-3.76 1.97-1.96 2.22-5.02 2.2-7.8a31.32 31.32 0 0 0-.73-7.16c-1.82-7.42-7.5-13.12-11.06-19.7-1.73-3.2-2.67-5.06-6.34-2.87-3.68 2.2-7.08 5.14-10.55 7.67zm149.35-9.77a28.77 28.77 0 0 1 6.18 5.42c1.87 2.4 2.94 5.37 4.74 7.84 1.74 2.4 4.1 4.24 6.1 6.45 3 3.34 5.03 7.42 7.02 11.45a171.06 171.06 0 0 1-15.9 17.97 5.13 5.13 0 0 1-2.42 1.6 3.9 3.9 0 0 1-3.4-1.4c-.9-.93-1.53-2.08-2.37-3.04a12.16 12.16 0 0 0-7.52-3.64 51.63 51.63 0 0 0-8.52-.12 3.37 3.37 0 0 1-1.8-.3 3.06 3.06 0 0 1-1-1.15c-3.33-5.66-2.26-12.78-1.1-19.24l2.7-14.85a33.3 33.3 0 0 1 2.25-8.24c1.02-2.17 3.3-5.87 6.1-5.22 2.84.66 6.56 4.74 8.95 6.45z"/><ellipse cx="317.954" cy="242.066" fill="#fff" rx="41" ry="41.075"/><path fill="#57b894" d="M317.95 194a49 49 0 1 0 49 49 49.14 49.14 0 0 0-49-49zm-10.05 75.1l-25.12-25.1 7.05-7.04 18.1 18.1 38.18-38.2 7.05 7.05-45.25 45.22z"/></svg>