<svg xmlns="http://www.w3.org/2000/svg" viewBox="0 0 481.291 481.291"><path d="M138.814 146.22c3.12 40.976 19.417 23.314 22.779 41.27 5.59 29.848 32.016 51.436 48.466 58.893 9.597 4.348 19.48 6.53 29.871 6.704v.009l.108-.004.108.004v-.009c10.39-.174 20.272-2.355 29.871-6.704 16.45-7.457 42.876-29.045 48.466-58.893 3.362-17.955 19.659-.294 22.779-41.27 0-16.33-8.898-20.394-8.898-20.394s4.523-24.171 6.295-42.77c2.195-23.179-13.53-83.056-97.409-83.056l-1.065.024-.038-.001v-.004l-.108.002-.108-.002v.005l-.038.001-1.065-.024c-83.878 0-99.604 59.877-97.409 83.056 1.771 18.599 6.295 42.77 6.295 42.77s-8.9 4.063-8.9 20.393zM430.313 347.371c-42.308-21.523-103.63-48.406-106.573-49.355l-.09-.024c-1.721-.613-3.571-.953-5.504-.953-7.188 0-13.285 4.604-15.547 11.021l-.036-.021c-10.92 26.315-30.979 73.223-43.434 95.842l-3-63.413s18.705-39.699 20.752-43.336c4.82-8.525.479-15.783-8.557-15.783h-55.36c-9.036 0-13.376 7.258-8.557 15.783 2.048 3.637 20.752 43.336 20.752 43.336l-2.999 63.413c-12.455-22.619-32.514-69.524-43.434-95.842l-.036.021c-2.262-6.414-8.359-11.021-15.547-11.021-1.933 0-3.783.34-5.504.953l-.09.024c-2.942.949-64.265 27.832-106.573 49.355-19 9.666-30.467 21.688-30.467 34.34v99.58h440.27099999999996v-99.58c-.001-12.652-11.467-24.674-30.467-34.34z"/></svg>