<svg xmlns="http://www.w3.org/2000/svg" viewBox="0 0 511.998 511.998"><path d="M155.968 187.07h38.254c14.29-26.216 38.712-46.094 68.024-54.357-5.897-14.318-19.979-24.397-36.419-24.397-4.11 0-8.069.633-11.79 1.798.02-.598.046-1.195.046-1.798 0-29.244-23.714-52.956-52.96-52.956-25.223 0-46.309 17.632-51.642 41.239-3.168-1.056-6.548-1.634-10.069-1.634-10.834 0-20.398 5.424-26.133 13.703-3.2-.825-6.56-1.272-10.019-1.272-22 0-39.834 17.835-39.834 39.836 0 21.997 17.835 39.836 39.834 39.836h63.687" fill="#9FDEF7"/><path d="M373.536 162.958c-20.468-21.893-49.607-35.578-81.941-35.578-53.408 0-98.066 37.345-109.362 87.34-6.704-2.236-13.865-3.466-21.318-3.466-22.947 0-43.196 11.49-55.341 29.022-6.779-1.751-13.888-2.692-21.216-2.692-46.59 0-84.358 37.768-84.358 84.358 0 46.588 37.768 84.361 84.358 84.361h93.011c.196-28.675 23.489-51.858 52.206-51.858 5.446 0 10.697.835 15.633 2.382-.023-.79-.059-1.582-.059-2.382 0-38.787 31.442-70.23 70.228-70.23 33.443 0 61.41 23.387 68.483 54.691 4.197-1.401 8.678-2.17 13.346-2.17 14.368 0 27.051 7.194 34.655 18.175 4.245-1.098 8.696-1.688 13.284-1.688 19.231 0 36.057 10.279 45.295 25.637 13.396-14.793 21.557-34.414 21.557-55.94 0-46.056-37.332-83.384-83.384-83.384-8.696 0-17.08 1.333-24.963 3.803.041-1.263.096-2.529.096-3.803 0-18.832-4.641-36.579-12.845-52.163" fill="#BEEAFC"/><path d="M89.442 237.74c-1.682-.102-3.376-.157-5.084-.157-46.59-.001-84.358 37.768-84.358 84.358 0 46.588 37.768 84.361 84.358 84.361h93.011c.061-8.998 2.4-17.454 6.464-24.823-45.989-35.393-79.872-85.724-94.391-143.739z" fill="#AEE4FF"/><path d="M81.614 174.026c0-27.362 4.208-53.738 11.999-78.528-8.402 1.551-15.646 6.407-20.333 13.171-3.2-.825-6.56-1.272-10.019-1.272-22 0-39.834 17.835-39.834 39.836 0 21.997 17.835 39.836 39.834 39.836h18.678c-.212-4.322-.325-8.669-.325-13.043z" fill="#83D4ED"/><path d="M445.146 350.991c-4.588 0-9.041.588-13.284 1.688-7.604-10.982-20.287-18.175-34.655-18.175-4.668 0-9.149.769-13.346 2.17-7.074-31.305-35.04-54.691-68.483-54.691-38.786 0-70.228 31.443-70.228 70.23 0 .8.035 1.592.059 2.382-4.936-1.547-10.187-2.382-15.633-2.382-28.835 0-52.212 23.373-52.212 52.216 0 28.835 23.378 52.21 52.212 52.21h215.572c29.175 0 52.827-23.651 52.827-52.824-.002-29.175-23.654-52.824-52.829-52.824z" fill="#E4F2F9"/><path d="M285.258 337.525c0-18.847 4-36.758 11.185-52.941-29.585 8.267-51.295 35.403-51.295 67.627 0 .8.035 1.592.059 2.382-4.936-1.547-10.187-2.382-15.633-2.382-28.835 0-52.212 23.373-52.212 52.216 0 28.835 23.378 52.21 52.212 52.21h132.677c-45.391-20.453-76.993-66.092-76.993-119.112z" fill="#D7EDF9"/></svg>