<svg xmlns="http://www.w3.org/2000/svg" viewBox="-21 -21 682.66714 682"><path d="M445.258 572.344c-4.07-9.844-15.352-14.516-25.188-10.445-9.84 4.074-14.52 15.352-10.441 25.195l12.309 29.742c4.074 9.844 15.359 14.512 25.191 10.438 9.84-4.07 14.516-15.352 10.445-25.188zm0 0M194.742 68.32c3.074 7.426 10.258 11.914 17.82 11.914 13.684 0 23.074-13.949 17.813-26.664l-12.313-29.742c-4.074-9.84-15.352-14.512-25.191-10.438-9.84 4.07-14.516 15.352-10.438 25.188zm0 0M420.07 78.762c9.848 4.074 21.121-.605 25.188-10.441l12.316-29.742c4.07-9.836-.605-21.117-10.445-25.188-9.84-4.078-21.117.598-25.191 10.438l-12.309 29.742c-4.078 9.84.602 21.117 10.441 25.191zm0 0M219.934 561.898c-9.84-4.07-21.121.602-25.191 10.445l-12.316 29.742c-4.07 9.836.605 21.117 10.445 25.188 9.84 4.078 21.117-.605 25.191-10.438l12.309-29.742c4.078-9.844-.594-21.117-10.438-25.195zm0 0M613.309 420.961l-26.535-11c-9.84-4.078-21.121.59-25.195 10.43-4.082 9.84.59 21.117 10.422 25.195l26.539 11c9.855 4.082 21.125-.602 25.199-10.43 4.078-9.832-.59-21.117-10.43-25.195zm0 0M26.691 219.703l26.543 11c9.844 4.078 21.117-.602 25.195-10.43 4.074-9.84-.594-21.117-10.43-25.195l-26.543-11c-9.836-4.078-21.121.59-25.195 10.43-4.078 9.832.59 21.117 10.43 25.195zm0 0M586.773 230.703l26.535-11c9.836-4.078 14.508-15.363 10.426-25.195-4.078-9.84-15.355-14.508-25.195-10.43l-26.539 11c-9.836 4.078-14.504 15.355-10.43 25.195 4.082 9.84 15.363 14.508 25.203 10.43zm0 0M53.234 409.961l-26.543 11c-9.84 4.078-14.508 15.355-10.43 25.195 4.082 9.84 15.359 14.508 25.199 10.43l26.539-11c9.836-4.078 14.504-15.355 10.43-25.195-4.082-9.836-15.359-14.508-25.195-10.43zm0 0M338.305 275.043v-48.793c0-9.652-3.559-13.77-11.918-13.77-8.223 0-11.734 4.117-11.734 13.77v48.793c0 9.645 3.512 13.754 11.734 13.754 8.359 0 11.918-4.109 11.918-13.754zm0 0M190.41 424.969v-37.316c0-7.441-2.867-10.773-9.316-10.773h-9.18v58.848h9.18c6.449 0 9.316-3.316 9.316-10.758zm0 0M363.422 415.844h11.504l-5.742-21.109zm0 0M632.918 305.41l-93.113-76.129 12.016-119.66c1.215-12.121-8.988-22.324-21.109-21.109l-119.66 12.016-76.125-93.113c-7.754-9.5-22.219-9.383-29.848 0l-76.129 93.113-119.66-12.016c-12.121-1.215-22.324 8.988-21.109 21.109l12.016 119.66-93.113 76.129c-9.441 7.676-9.445 22.164 0 29.848l93.113 76.125-12.016 119.66c-1.215 12.121 8.988 22.324 21.109 21.109l119.66-12.016 76.129 93.113c7.641 9.402 22.105 9.484 29.848 0l76.125-93.113 119.66 12.016c12.121 1.215 22.324-8.988 21.109-21.109l-12.016-119.66 93.113-76.125c9.441-7.68 9.445-22.168 0-29.848zm-247.047 150.465l-4.207-15.457h-24.832l-4.164 15.324c-4.18 13.359-31.961 5.273-28.516-8.473l26.84-88.051c4.09-13.32 32.176-13.613 36.352-.016h.016l26.941 87.891c3.496 14.074-24.344 21.906-28.43 8.781zm-100.527-61.926c13.742 0 13.973 24.566 0 24.566h-17.969v17.211h34.973c13.961 0 13.836 26.879 0 26.879h-51.297c-6.469 0-13.438-3.301-13.438-10.551v-91.488c0-7.262 6.969-10.566 13.438-10.566h51.297c14.117 0 13.73 26.879 0 26.879h-34.973v17.07zm-129.754-43.949h25.504c25.207 0 39.094 13.367 39.094 37.652v37.316c0 24.27-13.887 37.637-39.094 37.637h-25.504c-8.816 0-13.438-5.227-13.438-10.41v-91.781c0-5.172 4.621-10.414 13.438-10.414zm68-41.441v-45.25h-27.328v45.25c0 18.008-38.039 17.992-38.039 0v-117.117c0-17.715 38.039-17.934 38.039 0v40.461h27.328v-40.461c0-17.715 38.035-17.973 38.035 0v117.117c0 18.109-38.035 17.813-38.035 0zm53.027-33.516v-48.793c0-31.031 17.676-48.113 49.77-48.113 32.219 0 49.957 17.082 49.957 48.113v48.793c0 31.02-17.738 48.117-49.957 48.117-32.094 0-49.77-17.098-49.77-48.117zm117.543-96.906h79.547c17.855 0 17.75 35.09 0 35.09h-20.762v95.332c0 17.988-38.039 18.008-38.039 0v-95.332h-20.746c-17.699 0-17.887-35.09 0-35.09zm93.516 257.59c13.566 0 13.551 26.879 0 26.879h-45.516c-6.48 0-13.449-3.301-13.449-10.551v-91.641c0-13.871 29.762-14.027 29.762 0v75.313zm0 0"/></svg>