<svg xmlns="http://www.w3.org/2000/svg" viewBox="0 0 480 480"><path d="M457.328 205.44c-6.878-5.06-12.482-11.653-16.368-19.256-.537-8.878 1.034-17.757 4.584-25.912 4.48-14.032 9.112-28.528 2.32-40.272-6.888-11.88-21.904-15.144-36.424-18.28-8.699-.977-17.045-3.992-24.36-8.8-4.789-7.315-7.787-15.655-8.752-24.344-3.136-14.528-6.376-29.552-18.288-36.44-11.736-6.792-26.232-2.16-40.272 2.32-8.159 3.547-17.04 5.117-25.92 4.584-7.599-3.888-14.189-9.492-19.248-16.368-10.088-11.152-20.52-22.672-34.6-22.672s-24.512 11.52-34.56 22.672c-5.06 6.878-11.653 12.482-19.256 16.368-8.878.531-17.755-1.039-25.912-4.584-14.016-4.472-28.52-9.12-40.272-2.32-11.88 6.888-15.144 21.904-18.28 36.424-.977 8.699-3.992 17.045-8.8 24.36-7.315 4.789-15.655 7.787-24.344 8.752-14.528 3.136-29.552 6.376-36.44 18.288-6.792 11.736-2.16 26.24 2.32 40.272 3.552 8.157 5.123 17.039 4.584 25.92-3.888 7.599-9.492 14.189-16.368 19.248-11.152 10.088-22.672 20.52-22.672 34.6s11.52 24.512 22.672 34.6c6.878 5.06 12.482 11.653 16.368 19.256.537 8.878-1.034 17.757-4.584 25.912-4.48 14.032-9.112 28.528-2.32 40.272 6.888 11.88 21.904 15.144 36.424 18.28 8.696.965 17.041 3.966 24.36 8.76 4.789 7.315 7.787 15.655 8.752 24.344 3.136 14.528 6.376 29.552 18.288 36.44 11.736 6.792 26.232 2.16 40.272-2.32 8.159-3.547 17.04-5.117 25.92-4.584 7.599 3.888 14.189 9.492 19.248 16.368 10.088 11.152 20.52 22.672 34.6 22.672s24.512-11.52 34.6-22.672c5.06-6.878 11.653-12.482 19.256-16.368 8.878-.531 17.755 1.039 25.912 4.584 14.024 4.48 28.512 9.12 40.272 2.32 11.88-6.888 15.144-21.904 18.28-36.424.965-8.696 3.966-17.041 8.76-24.36 7.315-4.789 15.655-7.787 24.344-8.752 14.528-3.136 29.552-6.376 36.44-18.288 6.792-11.736 2.16-26.24-2.32-40.272-3.552-8.157-5.123-17.039-4.584-25.92 3.888-7.599 9.492-14.189 16.368-19.248 11.152-10.088 22.672-20.52 22.672-34.6s-11.52-24.512-22.672-34.56zm-10.736 57.304c-9.378 6.88-16.675 16.215-21.088 26.976-1.645 11.857.016 23.939 4.8 34.912 3.424 10.712 6.92 21.792 3.72 27.392-3.352 5.784-14.856 8.264-25.976 10.664-12.048 2.6-24.504 5.288-32.28 13.08-7.256 9.353-11.786 20.53-13.088 32.296-2.4 11.112-4.88 22.616-10.648 25.952-5.624 3.24-16.696-.296-27.4-3.712-10.973-4.775-23.049-6.435-34.904-4.8-10.766 4.409-20.104 11.707-26.984 21.088-7.752 8.56-15.76 17.408-22.744 17.408s-14.992-8.848-22.744-17.408c-6.88-9.378-16.215-16.675-26.976-21.088-2.649-.686-5.376-1.025-8.112-1.008-9.171.581-18.204 2.528-26.8 5.776-10.736 3.424-21.792 6.92-27.392 3.72-5.784-3.352-8.264-14.856-10.664-25.976-2.6-12.048-5.288-24.504-13.08-32.28-9.353-7.256-20.53-11.786-32.296-13.088-11.112-2.4-22.616-4.88-25.952-10.648-3.24-5.6.288-16.656 3.712-27.368 4.783-10.971 6.444-23.049 4.8-34.904-4.409-10.766-11.707-20.104-21.088-26.984-8.56-7.752-17.408-15.76-17.408-22.744s8.848-14.992 17.44-22.744c9.378-6.88 16.675-16.215 21.088-26.976 1.645-11.857-.016-23.939-4.8-34.912-3.424-10.712-6.92-21.792-3.72-27.392 3.352-5.784 14.856-8.264 25.976-10.664 12.048-2.6 24.504-5.288 32.28-13.08 7.256-9.353 11.786-20.53 13.088-32.296 2.4-11.112 4.88-22.616 10.648-25.952 5.6-3.264 16.656.288 27.368 3.712 11.848 3.792 24.12 7.696 34.904 4.8 10.766-4.409 20.104-11.707 26.984-21.088 7.752-8.56 15.76-17.408 22.744-17.408s14.992 8.848 22.744 17.408c6.88 9.378 16.215 16.675 26.976 21.088 11.857 1.64 23.937-.021 34.912-4.8 10.728-3.424 21.792-6.92 27.392-3.72 5.784 3.352 8.264 14.856 10.664 25.976 2.6 12.048 5.288 24.504 13.08 32.28 9.353 7.256 20.53 11.786 32.296 13.088 11.112 2.4 22.616 4.88 25.952 10.648 3.24 5.608-.288 16.688-3.712 27.4-4.783 10.971-6.444 23.049-4.8 34.904 4.409 10.766 11.707 20.104 21.088 26.984 8.56 7.752 17.408 15.76 17.408 22.744s-8.848 14.992-17.408 22.744zM240 96c4.418 0 8-3.582 8-8v-16c0-4.418-3.582-8-8-8s-8 3.582-8 8v16c0 4.418 3.582 8 8 8zM192.928 95.248c.937 3.494 4.102 5.925 7.72 5.928.705.004 1.408-.087 2.088-.272 4.264-1.144 6.796-5.526 5.656-9.792l-4.144-15.456-.112-.417c-1.26-4.235-5.714-6.647-9.949-5.387-4.235 1.26-6.647 5.714-5.387 9.949l4.128 15.447zM162.92 90.504l-.053-.092c-2.234-3.812-7.136-5.09-10.947-2.856-3.812 2.234-5.09 7.136-2.856 10.947l8 13.864c1.43 2.478 4.075 4.003 6.936 4 1.402-.001 2.778-.371 3.992-1.072 3.826-2.209 5.137-7.102 2.928-10.928l-8-13.863zM126.864 138.176c1.5 1.5 3.534 2.344 5.656 2.344 2.121 0 4.154-.843 5.654-2.342 3.125-3.124 3.125-8.189.002-11.314l-11.32-11.32-.197-.197c-3.178-3.069-8.243-2.981-11.312.197-3.069 3.178-2.981 8.243.197 11.312l11.32 11.32zM126.864 341.824l-11.32 11.32c-1.499 1.5-2.342 3.534-2.342 5.654-.001 4.418 3.58 8.001 7.998 8.002 2.122 0 4.156-.844 5.656-2.344l11.32-11.32c2.994-3.1 2.994-8.015 0-11.116-3.069-3.178-8.134-3.266-11.312-.196zM168.027 364.776c-3.812-2.234-8.713-.956-10.947 2.856l-8 13.864c-.701 1.214-1.07 2.59-1.072 3.992-.005 4.418 3.573 8.004 7.992 8.008 2.861.003 5.506-1.522 6.936-4l8-13.864c2.164-3.805.867-8.642-2.909-10.856zM202.751 379.139c-4.263-1.163-8.661 1.351-9.823 5.613l-4.136 15.448c-.181.676-.273 1.373-.273 2.073.001 4.418 3.583 8 8.001 7.999 3.618-.003 6.783-2.434 7.72-5.928l4.144-15.456c1.114-4.245-1.399-8.594-5.633-9.749zM240 384c-4.418 0-8 3.582-8 8v16c0 4.418 3.582 8 8 8s8-3.582 8-8v-16c0-4.418-3.582-8-8-8zM287.072 384.752c-1.155-4.234-5.504-6.747-9.749-5.633-4.273 1.122-6.829 5.495-5.707 9.769l4.144 15.456c.937 3.494 4.102 5.925 7.72 5.928.7 0 1.397-.092 2.073-.273 4.268-1.144 6.799-5.531 5.655-9.799l-4.136-15.448zM283.48 410.272zM322.92 367.632l-.054-.093c-2.235-3.811-7.136-5.089-10.948-2.854s-5.089 7.136-2.854 10.948l8 13.864c1.43 2.478 4.075 4.003 6.936 4 1.401-.001 2.778-.371 3.992-1.072 3.826-2.209 5.137-7.102 2.928-10.928l-8-13.865zM353.136 341.824c-3.1-2.995-8.016-2.995-11.116 0-3.178 3.07-3.266 8.134-.196 11.312l11.32 11.32c1.5 1.5 3.534 2.344 5.656 2.344 2.121 0 4.155-.843 5.654-2.342 3.125-3.124 3.125-8.189.002-11.314l-11.32-11.32zM347.48 140.52c2.122 0 4.156-.844 5.656-2.344l11.32-11.32.196-.196c3.07-3.178 2.982-8.242-.196-11.312-3.178-3.069-8.243-2.982-11.312.196l-11.32 11.32c-1.499 1.5-2.342 3.534-2.342 5.654-.001 4.419 3.58 8.001 7.998 8.002zM316 116.368c2.861.003 5.506-1.522 6.936-4l8-13.864.054-.093c2.183-3.841.84-8.725-3.002-10.908-3.841-2.183-8.725-.839-10.908 3.002l-8 13.864c-.701 1.214-1.07 2.59-1.072 3.992-.004 4.417 3.574 8.002 7.992 8.007zM277.272 100.904c.678.184 1.378.276 2.08.272 3.618-.003 6.783-2.434 7.72-5.928l4.136-15.448.112-.417c1.029-4.297-1.62-8.614-5.917-9.643s-8.614 1.62-9.643 5.917l-4.144 15.456c-1.14 4.265 1.392 8.647 5.656 9.791zM264 288h-56v-40h40c4.418 0 8-3.582 8-8s-3.582-8-8-8h-40v-40h56c4.418 0 8-3.582 8-8s-3.582-8-8-8h-64c-4.418 0-8 3.582-8 8v112c0 4.418 3.582 8 8 8h64c4.418 0 8-3.582 8-8s-3.582-8-8-8zM153.912 300.992c.555.668 1.217 1.238 1.96 1.688.256.189.523.362.8.52 1.037.509 2.173.782 3.328.8.954-.019 1.897-.209 2.784-.56.301-.131.595-.277.88-.44.336-.143.662-.309.976-.496.176-.12.264-.312.424-.456.425-.362.809-.769 1.144-1.216.646-.754 1.103-1.651 1.336-2.616.159-.521.267-1.057.32-1.6l.128-.64v-111.976c0-4.415-3.577-7.996-7.992-8-4.418 0-8 3.582-8 8v87.04l-65.496-91.688c-.12-.176-.312-.264-.456-.424-.361-.425-.769-.809-1.216-1.144-.378-.303-.782-.57-1.208-.8-.448-.215-.913-.389-1.392-.52-.52-.166-1.056-.273-1.6-.32l-.624-.128c-.27.04-.537.096-.8.168-.543.046-1.08.15-1.6.312-.52.173-1.021.398-1.496.672-.256.102-.507.216-.752.344-.176.12-.264.312-.424.456-.425.361-.809.769-1.144 1.216-.303.375-.571.776-.8 1.2-.222.453-.399.928-.528 1.416-.16.521-.267 1.057-.32 1.6l-.128.64v111.96c0 4.418 3.582 8 8 8s8-3.582 8-8v-87.04l65.496 91.688c.104.152.28.208.4.344zM401.703 176.181l-.023-.005c-4.32-.929-8.574 1.82-9.503 6.139l-.001.005-17.856 83.344-22.736-68.192c-1.38-4.197-5.901-6.482-10.098-5.102-2.415.794-4.308 2.687-5.102 5.102l-22.704 68.192-17.856-83.344c-.928-4.321-5.183-7.072-9.504-6.144-4.321.928-7.072 5.183-6.144 9.504l24 112c.758 3.523 3.778 6.104 7.376 6.304 3.583.163 6.844-2.06 8-5.456l24.448-73.232 24.416 73.232c1.088 3.266 4.142 5.469 7.584 5.472h.448c3.598-.2 6.618-2.781 7.376-6.304l24-112c.937-4.318-1.803-8.578-6.121-9.515z"/></svg>