<svg xmlns="http://www.w3.org/2000/svg" viewBox="0 0 486.982 486.982" enable-background="new 0 0 486.982 486.982"><path d="M131.35 422.969c14.6 14.6 38.3 14.6 52.9 0l181.1-181.1c5.2-5.2 9.2-11.4 11.8-18 18.2 5.1 35.9 7.8 51.5 7.7 38.6-.2 51.4-17.1 55.6-27.2 4.2-10 7.2-31-19.9-58.6l-.9-.9c-16.8-16.8-41.2-32.3-68.9-43.8-5.1-2.1-10.2-4-15.2-5.8v-.3c-.3-22.2-18.2-40.1-40.4-40.4l-108.5-1.5c-14.4-.2-28.2 5.4-38.3 15.6l-181.2 181.1c-14.6 14.6-14.6 38.3 0 52.9l120.4 120.3zm139.6-305.1c12.1-12.1 31.7-12.1 43.8 0 7.2 7.2 10.1 17.1 8.7 26.4 11.9 8.4 26.1 16.2 41.3 22.5 5.4 2.2 10.6 4.2 15.6 5.9l-.6-43.6 2.6 1.1c23.7 9.9 45 23.3 58.7 37l.6.6c13 13.3 14.4 21.8 13.3 24.4-3.4 8.1-39.9 15.3-95.3-7.8-16.2-6.8-31.4-15.2-43.7-24.3l-1.3 1.5c-12.1 12.1-31.7 12.1-43.8 0-12-12-12-31.6.1-43.7z"/></svg>