<svg xmlns="http://www.w3.org/2000/svg" viewBox="0 0 512.037 512.037"><path d="M412.083 123.57l-99.904-27.563c-2.33-.664-4.819-.498-7.04.469-150.506 64.513-297.173 282.646-303.338 291.905-2.401 3.589-2.401 8.272 0 11.861 2.415 3.597 6.765 5.375 11.008 4.501l95.872-19.2 19.52 117.12c.772 4.865 4.775 8.568 9.685 8.96h.789c4.626-.009 8.718-2.999 10.133-7.403.853-2.581 85.184-260.459 187.349-314.133l78.571-47.104c5.052-3.03 6.691-9.582 3.661-14.634-1.413-2.355-3.679-4.075-6.328-4.801l.022.022z" fill="#FFD54F"/><path d="M511.497 84.957c-1.373-4.468-5.545-7.482-10.219-7.381l-74.603.576-22.464-71.083c-2.453-5.614-8.993-8.177-14.607-5.724-2.561 1.119-4.605 3.163-5.724 5.724l-22.507 71.083-74.667-.576c-4.65-.104-8.794 2.921-10.112 7.381-1.434 4.423.163 9.265 3.947 11.968l60.651 43.349-23.467 70.741c-1.869 5.587 1.144 11.631 6.731 13.5 3.295 1.102 6.921.531 9.717-1.532l59.861-44.288 59.989 44.288c4.741 3.497 11.419 2.49 14.916-2.251 2.063-2.796 2.634-6.422 1.532-9.717l-23.467-70.741 60.651-43.349c3.746-2.732 5.298-7.568 3.842-11.968z" fill="#FFC107"/><path d="M138.675 340.957c-5.891 0-10.667-4.776-10.667-10.667 0-2.308.749-4.554 2.133-6.4 4.907-6.592 10.539-14.464 16.725-23.125 30.955-43.328 73.387-102.741 114.048-128.789 4.96-3.181 11.56-1.739 14.741 3.221s1.739 11.56-3.221 14.741c-37.205 23.872-79.957 83.669-108.16 123.285-6.272 8.789-11.989 16.789-16.96 23.467-2.035 2.716-5.244 4.3-8.639 4.267z" fill="#FFB300"/></svg>