<svg enable-background="new 0 0 497 497" height="512" viewBox="0 0 497 497" width="512" xmlns="http://www.w3.org/2000/svg"><path d="M414.247 210.5l38.605 47.72c8.02 9.913 12.395 22.278 12.395 35.029v164.185c0 21.852-17.714 39.566-39.566 39.566h-354.722c-21.653 0-39.206-17.553-39.206-39.206v-164.545c0-12.751 4.375-25.116 12.395-35.029l38.605-47.72z" fill="#f251a1"/><path d="M83.25 303.5v-277.745c0-14.224 11.774-25.755 25.997-25.755h278.487c14.224 0 25.515 11.531 25.515 25.755v279.745l-165.795 103.917z" fill="#f7f3f1"/><path d="M387.735 0h-40.497c14.224 0 25.515 11.531 25.515 25.754v279.746l-145.873 91.555 20.575 12.361 165.795-103.916v-279.746c0-14.223-11.292-25.754-25.515-25.754z" fill="#efe7e3"/><path d="M413.25 25.754c0-14.223-11.292-25.754-25.515-25.754h-278.488c-14.223 0-25.997 11.531-25.997 25.754v36.246h330z" fill="#8ee6f3"/><g fill="#72d1fb"><path d="M387.735 0h-40.497c14.224 0 25.515 11.531 25.515 25.754v36.246h40.497v-36.246c0-14.223-11.292-25.754-25.515-25.754zM379.133 38.47c-2.438 0-4.886-1.301-6.23-3.34-2.888-4.394-.375-10.448 4.771-11.52 4.595-.926 8.96 2.746 8.96 7.36-.001 4.08-3.422 7.5-7.501 7.5zM220.75 38.5h-103c-4.143 0-7.5-3.358-7.5-7.5s3.357-7.5 7.5-7.5h103c4.143 0 7.5 3.358 7.5 7.5s-3.358 7.5-7.5 7.5z"/></g><path d="M125.25 106h247.503v89h-247.503z" fill="#ffd36c"/><path d="M371.75 248.5h-247c-9.675 0-9.675-15 0-15h247c9.674 0 9.674 15 0 15z" fill="#ebe1dc"/><path stroke="#000" stroke-width="15" stroke-linecap="round" stroke-linejoin="round" stroke-miterlimit="10" fill="none"/><path stroke="#000" stroke-width="15" stroke-linecap="round" stroke-linejoin="round" stroke-miterlimit="10" fill="none"/><path d="M371.75 290.5h-247c-9.675 0-9.675-15 0-15h247c9.674 0 9.674 15 0 15zM371.75 332.5h-247c-9.675 0-9.675-15 0-15h247c9.674 0 9.674 15 0 15zM312.5 374.5h-128c-9.675 0-9.675-15 0-15h128c9.674 0 9.674 15 0 15z" fill="#ebe1dc"/><path d="M247.454 409.417l-212.121-135.781c-2.343 6.227-3.581 12.863-3.581 19.613v164.545c0 21.653 17.553 39.206 39.206 39.206h354.722c21.852 0 39.566-17.714 39.566-39.566v-164.185c0-6.307-1.074-12.518-3.127-18.386z" fill="#fa9084"/><path d="M462.121 274.863l-45.368 28.624v153.947c0 21.852-17.714 39.566-39.566 39.566h48.495c21.852 0 39.566-17.714 39.566-39.566v-164.185c-.001-6.307-1.075-12.518-3.127-18.386z" fill="#ff6cb5"/></svg>