<svg enable-background="new 0 0 497 497" height="512" viewBox="0 0 497 497" width="512" xmlns="http://www.w3.org/2000/svg"><path d="M64.625 497h-40.041c-13.577 0-24.584-11.007-24.584-24.584v-254.286c0-13.577 11.007-24.584 24.584-24.584h40.041c13.577 0 24.584 11.007 24.584 24.584v254.286c0 13.577-11.006 24.584-24.584 24.584z" fill="#fa9084"/><path d="M64.625 193.546h-40.041c-.28 0-.557.012-.834.021 13.19.441 23.75 11.265 23.75 24.563v254.286c0 13.298-10.56 24.122-23.75 24.563.277.009.554.021.834.021h40.041c13.577 0 24.584-11.007 24.584-24.584v-254.286c0-13.578-11.006-24.584-24.584-24.584z" fill="#ff6cb5"/><path d="M200.555 497h-40.041c-13.577 0-24.584-11.007-24.584-24.584v-136.432c0-13.577 11.007-24.584 24.584-24.584h40.041c13.577 0 24.584 11.007 24.584 24.584v136.432c0 13.577-11.006 24.584-24.584 24.584z" fill="#ffd36c"/><path d="M200.555 311.4h-40.041l-.799.02c13.207.423 23.785 11.254 23.785 24.564v136.432c0 13.309-10.578 24.141-23.785 24.564l.799.02h40.041c13.577 0 24.584-11.007 24.584-24.584v-136.432c0-13.577-11.006-24.584-24.584-24.584z" fill="#fcc645"/><path d="M336.486 497h-40.041c-13.577 0-24.584-11.007-24.584-24.584v-225.066c0-13.577 11.007-24.584 24.584-24.584h40.041c13.577 0 24.584 11.007 24.584 24.584v225.066c0 13.577-11.007 24.584-24.584 24.584z" fill="#72d1fb"/><path d="M336.486 222.766h-40.041l-.764.019c13.223.405 23.82 11.244 23.82 24.565v225.066c0 13.321-10.597 24.16-23.82 24.565l.764.019h40.041c13.577 0 24.584-11.007 24.584-24.584v-225.066c0-13.578-11.007-24.584-24.584-24.584z" fill="#62a6fd"/><path d="M472.416 497h-40.041c-13.577 0-24.584-11.007-24.584-24.584v-322.467c0-13.577 11.007-24.584 24.584-24.584h40.041c13.577 0 24.584 11.007 24.584 24.584v322.467c0 13.577-11.007 24.584-24.584 24.584z" fill="#72e4a0"/><path d="M472.416 125.365h-40.041l-.729.018c13.239.387 23.854 11.233 23.854 24.566v322.467c0 13.333-10.615 24.179-23.854 24.566l.729.018h40.041c13.577 0 24.584-11.007 24.584-24.584v-322.467c0-13.577-11.007-24.584-24.584-24.584z" fill="#24d3b5"/><path d="M180.785 248.726c-1.95 0-3.898-.755-5.368-2.261l-130.903-134.107c-2.894-2.964-2.836-7.712.128-10.606 2.965-2.894 7.713-2.836 10.606.128l130.903 134.106c4.479 4.589 1.118 12.74-5.366 12.74zM190.505 241c-6.844 0-10.083-9.023-4.703-13.347l107.225-86.168 136.776-109.878c7.543-6.058 16.937 5.636 9.395 11.694l-136.776 109.878-107.224 86.167c-1.385 1.113-3.045 1.654-4.693 1.654z" fill="#ebe1dc"/><g fill="#909ec0"><ellipse cx="44.605" cy="101.318" rx="23.118" ry="23.078"/><ellipse cx="180.535" cy="241.475" rx="23.118" ry="23.078"/><ellipse cx="316.465" cy="132.836" rx="23.118" ry="23.078"/><ellipse cx="452.395" cy="23.078" rx="23.118" ry="23.078"/></g></svg>