<svg enable-background="new 0 0 497 497" height="512" viewBox="0 0 497 497" width="512" xmlns="http://www.w3.org/2000/svg"><path d="M352.187 497h-207.374c-21.163 0-38.318-17.156-38.318-38.318v-420.364c0-21.162 17.156-38.318 38.318-38.318h207.374c21.163 0 38.318 17.156 38.318 38.318v420.363c0 21.163-17.156 38.319-38.318 38.319z" fill="#8ee6f3"/><path d="M352.187 0h-41.995c21.163 0 38.318 17.156 38.318 38.318v420.363c0 21.163-17.156 38.318-38.318 38.318h41.995c21.163 0 38.318-17.156 38.318-38.318v-420.363c0-21.162-17.156-38.318-38.318-38.318z" fill="#72d1fb"/><path d="M106.495 47.5h284.01v372.005h-284.01z" fill="#909ec0"/><path d="M348.51 47.5h41.995v372.005h-41.995z" fill="#808dab"/><path d="M266.317 464.203h-35.635c-4.143 0-7.5-3.358-7.5-7.5s3.357-7.5 7.5-7.5h35.635c4.143 0 7.5 3.358 7.5 7.5s-3.357 7.5-7.5 7.5z" fill="#72d1fb"/><path d="M323.251 183.156l-15.506 84.532h-117.75c-4.956 0-9.228-3.483-10.223-8.335l-13.056-63.674c-1.326-6.467 3.618-12.522 10.223-12.522h146.312z" fill="#ffd36c"/><path d="M281.251 183.156l-15.506 84.532h42l15.506-84.532z" fill="#fcc645"/><path d="M280.071 307.987h-90.109c-9.675 0-9.675-15 0-15h90.109c8.863 0 16.468-6.319 18.082-15.025l22.993-122.649c1.989-10.611 11.268-18.313 22.064-18.313h8.594c9.674 0 9.674 15 0 15h-8.594c-3.582 0-6.661 2.556-7.32 6.077l-22.99 122.634c-2.93 15.799-16.737 27.276-32.829 27.276z" fill="#f7f3f1"/><g fill="#ffd36c"><ellipse cx="206.212" cy="315.494" rx="15.016" ry="15.006"/><ellipse cx="280.359" cy="315.494" rx="15.016" ry="15.006"/></g></svg>