<svg enable-background="new 0 0 496.988 496.988" height="512" viewBox="0 0 496.988 496.988" width="512" xmlns="http://www.w3.org/2000/svg"><path d="M406.024 115.995c-2.068 0-4.125-.85-5.607-2.516-38.565-43.364-93.941-68.235-151.929-68.235-57.004 0-111.747 24.167-150.19 66.305-6.519 7.149-17.602-2.963-11.081-10.109 20.253-22.2 44.357-39.695 71.642-51.999 28.247-12.738 58.402-19.196 89.63-19.196 62.267 0 121.729 26.705 163.138 73.267 4.418 4.969-.027 12.485-6.127 12.485l.524-.002zM248.488 466.744c-61.739 0-120.862-26.327-162.21-72.23-6.475-7.189 4.671-17.227 11.146-10.039 38.508 42.75 93.569 67.269 151.064 67.269 57.987 0 113.363-24.871 151.928-68.234 6.431-7.228 17.638 2.739 11.209 9.969-41.409 46.56-100.87 73.265-163.137 73.265z" fill="#909ec0"/><path d="M302.488 332.023h-88.7v-68.263h61.881c19.26 0 19.288-30 0-30h-61.881v-68.263h88.7c19.26 0 19.288-30 0-30h-103.7c-8.284 0-15 6.716-15 15v196.526c0 8.284 6.716 15 15 15h103.7c19.26 0 19.288-30 0-30z" fill="#ffd36c"/><path d="M420.305 135.497c-42.284 0-76.684 34.4-76.684 76.683v73.305c0 42.284 34.4 76.684 76.684 76.684 42.283 0 76.683-34.4 76.683-76.684v-73.305c0-42.283-34.4-76.683-76.683-76.683zm46.683 149.988c0 25.741-20.942 46.684-46.683 46.684s-46.684-20.942-46.684-46.684v-73.305c0-25.741 20.942-46.683 46.684-46.683s46.683 20.942 46.683 46.683z" fill="#8ee6f3"/><path d="M420.305 135.497c-7.191 0-14.145 1.017-20.75 2.876 18.724 5.272 34.568 17.476 44.558 33.673 13.683 8.148 22.875 23.085 22.875 40.134v73.305c0 17.049-9.191 31.986-22.875 40.134-9.99 16.197-25.834 28.401-44.558 33.673 6.605 1.859 13.559 2.876 20.75 2.876 42.283 0 76.683-34.4 76.683-76.684v-73.304c0-42.283-34.4-76.683-76.683-76.683z" fill="#72d1fb"/><path d="M120.058 238.342c-12.843-8.358-27.978-11.162-41.33-13.636-23.417-4.339-32.582-7.25-35.935-20.727-4.779-19.213 6.135-29.177 13.066-33.407 12.131-7.403 31.451-8.735 44.908 3.04 8.51 7.447 11.02 12.573 11.049 12.621 9.426 15.862 33.817 6.154 27.663-11.592-.721-1.803-5.025-11.417-18.957-23.606-21.829-19.101-54.844-21.597-80.289-6.071-23.046 14.063-33.221 39.452-26.552 66.258 3.739 15.031 12.406 26.19 25.759 33.166 10.527 5.5 22.37 7.694 33.822 9.816 11.625 2.154 22.604 4.188 30.433 9.283 16.854 10.968 21.449 26.261 13.658 45.456-5.085 12.527-20.078 24.525-42.119 23.112-17.74-1.144-30.635-8.046-38.326-20.515-6.163-9.991-6.953-20.157-6.96-20.259-2.95-17.46-29.331-16.88-29.948 1.769.092 1.68 1.174 16.876 10.505 32.795 8.921 15.219 27.058 33.844 62.799 36.147 1.878.121 3.724.18 5.544.18 33.979 0 57.63-20.585 66.301-41.946 13.181-32.471 3.801-63.082-25.091-81.884z" fill="#fa9084"/></svg>