<svg enable-background="new 0 0 497.424 497.424" height="512" viewBox="0 0 497.424 497.424" width="512" xmlns="http://www.w3.org/2000/svg"><path d="M458.216.212h-419.432c-21.42 0-38.784 17.364-38.784 38.784v119.543c0 21.42 17.364 38.784 38.784 38.784h29.716l37 49.389 37-49.389h315.716c21.42 0 38.784-17.364 38.784-38.784v-119.543c0-21.42-17.364-38.784-38.784-38.784z" fill="#ffd36c"/><path d="M458.216.212h-40.5c21.42 0 38.784 17.364 38.784 38.784v119.543c0 21.42-17.364 38.784-38.784 38.784h40.5c21.42 0 38.784-17.364 38.784-38.784v-119.543c0-21.42-17.364-38.784-38.784-38.784z" fill="#fcc645"/><path d="M107.471 50.717l13.947 28.26c.398.806 1.167 1.365 2.057 1.495l31.187 4.532c2.241.326 3.136 3.08 1.514 4.661l-22.567 21.997c-.644.628-.938 1.532-.786 2.419l5.327 31.061c.383 2.232-1.96 3.934-3.965 2.881l-27.894-14.665c-.796-.419-1.747-.419-2.543 0l-27.894 14.665c-2.005 1.054-4.348-.648-3.965-2.881l5.327-31.061c.152-.886-.142-1.791-.786-2.419l-22.566-21.998c-1.622-1.581-.727-4.335 1.514-4.661l31.187-4.532c.89-.129 1.659-.688 2.057-1.495l13.947-28.26c1.004-2.03 3.9-2.03 4.902.001zM250.95 50.717l13.947 28.26c.398.806 1.167 1.365 2.057 1.495l31.187 4.532c2.241.326 3.136 3.08 1.514 4.661l-22.567 21.997c-.644.628-.938 1.532-.786 2.419l5.327 31.061c.383 2.232-1.96 3.934-3.965 2.881l-27.894-14.665c-.796-.419-1.747-.419-2.543 0l-27.894 14.665c-2.005 1.054-4.348-.648-3.965-2.881l5.327-31.061c.152-.886-.142-1.791-.786-2.419l-22.567-21.997c-1.622-1.581-.727-4.335 1.514-4.661l31.187-4.532c.89-.129 1.659-.688 2.057-1.495l13.947-28.26c1.005-2.031 3.901-2.031 4.903 0zM394.43 50.717l13.947 28.26c.398.806 1.167 1.365 2.057 1.495l31.187 4.532c2.241.326 3.136 3.08 1.514 4.661l-22.567 21.997c-.644.628-.938 1.532-.786 2.419l5.327 31.061c.383 2.232-1.96 3.934-3.965 2.881l-27.894-14.665c-.796-.419-1.747-.419-2.543 0l-27.894 14.665c-2.005 1.054-4.348-.648-3.965-2.881l5.327-31.061c.152-.886-.142-1.791-.786-2.419l-22.567-21.997c-1.622-1.581-.727-4.335 1.514-4.661l31.187-4.532c.89-.129 1.659-.688 2.057-1.495l13.947-28.26c1.004-2.031 3.9-2.031 4.903 0z" fill="#eaaf20"/><circle cx="105" cy="392.212" fill="#f7f3f1" r="105"/><g fill="#ebe1dc"><circle cx="104.899" cy="369.212" r="38"/><path d="M104.899 407.212c-35.402 0-64.576 26.661-68.541 61v3.457c18.406 15.915 42.4 25.543 68.642 25.543 26.231 0 50.214-9.62 68.617-25.522l.025-1.477c-3.04-35.299-32.656-63.001-68.743-63.001zM478.5 334.712h-206c-23.884 0-23.914-37 0-37h206c23.884 0 23.914 37 0 37zM479 410.712h-206c-23.884 0-23.914-37 0-37h206c23.884 0 23.914 37 0 37zM479.5 486.712h-206c-23.884 0-23.914-37 0-37h206c23.884 0 23.914 37 0 37z"/></g></svg>