<svg enable-background="new 0 0 493.587 493.587" height="512" viewBox="0 0 493.587 493.587" width="512" xmlns="http://www.w3.org/2000/svg"><path d="M419.655 172.862c0-94.67-76.103-171.565-170.468-172.845-95.627-1.298-173.618 74.239-175.23 169.861-.796 47.237 17.36 90.231 47.364 121.883 11.127 11.738 17.18 27.325 16.889 43.496l-.006.617c0 18.607 15.084 33.691 33.691 33.691h149.796c18.607 0 33.691-15.084 33.691-33.691l-.005-.611c-.289-16.241 5.862-31.844 17.023-43.645 29.292-30.969 47.255-72.764 47.255-118.756z" fill="#ffd36c"/><path d="M419.655 172.862c0-94.67-76.103-171.565-170.468-172.845-7.928-.108-15.732.324-23.385 1.241 85.626 10.306 151.991 83.2 151.991 171.604 0 45.992-17.963 87.788-47.254 118.757-11.162 11.801-17.313 27.404-17.024 43.645l.006.611c0 18.607-15.084 33.691-33.691 33.691h41.861c18.607 0 33.691-15.084 33.691-33.691l-.006-.611c-.29-16.241 5.862-31.844 17.024-43.645 29.293-30.97 47.255-72.765 47.255-118.757z" fill="#fcc645"/><path d="M307.401 461.899h-121.214c-8.322 0-15.068-6.746-15.068-15.068v-77.264h151.351v77.264c-.001 8.321-6.747 15.068-15.069 15.068z" fill="#ebe1dc"/><path d="M275.833 493.587h-58.078c-16.882 0-30.568-13.686-30.568-30.568v-1.12h119.215v1.12c-.001 16.882-13.687 30.568-30.569 30.568zM330.762 409.214h-167.937c-9.675 0-9.675-15 0-15h167.938c9.674 0 9.674 15-.001 15zM330.762 437.251h-167.937c-9.675 0-9.675-15 0-15h167.938c9.674 0 9.674 15-.001 15z" fill="#909ec0"/><path d="M247.804 104.655l24.514 52.227 54.816 8.375-39.665 40.653 9.363 57.404-49.028-27.102-49.029 27.102 9.364-57.404-39.665-40.653 54.816-8.375z" fill="#f7f3f1"/><g fill="#eaaf20"><path d="M247.804 268.036c-4.143 0-7.5 3.357-7.5 7.5v20.689c0 9.675 15 9.675 15 0v-20.689c0-4.143-3.357-7.5-7.5-7.5zM165.338 211.672l-17.678 6.16c-9.142 3.184-4.184 17.349 4.936 14.164l17.678-6.16c9.135-3.182 4.196-17.36-4.936-14.164zM345.927 217.832l-17.677-6.16c-9.133-3.192-14.071 10.981-4.936 14.164l17.677 6.16c9.12 3.185 14.078-10.979 4.936-14.164zM317.763 101.619c-3.185-2.646-7.914-2.211-10.562.976l-13.67 16.452c-6.156 7.407 5.301 17.091 11.537 9.586l13.67-16.452c3.171-3.815 1.024-8.901-.975-10.562zM192.295 104.844c-6.184-7.44-17.721 2.146-11.537 9.586l11.802 14.203c6.236 7.505 17.693-2.179 11.537-9.586z"/></g></svg>