<svg enable-background="new 0 0 497.64 497.64" height="512" viewBox="0 0 497.64 497.64" width="512" xmlns="http://www.w3.org/2000/svg"><path d="M246.401 382.5h76.614v92h-76.614z" fill="#c2f6ff"/><path d="M366.129 497.576h-163.831c-20.358 0-20.384-31.647 0-31.647h163.831c20.359.001 20.384 31.647 0 31.647z" fill="#8ee6f3"/><path d="M366.129 465.93h-41.739c8.698 0 15.75 7.052 15.75 15.75v.147c0 8.698-7.051 15.75-15.75 15.75h41.739c20.359-.001 20.384-31.647 0-31.647z" fill="#72d1fb"/><path d="M373.214 91.5h-271.748c-16.943 0-30.679 13.73-30.679 30.667v249.485c0 16.937 13.735 30.667 30.679 30.667h365.496c16.943 0 30.679-13.73 30.679-30.667v-249.489c0-16.935-13.733-30.663-30.674-30.663h-42.802" fill="#f7f3f1"/><path d="M466.965 91.5h-41.647000000000006c16.941 0 30.674 13.729 30.674 30.663v249.489c0 16.937-13.735 30.667-30.679 30.667h41.647c16.943 0 30.679-13.73 30.679-30.667v-249.489c.001-16.934-13.733-30.663-30.674-30.663z" fill="#efe7e3"/><path d="M70.787 338.285v33.367c0 16.937 13.735 30.667 30.678 30.667h365.496c16.943 0 30.679-13.73 30.679-30.667v-33.367z" fill="#8ee6f3"/><path d="M455.992 338.285v33.367c0 16.937-13.735 30.667-30.679 30.667h41.647c16.943 0 30.679-13.73 30.679-30.667v-33.367z" fill="#72d1fb"/><path stroke="#000" stroke-width="15" stroke-linecap="round" stroke-linejoin="round" stroke-miterlimit="10" fill="none"/><g fill="#ebe1dc"><path d="M171.513 303.5h-18.848c-8.084 0-14.637-6.553-14.637-14.637v-146.252c0-8.084 6.553-14.637 14.637-14.637h18.848c8.084 0 14.637 6.553 14.637 14.637v146.252c0 8.084-6.553 14.637-14.637 14.637zM250.724 303.5h-18.848c-8.084 0-14.637-6.553-14.637-14.637v-82.707c0-8.084 6.553-14.637 14.637-14.637h18.848c8.084 0 14.637 6.553 14.637 14.637v82.707c0 8.084-6.553 14.637-14.637 14.637zM329.935 303.5h-18.848c-8.084 0-14.637-6.553-14.637-14.637v-130.497c0-8.084 6.553-14.637 14.637-14.637h18.848c8.084 0 14.637 6.553 14.637 14.637v130.497c0 8.084-6.553 14.637-14.637 14.637z"/></g><path d="M448.344 56.5l-48.622-56.5-48.621 56.5h24.561v234.578c0 6.861 5.564 12.422 12.428 12.422h23.266c6.864 0 12.428-5.562 12.428-12.422v-234.578z" fill="#fa9084"/><path d="M0 269.5h162.14v228.14h-162.14z" fill="#f7f3f1"/><path d="M120.14 269.5h42v228.14h-42z" fill="#efe7e3"/><path d="M59.3 353.242c0-7.732 4.055-14.531 10.147-18.394l-14.582-23.076c-13.732 8.689-22.848 24-22.848 41.47 0 8.598 2.212 16.671 6.09 23.694l23.906-13.184c-1.727-3.118-2.713-6.7-2.713-10.51z" fill="#72e4a0"/><path d="M102.84 353.242c0 12.004-9.766 21.77-21.77 21.77-8.195 0-15.344-4.553-19.058-11.26l-23.906 13.184c8.351 15.124 24.448 25.36 42.963 25.36 27.113 0 49.053-21.94 49.053-49.053z" fill="#ffd36c"/><path d="M54.865 311.772l14.582 23.076c3.366-2.134 7.351-3.376 11.623-3.376 12.004 0 21.77 9.766 21.77 21.77h27.283c0-27.113-21.94-49.053-49.053-49.053-9.643 0-18.625 2.786-26.205 7.583z" fill="#fa9084"/><path d="M120.643 441.133h-79.146c-9.63 0-9.644-15 0-15h79.146c9.63 0 9.644 15 0 15zM120.643 470.451h-79.146c-9.63 0-9.644-15 0-15h79.146c9.63 0 9.644 15 0 15z" fill="#ebe1dc"/></svg>