<svg enable-background="new 0 0 497 497" height="512" viewBox="0 0 497 497" width="512" xmlns="http://www.w3.org/2000/svg"><path d="M244.884 1.164c-31.879 12.223-67.153 12.223-99.031 0-13.173-5.051-26.431 7.167-22.467 20.704l21.043 71.86h101.881l21.043-71.86c3.962-13.537-9.296-25.755-22.469-20.704z" fill="#72e4a0"/><path d="M244.884 1.164c-4.182 1.603-8.423 2.991-12.706 4.173 3.932 4.123 5.861 10.182 4.002 16.531l-21.043 71.86h31.172l21.043-71.86c3.963-13.537-9.295-25.755-22.468-20.704z" fill="#24d3b5"/><path d="M367.625 266.5c-2.776-74.208-63.821-133.515-138.721-133.515h-67.071c-76.668 0-138.82 62.141-138.82 138.795v164.12l.006.224c-13.251 3.506-23.019 15.571-23.019 29.921 0 17.096 13.861 30.955 30.96 30.955h328.816z" fill="#72e4a0"/><path d="M228.903 132.985h-41.5c74.9 0 135.945 59.307 138.721 133.515v230.5h33.651l7.849-230.5c-2.775-74.208-63.821-133.515-138.721-133.515z" fill="#24d3b5"/><ellipse cx="195.368" cy="297.617" fill="#ffd36c" rx="87.453" ry="87.432"/><path d="M195.368 210.185c-5.346 0-10.579.482-15.66 1.4 40.826 7.379 71.792 43.089 71.792 86.032s-30.967 78.653-71.792 86.032c5.081.918 10.314 1.4 15.66 1.4 48.299 0 87.453-39.145 87.453-87.432-.001-48.287-39.154-87.432-87.453-87.432z" fill="#fcc645"/><path d="M211.181 291.61c-5.492-3.053-11.561-3.465-17.581-4.683-4.987-1.009-8.708-3.05-7.876-8.966 1.512-10.75 17.244-9 20.948-.572 1.642 3.737 7.032 4.528 10.261 2.691 3.849-2.19 4.311-6.575 2.691-10.261-2.879-6.552-9.012-11.094-15.868-13.148v-8.926c0-9.63-15-9.644-15 0v8.554l-.117.03c-13.107 3.647-20.964 17.044-16.84 30.239 2.132 6.822 7.068 11.485 13.758 13.771 5.308 1.813 11.173 1.517 16.414 3.509 12.927 4.914 6.815 21.291-5.404 21.363-8.889.052-14.032-7.027-15.132-12.458-1.108-9.072-15.551-8.973-14.942.506.514 8.009 4.488 15.784 10.824 20.711 3.35 2.605 7.29 4.402 11.439 5.373v8.145c0 9.63 15 9.644 15 0v-8.216c5.57-1.379 10.7-4.314 14.438-8.866 10.135-12.337 7.119-30.938-7.013-38.796zM262.336 133.647h-133.936c-22.991 0-22.957-39.92 0-39.92h133.936c22.991.001 22.958 39.92 0 39.92z" fill="#eaaf20"/><path d="M23.013 435.899l.006.224c-13.251 3.507-23.019 15.572-23.019 29.922 0 17.096 13.861 30.955 30.96 30.955h328.816l2.081-61.101z" fill="#24d3b5"/><path d="M472.884 497h-135.768c-13.319 0-24.116-10.797-24.116-24.116v-180.699c0-13.319 10.797-24.116 24.116-24.116h135.769c13.319 0 24.116 10.797 24.116 24.116v180.699c-.001 13.319-10.798 24.116-24.117 24.116z" fill="#ffd36c"/><path d="M472.885 268.07h-40.5c13.319 0 24.115 10.797 24.115 24.115v180.699c0 13.319-10.797 24.115-24.115 24.115h40.5c13.318.001 24.115-10.796 24.115-24.114v-180.7c0-13.318-10.797-24.115-24.115-24.115z" fill="#fcc645"/><path d="M351.753 309.025h106.495v43.68h-106.495z" fill="#909ec0"/><g fill="#f7f3f1"><path d="M352.662 397.492c9.652 0 9.668-15 0-15-9.652 0-9.668 15 0 15zM387.936 397.492c9.652 0 9.668-15 0-15-9.652 0-9.668 15 0 15zM423.21 397.492c9.652 0 9.668-15 0-15-9.652 0-9.668 15 0 15zM458.484 397.492c9.652 0 9.668-15 0-15-9.652 0-9.668 15 0 15zM352.662 430.519c9.652 0 9.668-15 0-15-9.652 0-9.668 15 0 15zM387.936 430.519c9.652 0 9.668-15 0-15-9.652 0-9.668 15 0 15zM423.21 429c9.652 0 9.668-15 0-15-9.652 0-9.668 15 0 15zM352.662 463.545c9.652 0 9.668-15 0-15-9.652 0-9.668 15 0 15zM387.936 463.545c9.652 0 9.668-15 0-15-9.652 0-9.668 15 0 15zM423.21 463.545c9.652 0 9.668-15 0-15-9.652 0-9.668 15 0 15z"/></g><path d="M458.484 463.545c-4.142 0-7.5-3.357-7.5-7.5v-34.545c0-9.63 15-9.644 15 0v34.545c0 4.143-3.358 7.5-7.5 7.5z" fill="#909ec0"/></svg>