<svg enable-background="new 0 0 497.189 497.189" height="512" viewBox="0 0 497.189 497.189" width="512" xmlns="http://www.w3.org/2000/svg"><path d="M379.595 61.189h-131c-4.143 0-7.5 3.357-7.5 7.5v44.5h-129.5c-9.675 0-9.675 15 0 15h129.5v37.5c0 9.675 15 9.675 15 0v-89.5h123.5c9.674 0 9.674-15 0-15z" fill="#ebe1dc"/><circle cx="427.175" cy="69.92" fill="#ffd36c" r="69.92"/><path d="M444.163 66.383c-4.52-3.762-9.621-5.054-15.28-5.988-3.208-.53-7.154-.43-7.861-4.125-1.604-8.383 11.047-8.077 13.893-1.767 1.678 3.721 7.008 4.542 10.261 2.69 3.822-2.175 4.346-6.591 2.691-10.261-2.359-5.232-7.095-8.94-12.481-10.82v-6.074c0-4.143-3.357-7.5-7.5-7.5s-7.5 3.357-7.5 7.5v5.732c-9.528 3.095-15.601 12.377-14.147 22.474.8 5.555 3.618 10.604 8.555 13.493 4.276 2.503 9.101 2.803 13.834 3.748 3.713.741 8.121 2.381 8.206 6.856.082 4.33-3.18 7.553-7.362 8.112-5.802.778-10.981-2.939-11.952-8.606-1.198-8.993-15.561-8.87-14.933.582.72 10.828 8.458 18.871 17.8 21.842v5.531c0 4.143 3.357 7.5 7.5 7.5s7.5-3.357 7.5-7.5v-5.304c3.441-1.035 6.729-2.874 9.61-5.639 9.196-8.828 8.992-24.299-.834-32.476z" fill="#eaaf20"/><path d="M271.595 190.689h173.014c18.217 0 32.986 14.768 32.986 32.986v225.181h-458v-225.181c0-18.217 14.768-32.986 32.986-32.986h175.014z" fill="#c2f6ff"/><path d="M386.595 223.521h61v225.335h-398v-225.335h61z" fill="#909ec0"/><path d="M401.595 223.521h46v225.335h-46z" fill="#808dab"/><path d="M467.456 497.189h-437.723c-16.369 0-29.639-13.27-29.639-29.639v-18.695h497v18.695c.001 16.37-13.269 29.639-29.638 29.639z" fill="#8ee6f3"/><path d="M456.595 448.856v18.695c0 16.369-13.27 29.639-29.639 29.639h40.5c16.369 0 29.639-13.27 29.639-29.639v-18.695z" fill="#72d1fb"/><path d="M216.095 448.856v7.939c0 9.331 7.564 16.895 16.895 16.895h31.21c9.331 0 16.895-7.564 16.895-16.895v-7.939z" fill="#c2f6ff"/><path d="M108.144 294.689v76.469c0 15.757 12.774 28.531 28.531 28.531 11.205 0 21.373-6.559 25.993-16.768l21.89-49.651zM389.046 296.689v74.469c0 15.757-12.774 28.531-28.531 28.531-11.205 0-21.373-6.559-25.993-16.768l-21.891-49.654z" fill="#f251a1"/><path d="M339.452 202.965c-19.294 0-36.668 8.183-48.872 21.254h-83.972c-12.204-13.072-29.578-21.254-48.872-21.254-36.927 0-66.862 29.935-66.862 66.862s29.935 66.862 66.862 66.862c22.578 0 42.526-11.202 54.633-28.339h72.45c12.106 17.137 32.055 28.339 54.633 28.339 36.927 0 66.862-29.935 66.862-66.862s-29.935-66.862-66.862-66.862z" fill="#fa9084"/><g fill="#f7f3f1"><path d="M180.763 263.336h-15.525v-15.526c0-9.675-15-9.675-15 0v15.525h-15.525c-9.675 0-9.675 15 0 15h15.525v15.525c0 9.675 15 9.675 15 0v-15.525h15.525c9.674.001 9.674-14.999 0-14.999zM362.477 263.336h-15.525v-15.526c0-9.675-15-9.675-15 0v15.525h-15.525c-9.675 0-9.675 15 0 15h15.525v15.525c0 9.675 15 9.675 15 0v-15.525h15.525c9.675.001 9.675-14.999 0-14.999zM256.225 247.838h-15.26c-9.675 0-9.675 15 0 15h15.26c9.674 0 9.674-15 0-15zM256.225 273.566h-15.26c-9.675 0-9.675 15 0 15h15.26c9.674 0 9.674-15 0-15z"/></g><path d="M264.595 224.219h-32v-41.53c0-8.837 7.163-16 16-16s16 7.163 16 16z" fill="#f251a1"/><path d="M82.724 88.148h46.615v58.23c0 5.579-4.522 10.311-10.101 10.311h-99.861c-5.579 0-10.101-4.732-10.101-10.311v-58.23h46.068" fill="#24d3b5"/><path d="M55.344 88.148h-47.426c-3.673 0-6.65-2.977-6.65-6.65v-23.923c0-3.673 2.977-6.65 6.65-6.65h122.778c3.673 0 6.65 2.977 6.65 6.65v23.924c0 3.673-2.977 6.65-6.65 6.65h-47.972" fill="#72e4a0"/><path d="M64.595 40.553c-3.768-8.566-8.789-14.081-13.874-17.622-9.242-6.434-21.902.149-21.902 11.41v16.584h81.553v-16.584c0-11.261-12.66-17.845-21.902-11.41-5.086 3.541-10.106 9.057-13.874 17.622zM55.908 50.689h26.798v106h-26.798z" fill="#ffd36c"/></svg>