<?xml version="1.0" encoding="utf-8"?>
<svg id="master-artboard" viewBox="0 0 1397.7054443359375 1172.755859375" version="1.1" xmlns="http://www.w3.org/2000/svg" x="0px" y="0px" style="enable-background:new 0 0 1400 980;" width="1397.7054443359375px" height="1172.755859375px"><rect id="ee-background" x="0" y="0" width="1397.7054443359375" height="1172.755859375" style="fill: white; fill-opacity: 0; pointer-events: none;"/><defs><linearGradient x1="50%" y1="0%" x2="50%" y2="100%" id="a"><stop stop-color="#FAFBFF" stop-opacity="0" offset="0%"/><stop stop-color="#F2F5FF" offset="52.076%"/><stop stop-color="#F2F5FF" stop-opacity="0" offset="100%"/></linearGradient><linearGradient x1="50%" y1="-10.877%" x2="50%" y2="100%" id="b"><stop stop-color="#FFE579" offset="0%"/><stop stop-color="#FEB755" offset="100%"/></linearGradient><linearGradient x1="51.952%" y1="-8.256%" x2="83.014%" y2="244.669%" id="c"><stop stop-color="#F7FAFF" offset="0%"/><stop stop-color="#C2DCFF" offset="100%"/></linearGradient><linearGradient x1="51.952%" y1="-8.256%" x2="39.295%" y2="156.337%" id="d"><stop stop-color="#F7FAFF" offset="0%"/><stop stop-color="#6B9AD9" offset="100%"/></linearGradient><linearGradient x1="140.584%" y1="-6.483%" x2="40.9%" y2="111.116%" id="e"><stop stop-color="#E5EDFF" offset="0%"/><stop stop-color="#6B9AD9" offset="100%"/></linearGradient><linearGradient x1="13.183%" y1="63.035%" x2="68.879%" y2="57.737%" id="f"><stop stop-color="#925948" offset="0%"/><stop stop-color="#B06C57" offset="100%"/></linearGradient><linearGradient x1="60.731%" y1="0%" x2="52.081%" y2="50%" id="g"><stop stop-color="#3485F7" offset="0%"/><stop stop-color="#1A57CF" offset="100%"/></linearGradient><linearGradient x1="107.254%" y1="-120.462%" x2="38.27%" y2="-120.462%" id="h"><stop stop-color="#FAD0BA" offset="0%"/><stop stop-color="#F2A384" offset="100%"/></linearGradient><linearGradient x1="50%" y1="32.119%" x2="67.286%" y2="115.978%" id="i"><stop stop-color="#84F0A8" offset="0%"/><stop stop-color="#48B676" offset="100%"/></linearGradient><linearGradient x1="81.152%" y1="-76.831%" x2="-15.972%" y2="87.711%" id="j"><stop stop-color="#F7FAFF" offset="0%"/><stop stop-color="#6B9AD9" offset="100%"/></linearGradient><linearGradient x1="51.952%" y1="-8.256%" x2="39.295%" y2="156.337%" id="k"><stop stop-color="#F7FAFF" offset="0%"/><stop stop-color="#C2DCFF" offset="100%"/></linearGradient><linearGradient x1="45.815%" y1="15.16%" x2="75.941%" y2="70.686%" id="l"><stop stop-color="#F59BA9" offset="0%"/><stop stop-color="#F25267" offset="100%"/></linearGradient><linearGradient x1="140.584%" y1="-6.483%" x2="40.9%" y2="111.116%" id="m"><stop stop-color="#B3C2DD" offset="0%"/><stop stop-color="#708AC4" offset="100%"/></linearGradient><linearGradient x1="46.195%" y1="-8.496%" x2="45.051%" y2="156.578%" id="n"><stop stop-color="#F7FAFF" offset="0%"/><stop stop-color="#6B9AD9" offset="100%"/></linearGradient></defs><g transform="matrix(1.307588908385302, 0, 0, 1.307588908385302, -243.12995232874204, -90.66576783868231)"><title>COOPERATION@2x</title><desc>Created with Sketch.</desc><g fill="none"><path d="M 1250.856018 394.479004 A 247 247 0 0 1 1003.856018 641.479004 A 247 247 0 0 1 756.856018 394.479004 A 247 247 0 0 1 1003.856018 147.479004 A 247 247 0 0 1 1250.856018 394.479004 Z" id="Background" fill="#E2EBFC" opacity=".3"/><path d="M 682.759003 556.348999 A 247 247 0 0 1 435.759003 803.348999 A 247 247 0 0 1 188.759003 556.348999 A 247 247 0 0 1 435.759003 309.348999 A 247 247 0 0 1 682.759003 556.348999 Z" id="Background" fill="#E2EBFC" opacity=".2"/><g fill="url(#a)" fill-rule="nonzero"><path d="M373.563 85.515h5v754.869h-5zM261.001 110.529h5v654.814h-5zM473.617 98.022h5v792.39h-5zM573.672 123.036h5v742.362h-5zM673.726 98.022h5v742.362h-5zM773.781 85.515h5v754.869h-5zM873.835 85.515h5v792.39h-5zM973.89 73.008h5v892.445h-5zM1073.944 73.008h5v842.417h-5zM1173.999 73.008h5v779.883h-5z"/></g><g id="Document" fill-rule="nonzero"><path d="M625.417 508.727l132.89-35.608c1.334-.357 2.705.434 3.062 1.768l45.643 170.341c.357 1.334-.434 2.705-1.768 3.062l-132.89 35.608c-1.334.357-2.705-.434-3.062-1.768l-45.643-170.341c-.357-1.334.434-2.705 1.768-3.062z" id="Document-base" fill="url(#b)"/><path d="M640.823 522.726l64.027-17.156 1.942 7.248-64.027 17.156-1.942-7.248zm17.26 16.092l100.269-26.867 1.942 7.248-100.269 26.867-1.942-7.248zm67.317 106.264l27.786-7.445 1.942 7.248-27.786 7.445-1.942-7.248z" id="Shape" fill="#fff"/></g><g fill-rule="nonzero"><path d="M604.351 603.291l105.391-88.433c1.058-.888 2.635-.75 3.522.308l113.356 135.092c.888 1.058.75 2.635-.308 3.522l-105.391 88.433c-1.058.888-2.635.75-3.522-.308l-113.356-135.092c-.888-1.058-.75-2.635.308-3.522z" id="Document-base" fill="url(#c)"/><path id="Document-base" fill="#B7C8FF" d="M781.334 660.499l22.036-18.49 4.824 5.748-22.036 18.49z"/><path id="Document-base" fill="#FDC2C0" d="M752.592 684.617l22.036-18.49 4.824 5.748-22.036 18.49z"/><path fill="#B4CCED" d="M624.23 609.468l50.778-42.608 4.824 5.748-50.778 42.608z"/><path d="M646.673 616.758l79.52-66.726 4.824 5.748-79.52 66.726-4.824-5.748zm3.282 23.369l89.101-74.765 4.824 5.748-89.101 74.765-4.824-5.748zm12.863 15.329l41.197-34.569 4.824 5.748-41.197 34.569-4.824-5.748zm22.444 7.29l79.52-66.726 4.824 5.748-79.52 66.726-4.824-5.748zm3.282 23.369l89.101-74.765 4.824 5.748-89.101 74.765-4.824-5.748zm12.863 15.329l60.359-50.647 4.824 5.748-60.359 50.647-4.824-5.748z" id="Shape" fill="#75A1DC"/></g><g id="Coffee" transform="translate(841.316 637.069)" fill-rule="nonzero"><path d="M 115.061996 57.532001 A 57.530998 57.532001 0 0 1 57.530998 115.064003 A 57.530998 57.532001 0 0 1 0 57.532001 A 57.530998 57.532001 0 0 1 57.530998 0 A 57.530998 57.532001 0 0 1 115.061996 57.532001 Z" id="Coffee-base" fill="url(#d)" transform="rotate(-180 57.531 57.532)"/><path d="M58.782 121.317c-3.454 0-6.253-2.8-6.253-6.253v-22.512h12.507v22.512c0 3.454-2.8 6.253-6.253 6.253z" id="Coffee-base" fill="url(#e)"/><path d="M 96.301998 56.280998 A 38.771 38.771 0 0 1 57.530998 95.051998 A 38.771 38.771 0 0 1 18.759998 56.280998 A 38.771 38.771 0 0 1 57.530998 17.509998 A 38.771 38.771 0 0 1 96.301998 56.280998 Z" id="Coffee-base" fill="url(#e)" transform="rotate(-180 57.531 56.281)"/><path d="M 88.797998 56.280998 A 31.267 31.267 0 0 1 57.530998 87.547998 A 31.267 31.267 0 0 1 26.263998 56.280998 A 31.267 31.267 0 0 1 57.530998 25.013998 A 31.267 31.267 0 0 1 88.797998 56.280998 Z" id="Coffee-base" fill="#7D95C9" style="mix-blend-mode:multiply" transform="rotate(-180 57.531 56.281)"/></g><g transform="translate(634.935 72)" fill-rule="nonzero"><path d="M79.867 297.971c2.916 27.712 14.538 57.785 34.865 90.219 9.449 9.22 15.48 19.489 18.093 30.807 3.756 16.268 23.439 20.704 19.443 26.687-.805 1.206-4.955 3.043-10.87 2.509-5.395-.487-14.883-13.449-20.811-14.659-2.555-.521-3.411 7.971-3.902 13.433-.369 4.106.395 12.196.845 14.146.45 1.95 14.857 24.827 15.294 26.72-7.839 6.01-42.5-26.812-46.63-34.992-4.925-9.753-10.499-32.27-16.721-67.551-24.157-43.537-35.462-71.808-33.914-84.813 2.875-24.152 21.725-25.576 44.307-2.506z" id="Hand" fill="url(#f)"/><path d="M160.475.075c-39.93 70.678-108.231 186.228-73.88 303.79-13.068-1.044-22.358-.789-27.87.765-6.083 1.715-14.186 6.365-24.308 13.949-39.982-130.203-44.535-230.166-13.661-299.89 71.753-16.565 91.367-7.452 139.718-18.614z" id="Sleeve" fill="url(#g)"/><path d="M 72.769999 281.205994 A 6.879 6.879 0 0 1 65.890999 288.084994 A 6.879 6.879 0 0 1 59.011999 281.205994 A 6.879 6.879 0 0 1 65.890999 274.326993 A 6.879 6.879 0 0 1 72.769999 281.205994 Z" id="Sleeve-buttons" fill="#D2D9FF" transform="matrix(-.974 .225 -.225 -.974 193.34 540.275)"/><path d="M 67.423998 258.052002 A 6.879 6.879 0 0 1 60.544998 264.931002 A 6.879 6.879 0 0 1 53.665998 258.052002 A 6.879 6.879 0 0 1 60.544998 251.173002 A 6.879 6.879 0 0 1 67.423998 258.052002 Z" fill="#D2D9FF" transform="matrix(-.974 .225 -.225 -.974 177.578 495.772)"/></g><g fill-rule="nonzero"><g transform="translate(636.204 456.97) translate(87.548)"><path d="M 37.521 115.689003 A 6.879 6.879 0 0 1 30.642 122.568003 A 6.879 6.879 0 0 1 23.763 115.689003 A 6.879 6.879 0 0 1 30.642 108.810003 A 6.879 6.879 0 0 1 37.521 115.689003 Z" id="-bracelet-base" fill="url(#b)"/><path d="M 77.542002 114.438004 A 6.879 6.879 0 0 1 70.663002 121.317004 A 6.879 6.879 0 0 1 63.784002 114.438004 A 6.879 6.879 0 0 1 70.663002 107.559003 A 6.879 6.879 0 0 1 77.542002 114.438004 Z" id="-bracelet-base" fill="url(#b)"/><path d="M37.917 170.82c2.918-23.79-1.003-51.243-11.764-82.359-6.135-9.556-9.203-19.329-9.203-29.321 0-14.361-20.673-33.695-16.166-37.936.908-.855 4.742-1.592 9.595 0 4.428 1.452 22.804 28.319 27.538 30.479 1.221.557 4.071 6.097 11.964 9.55 5.294 2.316 13.053 1.799 13.642 0 1.104-3.37-15.519-16.484-18.569-22.694-2.101-4.278-5.804-13.231-10.414-23.59-2.082-4.678-12.022-13.017-9.617-14.113 7.732-3.52 40.537 30.048 42.416 37.703 2.241 9.127.968 29.497-3.817 61.11 11.822 41.163 15.827 67.045 12.013 77.645-7.083 19.686-23.156 17.232-37.619-6.473z" fill="url(#h)"/><path d="M 41.273001 120.691002 A 6.879 6.879 0 0 1 34.394001 127.570002 A 6.879 6.879 0 0 1 27.515001 120.691002 A 6.879 6.879 0 0 1 34.394001 113.812002 A 6.879 6.879 0 0 1 41.273001 120.691002 Z" id="-bracelet-base" fill="url(#b)"/><path d="M 51.277998 125.694 A 6.879 6.879 0 0 1 44.398998 132.573 A 6.879 6.879 0 0 1 37.519998 125.694 A 6.879 6.879 0 0 1 44.398998 118.815 A 6.879 6.879 0 0 1 51.277998 125.694 Z" id="-bracelet-base" fill="url(#b)"/><path d="M 62.533999 124.444 A 6.879 6.879 0 0 1 55.654999 131.323 A 6.879 6.879 0 0 1 48.775999 124.444 A 6.879 6.879 0 0 1 55.654999 117.565 A 6.879 6.879 0 0 1 62.533999 124.444 Z" id="-bracelet-base" fill="url(#b)"/><path d="M 73.790003 120.691002 A 6.879 6.879 0 0 1 66.911003 127.570002 A 6.879 6.879 0 0 1 60.032003 120.691002 A 6.879 6.879 0 0 1 66.911003 113.812002 A 6.879 6.879 0 0 1 73.790003 120.691002 Z" fill="url(#b)"/></g><path d="M636.47 861.863c47.142-51.51 126.744-135.138 120.701-240.314 10.75 3.404 18.585 4.987 23.506 4.751 5.43-.261 13.121-2.59 23.072-6.988 8.316 116.861-7.21 201.522-46.578 253.984-63.342 0-78.018-11.434-120.701-11.434z" fill="url(#i)"/><path d="M671.934 864.715l-19.055-20.816c.837-.925 1.679-1.858 2.525-2.799l21.379 23.354 35.392-29.08-26.408-28.848-2.415 1.985c3.558-4.411 7.108-8.939 10.618-13.581l22.935-18.844-5.435-5.937c.707-1.08 1.409-2.165 2.107-3.255l6.231 6.806 29.835-24.514-16.189-17.684c.585-1.217 1.163-2.438 1.732-3.665l17.36 18.964 29.827-24.507-22.961-25.083-19.64 20.191c1.238-2.985 2.425-5.997 3.556-9.037l13.546-13.926-6.723-7.344c.387-1.439.761-2.883 1.121-4.332l8.222 8.982 23.864-24.534-18.719-20.449-8.447 8.888c.231-2.018.432-4.045.603-6.081l5.305-5.582-4.693-5.127c.055-1.813.085-3.632.09-5.459l7.195 7.86 14.212-14.954c.628.02 1.22.016 1.774-.011 1.177-.057 2.461-.21 3.85-.461l-17.297 18.2 18.748 20.481 19.226-19.766c.074 1.731.142 3.455.205 5.171l-16.893 17.367 17.352 18.956c-.023 1.829-.054 3.647-.092 5.456l-19.881-21.718-23.864 24.534 23.244 25.391 20.147-16.554c-.067 1.689-.141 3.368-.222 5.039l-17.388 14.287 15.032 16.421c-.178 1.66-.364 3.309-.557 4.948l-17.378-18.984-29.827 24.507 26.408 28.848 18.043-14.825c-.314 1.902-.639 3.788-.976 5.658l-14.53 11.939 9.721 10.619c-.363 1.458-.734 2.905-1.113 4.341l-11.511-12.574-29.835 24.514 23.877 26.083 6.781-5.572c-1.022 2.529-2.076 5.014-3.163 7.455l-1.081.888.457.5c-.562 1.24-1.133 2.469-1.713 3.686l-1.648-1.8-30.771 25.283 7.922 8.654c-1.759-.018-3.478-.045-5.161-.081l-5.665-6.188-6.979 5.735c-1.889-.097-3.727-.205-5.517-.323l9.959-8.183-23.877-26.083-34.069 27.993c-2.915-.496-5.8-.976-8.709-1.425zm122.492-241.65l10.266 11.215c.108 1.972.209 3.935.303 5.888l-14.474-15.811c1.243-.376 2.544-.807 3.905-1.291zm-52.934 238.78l30.771-25.283-23.877-26.083-30.771 25.283 23.877 26.083zm37.096-81.037l-26.408-28.848-29.835 24.514 26.408 28.848 29.835-24.514zm-32.738 26.899l-26.408-28.848-30.771 25.283 26.408 28.848 30.771-25.283z" fill="#84F0A8"/><path d="M802.88 619.693l.868-.381c8.316 116.861-7.21 201.522-46.578 253.984-7.473 0-14.268-.159-20.512-.44 49.327-56.987 71.401-141.375 66.221-253.164z" fill="url(#i)" style="mix-blend-mode:multiply" opacity=".2"/></g><g><path d="M487.75 544.196l167.614 164.688.901 2.108c.803 1.879.382 4.058-1.063 5.503l-107.269 107.27c-1.954 1.954-5.121 1.954-7.075 0l-167.217-167.218c-1.538-1.538-1.906-3.893-.911-5.827l1.356-2.635 106.666-103.904c1.949-1.898 5.057-1.891 6.997.015z" id="Macbook-base" fill="url(#j)" fill-rule="nonzero"/><path d="M487.795 540.55l166.265 166.265c1.953 1.953 1.953 5.118 0 7.071l-106.128 106.128c-1.953 1.953-5.118 1.953-7.071 0l-166.265-166.265c-1.953-1.953-1.953-5.118 0-7.071l106.128-106.128c1.953-1.953 5.118-1.953 7.071 0z" id="Macbook-base" fill="url(#d)" fill-rule="nonzero"/><path d="M455.583 586.825l150.456 150.456c1.951 1.951 1.953 5.114.004 7.067l-57.592 57.724c-1.95 1.955-5.116 1.959-7.071.008l-.004-.004-150.456-150.456c-1.951-1.951-1.953-5.114-.004-7.067l57.592-57.724c1.95-1.955 5.116-1.959 7.071-.008l.004.004z" id="Macbook-base" fill="url(#d)" fill-rule="nonzero" style="mix-blend-mode:multiply" opacity=".1"/><path d="M471.543 612.148l-8.34 8.302c-.46.458-1.195.465-1.642.015l-7.406-7.456c-.447-.45-.435-1.186.024-1.644l8.34-8.302c.46-.458 1.195-.465 1.642-.015l7.406 7.456c.447.45.435 1.186-.024 1.644zm78.077 176.56c-.46.458-1.196.466-1.642.016l-7.54-7.592c-.447-.45-.435-1.186.025-1.644l7.227-7.194c.46-.458 1.196-.466 1.642-.016l7.54 7.592c.447.45.435 1.186-.025 1.644l-7.227 7.194zm-10.1-10.169c-.46.458-1.196.466-1.642.016l-7.54-7.592c-.447-.45-.435-1.186.025-1.644l7.227-7.194c.46-.458 1.196-.466 1.642-.016l7.54 7.592c.447.45.435 1.186-.025 1.644l-7.227 7.194zm4.489-15.794c-.46.458-1.196.466-1.642.016l-7.54-7.592c-.447-.45-.435-1.186.025-1.644l7.227-7.194c.46-.458 1.196-.466 1.642-.016l7.54 7.592c.447.45.435 1.186-.025 1.644l-7.227 7.194zm-10.1-10.169c-.46.458-1.196.466-1.642.016l-7.54-7.592c-.447-.45-.435-1.186.025-1.644l7.227-7.194c.46-.458 1.196-.466 1.642-.016l7.54 7.592c.447.45.435 1.186-.025 1.644l-7.227 7.194zm-10.1-10.169c-.46.458-1.196.466-1.642.016l-7.54-7.592c-.447-.45-.435-1.186.025-1.644l7.227-7.194c.46-.458 1.196-.466 1.642-.016l7.54 7.592c.447.45.435 1.186-.025 1.644l-7.227 7.194zm-10.1-10.169c-.46.458-1.196.466-1.642.016l-7.54-7.592c-.447-.45-.435-1.186.025-1.644l7.227-7.194c.46-.458 1.196-.466 1.642-.016l7.54 7.592c.447.45.435 1.186-.025 1.644l-7.227 7.194zm-10.1-10.169c-.46.458-1.196.466-1.642.016l-7.54-7.592c-.447-.45-.435-1.186.025-1.644l7.227-7.194c.46-.458 1.196-.466 1.642-.016l7.54 7.592c.447.45.435 1.186-.025 1.644l-7.227 7.194zm-10.1-10.169c-.46.458-1.196.466-1.642.016l-7.54-7.592c-.447-.45-.435-1.186.025-1.644l7.227-7.194c.46-.458 1.196-.466 1.642-.016l7.54 7.592c.447.45.435 1.186-.025 1.644l-7.227 7.194zm-10.1-10.169c-.46.458-1.196.466-1.642.016l-7.54-7.592c-.447-.45-.435-1.186.025-1.644l7.227-7.194c.46-.458 1.196-.466 1.642-.016l7.54 7.592c.447.45.435 1.186-.025 1.644l-7.227 7.194zm-10.1-10.169c-.46.458-1.196.466-1.642.016l-7.54-7.592c-.447-.45-.435-1.186.025-1.644l7.227-7.194c.46-.458 1.196-.466 1.642-.016l7.54 7.592c.447.45.435 1.186-.025 1.644l-7.227 7.194zm56.114 76.809c-.46.458-1.196.466-1.642.016l-7.54-7.592c-.447-.45-.435-1.186.025-1.644l7.227-7.194c.46-.458 1.196-.466 1.642-.016l7.54 7.592c.447.45.435 1.186-.025 1.644l-7.227 7.194zm-10.1-10.169c-.46.458-1.196.466-1.642.016l-7.54-7.592c-.447-.45-.435-1.186.025-1.644l7.227-7.194c.46-.458 1.196-.466 1.642-.016l7.54 7.592c.447.45.435 1.186-.025 1.644l-7.227 7.194zm-10.1-10.169c-.46.458-1.196.466-1.642.016l-7.54-7.592c-.447-.45-.435-1.186.025-1.644l7.227-7.194c.46-.458 1.196-.466 1.642-.016l7.54 7.592c.447.45.435 1.186-.025 1.644l-7.227 7.194zm-10.1-10.169c-.46.458-1.196.466-1.642.016l-7.54-7.592c-.447-.45-.435-1.186.025-1.644l7.227-7.194c.46-.458 1.196-.466 1.642-.016l7.54 7.592c.447.45.435 1.186-.025 1.644l-7.227 7.194zm-10.1-10.169c-.46.458-1.196.466-1.642.016l-7.54-7.592c-.447-.45-.435-1.186.025-1.644l7.227-7.194c.46-.458 1.196-.466 1.642-.016l7.54 7.592c.447.45.435 1.186-.025 1.644l-7.227 7.194zm-10.1-10.169c-.46.458-1.196.466-1.642.016l-7.54-7.592c-.447-.45-.435-1.186.025-1.644l7.227-7.194c.46-.458 1.196-.466 1.642-.016l7.54 7.592c.447.45.435 1.186-.025 1.644l-7.227 7.194zm-10.1-10.169c-.46.458-1.196.466-1.642.016l-7.54-7.592c-.447-.45-.435-1.186.025-1.644l7.227-7.194c.46-.458 1.196-.466 1.642-.016l7.54 7.592c.447.45.435 1.186-.025 1.644l-7.227 7.194zm-10.1-10.169c-.46.458-1.196.466-1.642.016l-7.54-7.592c-.447-.45-.435-1.186.025-1.644l7.227-7.194c.46-.458 1.196-.466 1.642-.016l7.54 7.592c.447.45.435 1.186-.025 1.644l-7.227 7.194zm101.048 81.422c-.46.458-1.196.466-1.641.017l-13.064-13.153c-.446-.449-.434-1.185.026-1.643l7.227-7.194c.46-.458 1.196-.466 1.641-.017l13.064 13.153c.446.449.434 1.185-.026 1.643l-7.227 7.194zm-17.233 17.156c-.46.458-1.196.465-1.641.016l-7.811-7.865c-.446-.449-.434-1.186.025-1.643l4.17-4.152c.46-.458 1.196-.465 1.641-.016l7.811 7.865c.446.449.434 1.186-.025 1.643l-4.17 4.152zm-10.504-10.576c-.46.458-1.196.465-1.641.016l-7.811-7.865c-.446-.449-.434-1.186.025-1.643l4.17-4.152c.46-.458 1.196-.465 1.641-.016l7.811 7.865c.446.449.434 1.186-.025 1.643l-4.17 4.152zm-10.504-10.576c-.46.458-1.196.465-1.641.016l-7.811-7.865c-.446-.449-.434-1.186.025-1.643l4.17-4.152c.46-.458 1.196-.465 1.641-.016l7.811 7.865c.446.449.434 1.186-.025 1.643l-4.17 4.152zm-10.504-10.576c-.46.458-1.196.465-1.641.016l-7.811-7.865c-.446-.449-.434-1.186.025-1.643l4.17-4.152c.46-.458 1.196-.465 1.641-.016l7.811 7.865c.446.449.434 1.186-.025 1.643l-4.17 4.152zm-10.504-10.576c-.46.458-1.196.465-1.641.016l-7.811-7.865c-.446-.449-.434-1.186.025-1.643l4.17-4.152c.46-.458 1.196-.465 1.641-.016l7.811 7.865c.446.449.434 1.186-.025 1.643l-4.17 4.152zm-10.504-10.576c-.46.458-1.196.465-1.641.016l-7.811-7.865c-.446-.449-.434-1.186.025-1.643l4.17-4.152c.46-.458 1.196-.465 1.641-.016l7.811 7.865c.446.449.434 1.186-.025 1.643l-4.17 4.152zm-10.504-10.576c-.46.458-1.196.465-1.641.016l-7.811-7.865c-.446-.449-.434-1.186.025-1.643l4.17-4.152c.46-.458 1.196-.465 1.641-.016l7.811 7.865c.446.449.434 1.186-.025 1.643l-4.17 4.152zm-10.504-10.576c-.46.458-1.196.465-1.641.016l-7.811-7.865c-.446-.449-.434-1.186.025-1.643l4.17-4.152c.46-.458 1.196-.465 1.641-.016l7.811 7.865c.446.449.434 1.186-.025 1.643l-4.17 4.152zm-10.504-10.576c-.46.458-1.196.465-1.641.016l-7.811-7.865c-.446-.449-.434-1.186.025-1.643l4.17-4.152c.46-.458 1.196-.465 1.641-.016l7.811 7.865c.446.449.434 1.186-.025 1.643l-4.17 4.152zm-10.504-10.576c-.46.458-1.196.465-1.641.016l-7.811-7.865c-.446-.449-.434-1.186.025-1.643l4.17-4.152c.46-.458 1.196-.465 1.641-.016l7.811 7.865c.446.449.434 1.186-.025 1.643l-4.17 4.152zm-34.212-68.951l17.371-17.294c.461-.459 1.196-.466 1.642-.017l5.252 5.288c.446.449.435 1.185-.026 1.644l-9.311 9.269 1.481 1.491c.447.45.435 1.186-.025 1.644l-7.227 7.194c-.46.458-1.196.466-1.642.016l-7.54-7.592c-.447-.45-.435-1.186.025-1.644zm57.415 37.492c-.46.458-1.196.466-1.642.016l-7.54-7.592c-.447-.45-.435-1.186.025-1.644l7.227-7.194c.46-.458 1.196-.466 1.642-.016l7.54 7.592c.447.45.435 1.186-.025 1.644l-7.227 7.194zm-10.1-10.169c-.46.458-1.196.466-1.642.016l-7.54-7.592c-.447-.45-.435-1.186.025-1.644l7.227-7.194c.46-.458 1.196-.466 1.642-.016l7.54 7.592c.447.45.435 1.186-.025 1.644l-7.227 7.194zm-10.1-10.169c-.46.458-1.196.466-1.642.016l-7.54-7.592c-.447-.45-.435-1.186.025-1.644l7.227-7.194c.46-.458 1.196-.466 1.642-.016l7.54 7.592c.447.45.435 1.186-.025 1.644l-7.227 7.194zm-10.1-10.169c-.46.458-1.196.466-1.642.016l-7.54-7.592c-.447-.45-.435-1.186.025-1.644l7.227-7.194c.46-.458 1.196-.466 1.642-.016l7.54 7.592c.447.45.435 1.186-.025 1.644l-7.227 7.194zm42.376 2.037c-.46.458-1.196.466-1.642.016l-7.54-7.592c-.447-.45-.435-1.186.025-1.644l8.338-8.301c.46-.458 1.196-.466 1.642-.016l7.54 7.592c.447.45.435 1.186-.025 1.644l-8.338 8.301zm-5.098-15.149c-.46.458-1.195.465-1.642.015l-7.406-7.456c-.447-.45-.435-1.186.024-1.644l3.337-3.322c.46-.458 1.195-.465 1.642-.015l7.406 7.456c.447.45.435 1.186-.024 1.644l-3.337 3.322zm-19.931-20.067c-.46.458-1.195.465-1.642.015l-7.406-7.456c-.447-.45-.435-1.186.024-1.644l3.337-3.322c.46-.458 1.195-.465 1.642-.015l7.406 7.456c.447.45.435 1.186-.024 1.644l-3.337 3.322zm38.093 48.368c-.46.458-1.195.466-1.642.016l-10.504-10.576c-.446-.449-.434-1.186.026-1.644l8.338-8.301c.46-.458 1.195-.466 1.642-.016l10.504 10.576c.446.449.434 1.186-.026 1.644l-8.338 8.301zm-40.446-20.408c-.46.458-1.195.466-1.642.016l-20.201-20.338c-.446-.449-.434-1.186.026-1.644l7.227-7.194c.46-.458 1.195-.466 1.642-.016l20.201 20.338c.446.449.434 1.186-.026 1.644l-7.227 7.194zm20.201 20.338c-.46.458-1.196.466-1.642.016l-7.54-7.592c-.447-.45-.435-1.186.025-1.644l7.227-7.194c.46-.458 1.196-.466 1.642-.016l7.54 7.592c.447.45.435 1.186-.025 1.644l-7.227 7.194zm-10.1-10.169c-.46.458-1.196.466-1.642.016l-7.54-7.592c-.447-.45-.435-1.186.025-1.644l7.227-7.194c.46-.458 1.196-.466 1.642-.016l7.54 7.592c.447.45.435 1.186-.025 1.644l-7.227 7.194zm-2.782 37.826c-.46.458-1.196.466-1.642.016l-7.54-7.592c-.447-.45-.435-1.186.025-1.644l7.227-7.194c.46-.458 1.196-.466 1.642-.016l7.54 7.592c.447.45.435 1.186-.025 1.644l-7.227 7.194zm-10.1-10.169c-.46.458-1.196.466-1.642.016l-7.54-7.592c-.447-.45-.435-1.186.025-1.644l7.227-7.194c.46-.458 1.196-.466 1.642-.016l7.54 7.592c.447.45.435 1.186-.025 1.644l-7.227 7.194zm-10.1-10.169c-.46.458-1.196.466-1.642.016l-7.54-7.592c-.447-.45-.435-1.186.025-1.644l7.227-7.194c.46-.458 1.196-.466 1.642-.016l7.54 7.592c.447.45.435 1.186-.025 1.644l-7.227 7.194zm-10.1-10.169c-.46.458-1.196.466-1.642.016l-7.54-7.592c-.447-.45-.435-1.186.025-1.644l7.227-7.194c.46-.458 1.196-.466 1.642-.016l7.54 7.592c.447.45.435 1.186-.025 1.644l-7.227 7.194zm15.712 36.133c-.46.458-1.196.466-1.642.016l-7.54-7.592c-.447-.45-.435-1.186.025-1.644l7.227-7.194c.46-.458 1.196-.466 1.642-.016l7.54 7.592c.447.45.435 1.186-.025 1.644l-7.227 7.194zm-10.1-10.169c-.46.458-1.196.466-1.642.016l-7.54-7.592c-.447-.45-.435-1.186.025-1.644l7.227-7.194c.46-.458 1.196-.466 1.642-.016l7.54 7.592c.447.45.435 1.186-.025 1.644l-7.227 7.194zm-10.1-10.169c-.46.458-1.196.466-1.642.016l-7.54-7.592c-.447-.45-.435-1.186.025-1.644l7.227-7.194c.46-.458 1.196-.466 1.642-.016l7.54 7.592c.447.45.435 1.186-.025 1.644l-7.227 7.194zm-10.1-10.169c-.46.458-1.196.466-1.641.017l-13.064-13.153c-.446-.449-.434-1.185.026-1.643l7.227-7.194c.46-.458 1.196-.466 1.641-.017l13.064 13.153c.446.449.434 1.185-.026 1.643l-7.227 7.194zm19.173 33.496c-.46.458-1.196.465-1.641.016l-7.811-7.865c-.446-.449-.434-1.186.025-1.643l4.17-4.152c.46-.458 1.196-.465 1.641-.016l7.811 7.865c.446.449.434 1.186-.025 1.643l-4.17 4.152zm-10.504-10.576c-.46.458-1.196.465-1.641.016l-7.811-7.865c-.446-.449-.434-1.186.025-1.643l4.17-4.152c.46-.458 1.196-.465 1.641-.016l7.811 7.865c.446.449.434 1.186-.025 1.643l-4.17 4.152zm-10.504-10.576c-.46.458-1.196.465-1.641.016l-7.811-7.865c-.446-.449-.434-1.186.025-1.643l4.17-4.152c.46-.458 1.196-.465 1.641-.016l7.811 7.865c.446.449.434 1.186-.025 1.643l-4.17 4.152zm-10.504-10.576c-.46.458-1.196.465-1.641.016l-7.811-7.865c-.446-.449-.434-1.186.025-1.643l4.17-4.152c.46-.458 1.196-.465 1.641-.016l7.811 7.865c.446.449.434 1.186-.025 1.643l-4.17 4.152zm146.024 92.197c-.46.458-1.196.466-1.642.016l-7.54-7.592c-.447-.45-.435-1.186.025-1.644l7.227-7.194c.46-.458 1.196-.466 1.642-.016l7.54 7.592c.447.45.435 1.186-.025 1.644l-7.227 7.194zm-10.1-10.169c-.46.458-1.196.466-1.642.016l-7.54-7.592c-.447-.45-.435-1.186.025-1.644l7.227-7.194c.46-.458 1.196-.466 1.642-.016l7.54 7.592c.447.45.435 1.186-.025 1.644l-7.227 7.194zm-10.1-10.169c-.46.458-1.196.466-1.642.016l-7.54-7.592c-.447-.45-.435-1.186.025-1.644l7.227-7.194c.46-.458 1.196-.466 1.642-.016l7.54 7.592c.447.45.435 1.186-.025 1.644l-7.227 7.194zm-10.1-10.169c-.46.458-1.196.466-1.642.016l-7.54-7.592c-.447-.45-.435-1.186.025-1.644l7.227-7.194c.46-.458 1.196-.466 1.642-.016l7.54 7.592c.447.45.435 1.186-.025 1.644l-7.227 7.194zm-10.1-10.169c-.46.458-1.196.466-1.642.016l-7.54-7.592c-.447-.45-.435-1.186.025-1.644l7.227-7.194c.46-.458 1.196-.466 1.642-.016l7.54 7.592c.447.45.435 1.186-.025 1.644l-7.227 7.194zm-20.201-20.338c-.46.458-1.196.466-1.642.016l-7.54-7.592c-.447-.45-.435-1.186.025-1.644l7.227-7.194c.46-.458 1.196-.466 1.642-.016l7.54 7.592c.447.45.435 1.186-.025 1.644l-7.227 7.194zm-10.1-10.169c-.46.458-1.196.466-1.642.016l-7.54-7.592c-.447-.45-.435-1.186.025-1.644l7.227-7.194c.46-.458 1.196-.466 1.642-.016l7.54 7.592c.447.45.435 1.186-.025 1.644l-7.227 7.194zm108.904 69.018c-.46.458-1.196.466-1.642.016l-7.54-7.592c-.447-.45-.435-1.186.025-1.644l8.338-8.301c.46-.458 1.196-.466 1.642-.016l7.54 7.592c.447.45.435 1.186-.025 1.644l-8.338 8.301zm-10.1-10.169c-.46.458-1.196.466-1.642.016l-7.54-7.592c-.447-.45-.435-1.186.025-1.644l8.338-8.301c.46-.458 1.196-.466 1.642-.016l7.54 7.592c.447.45.435 1.186-.025 1.644l-8.338 8.301zm-10.1-10.169c-.46.458-1.196.466-1.642.016l-7.54-7.592c-.447-.45-.435-1.186.025-1.644l8.338-8.301c.46-.458 1.196-.466 1.642-.016l7.54 7.592c.447.45.435 1.186-.025 1.644l-8.338 8.301zm-.089 40.538c-.46.458-1.196.465-1.642.016l-15.352-15.456c-.446-.45-.435-1.186.025-1.644l7.227-7.194c.46-.458 1.196-.465 1.642-.016l15.352 15.456c.446.45.435 1.186-.025 1.644l-7.227 7.194zm-23.119-43.59c-.46.458-1.196.466-1.642.016l-7.54-7.592c-.447-.45-.435-1.186.025-1.644l7.227-7.194c.46-.458 1.196-.466 1.642-.016l7.54 7.592c.447.45.435 1.186-.025 1.644l-7.227 7.194zm-10.1-10.169c-.46.458-1.196.466-1.642.016l-7.54-7.592c-.447-.45-.435-1.186.025-1.644l7.227-7.194c.46-.458 1.196-.466 1.642-.016l7.54 7.592c.447.45.435 1.186-.025 1.644l-7.227 7.194zm10.145-10.1c-.46.458-1.195.466-1.642.016l-47.942-48.268c-.447-.45-.435-1.186.025-1.644l8.338-8.301c.46-.458 1.195-.466 1.642-.016l47.942 48.268c.447.45.435 1.186-.025 1.644l-8.338 8.301zm-20.245-.069c-.46.458-1.196.466-1.642.016l-7.54-7.592c-.447-.45-.435-1.186.025-1.644l7.227-7.194c.46-.458 1.196-.466 1.642-.016l7.54 7.592c.447.45.435 1.186-.025 1.644l-7.227 7.194zm-10.1-10.169c-.46.458-1.196.466-1.642.016l-7.54-7.592c-.447-.45-.435-1.186.025-1.644l7.227-7.194c.46-.458 1.196-.466 1.642-.016l7.54 7.592c.447.45.435 1.186-.025 1.644l-7.227 7.194zm-10.1-10.169c-.46.458-1.196.466-1.642.016l-7.54-7.592c-.447-.45-.435-1.186.025-1.644l7.227-7.194c.46-.458 1.196-.466 1.642-.016l7.54 7.592c.447.45.435 1.186-.025 1.644l-7.227 7.194zm-10.1-10.169c-.46.458-1.196.466-1.642.016l-7.54-7.592c-.447-.45-.435-1.186.025-1.644l7.227-7.194c.46-.458 1.196-.466 1.642-.016l7.54 7.592c.447.45.435 1.186-.025 1.644l-7.227 7.194zm-10.1-10.169c-.46.458-1.196.466-1.642.016l-7.54-7.592c-.447-.45-.435-1.186.025-1.644l7.227-7.194c.46-.458 1.196-.466 1.642-.016l7.54 7.592c.447.45.435 1.186-.025 1.644l-7.227 7.194zm70.703 71.184c-.46.458-1.196.466-1.642.016l-7.54-7.592c-.447-.45-.435-1.186.025-1.644l7.227-7.194c.46-.458 1.196-.466 1.642-.016l7.54 7.592c.447.45.435 1.186-.025 1.644l-7.227 7.194zm10.1 10.169c-.46.458-1.196.466-1.642.016l-7.54-7.592c-.447-.45-.435-1.186.025-1.644l7.227-7.194c.46-.458 1.196-.466 1.642-.016l7.54 7.592c.447.45.435 1.186-.025 1.644l-7.227 7.194zm-65.495-45.627c-.46.458-1.196.466-1.642.016l-7.54-7.592c-.447-.45-.435-1.186.025-1.644l7.227-7.194c.46-.458 1.196-.466 1.642-.016l7.54 7.592c.447.45.435 1.186-.025 1.644l-7.227 7.194zm78.558 58.779c-.46.458-1.195.466-1.642.016l-10.504-10.576c-.446-.449-.435-1.186.026-1.644l7.227-7.194c.46-.458 1.195-.466 1.642-.016l10.504 10.576c.446.449.435 1.186-.026 1.644l-7.227 7.194zm-20.156-40.607c-.46.458-1.195.466-1.642.016l-10.504-10.576c-.446-.449-.434-1.186.026-1.644l8.338-8.301c.46-.458 1.195-.466 1.642-.016l10.504 10.576c.446.449.434 1.186-.026 1.644l-8.338 8.301z" fill="#7D95C9" style="mix-blend-mode:multiply"/><path d="M543.287 606.838l34.96 34.965c1.952 1.952 1.953 5.116.002 7.069l-21.522 21.561c-1.951 1.954-5.117 1.956-7.071.005l-.002-.002-34.957-34.967c-1.952-1.952-1.953-5.116-.002-7.069l21.522-21.561c1.951-1.954 5.117-1.956 7.071-.005l.002.002-.002.002z" id="Macbook-base" fill="#B6CDED" fill-rule="nonzero"/><path d="M290.081 672.771l3.941-5.133 77.797-6.529 170.441 159.927-1.122 2.217c-.914 1.806-2.518 3.165-4.449 3.771l-66.243 20.767c-4.016 1.259-8.398.171-11.359-2.819l-168.903-170.559c-.44-.444-.484-1.145-.103-1.641z" id="Macbook-base" fill="#7D95C9" fill-rule="nonzero" style="mix-blend-mode:multiply"/><path d="M293.343 666.937l79.727-14.582 169.141 168.72-69.983 21.939c-3.573 1.12-7.472.15-10.104-2.513l-169.446-171.455c-.485-.491-.481-1.282.01-1.768.179-.177.407-.295.654-.341z" id="Macbook-base" fill="url(#d)" fill-rule="nonzero"/><path d="M304.583 670.673l69.737-13.316 160.386 159.965-61.315 18.3c-3.529 1.053-7.351.082-9.949-2.529l-159.511-160.311c-.487-.489-.485-1.281.004-1.768.177-.176.402-.295.647-.342z" fill="url(#k)" fill-rule="nonzero"/></g><g fill-rule="nonzero"><path id="Book-base" fill="url(#b)" d="M840.299 516.823l6.108-14.434-16.114-2.896 23.829-13.758 10.005 17.33z"/><path d="M905.1 584.713l-57.533-99.65c-1.381-2.391-.561-5.449 1.83-6.83l112.65-65.039c2.391-1.381 5.449-.561 6.83 1.83l57.533 99.65-121.31 70.039z" id="Book-base" fill="url(#l)"/><path fill="#fff" opacity=".45" d="M915.339 549.918l-35.019-60.655 28.161-16.259 35.019 60.655zM976.575 505.899l-28.766-49.824 6.499-3.752 28.766 49.824zM987.406 499.645l-28.766-49.824 6.499-3.752 28.766 49.824z"/></g><g transform="translate(440.847 259.11)" fill-rule="nonzero"><path d="M3.33 74.042l125.647-72.542c2.391-1.381 5.449-.561 6.83 1.83l91.928 159.225c1.381 2.391.561 5.449-1.83 6.83l-125.647 72.542c-2.391 1.381-5.449.561-6.83-1.83l-91.928-159.225c-1.381-2.391-.561-5.449 1.83-6.83z" id="Ipad-base" fill="url(#m)"/><path d="M 164.956995 198.074005 A 6.253 6.253 0 0 1 158.703995 204.327005 A 6.253 6.253 0 0 1 152.450995 198.074005 A 6.253 6.253 0 0 1 158.703995 191.821005 A 6.253 6.253 0 0 1 164.956995 198.074005 Z" id="Ipad-base" fill="#5C76AF" transform="rotate(-30 158.704 198.074)"/><path d="M 72.406998 44.27 A 2.501 2.501 0 0 1 69.905998 46.771 A 2.501 2.501 0 0 1 67.404998 44.27 A 2.501 2.501 0 0 1 69.905998 41.769001 A 2.501 2.501 0 0 1 72.406998 44.27 Z" id="Ipad-base" fill="#5C76AF" transform="rotate(-30 69.906 44.27)"/><path fill="url(#k)" d="M10.211 85.956l125.642-72.54 81.295 140.807-125.642 72.54z"/></g><g transform="translate(876.084 515.752)" fill-rule="nonzero"><path d="M 221.621994 265.770996 A 81.919998 81.919998 0 0 1 139.701996 347.690994 A 81.919998 81.919998 0 0 1 57.781998 265.770996 A 81.919998 81.919998 0 0 1 139.701996 183.850998 A 81.919998 81.919998 0 0 1 221.621994 265.770996 Z" id="Lamp-base" fill="url(#e)"/><path d="M 166.591003 260.143005 A 23.763 23.763 0 0 1 142.828003 283.906006 A 23.763 23.763 0 0 1 119.065002 260.143005 A 23.763 23.763 0 0 1 142.828003 236.380005 A 23.763 23.763 0 0 1 166.591003 260.143005 Z" id="Lamp-base" fill="url(#d)"/><path d="M 202.633003 105.185997 A 97.980003 98.011002 0 0 1 104.653 203.196999 A 97.980003 98.011002 0 0 1 6.672997 105.185997 A 97.980003 98.011002 0 0 1 104.653 7.174995 A 97.980003 98.011002 0 0 1 202.633003 105.185997 Z" id="Lamp-base" fill="url(#d)" transform="rotate(-4 104.653 105.186)"/><path d="M92.801 202.496v-57.416l20.636 11.882 30.016 30.017 1.178 7.721c-10.197 4.558-21.353 7.436-33.141 8.26-6.348.444-12.597.273-18.689-.463z" fill="url(#n)" style="mix-blend-mode:multiply" opacity=".3"/><path d="M130.691 157.444c-1.431-2.974-.778-6.803 1.458-8.553 2.236-1.75 5.209-.758 6.639 2.216 17.934 37.272 28.304 63.143 31.22 78.227 2.36 12.205-.262 23.716-6.502 31.076-6.122 7.22-14.76 9.196-22.257 4.462-2.422-1.529-3.504-5.276-2.416-8.369 1.087-3.093 3.932-4.36 6.354-2.831 8.535 5.39 18.478-6.337 15.503-21.721-2.579-13.339-12.616-38.379-30-74.507z" id="Lamp-base" fill="#5171B9"/><path d="M98.672 164.792c-11.192-16.593-6.818-39.114 9.77-50.302 16.588-11.189 39.107-6.807 50.299 9.785.625.926 8.915 13.217 24.87 36.872l-60.069 40.517c-15.955-23.655-24.245-35.946-24.87-36.872z" id="Lamp-base" fill="url(#e)"/><path d="M 189.804996 181.404999 A 36.228001 29.65 0 0 1 153.576996 211.054998 A 36.228001 29.65 0 0 1 117.348995 181.404999 A 36.228001 29.65 0 0 1 153.576996 151.754999 A 36.228001 29.65 0 0 1 189.804996 181.404999 Z" fill="url(#k)" transform="rotate(-34 153.577 181.405)"/></g><g transform="matrix(1 0 0 -1 796.292 421.95)" fill-rule="nonzero"><path d="M 115.061996 57.532001 A 57.530998 57.532001 0 0 1 57.530998 115.064003 A 57.530998 57.532001 0 0 1 0 57.532001 A 57.530998 57.532001 0 0 1 57.530998 0 A 57.530998 57.532001 0 0 1 115.061996 57.532001 Z" id="Coffee-base" fill="url(#d)" transform="rotate(-180 57.531 57.532)"/><path d="M58.782 121.317c-3.454 0-6.253-2.8-6.253-6.253v-22.512h12.507v22.512c0 3.454-2.8 6.253-6.253 6.253z" id="Coffee-base" fill="url(#e)"/><path d="M 96.301998 56.280998 A 38.771 38.771 0 0 1 57.530998 95.051998 A 38.771 38.771 0 0 1 18.759998 56.280998 A 38.771 38.771 0 0 1 57.530998 17.509998 A 38.771 38.771 0 0 1 96.301998 56.280998 Z" id="Coffee-base" fill="url(#e)" transform="rotate(-180 57.531 56.281)"/><path d="M 88.797998 56.280998 A 31.267 31.267 0 0 1 57.530998 87.547998 A 31.267 31.267 0 0 1 26.263998 56.280998 A 31.267 31.267 0 0 1 57.530998 25.013998 A 31.267 31.267 0 0 1 88.797998 56.280998 Z" fill="#7D95C9" style="mix-blend-mode:multiply" transform="rotate(-180 57.531 56.281)"/></g></g></g></svg>