<svg viewBox="0 0 1440 1024" xmlns="http://www.w3.org/2000/svg" xmlns:xlink="http://www.w3.org/1999/xlink"><title>CRM 1@2x</title><desc>Created with Sketch.</desc><defs><linearGradient x1="50%" y1="14.066%" x2="50%" y2="100%" id="a"><stop stop-color="#E9F0FB" offset="0%"/><stop stop-color="#fff" offset="100%"/></linearGradient><linearGradient x1="50%" y1="19.686%" x2="-33.812%" y2="294.476%" id="b"><stop stop-color="#F7FAFF" offset="0%"/><stop stop-color="#6B9AD9" offset="100%"/></linearGradient><linearGradient x1="157.42%" y1="-39.692%" x2="118.836%" y2="115.938%" id="c"><stop stop-color="#E5EDFF" offset="0%"/><stop stop-color="#6B9AD9" offset="100%"/></linearGradient><linearGradient x1="83.28%" y1="11.256%" x2="111.029%" y2="953.538%" id="d"><stop stop-color="#476DB1" offset="0%"/><stop stop-color="#283F6F" offset="100%"/></linearGradient><linearGradient x1="83.28%" y1="11.256%" x2="59.889%" y2="97.31%" id="e"><stop stop-color="#476DB1" offset="0%"/><stop stop-color="#283F6F" offset="100%"/></linearGradient><linearGradient x1="50%" y1="-142.327%" x2="50%" y2="170.165%" id="f"><stop stop-color="#95B7E5" offset="0%"/><stop stop-color="#476DB1" offset="100%"/></linearGradient><linearGradient x1="50%" y1="32.119%" x2="67.286%" y2="115.978%" id="h"><stop stop-color="#84F0A8" offset="0%"/><stop stop-color="#48B676" offset="100%"/></linearGradient><path d="M20 25h3v-11c0-3.314 2.686-6 6-6s6 2.686 6 6v17c0 3.314-2.686 6-6 6-.341 0-.675-.028-1-.083-.325.055-.659.083-1 .083h-7v16h-20v-43c0-5.523 4.477-10 10-10s10 4.477 10 10v15z" id="g"/><linearGradient x1="149.379%" y1="-86.566%" x2="157.42%" y2="219.658%" id="j"><stop stop-color="#E5EDFF" offset="0%"/><stop stop-color="#6B9AD9" offset="100%"/></linearGradient><linearGradient x1="50%" y1="19.686%" x2="-33.859%" y2="202.699%" id="k"><stop stop-color="#EEF3FF" offset="0%"/><stop stop-color="#6B9AD9" offset="100%"/></linearGradient><linearGradient x1="50%" y1="27.773%" x2="55.228%" y2="103.623%" id="l"><stop stop-color="#1542AB" offset="0%"/><stop stop-color="#2B68EE" offset="100%"/></linearGradient><linearGradient x1="100%" y1="50%" x2="0%" y2="50%" id="m"><stop stop-color="#2865C6" offset="0%"/><stop stop-color="#10378A" offset="100%"/></linearGradient><linearGradient x1="60.731%" y1="0%" x2="52.081%" y2="50%" id="n"><stop stop-color="#3485F7" offset="0%"/><stop stop-color="#1A57CF" offset="100%"/></linearGradient><linearGradient x1="60.731%" y1="0%" x2="50%" y2="100%" id="p"><stop stop-color="#fff" offset="0%"/><stop stop-color="#E5EEFF" offset="100%"/></linearGradient><path d="M28.161 3.464c19.56-11.36 41.946 16.611 47.198 27.959 5.252 11.349 20.151 11.476 13.946 62.888-4.137 34.275-2.584 52.805 4.657 55.59 13.016-1.851 16.404 5.985 10.163 23.507-9.362 26.284-21.678 25.971-45.239 28.891-23.561 2.919-40.685-4.989-50.338-16.314-9.654-11.325 12.12-34.208 0-55.831-4.681-8.353-8.139-59.602-8.139-76.343 0-16.741 8.193-38.987 27.753-50.347z" id="o"/><linearGradient x1="85.097%" y1="109.304%" x2="4.854%" y2="-47.176%" id="r"><stop stop-color="#032258" offset="0%"/><stop stop-color="#133E94" offset="100%"/></linearGradient><linearGradient x1="69.466%" y1="75.602%" x2="69.466%" y2="14.038%" id="s"><stop stop-color="#F4AF92" offset="0%"/><stop stop-color="#EC906C" offset="100%"/></linearGradient><linearGradient x1="-8.771%" y1="109.673%" x2="17.311%" y2="15.43%" id="t"><stop stop-color="#FAD0BA" offset="0%"/><stop stop-color="#F2A384" offset="100%"/></linearGradient><linearGradient x1="50%" y1="-10.877%" x2="50%" y2="100%" id="v"><stop stop-color="#FFE579" offset="0%"/><stop stop-color="#FEB755" offset="100%"/></linearGradient><path d="M15.011 40.71c-15.701 59.723-18.401 107.026-8.099 141.909 15.453 52.324-9.741 113.13-3.83 142.007 29.451 3.069 55.168 17.98 77.149 44.731 9.292-11.907 13.456-38.055 12.491-78.444-1.446-60.584-15.951-63.953-18.188-91.532-1.492-18.386-1.492-41.269 0-68.649l-20.605-103.496c-9.829-8.116-17.477-13.832-22.944-17.148-5.467-3.316-12.527-6.522-21.18-9.617l5.206 40.238z" id="u"/><path d="M172.178 37.98c-7.506 19.761-12.598 33.782-15.278 42.064-4.022 12.432-5.583 22.684-4.683 30.758 2.699 24.213 10.208 32.143 3.703 90.062-2.543 22.644-16.823 54.521-19.579 79.769-4.293 39.333 6.263 52.939 3.619 59.445-3.619 8.903-42.242.721-61.57 20.921-6.225-12.018 17.424-54.393 17.424-60.865 0-6.473.805-55.082 20.666-90.738 13.241-23.771 18.3-58.544 15.178-104.317-33.277-6.4-57.616-14.745-73.017-25.035-15.401-10.29-34.948-32.492-58.641-66.604 3.535-8.96 7.589-13.441 12.161-13.441 6.859 0 53.329 42.184 89.257 47.301 15.061 2.145 27.156-6.757 38.541-9.321 18.113-4.079 31.304-3.924 33.499-4.675 2.384-.816 3.564-.206 3.541 1.83l-4.822 2.846z" id="x"/><linearGradient x1="42.643%" y1="16.652%" x2="67.286%" y2="115.978%" id="z"><stop stop-color="#84F0A8" offset="0%"/><stop stop-color="#48B676" offset="100%"/></linearGradient><linearGradient x1="44.332%" y1="-18.87%" x2="63.856%" y2="90.195%" id="A"><stop stop-color="#84F0A8" offset="0%"/><stop stop-color="#48B676" offset="100%"/></linearGradient><linearGradient x1="50%" y1="-104.29%" x2="50%" y2="100%" id="B"><stop stop-color="#fff" offset="0%"/><stop stop-color="#B3CDEF" offset="100%"/></linearGradient></defs><g fill="none"><path d="M.879 426.506c112.987-74.403 261.087-104.404 444.301-90.004 274.821 21.601 257.354 187.808 994.821 121.205v530.291h-1440l.879-561.492z" fill="url(#a)" opacity=".5"/><g fill-rule="nonzero"><path d="M168 113h713c11.046 0 20 8.954 20 20v515c0 2.209-1.791 4-4 4h-745c-2.209 0-4-1.791-4-4v-515c0-11.046 8.954-20 20-20z" fill="url(#b)"/><g><path d="M547 300h32c2.209 0 4 1.791 4 4v52c0 2.209-1.791 4-4 4h-32c-2.209 0-4-1.791-4-4v-52c0-2.209 1.791-4 4-4z" id="Chart-bar-base" stroke="#8AAFE1" stroke-width="4" stroke-linecap="round" stroke-linejoin="round"/><path d="M647 280h32c2.209 0 4 1.791 4 4v72c0 2.209-1.791 4-4 4h-32c-2.209 0-4-1.791-4-4v-72c0-2.209 1.791-4 4-4z" id="Chart-bar-base" stroke="#8AAFE1" stroke-width="2" stroke-linecap="round" stroke-linejoin="round" stroke-dasharray="10,10"/><path d="M697 330h32c2.209 0 4 1.791 4 4v22c0 2.209-1.791 4-4 4h-32c-2.209 0-4-1.791-4-4v-22c0-2.209 1.791-4 4-4zM748 300h32c2.209 0 4 1.791 4 4v52c0 2.209-1.791 4-4 4h-32c-2.209 0-4-1.791-4-4v-52c0-2.209 1.791-4 4-4zM798 270h32c2.209 0 4 1.791 4 4v82c0 2.209-1.791 4-4 4h-32c-2.209 0-4-1.791-4-4v-82c0-2.209 1.791-4 4-4z" id="Chart-bar-base" fill="url(#c)"/><path d="M597 250h32c2.209 0 4 1.791 4 4v102c0 2.209-1.791 4-4 4h-32c-2.209 0-4-1.791-4-4v-102c0-2.209 1.791-4 4-4z" stroke="#8AAFE1" stroke-width="2" stroke-linecap="round" stroke-linejoin="round" stroke-dasharray="10,10"/></g><g><path d="M413 260h50c2.209 0 4 1.791 4 4v50c0 2.209-1.791 4-4 4h-50c-2.209 0-4-1.791-4-4v-50c0-2.209 1.791-4 4-4z" id="UI-base" fill="url(#c)"/><path d="M203 260h140c2.209 0 4 1.791 4 4v50c0 2.209-1.791 4-4 4h-140c-2.209 0-4-1.791-4-4v-50c0-2.209 1.791-4 4-4z" id="UI-base" stroke="#8AAFE1" stroke-width="2" stroke-linecap="round" stroke-linejoin="round" stroke-dasharray="10,10"/><path d="M203 340h170c2.209 0 4 1.791 4 4v50c0 2.209-1.791 4-4 4h-170c-2.209 0-4-1.791-4-4v-50c0-2.209 1.791-4 4-4z" id="UI-base" fill="url(#c)"/><path d="M413 348h50c2.209 0 4 1.791 4 4v50c0 2.209-1.791 4-4 4h-50c-2.209 0-4-1.791-4-4v-50c0-2.209 1.791-4 4-4z" id="UI-base" stroke="#8AAFE1" stroke-width="4" stroke-linecap="round" stroke-linejoin="round"/><path d="M413 436h50c2.209 0 4 1.791 4 4v50c0 2.209-1.791 4-4 4h-50c-2.209 0-4-1.791-4-4v-50c0-2.209 1.791-4 4-4z" id="UI-base" fill="#E0E5FF"/><path d="M413 524h50c2.209 0 4 1.791 4 4v50c0 2.209-1.791 4-4 4h-50c-2.209 0-4-1.791-4-4v-50c0-2.209 1.791-4 4-4z" id="UI-base" stroke="#8AAFE1" stroke-width="2" stroke-linecap="round" stroke-linejoin="round" stroke-dasharray="10,10"/><path d="M202 421h173c2.209 0 4 1.791 4 4v175c0 2.209-1.791 4-4 4h-173c-2.209 0-4-1.791-4-4v-175c0-2.209 1.791-4 4-4z" fill="url(#c)"/></g><g><path d="M168 113h713c11.046 0 20 8.954 20 20v55c0 2.209-1.791 4-4 4h-745c-2.209 0-4-1.791-4-4v-55c0-11.046 8.954-20 20-20z" fill="url(#d)"/><g transform="translate(148 113) translate(25 27)" fill="#fff"><circle cx="12.5" cy="12.5" r="12.5"/><circle cx="51.5" cy="12.5" r="12.5"/><circle cx="90.5" cy="12.5" r="12.5"/></g></g><g stroke="#8AAFE1" stroke-linecap="round" stroke-linejoin="round" stroke-width="4"><path d="M561 418h269.572"/><path d="M561 450h269.572"/><path d="M561 482h269.572"/><path d="M561 514h269.572"/><path d="M561 546h269.572"/><path d="M561 578h269.572"/></g></g><g fill-rule="nonzero"><path id="Table-base" fill="url(#e)" d="M436 601h491v20h-491z"/><path d="M459 844.942l23.553-221.942h-23.553v221.942zm28-225.942l-25.683 242.017c-.18 1.696-1.611 2.983-3.317 2.983-1.657 0-3-1.343-3-3v-242h32zM893 844.942v-221.942h-23.553l23.553 221.942zm-28-225.942h32v242c0 1.657-1.343 3-3 3-1.706 0-3.137-1.287-3.317-2.983l-25.683-242.017z" fill="url(#f)"/></g><g><g transform="translate(830 523) translate(15)"><mask id="i"><use xlink:href="#g"/></mask><use fill="url(#h)" fill-rule="nonzero" xlink:href="#g"/><path d="M0-3h1v62.784h-1v-62.784zm3 0h1v62.784h-1v-62.784zm3 0h1v62.784h-1v-62.784zm3 0h1v62.784h-1v-62.784zm3 0h1v62.784h-1v-62.784zm3 0h1v62.784h-1v-62.784zm3 0h1v62.784h-1v-62.784zm3 0h1v62.784h-1v-62.784zm3 0h1v62.784h-1v-62.784zm3 0h1v62.784h-1v-62.784zm3 0h1v62.784h-1v-62.784zm3 0h1v62.784h-1v-62.784z" id="Shape" fill="#42B16D" fill-rule="nonzero" mask="url(#i)"/></g><g id="vase" fill-rule="nonzero"><path fill="url(#c)" d="M831 569h50l-11.111 32h-27.778z"/><path d="M832 568h47c1.105 0 2 .895 2 2v6c0 1.105-.895 2-2 2h-47c-1.105 0-2-.895-2-2v-6c0-1.105.895-2 2-2z" fill="url(#j)"/></g></g><g fill-rule="nonzero"><path d="M566 430h241c2.209 0 4 1.791 4 4v137c0 2.209-1.791 4-4 4h-241c-2.209 0-4-1.791-4-4v-137c0-2.209 1.791-4 4-4z" id="Imac-base" fill="url(#e)"/><path id="Imac-base" fill="#B7C8FF" d="M660 574h55v33h-55z"/><path fill="#fff" d="M572 440h229v125h-229z"/></g><g id="Girl"><g fill-rule="nonzero"><path d="M425.969 606.869l51.144 21.35c2.039.851 3.001 3.194 2.15 5.232-.111.265-.25.518-.415.754l-61.327 87.564c-1.078 1.54-3.083 2.121-4.817 1.397l-51.144-21.35c-2.039-.851-3.001-3.194-2.15-5.232.111-.265.25-.518.415-.754l61.327-87.564c1.078-1.54 3.083-2.121 4.817-1.397z" fill="url(#k)"/><path d="M447.068 609.586c1.967-1.674 4.967-2.311 7.297-1.407 2.419.938 3.313 3.226 2.281 5.406l2.344.978c2.039.851 3.001 3.194 2.15 5.232-.2.48-.492.916-.86 1.284l-5.168 5.18c-1.158 1.16-2.906 1.497-4.412.849l-13.518-5.812c-2.029-.873-2.967-3.225-2.095-5.255.166-.386.391-.743.668-1.059l4.605-5.246c1.133-1.291 2.963-1.714 4.547-1.053l2.16.902zm3.179 4.01c1.155.447 2.704-.009 3.46-1.019.756-1.01.433-2.191-.723-2.638-1.155-.447-2.704.009-3.46 1.019-.756 1.01-.433 2.191.723 2.638z" fill="url(#c)"/></g><g fill-rule="nonzero"><path d="M425.506 640.916c-.191 1.554.914 2.969 2.468 3.16l25.98 3.192.691-5.628-25.98-3.192c-1.554-.191-2.969.914-3.16 2.468zM426.422 645.155c-.042.345.203.66.549.702l8.662 1.064c.345.042.66-.203.702-.549.042-.345-.203-.66-.549-.702l-8.662-1.064c-.345-.042-.66.203-.702.549z" id="Pen-base" fill="url(#f)"/><path d="M421.729 640.452c-.106.863.508 1.649 1.371 1.756l2.066.254c.863.106 1.649-.508 1.756-1.371.106-.863-.508-1.649-1.371-1.756l-2.066-.254c-.863-.106-1.649.508-1.756 1.371zM454.174 641.582l-.691 5.628 5.5-1.864z" fill="#F2F5FF"/></g><g id="Foot"><path d="M445.431 855.246c.135-1.427 8.496-9.562 17.492-.089 8.995 9.473 11.387 12.87 15.547 16.419 2.773 2.366 5.682 3.957 8.728 4.774l-17.154 1.085-24.709-2.842c-.025-11.947.007-18.396.098-19.347z" id="Leg" fill="#F2A384" fill-rule="nonzero"/><path d="M353.495 842.478l-20.524-58.489c51.603-42.611 88.584-57.199 110.945-43.763 33.541 20.154 26.639 115.273 26.993 118.02.354 2.748-19.62 10.317-23.4 2.737-3.78-7.579-25.062-53.263-27.221-70.004-9.062 12.005-31.326 29.171-66.793 51.498z" id="Pants" fill="url(#l)" fill-rule="nonzero"/><path id="Leg" fill="#F2A384" fill-rule="nonzero" d="M298.243 883.512l-27.221-6.176-7.322 2.405 11.077-14.576 19.372-3.993z"/><path d="M445.332 863.835c3.552-1.768 8.011 7.863 14.521 7.863 6.51 0 10.56-8.745 12.223-7.863 4.864 2.578 11.922 3.832 19.691 6.864 19.112 7.461 20.963 8.532 18.183 19.62 0 2.464-21.708 3.696-65.125 3.696-1.757-5.153-2.703-9.965-2.84-14.437-.205-6.708-.205-13.976 3.346-15.744z" id="Shoes" fill="url(#m)" fill-rule="nonzero"/><path d="M464.909 853.875c-15.742 48.424-166.044 39.289-176.097 34.542-5.736-2.709.233-26.056 3.396-27.195 7.35-2.646 109.846-11.751 90.165-7.347-19.681 4.404-107.715-7.888-104.915-53.488 1.848-30.1 5.253-38.206 25.118-33.31 10.23 2.521 34.962 13.394 44.872 16.222 64.571 18.425 131.779 26.53 117.46 70.576z" id="Pants" fill="url(#n)" fill-rule="nonzero"/><path d="M287.089 862.613c-.729 3.399-8.802.644-12.422 4.958-3.62 4.314.292 12.169-1.255 12.75-4.521 1.698-9.33 5.634-15.787 8.989-15.886 8.252-17.67 8.845-23.938.446-1.737-1.457 9.465-16.571 33.607-45.342 4.608 1.883 8.527 4.102 11.755 6.656 4.842 3.831 8.77 8.145 8.041 11.544z" id="Shoes" fill="url(#m)" fill-rule="nonzero"/><path d="M320.457 875.581c73.128-5.65 103.005-14.1 89.631-25.35-13.374-11.25-31.083-21.531-53.125-30.844" id="Texture" stroke="#5F90CC" stroke-linecap="round" stroke-linejoin="round" stroke-dasharray="5,10"/></g><g id="Body" transform="translate(233 466) translate(40 129)"><mask id="q"><use xlink:href="#o"/></mask><use fill="url(#p)" fill-rule="nonzero" xlink:href="#o"/><path d="M34.671 10.336c8.061-1.84 35.523-.38 38.089 24.343 1.711 16.482 5.596 32.94 11.655 49.374 5.949 14.743 25.122 23.611 57.519 26.606 6.315-.377 10.112 2.644 11.393 9.064 1.28 6.42.46 12.568-2.46 18.445-53.997 10.75-89.076 10.75-105.235 0-24.239-16.125-38.706-63.569-34.971-90.9 3.735-27.331 15.949-35.091 24.011-36.931z" id="Shadow" fill="#ABC0FF" fill-rule="nonzero" opacity=".5" mask="url(#q)"/></g><g id="Head" fill-rule="nonzero"><path d="M355.112 561.806c13.223 11.519 18.782 25.052 16.675 40.597-2.107 15.546-13.755 22.594-34.945 21.146l-41.325-55.57 59.595-6.173z" fill="url(#r)"/><path d="M391.547 534.347c-.429 13.066-1.687 22.238-3.774 27.518-1.414 3.578 2.179 4.667 0 7.734-.98 1.379-7.383 4.967-8.418 6.289-10.061 12.845-22.162 22.587-24.989 21.414-2.078-.862-6.66-4.209-13.744-10.04-6.315 7.593-9.074 13.022-8.275 16.286 1.197 4.896-13.683 11.739-19.303 5.869-3.747-3.913-6.396-10.575-7.947-19.986l3.586-21 11.357-20.719 16.206-13.365 47.888-2.104 7.413 2.104z" id="Face" fill="#F2A384"/><path d="M389.432 534.536c-3.553 15.998-4.255 27.026-2.106 33.083-3.5 3.653-6.462 6.508-8.886 8.564-3.489 2.96 46.171-12.965 46.171-38.233 0-25.268-11.33-26.385-17.772-28.413-6.442-2.028-21.37-46.569-60.453-42.601-39.083 3.968-28.989 34.042-55.064 50.491-26.074 16.449-46.246 46.169-29.742 70.584 16.504 24.415 35.266 27.168 61.439 19.984 14.605-4.009 13.471-29.548 14.861-53.099.105-1.773-4.697-1.31-5.096-5.884-.399-4.573 1.621-9.668 5.096-11.062 8.505-3.415 20.448 10.011 28.696 8.344 19.21-3.883 26.828-7.803 22.855-11.758z" id="Hair" fill="url(#r)"/></g><g id="Hand" fill-rule="nonzero"><path d="M427.38 682.863l-11.448-8.763 16.238-13.664 3.072-13.223 1.922-2.353c2.758.586 4.75.422 5.976-.491 2.064-1.537 4.953-5.844 7.234-5.171.349.103 3.157.992 3.378 1.775.33 1.166-1.957 2.381-1.478 2.698 3.94 2.606 6.695 8.072 4.465 11.935-2.584 4.476-7.731 8.883-15.439 13.22l-13.92 14.038z" fill="#F2A384"/><path d="M312.671 599.336c8.061-1.84 30.968 3.373 33.535 28.095 2.566 24.723 1.768 48.831 10.706 58.044 8.938 9.213 15.895 1.236 65.78-18.143 6.315-.377 10.112 2.644 11.393 9.064 1.28 6.42 1.28 9.446 0 9.079-41.715 39.176-71.731 55.607-90.049 49.291-27.477-9.473-59.111-71.168-55.375-98.499 3.735-27.331 15.949-35.091 24.011-36.931z" fill="url(#p)"/></g></g><g><path d="M872.865 713.52c12.026 18.052 70.443 28.378 175.252 30.978h50.554l-32.149-69.079-92.751-42.523c-79.296 35.698-112.931 62.573-100.905 80.625z" id="Jacket" fill="#BF8D30" fill-rule="nonzero"/><g id="Head" transform="matrix(-.966 -.259 -.259 .966 1292.78 277.705)"><path d="M344.343 100.307c2.131 9.161 2.98 15.386 2.548 18.674-.692 5.26-4.666 8.601-5.839 11.587-1.541 3.922 1.554 5.017-.82 8.379-1.067 1.512-8.043 5.445-9.171 6.893-10.96 14.08-24.144 24.758-27.224 23.473-2.264-.945-7.255-4.613-14.973-11.005-10.571 2.184-13.035 11.435-7.391 27.754 8.465 24.479 6.569 39.071-10.571 32.267-11.426-4.536-27.06-21.464-46.901-50.783 10.486-1.732 18.058-4.914 22.718-9.544 4.659-4.63 7.109-11.408 7.35-20.335l12.373-22.71 17.655-14.649 52.171-2.307 8.076 2.307z" fill="#F2A384" fill-rule="nonzero"/><path d="M281 55.438c-4.432-34.35-17.038-52.756-37.82-55.219-31.172-3.694-48.443 40.509-61.637 44.585-13.194 4.075-60.684 11.893-80.347 24.891-19.663 12.998-14.131 41.734-36.299 42.871-22.168 1.138-93.032 16.624-52.732 103.679 25.163 54.355 116.651 83.887 129.809 34.781 15.047-56.153 39.931-22.144 63.6-43.144 23.668-21.001 5.906-39.166 14.406-53.762 8.5-14.596 19.605 1.135 38.697-15.381 20.448-17.689 16.364-29.892 17.341-49.125.651-12.822 2.311-24.214 4.98-34.175z" id="Hair" fill="url(#r)" fill-rule="nonzero"/><path d="M289.8 158.557c-10.561 2.175-13.022 11.389-7.384 27.641 8.457 24.379 6.562 38.912-10.561 32.136-11.415-4.518-27.034-21.377-46.855-50.577 10.476-1.725 18.041-4.894 22.696-9.505 4.655-4.611 7.102-11.362 7.342-20.253l40.233.067c-2.805 3.077-4.385 6.527-4.742 10.35-.59 6.319 10.185 15.701 10.47 18.302.085.775-3.648-1.945-11.198-8.162z" id="Neck" fill="url(#s)"/><ellipse fill="url(#h)" fill-rule="nonzero" cx="259.5" cy="59" rx="15.5" ry="17"/><path d="M340.277 135.812c1.468 4.001-7.889 6.848-10.904 10.974-3.974 3.364 73.752 13.95 76.533-37.572 2.781-51.522-57.539-46.504-64.58-48.716-7.041-2.211-40.738-27.912-59.057-22.836-18.174 5.036-33.057 23.611-36.647 51.754-4.33 33.949.606 54.121 7.708 56.02 7.94 2.123 21.746-.514 41.418-7.911-7.168-3.202-8.479-8.872-3.935-17.009 6.817-12.205 18.45-6.052 18.45 4.701l6.106-6.911 29.32 4.65c-4.138 5.31-5.609 9.595-4.413 12.855z" id="Hair" fill="url(#r)" fill-rule="nonzero"/></g><g id="Foot"><path d="M944.55 864.016l3.184 19.75c-3.875 5.258-8.659 7.886-14.353 7.886-5.694 0-10.763-1.326-15.206-3.977l-3.19-21.587 29.565-2.073zM1043.313 864.016l3.184 19.75c-3.875 5.258-8.659 7.886-14.353 7.886-5.694 0-10.763-1.326-15.206-3.977l-3.19-21.587 29.565-2.073z" id="Leg" fill="url(#t)" fill-rule="nonzero"/><path d="M1046.596 881.057c2.416 0 2.416 8.151 2.521 14.354.038 2.258-.371 5.699-1.229 10.321-.351 1.894-1.899 3.283-3.734 3.349-38.78 1.402-62.147 1.364-62.218-.114-3.098-10.086-1.411-11.174 16.176-19.085 7.148-3.216 13.71-4.751 18.155-7.392 1.521-.903 4.707 6.399 15.219 6.399s12.693-7.832 15.109-7.832zM947.834 881.057c2.416 0 2.416 8.151 2.521 14.354.038 2.258-.371 5.699-1.229 10.321-.351 1.894-1.899 3.283-3.734 3.349-38.779 1.402-62.147 1.364-62.218-.114-3.098-10.086-1.411-11.174 16.176-19.085 7.148-3.216 13.71-4.751 18.155-7.392 1.521-.903 4.707 6.399 15.219 6.399s12.693-7.832 15.109-7.832z" id="Shoes" fill="url(#m)" fill-rule="nonzero"/><path d="M1056.486 541.369c-.965 21.685-.965 33.784 0 36.297 1.448 3.77-7.043 50.801-25.473 141.096 1.578 88.102 14.719 136.499 13.143 145.191-2.364 13.038-29.838 13.038-33.172 3.615-2.223-6.282-11.421-57.323-27.594-153.125l-2.838-75.138c-11.31 19.688-27.128 46.507-47.456 80.456 3.325 93.442 15.935 142.899 11.551 148.372-3.908 4.878-29.66 8.32-31.206.001-15.674-64.458-23.51-114.244-23.508-149.357.002-35.113 16.143-94.249 48.425-177.406h118.129z" id="Pants" fill="url(#n)" fill-rule="nonzero"/><path d="M1032.587 861.943l-19.108-136.775c-.834-5.971-.779-12.034.165-17.989l18.943-119.526v274.29z" id="Texture" stroke="#1542AB"/><path d="M933.114 719.729l-.389-.113 32.85-92.581c2.19 1.842 7.182 5.932 14.977 12.269-11.306 19.682-27.119 46.49-47.437 80.425z" id="Shadow" fill="url(#l)" fill-rule="nonzero"/></g><path d="M973.928 382.071c-6.622 10.527-11.212 17.597-3.145 21.502 8.067 3.905 26.35-5.468 54.851-28.118 34.448 13.058 37.984 23.429 45.041 31.112 7.057 7.683-18.966 151.173-29.378 160.666-15.112 13.779-37.943 18.561-65.625 14.846-19.651-2.637-33.443-20.706-30.806-40.357.064-.479.138-.957.222-1.433 3.337-19.007 5.006-30.775 5.006-35.301.001-9.566-5.085-32.915-15.257-70.048l22.407-46.384 16.685-6.485z" id="Body" fill="url(#p)" fill-rule="nonzero"/><g id="Jacket" transform="translate(767 172) translate(253 204)"><mask id="w"><use xlink:href="#u"/></mask><use fill="url(#v)" fill-rule="nonzero" xlink:href="#u"/><path d="M33.165 101.818c-7.656-10.286-7.656-27.183 0-50.691 2.714-8.332 14.148-10.607 30.474 0 19.571 12.715 49.441 66.772 35.49 106.415-21.487 61.056-56.897 77.792-76.464 81.791-3.736.763-4.528-1.096-12.343 7.005-8.864 9.19-7.807-2.147 3.174-34.011 25.123-35.656 36.635-59.518 34.536-71.584-2.099-12.066-7.054-25.041-14.866-38.926z" id="Shadow" fill="#EEB84E" fill-rule="nonzero" opacity=".5" mask="url(#w)"/></g><path d="M1047.404 602.123l-13.544 14.402c-4.065 7.855-8.289 13.152-12.673 15.891-3.783 2.364-9.341-.199-12.083-4.046-.558-.783-4.251-.885-4.537-1.743-.752-2.256 2.816-5.402 4.916-7.41 3.128-2.992-.764-2.5.749-5.729 1.009-2.152 5.984-4.084 14.925-5.795l13.089-16.705 9.157 11.135z" id="Hand" fill="#F2A384" fill-rule="nonzero"/><path d="M1053.165 457.818c-7.656-10.286-7.656-27.183 0-50.691 2.714-8.332 14.148-10.607 30.474 0 19.571 12.715 43.854 73.523 29.903 113.167-25.59 72.715-48.772 74.224-63.09 83.359-9.546 6.09-15.029 2.1-16.452-11.969 26.905-39.117 39.308-64.708 37.209-76.774-2.099-12.066-8.113-31.097-18.044-57.092z" fill="url(#v)" fill-rule="nonzero"/><path d="M800.878 368.863l-13.92-14.038c-7.708-4.337-12.855-8.743-15.439-13.22-2.23-3.863.525-9.329 4.465-11.935.802-.53-9.334-11.979-8.466-12.235 2.28-.672 15.667 10.764 17.6 12.932 2.881 3.231 2.525-.677 5.699.949 2.116 1.084 3.873 6.123 5.27 15.119l16.238 13.664-11.448 8.763z" fill="#F2A384" fill-rule="nonzero"/><g transform="translate(767 172) translate(26 178)"><mask id="y"><use xlink:href="#x"/></mask><use fill="url(#v)" fill-rule="nonzero" xlink:href="#x"/><path d="M130.345 109.791c.147-8.412 1.486-15.246 4.017-20.501 2.531-5.255 3.241-8.352 2.129-9.29-27.61 13.656-50.723 16.752-69.339 9.29-18.615-7.462-13.927 2.774 14.066 30.71l49.127-10.209z" id="Shadow" fill="#EEB84E" fill-rule="nonzero" opacity=".5" mask="url(#y)"/></g></g><g fill-rule="nonzero"><path d="M608.574 507.308c-3.091 9.994-5.578 16.608-7.46 19.843-2.824 4.852 2.201 17.058 14.499 17.058 8.199 0 21.606-3.73 40.222-11.191-4.07-4.416-6.987-9.358-8.751-14.824-1.764-5.466-1.764-12.061 0-19.785 9.428-22.07 13.158-35.49 11.188-40.259-1.97-4.769-12.558-12.894-31.765-24.377-20.043 8.257-30.065 15.495-30.065 21.715v16.588c-5.847-2.527-8.77-.546-8.77 5.942 0 6.489 3.779 10.926 11.337 13.313l9.566 15.978z" fill="#B06C57"/><path d="M632.944 406.858c5.771 3.043 23.274 8.119 26.365 12.908 4.069 6.304 4.974 12.752 2.714 19.342 6.692 9.197 6.692 22.164 0 38.903-10.038 25.107-16.561 27.642-29.08 29.21-12.519 1.568-21.531-12.136-25.745-22.341-2.81-6.803-6.47-11.649-10.98-14.537-1.443-11.612-2.164-17.418-2.164-17.418s-12.854-1.238-12.854-23.163 15.018-42.271 51.744-22.904z" fill="url(#r)"/></g><g><g fill-rule="nonzero"><path d="M746.361 809.111c1.221-.822 18.517.077 16.47 9.345-2.047 9.268-2.735 12.929-3.019 16.706-.189 2.517-1.454 4.499-3.795 5.945l-11.373-5.945-2.251-8.665c1.832-11.043 3.154-16.838 3.968-17.385z" id="Leg" fill="#B06C57"/><path d="M739.758 822.532c3.369-.527 4.404 8.645 9.706 10.367 5.302 1.723 10.957-4.462 12.074-3.29 3.266 3.426 8.676 6.334 14.185 10.906 13.552 11.249 14.771 12.627 9.518 21.092-.664 2.045-18.675-2.677-54.032-14.165-.041-4.74.485-8.984 1.579-12.731 1.641-5.621 3.601-11.652 6.97-12.179z" id="Shoes" fill="url(#m)"/><path d="M671.104 803.903c.535.822.155 5.878-1.14 15.168l-5.458 7.097-12.791 1.028c1.771-1.066 3.062-2.795 3.872-5.186 1.215-3.587 1.658-5.776 3.395-15.107s11.321-4.234 12.123-3z" fill="#B06C57"/><path d="M669.184 817.327c3.804.345 5.324 2.19 6.895 7.681 1.047 3.66 1.422 7.844 1.125 12.549-16.282 4.39-26.005 5.976-29.169 4.759-12.744-4.904-1.558-21.621.334-23.356 1.332-1.222 4.581-3.547 10.702-5.535 6.121-1.989 6.309 3.557 10.113 3.902z" fill="url(#m)"/><path d="M725.181 686.053c38.502-17.293 66.12-17.293 82.855 0 25.101 25.939-33.52 118.792-37.507 130.519-3.987 11.727-15.078 4.201-19.276 3.08-2.798-.747-5.337-3.081-7.616-7l18.158-73.968-45.642-6.187-13.076-28.541 22.105-17.903zM635.181 686.053c43.313-20.252 68.865-25.315 76.657-15.189 11.688 15.189 21.7 65.116-36.784 138.974-4.216 2.983-7.961 4.24-11.235 3.771-3.274-.469-6.001-3.455-8.182-8.957l16.158-65.968-45.642-6.187-13.076-28.541 22.105-17.903z" fill="#111AA7"/></g><g fill-rule="nonzero"><path d="M601.194 529.938c18.53 8.474 29.804 10.593 33.823 6.356 4.019-4.237 5.79-7.37 5.314-9.398 35.803 3.022 57.615 12.753 65.435 29.19 11.729 24.657 42.735 106.874 56.252 90.423 9.011-10.967 15.296-20.038 18.855-27.213-5.925-5.495-8.888-8.841-8.888-10.035 0-1.792 5.921-1.887 8.888-.943 2.966.943 2.413-20.653 4.283-22.073 1.246-.947 2.829 4.125 4.747 15.214 2.843-11.931 4.77-17.657 5.782-17.178 1.012.479 1.012 7.117 0 19.914 5.014-5.932 7.904-8.438 8.671-7.518.767.92-.716 5.114-4.448 12.584 4.612-1.689 6.918-2.003 6.918-.943s-2.306 3.197-6.918 6.411l-4.223 7.852c-10.259 39.849-25.162 61.001-44.71 63.455-19.548 2.454-27.335 2.454-23.362 0 4.777 6.557 6.512 12.038 5.206 16.445-1.959 6.61-15.106 39.566-28.809 45.122-9.135 3.704-35.199-5.695-78.193-28.196l-72.648-67.026-7.162-73.471c-67.852-38.467-104.677-88.915-110.475-151.344l-2.912-9.323c-6.752-7.33-10.329-11.499-10.731-12.506-.402-1.008 1.761-.384 6.488 1.871-2.394-6.79-3.28-10.544-2.656-11.262.624-.718 2.923 1.409 6.899 6.379.293-8.661.925-13.17 1.895-13.527.971-.357 2.428 3.382 4.371 11.219.906-6.91 1.832-9.971 2.775-9.183.944.788 1.799 6.246 2.567 16.374 3.737-3.255 5.819-4.302 6.247-3.142.428 1.161-.674 5.206-3.306 12.135 27.984 46.548 51.57 73.881 70.759 81.998 19.189 8.117 47.675 16.477 85.458 25.08l-2.193 6.261z" fill="#B06C57"/><path d="M619.84 544c11.487 3.248 22.716-1.992 33.686-15.722 27.008 2.101 44.421 11.37 52.241 27.808 6.873 14.448 20.364 48.657 33.077 71.2 5.989 10.62-5.036 22.547-33.077 35.78 8.339 12.624 16.747 20.816 25.223 24.576 2.876 2.703 2.876 11.309 1.83 14.837-1.959 6.61-15.106 39.566-28.809 45.122-9.135 3.704-35.199-5.695-78.193-28.196l-72.648-67.026-9.089-72.666c-23.199-8.767-35.453-15.823-36.763-21.168-9.833-40.124 10.998-62.496 27.853-55.366 19.189 8.117 42.156 14.126 68.899 18.028-.974 11.947 4.283 19.544 15.77 22.793z" fill="url(#z)"/><path d="M581.735 640.467c-1.501-5.601 1.823-11.359 7.425-12.86 5.601-1.501 11.359 1.823 12.86 7.425 1.285 4.795-.966 9.704-5.154 11.96-2.87.41-5.669.65-8.359.703-3.207-1.09-5.829-3.71-6.771-7.228zm-47.609-87.896c-5.601 1.501-11.359-1.823-12.86-7.425-1.501-5.601 1.823-11.359 7.425-12.86 5.601-1.501 11.359 1.823 12.86 7.425 1.501 5.601-1.823 11.359-7.425 12.86zm48.121 42.498c-5.601 1.501-11.359-1.823-12.86-7.425-1.501-5.601 1.823-11.359 7.425-12.86 5.601-1.501 11.359 1.823 12.86 7.425 1.501 5.601-1.823 11.359-7.425 12.86zm-2.572-50.169c-5.601 1.501-11.359-1.823-12.86-7.425-1.501-5.601 1.823-11.359 7.425-12.86 5.601-1.501 11.359 1.823 12.86 7.425 1.501 5.601-1.823 11.359-7.425 12.86zm108.417 182.675c-1.501-5.601 1.823-11.359 7.425-12.86 5.601-1.501 11.359 1.823 12.86 7.425 1.285 4.795-.966 9.704-5.154 11.96-2.87.41-5.669.65-8.359.703-3.207-1.09-5.829-3.71-6.771-7.228zm-47.609-87.896c-5.601 1.501-11.359-1.823-12.86-7.425-1.501-5.601 1.823-11.359 7.425-12.86 5.601-1.501 11.359 1.823 12.86 7.425 1.501 5.601-1.823 11.359-7.425 12.86zm48.121 42.498c-5.601 1.501-11.359-1.823-12.86-7.425-1.501-5.601 1.823-11.359 7.425-12.86 5.601-1.501 11.359 1.823 12.86 7.425 1.501 5.601-1.823 11.359-7.425 12.86zm-2.572-50.169c-5.601 1.501-11.359-1.823-12.86-7.425-1.501-5.601 1.823-11.359 7.425-12.86 5.601-1.501 11.359 1.823 12.86 7.425 1.501 5.601-1.823 11.359-7.425 12.86zm-45.549-42.559c-5.601 1.489-11.359-1.808-12.86-7.364-1.501-5.556 1.823-11.267 7.425-12.756 5.601-1.489 11.359 1.808 12.86 7.364 1.501 5.556-1.823 11.267-7.425 12.756zm45.549-7.609c-5.601 1.489-11.359-1.808-12.86-7.364-1.501-5.556 1.823-11.267 7.425-12.756 5.601-1.489 11.359 1.808 12.86 7.364 1.501 5.556-1.823 11.267-7.425 12.756z" fill="url(#A)"/></g></g><g transform="translate(533 582)" fill-rule="nonzero"><path id="Chair-base" fill="#D2D9FF" d="M154 184h12v49h-12z"/><circle id="Wheel" fill="url(#e)" cx="95" cy="296" r="9"/><circle id="Wheel" fill="url(#e)" cx="221" cy="296" r="9"/><circle fill="url(#e)" cx="160" cy="306" r="9"/><path d="M147.882 243.914l-.693-7.452c-.014-.151-.019-.302-.016-.453.046-2.209 1.873-3.962 4.082-3.916l17.189.355.224.011c2.203.17 3.851 2.093 3.681 4.295l-.493 6.401 54.728 37.564c.148.102.292.21.431.325 2.605 2.149 2.974 6.004.825 8.609-2.466 2.988-6.709 3.798-10.102 1.927l-47.59-26.241-2.606 33.857c-.291 3.784-3.397 6.735-7.191 6.833-3.759.097-6.949-2.736-7.297-6.48l-3.268-35.146-49.287 27.177c-3.393 1.871-7.636 1.061-10.102-1.927-2.149-2.605-1.78-6.459.825-8.609.139-.115.283-.223.431-.325l55.812-38.309.415 1.504z" id="Chair-base" fill="url(#f)"/><path d="M19.229 1.789c-6.054-3.38-15.307-.215-18.23 4.027.941 5.998 1.536 8.591 1.561 8.729 9.506 51.258 46.342 100.61 75.011 131.499 16.343 17.608 30.196 31.654 41.558 42.139 11.03 1.717 21.181.541 30.454-3.529 6.045-2.653 15.526-1.872 15.256-10.186-.557-17.137-15.781-25.792-21.789-50.613-5.636-23.286.703-70.721-16.332-80.486-17.035-9.764-38.37 7.185-70.883-6.935-22.999-9.988-30.553-31.265-36.608-34.646z" id="Chair-base" fill="url(#e)"/><path d="M189.174 144.859c16.311-4.479 38.373-9.412 49.546 0 11.173 9.412 6.036 24.538-1.439 33.047-4.984 5.673-27.093 11.124-66.327 16.355l-3.486-28.696c9.469-4.042 16.704-10.943 21.706-20.706z" id="Chair-base" fill="#111AA7"/><path d="M.871 5.255c7.402 58.857 13.828 97.584 19.279 116.18 8.267 28.203 18.798 40.077 30.166 51.387 11.368 11.31 53.881 31.016 87.844 32.761 30.06 1.544 72.039-7.241 87.567-16.899 15.528-9.658 23.561-30.363 6.005-35.511-17.557-5.148-74.152 16.052-79.483 13.739-29.664-12.869-20.622-102.157-34.922-111.625-13.593-9-42.579 2.557-77.49-12.851-10.233-4.516-23.221-16.91-38.965-37.18z" fill="url(#f)"/></g><ellipse fill="#E2EBFC" opacity=".806" cx="1249" cy="897.5" rx="89" ry="15.5"/><g fill-rule="nonzero"><g id="Leaves"><path d="M1293.63 539.282c-17.474-3.186-22.621 36.801-29.316 42.545-6.681 5.692-20.401 4.06-22.972 19.911-2.57 15.851 10.22 18.969 8.072 32.133-2.149 13.164-30.108 3.334-33.451 24.127-3.344 20.793 16.829 33.182 14.793 45.702-2.036 12.519-14.258 14.151-18.738 41.867-4.48 27.715 16.068 39.56 48.44 51.392s55.469 8.68 60.552-21.132c5.083-29.812-30.239-39.057-30.018-56.153.205-17.042 24.893-19.256 28.131-38.392 3.237-19.135-30.431-27.882-27.883-43.177 2.548-15.295 31.029-15.858 33.708-31.74 2.679-15.881-3.306-20.078-14.317-28.971-11.04-8.794.475-34.926-16.999-38.111z" id="Leaf" fill="url(#B)"/><path d="M1261.326 782.275c.636.412 1.378.133 1.658-.623.279-.757-.01-1.703-.647-2.114-15.302-9.821-21.488-22.589-18.838-38.73.133-.813-.314-1.655-1-1.88-.686-.225-1.35.25-1.483 1.061-2.884 17.591 3.993 31.78 20.309 42.287zM1270.093 715.387c.71.144 1.304-.423 1.327-1.267.023-.844-.535-1.643-1.245-1.786-11.505-2.322-19.195-11.677-23.262-28.317-.204-.828-.923-1.394-1.606-1.265-.683.128-1.071.902-.867 1.729 4.37 17.851 12.961 28.317 25.653 30.905zM1271.824 623.276c.492.068.903-.331.917-.891.014-.561-.373-1.07-.866-1.138-5.939-.82-9.903-5.236-12.01-13.456-.141-.547-.639-.902-1.111-.791-.473.11-.742.643-.601 1.19 2.315 9.024 6.906 14.143 13.67 15.086zM1275.375 613.23c-.477-.163-.73-.72-.566-1.245.165-.525.685-.819 1.162-.657 5.757 1.958 10.836-.366 15.424-7.17.307-.455.882-.568 1.285-.252.403.316.481.942.174 1.398-5.041 7.479-10.923 10.167-17.48 7.927zM1270.854 694.86c-.686-.271-1.042-1.117-.795-1.89.247-.773 1.003-1.182 1.689-.912 10.164 3.999 19.242.065 27.519-12.14.452-.669 1.286-.811 1.863-.318.576.493.677 1.437.224 2.106-8.946 13.199-19.189 17.629-30.5 13.153zM1271.164 768.347c-.676-.304-1.024-1.177-.777-1.951s.996-1.157 1.672-.855c10.024 4.487 19.009.877 27.238-11.161.45-.659 1.274-.769 1.841-.244s.662 1.487.213 2.147c-8.895 13.019-19.032 17.084-30.187 12.065z" id="leaves-base" fill="#98BBE9"/><path d="M1251.108 837.238c-.182 1.093.408 2.273 1.318 2.635.909.362 3.029.258 3.211-.839-.207-7.187.665-16.686 2.618-28.507 2.929-17.73 16.733-44.212 18.253-64.482 1.507-20.224-9.782-62.561-9.421-93.123.256-24.737 10.614-44.508 15.299-58.208 4.698-13.744 6.348-31.033 6.036-31.096-.374-.075-2.145 17.638-6.99 30.885-4.832 13.2-13.61 29.953-16.088 50.479-4.631 38.273 10.48 77.536 6.304 102.622s-13.862 38.252-18.581 59.926c-3.141 14.431-3.792 24.327-1.959 29.708z" fill="#8FAFDA"/></g><g id="Leaves"><path d="M1170.121 555.505c16.899-5.162 27.732 35.076 35.278 40.374 7.546 5.298 21.155 2.631 26.089 18.784 4.934 16.153-7.644 19.995-3.582 33.294 4.062 13.299 31.325 2.292 37.867 23.71 6.542 21.418-12.635 34.155-8.754 46.863 3.882 12.708 16.917 14.569 25.578 42.925 8.661 28.356-11.598 39.122-44.471 49.163-32.872 10.04-57.608 6.246-66.269-22.11-8.661-28.356 26.967-37.336 24.63-53.997-2.337-16.661-28.06-18.266-33.681-36.67-5.621-18.404 27.629-28.559 23.036-43.596-4.593-15.037-33.472-13.676-38.157-29.015-4.685-15.339.775-20.006 10.642-29.816 9.867-9.81-5.107-34.747 11.792-39.909z" id="Leaf" fill="url(#h)"/><path d="M1235.367 796.202c-.621.379-1.44.078-1.831-.674-.39-.752-.203-1.669.418-2.048 14.911-9.113 19.76-21.589 14.816-37.774-.249-.815.108-1.647.798-1.858.69-.211 1.451.279 1.7 1.095 5.397 17.668.007 31.536-15.901 41.259zM1217.246 730.56c-.72.166-1.393-.376-1.503-1.21-.11-.834.385-1.644 1.105-1.81 11.668-2.683 18.629-12.291 21.009-29.194.119-.844.798-1.446 1.517-1.345.719.101 1.205.868 1.086 1.712-2.555 18.148-10.335 28.886-23.214 31.848zM1203.386 638.551c-.491.111-.951-.255-1.027-.819-.076-.563.261-1.11.752-1.221 5.928-1.339 9.45-6.153 10.653-14.69.08-.57.543-.976 1.034-.907.491.069.823.587.743 1.157-1.32 9.377-5.4 14.953-12.155 16.479zM1198.897 628.507c-6.454 2.508-12.953.164-19.288-6.875-.385-.428-.398-1.043-.03-1.375.368-.331.979-.254 1.364.174 5.767 6.408 11.378 8.433 17.043 6.231.47-.182 1.054.083 1.306.592s.075 1.07-.395 1.253zM1214.675 709.938c-11.322 4.325-22.782.097-34.072-12.449-.57-.633-.597-1.537-.061-2.019.536-.482 1.432-.36 2.002.273 10.45 11.612 20.604 15.358 30.772 11.474.686-.262 1.547.135 1.922.886s.124 1.573-.563 1.835zM1223.742 782.323c-11.322 4.325-22.782.097-34.072-12.449-.57-.633-.597-1.537-.061-2.019.536-.482 1.432-.36 2.002.273 10.45 11.612 20.604 15.358 30.772 11.474.686-.262 1.547.135 1.922.886s.124 1.573-.563 1.835z" id="Leaves-base" fill="#5ACE87"/><path d="M1253.1 850.522c.33 1.08-.158 2.186-1.089 2.47-.931.284-3.218.026-3.548-1.054-.66-6.979-2.763-16.294-6.309-27.946-5.319-17.478-23.182-43.827-27.3-63.669-4.118-19.842 2.087-61.85-2.388-92.404-3.641-24.86-16.864-44.147-23.468-57.591-6.604-13.444-10.63-30.705-10.327-30.798.363-.111 4.572 17.573 11.26 30.513 6.687 12.94 17.893 29.282 23.238 49.832 9.95 38.255-.572 77.357 6.967 102.041 7.539 24.683 19.426 37.943 27.168 59.435 5.161 14.328 7.093 24.052 5.795 29.172z" id="Leaves-base" fill="#42B16D"/></g><g><path d="M1366.997 613.367c-15.609-8.29-31.096 23.84-39.023 26.676-7.927 2.836-20.684-2.56-27.464 10.205-6.78 12.765 4.837 18.936-.745 29.445-5.582 10.51-30.426-5.17-39.416 11.756-8.99 16.926 7.856 32.25 2.522 42.292-5.334 10.043-18.11 8.672-30.012 31.08-11.902 22.409 6.234 36.284 36.596 52.411 30.362 16.127 54.638 18.503 66.54-3.906 11.902-22.409-21.245-38.252-16.899-52.045 4.346-13.794 29.295-9.311 37.02-23.854 7.725-14.544-22.986-30.856-16.674-42.739 6.312-11.883 33.924-4.13 40.363-16.252 6.438-12.122 1.773-17.38-6.485-28.064-8.258-10.685 9.287-28.715-6.322-37.005z" fill="url(#p)"/><path d="M1273.924 805.466c.55.468 1.376.395 1.846-.162.47-.557.406-1.388-.144-1.856-13.198-11.235-16.293-23.068-9.499-35.858.342-.644.103-1.441-.534-1.779-.637-.338-1.431-.09-1.773.554-7.416 13.963-3.976 27.116 10.104 39.102zM1298.886 752.18c.678.262 1.438-.078 1.699-.759.261-.681-.077-1.445-.754-1.707-10.977-4.241-16.059-13.491-15.3-28.079.038-.728-.519-1.35-1.244-1.387-.725-.038-1.343.522-1.381 1.251-.814 15.663 4.865 26 16.981 30.681zM1324.148 676.692c.463.177.982-.052 1.16-.512.178-.46-.053-.975-.516-1.152-5.581-2.135-8.161-6.775-7.779-14.143.026-.492-.355-.911-.85-.937-.495-.026-.917.352-.943.844-.421 8.093 2.568 13.468 8.927 15.9zM1330.756 669.622c5.576 3.907 11.702 3.374 18.172-1.506.393-.297.47-.858.171-1.253-.298-.396-.859-.476-1.252-.18-5.89 4.443-11.179 4.903-16.073 1.474-.406-.284-.962-.187-1.244.218-.281.405-.18.963.225 1.247zM1305.813 736.074c9.789 6.784 20.602 5.758 32.133-2.939.582-.439.702-1.261.267-1.837-.434-.576-1.258-.687-1.84-.248-10.673 8.05-20.253 8.959-29.045 2.866-.593-.411-1.413-.261-1.832.334-.419.596-.277 1.412.316 1.823zM1287.977 796.25c9.789 6.784 20.602 5.758 32.133-2.939.582-.439.702-1.261.267-1.837-.434-.576-1.258-.687-1.84-.248-10.673 8.05-20.253 8.959-29.045 2.866-.593-.411-1.413-.261-1.832.334-.419.596-.277 1.412.316 1.823zM1250.025 848.133c-.453.853-.123 1.915.737 2.372.86.457 3.093.756 3.546-.098 1.513-5.851 4.709-13.381 9.588-22.592 7.318-13.817 27.82-32.402 34.28-48.526 6.459-16.123 5.778-53.66 13.93-78.912 6.633-20.547 21.782-34.118 29.828-44.173s14.092-23.98 13.812-24.129c-.336-.178-6.611 14.068-14.674 23.671-8.063 9.602-20.901 21.101-28.63 37.553-14.388 30.627-9.187 66.649-19.548 86.155-10.361 19.506-23.466 28.198-33.62 44.914-6.769 11.144-9.852 19.065-9.248 23.763z" fill="#D2DEF8"/></g><g><path id="Vase-base" fill="url(#c)" d="M1198.111 831.069h105.571l-23.46 66.194h-58.65z"/><path d="M1201.4 829h96.882c2.982 0 5.4 2.418 5.4 5.4v9.886c0 2.982-2.418 5.4-5.4 5.4h-96.882c-2.982 0-5.4-2.418-5.4-5.4v-9.886c0-2.982 2.418-5.4 5.4-5.4z" fill="url(#j)"/></g></g></g></svg>