<svg viewBox="0 0 1440 1024" xmlns="http://www.w3.org/2000/svg" xmlns:xlink="http://www.w3.org/1999/xlink"><title>PRODUCTION@2x</title><desc>Created with Sketch.</desc><defs><linearGradient x1="13.183%" y1="63.035%" x2="68.879%" y2="57.737%" id="a"><stop stop-color="#925948" offset="0%"/><stop stop-color="#B06C57" offset="100%"/></linearGradient><linearGradient x1="70.516%" y1="-17.792%" x2="56.175%" y2="134.293%" id="b"><stop stop-color="#F7FAFF" offset="0%"/><stop stop-color="#6B9AD9" offset="100%"/></linearGradient><linearGradient x1="50%" y1="19.686%" x2="-33.812%" y2="294.476%" id="c"><stop stop-color="#F7FAFF" offset="0%"/><stop stop-color="#6B9AD9" offset="100%"/></linearGradient><linearGradient x1="50%" y1="-104.29%" x2="50%" y2="100%" id="d"><stop stop-color="#fff" offset="0%"/><stop stop-color="#B3CDEF" offset="100%"/></linearGradient><linearGradient x1="50%" y1="122.111%" x2="115.31%" y2="-30.06%" id="e"><stop stop-color="#062764" offset="0%"/><stop stop-color="#1C4CB9" offset="100%"/></linearGradient><linearGradient x1="85.097%" y1="109.304%" x2="4.854%" y2="-47.176%" id="f"><stop stop-color="#032258" offset="0%"/><stop stop-color="#133E94" offset="100%"/></linearGradient><linearGradient x1="44.627%" y1="-53.849%" x2="54.614%" y2="94.397%" id="g"><stop stop-color="#925948" offset="0%"/><stop stop-color="#A0624F" stop-opacity=".523" offset="56.78%"/><stop stop-color="#B06C57" stop-opacity="0" offset="100%"/></linearGradient><linearGradient x1="-82.472%" y1="75.409%" y2="36.341%" id="h"><stop stop-color="#925948" offset="0%"/><stop stop-color="#B06C57" offset="100%"/></linearGradient><linearGradient x1="100%" y1="50%" x2="0%" y2="50%" id="i"><stop stop-color="#2865C6" offset="0%"/><stop stop-color="#10378A" offset="100%"/></linearGradient><linearGradient x1="60.731%" y1="0%" x2="52.081%" y2="50%" id="j"><stop stop-color="#3485F7" offset="0%"/><stop stop-color="#1A57CF" offset="100%"/></linearGradient><linearGradient x1="50%" y1="27.773%" x2="55.228%" y2="103.623%" id="k"><stop stop-color="#1542AB" offset="0%"/><stop stop-color="#2B68EE" offset="100%"/></linearGradient><linearGradient x1="79.383%" y1="-51.765%" x2="50%" y2="189.01%" id="l"><stop stop-color="#F7FAFF" offset="0%"/><stop stop-color="#6B9AD9" offset="100%"/></linearGradient><linearGradient x1="63.8%" y1="71.155%" x2="16.632%" y2="64.107%" id="m"><stop stop-color="#7EA6DC" offset="0%"/><stop stop-color="#B6CEED" offset="100%"/></linearGradient><linearGradient x1="157.42%" y1="-39.692%" x2="118.836%" y2="115.938%" id="n"><stop stop-color="#E5EDFF" offset="0%"/><stop stop-color="#6B9AD9" offset="100%"/></linearGradient><linearGradient x1="50%" y1="-142.327%" x2="50%" y2="170.165%" id="p"><stop stop-color="#95B7E5" offset="0%"/><stop stop-color="#476DB1" offset="100%"/></linearGradient><linearGradient x1="50%" y1="0%" x2="50%" y2="100%" id="o"><stop stop-color="#36558E" offset="0%"/><stop stop-color="#233A67" offset="100%"/></linearGradient><linearGradient x1="83.28%" y1="11.256%" x2="59.889%" y2="97.31%" id="q"><stop stop-color="#476DB1" offset="0%"/><stop stop-color="#283F6F" offset="100%"/></linearGradient><linearGradient x1="45.815%" y1="15.16%" x2="75.941%" y2="70.686%" id="r"><stop stop-color="#F59BA9" offset="0%"/><stop stop-color="#F25267" offset="100%"/></linearGradient><linearGradient x1="50%" y1="-10.877%" x2="50%" y2="100%" id="s"><stop stop-color="#FFE579" offset="0%"/><stop stop-color="#FEB755" offset="100%"/></linearGradient><linearGradient x1="50%" y1="32.119%" x2="67.286%" y2="115.978%" id="t"><stop stop-color="#84F0A8" offset="0%"/><stop stop-color="#48B676" offset="100%"/></linearGradient><linearGradient x1="59.889%" y1="-223.988%" x2="59.889%" y2="63.248%" id="u"><stop stop-color="#476DB1" offset="0%"/><stop stop-color="#283F6F" offset="100%"/></linearGradient><linearGradient x1="59.889%" y1="-166.876%" x2="59.889%" y2="325.439%" id="v"><stop stop-color="#476DB1" offset="0%"/><stop stop-color="#283F6F" offset="100%"/></linearGradient><linearGradient x1="50%" y1="128.175%" x2="14.948%" y2="4.908%" id="w"><stop stop-color="#092871" offset="0%"/><stop stop-color="#1C4CB9" offset="100%"/></linearGradient><linearGradient x1="60.715%" y1="127.566%" x2="64.332%" y2="90.089%" id="x"><stop stop-color="#46C36F" stop-opacity="0" offset="0%"/><stop stop-color="#399D62" offset="100%"/></linearGradient><linearGradient x1="-8.771%" y1="109.673%" x2="17.311%" y2="15.43%" id="y"><stop stop-color="#FAD0BA" offset="0%"/><stop stop-color="#F2A384" offset="100%"/></linearGradient><linearGradient x1="60.731%" y1="0%" x2="50%" y2="100%" id="z"><stop stop-color="#fff" offset="0%"/><stop stop-color="#E5EEFF" offset="100%"/></linearGradient><linearGradient x1="100%" y1="-8.273%" x2="56.124%" y2="89.008%" id="A"><stop stop-color="#84F0A8" offset="0%"/><stop stop-color="#48B676" offset="100%"/></linearGradient><linearGradient x1="56.099%" y1="79.653%" x2="63.741%" y2="50%" id="B"><stop stop-color="#F5B79C" offset="0%"/><stop stop-color="#EC906C" offset="100%"/></linearGradient><linearGradient x1="-21.598%" y1="115.57%" x2="86.175%" y2="29.345%" id="C"><stop stop-color="#FAD0BA" offset="0%"/><stop stop-color="#F2A384" offset="100%"/></linearGradient><linearGradient x1="-46.418%" y1="139.414%" x2="56.099%" y2="0%" id="D"><stop stop-color="#F5B79C" offset="0%"/><stop stop-color="#EC906C" offset="100%"/></linearGradient><linearGradient x1="75.082%" y1="110.314%" x2="0%" y2="20.318%" id="E"><stop stop-color="#84F0A8" stop-opacity=".324" offset="0%"/><stop stop-color="#7AE69F" stop-opacity=".547" offset="50.604%"/><stop stop-color="#71DE98" stop-opacity="0" offset="100%"/></linearGradient><linearGradient x1="-12.439%" y1="135.506%" x2="17.311%" y2="15.43%" id="F"><stop stop-color="#F7B196" offset="0%"/><stop stop-color="#EB9775" offset="100%"/></linearGradient><linearGradient x1="45.183%" y1="94.484%" x2="72.201%" y2="12.094%" id="G"><stop stop-color="#7BE7A1" offset="0%"/><stop stop-color="#84F0A8" offset="100%"/></linearGradient><path id="H" d="M0 0h137v160h-137z"/><linearGradient x1="50%" y1="0%" x2="50%" y2="189.01%" id="J"><stop stop-color="#F7FAFF" offset="0%"/><stop stop-color="#fff" offset="100%"/></linearGradient><linearGradient x1="50%" y1="0%" x2="50%" y2="100%" id="K"><stop stop-color="#EBF2FB" offset="0%"/><stop stop-color="#D2E1F5" offset="100%"/></linearGradient></defs><g fill="none"><g transform="translate(136 210)" fill="#E2EBFC" opacity=".3"><circle cx="897.191" cy="247.12" r="247"/><circle cx="247.191" cy="417.12" r="247"/></g><path d="M863.968 878.33v22.611c0 12.979-10.521 23.5-23.5 23.5h-253.935c-12.979 0-23.5-10.521-23.5-23.5v-22.611h-223.126c-7.404 0-13.407-6.002-13.407-13.407 0-7.404 6.002-13.407 13.407-13.407h747.187c7.404 0 13.407 6.002 13.407 13.407 0 7.404-6.002 13.407-13.407 13.407h-223.126z" opacity=".806" id="Shadow" fill="#E2EBFC"/><g><g id="Hand" fill-rule="nonzero"><path d="M319.16 489.102c1.255-.268 4.094-1.346 4.955-1.386 7.856-4.147 12.505-6.051 13.947-5.711 1.443.34.501 2.972-2.824 7.897 12.156-.567 18.771-.347 19.845.662 1.074 1.009-2.431 2.558-10.515 4.647 9.603 1.168 14.262 2.357 13.979 3.564-.283 1.208-4.987 2.557-14.112 4.047 7.66 2.453 11.11 4.104 10.347 4.951-.762.848-5.406 1.208-13.931 1.081 4.238 3.95 5.855 6.165 4.853 6.645-1.002.479-9.148-3.546-22.425-10.838l-12.823-1.564c-12.003-.506-48.337-8.788-77.142-23.458-6.386-3.252 15.332-31.849 21.138-27.049 11.623 9.607 35.455 22.304 64.707 36.512z" fill="url(#a)"/><path d="M261.626 402.286c2.657 29.589 5.583 35.809 10.625 51.233.851 2.604 2.856 5.575 6.014 8.912.413.436 2.389-1.653 2.841-1.204 1.791 1.777 4.284 2.513 6.693 4.487 10.705 8.77-6.686 36.002-26.209 30.19-2.489-.741-4.8-4.526-6.55-7.031-.356-.51 1.138-2.155.621-2.479-3.828-2.396-7.498-4.919-10.92-7.562-29.675-22.915-37.539-88.832-23.564-100.679 12.411-10.522 37.792-5.456 40.449 24.133z" id="Sleeve" fill="url(#b)"/></g><g id="File" fill-rule="nonzero"><path d="M386.425 471.449c2.209.039 3.968 1.86 3.93 4.069l-1.798 102.984c-.039 2.209-1.86 3.968-4.069 3.93l-78.988-1.379c-2.209-.039-3.968-1.86-3.93-4.069l1.455-83.366 23.937-23.207 59.463 1.038z" id="File-base" fill="url(#c)"/><path d="M375.237 504.066c.828.014 1.488.698 1.474 1.526-.014.828-.698 1.488-1.526 1.474l-55.991-.977c-.828-.014-1.488-.698-1.474-1.526.014-.828.698-1.488 1.526-1.474l55.991.977zM374.943 520.927c.828.014 1.488.698 1.474 1.526-.014.828-.698 1.488-1.526 1.474l-55.991-.977c-.828-.014-1.488-.698-1.474-1.526.014-.828.698-1.488 1.526-1.474l55.991.977zM374.663 536.925c.828.014 1.488.698 1.474 1.526-.014.828-.698 1.488-1.526 1.474l-55.991-.977c-.828-.014-1.488-.698-1.474-1.526.014-.828.698-1.488 1.526-1.474l55.991.977zM374.384 552.922c.828.014 1.488.698 1.474 1.526-.014.828-.698 1.488-1.526 1.474l-55.991-.977c-.828-.014-1.488-.698-1.474-1.526.014-.828.698-1.488 1.526-1.474l55.991.977z" id="File-base" fill="#ABC6ED"/><path d="M327.408 470.226l-.346 19.804c-.039 2.209-1.86 3.968-4.069 3.93l-19.804-.346 24.219-23.388z" id="File-base" fill="url(#d)"/></g><g id="Head"><path d="M181 333.185c5.667 9.877 10.667 14.815 15 14.815s5.5-6.09 3.5-18.271l-10-5.53-8.5 8.987z" id="Hair" fill="url(#e)"/><path d="M240.829 275.124c8.2 4.878 11.757 11.106 10.671 18.684-1.333 9.305-4.5 15.702-9.5 19.191h-20l-9.5-21.809 2.5-5.67 6-4.16v-3.361l13.5-12.5c.304 3.347 2.414 6.555 6.329 9.624z" id="Hair" fill="url(#f)"/><path d="M184.296 334.5c-6.163 0-10.786-10.496-9.245-15.744.774-2.636 2.52-3.584 5.239-2.843-1.853-6.337-2.259-10.6-1.219-12.789 2.336-4.916 27.93-15.124 42.93-15.124 11.172 0 20.592 8.327 21.963 19.415.211 1.709.317 2.904.317 3.585v10.772c.277 16.376-1.006 19.833-2.78 24.228-1.774 4.395-1 7.5-8.845 11.668 2.443 14.107 1.535 14.481 3.338 17.993 2.704 5.268 32.465 13.918 8.287 24.721-16.119 7.202-34.347-.088-56.575-26.885 4.979-4.505 8.85-10.15 9.17-16.278.321-6.129-.652-3.444-2.919-7.945-2.608-5.499-4.886-10.525-6.833-15.076-.843.202-1.786.303-2.827.303z" id="Face" fill="url(#a)" fill-rule="nonzero"/><path d="M210.621 309.552c3.508-.127 6.818.661 9.932 2.366 8.692 4.758-2.557 9.083-9.715 9.083-3.234 0-5.856-2.564-5.856-5.726 0-3.08 2.491-5.608 5.639-5.722z" id="Shadow" fill="url(#g)"/><path d="M244.277 310.775l.003.225v10.772c.132 7.77-.088 12.632-.545 16.065l-6.281-1.837c-6.303-3-8.454-4.667-6.454-5 3-.5 6.454-1.5 6.454-5s-7.454-7.5-6.454-13.5c.667-4 5-4.833 13-2.5l.277.775z" id="Path" fill="url(#h)" fill-rule="nonzero"/><path d="M202.981 300.057c-.277.977-1.029 1.747-1.999 2.047-5.185 1.605-8.288 4.552-9.307 8.841.051 3.212.325 7.017.325 11.555 0 15 7.5 20 14 20s13-12 22.5-12c6.333 0 11.833 1.833 15.5 4.5 3.333 10.333 2 16.833-3 20.5-7.5 5.5-32.5 0-41.5 0s-7.5-10.5-10-25c-1.667-9.667-4.667-14.333-9-14-2.022.172-3.355.839-4 2s-.978 3.495-1 7c-22-38 4.5-58.5 23-55.5 12.333 2 24 1.667 36-5 3.665 31.61-17.435 26.776-30.225 30.497l-1.294 4.56zm33.374 44.485c1.486 0 3.03-.305 4.632-.916.516-.197.775-.775.578-1.291-.048-.125-.12-.239-.213-.336-4.108-4.283-7.482-6.425-10.122-6.425l-.456.008-.456-.008c-2.64 0-6.014 2.142-10.122 6.425-.382.399-.369 1.032.03 1.414.097.093.211.165.336.213 1.602.611 3.146.916 4.632.916 1.105 0 2.433-.338 3.983-1.013 1.018-.443 2.175-.443 3.193 0 1.551.675 2.879 1.013 3.983 1.013z" id="Hair" fill="url(#f)"/></g><g id="Foot" fill-rule="nonzero"><path d="M179.322 827.017l30.177 2.16-2.172 22.495c-3.09 2.763-7.541 4.144-13.353 4.144-5.812 0-10.695-2.378-14.651-7.134l-.002-21.665z" fill="url(#a)"/><path d="M179.5 847.5c2.002.446 7.792 5.56 16.5 7.5 8.708 1.94 10.74-8.722 12-7.5 2.455 2.381 6.622 7.381 12.5 15l16.929 12.212c1.928 1.391 3.071 3.624 3.071 6.002 0 2.252-1.541 4.212-3.729 4.743-6.778 1.646-11.868 2.327-15.271 2.043-6-.5-26.051-8.633-40.74-12.573-1.519-.408-2.802-2.14-3.093-4.179-.71-4.975-1.05-8.636-1.018-10.982.087-6.445.85-12.712 2.851-12.266z" id="Shoes" fill="url(#i)"/><path d="M249.968 813.991l30.177 2.16-2.172 22.495c-3.09 2.763-7.541 4.144-13.353 4.144-5.812 0-10.695-2.378-14.651-7.134l-.002-21.665z" id="leg" fill="url(#a)"/><path d="M249.869 831.749c2.466 0 4.693 8.162 15.422 8.162 10.73 0 11.814-7.61 13.366-6.668 3.025 1.834 7.306 4.587 12.843 8.258 19.686 5.882 28.475 12.327 26.367 19.334-.072 1.54-25.924 1.579-65.507.118-1.872-.069-3.452-1.516-3.811-3.49-.875-4.817-1.294-8.402-1.255-10.756.107-6.464.107-14.958 2.574-14.958z" id="Shoes" fill="url(#i)"/><path d="M218.522 706.113c-14.763 83.252-3.159 127.608-5.188 133.067-3.044 8.188-36.132 8.188-38.291-3.142-1.439-7.554-1.441-49.611-.004-126.173-6.54-81.364-13.672-93.539-13.265-112.616.407-19.077 8.164-48.619 23.269-88.625l39.831 51.869c3.887-6.876 8.661-15.24 14.323-25.092 20.547-12.247 33.824-5.763 39.832 19.451 6.008 25.214 16.008 74.45 10 147.71-14.763 83.252-3.159 119.608-5.188 125.067-3.044 8.188-36.132 8.188-38.291-3.142-1.439-7.554-1.441-41.611-.004-118.173-6.385-29.766-12.903-54.122-18.462-73.068l-8.564 72.869z" id="Pants" fill="url(#j)"/><path d="M245.265 705c-6.323-29.303-12.761-53.307-18.254-72.011l12.489-11.989 7 84h-1.235z" id="Path" fill="url(#k)"/></g><g id="Body" fill-rule="nonzero"><path d="M233.5 366.008l17.824 16.238c12.845 8.153 19.95 23.627 21.316 46.422 1.366 22.795 1.366 61.028 0 114.7-22.323 22.736-57.871 26.06-106.644 9.973 2.881-16.152 1.304-41.104-4.732-74.858-9.858-50.551-11.617-79.552-5.275-87.003 5.647-6.635 17.104-10.666 31.572-20.007 1.186-.766 2.566-3.255 4.138-7.465 2.465-.907 3.787-1.291 3.967-1.151.435.338-1.778 2.946-1.512 3.15 17.356 13.333 29.135 18.426 36.332 16.238 4.556-1.385 6.085 15.912 8.67 14.562.847-.443 1.114-3.362.801-8.757-.252-4.33-1.778-8.489-4.387-11.955l-.07-.096c-.781-1.094-.892-5.461-2-9.992z" fill="url(#l)"/><path d="M199.221 369.78c.534.384 1.061.759 1.583 1.125l-6.683 14.4 18.047 38.884 18.047-38.884-1.26-2.714c.532-.081 1.043-.196 1.532-.345.129-.039.255-.063.379-.073l.402.865.349-.751c.536.211 1.025.691 1.477 1.353l-.773 1.666 17.847 38.452 13.41-28.893c.402.656.792 1.33 1.168 2.019l-13.525 29.141 17.847 38.452 4.461-9.613c.022 1.439.042 2.909.059 4.409l-3.468 7.472 3.548 7.645c0 1.484-.002 2.992-.006 4.523l-4.595-9.9-18.047 38.884 18.035 38.858c-.498.435-1.002.862-1.511 1.28l-17.576-37.87-17.847 38.452 6.033 13c-.64.129-1.286.25-1.936.364l-5.15-11.096-5.714 12.311c-.711.038-1.426.068-2.147.091l6.808-14.669-17.847-38.452-17.847 38.452 6.127 13.202c-.752-.112-1.509-.231-2.27-.355l-4.91-10.579-4.11 8.855c-.633-.138-1.269-.279-1.908-.425l4.965-10.698-17.847-38.452-7.214 15.543c-.065-1.318-.143-2.661-.234-4.031l6.395-13.78-11.091-23.898c-.306-1.812-.626-3.651-.96-5.516l-.363-1.87 13.467 29.016 17.847-38.452-18.047-38.884-15.877 34.209c-.196-1.113-.387-2.212-.574-3.3l15.398-33.178-16.405-35.346c.454-.478.94-.943 1.456-1.399l16.002 34.477 17.847-38.452-5.971-12.865c.502-.316 1.007-.638 1.517-.967l.106-.073 5.401 11.636 6.153-13.257zm39.744 1.206l-2.774 5.977c-.199-.294-.406-.583-.62-.867l-.07-.096c-.17-.239-.309-.633-.433-1.151l2.418-5.21 1.48 1.348zm-63.543 136.911l17.847 38.452 17.847-38.452-17.847-38.452-17.847 38.452zm55.645 38.452l17.847-38.452-17.847-38.452-17.847 38.452 17.847 38.452zm-18.899-40.72l17.847-38.452-17.847-38.452-17.847 38.452 17.847 38.452zm-18.899-40.72l17.847-38.452-18.047-38.884-17.847 38.452 18.047 38.884zm19.952-38.452l17.847 38.452 18.047-38.884-17.847-38.452-18.047 38.884zm18.899 40.72l17.847 38.452 18.047-38.884-17.847-38.452-18.047 38.884z" id="Texture" fill="url(#l)" style="mix-blend-mode:multiply" opacity=".466"/><path d="M241.362 560.903c-20.055 4.916-45.177 2.396-75.365-7.561 2.881-16.152 1.304-41.104-4.732-74.858-3.548-18.193-6.047-33.595-7.496-46.206l37.732-21.277c20.667 28.667 26.667 53 18 73-13 30 20.5 26.5 13 54.5-3.432 12.812 8.317 17.773 18.862 22.403z" id="Shadow" fill="url(#m)" opacity=".5"/></g></g><g id="File" fill-rule="nonzero"><path d="M504.529 489.193c2.209 0 4 1.791 4 4v103c0 2.209-1.791 4-4 4h-79c-2.209 0-4-1.791-4-4v-83.379l23.528-23.621h59.472z" id="File-base" fill="url(#c)"/><path d="M493.913 522.001c.828 0 1.5.672 1.5 1.5s-.672 1.5-1.5 1.5h-56c-.828 0-1.5-.672-1.5-1.5s.672-1.5 1.5-1.5h56zM493.913 538.864c.828 0 1.5.672 1.5 1.5s-.672 1.5-1.5 1.5h-56c-.828 0-1.5-.672-1.5-1.5s.672-1.5 1.5-1.5h56zM493.913 554.864c.828 0 1.5.672 1.5 1.5s-.672 1.5-1.5 1.5h-56c-.828 0-1.5-.672-1.5-1.5s.672-1.5 1.5-1.5h56zM493.913 570.864c.828 0 1.5.672 1.5 1.5s-.672 1.5-1.5 1.5h-56c-.828 0-1.5-.672-1.5-1.5s.672-1.5 1.5-1.5h56z" id="File-base" fill="#ABC6ED"/><path d="M445.5 489v19.807c0 2.209-1.791 4-4 4h-19.807l23.807-23.807z" id="File-base" fill="url(#d)"/></g><g id="Box" fill-rule="nonzero"><path id="Box-base" fill="url(#n)" d="M952.5 531.556l48.613-8.556v77h-48.613z"/><path id="Box-base" fill="url(#c)" d="M965.464 529.417l12.153-2.139v17.967l-12.153.642z"/><path id="Box-base" fill="url(#l)" d="M1063.169 531.556v68.444h-62.056v-77z"/></g><g id="Box" fill-rule="nonzero"><path id="Box-base" fill="url(#n)" d="M830.5 531.556l48.613-8.556v77h-48.613z"/><path id="Box-base" fill="url(#c)" d="M843.464 529.417l12.153-2.139v17.967l-12.153.642z"/><path id="Box-base" fill="url(#l)" d="M941.169 531.556v68.444h-62.056v-77z"/></g><g fill-rule="nonzero"><path d="M632.529 489.193c2.209 0 4 1.791 4 4v103c0 2.209-1.791 4-4 4h-79c-2.209 0-4-1.791-4-4v-83.379l23.528-23.621h59.472z" id="File-base" fill="url(#c)"/><path d="M621.913 522.001c.828 0 1.5.672 1.5 1.5s-.672 1.5-1.5 1.5h-56c-.828 0-1.5-.672-1.5-1.5s.672-1.5 1.5-1.5h56zM621.913 538.864c.828 0 1.5.672 1.5 1.5s-.672 1.5-1.5 1.5h-56c-.828 0-1.5-.672-1.5-1.5s.672-1.5 1.5-1.5h56zM621.913 554.864c.828 0 1.5.672 1.5 1.5s-.672 1.5-1.5 1.5h-56c-.828 0-1.5-.672-1.5-1.5s.672-1.5 1.5-1.5h56zM621.913 570.864c.828 0 1.5.672 1.5 1.5s-.672 1.5-1.5 1.5h-56c-.828 0-1.5-.672-1.5-1.5s.672-1.5 1.5-1.5h56z" id="File-base" fill="#ABC6ED"/><path d="M573.5 489v19.807c0 2.209-1.791 4-4 4h-19.807l23.807-23.807z" fill="url(#d)"/></g><g fill-rule="nonzero"><g id="Conveyor-base" transform="translate(324 410) translate(0 190)"><path d="M309.5 72v-67h-270.5c-18.502 0-33.5 14.998-33.5 33.5 0 18.502 14.998 33.5 33.5 33.5h270.5zM465.5 5v67h270.5c18.502 0 33.5-14.998 33.5-33.5 0-18.502-14.998-33.5-33.5-33.5h-270.5z" stroke="url(#o)" stroke-width="10" fill="url(#p)"/><circle fill="url(#q)" style="mix-blend-mode:multiply" opacity=".4" cx="52.5" cy="37" r="20"/><circle fill="url(#q)" style="mix-blend-mode:multiply" opacity=".4" cx="132.5" cy="37" r="20"/><circle fill="url(#q)" style="mix-blend-mode:multiply" opacity=".4" cx="212.5" cy="37" r="20"/><path d="M722.5 57c-11.046 0-20-8.954-20-20s8.954-20 20-20 20 8.954 20 20-8.954 20-20 20zM642.5 57c-11.046 0-20-8.954-20-20s8.954-20 20-20 20 8.954 20 20-8.954 20-20 20zM562.5 57c-11.046 0-20-8.954-20-20s8.954-20 20-20 20 8.954 20 20-8.954 20-20 20z" fill="url(#q)" style="mix-blend-mode:multiply" opacity=".4"/></g><path d="M606.5 410h207c16.569 0 30 13.431 30 30v237h-267v-237c0-16.569 13.431-30 30-30z" id="Conveyor-base" fill="url(#q)"/><g><g><path id="Rectangle-2-Copy-9" stroke="url(#o)" stroke-width="2" fill="url(#c)" d="M684.5 548h130v61h-130z"/><g><path d="M746.5 557v9c0 .552-1.069 1-2.387 1h-46.853c-1.318 0-2.387-.448-2.387-1v-9c0-.552 1.069-1 2.387-1h46.853c1.318 0 2.387.448 2.387 1z" fill="#2A73E7"/><path d="M753.5 591v9c0 .552-.913 1-2.04 1h-54.756c-1.127 0-2.04-.448-2.04-1v-9c0-.552.913-1 2.04-1h54.756c1.127 0 2.04.448 2.04 1z" fill="#2A73E7"/><path d="M803.5 591v9c0 .552-.155 1-.347 1h-9.306c-.192 0-.347-.448-.347-1v-9c0-.552.155-1 .347-1h9.306c.192 0 .347.448.347 1z" fill="url(#j)"/><path d="M803.5 557v9c0 .552-.155 1-.347 1h-9.306c-.192 0-.347-.448-.347-1v-9c0-.552.155-1 .347-1h9.306c.192 0 .347.448.347 1z" fill="url(#j)"/><path d="M803.5 573v9c0 .552-.155 1-.347 1h-9.306c-.192 0-.347-.448-.347-1v-9c0-.552.155-1 .347-1h9.306c.192 0 .347.448.347 1z" fill="url(#j)"/><path d="M764.5 574v9c0 .552-.786 1-1.757 1h-66.138c-.97 0-1.757-.448-1.757-1v-9c0-.552.786-1 1.757-1h66.138c.97 0 1.757.448 1.757 1z" fill="#2A73E7"/></g></g><g><path stroke="url(#o)" stroke-width="2" fill="url(#c)" d="M684.5 464h130v61h-130z"/><path d="M696.932 512.416c-.23.239-.61.246-.848.016-.239-.23-.246-.61-.016-.848l12.202-12.686c4.343-4.516 11.333-5.183 16.453-1.571 4.838 3.413 11.328 3.307 16.052-.263l16.228-12.264c5.252-3.969 12.638-3.411 17.234 1.302 4.092 4.196 10.741 4.487 15.184.664l17.687-15.221c.251-.216.63-.188.846.063.216.251.188.63-.063.846l-17.687 15.221c-4.923 4.236-12.292 3.914-16.826-.736-4.174-4.281-10.881-4.788-15.651-1.183l-16.228 12.264c-5.14 3.885-12.203 4.001-17.468.286-4.635-3.27-10.964-2.666-14.897 1.423l-12.202 12.686z" fill="#F35F73"/><path d="M696.786 512.527c-.291.158-.655.05-.814-.241-.158-.291-.05-.655.241-.814l25.723-13.963c5.726-3.108 12.552-3.453 18.562-.938 5.645 2.362 12.071 1.935 17.354-1.153l1.577-.922c5.955-3.481 13.341-3.408 19.226.191 5.522 3.377 12.441 3.491 18.072.298l11.477-6.509c.288-.163.654-.062.818.226.163.288.062.654-.226.818l-11.477 6.509c-6.01 3.408-13.396 3.286-19.29-.318-5.507-3.368-12.42-3.437-17.994-.179l-1.577.922c-5.608 3.278-12.43 3.731-18.423 1.224-5.675-2.375-12.12-2.049-17.526.886l-25.723 13.963z" fill="#F35F73"/></g><g transform="translate(324 410) translate(290 52)"><circle fill="url(#r)" cx="16.5" cy="16" r="16"/><circle fill="url(#s)" cx="16.5" cy="72" r="16"/><circle fill="url(#t)" cx="16.5" cy="131" r="16"/></g></g><path d="M587.092 637.013h4.897v11h-4.897v-11zm15.92 0h4.897v11h-4.897v-11zm15 0h4.897v11h-4.897v-11zm15 0h4.897v11h-4.897v-11zm15 0h4.897v11h-4.897v-11zm15 0h4.897v11h-4.897v-11zm15 0h4.897v11h-4.897v-11zm15 0h4.897v11h-4.897v-11zm15 0h4.897v11h-4.897v-11zm15 0h4.897v11h-4.897v-11zm15 0h4.897v11h-4.897v-11zm15 0h4.897v11h-4.897v-11zm15 0h4.897v11h-4.897v-11zm15 0h4.897v11h-4.897v-11zm15 0h4.897v11h-4.897v-11zm15 0h4.897v11h-4.897v-11zm15 0h4.897v11h-4.897v-11z" id="Combined-Shape" fill="#233A67"/><path d="M970.5 706h-170v164.991h-22v-164.991h-160v164.991h-22v-164.991h-170v164.991h-22v-164.991h-38.5c-5.247 0-9.5-4.253-9.5-9.5s4.253-9.5 9.5-9.5h688c5.247 0 9.5 4.253 9.5 9.5s-4.253 9.5-9.5 9.5h-61.5v164.991h-22v-164.991z" fill="url(#u)"/><path d="M368.008 676h683.983c2.67 0 4.834.34 4.834.759v9.483c0 .419-2.164.759-4.834.759h-683.983c-2.67 0-4.834-.34-4.834-.759v-9.483c0-.419 2.164-.759 4.834-.759z" id="Rectangle" fill="url(#v)"/><path d="M568.5 648h283c1.105 0 2 .895 2 2v25c0 1.105-.895 2-2 2h-283c-1.105 0-2-.895-2-2v-25c0-1.105.895-2 2-2z" fill="#233A67"/></g><g id="Hand" fill-rule="nonzero"><path d="M284.879 524.941c1.255-.268 4.094-1.346 4.955-1.386 7.856-4.147 12.505-6.051 13.947-5.711 1.443.34.501 2.972-2.824 7.897 12.156-.567 18.771-.347 19.845.662 1.074 1.009-2.431 2.558-10.515 4.647 9.603 1.168 14.262 2.357 13.979 3.564-.283 1.208-4.987 2.557-14.112 4.047 7.66 2.453 11.11 4.104 10.347 4.951-.762.848-5.406 1.208-13.931 1.081 4.238 3.95 5.855 6.165 4.853 6.645-1.002.479-9.148-3.546-22.425-10.838l-12.823-1.564c-12.003-.506-48.337-8.788-77.142-23.458-6.386-3.252 15.332-31.849 21.138-27.049 11.623 9.607 35.455 22.304 64.707 36.512z" fill="url(#a)"/><path d="M194.9 420.744c4.567 31.968 8.097 38.554 14.448 55.009 1.072 2.778 3.417 5.889 7.036 9.332.473.45 2.499-1.93 3.015-1.469 2.045 1.827 4.794 2.485 7.521 4.49 12.12 8.911-5.21 39.461-26.733 34.263-2.744-.663-5.468-4.64-7.51-7.259-.416-.534 1.112-2.404.533-2.726-4.292-2.383-8.419-4.913-12.284-7.587-33.516-23.186-45.802-94.292-31.307-107.948 12.874-12.128 40.714-8.072 45.281 23.896z" id="Sleeve" fill="url(#b)"/><path d="M216.526 485.141c.646.031 2.399-1.95 2.874-1.525 2.045 1.827 4.794 2.485 7.521 4.49 12.12 8.911-5.21 39.461-26.733 34.263-2.744-.663-5.468-4.64-7.51-7.259-.341-.437.624-1.773.665-2.418 15.824-5.914 23.552-15.097 23.184-27.55z" id="Path" fill="url(#b)" style="mix-blend-mode:multiply" opacity=".5"/></g><g><path d="M1198.101 348.086c-15.495 4.338-23.552 14.255-24.172 29.75-.265 6.633 2.158 13.986 5.226 21.669 3.09 7.735-3.252 11.927-1.677 25.745 1.222 10.72 9.949 18.302 8.154 26.257-.429 1.901 25.31-8.376 23.433-6.384-15.185 16.114-10.782 15.463 13.207-1.954 10.536-11.947 15.804-17.92 15.804-17.92s-.775-13.79-2.324-41.371l-13.48-19.058-24.172-16.734z" id="Hair" fill="url(#w)"/><path d="M1124.946 691.682c9.615 14.437 52.991 22.695 130.126 24.774h14.928c2.547-.384 3.88-.869 4-1.456.12-.587 2.62-18.92 7.5-55l-112.5-180c-10.242 115.154-19.911 176.189-29.005 183.106-15.081 11.471-20.097 20.996-15.049 28.576z" id="Jacket" fill="url(#x)" fill-rule="nonzero"/><g><path d="M1181.229 843.034l2.508 15.883c-3.052 4.228-6.821 6.342-11.306 6.342-4.485 0-8.478-1.066-11.978-3.198l-2.513-17.36 23.288-1.667zM1259.025 843.034l2.508 15.883c-3.052 4.228-6.821 6.342-11.306 6.342-4.485 0-8.478-1.066-11.978-3.198l-2.513-17.36 23.288-1.667z" fill="url(#y)" fill-rule="nonzero"/><path d="M1261.611 856.738c1.903 0 1.903 6.555 1.986 11.543.03 1.816-.293 4.583-.968 8.3-.277 1.523-1.496 2.64-2.941 2.693-30.547 1.127-48.953 1.097-49.009-.091-2.441-8.111-1.111-8.986 12.742-15.349 5.631-2.586 10.799-3.821 14.301-5.945 1.198-.726 3.708 5.146 11.988 5.146s9.998-6.299 11.902-6.299zM1183.815 856.738c1.903 0 1.903 6.555 1.986 11.543.03 1.816-.293 4.583-.968 8.3-.277 1.523-1.496 2.64-2.941 2.693-30.547 1.127-48.953 1.097-49.009-.091-2.441-8.111-1.111-8.986 12.742-15.349 5.631-2.586 10.799-3.821 14.301-5.945 1.198-.726 3.708 5.146 11.988 5.146s9.998-6.299 11.902-6.299z" fill="url(#i)" fill-rule="nonzero"/><path d="M1269.401 583.56c-.76 17.439-.76 27.169 0 29.19 1.141 3.032-5.548 40.855-20.065 113.469 1.243 70.852 11.594 109.773 10.353 116.763-1.862 10.485-23.504 10.485-26.13 2.907-1.751-5.052-8.996-46.1-21.736-123.143l-2.236-60.426c-8.909 15.833-21.369 37.401-37.381 64.703 2.619 75.146 12.552 114.92 9.098 119.321-3.078 3.923-23.363 6.691-24.581.001-12.346-51.838-18.519-91.876-18.517-120.114.001-28.238 12.716-75.795 38.144-142.671h93.05z" fill="url(#j)" fill-rule="nonzero"/><path d="M1172.22 726.998l-.307-.091 25.876-74.454c1.725 1.482 5.658 4.771 11.797 9.867-8.906 15.829-21.361 37.388-37.366 64.678z" id="Shadow" fill="url(#k)" fill-rule="nonzero"/><path d="M1250.576 620.783v220.585l-14.835-108.412c-.801-5.853-.747-11.79.159-17.627l14.677-94.545z" id="Texture" stroke="#1542AB"/></g><g><path d="M1195.116 448.28c11.686-1.742 24.866-2.975 39.426-5.123 26.012 10.544 28.682 18.918 34.01 25.122 5.328 6.204-14.321 122.067-22.183 129.733-11.411 11.126-28.65 14.988-49.553 11.988-15.142-2.173-25.655-16.21-23.482-31.352l.091-.591c2.718-16.407 4.077-26.509 4.077-30.305 0-7.724-3.84-26.578-11.521-56.561l16.919-37.454 12.215-5.456z" fill="url(#z)" fill-rule="nonzero"/><g id="Texture"><path d="M1178.167 475.35c6.334 2.314 14.197 3.471 23.588 3.471 14.086 0 32.826 3.997 42.375 1.508M1175.604 482.651c13.843 1.301 23.044 1.952 27.603 1.952 6.84 0 27.268 5.275 43.169 1.661M1173.222 490.333c9.692-.617 21.087-.178 34.182 1.317 13.096 1.495 27.504 2.073 43.224 1.732M1173.071 578.11c12.177 4.159 29.031 4.535 50.564 1.127M1173.434 583.883c9.023 4.436 23.926 4.985 44.709 1.649M1174.442 591.143c17.31 4.924 36.152 5.711 56.526 2.36M1180.097 601.129c22.511 1.888 41.84 1.257 57.986-1.893M1190.098 608.435c20.138 1.491 39.047-1.672 56.727-9.49M1181.989 465.52c.061 4.083 3.658 6.124 10.792 6.124 10.701 0 22.111-.948 34.872 2.36 8.507 2.206 22.26-.099 41.259-6.913M1180.937 461.953c6.88 3.949 17.657 4.936 32.332 2.962 22.012-2.962 21.024 4.408 42.413 0M1184.398 458.224c6.925-.115 13.286.423 19.081 1.615 8.693 1.788 26.262-3.065 41.693 0M1185.283 453.712c10.597-1.497 21.193-1.497 31.787 0 15.891 2.246 25.049-2.246 31.991 0M1190.097 450.467c28.244-.001 45.834-.594 52.771-1.78" stroke="#F58898" fill-rule="nonzero"/><path d="M1249 670c19.049 14.377 28.573 26.039 28.573 34.986" stroke="#48C172" stroke-linecap="round" stroke-linejoin="round" stroke-dasharray="5,10"/></g></g><g id="Jacket" transform="translate(1121 346) translate(112 88)"><path d="M7.102 19.636l-1.984-9.136c23.883 12 37.154 12 43.383 25.5 6.229 13.5-10.506 96.504-9.314 111.208 1.789 22.056 12.386 24.75 13.542 73.201.527 22.065-1.108 39.061-4.827 50.504-.671 2.064-1.706 4.371-3.106 6.919-1.581 2.879-4.604 4.668-7.889 4.668h-4.407 4.257c.991 0 1.946-.368 2.681-1.031 1.639-1.481 1.768-4.01.288-5.65-20.362-22.546-19.27-33.819-38.726-33.819-4.726-23.094 16.473-66.352 4.117-108.198-4.66-15.783-3.811-40.614 2.547-74.495 2.464-13.129 2.272-26.618-.563-39.672z" fill="url(#t)" fill-rule="nonzero"/><path d="M49.518 56.808c-1.433-.524-2.742-1.439-3.757-2.724l-.871-1.104c-.3-.38-.63-.737-.986-1.065-3.743-3.455-9.578-3.221-13.032.522-.262.284-.541.552-.835.802-4.027 3.422-10.065 2.932-13.488-1.095l-.825-.971c-.334-.393-.702-.757-1.1-1.086-1.614-1.336-3.56-2.002-5.504-2.031.372-5.163.343-10.346-.087-15.502 3.848-1.716 8.407-.126 10.332 3.674.231.455.503.888.813 1.292 2.772 3.613 7.948 4.295 11.561 1.522l5.531-4.244c.43-.33.895-.613 1.387-.843 3.763-1.764 8.244-.144 10.008 3.62.177.377.386.738.624 1.079.775 3.997.747 10.396.226 18.154zm-4.483 39.479l-.144-.183c-.3-.38-.63-.737-.986-1.065-3.743-3.455-9.578-3.221-13.032.522-.262.284-.541.552-.835.802-4.027 3.422-10.065 2.932-13.488-1.095l-.825-.971c-.334-.393-.702-.757-1.1-1.086-3.511-2.906-8.599-2.643-11.795.461.377-4.599.912-9.459 1.606-14.579l2.771-2.284c.451-.372.942-.693 1.464-.957 3.92-1.987 8.709-.419 10.695 3.501.231.455.503.888.813 1.292 2.772 3.613 7.948 4.295 11.561 1.522l5.531-4.244c.43-.33.895-.613 1.387-.843 3.019-1.416 6.501-.652 8.67 1.649-.701 5.752-1.49 11.687-2.295 17.559zm-5.251 39.555c-3.136-.743-6.57.182-8.911 2.719-.262.284-.541.552-.835.802-4.027 3.422-10.065 2.932-13.488-1.095l-.825-.971c-.334-.393-.702-.757-1.1-1.086-2.659-2.201-6.224-2.585-9.186-1.291l-.322-1.117c-.929-3.146-1.639-6.651-2.13-10.516l.042-.034 4.179-3.444c.451-.372.942-.693 1.464-.957 3.92-1.987 8.709-.419 10.695 3.501.231.455.503.888.813 1.292 2.772 3.613 7.948 4.295 11.561 1.522l5.531-4.244c.43-.33.895-.613 1.387-.843 1.028-.482 2.11-.711 3.175-.713-.84 6.179-1.563 11.805-2.05 16.476zm9.541 50.016c-1.357-.534-2.595-1.423-3.563-2.651l-.871-1.104c-.3-.38-.63-.737-.986-1.065-3.743-3.455-9.578-3.221-13.032.522-.262.284-.541.552-.835.802-4.027 3.422-10.065 2.932-13.488-1.095l-.825-.971c-.334-.393-.702-.757-1.1-1.086-1.835-1.519-4.101-2.172-6.303-2.006.484-5.092.762-10.282.714-15.527 3.848-1.715 8.406-.125 10.331 3.674.231.455.503.888.813 1.292 2.772 3.613 7.948 4.295 11.561 1.522l5.531-4.244c.43-.33.895-.613 1.387-.843 1.173-.55 2.417-.771 3.626-.701 2.13 6.618 4.881 13 7.039 23.48zm3.46 37.39c-2.101.3-4.101 1.352-5.561 3.116-.383.463-.815.884-1.286 1.257-3.695 2.915-9.054 2.283-11.969-1.412l-.871-1.104c-.3-.38-.63-.737-.986-1.065-3.743-3.455-9.578-3.221-13.032.522-.262.284-.541.552-.835.802-4.027 3.422-10.065 2.932-13.488-1.095l-.825-.971c-.334-.393-.702-.757-1.1-1.086-.458-.379-.942-.704-1.445-.976.724-5.097 1.731-10.573 2.777-16.339 1.42.741 2.631 1.917 3.41 3.455.231.455.503.888.813 1.292 2.772 3.613 7.948 4.295 11.561 1.522l5.531-4.244c.43-.33.895-.613 1.387-.843 3.763-1.764 8.244-.144 10.008 3.62.258.549.583 1.064.969 1.533 2.55 3.099 7.129 3.543 10.228.993l4.156-3.42c.23 3.553.401 7.407.501 11.604.023.956.042 1.902.056 2.839zm-3.639 43.322c-3.172-.638-6.585.445-8.793 3.112-.393.475-.836.908-1.321 1.29-.741.584-1.546 1.03-2.386 1.34-8.858-10.392-13.162-18.112-17.758-23.16.184-.106.373-.204.566-.294 3.863-1.811 8.464-.148 10.275 3.716.264.564.598 1.093.994 1.574 2.618 3.181 7.319 3.637 10.5 1.02l4.295-3.535c.462-.381.965-.709 1.5-.98 1.562-.791 3.258-1.034 4.868-.799-.614 6.333-1.529 11.914-2.741 16.716z" id="Shape" fill="url(#A)" fill-rule="nonzero"/><path d="M49.828 209.351c.309.072.598.215.844.416.893.729 1.026 2.044.297 2.937l-1.366 1.674c-.517.633-1.269 1.028-2.084 1.093l-15.064 1.209c-2.508.201-4.875-1.183-5.928-3.468l-6.964-15.101c-.551-1.194-.26-2.607.718-3.487l.468-.421.011-.01c1.141-1.016 2.89-.914 3.905.227 3.642 4.092 7.478 7.319 11.51 9.68 3.897 2.282 8.448 4.033 13.653 5.251z" stroke="#5FCC89"/><circle fill="#5FCC89" transform="rotate(151 30.485 213.258)" cx="30.485" cy="213.258" r="1.5"/><path d="M11 232c-4.726-23.094 16.473-66.352 4.117-108.198-4.239-14.357-.092-32.415 3.486-59.173.14-1.044-4.764-4.458-4.611-5.522.297-2.062 6.64-2.977 6.921-5.125 1.453-11.122-2.116-24.193-4.408-35.173l-7.388-18.31" id="Texture" stroke="#5FCC89"/></g><g><path d="M1234.497 443.197c-21.494 18.261-35.284 25.816-41.371 22.665-6.091-3.153-2.625-8.862 2.375-17.362l-.676.281c2.317-2.484 5.657.29 9.65-4.879 2.78-3.598 2.05-13.613-2.189-30.044 21.383-18.29 31.299-24.329 29.75-18.117-2.324 9.318-.465 1.035-.93 14.494-.304 8.815.826 19.803 3.392 32.962z" fill="url(#B)"/><path d="M1185.696 402.545l-1.64-14.849c-2.603-6.133 3.046-12.726 5.58-11.558 9.971 4.597 24.111 3.031 32.636-4.699-1.442 10.58-1.442 16.774 6.199 19.035 2.903-2.998 10.615-4.506 11.016 6.277.267 7.189-2.57 10.342-8.512 9.46l-1.534 12.231c-6.556 8.447-13.537 13.838-20.941 16.173-5.995 1.891-9.958 2.013-11.889.367-3.43-2.923-7.008-11.468-10.081-23.688-1.952-.535-3.691-1.07-3.691-3.489 0-.893 1.739-1.595 2.855-5.261z" fill="url(#C)"/><path d="M1184.057 387.696c-2.003-4.718.878-9.708 3.468-11.228-.067 1.591-.845 4.156-.052 8.077.942 4.657 2.801 4.523 2.514 7.823-.434 4.984-1.286 8.559-4.523 10.448l.232-.272-1.64-14.849z" id="Path" fill="url(#D)"/><path d="M1186.015 362.961c0 12.396 6.508 20.143 19.523 23.242 19.523 4.648 19.058 6.973 14.875 18.593-2.831 7.865-8.695 14.627-6.496 23.471s13.832 7.382 18.112 13.038c4.749 6.277 3.275 14.092 10.965 16.959 5.127 1.912 13.247 1.56 24.362-1.055-.112 48.414 3.007 75.995 9.357 82.742 9.925 10.548 25.526 11.523 34.614 0 9.088-11.523-4.32-23.099-4.32-32.279 0-12.608 4.735-22.111 0-35.993-4.735-13.882-20.831-18.424-27.393-28.708-6.562-10.284-3.994-12.017-5.992-26.659-1.998-14.642-15.325-21.16-15.325-30.11 0-13.972 1.49-23.242-8.89-33.425-10.379-10.183-24.981-2.739-34.743-5.011-19.541-4.548-29.09.517-28.648 15.194z" fill="url(#w)"/></g><g><path d="M1282.683 475.545c2.054 22.976-11.577 92.343-10.496 105.663.59 7.278 2.14 12.448 3.993 17.85-5.691 5.424-14.31 9.992-35.004 13.632 1.49-14.469 1.406-29.77-3.058-44.887-.296-1.002-.57-2.041-.821-3.117 11.568-17.365 21.704-38.454 21.704-62.186 0-25.539 7.894-34.524 23.683-26.955z" fill="url(#E)" fill-rule="nonzero" style="mix-blend-mode:multiply"/><path d="M1187.216 455.388c-5.798 15.638-9.354 25.494-10.668 29.568-3.21 9.952-4.857 29.178-10.048 75.544-2.03 18.127.84 44.822-1.359 65.034-3.426 31.487 9.998 42.38 7.888 47.587-2.888 7.127-33.711.578-49.136 16.748-4.968-9.621 16.107-22.869 19.607-87.869 1.14-21.166 4.071-36.725 8.794-46.677 8.488-17.887 11.475-37.89 8.583-57.477-1.972-13.356-1.254-23.512 2.152-30.469 9.782-19.978 24.982-19.236 26.734-19.837 1.902-.653 5.756-.669 5.737.96l-2.714 1.117c-2.58 1.062-4.6 3.154-5.57 5.771z" fill="url(#t)" fill-rule="nonzero"/><path d="M1177.137 483.185l-.401.337c-3.695 2.915-9.054 2.283-11.969-1.412l-.871-1.104c-.3-.38-.63-.737-.986-1.065-.841-.776-1.787-1.366-2.789-1.772.469-4.193 1.438-7.79 2.908-10.792.798-1.631 1.633-3.123 2.493-4.49.891.702 1.637 1.617 2.151 2.715.258.549.583 1.064.969 1.533 2.55 3.099 7.129 3.543 10.228.993l4.184-3.443c.31-.255.639-.487.984-.692-3.333 9.062-5.634 15.46-6.901 19.193zm-7.088 45.175c-2.015-.337-3.917-1.396-5.282-3.127l-.871-1.104c-.3-.38-.63-.737-.986-1.065-.445-.411-.92-.769-1.417-1.076.557-5.819.605-11.694.134-17.556 2.54.263 4.883 1.812 6.046 4.293.258.549.583 1.064.969 1.533.877 1.066 1.995 1.818 3.21 2.242-.55 4.622-1.141 9.873-1.803 15.86zm-4.173 41.037c-.398-.346-.77-.734-1.109-1.163l-.871-1.104c-.3-.38-.63-.737-.986-1.065-3.743-3.455-9.578-3.221-13.032.522-.262.284-.541.552-.835.802-.367.312-.75.591-1.147.838 1.235-5.026 2.701-9.327 4.398-12.904.785-1.654 1.523-3.327 2.213-5.015l1.771-1.359c.43-.33.895-.613 1.387-.843 3.654-1.713 7.984-.235 9.848 3.297-.322 2.911-.659 5.942-1.013 9.098-.311 2.782-.508 5.766-.624 8.897zm.064 43.055c-.422-.36-.816-.766-1.173-1.218l-.871-1.104c-.3-.38-.63-.737-.986-1.065-3.743-3.455-9.578-3.221-13.032.522-.262.284-.541.552-.835.802-1.832 1.557-4.08 2.304-6.309 2.277.307-3.391.565-6.943.766-10.665.079-1.474.167-2.921.264-4.341 2.345.573 4.919.117 6.983-1.467l5.531-4.244c.43-.33.895-.613 1.387-.843 2.818-1.321 6.04-.744 8.22 1.21.111 6.751.214 13.591.054 20.136zm.919 41.253c-.219.215-.429.443-.629.685-.383.463-.815.884-1.286 1.257-3.695 2.915-9.054 2.283-11.969-1.412l-.871-1.104c-.3-.38-.63-.737-.986-1.065-3.743-3.455-9.578-3.221-13.032.522-.262.284-.541.552-.835.802-.776.659-1.626 1.173-2.518 1.545 1.425-4.545 2.82-9.716 4.077-15.632l.145-.109 5.531-4.244c.43-.33.895-.613 1.387-.843 3.763-1.764 8.244-.144 10.008 3.62.258.549.583 1.064.969 1.533 1.977 2.402 5.174 3.209 7.954 2.262.362 4.697 1.126 8.722 2.055 12.185zm-43.282 29.982c1.666-.078 3.326-.648 4.749-1.74l5.678-4.357c.442-.339.919-.629 1.424-.866 3.501-1.641 7.607-.429 9.694 2.688-7.721 1.607-15.527 4.48-21.228 10.457-.941-1.822-.948-3.773-.317-6.182z" id="Shape" fill="url(#A)" fill-rule="nonzero"/><path d="M1124 684.325c19.318-14.013 33.255-19.712 41.811-17.096l-41.811 17.096z" id="Texture" stroke="#48C172" stroke-linecap="round" stroke-linejoin="round" stroke-dasharray="5,10"/><path d="M1186.138 448.789c-7.555 14.807-12.148 24.273-13.78 28.4-3.285 8.31-6.666 28.945-11.858 75.311-2.03 18.127.84 44.822-1.359 65.034-3.426 31.487 9.998 42.38 7.888 47.587" stroke="#5FCC89"/></g><g id="Hand" fill-rule="nonzero"><path d="M1141.585 583.146v-4.122h24.712v4.122c0 3.866-3.134 7-7 7h-10.712c-3.866 0-7-3.134-7-7z" fill="url(#y)"/><path d="M1138.575 581.138v-2.114h11.133v2.114c0 1.982-1.607 3.589-3.589 3.589h-3.954c-1.982 0-3.589-1.607-3.589-3.589z" id="Shadow" fill="url(#F)"/></g><g fill-rule="nonzero"><path id="Box-base" fill="url(#n)" d="M1121.304 499.983l56-9.889v89h-56z"/><path id="Box-base" fill="url(#c)" d="M1136.304 497.623l14-2.529v21.241l-14 .759z"/><path fill="url(#l)" d="M1249.304 499.983v79.111h-72v-89z"/></g><g><path d="M1214.822 573.029c32.363 3.001 40.726-3.584 45.09-19.757 6.545-24.259.629-69.636-2.626-84.431-3.255-14.795 17.662-14.795 30.31-2.546 12.649 12.249 25.705 108.082-15.421 127.862-16.88 8.119-35.99 9.274-57.328 3.465-3.457-.941-6.027-3.843-6.542-7.389-.379-2.61-.405-4.679-.076-6.205.815-3.785 3.012-7.451 6.593-10.999z" fill="url(#G)" fill-rule="nonzero"/><path d="M1280.344 461.091c12.649 12.334 32.064 113.779-9.062 133.697" stroke="#5FCC89"/><g fill-rule="nonzero"><path d="M1213.571 583.146v-4.122h-24.712v4.122c0 3.866 3.134 7 7 7h10.712c3.866 0 7-3.134 7-7z" fill="url(#y)"/><path d="M1213.581 581.138v-2.114h-11.133v2.114c0 1.982 1.607 3.589 3.589 3.589h3.954c1.982 0 3.589-1.607 3.589-3.589z" fill="url(#F)"/></g><path d="M1296.477 489.693c-1.304.533-2.5 1.386-3.461 2.547-.383.463-.815.884-1.286 1.257-3.695 2.915-9.054 2.283-11.969-1.412l-.871-1.104c-.3-.38-.63-.737-.986-1.065-3.743-3.455-9.578-3.221-13.032.522-.262.284-.541.552-.835.802-.936.795-1.981 1.379-3.076 1.757-.587-5.314-1.254-10.218-1.916-14.421 2.266.469 4.716-.012 6.696-1.532l5.531-4.244c.43-.33.895-.613 1.387-.843 3.763-1.764 8.244-.144 10.008 3.62.258.549.583 1.064.969 1.533 2.467 2.998 6.834 3.512 9.921 1.232 1.062 3.319 2.05 7.147 2.919 11.353zm3.477 42.466c-2.584-.035-5.161 1.058-6.937 3.204-.383.463-.815.884-1.286 1.257-3.695 2.915-9.054 2.283-11.969-1.412l-.871-1.104c-.3-.38-.63-.737-.986-1.065-3.743-3.455-9.578-3.221-13.032.522-.262.284-.541.552-.835.802-.463.393-.952.734-1.46 1.025.258-4.447.331-9.094.262-13.791 1.023-.271 2.01-.745 2.902-1.43l5.531-4.244c.43-.33.895-.613 1.387-.843 3.763-1.764 8.244-.144 10.008 3.62.258.549.583 1.064.969 1.533 2.55 3.099 7.129 3.543 10.228.993l4.184-3.443c.45-.371.94-.691 1.461-.955l.316-.151c.255 5.079.312 10.283.129 15.483zm-12.675 49.253c-2.789.269-5.653-.841-7.518-3.205l-.871-1.104c-.3-.38-.63-.737-.986-1.065-3.743-3.455-9.578-3.221-13.032.522-.262.284-.541.552-.835.802-4.027 3.422-10.065 2.932-13.488-1.095l-.825-.971c-.334-.393-.702-.757-1.1-1.086-1.133-.938-2.431-1.546-3.776-1.835 5.316-1.82 8.802-4.788 11.277-8.903 2.858 1.918 6.734 1.904 9.616-.307l5.531-4.244c.43-.33.895-.613 1.387-.843 3.763-1.764 8.244-.144 10.008 3.62.258.549.583 1.064.969 1.533 2.55 3.099 7.129 3.543 10.228.993l1.601-1.318c-1.974 6.863-4.658 13.165-8.186 18.505zm-49.674-7.411c-.518.397-.999.859-1.433 1.383-.369.446-.782.853-1.232 1.216-3.703 2.982-9.123 2.398-12.106-1.306l-.744-.924c6.131.318 11.237.195 15.515-.369zm-22.928 24.548c.232-.144.471-.275.717-.393 3.529-1.698 7.713-.456 9.779 2.755-3.385-.583-6.83-1.355-10.336-2.316l-.161-.046zm24.779 3.702l1.751-1.443c.451-.372.942-.693 1.464-.957 3.18-1.611 6.93-.884 9.294 1.539-4.063.623-8.233.91-12.509.861z" fill="url(#A)" fill-rule="nonzero" opacity=".5"/></g></g><g><path fill="url(#l)" fill-rule="nonzero" d="M382 207h163v183h-163z"/><g transform="translate(382 207) translate(13 12)"><mask id="I"><use xlink:href="#H"/></mask><use fill="url(#c)" fill-rule="nonzero" xlink:href="#H"/><g transform="translate(-8 17)" mask="url(#I)" fill-rule="nonzero"><circle fill="url(#l)" cx="120.5" cy="12.5" r="12.5"/><path d="M74 21.679c7 0 14 28.44 21 85.321h-42c7-56.88 14-85.321 21-85.321z" id="Rocket-base" fill="url(#d)"/><path d="M85.034 66.84c-3.818.605-7.824-4.654-8.947-11.745-1.123-7.091 1.062-13.33 4.88-13.935 3.818-.605 7.824 4.654 8.947 11.745 1.123 7.091-1.062 13.33-4.88 13.935z" id="Rocket-base" fill="#fff"/><path d="M70 57v46.168c-12.667 9.015-19 9.015-19 0s6.333-24.404 19-46.168zM89 87c12.667 9.428 19 16.095 19 20 0 3.905-6.333 3.905-19 0v-20z" fill="url(#n)"/><path d="M64.366 141.513c-2.459 3.328-6.41 5.487-10.866 5.487-4.025 0-7.638-1.761-10.111-4.555-1.783 2.742-4.874 4.555-8.389 4.555-3.373 0-6.355-1.67-8.166-4.227-1.36 1.375-3.247 2.227-5.334 2.227-2.218 0-4.211-.963-5.584-2.493-1.69 1.549-3.943 2.493-6.416 2.493-5.247 0-9.5-4.253-9.5-9.5s4.253-9.5 9.5-9.5c3.599 0 6.73 2.001 8.342 4.951 1.082-.606 2.33-.951 3.658-.951 1.887 0 3.61.697 4.928 1.847 1.75-2.904 4.934-4.847 8.572-4.847 2.17 0 4.178.691 5.817 1.865 1.891-5.173 6.856-8.865 12.683-8.865 2.06 0 4.012.461 5.759 1.287.997-4.179 4.756-7.287 9.241-7.287 3.807 0 7.091 2.24 8.607 5.473 1.688-1.536 3.931-2.473 6.393-2.473 3.537 0 6.623 1.933 8.258 4.801 1.984-1.146 4.286-1.801 6.742-1.801 5.827 0 10.792 3.692 12.683 8.865 1.639-1.174 3.647-1.865 5.817-1.865 3.638 0 6.822 1.942 8.572 4.847 1.318-1.15 3.042-1.847 4.928-1.847 1.649 0 3.174.532 4.412 1.434 1.524-3.213 4.797-5.434 8.588-5.434 5.247 0 9.5 4.253 9.5 9.5s-4.253 9.5-9.5 9.5c-2.753 0-5.233-1.171-6.968-3.042-1.366 1.846-3.559 3.042-6.032 3.042-2.087 0-3.974-.852-5.334-2.227-1.811 2.558-4.794 4.227-8.166 4.227-3.514 0-6.605-1.813-8.389-4.555-2.473 2.794-6.087 4.555-10.111 4.555-4.034 0-7.655-1.769-10.129-4.575-1.646 4.981-6.339 8.575-11.871 8.575-5.865 0-10.786-4.039-12.134-9.487z" fill="url(#J)"/></g></g></g><g fill-rule="nonzero"><path d="M587 272v57h48v-57h-48zm51-3v63h-54v-63h54z" fill="url(#K)"/><path fill="url(#c)" d="M605.5 197.5h51v60h-51zM649.5 290.5h47v50h-40.07l-6.93-6.227z"/></g></g></svg>