<svg viewBox="0 0 1440 1024" xmlns="http://www.w3.org/2000/svg"><title>PRODUCT SELLING@2x</title><desc>Created with Sketch.</desc><defs><linearGradient x1="50%" y1="14.066%" x2="50%" y2="100%" id="a"><stop stop-color="#E9F0FB" offset="0%"/><stop stop-color="#fff" offset="100%"/></linearGradient><linearGradient x1="50%" y1="0%" x2="50%" y2="50%" id="b"><stop stop-color="#E9F0FB" offset="0%"/><stop stop-color="#D9E5FF" offset="100%"/></linearGradient><linearGradient x1="60.731%" y1="0%" x2="50%" y2="100%" id="c"><stop stop-color="#fff" offset="0%"/><stop stop-color="#E5EEFF" offset="100%"/></linearGradient><linearGradient x1="50%" y1="-104.29%" x2="50%" y2="100%" id="d"><stop stop-color="#fff" offset="0%"/><stop stop-color="#B3CDEF" offset="100%"/></linearGradient><linearGradient x1="50%" y1="19.686%" x2="-33.812%" y2="294.476%" id="e"><stop stop-color="#F7FAFF" offset="0%"/><stop stop-color="#6B9AD9" offset="100%"/></linearGradient><linearGradient x1="45.815%" y1="15.16%" x2="75.941%" y2="70.686%" id="f"><stop stop-color="#F59BA9" offset="0%"/><stop stop-color="#F25267" offset="100%"/></linearGradient><linearGradient x1="157.42%" y1="-39.692%" x2="118.836%" y2="115.938%" id="g"><stop stop-color="#E5EDFF" offset="0%"/><stop stop-color="#6B9AD9" offset="100%"/></linearGradient><linearGradient x1="50%" y1="-104.29%" x2="50%" y2="72.907%" id="h"><stop stop-color="#fff" offset="0%"/><stop stop-color="#B3CDEF" offset="100%"/></linearGradient><linearGradient x1="50%" y1="-104.29%" x2="50%" y2="241.086%" id="i"><stop stop-color="#fff" offset="0%"/><stop stop-color="#B3CDEF" offset="100%"/></linearGradient><linearGradient x1="50%" y1="32.119%" x2="67.286%" y2="115.978%" id="j"><stop stop-color="#84F0A8" offset="0%"/><stop stop-color="#48B676" offset="100%"/></linearGradient><linearGradient x1="50%" y1="-10.877%" x2="54.648%" y2="65.47%" id="k"><stop stop-color="#E2A53A" offset="0%"/><stop stop-color="#FEB755" offset="100%"/></linearGradient><linearGradient x1="50%" y1="-10.877%" x2="50%" y2="100%" id="l"><stop stop-color="#FFE579" offset="0%"/><stop stop-color="#FEB755" offset="100%"/></linearGradient><linearGradient x1="-8.771%" y1="109.673%" x2="17.311%" y2="15.43%" id="m"><stop stop-color="#FAD0BA" offset="0%"/><stop stop-color="#F2A384" offset="100%"/></linearGradient><linearGradient x1="100%" y1="50%" x2="0%" y2="50%" id="n"><stop stop-color="#2865C6" offset="0%"/><stop stop-color="#10378A" offset="100%"/></linearGradient><linearGradient x1="50%" y1="27.773%" x2="55.228%" y2="103.623%" id="o"><stop stop-color="#1542AB" offset="0%"/><stop stop-color="#2B68EE" offset="100%"/></linearGradient><linearGradient x1="45.756%" y1="73.21%" x2="58.568%" y2="9.606%" id="p"><stop stop-color="#3485F7" offset="0%"/><stop stop-color="#1542AB" offset="100%"/></linearGradient><linearGradient x1="50%" y1="128.175%" x2="31.74%" y2="28.528%" id="q"><stop stop-color="#092871" offset="0%"/><stop stop-color="#1C4CB9" offset="100%"/></linearGradient><linearGradient x1="50%" y1="128.175%" x2="14.948%" y2="4.908%" id="r"><stop stop-color="#092871" offset="0%"/><stop stop-color="#1C4CB9" offset="100%"/></linearGradient><linearGradient x1="56.099%" y1="79.653%" x2="63.741%" y2="50%" id="s"><stop stop-color="#F5B79C" offset="0%"/><stop stop-color="#EC906C" offset="100%"/></linearGradient><linearGradient x1="-21.598%" y1="115.57%" x2="86.175%" y2="29.345%" id="t"><stop stop-color="#FAD0BA" offset="0%"/><stop stop-color="#F2A384" offset="100%"/></linearGradient><linearGradient x1="-46.418%" y1="139.414%" x2="56.099%" y2="0%" id="u"><stop stop-color="#F5B79C" offset="0%"/><stop stop-color="#EC906C" offset="100%"/></linearGradient><linearGradient x1="37.811%" y1="-27.088%" x2="31.523%" y2="118.262%" id="v"><stop stop-color="#FFE579" offset="0%"/><stop stop-color="#F79B1D" offset="100%"/></linearGradient><linearGradient x1="-58.736%" y1="-81.387%" x2="72.333%" y2="68.008%" id="w"><stop stop-color="#FFE579" offset="0%"/><stop stop-color="#F3B14F" offset="100%"/></linearGradient><linearGradient x1="79.383%" y1="-51.765%" x2="50%" y2="189.01%" id="x"><stop stop-color="#F7FAFF" offset="0%"/><stop stop-color="#6B9AD9" offset="100%"/></linearGradient><linearGradient x1="50%" y1="0%" x2="50%" y2="70.532%" id="y"><stop stop-color="#D8A590" offset="0%"/><stop stop-color="#B06C57" offset="100%"/></linearGradient><linearGradient x1="85.097%" y1="109.304%" x2="4.854%" y2="-47.176%" id="z"><stop stop-color="#032258" offset="0%"/><stop stop-color="#133E94" offset="100%"/></linearGradient><linearGradient x1="60.731%" y1="0%" x2="52.081%" y2="50%" id="A"><stop stop-color="#3485F7" offset="0%"/><stop stop-color="#1A57CF" offset="100%"/></linearGradient></defs><g fill="none"><g><path d="M.879 531.159c112.987-74.403 261.087-104.404 444.301-90.004 274.821 21.601 257.354 187.808 994.821 121.205v220.291h-1440l.879-251.492zM1604.167 531.159l.879 251.492h-1440v-220.291c737.466 66.603 720-99.604 994.821-121.205 183.214-14.401 331.314 15.601 444.301 90.004zM.879 531.159c112.987-74.403 261.087-104.404 444.301-90.004 274.821 21.601 257.354 187.808 994.821 121.205v251.782h-1440l.879-282.984z" fill="url(#a)"/><path d="M1440 531.203c-336.524 30.392-515.847 12.306-637.477-18.395 144.912-36.579 207.93-181.066 357.344-192.809 104.884-8.244 198.261 88.064 280.131 108.923 0-60 .001-25.906.003 102.282z" fill="url(#b)"/></g><g id="Shadow" transform="translate(246 806)" fill="#E2EBFC" opacity=".806"><ellipse cx="847" cy="21.487" rx="174" ry="20.765"/><ellipse cx="94" cy="21.232" rx="94" ry="18.232"/></g><g fill-rule="nonzero"><g id="Leaves-base"><path d="M1147.635 737.641c.079.49-.256.951-.748 1.03-.492.079-.954-.255-1.032-.745-18.652-116.478-10.746-200.456 23.801-251.947.277-.413.837-.524 1.251-.248.414.276.525.834.248 1.247-34.239 51.032-42.106 134.591-23.518 250.663z" fill="#D2DEF8"/><path d="M1103.477 667.562c-13.112-13.083-20-27.193-16.193-31.218 3.807-4.025 18.177 3.078 31.289 16.162 13.112 13.083 16.193 31.218 16.193 31.218s-18.177-3.078-31.289-16.162zM1103.332 622.148c-12.881-13.31-19.521-27.537-15.645-31.495 3.876-3.958 18.12 3.394 31.001 16.704s15.645 31.495 15.645 31.495-18.12-3.394-31.001-16.704zM1105.378 573.9c-9.824-15.692-13.353-30.988-8.737-34.056 4.616-3.068 17.015 7.079 26.838 22.771 9.824 15.692 8.737 34.056 8.737 34.056s-17.015-7.079-26.838-22.771zM1114.904 524.163c-6.654-17.249-7.222-32.904-2.126-35.024 5.096-2.12 15.316 10.192 21.969 27.441 6.654 17.249 2.126 35.024 2.126 35.024s-15.316-10.192-21.969-27.441zM1134.311 475.825c-3.518-18.1-1.379-33.581 3.953-34.782 5.332-1.201 13.174 12.665 16.692 30.765 3.518 18.1-3.953 34.782-3.953 34.782s-13.174-12.665-16.692-30.765zM1193.275 516.754c-16.666 8.113-34.815 5.199-34.815 5.199s8.871-16.068 25.536-24.181c16.666-8.113 32.55-10.2 34.815-5.199 2.265 5.001-8.871 16.068-25.536 24.181zM1185.651 558.2c-16.666 8.113-34.815 5.199-34.815 5.199s8.871-16.068 25.536-24.181c16.666-8.113 32.55-10.2 34.815-5.199 2.265 5.001-8.871 16.068-25.536 24.181zM1179.665 598.044c-15.199 10.647-33.6 10.594-33.6 10.594s6.241-17.315 21.44-27.962c15.199-10.647 30.574-15.198 33.6-10.594 3.026 4.604-6.241 17.315-21.44 27.962zM1177.247 639.014c-14.793 11.142-33.151 11.732-33.151 11.732s5.625-17.475 20.418-28.618c14.793-11.142 29.972-16.215 33.151-11.732 3.178 4.483-5.625 17.475-20.418 28.618zM1180.742 680.909c-13.16 13.033-31.328 16.175-31.328 16.175s3.169-17.99 16.33-31.024c13.16-13.033 27.547-20.145 31.328-16.175 3.781 3.97-3.169 17.99-16.33 31.024zM1202.459 462.998c-12.117 13.965-29.906 18.35-29.906 18.35s1.857-18.256 13.975-32.22c12.117-13.965 25.874-22.074 29.906-18.35 4.033 3.724-1.857 18.256-13.975 32.22z" fill="url(#c)"/></g><g><path d="M1154.294 737.751c-.067.429-.47.723-.901.656-.43-.067-.724-.47-.657-.9 15.987-102.032 45.267-169.823 87.91-203.361.342-.269.837-.21 1.107.132.269.342.211.836-.131 1.105-42.263 33.24-71.397 100.692-87.328 202.368z" fill="#8FAFDA"/><path d="M1136.367 667.102c-7.359-14.442-9.302-28.04-5.087-30.347 4.215-2.306 14.203 7.51 21.561 21.952 7.359 14.442 5.087 30.347 5.087 30.347s-14.203-7.51-21.561-21.952zM1148.528 629.44c-7.099-14.572-8.799-28.203-4.544-30.433 4.256-2.23 14.066 7.763 21.166 22.335 7.099 14.572 4.544 30.433 4.544 30.433s-14.066-7.763-21.166-22.335zM1163.348 589.671c-3.923-15.739-2.755-29.435 1.874-30.735 4.629-1.299 12.156 10.521 16.079 26.26s-1.874 30.735-1.874 30.735-12.156-10.521-16.079-26.26zM1184.719 551.037c-.851-16.172 2.911-29.371 7.707-29.762 4.797-.391 9.938 12.629 10.789 28.801.851 16.172-7.707 29.762-7.707 29.762s-9.938-12.629-10.789-28.801zM1214.043 516.222c1.974-16.072 7.973-28.418 12.766-27.971 4.792.447 7.592 14.16 5.618 30.232-1.974 16.072-12.766 27.971-12.766 27.971s-7.592-14.16-5.618-30.232zM1251.93 566.128c-16.056 2.248-30.363-5.09-30.363-5.09s11.726-10.982 27.782-13.229c16.056-2.248 29.832.312 30.363 5.09.53 4.778-11.726 10.982-27.782 13.229zM1234.411 598.403c-16.056 2.248-30.363-5.09-30.363-5.09s11.726-10.982 27.782-13.229c16.056-2.248 29.832.312 30.363 5.09.53 4.778-11.726 10.982-27.782 13.229zM1218.773 630.053c-15.505 4.729-30.784-.284-30.784-.284s9.861-12.679 25.366-17.408c15.505-4.729 29.512-4.353 30.784.284 1.272 4.636-9.861 12.679-25.366 17.408zM1205.741 663.443c-15.33 5.266-30.774.789-30.774.789s9.411-13.015 24.742-18.282c15.33-5.266 29.341-5.379 30.774-.789 1.433 4.589-9.411 13.015-24.742 18.282zM1197.009 699.498c-14.446 7.346-30.362 5.059-30.362 5.059s7.505-14.198 21.951-21.544c14.446-7.346 28.304-9.405 30.362-5.059 2.059 4.346-7.505 14.198-21.951 21.544zM1274.282 523.601c-13.897 8.335-29.934 7.162-29.934 7.162s6.495-14.687 20.392-23.022c13.897-8.335 27.577-11.354 29.934-7.162 2.357 4.192-6.495 14.687-20.392 23.022z" fill="url(#d)"/></g></g><g id="Item"><path d="M732.429 404.947l164.576-98.887c1.894-1.138 4.351-.525 5.489 1.369l73.135 121.718c1.138 1.894.525 4.351-1.369 5.489l-164.576 98.887c-1.894 1.138-4.351.525-5.489-1.369l-73.135-121.718c-1.138-1.894-.525-4.351 1.369-5.489z" id="Item-base" fill="url(#e)"/><path d="M776.851 410.922l104.574-62.835c.947-.569 2.176-.263 2.744.684l46.353 77.145c.569.947.263 2.176-.684 2.744l-104.574 62.835c-.947.569-2.176.263-2.744-.684l-46.353-77.145c-.569-.947-.263-2.176.684-2.744z" id="Item-base" fill="url(#d)" fill-rule="nonzero"/><path d="M869.826 447.221c-10.888 6.542-25.018 3.019-31.561-7.869-6.542-10.888-3.019-25.018 7.869-31.561 10.888-6.542 25.018-3.019 31.561 7.869 6.542 10.888 3.019 25.018-7.869 31.561z" id="Item-base" fill="url(#f)" fill-rule="nonzero"/><path d="M852.373 422.185l12.074-.662c1.103-.06 2.046.785 2.107 1.887.022.401-.077.8-.285 1.144l-6.253 10.35c-.571.945-1.801 1.249-2.746.678-.279-.168-.512-.403-.68-.682l-5.821-9.688c-.569-.947-.263-2.176.684-2.744.279-.168.595-.265.921-.283z" id="Item-base" fill="#fff" fill-rule="nonzero"/><path d="M776.851 410.922l104.574-62.835c.947-.569 2.176-.263 2.744.684l5.665 9.429-108.003 64.895-5.665-9.429c-.569-.947-.263-2.176.684-2.744z" id="Item-base" fill="url(#g)" fill-rule="nonzero"/><path d="M786.629 415.546c-.947.569-2.176.263-2.744-.684-.569-.947-.263-2.176.684-2.744.947-.569 2.176-.263 2.744.684.569.947.263 2.176-.684 2.744zM792.629 411.941c-.947.569-2.176.263-2.744-.684-.569-.947-.263-2.176.684-2.744.947-.569 2.176-.263 2.744.684.569.947.263 2.176-.684 2.744z" id="Item-base" fill="#F2F5FF" fill-rule="nonzero"/></g><g id="Item"><path d="M517.366 291.974l157.277 110.127c1.81 1.267 2.249 3.761.982 5.571l-81.448 116.32c-1.267 1.81-3.761 2.249-5.571.982l-157.277-110.127c-1.81-1.267-2.249-3.761-.982-5.571l81.448-116.32c1.267-1.81 3.761-2.249 5.571-.982z" id="Item-base" fill="url(#e)"/><path d="M538.573 356.132l73.724 51.622c.905.634 1.125 1.881.491 2.785l-36.827 52.594c-.634.905-1.881 1.125-2.785.491l-73.724-51.622c-.905-.634-1.125-1.881-.491-2.785l36.827-52.594c.634-.905 1.881-1.125 2.785-.491z" id="Item-base" fill="url(#h)" fill-rule="nonzero"/><path id="Item-base" fill="url(#i)" fill-rule="nonzero" d="M536.935 354.985l77 53.916-60.222 4.362z"/></g><g id="Item"><path d="M881.294 396.409l-161.025 104.571c-1.853 1.203-4.33.677-5.533-1.176l-77.339-119.091c-1.203-1.853-.677-4.33 1.176-5.533l161.025-104.571c1.853-1.203 4.33-.677 5.533 1.176l77.339 119.091c1.203 1.853.677 4.33-1.176 5.533z" id="Item-base" fill="url(#e)"/><path d="M816.191 389.8l-75.48 49.018c-.926.602-2.165.338-2.767-.588l-34.969-53.848c-.602-.926-.338-2.165.588-2.767l75.48-49.018c.926-.602 2.165-.338 2.767.588l34.969 53.848c.602.926.338 2.165-.588 2.767z" id="Item-base" fill="url(#g)" fill-rule="nonzero"/><path id="Item-base" fill="url(#j)" fill-rule="nonzero" d="M817.869 388.711l-78.835 51.196 18.516-57.471z"/></g><g id="Item"><path d="M645.385 293.347l175.401 78.093c2.018.899 2.926 3.263 2.027 5.281l-57.757 129.723c-.899 2.018-3.263 2.926-5.281 2.027l-175.401-78.093c-2.018-.899-2.926-3.263-2.027-5.281l57.757-129.723c.899-2.018 3.263-2.926 5.281-2.027z" id="Item-base" fill="url(#e)"/><path d="M668.362 348.366c.348-1.039 1.466-1.604 2.509-1.269l19.792 6.361c.988.317 1.569 1.338 1.338 2.349l-1.24 5.432c-.205.899.231 1.822 1.057 2.234l67.144 33.517.038.019c.978.514 1.353 1.723.839 2.701l-29.349 55.807c-.489.931-1.616 1.323-2.578.899l-81.72-36.084c-.945-.417-1.416-1.485-1.089-2.464l23.258-69.502z" id="Item-base" fill="url(#k)" fill-rule="nonzero"/><path d="M646.268 417.347l27.864-48.346c.516-.895 1.629-1.25 2.568-.819l92.458 42.463c1.004.461 1.444 1.648.983 2.652-.088.192-.207.369-.35.525l-39.687 42.837c-.587.634-1.515.819-2.3.459l-80.635-36.954c-1.004-.46-1.445-1.647-.985-2.651l.085-.165z" fill="url(#l)" fill-rule="nonzero"/></g><g><g id="Foot"><path d="M353.712 785l23.288 1.667-2.513 17.36c-3.5 2.132-7.493 3.198-11.978 3.198-4.485 0-8.254-2.114-11.306-6.342l2.508-15.883z" id="leg" fill="url(#m)" fill-rule="nonzero"/><path d="M351.081 799c1.903 0 3.621 6.299 11.902 6.299 8.28 0 10.79-5.872 11.988-5.146 3.502 2.123 8.67 3.358 14.301 5.945 13.853 6.363 15.182 7.238 12.742 15.349-.056 1.188-18.462 1.219-49.009.091-1.445-.053-2.664-1.17-2.941-2.693-.676-3.717-.998-6.484-.968-8.3.083-4.989.083-11.543 1.986-11.543z" id="Shoes" fill="url(#n)" fill-rule="nonzero"/><path d="M355.116 529.671c24.568 60.18 42.421 126.373 42.423 151.784.001 25.411-8.822 66.584-20.75 113.232-6.192 3.529-21.179.619-24.153-2.911-3.337-3.961 8.062-90.845 6.233-108.635-1.829-17.791-51.959-99.078-51.959-102.021 0-2.942 1.912-18.174 5.736-45.696l42.47-5.753z" id="Pants" fill="url(#o)" fill-rule="nonzero"/><path d="M281.043 795l23.288 1.667-2.513 17.36c-3.5 2.132-7.493 3.198-11.978 3.198-4.485 0-8.254-2.114-11.306-6.342l2.508-15.883z" id="leg" fill="url(#m)" fill-rule="nonzero"/><path d="M278.412 809c1.903 0 3.621 6.299 11.902 6.299 8.28 0 10.79-5.872 11.988-5.146 3.502 2.123 8.67 3.358 14.301 5.945 13.853 6.363 15.182 7.238 12.742 15.349-.056 1.188-18.462 1.219-49.009.091-1.445-.053-2.664-1.17-2.941-2.693-.676-3.717-.998-6.484-.968-8.3.083-4.989.083-11.543 1.986-11.543z" id="Shoes" fill="url(#n)" fill-rule="nonzero"/><path d="M355.208 529.162c-.945 17.95-7.184 31.808-18.716 41.573-9.81 8.307 1.974 47.62-10.335 116.951-12.309 69.33-18.375 107.319-20.912 114.138-2.537 6.819-23.649 7.407-25.448-2.028-1.799-9.435 6.75-52.487 7.951-116.245-14.026-65.345-23.538-115.05-22.436-117.778 1.102-2.728-1.866-19.139 11.989-43.224l77.907 6.614z" id="Pants" fill="url(#p)" fill-rule="nonzero"/><path d="M288.344 787.302c13.538-58.953 18.051-97.223 13.538-114.81-6.769-26.38-23.253-108.029-23.253-121.118" id="Texture" stroke="#3485F7" stroke-linecap="round" stroke-linejoin="round" stroke-dasharray="5,10"/></g><g id="Head" transform="matrix(-1 0 0 1 345.688 276.389)"><path d="M74.857 30.512c12.301-1.04 19.306 3.651 21.013 14.071 2.561 15.631-10.261 47.685 9.467 60.68 19.728 12.995 27.115 39.457 2.749 53.322-16.244 9.244-35.46 3.889-57.647-16.064l-3.649-61.463 8.201-16.706 19.866-33.841z" id="Hair" fill="url(#q)"/><circle fill="url(#l)" fill-rule="nonzero" cx="78.5" cy="33.5" r="6.5"/><path d="M8.996 52.194c-5.853-7.267-8.78-15.418-8.78-24.452 0-13.551 28.455-38.459 59.611-20.929 31.155 17.53 29.882 46.777-1.042 78.036-20.616 20.839-29.223 11.761-25.82-27.234l-23.968-5.421z" id="Hair" fill="url(#r)"/><path d="M57.587 99.748c-21.494 18.261-36.507 27.749-42.594 24.598-6.091-3.153-6.091-10.596 2.552-19.168 4.018-.175 7.358-1.985 10.02-5.43 2.78-3.598 2.05-13.613-2.189-30.044 21.383-18.29 31.299-24.329 29.75-18.117-2.324 9.318-.465 1.035-.93 14.494-.304 8.815.826 19.803 3.392 32.962v.705z" fill="url(#s)"/><path d="M8.786 58.391l-1.64-14.849c-2.603-6.133 3.046-12.726 5.58-11.558 9.971 4.597 24.111 3.031 32.636-4.699-1.442 10.58-1.442 16.774 6.199 19.035 2.903-2.998 10.615-4.506 11.016 6.277.267 7.189-2.57 10.342-8.512 9.46l-1.534 12.231c-6.556 8.447-13.537 13.838-20.941 16.173-5.995 1.891-9.958 2.013-11.889.367-3.43-2.923-7.008-11.468-10.081-23.688-1.952-.535-3.691-1.07-3.691-3.489 0-.893 1.739-1.595 2.855-5.261z" id="Face" fill="url(#t)"/><path d="M7.147 43.542c-2.003-4.718.878-9.708 3.468-11.228-.067 1.591-.845 4.156-.052 8.077.942 4.657 2.801 4.523 2.514 7.823-.434 4.984-1.286 8.559-4.523 10.448l.232-.272-1.64-14.849z" id="Path" fill="url(#u)"/></g><g id="Hand" fill-rule="nonzero"><path d="M463.41 370.478l-9.155-7.008 12.985-10.925c1.062-7.924 2.36-12.747 3.896-14.469 1.546-1.734 10.179-3.383 12.003-2.845.2.059-4.34 5.715-5.018 7.525-.163.434.5.706.784.57 2.637-1.268 7.726-5.334 9.42-3.786 1.694 1.548-3.486 4.845-4.16 8.891-.57 3.424-3.778 7.032-9.622 10.823l-11.131 11.224z" fill="#F2A384"/><path d="M328.579 381.975c12.988 1.879 24.301 3.906 33.937 6.083 9.086 2.053 21.258 6.434 33.321 4.827 23.57-3.141 61.149-39.007 66.623-39.007 2.209 0 5.08 2.958 8.613 8.874.664 1.112.539 2.525-.31 3.504-26.214 30.218-43.346 48.025-51.397 53.422-8.194 5.492-32.332 11.962-72.414 19.411 2.14-7.454 2.14-14.498 0-21.133-1.426-4.42-7.55-16.414-18.372-35.981z" id="Sleeve" fill="url(#l)"/><path d="M343.982 411.058c-1.229-2.556-2.803-5.667-4.721-9.332.289-5.541 4.873-9.945 10.486-9.945 5.799 0 10.5 4.701 10.5 10.5s-4.701 10.5-10.5 10.5c-2.129 0-4.11-.634-5.765-1.723zm39.22 20.564c-2.167-1.923-3.532-4.73-3.532-7.855 0-5.799 4.701-10.5 10.5-10.5s10.5 4.701 10.5 10.5c0 1.229-.211 2.408-.599 3.504-4.84 1.402-10.463 2.853-16.869 4.351zm69.899-45.357c-3.684-1.631-6.253-5.318-6.253-9.606 0-5.799 4.701-10.5 10.5-10.5 3.839 0 7.197 2.06 9.028 5.136-4.748 5.431-9.173 10.421-13.275 14.97zm-52.108 5.498c5.845-1.708 12.263-4.905 18.689-8.745 1.25 1.728 1.988 3.852 1.988 6.149 0 5.799-4.701 10.5-10.5 10.5-4.903 0-9.021-3.36-10.176-7.903z" id="Texture" fill="url(#v)"/></g><g id="Body" fill-rule="nonzero"><path d="M327.901 381.465c8.267 3.432 15.285 9.312 20.111 16.85l.501.783c5.083 7.939 7.039 17.481 5.492 26.78-5.338 32.07-8.008 50.361-8.007 54.874 0 5.15 3.141 21.377 9.422 48.682-3.579.403-9.325 1.493-17.24 3.269-23.295 5.226-49.763 3.635-61.174-7.49-7.862-7.666-17.038-17.608-27.778-41.429-10.182-48.798 3.072-81.388 8.4-87.592 5.328-6.204 5.318-9.49 31.329-20.034 21.52 18.289 35.326 25.858 41.417 22.705 6.091-3.153 3.456-7.45-2.473-17.397z" fill="url(#l)"/><path d="M277.005 525.212c-2.624-2.558-5.393-5.37-8.319-8.866l4.678-32.038 6.761-69.374c4.659 19.994 19.275 23.689 14.225 36.385-7.575 19.044 26.349 22.916 20.424 41.718-5.925 18.802 19.043 18.802 16.882 36.175-.229 1.845-.784 3.52-1.662 5.027-21.033 3.195-42.899.812-52.99-9.026z" id="Texture" fill="url(#w)" opacity=".4"/><path d="M251.584 461.368c0 3.646-1.858 6.858-4.679 8.74-.841-6.44-1.274-12.536-1.388-18.261 3.583 1.671 6.067 5.306 6.067 9.521zm7.77 40.632c5.799 0 10.5 4.701 10.5 10.5 0 1.492-.311 2.912-.872 4.197-3.256-3.854-6.706-8.545-10.362-14.672.243-.017.488-.025.734-.025zm29.494 22.718c0-5.799 4.701-10.5 10.5-10.5s10.5 4.701 10.5 10.5c0 4.964-3.444 9.123-8.074 10.218-2.878-.347-5.644-.84-8.256-1.484-2.816-1.883-4.67-5.092-4.67-8.734zm61.817-16.631c-1.053.355-2.181.547-3.354.547-5.799 0-10.5-4.701-10.5-10.5 0-5.604 4.391-10.183 9.92-10.484.745 4.814 2.056 11.626 3.934 20.437zm-2.489-45.645c-1.25.525-2.623.816-4.064.816-5.799 0-10.5-4.701-10.5-10.5s4.701-10.5 10.5-10.5c2.595 0 4.97.941 6.803 2.501-1.096 6.84-2.009 12.734-2.738 17.683zm-82.566-34.946c-5.799 0-10.5-4.701-10.5-10.5s4.701-10.5 10.5-10.5 10.5 4.701 10.5 10.5-4.701 10.5-10.5 10.5zm35.482 53.504c-5.799 0-10.5-4.701-10.5-10.5s4.701-10.5 10.5-10.5 10.5 4.701 10.5 10.5-4.701 10.5-10.5 10.5zm10.5-49.125c-5.799 0-10.5-4.701-10.5-10.5s4.701-10.5 10.5-10.5 10.5 4.701 10.5 10.5-4.701 10.5-10.5 10.5z" id="Texture" fill="url(#v)"/></g><g id="Hand" fill-rule="nonzero"><path d="M294.613 543.535l7.323-8.905 10.465 13.358c7.149 1.367 11.127 2.912 11.934 4.633 1.21 2.582-1.902 2.189.599 4.581 1.679 1.605 4.531 4.121 3.93 5.925-.229.686-3.182.768-3.628 1.394-2.193 3.077-6.638 5.126-9.662 3.236-3.505-2.19-6.882-6.426-10.132-12.707l-10.829-11.516z" fill="#F2A384"/><path d="M290.007 428.128c-7.94 20.789-12.749 36.009-14.428 45.659-1.678 9.65 8.239 30.116 29.752 61.399-1.137 11.251-5.522 14.442-13.154 9.572-11.448-7.305-29.984-8.512-50.445-66.665-11.155-31.704 8.261-80.334 23.909-90.503 13.054-8.483 22.197-6.663 24.366 0 6.121 18.8 6.121 32.313 0 40.539z" id="Sleeve" fill="url(#l)"/><path d="M239.955 471.808c-1.429-6.515-1.794-13.531-1.345-20.647.793-.192 1.622-.293 2.474-.293 5.799 0 10.5 4.701 10.5 10.5s-4.701 10.5-10.5 10.5c-.381 0-.758-.02-1.129-.06zm12.665 32.635c1.823-1.525 4.171-2.443 6.733-2.443 5.799 0 10.5 4.701 10.5 10.5 0 4.423-2.735 8.207-6.606 9.754-3.421-4.627-6.974-10.428-10.627-17.811zm12.99-76.947c-5.799 0-10.5-4.701-10.5-10.5s4.701-10.5 10.5-10.5 10.5 4.701 10.5 10.5-4.701 10.5-10.5 10.5z" id="Texture" fill="#FEC644"/></g></g><g id="Shadow" fill="#E2EBFC" opacity=".6"><path style="mix-blend-mode:multiply" d="M620 789l69 22 353-21-73-21.5zM620 789l-32.518 22-166.359-21 34.403-21.5z"/></g><g fill-rule="nonzero"><path id="Box-base" fill="url(#g)" d="M456 440l164-30v379l-164-21z"/><path id="Path" fill="#E2EBFC" opacity=".6" style="mix-blend-mode:multiply" d="M456 440l164-30-20 178h-144z"/><path id="Box-base" fill="url(#g)" d="M456 440l164-30-40 168h-164z"/><path id="Box-base" fill="url(#x)" d="M620 410l350 30v329l-350 20z"/><path d="M620.47 454.839c34.88 26.636 50.694 66.986 47.44 121.049-4.88 81.095 127.635 2.021 118.254 64.788-9.381 62.767 111.988 28.989 103.013 67.657-8.975 38.668 79.263 9.379 79.263 60.664l-348.658 19.988.688-334.146z" id="Box-base" fill="url(#g)" opacity=".2"/><path id="Box-base" fill="#79A4DD" d="M646 720.282l33.22.459v33.615l-33.22 1.898zM694.029 720.282l98.255 1.358v8.424l-98.255-.385zM694.029 736.69l49.769-.325v8.424l-49.769 1.298z"/><path fill="#E2EBFC" opacity=".6" style="mix-blend-mode:multiply" d="M970 440v149h-340l-10-179z"/><path fill="url(#x)" d="M620 410l350 30 40 129h-350z"/></g><g><g fill-rule="nonzero"><path d="M1058.566 321.825c2.443 14.107 5.535 22.481 7.338 25.993 2.704 5.268 32.465 13.918 8.287 24.721-16.119 7.202-34.347-.088-56.575-26.885 4.979-4.505 8.85-10.15 9.17-16.278.321-6.129-.652-11.444-2.919-15.945-12.26-25.85-17.221-41.233-14.886-46.149 2.336-4.916 13.926-12.894 34.77-23.932 20.636 9.808 40.814 11.293 40.471 17.847l-1.781 19.822c6.619 14.556-3 34.413-6.67 38.573-3.67 4.16-11.671 2.234-17.206 2.234z" fill="url(#y)"/><g fill="url(#z)"><path d="M1074.178 287.006l-4.022.209c-.713 3.355-3.014 6.306-6.32 7.587-5.361 2.077-11.15-1.242-12.756-7.005-1.527-5.478 1.19-11.126 6.289-12.677 5.391-1.639 11.1 1.634 12.629 7.043.19.674.309 1.356.361 2.036l3.285-.171c-.204-4.576 2.402-8.797 6.701-10.104 5.391-1.639 11.1 1.634 12.629 7.043 1.45 5.13-1.244 10.733-6.162 12.639-5.234 2.028-10.876-1.088-12.635-6.6zm-12.264 4.937c3.475-1.346 5.534-5.628 4.456-9.439-.999-3.532-4.261-5.403-7.408-4.446-3.44 1.046-5.477 5.282-4.33 9.401 1.068 3.834 4.25 5.658 7.282 4.484zm22.977-1.196c3.475-1.346 5.534-5.628 4.456-9.439-.999-3.532-4.261-5.403-7.408-4.446-3.44 1.046-5.477 5.282-4.33 9.401 1.068 3.834 4.25 5.658 7.282 4.484zM1036.541 282.282l14.996-.361.155 5.998-14.995-2.64z"/></g><path d="M1088.883 249.322c0 17.676-15.022 25.608-45.065 23.796-2.858 11.052-4.327 16.861-4.407 17.428-.569 4.032-4.426-14.77-10.091-11.569-5.665 3.202-6.173 16.797 2.967 20.923-2.094 7.208-4.049 10.29-7.831 14.999-8.152-1.124-15.272-11.09-21.454-28.293s-5.723-19.774 1.377-28.86c-2.054-6.76-.91-13.264 3.432-19.51 3.299-4.745 19.491-13.381 35.974-10.104 35.078 6.974 45.099-5.325 45.099 21.189z" fill="url(#z)"/></g><g><path d="M1156.835 748.344l9.154 19.636c-1.575 5.982-4.995 10.201-10.263 12.657-5.267 2.456-9.885 3.085-13.853 1.887l-11.475-19.47 26.437-14.711z" id="leg" fill="url(#m)" fill-rule="nonzero"/><path d="M1138.525 776.475c2.235-1.042 7.702 5.414 17.427.879 9.724-4.535 7.491-11.89 9.296-11.692 3.517.384 8.56 1.07 15.13 2.057 20.328-2.989 31.017-.862 32.068 6.379.585 1.426-22.827 12.387-59.319 27.792-1.726.729-3.769.085-4.929-1.553-2.829-3.996-4.723-7.068-5.683-9.218-2.635-5.904-6.224-13.602-3.989-14.644z" id="Shoes" fill="url(#n)" fill-rule="nonzero"/><path d="M1066.334 477.871c15.561 22.725 45.534 71.71 62.592 159.919 17.058 88.209 36.277 113.518 36.343 119.706.099 9.282-29.887 22.766-36.343 12.348-4.304-6.945-21.28-35.055-49.01-111.552-46.578-71.432-68.876-122.636-68.812-126.389.064-3.753 2.834-23.139 8.309-58.159 15.719-19.973 31.359-18.597 46.921 4.127z" id="Pants" fill="url(#o)" fill-rule="nonzero"/><path d="M1061.935 553.246c38.247 92.953 65.311 161.691 81.194 206.214" id="Texture" stroke="#5F90CC" stroke-linecap="round" stroke-linejoin="round" stroke-dasharray="5,10"/><path d="M1013.19 779.421l-3.391 21.398c-4.65 4.079-9.846 5.664-15.586 4.755-5.74-.909-9.92-2.97-12.54-6.182l1.374-22.558 30.144 2.587z" fill="url(#m)" fill-rule="nonzero"/><path d="M982.28 792.505c2.436.386 3.358 8.795 13.956 10.474 10.598 1.678 12.859-5.668 14.245-4.495 2.701 2.285 6.498 5.673 11.393 10.165 18.524 8.89 24.126 11.352 23.126 19.853-.2.964-28.748-.044-28.495 0 9.999 1.722-22.296-4.005-36.332-6.762-1.838-.361-3.172-2.037-3.218-4.043-.111-4.895.037-8.501.443-10.819 1.117-6.368 2.446-14.757 4.882-14.371z" fill="url(#n)" fill-rule="nonzero"/><path d="M1079.573 507.928c2.675 52.786-6.257 107.311-26.797 163.575-30.81 84.395-32.154 111.581-35.284 116.919-4.696 8.007-39.644 8.779-39.812-3.476-.112-8.17 10.986-49.599 21.556-126.767s-3.946-117.983 0-137.871c3.946-19.888 17.514-49.37 40.703-88.448l39.635 76.068z" fill="url(#A)" fill-rule="nonzero"/><path d="M1037.307 546.418c-1.684 42.729-5.58 79.627-11.687 110.695-6.107 31.068-15.85 73.452-29.226 127.152" id="Texture" stroke="#5F90CC" stroke-linecap="round" stroke-linejoin="round" stroke-dasharray="5,10"/></g><g fill-rule="nonzero"><path d="M1062.315 339.727l20.685 16.273c20 27 11.51 115.696 10.132 169.368-22.507 22.736-38.347 26.06-87.522 9.973 2.905-16.152 1.315-41.104-4.771-74.858-9.939-50.551-20.732-88.033-14.339-95.483 5.693-6.635 16.265-12.185 30.852-21.526 1.196-.766 2.587-3.255 4.173-7.465 2.485-.907 3.819-1.291 4-1.151.439.338-1.792 2.946-1.525 3.15 17.499 13.333 29.375 18.426 36.631 16.238 4.594-1.385 6.136 15.912 8.742 14.562 1.871-.969-.729-16.394 0-17.767.157-.297-3.223-1.522-4.199-2.877-.788-1.094-1.74-3.906-2.858-8.437z" fill="url(#j)"/><path id="Texture" fill="#7BE8A1" d="M1024.609 349.27l4.915.918-2.469 13.223-9.549-4.129-2.578 10.857-9.996-3.697-1.818 8.121-4.879-1.092 3.067-13.702 10.066 3.723 2.651-11.165 9.271 4.008zM1080.781 380.589l4.715-1.663 4.474 12.686-10.334 1.199 3.196 10.692-10.506 1.797 2.486 7.941-4.772 1.494-4.195-13.4 10.579-1.809-3.286-10.995 10.033-1.164zM1036.002 389.58l-4.33-2.5 5.999-10.391 10.391 5.999-2.5 4.33-6.061-3.499z"/></g><g fill-rule="nonzero"><path d="M931 403h192c2.209 0 4 1.791 4 4v142c0 2.209-1.791 4-4 4h-192c-2.209 0-4-1.791-4-4v-142c0-2.209 1.791-4 4-4z" fill="#F2F5FF"/><path d="M966 431h122c1.105 0 2 .895 2 2v90c0 1.105-.895 2-2 2h-122c-1.105 0-2-.895-2-2v-90c0-1.105.895-2 2-2z" fill="url(#d)"/><path fill="#fff" d="M980 489h10v18h-10z"/><path fill="#fff" d="M993 479h10v28h-10z"/><path fill="#fff" d="M1022 479h10v28h-10z"/><path fill="#fff" d="M1008 469h10v38h-10z"/><path d="M1061.5 507c-9.665 0-17.5-7.835-17.5-17.5s7.835-17.5 17.5-17.5 17.5 7.835 17.5 17.5-7.835 17.5-17.5 17.5z" fill="#fff"/><path d="M1061.5 489.5v-17.5c9.665 0 17.5 7.835 17.5 17.5h-17.5z" fill="url(#i)"/><path d="M966 431h122c1.105 0 2 .895 2 2v11h-126v-11c0-1.105.895-2 2-2z" fill="url(#g)"/><path d="M972 440c-1.105 0-2-.895-2-2s.895-2 2-2 2 .895 2 2-.895 2-2 2z" fill="#F2F5FF"/><path d="M979 440c-1.105 0-2-.895-2-2s.895-2 2-2 2 .895 2 2-.895 2-2 2z" fill="#F2F5FF"/></g><g fill-rule="nonzero"><path d="M1027.746 489.584c-10.902-.572-45.094-69.196-43.981-90.461 1.113-21.265 3.05-33.434 13.952-32.862 10.902.572 27.803 8.942 26.69 30.207-.639 12.217-2.459 36.067-1.267 58.75.882 16.798 9.244 34.61 4.605 34.366z" fill="#95AFF5" opacity=".5"/><path d="M1052.653 541.134c-6.689-1.467-36.01-22.177-58.694-47.919-5.835-6.622 24.067-24.959 29.024-16.358 7.514 13.04 20.902 30.609 40.164 52.705 2.47.832 5.151 1.783 8.043 2.852 8.852-.748 13.875-.684 15.07.192 1.195.876-.7 2.932-5.685 6.166 11.411 4.227 17.414 7.015 18.009 8.363.595 1.348-3.237 1.405-11.495.169 8.383 4.828 12.208 7.742 11.475 8.743-.733 1.001-5.59.405-14.571-1.789 6.093 5.251 8.623 8.118 7.59 8.601-1.033.482-5.448-1-13.245-4.448 2.357 5.292 2.981 7.963 1.871 8.013-1.11.05-6.351-5.876-15.723-17.777l-9.774-6.434-1.066-.911c-.323-.038-.653-.094-.991-.168z" fill="#B06C57"/><path d="M1023.973 400.681c-8.286 31.211-7.61 38.653-8.194 56.282-.099 2.976.845 6.756 2.83 11.339.076.176.337.263.781.262 1.881-.008 3.657.867 4.798 2.363 1.217 1.597 2.197 3.022 2.94 4.273 7.674 12.938-20.214 34.288-37.995 21.094-1.178-.874-2.262-3.013-3.255-6.417-.469-1.61-.243-3.344.623-4.78.196-.324.233-.565.111-.721-3.019-3.87-5.83-7.813-8.343-11.784-21.792-34.438-5.319-104.692 13.361-111.599 16.589-6.134 40.631 8.478 32.345 39.689z" fill="url(#j)"/><path id="Texture" fill="#6AD792" d="M981.922 393.291l-1.663-4.715 12.686-4.474 1.199 10.334 10.692-3.196 1.797 10.506 7.941-2.486 1.494 4.772-13.4 4.195-1.809-10.579-10.995 3.286-1.164-10.033z"/><path id="Texture" fill="#4FC37D" d="M1006.455 473.939l2.5-4.33 10.391 5.999-5.999 10.391-4.33-2.5 3.499-6.061zM985.293 457.313l-4.33-2.5 5.999-10.391 10.391 5.999-2.5 4.33-6.061-3.499z"/><path fill="#5FCC89" d="M1002.542 434.267l-4.33-2.5 5.999-10.391 10.391 5.999-2.5 4.33-6.061-3.499z"/></g></g></g></svg>