<svg viewBox="0 0 1440 1024" xmlns="http://www.w3.org/2000/svg" xmlns:xlink="http://www.w3.org/1999/xlink"><title>TEAMWORK@2x</title><desc>Created with Sketch.</desc><defs><linearGradient x1="50%" y1="14.066%" x2="50%" y2="100%" id="a"><stop stop-color="#E9F0FB" offset="0%"/><stop stop-color="#fff" offset="100%"/></linearGradient><linearGradient x1="50%" y1="0%" x2="50%" y2="50%" id="b"><stop stop-color="#E9F0FB" offset="0%"/><stop stop-color="#D9E5FF" offset="100%"/></linearGradient><linearGradient x1="50%" y1="-104.29%" x2="50%" y2="100%" id="c"><stop stop-color="#fff" offset="0%"/><stop stop-color="#B3CDEF" offset="100%"/></linearGradient><linearGradient x1="50%" y1="32.119%" x2="67.286%" y2="115.978%" id="d"><stop stop-color="#84F0A8" offset="0%"/><stop stop-color="#48B676" offset="100%"/></linearGradient><linearGradient x1="60.731%" y1="0%" x2="50%" y2="100%" id="e"><stop stop-color="#fff" offset="0%"/><stop stop-color="#E5EEFF" offset="100%"/></linearGradient><linearGradient x1="157.42%" y1="-39.692%" x2="118.836%" y2="115.938%" id="f"><stop stop-color="#E5EDFF" offset="0%"/><stop stop-color="#6B9AD9" offset="100%"/></linearGradient><linearGradient x1="149.379%" y1="-86.566%" x2="157.42%" y2="219.658%" id="g"><stop stop-color="#E5EDFF" offset="0%"/><stop stop-color="#6B9AD9" offset="100%"/></linearGradient><linearGradient x1="83.28%" y1="11.256%" x2="59.889%" y2="97.31%" id="h"><stop stop-color="#476DB1" offset="0%"/><stop stop-color="#283F6F" offset="100%"/></linearGradient><linearGradient x1="50%" y1="19.686%" x2="-33.812%" y2="294.476%" id="i"><stop stop-color="#F7FAFF" offset="0%"/><stop stop-color="#6B9AD9" offset="100%"/></linearGradient><linearGradient x1="79.383%" y1="-51.765%" x2="50%" y2="189.01%" id="j"><stop stop-color="#F7FAFF" offset="0%"/><stop stop-color="#6B9AD9" offset="100%"/></linearGradient><linearGradient x1="93.245%" y1="-1697.938%" x2="40.255%" y2="1154.64%" id="k"><stop stop-color="#F7FAFF" offset="0%"/><stop stop-color="#6B9AD9" offset="100%"/></linearGradient><linearGradient x1="93.245%" y1="-1697.938%" x2="-33.727%" y2="548.908%" id="l"><stop stop-color="#F7FAFF" offset="0%"/><stop stop-color="#6B9AD9" offset="100%"/></linearGradient><linearGradient x1="83.28%" y1="11.256%" x2="111.029%" y2="953.538%" id="m"><stop stop-color="#476DB1" offset="0%"/><stop stop-color="#283F6F" offset="100%"/></linearGradient><linearGradient x1="50%" y1="-10.877%" x2="50%" y2="100%" id="n"><stop stop-color="#FFE579" offset="0%"/><stop stop-color="#FEB755" offset="100%"/></linearGradient><linearGradient x1="45.815%" y1="15.16%" x2="75.941%" y2="70.686%" id="o"><stop stop-color="#F59BA9" offset="0%"/><stop stop-color="#F25267" offset="100%"/></linearGradient><linearGradient x1="60.715%" y1="127.566%" x2="64.332%" y2="90.089%" id="p"><stop stop-color="#46C36F" stop-opacity="0" offset="0%"/><stop stop-color="#399D62" offset="100%"/></linearGradient><linearGradient x1="-8.771%" y1="109.673%" x2="17.311%" y2="15.43%" id="q"><stop stop-color="#FAD0BA" offset="0%"/><stop stop-color="#F2A384" offset="100%"/></linearGradient><linearGradient x1="100%" y1="50%" x2="0%" y2="50%" id="r"><stop stop-color="#2865C6" offset="0%"/><stop stop-color="#10378A" offset="100%"/></linearGradient><linearGradient x1="50%" y1="27.773%" x2="55.228%" y2="103.623%" id="s"><stop stop-color="#1542AB" offset="0%"/><stop stop-color="#2B68EE" offset="100%"/></linearGradient><linearGradient x1="60.731%" y1="0%" x2="52.081%" y2="50%" id="t"><stop stop-color="#3485F7" offset="0%"/><stop stop-color="#1A57CF" offset="100%"/></linearGradient><linearGradient x1="85.097%" y1="109.304%" x2="4.854%" y2="-47.176%" id="u"><stop stop-color="#032258" offset="0%"/><stop stop-color="#133E94" offset="100%"/></linearGradient><path d="M12.003 26.558c-12.554 47.763-14.713 85.592-6.476 113.489 12.356 41.845-7.789 90.474-3.062 113.568 39.022 9.295 56.251 21.219 51.686 35.773 7.429-9.522 10.759-30.434 9.988-62.734-1.156-48.451-2.754-51.145-4.542-73.201-1.193-14.704-1.193-33.004 0-54.901l-16.733-83.813c-6.45-3.706-11.338-6.373-14.664-8.001-3.326-1.628-8.286-3.783-14.878-6.463l-1.318 26.284z" id="v"/><path d="M135.707 30.446c-4.693 16.267-8.109 27.716-10.247 34.346-3.21 9.952-3.097 18.207-2.379 24.67 2.154 19.383 12.283 28.196 7.092 74.562-2.03 18.127-16.033 41.62-18.232 61.832-3.426 31.487 2.11 41.893 0 47.101-2.888 7.127-33.711.578-49.136 16.748-4.968-9.621 13.905-43.543 13.905-48.724 0-5.181.643-44.094 16.493-72.639 10.567-19.03 14.604-46.866 12.112-83.509-26.556-5.123-45.98-11.804-58.271-20.041-12.291-8.238-27.89-26.01-46.798-53.318 2.821-7.173 6.056-10.76 9.705-10.76 5.474 0 42.559 33.769 71.231 37.866 12.02 1.717 21.672-5.409 30.758-7.462 14.455-3.265 31.568-5.565 33.321-6.166-.296.87-.627 1.959-1.047 2.671-1.921-.475-4.757.466-8.507 2.822z" id="x"/><linearGradient x1="-38.382%" y1="-34.013%" x2="32.425%" y2="176.068%" id="A"><stop stop-color="#F59BA9" offset="0%"/><stop stop-color="#F25267" offset="100%"/></linearGradient><path d="M26.092 1.161l163.808 69.41c2.336.99 3.426 3.683 2.434 6.015l-19.291 45.367c-.992 2.332-3.689 3.42-6.025 2.43l-163.808-69.41c-2.336-.99-3.426-3.683-2.434-6.015l19.291-45.367c.992-2.332 3.689-3.42 6.025-2.43z" id="z"/><linearGradient x1="56.099%" y1="79.653%" x2="63.741%" y2="50%" id="C"><stop stop-color="#F5B79C" offset="0%"/><stop stop-color="#EC906C" offset="100%"/></linearGradient><linearGradient x1="-21.598%" y1="115.57%" x2="86.175%" y2="29.345%" id="D"><stop stop-color="#FAD0BA" offset="0%"/><stop stop-color="#F2A384" offset="100%"/></linearGradient></defs><g fill="none"><g id="Shadow" transform="translate(309 770)" fill="#E2EBFC" opacity=".806"><ellipse cx="444" cy="82.552" rx="314" ry="35.958"/><ellipse cx="674" cy="77.487" rx="174" ry="20.765"/><ellipse cx="64" cy="13.168" rx="64" ry="13.168"/><ellipse cx="634" cy="118.639" rx="194" ry="28.361"/><ellipse cx="204" cy="129.652" rx="94" ry="18.232"/></g><g><path d="M.879 522.159c112.987-74.403 261.087-104.404 444.301-90.004 274.821 21.601 257.354 187.808 994.821 121.205v220.291h-1440l.879-251.492z" id="Background-base" fill="url(#a)"/><path d="M1440 522.203c-336.524 30.392-515.847 12.306-637.477-18.395 144.912-36.579 207.93-91.066 357.344-102.809 183.214-14.401 331.314 15.601 444.301 90.004l-164.167 31.201z" fill="url(#b)"/></g><g fill-rule="nonzero"><g id="Leaves"><path d="M429.88 424.804c-16.645-2.973-21.922 36.401-28.364 42.11-6.427 5.659-19.505 4.18-22.103 19.792-2.598 15.613 9.579 18.562 7.408 31.528-2.171 12.966-28.761 3.555-32.142 24.035-3.381 20.48 15.755 32.48 13.698 44.811-2.058 12.331-13.735 14.048-18.264 41.347s14.971 38.76 45.753 50.1c30.782 11.34 52.852 8.029 57.975-21.337 5.123-29.366-28.498-38.135-28.131-54.95.352-16.762 23.93-19.166 27.195-38.015 3.264-18.849-28.783-27.143-26.212-42.209 2.571-15.066 29.754-15.881 32.456-31.524 2.702-15.644-2.971-19.716-13.397-28.362-10.455-8.548.773-34.353-15.872-37.326z" id="Leaf" fill="url(#c)"/><path d="M396.83 664.078c.603.4 1.314.118 1.588-.628.274-.747.006-1.675-.598-2.073-14.512-9.519-20.298-22.019-17.621-37.918.135-.801-.285-1.625-.937-1.84-.652-.215-1.29.258-1.425 1.058-2.913 17.327 3.519 31.218 18.993 41.402zM405.808 598.215c.676.135 1.248-.428 1.278-1.258.029-.83-.495-1.611-1.172-1.745-10.957-2.179-18.21-11.309-21.938-27.636-.187-.812-.868-1.362-1.521-1.229-.653.133-1.03.897-.843 1.708 4.006 17.516 12.109 27.73 24.196 30.16zM408.303 507.61c.469.063.865-.333.883-.885.019-.551-.346-1.049-.816-1.111-5.66-.752-9.402-5.059-11.337-13.124-.129-.537-.601-.881-1.053-.768-.452.113-.714.639-.584 1.176 2.127 8.854 6.46 13.846 12.907 14.712zM411.783 497.697c-.454-.156-.69-.702-.528-1.219.162-.518.661-.812 1.115-.657 5.475 1.873 10.344-.459 14.784-7.193.297-.451.847-.567 1.228-.26.382.307.45.922.153 1.373-4.879 7.402-10.516 10.099-16.752 7.956zM406.722 578.021c-.652-.26-.984-1.089-.741-1.851.242-.763.968-1.171 1.62-.913 9.663 3.84 18.361-.112 26.371-12.191.438-.662 1.235-.81 1.78-.33.545.48.633 1.407.195 2.069-8.658 13.063-18.472 17.514-29.225 13.215zM406.345 650.291c-.642-.292-.967-1.148-.724-1.912s.961-1.147 1.604-.856c9.524 4.321 18.131.688 26.094-11.226.435-.653 1.223-.768 1.759-.257.537.511.618 1.456.183 2.11-8.607 12.886-18.318 16.976-28.916 12.142z" id="leaves-base" fill="#98BBE9"/><path d="M386.577 718.227c-.183 1.077.369 2.232 1.233 2.58.864.348 2.888.226 3.072-.854-.131-7.066.787-16.417 2.759-28.06 2.957-17.464 16.372-43.635 18.008-63.584 1.623-19.904-8.762-61.438-8.138-91.499.471-24.331 10.536-43.87 15.132-57.387 4.609-13.56 6.342-30.579 6.044-30.637-.356-.07-2.208 17.366-6.953 30.438-4.732 13.026-13.261 29.583-15.814 49.793-4.77 37.684 9.291 76.159 5.077 100.869-4.214 24.71-13.578 37.747-18.279 59.106-3.129 14.222-3.841 23.96-2.142 29.236z" fill="#8FAFDA"/></g><g id="Leaves"><path d="M308.5 440.479c16.081-4.912 26.822 34.79 34.077 40.079 7.256 5.288 20.221 2.798 25.091 18.742 4.87 15.944-7.099 19.6-3.09 32.727 4.009 13.127 29.927 2.565 36.384 23.706 6.457 21.141-11.724 33.485-7.892 46.028 3.831 12.543 16.294 14.504 24.843 42.493 8.549 27.989-10.685 38.383-41.966 47.937-31.282 9.555-54.933 5.576-63.482-22.413s25.374-36.473 22.978-52.891c-2.396-16.418-26.968-18.252-32.516-36.418-5.548-18.165 26.093-27.83 21.559-42.672-4.533-14.843-32.089-13.789-36.713-28.929-4.624-15.14.542-19.679 9.864-29.235 9.322-9.556-5.219-34.243 10.862-39.155z" id="Leaf" fill="url(#d)"/><path d="M373.17 677.979c-.589.367-1.374.062-1.754-.681-.38-.744-.21-1.644.378-2.011 14.144-8.82 18.649-21.049 13.77-37.024-.246-.805.087-1.62.743-1.82.656-.2 1.388.289 1.633 1.094 5.327 17.44.319 31.033-14.771 40.442zM354.997 613.406c-.687.167-1.325-.364-1.425-1.186-.101-.822.374-1.623 1.061-1.79 11.124-2.703 17.801-12.215 20.15-28.899.117-.833.767-1.43 1.451-1.334.684.096 1.143.85 1.026 1.683-2.522 17.913-9.984 28.543-22.263 31.527zM340.961 522.632c-.469.112-.905-.247-.974-.802-.07-.555.254-1.096.722-1.208 5.652-1.35 9.03-6.116 10.216-14.542.079-.562.522-.965.989-.899.467.066.781.575.702 1.137-1.303 9.256-5.216 14.776-11.656 16.314zM336.849 512.62c-6.2 2.322-12.529-.069-18.782-7.017-.38-.422-.404-1.02-.053-1.336.351-.315.943-.229 1.323.193 5.692 6.325 11.157 8.39 16.598 6.352.451-.169 1.021.099 1.274.598.252.499.091 1.041-.36 1.21zM352.835 592.924c-10.877 4.001-22.039-.308-33.183-12.691-.562-.625-.605-1.503-.095-1.962.51-.459 1.379-.324 1.942.301 10.314 11.461 20.204 15.278 29.973 11.686.659-.242 1.499.158 1.875.894.376.736.147 1.53-.512 1.772zM362.208 664.243c-10.877 4.001-22.039-.308-33.183-12.691-.562-.625-.605-1.503-.095-1.962.51-.459 1.379-.324 1.942.301 10.314 11.461 20.204 15.278 29.973 11.686.659-.242 1.499.158 1.875.894.376.736.147 1.53-.512 1.772z" id="Leaves-base" fill="#5ACE87"/><path d="M390.636 731.607c.326 1.066-.129 2.149-1.015 2.42-.886.271-3.072-.006-3.397-1.072-.699-6.874-2.799-16.061-6.299-27.562-5.251-17.251-22.564-43.357-26.692-62.923-4.127-19.566 1.379-60.842-3.195-90.952-3.722-24.499-16.536-43.609-22.974-56.904-6.437-13.295-10.452-30.32-10.163-30.408.346-.106 4.539 17.338 11.051 30.137 6.512 12.799 17.371 28.992 22.677 49.267 9.877 37.742.22 76.116 7.661 100.48 7.442 24.364 18.921 37.529 26.524 58.754 5.069 14.15 7.009 23.738 5.821 28.763z" id="Leaves-base" fill="#42B16D"/></g><g><path d="M500.248 497.233c-14.853-7.889-30.147 23.732-37.788 26.614-7.64 2.881-19.799-2.218-26.477 10.354-6.677 12.572 4.378 18.444-1.12 28.794-5.498 10.35-29.105-4.635-37.959 12.035-8.854 16.67 7.09 31.417 1.836 41.308-5.253 9.891-17.485 8.726-29.207 30.795-11.722 22.069 5.478 35.383 34.371 50.73 28.893 15.346 52.139 17.335 63.861-4.735 11.722-22.069-19.846-37.1-15.489-50.643 4.357-13.544 28.22-9.505 35.828-23.828 7.608-14.323-21.617-29.846-15.401-41.549 6.216-11.703 32.588-4.505 38.929-16.443 6.341-11.938 1.939-17.014-5.833-27.345s9.301-28.198-5.552-36.087z" fill="url(#e)"/><path d="M408.353 686.299c.521.45 1.314.367 1.772-.184.458-.551.408-1.363-.113-1.813-12.501-10.801-15.306-22.326-8.616-34.922.337-.634.119-1.41-.487-1.732-.606-.322-1.371-.069-1.708.566-7.304 13.751-4.186 26.562 9.151 38.085zM433.16 634.073c.644.257 1.369-.079 1.618-.75.249-.671-.071-1.423-.715-1.679-10.44-4.158-15.26-13.257-14.513-27.625.037-.717-.492-1.328-1.182-1.364-.69-.036-1.279.517-1.317 1.234-.802 15.425 4.585 25.595 16.108 30.184zM458.36 559.832c.44.173.935-.053 1.105-.506.17-.453-.049-.961-.489-1.134-5.308-2.093-7.756-6.657-7.378-13.914.025-.484-.336-.897-.807-.921-.471-.024-.873.348-.898.833-.414 7.971 2.421 13.258 8.469 15.642zM464.592 552.723c5.362 3.676 11.33 3.064 17.702-1.742.387-.292.471-.834.187-1.211-.284-.377-.828-.445-1.215-.153-5.801 4.375-10.954 4.904-15.66 1.677-.39-.267-.933-.164-1.213.23s-.191.931.199 1.198zM439.66 618.026c9.415 6.381 19.949 5.22 31.306-3.346.573-.432.703-1.227.29-1.775-.413-.548-1.213-.641-1.786-.209-10.511 7.928-19.845 8.957-28.301 3.226-.571-.387-1.371-.229-1.788.351-.417.581-.292 1.365.279 1.752zM421.728 677.096c9.415 6.381 19.949 5.22 31.306-3.346.573-.432.703-1.227.29-1.775-.413-.548-1.213-.641-1.786-.209-10.511 7.928-19.845 8.957-28.301 3.226-.571-.387-1.371-.229-1.788.351-.417.581-.292 1.365.279 1.752zM384.848 728.336c-.446.84-.145 1.874.674 2.309.818.435 2.955.696 3.402-.144 1.532-5.74 4.7-13.146 9.505-22.217 7.207-13.607 27.124-32.058 33.54-47.907 6.416-15.85 6.28-52.534 14.444-77.331 6.643-20.177 21.358-33.651 29.211-43.591 7.854-9.94 13.844-23.635 13.577-23.777-.319-.17-6.533 13.843-14.397 23.341-7.864 9.498-20.333 20.915-27.971 37.104-14.219 30.137-9.728 65.278-19.932 84.489-10.204 19.211-22.891 27.888-32.857 44.368-6.644 10.987-9.709 18.772-9.195 23.357z" fill="#D2DEF8"/></g><g><path id="Vase-base" fill="url(#f)" d="M337.994 712.039h99.706l-22.157 65.234h-55.392z"/><path d="M341.4 710h90.9c2.982 0 5.4 2.418 5.4 5.4v9.586c0 2.982-2.418 5.4-5.4 5.4h-90.9c-2.982 0-5.4-2.418-5.4-5.4v-9.586c0-2.982 2.418-5.4 5.4-5.4z" fill="url(#g)"/></g></g><g fill-rule="nonzero"><path d="M504 99h366c16.569 0 30 13.431 30 30v683c0 16.569-13.431 30-30 30h-366c-16.569 0-30-13.431-30-30v-683c0-16.569 13.431-30 30-30z" id="Smart-phone-base" fill="url(#h)"/><g transform="translate(474 99) translate(10 50)"><path d="M2 0h402c1.105 0 2 .895 2 2v649c0 1.105-.895 2-2 2h-402c-1.105 0-2-.895-2-2v-649c0-1.105.895-2 2-2z" id="UI-base" fill="url(#i)"/><circle id="UI-base" fill="url(#j)" cx="80.5" cy="87.5" r="32.5"/><path d="M124 68h67c2.209 0 4 1.791 4 4v9c0 2.209-1.791 4-4 4h-67c-2.209 0-4-1.791-4-4v-9c0-2.209 1.791-4 4-4zM124 92h97c2.209 0 4 1.791 4 4v9c0 2.209-1.791 4-4 4h-97c-2.209 0-4-1.791-4-4v-9c0-2.209 1.791-4 4-4z" id="UI-base" fill="url(#k)"/><path d="M45 144h317c2.209 0 4 1.791 4 4v59c0 2.209-1.791 4-4 4h-317c-2.209 0-4-1.791-4-4v-59c0-2.209 1.791-4 4-4zM140 483h127c2.209 0 4 1.791 4 4v29c0 2.209-1.791 4-4 4h-127c-2.209 0-4-1.791-4-4v-29c0-2.209 1.791-4 4-4z" id="UI-base" stroke="#8AAFE1" stroke-width="2" stroke-linecap="round" stroke-linejoin="round" stroke-dasharray="10,10"/><path d="M50 561h307c2.209 0 4 1.791 4 4v2c0 2.209-1.791 4-4 4h-307c-2.209 0-4-1.791-4-4v-2c0-2.209 1.791-4 4-4zM50 588h307c2.209 0 4 1.791 4 4v2c0 2.209-1.791 4-4 4h-307c-2.209 0-4-1.791-4-4v-2c0-2.209 1.791-4 4-4zM50 615h207c2.209 0 4 1.791 4 4v2c0 2.209-1.791 4-4 4h-207c-2.209 0-4-1.791-4-4v-2c0-2.209 1.791-4 4-4z" fill="url(#k)"/><g transform="translate(41 242)"><path d="M4 0h317c2.209 0 4 1.791 4 4v209c0 2.209-1.791 4-4 4h-317c-2.209 0-4-1.791-4-4v-209c0-2.209 1.791-4 4-4z" fill="url(#j)"/><path d="M127.62 153.155l64.104 64.104h-191.723l64.104-64.104c17.539-17.539 45.976-17.539 63.516 0z" id="Picture-base" fill="url(#l)"/><circle id="Picture-base" fill="url(#l)" cx="285.5" cy="84.5" r="24.5"/><path d="M248.442 140.184l77.075 77.075h-230.517l77.075-77.075c21.088-21.088 55.279-21.088 76.368 0z" fill="url(#l)"/></g></g><path d="M564 147h246v6.192c0 11.046-8.954 20-20 20h-206c-11.046 0-20-8.954-20-20v-6.192z" fill="url(#m)"/></g><g fill-rule="nonzero"><g transform="translate(418 622) translate(17 122)" fill="#F2F5FF" stroke="#B7C8FF" stroke-width="3"><path d="M1.771 8.908l24.418 146.385h99.623l24.418-146.385h-148.458z"/><ellipse cx="76" cy="153.706" rx="49.836" ry="8.025"/><ellipse cx="75.377" cy="8.025" rx="74.131" ry="8.025"/></g><path d="M465.883 654.197l38.564 143.923c.572 2.134-.695 4.327-2.828 4.899l-39.603 10.612c-2.134.572-4.327-.695-4.899-2.828l-38.564-143.923c-.572-2.134.695-4.327 2.828-4.899l39.603-10.612c2.134-.572 4.327.695 4.899 2.828z" id="UI-part" fill="url(#n)"/><path d="M464.483 856.923l20.22-231.117c.193-2.201 2.133-3.829 4.333-3.636l40.844 3.573c2.201.193 3.829 2.133 3.636 4.333l-20.22 231.117c-.193 2.201-2.133 3.829-4.333 3.636l-40.844-3.573c-2.201-.193-3.829-2.133-3.636-4.333z" id="UI-part" fill="url(#o)"/><path d="M558.4 699.419l-12.986 148.433c-.193 2.201-2.133 3.829-4.333 3.636l-40.844-3.573c-2.201-.193-3.829-2.133-3.636-4.333l12.986-148.433c.193-2.201 2.133-3.829 4.333-3.636l40.844 3.573c2.201.193 3.829 2.133 3.636 4.333z" id="UI-part" fill="url(#n)"/><path d="M498.799 851.431l54.301-189.369c.609-2.124 2.824-3.351 4.948-2.742l39.412 11.301c2.124.609 3.351 2.824 2.742 4.948l-54.301 189.369c-.609 2.124-2.824 3.351-4.948 2.742l-39.412-11.301c-2.124-.609-3.351-2.824-2.742-4.948z" id="UI-part" fill="url(#d)"/><path d="M464.983 900.736h-5.065l-24.918-149.736h1.462c-.143.204-.216.411-.216.619 0 4.442 33.19 8.044 74.131 8.044 40.942 0 74.131-3.601 74.131-8.044 0-.208-.073-.415-.216-.619h2.708l-24.918 149.736h-5.065c-7.51 2.907-25.285 4.95-46.017 4.95-20.731 0-38.506-2.043-46.017-4.95z" fill="url(#h)"/></g><g id="UI-part" fill-rule="nonzero"><path d="M558.429 263.778l310.073 65.908c2.161.459 3.54 2.583 3.081 4.744l-12.267 57.711c-.459 2.161-2.583 3.54-4.744 3.081l-310.073-65.908c-2.161-.459-3.54-2.583-3.081-4.744l12.267-57.711c.459-2.161 2.583-3.54 4.744-3.081z" fill="url(#n)"/><path d="M830.623 321.635l31.844 55.682-.55 2.587-33.604-58.761 2.31.491zm-34.81-7.399l44.593 77.975-2.31-.491-44.593-77.975 2.31.491zm-36.522-7.763l41.725 77.366-2.269-.482-41.725-77.366 2.269.482zm-36.069-7.667l41.725 77.366-2.269-.482-41.725-77.366 2.269.482zm-35.622-7.572l41.725 77.366-2.269-.482-41.725-77.366 2.269.482zm-35.714-7.591l41.725 77.366-2.269-.482-41.725-77.366 2.269.482zm-38.097-8.098l41.725 77.366-2.269-.482-41.725-77.366 2.269.482zm-34.073-7.242l41.725 77.366-2.269-.482-41.725-77.366 2.269.482zm-28.314 9.293l32.398 60.072-2.269-.482-30.697-56.918.568-2.672z" id="Shape" fill="#FEB957"/></g><g id="Girl"><path d="M933.446 690.682c9.615 14.437 56.324 22.695 140.126 24.774l31.669.687c1.798-3.128 2.747-7.573 2.848-13.335.1-5.763-.561-17.845-1.985-36.247l-91.978-40.356c-63.402 28.549-90.296 50.041-80.68 64.478z" id="Jacket" fill="url(#p)" fill-rule="nonzero"/><g><g id="Foot" fill-rule="nonzero"><path d="M1002.996 809.069l2.683 13.398c-3.265 3.567-7.297 5.35-12.095 5.35-4.798 0-9.069-.899-12.813-2.698l-2.688-14.644 24.912-1.406z" id="Leg" fill="url(#q)"/><path d="M1005.81 820.879c2.036 0 2.036 5.529 2.125 9.738.032 1.532-.313 3.866-1.036 7.002-.296 1.285-1.601 2.227-3.146 2.272-32.677.951-52.367.925-52.427-.077-2.611-6.842-1.189-7.58 13.63-12.948 6.023-2.182 11.552-3.223 15.298-5.015 1.281-.613 3.967 4.341 12.824 4.341 8.858 0 10.696-5.313 12.732-5.313z" id="Shoes" fill="url(#r)"/><path d="M991.246 587.445l55.68 11.09c4.091 23.217 6.136 36.066 6.136 38.548 0 2.482-53.626 71.054-55.583 86.061-1.956 15.008 10.238 88.3 6.668 91.642-3.181 2.978-19.214 5.433-25.838 2.456-12.76-39.351-22.199-74.083-22.197-95.519.001-21.436 8.852-83.511 35.133-134.277z" id="Pants" fill="url(#s)"/></g><g><path d="M1079.138 817.504l-24.912 1.406 2.688 14.644c3.744 1.799 8.015 2.698 12.813 2.698s8.829-1.783 12.095-5.35l-2.683-13.398z" id="Leg" fill="url(#q)" fill-rule="nonzero"/><path d="M1081.881 829.314c-2.036 0-3.874 5.313-12.732 5.313-8.858 0-11.543-4.954-12.824-4.341-3.746 1.791-9.275 2.833-15.298 5.015-14.819 5.367-16.241 6.105-13.63 12.948.06 1.002 19.75 1.028 52.427.077 1.546-.045 2.85-.987 3.146-2.272.723-3.136 1.068-5.47 1.036-7.002-.089-4.208-.089-9.738-2.125-9.738z" id="Shoes" fill="url(#r)" fill-rule="nonzero"/><path d="M990.972 587.672c7.96 18.862 18.108 32.411 30.444 40.649 10.494 7.007-2.112 40.171 11.055 98.656 13.167 58.485 19.656 90.531 22.37 96.284 2.714 5.752 25.298 6.248 27.223-1.711 1.924-7.959-7.22-44.276-8.505-98.061 15.004-55.123 25.18-97.053 24.001-99.354-1.179-2.301 1.996-16.145-12.826-36.463h-93.763z" id="Pants" fill="url(#t)" fill-rule="nonzero"/><path d="M1072.923 811.011c-14.482-49.731-19.31-82.014-14.482-96.85 7.241-22.253 24.875-91.13 24.875-102.171" id="Texture" stroke="#5F90CC" stroke-linecap="round" stroke-linejoin="round" stroke-dasharray="5,10"/></g></g><g id="Hair" transform="translate(855 317.988) translate(175 24)" fill-rule="nonzero"><path d="M9.904 17.739c5.78-16.989 16.115-16.921 31.004.203 22.335 25.687 51.284-3.869 50.858 41.01-.426 44.879 71.231-8.667 50.993 66.633-11.575 43.066-73.981 33.652-107.899-6.087-25.386-29.743-25.205-88.177-28.213-90.469-4.685-3.569-3.6-7.332 3.256-11.29z" fill="url(#u)"/><ellipse fill="url(#d)" transform="matrix(-1 0 0 1 24.502 0)" cx="12.251" cy="13.416" rx="11.5" ry="12.5"/></g><g id="Head" fill-rule="nonzero"><path d="M968.781 358.44l6.412-.883 39.586 7.348 11.918 13.008 7.025 18.557c-.768 6.798.38 12.203 3.443 16.216 3.064 4.013 8.506 7.238 16.327 9.678-18.274 20.114-32.016 31.279-41.223 33.494-13.811 3.323-7.74-10.212 1.333-27.874 6.049-11.775-.809-16.797-8.647-19.588-6.574 4.021-10.776 6.269-12.605 6.743-2.488.645-11.415-8.871-18.282-20.729-.707-1.22-5.613-4.952-6.267-6.214-1.454-2.805 1.026-3.304.268-6.444-.577-2.392-3.255-5.353-3.223-9.417.02-2.541 1.332-7.172 3.936-13.893z" id="Face" fill="#F2A384"/><path d="M967.852 385.32c-1.474 2.759 5.024 5.782 6.79 9.088 2.539 2.85-27.918-2.056-26.239-33.426 1.679-31.371 21.047-29.622 26.381-30.512 5.334-.889 20.117-16.744 42.355-10.733 22.238 6.011 27.708 20.349 27.438 41.171-.326 25.118-9.28 39.616-14.626 40.272-5.978.734-15.725-2.591-29.242-9.973 5.527-1.597 7.058-5.584 4.592-11.962-3.699-9.567-12.767-6.28-13.866 1.536l-3.724-5.646-21.748.39c2.46 4.281 3.09 7.546 1.889 9.794z" id="Hair" fill="url(#u)"/></g><path d="M1014.992 425.997c-6.739 9.451-7.063 15.753-.971 18.906 6.091 3.153 19.099-4.429 39.022-22.746 26.012 10.544 41.682 18.918 47.01 25.122 5.328 6.204 2.902 33.705-7.28 82.504-10.74 23.82-20.041 39.564-27.903 47.229-11.411 11.126-39.402 10.225-61.049 11.69-12.019.814-19.902-.454-24.628-16.716 11.532-18.128 16.809-37.51 16.809-45.234 0-7.724-3.84-26.578-11.521-56.561l16.919-37.454 13.591-6.74z" id="Body" fill="url(#e)" fill-rule="nonzero"/><path d="M875.887 415.046l-11.131-11.224c-6.465-4.148-9.698-6.987-9.698-8.517 5.372 0 4.269-7.024 6.094-11.596 2.303 2.583-2.538-10.491 0-9.191 1.692.866 5.327 8.398 10.906 22.595l12.985 10.925-9.155 7.008z" id="Hand" fill="#F2A384" fill-rule="nonzero"/><g id="Jacket" transform="translate(855 317.988) translate(196.091 108.767)"><mask id="w"><use xlink:href="#v"/></mask><use fill="url(#d)" fill-rule="nonzero" xlink:href="#v"/><path d="M26.518 75.429c-6.121-8.226-6.121-21.739 0-40.539 2.17-6.663 11.312-8.483 24.366 0 15.648 10.169 39.532 53.399 28.377 85.104-17.18 48.829-45.493 62.213-61.138 65.41-2.987.611-3.621-.877-9.869 5.602-7.088 7.349-6.242-1.717 2.537-27.2 20.087-28.516 29.292-47.598 27.614-57.248-1.678-9.65-5.64-20.026-11.887-31.13z" fill="#51AE99" fill-rule="nonzero" opacity=".5" mask="url(#w)"/></g><g id="Hand" fill-rule="nonzero"><path d="M1077.171 597.28c-4.66 6.575-10.177 12.467-16.551 17.677-9.56 7.815-14.725 14.046-15.931 13.405-1.205-.641 4.035-6.735 3.042-6.364-2.252.842-8.183 8.178-9.616 7.491-.448-.215 1.632-3.633 6.24-10.256-6.831 5.747-10.617 8.194-11.357 7.341-1.11-1.279 9.332-9.257 9.053-9.732-.488-.829-10.876 3.78-11.086 2.899-.553-2.315 11.922-7.738 14.186-9.595 5.717-4.689-4.977-4.181-4.76-6.663.145-1.655 5.647-1.661 16.507-.019l14.507-15.515 5.766 9.329z" fill="#F2A384"/><path d="M1077.609 486.189c-6.121-8.226-6.121-21.739 0-40.539 2.17-6.663 11.312-8.483 24.366 0 15.648 10.169 35.064 58.799 23.909 90.503-20.461 58.152-38.997 59.36-50.445 66.665-7.632 4.87-12.017 1.679-13.154-9.572 21.512-31.283 31.43-51.749 29.752-61.399-1.678-9.65-6.487-24.869-14.428-45.659z" fill="url(#d)"/></g><g transform="translate(855 317.988) translate(14.588 81.176)"><mask id="y"><use xlink:href="#x"/></mask><use fill="url(#d)" fill-rule="nonzero" xlink:href="#x"/><path d="M104.854 88.391c.118-6.765 1.195-12.26 3.231-16.486 2.036-4.226 2.607-6.716 1.713-7.471-22.211 10.981-40.804 13.472-55.779 7.471-14.975-6.001-11.203 2.231 11.315 24.696l39.52-8.209z" fill="#51AE99" fill-rule="nonzero" mask="url(#y)"/></g></g><g><g transform="matrix(-1 0 0 1 922 649)"><mask id="B"><use xlink:href="#z"/></mask><use fill="url(#A)" fill-rule="nonzero" xlink:href="#z"/><path d="M167.431 40.013l32.876 69.293-1.038.491-32.876-69.293 1.038-.491zm-16.438 5.718l32.876 69.293-1.038.491-32.876-69.293 1.038-.491zm-22.678-5.707l44.605 99.692-1.049.468-44.605-99.692 1.049-.468zm-26.801-15.2l44.605 99.692-1.049.468-44.605-99.692 1.049-.468zm-26.423-14.908l44.605 99.692-1.049.468-44.605-99.692 1.049-.468zm-24.702-10.95l44.605 99.692-1.049.468-44.605-99.692 1.049-.468zm-26.529-12.08l44.605 99.692-1.049.468-44.605-99.692 1.049-.468zm-20.553-3.709l44.605 99.692-1.049.468-44.605-99.692 1.049-.468zm-25.864-11.159l44.605 99.692-1.049.468-44.605-99.692 1.049-.468z" id="Shape" fill="#FF8D9D" fill-rule="nonzero" mask="url(#B)"/></g><g><g id="Feet" fill-rule="nonzero"><path d="M828.646 845.52c-.127-1.392-8.321-9.299-17.213-.015-8.891 9.284-11.259 12.61-15.367 16.091-2.739 2.321-5.608 3.886-8.608 4.696l16.877.988 24.327-2.876c.074-11.661.068-17.956-.016-18.884z" id="Leg" fill="#F2A384"/><path d="M919.201 833.617l19.848-57.09c-50.912-41.945-87.314-56.408-109.206-43.386-32.838 19.532-25.553 112.588-25.887 115.274-.334 2.685 19.326 10.193 22.998 2.801 3.672-7.392 24.333-51.955 26.365-68.316 8.965 11.789 30.925 28.694 65.88 50.717z" id="Pants" fill="url(#s)"/><path d="M828.723 853.993c-3.501-1.722-7.898 7.661-14.316 7.661-6.418 0-10.41-8.52-12.05-7.661-4.795 2.512-11.753 3.733-19.411 6.688-18.841 7.27-20.666 8.314-17.925 19.117 0 2.401 21.4 3.602 64.201 3.602 1.732-5.02 2.665-9.709 2.8-14.067.202-6.536.202-13.617-3.299-15.34z" id="Shoes" fill="url(#r)"/></g><g><path fill="#F2A384" fill-rule="nonzero" d="M973.774 873.112l26.776-5.926 7.218 2.374-10.959-14.262-19.086-3.967z"/><path d="M809.423 844.288c15.519 47.182 163.689 38.282 173.599 33.656 5.655-2.64-.23-25.387-3.348-26.497-7.245-2.579-108.288-11.45-88.887-7.158 19.402 4.292 107.137-10.027 100.542-48.754-4.397-25.818-26.027-31.328-64.89-16.531-87.421 14.912-126.427 36.674-117.016 65.285z" fill="url(#t)" fill-rule="nonzero"/><path d="M984.835 852.573c.733 3.339 8.621.681 12.19 4.934 3.569 4.253-.217 11.937 1.301 12.516 4.437 1.692 9.167 5.58 15.508 8.908 15.6 8.186 17.351 8.778 23.441.572 1.692-1.42-9.361-16.311-33.16-44.673-4.501 1.822-8.325 3.976-11.471 6.464-4.719 3.731-8.541 7.941-7.808 11.28z" fill="url(#r)" fill-rule="nonzero"/><path d="M951.826 865.438c-72.091-5.505-101.544-13.739-88.36-24.7 13.184-10.961 30.642-20.979 52.372-30.053" id="Texture" stroke="#5F90CC" stroke-linecap="round" stroke-linejoin="round" stroke-dasharray="5,10"/></g></g><g fill-rule="nonzero"><path d="M976.088 640.71c-18.022-10.419-36.332 8.283-41.171 18.691-4.839 10.409-18.566 10.525-12.849 57.68 3.812 31.437 2.747 46.529-3.194 45.277-15.621-2.341-19.929 5.579-12.923 23.759 10.509 27.271 22.435 27.332 44.144 30.01 21.709 2.678 37.486-4.576 46.38-14.963 8.894-10.387-8.662-44.243 0-68.223 6.715-18.59.331-56.709 0-57.706-5.142-15.488-2.365-24.107-20.387-34.526z" fill="url(#n)"/><path d="M940.621 650.969c1.638-.192 3.338.42 4.469 1.778.21.252.445.482.701.687 2.106 1.687 5.189 1.356 6.885-.738l.574-.709c.163-.202.342-.391.533-.567 2.15-1.974 5.503-1.84 7.487.298.149.161.308.312.475.453 2.29 1.935 5.724 1.658 7.671-.619l.469-.549c.19-.222.399-.428.625-.614 2.14-1.762 5.311-1.464 7.082.664.218.262.463.5.732.711 2.101 1.649 5.149 1.291 6.807-.799l.495-.624c.171-.215.358-.417.561-.602.244-.224.503-.42.774-.589-1.538-1.785-3.478-3.551-5.979-5.346-1.289.404-2.751.172-3.872-.746l-2.379-1.947c-.256-.21-.535-.391-.831-.54-2.231-1.124-4.956-.237-6.087 1.982-.131.257-.286.502-.463.731-1.577 2.043-4.52 2.429-6.575.861l-3.104-2.368c-.238-.182-.495-.339-.765-.468-2.173-1.04-4.782-.13-5.828 2.031-.147.304-.33.588-.545.848-1.103 1.331-2.86 1.812-4.427 1.36-2.033 1.702-3.877 3.554-5.485 5.423zm-17.737 28.114c1.977-.824 4.345-.383 5.883 1.274.149.161.308.312.475.453 2.29 1.935 5.724 1.658 7.671-.619l.469-.549c.19-.222.399-.428.625-.614 2.14-1.762 5.311-1.464 7.082.664.21.252.445.482.701.687 2.106 1.687 5.189 1.356 6.885-.738l.574-.709c.163-.202.342-.391.533-.567 2.15-1.974 5.503-1.84 7.487.298.149.161.308.312.475.453 2.29 1.935 5.724 1.658 7.671-.619l.469-.549c.19-.222.399-.428.625-.614 2.14-1.762 5.311-1.464 7.082.664.218.262.463.5.732.711 2.101 1.649 5.149 1.291 6.807-.799l.495-.624c.171-.215.358-.417.561-.602 2.129-1.954 5.447-1.821 7.412.295.149.161.308.312.475.453.899.76 1.975 1.179 3.068 1.269-.313-2.047-.546-3.296-.602-3.466-.575-1.732-1.051-3.379-1.468-4.951-.694-.132-1.368-.423-1.966-.88l-3.146-2.4c-.245-.187-.509-.347-.789-.477-2.14-.998-4.689-.081-5.692 2.047-.146.311-.332.602-.551.867-1.45 1.752-4.055 2.004-5.817.562l-2.379-1.947c-.256-.21-.535-.391-.831-.54-2.231-1.124-4.956-.237-6.087 1.982-.131.257-.286.502-.463.731-1.577 2.043-4.52 2.429-6.575.861l-3.104-2.368c-.238-.182-.495-.339-.765-.468-2.173-1.04-4.782-.13-5.828 2.031-.147.304-.33.588-.545.848-1.48 1.786-4.135 2.04-5.931.569l-2.377-1.948c-.257-.21-.536-.392-.833-.541-2.23-1.123-4.953-.237-6.083 1.98-.131.257-.286.502-.463.731-1.577 2.043-4.52 2.429-6.575.861l-1.97-1.503c-1.282 2.077-2.472 4.575-3.419 7.804zm-1.764 27.578l.235-.23c2.129-1.954 5.447-1.821 7.412.295.149.161.308.312.475.453 2.29 1.935 5.724 1.658 7.671-.619l.469-.549c.19-.222.399-.428.625-.614 2.14-1.762 5.311-1.464 7.082.664.21.252.445.482.701.687 2.106 1.687 5.189 1.356 6.885-.738l.574-.709c.163-.202.342-.391.533-.567 2.15-1.974 5.503-1.84 7.487.298.149.161.308.312.475.453 2.29 1.935 5.724 1.658 7.671-.619l.469-.549c.19-.222.399-.428.625-.614 2.14-1.762 5.311-1.464 7.082.664.218.262.463.5.732.711 2.101 1.649 5.149 1.291 6.807-.799l.495-.624c.171-.215.358-.417.561-.602 2.129-1.954 5.447-1.821 7.412.295.149.161.308.312.475.453 1.565 1.322 3.664 1.612 5.458.936-.09-3.138-.264-6.226-.485-9.152-1.648 1.435-4.137 1.565-5.942.188l-3.146-2.4c-.245-.187-.509-.347-.789-.477-2.14-.998-4.689-.081-5.692 2.047-.146.311-.332.602-.551.867-1.45 1.752-4.055 2.004-5.817.562l-2.379-1.947c-.256-.21-.535-.391-.831-.54-2.231-1.124-4.956-.237-6.087 1.982-.131.257-.286.502-.463.731-1.577 2.043-4.52 2.429-6.575.861l-3.104-2.368c-.238-.182-.495-.339-.765-.468-2.173-1.04-4.782-.13-5.828 2.031-.147.304-.33.588-.545.848-1.48 1.786-4.135 2.04-5.931.569l-2.377-1.948c-.257-.21-.536-.392-.833-.541-2.23-1.123-4.953-.237-6.083 1.98-.131.257-.286.502-.463.731-1.577 2.043-4.52 2.429-6.575.861l-3.146-2.4c-.245-.187-.509-.347-.789-.477-1.176-.548-2.474-.519-3.573-.028-.024 3.113.086 6.567.355 10.414zm2.522 24.911c1.798-.444 3.779.074 5.124 1.524.149.161.308.312.475.453 2.29 1.935 5.724 1.658 7.671-.619l.469-.549c.19-.222.399-.428.625-.614 2.14-1.762 5.311-1.464 7.082.664.21.252.445.482.701.687 2.106 1.687 5.189 1.356 6.885-.738l.574-.709c.163-.202.342-.391.533-.567 2.15-1.974 5.503-1.84 7.487.298.149.161.308.312.475.453 2.29 1.935 5.724 1.658 7.671-.619l.469-.549c.19-.222.399-.428.625-.614 2.14-1.762 5.311-1.464 7.082.664.218.262.463.5.732.711 2.101 1.649 5.149 1.291 6.807-.799l.495-.624c.171-.215.358-.417.561-.602 2.129-1.954 5.447-1.821 7.412.295.149.161.308.312.475.453.872.737 1.911 1.153 2.97 1.26.866-2.808 1.473-5.988 1.877-9.371-1.647 1.336-4.057 1.425-5.816.083l-3.146-2.4c-.245-.187-.509-.347-.789-.477-2.14-.998-4.689-.081-5.692 2.047-.146.311-.332.602-.551.867-1.45 1.752-4.055 2.004-5.817.562l-2.379-1.947c-.256-.21-.535-.391-.831-.54-2.231-1.124-4.956-.237-6.087 1.982-.131.257-.286.502-.463.731-1.577 2.043-4.52 2.429-6.575.861l-3.104-2.368c-.238-.182-.495-.339-.765-.468-2.173-1.04-4.782-.13-5.828 2.031-.147.304-.33.588-.545.848-1.48 1.786-4.135 2.04-5.931.569l-2.377-1.948c-.257-.21-.536-.392-.833-.541-2.23-1.123-4.953-.237-6.083 1.98-.131.257-.286.502-.463.731-1.577 2.043-4.52 2.429-6.575.861l-3.146-2.4c-.245-.187-.509-.347-.789-.477-.521-.243-1.066-.372-1.608-.399.365 3.314.669 6.423.912 9.326zm-.356 26.471c1.888-.611 4.046-.123 5.481 1.423.149.161.308.312.475.453 2.29 1.935 5.724 1.658 7.671-.619l.469-.549c.19-.222.399-.428.625-.614 2.14-1.762 5.311-1.464 7.082.664.21.252.445.482.701.687 2.106 1.687 5.189 1.356 6.885-.738l.574-.709c.163-.202.342-.391.533-.567 2.15-1.974 5.503-1.84 7.487.298.149.161.308.312.475.453 2.29 1.935 5.724 1.658 7.671-.619l.469-.549c.19-.222.399-.428.625-.614 2.14-1.762 5.311-1.464 7.082.664.218.262.463.5.732.711 2.101 1.649 5.149 1.291 6.807-.799l.495-.624c.171-.215.358-.417.561-.602 2.129-1.954 5.447-1.821 7.412.295.149.161.308.312.475.453l.375.29c-.237-2.591-.382-5.185-.385-7.752-.334-.147-.656-.336-.959-.567l-3.146-2.4c-.245-.187-.509-.347-.789-.477-2.14-.998-4.689-.081-5.692 2.047-.146.311-.332.602-.551.867-1.45 1.752-4.055 2.004-5.817.562l-2.379-1.947c-.256-.21-.535-.391-.831-.54-2.231-1.124-4.956-.237-6.087 1.982-.131.257-.286.502-.463.731-1.577 2.043-4.52 2.429-6.575.861l-3.104-2.368c-.238-.182-.495-.339-.765-.468-2.173-1.04-4.782-.13-5.828 2.031-.147.304-.33.588-.545.848-1.48 1.786-4.135 2.04-5.931.569l-2.377-1.948c-.257-.21-.536-.392-.833-.541-2.23-1.123-4.953-.237-6.083 1.98-.131.257-.286.502-.463.731-1.577 2.043-4.52 2.429-6.575.861l-3.146-2.4c-.245-.187-.509-.347-.789-.477l-.005-.002c-.104 3.831-.453 6.841-1.047 9.032zm-5.921 4.11c-.807.146-1.649.09-2.441-.18.777.026 1.59.086 2.441.18zm-11.405 23.822c2.128-1.517 5.105-1.157 6.8.88.218.262.463.5.732.711 2.101 1.649 5.149 1.291 6.807-.799l.495-.624c.171-.215.358-.417.561-.602 2.129-1.954 5.447-1.821 7.412.295.149.161.308.312.475.453 2.29 1.935 5.724 1.658 7.671-.619l.469-.549c.19-.222.399-.428.625-.614 2.14-1.762 5.311-1.464 7.082.664.21.252.445.482.701.687 2.106 1.687 5.189 1.356 6.885-.738l.574-.709c.163-.202.342-.391.533-.567 2.15-1.974 5.503-1.84 7.487.298.149.161.308.312.475.453 2.29 1.935 5.724 1.658 7.671-.619l.469-.549c.19-.222.399-.428.625-.614 2.14-1.762 5.311-1.464 7.082.664.218.262.463.5.732.711 2.101 1.649 5.149 1.291 6.807-.799l.495-.624c.171-.215.358-.417.561-.602 2.129-1.954 5.447-1.821 7.412.295.149.161.308.312.475.453 1.289 1.089 2.94 1.477 4.484 1.203-.346-2.659-.817-5.492-1.324-8.443-1.375.385-2.909.143-4.129-.788l-3.146-2.4c-.245-.187-.509-.347-.789-.477-2.14-.998-4.689-.081-5.692 2.047-.146.311-.332.602-.551.867-1.45 1.752-4.055 2.004-5.817.562l-2.379-1.947c-.256-.21-.535-.391-.831-.54-2.231-1.124-4.956-.237-6.087 1.982-.131.257-.286.502-.463.731-1.577 2.043-4.52 2.429-6.575.861l-3.104-2.368c-.238-.182-.495-.339-.765-.468-2.173-1.04-4.782-.13-5.828 2.031-.147.304-.33.588-.545.848-1.48 1.786-4.135 2.04-5.931.569l-2.377-1.948c-.257-.21-.536-.392-.833-.541-2.23-1.123-4.953-.237-6.083 1.98-.131.257-.286.502-.463.731-1.577 2.043-4.52 2.429-6.575.861l-3.146-2.4c-.245-.187-.509-.347-.789-.477-2.14-.998-4.689-.081-5.692 2.047-.146.311-.332.602-.551.867-1.45 1.752-4.055 2.004-5.817.562l-2.379-1.947c-.256-.21-.535-.391-.831-.54-1.986-1.001-4.363-.408-5.659 1.299.528 2.476 1.378 5.244 2.551 8.304zm27.982 27.843c1.119-.246 2.17-.844 2.97-1.779l.469-.549c.19-.222.399-.428.625-.614 2.14-1.762 5.311-1.464 7.082.664.21.252.445.482.701.687 2.106 1.687 5.189 1.356 6.885-.738l.574-.709c.163-.202.342-.391.533-.567 2.15-1.974 5.503-1.84 7.487.298.149.161.308.312.475.453 2.29 1.935 5.724 1.658 7.671-.619l.469-.549c.19-.222.399-.428.625-.614 2.14-1.762 5.311-1.464 7.082.664.218.262.463.5.732.711 2.101 1.649 5.149 1.291 6.807-.799l.495-.624c.171-.215.358-.417.561-.602 1.11-1.019 2.543-1.47 3.94-1.369 2.034-1.528 3.866-3.193 5.491-4.959-.883-.063-1.758-.376-2.513-.952l-3.146-2.4c-.245-.187-.509-.347-.789-.477-2.14-.998-4.689-.081-5.692 2.047-.146.311-.332.602-.551.867-1.45 1.752-4.055 2.004-5.817.562l-2.379-1.947c-.256-.21-.535-.391-.831-.54-2.231-1.124-4.956-.237-6.087 1.982-.131.257-.286.502-.463.731-1.577 2.043-4.52 2.429-6.575.861l-3.104-2.368c-.238-.182-.495-.339-.765-.468-2.173-1.04-4.782-.13-5.828 2.031-.147.304-.33.588-.545.848-1.48 1.786-4.135 2.04-5.931.569l-2.377-1.948c-.257-.21-.536-.392-.833-.541-2.23-1.123-4.953-.237-6.083 1.98-.131.257-.286.502-.463.731-1.577 2.043-4.52 2.429-6.575.861l-3.146-2.4c-.245-.187-.509-.347-.789-.477-2.14-.998-4.689-.081-5.692 2.047-.146.311-.332.602-.551.867-.239.289-.509.537-.802.743 2.189 2.202 4.509 3.865 7.006 5.152 1.61-.187 3.284.368 4.468 1.643l.348.343c1.541.501 3.147.914 4.828 1.271z" fill="#EEA642" opacity=".5"/><path d="M921.839 715.122c.073.644.149 1.297.229 1.959 3.812 31.437 2.747 46.529-3.194 45.277-5.436-.815-9.502-.387-12.198 1.284 26.825 2.573 45.369.461 55.631-6.335 22.333-14.79 35.663-58.305 32.221-83.373-3.442-25.068-14.695-32.185-22.123-33.873-7.427-1.688-32.729-.348-35.094 22.327-1.576 15.117-5.156 30.212-10.738 45.285-1.093 2.698-2.672 5.181-4.735 7.45z" fill="#EEAD47" opacity=".5"/></g><g><path d="M988.718 647.588c-21.625 18.359-36.714 5.196-32.697 0 2.797-3.617.817-22.397-3.448-38.916 21.513-18.388 32.736-28.193 31.177-21.948-2.338 9.367-.468 1.041-.935 14.572-.129 3.734.935 8.728-5.01 18.74-5.426 9.137 9.42 19.187 10.914 26.844v.709z" fill="url(#C)"/><path d="M939.299 588.917c-6.339-5.073-10.719-10.519-13.138-16.339-3.629-8.73-6.67-29.558 15.431-34.309 14.229-3.059 35.21-2.612 41.891 0 20.879 8.161 25.915 20.578 25.915 69.382s48.776 44.675 45.807 69.932c-2.969 25.258-21.753 37.802-45.807 27.313-24.054-10.489-36.022-73.066-31.973-92.534 2.699-12.978-10.01-20.793-38.126-23.445z" fill="url(#u)" fill-rule="nonzero"/><path d="M931.983 590.649l-.303-7.435c-.101-2.481-1.107-10.507-.92-11.92.561-4.245 1.808-8.438 3.107-6.543 5.875 8.568 12.937 15.009 24.011 15.965.797.069 7.439 5.903 8.31 5.945 1.124.054.33-4.913 1.586-4.913 2.49-7.802 12.194-7.802 12.597 3.039.106 2.834-2.545 6.855-3.331 11.405-.551 3.186 1.202 6.699 0 10.491-1.202 3.793-9.894 12.738-21.069 16.26-6.031 1.901-10.018 2.024-11.961.369-3.451-2.938-7.051-5.307-10.142-17.593-1.964-.538-5.858-.398-5.858-2.829 0-.898 2.851-8.554 3.974-12.24z" fill="url(#D)"/></g><g fill-rule="nonzero"><path d="M862.776 711.963l10.565-8.077-14.937-12.53c-.537-12.014-1.779-18.518-3.727-19.51-1.353-.689-1.298 6.205-2.131 7.834-.966 1.888-2.798-1.481-4.219-3.073-1.777-1.99-4.553-5.362-6.656-4.74-.8.237-7.765 2.827-9.134 5.866-.708 1.571.494 5.539 1.122 6.627 2.373 4.11 7.812 9.018 16.317 14.726l12.8 12.878z" fill="#F2A384"/><path d="M968.103 635.002c-7.402-1.698-28.434 3.111-30.79 25.919-2.356 22.807-1.624 45.048-9.83 53.547-8.206 8.499-14.595 1.14-60.397-16.737-5.798-.348-9.285 2.439-10.46 8.362-1.176 5.922-1.176 8.714 0 8.376 38.301 36.141 65.861 51.298 82.68 45.472 25.228-8.739 54.273-65.654 50.844-90.868-3.43-25.214-14.644-32.372-22.046-34.07z" fill="url(#n)"/><path d="M896.596 709.9l-.027.086c-.107.324-.18.659-.218.999-.291 2.661 1.622 5.055 4.273 5.348l.792.087c.273.03.543.082.808.154 2.784.764 4.424 3.649 3.663 6.444-.058.212-.103.427-.134.645-.435 2.974 1.614 5.739 4.577 6.176l.714.105c.289.043.575.111.852.203 2.627.876 4.049 3.724 3.176 6.361-.103.312-.175.634-.214.961-.321 2.685 1.588 5.124 4.263 5.446l.906.109c.258.031.513.081.764.15 2.813.772 4.47 3.687 3.7 6.51-.058.212-.103.427-.134.645-.435 2.974 1.614 5.739 4.577 6.176l.714.105c.289.043.575.111.852.203 1.926.642 3.205 2.345 3.405 4.247 1.908-.162 3.708-.535 5.399-1.121.304-.105.609-.218.915-.337-.049-.356-.051-.725-.002-1.099l.398-3.056c.043-.329.05-.662.02-.992-.223-2.492-2.416-4.33-4.898-4.107-.288.026-.578.025-.865-.003-2.569-.248-4.451-2.54-4.204-5.118l.374-3.895c.029-.299.027-.6-.006-.899-.264-2.397-2.415-4.126-4.803-3.861-.336.037-.674.034-1.009-.01-2.299-.304-3.918-2.42-3.615-4.728l.4-3.054c.043-.33.05-.663.02-.995-.223-2.49-2.414-4.327-4.895-4.104-.288.026-.578.025-.865-.003-2.569-.248-4.451-2.54-4.204-5.118l.216-2.254c-3.936-1.361-8.96-3.523-15.684-6.408zm-11.039-4.692c.681 1.974.142 4.25-1.531 5.695-.166.143-.323.297-.471.459-2.018 2.221-1.86 5.664.353 7.689l.534.488c.216.198.415.414.593.647 1.69 2.201 1.282 5.36-.911 7.056-.26.201-.499.427-.713.676-1.762 2.046-1.539 5.139.5 6.908l.69.599c.196.17.38.355.55.553.988 1.153 1.395 2.61 1.248 4.011 1.813 1.367 3.591 2.669 5.336 3.904.131-.232.285-.456.46-.669l2.48-3.02c.19-.232.356-.483.495-.748 1.117-2.136.297-4.776-1.831-5.896-.299-.157-.578-.351-.831-.575-1.737-1.542-1.899-4.205-.363-5.948l2.033-2.307c.22-.249.411-.522.571-.813 1.203-2.189.41-4.942-1.772-6.149-.253-.14-.493-.303-.716-.488-1.992-1.648-2.275-4.604-.634-6.603l1.763-2.147c-2.407-1.029-5.011-2.137-7.835-3.32zm53.796-52.946c2.281 1.851 5.63 1.547 7.54-.71l.468-.552c.189-.224.398-.43.623-.618 2.133-1.772 5.292-1.473 7.058.667.209.253.443.485.698.691 2.099 1.696 5.171 1.364 6.861-.743l.572-.713c.163-.203.341-.394.531-.571 2.143-1.985 5.484-1.851 7.461.3.148.161.307.314.473.456 2.282 1.947 5.705 1.668 7.644-.623l.468-.552c.189-.224.398-.43.623-.618.927-.77 2.049-1.149 3.166-1.156-1.736-3.025-3.645-5.368-5.595-7.175-.093.143-.18.292-.259.448-.131.259-.285.505-.461.735-1.571 2.055-4.505 2.443-6.552.866l-3.093-2.382c-.237-.183-.493-.341-.763-.471-2.166-1.046-4.766-.131-5.807 2.042-.146.305-.329.592-.544.853-1.475 1.796-4.121 2.052-5.91.572l-2.368-1.959c-.256-.212-.534-.394-.83-.545-.8-.407-1.665-.552-2.495-.466-3.875 2.751-7.356 6.714-9.509 12.22zm-3.329 24.232c.304.213.589.462.851.746.148.161.307.314.473.456 2.282 1.947 5.705 1.668 7.644-.623l.468-.552c.189-.224.398-.43.623-.618 2.133-1.772 5.292-1.473 7.058.667.209.253.443.485.698.691 2.099 1.696 5.171 1.364 6.861-.743l.572-.713c.163-.203.341-.394.531-.571 2.143-1.985 5.484-1.851 7.461.3.148.161.307.314.473.456 2.282 1.947 5.705 1.668 7.644-.623l.468-.552c.189-.224.398-.43.623-.618 2.133-1.772 5.292-1.473 7.058.667.217.263.462.503.729.715 1.19.943 2.686 1.233 4.058.922.184-2.691.136-5.187-.169-7.431-.09-.659-.185-1.307-.285-1.942-1.461.925-3.406.856-4.813-.306l-2.371-1.959c-.255-.211-.533-.393-.828-.543-2.223-1.131-4.939-.238-6.066 1.993-.131.259-.285.505-.461.735-1.571 2.055-4.505 2.443-6.552.866l-3.093-2.382c-.237-.183-.493-.341-.763-.471-2.166-1.046-4.766-.131-5.807 2.042-.146.305-.329.592-.544.853-1.475 1.796-4.121 2.052-5.91.572l-2.368-1.959c-.256-.212-.534-.394-.83-.545-2.222-1.13-4.936-.238-6.061 1.992-.131.259-.285.505-.461.735-1.535 2.008-4.37 2.424-6.409.972-.179 2.284-.342 4.544-.502 6.766zm-2.68 24.495c1.673-.271 3.445.277 4.68 1.621.148.161.307.314.473.456 2.282 1.947 5.705 1.668 7.644-.623l.468-.552c.189-.224.398-.43.623-.618 2.133-1.772 5.292-1.473 7.058.667.209.253.443.485.698.691 2.099 1.696 5.171 1.364 6.861-.743l.572-.713c.163-.203.341-.394.531-.571 2.143-1.985 5.484-1.851 7.461.3.148.161.307.314.473.456 2.282 1.947 5.705 1.668 7.644-.623l.468-.552c.189-.224.398-.43.623-.618 1.607-1.335 3.798-1.495 5.536-.575.739-2.095 1.41-4.168 2.007-6.203-.34-.149-.666-.348-.966-.597l-2.371-1.959c-.255-.211-.533-.393-.828-.543-2.223-1.131-4.939-.238-6.066 1.993-.131.259-.285.505-.461.735-1.571 2.055-4.505 2.443-6.552.866l-3.093-2.382c-.237-.183-.493-.341-.763-.471-2.166-1.046-4.766-.131-5.807 2.042-.146.305-.329.592-.544.853-1.475 1.796-4.121 2.052-5.91.572l-2.368-1.959c-.256-.212-.534-.394-.83-.545-2.222-1.13-4.936-.238-6.061 1.992-.131.259-.285.505-.461.735-1.571 2.055-4.505 2.443-6.552.866l-2.904-2.236c-.345 2.929-.759 5.69-1.283 8.235zm-13.015 17.003l.197.359c.153.306.337.594.55.861 1.669 2.088 4.709 2.424 6.789.749l.622-.5c.214-.172.442-.328.68-.464 2.507-1.436 5.7-.559 7.13 1.957.108.191.228.375.359.551 1.787 2.412 5.185 2.913 7.588 1.119l.579-.433c.235-.175.484-.329.746-.461 2.475-1.245 5.487-.24 6.727 2.244.147.294.323.573.525.831 1.665 2.127 4.732 2.496 6.851.825l.717-.566c.204-.161.42-.307.646-.436 2.533-1.45 5.758-.565 7.203 1.977.108.191.228.375.359.551.572.772 1.308 1.348 2.125 1.716 1.834-2.948 3.587-5.997 5.238-9.098-1.989 1.571-4.875 1.267-6.494-.704l-2.48-3.02c-.19-.232-.404-.443-.638-.631-1.876-1.508-4.614-1.204-6.116.679-.211.264-.453.502-.721.709-1.839 1.417-4.475 1.069-5.887-.777l-1.869-2.444c-.202-.264-.432-.505-.686-.718-1.912-1.603-4.756-1.347-6.352.572-.185.223-.391.428-.614.612-1.991 1.648-4.937 1.363-6.578-.636l-2.513-3.06c-.196-.238-.416-.454-.658-.645-.982-.774-2.198-1.046-3.339-.854-.949 2.239-2.106 4.131-3.532 5.609-2.24 2.32-4.345 3.459-7.154 3.524zm-51.276-19.491c.68 2.512-.672 5.165-3.156 6.053-.309.11-.606.252-.886.422-2.306 1.399-3.045 4.41-1.651 6.725l.472.783c.134.223.252.456.352.696.998 2.394.114 5.106-1.974 6.477 1.629 1.491 3.238 2.941 4.827 4.352.366-.693.91-1.302 1.616-1.754l3.288-2.103c.252-.161.487-.348.702-.558 1.72-1.685 1.753-4.45.074-6.176-.236-.242-.442-.513-.613-.805-1.177-2.005-.512-4.588 1.486-5.77l2.644-1.564c.286-.169.552-.369.794-.596.723-.68 1.173-1.542 1.346-2.45-2.904-1.185-6.006-2.431-9.321-3.735z" fill="#F4B952" opacity=".7"/></g></g></g></svg>