<svg viewBox="0 0 1440 1024" xmlns="http://www.w3.org/2000/svg" xmlns:xlink="http://www.w3.org/1999/xlink"><title>WORK@2x</title><desc>Created with Sketch.</desc><defs><linearGradient x1="50%" y1="14.066%" x2="50%" y2="100%" id="a"><stop stop-color="#E9F0FB" offset="0%"/><stop stop-color="#fff" offset="100%"/></linearGradient><linearGradient x1="50%" y1="19.686%" x2="-33.812%" y2="294.476%" id="b"><stop stop-color="#F7FAFF" offset="0%"/><stop stop-color="#6B9AD9" offset="100%"/></linearGradient><linearGradient x1="61.633%" y1="-230.406%" x2="-172.763%" y2="372.978%" id="c"><stop stop-color="#E5EDFF" offset="0%"/><stop stop-color="#6B9AD9" offset="100%"/></linearGradient><linearGradient x1="108.253%" y1="-321.53%" x2="20.438%" y2="357.517%" id="d"><stop stop-color="#E5EDFF" offset="0%"/><stop stop-color="#6B9AD9" offset="100%"/></linearGradient><linearGradient x1="51.952%" y1="-8.256%" x2="0%" y2="251.682%" id="e"><stop stop-color="#F7FAFF" offset="0%"/><stop stop-color="#6B9AD9" offset="100%"/></linearGradient><linearGradient x1="157.42%" y1="-39.692%" x2="118.836%" y2="115.938%" id="f"><stop stop-color="#E5EDFF" offset="0%"/><stop stop-color="#6B9AD9" offset="100%"/></linearGradient><linearGradient x1="50%" y1="-104.29%" x2="50%" y2="100%" id="g"><stop stop-color="#fff" offset="0%"/><stop stop-color="#B3CDEF" offset="100%"/></linearGradient><linearGradient x1="50%" y1="79.011%" x2="84.885%" y2="-300.91%" id="h"><stop stop-color="#F7FAFF" offset="0%"/><stop stop-color="#6B9AD9" offset="100%"/></linearGradient><linearGradient x1="100%" y1="-255.298%" x2="-315.227%" y2="959.414%" id="i"><stop stop-color="#F7FAFF" offset="0%"/><stop stop-color="#6B9AD9" offset="100%"/></linearGradient><linearGradient x1="79.383%" y1="-51.765%" x2="50%" y2="189.01%" id="j"><stop stop-color="#F7FAFF" offset="0%"/><stop stop-color="#6B9AD9" offset="100%"/></linearGradient><path id="k" d="M0 0h137v160h-137z"/><linearGradient x1="50%" y1="0%" x2="50%" y2="189.01%" id="m"><stop stop-color="#F7FAFF" offset="0%"/><stop stop-color="#fff" offset="100%"/></linearGradient><linearGradient x1="83.28%" y1="11.256%" x2="59.889%" y2="97.31%" id="n"><stop stop-color="#476DB1" offset="0%"/><stop stop-color="#283F6F" offset="100%"/></linearGradient><linearGradient x1="61.627%" y1="22.214%" x2="61.627%" y2="146.271%" id="o"><stop stop-color="#476DB1" offset="0%"/><stop stop-color="#283F6F" offset="100%"/></linearGradient><linearGradient x1="100%" y1="50%" x2="0%" y2="50%" id="p"><stop stop-color="#2865C6" offset="0%"/><stop stop-color="#10378A" offset="100%"/></linearGradient><linearGradient x1="50%" y1="27.773%" x2="55.228%" y2="103.623%" id="q"><stop stop-color="#1542AB" offset="0%"/><stop stop-color="#2B68EE" offset="100%"/></linearGradient><linearGradient x1="60.731%" y1="0%" x2="52.081%" y2="50%" id="r"><stop stop-color="#3485F7" offset="0%"/><stop stop-color="#1A57CF" offset="100%"/></linearGradient><linearGradient x1="50%" y1="-10.877%" x2="50%" y2="100%" id="s"><stop stop-color="#FFE579" offset="0%"/><stop stop-color="#FEB755" offset="100%"/></linearGradient><linearGradient x1="50%" y1="-10.877%" x2="50%" y2="90.689%" id="t"><stop stop-color="#FFECB3" offset="0%"/><stop stop-color="#FEC35F" offset="100%"/></linearGradient><linearGradient x1="56.099%" y1="79.653%" x2="63.741%" y2="50%" id="u"><stop stop-color="#F5B79C" offset="0%"/><stop stop-color="#EC906C" offset="100%"/></linearGradient><linearGradient x1="85.097%" y1="109.304%" x2="4.854%" y2="-47.176%" id="v"><stop stop-color="#032258" offset="0%"/><stop stop-color="#133E94" offset="100%"/></linearGradient><linearGradient x1="-21.598%" y1="115.57%" x2="86.175%" y2="29.345%" id="w"><stop stop-color="#FAD0BA" offset="0%"/><stop stop-color="#F2A384" offset="100%"/></linearGradient><linearGradient x1="50%" y1="-142.327%" x2="50%" y2="170.165%" id="x"><stop stop-color="#95B7E5" offset="0%"/><stop stop-color="#476DB1" offset="100%"/></linearGradient><linearGradient x1="9797.155%" y1="25.34%" x2="75.941%" y2="70.686%" id="y"><stop stop-color="#F59BA9" offset="0%"/><stop stop-color="#F25267" offset="100%"/></linearGradient><linearGradient x1="50%" y1="-47.448%" x2="50%" y2="450.146%" id="z"><stop stop-color="#95B7E5" offset="0%"/><stop stop-color="#476DB1" offset="100%"/></linearGradient><linearGradient x1="50%" y1="32.119%" x2="67.286%" y2="115.978%" id="A"><stop stop-color="#84F0A8" offset="0%"/><stop stop-color="#48B676" offset="100%"/></linearGradient><linearGradient x1="149.379%" y1="-86.566%" x2="157.42%" y2="219.658%" id="B"><stop stop-color="#E5EDFF" offset="0%"/><stop stop-color="#6B9AD9" offset="100%"/></linearGradient><linearGradient x1="141.586%" y1="274.687%" x2="-20.564%" y2="157.736%" id="C"><stop stop-color="#F7FAFF" offset="0%"/><stop stop-color="#6B9AD9" offset="100%"/></linearGradient><linearGradient x1="60.731%" y1="0%" x2="50%" y2="100%" id="D"><stop stop-color="#fff" offset="0%"/><stop stop-color="#E5EEFF" offset="100%"/></linearGradient></defs><g fill="none"><path d="M.879 426.506c112.987-74.403 261.087-104.404 444.301-90.004 274.821 21.601 257.354 187.808 994.821 121.205v530.291h-1440l.879-561.492z" fill="url(#a)" opacity=".5"/><g id="Shadow" transform="translate(151.5 802.5)" fill="#E2EBFC" opacity=".806"><ellipse cx="596" cy="35.5" rx="314" ry="35.5"/><ellipse cx="991" cy="55.5" rx="89" ry="15.5"/><ellipse cx="170" cy="20.5" rx="170" ry="20.5"/></g><g transform="translate(882.5 715.5)" fill-rule="nonzero"><path id="Trash-base" fill="url(#b)" d="M0 5.955h122l-20 120.083h-82z"/><ellipse id="Trash-base" fill="url(#b)" cx="61" cy="124.557" rx="40" ry="6.451"/><ellipse id="Trash-base" fill="url(#c)" cx="70.5" cy="123.564" rx="26.5" ry="4.466"/><ellipse fill="url(#b)" cx="60.5" cy="6.451" rx="59.5" ry="6.451"/><g><path d="M39.018 106.836c2.639-.336 4.315-.85 5.029-1.541 1.743-1.687 1.591-5.053 4.52-5.053 4.727 0 8.229.835 10.507 2.504 2.711.355 4.851.218 6.418-.409 3.3.22 1.656 3.878 1.656 6.617-2.789 1.759-3.723 2.663-2.802 2.712l4.655 1.34-6.111 10.148c-6.42 1.691-10.339 1.691-11.756 0-.477-.569-4.709 3.747-4.709 2.739 0-6.199.573-8.906-.323-9.822-.298-.304-1.651 1.185-2.053.686-.632-.784-3.371-2.209-4.418-4.357-.49-1.004-.693-2.858-.611-5.563z" id="Paper-waste" fill="url(#d)"/><path d="M41.659 114.796c0 .901-1.185-3.612-1.378-3.943-1.04-1.789-1.447-3.132-1.22-4.031.278-1.103 4.268-1.981 4.5-2.557.75-1.866.988-3.027 2.4-3.548 2.277-.839 9.141-.786 10.785 1.977.284.477-.387 1.458-2.012 2.945-.062.057-3.084.77-4.617.317-.501-.148 1.413-1.964 1.285-2.233-.265-.556-2.171.39-2.495.541-.517.242-.692 1.567.221 2.334.493.414 2.317.323 2.274.589-.032.2-2.181.503-2.495.48-.768-.056-1.881-.871-3.339-2.443-.087 2.224.044 3.513.392 3.865.162.164-.443-2.423-.166-2.491.692-.17 2.474 1.771 3.113 1.82.853.065 1.801-.105 2.843-.508l-1.284 1.965c.199-.086 2.107-2.327 2.384-2.477.403-.219 1.194-.699 2.371-1.441l3.573-1.692c4.801-1.85 6.883-2.03 6.246-.541-.955 2.233-2.12 7.531-4.39 7.335-1.63-.141-1.799.088-3.032.568-.864.336 2.184.004 3.424.266 3.036.641 8.116.777 7.954 1.339-.301 1.047-6.016 6.746-7.954 7.586-.312.135.036-3.443-2.248-6.299-.473-.592-1.826-.884-4.06-.877 1.887.363 3.033.867 3.44 1.514 1.944 3.09 1.538 6.508 1.383 6.565-3.993 1.465-10.497 6.658-13.176 4.994-.482-.3 2.625-7.815 2.526-8.781-.056-.546-.571-2.118-1.252-2.333-.455-.144-1.115 1.08-1.275.809-.239-.405.789-1.692 1.275-1.89.936-.382 9.899-2.512 9.303-2.626-.803-.153-11.372 1.748-10.578 1.339.614-.316 1.86-1.332 3.737-3.048-1.715.819-2.961 1.229-3.737 1.229-.776 0-1.175-.41-1.199-1.229l-3.524 1.414v3.199z" id="Paper-waste" fill="url(#e)"/><path d="M43 114.203c.515 1.94.936 2.91 1.263 2.91.27 0 .387-1.524.828-2.91.36-1.132 1.118-2.199.854-2.035-.392.244-1.374.922-2.945 2.035z" id="Paper-waste" fill="#D2D9FF"/></g><g id="Paper-waste"><path d="M80.191 92.708c-1.937 1.824-2.991 3.225-3.162 4.203-.418 2.39 1.684 5.024-.685 6.746-3.824 2.779-7.148 4.164-9.973 4.153-2.402 1.307-4.053 2.675-4.951 4.105-2.799 1.763-3.62-2.164-5.23-4.379 1.222-3.063 1.446-4.344.672-3.842l-4.554 1.653-1.023-11.803c4.2-5.143 7.37-7.447 9.511-6.913.72.18 1.606-5.8 2.199-4.985 3.645 5.015 4.773 7.542 6.037 7.756.42.071.639-1.93 1.258-1.762.972.263 4.026-.195 6.136.927.986.524 2.241 1.905 3.765 4.141z" fill="url(#d)"/><path d="M73.375 87.822c-.53-.729 3.083 2.225 3.433 2.38 1.893.836 3.012 1.683 3.357 2.543.423 1.056-2.288 4.113-2.137 4.715.49 1.951.981 3.03.144 4.281-1.349 2.018-6.933 6.01-9.888 4.742-.51-.219-.545-1.407-.104-3.566.017-.082 2.042-2.437 3.549-2.971.492-.175.011 2.42.274 2.562.541.294 1.527-1.592 1.7-1.905.276-.5-.362-1.674-1.551-1.758-.642-.045-2.065 1.101-2.186.861-.091-.181 1.469-1.689 1.737-1.855.655-.406 2.034-.402 4.138.013-1.237-1.85-2.101-2.816-2.59-2.896-.227-.037 1.783 1.7 1.599 1.917-.46.544-3.043.022-3.588.358-.728.449-1.395 1.143-2.001 2.083l-.117-2.344c-.111.187-.336 3.121-.472 3.405-.198.414-.555 1.267-1.07 2.56l-1.896 3.47c-2.796 4.319-4.375 5.69-4.735 4.111-.541-2.368-2.713-7.339-.761-8.515 1.401-.844 1.404-1.129 2.119-2.242.501-.78-1.769 1.281-2.926 1.798-2.833 1.266-7.023 4.143-7.222 3.594-.372-1.024.9-8.995 1.975-10.814.173-.293 1.996 2.807 5.523 3.774.73.2 1.997-.359 3.8-1.677-1.74.816-2.964 1.082-3.673.798-3.39-1.357-5.071-4.36-4.979-4.498 2.369-3.533 4.577-11.559 7.723-11.788.566-.041 2.472 7.866 3.119 8.589.366.409 1.708 1.377 2.384 1.151.453-.151.267-1.529.556-1.404.431.187.357 1.833.08 2.279-.533.86-6.532 7.853-5.982 7.594.74-.348 8.172-8.101 7.77-7.303-.311.617-.721 2.171-1.231 4.663.906-1.671 1.672-2.735 2.3-3.192.628-.456 1.192-.36 1.692.29l2.019-3.216-1.881-2.588z" fill="url(#e)"/><path d="M72.638 89.09c-1.558-1.267-2.469-1.804-2.733-1.612-.218.159.584 1.461 1.041 2.841.374 1.128.389 2.437.506 2.149.174-.428.569-1.554 1.186-3.378z" fill="#D2D9FF"/></g><g><path d="M84.348 126.927c-2.046-1.7-3.564-2.575-4.556-2.625-2.422-.124-4.779 2.283-6.776.142-3.224-3.455-5.002-6.585-5.336-9.388-1.59-2.224-3.148-3.695-4.676-4.412-2.09-2.562 1.705-3.855 3.708-5.723 3.188.839 4.486.905 3.893.199l-2.195-4.316 11.586-2.454c5.614 3.54 8.287 6.405 8.018 8.594-.09.736 5.951.887 5.214 1.575-4.532 4.228-6.901 5.655-6.96 6.935-.019.425 1.992.399 1.902 1.033-.142.997.684 3.971-.172 6.201-.4 1.042-1.617 2.456-3.65 4.24z" fill="url(#d)"/><path d="M88.365 119.568c.659-.615-1.832 3.33-1.943 3.696-.598 1.98-1.303 3.194-2.114 3.641-.996.549-4.359-1.769-4.938-1.545-1.876.724-2.886 1.342-4.23.665-2.166-1.092-6.808-6.146-5.91-9.232.155-.532 1.33-.712 3.525-.538.084.007 2.666 1.729 3.38 3.159.233.467-2.399.306-2.509.584-.226.572 1.766 1.321 2.097 1.455.529.213 1.617-.563 1.555-1.753-.033-.643-1.344-1.914-1.121-2.064.168-.113 1.855 1.252 2.052 1.497.483.6.647 1.969.491 4.107 1.685-1.453 2.538-2.428 2.558-2.923.009-.23-1.469 1.976-1.707 1.82-.596-.39-.393-3.017-.793-3.516-.534-.668-1.304-1.245-2.31-1.732-.123-.059 2.441-.345 2.312-.401-.199-.087-3.138.047-3.436-.053-.435-.146-1.325-.396-2.67-.75l-3.674-1.458c-4.626-2.248-6.178-3.647-4.656-4.197 2.284-.825 6.951-3.586 8.356-1.793 1.008 1.287 1.291 1.255 2.483 1.829.835.402-1.487-1.599-2.141-2.684-1.602-2.656-4.967-6.463-4.446-6.728.971-.494 9.035-.203 10.97.641.311.136-2.541 2.322-3.072 5.939-.11.749.599 1.938 2.127 3.566-1.022-1.626-1.435-2.809-1.24-3.547.933-3.529 3.708-5.563 3.856-5.488 3.794 1.92 12.026 3.132 12.637 6.226.11.557-7.503 3.411-8.142 4.142-.361.413-1.159 1.862-.852 2.506.205.431 1.55.079 1.461.38-.133.45-1.775.577-2.251.357-.918-.424-8.587-5.523-8.264-5.01.436.692 9.033 7.121 8.193 6.819-.65-.233-2.242-.451-4.776-.653 1.769.695 2.918 1.326 3.447 1.893.529.567.502 1.139-.081 1.715l3.437 1.611 2.338-2.182z" fill="url(#e)"/><path d="M87.017 118.992c1.067-1.7 1.489-2.669 1.266-2.908-.184-.197-1.378.757-2.692 1.379-1.073.508-2.371.682-2.07.763.446.12 1.611.375 3.496.765z" fill="#D2D9FF"/></g></g><g fill-rule="nonzero"><path d="M199.5 515.5h258c1.105 0 2 .895 2 2v299c0 1.105-.895 2-2 2h-258c-1.105 0-2-.895-2-2v-299c0-1.105.895-2 2-2z" id="Locker-base" fill="url(#f)"/><path d="M215.57 529.5h225.86c2.209 0 4 1.791 4 4v75c0 2.209-1.791 4-4 4h-225.86c-2.209 0-4-1.791-4-4v-75c0-2.209 1.791-4 4-4z" id="Locker-base" fill="url(#g)"/><path d="M262.236 542.5h132.528c3.038 0 5.5 2.462 5.5 5.5s-2.462 5.5-5.5 5.5h-132.528c-3.038 0-5.5-2.462-5.5-5.5s2.462-5.5 5.5-5.5z" id="Handle" fill="url(#f)"/><path d="M215.57 626.5h225.86c2.209 0 4 1.791 4 4v75c0 2.209-1.791 4-4 4h-225.86c-2.209 0-4-1.791-4-4v-75c0-2.209 1.791-4 4-4z" id="Locker-base" fill="url(#g)"/><path d="M262.236 639.5h132.528c3.038 0 5.5 2.462 5.5 5.5s-2.462 5.5-5.5 5.5h-132.528c-3.038 0-5.5-2.462-5.5-5.5s2.462-5.5 5.5-5.5z" id="Handle" fill="url(#f)"/><path d="M215.57 723.5h225.86c2.209 0 4 1.791 4 4v75c0 2.209-1.791 4-4 4h-225.86c-2.209 0-4-1.791-4-4v-75c0-2.209 1.791-4 4-4z" fill="url(#g)"/><path d="M262.236 736.5h132.528c3.038 0 5.5 2.462 5.5 5.5s-2.462 5.5-5.5 5.5h-132.528c-3.038 0-5.5-2.462-5.5-5.5s2.462-5.5 5.5-5.5z" fill="url(#f)"/></g><g id="Decorative" fill-rule="nonzero"><path id="shelves" fill="url(#g)" d="M236.5 323.5h303v14h-303z"/><g transform="translate(236.5 262.5) translate(26)"><path d="M18.5 0c8.008 0 14.5 6.492 14.5 14.5v38.5h-29v-38.5c0-8.008 6.492-14.5 14.5-14.5z" id="decorative-lights-base" fill="url(#h)"/><circle id="decorative-lights-base" fill="url(#i)" cx="26.5" cy="14.5" r="3.5"/><circle id="decorative-lights-base" fill="url(#i)" cx="20" cy="23" r="2"/><circle id="decorative-lights-base" fill="url(#i)" cx="28" cy="27" r="2"/><circle id="decorative-lights-base" fill="url(#i)" cx="22.5" cy="38.5" r="1.5"/><path d="M15 46h7c8.284 0 15 6.716 15 15h-37c0-8.284 6.716-15 15-15z" fill="url(#j)"/></g><g><path d="M323.5 305.5h-6c-3.314 0-6 2.686-6 6s2.686 6 6 6h6v4h-6c-5.523 0-10-4.477-10-10s4.477-10 10-10h6v4z" id="Path" fill="url(#f)"/><path d="M321.5 297.5h21c1.105 0 2 .895 2 2v22c0 1.105-.895 2-2 2h-21c-1.105 0-2-.895-2-2v-22c0-1.105.895-2 2-2z" id="mug-base" fill="url(#b)"/></g><g><path d="M351.5 305.5h-6c-3.314 0-6 2.686-6 6s2.686 6 6 6h6v4h-6c-5.523 0-10-4.477-10-10s4.477-10 10-10h6v4z" id="Path" fill="url(#f)"/><path d="M349.5 297.5h21c1.105 0 2 .895 2 2v22c0 1.105-.895 2-2 2h-21c-1.105 0-2-.895-2-2v-22c0-1.105.895-2 2-2z" fill="url(#b)"/></g><g id="Picture"><path id="Picture-ftame" fill="url(#j)" d="M397.5 265.5h58v58h-58z"/><path fill="url(#b)" d="M407.5 277.5h38v38h-38z"/></g><g id="Picture"><path fill="url(#j)" d="M469.5 265.5h58v58h-58z"/><path fill="url(#b)" d="M479.5 277.5h38v38h-38z"/></g></g><g><path fill="url(#j)" fill-rule="nonzero" d="M581.5 241.5h163v183h-163z"/><g transform="translate(581.5 241.5) translate(13 12)"><mask id="l"><use xlink:href="#k"/></mask><use fill="url(#b)" fill-rule="nonzero" xlink:href="#k"/><g transform="translate(-8 17)" mask="url(#l)" fill-rule="nonzero"><circle fill="url(#j)" cx="120.5" cy="12.5" r="12.5"/><path d="M74 21.679c7 0 14 28.44 21 85.321h-42c7-56.88 14-85.321 21-85.321z" id="Rocket-base" fill="url(#g)"/><path d="M85.034 66.84c-3.818.605-7.824-4.654-8.947-11.745-1.123-7.091 1.062-13.33 4.88-13.935 3.818-.605 7.824 4.654 8.947 11.745 1.123 7.091-1.062 13.33-4.88 13.935z" id="Rocket-base" fill="#fff"/><path d="M70 57v46.168c-12.667 9.015-19 9.015-19 0s6.333-24.404 19-46.168zM89 87c12.667 9.428 19 16.095 19 20 0 3.905-6.333 3.905-19 0v-20z" fill="url(#f)"/><path d="M64.366 141.513c-2.459 3.328-6.41 5.487-10.866 5.487-4.025 0-7.638-1.761-10.111-4.555-1.783 2.742-4.874 4.555-8.389 4.555-3.373 0-6.355-1.67-8.166-4.227-1.36 1.375-3.247 2.227-5.334 2.227-2.218 0-4.211-.963-5.584-2.493-1.69 1.549-3.943 2.493-6.416 2.493-5.247 0-9.5-4.253-9.5-9.5s4.253-9.5 9.5-9.5c3.599 0 6.73 2.001 8.342 4.951 1.082-.606 2.33-.951 3.658-.951 1.887 0 3.61.697 4.928 1.847 1.75-2.904 4.934-4.847 8.572-4.847 2.17 0 4.178.691 5.817 1.865 1.891-5.173 6.856-8.865 12.683-8.865 2.06 0 4.012.461 5.759 1.287.997-4.179 4.756-7.287 9.241-7.287 3.807 0 7.091 2.24 8.607 5.473 1.688-1.536 3.931-2.473 6.393-2.473 3.537 0 6.623 1.933 8.258 4.801 1.984-1.146 4.286-1.801 6.742-1.801 5.827 0 10.792 3.692 12.683 8.865 1.639-1.174 3.647-1.865 5.817-1.865 3.638 0 6.822 1.942 8.572 4.847 1.318-1.15 3.042-1.847 4.928-1.847 1.649 0 3.174.532 4.412 1.434 1.524-3.213 4.797-5.434 8.588-5.434 5.247 0 9.5 4.253 9.5 9.5s-4.253 9.5-9.5 9.5c-2.753 0-5.233-1.171-6.968-3.042-1.366 1.846-3.559 3.042-6.032 3.042-2.087 0-3.974-.852-5.334-2.227-1.811 2.558-4.794 4.227-8.166 4.227-3.514 0-6.605-1.813-8.389-4.555-2.473 2.794-6.087 4.555-10.111 4.555-4.034 0-7.655-1.769-10.129-4.575-1.646 4.981-6.339 8.575-11.871 8.575-5.865 0-10.786-4.039-12.134-9.487z" fill="url(#m)"/></g></g></g><g fill-rule="nonzero"><path fill="url(#j)" d="M918.5 150.5h273v353h-273z"/><g><path fill="url(#b)" d="M933.5 325.5h244v145h-244z"/><path fill="url(#b)" d="M933.5 169.5h244v145h-244z"/><path id="Highlight" fill="#fff" d="M1020.5 325.5h35l-60 144h-35z"/><path fill="#fff" d="M1020.5 169.5h35l-60 144h-35z"/><path fill="#fff" d="M1080.5 327.5h15l-60 144h-15zM1080.5 171.5h15l-60 144h-15z"/></g></g><g fill-rule="nonzero"><path d="M753.526 434.576c22.585-36.852 50.377-50.6 83.377-41.244 33 9.357 47.158 70.658 42.473 183.905" id="Table-lamp-base" stroke="#6C90CA" stroke-width="4" stroke-linecap="round" stroke-linejoin="round"/><path d="M844.5 581.5h74c6.075 0 11 4.925 11 11h-96c0-6.075 4.925-11 11-11zM754.562 425l8.66 5c3.348 1.933 4.495 6.214 2.562 9.562l-13.5 23.383-20.785-12 13.5-23.383c1.933-3.348 6.214-4.495 9.562-2.562z" id="Table-lamp-base" fill="url(#n)"/><path d="M747.079 448c15.784 9.113 21.192 29.295 12.079 45.079l-5.5 9.526-57.158-33 5.5-9.526c9.113-15.784 29.295-21.192 45.079-12.079z" fill="url(#o)"/></g><g><g id="Foot"><path d="M812.21 802.673c.232-1.453 15.969-18.905 21.351-11.087 5.382 7.818 6.996 13.193 9.565 15.976 1.712 1.855 1.979 3.263.801 4.226l-12.104 4.263-7.873-4.263c-7.981-5.107-11.894-8.145-11.74-9.114z" id="Leg" fill="#F2A384" fill-rule="nonzero"/><path d="M823.576 811.698c2.457-1.732 7.255 3.508 12.227 2.36 4.972-1.148 6.802-7.334 8.2-7.076 4.087.756 9.66.295 16.031.823 15.676 1.299 17.244 1.643 16.722 9.071.356 1.542-16.046 6.141-49.207 13.797-2.086-2.915-3.504-5.759-4.255-8.533-1.126-4.161-2.176-8.71.281-10.442z" fill="url(#p)" fill-rule="nonzero"/><g id="Pants"><path d="M595.015 691.658c54.418 9.005 89.218 13.508 104.399 13.508 22.772 0 109.745 102.75 117.282 102.75 7.537 0 21.13-13.112 18.75-16.309-2.381-3.197-66.015-117.571-91.721-125.993-17.137-5.615-57.906-13.125-122.309-22.53l-26.401 48.575z" fill="url(#q)" fill-rule="nonzero"/><path d="M632.267 659.388l103.702 31.633 84.574 100.95" id="Texture" stroke="#3485F7" stroke-linecap="round" stroke-linejoin="round" stroke-dasharray="5,10"/></g></g><g><path d="M655.899 809.233l18.311 8.429c-2.57 3.636-2.999 6.381-1.287 8.236 1.712 1.855 2.38 1.855 2.002 0l-12.104 4.263-7.873-4.263.95-16.666z" fill="#F2A384" fill-rule="nonzero"/><path d="M653.932 824.639c2.527-1.135 5.7 5.05 10.332 5.05 4.632 0 7.513-5.616 8.697-5.05 3.461 1.656 8.483 2.461 14.01 4.409 13.598 4.792 14.915 5.48 12.937 12.6 0 1.583-15.445 2.374-46.335 2.374-1.25-3.309-1.923-6.4-2.021-9.272-.146-4.308-.146-8.976 2.381-10.111z" fill="url(#p)" fill-rule="nonzero"/><g><path d="M729.176 642.021c28.034 10.761 16.084 41.097 0 73.414-24.247 48.719-48.877 96.557-54.88 103.62-1.316 1.549-17.826-2.865-18.774-3.666-3.512-2.971 7.199-42.119 32.134-117.444-20.482-3.106-37.768-3.106-51.858 0-21.134 4.659-104.008 15.323-96.823-26.716 4.79-28.026 24.119-42.743 57.988-44.152 69.452 2.789 113.523 7.77 132.213 14.944z" fill="url(#r)" fill-rule="nonzero"/><path d="M596.182 653.946c24.205 5.779 45.801 8.668 64.789 8.668 28.482 0 62.975-7.297 60.732 10.536-1.495 11.889-19.126 56.495-52.892 133.817" id="Texture" stroke="#3485F7" stroke-linecap="round" stroke-linejoin="round" stroke-dasharray="5,10"/></g></g><g fill-rule="nonzero"><path d="M804.902 588.788l27.435-102.388c3.734 1.001 5.95 4.839 4.95 8.573l-23.811 88.865c-1.001 3.734-4.839 5.95-8.573 4.95zM702.5 585.5h102.5c1.933 0 3.5 1.567 3.5 3.5s-1.567 3.5-3.5 3.5h-95.5c-3.866 0-7-3.134-7-7z" id="Laptop-bsae" fill="url(#o)"/><path fill="url(#n)" d="M798.5 588.5h6v2h-6zM789.5 588.5h6v2h-6z"/></g><g fill-rule="nonzero"><path d="M539.058 488.441c19.56-11.36 43.549-2.867 48.801 8.482 5.252 11.349 20.151 11.476 13.946 62.888-4.137 34.275-.928 54.928 9.627 61.961 11.762.868 13.493 6.58 5.193 17.136-12.45 15.834-21.678 25.971-45.239 28.891-15.708 1.946-29.898-2.537-42.57-13.451-3.711-26.146-6.3-41.346-7.769-45.601-3.466-10.042-9.243-54.009-3.662-70.895 5.581-16.886 2.113-38.051 21.673-49.411z" fill="url(#s)"/><path d="M578.307 487.723l-4.872 5.231-6.856-8.257-7.878 8.343-5.998-8.071-7.346 7.985-4.544-5.472c5.456-2.809 11.195-4.149 16.735-4.376l1.611 2.168 2.038-2.159c6.396.293 12.364 2.024 17.111 4.609zm16.582 18.738c2.706 3.463 5.387 7.873 6.968 15.415l-.193.21-6.856-8.257-7.878 8.343-6.024-8.107-7.471 8.02-6.856-8.257-7.878 8.343-5.998-8.071-7.346 7.985-6.856-8.257-7.878 8.343-6.024-8.107-3.024 3.531c.679-3.696 1.487-7.348 2.697-10.837l.603-.704 6.205 8.35 7.661-8.113 6.809 8.2 7.403-8.436 6.205 8.35 7.661-8.113 6.809 8.2 7.555-8.436 6.205 8.35 7.501-7.944zm8.342 35.465c-.073 2.464-.214 5.101-.431 7.926l-1.135 1.234-6.856-8.257-7.878 8.343-6.024-8.107-7.471 8.02-6.856-8.257-7.878 8.343-5.998-8.071-7.346 7.985-6.856-8.257-7.878 8.343-6.024-8.107-4.675 5.459-3.798-3.252 8.75-10.217 6.205 8.35 7.661-8.113 6.809 8.2 7.403-8.436 6.205 8.35 7.661-8.113 6.809 8.2 7.555-8.436 6.205 8.35 7.661-8.113 6.809 8.2 1.373-1.565zm-2.56 29.136c-.198 2.517-.348 4.945-.451 7.284l-5.412-6.518-7.878 8.343-6.024-8.107-7.471 8.02-6.856-8.257-7.878 8.343-5.998-8.071-7.346 7.985-6.856-8.257-7.878 8.343-6.024-8.107-4.675 5.459-3.798-3.252 8.75-10.217 6.205 8.35 7.661-8.113 6.809 8.2 7.403-8.436 6.205 8.35 7.661-8.113 6.809 8.2 7.555-8.436 6.205 8.35 7.661-8.113 5.622 6.771zm.36 29.433c.407 2.749.941 5.262 1.602 7.538l-.968 1.052-6.856-8.257-7.878 8.343-6.024-8.107-7.471 8.02-6.856-8.257-7.878 8.343-5.998-8.071-7.346 7.985-6.856-8.257-7.878 8.343-6.024-8.107-4.32 5.045c-.431-1.683-.879-3.761-1.324-6.14l5.921-6.914 6.205 8.35 7.661-8.113 6.809 8.2 7.403-8.436 6.205 8.35 7.661-8.113 6.809 8.2 7.555-8.436 6.205 8.35 7.661-8.113 5.982 7.204zm19.564 24.478c1.426 1.662 1.559 3.948.4 6.859l-5.986 6.339-5.998-8.071-7.346 7.985-6.856-8.257-7.878 8.343-6.024-8.107-7.471 8.02-6.856-8.257-7.878 8.343-5.998-8.071-7.346 7.985-6.856-8.257-7.878 8.343-5.263-7.082c-.469-2.966-.909-5.652-1.321-8.059l.836-.976 6.205 8.35 7.661-8.113 6.809 8.2 7.403-8.436 6.205 8.35 7.661-8.113 6.809 8.2 7.555-8.436 6.205 8.35 7.661-8.113 6.809 8.2 7.403-8.436 6.205 8.35 5.129-5.431zm-20.812 32.019c-1.315 1.024-2.679 1.984-4.108 2.879l-.866-1.043-3.074 3.255c-2.038 1.02-4.215 1.925-6.568 2.715l-4.261-5.733-7.471 8.02-6.856-8.257-7.878 8.343-5.998-8.071-5.656 6.147c-1.668-.601-3.314-1.293-4.939-2.075l-3.607-4.344-1.474 1.561c-1.416-.873-2.816-1.819-4.198-2.837l5.912-6.261 6.809 8.2 7.403-8.436 6.205 8.35 7.661-8.113 6.809 8.2 7.555-8.436 6.205 8.35 7.661-8.113 4.734 5.701z" fill="url(#t)"/><path d="M582.557 490.522c1.365 2.737 2.316 5.933 2.703 9.657 1.711 16.482 5.596 32.94 11.655 49.374 1.187 2.941 2.9 5.649 5.139 8.122-.079.702-.162 1.414-.249 2.136-2.88 23.859-2.2 41.117 2.039 51.775-21.316.814-36.553-1.825-45.713-7.919-24.239-16.125-38.706-63.569-34.971-90.9.255-1.864.549-3.637.878-5.323 2.444-7.403 6.597-14.112 15.019-19.003 15.6-9.06 34.017-5.492 43.499 2.081z" fill="#EEB75E" opacity=".5"/></g><g><path d="M546.498 475.275c18.387 21.395 32.801 10.413 29.662 4.684-2.185-3.989.098-13.769 6.85-29.342-18.273-21.406-27.128-28.92-26.566-22.541.843 9.568.298 1.095-1.343 14.465-1.074 8.757-3.906 19.436-8.493 32.037l-.11.697z" fill="url(#u)"/><path d="M600.65 435.574c2.049-8.834 6.129-14.667 12.239-17.498 9.165-4.247-.011-22.131-15.545-30.7-15.534-8.57-34.952-10.12-52.532 4.333-17.579 14.453-18.322 31.633-18.313 51.237.009 19.604-37.737 29.704-34.295 59.217 3.441 29.514 41.659 22.292 45.946 13.586 4.286-8.706-3.155-37.882 6.702-42.456 6.571-3.05 10.22-11.028 10.948-23.934l44.85-13.785z" fill="url(#v)" fill-rule="nonzero"/><path d="M603.162 436.025l1.939-8.413c3.529-5.654.737-13.452-1.949-12.693-7.607 2.149-23.06 6.336-33.392 7.993-1.851.297-5.381 9.415-6.829 9.523-1.699.127-1.225-8.796-2.146-9.007-2.401-3.415-9.785-6.108-11.863 4.483-1.386 7.061.926 10.619 6.935 10.674l-.393 12.324c5.16 9.368 11.215 15.784 18.167 19.246 5.628 2.803 9.524 3.542 11.689 2.218 3.845-2.352 8.713-10.237 13.655-21.831 2.012-.224 5.814.518 6.192-1.872.139-.882-1.473-8.849-2.004-12.645z" fill="url(#w)"/></g><g fill-rule="nonzero"><path d="M664.663 578.645l19.118-2.036c7.61-4.507 13.999-6.761 19.168-6.761 7.753 0 17.864 8.844 23.841 9.781 5.977.937.604 4.805-2.185 4.805-2.79 0-4.583-3.472-13.82-1.54s-10.387 5.849-13.421 6.575c-2.023.484-5.65.231-10.883-.759l-19.953 7.23-1.865-17.296z" fill="#F2A384"/><path d="M552.171 469.836c8.061-1.84 30.968 3.373 33.535 28.095 2.566 24.723 6.537 50.05 9.226 55.89 2.689 5.84 14.616 35.716 64.501 16.337 6.315-.377 10.112 2.644 11.393 9.064 1.28 6.42.46 12.568-2.46 18.445-45.145 14.728-75.797 16.716-91.956 5.966-24.239-16.125-51.985-69.535-48.25-96.866 3.735-27.331 15.949-35.091 24.011-36.931z" fill="url(#s)"/><path d="M602.332 565.591l-2.135-.236.128 11.474-9.965-1.647.197 10.959-10.668-1.177.128 11.474-9.921-1.639.096 3.969c-1.761-1.576-3.525-3.315-5.279-5.195l-.226-4.735 10.264 1.696-.125-11.158 10.594 1.169-.426-11.316 10.264 1.696-.125-11.158 3.042.336c1.077 1.735 2.438 3.626 4.156 5.489zm-9.62-19.51l-5.701-4.036-5.451 10.098-7.917-6.271-5.14 9.681-8.76-6.201-5.451 10.098-7.882-6.244-3.937 7.525c-.949-1.838-1.866-3.692-2.745-5.554l4.841-9.808 8.155 6.459 5.3-9.82 8.699 6.158 5.114-10.104 8.155 6.459 5.3-9.82 6.007 4.252c.478 2.641.952 5.037 1.413 7.126zm-25.251-73.959c.956.415 1.912.884 2.859 1.412l5.404 3.826c1.496 1.33 2.902 2.855 4.165 4.594l-1.711 3.27-8.76-6.201-5.451 10.098-7.917-6.271-5.14 9.681-8.76-6.201-5.451 10.098-5.265-4.17c.591-1.752 1.227-3.373 1.9-4.873l1.796 1.423 5.3-9.82 8.699 6.158 5.114-10.104 8.155 6.459 5.061-9.377zm19.173 34.26c.345 2.98.707 5.935 1.08 8.83l-.244.466-8.76-6.201-5.451 10.098-7.917-6.271-5.14 9.681-8.76-6.201-5.451 10.098-7.882-6.244-5.029 9.614-3.165-2.241c-.576-2.432-1.041-4.807-1.386-7.107l2.772 1.962 4.968-10.065 8.155 6.459 5.3-9.82 8.699 6.158 5.114-10.104 8.155 6.459 5.3-9.82 8.699 6.158.943-1.91zm39.765 70.121c1.748.118 3.59.144 5.531.066l3.551 7.741-9.773 2.549 4.638 9.931-10.224 3.264 4.01 8.741c-5.744.882-11.084 1.409-16.02 1.58l-.302-.6 10.066-2.625-4.653-10.143 10.153-3.241-4.992-10.165 10.066-2.625-2.052-4.473zm27.512-4.346c1.787-.598 3.627-1.263 5.521-1.999 2.07-.124 3.87.118 5.399.725l-3.544 2.364 7.474 8.707-8.692 5.144 7.196 8.268-7.508 5.008c-2.397.724-4.75 1.41-7.059 2.056l-1.833-2.135 8.867-5.914-7.6-8.395 8.953-5.298-7.268-8.468.094-.063z" id="Shape" fill="url(#t)"/></g></g><g fill-rule="nonzero"><path id="chair-legs" fill="url(#f)" d="M563.5 717.5h12v49h-12z"/><g transform="translate(470.5 528.5) translate(25 237)"><circle id="wheel" fill="url(#n)" cx="9" cy="64" r="9"/><circle id="wheel" fill="url(#n)" cx="135" cy="64" r="9"/><circle fill="url(#n)" cx="74" cy="74" r="9"/><path d="M61.882 11.914l-.693-7.452c-.014-.151-.019-.302-.016-.453.046-2.209 1.873-3.962 4.082-3.916l17.189.355.224.011c2.203.17 3.851 2.093 3.681 4.295l-.493 6.401 54.728 37.564c.148.102.292.21.431.325 2.605 2.149 2.974 6.004.825 8.609-2.466 2.988-6.709 3.798-10.102 1.927l-47.59-26.241-2.606 33.857c-.291 3.784-3.397 6.735-7.191 6.833-3.759.097-6.949-2.736-7.297-6.48l-3.268-35.146-49.287 27.177c-3.393 1.871-7.636 1.061-10.102-1.927-2.149-2.605-1.78-6.459.825-8.609.139-.115.283-.223.431-.325l55.812-38.309.415 1.504z" id="Path" fill="url(#x)"/></g><path d="M473.388 567.22v-22.999c0-3.537 1.263-6.958 3.561-9.646 5.327-6.231 14.697-6.964 20.929-1.637l7.247 6.196c10.768 9.206 17.221 22.476 17.814 36.631 1.245 29.744 4.334 53.059 9.266 69.946 9.125 31.245 42.541 36.167 84.38 36.167 41.838 0 39.214 27.211 27.64 42.075-11.574 14.864-103.956 22.117-142.933-9.979-25.985-21.397-35.286-70.315-27.904-146.753z" id="Path" fill="url(#n)"/></g><g id="Book" fill-rule="nonzero"><path id="Book-base" fill="#F2F5FF" d="M913.5 558.5h73v13h-73z"/><path d="M914.5 559.513c1.757.16 3.154 2.706 3.154 5.825 0 3.118-1.397 5.665-3.154 5.825v-11.649z" id="Book-base" fill="#D33C50"/><path id="Book-base" fill="url(#y)" d="M913.5 558.5h1v13h-1zM915.5 555.5h72c.552 0 1 .448 1 1v2c0 .552-.448 1-1 1h-74v-2c0-1.105.895-2 2-2zM913.5 570.5h74c.552 0 1 .448 1 1v2c0 .552-.448 1-1 1h-72c-1.105 0-2-.895-2-2v-2z"/></g><g id="leaves" fill-rule="nonzero"><g id="-leaf"><path d="M865.082 507.243c3.587-.655 4.638 7.534 6.011 8.71 1.37 1.165 4.187.829 4.712 4.075.525 3.246-2.1 3.886-1.661 6.582.439 2.696 6.179.679 6.862 4.937.683 4.258-3.458 6.798-3.042 9.362.416 2.564 2.924 2.896 3.84 8.572.916 5.676-3.303 8.105-9.949 10.532-6.646 2.428-11.386 1.785-12.425-4.32-1.039-6.105 6.212-8.003 6.168-11.505-.04-3.49-5.106-3.941-5.768-7.859-.662-3.919 6.249-5.715 5.729-8.847-.521-3.132-6.366-3.244-6.914-6.496-.548-3.252.681-4.113 2.942-5.936 2.267-1.803-.093-7.153 3.494-7.808z" id="-leaf-base" fill="url(#g)"/><path d="M871.48 556.442c3.137-2.013 4.406-4.627 3.864-7.931-.027-.167.065-.339.205-.385.141-.046.277.051.304.217.589 3.597-.819 6.5-4.158 8.653.634 1.627 1.253 3.237 1.676 5.182.643 2.955.775 4.982.398 6.084.037.224-.084.466-.271.54-.187.074-.622.053-.659-.171.043-1.472-.134-3.418-.533-5.838-.393-2.385-1.749-5.541-2.72-8.604-2.26.977-4.314.135-6.117-2.501-.092-.135-.073-.332.044-.44.117-.108.286-.085.378.05 1.668 2.436 3.488 3.185 5.517 2.314-.422-1.401-.745-2.77-.839-4.024-.179-2.413.535-6.362 1.148-10.477-2.314.905-4.409-.003-6.239-2.698-.093-.137-.072-.33.046-.431.118-.101.29-.072.382.065 1.697 2.499 3.56 3.303 5.646 2.483.085-.033.175-.016.244.037.405-2.776.745-5.6.718-8.053-.022-2.226-.444-4.256-.992-6.07-.09 0-.162-.078-.165-.184l.057-.164c-.188-.596-.387-1.167-.589-1.714l-.008.003c-1.346.46-2.553-.09-3.586-1.621-.063-.093-.047-.222.036-.286.083-.065.201-.042.264.052.937 1.388 1.975 1.865 3.152 1.471-.484-1.282-.965-2.421-1.302-3.406-.962-2.814-1.299-6.355-1.235-6.368.077-.015.438 3.612 1.431 6.325.574 1.568 1.421 3.381 2.129 5.447 1.124-.228 1.882-1.125 2.295-2.728.029-.112.131-.185.228-.162.097.023.152.132.123.244-.442 1.716-1.286 2.743-2.515 3.037.456 1.388.841 2.887 1.035 4.5.573 4.751-.343 9.578-.963 13.788 2.341-.49 3.908-2.405 4.74-5.795.042-.17.19-.286.33-.259.14.026.22.185.178.354-.899 3.657-2.664 5.801-5.269 6.333l-.071.003c-.351 2.482-.563 4.731-.253 6.596.437 2.631 1.172 4.622 1.914 6.535z" fill="#98BBE9"/></g><g><path d="M889.68 510.904c-3.407-1.041-5.619 7.162-7.145 8.246-1.526 1.084-4.271.549-5.277 3.843-1.006 3.293 1.53 4.068.702 6.779-.828 2.711-6.323.487-7.657 4.854-1.334 4.367 2.528 6.949 1.737 9.54-.791 2.591-3.423 2.978-5.189 8.76-1.766 5.781 2.316 7.961 8.943 9.986 6.627 2.024 11.622 1.236 13.388-4.546 1.766-5.781-5.418-7.588-4.936-10.983.482-3.395 5.674-3.738 6.82-7.491 1.146-3.752-5.558-5.8-4.621-8.866.936-3.066 6.763-2.807 7.719-5.934.955-3.127-.144-4.075-2.129-6.067s1.053-7.081-2.354-8.122z" fill="url(#s)"/><path d="M876.641 559.414c-2.998-1.846-3.967-4.383-2.96-7.681.051-.166-.021-.335-.16-.378-.139-.042-.293.058-.344.224-1.099 3.597-.025 6.415 3.168 8.385-.868 1.616-1.719 3.216-2.41 5.139-1.051 2.922-1.447 4.904-1.188 5.946-.067.22.03.445.218.502.188.057.649.003.717-.217.138-1.422.568-3.321 1.291-5.696.709-2.33 2.502-5.435 3.895-8.436 2.234.759 4.503-.13 6.748-2.625.116-.129.123-.313.015-.41-.108-.097-.29-.071-.406.058-2.08 2.311-4.094 3.101-6.101 2.415.624-1.394 1.141-2.754 1.399-3.989.487-2.336.284-6.178.204-10.206 2.24.77 4.515-.118 6.765-2.619.116-.129.123-.313.015-.41-.108-.097-.29-.071-.406.058-2.13 2.367-4.192 3.139-6.248 2.362l-.137-.012c-.045-2.749-.014-5.552.348-7.997.328-2.214 1.025-4.213 1.818-5.991l.041.01c.099.023.192-.052.207-.167.011-.084-.022-.166-.08-.213.266-.577.54-1.129.812-1.658 1.291.474 2.595-.014 3.872-1.433.078-.087.082-.212.008-.279-.074-.067-.198-.05-.277.037-1.158 1.287-2.281 1.711-3.409 1.303.665-1.266 1.306-2.385 1.781-3.354 1.341-2.743 2.165-6.261 2.103-6.28-.073-.022-.934 3.582-2.292 6.222-.79 1.536-1.89 3.309-2.887 5.348-1.066-.34-1.707-1.306-1.937-2.939-.016-.116-.11-.199-.209-.185-.099.014-.166.119-.15.236.246 1.747.955 2.847 2.115 3.263-.646 1.362-1.236 2.84-1.654 4.443-1.242 4.767-.941 9.593-.87 13.774-2.296-.581-3.671-2.535-4.149-5.934-.024-.172-.161-.295-.306-.275-.145.02-.243.176-.218.349.52 3.696 2.09 5.887 4.683 6.497.025 2.406-.06 4.579-.609 6.378-.786 2.575-1.801 4.541-2.815 6.434z" fill="#EFDDB8" style="mix-blend-mode:multiply"/></g></g><g id="vase" fill-rule="nonzero"><path id="vase-base" fill="url(#x)" d="M850.5 566.5h50l-11.111 32h-27.778z"/><path d="M851.5 565.5h47c1.105 0 2 .895 2 2v6c0 1.105-.895 2-2 2h-47c-1.105 0-2-.895-2-2v-6c0-1.105.895-2 2-2z" fill="url(#z)"/></g><g id="Book" fill-rule="nonzero"><path id="Book-base" fill="#F2F5FF" d="M904.5 576.5h73v13h-73z"/><path d="M905.5 577.513c1.757.16 3.154 2.706 3.154 5.825 0 3.118-1.397 5.665-3.154 5.825v-11.649z" id="Book-base" fill="#7D95C9"/><path fill="url(#f)" d="M904.5 576.5h1v13h-1zM906.5 573.5h72c.552 0 1 .448 1 1v2c0 .552-.448 1-1 1h-74v-2c0-1.105.895-2 2-2zM904.5 588.5h74c.552 0 1 .448 1 1v2c0 .552-.448 1-1 1h-72c-1.105 0-2-.895-2-2v-2z"/></g><g fill-rule="nonzero"><path d="M969.5 829.442v-221.942h-23.553l23.553 221.942zm-28-225.942h32v242c0 1.657-1.343 3-3 3-1.706 0-3.137-1.287-3.317-2.983l-25.683-242.017z" fill="url(#x)"/><path d="M664.5 829.442l23.553-221.942h-23.553v221.942zm28-225.942l-25.683 242.017c-.18 1.696-1.611 2.983-3.317 2.983-1.657 0-3-1.343-3-3v-242h32z" id="Shape" fill="url(#x)"/><path fill="url(#n)" d="M643.5 592.5h346v11h-346z"/></g><g fill-rule="nonzero"><g><path d="M231.5 383.5h3v-11c0-3.314 2.686-6 6-6s6 2.686 6 6v17c0 3.314-2.686 6-6 6-.341 0-.675-.028-1-.083-.325.055-.659.083-1 .083h-7v16h-20v-43c0-5.523 4.477-10 10-10s10 4.477 10 10v15z" fill="url(#A)"/><path d="M212.5 364.136v47.364h-1v-43c0-1.565.359-3.045 1-4.364zm3-3.637v51.001h-1v-50.141c.314-.308.648-.595 1-.859zm3-1.541v52.542h-1v-52.168c.325-.142.658-.267 1-.374zm3-.458v53h-1v-52.951c.329-.033.663-.049 1-.049zm3 .458v52.542h-1v-52.8c.34.069.674.155 1 .258zm3 1.541v51.001h-1v-51.662c.347.201.681.422 1 .661zm3 3.637v47.364h-1v-49.001c.383.51.719 1.058 1 1.637zm3 19.364v12h-1v-12h1zm3-15.472v27.472h-1v-26.318c.283-.426.62-.814 1-1.154zm3-1.445v28.834c-.325.055-.659.083-1 .083v-28.659c.322-.114.656-.201 1-.258zm3 .258v28.317c-.322.114-.656.201-1 .258v-28.834c.344.058.678.145 1 .258zm3 2.341v23.636c-.283.426-.62.814-1 1.154v-25.944c.38.34.717.728 1 1.154z" fill="#42B16D"/><g id="vase"><path fill="url(#f)" d="M197.5 404.5h50l-11.111 32h-27.778z"/><path d="M198.5 403.5h47c1.105 0 2 .895 2 2v6c0 1.105-.895 2-2 2h-47c-1.105 0-2-.895-2-2v-6c0-1.105.895-2 2-2z" fill="url(#B)"/></g></g><path fill="url(#g)" d="M170.5 436.5h253v14h-253z"/><g><path id="Rectangle-11" fill="#F2F5FF" d="M265.5 437.5v-72h12v72z"/><path d="M262.5 435.5v-72c0-.552.448-1 1-1h2c.552 0 1 .448 1 1v74h-2c-1.105 0-2-.895-2-2z" id="Rectangle-11-Copy" fill="url(#C)"/><path d="M277.5 437.5v-74c0-.552.448-1 1-1h2c.552 0 1 .448 1 1v72c0 1.105-.895 2-2 2h-2z" id="Rectangle-11-Copy-3" fill="url(#C)"/><path id="Rectangle-11" fill="#F2F5FF" d="M303.658 437.5v-62.4h12.632v62.4z"/><path d="M300.5 435.5v-62c0-.552.448-1 1-1h2.211c.552 0 1 .448 1 1v64h-2.211c-1.105 0-2-.895-2-2z" id="Rectangle-11-Copy" fill="url(#C)"/><path d="M316.289 437.5v-64c0-.552.448-1 1-1h2.211c.552 0 1 .448 1 1v62c0 1.105-.895 2-2 2h-2.211z" id="Rectangle-11-Copy-3" fill="url(#C)"/><path id="Rectangle-11" fill="#F2F5FF" d="M284.5 437.5v-73h13v73z"/><path d="M281.5 435.5v-72c0-.552.448-1 1-1h2c.552 0 1 .448 1 1v74h-2c-1.105 0-2-.895-2-2z" id="Rectangle-11-Copy" fill="url(#f)"/><path d="M296.5 437.5v-74c0-.552.448-1 1-1h2c.552 0 1 .448 1 1v72c0 1.105-.895 2-2 2h-2z" id="Rectangle-11-Copy-3" fill="url(#f)"/><path fill="#F2F5FF" d="M322.5 437.5v-73h13v73z"/><path d="M319.5 435.5v-72c0-.552.448-1 1-1h2c.552 0 1 .448 1 1v74h-2c-1.105 0-2-.895-2-2z" fill="url(#f)"/><path d="M334.5 437.5v-74c0-.552.448-1 1-1h2c.552 0 1 .448 1 1v72c0 1.105-.895 2-2 2h-2z" fill="url(#f)"/></g><g transform="translate(170.5 358.5) translate(188 31)"><circle stroke="#D2E1F5" cx="18" cy="18" r="18"/><path d="M10 28h-1l3-6h8l2.077 4.154.673-1.154h-.75l2.5-5 2.5 5h-.75l1.75 3h-1.25l2.25 3h-4v3h-1v-3h-2v3h-12v-6zm12 0v.333l.25-.333h-.25z" fill="url(#j)"/><path d="M15 33h7c8.284 0 15 6.716 15 15h-37c0-8.284 6.716-15 15-15z" fill="url(#j)"/></g></g><g fill-rule="nonzero"><path stroke="#D2E1F5" stroke-width="3" d="M785.5 305.5h51v60h-51z"/><path fill="url(#b)" d="M805.5 232.5h51v60h-51zM849.5 325.5h47v50h-40.07l-6.93-6.227z"/></g><g fill-rule="nonzero"><g id="Leaves"><path d="M1180.709 568.126c-14.093-2.565-18.272 29.782-23.677 34.432-5.393 4.609-16.459 3.298-18.544 16.12-2.084 12.823 8.231 15.336 6.489 25.984-1.742 10.649-24.289 2.717-27 19.538-2.711 16.82 13.552 26.828 11.901 36.955-1.651 10.127-11.51 11.456-15.144 33.876-3.633 22.42 12.934 31.987 39.039 41.534 26.105 9.548 44.738 6.982 48.859-17.134 4.12-24.116-24.366-31.57-24.176-45.398.177-13.784 20.093-15.592 22.718-31.072 2.625-15.479-24.528-22.531-22.463-34.904 2.066-12.373 25.04-12.848 27.212-25.695 2.172-12.847-2.653-16.237-11.529-23.423-8.9-7.105.407-28.249-13.686-30.814z" id="Leaf" fill="url(#g)"/><path d="M1154.485 764.688c.513.333 1.112.107 1.338-.505.226-.612-.007-1.378-.52-1.71-12.336-7.933-17.318-18.256-15.169-31.313.108-.658-.252-1.338-.805-1.52-.553-.182-1.089.203-1.197.86-2.339 14.23 3.199 25.702 16.354 34.189zM1161.603 710.581c.573.116 1.052-.343 1.071-1.026.019-.682-.43-1.329-1.003-1.444-9.279-1.871-15.476-9.432-18.745-22.888-.164-.669-.744-1.127-1.295-1.022-.551.104-.865.731-.7 1.399 3.513 14.436 10.436 22.895 20.672 24.98zM1163.062 636.078c.397.055.729-.268.741-.722.012-.453-.3-.865-.697-.92-4.79-.659-7.985-4.228-9.679-10.875-.113-.443-.514-.729-.896-.639-.381.089-.599.52-.485.963 1.862 7.297 5.561 11.434 11.017 12.193zM1165.933 627.949c-.385-.131-.589-.582-.455-1.007.133-.425.553-.663.938-.532 4.642 1.58 8.741-.303 12.447-5.81.248-.368.712-.46 1.036-.205.325.255.387.762.14 1.13-4.071 6.053-8.818 8.231-14.105 6.424zM1162.231 693.978c-.553-.218-.839-.902-.64-1.528.199-.625.81-.956 1.363-.739 8.196 3.228 15.522.039 22.207-9.838.365-.541 1.038-.657 1.503-.258.465.399.545 1.162.179 1.703-7.225 10.682-15.491 14.272-24.612 10.66zM1162.43 753.416c-.545-.245-.825-.951-.626-1.578.2-.626.804-.936 1.35-.692 8.083 3.623 15.333.696 21.979-9.046.363-.534 1.028-.623 1.486-.199.457.424.533 1.202.17 1.736-7.184 10.536-15.364 13.831-24.359 9.779z" id="leaves-base" fill="#98BBE9"/><path d="M1146.206 809.151c-.147.884.328 1.838 1.061 2.131.733.292 2.443.207 2.591-.68-.162-5.813.548-13.497 2.131-23.059 2.375-14.343 13.528-35.771 14.768-52.168 1.229-16.359-7.848-50.595-7.536-75.315.223-20.009 8.592-36.007 12.381-47.091 3.799-11.12 5.142-25.105 4.89-25.155-.302-.06-1.742 14.267-5.66 24.985-3.907 10.68-10.999 24.236-13.012 40.84-3.762 30.96 8.401 62.706 5.015 82.999-3.386 20.293-11.208 30.949-15.029 48.482-2.543 11.675-3.075 19.679-1.601 24.03z" fill="#8FAFDA"/></g><g id="Leaves"><path d="M1080.777 581.114c13.628-4.163 22.397 28.391 28.487 32.682 6.091 4.291 17.067 2.143 21.059 15.212 3.992 13.069-6.151 16.167-2.865 26.927 3.286 10.76 25.271 1.877 30.564 19.205 5.293 17.329-10.167 27.617-7.027 37.898 3.14 10.282 13.657 11.796 20.664 34.738 7.007 22.942-9.328 31.635-35.837 39.732-26.51 8.097-46.467 5.01-53.474-17.932-7.007-22.942 21.727-30.179 19.829-43.657-1.897-13.478-22.648-14.795-27.196-29.684-4.548-14.89 22.267-23.08 18.551-35.246-3.716-12.166-27.011-11.086-30.801-23.496-3.791-12.41.611-16.181 8.563-24.109 7.952-7.928-4.145-28.109 9.484-32.271z" id="Leaf" fill="url(#A)"/><path d="M1133.585 775.847c-.501.306-1.162.062-1.477-.546-.315-.608-.165-1.35.335-1.656 12.021-7.36 15.924-17.448 11.924-30.542-.201-.66.086-1.332.642-1.502.556-.17 1.17.227 1.372.887 4.366 14.295.028 25.508-12.797 33.36zM1118.903 722.755c-.581.134-1.123-.304-1.212-.978-.088-.675.311-1.33.892-1.464 9.411-2.175 15.029-9.951 16.955-23.626.096-.683.644-1.17 1.224-1.089.58.082.972.701.875 1.384-2.068 14.683-8.346 23.373-18.734 25.773zM1107.664 648.317c-.396.09-.767-.206-.828-.662-.061-.456.211-.898.607-.988 4.781-1.086 7.624-4.981 8.597-11.888.065-.461.438-.789.834-.734.396.056.664.475.599.936-1.068 7.587-4.361 12.099-9.809 13.336zM1104.055 640.183c-5.209 2.018-10.461.115-15.586-5.58-.311-.346-.323-.843-.026-1.111.297-.267.79-.204 1.102.142 4.666 5.185 9.2 6.827 13.772 5.056.379-.147.852.068 1.055.48.204.412.062.865-.317 1.012zM1116.851 706.061c-9.138 3.479-18.399.048-27.533-10.101-.461-.512-.484-1.243-.052-1.632.432-.389 1.156-.289 1.617.223 8.454 9.395 16.66 12.434 24.867 9.31.554-.211 1.249.111 1.554.718.304.608.102 1.271-.452 1.482zM1124.218 764.615c-9.138 3.479-18.399.048-27.533-10.101-.461-.512-.484-1.243-.052-1.632.432-.389 1.156-.289 1.617.223 8.454 9.395 16.66 12.434 24.867 9.31.554-.211 1.249.111 1.554.718.304.608.102 1.271-.452 1.482z" id="Leaves-base" fill="#5ACE87"/><path d="M1147.93 819.796c.267.874-.126 1.768-.877 1.997-.751.229-2.596.019-2.863-.855-.537-5.645-2.24-13.181-5.109-22.609-4.304-14.141-18.732-35.466-22.068-51.518-3.336-16.052 1.638-50.025-1.994-74.742-2.955-20.111-13.636-35.721-18.973-46.599-5.337-10.879-8.597-24.843-8.353-24.918.293-.089 3.701 14.217 9.105 24.688 5.404 10.471 14.455 23.698 18.782 40.323 8.054 30.949-.405 62.569 5.695 82.54 6.1 19.97 15.698 30.704 21.959 48.093 4.174 11.593 5.739 19.459 4.696 23.599z" id="Leaves-base" fill="#42B16D"/></g><g><path d="M1240.295 627.285c-12.588-6.686-25.084 19.237-31.477 21.526-6.394 2.289-16.682-2.062-22.152 8.237-5.47 10.299 3.898 15.275-.605 23.755-4.504 8.479-24.539-4.166-31.792 9.49s6.332 26.016 2.028 34.118c-4.304 8.103-14.607 6.998-24.21 25.078-9.603 18.08 5.022 29.271 29.508 42.276 24.486 13.005 44.064 14.918 53.668-3.161 9.603-18.08-17.129-30.856-13.622-41.984 3.507-11.128 23.629-7.516 29.861-19.25 6.232-11.734-18.534-24.889-13.442-34.477 5.092-9.588 27.362-3.337 32.556-13.117 5.195-9.78 1.432-14.021-5.226-22.64-6.659-8.619 7.495-23.167-5.093-29.853z" fill="url(#D)"/><path d="M1165.199 782.273c.443.377 1.11.319 1.489-.131s.327-1.12-.116-1.498c-10.643-9.062-13.137-18.608-7.656-28.927.276-.52.083-1.162-.43-1.435-.514-.273-1.154-.073-1.43.447-5.984 11.265-3.211 21.876 8.143 31.544zM1185.341 739.284c.546.211 1.16-.063 1.37-.612.21-.549-.062-1.166-.608-1.377-8.852-3.422-12.95-10.884-12.339-22.654.031-.588-.419-1.089-1.003-1.119-.585-.03-1.083.421-1.114 1.009-.657 12.637 3.923 20.977 13.694 24.754zM1205.727 678.379c.373.143.792-.042.935-.413.143-.371-.043-.787-.416-.93-4.501-1.722-6.582-5.466-6.273-11.411.021-.397-.286-.735-.685-.756-.399-.021-.74.284-.76.681-.339 6.53 2.071 10.866 7.199 12.828zM1211.056 672.673c4.497 3.15 9.439 2.719 14.66-1.218.317-.239.379-.692.138-1.011-.241-.319-.693-.384-1.01-.145-4.752 3.585-9.019 3.957-12.966 1.192-.327-.229-.776-.15-1.003.176-.227.326-.146.777.182 1.006zM1190.927 726.286c7.896 5.47 16.618 4.641 25.922-2.376.47-.354.566-1.018.216-1.482-.35-.464-1.015-.554-1.484-.199-8.611 6.495-16.339 7.23-23.431 2.317-.478-.332-1.14-.211-1.478.27-.338.481-.224 1.139.255 1.471zM1176.533 774.835c7.896 5.47 16.618 4.641 25.922-2.376.47-.354.566-1.018.216-1.482-.35-.464-1.015-.554-1.484-.199-8.611 6.495-16.339 7.23-23.431 2.317-.478-.332-1.14-.211-1.478.27-.338.481-.224 1.139.255 1.471zM1145.918 816.697c-.366.688-.1 1.545.594 1.914.694.368 2.494.609 2.86-.079 1.221-4.72 3.8-10.796 7.736-18.228 5.904-11.147 22.443-26.144 27.655-39.153 5.212-13.008 4.669-43.29 11.247-63.664 5.353-16.577 17.573-27.527 24.064-35.64s11.37-19.347 11.143-19.468c-.271-.144-5.334 11.351-11.839 19.098-6.504 7.748-16.86 17.026-23.097 30.3-11.609 24.71-7.42 53.77-15.779 69.508-8.359 15.738-18.931 22.752-27.122 36.239-5.461 8.991-7.949 15.382-7.462 19.172z" fill="#D2DEF8"/></g><g><path id="Vase-base" fill="url(#f)" d="M1104.201 803.179h85.043l-18.898 53.722h-47.246z"/><path d="M1107.9 801.5h75.944c2.982 0 5.4 2.418 5.4 5.4v5.988c0 2.982-2.418 5.4-5.4 5.4h-75.944c-2.982 0-5.4-2.418-5.4-5.4v-5.988c0-2.982 2.418-5.4 5.4-5.4z" fill="url(#B)"/></g></g></g></svg>