<?xml version="1.0" encoding="utf-8"?>
<svg id="master-artboard" viewBox="0 0 1400 485" version="1.1" xmlns="http://www.w3.org/2000/svg" x="0px" y="0px" style="enable-background:new 0 0 1400 980;"><g transform="matrix(1, 0, 0, 1, -0.000008753781003179029, 42.99998474121094)"><rect id="ee-background" x="0" y="0" width="1400" height="440" style="fill: white; fill-opacity: 0; pointer-events: none;" transform="matrix(1, 0, 0, 1, 0, -125)"/><g transform="matrix(12.757194519042969, 0, 0, 12.757194519042969, -0.8419834971427917, -255.4091796875)"><path fill="#fff" d="M76.352 31.375c.014 6.168.043 9.094.093 9.129.038.027.11.281.157.564.049.283.132.613.192.734.055.117.146.352.203.517.056.165.165.394.242.501.083.109.144.214.144.236 0 .209 1.297 1.65 1.484 1.65.05 0 .127.062.174.137.049.082.129.143.182.143.049 0 .164.064.247.139.091.076.269.178.398.225s.233.11.233.133c0 .027.213.104.474.173.259.071.486.151.509.181.049.069 1.199.268 1.578.268.165 0 .303.027.303.068 0 .045.352.068.913.068.495 0 .907-.027.907-.055s.347-.09.77-.137c.427-.045.869-.127.982-.185.109-.056.385-.154.605-.22.219-.063.412-.138.434-.166.02-.021.166-.104.33-.176.165-.071.297-.156.297-.192l.088-.055c.083 0 .537-.341.996-.751.275-.247.734-.819.734-.918l.068-.083c.068 0 .215-.247.495-.836.303-.654.349-.771.427-1.166.043-.22.102-.421.129-.44.132-.09.206-1.705.206-4.438v-2.959h-4.595l-.022 3.052c-.022 2.356-.047 3.053-.116 3.075-.046.016-.082.082-.082.15 0 .875-.949 1.849-1.98 2.035-1.174.221-1.993-.094-2.791-1.051-.096-.115-.33-.818-.33-.989 0-.063-.041-.127-.088-.144-.065-.021-.088-.973-.109-4.372l-.02-4.34h10.137v-3.63h-10.125v-4.964h-4.896l.017 9.083m-2.85-4.552c-.503.022-.962.074-1.018.119-.049.041-.291.11-.53.159-.866.165-2.741 1.501-2.741 1.953l-.069.083c-.044 0-.069-.363-.069-.946v-.935h-4.68v18.436h4.949l.028-5.401c.011-3.91.038-5.428.097-5.5.046-.055.12-.283.173-.509.05-.225.124-.445.165-.489.038-.044.132-.187.203-.316.121-.214.192-.308.486-.632.146-.165.35-.316.611-.462l.275-.173c.055-.055.857-.275 1.033-.275.082 0 .151-.028.151-.066 0-.044.407-.072 1.083-.072.724 0 1.087.027 1.087.074 0 .042.083.066.192.055l.192-.027.017-2.563.021-2.565-.368.011c-.203.006-.778.028-1.281.055m-67.285.044c-.138.016-.303.055-.385.093-.074.036-.357.099-.627.143-.27.042-.583.118-.698.17-.116.05-.374.146-.578.209-.201.063-.366.138-.366.171 0 .027-.129.093-.286.146-.154.055-.302.138-.319.187-.019.055-.077.093-.126.093-.138 0-.88.646-1.117.974l-.33.44c-.069.077-.124.173-.124.207 0 .036-.063.192-.143.357-.181.368-.344 1.045-.344 1.424 0 .165-.033.313-.071.338-.088.055-.094.762-.008.927.039.066.099.371.138.679.11.853.72 1.991 1.278 2.392l.215.182c.049.05.187.151.302.221l.275.191c.421.322 1.441.834 1.837.922.126.027.228.074.228.102s.261.11.578.182c.316.072.605.154.646.182.039.027.335.104.66.174.33.065.613.145.632.17.017.027.325.109.679.179.358.069.646.153.646.185l.115.055c.146 0 .886.226.935.283.017.027.253.102.522.174.267.068.503.148.523.173.019.027.154.083.302.138 1.554.503.899 2.541-.927 2.879-.234.044-.423.104-.423.138 0 .077-1.906.074-1.991 0-.036-.038-.267-.103-.511-.148-.913-.173-1.807-.853-1.98-1.513-.047-.17-.11-.309-.138-.309-.033 0-.055-.156-.055-.349v-.356h-5.116v.467c0 .495.16 1.375.27 1.513.033.044.116.242.182.44.061.201.159.401.214.445.055.047.102.123.102.17 0 .248 1.204 1.523 1.793 1.898l.231.164c.091.102.844.484 1.108.564.16.044.292.109.292.132 0 .027.242.102.539.165.297.068.597.154.666.192.151.083 1.56.274 2.016.274.185 0 .358.028.377.066.055.082 2.131.097 2.131.012 0-.033.275-.078.61-.102.731-.051 1.554-.193 1.554-.275 0-.027.077-.055.173-.055.256 0 1.031-.227 1.139-.33.055-.05.137-.092.192-.092.11 0 .357-.126.503-.261.055-.05.137-.088.184-.088.338 0 1.793-1.491 1.953-2.008.027-.088.083-.157.11-.157.033 0 .115-.211.184-.473.069-.256.148-.483.176-.503.239-.165.239-3.316 0-3.493-.028-.016-.102-.214-.17-.434-.069-.226-.151-.404-.185-.404-.039 0-.088-.068-.11-.151-.11-.344-1.224-1.298-1.779-1.526-.138-.055-.283-.138-.33-.182-.044-.044-.289-.118-.542-.165-.248-.049-.457-.11-.457-.137 0-.033-.248-.11-.559-.184-.308-.069-.558-.146-.558-.171 0-.027-.261-.104-.578-.173-.316-.072-.61-.154-.651-.187-.042-.028-.325-.11-.633-.171-.302-.06-.577-.137-.619-.165-.039-.028-.338-.11-.66-.182-.33-.072-.613-.148-.632-.173-.019-.027-.27-.104-.558-.173-.292-.069-.542-.148-.561-.176-.02-.028-.198-.102-.399-.165-.192-.069-.369-.143-.379-.17-.014-.028-.138-.105-.275-.176-.151-.077-.311-.234-.385-.385-.071-.138-.154-.264-.184-.275-.33-.151.096-1.182.624-1.504.682-.413 3.663-.468 4.054-.077.055.055.157.096.226.096.132 0 .841.707.841.839 0 .041.061.201.138.357.071.148.151.399.179.55l.044.28h4.807v-.28c0-.154-.033-.275-.072-.275s-.069-.11-.069-.242c0-.313-.192-1.292-.269-1.395-.033-.044-.116-.242-.179-.44-.066-.198-.165-.398-.22-.445l-.102-.165c0-.487-1.733-1.953-2.662-2.25-.207-.066-.391-.138-.413-.165-.017-.027-.11-.069-.206-.091l-.454-.11c-.154-.044-.396-.077-.536-.077-.138 0-.27-.041-.286-.091-.027-.083-4.169-.148-4.801-.074m20.498.003c-.116.02-.275.055-.35.094-.077.033-.297.096-.489.137-.363.083-1.108.44-1.276.605-.055.055-.132.099-.173.099-.083 0-.891.825-.891.908 0 .027-.083.137-.179.247-.099.116-.192.275-.22.358-.02.083-.083.17-.138.192-.083.027-.096-.154-.096-1.114v-1.155h-4.675v18.442h4.967v-5.836c0-5.544.033-6.674.204-6.911.027-.041.11-.226.179-.412.214-.578.701-1.073 1.224-1.238.137-.047.27-.118.297-.16.069-.11 1.889-.093 1.925.017.014.044.096.083.179.083.5 0 1.108.429 1.309.921.05.126.119.248.149.27.143.102.192 1.897.192 7.381v5.886h4.969v-5.654c0-3.693.027-5.666.069-5.693.038-.027.071-.137.071-.256 0-.324.214-1.193.322-1.301.055-.055.096-.137.096-.184s.094-.212.209-.363c.116-.151.212-.303.212-.33 0-.096.376-.421.654-.572.138-.074.256-.157.256-.179 0-.066.479-.192.918-.248.413-.046 1.458.132 1.458.253 0 .033.061.083.138.104.159.05.698.55.698.646 0 .039.063.148.143.248.083.102.192.335.256.517.063.184.137.366.165.407.176.22.206 1.273.206 6.792v5.813h4.89v-6.512c0-6.196-.036-7.549-.207-7.859-.036-.066-.118-.308-.181-.539-.063-.231-.138-.435-.165-.454-.033-.019-.124-.176-.207-.349-.352-.731-.715-1.183-1.559-1.933-.258-.231-1.595-.908-1.906-.962-.154-.028-.324-.088-.379-.132-.138-.11-3.3-.115-3.438-.005-.055.042-.248.11-.429.157-.533.132-1.292.578-1.788 1.053-.286.27-.709.811-.709.902l-.055.083c-.033 0-.11.096-.165.22-.116.242-.083.261-.512-.292l-.344-.432-.179-.261c-.044-.083-.115-.146-.159-.146-.047 0-.165-.083-.261-.176-.316-.311-.751-.66-.825-.66l-.096-.069c-.11-.322-2.942-.613-4.285-.44m25.63-.005c-.151.017-.341.055-.418.091-.074.033-.374.099-.66.146-.289.044-.605.124-.702.176-.096.049-.338.143-.542.206-.201.061-.366.138-.366.176l-.094.063c-.093 0-.506.192-.638.292-1.127.88-1.859 1.807-2.024 2.571-.028.138-.077.261-.11.28-.063.044-.275 1.037-.275 1.309 0 .11-.033.234-.071.275-.042.039-.066.256-.055.484l.022.412 2.315.017 2.31.02.091-.459c.049-.253.124-.495.165-.542.044-.044.143-.207.22-.357.077-.151.211-.347.297-.432.083-.088.157-.192.157-.231 0-.044.047-.077.102-.077.055 0 .138-.055.173-.129.039-.072.22-.171.404-.22.184-.055.357-.126.385-.165.069-.11 2.558-.11 2.623 0 .028.039.193.11.372.16.459.126 1.017.624 1.122 1.006.047.157.109.319.143.357.077.083.074.385 0 .385-.035 0-.082.132-.104.292-.071.536-.539.949-1.304 1.144-.247.063-.522.143-.594.176-.077.033-.517.11-.979.173-.462.055-.902.138-.979.17-.077.033-.605.116-1.168.182-.566.069-1.031.148-1.031.182 0 .027-.063.055-.138.055-.22 0-1.218.215-1.257.275-.019.021-.17.082-.33.132-.264.077-.572.229-1.421.701-.372.206-1.127.99-1.367 1.41-.074.13-.165.275-.209.319-.044.047-.119.237-.165.421-.055.182-.119.365-.146.404-.316.435-.316 4.227 0 4.227.033 0 .077.097.102.215.118.592 1.072 1.727 1.793 2.131.129.072.275.165.319.209.044.041.234.119.421.171.181.05.349.115.368.144.055.082 1.155.274 1.545.274.187 0 .341.027.341.069 0 .043.346.068.902.068.528 0 .921-.027.949-.068.022-.039.173-.069.335-.069.338 0 1.532-.209 1.584-.274.022-.028.234-.105.473-.18.242-.068.44-.15.44-.179 0-.027.148-.104.33-.173s.357-.165.385-.221c.033-.049.099-.093.15-.093.056 0 .248-.138.43-.313.182-.174.357-.313.385-.313l.082-.089c.02-.049.056.094.083.314.028.22.083.401.116.401.035 0 .062.11.062.239 0 .489-.159.459 2.382.459h2.296v-6.324c0-5.94-.044-7.602-.203-7.712-.027-.022-.102-.286-.165-.591-.069-.303-.149-.572-.179-.594-.027-.027-.097-.151-.138-.286-.05-.137-.165-.357-.259-.506-.096-.143-.173-.28-.173-.308 0-.118-1.089-1.193-1.265-1.249-.072-.022-.133-.069-.133-.099 0-.033-.137-.118-.312-.192-.172-.066-.312-.148-.312-.176s-.182-.102-.404-.165c-.22-.066-.462-.16-.539-.209-.077-.05-.357-.126-.632-.17-.268-.044-.551-.116-.625-.165-.137-.074-4.028-.138-4.68-.069m40.785.467c-.088.228 0 13.131.092 13.158.049.017.088.11.088.212 0 .229.211 1.087.275 1.134.032.019.093.164.143.315.049.151.127.325.17.386.047.055.144.219.221.365.071.143.154.262.182.262l.094.143c.06.192 1.154 1.293 1.347 1.354.083.027.154.074.154.104 0 .027.124.11.274.188.157.071.283.154.283.182s.182.104.402.173c.22.065.412.144.434.171.022.027.319.102.666.164.344.064.682.144.748.18.165.088 2.356.082 2.356-.006 0-.039.063-.068.138-.068.253 0 1.221-.221 1.26-.286.021-.036.203-.11.404-.173.197-.056.357-.13.357-.157 0-.028.099-.091.22-.144.292-.132 1.166-1.004 1.222-1.227.021-.099.068-.182.104-.182.088 0 .083 2.844-.008 2.898-.039.028-.068.177-.068.336-.006 1.266-1.123 2.742-2.305 3.053-.174.047-.369.109-.44.146-.148.083-1.045.083-1.136.009-.039-.033-.289-.1-.559-.148-.811-.157-1.99-.963-1.99-1.364 0-.056-.047-.146-.105-.204-.137-.137-.311-.893-.312-1.353v-.368h-4.755l.055.786c.028.432.065.798.091.819.027.02.082.303.129.619.045.322.127.676.185.789.056.109.151.377.212.586.062.209.137.385.165.385.036 0 .102.121.151.275.049.154.148.33.22.396.069.063.13.157.13.209 0 .056.061.132.137.182.077.044.138.118.138.165 0 .104 1.078 1.127 1.292 1.224.1.044.177.103.177.13s.138.109.302.178c.166.072.311.152.33.18s.204.096.413.156c.203.055.412.138.454.174.043.035.357.123.706.191.344.072.649.16.677.199.068.096 4.092.096 4.16 0 .027-.042.319-.127.646-.193.33-.068.605-.154.616-.192l.124-.068c.165 0 .797-.22.797-.275 0-.027.127-.093.283-.146.16-.055.303-.132.319-.179.02-.047.103-.104.185-.126.088-.02.267-.133.401-.248.132-.118.265-.212.292-.212.082-.005 1.174-1.101 1.174-1.183 0-.038.055-.109.121-.165.066-.046.184-.206.258-.352.078-.144.16-.262.182-.262.027 0 .102-.148.174-.329.068-.186.164-.372.209-.413.047-.05.127-.231.179-.404.05-.176.11-.319.138-.319s.109-.303.176-.682c.068-.374.159-.701.201-.729.049-.033.076-3.237.09-10.285l.022-10.23h-4.978v5.72c0 3.741-.021 5.739-.068 5.767-.039.027-.069.143-.069.261 0 .268-.209 1.031-.28 1.031-.027 0-.091.094-.138.207-.047.109-.267.371-.489.577-.556.506-.578.522-.922.659l-.371.166c-.335.247-2.054.238-2.596-.009-.165-.077-.322-.138-.357-.138-.109 0-.792-.648-.902-.865-.061-.119-.137-.231-.164-.248-.083-.061-.275-.936-.275-1.246 0-.164-.033-.294-.068-.294-.047 0-.072-1.979-.072-5.797v-5.763h-2.447c-1.996 0-2.453.016-2.483.093m-35.74 10.87c-.014.595-.063 1.145-.104 1.222-.044.083-.13.316-.192.528-.066.209-.138.398-.165.418l-.229.313c-.102.153-.321.418-.489.585-.171.174-.435.394-.586.496-.157.096-.302.197-.319.22-.02.027-.193.102-.385.173-.192.072-.363.148-.385.176-.138.185-1.934.275-2.475.127-1.127-.313-1.65-1.926-.974-3.003.094-.146.165-.28.165-.303 0-.077.349-.362.6-.489.151-.077.313-.176.357-.221.049-.043.207-.102.352-.129s.391-.104.544-.17c.154-.069.556-.166.891-.215.335-.055.61-.109.61-.138 0-.027.33-.11.734-.176s.734-.148.734-.182l.137-.061c.215 0 .787-.214.979-.366.231-.184.233-.164.192 1.202"/></g></g></svg>