<?xml version="1.0" encoding="utf-8"?>
<!-- Generator: Adobe Illustrator 22.1.0, SVG Export Plug-In . SVG Version: 6.00 Build 0)  -->
<svg xmlns="http://www.w3.org/2000/svg" xmlns:xlink="http://www.w3.org/1999/xlink" x="0px" y="0px"
	 viewBox="0 0 200.4 66.5" style="enable-background:new 0 0 200.4 66.5;" xml:space="preserve">
<style type="text/css">
	.amazon-original-0{fill:#FF9900;}
	.amazon-original-1{fill:#221F1F;}
</style>
<path id="arrow_1_" class="amazon-original-0" d="M122.7,47.6c-13,5.5-27.2,8.2-40.1,8.2c-19.1,0-37.6-5.2-52.6-13.9c-1.3-0.8-2.3,0.6-1.2,1.6
	c13.9,12.5,32.2,20,52.5,20c14.5,0,31.4-4.6,43-13.1C126.3,48.8,124.7,46.7,122.7,47.6z"/>
<path id="arrow" class="amazon-original-0" d="M115.4,42.7c-1,0.7-0.9,1.7,0.3,1.6c3.7-0.4,12.1-1.4,13.6,0.5c1.5,1.9-1.7,9.8-3.1,13.3
	c-0.4,1.1,0.5,1.5,1.4,0.7c6.2-5.2,7.9-16.2,6.6-17.7C133,39.4,122,38,115.4,42.7z"/>
<path id="z" class="amazon-original-1" d="M138.2,29.5c-3.6-2-7.7-2.6-11.6-2.5l10.6-15.1c1-1.4,1.5-2.2,1.5-2.9V5.1c0-0.7-0.5-1.1-1.2-1.1h-20.4
	c-0.6,0-1.1,0.5-1.1,1.1v4.5l0,0c0,0.7,0.5,1.1,1.2,1.1h10.6l-12.2,17.5c-0.7,1.1-0.7,2.4-0.7,3.1v4.6c0,0.7,0.7,1.4,1.4,1
	c6.9-3.7,15.2-3.3,21.5,0c0.8,0.4,1.5-0.4,1.5-1v-4.9C139.2,30.6,139,29.9,138.2,29.5z"/>
<path id="m" class="amazon-original-1" d="M35.5,38.1h6.2c0.7,0,1.2-0.5,1.2-1.1V20.1c0-3.7-0.2-8.8,4.3-8.8c4.4,0,3.8,5.2,3.8,8.8l0,16.9
	c0,0.6,0.5,1.1,1.1,1.1h6.2c0.7,0,1.2-0.5,1.2-1.1V20.1c0-1.8-0.1-4.5,0.6-6.1c0.6-1.6,2.2-2.6,3.7-2.6c1.8,0,3.2,0.6,3.6,2.7
	c0.3,1.3,0.2,4.6,0.2,6v16.9c0,0.6,0.5,1.1,1.1,1.1h6.2c0.7,0,1.2-0.5,1.2-1.1l0-20.1c0-3.4,0.4-7.3-1.6-10
	c-1.7-2.4-4.6-3.5-7.2-3.5c-3.7,0-7.1,1.9-8.6,5.9c-1.7-4-4.2-5.9-8-5.9c-3.8,0-6.6,1.9-8.2,5.9h-0.1V5.1c0-0.6-0.5-1-1.1-1.1h-5.8
	c-0.7,0-1.2,0.5-1.2,1.1V37C34.4,37.6,34.9,38,35.5,38.1z"/>
<path id="o" class="amazon-original-1" d="M156.2,3.4c-9,0-13.9,7.7-13.9,17.6c0,9.8,4.9,17.7,13.9,17.7c8.7,0,14.2-7.7,14.2-17.4
	C170.3,11.3,165.4,3.4,156.2,3.4z M156.2,32.2c-4.9,0-4.8-8.3-4.8-12.2c0-3.9,0.3-10.1,4.9-10.1c2,0,3.4,0.9,4.1,3.1
	c0.8,2.5,0.9,5.8,0.9,8.4C161.2,25.5,161,32.2,156.2,32.2z"/>
<path id="n" class="amazon-original-1" d="M191.6,3.4c-4.3,0-6.7,2.1-8.4,6.4H183V5c-0.1-0.5-0.6-0.9-1.1-0.9h-5.7c-0.6,0-1.1,0.5-1.2,1l0,31.8
	c0,0.6,0.5,1.1,1.1,1.1h6.2c0.7,0,1.2-0.5,1.2-1.1V19.8c0-2.1,0.1-4.1,1-6c0.7-1.5,2.1-2.5,3.6-2.5c4.3,0,3.9,5.1,3.9,8.6v17.3
	c0.1,0.5,0.5,1,1.1,1h6.2c0.6,0,1.1-0.4,1.2-1v-20c0-3.1,0-7.4-1.6-9.9C197,4.4,194.3,3.4,191.6,3.4z"/>
<path id="a_1_" class="amazon-original-1" d="M99.7,16.6c-3.6,0.4-8.3,0.7-11.6,2.2c-3.9,1.7-6.6,5.1-6.6,10.1c0,6.4,4.1,9.7,9.3,9.7
	c4.4,0,6.8-1,10.2-4.5c1.1,1.6,1.5,2.4,3.6,4.1c0.5,0.2,1.1,0.2,1.5-0.1l0,0c1.2-1.1,3.5-3.1,4.7-4.1c0.5-0.4,0.4-1.1,0-1.6
	c-1.1-1.6-2.3-2.8-2.3-5.7v-9.7c0-4.1,0.3-7.8-2.7-10.7c-2.4-2.3-6.3-3.1-9.3-3.1c-5.9,0-12.5,2.2-13.9,9.5
	c-0.1,0.8,0.4,1.2,0.9,1.3l6,0.6c0.6,0,1-0.6,1.1-1.1c0.5-2.5,2.6-3.7,5-3.7c1.3,0,2.7,0.5,3.5,1.6c0.9,1.3,0.8,3,0.8,4.5L99.7,16.6
	L99.7,16.6z M98.6,29.5c-1,1.7-2.6,2.8-4.3,2.8c-2.4,0-3.8-1.8-3.8-4.5c0-5.3,4.7-6.2,9.2-6.2v1.3C99.7,25.3,99.8,27.3,98.6,29.5z"
	/>
<path id="a" class="amazon-original-1" d="M29.5,32.2c-1.1-1.6-2.3-2.8-2.3-5.7v-9.7c0-4.1,0.3-7.8-2.7-10.7c-2.4-2.3-6.3-3.1-9.3-3.1
	c-5.9,0-12.5,2.2-13.9,9.5c-0.1,0.8,0.4,1.2,0.9,1.3l6,0.6c0.6,0,1-0.6,1.1-1.1c0.5-2.5,2.6-3.7,5-3.7c1.3,0,2.7,0.5,3.5,1.6
	c0.9,1.3,0.7,3,0.7,4.5v0.8c-3.6,0.4-8.3,0.7-11.6,2.2C3,20.4,0.2,23.8,0.2,28.9c0,6.4,4.1,9.7,9.3,9.7c4.4,0,6.8-1,10.2-4.5
	c1.1,1.6,1.5,2.4,3.6,4.1c0.5,0.2,1.1,0.2,1.5-0.1l0,0c1.2-1.1,3.5-3.1,4.7-4.1C30,33.5,29.9,32.8,29.5,32.2z M17.3,29.5
	c-1,1.7-2.5,2.8-4.3,2.8c-2.4,0-3.8-1.8-3.8-4.5c0-5.3,4.7-6.2,9.2-6.2v1.3C18.5,25.3,18.6,27.3,17.3,29.5z"/>
</svg>
