<?xml version="1.0" encoding="utf-8"?>
<!-- Generator: Adobe Illustrator 23.0.3, SVG Export Plug-In . SVG Version: 6.00 Build 0)  -->
<svg version="1.1" id="Layer_1" xmlns="http://www.w3.org/2000/svg" xmlns:xlink="http://www.w3.org/1999/xlink" x="0px" y="0px"
	 viewBox="0 0 120 120" style="enable-background:new 0 0 120 120;" xml:space="preserve">
<style type="text/css">
	.gitlab-logo-original-0{fill:#E24329;}
	.gitlab-logo-original-1{fill:#FC6D26;}
	.gitlab-logo-original-2{fill:#FCA326;}
</style>
<path class="gitlab-logo-original-0" d="M60,115.3l22.1-68H37.9L60,115.3L60,115.3z"/>
<path class="gitlab-logo-original-1" d="M60,115.3l-22.1-68h-31L60,115.3z"/>
<path class="gitlab-logo-original-2" d="M6.9,47.3L0.2,67.9c-0.6,1.9,0.1,3.9,1.7,5.1L60,115.3L6.9,47.3L6.9,47.3z"/>
<path class="gitlab-logo-original-0" d="M6.9,47.3h31l-13.3-41c-0.7-2.1-3.7-2.1-4.4,0L6.9,47.3L6.9,47.3z"/>
<path class="gitlab-logo-original-1" d="M60,115.3l22.1-68h31L60,115.3L60,115.3z"/>
<path class="gitlab-logo-original-2" d="M113.1,47.3l6.7,20.7c0.6,1.9-0.1,3.9-1.7,5.1L60,115.3L113.1,47.3L113.1,47.3z"/>
<path class="gitlab-logo-original-0" d="M113.1,47.3h-31l13.3-41c0.7-2.1,3.7-2.1,4.4,0L113.1,47.3L113.1,47.3z"/>
</svg>
