<?xml version="1.0" encoding="utf-8"?>
<!-- Generator: Adobe Illustrator 22.1.0, SVG Export Plug-In . SVG Version: 6.00 Build 0)  -->
<svg xmlns="http://www.w3.org/2000/svg" xmlns:xlink="http://www.w3.org/1999/xlink" x="0px" y="0px"
	 viewBox="0 0 200.4 66.5" style="enable-background:new 0 0 200.4 66.5;" xml:space="preserve">
<style type="text/css">
	.mapbox-original-0{fill:#4264FB;}
</style>
<g>
	<g>
		<path class="mapbox-original-0" d="M149.6,24c-2.5,0-4.9,1-6.7,2.9v-9.7c0-0.3-0.3-0.6-0.6-0.6l0,0h-3.4c-0.3,0-0.6,0.3-0.6,0.6v26.1
			c0,0.3,0.3,0.6,0.6,0.6h3.4c0.3,0,0.6-0.3,0.6-0.6l0,0v-1.8c1.8,1.8,4.1,2.9,6.7,2.9c5.3,0,9.6-4.6,9.6-10.2S154.9,24,149.6,24z
			 M148.8,40.3c-3.2,0-5.8-2.7-5.9-6v-0.2c0.1-3.3,2.6-6,5.9-6c3.2,0,5.9,2.7,5.9,6.1S152,40.3,148.8,40.3L148.8,40.3z"/>
		<path class="mapbox-original-0" d="M171.7,24c-5.7,0-10.4,4.6-10.4,10.2s4.6,10.2,10.4,10.2S182,39.9,182,34.2S177.4,24,171.7,24z M171.6,40.3
			c-3.2,0-5.9-2.7-5.9-6.1c0-3.4,2.6-6.1,5.9-6.1s5.9,2.7,5.9,6.1C177.5,37.6,174.9,40.3,171.6,40.3L171.6,40.3z"/>
		<path class="mapbox-original-0" d="M108.2,24.5h-3.4c-0.3,0-0.6,0.3-0.6,0.6l0,0v1.8c-1.8-1.8-4.1-2.9-6.7-2.9c-5.3,0-9.6,4.6-9.6,10.2
			s4.3,10.2,9.6,10.2c2.5,0,4.9-1,6.7-2.9v1.8c0,0.3,0.3,0.6,0.6,0.6l0,0h3.4c0.3,0,0.6-0.3,0.6-0.6l0,0V25.1
			C108.8,24.8,108.5,24.5,108.2,24.5z M98.4,40.3c-3.2,0-5.9-2.7-5.9-6.1c0-3.4,2.6-6.1,5.9-6.1s5.8,2.7,5.9,6v0.2
			C104.2,37.7,101.6,40.3,98.4,40.3L98.4,40.3z"/>
		<path class="mapbox-original-0" d="M125.2,24c-2.5,0-4.9,1-6.7,2.9v-1.8c0-0.3-0.3-0.6-0.6-0.6l0,0h-3.4c-0.3,0-0.6,0.3-0.6,0.6l0,0v26.1
			c0,0.3,0.3,0.6,0.6,0.6l0,0h3.4c0.3,0,0.6-0.3,0.6-0.6l0,0v-9.7c1.8,1.8,4.1,2.9,6.7,2.9c5.3,0,9.6-4.6,9.6-10.2
			S130.5,24,125.2,24z M124.4,40.3c-3.2,0-5.8-2.7-5.9-6v-0.2c0.1-3.3,2.6-6,5.9-6c3.2,0,5.9,2.7,5.9,6.1S127.7,40.3,124.4,40.3
			L124.4,40.3z"/>
		<path class="mapbox-original-0" d="M77.8,24c-2.5,0-4.8,1.5-5.9,3.8c-1.2-2.4-3.7-3.8-6.4-3.8c-2.1,0-4,1-5.3,2.7v-1.6c0-0.3-0.3-0.6-0.6-0.6
			l0,0h-3.4c-0.3,0-0.6,0.3-0.6,0.6l0,0v18.3c0,0.3,0.3,0.6,0.6,0.6l0,0h3.4c0.3,0,0.6-0.3,0.6-0.6l0,0V32.4
			c0.1-2.4,1.8-4.4,3.9-4.4c2.2,0,4,1.8,4,4.2v11.2c0,0.3,0.3,0.6,0.6,0.6h3.4c0.3,0,0.6-0.3,0.6-0.6l0,0l0-11.4
			c0.3-2.2,1.9-4,3.9-4c2.2,0,4,1.8,4,4.2v11.2c0,0.3,0.3,0.6,0.6,0.6h3.4c0.3,0,0.6-0.3,0.6-0.6l0,0l0-12.6C85,27,81.8,24,77.8,24z
			"/>
		<path class="mapbox-original-0" d="M200.3,43.1l-5.9-9l5.8-8.9c0.2-0.2,0.1-0.6-0.2-0.7c-0.1-0.1-0.2-0.1-0.3-0.1h-3.9c-0.3,0-0.6,0.2-0.7,0.4
			l-3.4,5.8l-3.4-5.7c-0.2-0.3-0.4-0.4-0.7-0.4h-3.9c-0.3,0-0.5,0.2-0.5,0.5c0,0.1,0,0.2,0.1,0.3l5.8,8.9l-5.9,9
			c-0.2,0.2-0.1,0.6,0.2,0.7c0.1,0.1,0.2,0.1,0.3,0.1h3.9c0.3,0,0.6-0.2,0.7-0.4l3.5-5.8l3.5,5.8c0.2,0.3,0.4,0.4,0.7,0.4h3.9
			c0.3,0,0.5-0.2,0.5-0.5C200.4,43.3,200.4,43.2,200.3,43.1z"/>
	</g>
	<g>
		<path class="mapbox-original-0" d="M22.6,11.7C10.1,11.7,0,21.8,0,34.2s10.1,22.6,22.6,22.6s22.6-10.1,22.6-22.6S35,11.7,22.6,11.7z M33.3,39.8
			C25.5,47.5,11.8,45,11.8,45S9.3,31.3,17,23.5c4.3-4.3,11.4-4.1,15.9,0.4S37.5,35.5,33.3,39.8L33.3,39.8z"/>
		<polygon class="mapbox-original-0" points="25.1,24.9 22.9,29.4 18.4,31.6 22.9,33.8 25.1,38.4 27.3,33.8 31.9,31.6 27.3,29.4 		"/>
	</g>
</g>
</svg>
