<svg enable-background="new 0 0 200.4 66.5" viewBox="0 0 200.4 66.5" xmlns="http://www.w3.org/2000/svg"><path d="m27.6 56.8c-3 .5-6.1.7-9.3 1.1l-9.7-28.3v29.6c-3 .3-5.8.7-8.6 1.2v-54.3h8l11 30.7v-30.7h8.5zm16.6-30.8c3.3 0 8.3-.2 11.3-.2v8.5c-3.8 0-8.1 0-11.3.2v12.5c5-.3 9.9-.7 15-.9v8.1l-23.4 1.9v-50h23.4v8.5h-15zm46.5-11.4h-8.8v38.9c-2.9 0-5.7 0-8.5.1v-39h-8.8v-8.5h26c.1 0 .1 8.5.1 8.5zm13.7 10.8h11.6v8.5h-11.6v19.2h-8.3v-47h23.6v8.5h-15.3zm29.1 20.3c4.8.1 9.7.5 14.4.7v8.4c-7.6-.5-15.1-1-22.8-1.1v-47.6h8.5v39.6zm21.5 9.6c2.7.2 5.6.3 8.3.6v-49.8h-8.3zm45.4-49.2-10.7 25.8 10.7 28.4c-3.2-.4-6.3-1-9.5-1.5l-6.1-15.7-6.2 14.4c-3.1-.5-6-.7-9.1-1.1l10.9-24.8-9.8-25.4h9.1l5.6 14.2 5.9-14.2z" fill="#d81f26"/></svg>