<?xml version="1.0" encoding="utf-8"?>
<!-- Generator: Adobe Illustrator 22.1.0, SVG Export Plug-In . SVG Version: 6.00 Build 0)  -->
<svg xmlns="http://www.w3.org/2000/svg" xmlns:xlink="http://www.w3.org/1999/xlink" x="0px" y="0px"
	 viewBox="0 0 200.4 66.5" style="enable-background:new 0 0 200.4 66.5;" xml:space="preserve">
<style type="text/css">
	.paypal-0{fill:#179BD7;}
	.paypal-1{fill:#253B80;}
	.paypal-2{fill:#222D65;}
</style>
<path class="paypal-0" d="M161.8,22.6c-1.6-1.8-4.3-2.8-8-2.8h-11c-0.8,0-1.4,0.5-1.5,1.3l-4.5,28.3c-0.1,0.6,0.3,1.1,0.9,1.1h5.7
	c0.5,0,1-0.4,1.1-0.9l1.3-8c0.1-0.7,0.8-1.3,1.5-1.3h3.5c7.3,0,11.5-3.5,12.6-10.5C163.7,26.7,163.2,24.3,161.8,22.6z M155.1,30.1
	c-0.6,4-3.6,4-6.6,4h-1.7l1.2-7.4c0.1-0.4,0.5-0.8,0.9-0.8h0.8c2,0,3.9,0,4.8,1.1C155.1,27.7,155.3,28.7,155.1,30.1z"/>
<path class="paypal-0" d="M186.8,30h-5.3c-0.5,0-0.8,0.3-0.9,0.8l-0.2,1.5l-0.4-0.5c-1.1-1.7-3.7-2.2-6.2-2.2c-5.8,0-10.8,4.4-11.8,10.6
	c-0.5,3.1,0.2,6.1,2,8.1c1.6,1.9,3.9,2.7,6.7,2.7c4.7,0,7.3-3,7.3-3l-0.2,1.5c-0.1,0.6,0.3,1.1,0.9,1.1h4.8c0.8,0,1.4-0.6,1.5-1.3
	l2.9-18.1C187.8,30.5,187.3,30,186.8,30z M179.4,40.3c-0.5,3-2.9,5-6,5c-1.5,0-2.8-0.5-3.5-1.4c-0.8-0.9-1.1-2.2-0.8-3.7
	c0.5-3,2.9-5.1,5.9-5.1c1.5,0,2.7,0.5,3.5,1.4C179.3,37.5,179.6,38.8,179.4,40.3z"/>
<path class="paypal-0" d="M199,19.8h-5.1c-0.5,0-0.8,0.3-0.9,0.8l-4.5,28.8c-0.1,0.6,0.3,1.1,0.9,1.1h4.6c0.8,0,1.4-0.5,1.5-1.3l4.5-28.3
	C200,20.3,199.6,19.8,199,19.8z"/>
<path class="paypal-1" d="M83.1,22.6c-1.6-1.8-4.4-2.8-8-2.8H64c-0.8,0-1.4,0.5-1.5,1.3L58,49.4c-0.1,0.6,0.3,1.1,0.9,1.1h5.3
	c0.8,0,1.4-0.5,1.5-1.3l1.2-7.6c0.1-0.7,0.8-1.3,1.5-1.3H72c7.3,0,11.5-3.5,12.6-10.5C85,26.7,84.5,24.3,83.1,22.6z M76.3,30.1
	c-0.6,4-3.6,4-6.6,4h-1.7l1.2-7.4c0.1-0.4,0.5-0.8,0.9-0.8H71c2,0,3.9,0,4.8,1.1C76.4,27.7,76.6,28.7,76.3,30.1z"/>
<path class="paypal-1" d="M108,30h-5.3c-0.5,0-0.8,0.3-0.9,0.8l-0.2,1.5l-0.4-0.5c-1.1-1.7-3.7-2.2-6.2-2.2c-5.8,0-10.8,4.4-11.8,10.6
	c-0.5,3.1,0.2,6.1,2,8.1c1.6,1.9,3.9,2.7,6.7,2.7c4.7,0,7.3-3,7.3-3l-0.2,1.5c-0.1,0.6,0.3,1.1,0.9,1.1h4.8c0.8,0,1.4-0.6,1.5-1.3
	L109,31C109,30.5,108.6,30,108,30z M100.7,40.3c-0.5,3-2.9,5-6,5c-1.5,0-2.8-0.5-3.5-1.4c-0.8-0.9-1.1-2.2-0.8-3.7
	c0.5-3,2.9-5.1,5.9-5.1c1.5,0,2.7,0.5,3.5,1.4C100.6,37.5,100.9,38.8,100.7,40.3z"/>
<path class="paypal-1" d="M136.2,30h-5.3c-0.5,0-1,0.3-1.3,0.7l-7.3,10.8l-3.1-10.4c-0.2-0.6-0.8-1.1-1.5-1.1h-5.2
	c-0.6,0-1.1,0.6-0.9,1.2l5.8,17.2l-5.5,7.8c-0.4,0.6,0,1.5,0.8,1.5h5.3c0.5,0,1-0.2,1.3-0.7l17.7-25.5C137.4,30.8,136.9,30,136.2,30
	z"/>
<path class="paypal-0" d="M39.8,22.9c-0.6-0.7-1.3-1.2-2.2-1.7l0,0c0,0.3-0.1,0.6-0.2,0.9c-0.1,0.3-0.1,0.6-0.2,0.8
	C35.4,31.4,30,35,23,35.8c-0.5,0.1-0.9,0.1-1.4,0.1c-0.5,0-1.1,0-1.6,0h-4.4c-1.1,0-2,0.8-2.1,1.8l-2,12.8l-0.3,1.6l-0.6,4.1
	c-0.1,0.7,0.4,1.3,1.1,1.3h7.9c0.9,0,1.7-0.7,1.9-1.6l0.1-0.4l1.5-9.4l0.1-0.5c0.1-0.9,0.9-1.6,1.9-1.6h1.2C33.7,44,39.7,41,41.4,32
	C42.1,28.2,41.8,25.1,39.8,22.9z"/>
<path class="paypal-1" d="M13.4,37.8l0.1-0.5l2.5-16c0.1-0.6,0.5-1.2,1.1-1.4c0.2-0.1,0.5-0.2,0.8-0.2h11.9c1.4,0,2.7,0.1,3.9,0.3
	c0.3,0.1,0.7,0.1,1,0.2c0.3,0.1,0.6,0.2,0.9,0.2c0.1,0,0.2,0.1,0.3,0.1c0,0,0.1,0,0.1,0c0,0,0,0,0.1,0c0.6,0.2,1.1,0.4,1.6,0.7
	c0,0,0,0,0,0c0.6-3.8,0-6.4-2.1-8.7c-2.3-2.6-6.3-3.7-11.5-3.7H8.9c-1.1,0-2,0.8-2.1,1.8l-6.3,40c-0.1,0.8,0.5,1.5,1.3,1.5h9.3
	l0.3-1.6L13.4,37.8z"/>
<path class="paypal-2" d="M37.7,21.2c-0.5-0.3-1-0.5-1.6-0.7c0,0,0,0-0.1,0c0,0-0.1,0-0.1,0c-0.1,0-0.2-0.1-0.3-0.1
	c-0.3-0.1-0.6-0.2-0.9-0.2c-0.3-0.1-0.7-0.1-1-0.2c-1.2-0.2-2.5-0.3-3.9-0.3H17.9c-0.3,0-0.6,0.1-0.8,0.2c-0.5,0.3-1,0.8-1.1,1.4
	l-2.5,16l-0.1,0.5c0.2-1.1,1.1-1.8,2.1-1.8H20c0.5,0,1.1,0,1.6,0c0.5,0,1-0.1,1.4-0.1C30,35,35.4,31.4,37.3,23
	c0.1-0.3,0.1-0.5,0.2-0.8C37.6,21.8,37.6,21.5,37.7,21.2C37.7,21.3,37.7,21.3,37.7,21.2z"/>
</svg>
