<?xml version="1.0" encoding="utf-8"?>
<!-- Generator: Adobe Illustrator 22.1.0, SVG Export Plug-In . SVG Version: 6.00 Build 0)  -->
<svg xmlns="http://www.w3.org/2000/svg" xmlns:xlink="http://www.w3.org/1999/xlink" x="0px" y="0px"
	 viewBox="0 0 200.4 66.5" style="enable-background:new 0 0 200.4 66.5;" xml:space="preserve">
<style type="text/css">
	.stripe-original-0{fill:#6772E5;}
</style>
<g id="Stripe">
	<path class="stripe-original-0" d="M179.6,34.2c0-11.3-5.5-20.3-16-20.3c-10.5,0-16.9,8.9-16.9,20.2c0,13.3,7.5,20,18.3,20
		c5.3,0,9.2-1.2,12.2-2.9v-8.8c-3,1.5-6.5,2.4-10.8,2.4c-4.3,0-8.1-1.5-8.6-6.7h21.6C179.5,37.6,179.6,35.3,179.6,34.2z M157.7,30
		c0-5,3.1-7.1,5.8-7.1c2.7,0,5.6,2.1,5.6,7.1H157.7z"/>
	<path class="stripe-original-0" d="M129.6,14c-4.3,0-7.1,2-8.7,3.4l-0.6-2.7h-9.7v51.6l11.1-2.3l0-12.5c1.6,1.1,3.9,2.8,7.8,2.8
		c7.9,0,15.1-6.4,15.1-20.4C144.7,21,137.4,14,129.6,14z M127,44.4c-2.6,0-4.2-0.9-5.2-2.1l0-16.4c1.1-1.3,2.7-2.2,5.3-2.2
		c4,0,6.8,4.5,6.8,10.3C133.8,40,131,44.4,127,44.4z"/>
	<polygon class="stripe-original-0" points="95.4,11.4 106.5,9 106.5,0 95.4,2.3 	"/>
	<rect x="95.4" y="14.7" class="stripe-original-0" width="11.1" height="38.7"/>
	<path class="stripe-original-0" d="M83.5,18l-0.7-3.3h-9.6v38.7h11.1V27.2c2.6-3.4,7-2.8,8.4-2.3V14.7C91.3,14.2,86.2,13.2,83.5,18z"/>
	<path class="stripe-original-0" d="M61.4,5.1L50.6,7.4l0,35.4c0,6.5,4.9,11.4,11.5,11.4c3.6,0,6.3-0.7,7.7-1.5v-9c-1.4,0.6-8.4,2.6-8.4-3.9V24.1
		h8.4v-9.4h-8.4L61.4,5.1z"/>
	<path class="stripe-original-0" d="M31.5,26c0-1.7,1.4-2.4,3.8-2.4c3.4,0,7.6,1,11,2.8V16c-3.7-1.5-7.3-2-11-2c-9,0-14.9,4.7-14.9,12.5
		c0,12.2,16.8,10.3,16.8,15.5c0,2-1.8,2.7-4.2,2.7c-3.7,0-8.4-1.5-12.1-3.5v10.5c4.1,1.8,8.3,2.5,12.1,2.5c9.2,0,15.5-4.6,15.5-12.5
		C48.4,28.6,31.5,30.9,31.5,26z"/>
</g>
</svg>
