<?xml version="1.0" encoding="utf-8"?>
<!-- Generator: Adobe Illustrator 22.1.0, SVG Export Plug-In . SVG Version: 6.00 Build 0)  -->
<svg xmlns="http://www.w3.org/2000/svg" xmlns:xlink="http://www.w3.org/1999/xlink" x="0px" y="0px"
	 viewBox="0 0 200.4 66.5" style="enable-background:new 0 0 200.4 66.5;" xml:space="preserve">
<style type="text/css">
	.alphabet-0{fill:#7B878D;}
</style>
<path class="alphabet-0" d="M188.4,39.7V26.4h-4.5v-4.4h4.5v-7.8h4.8v7.8h6.2v4.4h-6.2v13c0,2.9,1.2,4.1,3.4,4.1c0.9,0,1.5-0.1,2.2-0.4
	l1.7,4.1c-1.1,0.5-2.2,0.7-3.8,0.7C191.2,47.9,188.4,44.9,188.4,39.7z M157.6,34.8c0-7.2,5-13.5,12.4-13.5c7.6,0,12.4,5.3,12.4,13.5
	c0,0.4-0.1,0.9-0.1,0.9h-20.1c0.3,5.4,4.1,8.3,8.1,8.3c2.8,0,5.6-1.1,6.9-4.4l4.2,1.8c-1.5,3.6-5.2,6.9-11.1,6.9
	C162.8,48.3,157.6,42.4,157.6,34.8L157.6,34.8z M170,25.6c-3.5,0-6.3,2.4-7.3,6.1h14.7C177.3,29.5,175.4,25.6,170,25.6z M134.3,43.9
	h-0.2v3.5h-4.6V10.4h4.8v11.7l-0.2,3.5h0.2c1.5-2.3,4.6-4.4,8.7-4.4c6.4,0,12.1,5.8,12.1,13.5s-5.6,13.5-12.1,13.5
	C138.9,48.3,135.7,46.3,134.3,43.9z M150.2,34.8c0-5.7-3.8-9.2-8.1-9.2c-4.2,0-8.1,3.4-8.1,9.2s3.8,9.2,8.1,9.2
	C146.4,43.9,150.2,40.5,150.2,34.8z M102.1,39.8c0-5.8,5.2-8.9,11.1-8.9c3.4,0,5.9,1,6.9,1.6v-0.7c0-3.8-3.1-6.2-6.6-6.2
	c-2.6,0-5.2,1.3-6.1,3.7l-4.4-1.9c0.9-2.3,3.9-6.2,10.3-6.2c6.2,0,11.3,3.7,11.3,10.9v15.3h-4.6v-3.5h-0.2c-1.4,2.1-4,4.4-8.3,4.4
	C106.4,48.3,102.1,45.1,102.1,39.8z M120.1,36.5c0,0-2-1.7-6.1-1.7c-5,0-7,2.7-7,5c0,2.7,2.8,4,5.3,4
	C116.1,43.9,120.1,40.7,120.1,36.5z M80.4,22.1l-0.2,3.5h0.2c1.3-2.3,4.6-4.4,8-4.4c6.5,0,9.7,4.4,9.7,10.7v15.5h-4.8V32.6
	c0-5.3-2.6-7-6.3-7c-4.1,0-6.7,3.9-6.7,7.8v14h-4.8V10.4h4.8L80.4,22.1L80.4,22.1z M51.4,43.9h-0.2l0.2,3.5v11.2h-4.8V22.1h4.6v3.5
	h0.2c1.5-2.3,4.6-4.4,8.7-4.4c6.4,0,12.1,5.8,12.1,13.5S66.5,48.3,60,48.3C56,48.3,52.8,46.3,51.4,43.9z M67.3,34.8
	c0-5.7-3.8-9.2-8.1-9.2c-4.2,0-8.1,3.4-8.1,9.2s3.8,9.2,8.1,9.2C63.5,43.9,67.3,40.5,67.3,34.8z M36.8,47.5h4.8V10.4h-4.8
	C36.8,10.4,36.8,47.5,36.8,47.5z M14.7,10.4l-14,37.1h5.3l3.6-10.1h15.6l3.6,10.1H34L20,10.4H14.7z M17.2,16.2h0.2L23.5,33H11.2
	C11.2,33,17.2,16.2,17.2,16.2z"/>
</svg>
