<?xml version="1.0" encoding="utf-8"?>
<!-- Generator: Adobe Illustrator 22.0.1, SVG Export Plug-In . SVG Version: 6.00 Build 0)  -->
<svg xmlns="http://www.w3.org/2000/svg" xmlns:xlink="http://www.w3.org/1999/xlink" x="0px" y="0px"
	 viewBox="0 0 200.4 66.5" style="enable-background:new 0 0 200.4 66.5;" xml:space="preserve">
<style type="text/css">
	.amazon-0{fill:#7B878D;}
</style>
<g>
	<path id="arrow_1_" class="amazon-0" d="M120.9,47.6c-12.1,5.1-25.2,7.6-37.1,7.6c-17.7,0-34.8-4.8-48.7-12.9c-1.2-0.7-2.1,0.6-1.1,1.5
		c12.8,11.5,29.8,18.5,48.7,18.5c13.4,0,29-4.3,39.8-12.2C124.2,48.8,122.6,46.8,120.9,47.6z"/>
	<path id="arrow" class="amazon-0" d="M114.1,43.1c-0.9,0.7-0.7,1.6,0.3,1.5c3.4-0.4,11.2-1.3,12.6,0.5c1.4,1.8-1.5,9-2.8,12.3
		c-0.4,1,0.5,1.4,1.3,0.7c5.8-4.8,7.3-15,6-16.4C130.3,40,120.2,38.8,114.1,43.1z"/>
	<path id="z" class="amazon-0" d="M135.1,30.8c-3.3-1.9-7.2-2.4-10.8-2.3l9.8-14c0.9-1.2,1.4-2,1.4-2.6V8.3c0-0.7-0.5-1-1.1-1h-18.9
		c-0.6,0-1,0.5-1,1v4.2l0,0c0,0.7,0.5,1,1.1,1h9.9l-11.4,16.2c-0.7,1-0.7,2.2-0.7,2.9v4.3c0,0.7,0.7,1.3,1.3,0.9
		c6.4-3.4,14.1-3.1,19.9,0c0.7,0.4,1.4-0.4,1.4-0.9v-4.4C136,31.8,135.8,31.3,135.1,30.8z"/>
	<path id="m" class="amazon-0" d="M40.1,38.8h5.8c0.7,0,1.1-0.5,1.1-1V22.2c0-3.4-0.2-8.1,4-8.1c4.1,0,3.5,4.8,3.5,8.1v15.6
		c0,0.6,0.5,1,1,1h5.8c0.7,0,1.1-0.5,1.1-1V22.2c0-1.7-0.1-4.2,0.6-5.7c0.6-1.5,2-2.4,3.4-2.4c1.7,0,3,0.6,3.3,2.5
		c0.3,1.2,0.2,4.3,0.2,5.5v15.6c0,0.6,0.5,1,1,1h5.8c0.7,0,1.1-0.5,1.1-1V19.1c0-3.2,0.4-6.8-1.5-9.2c-1.6-2.2-4.3-3.3-6.6-3.3
		c-3.3,0-6.5,1.8-7.9,5.5c-1.6-3.7-3.8-5.5-7.4-5.5c-3.5,0-6.1,1.8-7.5,5.5h-0.1V8.3c0-0.6-0.5-0.9-1-1h-5.3c-0.7,0-1.1,0.5-1.1,1
		v29.4C39.1,38.3,39.5,38.7,40.1,38.8z"/>
	<path id="o" class="amazon-0" d="M151.7,6.7c-8.3,0-12.9,7.2-12.9,16.3s4.6,16.4,12.9,16.4c8,0,13.1-7.2,13.1-16.1
		C164.9,14.1,160.3,6.7,151.7,6.7z M151.7,33.3c-4.5,0-4.5-7.7-4.5-11.3c0-3.6,0.3-9.3,4.5-9.3c1.9,0,3.1,0.8,3.7,2.9
		c0.7,2.3,0.8,5.3,0.8,7.8C156.4,27.2,156.2,33.3,151.7,33.3z"/>
	<path id="n" class="amazon-0" d="M184.5,6.7c-4,0-6.2,2-7.8,6h-0.1V8.2c-0.1-0.5-0.6-0.8-1-0.8h-5.3c-0.6,0-1,0.5-1.1,0.9v29.4
		c0,0.6,0.5,1,1,1h5.7c0.7,0,1.1-0.5,1.1-1V21.9c0-2,0.1-3.8,0.9-5.6c0.7-1.4,2-2.3,3.3-2.3c4,0,3.6,4.7,3.6,7.9v16
		c0.1,0.5,0.5,0.9,1,0.9h5.8c0.6,0,1-0.4,1.1-0.9V19.4c0-2.9,0-6.8-1.5-9.1C189.6,7.6,187.1,6.7,184.5,6.7z"/>
	<path id="a_1_" class="amazon-0" d="M99.6,18.9c-3.3,0.4-7.6,0.7-10.8,2c-3.6,1.6-6.1,4.7-6.1,9.4c0,6,3.7,8.9,8.6,8.9
		c4.1,0,6.3-0.9,9.5-4.2c1,1.5,1.4,2.2,3.3,3.8c0.5,0.2,0.9,0.2,1.4-0.1l0,0c1.1-1,3.3-2.8,4.4-3.8c0.5-0.4,0.4-1,0-1.5
		c-1-1.5-2.1-2.6-2.1-5.3v-8.9c0-3.8,0.3-7.3-2.5-9.9c-2.1-2.1-5.9-2.9-8.7-2.9c-5.5,0-11.5,2-12.8,8.7c-0.1,0.7,0.4,1.1,0.8,1.2
		L90,17c0.6,0,0.9-0.6,1-1c0.5-2.3,2.4-3.4,4.6-3.4c1.2,0,2.5,0.5,3.3,1.5c0.8,1.2,0.7,2.8,0.7,4.2V18.9L99.6,18.9z M98.4,30.8
		c-0.9,1.6-2.3,2.6-4,2.6c-2.2,0-3.5-1.7-3.5-4.2c0-4.9,4.4-5.8,8.6-5.8v1.2C99.6,27,99.6,28.9,98.4,30.8z"/>
	<path id="a" class="amazon-0" d="M34.6,33.4c-1-1.5-2.1-2.6-2.1-5.3v-8.9c0-3.8,0.3-7.3-2.5-9.9c-2.2-2.1-5.9-2.9-8.7-2.9
		c-5.5,0-11.5,2-12.8,8.7c-0.1,0.7,0.4,1.1,0.8,1.2l5.6,0.6c0.6,0,0.9-0.6,1-1c0.5-2.3,2.4-3.4,4.7-3.4c1.2,0,2.5,0.5,3.3,1.5
		c0.8,1.2,0.7,2.8,0.7,4.2v0.7c-3.4,0.4-7.7,0.7-10.9,2c-3.6,1.6-6.1,4.7-6.1,9.4c0,6,3.7,8.9,8.6,8.9c4.1,0,6.3-0.9,9.5-4.2
		c1,1.5,1.4,2.2,3.3,3.8c0.5,0.2,0.9,0.2,1.4-0.1l0,0c1.1-1,3.3-2.8,4.4-3.8C35.1,34.5,35,33.9,34.6,33.4z M23.4,30.8
		c-0.9,1.6-2.3,2.6-4,2.6c-2.2,0-3.4-1.7-3.4-4.2c0-4.9,4.4-5.8,8.6-5.8v1.2C24.4,27,24.5,28.9,23.4,30.8z"/>
</g>
</svg>
