<?xml version="1.0" encoding="utf-8"?>
<!-- Generator: Adobe Illustrator 22.1.0, SVG Export Plug-In . SVG Version: 6.00 Build 0)  -->
<svg xmlns="http://www.w3.org/2000/svg" xmlns:xlink="http://www.w3.org/1999/xlink" x="0px" y="0px"
	 viewBox="0 0 200.4 66.5" style="enable-background:new 0 0 200.4 66.5;" xml:space="preserve">
<style type="text/css">
	.boring-company-0{fill:#7B878D;}
</style>
<g>
	<g>
		<path class="boring-company-0" d="M177.3,34c-0.1,0.3-0.1,0.6-0.2,0.9c-0.3,3.3-1.5,6.3-4,8.6c-1.7,1.6-3.8,2.6-6,3.1c-2.8,0.7-5.6,0.7-8.4-0.2
			c-4.1-1.2-7-3.9-8.5-7.9c-1.3-3.5-1.3-7.1-0.2-10.7c1.2-3.8,3.7-6.4,7.4-7.9c2.7-1.1,5.6-1.3,8.5-0.9c2.4,0.3,4.6,1.2,6.5,2.8
			c1.4,1.1,2.4,2.6,3.2,4.1c0.2,0.3,0,0.4-0.2,0.5c-1.1,0.5-2.3,1-3.4,1.4c-0.8,0.3-1.5,0.6-2.3,0.9c-0.5,0.2-0.5,0.2-0.7-0.3
			c-0.6-1.2-1.4-2.3-2.6-2.9c-2.6-1.4-6.9-0.9-8.8,2.8c-0.9,1.8-1.2,3.7-1,5.7c0.1,1.5,0.5,3,1.3,4.3c1.3,1.9,3.2,2.7,5.4,2.8
			c1.4,0,2.8-0.2,4-1c1.1-0.7,1.6-1.8,1.9-3c0.1-0.3-0.2-0.3-0.4-0.3c-1.6,0-3.1,0-4.7,0c-0.6,0-0.6,0-0.6-0.5c0-1.4,0-2.9,0-4.3
			c0-0.5,0-0.5,0.5-0.5c4.4,0,8.9,0,13.3,0C177.3,32.3,177.3,33.2,177.3,34z"/>
		<path class="boring-company-0" d="M36,1c0.1,0.2,0.1,0.3,0.1,0.5c0,1.4,0,2.8,0,4.3c0,0.4,0.1,0.5,0.5,0.5c1.4,0,2.8,0,4.1,0
			c0.3,0,0.5-0.1,0.5-0.5c0-1.4,0-2.9,0-4.3c0-0.3,0.1-0.4,0.4-0.4c0.9,0,1.8,0,2.7,0c0.3,0,0.4,0.1,0.4,0.4c0,4.1,0,8.3,0,12.4
			c0,0.5,0,0.5-0.5,0.5c-0.8,0-1.7,0-2.5,0c-0.3,0-0.5-0.1-0.5-0.5c0-1.5,0-3,0-4.5c0-0.6,0-0.6-0.6-0.6c-1.3,0-2.6,0-4,0
			c-0.5,0-0.5,0-0.5,0.5c0,1.5,0,3,0,4.5c0,0.5,0,0.5-0.5,0.5c-0.8,0-1.7,0-2.5,0c-0.3,0-0.5-0.1-0.4-0.4c0-4.2,0-8.4,0-12.6
			c0-0.3,0.1-0.4,0.4-0.4c0.7,0,1.5,0,2.2,0c0.1,0,0.3,0,0.4,0C35.9,1,36,1,36,1z"/>
		<path class="boring-company-0" d="M55,1c0,0.2,0.1,0.4,0.1,0.6c0,0.7,0,1.3,0,2c0,0.3-0.1,0.4-0.4,0.4c-1.1,0-2.2,0-3.3,0C51.1,3.9,51,4,51,4.4
			c0,0.5,0,0.9,0,1.4c0,0.3,0.1,0.4,0.4,0.4c1,0,2,0,3.1,0c0.3,0,0.5,0.1,0.5,0.4c0,0.7,0,1.4,0,2.1c0,0.3-0.1,0.4-0.4,0.4
			c-1,0-2,0-3,0c-0.5,0-0.5,0-0.5,0.6c0,0.4,0,0.9,0,1.3c0,0.3,0.1,0.5,0.5,0.5c1.1,0,2.2,0,3.2,0c0.3,0,0.4,0.1,0.4,0.4
			c0,0.7,0,1.4,0,2.1c0,0.3-0.1,0.4-0.4,0.4c-2.2,0-4.5,0-6.7,0c-0.3,0-0.4-0.1-0.4-0.4c0-4.2,0-8.3,0-12.5C47.5,1.1,47.7,1,48,1
			c2.2,0,4.3,0,6.5,0C54.6,1,54.8,1,55,1C55,1,55,1,55,1z"/>
		<path class="boring-company-0" d="M31,1c0,0.1,0.1,0.2,0.1,0.4c0,0.7,0,1.5,0,2.2c0,0.3-0.1,0.4-0.4,0.4c-0.7,0-1.3,0-2,0
			c-0.4,0-0.5,0.1-0.5,0.5c0,3.1,0,6.3,0,9.4c0,0.6,0,0.6-0.6,0.6c-0.8,0-1.6,0-2.4,0c-0.5,0-0.6,0-0.6-0.5c0-3.1,0-6.2,0-9.3
			c0-0.6,0-0.6-0.6-0.6c-0.8,0-1.5,0-2.3,0c0-1,0-1.9,0-2.9c0.1,0,0.2,0,0.4,0c0.1,0,0.2,0,0.3,0c2.6,0,5.1,0,7.7,0
			c0.1,0,0.2,0,0.3,0C30.8,1,30.9,1,31,1z"/>
		<path class="boring-company-0" d="M60.7,47.2c-3.8-0.1-7.2-1.1-10-3.6c-2.4-2.1-3.9-4.7-4.5-7.8c-0.9-5.1,0.4-9.5,4.2-13.1
			c1.7-1.6,3.7-2.6,6-3.2c2.7-0.7,5.5-0.8,8.2-0.1c5,1.2,8.5,4.1,10.2,9c2,5.7,0.3,12.1-4.8,15.8c-1.9,1.4-4.1,2.3-6.4,2.7
			C62.6,47,61.6,47.1,60.7,47.2z"/>
		<path class="boring-company-0" d="M137.4,35.8c0-0.1,0-0.3,0-0.4c0-5.1,0-10.1,0-15.2c0-0.5,0-0.5,0.6-0.5c2,0,3.9,0,5.9,0
			c0.3,0,0.4,0.1,0.4,0.4c0,8.6,0,17.2,0,25.8c0,0.3-0.1,0.4-0.5,0.4c-2,0-4,0-6,0c-0.3,0-0.5-0.1-0.7-0.4
			c-3.4-4.3-6.7-8.6-10.1-12.9c-0.7-0.9-1.4-1.7-2-2.6c-0.1-0.1-0.1-0.3-0.2-0.4c-0.1,0-0.1,0.1-0.2,0.1c0,0.1,0,0.2,0,0.3
			c0,5.1,0,10.2,0,15.2c0,0.5,0,0.5-0.5,0.5c-2,0-4,0-6,0c-0.3,0-0.5-0.1-0.5-0.5c0-8.6,0-17.2,0-25.8c0-0.5,0-0.5,0.5-0.5
			c2,0,4,0,6.1,0c0.3,0,0.5,0.1,0.7,0.3c4.1,5.2,8.2,10.4,12.2,15.6c0.1,0.1,0.1,0.2,0.2,0.3C137.3,35.9,137.3,35.8,137.4,35.8z"/>
		<path class="boring-company-0" d="M37.8,32.1c0.6,0.2,1.2,0.4,1.7,0.6c2,0.8,3.2,2.3,3.5,4.5c0.2,1.6,0.2,3.3-0.5,4.8c-0.9,2-2.5,3.2-4.5,3.9
			c-1.3,0.4-2.7,0.5-4.1,0.5c-3.5,0-7.1,0-10.6,0c-0.3,0-0.5-0.1-0.5-0.5c0-8.6,0-17.2,0-25.8c0-0.3,0.1-0.4,0.4-0.4
			c3.5,0,7,0,10.5,0c1.4,0,2.7,0.3,3.9,1c1.5,0.9,2.4,2.2,2.8,3.8c0.3,1.4,0.3,2.8,0,4.1C40,30,39.2,31,38.1,31.8
			C38,31.9,37.9,32,37.8,32.1z M29.6,38.1c0,0.8,0,1.6,0,2.5c0,0.2,0,0.4,0.3,0.4c1.2-0.1,2.4-0.1,3.6-0.2c0.5-0.1,1.1-0.3,1.5-0.6
			c0.9-0.6,1.1-1.5,1-2.5c-0.1-1.1-0.8-1.8-1.9-2.1c-1.4-0.4-2.8-0.4-4.2-0.4c-0.3,0-0.3,0.1-0.3,0.4C29.6,36.5,29.6,37.3,29.6,38.1
			z M29.6,27.5c0,0.7,0,1.5,0,2.2c0,0.2,0.1,0.4,0.3,0.4c0.8,0,1.6,0,2.3-0.2c1.1-0.2,1.7-0.9,1.9-2c0.2-1.3-0.3-2.4-1.5-2.8
			c-0.9-0.4-1.9-0.3-2.8-0.2c-0.1,0-0.2,0.2-0.2,0.4C29.6,26.1,29.6,26.8,29.6,27.5z"/>
		<path class="boring-company-0" d="M102,46.3c-0.2,0-0.3,0-0.4,0c-2.6,0-5.1,0-7.7,0c-0.3,0-0.5-0.1-0.7-0.4c-2-3.1-4-6.2-6-9.3
			c-0.1-0.1-0.2-0.2-0.4-0.3c0,0.1,0,0.3,0,0.4c0,3,0,6.1,0,9.1c0,0.5,0,0.5-0.5,0.5c-2,0-4,0-5.9,0c-0.5,0-0.5,0-0.5-0.5
			c0-8.6,0-17.1,0-25.7c0-0.3,0-0.5,0.4-0.5c3.6,0,7.2,0,10.8,0c1.9,0,3.8,0.5,5.4,1.7c1.7,1.3,2.6,3.1,2.9,5.2
			c0.2,1.5,0.1,3-0.4,4.4c-0.7,2.1-2.3,3.4-4.3,4.1c-0.2,0.1-0.4,0.1-0.6,0.2c-0.4,0.1-0.4,0.2-0.2,0.5c0.8,1.1,1.7,2.2,2.5,3.3
			c1.8,2.3,3.5,4.6,5.3,6.9C101.9,46.1,101.9,46.2,102,46.3z M86.8,28.3c0,1,0,1.9,0,2.9c0,0.2,0,0.4,0.3,0.4c1-0.1,1.9-0.1,2.9-0.3
			c1.4-0.3,2.3-1.4,2.4-2.8c0.1-1.7-0.7-2.8-2.2-3.3c-1-0.3-2-0.3-3-0.3c-0.3,0-0.4,0.1-0.4,0.4C86.8,26.3,86.8,27.3,86.8,28.3z"/>
		<path class="boring-company-0" d="M112,33c0,4.3,0,8.6,0,12.9c0,0.3-0.1,0.4-0.4,0.4c-2,0-4.1,0-6.1,0c-0.4,0-0.4-0.1-0.4-0.5c0-3.7,0-7.3,0-11
			c0-4.9,0-9.8,0-14.8c0-0.5,0-0.5,0.5-0.5c2,0,4,0,6,0c0.5,0,0.5,0,0.5,0.5C112,24.4,112,28.7,112,33C112,33,112,33,112,33z"/>
		<path class="boring-company-0" d="M116.1,58.4c-0.1,0.1-0.1,0.2-0.2,0.3c-0.9,2.2-1.8,4.4-2.7,6.7c-0.1,0.3-0.3,0.4-0.6,0.4
			c-1.1,0-0.9,0.1-1.2-0.8c-0.8-2.1-1.6-4.2-2.5-6.3c0-0.1-0.1-0.2-0.2-0.3c0,0-0.1,0-0.1,0c-0.1,0.4-0.1,0.8-0.2,1.2
			c-0.3,2-0.6,3.9-0.9,5.9c0,0.2-0.1,0.3-0.4,0.3c-0.9,0-1.8,0-2.8,0c-0.3,0-0.3-0.2-0.3-0.4c0.1-0.8,0.3-1.6,0.4-2.5
			c0.3-1.9,0.6-3.7,0.9-5.6c0.3-1.5,0.5-3,0.8-4.5c0.1-0.3,0.2-0.4,0.5-0.4c0.8,0,1.7,0,2.5,0c0.3,0,0.5,0.1,0.6,0.4
			c0.7,1.9,1.4,3.8,2.1,5.7c0.1,0.3,0.2,0.6,0.3,0.9c0,0,0.1,0,0.1,0c0.1-0.3,0.2-0.6,0.3-0.9c0.7-1.9,1.4-3.8,2.1-5.7
			c0.1-0.3,0.2-0.4,0.5-0.4c0.9,0,1.8,0,2.7,0c0.3,0,0.4,0.1,0.4,0.4c0.5,2.9,1,5.9,1.5,8.8c0.2,1.3,0.4,2.5,0.6,3.8
			c0.1,0.3,0,0.4-0.3,0.4c-0.9,0-1.7,0-2.6,0c-0.3,0-0.4-0.1-0.5-0.4c-0.2-1.3-0.4-2.7-0.6-4c-0.1-0.9-0.3-1.7-0.4-2.6
			C116.3,58.6,116.3,58.5,116.1,58.4C116.2,58.4,116.2,58.4,116.1,58.4z"/>
		<path class="boring-company-0" d="M152.1,57.7c0,0.3-0.1,0.4-0.1,0.6c0,2.3,0,4.7,0,7c0,0.5,0,0.5-0.5,0.5c-0.8,0-1.7,0-2.5,0
			c-0.3,0-0.4-0.1-0.4-0.4c0-4.2,0-8.4,0-12.5c0-0.3,0.1-0.4,0.4-0.4c0.9,0,1.8,0,2.8,0c0.2,0,0.4,0.1,0.5,0.3
			c1.9,2.5,3.9,4.9,5.8,7.4c0.1,0.1,0.2,0.2,0.4,0.4c0-0.3,0-0.4,0-0.5c0-2.3,0-4.7,0-7c0-0.5,0-0.5,0.5-0.5c0.8,0,1.7,0,2.5,0
			c0.3,0,0.4,0.1,0.4,0.4c0,4.2,0,8.4,0,12.5c0,0.3-0.1,0.4-0.4,0.4c-0.9,0-1.7,0-2.6,0c-0.3,0-0.5-0.1-0.7-0.3
			c-1.9-2.5-3.9-4.9-5.8-7.4C152.3,58,152.3,57.9,152.1,57.7z"/>
		<path class="boring-company-0" d="M95.2,66.2c-2.9-0.1-5.2-1.2-6.6-3.7c-2.1-3.7-0.4-8.9,4.3-10.2c2.4-0.6,4.8-0.3,6.8,1.2
			c1.9,1.4,2.8,3.4,2.8,5.7c-0.1,3.5-2.4,6.2-5.8,6.8C96.1,66.1,95.6,66.1,95.2,66.2z M91.3,59.1c0,2.1,1.6,3.7,3.8,3.7
			c2.1,0,3.8-1.6,3.8-3.7c0-2.1-1.6-3.7-3.8-3.7C93,55.4,91.3,57,91.3,59.1z"/>
		<path class="boring-company-0" d="M145.1,65.8c-0.4,0-0.9,0-1.3,0c-0.4,0-0.5-0.1-0.6-0.4c-0.2-0.5-0.4-1-0.5-1.6c-0.1-0.3-0.2-0.4-0.5-0.4
			c-1.4,0-2.8,0-4.3,0c-0.3,0-0.4,0.1-0.5,0.4c-0.2,0.6-0.4,1.1-0.6,1.7c-0.1,0.2-0.2,0.3-0.4,0.3c-1,0-2,0-3,0
			c-0.3,0-0.3-0.1-0.2-0.4c1.6-4.2,3.2-8.3,4.8-12.5c0.1-0.3,0.3-0.5,0.7-0.5c1,0,1.9,0,2.9,0c0.3,0,0.4,0.1,0.5,0.4
			c1.4,3.7,2.8,7.4,4.3,11.2c0.2,0.5,0.4,1,0.5,1.4c0.1,0.3,0.1,0.4-0.3,0.4C146.1,65.8,145.6,65.8,145.1,65.8z M140.1,56.5
			c-0.1,0.2-0.2,0.3-0.2,0.4c-0.4,1.2-0.8,2.4-1.3,3.6c-0.1,0.3,0,0.4,0.3,0.4c0.8,0,1.6,0,2.3,0c0.3,0,0.4-0.1,0.3-0.4
			c-0.2-0.6-0.4-1.2-0.6-1.8C140.6,58,140.4,57.3,140.1,56.5z"/>
		<path class="boring-company-0" d="M123.1,59.1c0-2.1,0-4.1,0-6.2c0-0.5,0-0.5,0.5-0.5c1.8,0,3.5,0,5.3,0c0.7,0,1.4,0.2,2.1,0.5
			c1.2,0.5,1.9,1.5,2.2,2.8c0.2,1.1,0.2,2.2-0.2,3.3c-0.7,1.6-2,2.3-3.7,2.4c-0.7,0.1-1.5,0-2.2,0c-0.3,0-0.4,0.1-0.4,0.4
			c0,1.2,0,2.4,0,3.6c0,0.3-0.1,0.4-0.4,0.4c-0.9,0-1.7,0-2.6,0c-0.3,0-0.4-0.1-0.4-0.5C123.1,63.3,123.1,61.2,123.1,59.1z
			 M126.5,56.9c0,0.4,0,0.9,0,1.3c0,0.2,0.1,0.3,0.3,0.3c0.4,0,0.8,0,1.2,0c1.2-0.1,1.8-0.9,1.6-2.1c-0.1-0.6-0.5-1.1-1.2-1.2
			c-0.5-0.1-1-0.1-1.6-0.1c-0.2,0-0.3,0.1-0.3,0.4C126.5,56,126.5,56.5,126.5,56.9z"/>
		<path class="boring-company-0" d="M85.8,61.6c0,0.2,0,0.4,0,0.7c0,0.9,0,1.9,0,2.8c0,0.3-0.1,0.5-0.4,0.6c-1,0.3-2,0.6-3.1,0.5
			c-2.7-0.2-4.8-1.5-6-4c-1.9-3.8-0.1-8.3,4-9.7c1.7-0.6,3.5-0.5,5.2,0.2c0.1,0.1,0.3,0.2,0.3,0.4c0,1.2,0,2.4,0,3.5
			c0,0,0,0.1,0,0.1c-2-1.7-4.1-1.9-5.8,0.3c-1.1,1.3-0.9,3.4,0.2,4.7c0.7,0.8,1.7,1.2,2.8,1.2c1.1,0,2-0.5,2.8-1.3
			C85.8,61.6,85.8,61.6,85.8,61.6z"/>
		<path class="boring-company-0" d="M163.2,52.5c0.2,0,0.3,0,0.4,0c1.1,0,2.2,0,3.2,0c0.3,0,0.4,0.1,0.6,0.3c0.7,1,1.3,2,2,3
			c0.2,0.4,0.3,0.4,0.5,0c0.7-1,1.3-1.9,2-2.9c0.2-0.3,0.4-0.4,0.7-0.4c1.1,0,2.1,0,3.2,0c0.1,0,0.2,0,0.4,0
			c-0.1,0.2-0.1,0.2-0.2,0.3c-1.5,2.1-3,4.2-4.4,6.3c-0.1,0.2-0.2,0.5-0.2,0.7c0,1.9,0,3.7,0,5.6c0,0.4-0.1,0.5-0.5,0.5
			c-0.9,0-1.7,0-2.6,0c-0.3,0-0.4-0.1-0.4-0.4c0-1.9,0-3.7,0-5.6c0-0.3-0.1-0.6-0.2-0.8c-1.4-2.1-2.9-4.1-4.3-6.1
			C163.3,52.8,163.3,52.6,163.2,52.5z"/>
	</g>
</g>
</svg>
