<?xml version="1.0" encoding="utf-8"?>
<!-- Generator: Adobe Illustrator 22.1.0, SVG Export Plug-In . SVG Version: 6.00 Build 0)  -->
<svg xmlns="http://www.w3.org/2000/svg" xmlns:xlink="http://www.w3.org/1999/xlink" x="0px" y="0px"
	 viewBox="0 0 200.4 66.5" style="enable-background:new 0 0 200.4 66.5;" xml:space="preserve">
<style type="text/css">
	.embark-0{fill:#7B878D;}
</style>
<path class="embark-0" d="M63.9,38.2c0.5-2.6,0.2-3.6-1.7-3.6c-1.7,0-2.8,1-3.3,3.6l-4.3,20.4H44.2l6.6-30.9h10L60,31.5h0.2
	c1.9-3.1,5-4.7,8.5-4.7c4.3,0,6,1.6,6.6,4.8c2.4-3.6,5.7-4.8,8.8-4.8c4.5,0,7.6,1.7,6.2,8.5l-5,23.3H75l4.3-20.4
	c0.5-2.6,0.2-3.6-1.7-3.6c-1.9,0-2.8,1-3.3,3.6L70,58.6H59.6L63.9,38.2L63.9,38.2z M97.1,17.8h10.4l-2.9,13.3h0.2
	c1.7-3.1,4.5-4.3,7.3-4.3c6,0,8.8,3.6,6.2,15.7c-2.4,11.4-5.9,16.9-12.8,16.9c-3.6,0-5.5-1.7-6-5l-1,4.1h-9.8L97.1,17.8L97.1,17.8z
	 M103,51.7c2.4,0,3.5-1.9,4.8-8.5c1.4-6.7,1.2-8.6-1.2-8.6c-2.2,0-3.1,1.9-4.7,8.6C100.5,49.8,100.7,51.7,103,51.7L103,51.7z
	 M133,58.6c-0.2-1,0-2.2,0.2-3.5H133c-1.7,2.8-4.8,4.3-7.9,4.3c-6.2,0-7.8-3.8-6.6-9.2c1.2-5.7,3.8-8.5,10.7-10l4.1-0.9
	c2.4-0.5,3.5-1.6,3.8-3.5c0.3-1.9-0.2-2.8-2.1-2.8c-1.9,0-2.9,0.9-3.8,4h-8.8c1.9-8.8,9.3-10.4,14-10.4c7.3,0,11.9,1.9,10.2,10
	l-3.3,15c-0.5,2.9-0.9,5.2-0.3,6.7L133,58.6L133,58.6L133,58.6z M134.8,47.4l0.9-3.6h-0.2c-0.7,0.7-2.1,0.7-3.8,1.4
	c-1.7,0.7-2.6,1.9-2.9,4c-0.5,2.1,0.2,3.5,1.7,3.5C132.9,52.5,134.1,50.8,134.8,47.4L134.8,47.4z M152,27.7h10l-1,4.8
	c1.9-3.6,5.2-5.7,8.1-5.7h1.7l-2.1,9.7c-0.9-0.2-1.7-0.2-2.6-0.2c-3.6,0-6,1.4-6.9,5.4l-3.6,16.9h-10.2L152,27.7z M175.4,17.8h10.4
	l-4.3,20.6l8.1-10.7h10.9l-11.2,12.8l5.7,18.1H184l-2.9-10.7l-2.4,2.8l-1.6,7.9h-10.4L175.4,17.8L175.4,17.8z"/>
<path class="embark-0" d="M24,58.6H10.9l4.8-20.7H0l2.4-10.4h15.7l4.5-19.2h13L33.2,19l-2.1,8.5h16.6l-2.4,10.4H28.9L24,58.6L24,58.6z"/>
<path class="embark-0" d="M50.8,19l2.4-10.9h-15L35.6,19H50.8z M41.8,58.6l2.6-10.7H28.7l-2.6,10.7H41.8z"/>
</svg>
