<?xml version="1.0" encoding="utf-8"?>
<!-- Generator: Adobe Illustrator 22.1.0, SVG Export Plug-In . SVG Version: 6.00 Build 0)  -->
<svg xmlns="http://www.w3.org/2000/svg" xmlns:xlink="http://www.w3.org/1999/xlink" x="0px" y="0px"
	 viewBox="0 0 200.4 66.5" style="enable-background:new 0 0 200.4 66.5;" xml:space="preserve">
<style type="text/css">
	.netflix-0{fill:#7B878D;}
</style>
<path class="netflix-0" d="M28.1,57.8c-3,0.5-6,0.7-9.2,1.1L9.3,30.7v29.4c-3,0.3-5.7,0.7-8.6,1.2V7.4h8L19.6,38V7.4h8.5L28.1,57.8
	L28.1,57.8z M44.7,27.2c3.3,0,8.3-0.2,11.3-0.2v8.4c-3.7,0-8.1,0-11.3,0.2v12.5c4.9-0.3,9.9-0.7,14.9-0.9v8.1l-23.3,1.8V7.4h23.3
	v8.4H44.7C44.7,15.9,44.7,27.2,44.7,27.2z M90.8,15.9h-8.7v38.7c-2.8,0-5.7,0-8.4,0.1V15.9h-8.7V7.4h25.9
	C90.8,7.4,90.8,15.9,90.8,15.9z M104.5,26.6H116V35h-11.5v19.1h-8.3V7.4h23.5v8.4h-15.2C104.5,15.9,104.5,26.6,104.5,26.6z
	 M133.4,46.7c4.8,0.1,9.6,0.5,14.3,0.7v8.3c-7.5-0.5-15-0.9-22.7-1.1V7.4h8.4V46.7L133.4,46.7z M154.8,56.3c2.7,0.2,5.5,0.3,8.3,0.6
	V7.4h-8.3V56.3z M199.9,7.4L189.2,33l10.7,28.2c-3.2-0.4-6.3-1-9.5-1.5l-6-15.6l-6.2,14.3c-3-0.5-6-0.7-9-1.1L180,32.7l-9.8-25.3h9
	l5.5,14.1l5.9-14.1L199.9,7.4L199.9,7.4z"/>
</svg>
