<?xml version="1.0" encoding="utf-8"?>
<!-- Generator: Adobe Illustrator 22.0.1, SVG Export Plug-In . SVG Version: 6.00 Build 0)  -->
<svg xmlns="http://www.w3.org/2000/svg" xmlns:xlink="http://www.w3.org/1999/xlink" x="0px" y="0px"
	 viewBox="0 0 200.4 66.5" style="enable-background:new 0 0 200.4 66.5;" xml:space="preserve">
<style type="text/css">
	.paypal-0{fill:#7B878D;}
	.paypal-1{fill:#909DA5;}
</style>
<g>
	<path class="paypal-0" d="M161.8,21.8c-1.6-1.8-4.4-2.8-8.1-2.8h-11.1c-0.8,0-1.4,0.6-1.5,1.3l-4.5,28.4c-0.1,0.6,0.3,1.1,0.9,1.1h5.7
		c0.5,0,1-0.4,1.1-0.9l1.3-8c0.1-0.7,0.8-1.3,1.5-1.3h3.5c7.3,0,11.5-3.5,12.6-10.5C163.7,25.9,163.2,23.5,161.8,21.8z M155,29.4
		c-0.6,4-3.6,4-6.6,4h-1.7l1.2-7.4c0.1-0.4,0.5-0.8,0.9-0.8h0.8c2,0,3.9,0,4.9,1.1C155,27,155.2,28,155,29.4z"/>
	<path class="paypal-0" d="M186.8,29.3h-5.3c-0.5,0-0.8,0.3-0.9,0.8l-0.2,1.5l-0.4-0.5c-1.1-1.7-3.7-2.2-6.3-2.2
		c-5.9,0-10.9,4.4-11.8,10.7c-0.5,3.1,0.2,6.1,2,8.1c1.6,1.9,3.9,2.7,6.7,2.7c4.7,0,7.3-3,7.3-3l-0.2,1.5c-0.1,0.6,0.3,1.1,0.9,1.1
		h4.8c0.8,0,1.4-0.6,1.5-1.3l2.9-18.1C187.8,29.8,187.4,29.3,186.8,29.3z M179.4,39.6c-0.5,3-2.9,5.1-6,5.1c-1.5,0-2.8-0.5-3.6-1.4
		s-1.1-2.3-0.8-3.7c0.5-3,2.9-5.1,5.9-5.1c1.5,0,2.7,0.5,3.5,1.4C179.3,36.8,179.7,38.1,179.4,39.6z"/>
	<path class="paypal-0" d="M199.1,19H194c-0.5,0-0.8,0.3-0.9,0.8l-4.5,28.9c-0.1,0.6,0.3,1.1,0.9,1.1h4.6c0.8,0,1.4-0.5,1.5-1.3l4.4-28.4
		C200.1,19.5,199.6,19,199.1,19z"/>
	<path class="paypal-0" d="M82.9,21.8C81.3,20,78.5,19,74.8,19H63.7c-0.8,0-1.4,0.6-1.5,1.3l-4.5,28.4c-0.1,0.6,0.3,1.1,0.9,1.1h5.3
		c0.8,0,1.4-0.5,1.5-1.3l1.2-7.7c0.1-0.7,0.8-1.3,1.5-1.3h3.5c7.3,0,11.5-3.5,12.6-10.5C84.8,25.9,84.3,23.5,82.9,21.8z M76.1,29.4
		c-0.6,4-3.6,4-6.6,4h-1.7L69,26c0.1-0.4,0.5-0.8,0.9-0.8h0.8c2,0,3.9,0,4.9,1.1C76.1,27,76.3,28,76.1,29.4z"/>
	<path class="paypal-0" d="M107.9,29.3h-5.3c-0.5,0-0.8,0.3-0.9,0.8l-0.2,1.5l-0.4-0.5c-1.1-1.7-3.7-2.2-6.3-2.2
		c-5.9,0-10.9,4.4-11.8,10.7c-0.5,3.1,0.2,6.1,2,8.1c1.6,1.9,3.9,2.7,6.7,2.7c4.7,0,7.3-3,7.3-3l-0.2,1.5c-0.1,0.6,0.3,1.1,0.9,1.1
		h4.8c0.8,0,1.4-0.6,1.5-1.3l2.9-18.1C108.9,29.8,108.4,29.3,107.9,29.3z M100.5,39.6c-0.5,3-2.9,5.1-6,5.1c-1.5,0-2.8-0.5-3.6-1.4
		c-0.8-0.9-1.1-2.3-0.8-3.7c0.5-3,2.9-5.1,5.9-5.1c1.5,0,2.7,0.5,3.5,1.4C100.4,36.8,100.7,38.1,100.5,39.6z"/>
	<path class="paypal-0" d="M136.1,29.3h-5.3c-0.5,0-1,0.3-1.3,0.7l-7.3,10.8L119,30.4c-0.2-0.7-0.8-1.1-1.5-1.1h-5.2
		c-0.6,0-1.1,0.6-0.9,1.2l5.9,17.2l-5.5,7.8c-0.4,0.6,0,1.5,0.8,1.5h5.3c0.5,0,1-0.2,1.3-0.7l17.7-25.6
		C137.3,30.1,136.8,29.3,136.1,29.3z"/>
	<path class="paypal-1" d="M39.5,22.2c-0.6-0.7-1.3-1.2-2.2-1.7l0,0c0,0.3-0.1,0.6-0.2,0.9C37,21.7,37,22,36.9,22.2
		c-1.9,8.5-7.3,12.1-14.3,12.9c-0.5,0.1-0.9,0.1-1.4,0.1s-1.1,0-1.6,0h-4.5c-1.1,0-2,0.8-2.1,1.8l-2,12.8l-0.3,1.7L10,55.6
		c-0.1,0.7,0.4,1.3,1.1,1.3H19c0.9,0,1.7-0.7,1.9-1.6l0.1-0.4l1.5-9.4l0.1-0.5c0.1-0.9,0.9-1.6,1.9-1.6h1.2
		c7.7,0,13.6-3.1,15.4-12.1C41.8,27.5,41.4,24.4,39.5,22.2z"/>
	<path class="paypal-0" d="M13,37.1l0.1-0.5l2.5-16c0.1-0.6,0.5-1.2,1.1-1.4c0.3-0.1,0.5-0.2,0.8-0.2h11.9c1.4,0,2.7,0.1,3.9,0.3
		c0.3,0.1,0.7,0.1,1,0.2c0.3,0.1,0.6,0.2,0.9,0.2c0.1,0,0.2,0.1,0.3,0.1h0.1c0,0,0,0,0.1,0c0.6,0.2,1.1,0.4,1.6,0.7l0,0
		c0.6-3.8,0-6.4-2.1-8.7C33,9.2,28.9,8.1,23.7,8.1H8.5c-1.1,0-2,0.8-2.1,1.8L0,50c-0.1,0.8,0.5,1.5,1.3,1.5h9.4l0.3-1.7L13,37.1z"/>
	<path class="paypal-0" d="M37.3,20.5c-0.5-0.3-1-0.5-1.6-0.7c0,0,0,0-0.1,0h-0.1c-0.1,0-0.2-0.1-0.3-0.1c-0.3-0.1-0.6-0.2-0.9-0.2
		c-0.3-0.1-0.7-0.1-1-0.2c-1.2-0.2-2.5-0.3-3.9-0.3h-12c-0.3,0-0.6,0.1-0.8,0.2c-0.5,0.3-1,0.8-1.1,1.4l-2.5,16v0.5
		c0.2-1.1,1.1-1.8,2.1-1.8h4.5c0.5,0,1.1,0,1.6,0s1-0.1,1.4-0.1c7-0.8,12.4-4.4,14.4-12.8c0.1-0.3,0.1-0.5,0.2-0.8
		C37.2,21.1,37.3,20.8,37.3,20.5L37.3,20.5z"/>
</g>
</svg>
