<?xml version="1.0" encoding="utf-8"?>
<!-- Generator: Adobe Illustrator 22.0.1, SVG Export Plug-In . SVG Version: 6.00 Build 0)  -->
<svg xmlns="http://www.w3.org/2000/svg" xmlns:xlink="http://www.w3.org/1999/xlink" x="0px" y="0px"
	 viewBox="0 0 200.4 66.5" style="enable-background:new 0 0 200.4 66.5;" xml:space="preserve">
<style type="text/css">
	.samsung-0{fill:#7B878D;}
</style>
<g>
	<path id="samsung_1_" class="samsung-0" d="M193,17.2C190.4,2.6,146.7-2,95.1,7.1C72.7,11,52.4,16.8,37,23.4c0.8-0.2,1.7-0.3,2.7-0.3
		c2.7,0,6.5,0.7,6.5,4.9v1.3h-4.8c0,0,0-0.8,0-1.2c0-1-0.7-1.8-1.8-1.8c-1.2,0-1.6,0.7-1.8,1.3c0,0.2-0.1,0.7,0,1
		c0.6,2.3,7.9,3.5,8.6,7.5c0.1,0.4,0.3,1.5,0,3.2c-0.5,3.2-3.3,4.4-6.9,4.4c-3.7,0-7-1.3-7-5.6v-1.5h5.2v1.9c0,1,0.8,1.8,2,1.8
		c1.3,0,1.7-0.7,1.9-1.3c0.1-0.4,0.2-0.9,0-1.4c-1-2.5-7.9-3.7-8.7-7.6c-0.2-0.9-0.2-1.8,0-2.6c0.2-1.3,0.8-2.3,1.8-3
		C16,32.5,5,41.8,6.4,49.7C9,64.3,52.7,68.9,104.3,59.8c23-4,43.7-10,59.2-16.7c-0.8,0.2-1.7,0.3-2.6,0.3c-3.4,0-6.5-1.2-6.8-4.8
		c-0.1-0.7-0.1-0.9-0.1-1.3v-8.2c0-0.4,0-0.9,0.1-1.3c0.5-3.6,3.4-4.8,6.8-4.8s6.4,1.1,6.8,4.8c0.1,0.7,0,1.3,0,1.3v0.7h-4.9v-1
		c0,0,0-0.5-0.1-0.8c-0.1-0.5-0.5-1.4-1.9-1.4c-1.4,0-1.8,0.9-1.9,1.4c-0.1,0.3-0.1,0.6-0.1,0.9v8.8c0,0.3,0,0.5,0.1,0.8
		c0.1,0.6,0.6,1.4,2,1.4c1.4,0,1.9-0.8,2-1.4c0-0.2,0-0.5,0-0.8V35h-2v-2.8h6.9v5.2c0,0.4,0,0.7-0.1,1.3c-0.2,1.6-0.8,2.7-1.9,3.5
		C183.7,34,194.3,25,193,17.2z M60.3,43l-2.5-17.6h-0.1L55,42.9h-5.2l3.6-19.3h8.5l3.6,19.3L60.3,43L60.3,43z M86,43l-0.1-17.4h-0.1
		L82.6,43h-4.9l-3.2-17.4h-0.1L74.3,43h-4.8L70,23.7h7.9l2.3,14.7h0.1l2.3-14.7h7.9L91,43H86L86,43L86,43z M109.2,39.3
		c-0.5,3.2-3.3,4.3-6.8,4.3c-3.6,0-6.9-1.3-6.9-5.5v-1.5h5.2v1.9c0,1,0.8,1.7,1.9,1.7c1.3,0,1.7-0.7,1.9-1.3c0.1-0.4,0.2-0.9,0-1.4
		c-0.9-2.4-7.8-3.6-8.6-7.5c-0.2-0.9-0.2-1.7,0-2.5c0.5-3.1,3.3-4.2,6.7-4.2c2.7,0,6.5,0.7,6.5,4.8v1.3h-4.8c0,0,0-0.8,0-1.2
		c0-1-0.7-1.7-1.8-1.7c-1.2,0-1.6,0.7-1.8,1.3c-0.1,0.2-0.1,0.7,0,1c0.6,2.3,7.8,3.5,8.6,7.4C109.3,36.5,109.5,37.7,109.2,39.3z
		 M127.3,38.8c-0.4,3.6-3.2,4.8-6.8,4.8s-6.4-1.1-6.8-4.8c0-0.2-0.1-0.9,0-1.2V23.7h4.9V38c0,0.3,0,0.6,0,0.8
		c0.1,0.5,0.5,1.4,1.9,1.4c1.3,0,1.8-0.9,1.9-1.4c0-0.2,0.1-0.5,0-0.8V23.7h4.9v13.8C127.4,37.9,127.3,38.6,127.3,38.8z M149,42.8
		h-6.9l-4.8-15.7h-0.1l0.3,15.7h-4.8V23.7h7.1l4.4,15.1h0.1l-0.3-15.1h4.8L149,42.8L149,42.8z"/>
</g>
</svg>
