<svg xmlns="http://www.w3.org/2000/svg" viewBox="0 0 64.334 64.334"><path d="M61.749 24.739l-1.527-.329-.007.406-.074.642-.118 1.04-2.431 21.231c-.193 1.681-1.597 2.948-3.268 2.948l-.37-.021-6.534-.749-10.562-1.209-10.559-1.208 29.195 6.288c.226.049.457.072.686.072 1.54 0 2.895-1.105 3.222-2.628l4.855-22.547c.187-.864.031-1.749-.439-2.491-.473-.746-1.208-1.261-2.069-1.445zm-9.141 23.892l.372.021c.278 0 .543-.046.801-.111.696-.178 1.309-.572 1.75-1.125.383-.477.641-1.061.715-1.711l2.236-19.54.119-1.04.118-1.04.103-.891.046-.404c.041-.367.01-.729-.063-1.08-.104-.489-.304-.953-.619-1.356-.545-.698-1.326-1.137-2.2-1.237l-1.722-.197v23.946c0 1.37-1.027 2.48-2.294 2.48h-28.052l4.964.567 23.726 2.718zm-5.003-7.709l-11.383 1.058-11.229 1.041-1.712.158-4.969.462-.086.008-2.312.215-1.253.117-.13.012-.761.071h35.979c1.81 0 3.281-1.49 3.281-3.321v-23.066c0-.932-.383-1.771-.994-2.374-.593-.583-1.398-.947-2.287-.947h-2.303l.087.939.01.102.097 1.042.161 1.742.098 1.061.077.832.021.229.076.831.063.675.035.386.065.702.101 1.087 1.323 14.261c.127 1.361-.793 2.561-2.055 2.677zm-26.171-10.065c-.085.009-.158.041-.22.099-.09.086-.128.213-.112.383.012.136.06.245.142.325.083.079.179.114.293.103.111-.01.194-.06.251-.15.056-.09.076-.201.064-.334-.013-.149-.061-.259-.141-.331-.08-.074-.172-.104-.277-.095zm-.617 6.598l-.195.08c-.066.046-.094.111-.086.196.007.075.034.127.078.155l.159.036c.097-.01.181-.045.257-.108.077-.062.109-.168.097-.315l-.015-.162-.082.05-.114.04-.099.028zm7.019-6.684c-.012-.13-.054-.225-.127-.286s-.165-.086-.277-.076c-.113.01-.198.053-.258.126-.061.073-.083.175-.071.305.011.125.053.219.125.282.072.062.165.088.279.078.115-.01.201-.054.259-.129.059-.074.082-.175.07-.3zm1.497-1.563c-.085.009-.157.039-.213.093-.088.084-.125.216-.109.395.014.151.055.262.124.331.069.07.167.099.294.086.068-.006.132-.032.189-.078.107-.083.151-.214.134-.394-.013-.144-.058-.255-.133-.332s-.17-.112-.286-.101zm-1.938.818c.102-.009.178-.045.228-.11.05-.063.071-.142.063-.234-.01-.101-.045-.177-.107-.228-.061-.051-.143-.073-.245-.062-.101.009-.177.046-.228.107-.052.062-.072.144-.063.244.008.093.044.166.106.219.064.052.146.074.246.064zm5.616 5.729c-.075-.053-.165-.075-.269-.065-.111.011-.196.051-.253.121-.056.069-.086.16-.093.271l.757-.071c-.019-.118-.065-.201-.142-.256zm5.918-6.232l.634-.059-.102-1.095zm-10.752 7.238l-.196.079c-.065.047-.094.112-.086.196.008.075.033.128.078.156l.16.035c.096-.009.181-.045.257-.107.077-.063.108-.168.097-.315l-.015-.163-.082.05-.115.041-.098.028zm15.241-7.975c-.086.008-.159.041-.219.099-.091.085-.13.212-.113.382.014.136.062.245.143.325.082.079.179.114.292.103.111-.011.195-.061.251-.15.058-.089.077-.201.065-.335-.015-.148-.062-.259-.142-.331-.079-.072-.173-.104-.277-.093zm-25.942 1.654l-.532 1.156.482-.046.154-.014-.046-.486zm-2.08 6.885c-.112.012-.196.052-.252.121-.057.07-.086.161-.093.271l.757-.07c-.02-.116-.067-.201-.142-.254-.077-.056-.167-.078-.27-.068zm-4.353 1.003l-.114.04-.099.028-.195.079c-.066.047-.094.112-.086.195.007.075.034.127.078.157l.159.035c.096-.009.181-.045.257-.108.077-.062.109-.167.097-.314l-.015-.163-.082.051zm-3.242-5.504c.031-.16.033-.386.007-.678-.029-.306-.073-.532-.133-.674-.061-.143-.165-.208-.314-.194-.149.013-.239.097-.274.249-.035.152-.037.381-.007.688.026.292.072.514.135.664.062.149.167.219.316.205.149-.015.238-.102.27-.26zm-2.657 10.906l.274.027.301-.015 2.559-.237.843-.078 2.209-.205.342-.031 1.037-.097.455-.042.339-.031.263-.024.475-.043 1.05-.098 1.083-.1 1.763-.164 6.597-.611 20.472-1.899c1.802-.169 3.129-1.788 2.959-3.611l-1.185-12.78-.101-1.087-.053-.564-.05-.523-.049-.538-.076-.831-.021-.229-.077-.831-.098-1.061-.146-1.588-.098-1.042-.009-.103-.088-.939-.079-.853c-.098-1.056-.675-1.942-1.491-2.479-.594-.39-1.311-.599-2.082-.525l-39.487 3.665c-1.8.168-3.129 1.787-2.96 3.61l2.131 22.966c.15 1.627 1.419 2.859 2.998 2.991zm2.233-22.44c-.135.111-.261.235-.376.373l-.191.283c-.21.329-.348.692-.405 1.074l-.702.067c.112-.673.524-1.247 1.106-1.575.176-.099.366-.174.568-.222zm33.963-5.892c.374.29.69.643.952 1.042.235.36.429.748.551 1.175.071.252.127.513.152.783l-.001.283c.01.276-.008.548-.052.816l-.045.221c-.059.273-.145.537-.256.793l-.044.104c-.145.31-.316.606-.535.878l-.035.053-.01.009c-.285.343-.625.618-.989.852-.572.368-1.217.613-1.912.679l-.409.02c-.76 0-1.466-.206-2.087-.55-.696.657-1.573 1.079-2.542 1.169l-.41.02c-2.163 0-3.948-1.578-4.255-3.698l-.026-.145-.014-.071c-.026-.282-.023-.562.004-.837l.027-.153c.031-.22.069-.439.132-.65l.083-.217.059-.14c.088-.221.19-.435.315-.64.108-.179.217-.358.353-.522l.232-.23.208-.205c.404-.367.867-.647 1.373-.837l.25-.102c.278-.084.565-.144.861-.172.589-.057 1.156.009 1.685.172l.257.102c.202.078.4.156.588.262l.298-.262.152-.102c.593-.419 1.288-.708 2.06-.78 1.079-.103 2.078.209 2.885.78l.145.1zm-32.878 23.953l-.442.042-.167-1.778-.046-.49.046-.004.45-.043.591.842.163.234.295.42-.149-1.582.442-.041.213 2.269-.474.045-.329-.465-.163-.231-.585-.827.155 1.609zm-1.651-6.232c-.122-.211-.208-.487-.243-.855-.04-.42-.005-.75.104-.991l.14-.16c.121-.13.278-.225.51-.247.223-.021.389.037.531.132l.184.146c.15.214.247.532.286.952.04.419.006.75-.104.988-.071.156-.206.252-.366.317-.086.037-.17.077-.283.087-.324.03-.562-.062-.713-.275l-.046-.094zm-.41-9.238l.153 1.619.007.036-.702.066-.157-1.656.699-.065zm24.386 11.705c.085-.054.184-.088.295-.098l.223.022c.074.021.145.065.209.132.053.054.092.123.115.206l.039.247.098 1.059-.451.042-.101-1.068-.046-.154c-.046-.073-.122-.106-.226-.097-.121.011-.2.07-.237.175l-.017.196.093.999-.441.043-.094-.999-.052-.214c-.045-.078-.12-.112-.228-.102-.125.012-.206.061-.24.146l-.017.209.095 1.01-.444.041-.158-1.675.425-.041.023.245.136-.201c.079-.073.186-.116.321-.13.128-.013.235.006.319.055.068.047.123.109.164.188.052-.103.116-.181.197-.236zm-.18-6.445l.328-.062c.099-.031.177-.084.233-.156l.082-.192.009-.103.418-.04.239 2.544-.513.048-.166-1.755-.597.057-.033-.341zm-.34 1.627c-.113.406-.368.628-.77.666-.19.018-.367-.022-.53-.121-.163-.099-.266-.255-.309-.47l.498-.047c.02.074.057.131.112.174.055.042.126.059.212.051.165-.016.271-.118.321-.306.027-.104.036-.253.027-.447l-.133.146c-.088.064-.201.104-.337.117-.203.019-.389-.034-.559-.159-.17-.125-.268-.319-.291-.583-.026-.273.032-.501.174-.684.142-.185.337-.288.589-.312.388-.036.669.109.846.44.1.187.165.438.194.755.03.307.015.568-.044.78zm-1.915 5.371c-.051-.021-.123-.029-.216-.019-.105.01-.177.042-.216.098l-.048.159-.423.04c-.005-.148.025-.272.09-.374.103-.159.296-.252.58-.279.184-.018.352.004.501.063.151.059.235.188.254.393l.073.77.021.193.038.115.07.045.006.063-.477.045-.037-.092-.022-.101-.194.188c-.089.064-.195.102-.314.112-.153.014-.284-.018-.391-.095-.107-.077-.168-.196-.185-.356-.019-.205.048-.363.198-.47.083-.059.21-.106.379-.145l.148-.031.172-.057c.06-.031.087-.077.082-.133-.009-.065-.038-.11-.089-.132zm-2.221 1.547l-.438.042-.159-1.676.425-.04.022.245.143-.201c.083-.076.194-.121.332-.133.173-.017.318.016.437.096s.188.227.208.436l.106 1.131-.451.042-.095-1.02-.054-.201c-.051-.082-.136-.116-.256-.105-.148.014-.243.087-.287.218-.021.068-.027.155-.019.26l.086.906zm.727-6.237c-.161-.137-.251-.312-.271-.526-.013-.143.006-.275.061-.397.053-.122.139-.218.258-.288-.131-.07-.22-.151-.267-.243-.046-.092-.072-.18-.08-.263-.018-.184.038-.349.164-.492.127-.144.318-.228.574-.251.253-.024.457.023.609.14.151.116.236.269.254.453.008.083-.003.174-.031.272-.028.099-.1.19-.216.271.132.058.235.143.311.252s.119.236.131.379c.019.215-.042.404-.187.569-.146.165-.36.261-.644.288-.284.027-.506-.028-.666-.164zm-3.975 5.99c-.043-.021-.201-.051-.472-.089-.194-.029-.335-.076-.42-.139-.084-.062-.133-.159-.146-.29-.014-.155.034-.294.145-.417.112-.123.278-.195.5-.215.209-.021.384.006.525.076.141.071.229.208.269.413l-.438.041-.06-.129c-.055-.055-.139-.077-.255-.066-.096.011-.163.031-.2.064l-.051.11.075.104c.046.02.201.046.47.078.179.023.315.073.41.148.094.076.146.177.16.303.015.166-.034.309-.148.426-.113.116-.301.188-.56.212-.265.024-.464-.014-.6-.112-.137-.1-.213-.235-.23-.408l.446-.041.075.159c.061.054.164.073.311.061l.204-.06c.049-.03.071-.07.066-.122l-.076-.107zm-1.89-.606l-.216-.019c-.105.011-.177.043-.216.098l-.048.16-.422.039c-.004-.148.024-.272.09-.374.102-.158.295-.251.579-.278.184-.018.352.004.502.062.15.06.234.189.253.393l.073.771.022.193.037.114.07.045.006.064-.477.045-.037-.093-.021-.1-.195.188c-.089.063-.194.102-.314.111-.153.015-.283-.018-.391-.095-.107-.077-.169-.196-.184-.355-.021-.206.046-.363.197-.471.083-.059.209-.106.378-.145l.149-.031.172-.056c.06-.031.088-.077.082-.134-.009-.065-.038-.111-.089-.132zm-4.749.727l.046.33-.233.022-.989.093c.022.168.093.28.209.338.07.035.154.049.247.04.101-.009.18-.042.237-.1l.079-.124.165-.016.283-.026c-.002.101-.047.206-.134.318-.068.089-.154.159-.256.209-.101.05-.218.082-.352.095-.223.021-.427-.029-.61-.15l-.072-.085c-.131-.127-.223-.305-.247-.563-.026-.291.028-.521.168-.69.103-.124.242-.195.402-.241l.177-.048c.146-.013.28 0 .402.042s.227.115.313.221l.088.178.077.157zm-2.275 1.273l-.102-1.068-.046-.154c-.046-.074-.122-.106-.226-.097-.121.011-.2.069-.236.175l-.018.195.093.999-.306.029-.135.013-.093-1-.051-.214-.103-.086-.126-.016c-.124.011-.204.06-.24.146l-.015.209.094 1.01-.39.036-.055.005-.159-1.674.408-.039.019-.002.022.245.136-.201c.079-.074.187-.117.322-.13l.03.005c.113-.006.212.006.29.05.069.046.123.109.164.189l.057-.071.137-.167c.085-.054.185-.088.295-.098l.223.021c.074.022.146.066.209.132.053.055.092.123.116.207l.034.212.005.034.097 1.058-.229.022-.221.025zm-6.896-13.383l-.152-1.618.726-.069.156 1.656-.721.067-.009-.036zm6.471 7.477l-.255-.024c-.206-.024-.376-.093-.492-.232l-.036-.025c-.085-.118-.143-.278-.169-.479l.265-.025.226-.022c.009.102.035.185.073.248.043.069.105.108.179.131l.17.022c.098-.01.18-.051.247-.125.066-.074.094-.174.082-.301-.015-.167-.094-.273-.234-.315l-.179-.021-.189.007-.033-.358.27-.056.065-.023c.107-.06.153-.165.14-.313-.01-.097-.045-.173-.108-.229l-.03-.008c-.06-.042-.127-.069-.217-.061-.118.011-.202.056-.25.136s-.066.182-.051.307l-.046.004-.421.04c-.007-.127.003-.249.031-.365.031-.104.087-.202.166-.294.06-.066.133-.119.22-.159l.096-.023.232-.057c.105-.011.201-.002.292.015.116.02.224.056.314.119.078.053.134.12.179.196.049.083.082.179.092.29.015.149-.019.28-.098.392l-.081.073-.083.075.07.034.137.065c.138.106.218.262.236.466.021.216-.035.412-.168.588-.084.112-.212.184-.36.235l-.282.072zm-1.946 5.698l.021.194.038.115.07.045.006.063-.198.019-.279.026-.037-.093-.021-.1-.195.188c-.089.063-.194.101-.314.112l-.215-.016-.175-.08c-.106-.076-.169-.195-.184-.355-.02-.206.047-.363.197-.471.065-.046.163-.082.279-.115l.099-.029.148-.032.172-.056c.062-.032.089-.077.083-.133-.006-.069-.036-.114-.085-.136l-.217-.019-.161.073-.055.025-.048.158-.423.04c-.005-.147.025-.271.091-.374.088-.138.258-.214.482-.254l.097-.024c.184-.018.352.003.501.063.15.059.235.188.254.393l.066.7.003.073zm-1.347-15.966l-.427.04.237 2.509-1.004.094-.163.016-.239.023-.375-3.978c.195-.08.4-.14.614-.163l.02-.004.144-.013 1.68-.159.124-.006c.671.13 1.243.562 1.556 1.165l.121.26-.153.014-2.135.202zm1.358.731l.677-.064.902-.084.07.748.083.871v.038l-.188.018-1.062.1-.327.031-.155-1.658zm.385 2.495l1.06-.1.183-.018c-.057.171-.139.333-.237.486l-.161.24c-.238.287-.541.496-.876.633l-.05-.529-.065-.699.146-.013zm-.824 7.201l-.486.046c-.012-.183.01-.353.07-.512.056-.176.208-.372.455-.585l.09-.083c.157-.14.273-.25.323-.315.094-.121.135-.248.122-.38-.01-.107-.048-.195-.114-.26-.054-.054-.131-.062-.213-.067l-.053-.017c-.153.015-.25.082-.295.2-.025.069-.035.174-.027.318l-.486.046c-.012-.217.01-.396.068-.536.11-.267.334-.416.676-.447l.166.009c.191.008.364.049.499.153.173.134.272.324.295.57.018.188-.022.361-.122.518-.064.104-.176.224-.333.36l-.188.161-.239.218-.104.149 1.008-.095.103-.009.042.44-.196.019-1.061.099zm-3.318-6.811l.029-.003.071.749-.101-.074c-.206-.174-.377-.385-.509-.624l.51-.048zm.883-.083l.159-.015.163-.016 1.083-.103.126 1.333-.762.072c-.152.015-.301.013-.447-.002l-.163-.032-.042-.009-.117-1.228zm.159 4.972l.058-.013.106-.07.127-.085.082-.192.009-.104.418-.04.24 2.545-.513.048-.166-1.755-.197.019-.163.016-.238.021-.034-.34.271-.05zm7.714.858l-.042-.437.79-1.632.42-.04.141-.014.15 1.59.288-.027.036.392-.287.027.051.548-.489.045-.051-.547-.278.026-.729.069zm2.913.345c-.241.023-.447-.022-.615-.138-.167-.116-.271-.292-.311-.529l.5-.046c.029.107.075.188.137.241.061.055.146.077.253.066.123-.011.213-.065.271-.157.056-.093.078-.207.065-.339-.012-.13-.053-.236-.121-.32-.07-.083-.167-.12-.297-.107l-.156.037c-.076.036-.129.093-.163.173l-.45.021.014-.453.032-.97.181-.017 1.219-.114.04.425-1.04.098-.039.564.171-.117c.07-.033.158-.055.261-.065.21-.021.401.033.572.16.168.127.268.325.292.596.022.235-.034.452-.167.651-.132.199-.349.312-.649.34zm.452 5.899l-1.607.151-.213-2.27.474-.045.175 1.861 1.133-.106.038.409zm1.595-6.092c-.322.03-.57-.081-.748-.335-.137-.198-.223-.463-.253-.794-.02-.194-.026-.353-.021-.476.009-.219.049-.405.12-.556.06-.13.146-.238.257-.323.11-.086.248-.137.411-.152.237-.022.431.021.583.128.152.108.245.261.282.461l-.498.046-.061-.13c-.062-.074-.146-.106-.255-.096-.162.016-.27.118-.322.307-.028.104-.04.255-.036.453.055-.079.122-.141.202-.183.079-.042.171-.067.275-.077.226-.021.418.037.578.177.159.14.249.329.271.568.021.237-.028.453-.154.648-.122.196-.332.306-.631.334zm1.442-.202c-.029-.458.077-.946.315-1.466.156-.323.289-.55.402-.682l-1.268.119-.035-.449 1.797-.17.037.392c-.068.081-.161.222-.277.424-.115.201-.209.407-.28.617-.057.165-.104.363-.138.597-.036.233-.047.423-.034.57l-.519.048zm.659 4.269l-.044-.467.435-.041.043.468.273-.026.029.312-.272.026.083.886.039.126.162.011.042-.006.044-.006.031.329-.207.026c-.207.027-.351.004-.435-.067-.054-.046-.086-.121-.096-.227l-.096-1.033-.235.021-.028-.312.232-.02zm-16.196-14.315l.092.985-.619.059c.072-.354.221-.688.457-.975l.07-.069zm-.681 4.449l.019.045c.229.486.589.893 1.042 1.17l.162.081.005.05-.167-.029c-.384-.042-.74-.172-1.042-.387-.311-.22-.567-.51-.731-.862l.712-.068zm27.576 4.082l.042.44-1.744.164c-.012-.184.012-.353.071-.512.055-.176.208-.372.454-.586.215-.186.354-.319.415-.396.094-.121.134-.248.122-.381-.011-.107-.048-.195-.115-.26-.066-.065-.154-.094-.267-.083-.151.015-.25.081-.295.2-.024.068-.034.174-.026.317l-.487.046c-.012-.216.012-.396.068-.535.108-.267.335-.416.677-.448.27-.025.49.029.663.164s.271.324.295.57c.018.188-.023.362-.122.518-.065.104-.176.224-.334.359l-.187.162-.24.218-.104.15 1.114-.107zm-1.66 4.871c.146-.013.281 0 .403.042.12.042.227.115.312.221.079.095.134.204.167.335l.046.331-1.222.115c.022.168.093.281.209.338.07.035.154.049.248.041.1-.01.179-.043.236-.101l.079-.124.448-.041c-.002.101-.047.207-.134.318-.137.178-.338.278-.608.304-.225.021-.428-.028-.612-.15-.183-.122-.289-.338-.319-.648-.026-.29.028-.521.168-.69.141-.171.334-.268.579-.291zm5.388-6.023c.139.106.218.262.236.466.02.216-.036.412-.17.589-.133.177-.347.279-.639.307-.359.034-.62-.061-.783-.282-.085-.119-.142-.278-.169-.481l.492-.045c.01.102.034.185.072.248.072.116.189.168.349.153.099-.009.181-.051.247-.125.067-.074.094-.174.082-.301-.015-.167-.094-.272-.233-.315-.081-.024-.204-.03-.37-.014l-.033-.358c.162-.018.273-.043.335-.079.105-.06.151-.165.137-.313-.009-.097-.044-.174-.106-.229-.063-.055-.146-.078-.248-.068-.118.011-.201.056-.249.136-.048.08-.065.182-.051.307l-.468.044c-.007-.127.004-.249.032-.366.031-.103.087-.201.167-.293.059-.066.133-.119.22-.16.087-.04.195-.067.326-.078.243-.023.445.022.606.133.16.111.251.274.271.485.014.15-.02.28-.099.392-.05.07-.104.119-.163.147.048-.003.116.03.209.1zm2.047 1.051l-.491.046-.051-.548-1.007.095-.042-.437.79-1.632.562-.053.15 1.589.287-.027.036.392-.288.027.054.548zm1.541-1.284c-.07-.083-.168-.12-.298-.107l-.154.038c-.076.036-.129.093-.162.173l-.45.021.046-1.423 1.399-.132.04.425-1.04.098-.038.564.171-.117c.07-.033.157-.055.26-.065.211-.02.4.034.571.16.17.127.268.325.293.596.021.235-.034.452-.167.651-.134.199-.35.312-.651.34-.242.023-.446-.023-.614-.138-.168-.116-.271-.292-.312-.528l.499-.047c.03.107.076.187.137.242.062.054.146.076.254.065.124-.012.214-.064.271-.158.057-.094.078-.206.066-.338-.012-.129-.052-.236-.121-.32zm2.503.696c-.125.195-.336.306-.635.335-.32.03-.569-.082-.746-.336-.138-.198-.223-.462-.255-.793-.019-.194-.024-.354-.02-.476.01-.219.049-.405.119-.557.062-.13.147-.237.258-.323.11-.086.248-.136.412-.152.235-.022.43.021.582.128.152.108.246.262.282.461l-.498.047-.061-.13c-.062-.074-.147-.106-.255-.096-.163.016-.27.118-.321.306-.029.104-.04.255-.036.453.055-.079.122-.14.2-.182.08-.042.171-.068.277-.077.226-.021.417.038.576.177.16.14.251.329.271.567.024.238-.026.453-.15.648zm-6.264-11.004l-.519.049-.239.023-.277.026-.809.076-.616.059-.266.025-.252.024-.52.049.003-.239.001-.106.001-.205.103-.009.416-.04.519-.049 1.283-.121.54-.051.527-.051.451-.042-.018-.044c-.062-.203-.14-.398-.232-.585l-.448.042-.542.051-.578.054-.834.078-.274.026-.275.026-.54.051.035-.165.131-.414.586-.056.602-.057.166-.016.631-.059.591-.057.395-.037.02-.002c-.159-.213-.336-.408-.533-.581l-.02-.021-.222.021-.12.011-.351.034-.325.03-.428.041-.369.034-.297.028.089-.132-.091-.046c-.409-.183-.859-.294-1.337-.294l-.313.015c-.339.033-.66.129-.966.258l-.05.021c-.453.201-.865.494-1.192.886l-.009.008c-.183.221-.321.467-.439.72l-.016.041-.09.215c-.088.242-.156.49-.183.747l-.006.055c-.018.204-.021.413-.002.621l.079.406.006.032c.364 1.566 1.811 2.677 3.486 2.519.634-.06 1.221-.301 1.709-.685l.121-.011.709-.067.075-.007.621-.058.046-.004.082-.1.098-.119c.143-.157.289-.31.403-.489l-.24.023-.588.055-.442.042-.225.021-.365.035-.074.007-.646.061-.16-.257-.138-.22.586-.055.523-.049.06-.005.517-.049.587-.056.557-.052.016-.002.305-.03c.081-.192.139-.395.186-.602l.022-.071-.352.033-.025.002-.539.051-.54.051-1.104.104-.08.007-.459.043-.542.051-.12-.335-.04-.214.522-.049.222-.021.296-.028 1.369-.129.37-.036.146-.014.521-.049.426-.041.001-.168.001-.226.001-.118-.026-.139-.456.046z"/></svg>