<svg xmlns="http://www.w3.org/2000/svg" viewBox="0 0 61.302 61.302"><path d="M14.329 37.455c-.144 0-.256.04-.335.121-.079.084-.129.193-.15.333h.968c-.011-.149-.061-.263-.15-.339-.089-.077-.201-.115-.333-.115zm-8.664-4.747c.207 0 .342-.107.406-.323.064-.216.096-.527.096-.935 0-.426-.032-.742-.096-.947-.064-.205-.2-.308-.406-.308-.206 0-.344.104-.411.308-.066.205-.1.521-.1.947 0 .407.033.718.1.935.067.216.203.323.411.323zm16.409 5.537l-.128.023c-.12.021-.206.047-.258.077-.089.051-.132.13-.132.238 0 .097.027.167.081.209.055.043.12.064.198.064.123 0 .235-.035.339-.106.104-.07.157-.2.162-.389v-.209l-.109.054-.153.039zm.272-8.049c-.207 0-.344.104-.411.308-.066.205-.1.521-.1.947 0 .407.034.718.1.935s.204.323.411.323c.206 0 .341-.107.406-.323.063-.216.096-.527.096-.935 0-.426-.033-.742-.096-.947-.064-.205-.199-.308-.406-.308zm-2.78 0c-.207 0-.344.104-.411.308-.066.205-.1.521-.1.947 0 .407.034.718.1.935.067.216.204.323.411.323.206 0 .341-.107.406-.323.063-.216.096-.527.096-.935 0-.426-.033-.742-.096-.947-.065-.205-.2-.308-.406-.308zm-11.121 0c-.206 0-.344.104-.411.308-.066.205-.1.521-.1.947 0 .407.033.718.1.935.067.216.205.323.411.323.207 0 .342-.107.406-.323.063-.216.096-.527.096-.935 0-.426-.032-.742-.096-.947-.064-.205-.2-.308-.406-.308zm5.561 2.512c.207 0 .342-.107.407-.323.063-.216.096-.527.096-.935 0-.426-.033-.742-.096-.947-.065-.205-.2-.308-.407-.308-.206 0-.343.104-.41.308-.067.205-.1.521-.1.947 0 .407.033.718.1.935.067.216.203.323.41.323zm19.537 4.198v-4.158l.521-.302 3.081-1.779 1.779-3.081.302-.521h4.159l3.08-1.779.521-.301.521.301 3.082 1.779h4.159l.302.521 1.232 2.138.546.942.496.287 1.042.602v-21.13c0-2.177-1.748-3.948-3.896-3.948h-50.572c-2.149 0-3.898 1.771-3.898 3.948v29.41c0 2.179 1.749 3.949 3.898 3.949h29.456l-.602-1.042-.601-1.042-.388-.671-.301-.521.301-.521 1.78-3.081zm-5.946 1.827c.085.054.189.08.31.08.128 0 .232-.032.312-.1l.116-.146h.574c-.015.126-.084.257-.208.389-.192.208-.462.313-.808.313-.285 0-.539-.09-.757-.265-.219-.177-.328-.464-.328-.86 0-.373.099-.657.296-.856.198-.2.453-.299.769-.299.188 0 .355.034.506.102.149.066.273.173.372.317.088.128.145.276.171.445.015.099.022.24.019.425h-1.566c.005.218.08.368.222.455zm1.258-5.931c-.182.315-.497.472-.948.472s-.767-.156-.949-.472c-.181-.315-.272-.766-.272-1.351 0-.584.091-1.036.272-1.352.183-.318.498-.477.949-.477.45 0 .766.158.948.477.181.316.272.767.272 1.352.001.585-.09 1.035-.272 1.351zm-3.015 4.826c-.05-.101-.142-.151-.276-.151-.155 0-.262.065-.322.193-.03.069-.046.149-.046.246v1.28h-.566v-1.28c0-.126-.014-.22-.04-.277-.047-.104-.14-.155-.278-.155-.16 0-.268.051-.323.155-.03.061-.044.147-.044.265v1.294h-.57v-2.146h.546v.313c.069-.112.136-.191.197-.239.109-.084.25-.125.424-.125.165 0 .297.035.399.107.082.067.143.153.186.259.074-.126.165-.22.274-.279.116-.059.244-.087.386-.087.095 0 .189.017.28.055.092.037.175.101.25.193.06.075.101.168.122.276l.02.317-.004 1.354h-.576v-1.368l-.039-.2zm-3.596-.131c-.062-.032-.153-.049-.273-.049-.134 0-.23.033-.286.099-.04.049-.066.115-.08.196h-.543c.011-.187.065-.342.158-.464.149-.187.406-.282.769-.282.237 0 .446.047.63.14.184.094.275.27.275.527v.986l.004.25.034.149.082.065v.083h-.612l-.035-.122-.016-.13c-.078.084-.168.156-.27.214-.122.07-.259.105-.413.105-.196 0-.357-.057-.486-.167-.127-.112-.191-.269-.191-.472 0-.265.102-.456.308-.574.112-.065.278-.111.497-.139l.192-.024.226-.049c.08-.033.121-.087.121-.158.001-.088-.03-.149-.091-.184zm.102-4.222c-.451 0-.767-.157-.949-.474-.181-.315-.273-.765-.273-1.35 0-.584.091-1.035.273-1.352.182-.318.498-.476.949-.476.449 0 .765.158.947.476.182.316.273.767.273 1.352 0 .585-.091 1.034-.273 1.35-.181.316-.496.474-.947.474zm1.559-1.824c0-.584.091-1.036.273-1.352.183-.318.498-.477.949-.477.45 0 .766.158.948.477.181.316.272.767.272 1.352 0 .585-.09 1.035-.272 1.351-.182.315-.497.472-.948.472s-.766-.156-.949-.472c-.182-.316-.273-.766-.273-1.351zm-3.392 1.351c-.181.315-.497.472-.947.472-.451 0-.767-.156-.949-.472-.183-.315-.273-.766-.273-1.351 0-.584.09-1.036.273-1.352.181-.318.497-.477.949-.477.45 0 .766.158.947.477.183.316.273.767.273 1.352 0 .585-.091 1.035-.273 1.351zm.102 3.489v2.906h-.607l-1.184-2.062v2.062h-.565v-2.906h.637l1.154 2.026v-2.026h.565zm-6.56 2.442c.085.054.189.08.311.08.128 0 .232-.032.311-.1l.116-.146h.574c-.015.126-.084.257-.208.389-.192.208-.462.313-.808.313-.286 0-.539-.09-.757-.265-.219-.177-.328-.464-.328-.86 0-.373.099-.657.296-.856.198-.2.453-.299.769-.299.188 0 .355.034.505.102.15.066.274.173.372.317.088.128.145.276.171.445.015.099.022.24.018.425h-1.567c.009.218.084.368.225.455zm-1.757-1.105c-.05-.101-.142-.151-.276-.151-.155 0-.263.065-.322.193-.03.069-.045.149-.045.246v1.28h-.566v-1.28c0-.126-.014-.22-.04-.277-.048-.104-.14-.155-.278-.155-.16 0-.268.051-.323.155-.03.061-.045.147-.045.265v1.294h-.57v-2.146h.545v.313c.07-.112.136-.191.197-.239.109-.084.25-.125.424-.125.165 0 .297.035.399.107.081.067.143.153.186.259.074-.126.164-.22.273-.279.116-.059.244-.087.387-.087.095 0 .189.017.28.055.092.037.175.101.25.193.06.075.101.168.121.276l.02.317-.004 1.354h-.576v-1.368l-.037-.2zm-3.596-.131c-.062-.032-.153-.049-.273-.049-.134 0-.229.033-.285.099-.04.049-.066.115-.08.196h-.543c.011-.187.064-.342.158-.464.149-.187.405-.282.769-.282.236 0 .446.047.63.14.184.094.275.27.275.527v.986l.004.25.033.149.083.065v.083h-.612l-.035-.122-.016-.13c-.079.084-.168.156-.27.214-.122.07-.26.105-.413.105-.196 0-.357-.057-.486-.167-.127-.112-.192-.269-.192-.472 0-.265.103-.456.308-.574.112-.065.277-.111.496-.139l.193-.024.225-.049c.08-.033.121-.087.121-.158.002-.088-.028-.149-.09-.184zm.691-4.695c-.181.315-.498.472-.948.472-.451 0-.767-.156-.949-.472-.181-.315-.272-.766-.272-1.351 0-.584.09-1.036.272-1.352.182-.318.498-.477.949-.477.45 0 .765.158.948.477.181.316.273.767.273 1.352 0 .585-.092 1.035-.273 1.351zm-3.241-11.418v-2.074h2.095v2.121h-2.09l-.005-.047zm8.174 0l-.005.047h-2.089v-2.121h2.095v2.074zm-2.095 1.139h1.862c-.338.795-1.025 1.397-1.862 1.646v-1.646zm-.544-4.305l-.547.001v3.212h-1.8v-5.301h2.069c1.318 0 2.423.886 2.783 2.088h-2.505zm-3.44 0h-1.959c.281-.94 1.019-1.676 1.959-1.955v1.955zm0 4.305v1.646c-.838-.249-1.524-.851-1.863-1.646h1.863zm1.091 0h1.8v1.779h-1.8v-1.779zm1.887 7.1c.45 0 .766.158.948.477.181.316.273.767.273 1.352 0 .585-.091 1.035-.273 1.351-.181.315-.498.472-.948.472-.451 0-.767-.156-.949-.472-.182-.315-.273-.766-.273-1.351 0-.584.091-1.036.273-1.352.182-.319.498-.477.949-.477zm-5.56 0c.45 0 .766.158.948.477.181.316.272.767.272 1.352 0 .585-.09 1.035-.272 1.351-.182.315-.498.472-.948.472-.451 0-.767-.156-.949-.472-.181-.315-.272-.766-.272-1.351 0-.584.09-1.036.272-1.352.181-.319.496-.477.949-.477zm-.949 6.668h.637l1.154 2.026v-2.026h.565v2.906h-.606l-1.184-2.062v2.062h-.566v-2.906zm8.068-4.84c0-.584.091-1.036.273-1.352.181-.318.497-.477.948-.477.45 0 .766.158.948.477.181.316.273.767.273 1.352 0 .585-.091 1.035-.273 1.351-.181.315-.498.472-.948.472-.451 0-.766-.156-.948-.472-.182-.316-.273-.766-.273-1.351zm35.204-9.379c-.824 0-1.595-.203-2.292-.537-.85.54-1.849.863-2.925.863-3.024 0-5.485-2.46-5.485-5.485 0-3.022 2.46-5.483 5.485-5.483.936 0 1.806.258 2.578.674.781-.447 1.674-.725 2.639-.725 2.947 0 5.346 2.397 5.346 5.346 0 2.948-2.398 5.347-5.346 5.347zm-20.081 8.124c-.207 0-.344.104-.41.308-.067.205-.101.521-.101.947 0 .407.034.718.101.935.066.217.204.323.41.323s.342-.107.406-.323c.064-.216.096-.527.096-.935 0-.426-.032-.742-.096-.947-.064-.205-.198-.308-.406-.308zm-2.78 2.512c.206 0 .342-.107.407-.323.063-.216.096-.527.096-.935 0-.426-.032-.742-.096-.947-.065-.205-.201-.308-.407-.308s-.344.104-.41.308c-.067.205-.1.521-.1.947 0 .407.033.718.1.935.066.217.202.323.41.323zm-16.595 5.537l-.128.023c-.119.021-.206.047-.258.077-.088.051-.132.13-.132.238 0 .097.028.167.082.209.055.043.12.064.198.064.123 0 .236-.035.34-.106.104-.07.157-.2.161-.389v-.209l-.109.054-.154.039zm2.693-5.537c.206 0 .342-.107.406-.323.063-.216.096-.527.096-.935 0-.426-.032-.742-.096-.947-.064-.205-.2-.308-.406-.308s-.344.104-.411.308c-.067.205-.1.521-.1.947 0 .407.033.718.1.935.068.216.205.323.411.323zm16.646 4.747c-.144 0-.256.04-.335.121-.08.084-.129.193-.15.333h.968c-.011-.149-.061-.263-.15-.339-.089-.077-.201-.115-.333-.115zm15.827-20.87h-1.042c.006-.237.034-.469.07-.697h3.973c-.054-.287-.139-.563-.243-.83h-3.522c.082-.248.179-.486.294-.716h2.865c-.183-.299-.388-.58-.63-.83h-1.72c.198-.261.414-.501.655-.721-.506-.2-1.054-.319-1.627-.319-2.45 0-4.443 1.993-4.443 4.442 0 2.45 1.993 4.442 4.443 4.442.689 0 1.336-.172 1.918-.454-.187-.149-.375-.299-.543-.472h.834c.129-.102.229-.235.347-.348.161-.157.338-.301.478-.481h-2.31c-.132-.205-.245-.419-.349-.641h3.07c.142-.263.254-.539.345-.829h-3.708c-.063-.233-.109-.471-.143-.716h4.011c.029-.215.064-.427.064-.65l-.018-.179h-3.069v-.001zm15.685 16.764l-1.021-.59-1.041-.6-1.042-.603-.218-.126-1.918-3.323h-3.838l-3.322-1.918-3.323 1.918h-3.836l-1.918 3.323-3.324 1.917v3.836l-1.917 3.324.688 1.192.603 1.042.601 1.042.027.045v3.837l3.323 1.917 1.918 3.323h3.837l3.322 1.918 3.324-1.918h3.836l1.918-3.323 3.323-1.917v-3.837l1.918-3.323-1.918-3.322-.002-3.834zm-19.898.873c.727-.727 1.605-1.091 2.633-1.091 1.026 0 1.904.364 2.632 1.091.728.728 1.091 1.605 1.091 2.633s-.362 1.905-1.087 2.633c-.723.726-1.604 1.09-2.638 1.09-1.027 0-1.904-.361-2.633-1.09-.726-.728-1.09-1.605-1.09-2.633s.366-1.906 1.092-2.633zm4.204 13.735h-1.551l2.274-4.173.567-1.042.568-1.042 4.709-8.64h1.515l-4.688 8.64-.565 1.042-.565 1.042-2.264 4.173zm10.792-1.183c-.728.729-1.604 1.091-2.632 1.091s-1.906-.362-2.633-1.091c-.728-.726-1.091-1.604-1.091-2.632l.033-.356c.032-.367.099-.719.229-1.042.151-.377.382-.721.664-1.041l.165-.198c.727-.724 1.605-1.086 2.633-1.086s1.904.364 2.632 1.091l.146.175c.26.29.47.599.621.934.142.312.229.647.275.999.023.173.049.344.049.524 0 1.028-.363 1.904-1.091 2.632zm-12.363-8.329c.441 0 .816-.154 1.127-.465.31-.311.465-.686.465-1.126 0-.441-.155-.815-.465-1.126-.311-.311-.686-.465-1.127-.465-.439 0-.815.154-1.125.465-.312.311-.466.685-.466 1.126 0 .44.154.815.466 1.126.31.311.686.465 1.125.465zm10.857 4.571c-.122-.122-.261-.2-.403-.273-.22-.115-.454-.192-.722-.192-.269 0-.504.077-.724.192-.142.073-.281.151-.403.273-.22.22-.333.483-.397.769-.026.118-.067.229-.067.357 0 .44.155.816.465 1.126.311.311.686.466 1.127.466.44 0 .815-.155 1.125-.466.312-.31.466-.686.466-1.126 0-.129-.041-.239-.067-.357-.066-.286-.181-.55-.4-.769z"/></svg>