<svg xmlns="http://www.w3.org/2000/svg" viewBox="0 0 63.108 63.108"><path d="M7.6 53.032h8.406v10.076h-8.406zm8.406-.892l25.83-26.776h-2.93l2.451-2.558.29-.302v-22.504l-1.776 1.756-19.271 19.07-.309.305v18.289l-12.691 12.72h8.406zm5.328-30.574l19.271-19.069v9.751l-.753.785-18.518 19.326v-10.793zm.752 16.654l12.32-12.857 6.199-6.47v3.191l-3.143 3.278-16.128 16.834v-3.19l.752-.786zm7.931 24.73l25.492-26.564v-10.132l-25.492 26.564v.214zm-1.041-9.768h-8.405v9.926h8.405zm13.562-22.891l-20.931 21.699-.146.15h7.515l.146-.15 25.685-26.627h-7.516zm-23.009 22.355l.417-.436.212-.22h.001l.552-.573 21.827-22.626v-2.537l-25.641 26.72v10.134l2.632-2.744v-7.182h-.022v-.513z"/></svg>