<svg enable-background="new 0 0 497 497" height="512" viewBox="0 0 497 497" width="512" xmlns="http://www.w3.org/2000/svg"><path d="M452 453.375h-407c-24.853 0-45-20.147-45-45v-319.75c0-24.853 20.147-45 45-45h407c24.853 0 45 20.147 45 45v319.75c0 24.853-20.147 45-45 45z" fill="#f7f3f1"/><path d="M452 43.625h-40.5c24.853 0 45 20.147 45 45v319.75c0 24.853-20.147 45-45 45h40.5c24.853 0 45-20.147 45-45v-319.75c0-24.853-20.147-45-45-45z" fill="#efe7e3"/><path d="M497 88.625c0-24.853-20.147-45-45-45h-407c-24.853 0-45 20.147-45 45v34.75h497z" fill="#8ee6f3"/><path d="M452 43.625h-40.5c24.853 0 45 20.147 45 45v34.75h40.5v-34.75c0-24.853-20.147-45-45-45z" fill="#72d1fb"/><circle cx="55" cy="85.875" fill="#f76c57" r="6.5"/><circle cx="103" cy="85.875" fill="#ffd36c" r="6.5"/><circle cx="151" cy="85.875" fill="#24d3b5" r="6.5"/><path d="M433.5 305.5h-375c-5.523 0-10-4.477-10-10v-113.875c0-5.523 4.477-10 10-10h375c5.523 0 10 4.477 10 10v113.875c0 5.523-4.477 10-10 10z" fill="#ffad8c"/><path d="M400.5 233h-42.5c-9.674 0-9.674-15 0-15h42.5c9.674 0 9.674 15 0 15zM400.5 266h-82.5c-9.674 0-9.674-15 0-15h82.5c9.674 0 9.674 15 0 15z" fill="#f7f3f1"/><g fill="#ebe1dc"><path d="M212.5 355h-164c-9.674 0-9.674-15 0-15h164c9.674 0 9.674 15 0 15zM212.5 389h-164c-9.674 0-9.674-15 0-15h164c9.674 0 9.674 15 0 15zM212.5 423h-164c-9.674 0-9.674-15 0-15h164c9.674 0 9.674 15 0 15z"/></g><path d="M442.5 453.375h-174v-95.875c0-5.523 4.477-10 10-10h154c5.523 0 10 4.477 10 10zM48.5 181.625v113.875c0 5.523 4.477 10 10 10h147.039l134.297-133.875h-281.336c-5.523 0-10 4.477-10 10z" fill="#ffd36c"/></svg>