<svg enable-background="new 0 0 497.127 497.127" height="512" viewBox="0 0 497.127 497.127" width="512" xmlns="http://www.w3.org/2000/svg"><path d="M59.499 197.506c-32.86 0-59.499-26.639-59.499-59.499v-.392c0-32.861 26.639-59.499 59.499-59.499h378.001c32.861 0 59.499 26.639 59.499 59.499v.392c0 32.861-26.639 59.499-59.499 59.499z" fill="#f7f3f1"/><path d="M437.501 78.116h-40.5c32.861 0 59.499 26.639 59.499 59.499v.392c0 32.86-26.639 59.499-59.499 59.499h40.5c32.861 0 59.499-26.639 59.499-59.499v-.392c0-32.861-26.639-59.499-59.499-59.499z" fill="#efe7e3"/><path d="M401.5 275.598l28 36-24.629 18.929-28-36z" fill="#72d1fb"/><circle cx="336.089" cy="215.761" fill="#8ee6f3" r="95.129"/><circle cx="336.089" cy="215.761" fill="#c2f6ff" r="66.008"/><path d="M388.425 175.537c-17.558-22.845-47.234-30.993-73.157-22.401 12.118 4.002 23.204 11.542 31.55 22.401 22.179 28.858 16.745 70.381-12.113 92.56-6.013 4.621-12.58 8.026-19.403 10.288 20.086 6.634 43.011 3.545 61.01-10.288 28.858-22.179 34.292-63.701 12.113-92.56z" fill="#aef2ff"/><path d="M365.341 200.784c-5.173 0-7.761-5.593-11.394-8.371-4.08-3.121-8.956-5.106-14.047-5.773-7.8-1.021-15.508 1.048-21.719 5.821-7.672 5.895-16.811-5.998-9.141-11.894 19.405-14.914 47.328-11.26 62.242 8.146 3.674 4.78.094 12.071-5.941 12.071z" fill="#8ee6f3"/><path d="M445.5 324.598l47.229 61.306c16.218 21.102-16.451 46.252-32.689 25.123l-47.229-61.306z" fill="#ffad8c"/><path d="M432.848 304.224l-36.174 27.801c-14.496 11.141 2.658 33.461 17.154 22.32l36.174-27.801c14.496-11.141-2.658-33.461-17.154-22.32z" fill="#fcd8a5"/><path d="M205.5 146.404h-139c-9.674 0-9.674-15 0-15h139c9.674 0 9.674 15 0 15z" fill="#ebe1dc"/></svg>