<svg enable-background="new 0 0 497 497" height="512" viewBox="0 0 497 497" width="512" xmlns="http://www.w3.org/2000/svg"><path d="M195.746 367.5h85.396v77.811h-85.396z" fill="#c2f6ff"/><path d="M329.11 480.598h-182.436c-9.744 0-17.643-7.899-17.643-17.644 0-9.744 7.899-17.644 17.643-17.644h182.436c9.744 0 17.644 7.899 17.644 17.643 0 9.745-7.899 17.645-17.644 17.645z" fill="#8ee6f3"/><path d="M329.11 445.311h-41.531c9.744 0 17.643 7.899 17.643 17.644 0 9.744-7.899 17.644-17.643 17.644h41.531c9.744 0 17.644-7.899 17.644-17.644s-7.899-17.644-17.644-17.644z" fill="#72d1fb"/><path d="M475.785 267.45v-216.857c0-18.883-15.308-34.191-34.191-34.191h-407.399c-18.885 0-34.195 15.31-34.195 34.196v289.59c0 18.886 15.31 34.195 34.195 34.195h407.395c18.886 0 34.195-15.31 34.195-34.195v-48.781" fill="#f7f3f1"/><path d="M441.594 16.402h-41.5c18.883 0 34.191 15.308 34.191 34.191v289.594c0 18.885-15.31 34.195-34.195 34.195h41.5c18.885 0 34.195-15.31 34.195-34.195v-289.594c0-18.883-15.308-34.191-34.191-34.191z" fill="#efe7e3"/><path d="M270.378 114.056h156.28v124.444h-156.28z" fill="#fa9084"/><path d="M324.397 153.144c-1.228-2.652-3.884-4.351-6.807-4.351s-5.579 1.698-6.807 4.351l-18.773 40.576c-4.066 8.789 9.562 15.055 13.613 6.299l.58-1.254h22.774l.58 1.254c4.063 8.78 17.675 2.481 13.613-6.299zm-11.253 30.62l4.447-9.61 4.446 9.61zM377.629 148.188h-13.93c-4.143 0-7.5 3.358-7.5 7.5v41.182c0 4.142 3.357 7.5 7.5 7.5h13.93c15.489 0 28.091-12.602 28.091-28.091s-12.602-28.091-28.091-28.091zm0 41.181h-6.43v-26.182h6.43c7.219 0 13.091 5.873 13.091 13.091s-5.872 13.091-13.091 13.091z" fill="#f7f3f1"/><path d="M0 291.577v48.611c0 18.885 15.31 34.195 34.195 34.195h407.395c18.885 0 34.195-15.31 34.195-34.195v-48.781z" fill="#8ee6f3"/><path d="M434.285 291.407v48.781c0 18.885-15.31 34.195-34.195 34.195h41.5c18.885 0 34.195-15.31 34.195-34.195v-48.781z" fill="#72d1fb"/><path d="M426.658 80.075h-382.178c-9.674 0-9.674-15 0-15h382.178c9.675 0 9.675 15 0 15zM231.396 121.556h-186.916c-9.674 0-9.674-15 0-15h186.916c9.674 0 9.674 15 0 15z" fill="#ebe1dc"/><path stroke="#000" stroke-width="15" stroke-linecap="round" stroke-linejoin="round" stroke-miterlimit="10" fill="none"/><g fill="#ebe1dc"><path d="M231.396 163.038h-186.916c-9.674 0-9.674-15 0-15h186.916c9.674 0 9.674 15 0 15zM231.396 204.519h-186.916c-9.674 0-9.674-15 0-15h186.916c9.674 0 9.674 15 0 15zM231.396 246h-186.916c-9.674 0-9.674-15 0-15h186.916c9.674 0 9.674 15 0 15z"/></g><path d="M420.269 229.215l75.26 55.671c2.785 2.06 1.357 6.479-2.106 6.52h-43.625c-1.148.014-2.221 1.092-2.891 2.023l-25.277 35.159c-2.043 2.84-7.103 1.41-7.124-2.089v-94.357c-.019-2.976 3.369-4.698 5.763-2.927z" fill="#909ec0"/></svg>