<svg enable-background="new 0 0 497 497" height="512" viewBox="0 0 497 497" width="512" xmlns="http://www.w3.org/2000/svg"><path d="M229.839 261.501c8.026 5.8 17.895 9.22 28.566 9.22h91.28v44.26l57.862-44.26h24.962c26.909 0 48.723-21.747 48.723-48.574v-173.573c.001-26.827-21.813-48.574-48.723-48.574h-174.105c-26.909 0-48.723 21.747-48.723 48.574v212.927z" fill="#f7f3f1"/><path d="M432.509 0h-41.733c26.91 0 48.724 21.748 48.724 48.574v173.573c0 26.827-21.814 48.574-48.723 48.574h-24.962l-16.13 12.338v31.922l57.862-44.26h24.962c26.909 0 48.723-21.747 48.723-48.574v-173.573c.001-26.826-21.814-48.574-48.723-48.574z" fill="#efe7e3"/><path d="M307.913 199.523l5.022 4.065c7.962 6.445 17.896 9.962 28.139 9.962h71.292c6.758 0 12.2-5.638 11.878-12.467-.301-6.396.014-64.645.014-71.212s-5.324-11.892-11.892-11.892l-48.343-.146 5.919-14.018c6.15-14.566 5.156-31.168-2.689-44.896-4.253-6.574-14.581-4.155-14.782 3.926 0 12.571-4.59 24.709-12.907 34.135l-30.826 34.881h-11.238v67.661h10.413z" fill="#ffd36c"/><path d="M303.101 210.25h-32.549c-2.151 0-3.896-1.744-3.896-3.896v-82.974c0-2.151 1.744-3.896 3.896-3.896h32.549c2.151 0 3.896 1.744 3.896 3.896v82.974c-.001 2.151-1.745 3.896-3.896 3.896z" fill="#8ee6f3"/><path d="M229.909 348.487v-175.182c0-21.155-17.202-38.305-38.423-38.305h-137.296c-21.22 0-38.423 17.15-38.423 38.305v136.877c0 21.155 17.202 38.305 38.423 38.305h75.425v35.23l45.629-35.23z" fill="#72d1fb"/><path d="M191.487 135h-54.409c21.22 0 38.423 17.15 38.423 38.305v175.182h54.409v-175.182c-.001-21.155-17.203-38.305-38.423-38.305z" fill="#62a6fd"/><path d="M173.188 252.998h-27.613l3.025-18.296h24.588c9.675 0 9.675-15 0-15h-22.108l4.13-24.979c1.578-9.544-13.22-11.992-14.799-2.446l-4.534 27.425h-18.093l4.13-24.979c1.578-9.544-13.218-11.993-14.799-2.446l-4.534 27.425h-30.093c-9.675 0-9.675 15 0 15h27.613l-3.025 18.296h-24.588c-9.675 0-9.675 15 0 15h22.108l-4.13 24.979c-1.562 9.443 13.218 12.005 14.799 2.446l4.534-27.425h18.093l-4.13 24.979c-1.562 9.443 13.218 12.005 14.799 2.446l4.534-27.425h30.093c9.675 0 9.675-15 0-15zm-42.816 0h-18.092l3.025-18.296h18.093z" fill="#f7f3f1"/><path d="M304.233 320.498h-97.432c-15.059 0-27.267 12.17-27.267 27.183v97.134c0 15.013 12.208 27.183 27.267 27.183h53.525v25.002l32.381-25.001h11.526c15.059 0 27.267-12.17 27.267-27.183v-97.134c0-15.013-12.208-27.184-27.267-27.184z" fill="#fa9084"/><path d="M304.233 320.498h-42c15.059 0 27.267 12.17 27.267 27.183v97.135c0 15.013-12.208 27.183-27.267 27.183h-1.907v25.001l32.381-25.001h11.526c15.059 0 27.267-12.17 27.267-27.183v-97.135c0-15.012-12.208-27.183-27.267-27.183z" fill="#ff6cb5"/><path d="M255.517 429.253c23.446-12.429 35.593-23.005 35.593-39.389 0-22.599-27.684-28.249-35.593-11.299-9.04-17.514-35.593-11.299-35.593 11.299 0 16.384 12.147 26.959 35.593 39.389z" fill="#f7f3f1"/></svg>