<svg enable-background="new 0 0 504.5 504.5" height="512" viewBox="0 0 504.5 504.5" width="512" xmlns="http://www.w3.org/2000/svg"><path d="M388.671 504.5h-385.559l33.92-97.141v-266.573h351.639z" fill="#ffd36c"/><path d="M347.171 140.786h41.5v363.714h-41.5zM37.032 407.359l-33.92 97.141h385.559v-97.141z" fill="#fcc645"/><path d="M294.524 203.5c-4.142 0-7.5-3.358-7.5-7.5v-106.909c0-40.854-33.274-74.091-74.173-74.091-40.898 0-74.172 33.237-74.172 74.091v106.909c0 9.674-15 9.674-15 0v-106.909c0-49.125 40.003-89.091 89.172-89.091 49.17 0 89.172 39.966 89.172 89.091v106.909c.001 4.142-3.357 7.5-7.499 7.5z" fill="#ffad8c"/><path d="M477.884 461.576l23.504 42.924h-233.464l23.504-42.924v-158.454h186.456z" fill="#fa9084"/><path d="M477.884 461.576v-158.454h-41.777v158.454l23.505 42.924h41.776z" fill="#ff6cb5"/><path d="M424.766 336.328c-4.142 0-7.5-3.358-7.5-7.5v-43.143c0-17.975-14.641-32.598-32.638-32.598s-32.638 14.623-32.638 32.598v43.143c0 9.674-15 9.674-15 0v-43.143c0-26.246 21.37-47.598 47.638-47.598s47.638 21.352 47.638 47.598v43.143c0 4.142-3.358 7.5-7.5 7.5zM291.428 461.576l-23.504 42.924h233.464l-23.504-42.924z" fill="#f76c57"/><path d="M477.884 461.576h-41.777l23.505 42.924h41.776z" fill="#f251a1"/></svg>