<svg enable-background="new 0 0 504.749 504.749" height="512" viewBox="0 0 504.749 504.749" width="512" xmlns="http://www.w3.org/2000/svg"><path d="M475.796 243.459l-79.7.295c-13.726.051-25.369-11.035-25.42-24.761v-128.561c-.021-5.643 1.88-11.126 5.389-15.546l18.467-23.26c4.695-5.913 11.822-9.371 19.372-9.399l42.594-.157c7.55-.028 14.703 3.378 19.441 9.256l18.639 23.123c3.542 4.394 5.958 9.862 5.979 15.505v128.561c.051 13.725-11.035 24.893-24.761 24.944z" fill="#72e4a0"/><path d="M494.578 74.448l-18.638-23.123c-4.738-5.878-11.891-9.284-19.441-9.256l-41.5.153c7.55-.028 14.703 3.378 19.441 9.256l18.639 23.123c3.542 4.394 5.958 9.862 5.979 15.505v128.561c.051 13.726-11.035 24.894-24.761 24.945l41.5-.153c13.726-.051 24.812-11.219 24.761-24.945v-128.561c-.022-5.643-2.438-11.111-5.98-15.505z" fill="#24d3b5"/><path d="M334.96 504.749h-300.319c-16.582.061-31.359-12.341-31.42-28.923v-347.396h331.74v376.319z" fill="#72e4a0"/><path d="M3.221 434.082v41.744c.061 16.582 14.838 28.985 31.42 28.923h300.32v-70.668h-331.74zM242.17 172.935c-4.142.015-7.512-3.33-7.528-7.472l-.337-91.078c-.12-32.47-26.641-58.789-59.12-58.669l-14.414.053c-32.479.12-58.467 26.634-58.347 59.104v91.078c.036 9.768-15.301 9.66-15.337.055v-91.077c-.151-40.741 32.879-74.009 73.628-74.16l14.414-.053c40.75-.151 74.362 32.872 74.512 73.613v91.078c.017 4.142-3.329 7.512-7.471 7.528z" fill="#ffd36c"/><path d="M233.233 247.806c6.816-6.866-3.83-17.433-10.646-10.567l-12.687 12.782c-25.963-20.505-63.855-18.709-87.704 5.318-23.85 24.027-25.366 61.931-4.669 87.741l-12.688 12.782c-6.816 6.866 3.83 17.433 10.646 10.567l12.685-12.779c11.668 9.239 26.007 14.239 41.11 14.184 17.629-.065 34.177-6.992 46.597-19.503 23.85-24.027 25.366-61.931 4.669-87.741zm-100.392 18.1c9.906-9.979 22.947-14.998 36.007-15.046 10.693-.04 21.395 3.259 30.402 9.891l-71.073 71.601c-14.88-19.898-13.351-48.297 4.664-66.446zm72.39 71.856c-9.597 9.668-22.385 15.02-36.007 15.071-11.089.041-21.65-3.436-30.41-9.908l71.081-71.608c14.88 19.897 13.352 48.295-4.664 66.445zM471.661 145.582c6.816-6.866-3.83-17.433-10.646-10.567l-4.441 4.474c-14.776-9.747-34.901-8.083-47.84 4.952s-14.454 33.172-4.598 47.875l-4.441 4.474c-6.816 6.866 3.83 17.433 10.646 10.567l4.441-4.473c6.355 4.192 13.699 6.276 21.036 6.249 9.722-.036 19.43-3.772 26.803-11.201 12.939-13.035 14.454-33.173 4.598-47.875zm-52.281 9.425c4.46-4.494 10.333-6.754 16.213-6.775 3.439-.013 6.872.763 10.036 2.282l-30.548 30.775c-4.18-8.543-2.769-19.161 4.299-26.282zm32.597 32.357c-7.069 7.121-17.675 8.61-26.25 4.493l30.548-30.775c4.181 8.543 2.77 19.16-4.298 26.282z" fill="#f7f3f1"/><path d="M435.181 90.286c-4.142.015-7.512-3.33-7.528-7.472l-.279-75.53c-.036-9.674 14.964-9.73 15-.055l.279 75.53c.016 4.141-3.33 7.512-7.472 7.527z" fill="#ffd36c"/><path d="M478.834 504.749h-176.44c-12.581.047-23.469-10.114-23.516-22.695v-176.44c-.047-12.581 10.114-22.817 22.695-22.863h176.44c12.581-.047 23.469 9.462 23.516 22.043v176.44c.046 12.58-10.115 23.469-22.695 23.515z" fill="#ffad8c"/><path d="M478.013 282.751h-40.5c12.581-.047 23.469 9.612 23.516 22.192v176.44c.047 12.581-10.114 23.319-22.695 23.366h40.5c12.581-.047 22.741-10.935 22.695-23.516v-176.44c-.047-12.58-10.936-22.089-23.516-22.042z" fill="#ff956a"/><path d="M501.529 304.793c-.047-12.581-10.935-22.089-23.516-22.043h-176.44c-12.581.047-22.741 10.283-22.695 22.863v19.721h222.651z" fill="#de815a"/><path d="M478.013 282.751h-40.5c12.581-.047 23.469 9.612 23.516 22.192v20.392h40.5v-20.541c-.047-12.581-10.936-22.09-23.516-22.043z" fill="#d86b3e"/><path d="M435.117 380.061c6.816-6.866-3.83-17.433-10.646-10.567l-6.999 7.051c-18.314-13.106-44.011-11.392-60.377 5.096-16.366 16.487-17.89 42.198-4.649 60.414l-6.999 7.051c-6.816 6.866 3.83 17.433 10.646 10.567l6.999-7.051c8.15 5.833 17.76 8.736 27.363 8.701 11.975-.044 23.932-4.647 33.014-13.797 16.366-16.487 17.89-42.198 4.649-60.414zm-67.377 12.147c6.169-6.215 14.291-9.34 22.424-9.371 5.733-.021 11.469 1.503 16.534 4.561l-43.479 43.802c-7.487-12.194-5.997-28.396 4.521-38.992zm45.083 44.751c-10.518 10.596-26.709 12.206-38.958 4.809l43.479-43.802c7.487 12.194 5.996 28.397-4.521 38.993z" fill="#f7f3f1"/></svg>