<svg enable-background="new 0 0 511.512 511.512" height="512" viewBox="0 0 511.512 511.512" width="512" xmlns="http://www.w3.org/2000/svg"><path d="M141.756 408.943c-23.746 0-40.356-22.673-43.021-44.452-2.838-23.199 9.238-44.29 29.633-55.231 49.107-26.344 27.935-76.771 27.935-108.288 0-54.346 44.056-98.403 98.403-98.403 54.406-.507 100.504 43.514 100.504 98.403 0 31.517-21.172 81.944 27.935 108.288 20.396 10.942 32.471 32.026 29.633 55.231-2.665 21.782-19.275 44.452-43.021 44.452h-228.001z" fill="#909ec0"/><path d="M383.144 309.259c-49.107-26.344-27.935-76.771-27.935-108.287 0-54.774-46.097-99.062-100.504-98.403-6.752 0-13.345.681-19.714 1.977 44.899 9.131 78.689 48.832 78.689 96.426 0 31.517-21.172 81.944 27.935 108.287 29.306 15.721 34.938 45.095 26.534 68.207-6.821 18.757-22.883 31.476-39.922 31.476h41.53c23.746 0 40.356-22.673 43.021-44.452 2.836-23.199-9.24-44.29-29.634-55.231z" fill="#808dab"/><path d="M279.339 314.246h29.4c31.342 0 56.749 25.407 56.749 56.749v37.948h-219.465v-37.948c0-31.342 25.407-56.749 56.749-56.749h29.4z" fill="#ffd36c"/><path d="M308.739 314.246h-41.733000000000004c31.342 0 56.749 25.407 56.749 56.749v37.948h41.733v-37.948c0-31.342-25.407-56.749-56.749-56.749z" fill="#fcc645"/><path d="M279.339 280.756v45.943c0 13.099-10.351 23.717-23.449 23.717-13.099 0-23.717-10.619-23.717-23.717v-45.943zM213.832 207.825h-25.923v20.977c0 34.442 27.921 62.362 62.362 62.362h10.97c34.442 0 62.362-27.921 62.362-62.362v-20.977c-28.443 0-53.431-19.206-53.431-57.348l.082-.181c0 31.161-25.261 57.529-56.422 57.529z" fill="#fcd8a5"/><path d="M270.172 150.477c0 .57.024 1.122.035 1.683.02-.62.047-1.24.047-1.864zM270.206 152.16c-.577 17.786-9.348 33.85-22.672 44.097 4.995 4.079 10.727 7.085 16.911 9.008 10.302 3.204 17.31 12.749 17.31 23.537 0 29.113-19.95 53.562-46.924 60.433 4.938 1.258 10.109 1.929 15.439 1.929h10.97c34.442 0 62.362-27.921 62.362-62.362v-20.977c-28.017 0-52.665-18.65-53.396-55.665z" fill="#facc87"/><path stroke="#000" stroke-width="15" stroke-linecap="round" stroke-linejoin="round" stroke-miterlimit="10" fill="none"/><g fill="#ebe1dc"><path d="M114.756 441.259h-28.86c-8.762 0-15.89-7.128-15.89-15.89v-27.613c0-9.674-15-9.674-15 0v27.613c0 17.033 13.857 30.89 30.89 30.89h28.86c9.674 0 9.674-15 0-15zM449.006 389.256c-4.143 0-7.5 3.358-7.5 7.5v28.613c0 8.762-7.128 15.89-15.89 15.89h-27.86c-9.675 0-9.675 15 0 15h27.86c17.032 0 30.89-13.857 30.89-30.89v-28.613c0-4.142-3.358-7.5-7.5-7.5zM400.756 70.252h24.86c8.762 0 15.89 7.128 15.89 15.89v26.613c0 9.674 15 9.674 15 0v-26.612c0-17.033-13.857-30.89-30.89-30.89h-24.86c-9.675-.001-9.675 14.999 0 14.999zM70.006 111.756v-25.613c0-8.762 7.128-15.89 15.89-15.89h24.859c9.674 0 9.674-15 0-15h-24.859c-17.033 0-30.89 13.857-30.89 30.89v25.614c0 9.674 15 9.674 15-.001z"/></g><path d="M504.256 248.256h-17.75v-165.818c0-31.532-25.653-57.186-57.186-57.186h-166.064v-17.722c0-9.675-15-9.674-15 0v17.722h-166.065c-31.532 0-57.186 25.653-57.186 57.186v165.818h-17.749c-9.674 0-9.674 15 0 15h17.75v165.818c0 31.532 25.653 57.186 57.186 57.186h166.064v17.722c0 9.674 15 9.674 15 0v-17.722h166.064c31.532 0 57.186-25.653 57.186-57.186v-165.818h17.75c9.674 0 9.674-15 0-15zm-32.75 180.818c0 23.261-18.925 42.186-42.186 42.186h-166.064v-15.724c0-9.675-15-9.674-15 0v15.724h-166.065c-23.261 0-42.186-18.924-42.186-42.186v-165.818h15.75c9.674 0 9.674-15 0-15h-15.75v-165.818c0-23.261 18.924-42.186 42.186-42.186h166.064v15.724c0 9.674 15 9.675 15 0v-15.724h166.065c23.261 0 42.186 18.924 42.186 42.186v165.818h-15.75c-9.675 0-9.675 15 0 15h15.75z" fill="#fa9084"/></svg>