<svg enable-background="new 0 0 497.963 497.963" height="512" viewBox="0 0 497.963 497.963" width="512" xmlns="http://www.w3.org/2000/svg"><path d="M322.637 497.481h-275.743c-25.899 0-46.894-20.998-46.894-46.9v-348.039c0-25.902 20.995-46.9 46.894-46.9h228.849c25.899 0 46.894 20.998 46.894 46.901v44.379z" fill="#de815a"/><path d="M275.743 55.642h-41.487c25.899 0 46.894 20.998 46.894 46.901v394.939h41.487v-394.939c0-25.903-20.995-46.901-46.894-46.901z" fill="#d86b3e"/><path d="M285.455 102.247v343.98c0 5.534-4.486 10.021-10.021 10.021h-228.232c-5.534 0-10.021-4.486-10.021-10.021v-343.98c0-5.534 4.486-10.021 10.021-10.021h228.232c5.535 0 10.021 4.486 10.021 10.021z" fill="#f7f3f1"/><path d="M197.41 55.642c2.113-4.83 3.293-10.161 3.293-15.77 0-21.755-17.633-39.39-39.385-39.39s-39.385 17.636-39.385 39.39c0 5.609 1.18 10.94 3.293 15.77h-32.877v54.829h137.938v-54.829zm-27.542-6.595c-4.722 4.723-12.378 4.723-17.099 0-4.722-4.723-4.722-12.379 0-17.102s12.378-4.723 17.099 0 4.722 12.38 0 17.102z" fill="#ffd36c"/><g fill="#72e4a0"><path d="M121.815 157.226c-2.929-2.929-7.678-2.929-10.606.001l-12.395 12.396-12.394-12.396c-6.84-6.842-17.448 3.764-10.607 10.605l12.396 12.398-12.396 12.398c-6.84 6.841 3.768 17.448 10.607 10.605l12.395-12.396 12.395 12.396c6.84 6.842 17.448-3.764 10.607-10.605l-12.396-12.398 12.396-12.398c2.928-2.928 2.928-7.677-.002-10.606zM234.817 303.682l12.396-12.398c6.841-6.841-3.768-17.448-10.607-10.605l-12.395 12.396-12.395-12.396c-6.84-6.842-17.448 3.765-10.607 10.605l12.396 12.398-12.396 12.398c-6.841 6.841 3.768 17.448 10.607 10.605l12.395-12.396 12.395 12.396c6.84 6.842 17.448-3.765 10.607-10.605zM184.319 369.276c-2.929-2.929-7.678-2.929-10.606.001l-12.395 12.396-12.395-12.396c-6.84-6.842-17.448 3.765-10.607 10.605l12.396 12.398-12.396 12.398c-6.841 6.841 3.768 17.448 10.607 10.605l12.395-12.396 12.395 12.396c6.84 6.842 17.448-3.765 10.607-10.605l-12.396-12.398 12.396-12.398c2.933-2.932 2-8.605-.001-10.606z"/></g><path d="M249.283 211.39c2.413-2.936 2.187-7.372-.499-10.057l-24.651-24.654c-6.84-6.842-17.448 3.765-10.607 10.605l12.63 12.632c-38.339 3.681-73.886 20.373-101.44 47.931-31.406 31.411-48.703 73.206-48.703 117.686 0 9.674 15 9.674 15 0 0-40.474 15.736-78.502 44.31-107.08 24.275-24.277 55.37-39.282 88.989-43.25l-10.786 10.788c-6.841 6.841 3.768 17.448 10.607 10.605l24.651-24.654c.175-.175.341-.36.499-.552z" fill="#f76c57"/><path d="M415.244 62.717h-8.815v-8.988c0-9.674-15-9.674-15 0v8.988h-8.816c-9.674 0-9.674 15 0 15h8.816v38.264c0 9.674 15 9.674 15 0v-38.264h8.815c9.675 0 9.675-15 0-15z" fill="#f5b620"/><path d="M314.617 497.039c-8.126 0-14.714-6.588-14.714-14.714v-.195c0-8.126 6.588-14.714 14.714-14.714h168.632c8.126 0 14.714 6.588 14.714 14.714v.195c0 8.126-6.588 14.714-14.714 14.714z" fill="#ffd36c"/><path d="M483.248 467.415h-41.45c8.126 0 14.714 6.588 14.714 14.714v.195c0 8.126-6.588 14.714-14.714 14.714h41.45c8.126 0 14.714-6.588 14.714-14.714v-.195c.001-8.126-6.587-14.714-14.714-14.714z" fill="#fcc645"/><path d="M327.254 159.439l45.108-27.844h53.628l44.743 27.88c3.966 2.471 4.911 7.838 2.028 11.516l-35.934 45.832h-74.909l-36.669-45.787c-2.95-3.683-2.011-9.118 2.005-11.597z" fill="#909ec0"/><path d="M425.492 131.595h-53.126v-7.064c0-8.9 7.215-16.115 16.115-16.115h20.896c8.9 0 16.115 7.215 16.115 16.115z" fill="#ffd36c"/><path d="M409.376 108.416h-20.896c-1.579 0-3.1.237-4.542.66 6.687 1.962 11.574 8.134 11.574 15.455v7.064h29.979v-7.064c.001-8.899-7.214-16.115-16.115-16.115zM436.598 245.829h-74.845c-8.01 0-14.503-6.493-14.503-14.503s6.493-14.503 14.503-14.503h74.845c8.01 0 14.503 6.493 14.503 14.503s-6.493 14.503-14.503 14.503z" fill="#fcc645"/><path d="M436.598 216.823h-31.588c8.01 0 14.503 6.493 14.503 14.503s-6.493 14.503-14.503 14.503h31.588c8.01 0 14.503-6.493 14.503-14.503s-6.493-14.503-14.503-14.503z" fill="#f5b620"/><path d="M470.732 159.476l-44.743-27.88h-53.628l-45.108 27.844c-1.791 1.106-2.966 2.801-3.461 4.665h150.368c-.495-1.848-1.659-3.527-3.428-4.629z" fill="#fcc645"/><path d="M470.732 159.476l-44.743-27.88h-31.281l44.743 27.88c1.769 1.102 2.932 2.781 3.428 4.628h31.281c-.495-1.847-1.659-3.526-3.428-4.628zM323.793 164.104c-.615 2.315-.179 4.892 1.455 6.932l36.669 45.787h74.909l35.934-45.832c1.598-2.038 2.015-4.592 1.4-6.887z" fill="#f5b620"/><path d="M474.16 164.104h-31.014c.616 2.295.198 4.85-1.4 6.887l-35.934 45.832h31.014l35.934-45.832c1.598-2.037 2.016-4.592 1.4-6.887z" fill="#eaaf20"/><path d="M447.521 406.249c-10.65 0-19.283-8.633-19.283-19.283v-141.137h-58.154v141.136c0 10.65-8.633 19.283-19.283 19.283-2.714 0-4.914 2.2-4.914 4.914v16.067h106.743l-.195-16.067c0-2.713-2.2-4.913-4.914-4.913z" fill="#ffd36c"/><path d="M452.435 411.163c0-2.714-2.2-4.914-4.914-4.914-10.65 0-19.283-8.633-19.283-19.283v-141.137h-31.118v141.136c0 10.65 8.633 19.283 19.283 19.283 2.714 0 4.914 2.2 4.914 4.914v16.067h31.312zM480.245 467.415h-162.625v-17.529c0-12.513 10.144-22.656 22.656-22.656h117.313c12.513 0 22.656 10.144 22.656 22.656z" fill="#fcc645"/><path d="M457.589 427.23h-31.107c12.513 0 22.656 10.143 22.656 22.656v17.529h31.107v-17.529c0-12.512-10.143-22.656-22.656-22.656z" fill="#f5b620"/></svg>