<svg enable-background="new 0 0 497 497" height="512" viewBox="0 0 497 497" width="512" xmlns="http://www.w3.org/2000/svg"><path d="M497 248.5c0 20.164-45.395 34.049-50.437 52.639-5.212 19.215 26.79 54.016 16.919 70.828-9.995 17.023-56.215 6.268-70.222 20.071-13.977 13.774-3.7 59.976-20.908 69.787-16.933 9.654-51.581-22.552-70.908-17.461-18.661 4.915-32.719 50.151-52.945 50.151s-34.284-45.236-52.945-50.151c-19.327-5.09-53.975 27.116-70.908 17.461-17.208-9.811-6.93-56.013-20.908-69.788-14.007-13.803-60.227-3.048-70.221-20.071-9.871-16.812 22.132-51.613 16.92-70.828-5.042-18.589-50.437-32.474-50.437-52.638s45.395-34.049 50.437-52.639c5.212-19.215-26.79-54.016-16.919-70.828 9.995-17.023 56.215-6.268 70.222-20.071 13.977-13.774 3.7-59.976 20.908-69.787 16.933-9.654 51.581 22.552 70.908 17.461 18.661-4.915 32.719-50.151 52.945-50.151s34.284 45.236 52.945 50.151c19.327 5.09 53.975-27.116 70.908-17.461 17.208 9.811 6.93 56.013 20.908 69.788 14.007 13.803 60.227 3.048 70.221 20.071 9.871 16.812-22.132 51.613-16.92 70.828 5.042 18.589 50.437 32.474 50.437 52.638z" fill="#fa9084"/><path d="M497 248.5c0-20.164-45.395-34.049-50.437-52.638-5.212-19.215 26.79-54.016 16.92-70.828-9.995-17.023-56.215-6.268-70.221-20.071-13.977-13.774-3.7-59.977-20.908-69.788-8.413-4.797-21.199.74-34.306 6.901 8.414 16.413 2.895 51.239 14.714 62.886 14.007 13.803 60.227 3.048 70.221 20.071 9.871 16.812-22.132 51.613-16.92 70.828 5.042 18.589 50.437 32.475 50.437 52.638 0 20.164-45.395 34.049-50.437 52.639-5.212 19.215 26.79 54.016 16.919 70.828-9.995 17.023-56.215 6.268-70.222 20.071-11.818 11.647-6.3 46.473-14.714 62.886 13.107 6.162 25.893 11.698 34.306 6.902 17.208-9.811 6.93-56.013 20.908-69.787 14.007-13.803 60.227-3.048 70.222-20.071 9.871-16.812-22.131-51.613-16.919-70.828 5.042-18.59 50.437-32.475 50.437-52.639z" fill="#ff6cb5"/><circle cx="247" cy="248" fill="#f7f3f1" r="150.5"/><path d="M247 97.5c-6.782 0-13.456.457-20 1.326 73.663 9.782 130.5 72.837 130.5 149.174s-56.837 139.392-130.5 149.174c6.544.869 13.218 1.326 20 1.326 83.119 0 150.5-67.381 150.5-150.5s-67.381-150.5-150.5-150.5z" fill="#efe7e3"/><g fill="#f76c57"><path d="M191.624 233.985c-8.198 0-16.396-3.121-22.637-9.361-6.046-6.046-9.376-14.085-9.376-22.636s3.33-16.59 9.376-22.637 14.086-9.377 22.637-9.377 16.59 3.33 22.637 9.377c6.046 6.046 9.376 14.085 9.376 22.637 0 8.551-3.33 16.59-9.376 22.636-6.241 6.24-14.44 9.361-22.637 9.361zm0-49.011c-4.544 0-8.817 1.77-12.03 4.983s-4.983 7.486-4.983 12.03 1.77 8.816 4.983 12.03c6.634 6.633 17.428 6.634 24.061 0 3.213-3.213 4.983-7.486 4.983-12.03s-1.77-8.817-4.983-12.03-7.487-4.983-12.031-4.983zM305.376 327.026c-8.551 0-16.59-3.33-22.637-9.377-6.046-6.046-9.376-14.085-9.376-22.637 0-8.551 3.33-16.59 9.376-22.636 12.481-12.481 32.791-12.481 45.273 0 6.046 6.046 9.376 14.085 9.376 22.636s-3.33 16.59-9.376 22.637c-6.045 6.047-14.085 9.377-22.636 9.377zm0-49.018c-4.357 0-8.713 1.658-12.03 4.975-3.213 3.213-4.983 7.486-4.983 12.03s1.77 8.817 4.983 12.03 7.486 4.983 12.03 4.983 8.817-1.77 12.03-4.983 4.983-7.486 4.983-12.03-1.77-8.816-4.983-12.03c-3.316-3.316-7.673-4.975-12.03-4.975zM198.493 336.196c-5.745 0-9.351-6.667-6.357-11.469l100-160.39c5.119-8.21 17.847-.273 12.729 7.937l-100 160.39c-1.423 2.279-3.869 3.532-6.372 3.532z"/></g></svg>