<svg enable-background="new 0 0 511.512 511.512" height="512" viewBox="0 0 511.512 511.512" width="512" xmlns="http://www.w3.org/2000/svg"><path d="M177.274 312.721c-42.399-1.701-80.508-21.509-101.943-52.988-24.72-36.306-26.88-86.805-6.243-146.037 4.27-12.257-2.205-25.654-14.463-29.923-12.071-4.203-25.72 2.386-29.927 14.461-32.507 93.305-11.538 153.708 11.778 187.95 24.199 35.539 63.031 60.343 107.436 69.619v148.203h221.911v-147.857c45.143-8.981 84.691-33.954 109.212-69.965 23.316-34.242 44.285-94.645 11.778-187.95-4.206-12.072-17.851-18.665-29.927-14.461-12.258 4.27-18.733 17.667-14.463 29.923 20.636 59.232 18.477 109.731-6.243 146.037-21.435 31.479-59.543 51.288-101.943 52.988z" fill="#72e4a0"/><path d="M486.814 98.235c-4.206-12.071-17.852-18.666-29.927-14.461-5.926 2.064-10.494 6.264-13.156 11.434.497.967.947 1.971 1.315 3.027 32.507 93.305 11.538 153.708-11.778 187.95-24.52 36.01-64.069 60.983-109.211 69.965v147.857h41.768v-147.858c45.143-8.981 84.691-33.954 109.211-69.965 23.315-34.242 44.285-94.645 11.778-187.949z" fill="#24d3b5"/><g fill="#ffd36c"><path d="M422.491 20.491c0-4.142-3.357-7.5-7.5-7.5h-5.735v-5.735c0-9.675-15-9.675-15 0v5.735h-5.735c-9.675 0-9.675 15 0 15h5.735v5.735c0 9.675 15 9.675 15 0v-5.735h5.735c4.143 0 7.5-3.358 7.5-7.5zM402.756 223.491h-5.735v-5.735c0-9.674-15-9.674-15 0v5.735h-5.735c-9.675 0-9.675 15 0 15h5.735v5.735c0 9.675 15 9.675 15 0v-5.735h5.735c9.674 0 9.674-15 0-15zM123.756 186.021h-5.735v-5.735c0-9.674-15-9.674-15 0v5.735h-5.735c-9.674 0-9.674 15 0 15h5.735v5.735c0 9.674 15 9.674 15 0v-5.735h5.735c9.674 0 9.674-15 0-15zM33.727 378.021h-5.735v-5.735c0-9.674-15-9.674-15 0v5.735h-5.736c-9.674 0-9.674 15 0 15h5.735v5.735c0 9.674 15 9.674 15 0v-5.735h5.735c9.675 0 9.675-15 .001-15zM504.256 378.021h-5.735v-5.735c0-9.675-15-9.675-15 0v5.735h-5.735c-9.675 0-9.675 15 0 15h5.735v5.735c0 9.674 15 9.674 15 0v-5.735h5.735c9.674 0 9.674-15 0-15zM453.691 483.521h-5.735v-5.735c0-9.675-15-9.675-15 0v5.735h-5.735c-9.675 0-9.675 15 0 15h5.735v5.735c0 9.674 15 9.674 15 0v-5.735h5.735c9.675 0 9.675-15 0-15zM84.291 483.521h-5.735v-5.735c0-9.674-15-9.674-15 0v5.735h-5.736c-9.674 0-9.674 15 0 15h5.735v5.735c0 9.674 15 9.674 15 0v-5.735h5.735c9.675 0 9.675-15 .001-15z"/></g><path d="M284.027 265.857v56.086c-.056 16.018-13.088 28.957-29.108 28.901-16.02-.056-28.961-13.087-28.904-29.105v-55.883h58.012z" fill="#fcd8a5"/><path d="M284.027 265.857h-29.978v55.981c-.037 10.533-5.685 19.734-14.104 24.785 4.365 2.661 9.489 4.202 14.974 4.222 16.02.056 29.052-12.883 29.108-28.901z" fill="#facc87"/><path d="M336.83 110.297v91.832c0 42.117-33.096 76.26-75.217 76.26h-13.416c-42.122 0-76.268-34.143-76.268-76.26v-91.832z" fill="#fcd8a5"/><path d="M295.309 110.297v91.832c0 37.376-25.499 68.45-60.991 74.978 4.503.828 9.136 1.283 13.878 1.283h13.416c42.122 0 75.218-34.143 75.218-76.26v-91.832h-41.521z" fill="#facc87"/><path d="M486.814 98.235c-4.206-12.071-17.852-18.666-29.927-14.461-12.258 4.27-18.733 17.667-14.463 29.923 4.049 11.62 7.207 22.899 9.502 33.806l45.565-11.867c-2.598-11.83-6.11-24.291-10.677-37.401zM69.088 113.697c4.27-12.257-2.205-25.654-14.463-29.923-12.071-4.203-25.72 2.386-29.927 14.461-4.3 12.342-7.656 24.102-10.202 35.309l45.055 14.13c2.298-10.961 5.467-22.296 9.537-33.977z" fill="#fcd8a5"/><path d="M171.928 110.296v56.54s136.603 10.809 164.902-56.54z" fill="#de815a"/><path d="M171.928 7.006l41.059 41.548h-.219l41.271-41.548 41.27 41.548 41.521-41.548v103.29100000000001h-164.902v-102.921z" fill="#ffd36c"/><path d="M295.309 48.554v61.743h41.521v-103.29100000000001z" fill="#fcc645"/></svg>