<svg enable-background="new 0 0 497 497" height="512" viewBox="0 0 497 497" width="512" xmlns="http://www.w3.org/2000/svg"><path d="M246.5 463.5c-4.143 0-7.5-3.358-7.5-7.5v-56.5c0-9.674 15-9.674 15 0v56.5c0 4.142-3.357 7.5-7.5 7.5z" fill="#72d1fb"/><path d="M202.444 0h92.112v39.653h-92.112z" fill="#8ee6f3"/><path d="M461.157 371.5h-425.314c-19.796 0-35.843-14.985-35.843-34.78v-261.224c0-19.795 16.047-35.843 35.843-35.843h425.315c19.795 0 35.843 16.047 35.843 35.843v261.224c-.001 19.795-16.048 34.78-35.844 34.78z" fill="#f7f3f1"/><path d="M461.157 39.653h-40.5c19.795 0 35.843 16.047 35.843 35.843v261.224c0 19.795-16.047 34.78-35.843 34.78h40.5c19.795 0 35.843-14.985 35.843-34.78v-261.224c0-19.795-16.047-35.843-35.843-35.843z" fill="#efe7e3"/><path d="M432.174 407.5h-367.348c-11.226 0-20.326-9.1-20.326-20.326v-15.674h408v15.674c0 11.226-9.1 20.326-20.326 20.326z" fill="#8ee6f3"/><circle cx="246.5" cy="477" fill="#ffd36c" r="20"/><circle cx="126.018" cy="167.982" fill="#fa9084" r="73.482"/><path d="M187.49 127.712c-13.122-20.004-35.734-33.212-61.472-33.212-12.999 0-25.195 3.38-35.783 9.289l35.783 64.193z" fill="#ffd36c"/><path d="M199.5 167.982c0-14.878-4.424-28.706-12.01-40.27l-61.472 40.27.409 73.472c40.427-.222 73.073-32.993 73.073-73.472z" fill="#72d1fb"/><path d="M199.5 284.535h-146.964c-9.675 0-9.675-15 0-15h146.964c9.675 0 9.675 15 0 15zM152.696 320.106h-100.16c-9.675 0-9.675-15 0-15h100.16c9.675 0 9.675 15 0 15z" fill="#ebe1dc"/><path d="M263.464 186.5h39.119v126.106h-39.119z" fill="#ffd36c"/><path d="M417.417 155.606h39.119v157h-39.119z" fill="#72d1fb"/><path d="M340.44 221.606h39.119v91h-39.119z" fill="#72e4a0"/><path d="M434.157 101.066c-3.001-2.855-7.748-2.736-10.604.265l-58.976 62c-6.66 7.001 4.185 17.362 10.869 10.338l58.976-62c2.855-3.001 2.736-7.748-.265-10.603zM351.893 163.024l-52.998-38.308c-7.841-5.667-16.628 6.49-8.787 12.157l52.998 38.308c7.749 5.602 16.673-6.456 8.787-12.157z" fill="#ebe1dc"/><g fill="#909ec0"><circle cx="283.024" cy="122.5" r="13"/><circle cx="360" cy="176.5" r="13"/><circle cx="436.976" cy="96.5" r="13"/></g></svg>