<svg enable-background="new 0 0 504.5 504.5" height="512" viewBox="0 0 504.5 504.5" width="512" xmlns="http://www.w3.org/2000/svg"><path d="M464.555 61.175h-24.055c-9.674 0-9.674 15 0 15h24.055c13.755 0 24.945 11.19 24.945 24.945v143.63h-49c-9.674 0-9.674 15 0 15h49v143.629c0 13.755-11.19 24.945-24.945 24.945h-24.055c-9.674 0-9.674 15 0 15h24.055c22.026 0 39.945-17.919 39.945-39.945v-302.258c0-22.026-17.919-39.946-39.945-39.946z" fill="#ebe1dc"/><path d="M418.729 134.461h-397.458c-11.747 0-21.271-9.524-21.271-21.272v-88.168c0-11.747 9.524-21.271 21.271-21.271h397.457c11.748 0 21.272 9.524 21.272 21.271v88.168c0 11.748-9.524 21.272-21.271 21.272z" fill="#f7f3f1"/><path d="M387.728 186.895h-335.456c-14.234 0-25.772-11.983-25.772-26.217 0-14.234 11.539-26.217 25.772-26.217h335.456c14.234 0 25.772 11.983 25.772 26.217 0 14.233-11.539 26.217-25.772 26.217zM387.728 370.039h-335.456c-14.234 0-25.772-11.983-25.772-26.217 0-14.234 11.539-26.217 25.772-26.217h335.456c14.234 0 25.772 11.983 25.772 26.217 0 14.234-11.539 26.217-25.772 26.217z" fill="#909ec0"/><path d="M418.729 317.605h-397.458c-11.747 0-21.271-9.523-21.271-21.271v-88.168c0-11.748 9.524-21.271 21.271-21.271h397.457c11.748 0 21.271 9.524 21.271 21.271v88.168c.001 11.748-9.523 21.271-21.27 21.271zM418.729 500.75h-397.458c-11.747 0-21.271-9.524-21.271-21.271v-88.168c0-11.748 9.524-21.271 21.271-21.271h397.457c11.748 0 21.271 9.524 21.271 21.271v88.168c.001 11.747-9.523 21.271-21.27 21.271z" fill="#f7f3f1"/><path d="M418.729 3.75h-143.229v130.711h143.229c11.748 0 21.271-9.524 21.271-21.271v-88.169c0-11.747-9.523-21.271-21.271-21.271z" fill="#ffd36c"/><path d="M418.729 3.75h-42c11.748 0 21.271 9.524 21.271 21.271v88.168c0 11.748-9.523 21.271-21.271 21.271h42c11.748 0 21.271-9.524 21.271-21.271v-88.168c0-11.747-9.523-21.271-21.271-21.271z" fill="#fcc645"/><path d="M418.729 186.895h-143.229v130.711h143.229c11.748 0 21.271-9.524 21.271-21.271v-88.168c0-11.749-9.523-21.272-21.271-21.272z" fill="#fa9084"/><path d="M418.729 186.895h-42c11.748 0 21.271 9.524 21.271 21.271v88.168c0 11.748-9.523 21.271-21.271 21.271h42c11.748 0 21.271-9.524 21.271-21.271v-88.168c0-11.748-9.523-21.271-21.271-21.271z" fill="#ff6cb5"/><path d="M418.729 370.039h-143.229v130.711h143.229c11.748 0 21.271-9.524 21.271-21.271v-88.168c0-11.748-9.523-21.272-21.271-21.272z" fill="#72d1fb"/><path d="M418.729 370.039h-42c11.748 0 21.271 9.524 21.271 21.271v88.168c0 11.748-9.523 21.271-21.271 21.271h42c11.748 0 21.271-9.524 21.271-21.271v-88.168c0-11.747-9.523-21.271-21.271-21.271z" fill="#62a6fd"/><g fill="#808dab"><path d="M226.5 426.395h-182c-9.675 0-9.675-15 0-15h182c9.675 0 9.675 15 0 15zM226.5 459.395h-182c-9.675 0-9.675-15 0-15h182c9.675 0 9.675 15 0 15zM226.5 243.25h-182c-9.675 0-9.675-15 0-15h182c9.675 0 9.675 15 0 15zM226.5 276.25h-182c-9.675 0-9.675-15 0-15h182c9.675 0 9.675 15 0 15zM226.5 60.105h-182c-9.675 0-9.675-15 0-15h182c9.675 0 9.675 15 0 15zM226.5 93.105h-182c-9.675 0-9.675-15 0-15h182c9.675 0 9.675 15 0 15zM324.5 60.105c9.652 0 9.668-15 0-15-9.652 0-9.668 15 0 15zM357.5 60.105c9.652 0 9.668-15 0-15-9.652 0-9.668 15 0 15zM390.5 60.105c9.652 0 9.668-15 0-15-9.652 0-9.668 15 0 15zM324.5 93.105c9.652 0 9.668-15 0-15-9.652 0-9.668 15 0 15zM357.5 93.105c9.652 0 9.668-15 0-15-9.652 0-9.668 15 0 15zM390.5 93.105c9.652 0 9.668-15 0-15-9.652 0-9.668 15 0 15zM324.5 243.25c9.652 0 9.668-15 0-15-9.652 0-9.668 15 0 15zM357.5 243.25c9.652 0 9.668-15 0-15-9.652 0-9.668 15 0 15zM390.5 243.25c9.652 0 9.668-15 0-15-9.652 0-9.668 15 0 15zM324.5 276.25c9.652 0 9.668-15 0-15-9.652 0-9.668 15 0 15zM357.5 276.25c9.652 0 9.668-15 0-15-9.652 0-9.668 15 0 15zM390.5 276.25c9.652 0 9.668-15 0-15-9.652 0-9.668 15 0 15zM324.5 426.395c9.652 0 9.668-15 0-15-9.652 0-9.668 15 0 15zM357.5 426.395c9.652 0 9.668-15 0-15-9.652 0-9.668 15 0 15zM390.5 426.395c9.652 0 9.668-15 0-15-9.652 0-9.668 15 0 15zM324.5 459.395c9.652 0 9.668-15 0-15-9.652 0-9.668 15 0 15zM357.5 459.395c9.652 0 9.668-15 0-15-9.652 0-9.668 15 0 15zM390.5 459.395c9.652 0 9.668-15 0-15-9.652 0-9.668 15 0 15z"/></g></svg>