<svg enable-background="new 0 0 504.5 504.5" height="512" viewBox="0 0 504.5 504.5" width="512" xmlns="http://www.w3.org/2000/svg"><path d="M390.528 112.482l-41.321 224.902h-286.088c-13.207 0-24.592-9.268-27.243-22.177l-34.793-169.409c-3.534-17.205 9.641-33.316 27.243-33.316z" fill="#c2f6ff"/><path d="M348.622 112.482l-41.321 224.902h-244.182 286.088l41.321-224.902z" fill="#aef2ff"/><g fill="#72d1fb"><path d="M373.009 178.555h-364.851c-9.674 0-9.674-15 0-15h364.852c9.674 0 9.674 15-.001 15zM17.655 233.339c-9.674 0-9.674-15 0-15h351.134c9.674 0 9.674 15 0 15zM358.236 288.123h-328.973c-9.674 0-9.674-15 0-15h328.973c9.674 0 9.674 15 0 15zM275.459 432.149h-212.429c-9.674 0-9.674-15 0-15h212.429c29.636 0 55.065-21.096 60.464-50.163l56.572-304.563c6.719-36.17 38.35-62.423 75.212-62.423h29.031c9.674 0 9.674 15 0 15h-29.031c-29.636 0-55.065 21.097-60.464 50.163l-56.572 304.563c-6.719 36.17-38.35 62.423-75.212 62.423z"/></g><ellipse cx="106.334" cy="464.575" fill="#ffd36c" rx="40.016" ry="39.925"/><path d="M106.334 424.65c-5.631 0-10.988 1.166-15.848 3.26 14.216 6.125 24.168 20.233 24.168 36.665s-9.952 30.54-24.168 36.665c4.861 2.094 10.217 3.26 15.848 3.26 22.1 0 40.016-17.875 40.016-39.925s-17.915-39.925-40.016-39.925z" fill="#fcc645"/><ellipse cx="276.227" cy="464.575" fill="#ffd36c" rx="40.016" ry="39.925"/><path d="M276.227 424.65c-5.61 0-10.948 1.156-15.795 3.236 14.245 6.113 24.221 20.237 24.221 36.689 0 16.453-9.977 30.576-24.221 36.689 4.846 2.08 10.184 3.236 15.795 3.236 22.1 0 40.016-17.875 40.016-39.925s-17.916-39.925-40.016-39.925z" fill="#fcc645"/></svg>