<svg enable-background="new 0 0 497 497" height="512" viewBox="0 0 497 497" width="512" xmlns="http://www.w3.org/2000/svg"><path d="M297.5 208.643h170.254v251.465c0 20.375-16.517 36.892-36.892 36.892h-364.724c-20.375 0-36.892-16.517-36.892-36.892v-251.465h168.254" fill="#f76c57"/><path d="M420.5 208.643v251.465c0 20.375-16.517 36.892-36.892 36.892h47.254c20.375 0 36.892-16.517 36.892-36.892v-251.465z" fill="#f251a1"/><path d="M197.5 208.643h-173.212c-13.414 0-24.288-10.874-24.288-24.287v-48.589c0-13.414 10.874-24.288 24.288-24.288h448.425c13.414 0 24.288 10.874 24.288 24.288v48.589c0 13.414-10.874 24.288-24.288 24.288h-275.21299999999997z" fill="#fa9084"/><path d="M472.712 111.48h-40.5c13.414 0 24.288 10.874 24.288 24.287v48.589c0 13.414-10.874 24.288-24.288 24.288h40.5c13.414 0 24.288-10.874 24.288-24.288v-48.589c0-13.414-10.874-24.287-24.288-24.287z" fill="#ff6cb5"/><path d="M198.625 111.48h-130.667v-60.569c0-41.129 46.24-65.175 79.994-41.674 18.574 12.932 36.911 33.077 50.673 64.362h99.751c13.762-31.285 32.099-51.43 50.673-64.362 33.754-23.501 79.994.545 79.994 41.674v60.569h-130.668" fill="#fcc645"/><path d="M298.375 111.48h-98.751v-32.229c0-11.46 9.29-20.751 20.751-20.751h57.249c11.46 0 20.751 9.29 20.751 20.751zM199.562 111.48h97.875v385.52h-97.875z" fill="#ffd36c"/><path d="M199.562 497h4.315l93.561-79.59v-76.803l-97.876 81.692z" fill="#fcc645"/><path d="M297.438 497v-79.59l-93.561 79.59z" fill="#ffd36c"/><path d="M199.562 111.48v77.724l96.759-77.724z" fill="#fcc645"/><path d="M199.562 345.496v76.803l97.876-81.692v-76.802z" fill="#ffd36c"/><path d="M297.438 187.002l-97.876 81.691v76.803l97.876-81.691z" fill="#fcc645"/><path d="M297.438 111.48h-1.117l-96.759 77.724v79.489l97.876-81.691z" fill="#ffd36c"/></svg>