<svg enable-background="new 0 0 504.5 504.5" height="512" viewBox="0 0 504.5 504.5" width="512" xmlns="http://www.w3.org/2000/svg"><path d="M448.264 198c18.217 0 32.986 14.768 32.986 32.986v225.181h-458v-225.181c0-18.218 14.768-32.986 32.986-32.986z" fill="#c2f6ff"/><path d="M53.25 230.832h398v225.335h-398z" fill="#909ec0"/><path d="M404.25 230.832h47v225.335h-47z" fill="#808dab"/><circle cx="252.25" cy="212.63" fill="#ffd36c" r="107.63"/><path d="M252.25 105c-7.122 0-14.08.699-20.815 2.019 49.48 9.697 86.815 53.291 86.815 105.611s-37.335 95.914-86.815 105.611c6.735 1.32 13.693 2.019 20.815 2.019 59.442 0 107.63-48.188 107.63-107.63s-48.188-107.63-107.63-107.63z" fill="#fcc645"/><path fill="#eaaf20"/><path d="M266.419 204.735c-9.854-3.78-31.492-1.182-27.469-17.946 3.29-13.709 23.851-11.173 28.708.067 3.797 8.786 16.759 1.24 12.952-7.571-3.479-8.05-11.229-13.56-19.765-15.783v-12.265c0-9.675-15-9.674-15 0v11.872c-17.379 3.899-27.067 23.082-19.436 39.247 3.36 7.118 10.107 11.124 17.545 12.888 6.341 1.504 13.769 1.263 19.536 4.565 6.84 3.916 9.231 10.861 6.513 18.159-2.8 7.518-10.585 10.818-18.218 10.3-10.721-.727-17.036-9.707-18.37-16.647-.863-9.317-15.569-9.299-14.97.265.619 9.891 5.86 19.344 13.894 25.099 4.023 2.882 8.668 4.766 13.506 5.691v11.345c0 9.674 15 9.675 15 0v-11.523c8.374-1.812 16.024-6.519 20.69-14.033 10.137-16.325 2.556-36.952-15.116-43.73z" fill="#eaaf20"/><g fill="#909ec0"><path d="M273.32 82.044c-1.919 0-3.839-.732-5.303-2.197-8.695-8.693-22.841-8.693-31.534 0-6.841 6.841-17.448-3.766-10.606-10.606 14.542-14.542 38.205-14.542 52.746 0 4.562 4.561 1.229 12.803-5.303 12.803zM289.972 60.524c-1.919 0-3.839-.732-5.304-2.197-17.876-17.876-46.961-17.875-64.836 0-6.841 6.841-17.448-3.766-10.606-10.606 23.724-23.723 62.326-23.724 86.05 0 4.56 4.561 1.227 12.803-5.304 12.803zM307.765 38.014c-1.92 0-3.839-.732-5.304-2.197-13.424-13.424-31.256-20.817-50.211-20.817s-36.787 7.393-50.211 20.817c-6.841 6.841-17.448-3.766-10.606-10.606 16.256-16.258 37.855-25.211 60.817-25.211s44.561 8.953 60.818 25.21c4.561 4.561 1.228 12.804-5.303 12.804z"/></g><path d="M471.111 504.5h-437.722c-16.369 0-29.639-13.27-29.639-29.639v-18.695h497v18.695c0 16.369-13.27 29.639-29.639 29.639z" fill="#8ee6f3"/><path d="M452.25 456.167v18.695c0 16.369-13.27 29.639-29.639 29.639h48.5c16.369 0 29.639-13.27 29.639-29.639v-18.695z" fill="#72d1fb"/><path d="M252.25 428.5c-4.142 0-7.5-3.358-7.5-7.5v-67c0-9.674 15-9.675 15 0v67c0 4.142-3.357 7.5-7.5 7.5zM286.25 393.5c-4.143 0-7.5-3.358-7.5-7.5v-37c0-9.674 15-9.674 15 0v37c0 4.142-3.357 7.5-7.5 7.5zM218.25 393.5c-4.142 0-7.5-3.358-7.5-7.5v-37c0-9.674 15-9.674 15 0v37c0 4.142-3.358 7.5-7.5 7.5z" fill="#ffd36c"/><path d="M219.75 456.167v7.939c0 9.331 7.564 16.895 16.895 16.895h31.211c9.331 0 16.895-7.564 16.895-16.895v-7.939z" fill="#c2f6ff"/></svg>