<svg enable-background="new 0 0 497 497" height="512" viewBox="0 0 497 497" width="512" xmlns="http://www.w3.org/2000/svg"><path d="M452 453.375h-407c-24.853 0-45-20.147-45-45v-319.75c0-24.853 20.147-45 45-45h407c24.853 0 45 20.147 45 45v319.75c0 24.853-20.147 45-45 45z" fill="#f7f3f1"/><path d="M452 43.625h-40.5c24.853 0 45 20.147 45 45v319.75c0 24.853-20.147 45-45 45h40.5c24.853 0 45-20.147 45-45v-319.75c0-24.853-20.147-45-45-45z" fill="#efe7e3"/><path d="M497 88.625c0-24.853-20.147-45-45-45h-407c-24.853 0-45 20.147-45 45v34.75h497z" fill="#8ee6f3"/><path d="M452 43.625h-40.5c24.853 0 45 20.147 45 45v34.75h40.5v-34.75c0-24.853-20.147-45-45-45z" fill="#72d1fb"/><circle cx="55" cy="85.875" fill="#f76c57" r="6.5"/><circle cx="103" cy="85.875" fill="#ffd36c" r="6.5"/><circle cx="151" cy="85.875" fill="#24d3b5" r="6.5"/><path d="M224.5 123.375h272.5v34.125h-272.5z" fill="#909ec0"/><path d="M456.5 123.375h40.5v34.125h-40.5z" fill="#808dab"/><path d="M0 180h195.245c15.21 0 29.797-6.042 40.553-16.798l39.702-39.827h-275.5z" fill="#fa9084"/><path d="M0 180h67.745c15.21 0 29.797-6.042 40.553-16.798l39.702-39.827h-148z" fill="#ffd36c"/><g fill="#ebe1dc"><path d="M214.5 249h-166c-9.675 0-9.675-15 0-15h166c9.675 0 9.675 15 0 15zM214.5 294h-166c-9.675 0-9.675-15 0-15h166c9.675 0 9.675 15 0 15zM445.5 339h-397c-9.675 0-9.675-15 0-15h397c9.674 0 9.674 15 0 15zM445.5 384h-397c-9.675 0-9.675-15 0-15h397c9.674 0 9.674 15 0 15z"/></g><path d="M252.5 235.5h194v57h-194z" fill="#ffd36c"/></svg>