<svg enable-background="new 0 0 497 497" height="512" viewBox="0 0 497 497" width="512" xmlns="http://www.w3.org/2000/svg"><path d="M237.337 119.02c-.209-65.524-53.507-118.811-119.046-119.019s-118.499 52.74-118.29 118.264c.172 53.883 36.247 99.482 85.505 114.103v220.899l34.603 43.733 33.386-43.52v-44.989l-19.391-13.978 18.686-13.859-.037-11.698-18.774-13.978 18.686-13.859-.109-108.539c49.166-14.306 84.952-59.677 84.781-113.56zm-118.738-22.191c-15.062-.048-27.311-12.294-27.359-27.353s12.124-27.228 27.186-27.18 27.311 12.294 27.359 27.353c.048 15.06-12.124 27.228-27.186 27.18z" fill="#ebe1dc"/><path d="M237.337 119.02c-.209-65.524-53.507-118.811-119.046-119.019-7.271-.024-14.385.611-21.291 1.841 55.779 9.904 98.314 58.658 98.5 117.178.146 45.999-25.913 85.794-64.129 105.357-12.72 6.511-20.603 19.723-20.542 34.013v195.09l-11.673 16.298 20.953 27.222 33.386-43.52v-44.989l-19.391-13.978 18.686-13.859-.037-11.698-18.774-13.978 18.686-13.859-.109-108.539c49.166-14.306 84.952-59.677 84.781-113.56z" fill="#d4c6bb"/><path d="M497 196.5v-114.648c0-17.72-14.395-32.084-32.151-32.084h-111.888c-17.757 0-32.151 14.365-32.151 32.084v20.38h-40.31l40.31 48.853v45.415c0 17.72 14.395 32.084 32.151 32.084h111.887c17.757 0 32.152-14.364 32.152-32.084z" fill="#72e4a0"/><path d="M464.849 49.768h-42c17.757 0 32.151 14.365 32.151 32.084v114.648c0 17.72-14.395 32.084-32.151 32.084h42c17.757 0 32.151-14.365 32.151-32.084v-114.648c0-17.72-14.395-32.084-32.151-32.084z" fill="#24d3b5"/><path d="M389.5 111.676h-21c-9.674 0-9.674-15 0-15h21c9.674 0 9.674 15 0 15zM447.5 146.676h-79c-9.674 0-9.674-15 0-15h79c9.674 0 9.674 15 0 15zM389.5 181.676h-21c-9.674 0-9.674-15 0-15h21c9.674 0 9.674 15 0 15zM447.5 111.676h-28c-9.674 0-9.674-15 0-15h28c9.674 0 9.674 15 0 15z" fill="#f7f3f1"/><path d="M439.2 496.136h-206.522c-20.6 0-37.3-16.735-37.3-37.378v-133.564c0-20.643 16.7-37.378 37.3-37.378h23.692v-67.181l56.794 67.181h126.036c20.6 0 37.3 16.735 37.3 37.378v133.563c0 20.644-16.7 37.379-37.3 37.379z" fill="#fa9084"/><path d="M439.2 287.817h-42c20.6 0 37.3 16.735 37.3 37.378v133.563c0 20.643-16.7 37.378-37.3 37.378h42c20.6 0 37.3-16.735 37.3-37.378v-133.564c0-20.643-16.7-37.377-37.3-37.377z" fill="#ff6cb5"/><g fill="#f7f3f1"><path d="M421.674 357.734h-112.18c-9.674 0-9.674-15 0-15h112.18c9.674 0 9.674 15 0 15zM303.893 398.424h-53.688c-9.675 0-9.675-15 0-15h53.688c9.674 0 9.674 15 0 15zM421.674 398.424h-79.417c-9.674 0-9.674-15 0-15h79.417c9.674 0 9.674 15 0 15zM421.674 439.114h-171.47c-9.675 0-9.675-15 0-15h171.47c9.674 0 9.674 15 0 15zM274.617 357.734h-24.413c-9.675 0-9.675-15 0-15h24.413c9.675 0 9.675 15 0 15z"/></g></svg>