<svg enable-background="new 0 0 496.988 496.988" height="512" viewBox="0 0 496.988 496.988" width="512" xmlns="http://www.w3.org/2000/svg"><path d="M481.988 361.279c-8.284 0-15-6.716-15-15v-147.418l-34.037 49.329c-2.8 4.058-7.416 6.481-12.346 6.481s-9.546-2.423-12.346-6.481l-34.037-49.329v147.417c0 19.306-30 19.341-30 0v-195.568c0-14.36 19.162-20.381 27.346-8.519l49.037 71.067 49.037-71.067c8.155-11.819 27.346-5.892 27.346 8.519v195.568c0 8.285-6.716 15.001-15 15.001z" fill="#fa9084"/><path d="M486.449 136.389c-6.27-1.952-13.079.398-16.808 5.802l-14.388 20.852v52.824l11.734-17.006v147.417c0 19.306 30 19.341 30 0v-195.568c.001-6.566-4.269-12.368-10.538-14.321z" fill="#ff6cb5"/><path d="M299.463 332.023h-88.7v-68.263h61.881c19.306 0 19.341-30 0-30h-61.881v-68.263h88.7c19.306 0 19.341-30 0-30h-103.7c-8.284 0-15 6.716-15 15v196.526c0 8.284 6.716 15 15 15h103.7c19.306 0 19.341-30 0-30z" fill="#72e4a0"/><path d="M120.058 238.342c-12.843-8.358-27.978-11.162-41.33-13.636-23.417-4.339-32.582-7.25-35.935-20.727-4.779-19.213 6.135-29.177 13.066-33.407 12.131-7.403 31.451-8.735 44.908 3.04 8.51 7.447 11.02 12.573 11.049 12.621 9.426 15.862 33.817 6.154 27.663-11.592-.721-1.803-5.025-11.417-18.957-23.606-21.829-19.101-54.844-21.597-80.289-6.071-23.046 14.063-33.221 39.452-26.552 66.258 3.739 15.031 12.406 26.19 25.759 33.166 10.527 5.5 22.37 7.694 33.822 9.816 11.625 2.154 22.604 4.188 30.433 9.283 16.854 10.968 21.449 26.261 13.658 45.456-5.085 12.527-20.078 24.525-42.119 23.112-17.74-1.144-30.635-8.046-38.326-20.515-6.163-9.991-6.953-20.157-6.96-20.259-2.95-17.46-29.331-16.88-29.948 1.769.092 1.68 1.174 16.876 10.505 32.795 14.187 24.203 40.791 36.328 68.343 36.328 33.979 0 57.63-20.585 66.301-41.946 13.181-32.472 3.801-63.083-25.091-81.885z" fill="#ffd36c"/><g fill="#909ec0"><path d="M406.024 115.995c-2.068 0-4.125-.85-5.607-2.516-38.565-43.364-93.941-68.235-151.929-68.235-57.004 0-111.747 24.167-150.19 66.305-6.519 7.149-17.602-2.963-11.081-10.109 20.253-22.2 44.357-39.695 71.642-51.999 28.247-12.738 58.402-19.196 89.63-19.196 62.267 0 121.729 26.705 163.138 73.267 4.418 4.969-.027 12.485-6.127 12.485l.524-.002zM248.488 466.744c-61.739 0-120.862-26.327-162.21-72.23-6.475-7.189 4.672-17.228 11.146-10.039 38.508 42.75 93.569 67.269 151.064 67.269 57.987 0 113.363-24.871 151.928-68.234 6.431-7.227 17.638 2.739 11.209 9.969-41.409 46.56-100.87 73.265-163.137 73.265z"/></g></svg>