<svg enable-background="new 0 0 497.193 497.193" height="512" viewBox="0 0 497.193 497.193" width="512" xmlns="http://www.w3.org/2000/svg"><path d="M452.193 323.693h-159.886c-24.853 0-45-20.147-45-45v-233.693c0-24.853 20.147-45 45-45h159.887c24.853 0 45 20.147 45 45v233.693c-.001 24.853-20.148 45-45.001 45z" fill="#fa9084"/><path d="M452.193 0h-41.807c24.853 0 45 20.147 45 45v233.693c0 24.853-20.147 45-45 45h41.807c24.853 0 45-20.147 45-45v-233.693c0-24.853-20.147-45-45-45z" fill="#ff6cb5"/><path d="M163.334 140.693h-118.334c-24.853 0-45-20.147-45-45v-50.693c0-24.853 20.147-45 45-45h118.334c24.853 0 45 20.147 45 45v50.693c0 24.853-20.147 45-45 45z" fill="#ffd36c"/><path d="M163.334 323.693h-118.334c-24.853 0-45-20.147-45-45v-49.408c0-24.853 20.147-45 45-45h118.334c24.853 0 45 20.147 45 45v49.408c0 24.853-20.147 45-45 45z" fill="#72e4a0"/><path d="M452 497.193h-407c-24.853 0-45-20.147-45-45v-39.355c0-24.853 20.147-45 45-45h407c24.853 0 45 20.147 45 45v39.355c0 24.853-20.147 45-45 45z" fill="#ffd36c"/><path d="M452 367.839h-40.5c24.853 0 45 20.147 45 45v39.355c0 24.853-20.147 45-45 45h40.5c24.853 0 45-20.147 45-45v-39.355c0-24.853-20.147-45-45-45z" fill="#fcc645"/><path d="M88.081 398.736c-2.594-5.609-10.991-5.669-13.613 0l-28.774 62.188c-4.062 8.78 9.552 15.08 13.613 6.299l6.513-14.076h30.909l6.513 14.076c4.051 8.756 17.679 2.49 13.613-6.299zm-15.321 39.411l8.514-18.401 8.514 18.401zM160.589 393.458h-21.348c-4.142 0-7.5 3.358-7.5 7.5v63.117c0 4.142 3.358 7.5 7.5 7.5h21.348c21.537 0 39.059-17.521 39.059-39.058-.001-21.538-17.522-39.059-39.059-39.059zm0 63.116h-13.848v-48.117h13.848c13.266 0 24.059 10.792 24.059 24.059-.001 13.266-10.793 24.058-24.059 24.058z" fill="#909ec0"/><g fill="#f7f3f1"><path d="M338.007 220.419c-2.596-5.609-10.99-5.669-13.613 0l-28.773 62.188c-4.062 8.78 9.55 15.079 13.613 6.299l6.513-14.077h30.908l6.513 14.077c4.051 8.756 17.679 2.49 13.613-6.299zm-15.32 39.411l8.514-18.4 8.514 18.4zM410.516 215.14h-21.349c-4.143 0-7.5 3.358-7.5 7.5v63.117c0 4.142 3.357 7.5 7.5 7.5h21.349c21.536 0 39.058-17.521 39.058-39.059-.001-21.536-17.522-39.058-39.058-39.058zm0 63.117h-13.849v-48.117h13.849c13.266 0 24.058 10.792 24.058 24.058-.001 13.266-10.793 24.059-24.058 24.059zM444.72 57.601l13.45-13.451c6.81-6.81-3.787-17.424-10.607-10.606l-13.45 13.45-13.45-13.45c-6.809-6.81-17.427 3.787-10.607 10.606l13.45 13.451-13.45 13.451c-6.713 6.713 3.738 17.473 10.607 10.606l13.45-13.45 13.45 13.45c6.764 6.764 17.399-3.815 10.607-10.606z"/></g><path d="M169.311 33.543c-2.929-2.929-7.678-2.929-10.606 0l-13.45 13.451-13.45-13.451c-6.808-6.811-17.426 3.788-10.606 10.606l13.451 13.451-13.451 13.451c-6.714 6.712 3.739 17.474 10.606 10.606l13.45-13.451 13.45 13.451c6.763 6.765 17.398-3.816 10.606-10.606l-13.451-13.45 13.451-13.451c2.929-2.929 2.929-7.678 0-10.607z" fill="#909ec0"/><path d="M169.311 217.83c-2.929-2.929-7.678-2.929-10.606 0l-13.45 13.45-13.45-13.45c-6.809-6.809-17.426 3.788-10.606 10.606l13.45 13.45-13.45 13.45c-6.714 6.712 3.739 17.474 10.606 10.606l13.45-13.45 13.45 13.45c6.764 6.764 17.398-3.816 10.606-10.606l-13.45-13.45 13.45-13.45c2.929-2.929 2.929-7.678 0-10.606z" fill="#f7f3f1"/><path d="M456.85 402.366c-2.929-2.929-7.678-2.93-10.606-.001l-13.928 13.926-13.928-13.926c-6.842-6.84-17.448 3.768-10.605 10.607l13.927 13.925-13.927 13.925c-6.842 6.84 3.766 17.449 10.605 10.607l13.928-13.926 13.928 13.926c6.842 6.84 17.448-3.768 10.605-10.607l-13.927-13.925 13.927-13.925c3.508-3.507 2.359-8.249-.767-11.375l1.537 1.537-1.537-1.537 1.537 1.537-1.537-1.537.768.769z" fill="#909ec0"/></svg>