<svg enable-background="new 0 0 497 497" height="512" viewBox="0 0 497 497" width="512" xmlns="http://www.w3.org/2000/svg"><path d="M419.846 335.559c-17.919-.78-34.612 4.286-48.343 13.446-15.037 10.032-34.413 10.889-50.581 2.805l-138.969-69.485c-12.696-6.348-20.474-19.402-20.433-33.596v-.46c-.04-14.195 7.737-27.248 20.433-33.596l138.969-69.485c16.168-8.084 35.544-7.228 50.581 2.805 13.731 9.16 30.424 14.226 48.343 13.446 42.208-1.837 76.151-36.522 77.132-78.758 1.075-46.274-36.781-83.977-83.111-82.648-41.058 1.177-74.991 33.53-78.146 74.484-1.432 18.591-10.555 35.008-27.665 43.563l-131.977 65.99c-15.147 7.573-33.133 7.13-47.884-1.13-15.686-8.782-30.092-15.449-48.584-15.192-43.155.601-78.573 35.659-79.587 78.806-1.07 45.491 35.488 82.705 80.737 82.705 17.839 0 31.895-6.449 47.059-14.938 14.659-8.207 32.492-9.275 47.659-1.692l132.579 66.29c15.945 7.972 26.593 23.82 27.538 41.622 2.193 41.283 36.927 75.237 78.267 76.425 46.331 1.331 84.19-36.372 83.115-82.647-.981-42.237-34.924-76.923-77.132-78.76z" fill="#8ee6f3"/><path d="M456.478 82.682c-.849 36.521-26.348 67.376-60.519 76.252 7.588 1.965 15.604 2.867 23.887 2.507 42.208-1.837 76.15-36.522 77.132-78.758 1.075-46.274-36.781-83.977-83.111-82.648-6.123.176-12.082 1.059-17.81 2.546 35.359 9.162 61.314 41.675 60.421 80.101zM419.846 335.559c-8.283-.36-16.299.542-23.887 2.507 34.171 8.876 59.671 39.732 60.519 76.253.892 38.426-25.063 70.938-60.42 80.1 5.726 1.487 11.684 2.37 17.805 2.546 46.331 1.331 84.19-36.372 83.115-82.647-.981-42.236-34.924-76.922-77.132-78.759z" fill="#72d1fb"/><g fill="#62a6fd"><circle cx="416.24" cy="80.76" r="45.76"/><circle cx="80.76" cy="248.5" r="45.76"/><circle cx="416.24" cy="416.241" r="45.76"/></g></svg>