<svg enable-background="new 0 0 504.284 504.284" height="512" viewBox="0 0 504.284 504.284" width="512" xmlns="http://www.w3.org/2000/svg"><path d="M133.747 460.332l15.836 12.737c25.109 20.196 56.434 31.215 88.738 31.215h224.82c21.312 0 37.458-17.64 37.458-39.062v-223.13s-16.747-37.26-37.458-37.26h-152.452l18.665-44.38c19.395-45.641 16.26-97.657-8.479-140.672-6.995-12.162-22.734-16.155-34.741-8.814-7.317 4.615-11.756 12.461-11.875 21.114 0 39.388-14.473 77.421-40.701 106.956l-97.21 109.292h-25.207v213.456h22.605" fill="#fcd8a5"/><path d="M500.599 465.223v-223.13c0-20.578-16.747-37.26-37.458-37.26h-152.452l18.665-44.38c19.395-45.641 16.26-97.657-8.479-140.672-6.995-12.162-22.734-16.155-34.741-8.814-2.287 1.399-8.644 5.902-7.259 8.814 24.738 43.015 27.874 95.031 8.479 140.672l-18.665 44.38h152.452c20.711 0 37.458 16.682 37.458 37.26v223.13c1.014 21.397-16.146 39.062-37.458 39.062h42c21.313-.001 38.472-17.665 37.458-39.062z" fill="#facc87"/><g fill="#eac58f"><path d="M500.599 286.41h-107.12c-9.63 0-9.644-15 0-15h107.12zM500.599 361.519h-107.12c-9.63 0-9.644-15 0-15h107.12zM500.599 436.628h-107.12c-9.63 0-9.644-15 0-15h107.12z"/></g><path d="M109.762 493.943h-85.026c-11.65 0-21.094-9.444-21.094-21.094v-242.208c0-11.65 9.444-21.094 21.094-21.094h85.026c11.65 0 21.094 9.444 21.094 21.094v242.208c0 11.65-9.444 21.094-21.094 21.094z" fill="#8ee6f3"/><path d="M67.249 292.784c-11.322 0-20.5-9.178-20.5-20.5s9.178-20.5 20.5-20.5 20.5 9.178 20.5 20.5-9.178 20.5-20.5 20.5z" fill="#f7f3f1"/><path d="M436.44 123.762l-5.734.127-.127-5.734c-.211-9.639-15.21-9.307-14.996.332l.127 5.734-5.734.127c-9.621.213-9.323 15.163.332 14.996l5.734-.127.127 5.734c.212 9.636 15.213 9.448 14.996-.332l-.127-5.734 5.734-.127c9.625-.213 9.32-15.205-.332-14.996zM403.509 28.194c9.605.274 9.912-14.868.201-14.998l-5.735-.077.077-5.735c.13-9.641-14.868-9.982-14.998-.201l-.077 5.735-5.735-.077c-9.604-.274-9.912 14.87-.201 14.998l5.735.077-.077 5.735c-.13 9.641 14.868 9.982 14.998.201l.077-5.735zM200.142 72.049h-5.735v-5.735c0-9.63-15-9.644-15 0v5.735h-5.735c-9.63 0-9.644 15 0 15h5.735v5.735c0 9.63 15 9.644 15 0v-5.735h5.735c9.63 0 9.644-15 0-15z" fill="#ffd36c"/></svg>