<svg enable-background="new 0 0 497 497" height="512" viewBox="0 0 497 497" width="512" xmlns="http://www.w3.org/2000/svg"><path d="M444.514 190.255c18.217 0 32.986 14.768 32.986 32.986v225.181h-458v-225.182c0-18.217 14.768-32.986 32.986-32.986h392.028z" fill="#c2f6ff"/><path d="M49.5 223.086h398v225.335h-398z" fill="#909ec0"/><path d="M400.5 223.086h47v225.335h-47z" fill="#808dab"/><path d="M467.361 496.755h-437.722c-16.369 0-29.639-13.27-29.639-29.639v-18.695h497v18.695c0 16.369-13.27 29.639-29.639 29.639z" fill="#8ee6f3"/><path d="M456.5 448.421v18.695c0 16.369-13.27 29.639-29.639 29.639h40.5c16.369 0 29.639-13.27 29.639-29.639v-18.695z" fill="#72d1fb"/><path d="M216 448.421v7.939c0 9.331 7.564 16.895 16.895 16.895h31.211c9.331 0 16.895-7.564 16.895-16.895v-7.939z" fill="#c2f6ff"/><path d="M277.077 73.209l-13.577 13.577v-72.031c0-19.346-30-19.346-30 0v72.031l-13.577-13.577c-13.677-13.681-34.892 7.533-21.213 21.213l39.181 39.182c5.76 5.762 15.457 5.763 21.218 0l39.181-39.182c12.706-12.707-7.401-35.025-21.213-21.213zM398 403.755h-299c-9.675 0-9.675-15 0-15h299c9.675 0 9.675 15 0 15z" fill="#72e4a0"/><path d="M347.932 164.295l-19.672 107.242h-149.384c-6.287 0-11.708-4.419-12.97-10.575l-16.564-80.781c-1.682-8.204 4.59-15.886 12.97-15.886z" fill="#ffd36c"/><path d="M316.5 164.295l-19.671 107.242h31.431l19.672-107.242z" fill="#fcc645"/><path d="M292.817 320.649h-114.317c-9.63 0-9.644-15 0-15h114.317c12.215 0 22.696-8.71 24.922-20.71l29.168-155.596c2.346-12.51 13.285-21.589 26.013-21.589h10.901c9.63 0 9.644 15 0 15h-10.901c-5.514 0-10.253 3.934-11.269 9.353l-29.166 155.581c-3.541 19.093-20.224 32.961-39.668 32.961z" fill="#f7f3f1"/><g fill="#ffd36c"><ellipse cx="199.116" cy="332.187" rx="19.05" ry="19.038"/><ellipse cx="293.184" cy="332.187" rx="19.05" ry="19.038"/></g></svg>