<svg enable-background="new 0 0 497 497" height="512" viewBox="0 0 497 497" width="512" xmlns="http://www.w3.org/2000/svg"><path d="M85.013 86.021c0-26.775 21.7-48.481 48.469-48.481h230.036c26.769 0 48.469 21.706 48.469 48.481v324.957c0 26.775-21.7 48.481-48.469 48.481h-230.036c-26.769 0-48.469-21.706-48.469-48.481z" fill="#f7f3f1"/><path d="M363.518 37.541h-41.513c26.769 0 48.469 21.706 48.469 48.481v324.957c0 26.775-21.7 48.481-48.469 48.481h41.513c26.769 0 48.469-21.706 48.469-48.481v-324.958c0-26.775-21.7-48.48-48.469-48.48z" fill="#efe7e3"/><path d="M250.68 329.77h-199.734v-28.052l-50.946 55.533 50.946 55.533v-28.052h199.734z" fill="#72e4a0"/><path d="M246.32 238.78h199.734v28.052l50.946-55.533-50.946-55.533v28.052h-199.734z" fill="#fa9084"/><ellipse cx="248.5" cy="284.241" fill="#f7f3f1" rx="99.125" ry="100.33"/><path d="M347.625 284.241c0-55.411-44.38-100.33-99.125-100.33s-99.125 44.919-99.125 100.33c0 30.264 13.24 57.397 34.175 75.793l.148-3.173c3.743-32.812 31.285-58.287 64.706-58.287 34.067 0 62.027 26.47 64.897 60.199v1.391c21.022-18.397 34.324-45.587 34.324-75.923z" fill="#ffd36c"/><path d="M248.405 298.574c-33.421 0-60.963 25.475-64.706 58.287l-.148 3.173c12.567 11.042 27.907 18.935 44.823 22.466 13.223 2.761 27.032 2.761 40.255 0 16.849-3.517 32.135-11.362 44.674-22.336v-1.391c-2.872-33.729-30.831-60.199-64.898-60.199z" fill="#909ec0"/><ellipse cx="248.405" cy="262.264" fill="#909ec0" rx="35.874" ry="36.31"/><path d="M411.987 86.021c0-26.775-21.7-48.481-48.469-48.481h-230.036c-26.769 0-48.469 21.706-48.469 48.481v37.438h326.974z" fill="#8ee6f3"/><path d="M363.518 37.541h-41.513c26.769 0 48.469 21.706 48.469 48.481v37.438h41.513v-37.439c0-26.775-21.7-48.48-48.469-48.48z" fill="#72d1fb"/><circle cx="144.253" cy="83.059" fill="#f76c57" r="7.002"/><circle cx="195.953" cy="83.059" fill="#ffd36c" r="7.002"/><circle cx="247.653" cy="83.059" fill="#24d3b5" r="7.002"/></svg>