<svg enable-background="new 0 0 497.004 497.004" height="512" viewBox="0 0 497.004 497.004" width="512" xmlns="http://www.w3.org/2000/svg"><path d="M444.456 187.205c18.217-.004 32.989 14.761 32.993 32.978v225.014h-458v-224.911c-.004-18.218 14.761-32.989 32.978-32.993z" fill="#c2f6ff"/><path d="M49.449 220.036h398v225.161h-398z" fill="#909ec0"/><path d="M49.449 220.036h351.883l.05 225.161h46.067v-225.161z" fill="#808dab"/><path d="M467.372 493.7l-437.723.098c-16.369.004-29.642-13.263-29.645-29.632l-.004-18.969h497l.004 18.857c.004 16.369-13.263 29.642-29.632 29.646z" fill="#8ee6f3"/><path d="M0 445.197h455.336l.004 19.042c.003 15.284-11.563 27.864-26.421 29.469l38.453-.009c16.369-.004 29.636-13.276 29.632-29.645l-.004-18.857z" fill="#72d1fb"/><path d="M216 445.197l.002 8.164c.002 9.331 7.568 16.893 16.898 16.891l31.211-.007c9.331-.002 16.893-7.568 16.891-16.898l-.002-8.15z" fill="#c2f6ff"/><path d="M156.477 108.269c-25.434.006-46.048 20.629-46.042 46.063l.024 106.895c.006 25.434 20.629 46.048 46.063 46.042l.014 64 63.986-64.014 116.895-.026c25.434-.006 46.048-20.629 46.042-46.063l-.199-152.896h-226.783z" fill="#ffd36c"/><path d="M331.621 219.234l-41.962 14.989 1.031-44.547 127.1-176.002c8.162-11.303 23.942-13.849 35.244-5.686 11.303 8.162 13.849 23.942 5.686 35.244z" fill="#fa9084"/><path d="M453.035 7.987c-11.303-8.162-27.082-5.617-35.244 5.686l-18.571 25.716 40.423 30.261 19.078-26.419c8.162-11.303 5.616-27.082-5.686-35.244z" fill="#ff6cb5"/><path d="M289.658 234.222l41.963-14.988-40.931-29.559zM414.165 159.507c-6.005.027-9.546-7.131-6.108-11.892l32.068-44.406c6.27-8.682 4.307-20.848-4.376-27.119l-40.686-29.381c-3.358-2.425-4.115-7.113-1.689-10.471 2.425-3.358 7.115-4.114 10.471-1.689l40.686 29.381c15.387 11.113 18.866 32.673 7.754 48.062l-32.068 44.406c-1.458 2.019-3.738 3.099-6.052 3.109z" fill="#f76c57"/><g fill="#f7f3f1"><path d="M251.487 241.73h-.032l-83.001.019c-9.537.002-9.581-14.958-.004-15l83.001-.019c9.655-.002 9.689 14.957.036 15zM251.475 188.757h-.032l-83 .019c-9.537.002-9.581-14.958-.004-15l83-.019c9.656-.002 9.689 14.957.036 15z"/></g></svg>