<svg enable-background="new 0 0 497 497" height="512" viewBox="0 0 497 497" width="512" xmlns="http://www.w3.org/2000/svg"><path d="M35.291 19.209c0-24.778 38.419-24.859 38.419 0v458.581c0 24.778-38.419 24.859-38.419 0z" fill="#ebe1dc"/><path d="M85.38 211.5h-61.76c-13.045 0-23.62-10.575-23.62-23.62v-80.76c0-13.045 10.575-23.62 23.62-23.62h61.76c13.045 0 23.62 10.575 23.62 23.62v80.76c0 13.045-10.575 23.62-23.62 23.62z" fill="#ffd36c"/><path d="M77 135.5h-45c-9.675 0-9.675-15 0-15h45c9.675 0 9.675 15 0 15zM77 174.5h-45c-9.675 0-9.675-15 0-15h45c9.675 0 9.675 15 0 15z" fill="#eaaf20"/><path d="M164.624 19.209c0-24.778 38.419-24.859 38.419 0v458.581c0 24.778-38.419 24.859-38.419 0z" fill="#ebe1dc"/><path d="M214.713 466.5h-61.76c-13.045 0-23.62-10.575-23.62-23.62v-80.76c0-13.045 10.575-23.62 23.62-23.62h61.76c13.045 0 23.62 10.575 23.62 23.62v80.76c0 13.045-10.575 23.62-23.62 23.62z" fill="#fa9084"/><path d="M206.333 390.5h-45c-9.675 0-9.675-15 0-15h45c9.675 0 9.675 15 0 15zM206.333 429.5h-45c-9.675 0-9.675-15 0-15h45c9.675 0 9.675 15 0 15z" fill="#f76c57"/><path d="M293.957 19.209c0-24.778 38.419-24.859 38.419 0v458.581c0 24.778-38.419 24.859-38.419 0z" fill="#ebe1dc"/><path d="M344.047 331.5h-61.76c-13.045 0-23.62-10.575-23.62-23.62v-80.76c0-13.045 10.575-23.62 23.62-23.62h61.76c13.045 0 23.62 10.575 23.62 23.62v80.76c0 13.045-10.575 23.62-23.62 23.62z" fill="#ffd36c"/><path d="M335.667 255.5h-45c-9.675 0-9.675-15 0-15h45c9.675 0 9.675 15 0 15zM335.667 294.5h-45c-9.675 0-9.675-15 0-15h45c9.675 0 9.675 15 0 15z" fill="#eaaf20"/><path d="M423.291 19.209c0-24.778 38.419-24.859 38.419 0v458.581c0 24.778-38.419 24.859-38.419 0v-320.29z" fill="#ebe1dc"/><path d="M473.38 157.5h-61.76c-13.045 0-23.62-10.575-23.62-23.62v-80.76c0-13.045 10.575-23.62 23.62-23.62h61.76c13.045 0 23.62 10.575 23.62 23.62v80.76c0 13.045-10.575 23.62-23.62 23.62z" fill="#fa9084"/><g fill="#f76c57"><path d="M465 81.5h-45c-9.675 0-9.675-15 0-15h45c9.675 0 9.675 15 0 15zM465 120.5h-45c-9.675 0-9.675-15 0-15h45c9.675 0 9.675 15 0 15z"/></g></svg>