<svg enable-background="new 0 0 497 497" height="512" viewBox="0 0 497 497" width="512" xmlns="http://www.w3.org/2000/svg"><path d="M379.905 497h-379.905v-59.21c0-48.903 39.643-88.546 88.546-88.546h291.285v147.756" fill="#8ee6f3"/><path d="M208.013 292.666v56.224c0 20.438-16.15 37.007-36.588 37.007-20.438 0-37.424-16.568-37.424-37.007v-56.224z" fill="#fcd8a5"/><path d="M208.013 292.666h-41.513v56.224c0 12.653-6.354 23.817-16.041 30.491 5.96 4.106 13.18 6.516 20.966 6.516 20.438 0 36.588-16.568 36.588-37.006z" fill="#facc87"/><path d="M54.913 89.666v117.912c0 58.667 47.594 106.226 106.261 106.226h18.686c58.667 0 106.226-47.559 106.226-106.226v-117.912z" fill="#fcd8a5"/><path d="M244.5 89.666v117.912c0 54.798-41.495 99.899-94.776 105.61 3.762.403 7.581.616 11.45.616h18.686c58.667 0 106.226-47.559 106.226-106.226v-117.912z" fill="#facc87"/><path d="M142.126 15.571h-22.994c-35.467 0-64.219 28.753-64.219 64.221l.002.152-.002-.001v120.686l20.949-10.038c6.388-3.061 10.453-9.516 10.453-16.599v-36.121c0-21.405 17.296-39.234 38.701-39.34h90.275c21.555-.107 39.086 17.338 39.086 38.893v36.568c0 7.084 4.065 13.539 10.453 16.599l21.257 10.038v-110.963c-.002-50.76-41.459-89.666-92.218-89.666l.002.003-.218-.003c-30.433 0-57.411 14.791-74.138 37.577" fill="#909ec0"/><path d="M132.149 283.009h-74.706c-23.107 0-41.906-18.8-41.906-41.907v-24.436c0-9.674 15-9.674 15 0v24.436c0 14.837 12.07 26.907 26.906 26.907h74.707c9.674 0 9.674 15-.001 15z" fill="#ebe1dc"/><path d="M54.913 227.131h-33.23c-10.008 0-18.121-8.113-18.121-18.121v-49.736c0-10.008 8.113-18.121 18.121-18.121h33.23z" fill="#72e4a0"/><path d="M163.212 288.39h-18.062c-17.207 0-17.198-27.943 0-27.943h18.063c17.206 0 17.197 27.943-.001 27.943z" fill="#808dab"/><path d="M50.299 428.546h70.951v29.98h-70.951z" fill="#ffd36c"/><path d="M85.775 436.046c-4.142 0-7.5-3.357-7.5-7.5v-16.989c0-9.674 15-9.674 15 0v16.989c0 4.143-3.358 7.5-7.5 7.5z" fill="#808dab"/><ellipse cx="379.831" cy="379.828" fill="#ffd36c" rx="117.169" ry="117.172"/><g fill="#f7f3f1"><path d="M379.831 421.431c-4.142 0-7.5-3.357-7.5-7.5v-21.398c0-4.143 3.358-7.5 7.5-7.5 14.313 0 25.958-11.646 25.958-25.959s-11.645-25.959-25.958-25.959-25.958 11.646-25.958 25.959c0 9.674-15 9.674-15 0 0-22.585 18.374-40.959 40.958-40.959s40.958 18.374 40.958 40.959c0 20.023-14.443 36.737-33.458 40.271v14.587c0 4.141-3.358 7.499-7.5 7.499zM379.831 452.381c9.652 0 9.668-15 0-15-9.652 0-9.668 15 0 15z"/></g></svg>