<svg enable-background="new 0 0 497 497" height="512" viewBox="0 0 497 497" width="512" xmlns="http://www.w3.org/2000/svg"><path d="M186.633 349.569c9.906 14.598 15.693 32.21 15.693 51.172 0 50.442-40.95 91.333-91.464 91.333s-91.464-40.891-91.464-91.333 40.95-91.333 91.464-91.333c8.885 0 17.474 1.265 25.597 3.625" fill="#f7f3f1"/><path d="M154.25 407.566h-22.57l2.26-13.65h20.31c9.675 0 9.675-15 0-15h-17.826l3.357-20.276c1.58-9.545-13.219-11.993-14.799-2.449l-3.762 22.726h-13.488l3.357-20.276c1.58-9.545-13.219-11.992-14.799-2.449l-3.762 22.726h-25.053c-9.675 0-9.675 15 0 15h22.57l-2.26 13.65h-20.31c-9.675 0-9.675 15 0 15h17.827l-3.357 20.276c-1.572 9.498 13.194 12.142 14.799 2.449l3.762-22.726h13.488l-3.357 20.276c-1.572 9.498 13.194 12.142 14.799 2.449l3.762-22.726h25.053c9.674 0 9.674-15-.001-15zm-37.773 0h-13.488l2.26-13.65h13.488z" fill="#8ee6f3"/><ellipse cx="73.391" cy="113.792" fill="#ff6cb5" rx="73.064" ry="72.96"/><path d="M73.546 148.561c23.411-12.527 35.522-23.15 35.449-39.525-.101-22.586-27.834-28.11-35.675-11.135-9.125-17.464-35.675-11.135-35.574 11.451.073 16.375 12.278 26.891 35.8 39.209z" fill="#f7f3f1"/><ellipse cx="391.855" cy="442.348" fill="#72e4a0" rx="54.73" ry="54.652"/><path d="M415.062 434.848h-15.707v-15.674c0-9.674-15-9.674-15 0v15.674h-15.707c-9.674 0-9.674 15 0 15h15.707v15.675c0 9.674 15 9.674 15 0v-15.675h15.707c9.674 0 9.674-15 0-15z" fill="#f7f3f1"/><path d="M363.79 318.269c0 17.294-14.01 31.313-31.293 31.313h-19.877l-47.647 38.898v-38.898h-92.525c-17.283 0-31.293-14.019-31.293-31.313v-111.893c0-17.294 14.01-31.313 31.293-31.313h191.342z" fill="#ffd36c"/><path d="M321.808 175.063v143.206c0 17.294-14.01 31.313-31.293 31.313h-25.542v38.898l47.647-38.898h19.877c17.283 0 31.293-14.019 31.293-31.313v-143.206z" fill="#fcc645"/><g fill="#f7f3f1"><path d="M298.406 248.825h19.388c9.674 0 9.674-15 0-15h-19.388c-9.674 0-9.674 15 0 15zM187.151 248.825h68.112c9.674 0 9.674-15 0-15h-68.112c-9.674 0-9.674 15 0 15zM206.539 280.584h-19.388c-9.674 0-9.674 15 0 15h19.388c9.675 0 9.675-15 0-15zM317.794 280.584h-68.112c-9.674 0-9.674 15 0 15h68.112c9.674 0 9.674-15 0-15z"/><ellipse cx="390.166" cy="106.355" rx="106.508" ry="106.355"/></g><path d="M362.165 146.996l3.745 3.028c5.938 4.8 13.347 7.419 20.987 7.419h53.17c5.04 0 9.099-4.199 8.859-9.284-.225-4.763.01-48.144.01-53.035s-3.971-8.856-8.869-8.856l-36.055-.108 4.414-10.44c4.587-10.848 3.845-23.212-2.005-33.436-3.604-5.036-10.398-3.04-11.025 2.924 0 9.362-3.423 18.402-9.626 25.422l-22.99 25.977-11.607-.107v50z" fill="#ffd36c"/><path d="M331.395 87.387h30.086v67.597h-30.086z" fill="#8ee6f3"/></svg>