<svg enable-background="new 0 0 497.313 497.313" height="512" viewBox="0 0 497.313 497.313" width="512" xmlns="http://www.w3.org/2000/svg"><path d="M472.732 33.958c0-18.755-15.209-33.958-33.971-33.958h-404.785c-18.764 0-33.976 15.205-33.976 33.962v276.288c0 18.757 15.212 33.962 33.976 33.962h438.756z" fill="#909ec0"/><path d="M172 0l-172 172v100.407l272.407-272.407zM472.732 84.125l-260.087 260.088h260.087z" fill="#808dab"/><path d="M193.942 334.581h84.849v91.805h-84.849z" fill="#c2f6ff"/><path d="M328.095 414.656h-182.537c-23.713-.535-23.83 35.494 0 35.046h181.617c23.175.432 24.179-35.046.92-35.046z" fill="#8ee6f3"/><path d="M328.095 414.656h-41.614c9.678 0 17.523 7.845 17.523 17.523s-7.845 17.523-17.523 17.523h40.693c23.176.432 24.18-35.046.921-35.046z" fill="#72d1fb"/><path d="M0 273.298v36.952c0 18.757 15.212 33.962 33.976 33.962h438.756v-70.914z" fill="#8ee6f3"/><path d="M467.049 497.312h-86.144c-16.714 0-30.263-13.549-30.263-30.263v-196.137c0-16.714 13.549-30.263 30.263-30.263h86.144c16.714 0 30.263 13.549 30.263 30.263v196.137c0 16.714-13.549 30.263-30.263 30.263z" fill="#c2f6ff"/><path d="M467.049 240.649h-41.812c16.714 0 30.263 13.549 30.263 30.263v196.137c0 16.714-13.549 30.263-30.263 30.263h41.812c16.714 0 30.263-13.549 30.263-30.263v-196.137c.001-16.714-13.549-30.263-30.263-30.263z" fill="#aef2ff"/><path d="M350.642 273.539h146.67v183.753h-146.67z" fill="#909ec0"/><path stroke="#000" stroke-width="15" stroke-linecap="round" stroke-linejoin="round" stroke-miterlimit="10" fill="none"/><path d="M433.179 484.002h-18.402c-9.675 0-9.675-15 0-15h18.402c9.674 0 9.674 15 0 15z" fill="#8ee6f3"/><g fill="#808dab"><path d="M350.642 273.539v117.819l117.819-117.819zM497.313 362.688l-94.605 94.604h94.605z"/></g></svg>