<svg enable-background="new 0 0 504.5 504.5" height="512" viewBox="0 0 504.5 504.5" width="512" xmlns="http://www.w3.org/2000/svg"><path d="M346.25 198h102.014c18.217 0 32.986 14.768 32.986 32.986v225.014h-458v-225.014c0-18.218 14.768-32.986 32.986-32.986h105.014z" fill="#c2f6ff"/><path d="M53.25 230.832h398v225.168h-398z" fill="#909ec0"/><path d="M411.25 230.832h40v225.168h-40z" fill="#808dab"/><path d="M471.111 504.5h-437.722c-16.369 0-29.639-13.27-29.639-29.639v-18.861h497v18.861c0 16.369-13.27 29.639-29.639 29.639z" fill="#8ee6f3"/><path d="M460.25 456v18.861c0 16.369-13.27 29.639-29.639 29.639h40.5c16.369 0 29.639-13.27 29.639-29.639v-18.861z" fill="#72d1fb"/><path d="M219.75 456v8.105c0 9.331 7.564 16.895 16.895 16.895h31.211c9.331 0 16.895-7.564 16.895-16.895v-8.105z" fill="#c2f6ff"/><g fill="#eaaf20"><path d="M330.244 192.502c-1.167 0-2.35-.273-3.456-.849-3.675-1.912-5.104-6.441-3.191-10.115l12.331-23.695.097-.179 1.723-3.103c14.356-25.856 41.647-41.919 71.223-41.919 9.675 0 9.675 15 0 15-24.13 0-46.396 13.104-58.109 34.2l-1.673 3.014-12.284 23.605c-1.339 2.569-3.954 4.04-6.661 4.041zM174.257 191.501c-2.661 0-5.237-1.418-6.597-3.92l-14.021-25.738c-11.714-21.096-33.979-34.2-58.109-34.2-4.143 0-7.5-3.357-7.5-7.5s3.357-7.5 7.5-7.5c29.575 0 56.866 16.063 71.223 41.919l1.723 3.103 12.364 22.755c2.62 4.822-1.035 11.081-6.583 11.081zM95.53 310.812c-4.143 0-7.5-3.357-7.5-7.5s3.357-7.5 7.5-7.5c24.13 0 46.396-13.104 58.109-34.2l1.723-3.103.106-.187 14.331-24.149c2.114-3.563 6.717-4.734 10.277-2.623 3.563 2.114 4.736 6.716 2.623 10.277l-14.276 24.057-1.671 3.009c-14.356 25.856-41.647 41.919-71.222 41.919zM408.97 310.812c-29.575 0-56.866-16.063-71.223-41.919l-1.723-3.103-.127-.238-14.331-28.149c-1.879-3.691-.41-8.207 3.281-10.086s8.207-.411 10.086 3.281l14.27 28.028 1.657 2.985c11.714 21.096 33.979 34.2 58.109 34.2 4.143 0 7.5 3.357 7.5 7.5s-3.357 7.501-7.499 7.501zM267.748 62.589c-4.131 0-7.486-3.343-7.499-7.478-.045-14.675 5.628-28.488 15.973-38.897 10.346-10.408 24.124-16.165 38.8-16.21l1.397-.004h.021c4.133 0 7.488 3.344 7.5 7.479.012 4.143-3.337 7.51-7.479 7.521l-1.396.004c-10.666.032-20.683 4.218-28.203 11.784-7.521 7.567-11.645 17.609-11.612 28.278.013 4.142-3.335 7.51-7.478 7.522l-.024.001zM238.929 62.589h-.023c-4.143-.013-7.49-3.381-7.478-7.522.032-10.669-4.091-20.711-11.612-28.278-7.521-7.566-17.537-11.752-28.205-11.784l-1.394-.005c-4.143-.012-7.491-3.379-7.479-7.521.012-4.135 3.367-7.479 7.5-7.479h.021l1.396.004c14.678.045 28.456 5.802 38.802 16.21 10.345 10.409 16.018 24.223 15.973 38.897-.015 4.135-3.37 7.478-7.501 7.478z"/></g><path d="M253.338 334c-49.704 0-89.997-40.293-89.997-89.997v-109.87c0-17.652 14.31-31.729 31.962-31.729h116.07c17.652 0 31.962 14.077 31.962 31.729v109.87c0 49.704-40.293 89.997-89.997 89.997z" fill="#72e4a0"/><path d="M304.267 102.404h-102.555v-12.768c0-18.507 15.003-33.509 33.509-33.509h35.536c18.507 0 33.509 15.003 33.509 33.509v12.768z" fill="#ffd36c"/><path d="M311.373 102.404h-116.07c-17.652 0-31.962 14.077-31.962 31.729v11.358c0 18.88 15.305 34.185 34.185 34.185h111.624c18.88 0 34.185-15.305 34.185-34.185v-11.358c0-17.652-14.31-31.729-31.962-31.729zM253.338 341.5c-4.143 0-7.5-3.357-7.5-7.5v-161c0-4.143 3.357-7.5 7.5-7.5s7.5 3.357 7.5 7.5v161c0 4.143-3.358 7.5-7.5 7.5z" fill="#24d3b5"/></svg>