<svg enable-background="new 0 0 497 497" height="512" viewBox="0 0 497 497" width="512" xmlns="http://www.w3.org/2000/svg"><path d="M466.957 165.316c16.592 0 30.043 13.451 30.043 30.044v180.999c0 32.047-25.949 58.026-57.959 58.026h-123.541v-269.07h151.457z" fill="#facc87"/><path d="M57.959 434.386c-32.01 0-57.959-25.98-57.959-58.027v-313.745h381.689v313.745c0 32.047 25.327 58.026 57.337 58.026h-381.067z" fill="#f7f3f1"/><path d="M381.689 376.359v-313.745h-42.148v313.745c0 32.047 25.949 58.027 57.959 58.027h41.526c-32.01 0-57.337-25.98-57.337-58.027z" fill="#efe7e3"/><path d="M381.689 352.766h56.079v-157.406c0-16.593 13.451-30.044 30.043-30.044h-86.122z" fill="#eac58f"/><g fill="#ebe1dc"><path d="M324.373 275.898h-141.481c-9.675 0-9.675-15 0-15h141.481c9.675 0 9.675 15 0 15zM324.373 348.016h-141.481c-9.675 0-9.675-15 0-15h141.481c9.675 0 9.675 15 0 15zM324.373 384.074h-141.481c-9.675 0-9.675-15 0-15h141.481c9.675 0 9.675 15 0 15zM324.373 311.957h-141.481c-9.675 0-9.675-15 0-15h141.481c9.675 0 9.675 15 0 15z"/></g><path d="M53.724 267.414h91.918v109.275h-91.918z" fill="#ffd36c"/><path d="M53.724 120.199h275.891v96.948h-275.891z" fill="#909ec0"/></svg>