<svg enable-background="new 0 0 497 497" height="512" viewBox="0 0 497 497" width="512" xmlns="http://www.w3.org/2000/svg"><path d="M328.654 194.039h-160.308c-20.724 0-37.524-16.8-37.524-37.524v-118.991c0-20.724 16.8-37.524 37.524-37.524h160.308c20.724 0 37.524 16.8 37.524 37.524v118.99c0 20.725-16.8 37.525-37.524 37.525z" fill="#f7f3f1"/><path d="M328.654 0h-41.678c20.724 0 37.524 16.8 37.524 37.524v118.99c0 20.724-16.8 37.524-37.524 37.524h41.678c20.724 0 37.524-16.8 37.524-37.524v-118.99c0-20.724-16.8-37.524-37.524-37.524z" fill="#efe7e3"/><path d="M366.178 37.524c0-20.724-16.8-37.524-37.524-37.524h-160.308c-20.724 0-37.524 16.8-37.524 37.524v15.607h235.357v-15.607z" fill="#8ee6f3"/><path d="M328.654 0h-41.678c20.724 0 37.524 16.8 37.524 37.524v15.607h41.678v-15.607c0-20.724-16.8-37.524-37.524-37.524z" fill="#72d1fb"/><path d="M166.317 34.631c9.652 0 9.668-15 0-15-9.652 0-9.668 15 0 15z" fill="#fa9084"/><path d="M191.317 34.631c9.652 0 9.668-15 0-15-9.652 0-9.668 15 0 15z" fill="#ffd36c"/><path d="M216.317 34.631c9.652 0 9.668-15 0-15-9.652 0-9.668 15 0 15z" fill="#72e4a0"/><path d="M112.469 497h-90.912c-11.906 0-21.557-9.651-21.557-21.557v-67.383c0-11.906 9.651-21.557 21.557-21.557h90.911c11.906 0 21.557 9.651 21.557 21.557v67.383c.001 11.906-9.651 21.557-21.556 21.557z" fill="#f7f3f1"/><path d="M112.469 386.503h-41.526c11.906 0 21.557 9.651 21.557 21.557v67.383c0 11.906-9.651 21.557-21.557 21.557h41.526c11.906 0 21.557-9.651 21.557-21.557v-67.383c0-11.906-9.652-21.557-21.557-21.557z" fill="#efe7e3"/><path d="M134.026 408.06c0-11.906-9.651-21.557-21.557-21.557h-90.912c-11.906 0-21.557 9.651-21.557 21.557v8.699h134.026z" fill="#8ee6f3"/><path d="M112.469 386.503h-41.526c11.906 0 21.557 9.651 21.557 21.557v8.699h41.526v-8.699c0-11.906-9.652-21.557-21.557-21.557z" fill="#72d1fb"/><path d="M293.956 497h-90.911c-11.906 0-21.557-9.651-21.557-21.557v-67.383c0-11.906 9.651-21.557 21.557-21.557h90.911c11.906 0 21.557 9.651 21.557 21.557v67.383c0 11.906-9.652 21.557-21.557 21.557z" fill="#f7f3f1"/><path d="M293.956 386.503h-41.987c11.906 0 21.557 9.651 21.557 21.557v67.383c0 11.906-9.651 21.557-21.557 21.557h41.987c11.906 0 21.557-9.651 21.557-21.557v-67.383c0-11.906-9.652-21.557-21.557-21.557z" fill="#efe7e3"/><path d="M315.513 408.06c0-11.906-9.651-21.557-21.557-21.557h-90.911c-11.906 0-21.557 9.651-21.557 21.557v8.699h134.026v-8.699z" fill="#8ee6f3"/><path d="M293.956 386.503h-41.987c11.906 0 21.557 9.651 21.557 21.557v8.699h41.987v-8.699c0-11.906-9.652-21.557-21.557-21.557z" fill="#72d1fb"/><path d="M475.443 497h-90.911c-11.906 0-21.557-9.651-21.557-21.557v-67.383c0-11.906 9.651-21.557 21.557-21.557h90.911c11.906 0 21.557 9.651 21.557 21.557v67.383c0 11.906-9.651 21.557-21.557 21.557z" fill="#f7f3f1"/><path d="M475.443 386.503h-41.5c11.906 0 21.557 9.651 21.557 21.557v67.383c0 11.906-9.651 21.557-21.557 21.557h41.5c11.906 0 21.557-9.651 21.557-21.557v-67.383c0-11.906-9.651-21.557-21.557-21.557z" fill="#efe7e3"/><path d="M497 408.06c0-11.906-9.651-21.557-21.557-21.557h-90.911c-11.906 0-21.557 9.651-21.557 21.557v8.699h134.025z" fill="#8ee6f3"/><path d="M475.443 386.503h-41.5c11.906 0 21.557 9.651 21.557 21.557v8.699h41.5v-8.699c0-11.906-9.651-21.557-21.557-21.557z" fill="#72d1fb"/><path d="M403.493 275.251h-147.493v-43.5c0-9.675-15-9.675-15 0v43.5h-147.493c-16.715 0-30.313 13.599-30.313 30.313v33.688c0 9.674 15 9.674 15 0v-33.688c0-8.444 6.87-15.313 15.313-15.313h147.493v49.001c0 9.674 15 9.674 15 0v-49.001h147.493c8.443 0 15.313 6.869 15.313 15.313v33.688c0 9.674 15 9.674 15 0v-33.688c0-16.714-13.598-30.313-30.313-30.313z" fill="#ebe1dc"/></svg>