<svg enable-background="new 0 0 497.677 497.677" height="512" viewBox="0 0 497.677 497.677" width="512" xmlns="http://www.w3.org/2000/svg"><path d="M210.644 385.177h77.388v80.514h-77.388z" fill="#c2f6ff"/><path d="M332.275 497.677h-166.872c-19.996 0-19.996-31.986 0-31.986h166.872c19.996.001 19.996 31.986 0 31.986z" fill="#8ee6f3"/><path d="M332.275 465.692h-41.652c19.996 0 19.996 31.986 0 31.986h41.652c19.996-.001 19.996-31.986 0-31.986z" fill="#72d1fb"/><path d="M31.327 76.907c-17.114 0-30.989 13.878-30.989 30.996v262.499c0 17.119 13.874 30.996 30.989 30.996h435.023c17.115 0 30.989-13.878 30.989-30.996v-262.502c0-17.117-13.872-30.992-30.984-30.992h-435.028z" fill="#909ec0"/><path d="M466.354 76.907h-40.5c17.112 0 30.984 13.876 30.984 30.992v262.504c0 17.119-13.874 30.996-30.989 30.996h40.5c17.115 0 30.989-13.878 30.989-30.996v-262.504c.001-17.116-13.871-30.992-30.984-30.992z" fill="#808dab"/><path d="M.339 326.339v44.064c0 17.119 13.874 30.996 30.989 30.996h435.022c17.115 0 30.989-13.878 30.989-30.996v-44.064z" fill="#8ee6f3"/><path d="M456.839 326.339v44.064c0 17.119-13.874 30.996-30.989 30.996h40.5c17.115 0 30.989-13.878 30.989-30.996v-44.064z" fill="#72d1fb"/><path stroke="#000" stroke-width="15" stroke-linecap="round" stroke-linejoin="round" stroke-miterlimit="10" fill="none"/><path d="M376.396 268.355h-255.115c-21.291 0-38.55-17.26-38.55-38.55v-191.255c0-21.29 17.26-38.55 38.55-38.55h255.115c21.291 0 38.55 17.26 38.55 38.55v191.254c0 21.291-17.259 38.551-38.55 38.551z" fill="#f7f3f1"/><path d="M376.396 0h-41.892c21.291 0 38.55 17.26 38.55 38.55v191.254c0 21.291-17.26 38.55-38.55 38.55h41.892c21.291 0 38.55-17.26 38.55-38.55v-191.254c0-21.29-17.259-38.55-38.55-38.55z" fill="#efe7e3"/><path d="M414.946 38.55c0-21.291-17.26-38.55-38.55-38.55h-255.115c-21.291 0-38.55 17.26-38.55 38.55v19.137h332.215z" fill="#8ee6f3"/><path d="M376.396 0h-41.892c21.291 0 38.55 17.26 38.55 38.55v19.137h41.892v-19.137c0-21.29-17.259-38.55-38.55-38.55z" fill="#72d1fb"/><path d="M119.301 38.429c9.652 0 9.668-15 0-15-9.652 0-9.668 15 0 15z" fill="#fa9084"/><path d="M144.772 38.429c9.652 0 9.668-15 0-15-9.652 0-9.668 15 0 15z" fill="#ffd36c"/><path d="M170.243 38.429c9.652 0 9.668-15 0-15-9.652 0-9.668 15 0 15z" fill="#72e4a0"/><g fill="#909ec0"><path d="M186.388 193.463c-1.919 0-3.839-.732-5.303-2.196l-29.812-29.812c-2.929-2.93-2.929-7.678 0-10.607l28.81-28.81c6.637-6.635 17.545 3.668 10.606 10.607l-23.506 23.506 24.508 24.508c4.573 4.574 1.058 12.804-5.303 12.804zM312.291 193.463c-6.356 0-9.878-8.23-5.303-12.804l23.506-23.505-24.508-24.51c-6.637-6.636 3.669-17.545 10.606-10.605l29.812 29.813c2.892 2.891 2.89 7.715 0 10.606l-28.81 28.809c-1.464 1.463-3.384 2.196-5.303 2.196zM229.025 210.766c-5.215 0-8.933-5.649-6.899-10.436l39.62-93.224c3.784-8.903 17.588-3.037 13.805 5.867l-39.62 93.224c-1.213 2.855-3.988 4.569-6.906 4.569z"/></g></svg>