<svg enable-background="new 0 0 497 497" height="512" viewBox="0 0 497 497" width="512" xmlns="http://www.w3.org/2000/svg"><path d="M419.693 497h-342.386c-21.291 0-38.55-17.26-38.55-38.55v-419.9c0-21.29 17.259-38.55 38.55-38.55h342.386c21.291 0 38.55 17.26 38.55 38.55v419.9c0 21.29-17.259 38.55-38.55 38.55z" fill="#f7f3f1"/><path d="M419.693 0h-56.743c21.291 0 38.55 17.26 38.55 38.55v419.9c0 21.291-17.26 38.55-38.55 38.55h56.743c21.291 0 38.55-17.26 38.55-38.55v-419.9c0-21.29-17.259-38.55-38.55-38.55z" fill="#efe7e3"/><path d="M458.243 38.55c0-21.291-17.26-38.55-38.55-38.55h-342.386c-21.291 0-38.55 17.26-38.55 38.55v21.43h419.487v-21.43z" fill="#8ee6f3"/><path d="M419.693 0h-56.743c21.291 0 38.55 17.26 38.55 38.55v21.43h56.743v-21.43c0-21.29-17.259-38.55-38.55-38.55z" fill="#72d1fb"/><path d="M76.846 39.658c9.652 0 9.668-15 0-15-9.652 0-9.668 15 0 15z" fill="#fa9084"/><path d="M103.375 39.658c9.652 0 9.668-15 0-15-9.651 0-9.667 15 0 15z" fill="#ffd36c"/><path d="M129.904 39.658c9.652 0 9.668-15 0-15-9.651 0-9.667 15 0 15z" fill="#72e4a0"/><path d="M200.214 164.613c0 32.095-25.825 58.113-57.534 58.113s-57.415-26.018-57.415-58.113 25.706-58.113 57.415-58.113 57.534 26.018 57.534 58.113z" fill="#fff"/><g fill="#ebe1dc"><ellipse cx="142.632" cy="160.159" rx="18.066" ry="18.286"/><path d="M142.632 178.445c-18.354 0-33.109 15.703-32.734 33.866 9.296 6.558 20.591 10.415 32.782 10.415 12.109 0 23.352-3.803 32.635-10.281.964-18.226-14.602-34-32.683-34zM394.235 453.5h-291.47c-22.533 0-22.611-35 0-35h291.47c22.533 0 22.611 35 0 35z"/></g><path d="M411.735 194.193v-58.693c0-13.424-11.015-24.307-24.602-24.307h-106.452c-13.587 0-24.602 10.883-24.602 24.307v10.747h-30.845l30.845 37.011v10.936c0 13.424 11.015 24.307 24.602 24.307h106.452c13.587-.001 24.602-10.884 24.602-24.308z" fill="#ffd36c"/><path d="M85.265 349.5v-58.693c0-13.424 11.015-24.307 24.602-24.307h106.452c13.587 0 24.602 10.883 24.602 24.307v11.214h30.845l-30.845 37.011v10.468c0 13.424-11.015 24.307-24.602 24.307h-106.452c-13.587 0-24.602-10.883-24.602-24.307z" fill="#72e4a0"/><path d="M411.735 320.613c0 32.095-25.825 58.113-57.534 58.113s-57.415-26.018-57.415-58.113 25.706-58.113 57.415-58.113 57.534 26.018 57.534 58.113z" fill="#fff"/><ellipse cx="354.153" cy="316.159" fill="#ebe1dc" rx="18.066" ry="18.286"/><path d="M354.153 334.445c-18.354 0-33.109 15.703-32.734 33.866 9.296 6.558 20.591 10.415 32.782 10.415 12.109 0 23.352-3.803 32.635-10.281.964-18.226-14.602-34-32.683-34z" fill="#ebe1dc"/></svg>