<svg enable-background="new 0 0 504.256 504.256" height="512" viewBox="0 0 504.256 504.256" width="512" xmlns="http://www.w3.org/2000/svg"><path d="M27.667 415.829l53.535-161.129h62.291l-.028 207.478c-.002 21.344-17.456 38.602-38.885 38.449-9.536-.068-18.71-3.648-25.753-10.051l-39.921-36.292c-10.682-9.711-15.019-24.552-11.239-38.455z" fill="#f7f3f1"/><path d="M99.5 254.7l-.028 207.478c-.002 13.099-6.583 24.652-16.616 31.593 6.352 4.387 13.916 6.801 21.724 6.856 21.429.152 38.883-17.106 38.885-38.449l.028-207.478z" fill="#efe7e3"/><path d="M143.493 254.7h-95.769c-31.65 0-47.724-16.009-47.724-35.757v-75.521c0-19.748 16.074-35.757 35.901-35.757h107.592z" fill="#ff6cb5"/><path d="M385.162 215.404c18.52 0 33.533-14.968 33.533-33.432s-15.013-33.432-33.533-33.432h-27.662v64.587z" fill="#f76c57"/><g fill="#ffd36c"><path d="M497 174.473h-41.985c-9.675 0-9.675 15 0 15h41.985c9.675 0 9.675-15 0-15zM431.846 139.159c1.757 0 3.522-.614 4.946-1.864l35.459-31.142c7.269-6.384-2.629-17.654-9.898-11.271l-35.459 31.142c-5.004 4.394-1.842 13.135 4.952 13.135zM472.251 257.792l-35.459-31.142c-7.271-6.379-17.168 4.887-9.898 11.271l35.459 31.142c7.233 6.346 17.187-4.869 9.898-11.271z"/></g><path d="M355.004 358.727l-211.511-104.805v-143.899l211.511-104.804c10.06-4.973 21.863 2.317 21.863 13.503v326.503c0 11.185-11.802 18.474-21.863 13.502z" fill="#f7f3f1"/><path d="M355.004 5.219l-41.023 20.277v312.954l41.023 20.277c10.061 4.973 21.863-2.317 21.863-13.503v-326.503c0-11.186-11.802-18.475-21.863-13.502z" fill="#909ec0"/><path d="M355.004 5.219l-20.05 9.91c.276 1.142.431-1.251.431 0v333.688c0 1.251-.155-1.142-.431 0l20.05 9.91c10.061 4.973 21.863-2.317 21.863-13.503v-326.503c0-11.186-11.802-18.475-21.863-13.502z" fill="#808dab"/><path d="M35.901 107.664c-19.827 0-35.901 16.009-35.901 35.758v75.521c0 19.267 15.307 34.967 45.445 35.721v-147z" fill="#fa9084"/><path d="M78.497 107.664h64.997v147.036h-64.997z" fill="#909ec0"/></svg>