<svg enable-background="new 0 0 504.256 504.256" height="512" viewBox="0 0 504.256 504.256" width="512" xmlns="http://www.w3.org/2000/svg"><path d="M345.694 120.56v171.134c0 51.433-41.133 94.109-92.643 94.608-52.014.503-94.489-41.597-94.489-93.416v-172.326c0-9.828-7.98-17.796-17.823-17.796h-82.487c-9.844 0-17.823 7.967-17.823 17.796v172.325c0 116.737 94.781 211.371 211.699 211.371h.001c116.918 0 211.699-94.634 211.699-211.371v-172.325c0-9.828-7.98-17.796-17.823-17.796h-82.487c-9.844 0-17.824 7.968-17.824 17.796z" fill="#ebe1dc"/><path d="M114.262 120.56v172.325c0 51.819 42.475 93.92 94.489 93.416 7.296-.071 14.383-.989 21.175-2.657-40.91-9.978-71.364-46.883-71.364-90.759v-172.325c0-9.828-7.98-17.796-17.823-17.796h-44.3c9.843 0 17.823 7.968 17.823 17.796zM446.004 102.764h-44.3c9.844 0 17.823 7.968 17.823 17.796v172.325c0 109.268-83.042 199.165-189.549 210.222 7.281.756 14.669 1.149 22.15 1.149 116.918 0 211.699-94.634 211.699-211.371v-172.325c.001-9.828-7.979-17.796-17.823-17.796z" fill="#d4c6bb"/><path d="M252.128 475.223c-9.675 0-9.675-15 0-15 41.433 0 81.234-15.277 112.073-43.018 7.192-6.471 17.224 4.682 10.031 11.152-33.597 30.222-76.961 46.866-122.104 46.866z" fill="#b5a9a0"/><g fill="#ffd36c"><path d="M65.283 71.121c-4.142 0-7.5-3.357-7.5-7.5v-24.529c0-9.675 15-9.675 15 0v24.529c0 4.143-3.358 7.5-7.5 7.5zM99.165 71.121c-4.142 0-7.5-3.357-7.5-7.5v-56.365c0-9.675 15-9.675 15 0v56.365c0 4.143-3.358 7.5-7.5 7.5zM133.047 71.121c-4.142 0-7.5-3.357-7.5-7.5v-24.529c0-9.675 15-9.675 15 0v24.529c0 4.143-3.358 7.5-7.5 7.5zM370.355 71.121c-4.142 0-7.5-3.357-7.5-7.5v-24.529c0-9.675 15-9.675 15 0v24.529c0 4.143-3.357 7.5-7.5 7.5zM404.238 71.121c-4.142 0-7.5-3.357-7.5-7.5v-56.365c0-9.675 15-9.675 15 0v56.365c0 4.143-3.358 7.5-7.5 7.5zM438.121 71.121c-4.142 0-7.5-3.357-7.5-7.5v-24.529c0-9.675 15-9.675 15 0v24.529c0 4.143-3.358 7.5-7.5 7.5z"/></g><path d="M158.562 120.56c0-9.828-7.98-17.796-17.823-17.796h-82.487c-9.844 0-17.823 7.968-17.823 17.796v62.056h118.134v-62.056zM463.828 120.56c0-9.828-7.98-17.796-17.823-17.796h-82.487c-9.844 0-17.823 7.968-17.823 17.796v62.056h118.134v-62.056z" fill="#fa9084"/><path d="M446.004 102.764h-44.3c9.844 0 17.823 7.968 17.823 17.796v62.056h44.3v-62.056c.001-9.828-7.979-17.796-17.823-17.796z" fill="#ff6cb5"/></svg>