<svg enable-background="new 0 0 497 497" height="512" viewBox="0 0 497 497" width="512" xmlns="http://www.w3.org/2000/svg"><path d="M73.918 277.158c-1.918 0-3.835-.73-5.3-2.193-2.931-2.927-2.934-7.676-.007-10.606l96.803-96.938c6.632-6.642 17.548 3.656 10.614 10.6l-96.803 96.938c-1.465 1.466-3.386 2.199-5.307 2.199zM442.545 120.922h-130.07399999999998c-9.575-.036-9.748-15.444.058-15.499h130.045c9.554.036 9.764 15.499-.029 15.499z" fill="#ebe1dc"/><path d="M196.5 222.078c-47.405-13.443-82.136-57.111-82.136-108.906 0-62.503 50.577-113.172 112.968-113.172s112.969 50.669 112.969 113.172c0 51.307-34.081 94.64-80.8 108.518" fill="#72e4a0"/><path d="M205.385 191.5c-33.743-9.569-58.466-40.652-58.466-77.521 0-44.491 36.002-80.558 80.413-80.558s80.413 36.067 80.413 80.558c0 36.521-24.259 67.366-57.515 77.245z" fill="#24d3b5"/><ellipse cx="42.78" cy="300.852" fill="#fa9084" rx="42.78" ry="42.857"/><ellipse cx="470.213" cy="113.172" fill="#ffd36c" rx="26.799" ry="26.847"/><path d="M428.901 283.891c0-15.567-13.415-28.612-28.893-28.622-15.604 0-27.555 12.814-27.555 28.622v53.138-53.138c0-15.807-13.206-28.622-28.81-28.622s-28.81 12.814-28.81 28.622v53.138-53.138c0-15.807-13.065-28.622-28.669-28.622-15.604 0-29.043 12.814-29.043 28.622v53.138-189.029c0-15.807-12.649-28.622-28.253-28.622-15.604 0-28.253 12.814-28.253 28.622v223.056c-18.026-17.715-46.006-5.061-48.015 19.049-4.148 49.798 39.792 86.122 58.941 99.475 5.239 3.654 11.448 7.345 17.831 7.418h150.56c9.775.111 19.06-4.28 25.187-11.911 15.387-19.164 23.782-43.073 23.782-67.73v-133.498c0-16.267-13.458-29.364-29.76-28.59" fill="#fcd8a5"/><g fill="#facc87"><path d="M399.141 255.269l.023.022c-5.355.16-10.334 1.826-14.541 4.6 7.752 5.11 12.877 13.934 12.877 23.969v133.498c0 24.656-8.395 48.566-23.782 67.73-5.141 6.404-12.509 10.817-20.521 11.911h26.736c9.775.111 19.06-4.28 25.187-11.911 15.387-19.164 23.782-43.073 23.782-67.73v-133.499c-.001-16.266-13.459-29.364-29.761-28.59zM225.72 148v189.029s30.623-.065 31.401 0v-189.029c0-15.808-12.649-28.622-28.253-28.622-5.811 0-11.21 1.779-15.7 4.826 7.568 5.135 12.552 13.875 12.552 23.796zM283.099 284.122v53.407s30.956-.065 31.735 0v-53.407c0-15.808-12.983-28.853-28.586-28.853-5.811 0-11.21 2.01-15.7 5.056 7.567 5.136 12.551 13.876 12.551 23.797zM341.052 284.122v52.407s30.623-.065 31.401 0v-52.407c0-15.808-13.206-28.853-28.81-28.853-5.811 0-12.143 2.231-15.143 4.231 7.568 5.135 12.552 14.701 12.552 24.622z"/></g></svg>