<svg enable-background="new 0 0 504.5 504.5" height="512" viewBox="0 0 504.5 504.5" width="512" xmlns="http://www.w3.org/2000/svg"><path d="M332.702 0h-250.5c-43.491 0-43.584 67.5 0 67.5h90.5c24.176 0 24.176 37.5 0 37.5h-138c-43.491 0-43.584 67.5 0 67.5h68c10.339 0 18.75 8.411 18.75 18.75v69.944c0 9.674 15 9.674 15 0v-69.944c0-18.609-15.14-33.75-33.75-33.75h-68c-24.176 0-24.176-37.5 0-37.5h138c43.491 0 43.584-67.5 0-67.5h-90.5c-24.176 0-24.176-37.5 0-37.5h250.5c10.339 0 18.75 8.411 18.75 18.75v54.25c0 9.675 15 9.675 15 0v-54.25c0-18.609-15.141-33.75-33.75-33.75z" fill="#ebe1dc"/><path d="M215.779 438.004v-215.459c0-79.162 64.174-143.336 143.336-143.336s143.336 64.174 143.336 143.336v136.17c0 79.162-64.174 143.336-143.336 143.336-49.844 0-93.745-25.441-119.427-64.047z" fill="#c2f6ff"/><path d="M359.116 79.208c-7.105 0-14.086.525-20.914 1.523 69.248 10.125 122.75 69.755 122.75 141.813v136.17c0 72.047-53.485 131.67-122.718 141.808 6.818.995 13.787 1.528 20.881 1.528 79.162 0 143.336-64.174 143.336-143.336v-136.17c.001-79.162-64.173-143.336-143.335-143.336z" fill="#aef2ff"/><path d="M502.452 240.462v-17.917c0-79.162-64.174-143.336-143.336-143.336v161.253z" fill="#8ee6f3"/><path d="M359.116 79.208v6.11c58.925 17.796 101.836 72.496 101.836 137.226v17.917h41.5v-17.917c0-79.162-64.174-143.336-143.336-143.336zM359.115 79.208c-79.162 0-143.336 64.174-143.336 143.336v17.917h143.336z" fill="#72d1fb"/><circle cx="127.105" cy="382.847" fill="#ffd36c" r="121.653"/><path d="M127.105 261.194c-7.128 0-14.111.619-20.903 1.795 57.226 9.911 100.75 59.799 100.75 119.857s-43.524 109.947-100.75 119.857c6.792 1.176 13.775 1.795 20.903 1.795 67.187 0 121.653-54.466 121.653-121.653s-54.466-121.651-121.653-121.651z" fill="#fcc645"/><g fill="#eaaf20"><path d="M141.341 374.309c-7.518-2.565-15.819-2.161-23.232-5.009-6.601-2.536-8.903-10.417-6.702-16.893 5.153-15.161 28.213-12.559 33.955.815 3.776 8.793 16.738 1.247 12.952-7.571-3.13-7.291-11.1-13.437-18.274-16.328-1.363-.549-2.769-.998-4.2-1.354v-14.513c0-9.674-15-9.674-15 0v14.224c-1.727.355-3.424.837-5.064 1.462-17.411 6.643-26.147 27.756-15.646 44.189 4.739 7.415 12.797 10.679 21.126 12.198 7.638 1.393 16.205 1.606 22.362 6.926 6.428 5.554 7.363 14.001 3.591 21.439-4.157 8.197-13.811 11.185-22.444 10.052-11.349-1.489-18.299-11.067-19.906-19.433-.69-9.489-15.582-9.524-14.989.098.665 10.786 6.425 21.232 15.189 27.502 4.675 3.345 10.12 5.498 15.781 6.472v13.652c0 9.674 15 9.674 15 0v-13.81c9.469-1.835 18.171-7.001 23.444-15.463 11.574-18.568 2.395-41.718-17.943-48.655z"/><path/></g></svg>