<svg enable-background="new 0 0 497 497" height="512" viewBox="0 0 497 497" width="512" xmlns="http://www.w3.org/2000/svg"><path d="M394.087 154.5v307.5c0 19.33-15.67 35-35 35h-294.509c-19.33 0-35-15.67-35-35v-427c0-19.33 15.67-35 35-35h242.254l87.255 98.5z" fill="#f7f3f1"/><path d="M306.832.202v63.298c0 19.33 15.67 35 35 35h52.255z" fill="#efe7e3"/><path d="M251.832 82h-163c-9.675 0-9.675-15 0-15h163c9.675 0 9.675 15 0 15zM251.832 140h-163c-9.675 0-9.675-15 0-15h163c9.675 0 9.675 15 0 15z" fill="#ebe1dc"/><path d="M88.833 190.5h243v116h-243z" fill="#8ee6f3"/><path d="M331.832 372h-243c-9.675 0-9.675-15 0-15h243c9.675 0 9.675 15 0 15zM331.832 430h-243c-9.675 0-9.675-15 0-15h243c9.675 0 9.675 15 0 15z" fill="#ebe1dc"/><circle cx="177.333" cy="230" fill="#ffd36c" r="12.5"/><path d="M176.807 290.393l16.144 16.107h138.882v-1.603l-84.765-84.765z" fill="#d86b3e"/><g fill="#de815a"><path d="M160.828 306.373l15.979-15.98-35.974-35.893-52 52h83.78zM172.613 306.5l20.561.223-.223-.223zM176.807 290.393l-15.979 15.98 11.785.127h20.338z"/></g><path d="M407.286 429.683l25.205-36.745v-.029l-50.716.097z" fill="#f76c57"/><path d="M381.775 392.991v.015l50.716-.097-.194-184.317h-50.522z" fill="#fa9084"/><path d="M406.992 150.623c-13.942.015-25.232 11.329-25.217 25.27v32.698h50.522l.194-32.752c-.014-13.94-11.557-25.231-25.499-25.216z" fill="#ff6cb5"/><path d="M459.987 297.597c-4.018.034-7.561-3.472-7.565-7.492l-.058-54.775c-.005-5.189-2.031-10.064-5.703-13.728-3.672-3.665-8.553-5.68-13.742-5.674l-51.144.052c-8.696.009-8.694-15.076 0-15l51.129-.052c9.195-.009 17.844 3.562 24.353 10.056 6.508 6.495 10.098 15.137 10.107 24.331l.058 54.775c.004 4.123-3.319 7.472-7.435 7.507z" fill="#f76c57"/></svg>