<svg xmlns="http://www.w3.org/2000/svg" viewBox="0 0 56.48 56.48" enable-background="new 0 0 56.48 56.48"><path d="M36.35 27.166c-.063-.172-.152-.325-.273-.461-.149-.17-.336-.298-.558-.382-.221-.085-.479-.127-.771-.127-.256 0-.486.036-.689.108-.205.073-.381.181-.531.326-.303.29-.453.658-.453 1.104 0 .24.044.457.134.65.089.193.224.364.401.514.146.119.312.209.504.269.189.06.402.089.639.089.264 0 .498-.035.705-.107.207-.072.385-.18.534-.323.299-.288.448-.657.448-1.107 0-.201-.03-.386-.09-.553zm-1.079.906c-.026.1-.065.179-.117.241-.104.122-.236.185-.398.185-.144-.001-.277-.045-.397-.188-.106-.125-.159-.318-.159-.579 0-.129.014-.241.04-.336.026-.096.067-.175.121-.238.106-.126.241-.189.405-.189.139.001.269.046.389.187.104.124.158.313.158.566-.002.135-.014.25-.042.351zM44.191 28.388l-.198.054c-.131.017-.238.062-.342-.076l-.027-.092-.009-.155v-1.038h.618v-.821h-.618v-1.114l-1.125.577v.538h-.413v.821h.413l.002 1.029c0 .164.006.305.022.423.016.119.039.214.072.287.064.145.161.255.293.326.133.071.338.106.618.106.253 0 .512-.033.777-.091l-.083-.774zM36.898 26.26h1.121v2.928h-1.121zM38.614 21.542l-.561 1.949-.604-1.949h-1.185l1.229 2.927-.095.197-.113.127c-.082.061-.188.091-.321.091-.185 0-.367-.022-.539-.077l.088.784.439.049.311.017c.198 0 .374-.023.521-.066.147-.044.27-.11.368-.199.07-.063.137-.153.205-.274.067-.12.134-.27.2-.448l1.162-3.128h-1.105zM41.646 26.823c-.045-.143-.11-.26-.198-.353-.174-.185-.417-.276-.729-.276-.207 0-.402.031-.584.125-.161.084-.318.223-.474.418l-.002-.477h-1.045v2.927h1.122v-1.407c0-.133.011-.246.032-.338.021-.092.053-.165.095-.216.085-.102.194-.154.331-.154.105.002.203.024.287.115.069.076.102.206.102.39v1.61h1.127v-1.861c0-.193-.021-.36-.064-.503zM55.026 9.939h-53.572c-.804 0-1.454.651-1.454 1.454v33.695c0 .803.65 1.454 1.454 1.454h53.572c.804 0 1.454-.651 1.454-1.454v-33.695c0-.803-.65-1.454-1.454-1.454zm-43.973 6.615h34.341v14.39l-17.16 4.282-17.181-4.286v-14.386zm-3.975 23.373v-15.47h2.824v7.085l18.238 4.549 18.216-4.548v-7.087h3.045l.001 15.471h-42.324zM28.895 21.879c-.104-.322-.249-.595-.44-.837s-.427-.451-.708-.623c-.281-.173-.607-.309-1.006-.401-.399-.093-.872-.134-1.342-.134h-5.636v.006c.375.046.748.135 1.072.272.312.132.579.304.804.504.225.201.409.431.552.698.144.268.25.574.311.917.062.342.08.723.052 1.088s-.101.715-.217 1.027c-.117.312-.276.586-.475.824-.2.238-.439.439-.72.608-.28.169-.599.312-.934.395-.151.047-.305.069-.452.098v-6.419c-.27-.033-.553-.05-.839-.05h-5.635v9.278h3.405v-2.7c.727-.002 1.454.006 2.182-.005l.325-.019c.192-.012.382-.036.569-.066v2.823h3.405v-2.701c.728-.002 1.455.006 2.182-.006l.326-.018c.44-.029.88-.106 1.258-.232.377-.126.694-.295.962-.494.265-.199.482-.428.659-.697.176-.27.312-.58.4-.932.088-.353.127-.747.117-1.129-.01-.382-.073-.752-.177-1.075zm-9.628 1.501c-.038.177-.109.346-.265.507-.068.07-.151.133-.247.188-.336.199-.803.238-1.239.236h-.831v-2.333c.538.011 1.074-.039 1.615.047.117.02.23.053.331.098.101.043.188.098.265.161.369.33.437.69.371 1.096zm6.481.031c-.038.178-.109.346-.265.506-.069.07-.151.134-.247.189-.336.2-.804.238-1.239.235h-.831v-2.331c.539.012 1.074-.039 1.616.047.117.02.23.054.331.097.101.044.188.098.265.161.368.328.436.69.37 1.096zM32.995 25.859c-.057-.152-.142-.283-.253-.391-.227-.214-.564-.322-1.018-.322h-2.075v4.042h1.254v-1.5c.471-.008.996.033 1.343-.086.188-.057.342-.144.465-.259.246-.229.367-.548.367-.957 0-.197-.027-.374-.083-.527zm-1.279.886c-.099.084-.268.126-.508.126h-.306v-.902h.001c.229.004.496-.016.649.032.08.023.141.055.184.1.084.089.126.196.126.323-.001.115-.034.224-.146.321zM36.32 24.305c-.046-.121-.067-.22-.067-.457v-1.293c-.001-.292-.128-.639-.31-.786l-.229-.149-.281-.087c-.203-.037-.474-.057-.811-.057-.354-.002-.799.058-1.009.18l-.188.129-.141.15c-.076.108-.134.255-.175.443l1.071.112.076-.16c.082-.117.154-.136.27-.166l.24-.022c.119.001.221.012.301.083.057.055.085.152.085.29l-.397.134c-.125.034-.397.093-.818.178-.176.035-.323.08-.444.132-.121.054-.214.116-.278.188-.065.072-.115.154-.146.245-.033.092-.049.193-.049.305 0 .118.021.228.068.327.045.099.112.189.203.271.182.162.446.243.795.243.243-.001.475-.034.692-.122.146-.061.292-.162.438-.304l.02.11c.016.068.021.104.102.249h1.055l-.073-.166zm-1.185-.855c-.024.133-.098.273-.279.373-.107.061-.225.091-.35.091-.102-.001-.192-.016-.271-.084-.062-.056-.093-.128-.093-.217 0-.071.025-.141.094-.207l.154-.088.279-.091.481-.146c0 .127.007.267-.015.369zM32.995 21.143c-.057-.153-.142-.283-.253-.391-.227-.214-.564-.322-1.018-.322h-2.075v4.042h1.254v-1.501c.471-.007.996.034 1.343-.085.188-.058.342-.144.465-.259.246-.229.367-.548.367-.957 0-.199-.027-.376-.083-.527zm-1.279.883c-.099.084-.268.125-.508.125h-.306v-.901h.001c.229.004.496-.015.649.033.08.022.141.055.184.1.084.088.126.196.126.322-.001.115-.034.224-.146.321z"/></svg>