<svg xmlns="http://www.w3.org/2000/svg" viewBox="0 0 56.48 56.48" enable-background="new 0 0 56.48 56.48"><path d="M35.91 21.249c-.189-.081-.388-.067-.59-.06v.911c.198.014.383.02.557-.066.168-.083.24-.225.243-.409.001-.167-.046-.305-.21-.376zM32.032 34.562c-.233-.023-.47-.007-.722-.007l.004.723.057.066c.204 0 .41.008.611-.012.184-.019.304-.186.309-.383.006-.207-.084-.369-.259-.387zM51.545 20.142c-.304-.003-.55.244-.55.554 0 .313.244.566.542.564.307-.002.536-.237.536-.551.001-.324-.221-.563-.528-.567zm.209.556l-.115.034.188.298-.019.022-.08-.055-.106-.172c-.048-.106-.125-.126-.25-.087v.307l-.04-.001v-.679l.379.005c.051.008.114.073.133.125.031.08-.002.163-.09.203zM55.026 9.939h-53.572c-.804 0-1.454.651-1.454 1.454v33.694c0 .803.65 1.455 1.454 1.455h53.572c.804 0 1.454-.651 1.454-1.454v-33.695c0-.803-.65-1.454-1.454-1.454zm-5.227 10.217h.575v10.383h-.575v-10.383zm-16.315-.047h.115c.883 0 1.768-.003 2.654.002.336.002.67.024.991.143.42.156.632.467.669.899.026.295.004.588-.175.844-.16.226-.388.344-.642.424l-.109.036.204.052c.327.081.535.283.598.615l.097.667.178 1.093-.075.005-1.644.002c-.08 0-.109-.031-.121-.101l-.168-.981-.067-.379c-.027-.119-.107-.2-.226-.219l-.447-.04v1.711h-1.832v-4.773zm-5.051.005h3.607v1.229h-1.811v.525h1.664v1.236h-1.666v.545l.115.006 1.653-.001c.086-.001.116.019.115.112-.007.343-.004.688-.001 1.031.001.071-.02.093-.092.093l-3.534-.001-.051-.006.001-4.769zm3.219 5.833l-.001.397v4.136c0 .146 0 .146-.146.146l-1.621.002c-.087.002-.108-.027-.108-.109l.001-4.565.007-.106h.84l.925-.002c.08-.002.106.024.103.101zm-8.72-5.83h4.229v1.271h-1.169v3.497h-1.881v-3.493h-1.179v-1.275zm-5.553 3.307h1.779l.055.232c.067.212.233.297.517.275.203-.017.359-.159.388-.354.021-.136-.059-.269-.221-.329l-.572-.18c-.361-.111-.73-.201-1.083-.336-.63-.241-.842-.741-.77-1.386.071-.645.478-1.005 1.062-1.201.516-.172 1.048-.177 1.582-.135.338.027.665.099.963.266.433.242.637.621.649 1.11l-.002.032-.013.028-.1.006-1.439.001c-.083.001-.129-.01-.14-.11-.015-.15-.116-.255-.276-.27-.128-.011-.263.005-.39.033-.113.026-.18.115-.186.236-.006.116.046.21.154.248l.624.189c.325.097.656.177.974.294.749.275 1.062.838.916 1.624-.112.598-.501.943-1.052 1.137-.418.147-.852.183-1.29.177-.391-.006-.777-.047-1.148-.184-.59-.219-.929-.632-.983-1.266l-.002-.075.004-.062zm-4.717-3.315c1.121 0 2.243.001 3.364-.002.092 0 .127.022.126.118l-.002 1.011-.006.108h-1.811v.525h1.672v1.234h-1.67v.549h1.864v1.23h-3.669l-.007-.152-.001-4.481c0-.14 0-.14.14-.14zm-2.514 4.778h-1.8199999999999998l-.442-3.079h-.035l-.442 3.079h-.351c-.522 0-1.045-.003-1.568.003-.103.002-.133-.037-.152-.126-.133-.636-.27-1.272-.407-1.907l-.576-2.648-.007-.097h1.668l.404 2.996h.032l.442-2.993.115-.006 1.72-.002c.089-.001.118.022.131.115.093.655.195 1.308.292 1.961l.131.922.034.002.403-2.992h1.677l-.094.464-.388 1.801-.499 2.292c-.048.218-.049.216-.268.215zm3.652 12.05c.001.075-.024.102-.1.1l-.542-.001v-2.461l-.019-.004-.195.61c-.188.597-.376 1.191-.568 1.787l-.089.064-.365.006c-.073.003-.109-.028-.13-.096l-.399-1.29c-.107-.349-.216-.694-.342-1.04v.089c0 .735-.003 1.47.001 2.204.002.106-.032.137-.134.132l-.468-.002v-2.985h.483l.451-.002c.081-.001.113.029.134.103l.57 1.976.022.051c.21-.67.416-1.322.615-1.974.035-.11.08-.162.206-.155.254.012.509.006.763.002.081-.002.107.026.106.104-.002.926-.001 1.853 0 2.782zm3.248-.534c-.168.369-.473.576-.859.664-.362.082-.718.052-1.058-.102-.369-.17-.59-.461-.676-.849-.046-.208-.056-.423-.083-.635.029-.307.097-.598.251-.864.188-.325.472-.518.84-.59.33-.067.653-.044.969.076.333.127.548.373.673.695.209.54.18 1.079-.057 1.605zm3.444.532c.002.082-.028.105-.105.104h-.688c-.071 0-.106-.025-.137-.09l-1.04-2.237-.049-.089v2.254c0 .159 0 .16-.165.16h-.444v-2.987h.816c.08-.002.119.027.154.099l1.007 2.122.039.048v-.142c0-.668.002-1.334-.002-2-.001-.101.028-.134.127-.129h.365c.094-.004.123.028.123.123l-.002 2 .001.764zm-2.003-6.334c-.473-.135-.859-.398-1.046-.877-.07-.178-.121-.374-.123-.562-.012-1.085-.007-2.17-.007-3.256l.006-.054h1.873v.131c0 .992-.001 1.985.004 2.976 0 .105.025.214.064.312.057.15.185.214.342.205.152-.005.26-.089.305-.23.033-.107.049-.224.049-.336.004-.932.003-1.863.003-2.794v-.261h1.882v.125l-.001 3.052c-.001.839-.462 1.414-1.284 1.604-.692.16-1.384.163-2.067-.035zm4.762 6.427h-2.04v-.131c0-.907.002-1.814-.001-2.72-.001-.104.03-.129.132-.129.577.004 1.153.004 1.73 0 .109-.002.145.031.136.139l-.002.359h-1.34l.005.637.102.054 1 .002.141.008v.489l-.152.008-.989-.002c-.084 0-.111.027-.109.111l.001.662.136.007 1.15-.002c.082 0 .107.022.103.104l-.003.404zm.126-6.521c0-1.512.002-3.024-.001-4.535 0-.1.027-.125.125-.125.677.004 1.355.004 2.031.001.08-.001.117.021.144.1.313.904.631 1.807.948 2.71l.031.073.031-.006v-2.871h1.509v4.768l-.099.007c-.681 0-1.361-.002-2.042.002-.081 0-.117-.026-.144-.103-.307-.892-.617-1.782-.928-2.672l-.053-.133-.029.004v2.895h-1.518l-.005-.115zm2.65 4.035l-.709 1.336-.035.152v.893c.001.088-.029.118-.117.114h-.43c-.082.003-.104-.028-.103-.106.004-.293.006-.588 0-.881l-.054-.211-.89-1.666-.048-.103.697.003.086.072.536 1.181.034.075.246-.529.333-.72c.027-.062.059-.085.127-.083l.577.001-.25.472zm4.196.022l-.647.001c-.267.002-.222-.026-.222.221l-.002 2.107v.143l-.597-.003-.054-.062-.004-.117c0-.723-.002-1.447.002-2.172 0-.096-.03-.123-.122-.119l-.655.003c-.08.002-.108-.024-.104-.104l-.001-.291c-.008-.098.031-.121.123-.121h2.285l-.002.514zm2.131 2.462l-.11-.768-.044-.242c-.025-.102-.099-.168-.197-.172l-.664-.004v1.186h-.66l-.006-.115c0-.914.002-1.828-.002-2.74 0-.094.024-.123.12-.123.397.004.796-.008 1.192.006.18.006.369.026.535.088.307.115.445.369.459.688.012.3-.157.548-.444.673l-.131.053c.365.047.437.301.476.58l.104.668.069.223-.697-.001zm.714-9.167c.079-.73.351-1.356.996-1.765.462-.296.981-.377 1.52-.368.401.007.79.071 1.155.244.54.256.899.676 1.082 1.24.232.721.23 1.447-.038 2.156-.284.755-.86 1.176-1.639 1.324-.205.039-.418.048-.627.07-.528-.016-1.032-.108-1.483-.402-.468-.304-.742-.744-.881-1.275-.106-.403-.129-.812-.085-1.224zm2.849 9.175c-.117-.001-.267.037-.345-.022-.081-.06-.099-.211-.136-.326-.096-.289-.094-.29-.394-.29l-.763-.003c-.08-.002-.116.03-.139.1l-.149.447c-.021.069-.053.098-.128.096l-.527-.002.268-.746c.254-.703.507-1.404.757-2.109.033-.092.074-.138.181-.131.175.01.351.006.527 0 .077-.002.116.025.14.098l.65 1.884.313.912.026.096-.281-.004zm3.361.005l-.72-.005-.116-.081c-.275-.582-.546-1.166-.817-1.749l-.258-.553-.018.003v2.244c0 .139 0 .139-.143.14h-.472v-.121c0-.914.002-1.826-.002-2.738 0-.099.024-.133.125-.129h.698c.08-.004.119.028.152.099l1 2.112.042.076.005-.095c0-.69.002-1.383-.002-2.074 0-.097.03-.122.123-.118h.397c.07-.002.093.028.093.096-.001.935-.001 1.869.002 2.805 0 .067-.027.088-.089.088zm.227-16.933c.676.004 1.353.004 2.03 0 .079-.001.113.028.138.099.31.898.624 1.794.937 2.691l.041.095.028-.004v-2.872h1.509v4.767l-.083.006c-.682 0-1.361-.002-2.041.002-.09.001-.133-.023-.163-.111-.291-.851-.588-1.701-.884-2.551l-.109-.238-.007.097c0 .895-.002 1.791.002 2.686 0 .098-.026.12-.12.119l-1.29-.002-.104-.005-.008-.118c0-1.512 0-3.023-.002-4.534 0-.098.027-.127.126-.127zm-.125 10.414c.002-1.522.002-3.044 0-4.566 0-.078.02-.107.103-.106.688.002 1.375.002 2.063-.001.075-.001.103.03.125.096l.944 2.7.058.082v-2.868h1.518v4.771h-.105l-2.041.002c-.078 0-.112-.025-.137-.098l-.938-2.704-.069-.099v.154c0 .874-.002 1.749.002 2.622.001.102-.028.125-.126.125-.427-.005-.853-.005-1.279 0-.086 0-.119-.018-.118-.11zm2.808 6.126c-.166.222-.393.345-.66.406-.36.082-.718.082-1.064-.053-.323-.123-.491-.371-.521-.711-.021-.219-.017-.219.206-.219l.365.003.076.058c0 .457.363.546.705.48.084-.017.174-.052.241-.105.219-.175.17-.485-.095-.576l-.618-.176c-.132-.043-.263-.096-.386-.158-.594-.297-.471-1.027-.146-1.305.143-.121.303-.201.485-.24.299-.067.603-.07.9.023.379.12.623.466.582.838h-.582c-.062-.115-.099-.238-.174-.322-.175-.193-.584-.158-.74.049-.158.207-.058.468.213.549l.65.179c.164.058.334.121.471.224.308.235.338.715.092 1.056zm2.683-2.1h-1.268l.004.661.102.054.945.002c.141 0 .141 0 .141.141v.371h-1.188v1.26l-.595-.003-.058-.06-.002-.074-.002-2.717c0-.082.012-.125.108-.125h1.718l.095.009v.481zm.434-14.39h.578v10.383h-.578v-10.383zm2.141 16.872h-2.023v-2.973l.127-.006 1.729-.002c.103 0 .14.029.132.133l-.002.365h-1.338l.005.642.106.049.998.003c.143 0 .143.001.143.139v.359l-.161.008h-.935c-.159 0-.159-.001-.159.165l-.002.504c-.002.081.02.111.108.11l1.148-.001h.124v.505zm2.301.006l-.051-.077-.125-.825c-.033-.224-.107-.289-.333-.289h-.558v1.188h-.653v-2.971l.13-.006c.382-.002.765-.008 1.148.002.164.001.332.021.488.063.318.087.526.363.53.701.004.274-.097.534-.453.688l-.116.051c.278.037.404.203.446.445l.06.379.117.651h-.63zm1.802-15.711c-.347.003-.637-.278-.64-.618-.003-.338.279-.621.621-.625.356-.004.625.263.627.621.002.341-.268.619-.608.622zM51.734 20.443l-.33-.035-.021.033c-.05.148.004.224.188.224l.106-.01.088-.091-.031-.121zM36.031 28.234l-.001-.323c-.018-.246-.031-.493-.139-.722-.08-.169-.215-.241-.396-.234-.177.006-.3.093-.361.255-.041.113-.084.232-.09.351-.018.396-.035.793-.02 1.189.008.19.078.382.141.566.043.133.165.19.304.2.242.021.41-.088.467-.358.064-.303.089-.614.129-.921l-.034-.003zM16.464 34.932c-.099-.299-.337-.464-.626-.466-.318-.004-.561.148-.669.455-.144.409-.143.829-.005 1.241.099.294.307.456.626.464.321.007.517-.12.657-.434.095-.213.11-.442.109-.671l.028-.007c-.038-.194-.059-.394-.12-.582zM34.774 34.671l-.42 1.219h.816l-.396-1.219zM49.295 34.549l-.548-.013c-.062-.002-.083.021-.082.08v.643c0 .056.017.09.079.088l.568-.012c.199-.015.336-.199.328-.42-.007-.225-.128-.358-.345-.366z"/></svg>