<svg xmlns="http://www.w3.org/2000/svg" viewBox="0 0 56.48 56.48" enable-background="new 0 0 56.48 56.48"><path d="M18.375 39.101c-.141-.466-.485-.739-.923-.908-.515-.197-1.063-.08-1.597-.182v3h.728c.327.004.641-.051.948-.17.764-.299 1.063-1.01.844-1.74zM25.778 32.853c-.137-.119-.276-.215-.467-.213h-1.032v1.136h.769c.242-.003.463-.073.667-.208.213-.141.271-.539.063-.715zM30.898 39.489c-.261-.241-.576-.311-.932-.284-.441.035-1.006.449-.927.991-.038.256.073.478.261.65.369.343.932.414 1.377.175.595-.318.729-1.063.221-1.532zM18.05 33.106c-.264-.253-.577-.429-.952-.464l-.628-.055-.618-.002v3.002l.337-.037c.273-.014.549-.007.821-.035.354-.036.681-.159.959-.39.617-.511.623-1.5.081-2.019zM24.162 39.096c-.428-.191-.853-.156-1.261.059-.212.111-.334.376-.293.572h1.981c-.101-.365-.203-.53-.427-.631zM55.026 9.939h-53.572c-.804 0-1.454.651-1.454 1.454v33.694c0 .803.65 1.455 1.454 1.455h53.572c.804 0 1.454-.651 1.454-1.454v-33.695c0-.803-.65-1.454-1.454-1.454zm-40.516 21.978c.773 0 1.549-.007 2.322.001.645.007 1.266.132 1.838.438.487.258.878.62 1.059 1.149.204.593.14 1.174-.238 1.695-.28.384-.662.638-1.099.812-.483.191-.985.27-1.507.267-.792-.006-1.583.014-2.375.024v-4.386zm5.207 8.322c-.234.632-.733.985-1.323 1.235-.403.172-.824.259-1.261.265l-2.624.028v-4.387c.678 0 1.355.002 2.033-.002.481-.002.961.024 1.422.154.678.191 1.283.523 1.643 1.162.275.486.307 1.014.11 1.545zm3.564.857c.596.131 1.189.072 1.771-.088.151-.043.292-.125.443-.193l-.003.674-.08.111c-.303.072-.605.158-.914.19-.358.037-.722.043-1.083.031-.514-.017-1.004-.14-1.436-.435-.353-.238-.617-.55-.708-.98-.113-.531.025-.989.405-1.378.458-.467 1.03-.635 1.661-.695.383-.034.753-.006 1.117.097.496.139.919.392 1.158.875.163.33.228.681.195 1.066h-3.221c-.015.415.351.65.695.725zm-2.749-4.855v-4.34h1.319v4.34h-1.319zm6.905.034l-1.191.003c-.079 0-.112-.03-.147-.097-.231-.445-.466-.888-.707-1.326-.114-.208-.311-.302-.539-.32-.186-.014-.376-.002-.574-.002v1.73h-1.303v-4.375h2.418c.489-.004.961.08 1.382.328.274.162.453.414.462.756.007.252-.026.484-.169.709-.192.3-.485.403-.793.486.518.623.806 1.398 1.267 2.09l-.106.018zm4.919 4.553c-.169.411-.467.686-.86.875-.421.203-.874.215-1.32.174-.39-.035-.772-.14-1.072-.426l-.064-.016v.324h-1.296v-4.719h1.281v1.924c.558-.521 1.214-.55 1.87-.502.455.035.878.204 1.197.562.203.224.321.489.375.784.061.35.026.687-.111 1.02zm-.621-7.112v.752h-2.163v1.049h2.275v.752h-3.468v-4.37h3.5v.739h-2.306v1.078h2.162zm4.269 8.073h-1.262v-3.207h1.262v3.207zm-1.263-3.899v-.824h1.261v.824h-1.261zm-1.018-3.205c.182.397.525.595.924.722.503.161 1.019.156 1.537.142.199-.007.394-.052.615-.082l.065.709c-.419.111-.829.172-1.249.194-.539.028-1.062-.042-1.576-.187-.496-.137-.946-.375-1.301-.758-.288-.311-.447-.682-.507-1.106-.05-.353-.001-.683.12-1.007.101-.271.275-.489.488-.685.409-.376.908-.564 1.43-.69.253-.062.516-.086.777-.104.266-.016.533-.012.801-.001.357.016.699.112 1.035.234l.056.071-.105.601c-.301-.044-.578-.092-.853-.121-.211-.022-.424-.038-.635-.028-.46.02-.908.107-1.272.418-.21.178-.339.415-.405.688-.082.338-.093.669.055.99zm2.02-6.052c-.421.256-.84.519-1.28.74-.562.282-1.144.525-1.752.692-.552.151-1.098.319-1.656.444-.406.092-.823.143-1.239.182-.581.054-1.166.092-1.75.117-.407.018-.816.018-1.223-.002-.43-.019-.858-.054-1.284-.116-.477-.07-.954-.16-1.423-.274-.541-.132-1.079-.283-1.607-.456-.365-.118-.719-.27-1.061-.44-.502-.252-1.006-.504-1.479-.807-.453-.289-.883-.623-1.289-.976-.345-.298-.661-.634-.955-.981-.438-.514-.791-1.085-1.062-1.709-.187-.432-.331-.879-.413-1.338-.09-.507-.15-1.023-.074-1.543.054-.371.084-.747.152-1.116.045-.245.128-.485.21-.721.211-.603.512-1.161.884-1.68.322-.445.689-.846 1.096-1.215.468-.423.977-.792 1.525-1.099.456-.256.93-.493 1.416-.685.579-.229 1.173-.419 1.772-.591.44-.125.896-.199 1.345-.286.335-.065.672-.121 1.011-.17.217-.032.436-.05.655-.063l1.195-.062.044-.027h.871v5.891l-.149.007c-.45-.009-.899-.039-1.346-.024-.546.018-1.092.051-1.633.117-.569.07-1.134.179-1.697.286-.848.161-1.666.426-2.458.765-.551.235-1.078.511-1.568.858-.475.338-.892.73-1.16 1.258-.211.417-.24.859-.141 1.31.147.668.5 1.222.945 1.73.411.471.88.875 1.399 1.214.438.286.9.538 1.363.785.747.398 1.548.665 2.363.873.481.124.975.204 1.468.27.473.062.952.099 1.428.116.454.015.913.019 1.363-.032.851-.095 1.673-.328 2.446-.699.562-.27 1.086-.608 1.562-1.021.494-.426.928-.903 1.289-1.442.496-.738.844-1.544 1.029-2.414.083-.394.143-.796.174-1.198.033-.432.045-.868.027-1.301-.016-.375-.078-.748-.137-1.119-.048-.303-.097-.61-.193-.901-.135-.421-.302-.834-.482-1.238-.187-.425-.459-.806-.746-1.173-.492-.627-1.102-1.123-1.78-1.525-.467-.279-.975-.504-1.485-.704-.412-.161-.85-.254-1.28-.366-.19-.049-.068-.184-.127-.3l.719.042c.27.028.539.061.805.114.58.115 1.162.224 1.732.374.472.125.938.291 1.397.463.837.314 1.617.745 2.353 1.25.613.421 1.158.919 1.66 1.463.441.48.803 1.024 1.105 1.603.297.572.509 1.182.613 1.819.066.404.103.821.087 1.23-.024.612-.127 1.214-.324 1.801-.184.553-.433 1.071-.746 1.556-.186.287-.405.553-.624.815-.171.204-.358.393-.547.578-.406.396-.849.754-1.333 1.051zm-7.411-7.966v8.614c-.192-.023-.373-.034-.549-.072-.311-.067-.616-.146-.923-.226-.546-.144-1.053-.373-1.527-.675-.298-.191-.596-.396-.859-.632-.329-.296-.601-.647-.816-1.043-.161-.3-.28-.615-.326-.946-.044-.32-.02-.649-.019-.974 0-.344.114-.661.229-.979.145-.4.366-.756.63-1.087.436-.546.979-.966 1.59-1.293.454-.244.943-.419 1.446-.531.309-.068.631-.083.947-.124l.177-.032zm13.086 21.182c-.006.145-.143.096-.223.117l-.386.062h-.494l-.301-.059c-.295-.053-.568-.154-.781-.373-.145-.148-.221-.336-.225-.541-.006-.537-.002-1.074-.002-1.612v-.175h-1.009v-.693h1.002v-.836h1.312v.826h1.068v.699h-1.064v.826c0 .223.011.445-.002.668-.014.196.089.31.24.385.273.139.562.123.865.057v.649zm.551-9.204h-1.742v3.654h-1.245v-3.654h-1.771v-.728h4.76l-.002.728z"/></svg>