<svg xmlns="http://www.w3.org/2000/svg" viewBox="0 0 56.48 56.48" enable-background="new 0 0 56.48 56.48"><path d="M55.026 9.939h-53.572c-.804 0-1.454.651-1.454 1.454v33.694c0 .803.65 1.455 1.454 1.455h53.572c.804 0 1.454-.651 1.454-1.454v-33.695c0-.803-.65-1.454-1.454-1.454zm-39.459 4.006h9.416l15.825-.533-.812 1.395-13.654-.533h-10.776l.001-.329zm25.347 3.283l.001.328h-2.402l-.31.533-11.544-.533h-11.091v-.328h9.966l13.48-.533-.311.533h2.211zm-25.348 1.641h10.242l12.31-.533-.311.533h3.107l.001.328h-3.299l-.312.533-10.488-.533h-11.25v-.328zm0 1.641h10.516l11.139-.533-.312.533h4.005v.328h-4.195l-.312.533-9.434-.533h-11.407v-.328zm0 6.562h11.59l6.348-.533-.311.533h7.721v.328h-7.912l-.31.533-5.123-.533h-12.003v-.328zm0 3.281h12.142l4.003-.533-.312.533h9.515v.328h-9.706l-.31.533-3.014-.533h-12.318v-.328zm4.358 12.644h-2.037v-3.372h.851v2.802h1.333l-.147.57zm4.255.029l-.026-.074-.186-.631-.041-.115-1.076.003-.042.067-.23.679-.04.067-.75-.016.176-.525c.324-.918.629-1.735.95-2.654.03-.088-.209-.215-.117-.213.263.006.826.003 1.089.001.056 0 .089.009.11.071l1.076 3.269.017.07-.91.001zm4.365-.188c-.271.158-.56.223-.868.229-.378.008-.74-.064-1.102-.197l.16-.561c.159.041.31.096.466.119.186.027.377.039.565.035.19-.004.303-.098.338-.242.044-.183-.003-.31-.177-.414l-.455-.226s-.302-.157-.436-.259c-.481-.367-.443-1.364.308-1.663.299-.12.609-.139.923-.106.204.022.406.067.618.103l-.136.563-.57-.084c-.108-.012-.219-.006-.327.008-.129.015-.22.087-.253.22-.035.14-.004.262.11.349l.257.15.541.256c.756.358.57 1.41.038 1.72zm4.854.157h-2.195v-3.372h2.167l-.083.559h-1.225v.799h1.16v.56h-1.162v.888h1.423l-.085.566zm4.196.036l-1.092-1.923.325-.005c.405-.036.494-.311.435-.622-.023-.132-.106-.222-.23-.267-.182-.067-.37-.062-.561-.041v2.832h-.857v-3.387l1.52-.003.244.028.301.092c.454.176.542.598.438 1.01-.072.282-.273.446-.538.546l-.046.017-.047.015 1.001 1.71-.893-.002zm3.32-5.787h-13.294l-.31.533-.407-.533h-11.337v-.328h11.45l1.106-.533-.311.533h13.103v.328zm0-1.641h-12.365l-.343.588-.722-.588h-11.918v-.328h12.212l1.239-.479-.277.479h12.174v.328zm-.001-1.642h-11.5l-.31.533-1.307-.533h-12.23v-.328h12.244l2.106-.533-.311.533h11.309l-.001.328zm.002-1.639h-10.604l-.309.533-1.96-.533h-12.476v-.328h12.418l2.83-.533-.312.533h10.413v.328zm0-3.283h-8.809l-.311.533-4.069-.533h-12.16v-.328h11.869l5.173-.533-.311.533h8.618v.328zm0-3.281h-7.015l-.312.533-6.177-.533h-11.845v-.328h11.317l7.519-.533-.312.533h6.825v.328zm-6.118-1.639l-.311.533-7.232-.533h-11.688v-.328h11.042l8.689-.533-.31.533h5.927l.001.328h-6.118zm.938-1.641l-.35.602-9.35-.602h-10.468v-.328h12.03l8.598-.465-.271.465h4.99l.002.328h-5.181zm3.676-6.564l-.311.534-12.6-.533h-10.932v-.328h9.691l14.653-.533-.312.532h1.314l.002.328h-1.505zM23.397 40.443l-.394 1.217h.762l-.368-1.217z"/></svg>