<svg xmlns="http://www.w3.org/2000/svg" viewBox="0 0 56.48 56.48" enable-background="new 0 0 56.48 56.48"><path d="M55.026 9.939h-53.572c-.804 0-1.454.651-1.454 1.454v33.695c0 .803.65 1.454 1.454 1.454h53.572c.804 0 1.454-.651 1.454-1.454v-33.695c0-.803-.65-1.454-1.454-1.454zm-33.286 26.808h-.021c0 .185-.012.367-.035.545l-.042.255-.041.192-.041.158-.041.137-.041.123-.041.11-.042.104-.041.096-.041.09-.041.084-.041.08-.041.076-.041.072-.041.069-.041.065-.042.064-.041.062-.041.059-.041.057-.041.057-.041.053-.041.052-.041.05-.041.049-.041.047-.041.047-.042.045-.041.043-.042.042-.041.04-.041.041-.041.039-.041.039-.041.037-.041.035-.041.035-.041.034-.041.034-.041.033-.042.031-.041.03-.041.03-.041.029-.041.028-.041.028-.042.027-.041.025-.041.025-.041.025-.041.025-.042.023-.041.023-.041.021-.041.023-.041.021-.041.021-.042.021-.041.02-.041.02-.041.02-.042.018-.041.019-.041.019-.041.017-.041.017-.042.016-.041.016-.042.015-.041.015-.041.015-.041.013-.041.014-.041.013-.042.012-.041.011-.042.012-.041.011-.041.01-.041.011-.041.01-.042.009-.041.009-.041.008-.041.008-.042.008-.041.007-.041.007-.041.006-.041.005-.041.007-.042.004-.041.004-.041.005-.041.004-.041.003-.041.002-.041.003-.041.002-.041.001-.041.001h-6.338000000000008v-8.962l.088.022.041.011.041.01.041.011.042.01.041.01.041.009.041.009.041.01.042.008.041.01.041.008.041.009.041.009.041.008.042.009.041.009.041.008.041.008.042.008.041.008.041.008.041.007.041.009.042.006.041.008.042.007.041.007.041.007.041.007.041.008.041.006.042.007.041.006.042.006.041.007.041.006.041.006.041.007.042.006.041.005.041.006.041.006.042.006.041.004.041.006.041.006.041.005.041.005.042.005.041.005.041.006.041.004.041.006.042.005.041.004.041.004.041.004.041.004.041.005.042.004.041.004.041.004.041.004.042.004.041.004.041.003.041.003.041.003.042.003.041.003.041.005.041.002.041.002.041.004.042.002.041.002.041.002.041.004.042.002.041.002.042.002.041.002.041.002.042.002.041.002.041.002.041.001.041.001.041.001.041.001.041.001.042.001.041.001h.042l.041.001h.041l.041.002h.5760000000000001l.041-.002.041-.001.042-.001.041-.001.041-.001.041-.001.041-.001.041-.002.042-.002.041-.002.041-.001.041-.002.041-.002.041-.002.041-.002.041-.003.042-.004.041-.002.041-.002.042-.004.041-.002.042-.004.041-.004.041-.004.041-.003.041-.005.041-.004.041-.004.041-.006.041-.004.041-.006.042-.005.041-.006.041-.005.041-.006.041-.006.042-.006.041-.006.041-.008.041-.007.041-.006.042-.007.041-.008.041-.008.041-.008.041-.008.041-.009.041-.009.041-.008.041-.009.041-.009.042-.009.041-.011.041-.01.041-.011.041-.011.041-.012.042-.011.041-.011.041-.012.041-.012.042-.013.041-.013.041-.014.041-.014.041-.014.042-.014.041-.016.042-.015.041-.015.041-.017.041-.017.041-.017.041-.017.042-.018.041-.019.042-.019.041-.02.041-.02.041-.02.041-.021.042-.021.041-.022.041-.021.041-.023.042-.023.041-.023.041-.025.041-.026.041-.026.041-.027.042-.029.041-.029.041-.031.041-.03.041-.033.042-.034.041-.035.041-.037.041-.039.041-.041.041-.041.042-.043.041-.045.041-.047.041-.05.041-.052.041-.055.041-.059.041-.062.041-.066.041-.069.041-.075.042-.082.041-.091.042-.098.041-.109.041-.127.041-.152.041-.191.041-.295.02-.423v-4.934h-3.7069999999999963v4.935l-.009.228-.042.278-.041.164-.041.125-.041.104-.041.09-.041.08-.041.07-.041.065-.041.06-.041.055-.042.051-.041.047-.042.044-.041.042-.041.04-.042.036-.041.035-.041.031-.041.031-.041.029-.041.028-.041.026-.041.023-.042.023-.041.022-.041.021-.041.021-.041.019-.041.019-.042.017-.041.016-.041.016-.041.014-.041.014-.042.013-.041.011-.041.012-.041.011-.041.009-.041.009-.042.009-.041.006-.041.008-.041.006-.041.005-.041.005-.041.004-.041.004-.041.004-.042.002-.041.002-.042.002-.041.002h-.24600000000000002l-.042-.002h-.041l-.041-.002-.042-.002-.041-.002-.042-.013-.041-.002-.041-.004-.041-.003-.042-.003-.041-.003-.041-.004-.041-.004-.041-.005-.041-.004-.042-.006-.041-.004-.041-.007-.041-.005-.025.002-.042-.006-.041-.007-.041-.008-.041-.006-.042-.008-.041-.007-.041-.008-.041-.008-.041-.009-.041-.008-.042-.008-.041-.009-.041-.009-.041-.01-.041-.01-.042-.01-.041-.01-.041-.012-.041-.01-.041-.011-.041-.01-.042-.011-.041-.013-.041-.011-.041-.012-.042-.012-.041-.012-.041-.012-.041-.012-.041-.014-.042-.013-.041-.015-.042-.013-.041-.013-.041-.016-.041-.014-.041-.014-.041-.016-.042-.014-.041-.015-.042-.017-.041-.015-.041-.016-.041-.015-.041-.017-.042-.017-.041-.017-.041-.017-.041-.018-.042-.017-.041-.018-.041-.018-.041-.018-.041-.018-.041-.019-.042-.017-.041-.02-.041-.018-.041-.02-.041-.02-.027-.014-.041-.019-.041-.021-.041-.019-.088-.042v-10.481c0-.296.03-.585.088-.865l.041-.178.041-.151.041-.132.042-.12.041-.109.041-.101.041-.093.041-.088.042-.083.041-.079.041-.075.041-.072.041-.069.041-.065.042-.063.041-.061.041-.059.041-.056.042-.055.041-.053.041-.051.041-.05.041-.048.042-.047.041-.045.042-.044.041-.043.041-.042.041-.041.041-.041.041-.038.042-.038.041-.036.042-.035.041-.035.041-.035.041-.033.041-.033.042-.031.041-.031.041-.03.041-.029.042-.029.041-.028.041-.027.041-.026.041-.025.041-.025.042-.024.041-.024.041-.022.041-.023.041-.022.042-.021.041-.021.041-.021.041-.02.041-.02.041-.019.042-.018.041-.019.041-.017.041-.017.027-.014.041-.016.041-.015.041-.014.041-.015.042-.014.041-.014.041-.013.041-.013.041-.012.041-.012.042-.011.041-.01.041-.01.041-.01.042-.009.041-.009.042-.009.041-.008.041-.008.042-.007.041-.007.041-.007.041-.005.041-.006.041-.005.041-.005.041-.004.042-.003.041-.004.042-.003.041-.003.041-.002.041-.002.041-.001.041-.002h6.358000000000011v21.264zm11.746 0h-.001v-.001c0 .185-.013.367-.035.545l-.041.255-.042.191-.041.158-.041.137-.041.122-.041.112-.042.103-.041.097-.041.088-.041.084-.041.08-.042.076-.041.073-.041.069-.041.066-.041.063-.041.062-.042.06-.041.057-.04.056-.041.054-.041.051-.041.051-.041.05-.041.047-.041.045-.041.045-.043.043-.041.041-.041.041-.041.041-.041.039-.041.037-.041.037-.041.036-.041.034-.043.035-.041.033-.041.033-.041.031-.041.031-.041.029-.041.029-.041.028-.043.029-.041.026-.041.026-.041.026-.041.024-.041.025-.041.024-.041.022-.041.022-.041.022-.041.021-.041.022-.043.021-.041.021-.041.021-.041.019-.041.019-.041.019-.041.017-.041.018-.041.017-.041.015-.042.017-.041.015-.041.014-.041.016-.041.013-.042.013-.041.014-.041.012-.041.012-.041.01-.042.012-.041.01-.041.01-.041.01-.041.01-.042.009-.041.008-.041.009-.041.006-.041.008-.041.007-.042.006-.041.005-.041.006-.041.004-.042.006-.041.004-.042.004-.041.003-.041.002-.041.003-.041.002-.041.001-.041.001-.041.001h-6.298000000000008v-9.82l.088.073.041.033.041.032.041.031.041.029.041.029.041.029.041.026.042.028.041.027.042.025.041.025.041.025.041.023.041.023.041.023.041.021.041.022.041.022.041.021.041.021.042.021.041.02.042.02.041.02.041.019.041.019.041.018.041.018.041.018.041.017.041.017.042.017.041.017.041.016.041.015.041.015.041.016.042.014.041.014.041.015.041.013.041.014.042.013.041.013.041.012.041.012.041.013.041.011.042.012.041.01.041.012.041.01.042.012.041.01.041.01.041.009.041.009.042.01.041.009.041.009.041.008.041.008.041.008.042.009.041.008.041.007.041.008.042.006.041.008.042.007.041.007.041.007.041.007.041.006.041.006.041.005.041.006.041.006.041.005.041.005.041.005.041.006.042.004.041.004.041.007.041.004.041.004.041.004.041.004.041.004.041.004.041.002.042.004.041.002.041.002.041.004.041.003.042.003.041.002.041.002.041.002.041.002.041.002.041.002.041.002.041.001.042.002.041.001.041.002.041.002h.041l.041.002h.042l.041.002h.657l.041-.002h.083l.042-.002h.041l.041-.002h.042l.041-.002.041-.002.041-.001.041-.002.041-.001.041-.001.02-.001h.021l.041-.002.041-.002.043-.002.041-.002.041-.003.041-.002.041-.003.041-.004.041-.002.041-.004.041-.002.041-.004.041-.004.041-.003.041-.004.041-.003.041-.004.043-.004.04-.005.041-.003.041-.006.042-.004.041-.004.041-.005.041-.005.041-.005.041-.005.042-.005.041-.005.041-.006.041-.004.041-.007.042-.006.041-.006.041-.005.041-.006.041-.008.042-.006.041-.006.041-.007.041-.006.041-.006.042-.007.041-.006.041-.008.041-.007.041-.007.042-.007.041-.007.041-.008.041-.008.041-.007.042-.007.041-.007.041-.009.041-.008.041-.007.041-.008.041-.009.041-.008.041-.008.041-.008.041-.008.041-.008.043-.01.041-.008.041-.009.041-.009.041-.008.041-.01.041-.008.041-.01.043-.009.041-.009.041-.01.041-.01.041-.01.041-.01.041-.01.041-.01.041-.01v-1.799l-.041.021-.041.02-.039.015-.041.02-.041.02-.041.02-.041.02-.041.02-.043.019-.041.019-.041.02-.041.02-.041.018-.041.018-.041.019-.041.019-.043.017-.041.017-.041.018-.041.017-.041.017-.041.016-.041.016-.041.016-.041.015-.041.016-.041.016-.041.015-.042.015-.041.014-.041.014-.041.014-.041.014-.042.014-.041.013-.041.013-.041.014-.041.012-.042.012-.041.013-.041.011-.041.012-.041.012-.042.011-.041.011-.041.012-.041.01-.041.012-.042.01-.041.01-.041.008-.041.01-.041.009-.042.009-.041.008-.041.01-.041.008-.041.008-.041.007-.042.007-.041.008-.041.006-.04.007-.043.006-.041.006-.041.006-.041.007-.041.004-.041.006-.041.006-.041.005-.041.004-.041.005-.068.001-.041.004-.04.003-.041.004-.041.004-.025.002h-.016l-.041.004-.042.002-.041.002-.043-.019-.041.002-.039.001-.041.001-.041.001h-.041l-.042.001h-.082l-.042-.001h-.041l-.042-.001-.041-.001-.041-.002-.041-.002-.041-.002-.041-.004-.041-.002-.041-.004-.041-.004-.041-.004-.041-.005-.041-.004-.041-.006-.041-.006-.041-.007-.042-.006-.041-.006-.041-.009-.041-.008-.042-.009-.041-.008-.041-.01-.041-.01-.041-.01-.041-.01-.042-.012-.041-.012-.041-.012-.041-.014-.041-.013-.041-.014-.041-.015-.041-.016-.041-.016-.042-.017-.041-.018-.041-.019-.041-.019-.041-.021-.042-.02-.041-.021-.041-.021-.041-.022-.041-.023-.041-.025-.041-.025-.041-.025-.041-.027-.041-.029-.042-.03-.041-.031-.041-.032-.041-.035-.041-.035-.041-.037-.041-.04-.041-.041-.041-.043-.041-.045-.041-.048-.041-.051-.041-.053-.042-.056-.041-.06-.042-.064-.041-.069-.041-.073-.041-.08-.042-.088-.041-.097-.041-.11-.041-.125-.041-.149-.041-.194-.042-.301-.017-.368.017-.368.042-.302.041-.194.041-.15.041-.125.041-.11.041-.096.042-.088.041-.081.041-.074.041-.069.042-.064.041-.06.042-.056.041-.053.041-.05.041-.048.041-.045.041-.044.041-.04.041-.04.041-.037.041-.036.041-.034.041-.033.041-.032.042-.03.041-.029.041-.028.041-.026.041-.026.041-.025.041-.023.041-.023.041-.021.041-.021.042-.02.041-.021.041-.019.041-.018.041-.018.042-.016.041-.016.041-.015.041-.016.041-.014.041-.013.041-.013.041-.012.041-.012.042-.012.041-.01.041-.01.041-.01.041-.01.041-.008.042-.008.041-.008.041-.008.041-.006.042-.007.041-.006.041-.006.041-.006.041-.004.041-.005.041-.004.041-.004.041-.003.041-.003.041-.003.041-.002.041-.002.041-.002.041-.001.042-.001h.041l.042-.001h.082l.042.001h.041l.041.001.041.001.041.001.041.002.041.002.041.002.042.002.041.003.016.001.025.002.041.003.041.004.041.003.041.004.041.004.04.005.041.004.041.005.041.004.041.006.041.005.041.006.043.006.041.006.041.006.041.006.041.008.041.007.043.007.041.008.041.007.041.008.041.008.041.008.041.008.041.009.041.009.041.009.041.01.043.01.041.01.041.01.041.01.041.011.041.011.041.011.041.012.041.012.041.012.043.012.041.013.041.013.041.013.041.013.041.013.041.014.041.013.041.014.041.015.043.014.04.015.041.015.041.015.041.016.041.016.041.016.041.017.041.017.041.017.042.017.041.017.042.018.041.018.041.018.042.024.042.018.041.019.041.019.041.019.042.019.041.02.041.019.041.021.041.02.042.02.041.021.041.02.041.021v-1.8l-.041-.01-.041-.01-.041-.009-.042-.01-.041-.01-.041-.009-.041-.009-.041-.009-.042-.009-.041-.009-.057-.022-.041-.009-.041-.008-.041-.009-.041-.008-.041-.008-.043-.009-.04-.008-.042-.008-.041-.008-.041-.008-.041-.008-.041-.009-.041-.008-.041-.007-.041-.008-.041-.007-.041-.007-.042-.008-.041-.007-.041-.007-.041-.008-.041-.007-.042-.007-.041-.007-.041-.007-.041-.007-.041-.006-.042-.006-.041-.006-.041-.007-.041-.006-.041-.006-.042-.005-.041-.007-.041-.006-.041-.006-.041-.006-.042-.005-.041-.006-.041-.005-.041-.005-.041-.005-.042-.005-.041-.005-.041-.005-.041-.005-.041-.004-.041-.005-.042-.004-.041-.005-.041-.004-.04-.003-.031-.009-.041-.004-.041-.003-.041-.004-.041-.003-.041-.004-.041-.004-.041-.003-.041-.003-.041-.003-.041-.003-.041-.003-.041-.002-.041-.002-.041-.003-.043-.002-.037-.004-.042-.002-.021-.001h-.02l-.041-.002-.041-.002-.04-.003-.041-.001-.041-.001-.041-.001-.042-.001-.041-.001h-.041l-.042-.001h-.042l-.04-.004-.041-.001h-.041l-.041-.001h-.44999999999999996l-.042.001h-.041l-.041.001-.041.001-.042.001h-.041l-.041.001-.041.001-.041.001-.041.001-.042.002-.041.001-.041.002-.041.002-.041.002-.041.002-.041.002-.041.002-.041.003-.042.002-.041.003-.041.003-.041.002-.041.003-.042.003-.041.003-.041.004-.041.004-.041.004-.041.003-.041.005-.041.004-.041.005-.041.004-.042.005-.041.005-.041.005-.041.006-.041.005-.041.005-.034.013-.041.005-.041.006-.041.007-.041.005-.041.007-.041.007-.042.007-.041.007-.042.007-.041.007-.041.008-.041.008-.042.008-.041.008-.041.008-.041.009-.041.009-.041.009-.042.009-.041.009-.041.01-.041.01-.041.01-.042.01-.035.01-.041.011-.041.011-.042.011-.041.012-.041.012-.041.012-.041.012-.041.012-.042.013-.041.013-.041.013-.041.014-.041.014-.042.015-.041.014-.041.015-.041.015-.041.016-.041.016-.042.016-.041.016-.041.017-.041.017-.041.017-.041.018-.041.018-.041.019-.041.019-.042.019-.041.021-.042.021-.041.021-.041.021-.041.022-.041.022-.041.022-.041.023-.041.024-.041.024-.041.025-.041.025-.042.026-.041.027-.042.027-.041.028-.041.029-.041.029-.041.031-.041.031-.041.032-.041.033-.088.073v-5.567c0-.296.03-.585.088-.864l.041-.178.041-.151.041-.132.041-.119.041-.109.041-.101.041-.094.042-.088.041-.083.042-.079.041-.075.041-.072.041-.069.041-.066.041-.063.041-.062.041-.059.041-.056.041-.055.041-.054.042-.051.041-.05.042-.048.041-.047.041-.045.041-.044.041-.043.041-.042.041-.041.041-.041.041-.038.042-.038.041-.037.041-.036.041-.035.041-.034.041-.033.042-.033.041-.031.041-.031.041-.03.041-.029.042-.028.041-.028.041-.027.041-.026.041-.026.041-.025.042-.024.041-.024.041-.022.041-.023.042-.021.041-.021.041-.021.041-.021.041-.02.042-.02.041-.019.041-.018.041-.018.041-.017.041-.017.042-.016.041-.016.041-.015.041-.015.042-.015.041-.014.042-.014.041-.012.041-.013.041-.012.041-.011.041-.012.041-.01.041-.01.041-.01.041-.009.041-.009.041-.008.041-.008.042-.008.041-.007.041-.007.041-.007.041-.005.041-.006.041-.005.041-.004.041-.005.041-.003.042-.004.041-.003.041-.003.041-.002.041-.002.042-.001.041-.002h6.337000000000013v21.264zm11.773 0h-.007l-.018.376-.041.324-.042.213-.041.171-.041.146-.041.129-.041.115-.041.106-.042.099-.041.092-.041.086-.041.084-.042.076-.041.074-.041.071-.041.067-.041.065-.041.063-.041.06-.041.06-.042.056-.041.054-.041.053-.041.052-.042.049-.041.048-.041.047-.041.045-.042.043-.041.043-.041.041-.041.04-.041.039-.041.039-.042.037-.041.037-.04.035-.041.034-.041.033-.043.033-.041.032-.041.032-.041.029-.041.03-.043.028-.041.029-.041.026-.041.027-.041.024-.041.026-.041.024-.033.029-.043.022-.041.022-.041.022-.041.021-.041.022-.041.021-.041.021-.041.02-.043.02-.041.02-.041.018-.041.018-.041.018-.041.017-.041.017-.041.016-.041.015-.041.015-.042.015-.041.014-.041.013-.042.013-.041.012-.042.013-.041.01-.041.012-.041.011-.041.011-.041.01-.042.009-.041.009-.042.008-.041.01-.041.008-.042.006-.041.006-.041.006-.041.006-.041.006-.042.004-.041.004-.041.004-.041.004-.041.004-.041.003-.042.002-.041.002-.042.001-.041.001h-6.359000000000009v-8.67h6.673000000000014l.041-.001.041-.001.041-.002.041-.002.041-.002.041-.002.041-.003.043-.004.041-.004.041-.004.041-.006.041-.005.043-.006.041-.006.041-.007.041-.008.041-.008.041-.008.021-.009.041-.009.042-.012.041-.01.041-.011.042-.011.041-.014.041-.012.041-.014.041-.014.042-.016.041-.015.041-.017.041-.018.041-.018.042-.019.041-.021.041-.02.041-.021.041-.021.041-.023.042-.022.04-.024.043-.026.041-.027.041-.028.041-.029.041-.032.041-.033.041-.034.041-.035.043-.039.041-.039.041-.043.041-.045.041-.049.043-.052.041-.056.041-.061.041-.064.041-.073.041-.081.041-.093.041-.11.041-.14.041-.214.019-.274-.019-.266-.041-.207-.041-.136-.041-.105-.041-.09-.041-.079-.041-.069-.041-.062-.041-.059-.041-.054-.043-.049-.041-.047-.041-.044-.041-.041-.041-.039-.043-.037-.041-.035-.041-.034-.041-.03-.041-.03-.041-.029-.041-.028-.041-.025-.043-.025-.04-.023-.042-.023-.041-.021-.041-.021-.041-.021-.041-.02-.041-.02-.042-.018-.041-.017-.041-.017-.041-.017-.041-.015-.042-.015-.041-.014-.041-.013-.041-.014-.041-.012-.042-.012-.041-.012-.041-.01-.042-.01-.041-.009-.042-.009-.041-.008-.041-.009-.041-.007-.041-.007-.041-.007-.042-.006-.041-.006-.042-.004-.041-.005-.041-.004-.042-.002-.041-.003-.038-.003v-.05l.038-.004.041-.008.042-.007.041-.008.041-.009.042-.01.041-.008.042-.011.041-.011.041-.012.041-.012.041-.014.041-.014.042-.014.041-.016.042-.016.041-.017.041-.018.042-.018.041-.02.041-.021.041-.021.041-.022.042-.023.041-.024.041-.026.041-.027.041-.028.042-.03.041-.032.041-.033.041-.036.041-.037.041-.04.042-.042.04-.045.043-.047.041-.051.041-.055.041-.06.041-.065.041-.072.041-.082.041-.094.043-.112.041-.145.041-.243.011-.198-.011-.206-.041-.248-.041-.146-.043-.112-.041-.093-.041-.08-.041-.07-.041-.064-.041-.058-.041-.053-.041-.049-.043-.046-.04-.043-.042-.04-.041-.038-.041-.036-.041-.034-.041-.033-.041-.03-.042-.029-.041-.027-.041-.026-.041-.025-.041-.024-.042-.022-.041-.021-.041-.021-.041-.02-.041-.019-.042-.017-.041-.018-.041-.017-.042-.015-.041-.015-.042-.014-.041-.014-.041-.012-.041-.013-.041-.012-.041-.01-.042-.011-.041-.01-.042-.009-.041-.008-.041-.008-.042-.008-.041-.007-.041-.007-.041-.006-.037.003-.042-.005-.041-.005-.041-.004-.041-.005-.041-.003-.041-.003-.041-.003-.041-.002-.017-.001-.024-.002-.041-.002-.043-.002-.041-.002-.041-.002-.041-.002-.041-.001-.041-.001-.041-.001h-6.080000000000008v-4.416c0-.297.03-.587.088-.867l.043-.179.041-.15.041-.132.041-.12.041-.109.041-.101.041-.094.041-.088.043-.083.041-.079.041-.075.041-.072.041-.068.041-.066.041-.063.041-.061.043-.059.041-.057.041-.054.041-.054.041-.051.041-.049.041-.049.041-.046.041-.046.041-.044.041-.043.041-.042.043-.041.041-.04.041-.038.041-.038.041-.036.043-.036.041-.035.04-.034.041-.033.041-.032.041-.032.041-.03.041-.03.041-.029.041-.029.042-.028.041-.026.042-.027.041-.026.041-.025.042-.024.041-.024.041-.023.041-.022.041-.022.042-.021.041-.021.041-.021.041-.02.041-.02.041-.019.042-.018.041-.018.041-.017.041-.017.042-.016.041-.016.041-.015.041-.014.042-.015.041-.014.042-.013.041-.013.042-.012.041-.012.041-.012.042-.011.041-.011.041-.01.041-.01.041-.009.042-.009.041-.008.041-.008.041-.008.041-.006.041-.007.041-.006.041-.006.043-.005.041-.005.041-.004.041-.004.041-.004.041-.004.043-.002.041-.003.041-.002.041-.001.041-.001.041-.002h6.328000000000012v21.26zm-8.399-7.987v-.004h2.468999999999998l.041.002.041.004.041.004.041.002.041.006.041.006.024.004.017.004.042.01.041.012.041.015.041.017.041.018.042.02.041.021.041.023.041.027.041.029.042.031.041.037.042.039.041.045.042.049.031.06.041.065.041.076.041.098.041.139.029.262-.029.262-.041.139-.041.098-.041.077-.041.065-.041.056-.043.05-.041.045-.041.039-.041.036-.043.032-.041.029-.041.025-.041.024-.041.022-.041.02-.041.018-.041.016-.041.015-.041.012-.042.011-.017.004-.024.004-.041.007-.041.005-.041.004-.041.003-.041.003-.041.002h-2.478999999999998v-2.244h.02zm-.02-1.265v-2.073h2.2879999999999985l.041.002.041.003.041.004.041.004.031.004.01.002.041.009.041.01.042.011.041.014.041.015.041.018.041.02.042.021.041.024.041.027.041.03.042.033.041.037.041.041.041.046.041.053.041.062.042.074.041.095.041.139.025.239-.025.239-.041.14-.041.094-.042.074-.041.062-.041.053-.041.046-.041.041-.041.037-.042.033-.041.03-.041.026-.041.024-.042.021-.041.02-.041.017-.041.016-.041.013-.042.012-.041.01-.041.008-.01.002-.031.004-.041.004-.041.004-.041.003-.041.002-.041.001h-2.2469999999999986z"/></svg>