<svg xmlns="http://www.w3.org/2000/svg" viewBox="0 0 56.48 56.48" enable-background="new 0 0 56.48 56.48"><path d="M15.812 26.817l-.868-2.451-.02-.058-.012.028-.865 2.439-.859 2.427c-.007.016.08.018 1.733.018.957 0 1.74-.002 1.74-.006l-.849-2.397zM35.997 27.844c-.364-.932-1.084-1.639-1.989-1.955l-.11-.034c-.025 0-.109.386-.142.651-.017.133-.017.641 0 .776.088.71.332 1.306.752 1.833.09.117.314.346.424.438.312.268.634.453 1.024.592l.124.037.031-.082.055-.243c.137-.67.075-1.388-.169-2.013zM55.026 9.939h-53.572c-.804 0-1.454.651-1.454 1.454v33.695c0 .803.65 1.454 1.454 1.454h53.572c.804 0 1.454-.651 1.454-1.454v-33.695c0-.803-.65-1.454-1.454-1.454zm-33.222 23.748l-.002.788h-4.82l-.002-.788-.002-.787h.494l.493-.011c0-.006-.499-1.42-.586-1.659l-.02-.056-2.435.002-2.435.002-.304.857-.303.857.526.003.526.003v1.58h-4.504v-1.578h1.072l.043-.123c.193-.539 3.303-9.331 3.303-9.337l-.668-.011-.668-.003v-1.572l2.684-.003 2.684-.002 1.959 5.522 1.959 5.521.505.004.505.003-.004.788zm13.626.479c-.627.303-1.293.48-2.013.536-.144.013-.643.011-.796-.001-1.205-.091-2.346-.568-3.253-1.363l-.12-.111-.044-.038-.024-.02-.111.124c-.337.372-.798.711-1.295.95-.805.388-1.694.531-2.625.425-1.268-.144-2.223-.755-2.697-1.724-.209-.429-.331-.927-.364-1.496-.006-.103-.01-1.166-.01-2.829v-2.666h-1.888l.002-.989.002-.989.941-.003.941-.002.002-1.062.002-1.062h2.578l.002 1.062.002 1.062 1.43.002 1.43.003.002.989.002.989h-2.866v2.551c0 2.78-.002 2.661.054 2.909.113.506.413.91.827 1.118.356.179.785.206 1.279.081.375-.095.769-.299 1.085-.563l.235-.224-.076-.16c-.325-.644-.515-1.313-.582-2.041-.02-.214-.022-.698-.005-.892.072-.81.271-1.494.637-2.19.603-1.146 1.635-2.076 2.833-2.556l.36-.13-.041.075c-.357.594-.666 1.816-.721 2.869l-.012.2-.064.092c-.332.469-.543 1.023-.621 1.625-.024.189-.024.672 0 .862.082.644.311 1.216.685 1.714.474.629 1.153 1.066 1.89 1.213.242.049.301.055.613.053.253 0 .311-.002.426-.021.422-.065.768-.19 1.137-.409l.143-.09.023-.02-.053-.021c-.109-.047-.488-.241-.613-.315-.742-.445-1.35-1.027-1.822-1.748-1.067-1.625-1.2-3.715-.348-5.463l.178-.34c.086-.15.303-.483.332-.509.045-.039.714-.054 1.058-.023.847.075 1.615.319 2.335.739 1.262.737 2.191 1.946 2.57 3.345.145.535.199.99.189 1.567-.008.486-.054.827-.17 1.283-.403 1.578-1.504 2.913-2.991 3.632zm12.547-2.598c-.282 1.422-1.4 2.461-3.127 2.907-.711.185-1.443.256-2.321.226-1.302-.047-2.501-.308-3.621-.783-.164-.069-.683-.321-.715-.35l.08-.156c.304-.457.677-1.092.92-1.563l.118-.224.125.05c.861.344 1.811.599 2.658.713.367.049.496.057.914.057.324 0 .418-.002.532-.016.435-.056.775-.15 1.077-.301.395-.199.637-.451.721-.752.026-.093.024-.382-.002-.508-.072-.329-.272-.568-.688-.818-.13-.078-.376-.201-.556-.278-.289-.124-.528-.207-1.343-.47-1.903-.613-2.86-1.18-3.411-2.014-.32-.481-.484-1.098-.484-1.813 0-.787.234-1.479.697-2.059.106-.134.379-.407.516-.518.549-.444 1.25-.767 2.07-.951 1.092-.246 2.289-.235 3.875.032.551.093 1.358.264 1.369.289.004.012-.131 3.454-.137 3.46l-1.979-.036.002-.861.008-.861-.109-.021c-.568-.106-1.373-.125-1.953-.044-.824.115-1.418.43-1.641.872-.145.287-.148.599-.012.868.261.516 1.078.977 2.606 1.47 1.164.376 1.937.708 2.494 1.074.665.437 1.056.929 1.252 1.579.158.516.182 1.211.065 1.8z"/></svg>