<svg xmlns="http://www.w3.org/2000/svg" viewBox="0 0 56.48 56.48" enable-background="new 0 0 56.48 56.48"><path d="M55.026 9.939h-53.572c-.804 0-1.454.651-1.454 1.454v33.695c0 .803.65 1.454 1.454 1.454h53.572c.804 0 1.454-.651 1.454-1.454v-33.695c0-.802-.65-1.454-1.454-1.454zm-39.506 31.211c-.477.423-1.11.654-1.782.654h-.007c-.71 0-1.393-.274-1.874-.754-.429-.429-.667-.983-.667-1.566h.72c0 .39.161.766.455 1.059.347.346.845.545 1.366.545h.006c1.003 0 1.82-.703 1.82-1.565-.001-.646-.359-1.16-2.101-1.563-.708-.165-1.186-.384-1.504-.691-.339-.326-.504-.766-.504-1.334 0-1.127 1.01-2.043 2.25-2.043.595 0 1.155.203 1.579.576.438.383.68.9.68 1.457h-.72c0-.725-.689-1.314-1.539-1.314-.831 0-1.532.605-1.532 1.324 0 .656.225 1.041 1.453 1.324 1.313.306 2.654.811 2.657 2.265 0 .616-.268 1.194-.756 1.626zm7.375 2.699h-.695v-3.149h-.02c-.467.715-1.271 1.082-2.116 1.082-1.628 0-2.92-1.223-2.92-2.859 0-1.629 1.323-2.841 2.92-2.841.845 0 1.649.367 2.116 1.093h.021v-.956h.694v7.63zm5.395-2.188v-.848h-.02c-.319.669-1.027.979-1.746.979-.709 0-1.427-.251-1.876-.819-.389-.487-.479-1.146-.479-1.756v-3.014h.697v3.004c0 1.128.41 1.956 1.658 1.956.459 0 .817-.12 1.157-.438.479-.459.568-.998.568-1.637v-2.885h.699l.001 5.458h-.659zm7.414-.008h-.694v-.953h-.021c-.476.715-1.271 1.082-2.115 1.082-1.629 0-2.92-1.223-2.92-2.859 0-1.629 1.322-2.841 2.92-2.841.854 0 1.649.357 2.115 1.093h.021v-.956h.694v5.434zm-1.245-10.364h-12.437c-1.71 0-3.11-1.398-3.11-3.109v-12.438c0-1.71 1.399-3.109 3.11-3.109h12.437c1.711 0 3.109 1.399 3.109 3.109v12.438c.001 1.71-1.398 3.109-3.109 3.109zm4.877 5.528c-.953.079-1.549.685-1.549 1.657v3.181h-.695v-5.435h.695v.785h.02c.297-.697.824-.875 1.529-.924v.736zm5.943 2.373h-4.946c.05 1.072 1.044 1.967 2.106 1.967.834 0 1.648-.477 1.947-1.282h.733c-.396 1.134-1.469 1.907-2.671 1.907-1.57 0-2.831-1.281-2.831-2.841 0-1.55 1.261-2.859 2.821-2.859 1.59 0 2.851 1.341 2.851 2.91l-.01.198zM32.873 36.708c-1.291 0-2.225.964-2.225 2.245 0 1.271.953 2.205 2.225 2.205 1.232 0 2.174-1.004 2.174-2.216 0-1.213-.942-2.234-2.174-2.234zM42.449 36.708c-1.083 0-1.947.794-2.116 1.857h4.241c-.179-1.065-1.032-1.857-2.125-1.857zM33.188 16.026h-9.894c-.544 0-.989.444-.989.988v9.893c0 .544.445.989.989.989h9.894c.543 0 .988-.445.988-.989v-9.893c0-.545-.445-.988-.988-.988zm-2.404 7.913c0 .311-.254.565-.565.565h-3.957c-.312 0-.565-.255-.565-.565v-3.957c0-.311.253-.565.565-.565h3.957c.312 0 .565.255.565.565v3.957zM20.064 36.708c-1.292 0-2.224.964-2.224 2.245 0 1.271.953 2.205 2.224 2.205 1.233 0 2.176-1.004 2.176-2.216 0-1.213-.943-2.234-2.176-2.234z"/></svg>