<svg xmlns="http://www.w3.org/2000/svg" viewBox="0 0 56.48 56.48" enable-background="new 0 0 56.48 56.48"><path d="M55.026 9.939h-53.572c-.804 0-1.454.651-1.454 1.454v33.695c0 .803.65 1.454 1.454 1.454h53.572c.804 0 1.454-.651 1.454-1.454v-33.695c0-.803-.65-1.454-1.454-1.454zm-2.842 16.315l-.779.703-.703-.781.78-.703.702.781zm-4.012-.681l-1.055-1.172 1.172-1.055 1.055 1.172-1.172 1.055zm1.196.129l1.056 1.171-1.172 1.055-1.055-1.171 1.171-1.055zm-2.149-.388l-1.562 1.406-1.405-1.562 1.562-1.406 1.405 1.562zm-.289 1.103l1.406 1.562-1.562 1.405-1.406-1.562 1.562-1.405zm1.111 2.7l1.406 1.562-1.562 1.408-1.406-1.562 1.562-1.408zm1.157.115l1.172-1.056 1.056 1.172-1.172 1.055-1.056-1.171zm1.99-5.3l-.781.703-.703-.781.781-.703.703.781zm-42.998 6.914h-.81l-1.019-3.739h-.053l-.989 3.739h-.81l-1.214-5.312h.84l.839 3.964h.053l.974-3.964h.667l1.042 3.964h.053l.765-3.964h.877l-1.215 5.312zm4.648-1.729h-2.442c0 .898.367 1.297 1.139 1.297.404 0 .779-.143 1.191-.39v.569c-.337.194-.787.345-1.326.345-1.259 0-1.776-.779-1.776-1.964 0-1.139.577-1.962 1.701-1.962.937 0 1.514.607 1.514 1.83l-.001.275zm2.143 1.82c-.397 0-1.012-.128-1.462-.367v-5.23l.779-.187v2.136c.226-.12.607-.277 1.013-.277.929 0 1.431.645 1.431 1.844 0 1.401-.674 2.081-1.761 2.081zm7.743-.091h-.811v-3.852h-.067l-1.529 3.852h-.479l-1.529-3.762h-.067v3.762h-.674v-5.312h.906l1.679 4.189h.038l1.604-4.189h.929v5.312zm2.532.091c-1.026 0-1.709-.683-1.709-1.964 0-1.312.72-1.962 1.709-1.962.989 0 1.709.652 1.709 1.962 0 1.284-.682 1.964-1.709 1.964zm5.568-.091h-.779v-2.541c0-.591-.291-.696-.675-.696-.3 0-.682.135-.914.27v2.967h-.779v-3.282c.337-.202 1.049-.554 1.911-.554.899 0 1.236.352 1.236 1.124v2.712zm3.912-1.729h-2.443c0 .898.367 1.297 1.141 1.297.404 0 .779-.143 1.19-.39v.569c-.338.194-.786.345-1.327.345-1.259 0-1.774-.779-1.774-1.964 0-1.139.577-1.962 1.7-1.962.938 0 1.515.607 1.515 1.83l-.002.275zm2.36 1.768c-.375 1.033-.832 1.573-1.692 1.573v-.614c.51 0 .823-.404 1.004-.959l-1.438-3.748h.824l.959 2.758h.045l.854-2.758h.802l-1.358 3.748zm12.707 3.067c-.955.545-2.062.856-3.237.856-3.617 0-6.568-2.95-6.568-6.567s2.951-6.568 6.568-6.568c1.03 0 2.008.24 2.878.666l.408.215-.604.541-.908-.939-1.533 1.368-.909-.994-2.857 2.574 1.831 2.019-.72.632 1.804 2.021-.716.632 2.578 2.869 1.528-1.408 1.322 1.51c-.262.202-.548.394-.865.573zm1.481-1.184l-1.056-1.17 1.172-1.056 1.055 1.171-1.171 1.055zm1.118-3.492l-.703-.781.781-.703.703.781-.781.703zM25.256 27.536c-.494 0-.922.426-.922 1.438 0 1.027.39 1.439.922 1.439s.922-.412.922-1.439c0-1.013-.413-1.438-.922-1.438zM15.108 27.596c-.298 0-.516.082-.816.247v2.451c.24.105.501.12.689.12.555 0 .975-.345.975-1.559 0-.952-.346-1.259-.848-1.259zM33.2 27.513c-.458 0-.81.352-.894 1.101h1.718c-.037-.786-.42-1.101-.824-1.101zM11.302 27.513c-.457 0-.81.352-.892 1.101h1.716c-.037-.786-.419-1.101-.824-1.101z"/></svg>