<svg xmlns="http://www.w3.org/2000/svg" viewBox="0 0 56.48 56.48" enable-background="new 0 0 56.48 56.48"><path d="M35.053 26.252c-.584-.001-.969.407-.845.898.097.386.582.618 1.082.521.415-.082.632-.378.583-.796-.043-.373-.371-.623-.82-.623zM44.948 24.544c-.442-.172-.871-.138-1.247.141-.384.284-.643.659-.635 1.216.657-.404 1.276-.783 1.892-1.167.087-.054.144-.128-.01-.19zM55.026 9.939h-53.572c-.804 0-1.454.651-1.454 1.454v33.695c0 .803.65 1.454 1.454 1.454h53.572c.804 0 1.454-.651 1.454-1.454v-33.695c0-.802-.65-1.454-1.454-1.454zm-13.405 14.8c.43-.902 1.104-1.494 2.069-1.749.25-.066.507-.051.772-.063 1.164-.028 1.99.553 2.604 1.5.123.189.113.336-.109.474-1.049.646-2.084 1.315-3.135 1.957-.247.151-.182.204.014.313.565.316 1.104.172 1.641-.075l.214-.118c.396-.231.394-.23.637.15.164.256.332.51.504.761.103.148.118.252-.06.374-1.219.83-2.74 1.045-4.051.222-1.209-.762-1.713-2.459-1.1-3.746zm-2.902-3.263c0-.173.058-.232.231-.229.438.011.879.014 1.317-.001.211-.007.275.052.273.27-.011 1.197-.005 2.394-.005 3.59 0 1.187-.006 2.373.005 3.56.002.215-.057.282-.271.275-.438-.014-.879-.01-1.318 0-.168.004-.234-.045-.234-.225.006-2.412.006-4.826.002-7.24zm-5.703 4.188c.654-.655 1.92-.897 2.813-.229.122-.598-.116-.957-.708-1.056-.57-.096-1.091.092-1.607.294l-.357.152.301-1.435c.021-.106.04-.183.172-.213.81-.184 1.619-.352 2.453-.174.982.21 1.514.859 1.516 1.863.004 1.248-.012 2.497.011 3.745.005.299-.108.339-.353.323-.297-.021-.595-.03-.891-.021-.25.009-.477.021-.428-.341-1.404.626-2.479.48-3.102-.4-.541-.771-.465-1.86.18-2.508zm-10.63-2.527c.409.009.819.017 1.229-.003.232-.011.317.059.285.289l-.003.417c.489-.656 1.074-.896 1.793-.846.164.011.242.028.172.227-.165.472-.31.951-.456 1.429-.042.141-.099.175-.257.161-.712-.058-1.129.297-1.204 1.002-.099.929-.035 1.861-.038 2.792-.001.265-.077.328-.327.313-.398-.021-.799-.014-1.198-.002-.181.007-.25-.036-.249-.233.005-1.772.006-3.544-.001-5.314-.001-.205.081-.236.254-.232zm-16.988 4.155l.034-.083c.412.149.827.293 1.235.453.129.05.073.189.1.354l-1.369-.724zm4.9 7.026c-.518-.626-1.019-1.27-1.453-1.958-.044-.069-.801-1.376-.801-1.431-.018-.015-.734-1.621-.725-1.658-.259-.779-.436-1.579-.457-2.398-.031-1.192.239-2.297 1.189-3.107.675-.576 1.5-.692 2.361-.605.805.082 1.544.358 2.238.765l.056.024c1.028.582 3.039 2.605 3.039 2.605s-1.693-1.025-2.315-1.333c-.16-.079-1.359-.64-1.641-.728-.828-.259-1.662-.431-2.506-.086-.582.239-.941.694-1.115 1.289-.251.853-.115 1.699.071 2.54.087.387.156.83.597 2.077l.002.002c.442 1.057.872 2.119 1.394 3.141.291.57.589 1.139.921 1.778-.378-.29-.607-.618-.855-.917zm7.908-6.074c-.16 1.26-1.029 2.057-2.391 2.258-1.306.193-2.567-.053-3.817-.387-1.077-.287-2.11-.701-3.144-1.119-.102-.042-.192-.097-.242-.158-.108-.139-.125-.479-.125-.479l-.006-.046s1.738.424 2.498.623c1.208.315 2.426.586 3.686.57.439-.007.878-.053 1.302-.183.841-.255 1.258-.97 1.067-1.832-.166-.751-.593-1.361-1.065-1.944-1.479-1.821-3.389-2.891-5.701-3.239-1.811-.273-3.437.234-4.948 1.21-.83.536-1.551 1.199-2.242 1.897l-.059.046-.003-.091c1.33-2.02 3.085-3.445 5.509-3.933 1.712-.344 3.332-.023 4.894.692 1.831.84 3.283 2.103 4.256 3.879.376.692.632 1.437.531 2.236zm7.282 5.685c-.751.681-1.707.654-2.582-.11 0 .422-.007.788.003 1.153.004.158-.043.205-.205.211-.632.02-.631.025-.631-.615 0-1.249.01-2.497-.006-3.746-.003-.262.074-.331.323-.328.483.007.483-.006.527.521.471-.543 1.045-.696 1.697-.558.456.099.828.335 1.104.72.601.836.497 2.096-.23 2.752zm.801-8.958c.402-1.229 1.583-2.06 3.131-2.063.987.026 1.853.586 2.451 1.593.104.171.073.254-.1.36-1.061.654-2.112 1.323-3.167 1.988-.075.048-.205.072-.199.168.006.105.135.135.227.175.706.309 1.346.111 1.932-.295.22-.153.304-.13.429.082.197.333.42.651.632.977.059.09.116.169-.012.256-1.283.856-2.793 1.188-4.235.189-1.094-.753-1.516-2.125-1.089-3.43zm3.219 9.373h-.151c-.274.028-.487-.006-.343-.435-.899.613-1.662.622-2.213.079-.451-.443-.534-1.18-.193-1.723.412-.654 1.094-.742 2.273-.295.094-.551-.132-.862-.672-.928-.352-.041-.691.012-1.026.119-.103.032-.202.098-.353.064l.138-.553c.025-.112.109-.144.2-.16.533-.098 1.064-.191 1.61-.075.623.133.996.569.999 1.209.004.808-.007 1.616.006 2.423.002.22-.06.306-.275.275zm4.174-3.36c-.547 1.277-1.104 2.551-1.635 3.834-.115.279-.248.388-.558.37-.522-.031-.522-.009-.308-.479.412-.893.41-.891-.039-1.785-.396-.785-.778-1.572-1.185-2.394.89-.078.89-.078 1.23.678.259.577.515 1.156.782 1.761.148-.211.207-.438.295-.647.203-.491.414-.979.588-1.481.095-.271.236-.354.516-.334.511.032.513.016.314.477zm5.509 3.365c-.551-.004-.549.007-.551-.551-.002-.646.002-1.291-.01-1.936-.006-.385-.174-.62-.453-.68-.332-.071-.627.095-.791.438-.08.17-.11.349-.11.535-.001.635-.011 1.271-.001 1.903.003.199-.029.291-.262.289-.567-.006-.567.007-.567-.566l-.001-1.936c-.001-.383-.154-.606-.451-.67-.311-.066-.598.08-.758.388-.127.243-.154.507-.155.774-.003.572-.009 1.146.003 1.719.006.203-.035.287-.263.287-.552.002-.552.016-.552-.539 0-1.004.007-2.008-.006-3.01-.004-.224.043-.334.283-.291h.092c.271-.027.521-.023.447.441.641-.77 1.696-.678 2.098.07.328-.512.795-.678 1.371-.596.373.053.612.258.752.596.119.289.154.595.156.901.004.718-.008 1.435.006 2.15.005.226-.065.284-.277.284zm4.364-2.777c-.758.484-1.508.98-2.273 1.45-.253.155-.189.25-.012.394.459.367 1.117.354 1.627-.096.229-.201.341-.166.527.033.284.309.308.305-.024.562-.736.567-1.55.685-2.388.277-.762-.37-1.112-1.025-1.088-1.871.031-1.099.896-1.896 2.129-1.894.627-.014 1.142.358 1.586.875.136.158.023.2-.084.27zm3.897 2.618c.002.098-.036.155-.144.149l-.092.004c-.609.027-.609.027-.609-.576v-1.811c0-.514-.155-.742-.532-.791-.46-.057-.856.217-.955.668-.028.129-.034.264-.034.396-.004.623-.009 1.248.002 1.871.004.186-.043.246-.238.246-.6.004-.6.015-.6-.594 0-.981.008-1.964-.005-2.947-.003-.229.04-.353.295-.311h.123c.315-.049.509.031.418.436.293-.325.618-.483 1.015-.521.703-.066 1.215.287 1.307.989.117.927.029 1.86.049 2.792zm2.597-.292c-.063.48-.058.48-.551.478-.758-.006-1.171-.396-1.215-1.163-.018-.307-.002-.613-.002-.922h-.005v-.92c0-.094.011-.197-.134-.182-.264.027-.209-.164-.202-.305.007-.149-.099-.381.21-.361.117.008.13-.065.126-.156v-.275c0-.451 0-.455.448-.451.463.004.398-.059.402.41.004.477 0 .477.489.478.313.001.492.31.341.589-.064.119-.181.066-.275.068-.555.008-.555.005-.555.565 0 .408-.005.818.002 1.228.008.472.221.69.682.65.251-.023.262.071.239.269zm2.722.304c-.271.159-.567.224-.885.224-.392-.004-.758-.115-1.115-.275-.152-.069-.176-.146-.088-.277l.015-.027c.196-.42.198-.424.625-.258.289.112.571.135.858-.003.172-.081.273-.202.281-.399.006-.196-.113-.312-.266-.377-.232-.101-.479-.17-.721-.25-.603-.201-.828-.49-.807-1.033.021-.523.387-.955.934-1.07.516-.109 1.013-.04 1.492.188.158.074.195.15.107.301l-.109.252c-.052.156-.123.164-.271.097-.299-.136-.613-.229-.947-.108-.186.065-.326.175-.342.387-.018.216.135.307.303.372l.832.306c.424.16.674.462.688.92.015.448-.188.797-.584 1.03zm.698-5.327c-.045.069-.146.063-.228.062l-1.688-.031c-.129-.002-.199-.063-.262-.172-.26-.447-.529-.89-.811-1.36-.254.236-.411.535-.541.825-.254.567-.629.81-1.26.717-.371-.055-.756-.011-1.135-.013l-.127-.014c-.021-.131.067-.207.129-.293.58-.818 1.155-1.642 1.746-2.453.139-.189.127-.317-.006-.503-.538-.747-1.059-1.507-1.584-2.264-.038-.055-.107-.113-.064-.189.043-.073.129-.05.197-.05.531-.002 1.063.006 1.596-.002.185-.003.279.096.36.233l.536.888c.112.179.221.267.366.01.181-.317.397-.612.587-.926.091-.15.204-.208.376-.206l1.474.006c.075 0 .182-.031.225.056.047.095-.034.167-.088.241-.389.534-.789 1.059-1.133 1.622l-.063.087.001-.006c-.221.172-.331.428-.501.639-.093.113-.056.229.076.303v-.002l.002.003-.002-.001c.011.083.034.157.128.185.499.813 1.059 1.587 1.602 2.372.049.069.159.134.092.236zM24.078 31.185c-.655.003-1.18.554-1.18 1.242 0 .67.518 1.211 1.165 1.215.688.005 1.23-.541 1.222-1.229-.008-.668-.56-1.231-1.207-1.228zM28.059 32.273c-.483.001-.842.317-.844.739-.003.435.36.75.865.752.509.002.855-.303.853-.75-.003-.431-.37-.743-.874-.741zM41.361 31.275c-.424.24-.635.621-.639 1.111 0 .144.027.223.188.119.565-.367 1.131-.727 1.735-1.113-.445-.301-.863-.356-1.284-.117zM28.457 24.687c-.406.276-.654.794-.591 1.188l2.011-1.255c-.527-.224-.989-.225-1.42.067z"/></svg>