<svg xmlns="http://www.w3.org/2000/svg" viewBox="0 0 56.48 56.48" enable-background="new 0 0 56.48 56.48"><path d="M20.006 38.575c-.177 0-.354.069-.483.181-.209.188-.248.426-.248.656 0 .531.263 1.405.913 1.405.209 0 .423-.103.547-.274.128-.171.161-.386.161-.595.001-.472-.225-1.373-.89-1.373zM55.026 9.939h-53.572c-.804 0-1.454.651-1.454 1.454v33.694c0 .803.65 1.455 1.454 1.455h53.572c.804 0 1.454-.651 1.454-1.454v-33.695c0-.803-.65-1.454-1.454-1.454zm-32.209 7.745c.098-.261.238-.513.472-.76.236-.249.497-.382.742-.48.24-.096.41-.137.743-.137.401 0 .796.126 1.125.341.194.127.367.286.512.476l.127.182c1.289 2.131 1.971 4.581 1.971 7.083 0 .299-.009.597-.029.893-.142 2.195-.809 4.324-1.951 6.205-.38.625-1.045.998-1.776.998-.204 0-.406-.032-.601-.091-.165-.051-.325-.12-.475-.211-.583-.353-.926-.95-.986-1.582-.035-.373.029-.755.204-1.109l.086-.159c.901-1.485 1.378-3.194 1.378-4.943 0-.367-.026-.731-.068-1.093-.156-1.359-.582-2.678-1.305-3.841-.345-.553-.368-1.246-.169-1.772zm-6.204 2.248c.344-.643 1.009-1.041 1.74-1.041.322 0 .642.081.928.233 1.873 1.004 3.527 2.438 4.715 4.076.042.362.067.726.067 1.093 0 1.748-.475 3.458-1.378 4.943l-.086.158c-.175.353-.237.724-.204 1.104v.003c-.221-3.408-2.085-6.357-4.975-7.903-.958-.515-1.321-1.71-.807-2.666zm1.856 19.929l-.051.08-.008.241v.613l-.72.165c-.292.046-.554.086-.83.086-1.388 0-1.917-1.02-1.917-1.819 0-.978.75-1.883 2.033-1.883.271 0 .533.041.77.105.377.105.554.236.665.312l-.418.396-.176.041.126-.201c-.171-.167-.484-.474-1.078-.474-.794 0-1.392.604-1.392 1.483 0 .945.683 1.836 1.78 1.836.322 0 .489-.064.638-.125v-.811l-.76.041.403-.216h1.066l-.131.13zm1.597 1.117c-.853 0-1.309-.664-1.309-1.266 0-.703.574-1.304 1.39-1.304.787 0 1.281.618 1.281 1.267 0 .632-.488 1.303-1.362 1.303zm2.854 0c-.853 0-1.309-.664-1.309-1.266 0-.703.574-1.304 1.389-1.304.788 0 1.283.618 1.283 1.267 0 .632-.489 1.303-1.363 1.303zm3.7-1.58c0 .397-.225.585-.45.762-.069.069-.15.145-.15.264 0 .116.081.181.14.229l.193.149c.236.199.45.381.45.752 0 .504-.488 1.014-1.41 1.014-.778 0-1.153-.372-1.153-.768 0-.193.095-.468.413-.656.333-.203.783-.23 1.024-.246-.075-.097-.161-.198-.161-.365l.054-.209-.171.011c-.569 0-.891-.424-.891-.842 0-.247.113-.523.344-.72.306-.254.67-.295.96-.295h1.105l-.344.193h-.332c.123.102.379.316.379.727zm1.38 1.51h-.949c.123-.16.144-.177.144-.283v-.875c0-.418.006-1.014.022-1.572l.031-.863h-.417l.402-.193h.767c-.166.095-.22.129-.241.317-.044.413-.049 1.067-.049 1.829v1.24c0 .209.037.241.214.256l.274.028-.198.116zm2.088-.117l-.178.096c-.176.083-.359.104-.521.104-.169 0-.438-.011-.711-.209-.382-.27-.547-.731-.547-1.132 0-.833.676-1.24 1.228-1.24.193 0 .392.047.552.151.268.176.338.406.375.531l-1.261.508-.412.033c.132.682.593 1.078 1.104 1.078.273 0 .472-.096.654-.188l-.283.268zm.546-8.979c-.088.225-.15.484-.16.73v-.705c0-2.349-.564-4.587-1.599-6.556.019-.297.029-.595.029-.893 0-2.502-.682-4.951-1.972-7.083l-.128-.182c-.148-.191-.289-.317-.456-.438l-.03-.02c2.409 1.492 4.468 3.523 5.888 5.796.044.406.105 1.048.105 1.928 0 2.56-.549 5.023-1.635 7.318l-.042.105zm3.114 9.097h-.382l-.48-2.169-.492 2.169h-.383l-.557-2.431h.301l.457 2.18.478-2.18h.388l.481 2.18.447-2.18h.295l-.553 2.431zm2.36-.003l-.034-.256c-.116.17-.388.311-.642.311-.448 0-.799-.27-.799-.812 0-.498.355-.773.863-.773.245 0 .446.044.577.105v-.262c0-.397-.176-.547-.577-.547-.313 0-.497.172-.543.452l-.271-.04c.056-.395.367-.662.824-.662.536 0 .838.231.838.769v1.239c0 .211.016.357.045.478l-.281-.002zm.036-10.485c-.381 1.381-.82 2.453-1.254 3.268-.381.692-1.116 1.13-1.912 1.13-.323 0-.633-.07-.93-.21-.644-.308-1.046-.869-1.188-1.486-.041-.176-.056-.373-.056-.505 0-.469.19-.875.207-.91 1.086-2.295 1.636-4.758 1.636-7.318 0-2.561-.548-5.027-1.654-7.36-.515-1.082-.053-2.387 1.032-2.904.295-.14.612-.211.934-.211.838 0 1.61.488 1.971 1.243.672 1.413 1.188 2.903 1.537 4.428.352 1.554.539 3.182.539 4.804 0 1.64-.187 3.245-.541 4.803-.095.421-.195.812-.321 1.228zm1.03 10.488h-.275v-3.464h.275v3.464zm.863 0h-.275v-3.464h.275v3.464zm2.219-1.165h-1.481c0 .668.251.959.633.959.296 0 .512-.175.567-.632l.281.04c-.071.586-.407.854-.849.854-.577 0-.918-.422-.918-1.291 0-.777.291-1.25.89-1.25.627 0 .877.522.877 1.229v.091zm1.282 1.146c-.061.025-.171.046-.291.046-.362 0-.477-.18-.477-.527v-1.681h-.316v-.252h.316v-.783l.281-.11v.894h.486v.252h-.485v1.645c0 .232.045.296.239.296.097 0 .183-.02.247-.055v.275zM39.379 38.679c-.377 0-.584.316-.604.813h1.186v-.01c-.016-.451-.197-.803-.582-.803zM25.472 38.656c-.14 0-.29.07-.375.177-.09.113-.118.259-.118.398 0 .358.21.956.671.956.134 0 .28-.066.366-.151.123-.124.133-.295.133-.392 0-.387-.23-.988-.677-.988zM29.206 38.585c-.214 0-.616.168-.616.747l.016.284.976-.424c.102-.038.156-.07.156-.146 0-.215-.241-.461-.532-.461zM35.491 39.624c-.341 0-.582.17-.582.527 0 .376.226.557.538.557.275 0 .525-.2.627-.417v-.547c-.135-.064-.326-.12-.583-.12zM22.86 38.575c-.177 0-.353.069-.482.181-.209.188-.248.426-.248.656 0 .531.264 1.405.914 1.405.209 0 .422-.103.546-.274.129-.171.161-.386.161-.595 0-.472-.225-1.373-.891-1.373zM25.859 41.052l-.123-.006c-.049 0-.338.01-.563.086-.118.043-.462.172-.462.553s.37.654.944.654c.516 0 .79-.248.79-.58 0-.272-.178-.418-.586-.707z"/></svg>