<svg xmlns="http://www.w3.org/2000/svg" viewBox="0 0 56.48 56.48" enable-background="new 0 0 56.48 56.48"><path d="M7.885 27.307c-.446.03-.802.353-.875.791h1.838c-.06-.445-.51-.818-.963-.791zM6.946 27.007c.2-.167.439-.268.702-.314.623-.11 1.255.165 1.596.697.139.218.226.451.244.708h.632l-.004-.062c-.022-.297-.103-.578-.247-.834-.256-.457-.621-.793-1.11-.997-.35-.145-.71-.196-1.08-.151-.695.083-1.234.429-1.614 1.02-.294.456-.401.959-.313 1.49.137.835.605 1.431 1.398 1.729.828.313 1.587.148 2.261-.422.055-.047.057-.104.004-.148-.111-.097-.215-.199-.313-.308-.049-.052-.083-.045-.129-.001-.125.122-.273.206-.433.275-.561.244-1.267.119-1.7-.311-.354-.351-.517-.774-.477-1.275.036-.452.243-.814.583-1.096zM11.327 28.159l-.03-.323c-.13-.775-.486-1.436-1.059-1.967-.593-.548-1.319-.853-2.158-.905-.355-.022-.722.021-1.084.128-.959.282-1.678.879-2.136 1.775-.217.426-.335.888-.35 1.374h.539l.02-.254c.159-.969.667-1.692 1.512-2.149.415-.225.857-.339 1.315-.339.22 0 .446.026.674.078.527.12.991.378 1.379.765.345.344.591.752.729 1.212.068.222.108.454.119.687h.534l-.004-.082zM24.016 26.031c-.608-.099-1.224-.023-1.836-.039-.126-.004-.135.089-.135.183v.843l-.001.886c-.002.128.043.19.18.188.576-.021 1.152.035 1.727-.041.564-.074.944-.458.958-.985.013-.546-.312-.941-.893-1.035zM55.026 9.939h-53.572c-.804 0-1.454.651-1.454 1.454v33.694c0 .803.65 1.455 1.454 1.455h53.572c.804 0 1.454-.651 1.454-1.454v-33.695c0-.803-.65-1.454-1.454-1.454zm-42.779 22.039c0 .332-.268.6-.599.6h-7.475c-.331 0-.599-.268-.599-.6v-7.475c0-.331.268-.599.599-.599h7.475c.331 0 .599.268.599.599v7.475zm7.279-6.166c.004.163-.047.221-.214.218-.591-.008-1.184.007-1.775-.008-.231-.006-.284.074-.283.293.006 1.799.003 3.596.003 5.393 0 .311 0 .311-.303.313-.378.002-.755-.012-1.132.004-.23.011-.285-.079-.285-.297.007-1.797.004-3.594.004-5.393 0-.308-.001-.308-.303-.308-.577 0-1.155-.007-1.731.002-.2.004-.278-.061-.271-.267.012-.362.013-.726 0-1.087-.008-.21.078-.266.274-.265.962.007 1.924.003 2.885.003.947 0 1.894.006 2.841-.004.224-.002.3.067.29.292-.017.371-.012.741 0 1.111zm7.089 6.203c-.504.004-1.007-.004-1.51.005-.16.002-.257-.057-.343-.188l-1.359-2.027c-.087-.132-.186-.194-.345-.188-.258.011-.518.013-.776 0-.189-.008-.242.07-.239.248l.006 1.888c.003.205-.068.275-.27.269-.384-.011-.769-.002-1.154-.003-.324 0-.325-.002-.325-.318v-6.968999999999999c0-.316.001-.318.326-.318.998 0 1.997-.012 2.996.004.682.011 1.362.074 1.961.455.66.421.999 1.031 1.041 1.808.031.584-.013 1.154-.346 1.664-.253.391-.586.687-1.01.873-.169.072-.194.127-.086.283.524.752 1.04 1.51 1.555 2.268.044.064.134.127.085.212-.041.071-.136.037-.207.034zm7.722-2.95c-.027.944-.332 1.804-1.115 2.416-.461.358-.996.547-1.572.608-.721.075-1.433.056-2.118-.216-1.03-.41-1.541-1.217-1.727-2.271-.042-.233-.054-.469-.053-.705v-1.953c0-.754.006-1.509-.003-2.263-.003-.203.061-.276.265-.27.392.011.785.012 1.175-.001.22-.008.277.081.275.287-.006 1.36-.007 2.722 0 4.082 0 .484.088.949.445 1.31.502.506 1.113.543 1.747.344.581-.183.839-.644.935-1.213.037-.22.047-.439.047-.662-.004-1.279-.002-2.559-.002-3.838 0-.304.001-.305.312-.306.384 0 .769.006 1.154-.002.172-.003.252.045.252.237-.008 1.471.02 2.945-.017 4.416zm5.727 2.703c-.404.219-.847.305-1.3.339h-.332c-1.122-.017-2.135-.347-3.018-1.054-.149-.119-.176-.209-.046-.357.248-.284.49-.574.726-.868.104-.132.192-.147.328-.036.483.393 1.027.67 1.649.766.331.049.663.054.985-.061.256-.091.443-.24.465-.531.023-.316-.073-.472-.383-.629-.467-.235-.984-.319-1.478-.469-.473-.144-.948-.286-1.36-.579-.66-.47-.82-1.145-.754-1.899.11-1.263 1.138-1.912 2.148-2.031 1.143-.135 2.184.123 3.132.776.167.115.21.202.071.38-.23.298-.437.613-.646.928-.085.129-.156.142-.283.054-.442-.307-.924-.528-1.457-.622-.28-.049-.56-.043-.832.057-.257.096-.427.269-.438.554-.009.266.141.442.369.557.373.189.779.279 1.178.387.472.128.938.264 1.373.496.727.388 1.082.976 1.079 1.814-.003.918-.375 1.593-1.176 2.028zm5.375-5.459c.009 1.79.005 3.581.005 5.372 0 .34 0 .34-.347.34-.361.001-.725-.01-1.086.004-.211.007-.281-.064-.28-.279.007-1.805.004-3.609.003-5.415 0-.304 0-.304-.307-.304h-1.709c-.272-.001-.283-.012-.285-.293-.002-.354.009-.71-.002-1.064-.006-.194.064-.259.257-.258.962.006 1.924.002 2.885.002.954 0 1.908.005 2.862-.003.207-.002.293.056.285.276-.017.369-.012.739-.002 1.109.004.174-.064.235-.234.233-.584-.006-1.168.008-1.752-.006-.222-.006-.294.058-.293.286zm7.173 3.407c-.576-.011-1.153-.004-1.729-.004-.586 0-1.17.006-1.754-.002-.191-.003-.231.056-.162.235.23.596.891.928 1.588.794.358-.068.676-.213.941-.463.109-.105.184-.101.294.006.212.206.435.4.665.585.159.129.133.231.008.363-.461.483-1.028.77-1.683.868-.757.111-1.492.02-2.163-.371-.845-.491-1.306-1.248-1.406-2.211-.084-.802.055-1.568.534-2.237.689-.961 1.649-1.316 2.794-1.161 1.146.156 1.851.847 2.192 1.934.141.447.179.91.174 1.377-.003.206-.082.289-.293.287zM50.334 27.492c-.619-.144-1.269.215-1.441 1.004-.03.135.062.127.143.127l.996.001 1.041-.001c.081 0 .173.008.145-.126-.1-.437-.361-.883-.884-1.005z"/></svg>