<svg xmlns="http://www.w3.org/2000/svg" viewBox="0 0 56.48 56.48" enable-background="new 0 0 56.48 56.48"><path d="M23.647 25.25c-2.061 0-3.013 1.634-3.013 3.219 0 1.7 1.06 3.235 3.026 3.235 1.646 0 2.999-1.286 2.999-3.253 0-1.834-1.17-3.201-3.012-3.201zM13.911 25.193c-1.427 0-2.872.904-2.872 2.487h5.604c0-1.491-1.108-2.487-2.732-2.487zM55.026 9.939h-53.572c-.804 0-1.454.651-1.454 1.454v33.695c0 .803.65 1.454 1.454 1.454h53.572c.804 0 1.454-.651 1.454-1.454v-33.695c0-.803-.65-1.454-1.454-1.454zm-13.514 26.009h-2.172l1.721-3.261-3.661-6.872c.165.396.259.869.259 1.434v4.223c0 .488.07 1.252.07 1.252h-1.807s-.048-.615-.048-1.24c0 0-.917 1.572-3.761 1.572-2.087 0-3.632-1.006-3.632-2.854l.017-.309c-.539 1.902-2.164 3.138-4.36 3.138-2.575 0-3.522-1.481-3.522-1.481 0 .562-.069 1.174-.069 1.174h-1.917s.043-.854.043-1.463v-2.285h-7.679c0 1.615 1.228 2.769 2.934 2.769 2.096 0 2.526-1.471 2.526-1.471h2.01s-.266 2.731-4.414 2.731c-3.523 0-5.044-1.731-5.044-4.482 0-3.473 2.261-4.624 4.974-4.624 3.626 0 4.664 2.395 4.692 3.994v-7.357h1.961v4.834s.832-1.445 3.507-1.445c2.857 0 4.549 2.018 4.549 4.527 0 .312-.026.612-.073.899.457-1.305 2.058-1.95 4.697-1.95h2.382v-.42c0-1.181-1.04-1.795-2.382-1.795-2.065 0-2.171 1.305-2.171 1.305h-2.032c0-.357.262-2.592 4.343-2.592 1.395 0 2.921.293 3.694 1.447l-.585-1.097h2.287l3.279 6.572 3.273-6.572h2.07l-5.959 11.699zM30.512 30.203c0 .84.625 1.567 2.078 1.567 2.656 0 3.107-1.818 3.107-2.549v-.56c-3.085 0-5.185.01-5.185 1.542z"/></svg>