<svg xmlns="http://www.w3.org/2000/svg" viewBox="0 0 56.48 56.48" enable-background="new 0 0 56.48 56.48"><path d="M26.37 40.2c-.177-.175-.402-.264-.675-.266-.42 0-.761.184-1.026.554-.263.37-.395.777-.395 1.217 0 .271.088.497.263.681.174.183.404.274.69.274.231 0 .454-.071.668-.216.215-.144.39-.363.53-.657.141-.294.21-.579.21-.858 0-.307-.088-.552-.265-.729zM28.355 13.995c-5.979-.132-11.019 4.78-11.132 10.849-.115 6.149 4.744 11.127 10.963 11.236 5.977.103 10.97-4.813 11.078-10.903.108-6.079-4.739-11.044-10.909-11.182zm3.577 15.301c-1.088 2.281-2.985 3.494-5.49 3.578-2.272.077-4.075-.919-5.434-2.846l1.811-1.225c.829 1.125 1.919 1.789 3.31 1.836.864.028 1.686-.207 2.398-.709 1.746-1.231 2.118-3.034 1.137-5.569l1.866-1.193c1.209 2.03 1.384 4.069.402 6.128zm1.98-7.526c-2.169-1.995-3.986-2.327-5.737-1.1-1.34.938-2.498 3.038-1.116 5.573l-1.791 1.136c-1.729-2.305-1.514-6.46 1.724-8.64 2.865-1.93 7.048-1.076 8.699 1.823l-1.779 1.208zM33.926 40.2c-.178-.175-.404-.264-.674-.266-.421 0-.762.184-1.025.554-.263.37-.396.777-.396 1.217 0 .271.088.497.264.681.171.183.404.274.689.274.23 0 .454-.072.668-.216.214-.144.39-.363.531-.657.139-.294.209-.579.209-.858 0-.307-.088-.552-.266-.729zM55.026 9.939h-53.572c-.804 0-1.454.651-1.454 1.454v33.695c0 .803.65 1.454 1.454 1.454h53.572c.804 0 1.454-.651 1.454-1.454v-33.695c0-.803-.65-1.454-1.454-1.454zm-34.169 30.66c.094.076.3.179.619.31.481.194.787.354.918.476.196.181.294.412.294.692 0 .349-.146.646-.438.892-.292.248-.698.371-1.22.371-.359 0-.669-.058-.934-.171-.263-.114-.447-.271-.557-.475-.108-.204-.158-.437-.151-.7l.819-.041c.011.246.056.412.133.498.126.141.357.21.696.21.28 0 .484-.048.61-.144.124-.094.188-.209.188-.344 0-.117-.051-.216-.153-.297-.072-.059-.271-.154-.595-.287-.324-.134-.562-.244-.711-.334-.148-.089-.266-.203-.352-.345-.085-.142-.128-.308-.128-.498 0-.333.128-.606.383-.827.254-.219.622-.328 1.105-.328.49 0 .87.108 1.139.326.27.217.417.506.444.866l-.825.036c-.021-.188-.093-.333-.216-.434-.124-.101-.307-.15-.548-.15-.238 0-.407.04-.509.117-.102.08-.152.18-.152.3.003.112.048.208.141.281zm6.325 1.528c-.207.389-.489.688-.845.898-.354.209-.758.314-1.206.314-.39 0-.717-.082-.98-.25-.265-.166-.452-.373-.563-.621-.109-.246-.165-.496-.165-.748 0-.231.038-.479.111-.736.097-.346.245-.646.443-.901.199-.255.45-.456.752-.604.302-.147.646-.222 1.031-.222.518 0 .935.15 1.253.455.319.303.478.705.478 1.205.001.416-.103.822-.309 1.21zm3.525 1.144h-2.988l.876-3.946h.856l-.726 3.287h2.126l-.144.659zm4.031-1.144c-.208.389-.488.688-.844.898-.356.209-.76.314-1.206.314-.392 0-.718-.082-.982-.25-.264-.166-.45-.373-.562-.621-.109-.246-.164-.496-.164-.748 0-.231.035-.479.109-.736.098-.346.244-.646.443-.901s.449-.456.751-.604.646-.222 1.033-.222c.517 0 .935.15 1.252.455.319.303.479.705.479 1.205.002.416-.102.822-.309 1.21zm-6.497-5.198c-6.488.049-11.891-5.319-11.909-11.838-.019-6.583 5.292-11.909 11.914-11.951 6.451-.04 11.846 5.277 11.901 11.733.061 6.663-5.213 12.004-11.906 12.056z"/></svg>