<svg xmlns="http://www.w3.org/2000/svg" viewBox="0 0 56.48 56.48" enable-background="new 0 0 56.48 56.48"><ellipse cx="19.374" cy="28.39" rx="1.687" ry="1.925"/><path d="M32.404 27.624c0-.29.014-.581-.007-.869-.009-.102-.074-.248-.156-.288-.68-.332-1.797.004-2.128.668-.425.848-.424 1.744-.09 2.613.25.648 1.014.852 1.553.407.279-.229.533-.571.639-.911.159-.515.213-1.617.189-1.62zM55.026 9.939h-53.572c-.804 0-1.454.651-1.454 1.454v33.694c0 .803.65 1.455 1.454 1.455h53.572c.804 0 1.454-.651 1.454-1.454v-33.695c0-.803-.65-1.454-1.454-1.454zm-6.405 12.375h.19l.197.56.117.39h.004l.123-.39.205-.56h.191l.072 1.157h-.148l-.027-.509-.019-.499h-.004l-.146.439-.205.561h-.113l-.188-.551-.132-.45h-.004l-.021.511-.031.497h-.143l.082-1.156zm-1.032-.002h.857v.127h-.354v1.03h-.151v-1.03h-.352v-.127zm-32.613 9.075h-1.532l-.355-1.267c-.451-1.627-.895-3.255-1.354-4.924l-.149.666c-.452 1.69-.949 3.835-1.42 5.522l-1.556.001-1.952-7.916h1.338l.064.284c.465 1.89.946 3.825 1.432 5.756.202-.761.395-1.495.594-2.226.316-1.16.644-2.365.952-3.528l.083-.287h1.418l1.679 6.025 1.484-6.025h1.243l-.824 3.207-1.145 4.712zm6.513-1.106c-.544.791-1.357 1.082-2.229 1.104-1.66-.047-2.483-.891-2.637-2.666-.189-2.177 1.466-3.672 3.604-3.25.663.131 1.219.463 1.504 1.082.587 1.274.575 2.545-.242 3.73zm3.508-3.607c-.243.101-.508.365-.618.593-.196.408-.271.901-.295 1.362-.044.847-.012 1.698-.012 2.574h-1.226v-5.674h1.108v.918c.408-.629.902-1.055 1.7-1.053l.001 1.077c-.201.018-.658.203-.658.203zm2.702 4.531h-1.162v-7.806h1.162v7.806zm5.861-.012c-1.055.131-1.055.131-1.078-.701-.401.253-.804.635-1.282.783-1.216.378-2.214-.24-2.545-1.469-.206-.767-.201-1.534.013-2.298.387-1.391 1.595-2.222 3.033-2.093l.688.047v-2.063h1.172c0 2.579 0 5.171-.001 7.794zm4.263-3.107c-.616.224-1.296.267-2.018.406v2.711h-1.237v-7.77c.993 0 1.989-.045 2.952.084 1.136.151 1.772.911 1.857 1.9.103 1.254-.436 2.262-1.554 2.669zm3.707 3.25c-.88.15-1.607-.178-1.89-.897-.325-.826-.033-1.659.748-2.123.676-.402 1.436-.487 2.197-.525.297-.015.362-.132.348-.392-.037-.668-.356-1.051-1.021-1.032-.611.017-1.22.158-1.876.251l-.214-.839c1.178-.392 2.335-.611 3.514-.108.473.202.746.63.758 1.119.035 1.458.014 2.917.014 4.41h-1.094v-.863c-.416.535-.861.891-1.484.999zm5.714.95c-.053.141-.128.276-.199.41-.668 1.256-1.566 1.676-3.039 1.389l.123-1 .478.062c.531.059.978-.12 1.271-.558.422-.631.7-1.248.346-2.072-.623-1.452-1.129-2.955-1.683-4.436l-.177-.529h1.365l1.266 3.735.107.275.88-2.537c.133-.388.279-.773.396-1.166l.1-.308h1.344c-.884 2.311-1.728 4.524-2.578 6.735zM37.913 25.057c-.517-.758-1.298-.659-2.104-.615v2.829c.756.229 1.604-.001 2.013-.535.353-.46.412-1.206.091-1.679zM42.918 28.78c-.014-.072-.143-.187-.199-.177-.547.103-1.108.174-1.625.363-.391.144-.457.556-.345.938.109.368.408.506.651.51.865-.006 1.658-.927 1.518-1.634z"/></svg>