<svg xmlns="http://www.w3.org/2000/svg" viewBox="0 0 56.48 56.48" enable-background="new 0 0 56.48 56.48"><path d="M20.301 40.241c-.276 0-.259.303-.259.617v.138h.537v-.303c-.001-.336-.061-.452-.278-.452zM17.333 40.242c-.264 0-.259.303-.259.617v.138h.548v-.303c-.008-.337-.072-.452-.289-.452zM32.415 19.002l.005-.013v-.399zM35.256 41.784c-.072.101-.084.271-.084.413 0 .264.062.443.256.443.313 0 .264-.592.271-.924v-.367c-.132.132-.294.27-.443.435zM26.263 40.242c-.289 0-.289.335-.289.655v1.137c0 .418.033.604.289.604.25 0 .272-.187.272-.604v-1.137c0-.319 0-.655-.272-.655zM55.026 9.939h-53.572c-.804 0-1.454.651-1.454 1.454v33.694c0 .803.65 1.455 1.454 1.455h53.572c.804 0 1.454-.651 1.454-1.454v-33.695c0-.803-.65-1.454-1.454-1.454zm-36.867 31.667h-1.085v.498c.011.451.126.537.289.537.196 0 .259-.209.251-.647h.536c.022.765-.196 1.247-.746 1.247-.625 0-.88-.43-.867-1.434v-.896c-.03-.81.259-1.269.788-1.269.754 0 .834.562.834 1.502v.462zm.942 1.547h-.514v-4.555h.514v4.555zm1.222-.513c.204 0 .256-.209.25-.647h.542c.025.765-.193 1.247-.746 1.247-.622 0-.873-.43-.865-1.434v-.896c-.025-.81.257-1.269.785-1.269.757 0 .837.562.837 1.502l.001.462h-1.085v.498c.008.452.127.537.281.537zm2.576-1.721h-.537v-.38c-.009-.187-.069-.297-.185-.297-.207 0-.207.351-.207.763v.812c-.005.669.05.793.207.822.163-.008.169-.234.185-.506v-.315h.537v.315c0 .714-.192 1.106-.732 1.106-.482 0-.754-.365-.732-1.276v-1.104c-.006-.968.319-1.218.732-1.218.548 0 .74.498.732 1.005v.273zm1.099 1.625v.623c-.328.047-.771.098-.771-.542v-2.323h-.217v-.572h.209v-.944h.545v.944h.233l.001.572h-.233v2.136c.016.139.165.114.233.106zm.763-1.367v1.978h-.545v-3.424h.523v.604h.008c.068-.25.132-.387.209-.48.148-.188.256-.179.341-.188l.001.942c-.303-.047-.528.062-.537.568zm1.502 2.062c-.707.025-.834-.489-.826-1.673 0-1.175.009-1.925.826-1.925.801 0 .812.748.812 1.925.005 1.184-.11 1.699-.812 1.673zm2.19-.088v-2.281c0-.333-.031-.55-.234-.569-.202-.006-.273.275-.265.633v2.218h-.537v-3.424h.537v.35h.008c.124-.399.366-.438.49-.438.302 0 .554.257.536.865l.001 2.647h-.536zm1.501.002h-.545v-3.428h.545v3.428zm0-3.839h-.545v-.715h.545v.715zm-3.262-11.07v5.482l.008.117.005.132.017.115.017.127.03.116.03.115.033.127.039.106c.129.33.325.634.567.89.281.271.509.433.864.592l.11.038.116.039.11.042.115.03.127.021.115.016.125.015h-10.05c-1.456 0-2.516-1.183-2.516-2.638v-17.846c0-1.462 1.06-2.64 2.516-2.64h10.128l-.124.008-.115.017-.119.015-.124.025-.108.03-.118.03-.11.039-.107.05c-.319.134-.611.338-.848.591-.482.501-.715 1.12-.732 1.814v11.021h3.386v-13.64h9.841v9.07h-5.635v-4.404c-.87-.137-1.812.061-1.863 1.082v11.608l-.006-.018.006.102v-.083c.055 1.023.99 1.224 1.877 1.078v-4.715l.024-.085h5.597v9.488h-9.842v-8.121l-3.386.002zm5.107 12.673h-.543v-.38c-.012-.188-.073-.297-.182-.297-.21 0-.21.35-.204.764v.812c-.013.669.042.793.204.823.166-.008.166-.235.184-.506v-.315h.541v.315c0 .714-.203 1.106-.74 1.106-.472 0-.753-.365-.732-1.276v-1.104c0-.968.322-1.218.732-1.218.545 0 .74.498.74 1.005v.271zm2.614.002h-.536v-.38c-.009-.187-.079-.297-.188-.297-.207 0-.207.351-.207.763v.812c-.02.669.044.793.207.822.167-.008.174-.234.188-.506v-.315h.536v.315c0 .714-.2 1.106-.737 1.106-.477 0-.746-.365-.725-1.276v-1.104c-.007-.968.311-1.218.725-1.218.545 0 .748.498.737 1.005v.273zm1.359 2.234c-.03-.111-.03-.226-.03-.349-.131.278-.296.435-.484.435-.435 0-.623-.311-.623-1.026 0-.771.375-.967.801-1.223.227-.132.307-.297.265-.57-.022-.155-.106-.179-.248-.179-.248 0-.289.186-.289.498h-.515c0-.648.139-1.099.816-1.099.74 0 .779.554.779 1.011v2.026c0 .157.01.311.039.476h-.511zm1.5.086c-.277 0-.816-.171-.755-1.214h.537c-.039.631.131.613.25.613.163 0 .265-.17.226-.387-.008-.197-.162-.306-.265-.406l-.289-.297c-.272-.271-.451-.592-.451-1.082 0-.528.289-.826.801-.826.531 0 .774.397.757 1.129h-.54c.012-.381-.06-.528-.253-.528-.126 0-.229.086-.229.281 0 .201.102.294.205.396l.451.436c.13.117.339.445.357.671.057.6-.046 1.214-.802 1.214zm2.129-.086v-2.345c0-.334-.022-.55-.227-.567-.203-.008-.272.265-.264.638v2.276h-.545v-4.556h.545v1.48h.005c.148-.405.374-.438.484-.438.312 0 .562.257.545.865l.002 2.647h-.545zM23.328 17.921c-.553 0-1.021.452-1.021 1.021v3.377h1.886v-4.398h-.865zM22.307 26.88v3.729c0 .599.468 1.073 1.035 1.073h.851v-3.44h2.499v-1.362h-4.385z"/></svg>