<svg xmlns="http://www.w3.org/2000/svg" viewBox="0 0 56.48 56.48" enable-background="new 0 0 56.48 56.48"><path d="M55.026 9.939h-53.572c-.804 0-1.454.651-1.454 1.454v33.694c0 .803.65 1.455 1.454 1.455h53.572c.804 0 1.454-.651 1.454-1.454v-33.695c0-.803-.65-1.454-1.454-1.454zm-22.456 7.438h2.459v2.585h-2.459v-2.585zm-8.974 20.521c-.654.146-1.308.297-1.961.447l-2.335.535-2.476.561-2.286.52-2.625.596-1.65.373-.041.006v.002l-3.458.861.009-27.12 3.449.825.429.096 2.223.505 1.932.446 1.552.354 2.073.471 1.542.35 1.989.456 1.369.312.289.062.063.081v5.274h-1.622v-3.703l-.71-.121-.952-.157-1.282-.221-.965-.162-1.398-.235-1.536-.259-1.611-.272-1.519-.258-1.603-.272-.23-.037-.032-.008v20.04l.064-.02c.401-.06.802-.131 1.203-.2l1.044-.181.952-.158.959-.162.94-.159.958-.164.939-.155.713-.119.757-.127.849-.142.93-.157.949-.156.577-.102v-4.896h1.626v.098l.001 6.333c0 .067-.008.104-.088.119zm-7.659-3.75v-3.289h3.295v3.289h-3.295zm8.769-3.856h-5.356v-3.134h-5.047v-4.995h5.047v2.768h5.357l-.001 5.361zm3.366 3.841h-3.248v-3.187h3.248v3.187zm-3.248-10.875v-3.295h3.248v3.295h4.381v4.371h-4.381v-4.371h-3.248zm8.449 14.207h-2.335v-6.635h1.891c1.127 0 2.421.2 2.421 1.755 0 .734-.414 1.197-.919 1.442.564.193 1.218.637 1.218 1.658 0 1.114-.851 1.778-2.276 1.78zm3.924 0h-.527v-6.635h.527v6.635zm3.543-3.085h-1.5v3.085h-.528v-6.636h2.028c1.403 0 2.274.686 2.274 1.789 0 1.088-.871 1.762-2.274 1.762zm5.029 3.216c-1.673 0-2.181-.968-2.438-1.811l-.045-.146.502-.166.048.152c.323 1.038.883 1.461 1.936 1.461 1.029 0 1.671-.483 1.671-1.261 0-.81-.356-1.135-1.737-1.584-1.481-.482-2.004-.847-2.004-1.935 0-.797.673-1.602 1.959-1.602 1.044 0 1.812.556 2.164 1.566l.053.149-.5.167-.054-.144c-.3-.827-.845-1.229-1.663-1.229-.985 0-1.434.566-1.434 1.09 0 .734.309 1.003 1.652 1.439 1.223.394 2.09.775 2.09 2.08 0 1.058-.883 1.771-2.2 1.774zm3.267-5.268c-.383 0-.681-.303-.681-.682 0-.382.3-.687.682-.687.38 0 .68.303.68.682 0 .382-.302.687-.681.687zM32.846 31.338h-1.381v2.471h1.594c.5.001 1.664-.117 1.664-1.226 0-.896-.526-1.245-1.877-1.245zM33.059 34.322h-1.594v2.643h1.824c1.116 0 1.73-.455 1.73-1.279.002-1.129-1.064-1.364-1.96-1.364zM49.041 31.351h-.15v.254h.152c.106.001.17-.033.17-.129 0-.093-.063-.125-.172-.125zM49.036 31.042c-.333 0-.592.268-.592.6 0 .335.261.604.593.604.332 0 .59-.267.59-.6 0-.334-.26-.604-.591-.604zm.177.965l-.17-.317h-.156v.317h-.104v-.75h.265c.17 0 .269.074.269.213 0 .119-.065.182-.165.207l.177.33h-.116zM40.747 31.34h-1.508v2.531h1.508c1.104 0 1.74-.457 1.74-1.253 0-.8-.649-1.28-1.74-1.278z"/></svg>