<svg xmlns="http://www.w3.org/2000/svg" viewBox="0 0 56.48 56.48" enable-background="new 0 0 56.48 56.48"><path d="M23.261 37.552c0 1.285 1.044 1.386 1.364 1.386 1.183 0 1.869-.777 2.096-1.443.054-.163.084-.329.084-.465v-1.39c-2.351.013-3.544.657-3.544 1.912zM55.026 9.939h-53.572c-.804 0-1.454.651-1.454 1.454v33.694c0 .803.65 1.455 1.454 1.455h53.572c.804 0 1.454-.651 1.454-1.454v-33.695c0-.803-.65-1.454-1.454-1.454zm-38.614 28.811c1.036 0 2.113-.211 2.811-.549.099-.049.218-.052.32-.003.102.047.178.138.206.246l.377 1.445c.045.17-.037.35-.195.43-.685.343-2.069.71-3.897.71-4.466 0-7.351-2.952-7.351-7.519 0-4.587 3.186-7.792 7.749-7.792 2.075 0 3.223.513 3.525.671.16.083.238.267.187.439l-.44 1.488c-.031.106-.107.192-.208.237-.102.043-.218.041-.315-.006-.73-.355-1.684-.55-2.686-.55-3.216 0-5.135 2.037-5.135 5.449 0 3.319 1.889 5.303 5.052 5.304zm13.009 1.935c-.07.086-.177.135-.287.135h-1.677c-.191 0-.352-.145-.373-.333l-.059-.511c-.748.682-1.776 1.074-2.879 1.074-2.282 0-3.476-1.654-3.476-3.287 0-1.522.801-4.056 6.093-4.145-.051-1.216-.682-1.809-1.926-1.809-.854 0-1.765.259-2.436.695-.097.061-.219.076-.326.039-.109-.037-.194-.123-.232-.232l-.419-1.215c-.057-.163.005-.342.15-.437.94-.61 2.228-.961 3.535-.961 2.727 0 4.229 1.606 4.229 4.522v3.793c0 .992.053 1.764.161 2.362.019.111-.008.221-.078.31zm.421-13.316c0 .158-.099.299-.248.353-.812.291-2.095.64-3.588.64-1.889 0-3.353-.521-4.475-1.591-1.073-1.037-1.688-2.666-1.688-4.471.018-3.707 2.623-6.197 6.481-6.197 1.346 0 2.417.287 2.974.556.164.08.248.268.195.444l-.352 1.188c-.03.104-.104.189-.202.234-.099.044-.212.045-.31.002-.474-.211-1.169-.453-2.34-.453-2.565 0-4.158 1.593-4.158 4.158 0 2.614 1.486 4.175 3.974 4.175.824 0 1.31-.101 1.566-.181v-2.732h-1.917c-.207 0-.375-.168-.375-.375v-1.171c0-.207.168-.375.375-.375h3.713c.207 0 .375.168.375.375v5.421zm2.544-11.167c.739 0 1.276.545 1.276 1.295.013.331-.108.652-.337.89-.243.25-.587.388-.973.388-.709 0-1.264-.561-1.264-1.278 0-.739.557-1.295 1.298-1.295zm-1.114 11.667v-8.097c0-.207.168-.375.375-.375h1.472c.207 0 .375.168.375.375v8.097c0 .207-.168.375-.375.375h-1.472c-.207 0-.375-.169-.375-.375zm6.05 4.008c0 .113-.053.221-.14.292-.087.071-.205.096-.315.074-.171-.038-.335-.054-.548-.054-1.067 0-1.874.789-2.104 2.059-.037.229-.078.506-.078.792v5.406c0 .207-.168.375-.375.375h-1.822c-.207 0-.375-.168-.375-.375v-6.977c0-1.315-.025-2.284-.082-3.14-.007-.102.03-.205.1-.28.071-.076.17-.119.274-.119h1.612c.203 0 .367.16.375.362l.022.729c.771-1.016 2.023-1.537 3.171-1.249.167.042.284.192.284.364h.001v1.741zm-.152-3.632h-1.455c-.207 0-.375-.168-.375-.375v-6.601h-.761c-.207 0-.375-.168-.375-.375v-1.121c0-.207.168-.375.375-.375l.763-.01c0-1.391.355-2.434 1.055-3.099.568-.551 1.361-.856 2.232-.856.686 0 1.205.184 1.396.263.164.067.257.239.227.412l-.201 1.138c-.02.115-.093.213-.197.267-.101.054-.226.056-.33.008-.215-.1-.476-.15-.778-.15-.327 0-1.198 0-1.198 1.967v.061h1.582c.123 0 .227.062.295.153.067-.09.17-.153.293-.153h.881v-1.565c0-.17.113-.318.277-.362l1.438-.385c.11-.03.231-.007.325.065.092.07.146.18.146.297v1.95h1.731c.207 0 .375.168.375.375v1.121c0 .207-.168.375-.375.375h-1.731v3.99c0 1.105.36 1.197.729 1.197.353 0 .607-.047.756-.087.107-.03.224-.007.316.058.09.066.147.169.154.281l.066 1.104c.011.161-.084.308-.231.37-.36.147-.874.229-1.448.229-.796 0-1.443-.259-1.871-.749-.447-.464-.66-1.216-.66-2.354v-4.041h-.881c-.121 0-.226-.062-.293-.153-.068.09-.172.153-.295.153h-1.582v6.601c0 .206-.168.375-.375.376zm10.527 12.448c-.071.078-.172.122-.276.122h-1.656c-.2 0-.365-.157-.375-.357l-.034-.722c-.775.827-1.914 1.31-3.173 1.31-2.732 0-4.713-2.324-4.713-5.529-.01-1.799.569-3.379 1.631-4.448.881-.886 2.05-1.373 3.291-1.373 1.084 0 2.043.338 2.726.935v-5.063c0-.207.168-.375.375-.375h1.845c.207 0 .375.168.375.375v12.256c0 .625.01 1.791.082 2.585.01.106-.025.21-.098.284zM45.049 33.752c-.217-.933-1.01-1.86-2.299-1.857-1.617 0-2.662 1.39-2.662 3.542 0 1.631.687 3.375 2.62 3.375 1.121 0 2.062-.769 2.339-1.914.051-.205.072-.416.072-.708v-1.76c0-.202-.019-.487-.07-.678z"/></svg>