<svg xmlns="http://www.w3.org/2000/svg" viewBox="0 0 56.48 56.48" enable-background="new 0 0 56.48 56.48"><path d="M12.307 25.646c-.135-.889-.764-1.376-1.909-1.374-.669.02-1.357.432-1.88 1.145-.379.517-.573 1.105-.622 1.739-.039.514.07.993.442 1.377.478.491 1.076.591 1.716.465 1.719-.337 2.456-2.003 2.253-3.352zM20.077 24.698c-.386-.18-.791-.241-1.214-.183-.595.083-1.096.335-1.443.837-.329.475-.246 1.06.188 1.44.38.334.84.429 1.364.451l.355-.037c.484-.073.9-.276 1.21-.666.19-.241.306-.521.284-.83-.031-.487-.313-.812-.744-1.012zM20.391 31.223c-.108-.082-.228-.159-.354-.203-.331-.113-.665-.217-1.003-.307-.209-.055-.435-.133-.64-.104-.529.078-1.057.189-1.574.326-.256.067-.5.2-.723.346-.217.143-.208.361.003.516.138.1.298.178.459.231.628.214 1.287.208 2.059.254.27-.034.659-.069 1.043-.135.28-.05.552-.146.762-.355.196-.194.187-.404-.032-.569zM55.026 9.939h-53.572c-.804 0-1.454.651-1.454 1.454v33.694c0 .803.65 1.455 1.454 1.455h53.572c.804 0 1.454-.651 1.454-1.454v-33.695c0-.802-.65-1.454-1.454-1.454zm-44.153 20.061c-.414.089-.843.115-1.263.169-.797-.037-1.566-.147-2.269-.535-.865-.48-1.327-1.218-1.366-2.209-.062-1.592.687-2.725 2.022-3.507.732-.427 1.536-.616 2.383-.65.761-.031 1.5.049 2.201.353.833.36 1.439.945 1.622 1.863.209 1.058-.036 2.031-.677 2.891-.663.893-1.583 1.398-2.653 1.625zm18.05-.089c-1.203.344-2.409.344-3.584-.12-.904-.357-1.496-1.013-1.656-1.988-.175-1.086.107-2.063.809-2.914l.38-.417h-2.832l.148.162c.604.644.536 1.507.119 2.167-.297.473-.741.774-1.239 1.002-.549.253-1.133.365-1.73.443-.592.078-1.181.171-1.77.274-.136.022-.272.091-.389.166-.192.123-.187.316.023.396.296.114.605.2.917.26.88.168 1.776.259 2.636.524.419.13.822.292 1.165.579.567.473.609 1.295.007 1.82-.472.414-1.043.621-1.641.762-.509.12-1.027.173-1.551.193-1.098.036-2.178-.052-3.226-.402-.383-.128-.745-.301-1.041-.585-.165-.157-.289-.341-.318-.574-.04-.317.099-.549.347-.729.349-.252.752-.377 1.162-.475.397-.092.8-.161 1.168-.234-.236-.079-.511-.155-.77-.267-.202-.089-.404-.198-.57-.341-.326-.28-.326-.696-.024-1.008.22-.23.496-.373.789-.477.256-.094.518-.166.78-.249l-.499-.226c-.373-.191-.708-.434-.907-.811-.387-.732-.237-1.419.232-2.051.453-.608 1.097-.937 1.809-1.146.444-.128.901-.189 1.365-.189 2.325 0 4.648-.006 6.971.004.49.003.967-.068 1.449-.135 1.176-.163 2.327-.082 3.351.598.709.469 1.092 1.142 1.133 2.001.096 2.065-1.307 3.493-3.013 3.987zm12.348-4.234c-.252 1.252-.559 2.491-.842 3.736l-.104.428c-.013.041-.07.1-.105.1-.57.005-1.141.001-1.709-.001l-.06-.029.146-.705c.25-1.144.506-2.286.74-3.432.045-.212.039-.447 0-.66-.074-.385-.449-.655-.871-.686-.619-.045-1.177.157-1.693.459-.438.256-.844.564-1.256.861-.07.048-.119.15-.139.236-.279 1.254-.551 2.512-.82 3.771-.03.146-.092.195-.242.193-.488-.009-.977-.004-1.465-.004l-.201-.018.188-.894c.371-1.753.741-3.507 1.116-5.261.076-.358.007-.311.38-.313l1.403-.001c.124-.001.175.019.14.164-.076.313-.132.632-.203.981l.467-.328c.637-.442 1.334-.757 2.105-.866.703-.099 1.402-.088 2.053.248.78.401 1.139 1.193.972 2.021zm9.203.814l-.119.1-.119.003c-1.883 0-3.764.003-5.645-.005-.17 0-.213.066-.238.212-.195 1.15.479 1.865 1.494 2.146.83.23 1.663.164 2.475-.086.515-.159 1.015-.377 1.523-.569l.211-.088c-.072.321-.155.595-.187.873-.03.276-.183.403-.424.499-.721.284-1.466.467-2.24.529-.838.066-1.664.031-2.469-.221-.732-.229-1.377-.601-1.812-1.248-.649-.974-.651-2.01-.168-3.043.448-.96 1.243-1.562 2.209-1.95.597-.239 1.221-.353 1.868-.377.801-.03 1.567.09 2.277.472.763.41 1.271 1.025 1.385 1.904.037.277-.005.566-.021.849zM29.975 25.627c-.088-.639-.459-1.086-1.093-1.277-.404-.123-.814-.11-1.215.007-.928.273-1.517.91-1.866 1.787-.202.505-.305 1.034-.199 1.577.157.813.808 1.32 1.858 1.318.516-.01 1.14-.252 1.644-.754.734-.733 1.014-1.639.871-2.658zM48.681 25.471c-.102-.535-.415-.884-.929-1.046-.357-.112-.721-.134-1.097-.098-.908.085-1.524.571-1.956 1.385h3.789c.211.001.234-.03.193-.241z"/></svg>