<svg xmlns="http://www.w3.org/2000/svg" viewBox="0 0 56.48 56.48" enable-background="new 0 0 56.48 56.48"><path d="M24.084 25.966c-.078-.381-.28-.734-.628-.978-.684-.483-1.673-.405-2.189-.247v3.18c.393.1 1.55.126 1.999-.158.703-.446.948-1.164.818-1.797zM55.026 9.939h-53.572c-.804 0-1.454.651-1.454 1.454v33.694c0 .803.65 1.455 1.454 1.455h53.572c.804 0 1.454-.651 1.454-1.454v-33.695c0-.802-.65-1.454-1.454-1.454zm-41.993 14.433h-.388c-.404 0-.713.325-.713.674v6.367c0 .355.314.675.713.675h.388v.146h-3.28v-.146h.388c.404 0 .713-.316.713-.675 0 0-.006-2.858 0-2.858h-3.886c.005 0 0 2.858 0 2.858 0 .355.314.675.713.675h.387v.146h-3.28v-.146h.39c.403 0 .713-.321.713-.675v-6.369c0-.349-.31-.674-.713-.674h-.389v-.146h3.28v.146h-.387c-.4 0-.713.325-.713.674v3.106h3.886v-3.106c0-.349-.304-.674-.713-.674h-.388v-.146h3.28l-.001.148zm4.957 7.317c-.39.35-.944.657-1.685.657-.843 0-1.567-.449-1.831-.551-.16-.062-.37-.055-.495.022-.147.09-.236.235-.27.506h-.123v-2.774h.123c.113.855.512 1.356.759 1.64.404.466 1.168.73 1.903.612.586-.095 1.224-.729 1.155-1.515-.026-.282-.088-.694-.678-1.081-.37-.24-.895-.584-1.393-.915-.628-.417-1.198-.868-1.358-1.051-.211-.239-.473-.583-.473-1.134 0-.473.18-1.012.562-1.371.382-.359.899-.629 1.641-.629.741 0 1.303.393 1.493.482.191.09.402.069.523 0 .117-.067.196-.167.229-.438h.124v2.63h-.124c-.112-.853-.482-1.494-.741-1.73-.259-.235-.764-.561-1.517-.415-.722.14-1.074.466-1.14 1.044-.052.44.188.711.326.876.28.337 2.062 1.348 2.869 2.045.417.358.742.785.786 1.539.028.471-.263 1.185-.665 1.551zm7.431-1.004c-.312 1.22-1.689 1.468-2.134 1.527-.203.026-.717.024-1.226.024l-2.978-.002v-.146h.473c.3 0 .643-.255.643-.636v-6.396c0-.382-.343-.64-.64-.64h-.473v-.146h2.849c.685 0 1.057.065 1.297.112.404.078 1.585.426 1.865 1.527.218.852-.208 1.925-1.247 2.235 1.428.489 1.835 1.498 1.571 2.541zm4.72 1.689c-1.595-.014-2.598-.894-3.055-1.415-.484-.551-.854-1.596-.859-2.506-.003-.808.175-1.709.466-2.235.5-.905 1.545-1.803 2.921-1.938 1.029-.1 1.707.101 2.286.433.288.165.452.184.608.117.156-.068.283-.202.283-.466h.139l.115 2.712-.164.006c-.078-.684-.336-1.168-.662-1.482-.091-.091-.271-.274-.528-.436-.426-.269-1.061-.508-1.818-.373-1.136.202-1.72.952-2.012 1.674-.36.887-.587 2.406.023 3.685.494 1.039 1.446 1.473 2.179 1.584.625.096 2.009.067 3.066-1.358l.168.112c-.82 1.155-1.91 1.897-3.156 1.886zm9.545-.14l-4-4.002 4-4.001v8.003zm8.004 0l-8.003-.001 4.001-4.001 4.002 4.002v-8.003l-4 4.001-4.002-4.002h8.003l-.001.001 4.002 4.001-4.002 4.002zM47.69 24.232zM23.436 28.575c-.501-.324-1.754-.302-2.169-.204v3.41c.555.171 1.61.304 2.347-.226.883-.631 1.069-2.175-.178-2.98z"/></svg>