<svg xmlns="http://www.w3.org/2000/svg" viewBox="0 0 56.48 56.48" enable-background="new 0 0 56.48 56.48"><path d="M34.948 23.323c-.373-.401-1.061-.875-2.122-.875-1.09 0-1.897.473-2.27.875-.47.511-.551.805-.53 2.653.03 1.836.059 2.122.53 2.631.374.403 1.18.875 2.27.875 1.06 0 1.749-.472 2.122-.875.471-.508.53-.823.53-2.631 0-1.828-.058-2.141-.53-2.653zM23.161 26.937c-1.543.001-2.26.531-2.26 1.346 0 .758.687 1.414 2.466 1.414 2.19 0 2.937-.195 2.937-1.944v-.816h-3.143zM23.623 22.37c-1.366 0-2.25.402-2.938 1.041l-1.1-1.13-1.11 1.12c-1.031-.619-2.082-1.041-3.497-1.041-1.679 0-2.239.571-2.239 1.346 0 .491.402.972 1.719 1.061l2.161.139c1.335.067 2.279.45 2.888 1.04.706-.609 1.767-.991 3.163-.991h3.634v-1.15c0-1.061-.796-1.433-2.681-1.435zM42.139 22.215c-1.601 0-3.024.952-3.024 2.908h6.071c0-1.946-1.445-2.908-3.047-2.908zM55.026 9.939h-53.572c-.804 0-1.454.651-1.454 1.454v33.695c0 .803.65 1.454 1.454 1.454h53.572c.804 0 1.454-.651 1.454-1.454v-33.695c0-.802-.65-1.454-1.454-1.454zm-7.867 17.157h-8.045c0 1.827 1.248 2.515 3.045 2.515 1.002 0 2.269-.452 3.036-1.14l1.768 1.285c-1.287 1.277-3.006 1.965-4.754 1.965-1.435 0-2.976-.334-4.097-1.355v.943c0 3.381-2.683 4.933-5.668 4.933-1.67 0-3.37-.758-4.529-1.877l2.034-1.394c.639.549 1.542 1.012 2.544 1.012 1.759 0 2.985-.855 2.985-2.428v-1.149c-.814.776-2.032 1.308-3.369 1.308-1.473 0-2.534-.551-3.182-1.111v1.132h-2.623v-1.142h-.049c-.541.776-1.444 1.131-3.222 1.131-1.66 0-2.928-.481-3.704-1.26-.982.808-2.544 1.239-4.332 1.239-2.112 0-4.067-.657-5.737-2.004l1.827-1.552c1.13.951 2.368 1.443 4.116 1.443 1.494 0 2.574-.492 2.574-1.443 0-.796-.697-1.031-1.591-1.1l-2.319-.178c-2.161-.156-3.762-1.258-3.762-3.183 0-2.279 2.112-3.449 4.873-3.449 1.985 0 3.409.453 4.597 1.179.963-.863 2.22-1.168 3.92-1.168 2.269 0 4.037.462 4.882 1.699l.285-.335c.59-.636 1.749-1.375 3.447-1.375 1.336 0 2.398.442 3.369 1.328v-1.189h2.634v1.229c1.041-.982 2.437-1.366 3.743-1.366 2.878 0 5.353 1.976 5.363 5.275.011.571-.059 1.582-.059 1.582z"/></svg>