<svg xmlns="http://www.w3.org/2000/svg" viewBox="0 0 56.48 56.48" enable-background="new 0 0 56.48 56.48"><path d="M33.277 36.132c-.562 0-.777.357-.777.868v1.584c0 .511.215.869.777.869.275 0 .582-.102.857-.235v-2.892c-.274-.113-.582-.194-.857-.194zM55.026 9.939h-53.572c-.804 0-1.454.651-1.454 1.454v33.695c0 .803.65 1.454 1.454 1.454h53.572c.804 0 1.454-.651 1.454-1.454v-33.695c0-.803-.65-1.454-1.454-1.454zm-30.881 10.704c.742-.748 1.803-.748 1.803-.748h5.344l-1.393-1.387c-.742-.741-.742-1.789-.742-1.789 0-1.049.742-1.79.742-1.79.741-.742 1.79-.742 1.79-.742 1.048 0 1.789.742 1.789.742l5.729 5.721c.736.742.736 1.79.736 1.79 0 1.048-.742 1.79-.742 1.79l-5.721 5.728c-.742.735-1.79.735-1.79.735-1.048 0-1.79-.735-1.79-.735-.742-.742-.742-1.79-.742-1.79 0-1.048.742-1.79.742-1.79l1.393-1.393h-5.344c-1.061 0-1.803-.742-1.803-.742-.749-.748-.749-1.803-.749-1.803-.001-1.053.748-1.797.748-1.797zm-14.432 15.417c0 .113-.071.175-.194.164 0 0-.44-.062-.817-.062-.665 0-.879.389-.879.939v1.38c0 .571.235.95.889.95.398 0 .817-.062.817-.062.112-.011.184.041.184.153v.623c0 .111-.051.184-.194.215 0 0-.47.092-.889.092-1.236 0-1.931-.675-1.931-1.941v-1.431c0-1.267.685-1.94 1.931-1.94.46 0 .889.092.889.092.132.021.194.092.194.203v.625zm1.839 4.098c0 .113-.082.193-.194.193h-.736c-.112 0-.194-.08-.194-.193v-6.866c0-.112.082-.194.194-.194h.736c.112 0 .194.082.194.194v6.866zm1.993 0c0 .113-.082.193-.195.193h-.735c-.112 0-.194-.08-.194-.193v-4.721c0-.112.082-.193.194-.193h.735c.113 0 .195.081.195.193v4.721zm0-6.132c0 .113-.082.193-.195.193h-.735c-.112 0-.194-.08-.194-.193v-.735c0-.112.082-.194.194-.194h.735c.113 0 .195.082.195.194v.735zm3.883 2.034c0 .113-.071.175-.194.164 0 0-.439-.062-.817-.062-.664 0-.879.389-.879.939v1.38c0 .571.235.95.889.95.398 0 .817-.062.817-.062.112-.011.184.041.184.153v.623c0 .111-.051.184-.194.215 0 0-.47.092-.889.092-1.237 0-1.932-.675-1.932-1.941v-1.431c0-1.267.685-1.94 1.932-1.94.459 0 .889.092.889.092.133.021.194.092.194.203v.625zm1.839 4.098c0 .113-.082.193-.194.193h-.736c-.112 0-.194-.08-.194-.193v-6.866c0-.112.082-.194.194-.194h.736c.112 0 .194.082.194.194v6.866zm2.535.193h-.828c-.112 0-.204-.092-.255-.193l-1.39-2.666 1.267-2.055c.062-.092.153-.193.266-.193h.828c.112 0 .173.102.112.193l-1.267 2.033 1.4 2.688c.05.092-.021.193-.133.193zm-.82-15.671s-.99.989-2.389.989c0 0-1.399 0-2.389-.989 0 0-.99-.989-.99-2.389 0 0 0-1.399.99-2.389 0 0 .989-.99 2.389-.99 0 0 1.399 0 2.389.99 0 0 .989.989.989 2.389 0 .001 0 1.399-.989 2.389zm4.978 15.478c0 .113-.082.193-.194.193h-.684c-.113 0-.194-.08-.194-.193v-.092c-.327.205-.756.389-1.236.389-.991 0-1.574-.501-1.574-1.533 0-1.052.644-1.572 1.778-1.572.348 0 .848.041.981.062v-.412c0-.53-.235-.817-.838-.817s-1.369.175-1.369.175c-.123.03-.194-.052-.194-.164v-.624c0-.112.071-.185.194-.214 0 0 .664-.215 1.522-.215 1.359 0 1.809.633 1.809 1.858l-.001 3.159zm4.753 0c0 .113-.082.193-.195.193h-.734c-.113 0-.193-.08-.193-.193v-3.178c0-.479-.145-.787-.686-.787-.317 0-.665.145-.95.297v3.668c0 .113-.082.193-.194.193h-.736c-.112 0-.194-.08-.194-.193v-4.721c0-.112.082-.193.194-.193h.685c.112 0 .194.081.194.193v.152c.296-.225.735-.449 1.317-.449 1.115 0 1.492.676 1.492 1.736v3.282zm4.354.193h-.686c-.113 0-.195-.08-.195-.193v-.061c-.316.193-.704.356-1.145.356-1.134 0-1.666-.694-1.666-1.788v-1.736c0-1.095.531-1.789 1.666-1.789.42 0 .787.123 1.094.275v-2.125c0-.111.082-.193.194-.193h.736c.112 0 .194.082.194.193v6.868h.001c0 .113-.082.193-.193.193zm3.074 0h-1.818c-.111 0-.193-.08-.193-.193v-6.866c0-.112.082-.194.193-.194h.736c.111 0 .193.082.193.194v2.166c.307-.184.686-.315 1.104-.315 1.134 0 1.655.693 1.655 1.787v1.634h.001c0 1.113-.604 1.787-1.871 1.787zm6.429 0h-.685c-.113 0-.194-.08-.194-.193v-.152c-.296.226-.735.449-1.318.449-1.114 0-1.491-.675-1.491-1.736v-3.28c0-.112.082-.193.193-.193h.736c.111 0 .193.081.193.193v3.179c0 .479.144.786.685.786.317 0 .665-.144.95-.296v-3.669c0-.112.082-.193.194-.193h.736c.112 0 .194.081.194.193v4.719h.001c0 .113-.082.193-.194.193zm2.932 1.758c-.041.103-.103.184-.215.184h-.828c-.111 0-.193-.092-.152-.192l.582-1.707-1.625-4.956c-.029-.103.031-.193.153-.193h.808c.113 0 .195.071.226.185l1.042 3.238 1.094-3.238c.041-.104.112-.185.225-.185h.808c.123 0 .194.103.153.204l-2.271 6.66zM38.121 36.132c-.277 0-.593.102-.869.235v3.015h.787c.614 0 .848-.338.848-.849v-1.533c0-.511-.205-.868-.766-.868zM23.978 38.216c-.552 0-.777.236-.776.676 0 .387.224.613.674.613.316 0 .664-.123.96-.277v-1.012h-.858z"/></svg>