<svg xmlns="http://www.w3.org/2000/svg" viewBox="0 0 56.48 56.48" enable-background="new 0 0 56.48 56.48"><path d="M23.148 25.898c-.099-.402-.338-.691-.762-.761-.223-.037-.459-.009-.688-.006-.09.001-.118.05-.116.142l.002 1.304-.002 1.316c-.002.083.027.117.109.117l.268.014c.634.014 1.045-.275 1.188-.846.106-.424.105-.853.001-1.28zM12.178 24.882c-.23-.361-.553-.614-.927-.805-.679-.349-1.408-.456-2.273-.47l-.614.055-.356.073c-.772.218-1.303.682-1.487 1.484-.109.472-.076.946.038 1.412.138.565.481.955 1.027 1.164.362.137.739.186 1.122.193.681.014 1.346-.077 1.984-.317.552-.209 1.049-.501 1.413-.98.42-.551.446-1.228.073-1.809zM49.295 29.258l-.009-.131c-.317.034-.62.088-.905.211-.42.182-.635.498-.648.955-.016.465.168.801.533.938.298.111.604.105.912.041.092-.02.119-.067.119-.161-.005-.619-.002-1.236-.002-1.853zM55.026 9.939h-53.572c-.804 0-1.454.651-1.454 1.454v33.694c0 .803.65 1.455 1.454 1.455h53.572c.804 0 1.454-.651 1.454-1.454v-33.695c0-.802-.65-1.454-1.454-1.454zm-40.781 17.894c-.673.917-1.597 1.49-2.658 1.853-1.026.355-2.081.47-3.16.346-.354-.041-.703-.118-1.055-.18l-.132-.02c-.116-.016-.178.047-.167.152.02.21.032.425.092.624.245.836.823 1.356 1.622 1.657l.322.111.122.067-.006.046-.196.025c-1.045.004-1.995-.307-2.848-.897-1.383-.958-2.207-2.292-2.584-3.914-.229-.978-.239-1.965-.026-2.949.104-.482.339-.912.63-1.308.698-.948 1.658-1.5 2.767-1.825.884-.26 1.787-.342 2.7-.285 1.326.081 2.553.464 3.626 1.272.642.482 1.156 1.077 1.443 1.835.463 1.218.269 2.353-.492 3.39zm10.189.966c-.458.309-.97.481-1.512.543-.41.045-.826.039-1.238.057h-.101v3.062h-2.406v-.146c0-2.65.002-5.301-.003-7.95 0-.108.034-.155.133-.191.999-.372 2.034-.491 3.092-.443.48.021.952.101 1.407.268 1.287.473 1.822 1.528 1.748 2.766-.05.852-.4 1.549-1.12 2.034zm7.514 3.362c-.512.223-1.051.333-1.604.395-.77.086-1.542.107-2.308-.039-.249-.049-.499-.118-.734-.215-.846-.345-1.268-1.035-1.227-1.951.038-.853.511-1.381 1.245-1.727.596-.277 1.234-.4 1.88-.49l.636-.076-.002-.367c-.042-.36-.298-.569-.736-.612-.576-.056-1.131.058-1.678.231l-.46.169-.5-1.368c.263-.085.514-.175.772-.245.761-.209 1.535-.327 2.325-.264.334.026.674.079.99.179.848.265 1.314.875 1.457 1.739.034.208.051.421.051.631.006 1.28.002 2.562.006 3.842 0 .09-.031.132-.113.168zm7.401-6.291c-1.016 3.053-2.032 6.103-3.047 9.159-.031.095-.069.132-.174.131-.73-.006-1.456-.003-2.185-.003h-.153l.534-1.277c.183-.436.367-.869.543-1.307.025-.059.027-.143.007-.205-.718-2.151-1.439-4.299-2.16-6.446l-.06-.182h2.558c.271 1.576.663 3.129.875 4.722l.066-.479c.158-.744.318-1.486.484-2.226l.428-1.878c.026-.114.067-.147.184-.146.663.008 1.326.004 1.988.004h.15l-.038.133zm.441 6.591c.671-1.733 1.343-3.462 2.021-5.207h-1.807v-1.51h4.719l-1.961 5.209h1.982l.002 1.508h-4.956zm11.587-.285c-.508.211-1.039.323-1.58.383-.773.084-1.543.103-2.311-.036-.329-.059-.646-.155-.944-.313-.639-.338-.967-.875-1.009-1.587-.055-.928.332-1.557 1.195-1.974.556-.267 1.151-.394 1.755-.487l.794-.103c.107-.566-.155-.918-.719-.979-.492-.054-.972.027-1.443.158-.234.065-.464.152-.708.233l-.497-1.365c.306-.092.601-.195.902-.273.815-.211 1.638-.306 2.477-.211.484.055.943.183 1.342.472.528.381.764.923.844 1.547.025.191.033.389.035.583l.004 3.744c0 .11-.034.164-.137.208zm.687-6.484l-.011.115-.004.513-.045.08-.048-.08-.002-.627-.163-.026.004-.033h.416l.006.03-.153.028zm.966.717l-.058-.072-.047-.437-.018-.112-.023-.001-.183.618-.044.005-.216-.631-.06.53-.041.098-.045-.017.09-.755c.073-.03.107-.013.127.061.047.181.102.358.179.543l.063-.22.098-.339.074-.056.051.063.084.699-.031.023zM29.842 29.258v-.117c-.199-.009-.638.082-.879.183-.503.21-.734.599-.68 1.142.038.363.19.646.552.774.292.102.591.094.89.032.091-.017.121-.064.121-.16l-.004-1.854z"/></svg>