<svg xmlns="http://www.w3.org/2000/svg" viewBox="0 0 56.48 56.48" enable-background="new 0 0 56.48 56.48"><path d="M55.026 9.939h-53.572c-.804 0-1.454.651-1.454 1.454v33.695c0 .803.65 1.454 1.454 1.454h53.572c.804 0 1.454-.651 1.454-1.454v-33.695c0-.802-.65-1.454-1.454-1.454zm-42.388 22.732h-1.48l-1.213-4.855h-.025l-1.201 4.855h-1.518l-2.023-6.538h1.529l1.277 4.881h.025l1.227-4.881h1.455l1.176 4.881h.025l1.328-4.881h1.467l-2.049 6.538zm4.063 0h-1.436v-6.505h1.436v6.505zm0-7.601h-1.436v-1.438h1.436v1.438zm2.236 4.487v3.111h-1.441v-6.538h1.354v1.264h.025c.164-.695 1.023-1.441 1.91-1.441.328 0 .416.025.543.037v1.393c-.203-.025-.418-.063-.619-.063-.987.003-1.772.797-1.772 2.237zm8.336.219h-4.805c0 1.022.557 1.934 1.758 1.934.834 0 1.34-.366 1.594-1.088h1.365c-.316 1.431-1.531 2.228-2.959 2.228-2.049 0-3.199-1.431-3.199-3.439 0-1.859 1.213-3.453 3.16-3.453 2.063-.002 3.326 1.857 3.086 3.818zm3.581 1.932c.834 0 1.416-.557 1.555-1.491h1.441c-.267 1.694-1.314 2.631-2.996 2.631-2.049 0-3.176-1.455-3.176-3.377 0-1.974 1.076-3.517 3.227-3.517 1.516 0 2.807.76 2.945 2.365h-1.441c-.113-.797-.695-1.227-1.492-1.227-.746 0-1.797.391-1.797 2.376-.001 1.089.482 2.24 1.734 2.24zm9.964.974c-.217.074-.67.164-.912.164-.58 0-.998-.203-1.111-.797-.57.558-1.492.797-2.264.797-1.176 0-2.238-.633-2.238-1.909 0-1.632 1.303-1.896 2.516-2.037 1.037-.188 1.961-.074 1.961-.923 0-.745-.771-.884-1.354-.884-.809 0-1.379.328-1.441 1.037h-1.44c.101-1.682 1.529-2.176 2.972-2.176 1.276 0 2.618.52 2.618 1.898v3.364c0 .354.074.491.341.491l.354-.024-.002.999zm1.922-3.125v3.111h-1.441v-6.538h1.353v1.264h.024c.166-.695 1.025-1.441 1.91-1.441.33 0 .418.025.543.037v1.393c-.201-.025-.416-.063-.619-.063-.987.003-1.77.797-1.77 2.237zm8.563 3.114h-1.364v-.886h-.025c-.379.746-1.2 1.063-2.022 1.063-2.062 0-3.062-1.531-3.062-3.49 0-2.365 1.404-3.402 2.834-3.402.822 0 1.731.305 2.175 1.025h.024v-3.341h1.44v9.031zM36.908 29.789c-.617.099-1.174.327-1.174 1.086 0 .646.822.834 1.328.834.631 0 1.617-.327 1.617-1.237v-1.076c-.441.291-1.138.278-1.771.393zM48.104 27.094c-1.352 0-1.834 1.202-1.834 2.377 0 1.125.557 2.237 1.809 2.237 1.291 0 1.834-1.176 1.834-2.313-.001-1.442-.696-2.301-1.809-2.301zM24.187 27.094c-.998 0-1.682.758-1.719 1.732h3.363c-.05-.909-.669-1.732-1.644-1.732z"/></svg>