<svg xmlns="http://www.w3.org/2000/svg" viewBox="0 0 56.48 56.48" enable-background="new 0 0 56.48 56.48"><path d="M31.634 22.062h-6.607c-.422.799-.702 1.403-.781 1.553h8.014c-.181-.534-.389-1.051-.626-1.553zM21.678 25.909c-.635 0-1.188.081-2.048.299l-.225 1.279.143-.037.246-.062c.368-.098.921-.157 1.413-.157.798 0 1.106.14 1.106.515 0 .104-.021.182-.062.369-.266-.028-.512-.044-.696-.044-1.904 0-3.01.809-3.01 2.189 0 .918.635 1.551 1.557 1.551.778 0 1.373-.219 1.802-.686l-.041.588h1.433l.02-.154.021-.195.041-.288.061-.36.369-2.018c.103-.632.123-.845.123-1.125 0-1.086-.778-1.664-2.253-1.664zm-.859 4.698c-.389 0-.614-.228-.614-.579 0-.574.492-.864 1.454-.864l.39.022c-.042.84-.534 1.421-1.23 1.421zM16.293 24.732l-1.905 4.325-.123-4.325h-2.683l-1.332 6.984h1.556l1.024-5.336.287 5.336h1.557l2.355-5.37-1.024 5.37h1.72l1.352-6.984zM47.568 31.193l-.041-.098-.102-.022h-.164v.392h.082v-.153h.061l.062.153h.102l-.061-.17.061-.102zm-.123.044l-.041.008h-.062v-.102h.043l.061.009.021.039-.022.046zM51.164 36.187l-.042-.098-.103-.022h-.163v.392h.082v-.154h.061l.062.154h.103l-.062-.171.062-.101zm-.124.044l-.041.008h-.062v-.101h.041l.062.008.021.039-.021.046zM55.026 9.939h-53.572c-.804 0-1.454.651-1.454 1.454v33.695c0 .803.65 1.454 1.454 1.454h53.572c.804 0 1.454-.651 1.454-1.454v-33.695c0-.803-.65-1.454-1.454-1.454zm-3.617 26.579c-.042.076-.099.134-.173.175-.074.041-.152.062-.232.062-.082 0-.16-.021-.234-.062-.073-.041-.131-.099-.174-.175-.041-.073-.062-.151-.062-.232s.021-.158.063-.234c.041-.076.101-.133.175-.174.075-.039.151-.06.231-.06.079 0 .155.021.229.06.075.041.134.098.175.174.042.076.062.154.062.234s-.018.161-.06.232zm1.048-8.277c.002 8.005-6.484 14.497-14.49 14.499-3.744.001-7.158-1.418-9.73-3.749-2.572 2.327-5.979 3.745-9.717 3.745-8.001 0-14.495-6.493-14.495-14.495 0-7.97 6.443-14.444 14.402-14.496h.093c3.738 0 7.146 1.418 9.718 3.745 2.571-2.328 5.981-3.747 9.722-3.748 8.006-.003 14.497 6.486 14.499 14.492l-.002.007zM29.673 18.987h-2.754c-.37.5-.718 1.032-1.033 1.552h4.913c-.341-.542-.718-1.06-1.126-1.552zM32.719 27.25c.349 0 .799.03 1.25.083l.246-1.313c-.451-.062-1.127-.112-1.537-.112-1.924 0-2.602.874-2.601 1.919 0 .716.41 1.211 1.331 1.583.695.283.799.367.799.627 0 .352-.306.512-.982.512-.534 0-1.004-.07-1.558-.224l-.245 1.31.082.015.307.056c.102.02.266.037.471.051.409.03.715.047.941.047 1.844 0 2.684-.599 2.684-1.894 0-.78-.348-1.235-1.229-1.581-.717-.287-.799-.352-.799-.618 0-.305.286-.461.84-.461zM41.693 26.023l-.145-.034-.185-.014c-.554 0-.963.252-1.495.923l.164-.862h-1.557l-1.045 5.68h1.721c.615-3.473.88-4.083 1.699-4.083l.205.014.205.042.617-1.604-.184-.062zM36.528 27.417h.881l.246-1.382h-.88l.246-1.304h-1.7l-.799 4.336-.082.449-.103.559c-.021.18-.041.35-.041.509 0 .806.471 1.248 1.352 1.248.389 0 .758-.056 1.229-.185l.225-1.26c-.121.037-.265.055-.45.055-.409 0-.595-.126-.595-.42l.021-.235.45-2.37zM47.404 30.828c-.246 0-.451.199-.451.442 0 .246.205.445.451.445.246 0 .451-.199.451-.445 0-.242-.205-.442-.451-.442zm0 .781c-.184 0-.348-.151-.348-.339 0-.186.164-.336.348-.336.186 0 .328.15.328.336 0 .188-.142.339-.328.339zM44.537 25.874c-2.048 0-3.379 1.365-3.379 3.376 0 1.441.777 2.619 2.725 2.619 1.76 0 3.071-.839 3.338-2.727.041-.33.041-.353.041-.705 0-1.442-.942-2.563-2.725-2.563zm.84 3.219c-.143.885-.941 1.392-1.31 1.392-.615.012-.983-.507-.983-1.278 0-.912.532-1.947 1.413-1.947.696 0 .941.563.941 1.155 0 .246-.02.47-.061.678zM29.337 29.361c.145-.576.207-.984.207-1.404 0-1.259-.902-2.062-2.314-2.062-1.721 0-2.99 1.435-2.99 3.382-.001 1.675 1.003 2.546 2.928 2.546.594 0 1.167-.075 1.741-.229l.286-1.422c-.614.25-1.167.361-1.782.361-.983 0-1.495-.335-1.495-.993l.021-.179h3.398zm-2.128-2.166c.512 0 .799.269.799.73v.292l-1.905-.002c.164-.66.554-1.02 1.106-1.02zM24.818 34.362c.251.538.544 1.051.856 1.552h5.143c.312-.499.594-1.016.844-1.552h-6.843zM26.753 37.403c.459.563.945 1.1 1.482 1.584l.037-.032h.002c.528-.481 1.021-.999 1.472-1.552h-2.993z"/></svg>