<svg xmlns="http://www.w3.org/2000/svg" viewBox="0 0 56.48 56.48" enable-background="new 0 0 56.48 56.48"><path d="M18.728 27.479c-.113-.381-.289-.691-.53-.931-.239-.24-.545-.415-.915-.525-.37-.109-.813-.165-1.325-.165h-1.451v5.982h1.451c.513 0 .955-.056 1.325-.166.37-.108.676-.283.915-.523.241-.24.417-.551.53-.932.114-.379.17-.836.17-1.369s-.056-.991-.17-1.371zM7.179 30.909c-.111-.203-.233-.381-.343-.524l-.062.027c-.324.135-.649.288-.965.432l-.638.291c-.954.422-1.25 1.179-.859 2.186.227.58.72.927 1.32.927.122 0 .247-.015.373-.043.987-.399 1.393-1.354 1.443-2.114.029-.443-.099-.849-.269-1.182zM49.553 25.958l-1.431 3.661h2.812zM55.026 9.939h-53.572c-.804 0-1.454.651-1.454 1.454v33.694c0 .803.65 1.455 1.454 1.455h53.572c.804 0 1.454-.651 1.454-1.454v-33.695c0-.803-.65-1.454-1.454-1.454zm-44.661 22.691c-1.232.603-2.479 1.18-3.739 1.728-.145.096-.303.182-.479.251l-.029.01c-.163.039-.328.059-.487.059-.772 0-1.431-.459-1.718-1.199-.477-1.22-.081-2.214 1.083-2.731l.632-.287c.296-.136.601-.278.909-.407l-.015-.018-.115-.15c-.553-.629-1.106-1.26-1.627-1.914-.554-.696-.939-1.476-.956-2.388-.017-.948.404-1.65 1.266-2.052 1.259-.586 2.528-1.152 3.793-1.726-1.272.915-1.184 2.263-.7 3.243.333.677.84 1.272 1.301 1.88.452.595.976 1.144 1.391 1.753.415.61.652 1.209.638 1.939-.017.886-.337 1.616-1.148 2.009zm8.389-1.125c-.551.584-1.369.891-2.457.916h-2.471v-7.144h2.471c1.088.027 1.906.332 2.457.915.55.584.825 1.468.825 2.656 0 1.188-.276 2.074-.825 2.657zm8.08.917h-.722l-1.811-6.393h-.021l-1.801 6.393h-.74l-1.98-7.144h.73l1.621 6.253h.02l1.74-6.253h.85l1.752 6.253h.02l1.63-6.253h.681l-1.969 7.144zm8.662-2.164c-.14.449-.35.84-.63 1.182-.28.338-.631.611-1.051.814-.421.203-.91.305-1.472.305-.561 0-1.053-.102-1.476-.305-.424-.203-.777-.474-1.056-.814-.28-.342-.49-.735-.631-1.182-.14-.445-.21-.916-.21-1.41 0-.493.069-.963.21-1.41.141-.447.35-.843.631-1.186.282-.343.632-.616 1.056-.82.423-.203.915-.305 1.476-.305.562 0 1.051.102 1.472.305.42.204.771.476 1.051.82.28.344.49.74.63 1.186.141.447.21.917.21 1.41 0 .495-.069.966-.21 1.41zm5.753 2.164h-4.683v-7.144h.681v6.563h4.002v.581zm10.784-.001l-.871-2.221h-3.25l-.861 2.221h-5.1129999999999995v-7.144h.681v6.563h3.945l2.637-6.563h.762l2.801 7.144h-.731zM34.87 27.698c-.102-.373-.263-.707-.479-1.005-.217-.297-.493-.535-.83-.716-.338-.18-.742-.27-1.217-.27-.474 0-.879.09-1.221.27-.34.181-.617.419-.835.716-.217.297-.377.632-.479 1.005-.104.374-.155.757-.155 1.15 0 .388.052.77.155 1.146.103.377.264.713.479 1.01.215.297.495.536.835.717.342.18.747.27 1.221.27.475 0 .879-.09 1.217-.27.337-.181.613-.42.83-.717.217-.297.377-.633.479-1.01.102-.377.155-.759.155-1.146 0-.395-.053-.776-.155-1.15z"/></svg>