<svg xmlns="http://www.w3.org/2000/svg" viewBox="0 0 56.48 56.48" enable-background="new 0 0 56.48 56.48"><path d="M20.843 37.776c.354-.126.72-.146 1.052.043l.235.146.19-.166.161-.113c-.148-.092-.264-.188-.396-.243-.368-.157-.72-.167-1.088-.102-.295.053-.563.172-.757.416-.295.368-.161.827.285.974l.292.063.671.081c.135.021.281.054.297.233.016.174-.057.305-.218.378l-.197.058c-.479.079-.889-.052-1.229-.414l-.388.246c.18.151.285.301.451.397.321.188.686.235 1.052.207.377-.029.709-.162.917-.503.264-.432.081-.891-.407-1.029l-.165-.031-.817-.115c-.208-.037-.273-.205-.147-.373.05-.067.128-.127.206-.153zM32.333 23.439l-.287-.482-2.154 1.419c1.498 2.446.492 5.116-1.118 6.317-.851.635-1.8.996-2.855.977-1.653-.029-2.944-.772-3.879-2.143-.666.439-1.309.873-1.961 1.292-.153.099-.15.172-.053.306 1.711 2.343 4.017 3.39 6.897 3.078 1.604-.174 2.988-.889 4.133-2.027 1.308-1.302 2.021-2.891 2.154-4.725.104-1.417-.197-2.759-.877-4.012zM36.716 19.7c-1.71-2.345-4.016-3.393-6.896-3.08-1.605.174-2.988.889-4.133 2.028-1.307 1.301-2.02 2.89-2.155 4.724-.103 1.418.198 2.76.877 4.013l.286.482 2.154-1.419c-1.498-2.446-.492-5.116 1.119-6.317.851-.635 1.798-.996 2.856-.977 1.651.03 2.942.774 3.878 2.144.666-.44 1.309-.873 1.962-1.292.154-.1.151-.173.052-.306zM26.293 37.4l-.102.203c-.199.438-.413.869-.623 1.303l-.115.195-.321-1.717-.492-.002-.122.211c-.106.205-.237.397-.358.595l-.545.885-.036-.01-.162-1.655h-.498l.258 2.479h.563c.108-.211.312-.59.432-.795l.587-.988.302 1.783h.539l.083-.164c.361-.734 1.104-2.193 1.104-2.193l.063-.13h-.557zM36.293 37.414l-.189.835h-1.368l.164-.837h-.515l-.521 2.479h.515l.268-1.229h1.379l-.256 1.222h.554l.521-2.47h-.552zM31.832 39.461c-.129-.064-.258-.188-.319-.318-.264-.543.12-1.313.706-1.442.451-.099.826.022 1.088.429l.397-.186c-.162-.236-.223-.344-.382-.45-.701-.469-2.21-.269-2.359 1.104-.078.705.226 1.193.853 1.339.18.042.372.055.558.046.484-.021.87-.227 1.137-.667l-.429-.185c-.364.416-.825.546-1.25.33zM55.026 9.939h-53.572c-.804 0-1.454.651-1.454 1.454v33.694c0 .803.65 1.455 1.454 1.455h53.572c.804 0 1.454-.651 1.454-1.454v-33.695c0-.803-.65-1.454-1.454-1.454zm-17.761 31.402l-.375.006c-5.836 0-11.672-.002-17.507.004-.545 0-.987-.179-1.329-.604-.224-.276-.293-.596-.293-.946.002-3.83.001-7.664.001-11.496 0-3.794.004-7.589-.004-11.383-.001-.649.211-1.172.745-1.551.214-.152.451-.24.716-.24l8.773-.002c3.018 0 6.036.001 9.055 0 .936-.001 1.641.704 1.641 1.647.001 4.552.001 9.105.001 13.656 0 1.743-.005 3.482.001 5.223.005 1.381.023 2.765.031 4.146.004.78-.672 1.493-1.456 1.54zM28.446 37.414l-.083.396h.966l-.434 2.078.342.002c.123.014.161-.043.183-.153l.148-.714.259-1.213h.983l.074-.396h-2.438zM27.4 37.414l-.518 2.466h.502l.52-2.466h-.504z"/></svg>