<svg xmlns="http://www.w3.org/2000/svg" viewBox="0 0 56.48 56.48" enable-background="new 0 0 56.48 56.48"><path d="M55.026 9.939h-53.572c-.804 0-1.454.651-1.454 1.454v33.695c0 .803.65 1.454 1.454 1.454h53.572c.804 0 1.454-.651 1.454-1.454v-33.695c0-.802-.65-1.454-1.454-1.454zm-47.225 24.602h-1.644v-8.781h1.644v8.781zm-.799-9.869c-.579.004-1.051-.458-1.069-1.015-.018-.582.455-1.076 1.037-1.08.593-.003 1.057.452 1.059 1.036.002.587-.449 1.054-1.027 1.059zm2.049 9.87v-.104l.002-1.226.049-.162c1.061-1.598 2.123-3.191 3.185-4.787.945-1.418 1.89-2.838 2.834-4.259l.055-.086h-5.551v-1.429h7.691v.104l-.002 1.159c-.001.066-.021.142-.057.197-.433.677-.871 1.349-1.307 2.022l-2.186 3.375-1.517 2.342-.89 1.376h6.102l.002 1.478h-8.41zm16.19-4.125h-5.765c-.002.346.042.664.117.979.114.475.297.918.613 1.296.374.447.847.683 1.439.677.896-.01 1.641-.353 2.253-.997l.116-.134.093-.007.977.841-.28.31c-.485.502-1.046.89-1.71 1.115-.372.126-.756.197-1.149.219-.447.024-.889 0-1.323-.117-.824-.221-1.471-.692-1.959-1.387-.457-.647-.71-1.378-.849-2.15-.082-.455-.122-.913-.111-1.374.025-1.128.35-2.153 1.077-3.032.554-.669 1.251-1.117 2.109-1.278.956-.179 1.871-.069 2.702.475.46.302.799.716 1.058 1.196.362.675.532 1.402.598 2.159.033.396.035.797-.006 1.209zm5.575 3.942c-.475.186-.965.283-1.473.297-.246.006-.494.02-.737-.001-.597-.052-1.024-.37-1.311-.884-.201-.36-.301-.752-.308-1.161-.012-.642-.011-1.283-.011-1.925v-4.03h-1.43l.002-.522.06-.072c.281-.21.579-.4.841-.631.549-.484 1.011-1.046 1.366-1.689l.192-.362.065-.051.566-.002v2.174h2.059v1.154h-2.058v.102c0 1.783-.001 3.565.001 5.349 0 .225.032.445.119.656.144.35.411.531.777.59.412.063.817.029 1.22-.072l.133-.029.004.09.002.906c.001.061-.021.09-.079.113zm5.796 0c-.474.188-.966.284-1.474.295-.276.007-.557.022-.83-.013-.559-.072-.953-.396-1.219-.885-.218-.398-.308-.832-.308-1.283l-.001-5.685v-.136h-1.43l.002-.527.062-.071c.277-.205.574-.388.829-.617.545-.491 1.016-1.05 1.371-1.698l.189-.364.056-.049.575-.003v2.177h2.072v1.149h-2.07v.101c0 1.758-.004 3.516.004 5.273 0 .218.033.441.094.65.111.392.393.605.791.672.426.069.842.029 1.256-.076l.104-.023.006.082.002.916c0 .066-.023.092-.081.115zm4.39.081c-.43.137-.865.225-1.316.247-.314.016-.621-.009-.912-.136-.475-.209-.775-.578-.95-1.06-.093-.257-.133-.522-.133-.796.001-3.605.001-7.212.001-10.817v-.129h1.674v.141c0 3.462-.001 6.924.003 10.387 0 .204.029.409.069.609.06.295.236.482.543.558.332.08.658.065.988.004l.1-.021.008.076.002.832c-.002.061-.02.087-.077.105zm7.522-4.023h-5.776l.03.421c.062.568.213 1.11.522 1.599.293.462.687.798 1.238.899.446.081.887.022 1.316-.113.566-.181 1.031-.512 1.418-.959l.037-.041.033-.025 1.016.87-.176.207c-.604.649-1.313 1.131-2.19 1.327-.925.209-1.835.182-2.707-.23-.546-.257-.983-.648-1.332-1.14-.45-.634-.712-1.343-.851-2.101-.143-.787-.186-1.576-.03-2.365.188-.956.604-1.794 1.317-2.469.605-.571 1.326-.903 2.158-.979.605-.056 1.198.01 1.767.238.641.258 1.128.696 1.487 1.278.436.702.633 1.48.713 2.294.047.426.043.85.01 1.289zm1.115-3.287c-.512 0-.905-.396-.905-.911 0-.505.399-.903.905-.903.51 0 .908.401.908.912 0 .504-.401.902-.908.902zM49.641 25.474c-.412 0-.748.336-.748.747 0 .414.332.749.744.749.414 0 .75-.335.752-.745 0-.407-.34-.751-.748-.751zm.189 1.12l-.085-.144c-.081-.123-.129-.144-.291-.127v.4h-.163v-.962l.54.003c.115.008.188.1.207.211.019.114-.034.223-.141.281l-.081.034.152.205.14.221c-.194.029-.193.029-.278-.122zM23.357 27.648c-.198-.416-.484-.755-.904-.959-.771-.375-1.693-.173-2.252.483-.355.416-.554.903-.648 1.435-.039.221-.053.448-.079.678h4.193l.006-.042c.011-.556-.075-1.092-.316-1.595zM46.587 27.551c-.346-.645-.877-1.02-1.617-1.044-.607-.021-1.108.219-1.5.68-.377.442-.571.965-.655 1.532l-.056.566h4.188v-.302c-.013-.505-.121-.986-.36-1.432zM49.74 25.898l-.282-.014v.281l.272-.002c.073-.007.131-.046.134-.129.002-.081-.046-.128-.124-.136z"/></svg>