<svg xmlns="http://www.w3.org/2000/svg" viewBox="0 0 56.48 56.48" enable-background="new 0 0 56.48 56.48"><path d="M27.955 37.619l-.933 2.802h1.827l-.894-2.802zM22.495 37.26c-.581-.037-1.164-.008-1.769-.008v2.041h.201c.477 0 .951.021 1.426-.008.263-.015.55-.098.688-.363.101-.19.165-.41.205-.625.091-.479-.271-1.003-.751-1.037zM55.026 9.939h-53.572c-.804 0-1.454.651-1.454 1.454v33.694c0 .803.65 1.455 1.454 1.455h53.572c.804 0 1.454-.651 1.454-1.454v-33.695c0-.803-.65-1.454-1.454-1.454zm-35.717 3.209h2.83v2.782h-2.83v-2.782zm2.828 5.528v13.129h.282c2.401 0 4.802.023 7.203-.012.924-.014 1.853-.096 2.742-.417.828-.299 1.479-.816 2.008-1.51.436-.572.733-1.22.846-1.913.206-1.266.088-2.468-.729-3.532-.289-.375-.68-.675-1.114-.875l-.523-.267c.218-.172.431-.354.619-.529.482-.447.697-1 .799-1.628.063-.385.106-.779.099-1.168-.031-1.56-1.023-2.839-2.476-3.583-.567-.29-1.197-.425-1.709-.425l-4.595-.002h-.273v-2.795h11.905v21.207h-17.916c0-5.22 0-10.444-.002-15.68h2.834zm8.288 6.155c.74.115 1.354.606 1.535 1.39.244 1.061-.037 2.316-1.371 2.746-.203.065-.418.111-.63.117-.909.028-1.819.041-2.729.053-.63.006-1.26 0-1.906 0v-10.476l4.585-.001c.63 0 1.271.698 1.271 1.444.076 1.759-.924 2.01-1.6 2.01l-1.45-.003v2.709l2.295.011zm-7.514 15.742c-.626.043-1.258.037-1.889.052h-.307v2.694h-1.602v-7.441c1.171 0 2.326-.021 3.48.01.585.015 1.153.15 1.602.592.319.316.508.699.592 1.128.105.551.097 1.101-.131 1.631-.332.771-.879 1.276-1.745 1.334zm6.956 2.754c-.045-.001-.111-.058-.129-.103-.157-.477-.307-.955-.465-1.459h-2.092c-.587 0-.587 0-.776.574-.093.279-.181.561-.287.834-.028.066-.12.15-.183.151-.497.013-.996.007-1.541.007l.222-.689 1.03-2.832 1.384-3.813c.021-.051.108-.112.168-.112.512-.01 1.027-.012 1.54.002.067.002.169.094.194.166.463 1.287.914 2.578 1.373 3.866l1.133 3.14.064.273c-.563-.001-1.098.001-1.635-.005zm7.068-6.608l-.938 1.689c-.344.624-.7 1.244-1.032 1.876-.086.165-.141.365-.146.552-.015.821-.005 1.642-.005 2.481h-1.557l-.012-.208c0-.546-.038-1.096.01-1.637.054-.664-.124-1.234-.478-1.785-.295-.463-.545-.955-.813-1.436-.399-.718-.796-1.437-1.191-2.158l-.108-.215c.614 0 1.194-.002 1.777.006.049 0 .123.064.146.117.447.914.889 1.831 1.33 2.747l.151.285.838-1.808c.192-.422.38-.85.578-1.27.02-.041.102-.074.155-.074.555-.006 1.108-.004 1.727-.004l-.432.842z"/></svg>