<svg xmlns="http://www.w3.org/2000/svg" viewBox="0 0 56.48 56.48" enable-background="new 0 0 56.48 56.48"><path d="M11.717 25.689c-.773-.012-1.426.635-1.434 1.419-.008.776.635 1.421 1.42 1.429.76.006 1.402-.62 1.432-1.356.029-.746-.549-1.479-1.418-1.492zM45.482 25.38c-.658-.058-1.248.387-1.326 1.011h2.242c.024-.495-.408-.965-.916-1.011zM5.371 25.689c-.773-.011-1.414.626-1.43 1.419-.016.771.631 1.422 1.418 1.428.787.005 1.422-.626 1.428-1.417.004-.786-.623-1.421-1.416-1.43zM33.472 25.689c-.775-.001-1.402.635-1.422 1.402-.017.729.586 1.449 1.426 1.446.783-.004 1.428-.647 1.424-1.425-.004-.782-.646-1.425-1.428-1.423zM55.026 9.939h-53.572c-.804 0-1.454.651-1.454 1.454v33.694c0 .803.65 1.455 1.454 1.455h53.572c.804 0 1.454-.651 1.454-1.454v-33.695c0-.802-.65-1.454-1.454-1.454zm-49.159 20.053c-.633.1-1.233.016-1.807-.267l-.107-.047-.014.158-.002 1.887c0 .16 0 .162-.162.162l-1.336-.005v-4.975l.035-.203c.175-1.212 1.078-2.18 2.279-2.441l.406-.076h.416l.406.076c1.199.257 2.099 1.222 2.279 2.442.228 1.547-.862 3.039-2.393 3.289zm6.422-.018c-1.631.336-3.178-.754-3.451-2.351-.271-1.584.719-3.035 2.297-3.375l.369-.064h.418l.512.103c1.113.274 1.974 1.214 2.154 2.347.25 1.572-.733 3.016-2.299 3.34zm6.253.02c-.625.102-1.217.012-1.783-.265l-.117-.049-.014.162c0 .629-.004 1.258.002 1.887.002.123-.033.162-.158.158-.4-.006-.801-.004-1.201 0-.106.002-.137-.031-.137-.14.004-1.554-.002-3.108.004-4.665.006-1.405 1.041-2.612 2.426-2.843l.285-.053h.418l.393.074c1.195.26 2.072 1.175 2.275 2.374.27 1.585-.808 3.097-2.393 3.36zm11.505-.088l-.135.007c-.43 0-.859-.005-1.287.003-.116.001-.145-.034-.145-.145.004-1.014.002-2.025.002-3.038l-.023-.354c-.08-.445-.373-.689-.838-.702-.318-.009-.625.047-.922.16-.1.039-.135.089-.135.197.006 1.232.004 2.466.006 3.699v.169h-1.58v-.139c0-1.054.002-2.106-.004-3.16 0-.132-.022-.27-.061-.396-.104-.327-.373-.509-.76-.53-.338-.018-.664.051-.986.146l-.064.084-.002.109v3.888h-1.572l-.006-.125c0-1.653 0-3.309-.004-4.962 0-.103.035-.139.127-.169.698-.226 1.409-.364 2.141-.415.507-.035 1.003-.014 1.48.175.16.065.308.163.453.259.062.041.103.044.166.014.672-.343 1.391-.481 2.141-.46.25.008.506.042.748.103.668.165 1.053.611 1.182 1.274.049.247.072.502.074.753.008 1.131.004 2.262.004 3.393v.162zm3.922.083c-1.583.255-3.026-.726-3.354-2.297-.34-1.636.766-3.187 2.364-3.454l.285-.053h.416l.49.094c1.158.285 2.017 1.23 2.195 2.413.235 1.555-.849 3.047-2.396 3.297zm6.656-.086v-.146c0-1.008.003-2.017-.002-3.026 0-.118-.01-.238-.039-.35-.102-.392-.397-.634-.813-.659-.399-.025-.789.016-1.17.146-.092.03-.123.074-.123.174.004 1.243.002 2.484.002 3.724v.132l-.1.013-1.349.002c-.092.001-.119-.027-.119-.117.002-1.661.002-3.317 0-4.975 0-.084.029-.121.106-.148.566-.19 1.144-.32 1.738-.383.369-.039.74-.073 1.109-.066.307.006.619.048.918.121.744.182 1.162.685 1.291 1.43.037.211.053.429.053.644.006 1.107.004 2.215.004 3.32l.003.164h-1.509zm7.158-2.386h-3.551c-.162 0-.16 0-.146.152.027.307.174.547.416.732.297.228.643.334 1.006.374.728.079 1.429-.035 2.105-.312l.068-.02.008.109.004.918c0 .094-.033.138-.111.178-.379.19-.781.281-1.193.336-.455.06-.91.07-1.364.007-1.263-.174-2.159-.948-2.347-2.213-.114-.769-.041-1.516.324-2.212.404-.775 1.057-1.209 1.92-1.325.484-.067.961-.046 1.426.111.722.242 1.125.775 1.316 1.49.143.543.127 1.097.119 1.675zm6.208-3.046l-1.252 3.208-1.805 4.617h-1.666l.406-1.048c.12-.308.241-.614.35-.926.023-.067.023-.162-.004-.229-.741-1.857-1.485-3.713-2.229-5.569l-.062-.161.132-.009 1.457-.003c.1-.001.141.038.174.126l1.358 3.626.07.173.07-.161c.447-1.211.895-2.422 1.338-3.634.037-.098.082-.13.184-.13.511.006 1.021.005 1.531.006l.003.023-.055.091zM18.053 25.689c-.789.01-1.42.633-1.42 1.429 0 .789.645 1.421 1.43 1.418.832.004 1.443-.724 1.418-1.464-.024-.752-.667-1.393-1.428-1.383z"/></svg>