<svg xmlns="http://www.w3.org/2000/svg" viewBox="0 0 56.48 56.48" enable-background="new 0 0 56.48 56.48"><path d="M19.527 27.724c-.561-.477-1.151-.712-1.782-.712-.645 0-1.245.235-1.802.712-.559.477-.836 1.005-.836 1.583h5.28c-.016-.581-.307-1.107-.86-1.583zM55.026 9.939h-53.572c-.804 0-1.454.651-1.454 1.454v33.695c0 .803.65 1.454 1.454 1.454h53.572c.804 0 1.454-.651 1.454-1.454v-33.695c0-.803-.65-1.454-1.454-1.454zm-45.349 24.767c-2.107-1.696-3.341-3.788-3.312-6.032.07-5.551 7.854-9.949 17.383-9.824 5.969.083 11.206 1.918 14.266 4.645-3.092-2.177-7.655-3.59-12.78-3.655-9.394-.127-17.069 4.311-17.144 9.91-.02 1.695.55 3.39 1.587 4.956zm6.534-1.076c.59.308 1.322.465 2.179.465.665 0 1.468-.205 2.405-.611.94-.406 1.539-.61 1.801-.61.474 0 .878.163 1.209.487.332.326.502.717.502 1.173 0 1.043-.841 1.858-2.524 2.442-1.28.441-2.589.658-3.92.658-2.136 0-3.864-.658-5.187-1.977-1.326-1.318-1.986-2.979-1.986-4.982 0-1.908.688-3.537 2.064-4.894 1.375-1.364 3.079-2.042 5.108-2.042 1.897 0 3.475.644 4.747 1.927 1.271 1.287 1.905 2.818 1.905 4.591 0 .637-.161 1.076-.485 1.321-.324.244-.829.369-1.511.369h-7.411c0 .732.364 1.294 1.104 1.683zm18.635 3.396c-.965.404-1.981.607-3.051.607-2.07 0-3.751-.69-5.045-2.074-1.244-1.321-1.866-2.947-1.866-4.885s.632-3.579 1.906-4.922c1.27-1.34 2.935-2.013 5.005-2.013 1.191 0 2.219.163 3.075.489 1.193.437 1.787 1.123 1.787 2.05 0 .474-.155.889-.472 1.246-.312.357-.719.54-1.204.54-.334 0-.812-.104-1.441-.309-.628-.201-1.126-.304-1.493-.304-.979 0-1.736.322-2.279.967-.506.585-.76 1.335-.76 2.257 0 .871.229 1.608.682 2.207.508.694 1.212 1.041 2.121 1.041.404 0 .951-.107 1.648-.33.699-.219 1.209-.33 1.522-.33.45 0 .846.182 1.177.539.334.359.499.75.499 1.17.001.863-.604 1.549-1.811 2.054zm13.404-1.466c-1.299 1.384-2.98 2.074-5.049 2.074-2.069 0-3.75-.69-5.045-2.074-1.243-1.321-1.865-2.947-1.865-4.885s.622-3.564 1.865-4.886c1.312-1.369 2.995-2.05 5.045-2.05 2.066 0 3.75.681 5.049 2.05 1.241 1.32 1.866 2.946 1.866 4.886 0 1.939-.625 3.564-1.866 4.885zM45.312 28.468c-.505-.679-1.208-1.018-2.111-1.018-.9 0-1.603.339-2.107 1.018-.451.598-.676 1.336-.676 2.207 0 .87.225 1.616.676 2.229.503.684 1.207 1.02 2.107 1.02.902 0 1.605-.336 2.111-1.02.449-.614.676-1.36.676-2.229 0-.871-.227-1.61-.676-2.207z"/></svg>