<svg xmlns="http://www.w3.org/2000/svg" viewBox="0 0 56.48 56.48" enable-background="new 0 0 56.48 56.48"><path d="M55.026 9.939h-53.572c-.804 0-1.454.651-1.454 1.454v33.694c0 .803.65 1.455 1.454 1.455h53.572c.804 0 1.454-.651 1.454-1.454v-33.695c0-.803-.65-1.454-1.454-1.454zm-19.585 15.599c.411 0 .729.33.729.745 0 .399-.318.729-.707.729-.413 0-.771-.302-.771-.729 0-.414.33-.744.749-.745zm-10.072 0c.417 0 .735.33.735.745 0 .399-.318.729-.707.729-.411 0-.77-.302-.77-.729 0-.414.33-.744.742-.745zm-12.997 4.498c-1.134 1.64-2.101 3.638-2.761 5.418-.313.843-1.869.712-2.217-.112-.654-1.567-1.337-3.531-3.49-5.905-.943-.968-.255-1.584.307-1.414 1.048.341 2.379 1.288 4.093 3.673.475-1.183 2.049-4.095 2.68-5.029h.556v-.762h.509v-.762h.765v-1.191h.809v-.002h.002v-.679h.683v-.556h1.271v.77h.77v-.77h-.768v-.758h-.764v-.729h.764v.727h.77v-1.562h.741v-.812h1.481v-.804h.811v-.816h.816v.816h-.816v.804h.816v.816h-.816v-.816h-.811v.812h-.724v.799h.852v.764h-.852v.758h-.758v-.757h-.741v.758h.741v1.618h-.66v.639h-.677v.931h-.608v.769h-.752v.858h-.77v.886h-.637v.77h-.614l-.001.85zm5.592 1.068h-3.953l-.059.663c0 1.309.689 2.768 2.165 2.768.7 0 1.325-.47 1.736-1.02l.29.291c-.648.797-1.418 1.17-2.454 1.17-1.708 0-3.114-1.199-3.114-2.963 0-1.722 1.308-3.278 3.103-3.278 1.349 0 2.628.758 2.628 2.246 0 .178-.203.122-.342.123zm5.122-1.157c-.578 0-.457-.717-.995-.717-.411 0-.868.343-1.071.688-.318.566-.318 1.241-.318 1.874v1.364c0 1.006-.109 1.336 1.048 1.392v.276l-1.586-.056-1.598.056v-.276c1.036-.071.961-.401.961-1.311v-1.691c0-.373.018-1.352-.081-1.67-.121-.496-.469-.439-.908-.439v-.275c.648-.043 1.256-.29 1.863-.427.122.4.18.896.162 1.392h.029c.358-.84 1.048-1.392 1.997-1.392.428 0 .978.208.978.716 0 .262-.22.497-.481.496zm3.995 4.878l-1.476-.055-1.609.055v-.277c1.018-.069.931-.4.949-1.31v-1.97c0-.259 0-1.32-.058-1.529-.093-.344-.672-.317-.949-.302v-.275l2.176-.427v4.422c.029.909-.121 1.324.967 1.391v.277zm3.526.151c-.936 0-1.667-.275-2.414-.826l-.33.58h-.15v-2.688h.318c.271 1.39 1.018 2.562 2.604 2.562 1.072 0 1.969-.606 1.969-1.723 0-1.252-1.09-1.75-2.096-2.148-1.255-.482-2.587-1.145-2.587-2.715s1.227-2.479 2.726-2.479c.759 0 1.459.262 2.078.702l.318-.536h.156l.062 2.383h-.316c-.315-1.144-.961-2.177-2.299-2.177-.879 0-1.608.565-1.608 1.459 0 1.09.977 1.462 1.829 1.821 1.435.59 3.032 1.308 3.032 3.111 0 1.805-1.682 2.674-3.292 2.674zm3.456-.151v-.276c1.018-.071.937-.401.949-1.311v-1.969c0-.261 0-1.321-.059-1.53-.093-.345-.671-.318-.949-.302v-.275l2.178-.427v4.422c.029.909-.123 1.324.967 1.392v.276l-1.477-.056-1.609.056zm9.299-5.007l-.892-.48c-.196 0-.416.137-.566.26.329.374.497.856.497 1.353 0 1.625-1.228 2.095-2.646 2.163-.416.014-1.477.014-1.477.578 0 .482.759.428 1.061.455l.926.042c1.409.109 2.889.163 2.889 2.013 0 1.748-1.621 2.312-3.126 2.312-1.14 0-2.888-.398-2.888-1.832 0-.566.422-1.145 1.019-1.145.231 0 .411.098.573.25-.452.082-.713.549-.713.977 0 1.2 1.221 1.435 2.188 1.435.968 0 2.015-.413 2.015-1.53 0-1.349-1.517-1.279-2.465-1.337-.916-.026-2.166 0-2.166-1.239 0-.663.619-1.102 1.211-1.185v-.028c-.799-.26-1.472-1.018-1.472-1.899 0-1.462 1.239-2.246 2.589-2.246.637 0 1.283.192 1.754.62.369-.29.832-.58 1.336-.58.354 0 .812.168.812.592 0 .25-.19.456-.459.451zm8.031 5.007l-1.506-.055-1.598.055v-.277c1.036-.069.967-.4.967-1.31v-1.763c0-.95.041-2.301-1.268-2.301-1.078 0-1.766.842-1.766 1.848v2.135c0 .909-.121 1.324.967 1.391v.277l-1.499-.055-1.604.055v-.277c1.036-.069.967-.4.967-1.31v-1.692c0-.386 0-1.351-.068-1.668-.11-.496-.481-.44-.92-.44v-.275c.71-.083 1.219-.304 1.898-.427l.178 1.253h.029c.48-.855 1.227-1.253 2.199-1.253 1.315 0 2.057.59 2.057 1.9v2.521c0 .909-.11 1.324.965 1.391h.002v.277zm.666-4.122c-.554 0-.984-.432-.984-.983 0-.553.43-.984.984-.984s.983.429.983.984c0 .551-.429.983-.983.983zM17.09 21.19h.758v.764h-.758zM52.059 28.875c-.476 0-.834.372-.834.845 0 .47.359.843.834.843.473 0 .826-.373.826-.843 0-.473-.352-.845-.826-.845zm.334 1.411l-.317-.505h-.231v.506h-.146v-1.137h.44c.254 0 .369.109.369.312 0 .201-.133.293-.289.318l.342.506h-.168zM39.851 29.052c-1.059 0-1.348 1.032-1.348 1.901 0 .827.329 1.847 1.325 1.847 1.059 0 1.399-.953 1.399-1.847 0-.881-.33-1.901-1.376-1.901zM15.69 29.052c-1.03 0-1.447.785-1.609 1.68h2.274c.22 0 .672.068.672-.275 0-.856-.469-1.405-1.337-1.405zM13.625 23.952v.001h-.002v.757h.764v-.758zM13.624 25.909h.77v.765h-.77zM52.097 29.268h-.254v.394h.185c.168-.001.336-.004.336-.201 0-.156-.127-.193-.267-.193z"/></svg>