<svg xmlns="http://www.w3.org/2000/svg" viewBox="0 0 56.48 56.48" enable-background="new 0 0 56.48 56.48"><path d="M47.497 30.536c.005-.175-.055-.261-.243-.256-.336.008-.673-.018-1.007.007-1.116.084-1.319.499-1.331 1.417-.008.541.243.831.672.903.595.097 1.154-.029 1.696-.268.148-.064.22-.152.213-.32l-.003-.715.003-.768zM23.896 31.302c0-.273.01-.549-.007-.82-.004-.068-.098-.188-.147-.188-.553.021-1.108.034-1.657.104-.337.043-.584.287-.651.624-.063.313-.082.646-.056.968.029.354.283.559.631.618.557.095 1.083-.011 1.601-.214.222-.088.317-.213.291-.455-.021-.211-.004-.426-.005-.637zM55.026 9.939h-53.572c-.804 0-1.454.651-1.454 1.454v33.694c0 .803.65 1.455 1.454 1.455h53.572c.804 0 1.454-.651 1.454-1.454v-33.695c0-.802-.65-1.454-1.454-1.454zm-47.355 23.522c0 .494-.251.745-.751.75-.477.004-.955.004-1.432 0-.324 0-.368-.046-.368-.369v-11.003c0-.493.272-.773.762-.78.469-.006.937-.004 1.406-.001.315.003.384.076.384.399.001 3.668.001 7.335-.001 11.004zm6.126.775c-1.069-.1-2.051-.432-2.919-1.07-1.324-.969-2.12-2.267-2.366-3.894l-.047-.367c-.012-.333-.008-.333.435-.325 1.373.136 2.633.726 3.656 1.795.951.996 1.445 2.201 1.582 3.558.032.312-.023.332-.341.303zm.339-11.848c-.292 2.447-1.56 4.153-3.875 5.033-.464.177-.968.25-1.453.369-.353-.045-.372-.046-.343-.382.113-1.289.592-2.427 1.453-3.394.941-1.056 2.123-1.673 3.516-1.895l.369-.03c.321-.05.372-.014.333.299zm3.664 1.687v9.674c0 .467-.043.51-.517.51h-1.511c-.313-.002-.368-.059-.368-.375v-11.398c0-.39.037-.428.421-.429h1.537c.371.001.437.065.438.428v1.59zm8.109 10.182h-1.431c-.404 0-.455-.049-.475-.449l-.021-.17c-.272.152-.503.297-.746.416-.848.413-1.732.452-2.624.187-.803-.237-1.295-.791-1.492-1.604-.142-.584-.154-1.174-.036-1.758.184-.902.793-1.404 1.64-1.66.821-.248 1.666-.276 2.514-.268.606.007.607.001.605-.613 0-.159.011-.323-.017-.476-.091-.495-.422-.804-.97-.804-.917 0-1.834.039-2.749.091-.448.027-.508.004-.508-.449 0-.318.006-.637-.002-.954-.004-.178.066-.299.235-.334 1.421-.303 2.851-.512 4.292-.155 1.301.323 2.069 1.228 2.104 2.579.053 2.019.043 4.043.055 6.064.001.271-.097.357-.374.357zm6.388-7.21c-.664-.027-1.267.181-1.857.458-.177.084-.235.195-.235.389.007 1.962.005 3.925.005 5.886 0 .417-.065.479-.472.479h-1.512c-.372 0-.458-.088-.458-.479v-8.087c0-.435.072-.505.509-.506l1.433.001c.372 0 .439.07.447.451l.02.277.267-.188c.56-.404 1.183-.621 1.872-.65.234-.01.34.092.336.33-.008.434-.01.865.001 1.299.005.258-.114.348-.356.34zm8.627 7.211h-1.483c-.388 0-.429-.041-.429-.422-.002-1.731.004-3.464-.006-5.195 0-.289-.041-.58-.093-.865-.075-.413-.357-.648-.756-.713-.727-.12-1.381.11-1.985.485-.08.05-.113.231-.113.351-.008 1.458-.006 2.916-.006 4.374 0 .548-.006 1.096.002 1.644.003.254-.106.348-.351.346-.548-.01-1.096-.002-1.644-.004-.317-.002-.404-.091-.404-.416-.001-2.756-.001-5.514 0-8.271 0-.291.087-.381.378-.383.495-.005.989-.004 1.483-.001.313.002.369.06.375.372l.022.428.353-.224c.967-.655 2.037-.814 3.164-.615 1.029.181 1.591.869 1.8 1.848.1.471.157.96.163 1.441.018 1.786.007 3.569.007 5.354 0 .419-.049.466-.477.466zm8.491.002h-1.378c-.395 0-.419-.024-.44-.41l-.014-.131-.046-.069-.149.071c-.617.461-1.325.636-2.078.697-1.489.12-2.627-.86-2.696-2.351-.017-.368-.029-.743.028-1.103.138-.871.672-1.45 1.5-1.682.621-.173 1.275-.246 1.921-.322.374-.045.759-.014 1.139-.007.166.002.248-.052.239-.228-.013-.264.01-.533-.034-.792-.101-.58-.429-.882-1.015-.88-.908.006-1.816.046-2.723.098-.455.025-.521-.011-.521-.48v-.875c-.001-.226.098-.352.328-.405 1.056-.238 2.123-.368 3.203-.3.451.028.91.126 1.34.271 1.029.341 1.594 1.096 1.758 2.154.041.269.055.545.055.816.006 1.84.002 3.678.002 5.516 0 .365-.045.41-.419.412zm1.238-9.627h-.195v.569h-.082v-.569h-.195v-.069h.474l-.002.069zm.626.57l-.016-.281-.01-.275h-.002l-.08.242-.113.311h-.062l-.104-.305-.073-.248h-.002l-.013.282-.017.274h-.079l.045-.639h.105l.109.309.063.216h.003l.069-.216.113-.309h.105l.04.639h-.081z"/></svg>