<svg xmlns="http://www.w3.org/2000/svg" viewBox="0 0 56.48 56.48" enable-background="new 0 0 56.48 56.48"><path d="M9.046 27.083c0 .564.291.946.792.946.368 0 .697-.225.904-.593.258-.452.244-.876.244-1.385v-.283c-.943 0-1.94.203-1.94 1.315zM40.879 23.963c-.147-.468-.44-.648-.856-.648-.961 0-1.023 1.312-1.023 2.129 0 .818-.012 2.568 1.012 2.568 1.013 0 1.062-1.411 1.062-2.271 0-.567-.023-1.242-.195-1.778zM26.167 27.083c0 .564.294.946.797.946.364 0 .695-.225.901-.593.259-.452.245-.876.245-1.385v-.283c-.945 0-1.943.203-1.943 1.315zM55.026 9.939h-53.572c-.804 0-1.454.651-1.454 1.454v33.695c0 .803.65 1.454 1.454 1.454h53.572c.804 0 1.454-.651 1.454-1.454v-33.695c0-.803-.65-1.454-1.454-1.454zm-27.076 13.668c-.157-.241-.463-.34-.731-.34-.498 0-.942.255-1.05.784-.022.118-.109.233-.228.239l-1.266-.136c-.107-.024-.226-.11-.194-.274.29-1.536 1.679-1.999 2.921-1.999.635 0 1.466.168 1.967.65.635.594.576 1.386.576 2.247v2.036c0 .612.252.88.49 1.211.084.117.102.259-.006.347-.265.222-.739.636-1 .867l-.002-.003c-.086.077-.211.083-.31.031-.434-.36-.513-.527-.749-.871-.716.73-1.227.949-2.154.949-1.1 0-1.953-.678-1.953-2.036 0-1.06.572-1.782 1.392-2.135.709-.312 1.699-.367 2.456-.454v-.168c.001-.31.026-.677-.159-.945zm-13.618-1.279c0-.134.113-.241.252-.241h1.218c.127.005.229.103.237.224v.876h.022c.319-.847.916-1.242 1.721-1.242.817 0 1.329.396 1.695 1.242.317-.847 1.035-1.242 1.806-1.242.546 0 1.145.226 1.511.733.413.564.329 1.383.329 2.102l-.002 4.229c0 .135-.112.244-.251.244h-1.305c-.13-.01-.235-.115-.235-.244v-3.553c0-.283.025-.988-.037-1.257-.097-.45-.389-.577-.768-.577-.316 0-.647.211-.781.549-.133.338-.121.904-.121 1.285v3.553c0 .135-.111.244-.252.244h-1.304c-.132-.01-.236-.115-.236-.244v-3.553c0-.748.121-1.848-.807-1.848-.938 0-.9 1.073-.9 1.848v3.553c0 .135-.112.244-.251.244h-1.307c-.125-.01-.226-.104-.234-.223v-6.702zm-2.028 6.908c-.087.077-.211.083-.309.031-.434-.36-.512-.527-.749-.871-.717.73-1.225.949-2.154.949-1.099 0-1.955-.678-1.955-2.036 0-1.06.576-1.782 1.393-2.135.71-.312 1.7-.367 2.456-.454v-.168c0-.311.024-.678-.157-.946-.16-.241-.465-.34-.732-.34-.498 0-.943.255-1.051.784-.022.118-.109.233-.226.239l-1.27-.136c-.104-.024-.225-.11-.194-.274.293-1.536 1.679-1.999 2.921-1.999.637 0 1.467.168 1.969.65.635.594.574 1.386.574 2.247v2.036c0 .612.253.88.492 1.211.085.117.103.259-.003.347-.268.222-.741.636-1.001.867l-.004-.002zm21.016 2.592c-2.452 1.809-6.006 2.771-9.068 2.771-4.291 0-8.153-1.586-11.076-4.227-.229-.208-.024-.49.251-.329 3.153 1.835 7.055 2.939 11.082 2.939 2.719 0 5.708-.563 8.456-1.729.416-.175.762.273.355.575zm.682 1.773c-.203.17-.396.08-.307-.145.297-.738.959-2.394.646-2.796-.313-.399-2.074-.188-2.863-.096-.24.028-.276-.181-.061-.331 1.401-.986 3.701-.702 3.969-.371.269.335-.069 2.638-1.384 3.739zm2.127-4.549c-1.32-.692-3.072-.768-4.533.008-.149.08-.307-.082-.307-.221v-.972c0-.156.002-.422.158-.659l2.578-3.696h-2.243c-.14 0-.248-.098-.248-.241v-.959c0-.146.108-.243.241-.243h4.293c.139 0 .248.099.248.243v.821c0 .138-.116.317-.322.603l-2.227 3.176c.828-.021 1.699.103 2.449.525.17.096.215.235.229.373v1.023h.001c0 .141-.154.302-.317.219zm3.883.341c-1.902 0-2.938-1.666-2.938-3.739 0-2.086 1.05-3.709 2.938-3.709 1.939 0 2.988 1.665 2.988 3.781.002 2.045-1.158 3.667-2.988 3.667zm9.078-.141h-1.31c-.118-.009-.22-.097-.231-.211v-3.641c0-.733.086-1.806-.815-1.806-.319 0-.61.213-.755.536-.187.41-.209.817-.209 1.27v3.609c-.002.133-.115.242-.256.242h-1.299c-.133-.009-.236-.113-.236-.242l-.002-6.706c.011-.123.119-.219.252-.219h1.211c.113.005.208.083.234.188v1.027h.021c.365-.917.879-1.354 1.781-1.354.584 0 1.156.211 1.523.79.342.537.342 1.438.342 2.087v4.22h.002c-.017.117-.122.21-.253.21z"/></svg>