<svg xmlns="http://www.w3.org/2000/svg" viewBox="0 0 56.48 56.48" enable-background="new 0 0 56.48 56.48"><path d="M12.121 24.861c-.229-.15-.57-.226-1.018-.226l-.383.002c-.251-.002-.508.2-.557.444l-.353 1.52c-.055.246.102.447.356.447h.286c.635 0 1.127-.129 1.48-.389.353-.258.534-.625.526-1.1.002-.314-.111-.549-.337-.698zM18.371 28.364c-.069.002-.598.062-.866.095-.3.043-.56.103-.771.174l-.496.338c-.116.146-.171.332-.171.571l.226.438c.153.086.379.128.667.128.19 0 .396-.046.612-.134l.46-.237.182-.242.238-.987-.081-.144zM55.026 9.939h-53.572c-.804 0-1.454.651-1.454 1.454v33.694c0 .803.65 1.455 1.454 1.455h53.572c.804 0 1.454-.651 1.454-1.454v-33.695c0-.803-.65-1.454-1.454-1.454zm-41.542 17.756c-.796.586-1.904.878-3.336.88h-.334c-.257 0-.508.202-.561.444l-.402 1.738c-.057.248-.308.446-.562.446h-1.17c-.254 0-.413-.204-.353-.446l1.645-7.163c.06-.246.309-.443.563-.447l2.444-.001c.528.005.985.037 1.381.109.39.074.73.198 1.018.374.276.174.499.407.639.689.156.282.225.635.225 1.055 0 .96-.395 1.736-1.197 2.322zm7.262-.914l-.044.301-.854 3.692c-.05.222-.27.411-.503.438l-.016.006h-1.0879999999999999l-.004-.004c-.223-.021-.361-.21-.313-.438v-.002l.002-.007.044-.188-.006-.007-.441.291-.48.268-.566.194c-.174.042-.419.067-.735.067-.499 0-.917-.137-1.233-.42-.314-.289-.476-.658-.476-1.11 0-.48.111-.886.334-1.224.231-.336.561-.598 1.007-.794.415-.189.914-.329 1.484-.408.582-.084 1.062-.145 1.727-.187l.168-.104.021-.165c0-.254-.118-.429-.353-.532-.238-.1-.596-.15-1.064-.15-.318-.004-.718.061-1.097.147-.397.09-.506.149-.7.207-.09.031-.307.046-.226-.33l.143-.589s.07-.445.515-.542c.215-.048.249-.057.6-.111.475-.073.945-.11 1.416-.11.953 0 1.651.124 2.092.373.443.248.669.636.667 1.157l-.021.281zm1.881 7.274l-1.212.002c-.252 0-.335-.2-.181-.446l1.037-1.808s.083-.103.009-.693c-.16-1.066-.956-5.598-.956-5.598-.058-.245.098-.446.35-.446l1.049-.002c.321 0 .579.211.637.459l.522 3.143.194.002c.163-.289 1.839-3.165 1.839-3.165.16-.242.484-.447.736-.447h1.404c.416-.006-.032.668-.032.668l-4.664 7.887c-.15.246-.482.444-.732.444zm12.117-6.329c-.799.583-1.912.878-3.344.878h-.334c-.252-.004-.504.201-.562.443l-.396 1.741c-.058.243-.314.443-.562.44l-1.173.003c-.249.001-.413-.201-.353-.444l1.646-7.167c.06-.243.306-.441.56-.445l2.447-.002c.525.002.987.039 1.375.108.395.072.735.196 1.019.373.279.179.498.408.644.692.15.28.223.634.225 1.054 0 .959-.401 1.733-1.192 2.326zm7.258-.94l-.043.303-.856 3.689c-.048.223-.269.412-.499.44l-.016.006h-1.0879999999999999l-.002-.006c-.227-.021-.367-.209-.312-.438l-.002-.003.005-.004.039-.188-.007-.009-.438.295-.483.267-.565.191c-.174.045-.42.064-.733.069-.5 0-.914-.142-1.232-.423-.316-.286-.479-.657-.479-1.111 0-.477.111-.885.335-1.221.229-.336.564-.597 1.006-.795.418-.19.92-.328 1.487-.408.578-.084 1.058-.145 1.728-.186l.168-.106.018-.165c0-.252-.116-.429-.354-.531-.238-.101-.596-.151-1.062-.151-.32-.002-.721.062-1.099.147-.395.092-.502.149-.695.207-.098.029-.309.046-.229-.33l.143-.588s.067-.446.514-.542c.217-.047.252-.058.602-.109.472-.076.945-.113 1.416-.113.949 0 1.646.126 2.091.375.446.248.669.634.669 1.155l-.027.283zm3.75-3.107l-1.568 7.101-.055.084c-.093.2-.291.362-.506.362h-1.088l-.02-.025c-.207-.032-.342-.199-.293-.417l-.002-.005.047-.205 1.466-6.662.052-.232.059-.091c.095-.196.289-.355.504-.355h1.047c.255 0 .408.199.354.443l.003.002zm2.078-.768h-.392v.521l.003.14.027.094.062.06.12.019.098-.014.073-.022h.009v.171l-.117.023-.111.009-.266-.095-.091-.3v-.606h-.132v-.162h.132v-.325h.193v.325h.392v.162zm1.895.239v.737h-.189v-.65l-.012-.139-.025-.11-.066-.065-.127-.023-.159.041-.163.103.003.056.002.06v.729h-.19v-.65l-.008-.141-.027-.109-.064-.065-.129-.023-.157.039-.159.099v.85h-.188v-1.139h.188v.127l.182-.116.188-.042.198.047.122.136.21-.141.205-.042.277.113.09.318h-.002zM39.628 28.37c-.069-.001-.596.061-.86.095-.303.043-.562.102-.771.174-.214.084-.388.197-.501.338-.112.146-.168.332-.168.572l.229.437c.146.087.369.129.666.129.187 0 .393-.046.608-.133l.457-.237.188-.242c.07-.285.222-.91.234-.988l-.082-.145zM33.372 24.888c-.231-.151-.567-.225-1.016-.227l-.381.002c-.252-.002-.508.202-.56.445l-.354 1.519c-.057.244.106.448.359.446h.291c.633 0 1.124-.13 1.478-.384.35-.261.528-.625.526-1.104-.006-.312-.115-.547-.343-.697z"/></svg>