<svg xmlns="http://www.w3.org/2000/svg" viewBox="0 0 56.48 56.48" enable-background="new 0 0 56.48 56.48"><path d="M16.488 25.219l-1.7 3.905-.129-3.905h-2.404l-1.201 6.306h1.405l.924-4.817.259 4.817h1.405l2.107-4.846-.906 4.846h1.535l1.221-6.306zM21.813 26.25c-1.849 0-3.05 1.231-3.05 3.047 0 1.303.702 2.364 2.458 2.364 1.59 0 2.773-.755 3.014-2.462.037-.298.037-.316.037-.637 0-1.3-.85-2.312-2.459-2.312zm.721 2.896c-.129.798-.851 1.255-1.183 1.255-.555.01-.888-.457-.888-1.152 0-.825.48-1.757 1.275-1.757.629 0 .851.505.851 1.04.001.223-.018.426-.055.614zM29.582 19.575h-2.579c-.347.469-.673.967-.967 1.455h4.601c-.32-.51-.672-.994-1.055-1.455zM49.702 35.926l-.069-.095-.041-.022.099-.043.036-.092-.021-.068-.061-.045-.119-.014h-.162v.473h.076v-.201h.045l.062.016.078.111.042.074h.093l-.058-.094zm-.171-.174h-.093v-.146h.087l.076.01.031.022.012.039-.023.052-.09.023zM31.418 22.456h-6.187c-.395.746-.658 1.312-.731 1.453h7.504c-.168-.498-.365-.985-.586-1.453zM34.422 25.174l-.352 1.812c-.426-.49-.887-.708-1.479-.708-1.388 0-2.533 1.447-2.533 3.165 0 1.29.738 2.144 1.867 2.144.572 0 1.018-.177 1.441-.572l-.074.504h1.479l1.185-6.345h-1.534zm-1.942 5.13c-.535 0-.813-.34-.813-1.018 0-1.016.499-1.735 1.22-1.735.537 0 .814.356.814 1.013 0 1.022-.499 1.74-1.221 1.74zM46.105 30.93l-.145.458-.13-.458h-.202v.604h.109v-.496l.167.496h.11l.166-.496v.496h.128v-.604zM45.09 30.93v.098h.168v.506h.127v-.506h.168v-.098zM55.026 9.939h-53.572c-.804 0-1.454.651-1.454 1.454v33.695c0 .803.65 1.454 1.454 1.454h53.572c.804 0 1.454-.651 1.454-1.454v-33.695c0-.803-.65-1.454-1.454-1.454zm-5.092 26.053c-.037.07-.092.125-.161.164-.069.037-.142.058-.218.058l-.219-.058c-.07-.039-.125-.094-.164-.164-.037-.069-.058-.144-.058-.219 0-.076.021-.148.06-.22.039-.069.094-.125.164-.162.07-.039.143-.057.217-.057.072 0 .146.018.215.057.07.037.125.093.164.162.039.07.06.144.06.22-.001.076-.021.149-.06.219zm.982-7.751c.002 7.496-6.072 13.574-13.568 13.576-3.506 0-6.703-1.328-9.111-3.511-2.407 2.179-5.599 3.507-9.099 3.507-7.492 0-13.572-6.08-13.572-13.572 0-7.463 6.033-13.525 13.485-13.572h.087c3.5 0 6.691 1.328 9.1 3.506 2.407-2.182 5.601-3.51 9.104-3.51 7.496-.002 13.573 6.072 13.575 13.568l-.001.008zM45.682 26.369h-1.719l-.963 1.544-.498-1.546h-1.591l.999 2.464-2.053 2.682h1.849l1.036-1.596.518 1.596h1.553l-1.053-2.612zM25.036 33.969c.235.505.51.987.802 1.453h4.815c.292-.467.556-.951.79-1.453h-6.407zM40.337 29.385c.129-.52.186-.888.186-1.266 0-1.137-.812-1.864-2.09-1.864-1.553 0-2.699 1.295-2.699 3.055 0 1.508.906 2.297 2.625 2.299.555 0 .759-.008 1.258-.192v.001l.24-1.184c-.573.189-.702.21-1.258.21-.905 0-1.35-.304-1.35-.899v-.16h3.088zm-1.94-1.959c.462 0 .739.245.739.662l-.02.26-1.701-.002c.15-.591.502-.92.982-.92zM26.847 36.822c.43.524.885 1.029 1.388 1.483l.035-.03h.002c.493-.449.954-.934 1.378-1.453h-2.803zM28.284 26.245c-.813 0-1.294.386-1.738.959h-.019l.111-.84h-1.441c-.039.464-.112.902-.186 1.346l-.702 3.809h1.553l.444-2.376c.111-.764.5-1.414 1.165-1.414.443-.019.61.285.61.595 0 .266-.055.522-.11.778l-.426 2.414h1.608l.425-2.402c.091-.543.111-.742.111-1.089 0-1.01-.499-1.78-1.405-1.78z"/></svg>