<svg xmlns="http://www.w3.org/2000/svg" viewBox="0 0 56.48 56.48" enable-background="new 0 0 56.48 56.48"><path d="M19.027 40.247l-.001-.231-.001-.148c-.027-.345-.081-.623-.256-.857-.093-.125-.228-.195-.368-.195-.138 0-.264.066-.354.188-.068.092-.126.205-.169.33-.11.329-.139.689-.085 1.072.036.254.096.48.179.671.1.229.292.33.526.285.188-.036.317-.165.384-.383.061-.199.099-.404.14-.621l.021-.107-.016-.004zM55.026 9.939h-53.572c-.804 0-1.454.651-1.454 1.454v33.694c0 .803.65 1.455 1.454 1.455h53.572c.804 0 1.454-.651 1.454-1.454v-33.695c0-.802-.65-1.454-1.454-1.454zm-38.491 25.931v-22.785l-.001-.202h22.994l-.015.2-.01 7.567v.37c-.599-.142-1.18-.241-1.736-.419-1.006-.322-1.998-.688-2.993-1.044-.13-.046-.193-.024-.271.084-.295.409-.6.812-.902 1.217l-.1.137 4.956 1.78-.155.087c-1.16.573-2.303 1.179-3.48 1.713-2.148.976-4.316 1.909-6.474 2.865-.086.039-.169.11-.222.187-.272.396-.515.814-.805 1.197-.834 1.1-1.687 2.186-2.532 3.278l-.09.119.185-.051c1.466-.733 2.933-1.465 4.396-2.205 3.338-1.686 6.67-3.384 10.091-4.901l.174-.072.031.622c-.014 1.275-.043 2.551-.05 3.826-.013 2.085-.011 4.169-.011 6.254 0 .137-.034.177-.176.177-7.543-.004-15.087-.003-22.63-.003l-.174.002zm3.101 5.538c-.067.146-.15.282-.247.404-.401.507-1.156.568-1.618.158v1.628h-.806l-.022-.207-.011-.129v-5.224h.833v.187c.455-.414 1.215-.36 1.626.15.267.333.422.749.471 1.271.045.489.062 1.135-.226 1.762zm3.298.566l-.03.143-.15.021h-.639v-.198c-.221.201-.5.31-.802.31l-.274-.027c-.471-.097-.814-.5-.874-1.021-.03-.259-.027-.498.007-.709.106-.652.569-1.044 1.273-1.07l.311-.007.352.003c.004-.105-.029-.215-.095-.316-.104-.159-.271-.261-.445-.275-.329-.029-.623.059-.938.27l-.281.188v-.482l.003-.364c.004-.099.076-.206.167-.25.443-.216.85-.294 1.279-.228.473.074.815.352.961.785.109.321.165.603.173.867.016.553.013 1.105.011 1.658l-.009.702zm2.113.646l-.053.151-.018.047c-.112.305-.322.719-.865.779l-.009.002h-.584l-.056-.892h.473c.157-.001.207-.077.234-.151.078-.211.15-.426.215-.644l-.016-.06c-.309-.983-.621-1.967-.932-2.947l-.142-.446-.037-.131-.083-.297.481-.002.209.01c.144.017.229.169.254.247l.657 2.127.04.127.063-.206c.209-.68.419-1.356.624-2.038.053-.178.165-.268.332-.268l.163.006.471-.003-1.421 4.589zm6.112-1.006h-.499v-.163l-.001-2.221-.023-.303c-.037-.226-.148-.4-.377-.471-.244-.074-.462-.014-.647.156-.247.227-.312.526-.312.844v2.153h-.52v-2.3289999999999997l-.007-.26c-.023-.245-.107-.459-.358-.553-.257-.095-.49-.036-.688.149-.187.172-.29.395-.293.647-.009.72-.007 1.439-.009 2.16v.186h-.509v-3.58h.458v.447c.25-.315.528-.539.942-.553.418-.015.73.143.926.547l.196-.221c.324-.354.959-.442 1.355-.185.25.161.369.413.373.696.014.936.008 1.874.008 2.812l-.015.042zm3.766.032l-.053.077c-.193.052-.389.084-.578-.012-.173-.087-.213-.258-.254-.453l-.225.189c-.418.34-.883.425-1.379.216-.381-.159-.58-.554-.555-1.013.035-.583.367-.931.974-1.021.265-.039.53-.082.794-.132.169-.03.34-.082.367-.284.034-.239.034-.474-.19-.635-.248-.179-.78-.179-1.03-.005-.174.12-.219.308-.257.501h-.501c-.031-.488.196-.868.637-1.039.401-.154.815-.162 1.223-.033.452.141.643.438.645.965.004.639.002 1.277.002 1.916 0 .34.045.391.385.416l-.005.347zm1.128.112c-.299-.031-.461-.24-.461-.578-.004-.713-.002-1.429-.002-2.144v-.547h-.425v-.465h.423v-.978h.512v.973h.524v.463h-.521v2.367c0 .399.069.459.47.41l.052.002.002.487c-.195.004-.386.028-.574.01zm3.879-1.75h-2.362c-.002.297.038.555.181.785.188.304.461.466.823.445.353-.017.59-.214.713-.527.062-.158.138-.212.298-.191l.272.002c.019.476-.417 1.042-.902 1.179-.829.236-1.536-.13-1.792-.957-.205-.657-.195-1.323.078-1.963.388-.906 1.476-1.157 2.189-.505.162.148.277.361.375.562.127.256.172.849.127 1.17zM21.976 40.258c-.236.015-.46.028-.68.067-.149.025-.304.096-.321.416l-.001.152c.018.318.142.404.261.445.218.077.41.033.561-.13.232-.251.299-.559.305-.959l-.125.009zM33.407 40c-.21.048-.427.084-.629.16-.271.103-.386.33-.353.62.032.268.197.439.489.479.123.018.253.008.376-.017.398-.076.719-.394.736-.726l.002-.646-.621.13zM38.534 38.448c-.51-.03-.929.444-.94 1.085h1.789c.057-.555-.338-1.055-.849-1.085z"/></svg>