<svg xmlns="http://www.w3.org/2000/svg" viewBox="0 0 56.48 56.48" enable-background="new 0 0 56.48 56.48"><path d="M23.631 32.554h-.023l-1.027 3.17h2.043zM16.24 32.133h-1.92v1.752h1.963c.66-.002 1.184-.26 1.184-.894 0-.658-.469-.858-1.227-.858zM16.451 35.232h-2.131v2.143h2.053c.814 0 1.283-.359 1.283-1.172 0-.703-.602-.971-1.205-.971zM55.026 9.939h-53.572c-.804 0-1.454.651-1.454 1.454v33.694c0 .803.65 1.455 1.454 1.455h53.572c.804 0 1.454-.651 1.454-1.454v-33.695c0-.803-.65-1.454-1.454-1.454zm-33.776 12.269c.033-.321.076-.667.197-1.02.102-.357.192-.749.387-1.114l.266-.575c.096-.192.229-.364.344-.551.226-.384.521-.722.822-1.06.291-.353.651-.622.977-.933.359-.254.701-.548 1.068-.755.361-.228.716-.432 1.068-.6.346-.186.689-.313 1.002-.453.485-.189.914-.334 1.268-.438-.148-.364-.275-.743-.369-1.147-.097-.416-.181-.841-.191-1.324.464.13.855.32 1.234.517.377.2.721.423 1.043.665.65.479 1.203 1.032 1.705 1.625.381.45.414 1.076.131 1.555l-.059.097c-.461.772-1.01 1.488-1.674 2.13-.328.322-.693.623-1.092.9-.205.136-.417.268-.634.395-.225.123-.463.236-.723.336-.017-.278-.014-.542.006-.797.026-.251.057-.497.096-.74.086-.478.209-.933.367-1.367l.053-.137-.488.065c-.272.058-.582.098-.891.188-.319.072-.643.173-.973.293-.346.102-.656.278-1.008.419-.309.191-.666.348-.959.581-.307.222-.617.447-.871.723-.128.133-.279.256-.396.4l-.332.438c-.242.279-.391.601-.555.901-.18.294-.289.6-.383.887-.088.287-.215.547-.252.792l-.121.636-.105.562-.018-.57-.02-.662c-.016-.26.05-.542.08-.862zm1.42 8.539h1.93l2.824 8.011h-1.818l-.514-1.65h-2.957l-.559 1.65h-1.762l2.856-8.011zm-6.62 10.008h-1.242v3.377h-.855v-3.377h-1.24v-.727h3.338l-.001.727zm-3.339-1.997v-8.012h3.895c1.965 0 2.467 1.229 2.467 2.055 0 1.15-.648 1.473-.982 1.64.982.368 1.238 1.149 1.238 1.94 0 .634-.267 1.239-.691 1.651-.457.448-.892.726-2.533.726h-3.394zm6.339 5.375c-.057-.192-.09-.404-.09-.828 0-.558-.035-.776-.67-.776h-.885v1.604h-.842v-4.104h2.076c1.092 0 1.291.806 1.291 1.16 0 .454-.229.841-.635.978.337.148.521.274.521 1.04 0 .599 0 .749.182.817l.001.109h-.949zm4.177-.001l-.264-.846h-1.514l-.285.846h-.904l1.463-4.104h.99l1.445 4.104h-.931zm4.788.001h-.859l-1.674-2.926h-.012v2.926h-.799v-4.104h.902l1.631 2.857h.01v-2.857h.801v4.104zm-.999-16.993c.16.36.297.736.404 1.136.107.413.205.835.23 1.316-.471-.116-.865-.291-1.248-.479-.384-.188-.736-.403-1.064-.633-.662-.459-1.232-.996-1.752-1.573-.395-.438-.448-1.064-.178-1.551l.057-.098c.437-.785.964-1.518 1.609-2.179.318-.333.671-.644 1.064-.933.201-.142.406-.28.621-.413.221-.129.455-.251.713-.357.026.276.03.541.016.796-.017.252-.041.499-.072.743-.072.482-.181.94-.326 1.378l-.049.138.486-.08c.27-.066.578-.114.883-.214.317-.081.64-.191.965-.322.343-.111.648-.297.994-.448.301-.201.658-.367.94-.609.302-.23.607-.465.849-.748.129-.138.275-.265.388-.411l.317-.449c.233-.287.373-.613.526-.917.171-.299.271-.608.355-.898.08-.29.199-.553.23-.799l.1-.639.09-.564.035.568.039.662c.023.259-.033.544-.053.863-.023.32-.057.669-.166 1.025-.091.359-.169.754-.354 1.124l-.248.583c-.092.195-.217.372-.327.562-.216.391-.498.736-.789 1.083-.281.36-.631.642-.949.961-.353.265-.687.569-1.047.787-.353.238-.703.453-1.049.631-.341.197-.68.335-.989.483-.478.202-.902.36-1.251.475zm1.404 3.607h1.763l3.181 5.579h.022v-5.579h1.562v8.012h-1.672l-3.271-5.713h-.022v5.713h-1.563v-8.012zm1.966 13.495c-1.497 0-1.753-.863-1.753-1.372h.82c.006.229.121.663.871.663.404 0 .857-.097.857-.531 0-.321-.308-.406-.744-.509l-.439-.104c-.664-.152-1.303-.301-1.303-1.205 0-.457.244-1.264 1.576-1.264 1.258 0 1.594.823 1.6 1.326h-.82c-.026-.181-.092-.617-.842-.617-.324 0-.715.12-.715.491 0 .322.264.39.436.429l.998.246c.562.136 1.076.367 1.076 1.104 0 1.233-1.258 1.343-1.618 1.343zm5.193-3.487h-2.062v.926h1.805v.726h-1.805v1.726h-.857v-4.104h2.919v.726zm3.692 3.377h-3.115v-4.104h3.018v.728h-2.178v.862h2v.726h-2v1.063h2.275v.725zm4.135.001h-.947c-.057-.192-.09-.404-.09-.828 0-.558-.037-.776-.67-.776h-.885v1.604h-.842v-4.104h2.074c1.092 0 1.293.806 1.293 1.16 0 .454-.232.841-.636.978.336.148.521.274.521 1.04 0 .599 0 .749.182.817v.109zm.362-5.373h-2.154l-2.477-3.516-.781.803v2.713h-1.674v-8.013h1.674v3.259l3.059-3.259h2.164l-3.27 3.28 3.459 4.73v.003zM41.881 40.737h-1.065v1.098h1.004c.446 0 .664-.154.664-.561-.002-.217-.099-.537-.603-.537zM22.213 40.956h-.008l-.527 1.622h1.047zM18.472 40.737h-1.068v1.098h1.004c.447 0 .664-.154.664-.561 0-.217-.098-.537-.6-.537z"/></svg>