<svg xmlns="http://www.w3.org/2000/svg" viewBox="0 0 56.48 56.48" enable-background="new 0 0 56.48 56.48"><path d="M17.495 26.195c-.511-.288-1.04-.267-1.532.037-.49.303-.643.808-.728 1.358h2.864c.048-.578-.201-1.168-.604-1.395zM55.026 9.939h-53.572c-.804 0-1.454.651-1.454 1.454v33.695c0 .803.65 1.454 1.454 1.454h53.572c.804 0 1.454-.651 1.454-1.454v-33.695c0-.802-.65-1.454-1.454-1.454zm-42.459 22.527c-.696 0-1.392-.004-2.088.004-.148.002-.234-.041-.315-.17-.653-1.029-1.31-2.059-1.979-3.078-.215-.328-.462-.638-.708-.942-.368-.459-.849-.642-1.457-.534v4.71h-2.254v-6.374h.247c1.129 0 2.258.002 3.388-.001.389-.001.771-.048 1.133-.21.776-.346 1.199-1.078 1.125-1.959l-.052-.408c-.114-.631-.485-1.025-1.113-1.146-.58-.111-1.164-.091-1.731.088-.574.182-.853.605-.817 1.229h1.249l.022.045-2.229 1.899-2.307-1.929h1.062c.045-.339.063-.66.132-.971.209-.948.771-1.625 1.684-1.95 1.474-.527 2.974-.577 4.438.011 1.229.493 1.819 1.487 1.93 2.783.053.613.003 1.219-.222 1.798-.411 1.06-1.214 1.661-2.287 1.942l-.207.052c.276.322.582.621.82.97.701 1.021 1.376 2.062 2.061 3.095l.688 1.047-.213-.001zm7.579-3.432h-4.887c-.114.907.65 1.863 1.558 1.977.758.096 1.474-.039 2.154-.377l.271-.129.678 1.354c-.494.302-1.016.518-1.581.625-.872.165-1.748.195-2.611-.037-1.495-.4-2.359-1.404-2.649-2.903-.19-.983-.148-1.965.283-2.888.608-1.307 1.655-2.011 3.085-2.146.641-.061 1.271 0 1.869.256.977.418 1.487 1.206 1.723 2.203.158.669.155 1.349.107 2.065zm5.98 3.444c-.908.195-1.813.193-2.697-.11-1.136-.392-1.896-1.173-2.26-2.317-.33-1.037-.33-2.088.038-3.109.501-1.396 1.551-2.157 2.99-2.384.99-.156 1.962-.075 2.878.38l.301.164-.684 1.445c-.47-.295-.967-.445-1.501-.459-.962-.025-1.627.448-1.875 1.377-.242.907-.226 1.811.24 2.653.311.562.82.829 1.457.855.577.024 1.119-.103 1.624-.385l.155-.074.642 1.39c-.401.289-.838.473-1.308.574zm7.267-.062l-.157-.999-.179.188c-.875.908-1.938 1.186-3.147.892-.794-.192-1.338-.896-1.433-1.786-.025-.24-.04-.482-.04-.727-.003-1.688-.002-3.373-.002-5.061v-.241h2.107v.255c0 1.576-.001 3.153.001 4.728 0 .138.003.277.026.412.099.56.521.851 1.13.771.621-.082 1.056-.469 1.429-.934.043-.05.036-.148.036-.225l.001-4.766v-.241h2.119v.238c0 1.917-.011 3.833.01 5.751.006.579.1 1.157.152 1.744l-2.053.001zm8.166-5.898c-.387-.165-.771-.214-1.164-.118-.609.148-1.002.57-1.305 1.09l-.022.211c-.002 1.497-.002 2.992-.002 4.489v.225h-2.107v-7.73h2.099v.954c.762-1.091 1.754-1.39 3.011-.965l-.51 1.844zm3.593 5.891h-2.113v-11.421h2.113v11.421zm5.405 1.028c-.24.64-.537 1.254-1.014 1.761-.504.537-1.135.802-1.854.887-.531.063-1.06.058-1.585-.038l-.24-.059c.092-.518.178-1.025.277-1.53.007-.034.119-.077.178-.069.385.043.77.062 1.148-.026.489-.115.822-.429 1.021-.878.163-.371.3-.754.435-1.137.024-.068 0-.166-.029-.24-.911-2.391-1.827-4.781-2.742-7.172l-.09-.254c.719 0 1.414-.004 2.109.008.057.001.141.101.164.17.395 1.152.779 2.306 1.168 3.46l.445 1.319.104.225.102-.241c.488-1.581.977-3.161 1.46-4.744.045-.151.11-.205.272-.201.564.012 1.129.005 1.694.005h.222l-3.245 8.754z"/></svg>