<svg xmlns="http://www.w3.org/2000/svg" viewBox="0 0 56.48 56.48" enable-background="new 0 0 56.48 56.48"><path d="M12.182 33.055c-.315 0-.46.022-.599.031v4.174c-.001.592.423.661.798.661 1.658 0 2.202-1.25 2.202-2.395 0-1.433-.921-2.471-2.401-2.471zM41.887 40.291h-.034999999999999996l-.4 1.217h.83l-.395-1.217zm-.024.019l.001-.002h.008l.386 1.183h-.784l.389-1.181zM43.463 42.63c-.138 0-.225-.05-.272-.169l-.155-.426-.769-2.184-.039-.104-.028-.013-.034.009c-.08.05-.246.134-.38.179-.024.156-.1.365-.153.519l-.668 1.916c-.063.174-.201.272-.365.272h-.025v.125l.451-.017.505.017v-.124h-.047c-.136 0-.312-.02-.312-.146l.09-.325.136-.435h.946l.162.483.084.3c0 .105-.162.123-.259.123h-.045v.125l.625-.017.577.017v-.125h-.025zm.008.106l-.559-.016-.607.016h-.002v-.087h.028c.096-.003.27-.013.277-.142 0-.061-.037-.172-.083-.306l-.168-.497h-.975l-.137.447-.092.331c.004.149.193.164.33.166h.029v.087l-.487-.016-.433.016v-.087h.006c.17 0 .317-.104.379-.285l.67-1.916c.053-.155.13-.365.154-.521.125-.033.293-.115.373-.168l.023-.006h.008l.006.006.035.1.77 2.184.154.428c.051.123.15.18.293.18h.008v.086zM11.333 39.966h.058v-.125l-.655.016-.619-.016v.125h.059c.151 0 .309.019.309.237v2.187c0 .218-.159.238-.309.238h-.059v.125l.614-.016.66.016v-.125h-.058c-.151 0-.31-.019-.31-.238v-2.187c0-.217.16-.237.31-.237zm-.001 2.684h.04v.089l-.642-.018-.595.018v-.089h.04c.149 0 .327-.027.327-.257v-2.188c0-.231-.178-.257-.327-.257h-.04v-.089l.6.017.637-.017v.089h-.04c-.15 0-.328.027-.328.257v2.188c0 .231.179.257.328.257zM55.026 9.939h-53.572c-.804 0-1.454.651-1.454 1.454v33.694c0 .803.65 1.455 1.454 1.455h53.572c.804 0 1.454-.651 1.454-1.454v-33.695c0-.803-.65-1.454-1.454-1.454zm-12.831 22.782c.31-.1.63-.237.791-.33l.169-.084c.045 0 .062.045.062.107v2.801c.306-.261.72-.552 1.142-.552.89 0 1.427.775 1.427 1.611 0 1.004-.736 2.01-1.835 2.01-.565 0-.866-.185-1.065-.271l-.229.178-.161-.083c.068-.453.107-.899.107-1.367v-3.299c0-.498-.116-.515-.408-.599v-.122zm-2.048 5.148c.261 0 .607-.2.928-.467v-2.064c0-.154-.37-.238-.644-.314v-.139c.688-.046 1.119-.107 1.195-.107.062 0 .062.054.062.138v2.831c0 .138.084.146.214.146l.308-.008v.162c-.33.029-.959.191-1.105.237l-.038-.022v-.622c-.46.375-.813.645-1.358.645-.414 0-.844-.269-.844-.913v-1.965c0-.202-.029-.392-.459-.431v-.146l.99-.053c.084 0 .084.053.084.222v1.978c0 .231 0 .892.667.892zm-14.18-24.999h4.212c4.893-.002 9.362 3.69 9.362 9.032 0 4.884-4.467 8.9-9.362 8.876h-4.212c-4.953.024-9.03-3.99-9.03-8.876 0-5.342 4.077-9.035 9.03-9.032zm10.901 19.973v-.123c.309-.1.629-.237.791-.33l.169-.084c.048 0 .062.045.062.107v5.301c0 .254.17.254.385.254h.129v.198l-.805-.014-.836.014v-.198h.146c.215 0 .369 0 .369-.254v-4.271c0-.5-.115-.516-.41-.6zm-9.595 2.8c0-.429.346-.982 1.189-.982.247 0 .576.07.875.223l.053.782h-.176c-.076-.484-.344-.759-.836-.759-.306 0-.598.177-.598.506 0 .899 1.78.622 1.78 1.826 0 .506-.407 1.044-1.32 1.044-.308 0-.667-.109-.936-.261l-.084-.882.138-.039c.1.507.406.937.967.937.451 0 .62-.276.62-.545 0-.907-1.672-.616-1.672-1.85zm-1.312 2.325h.429v.198l-1.073-.014-.913.014v-.198h.207c.214 0 .367 0 .367-.254v-2.154c0-.239-.282-.284-.398-.346v-.115c.561-.239.868-.438.937-.438.045 0 .068.024.068.1v.69h.016c.191-.299.514-.79.981-.79.191 0 .438.129.438.406 0 .208-.146.392-.361.392-.238 0-.238-.184-.506-.184-.13 0-.56.176-.56.636v1.803c0 .255.154.255.368.254zm-3.966-1.473c.045.729.515 1.328 1.127 1.328.423 0 .753-.23 1.036-.513l.107.106c-.353.468-.789.867-1.418.867-1.22 0-1.466-1.183-1.466-1.673 0-1.503 1.013-1.948 1.55-1.948.621 0 1.289.39 1.296 1.203l-.007.14-.07.045h-2.155c-.017.07-.017.184 0 .445zm-5.479-3.769c.199 0 .376.162.376.371 0 .205-.168.383-.376.383-.199 0-.375-.184-.375-.383 0-.194.183-.371.375-.371zm-.705 2.375v-.123c.361-.108.79-.254.82-.276l.139-.038c.038 0 .054.045.054.107v2.945c0 .254.17.254.384.254h.13v.197l-.806-.014-.836.014-.001-.195h.146c.214 0 .369 0 .369-.254v-2.08c0-.339-.116-.386-.399-.537zm-5.686 2.865c.46-.045.684-.061.705-.582v-3.723h.001c0-.689-.361-.644-.706-.65v-.201c.3.016.605.016.905.016l1.328-.016c1.987 0 3.068 1.329 3.068 2.686 0 .76-.444 2.67-3.16 2.67l-1.112-.014-1.028.014v-.001h-.001v-.199zm1.285 2.02h-.077c-.152.003-.292.016-.292.221v2.187c.001.205.14.218.292.221h.077v.16299999999999998h-.019l-.66-.018-.614.018h-.017v-.16299999999999998h.076c.152-.003.29-.016.291-.221v-2.187c-.001-.205-.14-.219-.291-.221h-.076v-.16299999999999998h.016l.619.017.655-.017h.019l.001.021v.142zm3.519-.002h-.08c-.173.005-.35.021-.354.513v1.9c0 .146.004.291.024.417l.003.022h-.021l-.173-.007-2.118-2.36v1.674c.005.364.06.467.374.471h.09v.16299999999999998h-.019l-.539-.018-.568.018h-.018v-.16199999999999998h.078c.275-.002.355-.18.357-.512v-1.758c0-.222-.183-.356-.362-.357h-.073v-.16199999999999998h.019l.479.015.387-.009 1.834 2.065v-1.536c-.002-.332-.224-.373-.345-.375h-.11v-.16199999999999998h.018l.584.016.514-.016h.018l.001.017v.143zm3.016-.255l-.046.337-.008.336v.013l-.011.005-.148.055-.001-.024c-.011-.157-.028-.384-.292-.384h-.667v2.203c.004.315.129.337.328.341h.101v.16399999999999998h-.018l-.681-.017-.706.017h-.018v-.16299999999999998h.098c.229-.005.322-.009.327-.332v-2.211h-.667c-.308.006-.302.057-.371.366l-.002.015h-.16099999999999998l.001-.022.051-.354.025-.354v-.018h.133l.002.014c.029.104.106.105.213.106h2.174c.117-.001.202-.003.208-.112l.002-.02.019.004.118.018-.003.017zm2.507 2.367c-.054.222-.104.442-.142.662l-.003.016h-.015l-1.123-.018-1.109.018h-.018v-.16399999999999998h.077c.152-.002.289-.016.29-.221v-2.187c-.001-.204-.138-.218-.29-.221h-.077v-.16099999999999998h.018l1.039.016 1.068-.016h.019l-.001.02-.004.215.013.42v.017l-.013.004-.147.038-.001-.021c-.025-.272-.06-.467-.491-.472h-.562v1.058h.478c.241-.002.284-.127.312-.352l.002-.016h.16099999999999998l-.001.019-.013.488.013.476.001.016-.016.004-.145.029-.002-.021c-.029-.253-.031-.393-.308-.397h-.483v.955c0 .254.22.252.492.254.502-.004.704-.027.83-.498l.004-.016.018.002.134.035-.005.019zm-.682-3.93v-.198h.138c.215 0 .367 0 .367-.254v-1.986c0-.437-.268-.652-.706-.652-.245 0-.636.201-.891.369v2.271c0 .254.17.254.385.254h.138v.197l-.813-.014-.828.014v-.197h.137c.215 0 .368 0 .368-.254v-2.033h.001c0-.284-.085-.36-.445-.506v-.146c.33-.107.643-.207 1.013-.368l.044.076v.499c.438-.314.815-.575 1.329-.575.652 0 .882.475.882 1.073v1.98c0 .254.168.254.383.254h.139v.198l-.813-.014-.828.012zm3.725 4.464v.146h-.018l-.41-.017-.406.01c-.32-.422-.594-.869-.864-1.346h-.247v.875c.005.315.131.312.324.316h.094v.16299999999999998h-.019l-.718-.018-.604.018h-.018v-.16299999999999998h.092c.152-.001.277-.066.278-.207v-2.122c-.003-.297-.148-.294-.278-.298h-.092v-.16399999999999998h.018l.647.017.672-.017c.526.002 1.011.148 1.012.753 0 .378-.249.613-.571.744l.701 1.05c.117.174.189.216.393.242l.015.002-.001.016zm3.055-2.135v1.9c0 .146.003.29.025.419l.002.021h-.021l-.172-.007-2.119-2.362v1.674c.004.364.06.466.375.47h.088v.16499999999999998h-.018l-.539-.017-.566.017h-.019v-.16299999999999998h.077c.275 0 .354-.179.356-.513v-1.758c0-.221-.181-.356-.361-.356h-.072v-.16299999999999998h.019l.479.017.383-.011 1.835 2.065v-1.535c-.001-.332-.224-.373-.345-.375h-.11v-.16299999999999998h.019l.584.016.513-.016h.018v.16299999999999998h-.08c-.173.006-.349.019-.351.512zm3.329 2.135v.149l-.02-.002-.575-.017-.625.017-.019.001v-.16399999999999998h.065c.098 0 .241-.023.241-.103l-.083-.295-.159-.472h-.92l-.129.422-.093.321c.002.102.157.127.296.127h.063v.16399999999999998l-.019-.001-.503-.018-.45.018-.02.001v-.16399999999999998h.043c.156-.001.284-.089.345-.26l.669-1.916c.055-.155.13-.362.166-.529.129-.044.297-.128.378-.18l.041-.01.045.025.038.105.77 2.183.152.424c.049.111.126.156.26.156h.041v-.001h.002v.019zm2.575-2.904l-.045.337-.007.336v.013l-.014.005-.146.055-.002-.022c-.012-.156-.027-.384-.291-.384h-.668v2.203c.005.316.131.337.329.341h.098v.16299999999999998h-.018l-.681-.018-.705.018h-.02v-.16299999999999998h.098c.231-.005.322-.008.33-.332l-.002-2.211h-.666c-.309.005-.302.058-.371.365l-.002.016h-.16099999999999998l.002-.021.049-.354.027-.353v-.02h.131l.004.013c.029.105.105.106.211.107h2.1759999999999997c.114-.002.198-.003.206-.111l.002-.021.02.004.118.018-.002.016zm-.763-4.33c0-1.573 1.403-2.701 2.907-2.701.623 0 1.221.2 1.812.407l.075 1.098h-.19c-.147-.899-.784-1.258-1.643-1.258-.883 0-2.163.591-2.163 2.432 0 1.551 1.106 2.663 2.287 2.663.759 0 1.388-.522 1.542-1.328l.176.046-.176 1.12c-.321.2-1.189.408-1.696.408-1.795.001-2.93-1.158-2.931-2.887zm2.191 4.445v.144h-.077c-.153.003-.291.017-.293.221v2.187c.002.205.14.22.293.221h.074v.16299999999999998h-.018l-.659-.018-.614.018h-.018v-.162h.077c.151-.002.288-.016.29-.221v-2.187c-.002-.204-.139-.219-.29-.221h-.077v-.16199999999999998h.018l.618.016.656-.016h.02v.017zm1.667 2.997c-.892-.003-1.578-.61-1.58-1.518.002-.878.682-1.559 1.559-1.559.896 0 1.615.558 1.617 1.457 0 .971-.699 1.615-1.596 1.62zm4.627-2.343v1.9c0 .146.001.291.022.419l.003.02h-.02l-.172-.006-2.119-2.361v1.674c.006.364.062.466.375.47h.09v.16499999999999998h-.02l-.537-.017-.568.017h-.02v-.16299999999999998h.076c.275-.002.354-.179.358-.511v-1.76c-.002-.221-.183-.356-.363-.356h-.072v-.16199999999999998h.018l.479.016.388-.01 1.834 2.064v-1.535c-.002-.332-.225-.373-.347-.375h-.11v-.16199999999999998h.02l.583.015.517-.015h.018v.16199999999999998h-.081c-.171.005-.35.021-.352.511zm3.331 2.135v.148l-.021-.001-.574-.017-.625.017-.019.001v-.16399999999999998h.064c.096 0 .241-.023.241-.103l-.083-.295-.158-.472h-.922l-.129.422-.09.32c0 .103.155.128.293.128h.063v.16399999999999998l-.019-.001-.504-.018-.451.018-.019.001v-.16399999999999998h.043c.157 0 .287-.09.347-.26l.669-1.916c.053-.155.129-.362.165-.528.131-.046.299-.129.381-.181l.039-.008.046.023.038.105.769 2.183.154.425c.049.11.124.155.258.155h.044v.018zm2.505-.578l-.155.709-.003.014h-.016l-1.101-.018-1.103.018h-.019v-.16299999999999998h.077c.151-.003.295-.014.296-.262v-2.146c-.001-.203-.143-.218-.296-.22h-.076v-.16199999999999998h.019l.66.015.633-.015h.019v.16199999999999998h-.123c-.163.005-.263-.003-.267.208v2.153c.002.155.104.196.234.217l.231.008.315-.018c.17-.019.317-.117.389-.217.064-.089.102-.203.125-.295l.006-.013h.157l-.002.025zm-.069-1.451c-.252 0-.44-.192-.44-.438 0-.248.188-.441.44-.441.25 0 .438.193.438.441 0 .246-.189.438-.438.438zM43.945 35.073c-.284 0-.521.185-.729.362v1.864c.001.293.275.783.79.783.822 0 1.168-.806 1.168-1.49 0-.827-.629-1.519-1.229-1.519zM45.942 39.805c-.199 0-.351.17-.351.359 0 .187.153.355.351.355.197 0 .347-.167.347-.355 0-.19-.15-.36-.347-.359zm.222.59h-.085c-.041 0-.076-.088-.158-.203h-.049v.146l.064.034v.021h-.213v-.021l.065-.04v-.326l-.063-.059v-.021h.226c.078 0 .147.035.147.115 0 .067-.043.114-.104.133l.072.102.097.104h.001v.015zM45.87 42.044c-.024.091-.061.211-.13.3-.074.106-.224.206-.398.227-.193.022-.381.022-.553.008-.134-.016-.25-.066-.25-.234v-2.153c0-.222.125-.226.283-.226h.105v-.125l-.635.016-.66-.016v.125h.058c.151 0 .315.019.315.237v2.146c0 .26-.164.281-.315.281h-.058v.125l1.104-.017 1.102.017.154-.711h-.122zm-.048.693l-1.086-.016-1.085.016v-.088h.04c.151 0 .332-.028.332-.299v-2.146c0-.23-.183-.256-.332-.256h-.04v-.089l.643.017.616-.017v.089h-.087c-.157 0-.303.012-.303.244v2.153c0 .179.132.236.268.252l.235.009.321-.017c.181-.022.334-.125.412-.232.067-.092.104-.203.129-.294v.001h.084l-.147.673zM25.988 13.609c-4.526.001-8.194 3.671-8.195 8.198.001 4.526 3.669 8.195 8.195 8.198 4.527-.002 8.195-3.672 8.195-8.198 0-4.529-3.668-8.198-8.195-8.198zm-1.861 13.044c-1.948-.75-3.329-2.635-3.333-4.848.004-2.213 1.384-4.099 3.333-4.849v9.697zm3.719.005v-9.7c1.948.748 3.333 2.636 3.337 4.85-.004 2.215-1.388 4.1-3.337 4.85zM22.899 34.906c-.467 0-.789.344-.881.897h1.335c.192 0 .214-.099.214-.19 0-.392-.238-.707-.668-.707zM45.92 39.956h-.05v.208h.054c.057 0 .082-.042.082-.111 0-.072-.041-.097-.086-.097zM29.836 42.63c-.139 0-.227-.05-.278-.169l-.153-.426-.768-2.184-.038-.104-.03-.013-.034.009c-.078.05-.246.134-.378.179-.026.156-.101.365-.156.519l-.668 1.916c-.061.174-.2.272-.363.272h-.024v.125l.45-.017.506.017v-.124h-.047c-.137 0-.313-.02-.313-.146l.093-.325.133-.435h.948l.163.483.083.3c0 .105-.162.123-.258.123h-.047v.125l.626-.017.576.017v-.125h-.023zm.006.107l-.558-.017-.607.017v-.087h.026c.095-.003.272-.012.277-.141 0-.062-.038-.172-.084-.307l-.168-.497h-.973l-.137.447-.094.332c.006.147.197.163.332.165h.027v.085l-.486-.017-.433.017v-.087h.007c.171 0 .317-.103.38-.285l.667-1.916c.054-.154.13-.364.156-.521.124-.033.292-.114.372-.166l.024-.006h.007l.006.004.036.1.768 2.184.155.428c.052.123.15.18.294.18h.006v.088zM33.804 39.966h.059v-.125l-.657.016-.616-.016v.125h.06c.152 0 .309.019.309.237v2.187c0 .218-.158.238-.309.238h-.06v.125l.614-.016.659.016v-.125h-.059c-.151 0-.31-.019-.31-.238v-2.187c0-.217.16-.237.31-.237zm.001 2.682h.039v.088l-.641-.017-.595.017v-.088h.04c.148 0 .326-.028.326-.257v-2.188c0-.231-.178-.257-.326-.257h-.04v-.089l.599.017.637-.017v.089h-.039c-.151 0-.328.027-.328.257v2.188c0 .231.177.257.328.257zM23.073 42.377l-.713-1.068c.331-.129.581-.359.581-.734 0-.591-.468-.734-.994-.734l-.672.016-.647-.016v.125h.074c.13 0 .297.011.297.316v2.122c0 .154-.141.226-.297.226h-.074v.126l.605-.017.718.017v-.126h-.076c-.193 0-.342-.013-.342-.334v-.896h.275c.272.481.548.931.869 1.354l.393-.017.408.017v-.124c-.205-.024-.288-.075-.405-.253zm.385.269v.091l-.392-.017-.391.018c-.308-.413-.582-.865-.855-1.344l-.004-.01h-.304v.912c0 .329.171.354.361.354h.057v.086l-.7-.017-.586.017v-.087h.057c.158 0 .315-.078.315-.245v-2.122c0-.313-.185-.335-.315-.335h-.057v-.089l.629.017.672-.017c.525.002.976.137.976.716 0 .367-.243.591-.569.719l-.021.009.727 1.086c.114.175.206.233.402.258h-.002zM21.77 39.974l-.239.016-.017.001v1.278h.22299999999999998c.42 0 .66-.17.661-.668 0-.382-.247-.627-.628-.627zm-.033 1.278h-.204v-1.244l.237-.017c.372 0 .609.237.609.61 0 .492-.224.649-.642.651zM26.963 39.841l-.514.016-.584-.016v.125h.091c.126 0 .363.051.363.394v1.565l-.003.002-.004.006-1.858-2.092-.371.016-.479-.016v.127h.053c.189 0 .38.142.38.375v1.758c0 .334-.086.529-.375.529h-.058v.125l.568-.016.537.016v-.125h-.07c-.322 0-.393-.123-.393-.488v-1.721l2.149 2.396h.159c-.021-.129-.024-.275-.024-.421v-1.9c0-.497.196-.53.371-.53h.063l-.001-.125zm-.061.109c-.18.001-.39.048-.39.549v1.9c0 .137.003.277.022.402h-.138l-2.168-2.425v1.767c.001.363.082.508.412.509h.052v.087l-.521-.016-.55.016v-.088l.041.001c.299-.002.393-.216.393-.55v-1.758c0-.247-.2-.394-.397-.395h-.037v-.089l.463.017.371-.017 1.858 2.101.013-.014.008-.008.005-1.579c0-.354-.253-.411-.382-.412h-.073v-.089l.566.017.495-.017.001.091h-.044zM35.519 39.982c-.717.001-.928.634-.93 1.192 0 .743.34 1.442 1 1.443.795-.001.933-.698.935-1.307 0-.604-.326-1.329-1.005-1.328zM32.336 39.711c-.01.125-.113.13-.228.13h-2.155c-.11 0-.216.002-.249-.123h-.102l-.024.355-.05.355h.125c.063-.305.075-.381.388-.381h.687v2.23c0 .331-.118.352-.348.352h-.078v.126l.705-.017.68.017v-.125h-.079c-.201 0-.347-.037-.347-.359v-2.221h.687c.279 0 .299.246.308.4l.125-.047.01-.338.045-.338-.1-.016zm.036.353l-.009.326-.091.035c-.009-.155-.046-.394-.324-.395h-.704v2.24c0 .328.163.377.364.378h.062v.089l-.662-.018-.688.018v-.089h.065c.228-.001.363-.034.363-.369v-2.249h-.703c-.311-.004-.348.09-.402.38h-.09l.047-.334.025-.339h.068c.037.117.144.123.242.121h2.1759999999999997c.104.002.22-.004.241-.126l.062.01-.042.322zM28.257 40.291h-.034999999999999996l-.4 1.217h.832l-.397-1.217zm-.021.019v-.002h.009l.384 1.183h-.78l.387-1.181zM28.24 40.353l-.367 1.118h.73zM20.319 42.062c-.126.476-.347.51-.847.508-.268 0-.509 0-.509-.272v-.972h.5c.288 0 .301.163.325.414l.125-.026-.013-.476.013-.489h-.126c-.024.226-.079.368-.328.368h-.497v-1.093h.579c.439 0 .488.217.509.488l.127-.033c-.013-.184-.017-.459-.01-.639l-1.067.016-1.04-.016v.127h.059c.151 0 .309.019.309.237v2.187c0 .218-.159.238-.309.238h-.059v.125l1.111-.016 1.123.016c.038-.223.087-.442.142-.664l-.117-.028zm-.04.672l-1.109-.017-1.092.017v-.087h.041c.148-.002.326-.029.326-.258v-2.189c0-.231-.178-.257-.326-.257h-.041v-.089l1.022.017 1.049-.017-.004.199.013.408-.09.023c-.018-.261-.091-.484-.525-.482h-.598v1.129h.514c.255.004.323-.149.346-.367h.09l-.013.472.013.461-.09.021c-.021-.238-.051-.414-.342-.412h-.519v.99c0 .291.263.291.526.291.493.004.736-.037.861-.505l.083.019c-.052.211-.099.424-.135.633zM40.077 39.857l-.583-.016v.125h.09c.127 0 .364.051.364.394v1.565l-.003.002-.006.006-1.858-2.092-.372.016-.479-.016v.127h.059c.19 0 .379.142.379.375v1.758c0 .334-.087.529-.375.529h-.059v.125l.568-.016.537.016v-.125h-.072c-.321 0-.392-.123-.392-.488v-1.721l2.15 2.396h.157c-.02-.129-.024-.275-.024-.421v-1.9c0-.497.196-.53.372-.53h.062v-.125l-.515.016zm.495.093h-.045c-.178.001-.389.046-.389.549v1.9c0 .137.002.277.021.402h-.136l-2.168-2.426v1.768c0 .363.082.508.41.509h.054v.087l-.521-.016-.551.016v-.088l.041.001c.301-.002.395-.216.395-.55v-1.758c0-.247-.202-.394-.398-.395h-.037v-.089l.461.017.372-.017 1.858 2.101.014-.014.01-.008.004-1.579c0-.352-.254-.411-.383-.412h-.074v-.089l.567.017.496-.017-.001.091zM14.247 41.922h.001zM14.396 39.857l-.587-.016v.125h.092c.125 0 .363.051.363.394v1.565l-.007.008-.009-.01v.002l-.003-.005-1.846-2.079-.372.016-.48-.016v.125h.054c.188 0 .381.143.381.375v1.76c0 .332-.088.529-.376.529h-.058v.124l.568-.017.538.017v-.125h-.07c-.322 0-.393-.125-.393-.488v-1.721l2.15 2.396h.159c-.021-.129-.024-.275-.024-.421v-1.9c0-.497.196-.529.372-.529h.062v-.125l-.514.016zm.453.091c-.181 0-.39.048-.39.549v1.9l.021.403h-.138l-2.167-2.427v1.769c0 .363.082.506.411.508h.052v.089l-.52-.018-.55.018v-.09l.04.002c.301-.002.393-.217.393-.549v-1.76c0-.245-.2-.394-.397-.394h-.037l.001-.089.46.017.372-.017 1.857 2.1.014-.013.008-.008.007-1.579c0-.353-.254-.411-.382-.411h-.074v-.089l.566.017.495-.017.001.089h-.043zM21.77 40.008l-.219.016v1.209h.186c.413-.003.622-.146.625-.633-.002-.363-.229-.59-.592-.592zM17.827 39.711c-.008.125-.113.13-.227.13h-2.154c-.112 0-.216.002-.25-.123h-.101l-.024.355-.05.355h.125c.063-.305.075-.381.388-.381h.685v2.23c0 .331-.117.352-.347.352h-.079v.126l.706-.017.68.017v-.125h-.081c-.199 0-.345-.037-.345-.359v-2.221h.685c.28 0 .3.246.309.4l.126-.047.007-.338.046-.338-.099-.016zm.036.354l-.009.326-.089.035c-.01-.155-.045-.394-.326-.395h-.704v2.24c0 .328.164.378.365.379h.061v.087l-.662-.017-.688.017v-.087h.063c.229-.001.364-.035.364-.37v-2.249h-.703c-.311-.004-.347.09-.402.38h-.09l.047-.334.025-.339h.068c.038.117.146.121.244.121h2.174c.106.002.222-.004.241-.126l.064.011-.043.321zM41.867 40.353l-.367 1.118h.73zM35.518 39.943c-.743 0-.963.667-.965 1.229.002.75.346 1.478 1.037 1.479.826 0 .969-.733.971-1.342-.002-.611-.332-1.364-1.043-1.366zm.075 2.69c-.677 0-1.02-.715-1.02-1.461 0-.56.217-1.211.947-1.211.693 0 1.022.739 1.022 1.348s-.141 1.324-.949 1.324zM14.245 41.919l.002.002zM35.527 39.778c-.868 0-1.54.673-1.54 1.541 0 .897.676 1.5 1.562 1.5.889 0 1.578-.64 1.578-1.601 0-.888-.71-1.44-1.6-1.44zm.022 3.021c-.875 0-1.543-.592-1.545-1.48.002-.857.666-1.523 1.524-1.523.882.002 1.581.545 1.582 1.422-.003.949-.68 1.579-1.561 1.581z"/></svg>