<svg xmlns="http://www.w3.org/2000/svg" viewBox="0 0 56.48 56.48" enable-background="new 0 0 56.48 56.48"><path d="M14.303 39.949c-.569 0-1.04.554-1.04 1.132 0 .139.037.268.102.387l1.346-1.352c-.16-.098-.309-.167-.408-.167zM55.028 9.939h-7.477l-25.871 25.662v-1.211l24.47-24.451h-1.207l-23.263 23.058v-1.213l21.845-21.845h-1.164l-20.681 20.498v-1.211l19.285-19.288h-1.205l-17.598 17.478-.359-.875 16.604-16.602h-1.229l-15.016 14.917-.359-.875 14.043-14.042h-34.392c-.804 0-1.454.651-1.454 1.454v3.168h16.561c3.234 0 4.536.673 5.12 3.368.135.449-.314.539-.449.135-.229-.687-.944-2.246-4.311-2.246h-16.921v1.212h16.561c3.234 0 4.536.674 5.12 3.369.135.449-.314.539-.449.135-.229-.687-.944-2.246-4.311-2.246h-16.921v1.213h16.561c3.234 0 4.536.673 5.12 3.368.135.449-.314.539-.449.135-.229-.687-.944-2.246-4.311-2.246h-16.921v1.213h16.561c3.234 0 4.536.673 5.12 3.368.135.449-.314.539-.449.135-.229-.687-.944-2.246-4.311-2.246h-16.921v1.213h16.561c3.234 0 4.536.674 5.12 3.368.135.449-.314.539-.449.135-.229-.687-.944-2.246-4.311-2.246h-16.921v19.391c0 .803.65 1.453 1.454 1.453h53.572c.804 0 1.454-.65 1.454-1.453v-33.696c0-.803-.65-1.454-1.452-1.454zm-43.523 33.354h-1.449v-4.349h-1.199v-1.229h3.848v1.229h-1.199l-.001 4.349zm3.077-1.136c.67.027.885-.218 1.373-.615v1.468c-.459.247-1.315.352-1.674.352-1.237 0-2.27-.919-2.27-2.18 0-1.342 1.025-2.274 2.334-2.271.631.002 1.242.184 1.793 1.072l-2.064 2.063c.166.065.342.104.508.111zm3.41 1.129h-1.346v-5.57h1.346v5.57zm3.108-1.129c.668.027.883-.218 1.371-.615v1.468c-.459.247-1.315.352-1.674.352-1.237 0-2.27-.919-2.27-2.18 0-1.342 1.025-2.274 2.336-2.271.629.002 1.24.184 1.791 1.072l-2.064 2.063c.166.065.341.104.51.111zm5.17 1.264c-.776 0-1.516-.296-2.094-.82-.614-.554-.895-1.279-.895-2.108 0-.761.289-1.494.822-2.041.547-.563 1.338-.903 2.121-.903.467 0 1.533-.019 2.299 1.113l-.975.906c-.294-.398-.775-.614-1.271-.614-.886 0-1.486.681-1.486 1.546 0 .881.606 1.518 1.508 1.518.379 0 .813-.098 1.184-.541l1.07.795c-.551 1.01-1.833 1.153-2.283 1.149zm6.732-.14h-1.348v-2.418c0-.443-.066-.902-.605-.902-.533 0-.703.459-.703.902v2.418h-1.346v-5.566h1.345v1.779h.016c.311-.415.688-.607 1.213-.607.961 0 1.428.637 1.428 1.599v2.795zm3.065-1.124c.67.027.885-.218 1.373-.615v1.468c-.459.247-1.316.352-1.674.352-1.238 0-2.271-.919-2.271-2.18 0-1.342 1.024-2.274 2.334-2.271.632.002 1.242.184 1.793 1.072l-2.063 2.063c.166.065.341.104.508.111zm5.258-1.778c-.221-.162-.481-.292-.766-.292-.572 0-1.017.44-1.017 1.017 0 .602.431 1.025 1.041 1.025.261 0 .546-.106.74-.285v1.254c-.326.162-.685.234-1.041.234-1.238 0-2.271-.919-2.271-2.181 0-1.343 1.024-2.271 2.336-2.271.342 0 .684.081.977.244h.001v1.255zm4.965 2.902h-1.827l-1.158-1.896v1.896h-1.347v-5.565h1.347l-.013 3.088 1.438-1.804h1.59l-1.558 2.08 1.528 2.201zm2.517 1.253c-.616 0-1.112-.497-1.112-1.113 0-.609.496-1.107 1.112-1.107.611 0 1.107.498 1.107 1.107 0 .616-.496 1.113-1.107 1.113zM20.821 39.949c-.571 0-1.042.554-1.042 1.132 0 .139.037.268.104.387l1.344-1.352c-.16-.098-.309-.167-.406-.167zM49.378 43.133c0-.106-.047-.217-.141-.269-.094-.056-.199-.062-.303-.062h-.541v1.241h.152v-.573h.278l.354.573h.182l-.375-.573c.221-.006.393-.096.394-.337zm-.6.217h-.232v-.439h.355c.152 0 .322.024.322.215 0 .254-.272.223-.445.224zM35.787 39.949c-.568 0-1.039.554-1.041 1.132 0 .139.039.268.103.387l1.346-1.352c-.16-.098-.308-.167-.408-.167z"/></svg>