<svg xmlns="http://www.w3.org/2000/svg" viewBox="0 0 56.48 56.48" enable-background="new 0 0 56.48 56.48"><path d="M35.29 23.323c-.227-.191-.557-.288-.985-.288h-2.222l-1.026 5.001h1.031l.369-1.808h1.192c.479 0 .897-.146 1.25-.435.351-.29.577-.672.676-1.149l.043-.253.011-.229v-.011c0-.36-.113-.636-.339-.828zm-.733 1.182l-.021.125c-.054.248-.152.43-.3.55-.148.118-.353.178-.611.178h-.988l.303-1.466h.838c.276 0 .473.039.6.121.125.08.188.209.188.386l-.009.106zM37.72 25.2l-.359.247c-.375-.293-.717-.475-1.378-.168-.9.418-1.653 3.619.822 2.565l.143.167.977.025.64-2.91-.845.074zm-.554 1.591c-.156.463-.507.768-.781.681-.274-.084-.371-.53-.211-.994.155-.464.508-.767.779-.681.274.085.372.531.213.994zM18.171 22.851l-.71 3.418c-.062.302-.201.533-.414.696-.213.165-.487.246-.82.246-.291 0-.499-.083-.627-.25-.088-.112-.131-.255-.13-.43l.029-.263.708-3.418h-1.083l-.717 3.458c-.035.168-.052.325-.052.471 0 .352.103.644.308.873.296.323.76.483 1.394.483.673 0 1.223-.158 1.648-.472.43-.32.708-.77.827-1.356l.717-3.458-1.078.002zM30.688 25.153c-.146-.188-.378-.282-.699-.282-.354 0-.657.132-.905.397l-.108.127.087-.445h-.766l-.617 3.087h.786l.354-1.774c.044-.223.136-.398.275-.524.14-.125.31-.188.512-.188.164 0 .275.047.338.142.061.094.07.241.031.438l-.381 1.906h.787l.42-2.103c.069-.333.028-.593-.114-.781zM21.918 25.153c-.145-.19-.377-.283-.699-.283-.355 0-.656.132-.905.397l-.109.127.087-.445h-.765l-.617 3.087h.787l.351-1.773c.045-.223.137-.398.276-.524.139-.125.309-.188.511-.188.165 0 .279.047.338.142.061.094.072.241.033.438l-.381 1.906h.787l.42-2.103c.068-.333.029-.593-.114-.781zM37.563 29.935c-.115.002-.168-.043-.163-.133l-.041-.359h-.973l.033.785c.014.227.153.33.426.315h.715l.175-.608h-.172zM23.078 24.95l-.663 3.084h.846l.665-3.084zM26.822 29.848l.215-.379h-1.029l-.384.574c-.043.09-.134.137-.271.137h-.148l-.167.606h.765c.251.015.459-.104.628-.36h1.468l.157-.578h-1.234zM35.065 29.487c-.38 0-.909.264-.909.264l.045-.264h-1.034l-.204.719h.199l-.966 3.395h-.198l-.191.675h1.976l-.084.292h1.001l.084-.292h.202l.19-.675h-.202l.965-3.395h.201l.203-.719h-1.278zm-1.178 4.114h-.772l.199-.697h.772l-.199.697zm.385-1.349c-.342.02-.842.266-.842.266l.265-.963h.774s-.1.325-.197.697zm.382-1.349c-.388.049-.838.222-.838.222l.263-.919h.773l-.198.697zM41.16 24.948l-.892 2.086-.051-2.084h-.477l-.566.008.27 3.322c-.227.452-.624 1.47-1.357 1.696l-.076.529c.873.032 1.234-.4 1.418-.587.182-.188.494-.592.818-1.286l1.817-3.684h-.904zM39.253 30.744h-3.148l-.188.654h1.089l-.174.606h-1.087l-.187.65h1.002l-.777 1.124c-.087.104-.186.158-.303.158h-.286l-.179.629h.916c.244.016.425-.082.543-.292l.496-.743.146.698c.013.225.174.33.485.313h.6l.18-.63h-.17c-.115 0-.183-.037-.199-.113l-.125-.765h-.547l.252-.381h1.116l.187-.652h-1.002l.173-.605h1.002v.001l.185-.652zM55.026 9.939h-53.572c-.804 0-1.454.651-1.454 1.454v33.694c0 .803.65 1.455 1.454 1.455h53.572c.804 0 1.454-.651 1.454-1.454v-33.695c0-.803-.65-1.454-1.454-1.454zm-8.791 9.399l-4.027 17.818c-.262 1.145-1.372 2.07-2.516 2.128h-8.945c-1.161-.019-1.883-.968-1.618-2.136l.313-1.387h-.702l-.313 1.387c-.265 1.169.456 2.117 1.618 2.136h-9.51c-1.16-.019-1.884-.968-1.617-2.136l.935-4.137h-.82l-.935 4.137c-.266 1.169.457 2.117 1.618 2.136h-7.862c-.935-.013-1.585-.633-1.664-1.485v-.33l.047-.319 4.028-17.818c.27-1.18 1.782-2.136 2.962-2.136l7.814.002c-1.173.024-2.65.968-2.915 2.134l-.756 3.348h.82l.757-3.347c.265-1.165 1.741-2.11 2.914-2.134l.046-.002 6.054.003h3.404l-.02.001c-1.17.036-2.625.974-2.892 2.131l-.757 3.347h.702l.757-3.347c.266-1.157 1.723-2.095 2.893-2.131l.019-.001h.002l8.515.002c1.18 0 1.92.957 1.651 2.136zM27.567 31.64l.172-.629h-2.704l-.17.629h.646l-.165.608h-.677l-.171.63h.676l-.314 1.146c-.098.359.009.54.324.54h1.655l.16-.585h-.862c-.222.015-.302-.052-.241-.203l.246-.896h1.059l.172-.631h-1.058l.165-.609h1.087zM30.282 29.452c-.463 0-.973.383-.973.383l.041-.368h-.905l-1.284 4.737c-.061.226.093.337.466.337h.97l.142-.515h-.382c-.099 0-.135-.046-.109-.136l.454-1.664h1.939c.41 0 .643-.134.697-.405l.655-2.369h-1.711zm.15 2.03c-.008.107-.072.15-.185.135h-1.38l.127-.471h1.53l-.092.336zm.246-.897s-.484-.006-.908 0c-.426.006-.68.19-.68.19l.183-.639h1.528l-.123.449zM23.344 23.825l-.159.75h.855l.16-.75zM27.129 25.187c-.221-.213-.524-.32-.905-.32-.465 0-.863.149-1.192.443-.33.294-.543.692-.645 1.193l-.034.225-.012.21c.002.363.113.649.336.861.221.208.522.314.905.314.462 0 .858-.144 1.188-.435.33-.288.544-.682.642-1.175l.036-.231.013-.214c0-.368-.111-.657-.332-.871zm-.491 1.109l-.023.158c-.066.326-.172.572-.322.734-.15.163-.341.245-.577.245-.18 0-.317-.051-.413-.154-.098-.103-.147-.249-.147-.438l.006-.143.023-.152c.068-.333.175-.582.326-.748.15-.165.341-.248.576-.248.178 0 .315.053.412.158.098.105.146.253.146.442l-.007.146zM30.566 32.408l-.074.245c0 .075-.059.112-.178.112h-.234l.018-.381h-.883l-.066 1.752c-.004.301.143.441.438.429h1.059l.144-.517h-.44c-.195 0-.289-.054-.281-.158l.002-.651h.47c.356-.017.576-.172.659-.472l.098-.359h-.732z"/></svg>