<svg xmlns="http://www.w3.org/2000/svg" viewBox="0 0 56.48 56.48" enable-background="new 0 0 56.48 56.48"><path d="M15.051 25.812c-1.058 0-1.869.34-1.869.34l-.224 1.33s.669-.272 1.682-.272c.575 0 .995.064.995.531 0 .284-.051.389-.051.389s-.453-.037-.663-.037c-1.335 0-2.737.568-2.737 2.287 0 1.354.919 1.663 1.49 1.663 1.089 0 1.559-.706 1.583-.708l-.051.59h1.359l.606-4.25c-.001-1.805-1.574-1.863-2.12-1.863zm-.762 4.938c-.479 0-.604-.365-.604-.583 0-.422.229-.93 1.36-.93.264.001.292.028.336.036.03.26-.162 1.477-1.092 1.477zM19.959 27.237c.217 0 1.054.069 1.054.069l.195-1.362s-.542-.121-1.424-.121c-1.142 0-2.3.456-2.3 2.015 0 1.768 1.932 1.588 1.932 2.334 0 .496-.54.537-.956.537-.721 0-1.369-.246-1.371-.236l-.206 1.351c.037.01.437.188 1.732.188.347 0 2.334.09 2.334-1.961 0-1.918-1.839-1.539-1.839-2.31 0-.384.299-.504.849-.504zM23.206 27.411h.817l.197-1.452h-.77l.157-.9h-1.543c-.034.033-.911 5.076-.911 5.688 0 .911.511 1.315 1.23 1.308.563-.004 1.002-.16 1.157-.203l.193-1.312-.398.046c-.537 0-.596-.287-.562-.498l.433-2.677zM29.673 18.987h-2.754c-.37.5-.718 1.032-1.033 1.552h4.913c-.341-.542-.718-1.06-1.126-1.552zM51.161 36.445l-.075-.1-.043-.026.105-.046.039-.096-.023-.074-.064-.049-.127-.015h-.174v.505h.082v-.214h.047l.064.018.086.117.044.08h.101l-.062-.1zm-.182-.182h-.1v-.152h.094l.08.009.035.026.012.039-.025.057-.096.021zM31.634 22.062h-6.607c-.422.799-.702 1.403-.781 1.553h8.014c-.181-.534-.389-1.051-.626-1.553zM10.293 24.583l-1.521 4.51-.079-4.51h-2.252l-1.234 7.349h1.489l.939-5.54.138 5.54h1.063l1.983-5.54-.879 5.54h1.58l1.217-7.349zM40.069 25.812c-1.06 0-1.87.34-1.87.34l-.225 1.33s.67-.272 1.682-.272c.575 0 .996.064.996.531 0 .284-.053.389-.053.389s-.452-.037-.664-.037c-1.334 0-2.735.568-2.735 2.287 0 1.354.92 1.663 1.49 1.663 1.088 0 1.558-.706 1.583-.708l-.051.59h1.358l.606-4.25c.003-1.805-1.571-1.863-2.117-1.863zm-.76 4.938c-.48 0-.604-.365-.604-.583 0-.422.229-.93 1.36-.93.263.001.291.028.336.036.029.26-.164 1.477-1.092 1.477zM51.21 31.255c-.041-.076-.101-.134-.176-.174-.074-.041-.15-.061-.23-.061-.077.001-.154.021-.23.061-.075.04-.133.098-.175.174-.042.075-.063.153-.063.234s.021.158.063.232c.041.074.099.133.173.175.075.041.152.062.232.062.082 0 .16-.021.233-.062.074-.042.132-.101.173-.175.043-.074.062-.151.062-.232 0-.083-.02-.161-.062-.234zm-.065.427c-.034.062-.082.109-.145.146l-.193.052-.194-.052c-.063-.035-.11-.083-.146-.146l-.052-.194.054-.195c.035-.062.082-.11.146-.145l.192-.05.19.05c.064.035.111.082.146.145l.054.195-.052.194zM50.963 31.648l-.074-.1-.043-.026.104-.046.04-.096-.024-.074-.062-.049-.128-.015h-.176v.504h.082v-.214h.047l.066.017.086.119.043.079h.101l-.062-.099zm-.18-.185h-.099v-.153h.092l.082.008.033.027.013.041-.024.055-.097.022zM45.313 25.885c-.691 0-1.204.943-1.204.943l.138-.867h-1.438l-.963 5.982h1.584c.451-2.556.533-4.629 1.604-4.25.189-.988.371-1.371.576-1.788l-.297-.02zM49.293 24.591l-.333 2.065s-.58-.803-1.49-.803c-1.415.001-2.593 1.706-2.593 3.664 0 1.265.629 2.504 1.913 2.504.925 0 1.437-.645 1.437-.645l-.067.551h1.501l1.18-7.339-1.548.003zm-1.957 5.93c-.556 0-.816-.466-.816-1.198 0-1.197.537-1.986 1.216-1.986.554.001.839.382.839 1.28 0 .815-.403 1.904-1.239 1.904zM55.026 9.939h-53.572c-.804 0-1.454.651-1.454 1.454v33.695c0 .803.65 1.454 1.454 1.454h53.572c.804 0 1.454-.651 1.454-1.454v-33.695c0-.803-.65-1.454-1.454-1.454zm-3.617 26.579c-.042.076-.099.134-.173.175-.074.041-.152.062-.232.062-.082 0-.16-.021-.234-.062-.073-.041-.131-.099-.174-.175-.041-.073-.062-.151-.062-.232s.021-.158.063-.234c.041-.076.101-.133.175-.174.075-.039.151-.06.231-.06.079 0 .155.021.229.06.075.041.134.098.175.174.042.076.062.154.062.234s-.018.161-.06.232zm1.048-8.277c.002 8.005-6.484 14.497-14.49 14.499-3.744.001-7.158-1.418-9.73-3.749-2.572 2.327-5.979 3.745-9.717 3.745-8.001 0-14.495-6.493-14.495-14.495 0-7.97 6.443-14.444 14.402-14.496h.093c3.738 0 7.146 1.418 9.718 3.745 2.571-2.328 5.981-3.747 9.722-3.748 8.006-.003 14.497 6.486 14.499 14.492l-.002.007zM26.753 37.406c.459.562.945 1.098 1.482 1.584l.037-.031-.001-.001h.003c.528-.481 1.021-.999 1.472-1.552h-2.993zM28.727 29.45s.203-1 .203-1.407c0-1.017-.506-2.257-2.2-2.257-1.552.001-2.701 1.673-2.701 3.563 0 2.181 1.439 2.699 2.666 2.699 1.132 0 1.63-.254 1.63-.254l.272-1.488s-.861.38-1.639.38c-1.657 0-1.367-1.236-1.367-1.236h3.136zm-1.992-2.279c.871 0 .71.979.71 1.057h-1.713c0-.101.162-1.057 1.003-1.057zM35.965 25.991c.785 0 1.416.441 1.416.441l.252-1.635s-.934-.378-1.738-.378c-1.781 0-3.514 1.546-3.514 4.449 0 1.925.935 3.196 2.777 3.196.52 0 1.35-.211 1.35-.211l.276-1.684s-.756.379-1.276.379c-1.096-.001-1.535-.837-1.535-1.733 0-1.823.942-2.824 1.992-2.824zM24.818 34.361c.251.539.543 1.052.856 1.552h5.143c.312-.498.593-1.016.844-1.552h-6.843zM32.353 25.887c-.691 0-1.203.943-1.203.943l.139-.867h-1.437l-.963 5.982h1.584c.449-2.555.533-4.629 1.604-4.25.188-.989.369-1.372.574-1.79l-.298-.018z"/></svg>