<svg xmlns="http://www.w3.org/2000/svg" viewBox="0 0 56.48 56.48" enable-background="new 0 0 56.48 56.48"><path d="M29.582 19.575h-2.579c-.347.469-.673.967-.967 1.454h4.601c-.32-.508-.672-.993-1.055-1.454zM14.257 26.117c1.116-.698 2.573-.457 3.658.004.176-.69.243-1.011.372-1.579-1.736-.446-3.612-.574-5.255.166-1.768.852-2.636 2.709-2.372 4.524.077 1.131 1.023 2.178 2.186 2.582 1.303.433 2.539.312 3.842-.051.135-.5.252-1.047.406-1.746-1.086.557-2.063.693-3.084.317-.591-.236-1.009-.781-1.087-1.34-.077-1.158.279-2.205 1.334-2.877zM19.223 25.893l-1.314 6.172h2.21l1.314-6.172zM49.701 35.924l-.071-.094-.041-.023.1-.043.037-.092-.022-.067-.06-.046-.12-.014h-.162v.473h.076v-.2h.045l.062.016.079.11.042.074h.094l-.059-.094zm-.17-.17h-.094v-.145h.088l.076.009.031.024.012.037-.023.053-.09.022zM26.847 36.823c.43.524.885 1.028 1.388 1.483l.035-.029.002-.001c.493-.449.954-.937 1.378-1.453h-2.803zM31.418 22.456h-6.187c-.395.747-.658 1.313-.731 1.453h7.504c-.168-.498-.365-.983-.586-1.453zM46.598 32.44l-.072-.094-.04-.025.098-.043.037-.09-.021-.069-.06-.046-.12-.014h-.162v.474h.076v-.201h.045l.062.017.079.109.041.074h.095l-.058-.092zm-.172-.172h-.093v-.143h.087l.076.008.032.025.012.037-.024.053-.09.02zM46.83 32.07c-.039-.071-.094-.126-.164-.163l-.216-.057c-.073 0-.146.02-.216.057-.07.038-.125.093-.164.163-.04.07-.061.144-.061.22 0 .075.021.15.059.219.04.069.094.123.163.162.07.038.143.059.219.059l.218-.059c.07-.039.124-.093.163-.162.038-.071.058-.144.058-.219 0-.075-.02-.15-.059-.22zm-.063.404l-.137.135-.182.049-.184-.049-.135-.135-.049-.184.051-.183.137-.138.18-.047.18.047c.06.034.106.078.137.138l.05.183-.048.184zM55.026 9.939h-53.572c-.804 0-1.454.651-1.454 1.454v33.694c0 .803.65 1.455 1.454 1.455h53.572c.804 0 1.454-.651 1.454-1.454v-33.695c0-.803-.65-1.454-1.454-1.454zm-5.093 26.055c-.037.069-.092.124-.161.163-.071.038-.142.058-.218.058l-.219-.058c-.07-.039-.125-.094-.164-.163-.037-.071-.058-.143-.058-.219 0-.076.021-.151.06-.219.039-.071.094-.125.164-.164.071-.037.143-.057.217-.057.072 0 .146.02.215.057.07.039.125.093.164.164.039.07.06.143.06.219 0 .076-.02.147-.06.219zm.981-7.755c.002 7.496-6.073 13.574-13.569 13.576-3.506.001-6.701-1.328-9.11-3.511-2.408 2.179-5.599 3.507-9.099 3.507-7.492 0-13.572-6.08-13.572-13.572 0-7.463 6.033-13.525 13.485-13.572h.087c3.5 0 6.692 1.328 9.1 3.506 2.409-2.181 5.602-3.509 9.104-3.51 7.496-.002 13.574 6.073 13.576 13.569l-.002.007zM43.928 27.262c.442 0 1.047.036 1.619.095l.32-1.453c-.584-.068-1.468-.123-1.982-.123-2.52.003-3.392.968-3.383 2.125 0 .793.523 1.339 1.715 1.749.912.314 1.053.407 1.053.691 0 .392-.401.567-1.293.567-.672 0-1.297-.077-2.02-.249l-.309 1.448.1.015.413.063c.134.021.329.038.588.055.536.035.951.054 1.243.054 2.376 0 3.475-.664 3.475-2.096 0-.861-.459-1.365-1.588-1.747-.943-.317-1.054-.388-1.054-.681 0-.338.375-.513 1.103-.513zM37.633 25.917l-.637 2.83c-.162.908-.724 1.687-1.672 1.687-.624.023-.99-.342-.99-.707 0-.318.088-.625.149-.932l.624-2.878h-2.203l-.6 2.865c-.138.649-.174.885-.174 1.298 0 1.203.711 2.123 2.021 2.123 1.187 0 1.858-.46 2.508-1.145h.024l-.176 1.003h2.084c.062-.556.162-1.073.273-1.604l1.012-4.54h-2.243zM25.036 33.969c.235.505.51.986.802 1.453h4.815c.292-.465.556-.951.79-1.453h-6.407zM29.771 26.846c.031-.321.178-.627.129-.947h-2.021c-.292 1.91-.809 3.838-1.213 5.749l-.106.415h2.302c.274-1.255.44-2.556.958-3.718.271-.465.814-.913 1.408-.827l.365.071.703-1.727c-1.626-.214-2.088.586-2.525.984zM24.745 26.844c.031-.321.177-.628.129-.948h-2.022c-.291 1.911-.808 3.839-1.212 5.75l-.106.415 2.301-.002c.274-1.254.441-2.555.959-3.717.271-.464.813-.913 1.408-.826l.365.071.702-1.725c-1.627-.214-2.088.586-2.524.982z"/></svg>