<svg xmlns="http://www.w3.org/2000/svg" viewBox="0 0 56.48 56.48" enable-background="new 0 0 56.48 56.48"><path d="M55.026 9.939h-53.572c-.804 0-1.454.651-1.454 1.454v33.694c0 .803.65 1.455 1.454 1.455h53.572c.804 0 1.454-.651 1.454-1.454v-33.695c0-.803-.65-1.454-1.454-1.454zm-41.132 16.724l-.168-.381v.021c0 .489-.397.886-.886.886h-2.609c-.36 0-.683-.217-.82-.549l-.267-.648h-1.486l-.271.652c-.136.33-.46.546-.816.546h-1.394c-.298 0-.576-.15-.74-.398-.163-.25-.192-.564-.074-.837l2.296-5.367c.139-.325.46-.537.815-.537h1.904c.355 0 .674.211.815.536l.481 1.122v-.771c0-.489.396-.886.886-.886h2.095c.344 0 .659.202.805.515l.839 1.822.762-1.796c.138-.328.46-.541.814-.541h2.138c.18 0 .337.067.478.159.14-.092.297-.159.478-.159h4.284c.166 0 .313.058.444.137.133-.079.279-.137.445-.137h2.95c.763 0 1.394.027 1.997.375l.16.124c.144-.292.44-.499.789-.499h1.309c.443 0 .795.33.86.753.574-.497 1.356-.753 2.408-.753h1.241c.197 0 .382.065.529.176.149-.112.334-.176.53-.176h1.921c.354 0 .673.212.814.537l.471 1.102v-.753c0-.489.397-.886.887-.886h1.953c.311 0 .598.162.758.428l.61 1.011v-.554c0-.489.398-.886.888-.886h1.312c.49 0 .886.397.886.886v5.367c0 .489-.398.886-.886.886h-1.816c-.313 0-.6-.162-.761-.428l-.787-1.305v.847c0 .489-.398.886-.886.886h-2.611c-.357 0-.678-.215-.818-.545l-.271-.652h-1.478l-.262.643c-.133.335-.459.555-.818.555h-1.502c-.571 0-1.593-.103-2.322-.714-.083.404-.423.714-.852.714h-1.31c-.145 0-.278-.044-.401-.107-.121.063-.252.107-.398.107h-1.294c-.487 0-.883-.393-.887-.879l-.005-.677.002-.118-.004-.271-.249-.007h-.489v1.066c0 .489-.397.886-.886.886h-1.284c-.166 0-.311-.058-.445-.137-.131.079-.278.137-.444.137h-4.284c-.181 0-.338-.068-.478-.159-.141.091-.298.159-.478.159h-1.315c-.49 0-.886-.396-.886-.885v-.022l-.17.38c-.142.321-.458.528-.81.528h-1.127c-.35 0-.668-.208-.809-.529zm35.397 9.764h-2.498c-.366 0-.679-.223-.815-.539-.487.345-1.131.539-1.928.539h-2.498c-.141 0-.267-.039-.385-.096-.117.057-.244.096-.384.096h-4.28c-.143 0-.274-.039-.392-.1-.119.059-.248.1-.39.1h-1.287c-.491 0-.887-.397-.887-.886v-.78l-.004-.287-.26-.008h-.484v1.075c0 .49-.397.886-.886.886h-1.289c-.491 0-.887-.397-.887-.886v-1.364c-.455.271-1.083.449-1.949.449h-.713v.915c0 .49-.397.886-.887.886h-2.493c-.253 0-.495-.108-.663-.297l-.929-1.046-.979 1.06c-.168.181-.403.285-.65.285h-5.081c-.49 0-.886-.398-.886-.887v-5.367c0-.491.397-.887.886-.887h5.158c.253 0 .492.106.659.294l.932 1.037.971-1.048c.168-.181.403-.283.65-.283h4.098c.898 0 1.53.199 1.979.493.145-.29.437-.493.784-.493h2.962c.682 0 1.342.026 1.961.357l.172.132c.146-.287.435-.489.781-.489h4.28c.332 0 .612.191.764.462.422-.286.982-.462 1.688-.462h2.57c.387 0 .705.249.828.592.44-.357 1.041-.592 1.842-.592h2.572c.489 0 .885.397.885.887v1.142c0 .313-.16.588-.405.746l.026.026c.44.452.64 1.01.64 1.76 0 1.614-1.083 2.58-2.899 2.578zM29.388 23.814c.334-.132.904-.575.904-1.43 0-.599-.244-.949-.648-1.189-.416-.24-.899-.257-1.554-.257h-2.95v5.367h1.284v-1.951h1.375c.462 0 .748.041.935.229.233.258.202.722.202 1.045l.006.677h1.294v-1.055c0-.479-.031-.717-.213-.984-.114-.157-.354-.345-.635-.452zm-.772-.676c-.178.107-.386.11-.635.11h-1.559l.001-1.191h1.58c.222 0 .456.011.608.097.166.078.269.244.269.474 0 .234-.099.423-.264.51zM31.04 20.939h1.309v5.367h-1.309zM46.217 20.939v3.738l-2.256-3.738h-1.953v5.076l-2.172-5.076h-1.921l-1.812 4.22h-.575c-.335 0-.697-.064-.894-.277-.241-.27-.353-.685-.353-1.259 0-.564.149-.99.368-1.216.254-.248.517-.318.988-.318h1.215v-1.15h-1.241c-.884 0-1.535.197-1.948.625-.55.575-.691 1.303-.691 2.099 0 .975.236 1.593.688 2.049.446.455 1.235.593 1.86.594h1.502l.482-1.197h2.664l.5 1.197h2.611v-4.028l2.434 4.028h1.816v-5.367h-1.312zm-8.254 3.05l.881-2.139.889 2.139h-1.77zM35.64 22.974c-.302-.001-.333.031-.37.066-.012.017-.102.21-.102.582 0 .368.059.545.102.625l.252.026.556-1.299h-.438zM40.782 31.284v-1.11h-4.28v5.368h4.28v-1.113l-3.004-.007v-1.066h2.93v-1.096h-2.93v-.976zM27.861 30.176h-4.098l-1.632 1.758-1.58-1.758h-5.158v5.367h5.081l1.642-1.777 1.58 1.777h2.493v-1.8h1.6c1.121 0 2.233-.308 2.233-1.799 0-1.486-1.143-1.77-2.161-1.768zm-8.036 4.25h-3.152v-1.068h2.815v-1.096h-2.815v-.976h3.215l1.403 1.563-1.466 1.577zm5.086.629l-1.97-2.188 1.97-2.116v4.304zm2.934-2.404h-1.656v-1.367h1.672c.464 0 .784.189.784.659 0 .465-.306.71-.8.708zM34.881 33.047c.336-.134.909-.57.911-1.429 0-.612-.255-.948-.658-1.192-.424-.225-.896-.252-1.545-.252h-2.961v5.367h1.288v-1.96h1.37c.468 0 .753.046.941.238.238.25.207.728.207 1.051v.671h1.287v-1.064c-.004-.473-.03-.717-.213-.979-.108-.155-.343-.347-.627-.451zm-.773-.667c-.172.102-.385.111-.635.111h-1.559v-1.206h1.58c.226 0 .456.005.612.097.166.087.265.254.265.483 0 .229-.099.416-.263.515zM45.684 32.708c-.295-.292-.773-.412-1.469-.428l-.689-.02c-.219 0-.363-.014-.5-.061-.161-.061-.28-.197-.28-.4 0-.17.052-.299.194-.387.128-.087.279-.097.514-.097h2.352v-1.142h-2.57c-1.346 0-1.834.818-1.834 1.598 0 1.697 1.503 1.621 2.701 1.66.225 0 .359.037.457.119.09.076.156.198.156.355 0 .146-.062.268-.15.35-.108.102-.281.133-.523.133h-2.488v1.151h2.498c1.293 0 2.016-.539 2.016-1.694 0-.551-.135-.879-.385-1.137zM16.874 20.937l-1.541 3.641-1.679-3.641h-2.094v5.082l-2.183-5.082h-1.904l-2.297 5.367h1.393l.498-1.197h2.67l.493 1.197h2.61v-4.207l1.863 4.206 1.129.001 1.86-4.203.005 4.203h1.315v-5.367h-2.138zm-9.35 3.052l.872-2.139.877 2.139h-1.749zM24.25 22.055v-1.118h-4.284v5.368h4.284v-1.11h-3.002v-1.073h2.931v-1.099h-2.931v-.968zM50.924 32.708c-.293-.292-.772-.412-1.468-.428l-.69-.02c-.217 0-.362-.014-.5-.061-.159-.061-.279-.197-.279-.4 0-.17.052-.299.193-.387.129-.087.281-.097.515-.097h2.353v-1.142h-2.572c-1.344 0-1.834.818-1.834 1.598 0 1.697 1.504 1.621 2.703 1.66.224 0 .357.037.457.119.088.076.155.198.155.355 0 .146-.063.268-.149.35-.109.102-.282.133-.524.133h-2.487v1.151h2.498c1.293 0 2.014-.539 2.014-1.694 0-.551-.133-.879-.385-1.137z"/></svg>