<svg xmlns="http://www.w3.org/2000/svg" viewBox="0 0 56.48 56.48" enable-background="new 0 0 56.48 56.48"><path d="M27.752 25.567c-.781 0-1.486.391-2.094 1.161l-.021.028v3.94l.016.024c.492.76 1.292 1.215 2.144 1.215 1.315 0 1.982-1.108 1.982-3.295 0-1.953-.739-3.072-2.027-3.073zM55.026 9.939h-53.572c-.804 0-1.454.651-1.454 1.454v33.694c0 .803.65 1.455 1.454 1.455h53.572c.804 0 1.454-.651 1.454-1.454v-33.695c0-.803-.65-1.454-1.454-1.454zm-46.534 21.248c.658 0 1.296-.298 1.848-.86l.035-.033.883 1.068-.024.025c-.735.869-1.617 1.293-2.7 1.293-1.088 0-2.082-.364-2.798-1.027-.778-.714-1.189-1.725-1.189-2.918s.411-2.202 1.189-2.916c.716-.66 1.711-1.026 2.798-1.026 1.084 0 1.966.422 2.7 1.291l.024.029-.883 1.068-.035-.034c-.552-.564-1.19-.863-1.848-.863-1.374 0-2.371 1.032-2.371 2.451 0 1.423.997 2.452 2.371 2.452zm5.219 1.347h-1.561v-7.618h1.561v7.618zm5.83-.243l-.016.011c-.258.155-.682.364-1.385.35-1.036-.019-1.73-.821-1.73-1.992v-4.3h-1.319v-1.435h1.319v-1.552l1.53-.819v2.371h1.589v1.435h-1.589v4.043c0 .591.228.857.732.857.348 0 .735-.127 1.152-.381l.092-.056-.375 1.468zm3.137.243h-1.562v-7.618h1.562v7.618zm-.79-8.865l-.02-.021c-1.227-1.264-2.824-1.932-4.469-1.932-1.644 0-3.242.668-4.466 1.932l-.02.021h-1.799l.073-.104c1.426-2.023 3.799-3.23 6.211-3.23 2.414 0 4.787 1.207 6.215 3.23l.072.104h-1.797zm5.992 9.029c-.821 0-1.479-.317-2.07-1.002l-.173-.202v1.041h-.889v-10.009l.889-.508v4.049l.173-.188c.656-.724 1.382-1.077 2.217-1.077 1.671 0 2.629 1.393 2.629 3.821 0 2.476-1.089 4.075-2.776 4.075zm9.467-.162h-.891v-1.104l-.173.19c-.656.723-1.408 1.077-2.304 1.077-.702 0-2.336-.233-2.336-2.387 0-1.762 1.455-2.387 2.816-2.387.684 0 1.361.157 1.85.432l.146.081v-1.086c0-1.205-.588-1.815-1.751-1.815-.716 0-1.364.181-2.028.555l-.322-.719c.694-.366 1.55-.57 2.424-.57 1.728 0 2.568.79 2.568 2.416h.001v5.317zm7.495-.002h-.893v-4.443c0-1.723-.599-2.524-1.896-2.524-1.24 0-1.981.943-1.981 2.524v4.443h-.892v-7.57h.892v1.174l.181-.271c.459-.686 1.179-1.065 2.021-1.065 1.678 0 2.568 1.072 2.568 3.098v4.634zm6.136 0l-1.973-4.177-1.437 2.01v2.167h-.892v-10.008l.892-.508v7.267l.487-.757 2.463-3.563h.974c-.207.278-1.925 2.642-1.925 2.642l2.367 4.928-.956-.001zM36.404 29.07c-.568-.324-1.15-.455-2.006-.455-1.178 0-1.883.606-1.883 1.622 0 1.131.586 1.755 1.65 1.755.907 0 1.713-.429 2.271-1.208l.017-.027v-1.66l-.049-.027z"/></svg>