<svg xmlns="http://www.w3.org/2000/svg" viewBox="0 0 56.48 56.48" enable-background="new 0 0 56.48 56.48"><path d="M9.276 34.346h-1.177c-.149 0-.271.135-.271.301v2.378c0 .166.122.301.271.301h1.177c.149 0 .27-.135.27-.301v-2.378c0-.165-.12-.301-.27-.301zM21.2 14.875c-.258.034-.387.153-.387.354 0 .068.021.119.065.156.043.036.105.055.184.055.134 0 .263-.04.388-.121.124-.081.198-.174.22-.278l.063-.299c-.083.052-.262.096-.533.133zM47.292 11.986c-.709.411-1.188 1.175-1.188 2.054 0 .878.479 1.642 1.188 2.054.71-.411 1.187-1.176 1.187-2.054 0-.879-.477-1.644-1.187-2.054zM33.4 34.344h-1.176c-.149 0-.271.136-.271.302v2.378c0 .166.121.301.271.301h1.176c.148 0 .271-.135.271-.301v-2.378c.001-.164-.12-.302-.271-.302zM21.195 34.344h-1.176c-.149 0-.271.136-.271.302v2.378c0 .166.121.301.271.301h1.176c.149 0 .271-.135.271-.301v-2.378c0-.167-.121-.302-.271-.302zM35.922 34.344h-1.176c-.15 0-.271.136-.271.302v2.378c0 .166.121.301.271.301h1.176c.149 0 .271-.135.271-.301v-2.378c-.001-.164-.122-.302-.271-.302zM30.879 34.344h-1.176c-.148 0-.271.136-.271.302v2.378c0 .166.121.301.271.301h1.176c.15 0 .271-.135.271-.301v-2.378c-.001-.164-.121-.302-.271-.302zM6.754 34.346h-1.175c-.15 0-.271.135-.271.301v2.378c0 .166.12.301.271.301h1.176c.149 0 .269-.135.269-.301v-2.378c0-.165-.12-.301-.27-.301zM25.733 14.179c-.059-.079-.149-.119-.271-.119-.19 0-.346.09-.467.27-.121.18-.182.383-.182.611 0 .131.034.236.102.314s.158.119.273.119c.187 0 .339-.087.457-.261.118-.174.178-.367.178-.579 0-.157-.03-.274-.09-.355zM26.237 34.344h-1.176c-.149 0-.271.136-.271.302v2.378c0 .166.121.301.271.301h1.176c.15 0 .271-.135.271-.301v-2.378c0-.164-.121-.302-.271-.302zM38.442 34.344h-1.177c-.148 0-.271.136-.271.302v2.378c0 .166.121.301.271.301h1.177c.149 0 .271-.135.271-.301v-2.378c0-.164-.119-.302-.271-.302zM6.76 26.531v.283l2.798-.002v-.281zM51.261 28.846l-.063.011-.019-.01-.002-.006-.018.015-.018.034-.008.027-.004.026.017.017.052-.021h.007l.021-.012.015-.02.011-.009.016-.013.016-.025-.023-.014zM11.577 24.953v.331h2.711v-.331zM6.76 24.953v.331h2.798v-.331zM14.288 26.812h.335v1.297h-.335zM11.577 26.531v.281h2.711v-.281zM13.951 41.669l-.122-.438h-.011l-.117.434-.234.693h.722l-.238-.689zM6.512 26.812h.247v1.297h-.247zM23.717 34.344h-1.176c-.15 0-.271.136-.271.302v2.378c0 .166.12.301.271.301h1.176c.149 0 .271-.135.271-.301v-2.378c-.001-.164-.122-.302-.271-.302zM6.512 23.706h.247v1.247h-.247zM14.317 34.344h-1.176c-.15 0-.271.136-.271.302v2.378c0 .166.12.301.271.301h1.176c.149 0 .271-.135.271-.301v-2.378c0-.164-.121-.302-.271-.302zM6.512 25.284h.247v1.246h-.247zM18.675 34.344h-1.177c-.149 0-.271.136-.271.302v2.378c0 .166.121.301.271.301h1.177c.149 0 .271-.135.271-.301v-2.378c-.001-.164-.122-.302-.271-.302zM9.049 41.18l-.307.027v.871h.316c.331 0 .541-.181.541-.455 0-.306-.224-.443-.55-.443zM12.848 14.179c-.06-.079-.15-.119-.271-.119-.19 0-.347.09-.468.27-.12.18-.181.383-.181.611 0 .131.033.236.101.314s.158.119.273.119c.187 0 .339-.087.458-.261.118-.174.177-.367.177-.579 0-.157-.029-.274-.089-.355zM21.807 41.18l-.307.027v.871h.316c.331 0 .541-.181.541-.455.001-.306-.223-.443-.55-.443zM14.288 25.284h.335v1.246h-.335zM11.66 42.205h-.257v.914l.26.016c.32 0 .615-.119.615-.467 0-.325-.281-.463-.618-.463zM11.678 41.176l-.274.021v.775h.281c.323.002.515-.173.515-.404 0-.277-.21-.392-.522-.392zM10.479 14.125c-.06-.057-.146-.084-.257-.084-.257 0-.447.151-.572.454h.908l.01-.12c0-.112-.029-.196-.089-.25zM11.795 34.346h-1.175c-.149 0-.271.135-.271.301v2.378c0 .166.122.301.271.301h1.175c.15 0 .271-.135.271-.301v-2.378c0-.165-.121-.301-.271-.301zM46.142 25.486l-.004-.028.003-.04-.005-.013-.019.012-.015.013.015.046-.004.016-.021.003-.006.003.002.02.008.021.004.052.017-.004.017-.006.015-.051-.007-.044zM43.45 24.453h.004v.009h-.004zM41.323 25.448h.002l.002-.003zM45.242 24.151h-.003l-.002.002h.011zM43.203 24.482l.002.002v-.005zM43.767 24.7l-.004.002.009-.002h-.005zM42.799 26.505l-.029-.012-.014-.007-.021-.013-.055-.039-.004-.002-.01-.004h-.021l-.004.002-.018-.002-.006-.005-.122-.017-.04.013-.033.015-.018.01v.005l-.004.008v.012l.025-.007.021-.01.021-.01.035-.011.014.002-.012.006.046.01.035.01.038.006.013.01.008.018.009.011.009.011.006.014.131-.008.016-.006-.016-.01zm-.123.007l-.018-.003.014-.005.017.003-.013.005zM42.889 25.841l.004.006.006-.002-.01-.004zM43.018 26.562l-.028-.016-.013-.007-.071-.012-.034-.002-.023.002v.014l.009.013.005.02-.041.009-.031.005.01.016.019.002.029-.004.043.011.012.014.013-.018.022-.013.018-.003.051.001.01.004.005-.003.007-.01-.012-.023zM43.984 24.471l.004.006.005-.002-.009-.004zM43.887 24.385v.005l.015-.003-.015-.002zM43.822 24.338l.001.003.006-.003zM44.32 27.614l-.039-.01-.076-.045-.06-.043-.051-.013-.039-.002-.02-.005-.02-.004-.041-.009-.01.002-.021-.022-.006-.014-.01-.014-.002-.005-.009.006-.043-.021h-.005l-.005-.002-.045-.013-.039.026-.004-.012-.011-.035-.026-.013-.015-.011v-.037l-.01-.029-.018-.015-.02-.061-.021-.036-.03-.024-.037-.027-.022-.007-.085-.008-.068-.026-.027-.019-.004-.012-.012-.022-.068-.038-.023-.024-.008-.027-.013-.007-.008-.005-.018-.006-.014.001-.004.002-.004-.013.006-.008.018-.008-.039-.004-.056.003-.005.006-.012.013-.052-.012-.044-.004-.047.005v-.014l-.045-.03-.014-.012-.014-.015-.007.019-.015.021-.03.014-.013.001-.002-.008-.006-.011.01-.009.023-.023-.035-.01-.014.014-.007.009-.021.011-.033.01-.021.008-.016.004-.048.063-.002.004-.021.018-.018.012-.012.018-.021-.014-.067-.036-.002.001v.019l-.015.002v-.001l-.038.017-.057.009h-.019l-.006-.012-.011-.011-.015-.013-.004-.007-.011-.013-.012-.021v-.021l.007-.022.005-.012.007-.024.008-.043.01-.027.004-.013-.01-.015-.022-.017-.084-.008-.062.003-.012.004-.017.001-.015-.002.009-.012.017-.033.012-.025v-.005l.011-.013.014-.019.006-.021.007-.021.004-.011.004-.012.009-.015.004.002.015-.002v-.02l.004-.021-.035-.008-.069.012-.041.022-.007.017-.014.029-.065.046-.078.02-.024-.005-.029-.012-.028-.04-.011-.021-.01-.027-.008-.03-.003-.02.044-.12.014-.042.082-.097.121-.046.031.001.026.006.007.005.043-.005.018-.005.002.012h.015l-.001-.015-.002-.016.013-.014.13-.012.012.013h.033l.038.001.015.018.002.039-.008.026.016.051.006.007.01.014.012.021.008.011.014.003.009-.001.009-.013.006-.015.014-.078-.002-.035-.006-.034c-.016-.06.013-.115.08-.15l.037-.031.035-.022.018-.006.059-.034.02-.02.015-.015.017-.002-.015.01-.002.004.017-.005.014-.039-.008-.038.002-.019.008-.024.01-.004-.007.021-.005.017.012-.006.009-.02.005-.002.02-.012.013-.03v-.019l.005.003.028-.01.03-.037.035-.025.053-.025.014-.009.036-.006.012-.004.015-.006.012-.023-.006.003-.016-.001.004-.017.006-.013.08-.058.059-.027.025-.009.012-.011.029-.014.03-.01.017-.002-.032.023-.037.035.005.021h.025l.011-.006.011-.004.049-.033.01-.001.096-.036.009-.009.019-.011.037-.026-.008-.006-.002-.015v-.017l-.039.029-.031.028-.012.001-.053-.005.027-.002.012.004.011-.006.015-.014-.015-.006h-.001l-.008.001-.008-.004.011.001-.035-.012-.004-.006-.005.008-.008.003v.015l-.002.01-.016-.033.021-.028.018-.018-.014.004.005-.011-.016-.043-.137.053-.011-.002.075-.042.023-.016.028-.024.127-.015.115-.014.015-.01.026-.018.065-.029.019-.002-.024.025-.062.074-.01.007-.01.008-.009.005-.021.017.011-.001-.011.012.045.026.115.005-.002.02.004-.004.002-.01.006.001.012.018.036-.055-.006.006-.005.005-.004-.008.004-.004.011-.006-.002-.008-.019.011-.017.012.008-.013.005-.015.01-.002.018-.01-.009-.004-.001-.016-.004-.018-.008-.005.004-.007-.012.004-.007.004-.009-.006-.007.004-.017.005-.014-.004.012-.008-.01-.012-.018-.002.018-.017.021-.012.007-.013.002-.008.009-.009-.012-.006-.008.005-.01.004-.016.001.023-.016.03-.042-.009-.042-.016-.029-.025-.018-.014-.003-.038-.007-.003-.002-.006-.029-.004-.014.006-.032.004-.015-.002-.018-.012-.021-.006-.031-.009-.036v-.021l-.017.021-.004.003-.039.029-.036.032-.026.013-.031.007-.029-.031.021-.051.002-.009.004-.004.004-.002-.019-.005-.026-.002-.007-.01v-.012l-.041-.027-.017-.007v.01l-.001.007-.082.003-.043.011-.015.024-.033.04-.004.009.011.008-.003.018-.004.007-.028.021-.026.021-.021.02.006.003.032.027-.032.063-.11.061-.033.008.004.021-.004.022-.004.013-.006.015-.006.02-.016.03-.014.016-.002.006-.009-.006-.016.008-.025-.002-.009-.014-.012-.013-.004-.015.013-.005.03-.008-.018-.01-.014-.006.007-.014.005-.014.004-.012.018-.034h-.045l-.051-.005-.029-.01-.023-.01-.031-.024-.029-.005-.036.003-.022.008.01-.046-.02-.02-.018-.001.052-.067.034-.026.048-.03.019-.012.02-.014.021-.011.005-.003.006-.006.028-.002.003-.002.012-.011.024-.019.017-.011.015-.007.032-.012.103-.06.054-.037-.027.032-.03.038-.024.015v.017l.017.006.034-.004.027-.013.018-.012.031-.002h.059l.013-.017-.013-.004-.012-.009-.045-.029-.008-.016.008-.018.008.015.021.003.008-.011.01-.018h.015l.013-.01.023-.011.023-.01.018-.016.005-.02.03-.032.021-.021-.003-.012.001-.014.036-.003h.029l.01.011-.018.02-.006.011-.01.014.008-.002.01-.007.009-.018.003-.004.049-.037h-.008l-.03.006.015-.008.019-.014.006-.004.009.005.004.008.004.005.004-.001.016.01.013.007.006-.006.003.006-.009.005-.001-.003-.012.001-.012-.004-.016-.003-.004.014.004.012.014.001.02.002-.021.011-.063.047.076-.027.008-.013.007.002.01.004.008-.003.01.002-.018.001.01.004.021-.009-.013-.007-.014-.008.006-.002h.012l.004-.001.01.005.01.01-.004.021-.011.011-.016.009-.034.02-.03.027-.004.014-.028.008-.047.005-.047.011-.031.037h.055l.039-.01.031-.002.01.004.006.004.007.009.009.02.014.021.022.004.028.003.023.008.041.006.027.004.009.007.005-.003.002-.002h.002l.016-.009-.02-.001-.005.003-.006-.012-.013-.021-.012-.013-.012-.007-.013-.011h.013l.014.005.012.005.017.001.003-.001.012.009.015.011.022.002-.004-.01v-.004l.006-.011.008-.009.018-.008v-.019l-.002-.021-.018-.017-.019-.025.005-.009.002-.015v-.003l.014-.002.033.024.019.019.01.002.032-.016.023-.012.018-.006.023-.021.02-.013.013-.011-.017-.009-.021-.005-.003-.002-.004-.006-.021-.011-.022-.007-.017-.001-.021-.011-.018-.01.031-.018.012-.011v-.005l-.005.001-.019-.002.019-.004h.005l-.001-.019-.014.007-.016-.001.022-.013-.025-.013-.026-.001-.004-.003v-.001l-.012.005v-.005l.011-.001-.003-.004-.009-.006-.024-.007-.029.01-.002-.002.002-.008-.004-.005-.006-.003-.004-.003-.004.002.001-.005-.002-.001-.011-.008-.023-.002.006-.004.013-.008-.062-.018-.05.011-.011.002-.072.009-.033.005.014-.007-.014-.003c-.035-.008-.138.035-.181.079l-.015.01-.021.029.031.002.029.001-.031.003-.023.025.021.004h.007l.032.002.013.002-.021.031-.012.011-.025.019-.023.011-.004-.003-.014.014.007.001-.009.007v-.006l-.008.009-.015.012-.021.003.013-.029-.011-.035-.009-.002v.006l-.016.018.013-.024-.003-.001-.009-.009-.003-.012-.006.004-.004-.004.004-.006.006.004-.002-.007v-.031l-.01-.026.013-.012.026-.017.033-.011.105-.06h-.027l-.043.003-.063.021-.007.002-.021.01-.021.018-.008.011-.037.041-.017.012-.013.006-.035.028-.016.015-.012.018-.013.014-.024-.002-.025.002-.02.016-.024.012-.009.019.012.007-.008.004-.021.012-.072.021-.063.004-.013-.003-.012-.007v-.006l-.016.004-.007-.004-.009-.012-.004.003-.014.004h-.016l.014-.009.02-.005.014-.001.005-.003.011.008h.07500000000000001l.019-.006.02-.014.002-.015.006-.009.01.004.002.006.037-.031-.051-.017.002-.018.01-.014.051-.059.029-.019-.033-.005-.037.019.006.005-.01.001-.061.021-.02.03-.012.012.002-.018-.006-.016-.033.003-.035.004-.039.006h-.012l-.002-.013-.018-.01-.059-.01-.08.012-.063.011-.021.018-.014.013-.031.018-.03.017-.015.009-.033.021-.021.016.01.001.022.014h.032l.046-.016.034-.014.08-.039-.012.009-.027.016v.013l-.008.013-.01.018.057-.004.076-.017.012.002-.062.014-.105.035.048.015.022.003-.008.014h.047l.072-.02.052-.015.023-.006-.021.008-.051.042-.02.005-.021-.007h.014l.008-.008-.021.002-.114.025-.007.003-.021.007.013-.014.017-.024-.041-.001-.056.002-.032-.003-.014-.004-.073.014-.026.009-.006-.011.006.004.006.003.002-.004.005-.008.009-.01-.037.014-.041.023v-.019l-.005-.021-.013.004-.043.028-.008-.007-.004-.002-.021.009-.109.042h.008l.006.002-.022.003-.063.009-.012.005-.018.011-.068.004-.025-.001h-.057l-.039.003-.074.01-.078.009h-.043l-.027.001-.032.003-.011-.001-.014-.003-.034.011-.065.024-.068.023-.045.018-.104.05-.075.032-.061.024-.024.011.002.012.017.021.004.011.007.005-.032.029-.031-.001.017-.009-.046.01-.107.042-.029.021-.004.015.041.009.043-.005.024-.008.024-.008v.005l-.033.031-.032.006-.021.005-.052.022-.062.028-.021.011-.052.028-.018.008-.021.033-.009.01-.013.021.013.012.034-.012.014.001-.014.013-.021.016-.019.014-.002.006.017-.004.009-.003.018-.005.041-.004.021-.003.021-.006-.012.019-.048.031-.032.019-.053.023-.066.038-.012.002-.088.034-.062.026-.059.035.016-.003.027-.011.029-.013.025-.008.021-.008.017-.007.008-.003.031-.002h.017l.015-.003.016-.005-.002-.009-.01-.004.012-.007.027-.009.02-.008.053-.027.012-.006.004-.004.017-.005.015-.003.018-.011.033-.016.063-.031.016-.008.025-.01.028-.017.033-.017.019-.021.001-.004.019-.003.009-.008.019-.01.013-.007.01-.005.02-.009.029-.014-.015.011-.011.011-.012.012-.02.012.066-.02.035-.017.007-.002.054-.013.034-.013.019-.02-.007.005-.005.004-.004-.007.014-.008.012-.006.014-.007.002.013-.014.01.017-.002.032-.006.006.006-.014.01h.01l.046-.015.056-.005.031-.001h.006l.008.012.017.018.009.009-.014.045-.004.008.009.007-.005.008-.004.005.02-.005.012-.009-.014.016-.004.018.011-.002-.011.006-.012.021.019.011.024-.011.017-.004.013-.005.008-.012-.004.012.004.015.004.007h-.004l-.01.004-.011.006-.017.016-.002.008.004.009v-.003l.008.003-.004.005-.004-.002.003.006.005.007-.005.012.009.007-.004.014-.005.02-.003.006.012.015.003.008-.037.005-.01.001-.004.004-.007.013.008.004.013.008.005.01.008.006.01.005.005.005.006.005.003.004.02.004-.006.006-.033.04-.051.088-.02.023-.034.04-.048.07-.028.046-.017.031-.004.024-.002.028.002.018.002.011.002.018.006.019v.008l-.002.029.009.039.021.014.02.006.023.005v.005l.005.005.024.033.006.071.004.022.013.029.021.02.004.025-.03.016-.011.003.047.037.043.032-.008.019-.008.02.021.017.048.043.007.008.017-.007.008-.02-.004-.024-.006-.006-.002.005-.007-.004-.013-.002-.004-.002.004-.014-.002-.012-.008-.028.006-.006-.008-.002-.004-.008-.027-.048.002-.031.004-.008-.011.003-.005-.002-.006-.012-.004-.008.006.003.006-.005-.012-.01-.017-.008-.004-.039.022-.03.015.001.022.02v.03l-.002.036.004.017v-.01l.008.005.017.02.007.009.012.005.006.013.01.014.011.009.011.009.004.014-.009.017.026.02.013.012.021.021.022.026.021.028.016.059-.009.032.005.036.029.022.023.017.055.017.023.014.086.034.014.005.049.02.022.005.063-.012.025-.008.066.035.078.051.035.008.074.015.017.003.013.024.046.08.019.03.021-.001h.006l.018.015.02.023.008.016.019.01.011.001.012-.005.016.003.011.021.004.011.005-.007.021.01.025.003.012-.028.008-.021.016-.014.01-.009.004.004.009.005v.004l.007.038.016.018.002.103v.013l-.01.042-.006.006-.018.013-.02.018-.008.013-.006.014-.021.021-.023.026-.008.021-.01.014-.01.017-.008.01v.042l.014.014.018.019.004.006.007-.006.003-.001-.01.018-.027.019-.018.04.011.027.005.019.018.024.037.037.027.039.027.052.027.05.01.02.011.016.011.017.006.011.041.066.031.055.127.08.018.011.019.014.021.015.018.019.034.045.017.168-.006.012.004.014.008.218.004.026.004.04.008.049.011.034.006.009.005.021.002.031-.009.108-.004.036-.009.007-.004.011.011.021.008.016.015.03.011.036.015.076.004.01-.002.015.006.031.033.021v-.017l-.002-.006-.004-.009-.002-.006-.002-.008.002-.012.006-.003.002-.005.006.012.004.007.004.005.002.021.01.042.007.028-.003.006-.016.004v-.012l-.018-.022-.004.005-.002.02-.012.008v.011l.025.021-.005.01-.004.016-.006.021-.003.014.02.005.014.001.018.004.002.005.002.009-.015.03-.007.009.004.008.014.026.004.003.02.038.011.023.01.016.011.002.012.021.002.016.014.014.023.017.023.012.018.011.002.006-.027-.006.007.012.021.013.014.011.002.006.021.018.018.009.012-.006-.009-.006.013.004.006.014.01.009.016.014.018.002.004.003.012.009.02.009.019.007.009.002.009.004.007.002.022.008.03.01.011.005-.007-.011.021-.004.026-.002.008-.006.009-.006.01-.007-.01-.006-.115-.071-.024-.035-.013-.016-.045-.066.013-.013.015-.032.021-.043.016-.019-.005-.015-.029-.027-.057-.036.034-.046.013-.012.001-.006-.001-.026-.01-.022.017-.013.021-.012.002-.025-.027-.01h-.023l-.012-.026-.008-.031.025.011.061.008.008-.026-.003-.021-.007-.029.002-.006.005-.002.021-.003.131-.034.004-.013-.004-.062-.016-.029-.039-.041-.021-.021.009-.001.026.012.019.006.061.018.068-.032.008-.015.022-.045.021-.031.018-.023-.008.002-.021.013.01-.019.013-.027.01-.012.005.013.004.016.011-.016-.002-.001.004-.006v.004l.001-.001.033-.067.018-.081-.003-.074.048-.046.016-.006.018-.008.02-.001.018-.001-.006-.005-.002-.006.1-.021.033-.013.02-.022.014-.021.037-.09.004-.039.006-.034.016-.093-.004-.068.018-.064.027-.041.036-.058.063-.087v-.115l-.017-.051zm-.862-2.328l.013.004-.013.002v-.006zm.334-.268l-.017.009-.009-.002.026-.007zm-.258-.406l-.005-.007h.012l-.007.007zm.065.031l-.006-.004.01-.006.006.004-.01.006zm.263-.281l-.012.006-.008-.001.02-.005zm-.14.135l.014.006-.016.016-.021-.003.023-.019zm-.08-.062l.002-.002.007.001-.009.001zm-.017-.154v-.004l.01.01.024.004.011.002-.037.01-.015-.007.007-.015zm-.102.125l.009.002-.02.001.011-.003zm-.084.02l-.004-.005.017-.001-.013.006zm.007-.109l.021-.015.028-.013-.009.008-.025.027-.011.018-.005-.012.001-.013zm-.006.019v.002l-.002.014-.01.005.012-.021zm-.094.086l.004-.003.004.002-.008.001zm-.097.148l.017.014-.004.01-.013-.003-.007-.002-.004-.011.011-.008zm-.11.049l-.002.006-.018-.006h.02zm-.148-.057l.005-.013v-.003l.021-.014.021-.013.021-.013h-.01l-.004-.006.014-.01.016-.005.023-.003-.014.014-.002.016h.008l-.067.032-.021.018-.014.011.003-.011zm-.014.023l.008.001-.012.003.004-.004zm-.029-.026h.007l-.007.007-.01-.001.01-.006zm-.259.923l-.041.032-.03.063-.022.035-.041.014.065-.119.009-.021.006-.008.021-.013.021-.006.056-.015-.044.038zm.115.119l-.086.024v-.014l.014.003.003.001.036-.024.056-.017.017-.003.01-.009.025-.003.008.001-.083.041zm-.078.002l.014-.005.009.002-.013.007-.01-.004zm.163.162v-.007l.01.004-.01.003zm.005-.242l.055-.014.036-.006.011-.004.012.003-.068.029-.047.005.001-.013zm-.065-.094l-.021.004h-.023l.044-.004zm.007.014l-.01.004-.004-.004.007-.005.007.005zm-.008.007l.028-.005.033.002-.027.026h-.02l-.016.027-.02.027-.03.031-.002-.021-.009-.018-.021.011-.013.007.02-.023.023-.028.002-.007-.01-.018-.012-.012.025-.005.049.006zm-.212-.813l-.01.004-.01-.004h.02zm-.019.745l.028-.013.007-.005-.004.008-.003.008.033-.019h-.009l-.012-.003v-.002l.035-.01.061-.013.005.013.028.016.004.003-.004.011-.002.011-.008.024-.004.008-.005-.008-.021-.001-.033.011-.039-.004-.012-.005.008-.011-.002-.012-.012.01v.002l-.023.008-.032.015-.03.011-.004-.004-.011-.004-.022.003.083-.048zm-.162-.098l-.016.011.014-.019.017-.01-.015.018zm-.006-.084l.012-.007-.012.002.002-.017.037-.012-.016.078-.004-.002-.005-.01h-.023l-.004-.016.013-.016zm-.162.937l-.004-.004.004-.004.007.003-.007.005zm.02-1.26l-.052.026-.03.015-.1.022v-.005l.019-.002.024-.011.031-.016.021-.021.015-.012.02.009.07-.016-.018.011zm-.153-.132l-.019.003.019-.001.016.003v.004l-.031-.002h-.029l.041-.014.078-.024.034-.009-.028.015-.004.011.039-.006.025-.007-.018.013-.037.016-.041.017-.021.007-.022.012-.023.007.047-.022.01-.003-.059.021-.025.009-.002-.004.008-.006.012-.007.019-.01.019-.009.02-.004-.028-.01zm-.067-.112l.007.001-.01.002.003-.003zm-.047.017l.014-.001-.016.007.002-.006zm-.097.03l-.007.007-.021.003.028-.01zm-1.247.632l-.006-.001.002-.005.006.002-.002.004zm.112-.08l.007-.003h.01l-.017.003zm.037-.006h-.007l.018-.005-.011.005zm.052-.179l.002-.005h.008l-.01.005zm.1.106l-.023.015.025-.02-.002.005zm.012-.007l.001-.004.008.001-.009.003zm0-.185l.001-.004.008.002-.009.002zm.044.174l-.007-.003.007-.003.009.003-.009.003zm.313.157v-.01l.006-.012.002.011-.008.011zm.005-.051l-.004-.001.012-.008-.008.009zm.006-.048l-.006-.002-.004-.006.002-.006.008-.001.002.009-.002.006zm0 .151l.001-.002.001.003-.002-.001zm.028-.18l-.002.004-.01-.002.002-.005.01.003zm-.014-.016l.004.007-.005-.003.001-.004zm.01.104l-.008-.006.004-.007.004.006v.007zm.012-.039l-.01.006-.011.003.005-.005.002-.004.004-.005.012.004-.002.001zm.008-.02l-.03.008.009-.004.012-.004.011-.007-.002.007zm.006.044l.002-.003.007.002-.009.001zm.008.286h-.005l.016-.008.012.003-.023.005zm.035-.021l-.009-.001-.006-.002-.014-.016-.007-.025.007.006.018.01.011.009v.005l.005.009-.005.005zm.87 1.401l-.01-.007.003-.009-.011-.011.012-.002.019.018-.013.011zm.545.079l-.012-.019.004-.03.01-.01.007.012.007.022-.016.025zm.112 1.065l-.008-.009-.01-.01.021.002.008.019-.011-.002zm.142 1.247v-.013l.008.012-.008.001zm.018-.026l.002.009-.01.002.008-.011zm.005.047l-.008-.002.008-.006.009.004-.009.004zm.158.359l.012.002.001.002-.013-.004zm.092-.018l.029.021.004.004-.01.011-.005-.007-.013-.004-.01-.008-.004-.031.009.014zm-.048 0l.002-.007.008.004-.01.003zm.069-.438l.011.006-.007.004-.011-.006.007-.004zm.589-.804l-.005-.006v-.004l.007.004-.002.006zM43.74 24.307l.003.003.009-.004-.012.001zM43.519 25.356l.005.001h.005zM43.888 24.356l-.006-.002v-.006l-.004.011.008.007.016-.008-.014-.002zM41.332 25.437l-.005.007.009-.006-.004-.001zM46.762 25.768l-.035-.01-.03-.006-.005-.002-.012-.003-.006-.002-.004.012.021.014.025.009h.033l.016-.012h-.003zM46.765 25.768l.005-.004zM47.076 25.754l-.03.007-.02.005-.014.005.011.025.03-.002.021-.011.002-.007.009-.015.006-.015-.015.008zM55.026 9.939h-53.572c-.804 0-1.454.651-1.454 1.454v33.694c0 .803.65 1.455 1.454 1.455h53.572c.804 0 1.454-.651 1.454-1.454v-33.695c0-.803-.65-1.454-1.454-1.454zm-8.923 1.727c.434 0 .838.118 1.188.32.351-.202.755-.32 1.187-.32 1.312 0 2.375 1.062 2.375 2.374 0 1.311-1.063 2.374-2.375 2.374-.432 0-.836-.118-1.187-.32-.349.202-.753.32-1.188.32-1.311 0-2.373-1.063-2.373-2.374 0-1.312 1.063-2.374 2.373-2.374zm-20.738 1.906c.277 0 .472.117.583.347h.008l.22-1.045h.569l-.62 2.916h-.556l.058-.272h-.008c-.181.22-.408.329-.683.329-.217 0-.392-.077-.523-.231-.131-.154-.196-.362-.196-.622 0-.373.11-.703.331-.991.22-.287.493-.431.817-.431zm-2.313.053h.545l-.079.375h.008c.19-.287.41-.431.66-.431l.131.008-.123.578-.156-.008c-.352 0-.565.172-.637.516l-.24 1.125h-.569l.46-2.163zm-1.297.447c-.057-.034-.131-.051-.224-.051-.258 0-.417.103-.477.308h-.551c.134-.504.505-.756 1.11-.756.236 0 .431.043.581.127.152.085.227.203.227.353l-.015.121-.26 1.242-.014.151c0 .079.026.126.077.139l-.018.085h-.604l-.006-.256c-.209.209-.467.313-.776.313-.182 0-.324-.046-.426-.137-.102-.092-.153-.223-.153-.393 0-.208.071-.382.214-.521.142-.14.324-.225.548-.255l.607-.082c.162-.021.244-.099.244-.234 0-.07-.027-.12-.084-.154zm-3.744-.68c.321-.397.733-.595 1.237-.595.328 0 .584.081.771.243.186.162.28.362.28.6l-.009.188h-.608c-.004-.336-.184-.504-.54-.504-.293 0-.53.148-.71.443-.18.296-.27.611-.27.945 0 .211.049.368.145.472.096.103.232.155.407.155.382 0 .635-.184.76-.55h.608c-.24.718-.72 1.077-1.441 1.077-.349 0-.622-.092-.818-.276-.196-.183-.295-.437-.295-.761 0-.562.161-1.041.483-1.437zm-2.948.642l.087-.407h.295l.123-.583h.568l-.123.583h.354l-.087.407h-.354l-.258 1.212-.006.043.037.071.128.022.166-.008-.089.422-.323.02c-.178 0-.309-.026-.394-.08-.086-.054-.128-.133-.128-.237l.018-.153.279-1.313-.293.001zm-.643-1.19h.568l-.112.527h-.569l.113-.527zm.403.781l-.46 2.162h-.569l.46-2.162h.569zm-3.162.379c.221-.288.494-.432.817-.432.278 0 .473.117.583.347h.008l.221-1.045h.569l-.621 2.916h-.556l.058-.272h-.008c-.18.22-.408.329-.682.329-.218 0-.393-.077-.524-.231-.131-.154-.196-.362-.196-.622 0-.374.11-.703.331-.99zm-1.359-.431c.259 0 .464.077.612.229.149.153.223.352.223.598 0 .143-.022.297-.069.464h-1.505l-.006.109c0 .278.127.418.381.418.215 0 .368-.078.46-.234h.585c-.213.46-.591.69-1.135.69-.255 0-.462-.072-.622-.217-.159-.145-.238-.346-.238-.604 0-.388.124-.727.372-1.018.249-.292.564-.436.942-.435zm-2.465.052h.545l-.079.375h.008c.19-.287.41-.431.66-.431l.131.008-.122.579-.157-.008c-.352 0-.564.172-.637.516l-.24 1.125h-.568l.459-2.164zm-2.759-.233c.321-.397.733-.595 1.237-.595.328 0 .584.081.771.243.186.162.279.362.279.6l-.008.188h-.608c-.004-.336-.185-.504-.54-.504-.293 0-.53.148-.71.443-.18.296-.27.611-.27.945 0 .211.048.368.145.472.096.103.232.155.406.155.383 0 .636-.184.76-.55h.608c-.24.718-.721 1.077-1.442 1.077-.348 0-.621-.092-.817-.276-.197-.183-.295-.437-.295-.761 0-.562.161-1.041.484-1.437zm-1.338 3.849h49v.5h-49v-.5zm18.002 17.188v2.814c0 .197-.16.357-.358.357h-1.553c-.198 0-.358-.16-.358-.357v-2.814c0-.197.16-.357.358-.357h1.553c.198 0 .358.16.358.357zm-16.71 2.815v-2.814c0-.197.16-.357.358-.357h1.553c.198 0 .358.159.358.357v2.814c0 .197-.16.357-.358.357h-1.553c-.198 0-.358-.159-.358-.357zm2.624 6.11l-.057-1.051c-.018-.336-.039-.74-.039-1.035h-.008c-.085.276-.181.578-.302.91l-.423 1.162h-.235l-.391-1.141c-.114-.342-.206-.649-.274-.932h-.007c-.007.299-.025.698-.046 1.06l-.064 1.026h-.295l.167-2.396h.395l.409 1.159c.099.295.178.559.242.807h.007c.064-.243.15-.505.256-.807l.427-1.159h.395l.149 2.397h-.306zm-.102-6.11v-2.814c0-.197.159-.357.356-.357h1.555c.197 0 .357.159.357.357v2.814c0 .197-.16.357-.357.357h-1.555c-.197 0-.357-.159-.356-.357zm2.119 6.11c-.039-.066-.092-.273-.156-.571-.071-.331-.202-.455-.483-.466h-.292v1.037h-.309v-2.36c.156-.032.384-.053.594-.053.33 0 .547.063.696.198.117.103.188.267.188.455 0 .313-.202.523-.451.608v.011c.182.064.291.234.352.483.078.333.136.564.182.658h-.321zm.401-6.11v-2.814c0-.197.16-.357.357-.357h1.554c.197 0 .357.159.357.357v2.814c0 .197-.16.357-.357.357h-1.554c-.197 0-.357-.159-.357-.357zm2.325 5.906c-.164.153-.433.224-.825.224-.212 0-.376-.013-.479-.028v-2.354c.134-.032.351-.053.565-.053.308 0 .507.053.653.174.125.092.203.235.203.423 0 .234-.156.437-.405.526v.011c.227.053.494.243.494.598 0 .204-.082.363-.206.479zm2.111.203l-.256-.754h-.85l-.249.754h-.32l.814-2.396h.373l.817 2.396h-.329zm.354-6.111c0 .197-.16.357-.357.357h-1.555c-.196 0-.357-.16-.357-.357v-2.814c0-.197.161-.357.357-.357h1.555c.197 0 .357.159.357.357v2.814zm.038-12.29v3.438h-.615v-.279h-2.893v.279h2.613v1.083h-2.612v.281h-1.743v-.281h-2.612v-1.083h2.6119999999999997v-.279h-2.893v.279h-.527v-4.964h.528v.28h2.893v-.28h-2.613v-1.083h2.613v-.28h1.743v.28h2.612v1.083h-2.613v.28h2.893v1.246h.335v-1.247h-.335v-.279h.615l-.001 1.526zm2.083 18.402h-.313l-.761-1.217c-.167-.267-.327-.541-.444-.799l-.011.002c.018.302.021.59.021.988v1.023h-.291v-2.396h.341l.765 1.212c.174.281.317.53.427.779l.011-.003c-.028-.32-.036-.611-.036-.981v-1.006h.292l-.001 2.398zm1.863-.003l-.786-1.176-.231.263v.913h-.309v-2.396h.309v1.156h.011l.188-.256.732-.9h.384l-.867 1.017.936 1.379h-.367zm.372-6.109c0 .197-.159.357-.356.357h-1.555c-.197 0-.357-.16-.357-.357v-2.814c0-.197.16-.357.357-.357h1.555c.197 0 .356.159.356.357v2.814zm1.573 6.109h-1.351v-2.396h1.298v.26h-.985v.758h.929v.256h-.929v.863h1.038v.259zm1.639.003c-.039-.066-.092-.273-.156-.571-.071-.331-.202-.455-.483-.466h-.292v1.037h-.309v-2.36c.156-.032.384-.053.594-.053.33 0 .547.063.696.198.117.103.188.267.188.455 0 .313-.202.523-.451.608v.011c.181.064.291.234.352.483.078.333.136.564.182.658h-.321zm1.831-6.112c0 .197-.16.357-.358.357h-1.554c-.197 0-.357-.16-.357-.357v-2.814c0-.197.16-.357.357-.357h1.554c.198 0 .358.159.358.357v2.814zm2.521 0c0 .197-.161.357-.357.357h-1.555c-.197 0-.356-.16-.356-.357v-2.814c0-.197.159-.357.356-.357h1.555c.196 0 .357.159.357.357v2.814zm4.642 0c0 .197-.16.357-.355.357h-1.555c-.197 0-.358-.16-.358-.357v-2.814c0-.197.161-.357.358-.357h1.555c.195 0 .355.159.355.357v2.814zm2.521 0c0 .197-.16.357-.357.357h-1.554c-.198 0-.358-.16-.358-.357v-2.814c0-.197.16-.357.358-.357h1.554c.197 0 .357.159.357.357v2.814zm2.522 0c0 .197-.16.357-.357.357h-1.555c-.196 0-.356-.16-.356-.357v-2.814c0-.197.16-.357.356-.357h1.555c.197 0 .357.159.357.357v2.814zm2.52 0c0 .197-.161.357-.356.357h-1.556c-.196 0-.356-.16-.356-.357v-2.814c0-.197.16-.357.356-.357h1.556c.195 0 .356.159.356.357v2.814zm-.272-9.766v-1.329c0-2.235 1.813-4.046 4.047-4.046h6.682c2.234 0 4.046 1.811 4.046 4.046v1.329c0 2.235-1.812 4.046-4.046 4.046h-6.682c-2.235.001-4.045-1.811-4.047-4.046zm12.258 17.437c-.396 0-.774-.079-1.123-.22l-.002.001-.002-.001c-.345.141-.727.22-1.123.22-.397 0-.778-.079-1.125-.221l-.003.001c-.347.141-.727.22-1.122.22-1.647 0-2.983-1.335-2.983-2.982 0-1.646 1.336-2.981 2.983-2.981.394 0 .773.079 1.119.22l.003-.001.005.003c.347-.143.727-.221 1.123-.221s.776.079 1.122.221l.003-.002.004.002c.348-.142.726-.221 1.121-.221 1.647 0 2.982 1.335 2.982 2.981s-1.335 2.982-2.982 2.981zM51.646 25.153l-.01-.008v-.004l-.019-.012.003-.009.018-.003-.006-.004-.006-.004-.015-.014-.153-.063-.062-.024-.344-.146-.093-.027-.141-.04.004.01.021.016.023.014.02.014-.014-.002-.021-.008-.031-.014-.026-.013.007.001h.012l-.004-.005-.021-.005-.02-.005.02.001.02.001-.02-.004-.035-.004-.025.001-.146-.032-.062-.026-.067-.041-.119-.028-.103-.024-.045-.018-.045-.021-.113-.036-.004-.001-.105-.037-.087-.017.013.009-.02-.002-.018.004.018.01.011.004.011.012.014.009-.016-.006-.027-.006-.041-.008-.047-.004-.035-.008-.036-.01-.007-.007-.006-.004-.004.007-.006.026-.089-.056-.026-.019-.006-.007-.105-.044-.008-.001-.02-.008-.037-.013-.025-.004-.006.001-.006.002.01.012.012.011-.096-.019-.039-.009-.004-.005.002-.007-.144-.023-.045-.032-.024-.01-.025.006-.014.004-.018-.002-.004.009-.013.011-.048-.007.016-.002.02-.003.049-.021.029-.013-.037-.034-.004-.001-.005-.01-.014-.004-.015-.005-.076-.021-.075-.006-.011-.004-.014-.027-.007.004-.032-.007-.102-.022-.012.026-.018.005h-.027l-.021.004-.017-.003-.108-.006-.042.004-.048.005-.024.002h-.016l-.007.004-.009.008-.002.002h-.026v.012l.007-.003.016.003.021.009.012.005-.045-.003-.013-.007v.004l-.06.005-.045-.004.018.015.023.024.037.018.025.011.009.006-.009.001-.032-.009-.101-.033-.021.002.005.01-.014.006-.004.009.027.016-.008.003-.039-.034-.031-.033-.018-.008-.016-.002.011.013.022.004v.002l.002.01-.01.014-.016.009-.008.007.025.021.025.035.008.024.012.015.039.008.018.004-.012.031.01.02-.007.017-.017.013-.015.01-.019.002-.022-.01.004-.001.019-.017.012-.02.004-.016-.023-.028-.021-.018-.013-.025-.016-.028-.029-.03-.008-.01-.002-.037-.044-.018-.019-.007.009-.007-.049-.007-.007.013-.006.026-.018.028-.002.027.014.021.022.028.022.01.026.018.009.017-.043-.016-.035.001.004.005-.008-.008-.121-.051-.091-.026-.03-.008.004.017.017.01.058.03-.006.012-.011.007-.005.004-.01-.007-.017-.029-.003.007-.015.005-.026.005-.029.001-.033.004-.021.002-.005-.021-.011-.004-.034.005-.027.007-.039.011-.033.01-.031.021-.008.014-.047-.006-.016-.009.016-.016.021-.005-.018-.014-.057-.021-.029.006.017.028.013.029.012.028h-.02l-.02-.007-.012-.009-.018.006-.023.015-.023.011-.018.012.014.013-.028.013-.042-.016h-.023l.002.021.008.006.015.006.021.008-.057-.005-.027-.011-.01-.008-.011-.017-.004-.02-.028-.03-.018-.011.043.004.172.006.006-.04-.054-.028-.019-.007-.02-.009-.043-.018-.072-.02-.049-.014-.044-.01-.03-.002-.023-.002.019-.006.013-.011-.07-.021-.006-.001-.005-.002-.014.002.006-.004-.006-.002-.026.01-.008.004-.008-.008-.005.004-.002-.005.003-.002-.004-.004-.023-.001-.014.002-.02.008-.012.005-.013-.007-.041.01-.037.01-.009.006h-.004l-.049.006-.02.009-.025.02-.002.013-.002-.003-.01-.002-.011-.005-.026.003-.021.019-.002.004-.044.018.021-.001.02-.005.018-.003.016.001-.006.004-.01.011-.027.029-.025.024-.012.007-.01.017-.035.036-.006.004v.009l-.029.023-.031.014-.016.001-.016.006-.004.005-.012.011-.018.009-.012.008-.016.009-.004.001-.021.007-.016.051.007.038.004.01-.002.036.006.011.021.024.08.001.041-.024.022-.021.004-.001.009.013.01.019.009.028.011.017.02.025.014.022-.006.009-.004.007-.039.011-.033.009.004-.012.005-.001.004.006.005-.008.002-.008-.007-.018-.006-.019v-.035l-.003.005-.007.005-.015.008-.023.008-.026.078.003.021-.003.011.011.002.006.002-.02.007.002.008-.026.021-.032.003-.029.005-.052.033-.079.075-.031.027-.024.025-.028.017-.037.004-.021-.012-.011.008-.012.039-.027-.003-.059.008-.003.031.007.006.008.002.031.016.002.008.004-.005.024.005.006.011.002.008.009.013.008.004.004.005.003.005.006.007.001.013-.012.081-.036.026-.147-.007-.031-.004-.035.007-.02.01-.016.029.006.05-.027.097-.005.006v.032l.005.009.008.006.002.049.019.013.035-.004.043.022.039.02.073-.027h.041l.019-.016.024-.02.025-.024.014-.02.014-.008v-.015l-.006-.037.06-.064.035-.014.034-.047-.006-.017.087-.016.051-.007.03-.02.021-.012.014-.013.056.027.007.018-.002.019-.004.009v.001l.011-.002h.013l.01.014.009.008.011.003.066.047.023.015.023.015.009.008.015.016.024.029.002.026-.004.012-.087.02-.041.012.062.038.012.006.016.011.02-.024v-.022l.016-.011.035-.031.011-.013-.002-.034-.007-.021.023-.012.018.007.011.013.015-.001-.058-.055-.03-.029v-.01l-.025-.001-.039-.021-.02-.029-.033-.039-.021-.042v-.01l.013-.024.026-.001-.002.018.021.016.006.004.006.014.006-.007.007-.015.002.005.005.018.002.013.028.026.017.011.022.012.015.002-.015.002.004.005.021.006.012.005.037.021.027.02-.004.033.012.043.01.013.007.021.016.009.002.037v.013l.009.013.016.003.021.032.02.016.012.003.004.008.008-.004.002-.005.006.013.008.014-.006-.051-.002-.01.02.007.007-.012.009-.008.012-.008.007-.005.008.004.009.002.008.018.008.001-.002-.021-.013-.007-.021-.022-.018-.011-.016-.017-.012-.016-.02-.04.018.01.021.008.008-.001.004-.007.002-.003.006-.006-.002-.019.016.001-.004.001-.006.003.019-.004.021-.004.029.014.047-.006.026-.01.024-.006-.012-.015-.031-.058.004-.018.011-.014.013-.027.019-.033.013-.02.018-.029.016-.023.014-.007.014.008.057.018.015.004-.009.004-.021.021.026.009.011.018.016.016.021-.006.016-.008.016-.004.021-.005.018-.007.029.015.016.01.018.008.019.009.017.01.026.003-.013.005.013.013.041.028.041.035c.019.038-.006.053-.078.053l-.052-.005-.018-.004-.018-.006-.014-.002-.016-.009-.018-.008-.02-.008-.053-.007-.089.033-.045.001-.042.014-.059.02-.047.005-.012.002-.007.003.009.006.008.014.02.014.004.008.004.016.003.016-.002.002-.017.005.021.019.011.007v.013l.014.015-.006.01.017.008.002.002-.011.008.009.003.009.001.008.005.008-.005.037.012.03.01.021-.024.066.023.072-.008.036-.006.021-.003.01.006-.004.014.002.017-.002.016.008.047-.034.097-.036.048-.029.002-.016.015-.005-.021-.1.009-.021.007-.033-.009-.036-.011-.067-.014-.018-.009-.02-.011-.059-.022-.014-.01-.016-.005-.082.019-.01.054-.033.043-.027-.015-.078-.029-.039-.033-.018-.021-.028-.014-.045-.008-.048-.009-.028-.035-.008-.003-.007.006-.022-.005.013-.024.022-.011.007-.004-.005-.002v-.018l-.009-.027-.004-.031.005-.016.004-.004.004-.002-.017-.002-.012-.002-.029-.018-.022.009-.06.003-.01.003-.018-.001-.018-.001-.014.006-.014.007h-.02l-.1.004-.096.035-.008.002-.01.002-.014.004-.02.013-.021.015-.035-.005h-.033l-.06-.021-.021-.005-.019.033-.063.074-.063.058-.011.026-.014.05-.006.04-.008.013-.02.021-.028.026-.056.026-.031.039-.02.026-.041.066-.037.055-.022.042-.021.038-.014.027-.007.033.005.01.018.011.008.027-.002.038-.004.095-.01.041-.035.061-.006.004.006.006.014.014.013.024-.002.011-.003.03.014.039.01.022-.006.009.021.011.003-.011-.002-.017.011.015.012.016.006.008.009.008.007.004.025.032.027.043.012.038.002.01v.006l.004.006.021.016.104.082c.065.058.08.063.129.039.052-.025.13-.026.176-.004l.023-.003.096-.04.016-.007.096-.021.049.009.031.058.013.02.03.008.039-.005.039-.004.02.01.015.015.011.012.008.012-.01.088-.004.02.002.013-.004.035-.021.029.003.027.018.037.029.04.084.127.002.017.004.008.01.034.021.057-.001.036.009.052.016.068-.018.053-.039.07-.021.08.004.116.012.017.049.105.025.044.013.063.007.063.016.075.045.102.031.059.039.082.006.027-.004.025-.012.006.016.03v.018l.014.021.006-.002.007.007.017.01h.037l.03-.009.035-.008.082-.01.028-.002.02-.002.012-.006.021-.009.112-.077.031-.033.055-.082.043-.045.029-.062.004-.063.006-.021.049-.031.05-.034.007-.021v-.08600000000000001l-.007-.012.007.004.004-.006-.005-.011-.008-.017-.009-.02-.006-.014.062-.069.009-.004.012-.017.064-.055.034-.017.013-.009.055-.079.002-.042-.004-.091-.014-.091-.021-.042.004-.056.011-.009-.009-.002-.01-.022-.01-.027-.017-.026.024-.064.031-.078.016-.017.055-.058.138-.15.113-.123.021-.033.018-.037.04-.082.003-.007.013-.031.015-.044.01-.021.005-.012-.004-.048-.029-.009-.069.021-.021.004-.023.004-.025.007-.032.008-.034.007-.068-.023-.021-.018-.014-.003.012-.007-.007-.052-.03-.035-.014-.012-.014-.016-.02-.019-.018-.011-.014-.003-.009-.012.005-.012-.002-.008-.016.003-.012.001-.013-.032-.05-.095-.037-.093-.009-.043-.009-.022-.002-.013-.025-.021-.023-.06-.007-.013-.028-.043-.027-.052-.01-.027-.01-.02-.01-.022-.021-.032-.018-.034-.006-.015-.003-.01.011.024.008.019.047.052.012-.008.02-.008.01.008.004.009.007.005.011.016.018.03.021.032.021.043.021.034.012.008.008.003.002.003.008.019.011.022.006.012.003.023.004.026.008.016.009.018.017.017.018.02.016.015.011.009.013.023.011.024.01.012.021.025.02.027.005.008.009.016-.004.007-.007-.014-.005-.001-.008-.004-.01-.009-.004.007h-.006l-.01-.005.027.046.027.029.004.014.024.077.026.038.022-.001.013-.003.024-.013.034-.016.059-.02.021-.005.025-.014.057-.028.074-.041.026-.032.063-.018.029-.025.02-.014.029-.022.033-.024.012-.032.02-.026.016-.002v-.018l.009-.021.028-.054-.012-.009-.015-.011-.007-.01-.006-.005-.041-.028-.07-.089-.016-.018-.082.078-.008.002-.019.002-.019-.007-.007-.005-.004.007-.021.005-.016-.009-.005-.013-.004-.066-.026.016-.006.021-.01-.014-.004-.022.006.008.005.005-.005-.021-.013-.008v-.011l-.013-.013-.012-.014-.007-.005-.006-.004-.011-.008-.012-.012-.002-.008-.025-.061-.002-.004-.012.001v-.005l.018-.008.031-.015.019.002.021.014.013.024.006.007.019.028.035.032.033.022.023.014.002.004.013.008.017.009.002.005.004-.005h.012l.017.003.024-.005.029-.017.021.002.011.028.076.043.075.013.068.004.021-.001.02-.002h.021l.053.002.052.012.01.01.013.014.028.033.022.016.064.029.007.006-.035.006-.011.005.083.078.056-.043.005-.024v.013l.006.012.002.005.006.021.006.033.001.035.03.109.026.064.03.056.018.047.024.055.047.102.041.062.041-.023.041-.017.009-.003-.011-.007-.002-.024.019-.013.008-.014.002-.07.002-.088.014-.062.016-.01.012-.012.033-.025.002-.014.082-.07.037-.03.031-.02.012-.039.006-.015.02-.008.016.003h.053l.029-.003.036-.023.001-.011.006.008.01.007.013.022.034.056.019.023-.021.006.021.018.002.015-.002.008v.006l.01.001.025.023.01.059-.004.035.017.005.046-.003.025-.02.02-.021.041.076.01.032.01.025.006.012.015.015-.002.021-.007.005.009.008v.014l-.011.008-.006-.002.02.016.008.022-.015-.002-.007-.001.009.01.005.064.009.055.025.005.005.003h.006l.016.024.008.023v.01l.01-.003.007.001.007.029.004.024.012.023.016.032.013.023.039.034.003.003-.013-.005-.019-.002-.015-.007-.01-.01-.002-.004-.032-.028-.025-.018-.014-.006-.005-.007-.004-.013-.018-.017-.035-.011-.039-.011-.029-.004.068.089.03.036.024.022.022.018.025.061.059.089.039.053.015.017.049.043.062.035.025.002v.019l-.016.007-.009.008.021.007.031.018.021.005.03.007.029.005.067.006.125.007.009.002.007.003.023.004.023-.004.008-.006.012.011.007.001.009-.003.02.007.033.006.037-.003.018-.007-.006-.001h.012l.037-.002.013-.001.119-.002.035-.007.015-.003h.014l.047-.008-.055-.005-.029-.002-.018.008-.016.01-.069-.007-.03.007-.006.001-.009-.002-.015-.001.004-.005v-.004h-.006l-.029-.001-.032.006-.011.004-.01.002-.01-.002-.026.005-.013.011v-.012l-.025-.012-.023-.009-.039-.008-.023-.007.009-.006.043-.014-.041-.003-.054-.004-.018-.003-.014-.005-.014.003-.023.011-.037-.001-.025-.01-.018-.012-.029-.009-.019-.002-.019.002-.021-.002-.002-.013.005-.05.021-.05.025-.01h-.008v-.009l-.008-.006-.02-.028-.03-.003.004.018.009.005-.013.003-.015-.003-.006-.005-.009-.01-.007-.021-.014-.013-.022-.006-.002-.015.004-.034-.005-.013-.001-.001.002-.003.006-.005.008.001-.016-.015-.006-.002.01-.01-.004-.004-.006-.008-.014-.028-.016-.05-.007-.048-.056-.054-.014-.013-.02-.013-.039-.036-.012-.03-.008-.035-.002-.018-.004.007-.022.009.009-.079.012-.054.015-.029.016.018.019.019.041.02.009.006.019.015.01.021.025.025.002-.006.002-.002.008.021.01-.003.01-.003.021.011.002.008.002.056.016-.01.027-.021.013-.016-.011-.008-.004-.01.012.01.003.008.019-.024.008-.001.054-.024.021-.01.01-.042.002-.01.006-.007-.006-.011-.008-.024-.01-.036-.01-.022-.016-.021-.015-.019-.011-.01-.075-.066-.021-.021-.016-.039.008-.022.015-.018.014-.013.007-.004.01-.006.008-.005.048-.013.022.003.01.007.025.046.008-.024v-.007l.006-.005.006-.01.014-.001.012-.001.002-.005.004-.001.01-.001.017.001.021-.002.002-.004.006-.001.005-.002.013-.021.004.001.024.011.022-.012.019-.004.002.005.005-.005.006-.003.034-.011.019-.014.02-.014.018-.013.016-.022v-.002l.016-.011.007-.002.013-.006-.004-.005-.006-.021.002-.009.002-.001.006-.009.006-.011.004-.014.015-.024.009-.004-.002-.031.002-.006.008-.027-.004-.028-.006.004v.009l-.018.001-.021-.007.01-.015.009-.014-.003-.005-.012-.008-.013-.02.005.003.006.007.008-.003-.045-.038-.015-.016-.069-.069-.022-.026.021-.021.008-.013.012-.011.031-.01.017-.009-.032-.022-.035-.01-.035-.001-.006.01-.021.003-.013-.016-.031-.026-.043-.031.009-.007.037-.012.019-.019.017-.014.026-.012.02.029.004.027v.014l.004.015.023-.015.046-.016.034.005.014.004.016.006.01.035.006.024h.005l.028.014.015.001.009.003.016.007.008.021.01.021.023.032.002.03.004.014.023.011.023-.001.016-.005.009-.003.007-.001.03-.022-.057-.089-.035-.034-.032-.024-.027-.022.008-.016.027-.021.006-.027.004-.035.008-.008.004-.005.009-.008.007-.005.01-.002h.008l.053.021.049-.039.02-.06.006-.042.006-.051-.008-.035-.021-.031-.003-.006-.008-.011-.023-.062.055.046.02.027.03.039.026.036.021.03.012.017.01.016.021.03.018.016-.002-.017.008-.012.025.014.01.004-.023-.03-.02-.012-.026-.02-.021-.029-.012-.029.044.011.026.011-.019-.014-.038-.031-.068-.064-.053-.055-.037-.041-.021-.015-.037-.027.007.014.008.018-.002.013.024.038-.03-.036-.033-.023-.047-.028-.059-.013-.009.023-.007-.011-.008-.01-.01-.01-.005-.01-.002-.006-.026-.022-.017-.001-.011.003.037.011.004.002.004.012.003.01-.003.009-.008-.007-.039-.024-.024-.032.022-.037.024-.04-.002-.011.002-.014.009-.012.012-.013.098.017.014.007.008-.003.041.005h.039l.006-.006.053.017.018.005.008.011.016.013.052.005.017.001.031.003-.023-.021-.016-.034.004-.025.023-.012.032.005.024.005.014.009.027.027.016.011.011.005.004-.003.009-.009.021-.012.009-.008-.018-.015-.004-.015.024.011.032.039-.008.022-.01.017-.002.016-.005.018-.015.032-.01.002-.016.003.002.01.01.024.086.105.049.044.046.039.036.033.027.025.015.013.009-.013-.007-.043v-.021l.021.003-.011-.016-.021-.029.021-.003.018-.001-.022-.023-.017-.036.017.005-.028-.03-.039-.034-.033-.02-.035-.038-.012-.027-.002-.011.018-.001.007.001.004.007.013-.007.022.007.021.002.09.016.027.005.01-.016.016-.017.018-.011.018-.003.007-.003.015-.004.069.016.016-.002-.013-.014-.021-.012-.02-.014-.08-.052.01-.011-.021-.032-.018-.013.032.015.067.026.063.025.039.02.043.017.037.009.004.002.022.008-.004-.008zm-5.562-.623l.004-.003.008.003h-.012zm.076-.03v-.008l.003-.008.009-.01.021-.004-.033.03zm-.17.474l.002-.007.007.002-.009.005zm.69.638v.005l-.013-.005h.013zm-.024.028v.011l-.002-.003.002-.008zm-.017-.013l.006.002-.008.002.002-.004zm-.209-1.37l.006.006-.006.001-.008-.005.008-.002zm-.045.014l-.01.006-.002-.006h.012zm-.023.028l.006.003h-.013l.007-.003zm-.035.008l-.002.004-.005-.008.007.004zm-.13.55l.011.007-.008.008-.005-.002-.002-.005-.008-.005.012-.003zm-.03.028v-.011l.014-.001.008.002-.022.01zm.361-.016l-.007.002.01-.01-.003.008zm.044.769h-.007l-.007-.017.007-.008.013.01.003.006-.009.009zm.169-.974l-.014.008-.078-.003-.071.031-.002.008-.009-.01-.006-.007-.02.009-.004.012-.004.014.012.013.012-.006.01-.004.023-.005.014.005-.006.054-.021-.02-.036-.012-.029.073-.024.042-.009.008-.014.015-.026-.007-.08.007-.037.012-.05-.013-.064.009-.023.007.025-.022.006-.005.014-.007.005-.005-.011-.003v-.004l.004-.011.004-.003.007-.01.003.004.027.013.025-.01.039-.024.021-.01.006-.002.007.005.016-.047-.006.003-.01-.006.008-.047.012-.006.017-.005.015-.004.012-.012.009-.014v-.019l-.037-.03-.017-.036.004-.023.016-.023.016-.015.049-.022.023-.019.014-.023.004-.021.017-.014.006-.002.069-.002.016.014-.012.007-.01.004-.041.042-.008.004-.039.018-.013.001.007.009.002.011-.004.018.01.021.004.037.006.026.009.006.017.01.021.01.041-.003.046-.008.014-.001.041-.008.049.008-.019.015zm.437.581l-.021.007-.005.004.012.012.005.009-.014.019-.035.011-.036.001-.016-.01-.011-.014.015-.015.03-.017.023-.004.059-.011-.006.008zm.091.138l-.016-.006.019.006.032.016-.035-.016zm-.275 2.398l-.009-.013-.007-.02-.008-.018-.017-.026-.019-.028-.002-.024-.004-.059.006-.027.008.03.007.018.002.012.002.02v.014l.009.026.02.033.012.037v.025zm.149.093l.007.03.002.034.005.081.006.006-.006.003-.005.001-.007.006-.002-.011v-.019l-.014-.062-.004-.094-.007-.017.019.006.006.036zm-.076-.484l.025-.011.037.014.002.015-.004.012-.014.032-.005.006-.009.013v.015l-.021.009h-.029l-.012-.041.03-.064zm.046-1.299l-.001-.008.005-.009.002.009-.006.008zm.29-.659l.025-.003.002.001-.027.002zm.032 1.206l-.006-.004.006-.004.004.003-.004.005zm.336-.914l-.095-.021-.029-.017-.034-.04.004-.024.009-.029.014-.025.016-.005-.009-.003h-.009l-.012-.002.021.002.002-.005-.011-.007-.06-.056-.052-.075-.032-.048-.002-.006.011-.019.045-.028.006-.004.047-.038.033-.013-.012-.014.012.013.037.012.022.011.009.058-.029-.005-.033.009-.002.017-.016.004-.011.01.015.011.016.017.016.015.003.013.009.006.01.005.021.012.019.031.002.021.021.044.019.036.004.015.009.014.028.05.008.042-.04.016zm.024-.175l-.01.004-.016-.007-.023-.033.031-.007.024.027.01.012-.016.004zm-.068-1.08l.091-.063-.091.063zm.182.895l.009.011.004.023-.013-.034zm.017.002v-.019l.012.011-.012.008zm.06.032l-.018.012-.016-.003-.008-.029-.005-.032.002-.01.014-.003-.005.005-.004.005.016.003.012.011.012.019v.022zm.001-.086l.004-.002.007.003-.011-.001zm.162-.901l-.02-.013-.01-.004.037.013-.007.004zm.348.93l-.009.01-.009.007-.006.015-.01.009-.002-.031.004-.002.023-.02.01.005-.001.007zm.02-.005l.006-.002.007.003-.013-.001zm.079.015l-.01-.008.018.006-.008.002zm.029.003l-.011-.005.011-.003.012.005-.012.003zm.357-1.023l-.019-.009.027.004-.008.005zm.175 2.205l-.006-.005.002-.004.007.004-.003.005zm.372-1.354l-.027.014-.02.016-.021.016-.035-.003.004-.004.033-.016.014-.013.007-.015.004-.01.011-.083.018.007.019.064-.004-.001v-.007l-.007.009.009.01.004.004-.009.012zm.979 2.503l.01.005-.01.001-.009-.003.009-.003zm-.577-.368l.005.003.005.005-.005-.001-.01-.008.005.001zm-.032-.018l-.01-.004-.008-.01-.003-.003.021.017zm.023-.372l-.005-.004.009-.004-.004.008zm1.426-1.842l.016.007-.02-.004.004-.003zm.109-.041l-.004-.007.01.006-.006.001zM49.854 39.169l-.004.001-.003-.001c-.435.178-.817.455-1.122.805.455.524.731 1.207.731 1.955s-.276 1.432-.731 1.955c.305.351.687.628 1.123.807l.002-.001.002.001c1.087-.444 1.854-1.512 1.854-2.762 0-1.247-.766-2.313-1.852-2.76zM48.722 39.974c-.302-.35-.686-.624-1.12-.805h-.002l-.006-.002c-1.086.445-1.852 1.514-1.852 2.761 0 1.25.768 2.317 1.855 2.762.438-.178.822-.456 1.125-.807-.452-.522-.73-1.205-.73-1.954 0-.747.277-1.43.73-1.955zM45.53 23.841l-.066.005-.028-.004-.006-.004-.007.006-.008.009-.009-.004-.009-.008-.006.001-.021.015-.021.003.008-.014.003-.008.02-.006-.032-.01-.058-.009-.285.009-.145.016-.087.014-.028.004h-.015l.015.01.004.01-.013-.005h-.015l-.016-.005h-.012l-.018.006-.018.009-.009.006-.054.005h-.008l-.061-.001-.095.016-.026.003-.014-.013-.027-.003-.187.013-.283.047-.043.008-.052.007-.071.017-.097.026.012.004.009.005.019.009.007.005-.019.009h-.005l-.011-.007-.023-.009-.035-.004-.027.008-.023.009-.018.007-.014.006-.034.014-.023.025.017.012.008.003v.016l.08.002.087.004h-.013l-.056.004-.006.013-.009.008-.041.01-.03.008-.024.013h.008l.002.003-.016-.001-.033.001-.026.002-.017-.004-.017-.001-.055.012-.011.008.002.002.013.026-.04.011-.035.009.016-.016.006-.022-.02.001-.013.003-.065.012-.027.019-.004.006-.004-.008-.033-.012-.021.026.002.002.038.01.02.006.039.002.045-.017.018-.005.004.004.004.009.001.007.003.01.008-.005.023-.005.043-.017.005-.021v-.008l.007-.01.051-.006.002.009-.017.009-.016.029.124-.011.102-.015.012-.002.093-.016.032-.03-.146.012-.046.01-.03-.001-.024-.009.017-.005.069-.014.1-.014.043-.007v.006l.021-.001h.02l.002.011.018-.013.014-.013.047-.024-.016-.003-.008-.001.013-.006.028-.012.043-.014.039-.018.008-.002.021-.005.015-.006.021-.015.086-.031.044-.016.025-.012.135-.044.013-.002.026-.005.088-.024-.006.012-.039.012-.152.044.021.004.025.003-.076.029-.176.046-.015.01.015.003.023.003.012.003-.025.006-.033.006.012.005.012.005.068.031.023-.006.013-.002h.021l.129-.011.039.012.006.017.004.011v.01l-.004.004-.009.006.013.001-.004.009-.014.013.012-.004.004.007-.002.015-.004.005-.007.013-.007.015-.008.023.025.003h.022l-.006.002-.007.003.011.005.009-.011.004-.009.004.006.01.005.014.01-.012.005-.066.006.002.007-.008.001-.012.003-.008.018-.012.015.02.008.045-.002.019-.027-.011-.008.009.002.019.005.002.037-.035.014-.039.017-.018.018-.029.036.01.008-.002.004-.018.029v.016l.006.007.008.003v.051000000000000004l.002.007.011.032.004.014.001.016.01.02.015.022.009.013.02.004.06.014.011.01.02.006.05-.019.011-.012.01-.012.021-.027.021-.035.02-.021.025-.02.023-.019.009-.01.013-.02.01-.021v-.009l.033-.021.022-.006.021-.008.004-.001.037.005.006-.006.01-.006.006-.002.014-.002.034-.016.056-.037.041-.028.02-.013.01-.002.03.001.178-.049-.003-.005.041-.018.037-.017-.031-.001-.067-.01.011-.014.016-.012.018.008.004.014.066.002.008-.027-.018-.032-.004-.005.022-.015.002-.005.007-.011.008-.004.002-.002h.001l.025-.012.017-.025.006-.004.016-.001.056-.026.015-.004.011-.003-.005-.004-.004-.005-.016-.005-.018.022-.023.001.004-.01-.004-.048.018-.014.016.011.002.005.004.006.01-.006.014-.016.006-.01-.021-.01-.022-.003.008-.001.019-.003-.008-.01-.019-.01h-.011l-.002-.01.033-.008.019-.006.006-.011-.002-.003.028-.014.026-.009.022-.011.017-.009.017-.005.021-.005.041-.012-.034-.02zm-1.909.271l.004-.008.008-.001-.012.009zm-.52.145l.004-.003.007.001-.011.002zm.088-.018l-.002-.008.009.003-.007.005zm.528-.244l.006.002-.01.001.004-.003zm.011.08l-.006-.001.006-.006.005.002-.005.005zm.012-.011l-.009-.006.004-.005.009.007-.004.004zm.008-.034l-.025.016-.012-.002.045-.02-.008.006zm.078-.01v.008l-.004.002-.009-.013.018-.003-.005.006zm.228.07l.006-.004.008.002-.014.002zm.08-.015l.008-.003.006.001-.014.002zm.107.474l.003-.003.006.005-.009-.002zm.573-.679l-.016.005.002-.007.014-.005v.007zm.384.301l-.003.005-.013-.013-.01-.014.014-.006.014.005-.002.023zm.009-.036l-.005-.004.002-.005.005.004-.002.005zm.022.008l.008-.002.01.001-.018.001zm.076-.295l.002-.004.017-.001-.019.005zM47.766 28.026v-.043l-.032-.066-.009.012-.01.029-.019.02h-.011l.008.011-.006.001-.014.021-.004.013-.007.012-.009.008-.007.003-.065.049-.027.013-.018.005-.011.014-.011.03v.088l-.01.065-.02.035-.014.086.006.035.004.027.006.014.027.024.01.005.039-.004.025-.009.034-.039.009-.019.014-.041.018-.048.016-.045.025-.077.023-.07.016-.043v-.043l-.003-.022.011.013.01.012.011-.017.003-.026-.008-.033zM46.67 24.216l-.002.001.008.002h.004l-.01-.003zM48.704 27.267l.007.003.002-.002zM45.417 24.422l-.013-.01-.005-.005.004-.009-.008-.005-.022-.001-.024.003-.014.009-.043.001-.037.012-.011-.001-.019.003-.008.009-.012.001-.009-.004-.019-.02-.029-.002-.02.009-.012.009-.004.008-.016.008.021.005.006.016-.025.014.007.004.004-.004.041.004-.011.02-.006.009.026.005.041.003h.089l.078-.028.068-.046-.018-.017zM46.617 24.219h.004v.006h-.004zM48.721 27.268l-.004-.013-.01-.007-.01-.035-.003-.014-.002-.015-.005.015.005.017.004.01.001.011.006.009-.006-.001-.001.002.003.018h.004l.008-.004.004.004-.002.002.008.001zM49.024 26.986l-.008-.01-.035-.033-.01.005.002.008.006.011-.008.006-.008.003.006.005v.026l.014.091.043.008.033-.043-.035-.077zM43.588 29.747zM50.764 26.974l-.014-.024-.014-.014-.012.003-.008.004-.008-.012-.011-.012-.024-.008-.021-.003.005.007.004.027.012.018h.01l.01.004-.002.017-.004.015.013.01.009.007.018-.008.014-.015.002.004.025.003-.004-.023zm-.043.017l-.004-.002.004-.005v.007zm.005-.009l-.004-.012.004.002.008.011-.008-.001zm.011-.03l-.003-.004.003-.005v.009zm.002.029l.002-.005.002.008-.004-.003zM43.188 24.46v.001h.001zM47.703 24.062l-.043-.005-.025.008-.08.006-.09.006-.056.018-.005.009-.024.039-.017.007.015.006.004.006-.025.011-.006.014-.004.015-.014.011.026.02.007.002.014.01.02.001.004.002.053.021.073.004-.007-.005-.006-.001-.021-.013-.021-.011-.014-.014-.013-.037.005-.005.062-.057.018-.009.104-.023.066-.036zm-.326.089l.004-.003.006.003h-.01zM50.87 27.672l-.034.006-.039.012-.033.017-.027.021-.012.017-.002.01.063-.025.043-.023.06-.032-.019-.003zM48.439 24.065l-.054-.025-.047-.021-.025-.017-.076-.014-.028.012-.001.004-.006.023.029.01.009.007.007-.004.007.001.014.006.029.008.137.036.018-.012-.013-.014zM50.953 27.466l-.02.006h-.004l-.012.001-.003.013.009.008.019.006.021-.011h.01l.021.001.028.006.025-.001-.094-.029zM49.801 24.463l-.026-.012-.031-.009.024.018.013.008-.007.005-.007.004.014.005.059.013.041.002-.08-.034zM51.82 27.732v-.003l-.016-.008-.016-.011-.011-.009-.013-.01-.016-.006-.021-.015-.027-.03-.02-.023.02-.01.018-.006-.028-.024-.017-.006-.022-.009-.013-.012.007-.01.007-.006-.009-.002-.021-.002.002-.016-.005-.003-.013-.004-.021-.005-.017-.006-.037-.012-.05-.016-.028-.008-.008-.002-.021-.007-.059-.019-.053-.009-.018.012-.02.008-.014.003-.008.013-.019.017-.021.009-.018-.02-.009-.015-.011-.009.004-.002.002-.003-.004-.024-.018-.023-.025-.006h-.057l-.023.012h-.012l-.022-.001.032.027.025.011.051.017.026.002-.017.003-.019.003-.018.003-.025.007.013.008.014.011.007.006.002.004.009.019.014.003.011.002v-.005l-.005-.01.025.001.028.014.026.008.098.036.008.013.006.015.006.008.002.014-.008.015-.035.037.053-.001.021-.005.038.018.049.02.032.001.013-.001.008.004-.006.013.002.003.014-.022.005-.007.006-.006.005-.004.004-.007.053-.028.021.006.025.013.009.009.005.007.007.012.004.009.007.002.012.011.029.014.039.003.025.005.059-.001.002-.002h-.016zM50.846 27.008l-.002-.013-.004-.013-.014-.006-.014-.004-.008.007-.002-.006v-.014l.005-.013.017.002-.011-.014-.012-.025-.029-.026-.021.007.016.018.014.017-.012-.003-.01.014.01.016.009.012.016.019.015.012.006.014-.012.008-.015-.004-.003-.004-.002.014-.004.01-.01.006-.018-.001-.023-.005-.014.012-.015.006-.015.004-.008.018-.002.02.018-.002.007-.016.009.001.016.005h.009l.009-.007.009-.004.011.028.016.032.025.013.012.011.016.001.006-.014-.004-.02.002-.021.01.007.008.016.009-.008.005-.019.005-.011-.026-.077zM50.519 27.258l-.006-.025v-.017l.022-.02.005-.012-.001-.012.03-.012-.012-.009-.037-.02-.01-.003-.006-.006-.014-.02-.009-.016-.013-.009-.005.018-.012.017-.009.013-.021.021-.008.014-.007.006-.022.006-.019.006-.011.01-.021.03-.044.025-.026.007-.01.001-.002.026-.007.013-.019.003-.021-.003-.013-.007-.028.016v.072l.027.04.01.012.004.038.043.021.023.008.012.009.013-.002.021-.007.013-.004.007.005.008.004.013.002.024.015.031.002.023-.012.007.01.013-.002.002-.021.006-.025.006-.019.018-.036.023-.014v-.024l.031-.039.006-.027-.021-.025-.007-.022zM50.751 26.848l.003-.014-.017-.003-.017-.001-.021-.005-.007-.004-.026-.006-.027-.005.021-.007.008-.002-.029-.016-.008-.022.01-.013.008-.052-.01-.028-.016-.016-.021-.002-.031-.002v.085l-.003.001-.013.032.035.041.006-.007.004-.004-.004.013.004.023.008.003-.021-.004-.01-.007.007.017.024.032.027.014-.008-.038.004-.013.018.005v.01l.015.001.011.002.012.004-.004-.012.022.01.013.026-.002-.003-.02-.023.003.016.009.021.004.012.018.002.014-.006-.004-.016.008-.015-.011-.017-.011-.013.011.004.014.002zM50.789 27.312l-.027.015-.051-.005-.041-.007-.025-.005-.008.011-.01.005-.025.025-.004.008-.002.012-.008.024-.009.024-.021.042-.002.013.002.019.013.005.013.014-.004.039.023.027.018-.019.016-.093.008.017.012.025.011.021.013.02.017-.009.015-.009-.003.007-.003.035h.021l.007-.016.002-.011.004-.019-.011-.015-.021-.021-.014-.031-.011-.029.013-.006.021-.014.022-.011.013-.006-.029-.009-.032.006-.028.011h-.025l-.012-.013-.009-.023.073-.02.105-.004.014-.019.011-.021-.032.01zM51.13 26.044l-.014-.02v-.016l-.004-.013-.012-.018-.01-.017.01-.003h.012l-.005-.005-.007-.022-.032-.054-.036-.039-.007-.007-.017-.005-.008.005-.006.002-.004.008-.002.013.004.011.006.016.005.007.014.011.004.06-.008.019-.015.01-.021.006-.01-.016-.018-.008v.015l.008.005.004-.003-.017.022.002.018v.008h-.015l-.032-.004-.045.001-.03.001-.037.03-.009.011-.007.014-.021.011-.011.007.013.015.021.012.002.002.011.022.016.025.012.009.011.008.013-.005.012-.038-.002-.032.016.003.031.011.016-.022.008.004.014-.005.005-.015.001-.01.008.004.033.03.015-.012.013-.012-.004-.016-.011-.007h.011l.012.006.023.005.023-.009.002-.01.007.014.017-.002.021-.002.019.003.002-.011.004-.011-.004-.015zm-.293.063l-.005-.006-.016-.008-.017-.008.024.001.021-.002-.002-.004.002-.005v.009l.007-.001.007.004-.021.02zm.052-.026h-.021l.021-.006v.006zm.023-.003l-.009-.01.025.004-.016.006zm.106-.23l-.008-.003.008-.003.007.003-.007.003zM51.112 25.752l.009-.015.01.001-.011-.008-.014.013-.013-.001-.016-.004-.039-.009-.066-.037-.049-.029-.006.006-.005.003-.006.001.008.004.042.057.002.009-.009.005-.013.007v.01l-.008.016.002.009.031.023.021.006.011-.005-.013-.017-.021-.013.014.002.017.001.039.01.035.012.004.002.002.005.004-.01.021-.021.033-.011-.009-.003-.007-.019zM50.965 27.299l-.019.007-.011-.012-.018-.006-.007.028-.006.017.002.004.002.007-.004.012h.008l.005.004-.011.01-.01.016.033.004.006.001.003-.013.013-.026.01-.01-.004-.016.008-.027zM50.844 26.084v.001zM50.572 26.924l.005-.001-.009-.004-.015.017-.011.027-.007.016-.002.004-.05.043v.016h.005l.027-.027.027-.027.032-.026.003-.014-.009-.015.004-.009zM40.834 25.25l-.029.015-.031.018-.014.006-.021.01-.013.006-.039.023.018.011.021-.01.021-.008.03-.016.021-.028.02-.004.018-.012-.002-.011zM43.765 29.624l-.032-.004-.019-.001-.02-.002v.004l-.002.019.007.016.032-.008.013-.008.002.028.035-.012.017-.021-.033-.011zM43.009 24.268l-.023.005.007-.013-.001-.018-.002.006-.002.002-.025.006-.027.02-.006.005-.002.011-.021.006-.028.002-.05-.016-.018-.006.011-.009.009-.005.017-.012-.071.01-.119.046-.028.01-.029.01-.004.015.018.002.011-.005.012-.005h.016l.008.003.003.007.028-.01.016-.004-.017.011-.007.01.033.001.021.003.091-.009.112-.03.075-.028-.008-.021zm-.229.026l.009.002-.014.008-.007-.004.012-.006zm-.013.052l-.004-.003.016-.007.004.003-.016.007zm.003-.036l-.032.008.004.004.006.001-.021.001-.004-.004.012-.007-.018.002-.004-.003.024-.006.033.002h.025l-.025.002zM43.588 29.747v.006l.002.008.008-.008-.01-.006zM43.805 28.729l.002.002v-.005zM43.153 24.312l-.048.013-.041.014-.014.013-.013.021-.014-.002-.034.005.018.025.018.018.064-.01.059-.036.023-.035.008-.011.004-.015h-.03zm.008.037l-.011.003-.005-.001.018-.006-.002.004zM51.801 28.226l-.01.011-.002-.005-.01-.012-.01-.013-.01-.008-.01-.007-.003-.021-.009-.021-.014-.003h-.013l-.005-.012-.008-.025-.001-.016.005-.009-.008-.008-.047-.022-.01-.004-.008-.002-.005-.002-.015-.02-.004-.012v-.006l-.008-.049v-.059l-.011-.013-.005-.011.003-.01-.017-.003.003.003v.003l-.013.001-.006.004-.01.004-.005-.021.009-.019.006-.013v-.034l-.006.029-.004.011-.003-.01-.004-.011.004-.02-.004-.001-.019-.015v-.015l-.022-.007-.009.016-.014.025-.014.03-.007.022-.011.031-.032.09-.011.014-.03.019-.034-.014-.029-.015-.017-.012-.015-.009-.012-.01-.012-.004-.027-.012-.025-.019.011-.01.017-.021.01-.007.002.008.025.007-.004-.025-.011.003-.008-.006.006-.01.021-.019.006-.022-.006-.01-.004-.004-.008.004-.011.006-.007-.003-.021.003-.021.004-.018-.004-.021-.004-.015-.004-.006-.006h-.006l-.011-.001-.011-.005-.006-.005-.015-.004-.013.001-.008.003.016.014.01.019-.037.004-.027.004-.006.003-.033.034-.008.011-.01.01-.014.016-.003.013-.021.012-.026.003-.003-.001-.006-.01-.01-.008-.017-.014-.022-.002-.008.005-.037-.001.004.004.006.01-.008.001h-.009l-.009.004-.011.01-.005.01-.03.032-.002.017h-.021l-.017.002-.002.008v.02l-.007.008-.006-.01-.008-.019-.023.019-.02.033-.018.032-.025.03-.07.029-.033.01-.023.011-.021.008-.027.006-.022.003-.012.004-.024.016-.036.022-.025.021-.007.013-.004-.013-.009-.006-.018.043-.014.029-.005.059-.004.027-.011-.018-.006.011-.004.013-.007-.012-.002.01.011.032.01.036.006.037.003.027-.001.067-.008.058-.008.014-.025.033-.018.013.006.021.013.006.054.016.051-.016.033-.014.02-.013.113-.024.045-.002.023-.022.031-.022.012-.005.018-.009.024-.011.024-.007.104-.027.057-.014.062.002.018.006.026.005.026.008v.004l.003.021.007.044.009.017h.019l.047-.042.031-.022.028-.02-.004.004-.008.012-.015.016-.02.023-.02.021-.021.014.007.004.021-.006.021-.017.016-.017-.012.034.006.015.021.01-.002.029-.005.029.018.016.012.007.021.002h.024l.017.008.037-.01.026-.011.024.008.019.013.013-.004.112-.056.064-.034.016-.019.012-.017.025-.024.047-.046.084-.067.021-.015.015-.017.033-.038.012-.021.049-.074.012-.028-.004-.01-.004.006.015-.043v-.011l.011-.017.012-.021-.004-.002zm-1.575.179l-.004-.006.002-.007.006.007-.004.006zm1.012.347l-.012.006.012-.013v.007zM45.631 24.555l-.007.001-.017-.002.002.015.009.003-.003.01.003.011.006-.001.003-.012.002-.008.002-.008.006-.011-.006.002zM43.008 24.189l-.027.018h.023l-.031.009-.045.013.043.006.047-.026.011-.001.015-.005.01-.008.02-.008v-.01l-.066.012zM47.179 23.917l-.01-.005.018-.006.009-.005-.015-.006-.012-.006h-.023l-.016.01-.002.003-.007-.006-.075-.004.018.008.01.004-.002.005.061.003.01-.005.006.005.043.014.009-.005-.022-.004zM47.443 23.914l-.012-.006-.07-.016-.004-.008-.012-.009-.021.003-.025.006-.072.026h-.012l-.004.001.006.006.017.003.023-.008.008-.004.01.011.017-.002.005-.001.004.01.043.005.033.004.012.005.024-.006.015-.006.025-.009-.01-.005zm-.196-.003l-.005-.001.005-.005.007.002-.007.004zm.118.005h-.015l.013-.005.004-.005.007-.003.013.005-.022.008zM46.497 23.882l-.006-.001-.03.001-.007.002-.104-.004-.026.004-.022.005.004.013.002.004-.014-.008-.02-.007-.014-.001-.035-.003-.045.002-.012.009.018.024.015.013-.015-.009-.019-.007.021.017.02.003.042.026.021.015.031.01.047-.003.012-.017.031-.026.004-.004.046.012.002.015.019.006.021.005.037-.003.015-.005.006-.005-.018-.006-.019-.009-.017-.007-.015-.002-.058-.025-.002-.003.039-.002.108-.004.013-.004.007-.015-.083-.006zm-.247.078l-.005-.006.005-.004.006.004-.006.006zm.034-.017l-.011-.008.011-.001.009.007-.009.002zm.107-.032l-.012-.008.01-.006.011.01-.009.004zM45.842 25.004l.021-.04-.046-.01-.004-.001v-.024l-.006-.021-.029-.029-.016-.021-.027-.039.002-.026.012-.014.006-.015-.029-.019-.033-.005.003-.005.021-.012.008-.01.009-.012.014-.019h-.028l-.004.013-.041.012-.021.011-.036.031-.017.003v.015l.006.01-.002.006.006-.004.007-.001-.017.012-.018.012h.01l.012.001.009.01-.005.009-.016.01.02.006.014.007-.005-.002-.006.002.017.005.013.005-.007.009v.011l.011.006h.039l.007.017-.001.035-.024.001-.021.004.006.001-.008.014-.013.013.015-.003-.007.025.007.028.021.012-.035.027-.02.014-.016.014.031-.004.026-.006.024-.008.045-.008.037-.003.022-.003.067-.024-.01-.005v-.018zm-.227-.239l-.002-.005.004-.005.003.004-.005.006zM43.312 24.13l-.03-.004-.022-.002-.035.007-.023.011-.011.016-.009.011.043-.002.045.003.023.001.028-.02-.009-.021zM45.547 24.854l-.027.034.004.006-.026.003-.028.009v.022l.008.018-.008.032-.019.036.002.005.005.002.009.002.068-.016.041-.013.021-.021.006-.042.015-.027.004-.037-.075-.013z"/></svg>