<svg xmlns="http://www.w3.org/2000/svg" viewBox="0 0 56.48 56.48" enable-background="new 0 0 56.48 56.48"><path d="M17.022 27.018c-.008-.105-.069-.176-.17-.204l-.114-.014-.409.002h-.407l-.094.008c-.122.018-.142.063-.163.168l-.002.02-.003.367.043.098c.063.063.135.104.229.102h.823l.152-.031c.054-.023.09-.062.106-.123l.011-.08v-.211l-.002-.102zM50.29 24.75l-.009-.003-.282.005-.237.038c-.076.02-.139.053-.201.104l-.139.143-.096.164c-.033.096-.05.185-.05.271l.001 2.062.001.112.044.23c.043.116.111.194.215.245l.129.055c.141.045.286.068.432.068h.871l.312-.023c.179-.033.327-.097.45-.197l.066-.066c.051-.061.09-.138.115-.232.025-.094.038-.194.038-.304v-2.672h-1.66zM36.183 25.494l-.162-.039h-.715c-.111-.002-.203.037-.28.115-.044.045-.067.095-.067.158v.362l.004.047.019.016.071-.023 1.037-.391.158-.061.026-.041c-.002-.067-.034-.112-.091-.143zM12.689 25.63c-.021-.088-.072-.146-.161-.164l-.081-.01h-.783l-.114.016c-.103.029-.167.097-.191.201l-.014.137v1.416l.015.127c.022.088.073.151.157.184l.16.031h.749c.118 0 .194-.066.251-.158l.025-.125v-.77l.001-.764-.014-.121zM39.789 32.25h-.395l-.098.062-.031.117v.604l.002.039c.012.082.043.125.136.135h.381c.053-.002.089-.026.11-.075l.012-.066v-.34l.001-.353c0-.069-.044-.123-.118-.123zM55.026 9.939h-53.572c-.804 0-1.454.651-1.454 1.454v33.695c0 .803.65 1.454 1.454 1.454h53.572c.804 0 1.454-.651 1.454-1.454v-33.695c0-.802-.65-1.454-1.454-1.454zm-21.038 14.967c.083-.207.229-.352.432-.439.122-.051.25-.078.383-.088l.123-.004h1.43c.119 0 .236.012.35.045.303.082.496.271.586.57.04.129.059.262.059.395v.832l-.002.033-.016.021-.037.016-1.279.502-.992.393-.031.014-.014.021c-.006.084 0 .168.055.24l.034.049.116.061h2.0789999999999997c.094 0 .084-.01.084.082v.926c0 .078.006.078-.078.078h-2.219c-.137-.002-.272-.008-.406-.037-.194-.043-.356-.141-.487-.291-.086-.1-.155-.207-.188-.336l-.037-.207c-.021-.156-.012-.313-.014-.469l-.004-1.137-.005-.797c-.005-.161.018-.32.078-.473zm-2.509 1.271v-2.355c0-.105.01-.209.035-.311.047-.176.143-.322.279-.443.178-.154.387-.238.619-.27l.197-.014h.611l.062.059v.926l-.061.063h-.349l-.159.027c-.082.031-.137.088-.162.172l-.016.086-.001.225.037.035h.674l.034.031.001.035v.953l-.065.062h-.604c-.083 0-.076-.006-.076.078v3.086l-.034.031h-.9470000000000001c-.08 0-.076.002-.076-.078l.001-2.398zm-27.344-2.321c.063-.375.213-.713.453-1.006.324-.398.739-.65 1.242-.754l.202-.033-.001-.014h.396l.034.014.354.066c.726.195 1.3.764 1.504 1.488.035.123.058.25.071.379l.021.313-.003.086-.031-.008c-.144-.123-.312-.201-.496-.244l-.076-.076c-.122-.465-.397-.809-.821-1.031-.194-.104-.404-.158-.626-.172-.709-.047-1.355.383-1.599 1.035l-.061.201-.034.035-.218.076c-.109.047-.209.109-.303.182l-.021.016-.02-.01-.001-.143.034-.4zm4.388 3.68c0 .168-.019.332-.068.492-.04.129-.102.246-.195.346-.117.127-.263.199-.427.24-.11.026-.224.039-.338.039l-2.539-.002c-.264 0-.49-.101-.691-.267l-.089-.108c-.072-.113-.117-.236-.146-.367l-.03-.2-.025-.076v-2.246l.025-.073.043-.254c.032-.121.079-.236.151-.342l.087-.094c.155-.123.33-.205.526-.24l.122-.008h2.595c.132 0 .263.016.388.057.236.076.403.23.503.457.052.117.079.242.094.367l.015.285-.001 1.994zm4.948.797c-.075.076-.157.146-.25.197-.116.063-.242.101-.375.112l-.238.009h-1.232l-.031.035-.001.061v1.472l-.034.03h-.9880000000000001l-.029-.026v-4.712c0-.156.016-.313.057-.465l.106-.264c.044-.078.101-.145.176-.197.144-.098.298-.17.471-.199l.116-.01h1.56c.104 0 .207.014.309.041.285.072.479.246.583.521.037.1.06.205.072.311l.014.271.001 2.131c0 .27-.097.495-.287.682zm4.598-.709c0 .174-.03.343-.106.5-.085.179-.21.316-.382.414-.106.062-.22.095-.342.104l-.238.011h-1.307c-.163-.002-.326-.019-.484-.065-.129-.039-.247-.101-.347-.193-.113-.109-.183-.244-.221-.395-.027-.104-.04-.209-.041-.316v-.885c.002-.139.02-.275.063-.41.085-.262.258-.436.519-.525.119-.041.242-.059.367-.066l.102-.002h1.28c.105 0 .091.014.092-.096l-.011-.102c-.019-.059-.057-.098-.112-.119l-.113-.021-.068-.002h-2.064l-.037-.041v-.9530000000000001c0-.096-.008-.086.082-.086h2.302c.132 0 .263.012.39.045.141.037.271.096.38.191.136.121.217.273.258.447.028.115.041.232.041.352l-.003 2.213zm4.302-.861v2.281c0 .164-.016.326-.063.484-.055.184-.144.348-.284.48-.135.127-.296.198-.478.227l-.21.014h-2.3850000000000002l-.03-.035v-.9670000000000001c0-.082-.006-.078.076-.078h1.961l.108-.008c.079-.012.145-.051.198-.109l.061-.147v-.217l-.031-.035h-1.308l-.304-.031c-.211-.045-.378-.162-.515-.323-.107-.13-.181-.277-.217-.441-.024-.109-.03-.219-.03-.332v-3.065c0-.092-.009-.084.083-.084h.893c.089 0 .082-.006.082.08v2.738l.014.168c.033.131.118.203.253.205h.77c.113-.002.199-.057.267-.143l.045-.127v-2.832c0-.102-.012-.09.092-.09h.865c.097 0 .088-.01.088.088l-.001 2.299zm.824 1.82v-.947l.071-.068h1.777l.166-.025.112-.104.002-.006c.018-.105.03-.207-.036-.303-.038-.055-.086-.082-.154-.08h-.9119999999999999c-.263-.006-.492-.096-.688-.27l-.177-.188c-.094-.135-.145-.285-.146-.447l.001-.852c.001-.121.022-.242.063-.359.08-.229.234-.385.459-.473.127-.051.261-.076.396-.084l.131-.002h2.0700000000000003c.088 0 .082-.006.082.08v.926c0 .08.004.074-.073.074h-1.757l-.149.012-.084.027c-.066.031-.101.084-.104.154v.117c.003.074.041.129.109.16l.131.033.108.002h.886c.193.002.373.053.527.172.193.145.327.332.383.57l.023.201v.797c0 .09-.017.178-.049.26-.086.226-.229.406-.416.554-.078.062-.168.098-.267.115l-.284.022h-2.132l-.069-.068zm1.261 5.123l-.062.002h-.634l-.021.023-.001.061v.642h-.504l.004-.082v-2.035l.035-.275c.04-.139.131-.225.27-.264l.193-.025h.64l.232.043c.135.051.213.15.246.287l.016.129.002.154.001.862c.021.222-.182.444-.417.478zm2.388-.975l-.002.536c-.007.188-.096.328-.271.406l-.165.033h-.729l-.206-.041c-.149-.061-.233-.172-.252-.334-.019-.166-.006-.334-.007-.502l.018-.113c.044-.166.153-.262.318-.301l.162-.016h.571c.074.002.072.002.067-.07-.006-.076-.029-.1-.104-.105h-.9470000000000001c-.084 0-.079.007-.079-.075v-.326l.001-.041.028-.031h1.075l.228.031c.151.039.239.142.274.291l.02.153v.505zm1.928 1.396c-.046.143-.142.237-.285.286l-.036.019h-1.266l-.002-.443.002-.027.021-.02.062-.002h.872l.087-.012c.053-.019.078-.058.086-.111l.001-.006c-.002-.119.017-.104-.098-.104h-.545l-.136-.014c-.068-.013-.129-.041-.181-.088-.079-.074-.144-.158-.163-.269l-.009-.094v-1.438l.002-.035.021-.021h.44900000000000007l.021.023.001.061v1.191l.009.088c.019.062.052.092.117.094h.374c.066-.004.116-.043.131-.102l.006-.066v-1.2189999999999999l.001-.049.022-.021h.44900000000000007l.018.02.002.062v1.197l.001.885-.034.215zm-.511-5.474c-.166 0-.33-.017-.49-.065-.132-.039-.253-.103-.353-.197-.114-.111-.183-.246-.221-.4l-.036-.295v-.92c.002-.16.026-.316.091-.465.08-.188.212-.324.398-.41.11-.049.227-.076.347-.092l.259-.012h1.2730000000000001l.054-.053-.001-.09c-.012-.111-.068-.16-.152-.184l-.137-.014h-2.09l-.026-.023v-.9830000000000001c0-.078-.003-.074.072-.074h2.316c.133 0 .263.012.391.047.138.035.265.094.373.189.138.121.22.275.261.451.028.119.041.238.041.357v2.193c-.002.188-.033.371-.123.539-.084.159-.201.289-.358.381-.107.063-.226.097-.347.108l-.232.011-1.31.001zm2.687 3.485l-.001.082-.029.029h-.632l-.062.002c-.061.006-.086.029-.094.09l-.002.041v.646l.008.074c.017.062.062.102.125.104h.608l.055.002.022.02.002.035v.388l-.002.034-.022.021-.047.002h-.736l-.2-.026c-.163-.045-.257-.154-.289-.318l-.015-.156v-1.006l.014-.137c.029-.162.127-.26.288-.297l.135-.017h.804c.075 0 .072-.004.072.076l-.002.311zm1.917 1.127c-.002.146-.062.265-.176.354-.072.058-.155.084-.246.088h-.69l-.234-.028c-.141-.047-.231-.142-.268-.283l-.02-.168v-.361c0-.082.015-.162.052-.238.06-.117.16-.182.285-.211l.162-.016h.571l.067-.07-.001-.033-.043-.057-.079-.016h-.9540000000000001l-.053-.055v-.367l.002-.033.018-.018.055-.003h1.027l.241.035c.076.021.142.062.191.123l.057.108.033.188.003.531v.53zm.823-.815l.035.018.095.013h.388l.115.01c.084.022.15.072.205.14s.096.145.111.229l.006.067-.01.373c-.002.08-.035.148-.078.215l-.08.093c-.078.071-.174.098-.274.1h-.974l-.055-.002-.021-.021v-.44900000000000007l.023-.027h.811l.068-.004.078-.088v-.049c-.004-.051-.039-.086-.092-.092h-.416c-.167 0-.294-.082-.396-.205-.043-.051-.063-.115-.063-.184v-.423c.001-.073.025-.146.063-.213.062-.106.16-.162.279-.188l.142-.014h.9740000000000001l.021.021v.027l.004.395.001.034-.021.023h-.872l-.098.076.031.125zm2.895 1.198v.02l-.034.039h-.422l-.035-.03v-1.262l-.006-.088-.084-.073-.027-.003h-.387l-.033.003c-.043.006-.097.047-.092.102v1.268c0 .096.002.086-.084.086h-.39l-.026-.025v-2.581c0-.084-.008-.078.077-.078h.354l.048.002.019.018.002.062v.563c0 .088-.007.082.08.082h.573c.088 0 .17.021.248.062.104.053.169.143.203.252l.019.114-.003 1.467zm.568.058c-.193-.004-.31-.149-.31-.313 0-.168.141-.307.309-.307.188 0 .32.166.309.313.01.143-.121.312-.308.307zm1.101-5.754c-.041-.141-.062-.283-.062-.422v-2.16l.027-.293c.032-.173.106-.328.221-.461.148-.177.312-.294.506-.357.113-.035.227-.048.322-.056l.379-.011h1.342l.076.003.136.013.024.162v.355l-.176.023-.062.002-1.008-.001-.504.001c-.153 0-.287.021-.407.067l-.161.096c-.062.056-.104.129-.13.225l-.028.178-.007.31-.001.586.001 1.17c.001.145.015.264.045.372.031.107.082.203.149.281.062.07.146.121.273.166l.172.031.242.015h1.43c.088 0 .193.036.193.21v.168c-.005.102-.068.169-.165.178l-.008.002h-1.491c-.191 0-.363-.021-.527-.061-.121-.025-.242-.082-.363-.167-.217-.156-.364-.367-.438-.625zm1.971 5.649c-.086.07-.188.105-.301.105h-.634l-.021.023-.002.061v.641h-.504l.006-.082v-2.021l.022-.235.033-.111c.037-.084.099-.145.185-.182.075-.031.155-.05.237-.05h.661l.219.037c.133.047.217.14.256.272l.02.16v.349l.001.668c.003.154-.063.271-.178.365zm2.149-.867l-.001.537c-.002.145-.062.264-.179.352-.076.056-.162.08-.255.084h-.679c-.088 0-.172-.01-.254-.039-.086-.032-.156-.086-.201-.165l-.055-.166c-.02-.166-.007-.332-.009-.496l.019-.121c.045-.17.156-.267.323-.306l.163-.014h.6140000000000001l.021-.021v-.048c0-.075-.021-.09-.096-.104l-.061-.002h-.899c-.078 0-.073.006-.073-.074v-.373l.025-.027h1.069l.223.027c.148.037.247.127.285.279l.021.151-.001.526zm1.927 1.399c-.047.137-.135.229-.271.276l-.048.021h-1.268v-.442l.002-.026.021-.021.062-.002h.871l.088-.013.088-.104v-.006c0-.129.02-.111-.099-.111h-.537l-.129-.01c-.071-.012-.135-.039-.188-.086-.111-.098-.18-.215-.178-.367v-1.471l.021-.023h.44900000000000007l.021.021.001.061v1.166l.009.107c.014.066.049.1.117.102h.374c.066-.004.115-.041.132-.102l.006-.062v-1.213l.002-.062.021-.021h.44900000000000007l.018.021.003.061v1.076l.002.992-.039.238zm.118-5.331h-1.253c-.193 0-.361-.027-.515-.086-.313-.121-.539-.332-.667-.629-.043-.102-.07-.212-.088-.35l-.012-.283v-.52c0-.144.015-.282.043-.411.025-.128.068-.244.131-.353.117-.208.295-.359.529-.448.139-.055.291-.086.453-.092l.143-.005h1.897l-.002-.132c-.002-.137-.024-.251-.067-.35-.051-.115-.115-.205-.194-.274l-.177-.091-.289-.03-.736-.001-1.479.001-.076-.003c-.1-.008-.162-.074-.166-.178v-.187c.002-.065.025-.17.166-.188l.065-.002 2.093.002c.195 0 .369.013.531.039.163.026.309.099.434.215.115.107.211.241.293.409.076.156.123.323.141.498l.01.22-.001.631.001 1.262c.002.136-.009.279-.027.426-.017.116-.06.228-.131.344-.179.292-.443.472-.783.541l-.267.025zm2.214 3.417l-.026.029h-.8670000000000001l-.098.076.036.127.037.019.094.012h.408c.104 0 .191.037.264.111.104.102.162.227.152.377l-.009.299c-.003.164-.083.285-.21.379-.066.049-.146.059-.229.061h-1.009l-.039-.041v-.422l.035-.037h.797l.062-.002c.057-.008.085-.037.089-.094l-.001-.047c-.006-.049-.039-.084-.089-.09h-.422c-.171-.002-.298-.086-.399-.215-.042-.052-.06-.117-.059-.185l.001-.401c.006-.189.112-.369.353-.412l.144-.013h.9520000000000001l.031.033.002.319v.117zm-.026-3.414l-.037-.231v-3.029c0-.184.02-.349.061-.503.047-.188.129-.346.25-.48.137-.149.316-.253.533-.309.098-.027.207-.044.33-.051.137-.01.275-.024.415-.005l.132.016.021.154v.338l-.147.043-.071.004-.16-.001-.074.001-.273.033-.173.07c-.094.057-.163.137-.208.242l-.066.255-.008.226v2.994c0 .062 0 .128-.053.18-.052.053-.117.053-.15.053h-.322zm1.946 4.614c-.069.179-.203.273-.395.289h-.7070000000000001l-.188-.022c-.188-.047-.301-.195-.31-.377l-.004-.103v-.348l.011-.113c.039-.185.151-.289.33-.33l.157-.014h.6130000000000001l.023-.027-.001-.073-.046-.062-.072-.015h-.988l-.021-.022-.001-.033v-.36l.001-.033.021-.023h1.088l.242.037c.127.037.209.123.248.25l.028.193.002 1.006-.031.18zm1.213-1.976l-.004.032-.025.025h-.151l-.087.016-.081.103-.002.027c0 .118-.017.102.098.104h.205l.047.041v.416l-.002.015-.028.028h-.252l-.048.003-.019.018-.002.068v1.278c0 .103.011.09-.092.09h-.326l-.056-.002-.018-.018-.002-.062v-2.1310000000000002l.01-.123c.023-.096.076-.178.156-.238.088-.065.188-.102.297-.106l.342-.002.037.037.003.02v.361zm1.759 1.134l-.039.058-.375.141-.655.246-.05.09.013.045.073.053h.9490000000000001c.081 0 .077-.006.077.076v.39499999999999996l-.031.029h-1.088l-.155-.014c-.169-.033-.308-.178-.335-.348l-.014-.154.002-.975c0-.101.027-.191.078-.277.051-.082.125-.137.219-.164l.175-.025h.681l.168.025c.166.043.262.152.295.318l.016.129-.004.352zm.541 1.129c-.186-.002-.315-.146-.311-.313-.011-.133.108-.305.307-.307.188 0 .31.158.312.307.003.159-.129.315-.308.313zm.34-5.672c-.12.328-.35.556-.68.673-.119.045-.252.072-.416.087l-.305.009h-.9530000000000001c-.147-.002-.295-.018-.439-.043-.096-.019-.18-.047-.258-.092-.303-.164-.5-.41-.579-.735-.037-.153-.056-.3-.056-.448v-1.906c0-.191.025-.373.076-.539.057-.19.146-.347.271-.477.137-.141.311-.241.516-.301.149-.044.312-.064.512-.064h1.855l.002-1.212c-.001-.117.068-.187.195-.187h.17c.117 0 .186.068.189.188v4.443h.002c0 .218-.033.423-.102.604zM29.582 27.021c-.007-.101-.064-.174-.162-.202l-.105-.018-.851.002-.114.016c-.058.011-.096.046-.112.105l-.016.086-.002.354.046.104c.065.063.137.1.23.098h.815l.109-.014c.104-.027.16-.096.163-.205v-.217l-.001-.109zM43.156 26.179l-.224.024c-.218.048-.363.172-.44.377-.032.085-.05.176-.051.269v.76l.036.244.044.096.103.104c.158.131.329.194.523.194h.565l.707-.002c.118 0 .217-.017.309-.052.137-.051.229-.142.283-.28.039-.1.058-.207.058-.326v-1.407l-1.913-.001zM32.336 32.89l-.096-.029h-.196l-.211.002c-.067.002-.094.031-.098.097l-.001.137c.002.076.045.121.124.123h.4c.08 0 .108-.053.112-.104v-.17l-.034-.056zM41.778 32.866l-.048-.002h-.211l-.184.002c-.069.002-.095.033-.098.099l.001.147c.002.053.037.092.09.104l.062.006h.341l.054-.004.076-.051.018-.072v-.117c.004-.065-.027-.093-.101-.112zM48.045 32.89l-.082-.029h-.406l-.053.01-.052.051-.009.041v.144c.005.063.049.104.113.112l.047.002h.22l.155-.002c.054.002.105-.048.103-.104v-.162l-.036-.063zM24.375 32.346c-.008-.055-.042-.089-.099-.098h-.394c-.06-.002-.099.025-.124.076l-.02.086v.639l.013.074.067.07.061.012h.381l.104-.072.013-.074v-.657l-.002-.056zM50.975 32.297l-.077-.021h-.347l-.08.018c-.049.019-.078.052-.078.107v.172l.023.014.026-.008.517-.188.031-.014.016-.046-.031-.034zM26.31 32.888l-.09-.025h-.374l-.054.004c-.053.006-.078.031-.08.084l-.002.162c.004.054.039.093.092.104l.061.006h.293l.081-.002c.063-.004.097-.032.107-.094l.001-.183-.035-.056z"/></svg>