<svg xmlns="http://www.w3.org/2000/svg" viewBox="0 0 56.48 56.48" enable-background="new 0 0 56.48 56.48"><path d="M48.935 23.346c-.222 0-.403.186-.403.418s.183.417.403.417c.222 0 .404-.188.404-.417s-.18-.418-.404-.418zm.092.711l-.164-.227v.226h-.139v-.583h.188c.142 0 .222.064.222.181 0 .081-.045.141-.127.163l.19.24h-.17zM48.889 23.581h-.025v.152h.023c.069-.001.106-.025.106-.077 0-.05-.035-.075-.104-.075zM55.026 9.939h-53.572c-.804 0-1.454.651-1.454 1.454v33.694c0 .803.65 1.455 1.454 1.455h53.572c.804 0 1.454-.651 1.454-1.454v-33.695c0-.803-.65-1.454-1.454-1.454zm-6.085 13.316c.274 0 .502.231.502.509 0 .28-.228.509-.502.509-.283 0-.511-.227-.511-.509 0-.283.225-.509.511-.509zm-4.853.132h1.922c1.497 0 2.353.718 2.353 1.962 0 1.018-.539 1.685-1.515 1.884l2.093 2.799h-1.595l-1.793-2.67h-.168v2.67h-1.297v-6.645zm-4.533 0h3.674v1.126h-2.379v1.475h2.293v1.125h-2.293v1.794h2.379v1.125h-3.674v-6.645zm-5.556-.002l1.771 4.463 1.795-4.463h1.403l-2.871 6.815h-.694l-2.82-6.814h1.416zm-7.803 1.972c.535-1.269 1.793-2.159 3.256-2.159 1.953 0 3.535 1.582 3.535 3.533 0 .245-.024.484-.072.714l-.038.154-.05.184c-.444 1.438-1.789 2.483-3.375 2.483-1.951 0-3.533-1.582-3.533-3.533 0-.488.097-.952.277-1.376zm-2.294-2.118c.557 0 1.026.119 1.594.408v1.524c-.537-.527-1.006-.748-1.625-.748-1.215 0-2.17 1.007-2.17 2.282 0 1.345.925 2.292 2.23 2.292.587 0 1.046-.21 1.564-.729v1.524c-.588.28-1.066.388-1.625.388-1.973 0-3.506-1.514-3.506-3.466 0-1.931 1.574-3.477 3.538-3.475zm-12.123 6.026c-.639.53-1.365.768-2.369.768h-1.893v-6.645h1.9c2.101 0 3.566 1.366 3.566 3.327 0 .977-.447 1.92-1.204 2.55zm3.097.766h-1.295v-6.645h1.295v6.645zm2.788.162c-.985 0-1.701-.389-2.299-1.266l.838-.807c.297.577.797.887 1.414.887.578 0 1.006-.4 1.006-.938 0-.279-.129-.519-.389-.688-.13-.08-.388-.199-.896-.378-1.217-.438-1.633-.907-1.633-1.822 0-1.087.894-1.903 2.07-1.903.728 0 1.394.249 1.953.736l-.678.889c-.338-.379-.658-.539-1.045-.539-.559 0-.967.318-.967.737 0 .357.229.549 1.008.836 1.472.538 1.91 1.016 1.91 2.071 0 1.288-.945 2.182-2.292 2.185zm37.801 15.34h-35.269c22.814-3.934 35.269-12.723 35.269-12.723v12.723zM10.93 25.051c-.427-.387-.935-.538-1.771-.538h-.348v4.394h.348c.835 0 1.365-.161 1.771-.528.449-.399.719-1.036.719-1.674 0-.637-.27-1.255-.719-1.654zM45.782 24.432h-.397v2.012h.377c.828 0 1.266-.359 1.266-1.028 0-.645-.438-.984-1.246-.984z"/></svg>