<svg xmlns="http://www.w3.org/2000/svg" viewBox="0 0 56.48 56.48" enable-background="new 0 0 56.48 56.48"><path d="M39.537 28.987l-.308-.991-.411-1.348-.035.059-.698 2.297c-.033.106.016.116.102.116.418-.003.836-.005 1.253 0 .113.002.128-.034.097-.133zM23.25 26.703c-.372-1.05-1.717-1.091-2.289-.432-.264.305-.381.661-.439 1.046-.03.2-.027.203.17.203h1.267c.438 0 .876-.008 1.315.002.132.003.156-.042.136-.158-.04-.224-.083-.447-.16-.661zM55.026 9.939h-53.572c-.804 0-1.454.651-1.454 1.454v33.695c0 .803.65 1.454 1.454 1.454h53.572c.804 0 1.454-.651 1.454-1.454v-33.695c0-.802-.65-1.454-1.454-1.454zm-38.215 14.212c-.407 1.855-.812 3.709-1.216 5.562l-.531 2.424-.009.099c-.082.257-.082.257-.368.257-.678 0-1.354-.005-2.031.002-.122 0-.175-.029-.213-.152-.478-1.602-.963-3.199-1.446-4.801l-.052-.144-.7 2.387c-.25.854-.503 1.712-.749 2.567-.031.106-.076.143-.189.143-.736-.007-1.474-.007-2.211 0-.124 0-.164-.04-.188-.154-.261-1.207-.524-2.41-.792-3.615-.111-.498-.256-.988-.349-1.489l-.459-2.162c-.059-.312-.142-.621-.216-.931-.025-.108-.015-.163.124-.158.443.007.889.003 1.332.003l.88-.003c.092 0 .134.023.151.12.269 1.44.542 2.883.813 4.323l.049.242.405-1.441c.292-1.034.582-2.07.872-3.107l.046-.137.187-.005h.133c.639.003 1.278.01 1.917.005.143-.002.192.048.228.177.398 1.45.802 2.897 1.204 4.345l.056.178.267-1.392.594-3.159c.019-.101.051-.15.175-.148.72.007 1.44.007 2.161 0 .146-.005.151.047.125.164zm9.496 4.866l-1.315-.002c-1.447 0-2.894.002-4.341-.002-.144 0-.168.029-.142.17.057.3.122.595.297.852.511.751 1.645.854 2.278.173.214-.229.405-.295.707-.258.82.104 1.646.166 2.49.246-.218.41-.473.771-.776 1.093-.53.571-1.188.911-1.951 1.053-.982.186-1.969.198-2.957.039-1.392-.229-2.302-1.059-2.808-2.33-.469-1.175-.467-2.38-.017-3.557.476-1.244 1.397-2.028 2.691-2.342 1.088-.265 2.188-.234 3.263.07 1.394.393 2.206 1.36 2.549 2.746.155.63.179 1.274.178 1.918.001.119-.049.131-.146.131zm4.83.423c-.149.005-.34-.066-.438.034-.088.094-.025.279-.025.424-.002.836-.004 1.669.002 2.503 0 .127-.033.163-.162.163-.834-.008-1.668-.008-2.503 0-.132 0-.17-.033-.17-.172.005-1.448.003-2.9.003-4.353l-.008-.194.007-1.787c.001-.666.002-1.331-.002-1.997-.001-.111.023-.148.141-.148 1.474.004 2.946 0 4.419.007.521.002 1.031.092 1.506.33.596.3.959.784 1.148 1.412l.051.17c.088.506.107 1.011.001 1.519-.229 1.078-.959 1.771-2.076 1.992-.63.125-1.263.086-1.894.097zm12.26 3.124c-.882-.008-1.765-.006-2.647 0-.109 0-.162-.026-.193-.139l-.324-1.103c-.034-.125-.09-.158-.215-.155-.812.006-1.623.006-2.438 0-.113-.003-.17.028-.203.146l-.328 1.138c-.023.083-.062.113-.146.108l-.424.007h-2.36l.283-.763c.266-.726.515-1.459.795-2.18.726-1.854 1.405-3.726 2.106-5.588.03-.088.072-.125.172-.125.908.004 1.818.004 2.729 0 .109 0 .146.045.182.137.455 1.226.916 2.45 1.375 3.676l.019.026.06.184c.555 1.491 1.109 2.978 1.67 4.465.043.13.035.166-.113.166zm7.389-7.72c-.887 1.334-1.772 2.668-2.661 4-.056.082-.072.162-.072.26l.004 3.299c.002.127-.03.163-.159.163-.835-.009-1.671-.009-2.503 0-.143.002-.168-.046-.166-.175l.005-3.25c0-.127-.032-.229-.103-.332-1.048-1.565-2.093-3.133-3.139-4.7l-.121-.189h1.656l1.365-.002c.102-.002.154.033.203.118.475.808.953 1.61 1.433 2.415l.101.168c.069-.033.084-.095.112-.142.483-.811.967-1.617 1.444-2.43.058-.097.117-.13.229-.13.986.005 1.971.002 2.984.002l-.612.925zM31.875 25.929c-.232-.065-.471-.07-.671-.065h-.429c-.066-.003-.101.016-.101.089l.002 1.447c0 .053.006.097.076.097.393-.007.79.041 1.174-.097.336-.12.515-.396.498-.771-.016-.34-.225-.611-.549-.7z"/></svg>