<svg xmlns="http://www.w3.org/2000/svg" viewBox="0 0 56.48 56.48" enable-background="new 0 0 56.48 56.48"><path d="M22.485 40.708l-2.191.04v1.598l2.17.018c.822.021.876-1.645.021-1.656zM22.183 37.958l-1.89-.038v1.543h1.869c.969.037.668-1.508.021-1.505zM35.288 37.958l-1.891-.038v1.543h1.868c.97.037.671-1.508.023-1.505zM35.59 40.708l-2.191.04v1.598l2.169.018c.823.021.876-1.645.022-1.656zM55.026 9.939h-53.572c-.804 0-1.454.651-1.454 1.454v33.694c0 .803.65 1.455 1.454 1.455h53.572c.804 0 1.454-.651 1.454-1.454v-33.695c0-.803-.65-1.454-1.454-1.454zm-26.806 3.006c.026-.045.093-.063.163-.053.136-.021.347.086.244.333-.167.346-.301.784-.18 1.087.625 1.564 3.75 2.651 5.271 4.298 2.682 2.924-.504 6.506-2.461 8.776-.088.074-.18.102-.242.088-.117.021-.192-.052-.108-.2 1.372-2.8-1.311-3.512-2.911-4.702-5.796-4.231-1.093-6.887.224-9.627zm-2.709 9.492c.033-.087.28-.066.224.152.248 1.6 2.529 2.103 3.493 3.038 1.846 1.656.714 4.126-.793 5.854-.101.118-.234.098-.177-.048.15-1.157-1.218-1.947-2.276-2.58-4.575-2.45-1.148-4.572-.471-6.416zm-2.532 21.105l-2.686.042v.006h-1.525v-6.857h1.5039999999999998l2.47.021c1.222-.033 2.16 2.152.58 3.329 2.11.591 1.356 3.456-.343 3.459zm6.588 0l-2.686.042v.006h-1.525v-6.857h1.503l2.47.021c1.222-.033 2.16 2.152.58 3.329 2.111.591 1.357 3.456-.342 3.459zm1.142-8.05l-5.01.017-.712-1.936h-2.578v-.018l-.496-.008.51-1.434.01.04h11.514l.01-.04.511 1.434-.5.008v.018h-2.605l-.654 1.919zm5.374 8.05l-2.685.042v.006h-1.525v-6.857h1.504l2.471.021c1.222-.033 2.16 2.152.58 3.329 2.109.591 1.354 3.456-.345 3.459zM28.772 37.956l-1.891-.038v1.543h1.869c.969.039.668-1.506.022-1.505zM29.072 40.708l-2.191.04v1.598l2.169.018c.824.021.878-1.645.022-1.656z"/></svg>