<svg xmlns="http://www.w3.org/2000/svg" viewBox="0 0 56.48 56.48" enable-background="new 0 0 56.48 56.48"><path d="M15.814 20.447c-.294-.088-.652-.138-.982-.165-.875-.072-1.734.028-2.57.303-1.732.571-3.099 1.635-4.171 3.093-.228.31-.426.641-.638.963l.037.026.084-.122c.876-1.335 2.017-2.379 3.459-3.075 1.475-.713 3.018-.954 4.634-.597.297.065 1.828.592 3.217 1.681-.824-1.304-2.22-1.925-3.07-2.107zM17.786 24.012l-.252-.035-1.581.008c-.118 0-.167.042-.191.155-.306 1.479-.611 2.959-.925 4.437-.12.563-.238 1.128-.481 1.655-.188.406-.46.732-.889.896-.414.157-.843.182-1.275.094-.546-.112-.956-.492-.887-1.172l.02-.216c.097-.479.193-.961.297-1.438l.829-3.796c.083-.385-.106-.611-.5-.613l-.784-.001-.824-.001c-.112-.002-.157.042-.18.15-.283 1.315-.574 2.627-.854 3.942-.173.813-.388 1.619-.39 2.461-.001.414.072.806.277 1.167.343.607.878.982 1.518 1.213 1.141.411 2.305.396 3.473.141.907-.2 1.628-.68 2.111-1.488.27-.452.458-.939.577-1.45.216-.928.413-1.86.612-2.793.202-.946.398-1.893.592-2.84.045-.238-.061-.408-.293-.476zM55.026 9.939h-53.572c-.804 0-1.454.651-1.454 1.454v33.694c0 .803.65 1.455 1.454 1.455h53.572c.804 0 1.454-.651 1.454-1.454v-33.695c0-.803-.65-1.454-1.454-1.454zm-37.19 24.019c-1.148 1.193-2.53 2.014-4.15 2.399-.414.097-.844.128-1.266.191l-.063.018h-.676l-.439-.053c-1.157-.135-2.209-.543-3.127-1.26-1.521-1.19-2.311-2.791-2.594-4.671l-.084-.692v-1l.02-.063c.034-.299.049-.603.101-.898.439-2.492 1.616-4.56 3.586-6.158 1.116-.906 2.381-1.51 3.807-1.752l.759-.104h.838c.248.035.499.06.746.106 2.039.384 3.536 1.514 4.521 3.327.518.954.803 1.983.868 3.066.175 2.935-.822 5.442-2.847 7.544zm10.367-.922l-1.973.004c-.092.001-.147-.036-.196-.112l-1.324-2.021-.073-.102-.164.791-.168.82c-.086.408-.345.621-.762.623h-1.338c-.164 0-.191-.035-.158-.195.61-2.901 1.22-5.803 1.827-8.704.022-.106.063-.152.178-.151l1.23.004c.484.005.73.306.63.781-.258 1.233-.52 2.465-.78 3.696l-.036.194.355-.341c.599-.592 1.196-1.186 1.799-1.774.051-.049.138-.089.208-.089.743-.006 1.486-.005 2.23-.001l.163.056-.082.166c-1.134 1.029-2.27 2.057-3.405 3.082l-.127.121.992 1.4 1.083 1.533c.032.046.056.121.041.167-.01.031-.097.052-.15.052zm7.308-2.203c-.129.547-.277 1.09-.42 1.633-.094.359-.328.558-.695.568-.441.012-.883.004-1.324.002-.129-.001-.161-.046-.131-.171l.102-.403c-.469.567-1.097.731-1.787.756-.408.016-.809-.009-1.199-.137-.658-.217-1.026-.675-1.121-1.354-.05-.356-.03-.709.074-1.055.171-.573.576-.918 1.108-1.139.567-.234 1.17-.318 1.774-.375l1.277-.109c.117-.013.237-.058.346-.108.306-.141.453-.457.379-.784-.053-.232-.211-.364-.428-.424-.361-.098-.725-.088-1.08.025-.289.092-.465.303-.529.596-.026.114-.082.145-.188.144l-1.703-.002c-.166 0-.189-.032-.149-.194.243-1.009.866-1.655 1.877-1.89 1.03-.24 2.066-.202 3.087.07.129.034.254.089.375.148.6.295.883.803.84 1.47-.06.931-.271 1.832-.485 2.733zm7.047-2.427l-1.607.002c-.125.001-.175-.038-.182-.169-.019-.353-.229-.563-.616-.615-.263-.035-.523-.013-.769.099l-.213.137c-.253.235-.218.593.094.737.252.116.524.186.791.263.397.114.804.198 1.194.332.88.301 1.159.822 1.134 1.765-.006.205-.041.413-.093.612-.177.677-.637 1.099-1.271 1.349-.517.203-1.06.277-1.611.299-.569.024-1.134.01-1.686-.16-.894-.277-1.369-.899-1.494-1.81l-.021-.188c-.014-.166.01-.192.174-.192h1.661c.092-.002.135.034.149.13.076.506.277.715.785.799.291.047.584.035.859-.095.177-.084.316-.21.364-.409.073-.297-.034-.54-.323-.644-.338-.121-.691-.199-1.035-.3-.328-.094-.666-.166-.98-.293-.723-.291-1.031-.803-1.02-1.582.01-.876.433-1.488 1.219-1.823 1.14-.484 2.318-.539 3.492-.132.781.27 1.189.894 1.19 1.704 0 .168-.014.186-.185.184zm7.477 1.156l-.64 2.857c-.092.407-.34.615-.764.618l-1.311.001c-.213-.001-.233-.027-.188-.24.256-1.187.514-2.373.76-3.562.045-.217.069-.448.048-.668-.04-.402-.319-.627-.724-.639-.625-.018-1.092.253-1.322.831-.161.407-.261.84-.36 1.268-.175.768-.325 1.54-.489 2.311-.099.469-.388.701-.865.701h-1.23c-.188 0-.213-.031-.173-.218l1.041-4.91c.264-1.245.528-2.49.786-3.736.029-.145.083-.19.229-.187.446.009.892.002 1.339.003.389.001.582.229.502.612-.166.801-.338 1.601-.509 2.402l-.043.209c.267-.312.585-.539.957-.689.679-.275 1.374-.374 2.081-.127.67.233 1.074.828 1.1 1.564.019.547-.113 1.073-.225 1.599zm1.008-4.567l-.087.194c-.192.368-.653.527-1.073.373-.385-.141-.593-.547-.492-.964.093-.396.473-.653.896-.611.395.04.635.263.756.63v.378zM50.379 24.551l-.307-.085v.273l.303-.071.004-.117zM50.212 24.164c-.344-.005-.613.272-.615.633-.003.362.26.642.604.645.339.003.616-.279.62-.634.005-.35-.268-.641-.609-.644zm.373 1.083c-.125.036-.209.018-.259-.104l-.12-.21-.141-.105v.426h-.178v-.896c.17 0 .345-.014.515.004.119.012.181.107.185.231.004.12-.033.212-.158.251l-.067.027.223.376zM32.947 30.224l-.659.072c-.31.036-.618.076-.884.256-.277.188-.357.463-.312.779.037.266.209.428.457.493.475.125.924.063 1.311-.253.471-.387.605-.936.699-1.488l-.612.141z"/></svg>