<svg xmlns="http://www.w3.org/2000/svg" viewBox="0 0 56.48 56.48" enable-background="new 0 0 56.48 56.48"><path d="M5.937 21.055l-.051.122c-.157.528-.036 1.011.389 1.428.371.364.879.244 1.366.249v-2.607c-.971-.122-1.388.081-1.704.808zM6.267 29.336l.001.508c-.008 1.063-.006 2.129-.307 3.168-.149.518-.396 1.016-.599 1.521h2.37v-5.197h-1.465zM13.726 29.546c-.143-.242-.354-.429-.71-.445-.364-.018-.581.17-.744.399-.383.539-.495 1.138-.555 1.776h2.375c.003-.605-.049-1.188-.366-1.73zM25.547 32.713c-.162-.781-.789-1.094-1.728-.895-.069.015-.165.104-.165.159-.012.83-.008 1.662-.008 2.505.938.223 1.716-.138 1.895-.896.066-.281.064-.591.006-.873zM55.026 9.939h-53.572c-.804 0-1.454.651-1.454 1.454v33.694c0 .803.65 1.455 1.454 1.455h53.572c.804 0 1.454-.651 1.454-1.454v-33.695c0-.803-.65-1.454-1.454-1.454zm-31.98 13.543c.047-.501.193-.978.563-1.39.481-.534 1.363-.635 2.007-.212l-.245.308-.06.007c-.78-.211-1.249-.022-1.485.617-.174.467-.211.949-.11 1.428.192.924.923 1.244 1.985.89.098.43.042.483-.459.6-.709.167-1.4-.081-1.797-.609-.38-.505-.451-1.064-.399-1.639zm-17.265-3.363c.327-.289.725-.439 1.205-.437h1.02c.37.001.371 0 .371.297v5.7h-.716v-2.195c-.422-.081-.444-.073-.623.203-.388.602-.785 1.2-1.159 1.807-.098.157-.207.225-.419.206l-.537-.003 1.524-2.294c-1.494-.403-1.789-2.291-.666-3.284zm3.966 16.68h-1.05v-1.473h-3.915v1.467h-1.081v-2.223l.073-.021c.4.066.557-.118.688-.396.396-.847.594-1.726.667-2.622.082-1.009.106-2.022.156-3.051h3.621v6.062h.841v2.257zm.402-11.107h-.637v-3.908h.618v1.584h1.182v-1.579h.633v3.905h-.629v-1.752h-1.167v1.75zm1.766 9.579c-.544-.267-.871-.683-1.064-1.161-.642-1.582-.57-3.15.268-4.673.286-.519.711-.957 1.408-1.146.671-.182 1.209-.051 1.656.399.505.51.749 1.118.872 1.751.097.506.102 1.027.15 1.562h-3.456c.01.644.001 1.252.234 1.842.302.768.994 1.06 2.053.844.327-.067.635-.189.978-.293l.213.521c-.924.648-2.399.802-3.312.354zm4.079-8.849h-.557v-.795h-2.213v.799h-.589v-1.23c.317.042.378-.159.46-.347.332-.762.361-1.559.395-2.355l.001-.711h2.043v3.39l.46.018v1.231zm.864-4.039c.108-.19.262-.377.445-.523.487-.391 1.1-.315 1.454.161.403.542.481 1.138.439 1.774h-1.935c-.014.425-.025.831.204 1.209.195.323.561.437 1.074.333.184-.037.36-.101.543-.154.208.222.2.317-.101.422-.27.094-.557.175-.844.205-.594.063-1.106-.191-1.33-.688-.153-.338-.252-.703-.297-1.062-.072-.578.043-1.146.348-1.677zm3.993 12.997h-1.122v-3.125h-1.534c-.53 0-.53-.002-.53.442v2.683h-1.118v-6.902h1.104v2.822h2.07v-2.826c.352 0 .673-.006.992.007.052.002.105.079.147.128l.003.085.001 6.483-.013.203zm1.309-9.779c-.068-.008-.14-.093-.182-.157l-.956-1.434c-.045-.068-.096-.133-.215-.206-.04.152-.11.304-.116.456-.016.443-.006.886-.006 1.339h-.62v-3.815h.611v1.68l.186-.181c.352-.419.717-.831 1.046-1.263.15-.196.317-.285.59-.248l.259.001-.15.197c-.375.45-.744.903-1.13 1.346-.104.119-.098.206-.017.326.428.641.846 1.284 1.294 1.967-.225 0-.412.015-.594-.008zm4.756 8.427c-.364.832-1.141 1.238-2.16 1.312-.68.051-1.369.01-2.082.01v-6.872h.964v2.473c.479 0 .931-.028 1.375.006 1.127.091 1.833.656 2.02 1.585.1.505.096 1.007-.117 1.486zm5.285-4.861h-3.112v6.212h-1.023v-6.908h4.137l-.002.696zm3.758 6.213v-4.537l-2.097 4.543h-1.098v-6.912h1.119v4.259l.053.009.587-1.249c.44-.952.883-1.901 1.319-2.854.061-.137.142-.188.322-.181.346.015.694.005 1.055.005l.001 6.917h-1.261zm16.521-.133c-.24.197-.535.264-.855.264-1.475.002-2.947 0-4.42 0-1.482 0-2.964.002-4.445 0-.742-.002-1.278-.338-1.485-.924l-.036-.254c-.002-1.724.003-3.447-.004-5.171-.003-.608.342-1.034.961-1.33 2.102-1.001 4.204-2.002 6.305-3.005.344-.164.694-.277 1.09-.135.344.125.492.366.494.655.006 1.825.024 3.65-.01 5.473-.011.563-.372 1.011-1.041 1.235-1.484.498-2.971.986-4.456 1.479-.371.123-.743.243-1.112.373-.117.042-.235.101-.326.174-.069.059-.157.18-.129.229.045.072.182.149.281.149.23.001.468-.024.692-.073 2.001-.434 3.999-.879 5.999-1.32.643-.143 1.18-.706 1.182-1.256.006-1.049.01-2.098-.004-3.146-.002-.215.069-.304.338-.276l.418.002c.459.006.773.231.84.606l.021.322c.002 1.681.002 3.36.001 5.042 0 .317.014.635-.299.887zM47.579 27.765c-.496.063-.82.306-.97.692-.163.417.099.748.569.75.562.001 1.133-.528 1.062-.985-.047-.295-.333-.498-.661-.457zM14.072 22.263c-.043.991.038 1.985-.559 2.908h1.376v-2.908h-.817zM18.352 22.338c-.193-.283-.554-.292-.771-.021-.25.313-.323.667-.343 1.049h1.348c.008-.366-.018-.713-.234-1.028z"/></svg>