<svg xmlns="http://www.w3.org/2000/svg" viewBox="0 0 56.48 56.48" enable-background="new 0 0 56.48 56.48"><path d="M37.713 35.59c-.289-.494-.725-.754-1.234-.778-.305.002-.533.058-.748.174-.928.498-1.113 1.795-.369 2.549.564.571 1.424.604 2.027.075.562-.491.705-1.365.324-2.02zM20.562 35.286c-.422-.459-1.1-.606-1.662-.343-.613.288-.891.8-.924 1.412.014.525.182.938.543 1.257.355.313.775.437 1.246.346.666-.127 1.232-.737 1.232-1.565.001-.424-.148-.797-.435-1.107zM49.916 35.568c-.494-.89-1.664-1.063-2.389-.351-.598.59-.631 1.597-.066 2.219.396.435.885.603 1.461.478.654-.141 1.191-.746 1.201-1.551 0-.282-.07-.545-.207-.795zM55.026 9.939h-53.572c-.804 0-1.454.651-1.454 1.454v33.694c0 .803.65 1.455 1.454 1.455h53.572c.804 0 1.454-.651 1.454-1.454v-33.695c0-.803-.65-1.454-1.454-1.454zm-22.302 13.978c-.193-1.208-.582-2.35-1.168-3.426l-.205-.366c.75-.43 1.531-.757 2.371-1.011 1.311 3.654 1.154 7.185-.592 10.602h-.875c.34-1.15.559-2.322.604-3.524.03-.762-.011-1.52-.135-2.275zm-4.237-1.295c.646-.858 1.433-1.575 2.334-2.171l.039.059c.86 1.531 1.303 3.179 1.358 4.933.017.595-.018 1.19-.09 1.781-.1.813-.281 1.608-.525 2.388l-.032.103h-1.229c.17-2.552-.436-4.913-1.855-7.093zm-2.409 7.094h-1.195c-.269-.841-.463-1.7-.568-2.58-.062-.534-.086-1.071-.076-1.608.009-.549.06-1.093.152-1.632.166-.974.464-1.905.896-2.793l.346-.667.078.051c.844.571 1.582 1.254 2.201 2.064.043.056.049.09.006.153-.998 1.48-1.572 3.116-1.795 4.881-.068.555-.091 1.109-.07 1.665l.025.466zm-3.139-11.049l.244-.56c.444-.984.985-1.915 1.594-2.808.035-.052.063-.071.129-.042 1.004.464 1.951 1.022 2.828 1.698l.049.044c-.934.795-1.746 1.687-2.424 2.718-.762-.449-1.568-.793-2.42-1.05zm4.198 2.388c-.391-.371-.811-.706-1.264-1.013.647-1.022 1.434-1.905 2.354-2.69.919.783 1.71 1.675 2.358 2.7-.453.306-.876.64-1.271 1.012-.395.369-.754.773-1.09 1.209-.334-.442-.693-.844-1.087-1.218zm1.53-4.061c.921-.714 1.908-1.296 2.97-1.776.758 1.088 1.403 2.233 1.91 3.467-.857.258-1.666.597-2.443 1.046-.674-1.029-1.491-1.929-2.437-2.737zm5.207 12.394c.723-1.603 1.125-3.283 1.186-5.042.028-.739-.018-1.477-.116-2.211-.119-.895-.324-1.769-.606-2.625l-.183-.534c.441-.085.867-.183 1.297-.249.367-.057.73-.097 1.099-.135v11.124h-2.828l.151-.328zm.124-10.826c-.506-1.25-1.154-2.42-1.926-3.53 1.444-.601 2.94-.981 4.479-1.181v4.309c-.863.059-1.713.189-2.553.402zm2.552-5.479v.117l-.832.127c-1.351.238-2.652.641-3.908 1.192-.068.029-.101.017-.146-.042-.367-.486-.754-.952-1.164-1.395l6.05.001zm-6.603 0c.473.533.923 1.086 1.354 1.664-1.096.525-2.121 1.144-3.073 1.889-.95-.742-1.971-1.361-3.063-1.882.426-.58.879-1.137 1.354-1.671h3.428zm-10.018 0h6.033c-.43.469-.834.964-1.219 1.476-1.546-.677-3.142-1.143-4.814-1.354v-.122zm4.468 1.955l-.039.061c-.726 1.06-1.344 2.182-1.828 3.376-.023.062-.054.065-.109.05-.754-.199-1.522-.316-2.295-.389l-.197-.014-.001-4.266c1.539.201 3.03.583 4.469 1.182zm-18.898 26.964c-.041.288-.209.467-.477.559-.139.049-.284.063-.434.056l-.555-.003v1.168h-.52v-2.854h1.102c.51 0 .883.367.889.877l-.005.197zm2.757 1.776l-.137-.453h-.965l-.146.452h-.623c0-.081.715-2.141.988-2.844h.531l.949 2.845h-.597zm-.179-4.794c-.01-.265-.004-.528-.004-.792v-2.375l-.016-.016-.008-.006-.084-.009-3.17.003-.039.014v3.164l-.318.006h-.9239999999999999v-7.223h1.238v2.893c.095.027 3.218.027 3.32.003v-2.863h1.207l.001 7.19c-.074.024-1.023.032-1.203.011zm3.596 2.065l-.633 1.428-.037.185v1.117h-.699v-1.115l-.039-.182-.627-1.42-.053-.13h.676l.385 1.07h.023l.369-1.068h.682l-.047.115zm3.885 2.724c-.225.016-.45.012-.682.006v-1.358l-.072.055-.365.539-.055.074h-.275l-.455-.693-.023.007-.002.442v.91c-.076.029-.506.035-.67.014-.02-.077-.028-2.656-.008-2.834l.076-.01.504-.002c.066-.002.1.02.125.082l.443 1.006c.04.092.088.137.186.119h.088l.51-1.201h.664c.021.081.031 2.602.011 2.844zm-3.862-6.933c.148.543.488.897 1.039 1.028.537.127 1.048.054 1.521-.239.149-.093.276-.205.387-.337l.064-.067.906.586c-.108.172-.24.307-.379.434-.482.429-1.046.675-1.691.734-.516.049-1.02-.008-1.5-.213-.736-.315-1.209-.869-1.41-1.642-.166-.643-.133-1.284.121-1.901.289-.703.808-1.166 1.535-1.385.611-.185 1.233-.166 1.838.026.662.211 1.109.66 1.375 1.293.164.395.244.809.254 1.235l.002.334h-4.084l.022.114zm5.587 6.938v-2.845h1.697v.451h-1.186c-.03.08-.035.562-.01.703h.943v.51h-.938c-.024.084-.032.519-.012.703l.393.004h.81l.002.474h-1.699zm.518-5.276c-.469-.324-.746-.787-.873-1.34-.131-.566-.137-1.131.031-1.691.268-.899.877-1.444 1.791-1.638.599-.128 1.181-.052 1.732.226.17.084.324.193.459.328l.055.045v-.53c.088-.029.953-.033 1.072-.009v5.033c-.072.027-.902.034-1.113.013l-.01-.275-.002-.29-.037.016c-.231.289-.541.453-.895.529-.792.174-1.537.052-2.21-.417zm4.762 5.276h-.277l-.295.003c-.08.006-.123-.022-.16-.098-.199-.413-.406-.821-.611-1.229l-.053-.098-.021.004v1.412h-.699v-2.848l.107-.004.449-.002c.08-.005.125.022.164.094.199.37.406.735.611 1.102l.059.105c.028-.123.012-.23.016-.334v-.958h.711c.022.081.026 2.736-.001 2.851zm-2.633-14.062v-11.159c.812.068 1.611.196 2.404.411l-.029.092c-.459 1.274-.752 2.584-.844 3.938-.049.723-.041 1.442.027 2.162.069.726.202 1.442.393 2.149.224.831.527 1.633.898 2.407h-2.849zm2.837-10.625c.828.258 1.608.586 2.344 1.017l-.043.083c-.269.456-.504.93-.701 1.421-.556 1.391-.818 2.839-.773 4.338.017.508.054 1.019.117 1.526.093.76.265 1.507.486 2.239h-.82c-1.76-3.423-1.926-6.958-.61-10.624zm3.194 22.445l-.729.015-.006.733v1.4929999999999999l-.23.003h-.248v-2.236h-.705v-.631l.008-.006.008-.006.072-.009 1.795.002.035.014v.628zm.376-6.537l-.074-.009c-.244-.066-.49-.064-.734-.006-.168.039-.302.129-.4.271-.135.192-.211.408-.268.633l-.006.125v2.975h-1.127v-5.051h1.119l.006.156.006.17.09-.062c.299-.223.629-.348 1.006-.334l.383.001-.001 1.131zm.226-6.366c-.009-.666.063-1.329.184-1.988.211-1.156.608-2.244 1.215-3.254l.256-.4.057.075c.352.532.643 1.097.873 1.693.42 1.07.635 2.186.695 3.333.026.541.018 1.082-.023 1.623h-3.215c-.015-.359-.035-.718-.042-1.082zm1.398 9.362l-.02-.334c-.004-.913-.002-1.827-.002-2.739v-.143h-.609c-.024-.082-.033-.779-.012-.959h.617l.004-.384v-.749h1.125l.002.551v.561l.262.016.264.001h.267v.963h-.783l-.008.114c0 .927.002 1.853-.002 2.781 0 .138.047.236.233.242l.441.004.121.004v1.06l-.082.008-.674-.001c-.289-.007-.558-.087-.783-.279-.219-.189-.324-.436-.361-.717zm2.25 5.726l-.246.049c-.303.031-.602.009-.885-.116-.111-.05-.213-.115-.299-.218l.412-.432c.123.08.252.127.393.144.143.015.287.022.428-.013l.117-.045c.117-.067.142-.205.043-.301l-.16-.094-.235-.046c-.177-.02-.343-.069-.496-.157-.537-.302-.475-.908-.183-1.219.153-.162.341-.254.556-.295.397-.072.756.022 1.073.271l.048.045-.384.408c-.12-.076-.243-.131-.379-.137l-.258.021-.137.072c-.109.1-.088.273.047.332l.342.091.287.062c.31.093.494.294.525.621.039.415-.136.817-.609.957zm1.109-4.745v-7.159h1.109c.022.079.031 6.946.01 7.155-.072.025-.994.033-1.119.004zm2.91 2.071l-.619 1.4c-.035.078-.055.156-.053.242l.002.955v.113c-.078.026-.556.029-.689.008l-.006-.111.002-.953c0-.088-.018-.164-.053-.244l-.623-1.41-.047-.113h.676l.385 1.066.021.004.371-1.072h.68l-.047.115zm3.057 2.078c-.065.279-.24.476-.51.568-.428.147-.854.123-1.264-.074-.088-.042-.168-.098-.234-.188l.41-.431c.119.083.248.128.389.146.141.015.279.02.418-.01l.08-.021c.08-.031.142-.08.148-.172.01-.094-.041-.16-.117-.207-.099-.059-.209-.074-.32-.087-.149-.014-.291-.05-.424-.113-.281-.13-.468-.333-.488-.653-.016-.328.121-.59.402-.758.369-.221.754-.221 1.148-.057.129.053.246.129.34.217l-.383.414c-.113-.072-.236-.127-.369-.133l-.271.021-.11.055c-.129.099-.115.291.034.353l.353.093.346.086c.291.105.451.339.451.651l-.029.3zm.58-4.748l-.039.019c-.226.281-.525.438-.867.518-.732.171-1.432.074-2.082-.307-.487-.283-.809-.708-.975-1.243-.191-.623-.209-1.255-.027-1.882.262-.903.875-1.447 1.783-1.646.572-.127 1.135-.063 1.668.182.199.092.379.212.535.363l.061.053v-.533c.084-.028.918-.034 1.076-.01.008 1.677-.004 3.36 0 5.048h-1.131l-.002-.562zm2.789 3.167l-.73.002v2.23h-.477v-2.225l-.693-.009c-.024-.082-.028-.506-.01-.631.074-.023 1.764-.028 1.91-.006v.639zm3.187 2.229h-1.699v-2.841h1.695v.443l-.299.006h-.889c-.026.082-.033.492-.014.697l.309.006h.644v.494c-.104.027-.209.01-.313.012h-.641v.707l.303.006h.905l-.001.47zm.944-4.789h-1.101l-.006-.118c0-.911-.002-1.819.002-2.729.001-.209-.004-.412-.061-.612-.086-.3-.248-.533-.555-.638-.164-.057-.336-.064-.508-.043-.404.052-.678.277-.842.644-.06.135-.093.275-.093.426.005.976.003 1.951.003 2.929v.133h-1.103v-5.047h1.103v.371l.081-.059c.33-.265.703-.396 1.125-.396.232 0 .455.02.675.082.536.158.897.502 1.102 1.016.119.299.17.614.172.936l.01 2.496.002.501-.006.108zm3.107 4.789h-.674v-1.379l-.061.061-.375.557c-.037.057-.08.072-.146.078-.131.014-.219-.024-.285-.147-.088-.162-.198-.314-.301-.468l-.076-.106-.008.361v1.041l-.676.008v-2.849l.117-.006.492-.01.09.068.293.662.176.402c.025.061.059.092.125.082h.043c.066.01.1-.021.123-.082l.441-1.043.035-.076h.662c.021.08.025 2.724.005 2.846zm-.746-5.08c-.566-.273-.945-.713-1.135-1.31-.183-.571-.209-1.156-.068-1.74.16-.68.561-1.192 1.176-1.521.736-.394 1.504-.447 2.295-.186.234.079.445.2.623.378l.041.031.008-.066.006-2.488-.004-.041h1.135v7.163c-.09.028-.969.032-1.082.007v-.568l-.045.031c-.286.312-.649.488-1.057.561-.654.116-1.289.04-1.893-.251zm4.127 4.375c-.06.332-.26.549-.578.646-.386.117-.773.092-1.148-.063-.108-.048-.209-.113-.295-.218l.41-.432c.265.164.539.184.822.133l.107-.041c.131-.071.145-.222.035-.324-.066-.06-.15-.086-.238-.101l-.277-.044c-.135-.026-.264-.075-.381-.145-.506-.299-.455-.888-.17-1.199.152-.168.344-.262.564-.303.389-.07.741.018 1.057.256l.047.041.01.018-.383.407c-.113-.071-.228-.126-.355-.133l-.27.015-.113.053c-.143.096-.129.299.029.361l.344.09.346.083c.289.106.449.333.453.64l-.016.26zm.973-2l-.166.012v.53l-.123.011v-.539l-.162-.014v-.145h.455l.006.088-.01.057zm.718.554l-.146-.008-.013-.298-.021-.006-.063.092c-.049.066-.08.066-.127.003l-.072-.104-.02.154v.154h-.146c-.022-.069-.029-.544-.008-.69h.152l.062.134.043.095.057.067.051-.062.07-.154.043-.084.139-.007-.001.714zM13.63 34.801c-.25-.088-.508-.09-.768-.057-.22.029-.425.103-.607.237-.279.204-.447.484-.531.843.928-.022 1.836-.005 2.75-.016v-.053c-.125-.458-.384-.797-.844-.954zM7.712 42.094h-.195l-.139.73h.469l-.135-.73zM4.906 41.515c-.041-.058-.098-.102-.166-.105h-.473v.681h.137l.271-.008.178-.078c.127-.104.15-.357.053-.49z"/></svg>