<svg xmlns="http://www.w3.org/2000/svg" viewBox="0 0 56.48 56.48" enable-background="new 0 0 56.48 56.48"><path d="M22.363 30.111l-.253.02c-1.214.051-1.974.739-1.974 1.295v5.108c.559.304 1.114.558 1.923.606h.204c1.566 0 1.72-1.818 1.72-3.642 0-1.568-.101-3.387-1.62-3.387zM14.509 22.219c-.911.202-1.771.655-1.771 1.771 0 .758.505 1.516 1.468 1.516h.303c.859-.05 1.77-.406 1.77-.708v-2.781c-.353.001-1.062.001-1.77.202zM55.026 9.939h-53.572c-.804 0-1.454.651-1.454 1.454v33.694c0 .803.65 1.455 1.454 1.455h53.572c.804 0 1.454-.651 1.454-1.454v-33.695c0-.803-.65-1.454-1.454-1.454zm-28.969 3.125c.606 0 1.111.506 1.111 1.113 0 .658-.505 1.163-1.111 1.163-.659 0-1.163-.505-1.163-1.163 0-.609.504-1.115 1.163-1.113zm-8.361 10.472c0 .96-.101 2.125-1.063 2.731-.203.152-.961.404-2.125.507h-.708c-1.517 0-2.428-.963-2.428-2.63 0-2.125 1.67-2.885 3.136-3.138.708-.1 1.365-.151 1.77-.151v-.658c0-1.114-.353-1.72-1.667-1.72l-.085-.004c-1.216 0-2.04.61-2.242.61-.052 0-.06-.004-.103-.102l-.252-.607c-.051-.099-.051-.151-.051-.252 0-.303 1.468-.809 2.63-.86h.304c2.126 0 2.884 1.013 2.884 2.631v3.643zm.924 2.323c0-.101 0-.152.049-.202l.253-.607c.05-.153.152-.153.204-.153.151 0 1.112.658 2.426.658.812 0 1.468-.454 1.468-1.365 0-1.973-4.147-1.517-4.147-4.351 0-1.567 1.161-2.63 2.834-2.63.658 0 1.719.305 2.227.557.15.051.2.153.2.253l-.05.202-.254.506c-.101.152-.151.204-.253.204-.1 0-.911-.506-1.87-.506-.761 0-1.418.355-1.418 1.264 0 2.074 4.2 1.467 4.2 4.402 0 1.77-1.418 2.681-3.037 2.681-.91-.001-2.831-.559-2.832-.913zm3.793 12.547h-.354c-.912-.051-1.468-.355-1.923-.659v3.847c0 .1-.05.201-.152.201l-.909.254-.253.051c-.101 0-.101-.152-.101-.254v-9.763c0-.507 0-1.87 1.062-2.428.405-.253 1.163-.658 2.276-.759h.557c2.024 0 2.935 2.225 2.935 4.553 0 2.681-.961 4.957-3.138 4.957zm2.985-12.091v-8.598c0-.151.101-.203.253-.203h.962c.201 0 .252.1.252.252v8.549c0 .152-.101.203-.252.203h-.962c-.152 0-.253-.05-.253-.203zm7.327 5.288v3.642c0 .96-.101 2.124-1.064 2.731-.201.151-.961.404-2.124.507h-.708c-1.518 0-2.428-.962-2.428-2.63 0-2.125 1.669-2.885 3.136-3.139.709-.099 1.368-.15 1.771-.15v-.658c0-1.114-.355-1.721-1.668-1.721l-.084-.002c-1.215 0-2.04.609-2.243.609-.052 0-.058-.003-.102-.101l-.251-.607c-.052-.1-.052-.151-.052-.252 0-.302 1.468-.808 2.63-.86h.306c2.123 0 2.883 1.013 2.883 2.631h-.002zm.817-5.338c-.203.152-.961.404-2.125.507h-.709c-1.516 0-2.427-.963-2.427-2.63 0-2.125 1.67-2.885 3.136-3.138.709-.1 1.365-.151 1.771-.151v-.658c0-1.114-.357-1.72-1.67-1.72l-.084-.004c-1.215 0-2.041.61-2.242.61-.053 0-.061-.004-.104-.102l-.251-.607c-.051-.099-.051-.151-.051-.252 0-.303 1.467-.809 2.63-.86h.304c2.125 0 2.885 1.013 2.885 2.631v3.642c0 .961-.099 2.126-1.063 2.732zm6.78 15.883c-.356.759-1.569 1.317-2.631 1.266-.811-.053-1.266-.254-1.417-.457-.049-.099.101-.809.101-.859.152-.505.608.101 1.569.101 1.466-.051 1.466-1.618 1.519-2.58l.051-.96-.051-.859c-.813.709-2.887.86-3.543.455-.303-.204-.556-.354-.759-.558-.202-.251-.403-.558-.505-.707-.255-.457-.607-6.729-.656-7.74 0-.052.2-.303.2-.303h.91c.151 0 .354.151.354.201 0 1.87-.102 3.541 0 5.413.051 1.468.76 2.681 1.922 2.63.912 0 1.518-.151 2.022-.606l.052-7.589c0-.101.1-.101.252-.101l1.014.052c.153 0 .101.202.101.353l.052 7.74c0 1.063.049 3.895-.557 5.108zm4.351-10.935c-.289.289-.639.434-1.047.434-.408 0-.757-.145-1.046-.434s-.434-.637-.434-1.046c0-.407.145-.756.434-1.044.289-.29.638-.434 1.046-.434.408 0 .758.144 1.047.434.289.288.434.637.434 1.044 0 .41-.145.757-.434 1.046zM29.539 33.932c-.911.2-1.772.656-1.772 1.77 0 .758.506 1.517 1.468 1.517h.304c.86-.052 1.771-.405 1.771-.709v-2.781c-.354 0-1.062 0-1.771.203zM44.534 29.257c-.25-.25-.553-.375-.905-.375-.353 0-.656.125-.906.375-.25.252-.375.555-.375.911s.125.661.375.912c.25.252.552.376.906.376.352 0 .655-.124.905-.376.249-.251.375-.556.375-.912s-.126-.66-.375-.911zm-.444 1.662l-.483-.606h-.212v.606h-.281v-1.565h.477l.256.012.189.067.148.141.045.21c0 .113-.032.207-.096.28-.062.072-.143.13-.246.172l.591.683h-.388zM31.418 22.219c-.91.202-1.771.655-1.771 1.771 0 .758.505 1.516 1.468 1.516h.303c.859-.05 1.771-.405 1.771-.708v-2.781c-.356.001-1.062.001-1.771.202zM43.897 29.695l-.07-.08-.096-.037-.138-.01h-.197v.528h.168l.154-.017.115-.054.064-.092.021-.13-.021-.108z"/></svg>