<svg xmlns="http://www.w3.org/2000/svg" viewBox="0 0 56.48 56.48" enable-background="new 0 0 56.48 56.48"><path d="M55.026 9.939h-53.572c-.804 0-1.454.651-1.454 1.454v33.694c0 .803.65 1.455 1.454 1.455h53.572c.804 0 1.454-.651 1.454-1.454v-33.695c0-.803-.65-1.454-1.454-1.454zm-11.842 4.532h3.621v1.102h-1.15v3.002h-1.348v-2.988h-1.123v-1.116zm-3.078.003v3.031h1.829v1.067h-3.153l-.001-4.098h1.325zm-7.076 0h3.443v1.102h-2.1v.454h1.918v1.01h-1.92v.453h2.178v1.08h-3.521c0-1.365 0-2.724.002-4.099zm-6.199-.014h.203c.611 0 1.222-.011 1.831.004.323.008.645.044.95.179.518.228.793.646.928 1.172.156.605.139 1.206-.126 1.78-.232.506-.656.792-1.187.913-.215.05-.441.073-.663.077-.573.009-1.147.002-1.72.002h-.217l.001-4.127zm-25.703 30.946v-6.745c3.818 2.246 7.621 4.485 11.461 6.745h-11.461zm11.583.015v-6.787h-11.601v-6.781l23.149 13.397v-13.563h-23.148v-13.723c.179-.025.317-.024.468.068 1.252.758 2.51 1.506 3.766 2.258l2.622 1.566c1.118.665 2.24 1.325 3.357 1.992l4.184 2.509 2.903 1.73c.977.584 1.951 1.172 2.929 1.754l2.984 1.772 2.292 1.378 2.812 1.668 2.463 1.48c.935.561 1.874 1.111 2.812 1.67l2.462 1.48 2.531 1.508 2.744 1.642 2.516 1.498 2.345 1.396.08.088h-34.67zm38.454-26.84c-.039 0-.093-.052-.109-.093l-.119-.376c-.018-.046-.084-.105-.129-.106-.377-.009-.756-.006-1.144-.006l-.17.477c-.021.047-.089.104-.137.104-.403.009-.805.005-1.238.005l.302-.841c.312-.837.629-1.673.945-2.51l.227-.607c.043-.12.11-.179.254-.173.323.012.647.007.971.001.102-.002.149.034.184.129l1.416 3.814.051.186c-.451.001-.877.005-1.304-.004zM29.34 15.969c-.269-.428-.713-.415-1.165-.378v1.908c.431-.005.88.07 1.151-.363.234-.376.25-.79.014-1.167zM50.309 15.971l-.359 1.119h.693l-.334-1.119z"/></svg>