<svg xmlns="http://www.w3.org/2000/svg" viewBox="0 0 56.48 56.48" enable-background="new 0 0 56.48 56.48"><path d="M36.782 27.008c-.061-.457-.35-.603-.793-.473l-.306.107c-.182.056-.252.161-.25.366.011 1.169.005 2.341.005 3.513v.605c.721.264 1.146.065 1.295-.654.237-1.147.202-2.308.049-3.464zM55.026 9.939h-53.572c-.804 0-1.454.651-1.454 1.454v33.694c0 .803.65 1.455 1.454 1.455h53.572c.804 0 1.454-.651 1.454-1.454v-33.695c0-.802-.65-1.454-1.454-1.454zm-41.018 20.905c-.171 1.633-1.086 2.487-2.73 2.637-1.067.098-2.101-.043-3.122-.331-.088-.024-.216-.134-.217-.206-.016-.719-.01-1.436-.01-2.184.52.11 1.011.233 1.51.309.308.048.632.065.938.018.16-.022.352-.181.43-.328.108-.207.008-.439-.193-.565-.265-.166-.554-.295-.83-.444-.32-.173-.655-.324-.95-.533-.582-.41-.921-.984-1.014-1.698l-.054-.196v-.532c.048-.238.08-.482.146-.715.31-1.107 1.121-1.652 2.184-1.869 1.132-.23 2.251-.131 3.351.223.176.057.245.138.241.331-.013.669-.005 1.338-.005 1.998-.56-.102-1.099-.21-1.642-.292-.22-.032-.462-.048-.672.009-.152.04-.358.199-.379.331-.024.156.079.398.208.497.238.183.536.284.805.428.347.182.714.343 1.028.572.863.631 1.084 1.54.977 2.54zm4.832-.318c.048.402.197.539.603.515.353-.02.703-.074 1.088-.117v2.308c-1.118.206-2.238.444-3.378.168-1.007-.244-1.562-1.07-1.575-2.32-.015-1.468-.005-2.937-.005-4.405v-.339h-1.17v-2.07h1.166c.123-.607.249-1.191.354-1.779.035-.198.102-.305.314-.352.853-.191 1.7-.405 2.583-.617v2.729h1.727l-.428 2.076h-1.272l-.017.305v3.606l.01.292zm7.925-3.574c-.361-.045-.682-.094-1.004-.123-.165-.013-.335-.002-.5.019-.675.088-.766.194-.766.859v5.626h-3.233v-9.054l.214-.022c.7-.002 1.399.005 2.099-.006.183-.003.288.054.366.22.1.213.225.413.344.626.598-.948 1.2-1.19 2.216-.919.191.05.274.125.271.337-.012.807-.005 1.614-.007 2.437zm4.017 6.388h-3.221v-9.07h3.221v9.07zm-1.593-10.19h-.004c-.131.002-.265-.015-.396-.048-.29-.073-.543-.219-.741-.414-.307-.298-.498-.715-.498-1.176 0-.82.603-1.5 1.39-1.619l.059-.02h.355l.023.012c.816.093 1.45.785 1.45 1.627 0 .904-.733 1.636-1.638 1.638zm10.693 7.925l-.057.198c-.466 1.503-1.409 2.224-2.98 2.239-.457.006-.916-.08-1.399-.127v3.223h-3.253l-.012-.295v-12.058h1.561l.236-.001c.525-.042 1.037-.054 1.277.578l.275-.189c.841-.59 1.765-.685 2.734-.418.629.174 1.041.613 1.322 1.187.307.629.436 1.305.496 1.994.107 1.232.115 2.46-.2 3.669zm5.178-.065c.779.121 1.547-.041 2.314-.168l.82-.146v1.668c0 .717 0 .716-.696.892-1.21.302-2.428.358-3.657.112-1.379-.276-2.226-1.128-2.58-2.46-.369-1.387-.371-2.793.008-4.177.466-1.701 1.606-2.55 3.509-2.635.974-.043 1.911.101 2.667.804.621.576.938 1.324 1.047 2.134.125.923.149 1.861.221 2.845h-4.427c-.086.639.181 1.04.774 1.131zM45.476 26.416c-.091-.442-.632-.533-.927-.19-.092.107-.17.254-.188.392-.062.483-.096.971-.141 1.478h1.449c-.062-.578-.08-1.14-.193-1.68z"/></svg>