<svg xmlns="http://www.w3.org/2000/svg" viewBox="0 0 56.48 56.48" enable-background="new 0 0 56.48 56.48"><path d="M55.026 9.939h-53.572c-.804 0-1.454.651-1.454 1.454v33.695c0 .803.65 1.454 1.454 1.454h53.572c.804 0 1.454-.651 1.454-1.454v-33.695c0-.802-.65-1.454-1.454-1.454zm-19.797 14.931c0-.351.154-.583.482-.693.42-.141.85-.141 1.271.002.304.103.456.334.457.657v3.816c0 .438-.182.682-.607.781-.359.084-.723.084-1.078-.029-.347-.107-.525-.354-.525-.719-.002-1.271-.002-2.545 0-3.815zm-22.163.327v-.354c.008-.339.17-.571.493-.674.402-.129.811-.131 1.214-.01.338.103.503.341.503.694v.638c.001.466-.186.707-.646.8-.354.071-.71.071-1.058-.042-.333-.11-.496-.338-.506-.688v-.364zm-3.32 6.837c-.083.255-.271.398-.534.404-.614.012-1.228-.004-1.832-.139-.503-.111-.974-.295-1.356-.656-.354-.336-.54-.76-.611-1.235-.076-.51-.028-1.022-.041-1.536v-1.266c0-.484.196-.733.673-.838.334-.073.671-.07 1.004.006.42.096.621.355.622.788.001.719.011 1.438-.003 2.156-.012.588.269.812.816.858l.697.019c.339.021.508.162.591.492.079.316.076.634-.026.947zm2.025-6.552c-.087.303-.294.459-.61.459h-7.229c-.335 0-.546-.18-.627-.519l-.04-.13v-.547l.058-.209c.091-.307.29-.458.608-.459h7.1579999999999995c.431 0 .623.15.71.572.058.28.051.559-.028.833zm3.506 6.117c0 .454-.185.696-.63.792-.34.072-.684.07-1.021-.023-.379-.107-.559-.348-.56-.738v-1.895c0-.607.011-1.215-.003-1.823-.012-.532.275-.749.67-.826.338-.064.678-.065 1.012.029.357.102.532.343.532.716v3.768zm13.418.013c0 .416-.182.662-.565.768l-.169.033c-.276.038-.551.04-.824-.023-.411-.098-.599-.336-.599-.756v-6.053l-1.774 2.438c-.26.356-.526.709-.777 1.072-.154.226-.357.354-.623.385-.269.033-.538.037-.804-.024-.196-.046-.346-.151-.465-.313-.838-1.149-1.68-2.298-2.52-3.445l-.066-.072-.01.108-.001 5.824-.017.271c-.052.309-.248.484-.542.559-.343.084-.689.084-1.031-.002-.377-.096-.566-.347-.566-.732v-6.644c0-.535.283-.847.818-.905l.374-.019h1.61c.152 0 .303.015.45.053.187.048.335.148.449.307.638.887 1.279 1.771 1.919 2.656l.104.145.509-.697c.488-.67.987-1.334 1.459-2.016.201-.29.46-.435.795-.439.681-.01 1.363-.028 2.044.012.104.006.206.034.304.071.35.132.517.401.517.84l.001 3.427v3.171zm13.295-1.279c-.008.438-.115.854-.37 1.222-.315.451-.778.67-1.298.787-.316.07-.641.099-.963.1l-3.018.001c-1.026 0-2.053.004-3.078-.003-.471-.002-.936-.063-1.377-.239-.707-.283-1.102-.813-1.217-1.562-.031-.193-.041-.389-.041-.584.002-1.69.008-3.381-.002-5.073-.005-.575.258-.8.741-.875.292-.046.584-.04.873.033.394.101.586.345.586.748v5.023l.019.262c.049.289.238.44.511.506.118.027.239.041.362.041h5.244c.123 0 .243-.014.361-.041.35-.082.52-.305.52-.682v-3.474c0-.521.012-1.039-.004-1.56-.017-.57.289-.781.709-.852.299-.051.599-.049.894.027.375.097.554.331.554.716l.001 3.393c-.001.695.007 1.388-.007 2.086zm11.225-3.946v.891l-.021.071c-.05.387-.187.718-.556.909-.207.105-.432.152-.664.153-1.575.004-3.151.004-4.729.004-.261 0-.41-.124-.473-.382-.051-.205-.049-.413-.02-.623.045-.341.207-.485.551-.485l3.453-.001c.094 0 .219.031.273-.017.062-.055.014-.185.02-.28.019-.262-.104-.454-.309-.6-.234-.168-.505-.254-.785-.309-.912-.175-1.83-.17-2.746-.035-.312.045-.615.128-.887.295-.252.156-.382.372-.38.677.006 1.03.003 2.06.001 3.09 0 .2.068.367.217.504.098.091.209.157.33.211.309.138.635.2.966.24.571.069 1.146.073 1.718.038.396-.025.791-.068 1.172-.197.272-.092.47-.252.56-.535.08-.255.26-.412.515-.482.414-.114.834-.114 1.25-.021.262.061.465.196.543.471v.426l-.049.191c-.138.528-.48.894-.939 1.159-.467.271-.978.414-1.502.513-.635.119-1.277.16-1.922.172-.719.015-1.436-.01-2.147-.112-.644-.091-1.271-.238-1.841-.569-.693-.402-1.049-1.005-1.047-1.812v-3.423c0-.588.193-1.096.637-1.497.293-.267.641-.442 1.011-.575.539-.193 1.099-.289 1.667-.346l.575-.041.03-.021h1.6l.039.021c.357.014.712.048 1.066.102.568.087 1.123.218 1.637.485.561.291.965.712 1.12 1.343l.067.359-.001.038z"/></svg>