<svg xmlns="http://www.w3.org/2000/svg" viewBox="0 0 56.48 56.48" enable-background="new 0 0 56.48 56.48"><path d="M39.768 27.982c-.701-.17-1.524.442-1.617 1.221.453.093 1.378-.019 1.732-.203.244-.127.367-.337.33-.582-.039-.251-.207-.377-.445-.436zM8.411 25.982c-.416-.148-.846-.116-1.272-.06-.052.008-.123.087-.135.144-.151.768-.294 1.535-.457 2.4.359 0 .679.027.992-.007.607-.065 1.1-.34 1.371-.919.309-.655.087-1.35-.499-1.558zM55.026 9.939h-53.572c-.804 0-1.454.651-1.454 1.454v33.694c0 .803.65 1.455 1.454 1.455h53.572c.804 0 1.454-.651 1.454-1.454v-33.695c0-.802-.65-1.454-1.454-1.454zm-37.68 10.901c.15.055.307.14.415.256.932.988 1.518 2.148 1.678 3.507l.067.789c-.016.818-.162 1.61-.442 2.377l-.144.226c-.13.171-.269.185-.367-.001-.128-.245-.236-.508-.298-.777-.189-.828-.363-1.66-.522-2.494-.203-1.067-.386-2.138-.575-3.207l-.054-.466c-.014-.178.087-.266.242-.21zm-8.643 8.798c-.72.239-1.454.293-2.2.225-.176-.018-.229.029-.259.195-.156.859-.324 1.719-.494 2.576-.012.068-.074.18-.116.181-.525.013-1.051.009-1.613.009l.226-1.248c.423-2.22.851-4.439 1.271-6.66.026-.14.067-.237.212-.259 1.099-.166 2.199-.278 3.296-.007.958.236 1.623.907 1.736 1.698.229 1.578-.689 2.839-2.059 3.29zm6.979 3.195c-.363-.012-.729-.012-1.092-.001-.187.008-.249-.062-.231-.244l.058-.892c-.295.308-.528.616-.824.844-.614.474-1.317.583-2.029.255-.704-.322-.993-.949-1.022-1.688-.063-1.552.477-2.836 1.787-3.73.822-.561 1.764-.733 2.741-.678.499.028.994.147 1.492.215.201.029.228.14.195.314-.22 1.158-.457 2.313-.647 3.476-.102.618-.132 1.248-.172 1.874-.012.187-.057.263-.256.255zm1.706 2.026c-.317.527-.52 1.12-.78 1.681-.04.084-.131.229-.161.219-.113-.034-.273-.099-.302-.188-.071-.219-.14-.471-.098-.688.225-1.177.713-2.263 1.26-3.321 1.061-2.052 2.39-3.921 3.943-5.623.884-.968 1.801-1.909 2.745-2.817 1.42-1.366 3-2.521 4.764-3.415.814-.412 1.663-.721 2.559-.889l.447-.097s1.848-.356 2.658 1.031c0 0 .221.337.178.449-.051.13-.264.255-.42.277-1.479.22-2.914.607-4.291 1.173-.8.328-1.575.725-2.338 1.134-1.661.891-3.01 2.177-4.326 3.497-1.394 1.396-2.697 2.872-3.834 4.482-.709 1.004-1.371 2.043-2.004 3.095zm11.302-3.773c-.664 1.242-1.722 1.846-2.792 1.877-1.554.004-2.439-.572-2.765-1.607-.534-1.701.492-4.357 3.004-4.636.752-.083 1.454.011 2.071.469.587.436.872 1.043.917 1.765.047.749-.08 1.468-.435 2.132zm6.683-1.001c-.162.851-.322 1.7-.494 2.548-.016.074-.104.189-.162.191-.504.013-1.009.004-1.513 0l-.092-.04.276-1.472c.133-.754.263-1.51.385-2.266.019-.129.011-.265-.004-.395-.048-.451-.377-.661-.815-.52-.424.135-.675.461-.883.825-.306.534-.413 1.126-.517 1.722-.114.647-.23 1.297-.359 1.943-.014.076-.103.195-.162.197-.517.016-1.037.009-1.611.009.372-2.015.735-3.993 1.101-5.986h1.489l-.074.935.48-.446c.579-.505 1.246-.729 2.014-.603.635.104 1.074.571 1.146 1.221.08.724-.07 1.429-.205 2.137zm5.495-.023c-.549.272-1.142.375-1.746.411-.378.022-.758.004-1.146.004-.039.609.373 1.041.994 1.117.604.074 1.186-.022 1.75-.238l.186-.068.074-.001c.034.354.078.713.096 1.071.002.07-.078.184-.145.211-.979.402-1.996.541-3.028.273-.964-.248-1.49-.938-1.597-1.902-.152-1.364.247-2.562 1.31-3.465.875-.745 1.9-.978 3.015-.646.743.221 1.159.776 1.215 1.546.054.757-.276 1.336-.978 1.687zm5.794.026c-.736.342-1.527.392-2.322.409h-.502c-.057.577.357 1.019.984 1.095.586.07 1.152-.017 1.703-.219l.306-.113c.039.379.082.737.101 1.094.003.07-.075.185-.143.212-.996.409-2.025.549-3.074.263-.942-.258-1.439-.944-1.552-1.884-.146-1.201.162-2.289 1-3.178.9-.955 2.015-1.296 3.291-.944.782.216 1.198.778 1.246 1.57.047.774-.305 1.357-1.038 1.695zm5.481-1.797c-.01.042-.086.095-.137.103-1.159.152-1.643.562-1.932 1.746-.201.824-.333 1.664-.502 2.496-.013.069-.074.18-.116.181-.542.012-1.084.008-1.661.008.078-.435.146-.829.223-1.224.304-1.52.619-3.038.744-4.588.004-.064.092-.172.143-.174.443-.014.891-.008 1.374-.008l-.097 1.198c.541-.795 1.164-1.437 2.277-1.321-.109.555-.207 1.07-.316 1.583zM45.641 27.989c-.696-.192-1.559.442-1.637 1.265.373-.025.729-.029 1.075-.076.231-.031.468-.103.683-.196.23-.101.34-.31.304-.567-.034-.248-.202-.366-.425-.426zM13.387 28.361c-.751.632-1.09 1.457-1.025 2.435.019.301.133.588.449.717.318.127.607.035.852-.174.149-.127.288-.276.393-.439.556-.855.57-1.855.774-2.824-.569-.159-1.043-.05-1.443.285zM27.298 28.94c-.055-.673-.565-1.033-1.188-.892-.303.069-.53.26-.712.504-.407.552-.571 1.182-.59 1.854l.001.272c.048.612.487 1.012 1.064.959.322-.03.577-.199.771-.446.521-.66.725-1.426.654-2.251z"/></svg>