<svg xmlns="http://www.w3.org/2000/svg" viewBox="0 0 56.48 56.48" enable-background="new 0 0 56.48 56.48"><path d="M55.026 9.939h-53.572c-.804 0-1.454.651-1.454 1.454v33.695c0 .803.65 1.454 1.454 1.454h53.572c.804 0 1.454-.651 1.454-1.454v-33.695c0-.802-.65-1.454-1.454-1.454zm-47.341 24.087l-.188-.364-3.307-6.962-.113-.181v-.062c.568-.004 1.137 0 1.704-.016.187-.005.271.062.343.229.464 1.093.939 2.18 1.411 3.27l.141.306.164-.331c.485-1.072.973-2.142 1.447-3.218.083-.186.178-.264.392-.257.543.018 1.088.006 1.681.006l-3.675 7.58zm6.124-.019h-2.027v-7.544h2.027v7.544zm-2.242-8.262l.002-1.008.837-.568-.833-.491.003-1.031.008-.008 2.44 1.52-2.457 1.586zm10.245 8.26h-2.039v-.316c0-1.303.003-2.604-.004-3.906 0-.268-.023-.537-.064-.802-.099-.644-.439-.993-1.02-1.081-.721-.11-1.368.15-1.587.734-.152.404-.229.858-.242 1.293-.03 1.239-.011 2.479-.011 3.721v.357h-2.075v-7.534h1.966v.94l.101.079.017-.13c.916-1.347 2.769-1.348 3.846-.787.744.387 1.076 1.09 1.098 1.866.048 1.847.014 3.694.014 5.566zm8.342.002h-1.98v-.959c-.419.625-.925.965-1.564 1.104-1.654.355-3.133-.361-3.759-1.93-.658-1.646-.637-3.289.434-4.777 1.015-1.411 3.223-1.635 4.418-.501l.343.365v-5.07h2.109c-.001 3.916-.001 7.831-.001 11.768zm3.065.003h-2.039v-7.54h2.039v7.54zm-2.039-8.588l.002-1.009.834-.567-.832-.491.002-1.032.009-.007 2.44 1.52-2.455 1.586zm7.148 8.788c-.916.065-1.798-.041-2.594-.539-1.104-.689-1.635-1.725-1.708-2.996-.083-1.438.247-2.743 1.437-3.683 1.514-1.197 4.185-.97 5.348.435.395.475.605 1.022.623 1.673h-2.016c-.341-1.084-1.058-1.508-2.031-1.215-.518.155-.838.524-1.026 1.002-.343.881-.363 1.776-.026 2.664.283.75.865 1.141 1.586 1.099.787-.046 1.309-.478 1.497-1.284.048-.206.122-.264.324-.26.575.013 1.153.004 1.733.004-.104 1.679-1.43 2.976-3.147 3.1zm5.995-.2h-2.04v-7.548h2.04v7.548zm-2.043-8.588l.001-1.009.836-.567-.834-.491.004-1.032.008-.007 2.44 1.52-2.455 1.586zm8.099 8.58l-.166-.656c-.779.713-1.707.922-2.707.869-.315-.016-.643-.062-.941-.16-.948-.312-1.446-1.047-1.448-2.074-.003-1.064.437-1.772 1.435-2.061.748-.218 1.537-.285 2.31-.426.262-.048.524-.105.78-.181.306-.089.512-.296.514-.622.002-.35-.062-.707-.422-.871-.594-.272-1.229-.315-1.779.041-.271.175-.41.554-.656.906h-1.943c.039-.771.335-1.386.945-1.836.646-.478 1.399-.643 2.186-.682.775-.04 1.551-.02 2.298.23 1.021.342 1.467.96 1.47 2.036.004 1.312-.015 2.625.008 3.938.01.51.096 1.02.146 1.547l-2.03.002zM28.081 30.2s.035-.555-.234-1.438c-.219-.575-.689-.889-1.311-.938-.665-.052-1.222.152-1.597.736-.566.886-.536 2.505.063 3.367.369.528.884.769 1.521.713.642-.052 1.114-.381 1.339-.987.286-.773.219-1.453.219-1.453zM49.534 30.583l-.641.106c-.405.098-.827.172-1.211.333-.377.158-.532.576-.469.992.059.398.289.68.721.74.36.053.745.058 1.102-.007.628-.114.976-.553 1.066-1.172.056-.385.054-.778.078-1.2-.256.085-.448.161-.646.208z"/></svg>