<svg xmlns="http://www.w3.org/2000/svg" viewBox="0 0 56.48 56.48" enable-background="new 0 0 56.48 56.48"><path d="M55.026 9.939h-53.572c-.804 0-1.454.651-1.454 1.454v33.694c0 .803.65 1.455 1.454 1.455h53.572c.804 0 1.454-.651 1.454-1.454v-33.695c0-.803-.65-1.454-1.454-1.454zm-13.177 24.035c-2.543 6.033-8.816 9.672-15.345 8.912-6.355-.74-11.595-5.685-12.741-12.023-1.545-8.548 4.485-16.438 13.216-17.303 6.609-.655 12.679 3.408 14.975 9.19.132.331.221.679.405 1.246-1.631-.664-3.046-.912-4.501-.342-2.474.969-3.697 3.562-2.886 6.137.756 2.396 3.334 3.724 5.978 3.118.416-.094 1.552-.524 1.552-.524s-.398 1.003-.653 1.589zm-2.205-2.25c-1.831-.029-3.33-1.614-3.342-3.533-.012-2.007 1.446-3.471 3.433-3.448 1.844.022 3.232 1.518 3.224 3.476-.007 1.999-1.461 3.536-3.315 3.505zM23.988 31.578l-3.795-.003s.673-.622.874-.789c.962-.798 1.966-1.548 2.801-2.485 1.258-1.413 1.086-3.469-.354-4.409-1.47-.959-3.707-.602-4.813.776-.108.135-.475.647-.475.647l1.098.704s.222-.252.346-.417c.26-.346.628-.618 1.039-.752.735-.241 1.48-.235 2.031.393.573.654.505 1.4.071 2.122-.253.421-.58.775-.96 1.093-1.095.921-2.173 1.837-3.264 2.765-.171.146-1.063.84-1.063.84l-.007.773h7.171l-.006-1.261-.694.003zM32.454 31.297c-1.333.67-2.674.534-3.663-.365-1.159-1.051-1.525-2.691-.935-4.182.523-1.322 1.664-2.028 3.167-2.014.672.008 1.241.273 1.81.571l.529.283.803-1.123-.59-.392c-1.769-1.139-4.23-.973-5.906.379-1.459 1.178-2.066 3.54-1.397 5.432.703 1.993 2.37 3.183 4.737 3.181.832.051 1.752-.223 2.588-.815.162-.115.355-.222.406-.328l-.772-1.127-.777.5z"/></svg>