<svg xmlns="http://www.w3.org/2000/svg" viewBox="0 0 56.48 56.48" enable-background="new 0 0 56.48 56.48"><path d="M55.026 9.939h-53.572c-.804 0-1.454.651-1.454 1.454v33.694c0 .803.65 1.455 1.454 1.455h53.572c.804 0 1.454-.651 1.454-1.454v-33.695c0-.803-.65-1.454-1.454-1.454zm-18.245 19.938h6.344v1.526h-4.576v1.813h4.203v1.524h-4.203v2.235h4.779v1.525h-6.547v-8.623zm-3.542-9.117c.235-.287.373-.613.528-.917.169-.3.27-.608.354-.898.08-.29.199-.553.229-.799l.101-.639.09-.564.034.569.04.662c.022.258-.034.543-.054.863-.022.32-.057.669-.166 1.025-.092.36-.17.755-.354 1.125l-.249.583c-.091.195-.217.372-.327.562-.216.39-.498.736-.789 1.083-.281.36-.631.642-.949.961-.353.265-.686.57-1.047.787-.353.238-.703.453-1.049.631-.34.197-.679.335-.988.483-.479.203-.903.361-1.254.475.159.36.297.735.403 1.136.108.413.206.835.23 1.317-.47-.116-.865-.293-1.248-.479-.383-.189-.735-.403-1.064-.633-.662-.459-1.232-.996-1.752-1.573-.394-.438-.447-1.063-.177-1.551l.056-.097c.438-.785.964-1.518 1.609-2.179.319-.332.672-.643 1.064-.932.201-.143.407-.281.621-.414.221-.129.456-.25.713-.357.026.276.031.541.017.796-.017.252-.042.499-.072.743-.072.481-.181.939-.326 1.377l-.05.138.486-.08c.271-.066.578-.114.884-.214.317-.081.639-.192.965-.322.342-.112.646-.298.993-.449.301-.2.658-.367.942-.609.301-.23.605-.464.848-.748.128-.138.274-.265.386-.411l.322-.451zm-11.614 1.063c.032-.32.076-.667.196-1.02.103-.357.192-.749.387-1.114l.266-.575c.097-.191.229-.364.345-.551.226-.384.52-.721.821-1.059.291-.353.651-.623.978-.933.359-.254.701-.548 1.068-.755.36-.228.716-.433 1.068-.6.345-.186.689-.314 1.002-.453.484-.188.914-.334 1.268-.438-.148-.364-.275-.743-.37-1.147-.096-.416-.181-.841-.191-1.324.465.13.856.32 1.234.517.377.2.722.423 1.044.665.648.479 1.202 1.033 1.705 1.625.381.449.414 1.076.13 1.555l-.058.096c-.463.772-1.012 1.488-1.674 2.13-.33.323-.694.624-1.092.901-.205.135-.416.267-.635.394-.225.123-.463.236-.723.336-.017-.278-.014-.543.006-.797.026-.252.058-.498.096-.741.087-.478.209-.933.367-1.367l.054-.136-.488.065c-.273.058-.582.098-.891.188-.319.072-.643.173-.974.293-.346.101-.656.278-1.007.419-.309.191-.667.348-.96.581-.307.222-.617.446-.87.723-.129.134-.279.256-.396.4l-.332.438c-.243.28-.391.602-.555.902-.181.294-.289.599-.383.887-.089.287-.215.547-.253.792l-.12.635-.105.562-.019-.57-.02-.663c-.016-.258.05-.541.081-.861zm-5.2 18.547h-1.242v3.377h-.855v-3.377h-1.24v-.727h3.338l-.001.727zm-1.288-1.87l-2.438-8.625h1.92c1.105 4.723 1.215 5.323 1.371 6.307h.024c.156-.901.287-1.778 1.201-6.307h1.91c1.008 4.735 1.094 5.191 1.285 6.307h.024c.144-.817.287-1.562 1.406-6.307h1.826l-2.428 8.625h-1.729c-.889-4.228-1.047-5.069-1.334-6.727h-.023c-.266 1.659-.408 2.282-1.334 6.727h-1.681zm4.288 5.244c-.057-.193-.09-.404-.09-.828 0-.558-.035-.777-.67-.777h-.885v1.606h-.842v-4.105h2.076c1.092 0 1.291.808 1.291 1.162 0 .452-.229.84-.635.978.337.147.521.274.521 1.04 0 .599 0 .749.182.816l.001.108h-.949zm4.177.003l-.264-.846h-1.514l-.285.846h-.904l1.463-4.104h.99l1.445 4.104h-.931zm1.019-13.872h1.801v8.625h-1.801v-8.625zm2.911 13.872l-1.674-2.926h-.012v2.926h-.799v-4.104h.902l1.631 2.857h.01v-2.857h.8l.001 4.104h-.859zm3.23.11c-1.498 0-1.754-.864-1.754-1.372h.82c.006.229.121.663.871.663.404 0 .857-.097.857-.531 0-.321-.308-.406-.744-.509l-.439-.103c-.664-.154-1.303-.303-1.303-1.207 0-.457.244-1.263 1.576-1.263 1.258 0 1.594.823 1.6 1.326h-.82c-.026-.182-.092-.617-.842-.617-.324 0-.715.119-.715.491 0 .321.264.389.436.429l.998.246c.562.138 1.076.367 1.076 1.103 0 1.234-1.258 1.344-1.617 1.344zm.97-8.733h-1.861v3.376h-1.768v-8.626h4.359c2.295 0 2.717 1.694 2.717 2.439 0 .95-.48 1.766-1.334 2.054.709.313 1.093.579 1.093 2.188 0 1.261 0 1.574.385 1.717v.228h-1.992c-.12-.408-.192-.852-.192-1.742 0-1.177-.073-1.633-1.407-1.634zm4.222 5.246h-2.062v.926h1.805v.726h-1.805v1.726h-.857v-4.104h2.919v.726zm3.692 3.375h-3.115v-4.105h3.018v.728h-2.178v.863h2v.726h-2v1.063h2.275v.725zm4.136 0h-.947c-.057-.194-.09-.405-.09-.829 0-.558-.037-.777-.67-.777h-.885v1.606h-.842v-4.105h2.074c1.092 0 1.293.808 1.293 1.162 0 .452-.232.84-.636.978.336.147.521.274.521 1.04 0 .599 0 .749.181.816h.001v.109zM32.117 31.366h-2.244v2.306h2.111c.938 0 1.395-.324 1.395-1.177 0-.456-.203-1.129-1.262-1.129zM42.255 40.353h-1.066v1.098h1.004c.447 0 .664-.155.664-.561 0-.218-.097-.537-.602-.537zM22.588 40.57h-.008l-.527 1.623h1.047zM18.847 40.353h-1.068v1.098h1.004c.447 0 .664-.154.664-.561 0-.218-.098-.537-.6-.537z"/></svg>