<svg xmlns="http://www.w3.org/2000/svg" viewBox="0 0 56.48 56.48" enable-background="new 0 0 56.48 56.48"><path d="M24.313 26.57c0-1.642-.594-3.17-1.482-4.074-.89-.905-2.333-1.305-3.736-1.305-1.449 0-2.979.489-3.889 1.413-.91.924-1.432 2.398-1.432 4.071 0 1.618.584 3.145 1.485 4.04.896.896 2.399 1.289 3.935 1.289 1.219 0 2.463-.306 3.247-.867.784-.561 1.469-1.43 1.76-2.445l-3.033-.041c-.192.457-.299.604-.752.935-.233.17-.597.215-1.245.215-.874 0-1.391-.318-1.756-.707-.383-.406-.574-.67-.584-1.748h7.484c.008-.2-.002-.675-.002-.776zm-7.379-1.024c-.008-.687.224-1.153.651-1.538.384-.35.847-.53 1.446-.53.628 0 1.308.297 1.654.71.18.213.537.54.534 1.358h-4.285zM55.026 9.939h-53.572c-.804 0-1.454.651-1.454 1.454v33.695c0 .803.65 1.454 1.454 1.454h53.572c.804 0 1.454-.651 1.454-1.454v-33.695c0-.803-.65-1.454-1.454-1.454zm-6.863 15.126h1.07v.241h-.392v1.067h-.287v-1.067h-.393l.002-.241zm-7.174 0h2.989v.303h-1.048l2.045 4.879 1.687-4.879h-1.219v-.303h2.233v.303h-.629l-2.563 7.364c-.132.392-.259.708-.386.952-.125.24-.26.431-.398.565-.141.134-.29.228-.449.272-.158.047-.337.07-.531.07-.504 0-.858-.109-1.063-.33v-2.181h.302l.379 1.356c.102.363.206.596.313.699.106.101.216.152.329.152.139 0 .271-.056.396-.168.128-.111.244-.265.357-.461.11-.195.217-.427.313-.691.096-.266.188-.547.271-.847l-2.803-6.754h-.525v-.301zm-1.432.226c-.221-.191-.519-.287-.892-.287-.243 0-.448.036-.616.111-.168.074-.322.203-.457.385-.134.182-.268.433-.4.754-.129.322-.279.725-.447 1.209h-.303v-2.266c.363-.148.718-.269 1.062-.36.346-.092.702-.138 1.075-.138.438 0 .813.055 1.132.161.316.108.579.245.788.413.212.168.365.359.462.573.098.214.147.429.147.644v5.229h.669v.303h-1.893v-1.229h-.037c-.168.439-.438.791-.812 1.055-.372.266-.812.399-1.313.399-.635 0-1.147-.17-1.539-.511-.392-.339-.586-.817-.586-1.434 0-.41.072-.738.215-.985.146-.247.34-.443.584-.587.242-.146.515-.252.818-.322.303-.07.615-.133.933-.189.318-.056.628-.117.931-.188.305-.071.572-.175.809-.315v-1.47c0-.444-.114-.764-.33-.955zm9.074 12.126c-1.25-.195-2.496-.398-3.748-.58-1.121-.164-2.246-.32-3.373-.453-1.092-.125-2.184-.237-3.276-.317-1.218-.091-2.438-.152-3.657-.2-1.04-.041-2.082-.053-3.124-.062-1.72-.013-3.438-.021-5.159-.016-1.161.003-2.323.014-3.483.053-1.846.062-3.692.127-5.535.235-1.574.093-3.146.231-4.715.383-1.753.171-3.498.411-5.225.765-.545.11-1.084.244-1.646.371l.122-.062c1.721-.802 3.516-1.395 5.349-1.874 1.963-.512 3.953-.884 5.961-1.169.531-.075 1.066-.13 1.601-.191-4.108-.172-7.389-3.549-7.389-7.699 0-4.261 3.453-7.715 7.714-7.715 3.737 0 6.853 2.657 7.563 6.184h2.344v.303h-.895l1.875 5.372h.027l1.09-3.189-.728-2.183h-.838v-.303h3.464v.303h-1.312l1.846 5.372h.025l1.901-5.372h-1.144v-.303h1.871v.303h-.307l-2.458 6.854h-.729l-1.396-4.139h-.027l-1.453 4.139h-.699l-2.375-6.854h-.036c.063.401.105.809.105 1.228 0 3.604-2.474 6.623-5.813 7.469.671-.058 1.343-.119 2.017-.158 1.164-.065 2.328-.095 3.494-.142l.095-.021h3.397l.558.03c1.03.057 2.063.096 3.092.176 1.063.083 2.129.178 3.185.32 1.315.18 2.628.393 3.935.63 1.905.346 3.778.827 5.625 1.415 1.054.336 2.094.706 3.102 1.162l.129.088-.947-.153zm1.893-11.043v-.928h-.004l-.32.928h-.221l-.322-.918h-.003v.918h-.269v-1.308h.402l.307.9h.004l.289-.9h.404l.001 1.308h-.268zM38.771 28.461c-.347.066-.655.15-.918.257-.262.108-.471.274-.621.498-.155.227-.232.589-.232 1.094 0 .535.094.905.286 1.12.192.215.475.322.848.322.53-.019.957-.263 1.272-.734.318-.473.478-1.096.478-1.87v-1.065c-.391.188-.762.313-1.113.378z"/></svg>