<svg xmlns="http://www.w3.org/2000/svg" viewBox="0 0 56.48 56.48" enable-background="new 0 0 56.48 56.48"><path d="M45.78 26.135c-.153-.063-.313-.095-.479-.111-.172-.018-.345-.016-.518-.016-.126 0-.126 0-.148.125l-.244 1.314-.09.487c-.016.08-.016.08.068.08h.333c.151 0 .304.004.453-.018.187-.021.369-.062.54-.14.23-.109.398-.274.496-.513.062-.156.078-.319.074-.486-.003-.323-.185-.595-.485-.722zM17.479 26.19h-3.597c-.086 0-.086.002-.101.086l-.193 1.111c-.017.099-.017.099.086.099h2.18l.046.055-.018.104-.222 1.229c-.021.11-.022.11-.131.11h-2.172c-.083 0-.082 0-.096.08l-.06.319-.164.896.071.012h3.612c.075 0 .075-.002.088-.074l.214-1.174.238-1.283.208-1.133.066-.368-.055-.069zM50.207 29.984c-.511-.001-.916.406-.915.912.003.548.462.91.91.912.509.002.931-.443.911-.914.016-.465-.382-.91-.906-.91zm.452 1.487l-.052-.047-.229-.314c-.086-.116-.193-.159-.332-.128l-.101.018-.002.104.015.34-.064.07c-.096.004-.098.006-.102-.092l-.019-.414-.028-.533-.003-.031c-.006-.114-.006-.114.106-.119l.535-.02c.085 0 .166.02.229.084.167.168.109.449-.113.533l-.077.024c.188.135.286.329.42.505l-.183.02zM55.026 9.939h-53.572c-.804 0-1.454.651-1.454 1.454v33.694c0 .803.65 1.455 1.454 1.455h53.572c.804 0 1.454-.651 1.454-1.454v-33.695c0-.802-.65-1.454-1.454-1.454zm-6.436 17.511c-.183.626-.572 1.07-1.168 1.334-.217.094-.446.151-.676.198-.093.017-.094.019-.06.107l.827 2.203.262.7h-2.475l-.006-.032-.548-1.844-.503-1.688-.029-.043-.108.599-.286 1.547-.205 1.124-.055.338h-23.236l.081-.447.236-1.285.349-1.883.354-1.914.04-.233-.04-.043-.032-.002h-1.22l-.082.069-.225 1.213-.235 1.276-.268 1.443-.269 1.461-.057.345h-8.852l-.024-.095-.423-1.229-.813-2.354-.332-.96-.03-.032-.037.206-.25 1.423-.271 1.516-.248 1.404-.012.121h-2.449l-.041-.05.031-.065.229-1.242.332-1.81.351-1.891.347-1.88.111-.581h2.587l.02.069.726 1.983.899 2.471.031.031.015-.072.205-1.115.25-1.373.286-1.563.074-.431h14.824l-.007.072-.204 1.125-.082.455-.068.061-.058-.002h-2.1959999999999997l-.069.059-.211 1.157c-.019.099-.017.099.085.099h2.074l.094.01.001.009-.255 1.414-.06.048h-2.147c-.086 0-.086 0-.1.079l-.202 1.117c-.025.134-.013.108.089.108l3.578.002h.049l.064-.052.059-.319.265-1.436.25-1.365.239-1.292.187-1.014.055-.335h2.49l-.005.088-.211 1.141-.399 2.137-.386 2.074c-.012.071-.012.074.06.074h1.553l.076-.065.32-1.73.33-1.795.354-1.922h2.488l-.002.057-.115.614-.303 1.627-.285 1.539-.299 1.603c-.013.069-.01.074.062.074h1.593l.079-.064.215-1.166.284-1.545.237-1.292.203-1.103.056-.343h4.769l-.009.08-.172.934-.114.639-.068.061-.065-.002-2.114.002c-.127 0-.102-.016-.125.104l-.205 1.101c-.018.096-.019.096.077.096h2.1149999999999998l.049.06-.241 1.332c-.02.112-.01.101-.123.101h-2.092c-.076 0-.076 0-.091.077l-.174.939-.05.278.084.012h3.596c.08 0 .081-.002.096-.084l.148-.813.354-1.907.395-2.146.16-.861h3.271l.146.011.33.035c.375.04.743.113 1.097.249.336.13.64.306.882.577.2.221.329.476.393.763.049.219.062.437.054.66-.008.232-.037.457-.1.675zm2.715 3.586l-.022.127c-.091.346-.298.592-.62.745l-.268.09h-.391l-.152-.05c-.424-.161-.68-.459-.745-.91-.084-.586.321-1.131.899-1.234.578-.103 1.113.246 1.269.791l.03.149v.292zM50.402 30.453l-.145-.014-.268.015c-.08.004-.089.007-.078.081l.014.242.064.062h.025l.297-.017.125-.036c.07-.037.102-.097.103-.171-.004-.077-.059-.141-.137-.162z"/></svg>