<svg xmlns="http://www.w3.org/2000/svg" viewBox="0 0 56.48 56.48" enable-background="new 0 0 56.48 56.48"><path d="M33.86 19.473c-.578 1.456-.994 1.733-2.539 1.732h-5.957v2.266l.151.034c1.9.002 3.8.052 5.698-.011 1.935-.064 3.31-2.166 2.647-4.021zM42.19 21.206c-1.771-.015-3.54-.007-5.31-.002-.629.002-1.173-.218-1.601-.661-.288-.3-.513-.662-.782-1.018-.364 1.458.05 2.593 1.24 3.346.714.452 1.513.626 2.344.633 1.543.012 3.086.007 4.627.004.531 0 .886.238 1.067.737l.126.306.205-.339c.606-1.369-.418-2.993-1.916-3.006zM31.276 16.672c-1.332-.017-2.665.025-3.997-.011-1.531-.042-2.25 1.173-1.886 2.701.285-.123.581-.357.881-.363 1.897-.034 3.797-.022 5.696-.014.521.002.772.208.929.706l.11.464.201-.283c.689-1.39-.386-3.182-1.934-3.2zM25.655 16.731c-.158-.045-.274-.096-.397-.109-1.443-.167-2.7.932-2.705 2.387-.007 2.849-.002 5.699 0 8.547l.026.365h2.275v-.588c0-2.875.007-5.749-.005-8.624-.002-.675.202-1.251.65-1.744l.156-.234zM44.835 23.971c-.466 1.278-1.388 1.707-2.696 1.673-2.323-.061-4.648-.017-6.974-.017h-.479v2.306h.455c2.312 0 4.621-.005 6.932.002.906.003 1.641-.366 2.261-1 .704-.719.905-1.987.501-2.964zM55.026 9.939h-53.572c-.804 0-1.454.651-1.454 1.454v33.694c0 .803.65 1.455 1.454 1.455h53.572c.804 0 1.454-.651 1.454-1.454v-33.695c0-.803-.65-1.454-1.454-1.454zm-37.156 32.103c-.679.024-1.356.011-2.127.011l.278-.369c.6-.952 1.21-1.899 1.784-2.866.133-.222.236-.337.506-.326.579.023 1.158.007 1.899.007-.33.658-.588 1.233-.902 1.775-.311.537-.671 1.047-1.035 1.551-.082.115-.264.214-.403.217zm3.994-.014h-3.093l.142-.805.073-.039c.895-.084.897-.084 1.068-.987.131-.706.254-1.413.396-2.202-1.245.144-2.502-.259-3.639.355l.015.176.473.056c-.603 1.264-1.368 2.376-2.316 3.362-.054.055-.144.104-.217.104-.744.008-1.489.006-2.325.006.925-.959 1.817-1.828 2.36-3.049h-1.285c.373-.446.683-.821 1.002-1.186.047-.053.152-.078.229-.078 2.588-.003 5.175-.003 7.89-.003l-.773 4.29zm-.943-4.776c.31 0 .619-.01.927.021.163.017.321.112.453.258h-7.521c.205-.549.536-.807 1.148-.747.626.06 1.267.013 1.968.013l-.185.455h3.21zm1.255-.628c-2.164 0-4.326-.029-6.488.02-.64.015-1.014-.276-1.42-.735h8.674c-.082.716-.082.716-.766.715zm-4.997-2.12l3.565.006c.2.002.349-.01.399-.263.018-.089.183-.211.285-.214.602-.02 1.205-.01 1.864-.01l-.134.732h-2.361c-1.523 0-3.05-.039-4.574.017-.671.025-1.165-.167-1.593-.741h2.568l-.313.424.294.049zm-.943-.653c-.466.025-.858-.076-1.158-.455-.14-.174-.303-.324-.473-.506l.541-.008 1.824.018.06.293.896-.092c.29-.03.574-.053.859-.059 1.219.002 2.325.002 3.485-.005.289.002.513.052.686.181.172.127.298.332.393.644l-7.113-.011zm6.9 1.11l-.138.711h-2.089v-.427h-4.363l-.081.397c-.786.139-1.502.097-1.991-.683 2.87-.001 5.74-.001 8.662.002zm1.209 7.081c-.491.028-.985.011-1.469.011l1.29-2.656h-.948l.135-.725c.692.105 1.266.004 1.153-.916h1.786l-.168.893.554.047-.109.723c-.605-.181-.749.172-.924.631-.231.616-.576 1.191-.902 1.767-.066.115-.258.219-.398.225zm4.559-5.456c.025-.794.098-.836 1.162-.668-.097.769.093.769-1.162.668zm1.009.265l-.123.678h-1.084c.118-.836.17-.865 1.207-.678zm-.817-1.184c-.008-.837-.043-.785 1.162-.697l-.129.697h-1.033zm.145-.935l-.049-.517-.109-.022-.295.542h-1.049l.122-.699h2.567l-.137.697-1.05-.001zm-1.592-.925l.453-.93h1.012l.04.293c.477.057.959.103 1.274.637h-2.779zm.043 1.146h1.084l-.104.701h-1.11l.13-.701zm-3.7-.013h1.633l-.1.696c-.699.241-1.073-.206-1.533-.696zm1.495.94v.698c-.704.24-1.157-.145-1.616-.698h1.616zm.052-1.162c-.347.057-.756.179-1.061-.187-.13-.157-.305-.276-.534-.479h1.909c-.118.266-.186.645-.314.666zm1.411 1.201c-.15.766-.235.814-1.177.668.165-.777.291-.846 1.177-.668zm-.857-.271c.122-.816.172-.846 1.124-.674-.082.812-.045.754-1.124.674zm.226-.942c.095-.778.2-.836 1.134-.632-.095.767-.189.816-1.134.632zm1.035 2.125h1.099l-.13.707h-1.097l.128-.707zm.048-.224l.106-.7.283-.031.822-.001-.113.732h-1.098zm.125-2.769c-1.032 0-2.052.032-3.069-.024-.234-.013-.448-.328-.673-.505l.033-.112c.456 0 .911.014 1.367-.009.116-.006.228-.131.343-.194.125-.05.248-.082.366-.103l.91-.024.22.001.038.312.564.035-.099.623zm-.504 2.992l-.13.724c-.912 0-1.817.054-2.71-.028-.305-.027-.577-.393-.822-.694l3.662-.002zm2.025 4.87c-.043.303-.171.367-.443.354-.42-.019-.84-.004-1.277-.004v-.73c-.284.994-1.062.717-1.801.718 1.087-1.251 1.403-2.75 1.651-4.282h1.085c-.13 1.198-.451 2.314-.91 3.424h.671c.182-.982.388-1.963.534-2.951.06-.39.185-.556.583-.491.176.028.363.005.604.005l-.3 1.793c-.13.722-.291 1.442-.397 2.164zm3.694-2.32h-.896c-.145.772-.303 1.512-.416 2.26-.046.315-.149.444-.482.418-.377-.031-.757-.008-1.189-.008l.467-2.629-.483-.041c-.03-.635-.01-.662.588-.748l.043-.069c.231-.824.231-.824 1.117-.821h.626l-.132.917h.872l-.115.721zm.365-2.062c-.038.095-.148.226-.228.228-.905.016-1.804.01-2.725.01.025-.194.012-.363.074-.493.056-.111.2-.249.309-.251.871-.022 1.743-.012 2.658-.012-.033.215-.033.379-.088.518zm4.23-.233c-.618-.137-1.288.09-2.021-.174.698-.211 7.392-.137 7.618.102l-.473.033h-2.596c-.208 0-.413-.01-.343.383h2.625l-.013.09h-8.506l-.005-.098.517-.022c.947 0 1.895.006 2.84.002.184-.001.442.049.357-.316zm-3.048-1.213c.779 0 1.441-.009 2.099.011.1.002.197.135.256.285l.594-.001c.07-.001.179.023.207-.013l.184-.312h2.164l.008.289 1.146.012.033-.268 2.103-.006-.114.756h-1.74c-1.825 0-3.651-.038-5.475.022-.658.02-.976-.345-1.465-.775zm-2.066-.221l.213-.722.826.002.158.028c-.125.856-.029.754-1.197.692zm.888.255c-.204.756-.314.811-1.306.686.388-.855.112-.748 1.306-.686zm-.622-1.193l.15-.677h1.021c-.029.761-.125.82-1.171.677zm.705-.87h-2.597l.104-.647h.466c.082-.001.216.024.245-.017l.1-.36h1.623l.056.362.62.035c-.04.63-.04.628-.617.627zm-1.553.891h-1.017l.118-.692h1.018l-.119.692zm.023 1.869h-1.009l-.068-.706h.977l.1.706zm-.043-1.622l-.042.682h-.927c-.2-.83-.021-.801.969-.682zm11.467 4.389l-.625.053-.279 1.457h-3.344l-.218 1.147h-3.086l.134-.724c.307-.236.807.158 1.049-.412h-3.485c.032-.719.032-.719.671-.719h2.255c.691 0 .691 0 .756-.759h-3.424l.101-.731h3.476l.132-.627c-.919 0-1.796.01-2.672-.006-.184-.004-.362-.099-.541-.152l.027-.158h7.8149999999999995c.828-.001.85.02.807.893l.545.075-.094.663zm.027-3.706h-2.121l.03-.488-1.146.002-.044.511-.395.001c-.593-.01-1.187-.004-1.794-.004l.066-.582-.582-.008s-.08.293-.156.364c-.209.201-.426.212-.685.233-.674.059-1.265-.04-1.644-.743l.434-.021h7.497c.704 0 .724.024.54.735zm-3.056-1.469l-.004.138c.948.224 1.984-.202 2.894.267l-.013.136-.398.021c-2.4 0-4.799.006-7.201-.008-.218-.001-.436-.118-.656-.181l.039-.163h3.123l.006-.195h-2.736l.008-.156h8.865l.004.142-3.931-.001zm3.98-.36h-2.181c-2.204.004-4.411-.011-6.618.025-.511.009-.726-.324-1.025-.662h1.037c.777 0 1.559.007 2.338-.003.212-.003.507.123.562-.265.655-.139 1.335.031 2.016-.054l.002.119c.158.067.319.19.479.193 1.005.018 2.011.009 3.018.009h.484l-.112.638zm2.302-5.82c0 1.386-.904 2.291-2.281 2.291-10.531.002-21.063.002-31.594 0-.168 0-.34-.006-.506-.034-.994-.173-1.821-.863-1.821-1.743v-12.335c.255-.934.744-1.786 1.786-1.786h32.667c1.477 0 1.75 1.086 1.75 2.679 0 3.642.002 7.285-.001 10.928zM14.539 21.219c-.82.026-1.388.539-1.729 1.26-.33.7-.305 1.412.076 2.19.361-1.065.494-1.16 1.526-1.159h3.846c.052-.468.042-.875.153-1.247.106-.364.336-.679.52-1.043l-4.392-.001zM43.785 16.669c-2.28-.001-4.56-.002-6.838 0-.154 0-.313.003-.464.033-.721.138-1.188.584-1.422 1.256-.234.67-.189 1.32.283 1.977.275-.883.371-.953 1.197-.954h4.458c.948 0 1.897.008 2.845-.011.121-.002.338-.142.342-.225.027-.674.017-1.35.017-2.048l-.418-.028zM39.346 38.078l-.092.573h1.168l.098-.573h-1.174zM12.104 19.492c-.512.762-.333 1.852.371 2.425l.524-.419.513-.342c-.938-.664-.938-.664-1.408-1.664zM39.107 39.419l-.128.715c1.396.076 1.16.142 1.265-.715h-1.137zM18.746 19.9v.861h.9l-.9-.861zM20.312 21.205c-.802.001-1.41.454-1.505 1.258-.083.678-.017 1.373-.017 2.098.647-.958.827-1.051 1.973-1.051h1.348v-2.305h-1.799zM21.623 16.667c-2.227-.001-4.453.032-6.676-.012-1.348-.027-2.212 1.078-2.316 2.146-.052.525.138 1.01.452 1.212.243-.938.368-1.033 1.347-1.033h7.691v-2.313h-.498zM21.621 25.625c-2.464.001-4.926.003-7.391.001-1.044 0-1.62-.398-1.996-1.376l-.182-.458c-.253.831-.253 1.57-.02 2.297.388 1.2 1.295 1.842 2.548 1.842l7.003.002h.522v-2.308h-.484z"/></svg>