<svg xmlns="http://www.w3.org/2000/svg" viewBox="0 0 512 512" enable-background="new 0 0 512 512"><g fill="#3E4959"><path d="M262.103 71.992h-12.175l-3.592 17.787h19.354zM221.087 79.726l-10.555 6.062 5.803 17.191 16.715-9.654zM189.396 106.98l-6.059 10.473 13.573 12.027 9.644-16.735zM175.593 146.322l.02 12.224 17.721 3.553v-19.351zM183.337 187.374l6.059 10.511 17.158-5.785-9.644-16.712zM210.532 219.039l10.555 6.08 11.963-13.627-16.715-9.613zM249.928 232.865h12.175l3.587-17.789h-19.354zM290.954 225.119l10.524-6.08-5.803-17.16-16.704 9.613zM322.629 197.885l6.055-10.511-13.586-11.986-9.631 16.712zM336.41 158.546v-12.224l-17.759-3.574v19.351zM328.684 117.453l-6.055-10.473-17.162 5.765 9.631 16.735zM301.478 85.788l-10.554-6.062-11.953 13.599 16.704 9.654z"/></g><path d="M255.98 89.042c-34.962 0-63.357 28.372-63.357 63.375 0 35.008 28.396 63.37 63.357 63.37 35.039 0 63.455-28.362 63.455-63.37-.001-35-28.417-63.375-63.455-63.375zm0 80.919c-9.664 0-17.495-7.823-17.495-17.541 0-9.684 7.834-17.526 17.495-17.526 9.743 0 17.541 7.841 17.541 17.526 0 9.715-7.798 17.541-17.541 17.541z" fill="#242D3C"/><path d="M255.98 121.981c-16.786 0-30.403 13.622-30.403 30.438 0 16.863 13.617 30.469 30.403 30.469 16.868 0 30.477-13.604 30.477-30.469-.001-16.816-13.61-30.438-30.477-30.438zm0 45.648c-8.323 0-15.16-6.83-15.16-15.209 0-8.364 6.838-15.204 15.16-15.204 8.374 0 15.235 6.843 15.235 15.204-.001 8.379-6.862 15.209-15.235 15.209z" fill="#CCCBCA"/><g fill="#E6E5E5"><path d="M175.58 106.98l-61.616 61.609v127.137h61.632v-188.746zM336.41 106.98l61.626 61.609v127.137h-61.632v-188.746z"/></g><path fill="#CCCBCA" d="M0 295.731h512v86.282h-512z"/><g fill="#242D3C"><path d="M17.646 295.731h7.396v17.26h-7.396zM38.968 295.731h7.396v17.26h-7.396zM60.319 295.731h7.396v17.26h-7.396zM81.641 295.731h7.396v17.265h-7.396zM102.963 295.731h7.396v17.26h-7.396zM124.314 295.731h7.398v17.26h-7.398zM145.633 295.731h7.393v17.26h-7.393zM166.963 295.731h7.396v17.26h-7.396zM188.314 295.731h7.396v17.26h-7.396zM209.638 295.731h7.393v17.26h-7.393zM230.989 295.731h7.396v17.26h-7.396zM252.314 295.731h7.393v17.26h-7.393zM273.638 295.731h7.398v17.26h-7.398zM294.963 295.731h7.398v17.26h-7.398zM316.288 295.731h7.398v17.26h-7.398zM337.638 295.731h7.398v17.26h-7.398zM358.963 295.731h7.398v17.26h-7.398zM380.288 295.731h7.398v17.26h-7.398zM401.638 295.731h7.398v17.26h-7.398zM422.963 295.731h7.398v17.26h-7.398zM444.288 295.731h7.393v17.26h-7.393zM465.638 295.731h7.398v17.26h-7.398zM486.963 295.731h7.398v17.26h-7.398z"/></g><path fill="#E6E5E5" d="M336.404 382.008v30.823h-160.811v-30.823h-61.629v61.637h61.629v30.8h160.811v-30.8h61.632v-61.637z"/><path d="M255.946 267.277l-.092-8.192h.092c3.251 0 6.531-.151 9.759-.443l.735 8.161c-3.469.315-6.999.474-10.494.474zm-10.688-.494c-3.515-.328-7.048-.817-10.501-1.462l1.503-8.054c3.205.604 6.487 1.057 9.756 1.362l-.758 8.154zm31.688-1.421l-1.49-8.054c3.223-.591 6.451-1.344 9.595-2.235l2.225 7.882c-3.392.963-6.866 1.767-10.33 2.407zm-52.516-2.476c-3.382-.96-6.769-2.094-10.058-3.374l2.97-7.636c3.054 1.188 6.193 2.245 9.334 3.136l-2.246 7.874zm72.906-3.279l-2.947-7.642c3.054-1.178 6.09-2.511 9.016-3.968l3.643 7.34c-3.156 1.567-6.417 3-9.712 4.27zm-92.659-4.393c-3.146-1.574-6.262-3.318-9.257-5.179l4.321-6.956c2.783 1.728 5.676 3.343 8.596 4.805l-3.66 7.33zm111.647-5.025l-4.303-6.971c2.778-1.718 5.519-3.589 8.138-5.558l4.923 6.543c-2.814 2.125-5.766 4.135-8.758 5.986zm-129.641-6.16c-2.803-2.122-5.548-4.406-8.151-6.784l5.524-6.047c2.419 2.207 4.964 4.329 7.57 6.298l-4.943 6.533zm146.575-6.581l-5.507-6.065c2.424-2.202 4.777-4.544 6.986-6.956l6.036 5.537c-2.377 2.594-4.906 5.111-7.515 7.484zm-162.219-7.711c-2.371-2.604-4.652-5.343-6.774-8.161l6.533-4.938c1.974 2.614 4.093 5.169 6.292 7.583l-6.051 5.516zm176.537-7.905l-6.523-4.961c1.984-2.604 3.868-5.332 5.601-8.108l6.945 4.342c-1.863 2.99-3.888 5.921-6.023 8.727zm-189.309-9.004c-1.853-2.99-3.592-6.111-5.166-9.265l7.334-3.658c1.462 2.934 3.072 5.829 4.795 8.609l-6.963 4.314zm200.527-8.97l-7.322-3.681c1.472-2.929 2.821-5.952 4.004-8.986l7.631 2.975c-1.277 3.277-2.731 6.535-4.313 9.692zm-209.974-10.005c-1.272-3.287-2.404-6.671-3.364-10.058l7.882-2.235c.891 3.146 1.94 6.287 3.123 9.334l-7.641 2.959zm217.693-9.733l-7.877-2.255c.901-3.151 1.669-6.38 2.273-9.585l8.054 1.521c-.658 3.451-1.48 6.922-2.45 10.319zm-223.473-10.657c-.64-3.466-1.124-7.002-1.444-10.506l8.161-.742c.294 3.254.748 6.533 1.344 9.761l-8.061 1.487zm227.392-10.168l-8.156-.763c.305-3.249.466-6.561.476-9.846l8.192.028c-.01 3.528-.182 7.091-.512 10.581zm-221.125-10.919l-8.192-.005c.003-3.543.164-7.104.486-10.593l8.156.753c-.297 3.243-.445 6.553-.45 9.845zm213.023-9.531c-.292-3.254-.735-6.538-1.329-9.761l8.059-1.472c.632 3.466 1.114 7.002 1.428 10.506l-8.158.727zm-211.216-10.068l-8.054-1.498c.645-3.461 1.462-6.938 2.424-10.324l7.88 2.24c-.896 3.144-1.653 6.369-2.25 9.582zm207.662-9.28c-.886-3.146-1.93-6.292-3.103-9.344l7.642-2.944c1.27 3.287 2.396 6.676 3.351 10.071l-7.89 2.217zm-202.281-9.644l-7.636-2.959c1.275-3.287 2.721-6.546 4.293-9.702l7.327 3.658c-1.462 2.929-2.801 5.957-3.984 9.003zm195.213-8.719c-1.452-2.929-3.062-5.824-4.78-8.609l6.971-4.303c1.853 2.998 3.584 6.118 5.153 9.275l-7.344 3.637zm-186.432-8.881l-6.958-4.321c1.861-2.998 3.884-5.937 6.003-8.742l6.531 4.938c-1.969 2.611-3.845 5.34-5.576 8.125zm176.095-7.866c-1.969-2.614-4.086-5.174-6.282-7.588l6.065-5.509c2.368 2.609 4.641 5.356 6.764 8.172l-6.547 4.925zm-164.214-7.829l-6.057-5.519c2.371-2.604 4.895-5.12 7.501-7.503l5.519 6.052c-2.419 2.206-4.764 4.553-6.963 6.97zm150.981-6.746c-2.409-2.209-4.954-4.332-7.562-6.316l4.961-6.523c2.808 2.132 5.542 4.421 8.141 6.799l-5.54 6.04zm-136.44-6.525l-4.943-6.533c2.813-2.13 5.757-4.15 8.748-6.001l4.321 6.961c-2.781 1.723-5.517 3.594-8.126 5.573zm120.773-5.386c-2.78-1.738-5.67-3.361-8.584-4.826l3.676-7.316c3.144 1.574 6.249 3.323 9.247 5.194l-4.339 6.948zm-104.051-4.992l-3.658-7.327c3.146-1.574 6.415-3.018 9.702-4.293l2.964 7.636c-3.056 1.183-6.085 2.53-9.008 3.984zm86.469-3.845c-3.041-1.188-6.175-2.25-9.329-3.162l2.273-7.872c3.392.983 6.769 2.13 10.043 3.41l-2.987 7.624zm-68.124-3.269l-2.24-7.877c3.384-.96 6.856-1.777 10.324-2.422l1.503 8.054c-3.223.596-6.449 1.354-9.587 2.245zm49.221-2.171c-3.2-.607-6.479-1.07-9.751-1.388l.783-8.156c3.515.335 7.048.837 10.499 1.492l-1.531 8.052zm-29.886-1.429l-.748-8.156c3.492-.32 7.058-.484 10.591-.484l.492.005-.054 8.192-.438-.005c-3.284 0-6.596.154-9.843.448z" fill="#242D3C"/></svg>