<svg xmlns="http://www.w3.org/2000/svg" viewBox="0 0 512.003 512.003" enable-background="new 0 0 512.003 512.003"><path d="M304.266 370.796l-2.514-8.855c3.461-.98 6.922-2.089 10.291-3.277l3.069 8.676c-3.547 1.254-7.2 2.416-10.846 3.456zm-101.097-.512c-3.635-1.078-7.278-2.281-10.829-3.574l3.167-8.643c3.361 1.229 6.82 2.373 10.268 3.389l-2.606 8.828zm122.55-7.081l-3.615-8.463c3.305-1.405 6.597-2.939 9.784-4.539l4.142 8.212c-3.361 1.692-6.832 3.305-10.311 4.79zm-143.951-.758c-3.474-1.518-6.935-3.172-10.284-4.908l4.227-8.174c3.182 1.651 6.461 3.218 9.761 4.669l-3.704 8.413zm164.244-9.462l-4.641-7.941c3.09-1.812 6.164-3.745 9.142-5.742l5.13 7.634c-3.126 2.109-6.369 4.144-9.631 6.049zm-184.481-.991c-3.231-1.938-6.454-4.012-9.577-6.154l5.215-7.588c2.967 2.04 6.029 4.009 9.093 5.844l-4.731 7.898zm203.351-11.689l-5.601-7.309c2.824-2.161 5.637-4.462 8.358-6.84l6.047 6.938c-2.865 2.498-5.829 4.923-8.804 7.211zm-222.101-1.221c-2.975-2.33-5.914-4.782-8.735-7.304l6.124-6.868c2.678 2.388 5.471 4.718 8.292 6.932l-5.681 7.24zm239.248-13.734l-6.469-6.543c2.557-2.529 5.061-5.161 7.444-7.839l6.868 6.134c-2.511 2.816-5.148 5.585-7.843 8.248zm-256.238-1.4c-2.655-2.683-5.263-5.486-7.747-8.325l6.925-6.062c2.363 2.703 4.841 5.366 7.363 7.913l-6.541 6.474zm271.388-15.576l-7.232-5.688c2.214-2.819 4.378-5.74 6.418-8.701l7.575 5.225c-2.151 3.12-4.424 6.2-6.761 9.164zm-286.351-1.548c-2.307-3.005-4.544-6.113-6.646-9.229l7.629-5.146c1.997 2.962 4.119 5.914 6.313 8.763l-7.296 5.612zm299.276-17.193l-7.89-4.731c1.861-3.095 3.635-6.275 5.281-9.441l8.166 4.229c-1.729 3.34-3.596 6.686-5.557 9.943zm-311.979-1.667c-1.91-3.264-3.738-6.623-5.437-9.987l8.212-4.147c1.613 3.195 3.351 6.385 5.164 9.482l-7.939 4.652zm322.463-18.552l-8.43-3.707c1.457-3.308 2.821-6.687 4.05-10.035l8.643 3.167c-1.304 3.532-2.733 7.093-4.263 10.575zm-332.701-1.741c-1.492-3.476-2.885-7.048-4.145-10.601l8.673-3.08c1.198 3.379 2.519 6.758 3.935 10.063l-8.463 3.618zm340.552-19.653l-8.819-2.614c1.016-3.451 1.943-6.971 2.742-10.452l8.968 2.056c-.838 3.676-1.813 7.38-2.891 11.01zm-348.157-1.795c-1.037-3.64-1.971-7.352-2.772-11.041l8.991-1.953c.763 3.494 1.651 7.025 2.632 10.476l-8.851 2.518zm353.236-20.38l-9.078-1.492c.579-3.517 1.044-7.119 1.405-10.706l9.16.904c-.378 3.783-.878 7.582-1.487 11.294zm-358.082-1.846c-.566-3.722-1.024-7.526-1.362-11.3l9.165-.822c.32 3.587.753 7.196 1.298 10.726l-9.101 1.396zm360.337-20.789l-9.198-.348c.074-2.117.12-4.252.12-6.38 0-1.469-.018-2.944-.059-4.424l-.018-.666 9.198-.287.023.76c.038 1.513.054 3.069.054 4.616-.002 2.256-.04 4.496-.12 6.729zm-362.362-1.861l-.01-.445c-.038-1.508-.056-3.052-.056-4.598 0-2.122.036-4.239.11-6.346l9.196.325c-.069 1.997-.108 4.001-.108 6.019 0 1.469.023 2.944.056 4.421l-9.188.624zm352.56-20.757c-.32-3.558-.768-7.168-1.318-10.721l9.096-1.403c.579 3.743 1.044 7.549 1.388 11.292l-9.166.832zm-342.612-1.093l-9.16-.888c.366-3.771.852-7.565 1.459-11.292l9.083 1.464c-.571 3.543-1.037 7.145-1.382 10.716zm339.307-20.25c-.768-3.489-1.654-7.004-2.652-10.465l8.845-2.537c1.05 3.645 1.984 7.357 2.793 11.036l-8.986 1.966zm-335.867-1.067l-8.978-2.035c.84-3.689 1.805-7.396 2.872-11.016l8.827 2.596c-1.013 3.44-1.93 6.955-2.721 10.455zm329.902-19.679c-1.198-3.359-2.524-6.743-3.953-10.056l8.458-3.63c1.503 3.494 2.903 7.053 4.165 10.596l-8.67 3.09zm-323.799-1.052l-8.645-3.156c1.295-3.543 2.721-7.101 4.244-10.573l8.43 3.689c-1.448 3.299-2.802 6.676-4.029 10.04zm315.282-18.775c-1.623-3.2-3.369-6.385-5.179-9.464l7.923-4.675c1.915 3.249 3.75 6.602 5.466 9.974l-8.21 4.165zm-306.603-1.027l-8.177-4.224c1.728-3.341 3.589-6.687 5.537-9.948l7.895 4.718c-1.848 3.098-3.619 6.275-5.255 9.454zm295.659-17.556c-2.03-2.993-4.157-5.932-6.341-8.758l7.288-5.622c2.294 2.972 4.539 6.067 6.666 9.208l-7.613 5.172zm-284.567-.993l-7.583-5.215c2.143-3.118 4.408-6.208 6.738-9.18l7.245 5.676c-2.212 2.825-4.365 5.754-6.4 8.719zm271.365-16.103c-2.355-2.688-4.844-5.345-7.38-7.898l6.525-6.487c2.673 2.683 5.284 5.486 7.772 8.315l-6.917 6.07zm-258.042-.914l-6.876-6.111c2.514-2.829 5.146-5.612 7.826-8.266l6.479 6.531c-2.542 2.524-5.044 5.163-7.429 7.846zm242.808-14.405c-2.688-2.378-5.481-4.708-8.305-6.917l5.665-7.25c2.977 2.324 5.921 4.772 8.748 7.288l-6.108 6.879zm-227.477-.806l-6.06-6.922c2.844-2.493 5.801-4.918 8.791-7.227l5.617 7.286c-2.839 2.188-5.647 4.497-8.348 6.863zm210.455-12.496c-2.977-2.035-6.039-4.001-9.111-5.834l4.713-7.903c3.238 1.933 6.464 4.001 9.595 6.144l-5.197 7.593zm-193.354-.691l-5.148-7.619c3.116-2.107 6.351-4.147 9.618-6.067l4.662 7.928c-3.098 1.831-6.172 3.761-9.132 5.758zm174.784-10.388c-3.2-1.644-6.479-3.205-9.761-4.641l3.684-8.435c3.461 1.513 6.922 3.156 10.291 4.897l-4.214 8.179zm-156.18-.538l-4.15-8.212c3.374-1.708 6.84-3.325 10.296-4.81l3.63 8.463c-3.282 1.403-6.566 2.936-9.776 4.559zm136.379-8.12c-3.402-1.234-6.858-2.378-10.281-3.374l2.591-8.832c3.607 1.062 7.247 2.253 10.829 3.558l-3.139 8.648zm-116.544-.387l-3.085-8.668c3.564-1.27 7.209-2.435 10.839-3.471l2.532 8.845c-3.446.983-6.907 2.091-10.286 3.294zm95.802-5.703c-3.517-.794-7.089-1.48-10.604-2.04l1.446-9.088c3.717.594 7.478 1.324 11.185 2.156l-2.027 8.972zm-75.046-.228l-1.971-8.996c3.689-.806 7.457-1.508 11.192-2.079l1.395 9.093c-3.545.546-7.116 1.209-10.616 1.982zm53.729-3.195c-3.566-.343-7.191-.571-10.78-.696l.31-9.198c3.776.131 7.598.374 11.359.735l-.889 9.159zm-32.384-.092l-.824-9.165c3.753-.343 7.572-.561 11.359-.668l.259 9.196c-3.598.097-7.225.309-10.794.637z" fill="#242D3C"/><path fill="#3E4959" d="M240.691 328.041h27.894v30.899h-27.894z"/><path d="M389.212 196.388c0 74.36-60.27 134.607-134.605 134.607-74.337 0-134.579-60.244-134.579-134.607 0-74.33 60.242-134.579 134.579-134.579 74.335 0 134.605 60.252 134.605 134.579z" fill="#242D3C"/><path d="M363.215 196.388c0 59.983-48.635 108.557-108.608 108.557-59.945 0-108.554-48.573-108.554-108.557 0-59.973 48.609-108.549 108.554-108.549 59.973 0 108.608 48.578 108.608 108.549z" fill="#06B2B8"/><path d="M347.412 196.388c0 51.249-41.562 92.751-92.805 92.751-51.21 0-92.749-41.503-92.749-92.751 0-51.238 41.541-92.751 92.749-92.751 51.244-.001 92.805 41.515 92.805 92.751z" fill="#21D8DE"/><path fill="#242D3C" d="M282.972 164.198h-56.74l-3.873 82.537h64.525z"/><g fill="#fff"><path d="M318.464 263.657c-16.614 15.77-39.117 25.472-63.846 25.472s-47.232-9.702-63.872-25.472l1.306-4.099c.896-2.842 2.406-5.53 4.582-7.834 2.15-2.33 4.685-4.019 7.45-5.146l29.312-11.648c1.485-.589 2.79-1.613 3.763-2.995.947-1.459 1.434-3.021 1.434-4.659v-14.259h32.077v14.259c0 1.638.435 3.2 1.408 4.659.973 1.382 2.301 2.406 3.738 2.995l29.338 11.648c2.765 1.126 5.325 2.816 7.475 5.146 2.15 2.304 3.635 4.992 4.531 7.834l1.304 4.099zM254.62 140.406c-17.559 0-30.036 12.785-30.036 39.869 0 22.917 13.437 42.263 30.036 42.263 16.573 0 30.036-19.348 30.036-42.263.001-27.087-12.508-39.869-30.036-39.869z"/></g><g fill="#242D3C"><path d="M281.562 141.86h-53.917s-3.83 26.939 1.073 32.425c.195-2.225 2.168-2.857 5.75-2.862 0 0 3.018-3.346 5.179-12.598 1.636 6.292.878 12.849.878 12.849 3.84.261 8.566.658 14.098.686 1.408 0 2.77-.033 4.035-.054 0 0 1.633-1.011 2.358-3.423 1.027 1.311 1.16 3.233 1.16 3.233 11.52-.62 17.938-1.958 18.322 2.171 4.916-5.488 1.064-32.427 1.064-32.427zM233.408 234.936c1.467-.589 2.783-1.623 3.748-3.011.96-1.452 1.426-3.021 1.426-4.636v-6.085h-9.029c-1.165-8.507-1.828-16.904-1.828-24.85 0-23.521 1.62-32.325 8.125-40.276 8.402-10.227 18.772-12.342 18.772-12.342s10.368 2.117 18.762 12.342c6.508 7.951 8.092 16.755 8.092 40.276 0 7.946-.62 16.343-1.818 24.85h-8.991v6.085c0 1.615.435 3.185 1.398 4.636.975 1.388 2.307 2.422 3.761 3.011l16.804 6.694c2.048-2.58 3.121-5.688 3.121-8.817v-11.61c0-19.482-.586-44.897-4.708-63.444-3.602-15.918-17.198-31.286-36.421-27.118-19.236-4.168-32.819 11.2-36.426 27.118-4.16 18.547-4.731 43.963-4.731 63.444v11.61c0 3.128 1.068 6.236 3.167 8.817l16.776-6.694zM297.574 278.633c-12.854 6.682-27.469 10.499-42.957 10.499s-30.131-3.814-42.982-10.522c1.51-6.938 2.381-14.643 2.381-22.784 0-4.454-.282-8.73-.742-12.877h.051l7.859-3.123 3.379 13.568c1.587 6.477 5.299 12.544 10.957 16.947 5.683 4.454 11.955 6.326 19.098 6.326 7.094 0 13.389-1.869 19.098-6.326 5.658-4.403 9.37-10.47 10.957-16.947l3.377-13.568 7.859 3.123h.026c-.509 4.147-.768 8.422-.768 12.877.001 8.138.871 15.869 2.407 22.807z"/></g><path fill="#F15424" d="M226.867 385.871h55.485v126.131h-55.485z"/><g fill="#242D3C"><path d="M222.208 358.94h64.783v26.936h-64.783z"/><circle cx="396.698" cy="301.417" r="29.445"/></g><g fill="#CCCBCA"><circle cx="119.06" cy="83.09" r="19.63"/><circle cx="173.842" cy="6.543" r="6.543"/></g><g fill="#242D3C"><circle cx="35.515" cy="162.947" r="10.468"/><circle cx="77.944" cy="338.691" r="6.198"/></g><circle cx="387.891" cy="367.747" r="8.817" fill="#CCCBCA"/><path d="M370.575 13.092c0 7.222-5.868 13.082-13.084 13.082-7.219 0-13.087-5.862-13.087-13.082 0-7.227 5.868-13.084 13.087-13.084 7.217 0 13.084 5.857 13.084 13.084z" fill="#242D3C"/><g fill="#CCCBCA"><path d="M486.956 216.684c0 9.889-8.028 17.91-17.91 17.91-9.9 0-17.915-8.02-17.915-17.91 0-9.894 8.015-17.91 17.915-17.91 9.881 0 17.91 8.015 17.91 17.91z"/><circle cx="130.35" cy="378.755" r="15.703"/></g></svg>