<svg xmlns="http://www.w3.org/2000/svg" viewBox="0 0 512.003 512.003" enable-background="new 0 0 512.003 512.003"><g fill="#D9D8D7"><path d="M339.62 423.538v-43.389c40.829 0 74.053-33.188 74.053-74.01 0-40.804-33.224-74.028-74.053-74.028v-43.389c64.758 0 117.45 52.657 117.45 117.417 0 64.745-52.692 117.399-117.45 117.399zM317.926 380.156h43.374v76.572h-43.374z"/></g><g fill="#242D3C"><path d="M217.088 478.435h245.043v21.691h-245.043zM270.08 456.726h139.085v21.696h-139.085z"/></g><g fill="#D9D8D7"><path d="M250.931 316.361h38.292v25.498h-38.292zM238.157 124.914h63.795v25.536h-63.795z"/></g><g fill="#242D3C"><path d="M238.157 150.45h63.795v165.916h-63.795zM250.931 99.401h38.292v25.513h-38.292zM217.088 380.156h100.838v21.701h-100.838zM301.965 150.45h37.655c10.452 0 20.9 3.963 28.882 11.958 7.987 7.956 11.958 18.406 11.958 28.856 0 10.452-3.971 20.91-11.958 28.887-7.982 7.992-18.429 11.973-28.882 11.973h-37.655v-81.674z"/></g><path d="M357.499 191.261c0 9.882-8.013 17.887-17.879 17.887-9.856 0-17.861-8.005-17.861-17.887 0-9.851 8.005-17.848 17.861-17.848 9.869.003 17.879 7.998 17.879 17.848z" fill="#fff"/><path d="M339.62 392.91c4.946 0 8.934 4.024 8.934 8.942 0 4.92-3.991 8.94-8.934 8.94-4.931 0-8.919-4.019-8.919-8.94 0-4.915 3.988-8.942 8.919-8.942z" fill="#242D3C"/><g fill="#FF6D3B"><path d="M0 191.279h217.088v138.598h-217.088zM217.096 361.002l-31.132-31.14h31.132z"/></g><path fill="#fff" d="M183.414 223.889l-8.832 3.31-8.827 15.454-8.832 1.329-8.832 7.926-8.814-3.487-10.273-7.301-7.404 9.925-8.832 5.069-8.827-6.293-8.811 5.512-8.835 2.499-8.829 15.142-8.83 4.59-8.855-7.355-8.799-3.305-8.865 13.978-8.832-3.016-8.811 6.812-9.114 1.104v19.748l186.373.094v-96.376l-9.495 1.49z"/><path fill="#242D3C" d="M16.072 316.707l-1.421-2.796 9.047-4.603 9.042-17.328 8.911-.436 8.791-13.207 8.866-1.433 9.213-11.925 10.204 4.286 9.211 9.653 6.605-9.413 10.155-2.66 8.313 6.311 8.153-8.177 8.512-2.583 8.778-18.916 10.394-5.767 9.495 11.671 7.375 4.185 8.707-11.533 9.106 3.257 8.445-6.925 9.562-1.234.399 3.11-8.668 1.117-9.124 7.483-8.604-3.078-8.975 11.884-10.286-5.829-8.208-10.097-7.203 4.001-8.943 19.264-9.098 2.76-9.533 9.559-9.278-7.048-7.567 1.987-8.143 11.599-11.395-11.945-7.383-3.1-8.494 11.001-8.742 1.413-8.907 13.381-8.696.425-8.676 16.624z"/><g fill="#D9D8D7"><path d="M459.776 68.412c0 31.199-25.308 56.502-56.509 56.502-31.227 0-56.535-25.303-56.535-56.502 0-31.232 25.308-56.535 56.535-56.535 31.201 0 56.509 25.301 56.509 56.535zM346.729 124.914v-56.502h56.535z"/></g><path d="M403.279 29.277v39.096h39.107c.002-21.608-17.498-39.096-39.107-39.096z" fill="#fff"/><path d="M403.279 68.371v-39.094c-21.576 0-39.096 17.487-39.096 39.096s17.523 39.066 39.096 39.066c10.836 0 20.557-4.372 27.638-11.469l-27.638-27.599z" fill="#242D3C"/><path d="M403.279 68.371l27.638 27.597c7.017-7.009 11.469-16.799 11.469-27.597h-39.107z" fill="#F15424"/><path fill="#16C6CC" d="M407.578 185.545h104.425v71.885h-104.425z"/><g fill="#fff"><path d="M417.664 237.359h6.554v9.626h-6.554zM426.291 228.425h6.554v18.56h-6.554zM434.944 232.547h6.556v14.436h-6.556zM443.546 216.547h6.556v30.431h-6.556zM452.198 221.257h6.536v25.728h-6.536zM460.851 205.001h6.518v41.984h-6.518zM469.478 225.148h6.523v21.834h-6.523zM478.106 229.449h6.551v17.521h-6.551zM486.733 211.964h6.554v35.008h-6.554zM495.36 196.015h6.548v50.952h-6.548z"/></g><path d="M179.192 124.22c0 19.476-15.805 35.315-35.32 35.315-19.505 0-35.31-15.841-35.31-35.315 0-19.515 15.808-35.318 35.31-35.318 19.515 0 35.32 15.803 35.32 35.318z" fill="#16C6CC"/><g fill="#fff"><path d="M146.358 142.171h-4.974c-2.798 0-5.45-1.075-7.429-3.049-1.974-1.976-3.059-4.618-3.059-7.439h5.983c0 1.226.468 2.348 1.321 3.2.852.85 1.966 1.318 3.185 1.318h4.974c1.211 0 2.345-.474 3.218-1.334.829-.84 1.29-1.956 1.29-3.187 0-1.17-.474-2.327-1.316-3.151-.85-.847-1.981-1.318-3.192-1.318h-4.974c-2.798 0-5.45-1.091-7.429-3.085-1.974-1.974-3.059-4.598-3.059-7.406 0-2.811 1.085-5.46 3.059-7.429 1.979-1.979 4.634-3.057 7.429-3.057h4.974c2.785 0 5.412 1.075 7.427 3.034 1.989 1.992 3.069 4.644 3.069 7.455h-5.988c0-1.219-.463-2.348-1.311-3.192-.852-.845-1.987-1.316-3.197-1.316h-4.974c-1.219 0-2.33.463-3.185 1.318-.852.845-1.321 1.974-1.321 3.19 0 1.185.468 2.34 1.321 3.185.852.819 1.966 1.288 3.185 1.288h4.974c2.79 0 5.412 1.121 7.427 3.085 1.989 1.994 3.069 4.623 3.069 7.404 0 2.821-1.08 5.463-3.059 7.439-2.024 1.977-4.65 3.047-7.438 3.047zM140.877 102.245h5.978v6.973h-5.978zM140.877 139.183h5.978v6.999h-5.978z"/></g><path d="M478.72 322.723c0 9.137-7.411 16.579-16.591 16.579-9.142 0-16.55-7.439-16.55-16.579 0-9.155 7.409-16.591 16.55-16.591 9.18-.001 16.591 7.436 16.591 16.591z" fill="#242D3C"/><g fill="#CCCBCA"><path d="M219.31 82.18c0 4.908-3.971 8.888-8.904 8.888-4.895 0-8.865-3.981-8.865-8.888 0-4.905 3.971-8.881 8.865-8.881 4.934 0 8.904 3.978 8.904 8.881zM145.091 380.148c0 7.857-6.359 14.221-14.195 14.221-7.864 0-14.223-6.362-14.223-14.221 0-7.836 6.359-14.19 14.223-14.19 7.833 0 14.195 6.357 14.195 14.19z"/></g></svg>