<svg height="512" viewBox="0 0 512 512" width="512" xmlns="http://www.w3.org/2000/svg"><circle cx="256" cy="256" fill="#ffc76d" r="256"/><circle cx="256" cy="256" fill="#fff1db" r="217.599"/><path d="M256 263.726c-4.267 0-7.726-3.459-7.726-7.726v-179.877c0-4.267 3.459-7.726 7.726-7.726s7.726 3.459 7.726 7.726v179.877c0 4.267-3.459 7.726-7.726 7.726zM435.877 263.726h-179.877c-4.267 0-7.726-3.459-7.726-7.726s3.459-7.726 7.726-7.726h179.877c4.267 0 7.726 3.459 7.726 7.726.001 4.267-3.459 7.726-7.726 7.726z" fill="#ff9fc8"/><path d="M399.028 92.019c33.387 38.246 53.617 88.272 53.617 143.028 0 120.176-97.422 217.599-217.599 217.599-54.756 0-104.782-20.231-143.028-53.617 39.889 45.695 98.561 74.571 163.981 74.571 120.176 0 217.599-97.422 217.599-217.599.001-65.422-28.875-124.093-74.57-163.982z" fill="#ffe3b6"/><g fill="#ff9d00"><path d="M87.224 263.726h-11.101c-4.267 0-7.726-3.459-7.726-7.726s3.459-7.726 7.726-7.726h11.102c4.267 0 7.726 3.459 7.726 7.726s-3.46 7.726-7.727 7.726zM256 443.604c-4.267 0-7.726-3.459-7.726-7.726v-11.102c0-4.267 3.459-7.726 7.726-7.726s7.726 3.459 7.726 7.726v11.102c0 4.266-3.459 7.726-7.726 7.726zM136.658 144.384c-1.977 0-3.955-.755-5.463-2.263l-7.851-7.851c-3.018-3.017-3.018-7.909 0-10.927 3.017-3.017 7.909-3.017 10.927 0l7.851 7.851c3.018 3.017 3.018 7.909 0 10.927-1.509 1.509-3.487 2.263-5.464 2.263zM383.193 390.919c-1.977 0-3.955-.755-5.463-2.263l-7.851-7.851c-3.018-3.017-3.018-7.909 0-10.927 3.017-3.017 7.909-3.017 10.927 0l7.851 7.851c3.018 3.017 3.018 7.909 0 10.927-1.51 1.508-3.487 2.263-5.464 2.263zM375.342 144.384c-1.977 0-3.955-.755-5.463-2.263-3.018-3.017-3.018-7.909 0-10.927l7.851-7.851c3.017-3.017 7.909-3.017 10.927 0s3.018 7.909 0 10.927l-7.851 7.851c-1.509 1.509-3.487 2.263-5.464 2.263zM128.807 390.919c-1.977 0-3.955-.755-5.463-2.263-3.018-3.017-3.018-7.909 0-10.927l7.851-7.851c3.017-3.017 7.909-3.017 10.927 0s3.018 7.909 0 10.927l-7.851 7.851c-1.509 1.508-3.486 2.263-5.464 2.263zM100.67 197.708c-1.008 0-2.033-.199-3.019-.618l-10.217-4.343c-3.927-1.67-5.757-6.206-4.088-10.133 1.67-3.927 6.206-5.756 10.133-4.088l10.217 4.343c3.927 1.67 5.757 6.206 4.088 10.133-1.25 2.941-4.108 4.706-7.114 4.706zM421.541 334.092c-1.008 0-2.033-.199-3.019-.618l-10.217-4.343c-3.927-1.67-5.757-6.206-4.088-10.133s6.206-5.755 10.133-4.088l10.217 4.343c3.927 1.67 5.757 6.206 4.088 10.133-1.25 2.94-4.108 4.706-7.114 4.706zM322.017 108.401c-1.008 0-2.033-.199-3.019-.618-3.927-1.67-5.757-6.206-4.088-10.133l4.343-10.217c1.669-3.926 6.207-5.756 10.133-4.088 3.927 1.67 5.757 6.206 4.088 10.133l-4.343 10.217c-1.25 2.941-4.108 4.706-7.114 4.706zM185.633 429.273c-1.008 0-2.033-.199-3.019-.618-3.927-1.67-5.757-6.206-4.088-10.133l4.343-10.217c1.67-3.927 6.206-5.757 10.133-4.088s5.757 6.206 4.088 10.133l-4.343 10.217c-1.25 2.941-4.108 4.706-7.114 4.706zM192.853 107.212c-3.058 0-5.953-1.827-7.168-4.838l-4.154-10.296c-1.597-3.957.317-8.459 4.274-10.056 3.958-1.596 8.46.317 10.056 4.274l4.154 10.296c1.597 3.957-.317 8.459-4.274 10.056-.947.383-1.926.564-2.888.564zM323.306 430.54c-3.058 0-5.953-1.827-7.168-4.838l-4.154-10.296c-1.597-3.957.317-8.459 4.274-10.056s8.46.317 10.056 4.274l4.154 10.296c1.597 3.957-.317 8.459-4.274 10.056-.947.383-1.926.564-2.888.564zM412.519 200.579c-3.058 0-5.953-1.827-7.168-4.838-1.597-3.957.317-8.459 4.274-10.056l10.296-4.154c3.958-1.598 8.46.317 10.056 4.274 1.597 3.957-.317 8.459-4.274 10.056l-10.296 4.154c-.947.383-1.926.564-2.888.564zM89.191 331.032c-3.058 0-5.953-1.827-7.168-4.838-1.597-3.957.317-8.459 4.274-10.056l10.296-4.154c3.958-1.597 8.459.317 10.056 4.274s-.317 8.459-4.274 10.056l-10.296 4.154c-.947.383-1.926.564-2.888.564z"/></g></svg>