<svg height="512" viewBox="0 0 512 512" width="512" xmlns="http://www.w3.org/2000/svg"><circle cx="256" cy="256" fill="#ffc76d" r="256"/><path d="M473.595 256c0 75.193-38.127 141.464-96.106 180.56-34.697 23.385-76.501 37.035-121.489 37.035-44.885 0-86.587-13.588-121.232-36.87-58.122-39.065-96.363-105.429-96.363-180.725 0-120.181 97.414-217.595 217.595-217.595s217.595 97.414 217.595 217.595z" fill="#fff1db"/><path d="M394.015 87.77c30.845 37.555 49.365 85.619 49.365 138.015 0 75.193-38.127 141.464-96.105 180.56-34.697 23.385-76.501 37.035-121.489 37.035-44.885 0-86.587-13.588-121.232-36.87-5.793-3.893-11.379-8.07-16.758-12.487 13.481 16.41 29.301 30.824 46.974 42.703 34.645 23.282 76.347 36.87 121.232 36.87 44.988 0 86.793-13.65 121.489-37.035 57.979-39.095 96.106-105.367 96.106-180.56-.002-67.787-30.996-128.325-79.582-168.231z" fill="#ffe3b6"/><path d="M256 263.726c-4.267 0-7.726-3.459-7.726-7.726v-179.877c0-4.267 3.459-7.726 7.726-7.726s7.726 3.459 7.726 7.726v179.877c0 4.267-3.459 7.726-7.726 7.726z" fill="#ff9fc8"/><g fill="#ff9d00"><path d="M87.224 263.726h-11.101c-4.267 0-7.726-3.459-7.726-7.726s3.459-7.726 7.726-7.726h11.102c4.267 0 7.726 3.459 7.726 7.726s-3.46 7.726-7.727 7.726zM256 443.604c-4.267 0-7.726-3.459-7.726-7.726v-11.102c0-4.267 3.459-7.726 7.726-7.726s7.726 3.459 7.726 7.726v11.102c0 4.266-3.459 7.726-7.726 7.726zM136.658 144.384c-1.977 0-3.955-.755-5.463-2.263l-7.851-7.851c-3.018-3.017-3.018-7.909 0-10.927 3.017-3.017 7.909-3.017 10.927 0l7.851 7.851c3.018 3.017 3.018 7.909 0 10.927-1.509 1.509-3.487 2.263-5.464 2.263zM383.193 390.919c-1.977 0-3.955-.755-5.463-2.263l-7.851-7.851c-3.018-3.017-3.018-7.909 0-10.927 3.017-3.017 7.909-3.017 10.927 0l7.851 7.851c3.018 3.017 3.018 7.909 0 10.927-1.51 1.508-3.487 2.263-5.464 2.263zM375.342 144.384c-1.977 0-3.955-.755-5.463-2.263-3.018-3.017-3.018-7.909 0-10.927l7.851-7.851c3.017-3.017 7.909-3.017 10.927 0s3.018 7.909 0 10.927l-7.851 7.851c-1.509 1.509-3.487 2.263-5.464 2.263zM128.807 390.919c-1.977 0-3.955-.755-5.463-2.263-3.018-3.017-3.018-7.909 0-10.927l7.851-7.851c3.017-3.017 7.909-3.017 10.927 0s3.018 7.909 0 10.927l-7.851 7.851c-1.509 1.508-3.486 2.263-5.464 2.263zM100.67 197.708c-1.008 0-2.033-.199-3.019-.618l-10.217-4.343c-3.927-1.67-5.757-6.206-4.088-10.133 1.67-3.927 6.205-5.756 10.133-4.088l10.217 4.343c3.927 1.67 5.757 6.206 4.088 10.133-1.25 2.941-4.108 4.706-7.114 4.706zM421.541 334.092c-1.008 0-2.033-.199-3.019-.618l-10.217-4.343c-3.927-1.67-5.757-6.206-4.088-10.133 1.67-3.927 6.206-5.755 10.133-4.088l10.217 4.343c3.927 1.67 5.757 6.206 4.088 10.133-1.25 2.94-4.108 4.706-7.114 4.706zM322.017 108.401c-1.008 0-2.033-.199-3.019-.618-3.927-1.67-5.757-6.206-4.088-10.133l4.343-10.217c1.67-3.926 6.205-5.756 10.133-4.088 3.927 1.67 5.757 6.206 4.088 10.133l-4.343 10.217c-1.25 2.941-4.108 4.706-7.114 4.706zM185.633 429.273c-1.008 0-2.033-.199-3.019-.618-3.927-1.67-5.757-6.206-4.088-10.133l4.343-10.217c1.669-3.927 6.206-5.757 10.133-4.088s5.757 6.206 4.088 10.133l-4.343 10.217c-1.25 2.941-4.108 4.706-7.114 4.706zM192.853 107.212c-3.058 0-5.953-1.827-7.168-4.838l-4.154-10.296c-1.597-3.957.317-8.459 4.274-10.056 3.958-1.596 8.459.317 10.056 4.274l4.154 10.296c1.597 3.957-.317 8.459-4.274 10.056-.947.383-1.926.564-2.888.564zM323.306 430.54c-3.058 0-5.953-1.827-7.168-4.838l-4.154-10.296c-1.597-3.957.317-8.459 4.274-10.056 3.958-1.597 8.459.317 10.056 4.274l4.154 10.296c1.597 3.957-.317 8.459-4.274 10.056-.947.383-1.926.564-2.888.564zM412.519 200.579c-3.058 0-5.953-1.827-7.168-4.838-1.597-3.957.317-8.459 4.274-10.056l10.296-4.154c3.957-1.598 8.46.317 10.056 4.274 1.597 3.957-.317 8.459-4.274 10.056l-10.296 4.154c-.947.383-1.926.564-2.888.564zM89.191 331.032c-3.058 0-5.953-1.827-7.168-4.838-1.597-3.957.317-8.459 4.274-10.056l10.296-4.154c3.957-1.597 8.46.317 10.056 4.274 1.597 3.957-.317 8.459-4.274 10.056l-10.296 4.154c-.947.383-1.926.564-2.888.564z"/></g><path d="M435.877 263.726h-179.877c-4.267 0-7.726-3.459-7.726-7.726s3.459-7.726 7.726-7.726h179.877c4.267 0 7.726 3.459 7.726 7.726.001 4.267-3.459 7.726-7.726 7.726z" fill="#ff9fc8"/><path d="M377.489 436.56c-34.697 23.385-76.501 37.035-121.489 37.035-44.885 0-86.587-13.588-121.232-36.87l4.152-24.426c3.183-18.729 17.956-33.347 36.716-36.324l76.429-12.135c2.606-.412 5.264-.412 7.871 0l76.779 12.197c18.801 2.977 33.594 17.647 36.736 36.427z" fill="#ff708a"/><path d="M286.215 323.322v44.607c0 16.689-13.526 30.215-30.215 30.215s-30.215-13.526-30.215-30.215v-44.607z" fill="#ffd28b"/><path d="M286.215 323.322v29.082l-15.988 7.809c-9.066 4.419-19.172 4.43-28.237.01l-16.205-7.881v-29.02z" fill="#ffc76d"/><path d="M300.187 334.929l-29.962 14.62c-9.063 4.423-19.169 4.429-28.236.019l-30.136-14.658c-14.51-7.058-24.032-24.216-24.032-43.304v-82.696h136.359v82.734c0 19.069-9.504 36.214-23.993 43.285z" fill="#ffd28b"/><path d="M220.975 215.01c-1.14 2.138-4.153 7.087-10.238 10.456-7.957 4.405-15.694 3.078-17.821 2.639-.673 0-4.253-.067-7.146-2.96-1.829-1.829-2.96-4.355-2.96-7.146v-7.325c0-28.991 23.502-52.494 52.494-52.494h93.887c.802 1.204 18.878 29.191 5.93 52.473-8.339 14.994-24.701 19.326-33.982 21.784-37.549 9.941-71.124-11.288-80.164-17.427z" fill="#4c537d"/></svg>