<svg viewBox="0 0 492 492" xmlns="http://www.w3.org/2000/svg"><path d="M314.629 321.023c.445-2.004-.164-4.094-1.613-5.543l-43.516-43.516c12.785-17.621 10.863-41.922-4.531-57.316-15.395-15.395-39.695-17.316-57.316-4.531l-43.52-43.516c-1.449-1.453-3.539-2.059-5.539-1.617-2.004.445-3.641 1.879-4.34 3.809l-35.824 98.512c-11.809 32.328-30.516 61.699-54.816 86.074-9.816 9.816-9.816 25.734 0 35.555l27.07 27.066c9.816 9.82 25.734 9.82 35.551 0l.5-.488 55.98 55.98c2.344 2.344 6.141 2.344 8.484 0 17.297-17.293 17.297-45.332 0-62.625l-24.941-24.941c14.477-9.234 29.918-16.859 46.051-22.742l98.512-35.824c1.926-.699 3.363-2.336 3.809-4.336zm-80.977-107.344c11.793 0 22.645 6.426 28.313 16.766 5.668 10.34 5.246 22.949-1.102 32.887l-44.582-44.582c5.184-3.324 11.215-5.086 17.371-5.07zm-125.191 197.684c-3.488.012-6.832-1.375-9.293-3.848l-27.066-27.07c-5.133-5.129-5.133-13.449 0-18.582 4.672-4.676 9.156-9.547 13.453-14.605l46.797 46.805c-5.051 4.293-9.918 8.777-14.605 13.453-2.457 2.473-5.801 3.859-9.285 3.848zm74.258 5.992c10.969 10.973 12.586 28.195 3.852 41.02l-51.102-51.102c6.574-5.883 13.473-11.395 20.66-16.508zm25.488-67.449c-23.887 8.73-46.301 21.066-66.453 36.582l-48.625-48.625c15.512-20.156 27.848-42.566 36.578-66.457l32.602-89.66 135.559 135.555zm0 0M298.98 193.5c-18.473-18.508-46.223-24.172-70.465-14.375-3.074 1.238-4.563 4.734-3.324 7.809 1.238 3.074 4.734 4.563 7.809 3.324 19.781-7.969 42.41-3.355 57.492 11.727 15.078 15.078 19.695 37.707 11.727 57.492-1.238 3.07.25 6.566 3.324 7.805s6.566-.25 7.805-3.32c9.797-24.242 4.137-51.992-14.367-70.461zm0 0M334.734 278.438c3.074 1.238 6.57-.25 7.809-3.324 14.414-35.777 6.07-76.703-21.207-103.977-27.273-27.277-68.203-35.621-103.977-21.207-3.074 1.238-4.563 4.734-3.324 7.809 1.238 3.074 4.734 4.563 7.809 3.324 31.313-12.617 67.137-5.313 91.008 18.559 23.871 23.871 31.176 59.695 18.559 91.008-1.238 3.074.25 6.57 3.324 7.809zm0 0M401.625 0c-49.914 0-90.375 40.461-90.375 90.375s40.461 90.375 90.375 90.375 90.375-40.461 90.375-90.375c-.055-49.891-40.484-90.32-90.375-90.375zm0 168.75c-43.285 0-78.375-35.09-78.375-78.375s35.09-78.375 78.375-78.375 78.375 35.09 78.375 78.375c-.051 43.266-35.109 78.324-78.375 78.375zm0 0M434.09 79.879c12.379 0 22.418-10.023 22.438-22.406.016-12.379-9.996-22.434-22.375-22.469s-22.449 9.965-22.5 22.344l-27.824 16.066c-8.98-7.773-22.461-7.203-30.754 1.301-8.289 8.504-8.516 21.996-.512 30.773 8 8.777 21.457 9.797 30.691 2.328l28.523 17.875c1.176 11.082 10.297 19.625 21.434 20.07 11.133.445 20.91-7.34 22.969-18.293 2.055-10.953-4.23-21.758-14.77-25.379-10.539-3.625-22.141 1.027-27.254 10.93l-23.906-14.98c1.711-4.707 1.797-9.855.242-14.617l24.531-14.168c4.09 6.602 11.301 10.621 19.066 10.625zm0-32.871c5.762 0 10.434 4.672 10.434 10.438 0 5.762-4.672 10.434-10.438 10.434-5.762 0-10.438-4.672-10.438-10.438.008-5.762 4.676-10.43 10.441-10.434zm-64.93 53.805c-5.762 0-10.434-4.676-10.434-10.438 0-5.766 4.672-10.438 10.438-10.438 5.762 0 10.438 4.672 10.438 10.438-.008 5.762-4.676 10.43-10.441 10.438zm64.93 12.059c5.762 0 10.434 4.672 10.434 10.438s-4.672 10.438-10.438 10.438c-5.766 0-10.438-4.676-10.438-10.438.008-5.762 4.676-10.434 10.441-10.438zm0 0M401.625 311.25c-49.914 0-90.375 40.461-90.375 90.375s40.461 90.375 90.375 90.375 90.375-40.461 90.375-90.375c-.055-49.891-40.484-90.32-90.375-90.375zm0 168.75c-43.285 0-78.375-35.09-78.375-78.375s35.09-78.375 78.375-78.375 78.375 35.09 78.375 78.375c-.051 43.266-35.109 78.324-78.375 78.375zm0 0M438.73 396.523l-49.148-30.402c-1.852-1.145-4.176-1.195-6.078-.137-1.898 1.059-3.078 3.063-3.078 5.238v60.801c0 2.176 1.18 4.18 3.078 5.238 1.902 1.059 4.227 1.004 6.078-.141l49.148-30.398c1.77-1.094 2.844-3.023 2.844-5.105 0-2.078-1.074-4.008-2.844-5.102zm-46.305 24.734v-39.266l31.742 19.633zm0 0M90.375 180.75c49.914 0 90.375-40.461 90.375-90.375s-40.461-90.375-90.375-90.375-90.375 40.461-90.375 90.375c.055 49.891 40.484 90.32 90.375 90.375zm0-168.75c43.285 0 78.375 35.09 78.375 78.375s-35.09 78.375-78.375 78.375-78.375-35.09-78.375-78.375c.051-43.266 35.109-78.324 78.375-78.375zm0 0M53.5 126.258h42.938c8.836-.012 15.992-7.168 16-16v-.953l21.926 12.031c1.859 1.02 4.117.984 5.941-.098 1.828-1.078 2.945-3.043 2.945-5.164v-51.398c0-2.121-1.121-4.082-2.945-5.164-1.824-1.078-4.082-1.117-5.941-.098l-21.926 12.035v-.957c-.008-8.832-7.164-15.988-16-16h-42.938c-8.832.012-15.988 7.168-16 16v39.766c.012 8.832 7.168 15.988 16 16zm77.75-51.445v31.125l-18.813-10.32v-10.48zm-81.75-4.32c0-2.207 1.789-4 4-4h42.938c2.211 0 4 1.793 4 4v39.766c0 2.207-1.789 4-4 4h-42.938c-2.211 0-4-1.793-4-4zm0 0"/></svg>