<svg xmlns="http://www.w3.org/2000/svg" viewBox="0 0 512 512"><path d="M122.185 177.254l-20.624 16.316-19.205 35.099c-18.525 33.857-50.653 41.627-50.653 41.627l-3.442-1.884c-7.606-4.161-17.145-1.368-21.308 6.237l-5.024 9.18c-4.161 7.607-1.369 17.146 6.236 21.308l199.119 108.954c7.605 4.162 17.146 1.369 21.308-6.237l5.025-9.181c4.16-7.607 1.367-17.146-6.238-21.307l-3.443-1.886c-.008-.023-10.771-31.261 7.749-65.103l24.314-44.436v-88.688h-133.814v.001z" fill="#F2D422"/><path d="M204.678 187.555l-.704.346h.336l.368-.346zM109.847 220.328c-.243-.284-.476-.589-.703-.906l-.154-.217c-.219-.319-.429-.656-.631-1.008l-.139-.249c-.2-.365-.392-.746-.572-1.147l-.1-.232c-.185-.428-.362-.869-.523-1.337l-.035-.11c-.157-.463-.301-.949-.434-1.454l-.054-.2c-.13-.513-.245-1.05-.349-1.606l-.056-.303c-.098-.555-.182-1.133-.253-1.732l-.037-.332c-.066-.617-.121-1.254-.158-1.918l-.012-.27c-.035-.707-.057-1.435-.057-2.196v-14.721l-4.018 3.179-19.206 35.1c-18.525 33.857-50.653 41.627-50.653 41.627l-3.442-1.884c-7.606-4.161-17.145-1.368-21.308 6.237l-5.024 9.18c-4.161 7.607-1.369 17.146 6.236 21.308l12.687 6.942c-4.021-4.81-4.931-11.77-1.74-17.603l5.024-9.18c4.163-7.606 13.702-10.398 21.308-6.237l3.442 1.884s32.128-7.771 50.653-41.627l10.358-18.929-.05-.059z" fill="#E8C018"/><circle cx="94.379" cy="383.999" r="27.801" fill="#E5E1E1"/><circle cx="417.619" cy="383.999" r="27.8" fill="#E5E1E1"/><path d="M97.797 370.659c2.538-4.638 6.205-8.265 10.473-10.726l-.545-.317c-13.468-7.371-30.364-2.426-37.734 11.042-7.37 13.468-2.426 30.362 11.044 37.732 8.831 4.832 19.134 4.37 27.26-.317-13.052-7.523-17.766-24.131-10.498-37.414zM421.036 397.349c-7.267-13.284-2.554-29.891 10.498-37.416-8.126-4.688-18.429-5.149-27.26-.317-13.469 7.37-18.412 24.263-11.043 37.732 7.369 13.468 24.263 18.412 37.735 11.042l.544-.316c-4.269-2.461-7.937-6.087-10.474-10.725z" fill="#D1CFCF"/><path d="M510.07 283.831l-5.025-9.18c-4.163-7.606-13.7-10.398-21.307-6.237l-3.442 1.884s-32.13-7.771-50.653-41.627l-24.021-43.899v-5.2h-143.293l-8.301 10.481c-12.384 20.592-13.827 47.019-1.46 69.619l27.746 50.709c18.519 33.842 7.757 65.08 7.749 65.103l-3.443 1.886c-7.606 4.161-10.397 13.701-6.237 21.307l5.024 9.181c4.162 7.606 13.703 10.398 21.308 6.237l199.118-108.956c7.606-4.162 10.398-13.701 6.237-21.308z" fill="#F2D422"/><path d="M303.456 399.098l-5.024-9.181c-4.161-7.607-1.369-17.146 6.237-21.307l3.443-1.886c.008-.023 10.77-31.261-7.749-65.103l-27.746-50.709c-12.367-22.6-10.924-49.027 1.46-69.619l1.365-1.723h-13.113l-8.301 10.481c-12.384 20.592-13.827 47.019-1.46 69.619l27.746 50.709c18.519 33.842 7.757 65.08 7.749 65.103l-3.443 1.886c-7.606 4.161-10.397 13.701-6.237 21.307l5.024 9.181c4.162 7.606 13.703 10.398 21.308 6.237l12.487-6.833c-5.538-.014-10.9-2.961-13.746-8.162z" fill="#E8C018"/><path d="M215.304 172.608v-24.333c0-2.487.527-4.85 1.463-6.992l-84.244-41.344c-4.3-2.05-31.065-13.644-31.065 15.831v89.342c0 29.472 26.765 17.88 31.065 15.829l84.244-41.341c-.935-2.142-1.463-4.503-1.463-6.992zM374.56 99.939l-84.251 41.344c.936 2.141 1.466 4.504 1.466 6.991v24.333c0 2.489-.53 4.85-1.466 6.993l84.251 41.341c4.296 2.051 31.062 13.643 31.062-15.829v-89.342c0-29.475-26.766-17.881-31.062-15.831z" fill="#EA473B"/><path d="M124.628 205.112v-89.342c0-8.79 2.389-13.909 5.844-16.736-7.583-3.129-29.014-9.646-29.014 16.736v89.342c0 26.378 21.431 19.863 29.014 16.734-3.455-2.827-5.844-7.945-5.844-16.734z" fill="#D63322"/><path d="M232.783 187.768c-7.166 0-13.317-4.314-16.016-10.484l-10.522 5.163c-24.314 20.741-46.529 53.463-57.981 71.782l-.002.005c-8.428 13.003 3.103 18.739 3.171 18.775l15.227 7.001 2.401 1.104 1.214.556c7.411 3.41 15.624 7.184 21.857 10.051 14.78 6.797 18.075-7.032 18.075-7.032h.007c14.009-50.182 35.171-86.676 41.483-96.92h-18.914v-.001z" fill="#EA473B"/><path d="M168.877 273.987l.002-.006c11.065-21.915 31.983-59.863 56.74-87.756-3.946-1.778-7.116-4.971-8.852-8.941l-10.522 5.163c-24.314 20.741-46.529 53.463-57.981 71.782l-.002.005c-8.428 13.003 3.103 18.739 3.171 18.775l15.115 6.949c.441-1.816 1.187-3.8 2.329-5.971z" fill="#D63322"/><path d="M359.924 256.019l-.002-.005c-11.083-17.908-33.979-52.144-59.112-73.577l-10.501-5.153c-2.7 6.17-8.849 10.484-16.017 10.484h-18.912c6.304 10.226 27.407 46.623 41.417 96.685h.006c3.934 13.157 13.55 9.379 13.559 9.377l.278-.129.507-.233 40.257-18.511 1.105-.509c13.391-6.159 9.093-15.557 7.751-17.89l-.336-.539z" fill="#EA473B"/><path d="M282.256 185.839c-2.389 1.227-5.092 1.929-7.964 1.929h-18.912c6.304 10.226 27.407 46.623 41.417 96.685h.006c3.934 13.157 13.55 9.379 13.559 9.377l.278-.129.507-.233 13.068-6.009c-13.202-45.113-30.654-80.968-41.959-101.62zM274.292 130.216h-41.509c-9.957 0-18.058 8.101-18.058 18.058v24.333c0 9.957 8.101 18.056 18.058 18.056h41.509c9.96 0 18.063-8.1 18.063-18.056v-24.333c0-9.957-8.103-18.058-18.063-18.058z" fill="#D63322"/><path d="M237.895 172.608v-24.333c0-9.957 8.1-18.058 18.057-18.058h-23.169c-9.957 0-18.058 8.101-18.058 18.058v24.333c0 9.957 8.101 18.056 18.058 18.056h23.169c-9.956 0-18.057-8.1-18.057-18.056z" fill="#C62A1E"/></svg>