<svg xmlns="http://www.w3.org/2000/svg" viewBox="0 0 550.795 550.795"><path d="M501.613 491.782c12.381 0 23.109-4.088 32.229-12.16l-156.049-156.055c-3.744 2.681-7.373 5.288-10.801 7.767-11.678 8.604-21.156 15.318-28.434 20.129-7.277 4.822-16.959 9.737-29.045 14.755-12.094 5.024-23.361 7.528-33.813 7.528h-.612c-10.453 0-21.72-2.503-33.813-7.528-12.093-5.018-21.775-9.933-29.045-14.755-7.277-4.811-16.75-11.524-28.434-20.129-3.256-2.387-6.867-5.006-10.771-7.809l-156.079 156.097c9.119 8.072 19.854 12.16 32.234 12.16h452.433zM31.047 225.299c-11.677-7.785-22.032-16.701-31.047-26.744v237.425l137.541-137.541c-27.516-19.21-62.969-43.562-106.494-73.14zM520.059 225.299c-41.865 28.336-77.447 52.73-106.75 73.195l137.486 137.492v-237.431c-8.815 9.841-19.059 18.751-30.736 26.744zM501.613 59.013h-452.432c-15.784 0-27.919 5.33-36.42 15.979-8.508 10.654-12.755 23.978-12.755 39.957 0 12.907 5.636 26.892 16.903 41.959 11.267 15.061 23.256 26.891 35.961 35.496 6.965 4.921 27.969 19.523 63.012 43.801 18.917 13.109 35.368 24.535 49.505 34.395 12.05 8.396 22.442 15.667 31.022 21.701.985.691 2.534 1.799 4.59 3.269 2.215 1.591 5.018 3.61 8.476 6.107 6.659 4.816 12.191 8.709 16.597 11.683 4.4 2.975 9.731 6.298 15.985 9.988 6.249 3.685 12.143 6.456 17.675 8.299 5.533 1.842 10.655 2.766 15.367 2.766h.612c4.711 0 9.834-.924 15.368-2.766 5.531-1.843 11.42-4.608 17.674-8.299 6.248-3.69 11.572-7.02 15.986-9.988 4.406-2.974 9.938-6.866 16.598-11.683 3.451-2.497 6.254-4.517 8.469-6.102 2.057-1.476 3.605-2.577 4.596-3.274 6.684-4.651 17.1-11.892 31.104-21.616 25.482-17.705 63.01-43.764 112.742-78.281 14.957-10.447 27.453-23.054 37.496-37.803 10.025-14.749 15.051-30.22 15.051-46.408 0-13.525-4.873-25.098-14.598-34.737-9.736-9.627-21.265-14.443-34.584-14.443z"/></svg>