<svg xmlns="http://www.w3.org/2000/svg" viewBox="0, 0, 400,386.59217877094966"><g fill-rule="evenodd"><path d="M151.263.29c.012.585.596 1.16 1.451 1.427.481.15.787.416.679.591-.108.176.063.419.381.541.318.122.578.498.578.837 0 .338.14.529.311.423 2.291-1.416 4.732 15.848 2.48 17.54-.152.114-.333.535-.401.934-.069.399-.316 1.183-.548 1.741-.507 1.216-.57 1.431-.633 2.147-.027.304-.266.791-.532 1.082-.828.906-1.866 3.066-1.346 2.804.261-.132.196-.009-.145.273-.341.283-.753.949-.915 1.48-.162.531-.71 1.52-1.217 2.197-.507.677-.922 1.51-.922 1.85 0 .34-.262.718-.581.84-.319.123-.58.444-.58.715 0 .27-.269.714-.598.987-.329.273-.505.739-.391 1.035.113.296.039.435-.165.309-.204-.126-.482.213-.617.754-.136.54-.388.982-.561.982-.173 0-.429.524-.57 1.164-.141.641-.397 1.077-.57.97-.173-.107-.423.24-.556.771-.133.53-.413.964-.622.964-.208 0-.379.309-.379.688 0 .378-.228 1.031-.507 1.45-.279.42-.742 1.503-1.029 2.407-.287.905-.649 1.645-.804 1.645-.155 0-.396.609-.536 1.353-.14.745-.415 1.354-.611 1.354s-.264.244-.15.542c.115.297.022.656-.205.796-.227.141-.413.68-.413 1.2 0 .519-.152.944-.337.944-.186 0-.449.844-.586 1.875-.137 1.032-.371 1.998-.52 2.147-.292.292-.29.282-.916 5.456-.471 3.899-.229 15.063.343 15.782.203.256.32.77.259 1.142-.06.373.05.677.244.677.193 0 .353.392.355.871.001.479.262 1.369.58 1.978.318.61.578 1.35.578 1.644 0 .295.192.536.428.536.235 0 .328.262.205.581-.122.319-.067.58.122.58s.458.522.599 1.16c.14.639.401 1.161.58 1.161.179 0 .44.522.58 1.161.14.638.424 1.16.631 1.16.207 0 .559.522.781 1.16.222.638.561 1.063.754.944.192-.118.349-.024.349.211 0 .234.348.799.773 1.256.426.457.774 1.069.774 1.36 0 .292.174.423.387.292.213-.132.387-.048.387.186 0 .234 1.654 2.087 3.675 4.119 2.021 2.031 3.675 3.584 3.675 3.452 0-.132.481.244 1.07.837 1.121 1.127 2.412 1.601 2.412.885 0-.717-1.543-3.483-1.943-3.483-.208 0-.35-.131-.316-.29.034-.16-.14-.781-.387-1.38-.247-.599-.449-1.349-.449-1.667 0-.317-.16-.479-.356-.358-.195.121-.47-.304-.611-.944-.14-.64-.413-1.164-.607-1.164-.193 0-.463-.696-.599-1.547-.136-.851-.394-1.548-.573-1.548-.178 0-.225-.261-.102-.58.122-.319.052-.58-.156-.58s-.494-.871-.635-1.935c-.141-1.063-.402-1.934-.579-1.934-.342 0-.881-2.68-.84-4.18.013-.49-.125-.8-.306-.688-.364.225-.819-3.762-.823-7.221-.002-1.223-.177-2.224-.39-2.224-.212 0-.387-.871-.387-1.934 0-1.064.148-1.935.328-1.935.18 0 .438-2.198.574-4.886.137-2.687.408-5.081.603-5.319.195-.238.479-1.434.63-2.657.152-1.224.424-2.225.605-2.225s.444-.87.585-1.934c.141-1.064.429-1.934.639-1.934.21 0 .293-.34.185-.755-.109-.416-.086-.807.051-.871.137-.063.572-1.072.966-2.243 1.234-3.664 3.168-7.906 4.022-8.821.266-.285.484-.755.484-1.045 0-.827 1.766-4.099 2.056-3.81.142.143.371-.296.507-.975.135-.68.343-1.14.46-1.023.117.117.452-.355.745-1.05.292-.695.478-1.276.412-1.292-.065-.015.186-.332.559-.704.372-.373.677-.926.677-1.23 0-.304.172-.553.382-.553.21 0 .493-.696.63-1.547.136-.851.37-1.547.52-1.547.15 0 .299-.218.331-.484.209-1.746.602-2.998.939-2.998.233 0 .305-.548.175-1.347-.12-.741-.048-1.452.161-1.581.436-.27.4-7.904-.038-7.904-.157 0-.202-.435-.1-.967.108-.564.005-.967-.247-.967-.238 0-.432-.338-.432-.751s-.177-.86-.394-.994c-.216-.133-.293-.405-.17-.603.122-.198.038-.36-.187-.36-.226 0-.41-.266-.41-.592 0-.326-.268-.695-.595-.821-.327-.125-.843-.709-1.146-1.296-.624-1.206-2.53-3.121-3.051-3.065-.189.021-.45-.108-.581-.286-.482-.659-2.739-2.064-3.315-2.064-.328 0-.596-.139-.596-.309 0-.362-2.277-1.238-3.219-1.238-.357 0-.647.131-.644.29m44.282 34.903c.128.207-.123.681-.558 1.053-.434.372-.79.884-.79 1.138 0 .255-.13.521-.29.591-.518.231-2.418 3.383-2.418 4.012 0 .337-.161.512-.359.39-.344-.213-1.036 1.221-.878 1.82.042.16-.093.29-.3.29-.407 0-1.943 3.114-1.946 3.944-.001.278-.349 1.075-.773 1.772-.425.696-.773 1.503-.773 1.793 0 .29-.26 1.025-.578 1.635-.317.609-.578 1.413-.58 1.785-.001.372-.165.677-.365.677-.2 0-.362.304-.361.677.004 1.311-.542 3.965-.815 3.965-.152 0-.243.479-.203 1.064.041.585-.08 1.263-.266 1.507-.187.243-.303.591-.258.773.046.182-.044 2.507-.2 5.167-.177 3.034-.117 6.276.161 8.704.244 2.127.453 4.521.465 5.319.012.798.15 1.451.306 1.451.157 0 .375.478.484 1.063.109.585.302 1.412.428 1.838.127.425.429 1.688.671 2.805.242 1.117.572 2.03.733 2.03.161 0 .404.597.541 1.326.137.729.412 1.382.612 1.451.2.069.417.473.483.899.065.425.254.991.42 1.257.166.266.178.483.026.483s-.015.305.305.677c.643.748 1.243 2.064 1.148 2.515-.034.159.098.29.294.29.196 0 .468.508.604 1.128.136.621.498 1.225.805 1.342.306.117.556.48.556.806 0 .326.154.592.342.592.188 0 .442.305.564.677.122.373.663 1.374 1.201 2.225.539.851 1.161 1.963 1.382 2.471.221.508.51.816.643.683.132-.133.476.191.762.72l1.044 1.923c.287.528.623.86.747.736.123-.124.439.488.7 1.359.261.872.602 1.586.757 1.586.156 0 .397.609.537 1.354.139.744.404 1.353.587 1.353.183 0 .457.914.608 2.031.151 1.117.371 2.38.489 2.805.444 1.601.53 7.544.11 7.544-.228 0-.38.13-.338.29.178.667-.535 5.898-.828 6.079-.176.109-.438.983-.582 1.943-.144.96-.402 1.746-.574 1.746-.172 0-.414.623-.537 1.385-.124.762-.598 2.199-1.053 3.192-1.176 2.564-1.451 3.238-1.727 4.223-.134.479-.392.871-.574.871-.181 0-.441.507-.578 1.128-.136.621-.509 1.229-.829 1.351-.319.123-.485.379-.367.569.117.19-.017.537-.299.771-.281.234-.743 1.124-1.024 1.978-.282.854-.663 1.553-.847 1.553-.184 0-.5.435-.703.967-.202.532-.546.967-.764.967-.218 0-.396.261-.396.58 0 .32-.155.581-.345.581-.19 0-.454.435-.588.967-.133.532-.401.967-.595.967-.194 0-.754.805-1.245 1.788-.492.984-1.102 1.869-1.357 1.967-.255.097-.375.408-.267.691.113.294-.157.626-.632.776-.487.155-.746.481-.628.789.111.289-.103.622-.475.741-.373.118-.898.826-1.168 1.573-.271.747-.641 1.266-.823 1.153-.183-.113-.442.141-.576.564-.135.423-.669 1.104-1.189 1.512-.519.409-.944.935-.944 1.171 0 .235-.17.428-.377.428-.465 0-1.698 2.309-1.394 2.613.282.282 3.318-.711 3.318-1.086 0-.156.436-.392.968-.526.532-.133.967-.413.967-.622 0-.209.242-.379.539-.379.296 0 .634-.249.75-.553.117-.303.663-.608 1.214-.677.552-.068.985-.283.964-.477-.034-.31 1.99-1.372 2.565-1.347.119.005.551-.376.96-.849.41-.472.745-.701.745-.509 0 .193.412-.129.916-.714.503-.585 1.085-1.064 1.293-1.064.208 0 .69-.344 1.071-.764.38-.421.842-.672 1.027-.558.184.114.335.05.335-.141 0-.192.61-.678 1.356-1.08.746-.401 1.445-1.01 1.554-1.353.109-.342.671-.868 1.249-1.168 1.519-.787 2.81-1.963 2.575-2.344-.112-.181.004-.329.258-.329.525 0 4.226-3.646 4.226-4.164 0-.186.436-.717.968-1.179.531-.463.967-1.089.967-1.392 0-.303.146-.608.325-.679.642-.255 3.156-3.878 3.156-4.548 0-.605.328-1.117 1.931-3.016.219-.259.378-.608.353-.774-.081-.532.505-2.043.792-2.043.152 0 .303-.217.335-.483.183-1.53.581-2.998.811-2.998.146 0 .296-.392.334-.871.037-.479.277-2.727.534-4.997.448-3.977.427-4.54-.488-12.701-.036-.319-.259-.831-.496-1.138-.334-.433-.316-.489.081-.25.4.24.426.15.121-.409-.433-.792-.989-2.873-.89-3.329.035-.159-.102-.29-.305-.29-.204 0-.484-.609-.624-1.354-.139-.745-.401-1.354-.58-1.354-.179 0-.444-.626-.587-1.392-.184-.976-.36-1.236-.592-.87-.248.39-.333.328-.337-.247-.006-.84-1.84-4.727-2.616-5.546-.267-.281-.485-.77-.485-1.086 0-.317-.174-.468-.387-.337-.212.132-.386-.119-.386-.557 0-.438-.179-.797-.397-.797-.218 0-.562-.435-.764-.967-.202-.532-.556-.967-.787-.967-.23 0-.317-.166-.191-.369.125-.202-.04-.681-.367-1.063-.328-.383-.628-.87-.667-1.082-.04-.213-.382-.72-.762-1.127-.379-.407-.894-1.36-1.144-2.117-.25-.757-.689-1.612-.976-1.899-.287-.287-.522-.771-.522-1.076 0-.305-.348-1.204-.773-1.997-.426-.794-.774-1.674-.774-1.956 0-.282-.156-.416-.346-.299-.36.223-1-1.553-.861-2.392.044-.266-.094-.484-.306-.484-.213 0-.5-.607-.64-1.35-.139-.743-.401-1.259-.582-1.147-.182.112-.446-.673-.588-1.744-.142-1.072-.394-1.948-.559-1.948-.166 0-.203-.375-.083-.834.136-.521.068-.742-.181-.588-.435.269-1.048-2.41-.903-3.941.054-.574-.069-.817-.334-.654-.241.15-.427-.037-.437-.44-.058-2.328-.513-4.994-.894-5.231-.589-.367-.63-20.706-.043-21.111.22-.152.407-.538.415-.857.041-1.576.674-5.271.965-5.638.181-.228.257-.794.168-1.257-.09-.463.001-.842.202-.842s.365-.532.365-1.183c0-.791.147-1.093.443-.91.31.192.368-.023.194-.718-.155-.618-.077-1.051.206-1.145.605-.202.041-1.073-.696-1.073-.319 0-.475.17-.347.377m-48.77 124.16c-.194.182-2.873.454-5.952.605-3.079.151-5.951.353-6.383.45-.431.097-1.655.227-2.719.289-1.063.062-2.195.217-2.514.344-.64.255-3.926.616-6.469.711-.898.033-1.553.189-1.456.346.098.158-1.474.41-3.492.562-2.019.151-3.67.409-3.67.572 0 .164-1.157.416-2.571.561-1.414.145-2.859.417-3.211.606-.351.188-1.675.462-2.941.609-1.266.146-2.411.439-2.544.649-.133.211-.612.266-1.064.122-.488-.154-.822-.093-.822.152 0 .227-.522.413-1.16.413-.639 0-1.161.195-1.161.432 0 .252-.403.355-.967.247-.532-.101-.967-.056-.967.1 0 .293-2.138.921-2.994.879-.264-.012-.384.131-.267.32.116.189-.103.357-.488.373-1.294.055-2.168.303-2.403.683-.128.207-.885.499-1.683.649-.797.149-1.45.437-1.45.638 0 .202-.174.26-.386.128-.213-.131-.387-.074-.387.128 0 .201-.614.481-1.365.622-.751.141-1.263.422-1.138.624s-.051.367-.392.367-.993.348-1.45.774c-.456.425-1.145.773-1.531.773-.385 0-.701.187-.701.415 0 .228-.261.675-.58.994-.319.32-.58.45-.58.289 0-.16-.609.394-1.354 1.23-1.377 1.548-2.172 8.678-.967 8.678.233 0 .393 1.655.403 4.158.01 2.287.202 6.509.427 9.381.226 2.873.436 5.861.467 6.64.031.78.187 1.549.347 1.709.159.16.29 1.209.29 2.331 0 1.122.154 2.136.343 2.252.188.117.27.998.181 1.958-.089.959-.007 1.745.182 1.745.306 0 .96 4.53.908 6.294-.011.377.123.597.299.489.175-.108.441 1.119.592 2.728.151 1.609.386 2.813.523 2.677.238-.238 1.285 5.067 1.279 6.477-.002.372.137.677.309.677s.428.863.568 1.918c.14 1.056.403 2.011.585 2.123.181.112.45 1.161.596 2.331.146 1.17.427 2.227.625 2.349.198.122.361.517.362.876.002.36.23 1.09.507 1.622.278.532.736 2.055 1.018 3.385.282 1.329.663 2.417.847 2.417.184 0 .334.425.334.945 0 .519.177 1.053.393 1.187.216.134.293.405.171.603-.123.198-.041.36.182.36s.516.693.652 1.541c.135.847.398 1.446.585 1.331.186-.115.339.018.34.297.002.278.246.973.544 1.544.298.571.656 1.56.796 2.198.141.638.505 1.367.811 1.62.305.254.555.788.555 1.188 0 .399.193.726.428.726.236 0 .325.27.198.6-.127.331-.077.506.11.391.187-.116.454.397.593 1.14.139.743.408 1.351.597 1.351s.467.391.619.87c.152.479.676 1.504 1.165 2.279.488.774.782 1.514.652 1.644-.129.129-.033.236.216.236.248 0 .451.198.451.441 0 .242.305.69.677.995.402.33.441.438.097.267-.431-.214-.406-.089.096.485.373.426.677.988.677 1.25s.169.371.376.244c.206-.128.486.209.621.748.136.539.388.893.561.786.172-.107.426.317.563.941.137.625.679 1.417 1.204 1.762.526.344.864.773.752.955-.112.181.056.429.374.551.318.122.578.585.578 1.03 0 .445.162.709.359.587.198-.122.47.126.605.551.135.425.931 1.487 1.77 2.36.847.881 1.411 1.788 1.268 2.038-.141.247-.118.323.053.169.398-.36 3.296 2.608 3.296 3.376 0 .319.261.58.58.58.319 0 .58.201.58.446 0 .246.696 1.11 1.547 1.919.852.81 1.549 1.349 1.55 1.198.001-.151.601.378 1.334 1.176.733.797 1.515 1.45 1.739 1.45.224 0 .406.272.406.603 0 .332.151.51.336.396.184-.114.663.164 1.063.616.401.453 1.464 1.295 2.363 1.871.899.576 1.523 1.159 1.386 1.295-.136.137.044.248.401.248.357 0 .947.348 1.311.774.364.426.885.774 1.157.774s.494.183.494.406c0 .224.609.661 1.354.973.745.311 1.354.747 1.354.97 0 .222.175.296.39.163.214-.132.497.042.63.387.132.345.465.541.739.436.274-.106.593.056.709.358.21.546 4.745 2.883 5.597 2.883.245 0 .446.16.446.356 0 .196.522.471 1.16.611.639.14 1.161.426 1.161.634 0 .208.174.271.387.14.212-.132.386-.055.386.17 0 .226.349.41.774.41.426 0 .774.174.774.387 0 .213.396.387.881.387.484 0 1.224.24 1.644.534.42.294.85.543.956.553.107.011.684.205 1.283.433.599.228 1.436.414 1.86.414.491 0 .67.165.492.453-.187.302-.071.372.352.21.347-.133.734-.076.86.128.125.203.624.37 1.108.37.484 0 1.001.121 1.149.269.292.292.267.285 3.245.936 1.117.245 2.031.596 2.031.78 0 .185.609.336 1.354.336.744 0 1.354.192 1.354.428s.281.32.629.187c.346-.133.902-.021 1.235.248.506.411.549.396.263-.09-.28-.475-.238-.496.233-.115.316.255 1.742.584 3.169.73 1.427.146 2.594.427 2.594.624 0 .196.305.317.677.267 1.217-.162 6.861.522 7.078.858.116.18 2.951.446 6.301.59 3.349.144 6.18.409 6.291.589.264.427 14.083.426 14.083-.002 0-.267 7.206-.923 9.768-.89.372.005.677-.133.677-.308 0-.174 1.653-.44 3.675-.592 2.021-.151 3.675-.433 3.675-.626s.513-.351 1.141-.351 2.064-.207 3.192-.46c1.127-.253 2.28-.417 2.562-.363.282.053.717-.065.967-.263.51-.404 3.289-1.021 4.033-.896.266.045.484-.085.484-.288 0-.203.695-.487 1.545-.631.85-.144 1.644-.42 1.764-.614.12-.194.512-.354.872-.356.36-.001 1.119-.244 1.687-.541.567-.296 1.743-.658 2.612-.805.924-.156 1.48-.431 1.338-.661-.153-.248.062-.297.578-.133.488.154.822.093.822-.152 0-.227.359-.413.797-.413.503 0 .695-.165.52-.447-.167-.271-.106-.342.155-.18.237.146.743.099 1.124-.106 1.562-.84 4.255-1.975 4.683-1.975.252 0 .458-.174.458-.387 0-.213.201-.387.446-.387.805 0 5.139-2.246 6.278-3.253.613-.542 1.267-.891 1.453-.776.187.115.438-.047.558-.36.12-.314.648-.678 1.174-.81.575-.144.848-.413.686-.675-.159-.257-.096-.328.154-.173.233.143.891-.221 1.463-.811.571-.59.92-.855.774-.589-.454.827.339.53.875-.328.278-.446.601-.717.716-.601.115.115.641-.303 1.168-.93.527-.626 1.161-1.142 1.408-1.145.247-.004.858-.439 1.358-.966.501-.528 1.023-.891 1.161-.808.351.212 1.224-.793.937-1.08-.129-.129-.036-.235.208-.235.771 0 10.945-10.451 10.659-10.95-.146-.254-.13-.34.036-.191.165.15 1.063-.764 1.995-2.03.932-1.267 1.869-2.302 2.082-2.302.214 0 .388-.186.388-.413 0-.227.392-.967.871-1.644 1.229-1.737 1.782-2.648 2.215-3.649.207-.479.555-.871.773-.871.218 0 .396-.251.396-.558 0-.742 1.531-3.31 1.973-3.31.192 0 .348-.354.348-.786 0-.432.261-.886.579-1.008.317-.122.481-.377.364-.568-.118-.19-.02-.346.218-.346s.324-.176.192-.39c-.133-.214.031-.494.364-.622.332-.127.605-.411.605-.631 0-.535 1.654-3.904 2.063-4.203.178-.13.33-.392.337-.58.007-.189.167-.747.354-1.24.187-.492.34-1.044.34-1.225 0-.181.184-.39.408-.465.225-.075.45-.42.501-.767.051-.347.308-.891.573-1.21.264-.318.455-.727.424-.909-.101-.603.5-2.072.847-2.072.188 0 .342-.249.342-.555 0-.305.201-1.045.446-1.644.606-1.477.645-1.6 1.189-3.7.261-1.011.599-1.838.75-1.838.152 0 .393-.781.536-1.736.143-.956.393-1.655.556-1.555.162.101.412-.549.555-1.443.143-.894.469-1.758.725-1.921.356-.226.357-.297.005-.302-.334-.004-.308-.299.094-1.07.305-.585.556-1.455.558-1.934.001-.479.173-.87.381-.87.209 0 .319-.523.244-1.161-.074-.638.008-1.16.182-1.16.175 0 .435-1.041.579-2.314.144-1.272.418-2.217.609-2.099.191.118.315.071.276-.104-.153-.683.555-5.167.781-4.942.221.222 1.085-4.603 1.336-7.457.06-.686.229-1.368.376-1.515.147-.147.267-1.011.267-1.92 0-.91.146-1.744.325-1.855.179-.111.346-.948.37-1.86.025-.913.139-2.095.253-2.627.114-.532.322-2.838.462-5.126.139-2.287.414-4.158.61-4.158s.318-.392.271-.871c-.105-1.071.38-2.314 1.065-2.727.282-.17.512-.591.512-.935 0-.344.106-.52.235-.39.307.306 1.285-.598 1.056-.977-.097-.159.057-.29.341-.29.285 0 .816-.348 1.18-.773.364-.426.938-.774 1.274-.774.337 0 .873-.261 1.192-.58.485-.485 1.555-.702 2.706-.548.136.019.368-.161.515-.4.542-.877 9.314-1.339 15.307-.805 3.069.273 5.486.649 5.371.835-.115.185.367.338 1.071.34.704.001 1.748.246 2.318.544.571.297 1.572.658 2.225.802.652.143 1.186.407 1.186.586s.508.436 1.128.573c.621.136 1.219.482 1.328.768.11.286.734.637 1.387.781.652.143 1.186.507 1.186.81 0 .302.182.549.403.549.222 0 .788.374 1.258.831.469.457.636.707.37.557-.266-.15-.483-.089-.483.137 0 .225.177.409.395.409.217 0 .591.43.83.955.239.526.565.875.724.777.268-.166.746 1.115.709 1.9-.009.189.142.45.336.581 1.25.838 2.433 12.281 1.379 13.336-.294.293-.467.933-.775 2.855-.11.689-.36 1.155-.555 1.035-.195-.121-.321-.076-.28.099.153.653-.538 3.207-.82 3.033-.162-.1-.294.119-.295.487-.003.973-.529 2.409-.884 2.409-.168 0-.214.348-.103.773.112.426.022.774-.199.774-.22 0-.516.522-.656 1.161-.14.638-.415 1.16-.611 1.16s-.356.249-.356.553c0 .304-.238.791-.529 1.082-.291.291-.651.912-.8 1.381-.149.469-.419.853-.6.853-.182 0-.445.522-.585 1.16-.141.638-.402 1.161-.581 1.161-.18 0-.522.594-.762 1.319-.24.726-.688 1.417-.997 1.536-.309.118-.562.492-.562.83 0 .339-.155.52-.345.402-.19-.117-.457.228-.592.767-.135.539-.402.883-.594.765-.191-.118-.459.136-.595.565-.136.428-.392.779-.57.779-.178 0-.509.535-.738 1.189-.264.76-.579 1.088-.871.908-.268-.166-.354-.117-.208.119.136.221-.356.918-1.095 1.549-.739.631-1.23 1.26-1.091 1.399.138.138.055.252-.186.252s-1.642 1.192-3.113 2.649c-1.471 1.456-2.968 2.761-3.326 2.898-.358.138-.543.425-.41.64.132.214.012.392-.266.396-.279.004-.916.438-1.416.966-.5.527-1.093.845-1.317.707-.224-.139-.312-.095-.195.098.117.192-.03.574-.327.849-.297.274-.54.405-.54.29 0-.115-.327.096-.727.468-1.32 1.227-2.517 2.031-3.026 2.031-.276 0-.502.178-.502.396 0 .218-.435.562-.967.765-.532.202-.967.525-.967.719 0 .339-1.439.955-2.031.87-.16-.023-.29.105-.29.284s-.61.654-1.354 1.055c-.745.401-1.354.874-1.354 1.051 0 .177-.174.214-.387.082-.213-.131-.387-.073-.387.129s-.468.485-1.04.629c-.572.144-1.498.587-2.058.986-.56.398-1.263.779-1.562.844-.299.066-.778.338-1.064.604-.287.266-.842.483-1.235.483-.392 0-.771.134-.842.298-.071.163-.641.693-1.267 1.177l-1.138.881 1.428-.096c.785-.053 1.428-.224 1.428-.379s.424-.205.942-.111c.519.094 1.045.005 1.17-.197s1.006-.484 1.959-.627c.952-.143 1.732-.399 1.732-.569 0-.169.696-.426 1.547-.57.851-.144 1.547-.409 1.547-.59 0-.182.792-.448 1.759-.593.967-.145 1.659-.364 1.537-.486-.122-.121.697-.456 1.82-.742 1.123-.286 2.099-.688 2.17-.892.071-.205.419-.373.774-.375.354-.001 1.167-.348 1.805-.771.638-.422 1.465-.769 1.838-.771.372-.001.677-.143.677-.315 0-.295.971-.775 4.357-2.154.801-.326 1.563-.872 1.694-1.213.131-.341.477-.529.768-.417.292.112.531.035.531-.171 0-.206.261-.375.58-.375.319 0 .58-.177.58-.395 0-.217.479-.605 1.064-.861.585-.257 1.368-.802 1.741-1.212.372-.409.677-.631.677-.492s.348-.096.773-.521c.426-.426.951-.774 1.168-.774.216 0 1-.624 1.741-1.387.741-.763 1.347-1.305 1.347-1.206 0 .1.696-.474 1.547-1.275.851-.802 1.548-1.652 1.548-1.89 0-.237.181-.431.403-.431.221 0 .787-.374 1.257-.831.47-.457.593-.685.274-.506-.5.28-.507.234-.05-.33.292-.36.759-.654 1.038-.654s.618-.349.753-.774c.135-.426.408-.774.606-.774s.361-.242.361-.539c0-.296.261-.639.58-.761.319-.123.58-.48.58-.793 0-.314.305-.801.677-1.081.733-.553 1.212-1.307 2.88-4.537.597-1.156 1.088-1.939 1.091-1.741.013.752.757-.838.762-1.628.003-.456.269-.93.59-1.053.321-.124.554-.36.517-.525-.123-.554.526-2.429.841-2.429.171 0 .429-.696.573-1.547.143-.851.438-1.548.655-1.548.217 0 .296-.255.177-.568-.12-.312-.052-.67.152-.796.203-.126.37-.567.37-.98 0-.413.168-.75.374-.75s.274-.264.15-.586c-.123-.322-.054-.8.153-1.064.208-.263.393-.739.412-1.058.02-.32.329-1.538.687-2.708 1.912-6.236.556-18.367-2.62-23.446-.813-1.3-1.478-2.519-1.479-2.708-.001-.19-.514-.892-1.14-1.559-.626-.668-1.031-1.321-.901-1.451.131-.13.042-.237-.196-.237-.565 0-2.387-1.821-2.105-2.104.12-.119.006-.217-.251-.217-.258 0-.908-.408-1.446-.907-.538-.499-1.682-1.326-2.543-1.837-.86-.512-1.877-1.221-2.26-1.576-.384-.354-.799-.543-.923-.419-.124.124-.226-.006-.226-.29s-.11-.405-.245-.27c-.135.134-.678-.095-1.206-.511-.528-.416-1.102-.668-1.275-.561-.173.107-.424.017-.558-.199-.134-.216-.566-.393-.962-.393-.395 0-.776-.137-.847-.305-.726-1.716-29.821-2.858-31.851-1.25-.212.169-1.125.429-2.029.578-.903.149-1.73.414-1.839.59-.109.176-.888.436-1.732.579-.843.142-1.951.587-2.46.988-.51.401-1.037.618-1.172.484-.135-.135-.245-.032-.245.229 0 .26-.174.366-.387.235-.213-.132-.387-.055-.387.17 0 .226-.219.41-.486.41s-.989.604-1.604 1.341c-.615.738-1.267 1.25-1.449 1.138-.181-.112-.33.073-.33.412 0 .338-.254.712-.565.832-.469.18-.843.833-1.191 2.08-.03.106-.343.84-.696 1.631-.353.791-.642 2.043-.642 2.782 0 .739-.186 1.459-.414 1.599-.514.318-.351 3.36.201 3.755.274.196.247.393-.083.607-.29.188-.466 1.015-.432 2.031.105 3.093-.52 13.126-.817 13.126-.159 0-.416 1.785-.571 3.966-.154 2.181-.388 4.139-.52 4.352-.132.212-.257.735-.278 1.16-.095 1.908-.693 5.453-.981 5.817-.175.22-.258 1.047-.184 1.836.073.79-.024 1.339-.215 1.221-.192-.118-.348.485-.348 1.341 0 .857-.247 2.303-.548 3.215-.301.911-.748 2.655-.993 3.875-.245 1.22-.608 2.318-.807 2.441-.198.122-.36.735-.36 1.36 0 .626-.152 1.138-.336 1.138-.185 0-.433.721-.551 1.603-.119.882-.376 1.709-.573 1.838-.197.129-.365.495-.374.814-.024.838-2.168 6.726-2.551 7.007-.178.13-.336.391-.352.58-.076.913-.418 1.698-.741 1.698-.198 0-.333.217-.3.483.084.694-.452 2.225-.779 2.225-.153 0-.279.217-.28.483-.005.944-2.181 4.904-2.564 4.667-.215-.133-.273-.052-.131.179.143.231.083.529-.133.663-.217.133-.393.501-.393.816 0 .316-.349.948-.774 1.404-.426.457-.774 1.059-.774 1.338 0 .279-.155.508-.345.508-.189 0-.459.455-.599 1.012-.14.557-.361.906-.491.776-.131-.131-.55.461-.932 1.314s-.963 1.654-1.289 1.78c-.327.125-.514.358-.415.518.098.159-.251.694-.776 1.187-.526.494-.956 1.12-.956 1.391 0 .272-.304.671-.677.888-.372.217-.519.4-.327.406.192.007-.287.63-1.064 1.384-.777.755-1.413 1.47-1.413 1.589s-.437.559-.971.979c-.534.42-.884.904-.778 1.076.265.428-.767 1.236-1.124.88-.157-.158-.233-.113-.167.1.152.493-1.734 2.515-2.347 2.515-.254 0-.366.154-.25.342.117.189-.151.438-.596.555-.445.116-.693.397-.553.624.14.227.022.413-.262.413-.284 0-.991.54-1.57 1.2-.579.66-1.053 1.069-1.053.908 0-.161-.323.079-.717.533-.394.455-.829.713-.967.575-.138-.137-.251.02-.251.35 0 .331-.609.89-1.354 1.243-.744.354-1.354.781-1.354.95 0 .297-1.976 1.345-2.277 1.207-.083-.038-.257.076-.387.254-.315.43-2.656 2.064-2.957 2.064-.13 0-.479.218-.776.484-1.318 1.181-1.72 1.434-2.664 1.671-.552.139-1.101.41-1.22.602-.119.193-.379.25-.577.128-.198-.122-.36-.057-.36.145 0 .202-.435.477-.967.611-.532.133-.967.413-.967.622 0 .209-.348.379-.774.379-.426 0-.774.169-.774.375s-.261.274-.58.152c-.319-.122-.58-.03-.58.206 0 .235-.261.428-.581.428-.319 0-.58.184-.58.41 0 .225-.174.302-.387.17-.212-.131-.386-.055-.386.171 0 .225-.305.41-.677.412-.373.001-1.188.269-1.813.594-.624.326-1.352.508-1.619.406-.266-.102-.538-.063-.605.088-.137.305-5.268 2.018-6.021 2.01-.266-.003-.484.146-.484.331 0 .186-.857.451-1.905.59-1.048.139-1.962.403-2.031.587-.069.184-1.143.451-2.386.594-1.242.142-2.635.399-3.094.57-.46.17-1.14.262-1.512.204-.373-.058-.677.031-.677.197 0 .256-6.089.993-6.534.792-.082-.038-.261.112-.398.333-.136.22-2.549.522-5.362.671-2.813.148-5.115.418-5.115.599s-3.568.329-7.93.329-7.93-.148-7.93-.328c0-.18-2.207-.446-4.905-.59-2.697-.144-5.109-.432-5.359-.64-.25-.207-.872-.373-1.382-.367-1.998.022-5.352-.508-5.162-.816.11-.178-.496-.252-1.348-.163-.852.089-1.649 0-1.771-.197-.122-.197-1.084-.473-2.14-.613-1.055-.14-1.918-.384-1.918-.541 0-.158-.898-.407-1.996-.552-1.098-.146-2.355-.517-2.794-.824-.439-.307-1.194-.559-1.679-.559-.484 0-.881-.154-.881-.343 0-.19-.653-.466-1.451-.615-.798-.149-1.666-.449-1.929-.667-.263-.218-.742-.294-1.064-.171-.322.124-.585.064-.585-.133 0-.196-.609-.471-1.354-.611-.745-.139-1.354-.408-1.354-.598 0-.189-.305-.344-.677-.345-.372-.001-1.247-.349-1.943-.773-.697-.425-1.505-.773-1.797-.773-.291 0-.629-.261-.752-.58-.122-.319-.576-.58-1.008-.58-.433 0-.786-.193-.786-.428 0-.236-.261-.329-.58-.206-.32.122-.581.054-.581-.152s-.239-.375-.533-.375c-.293 0-.739-.248-.991-.552-.252-.304-1.361-1.024-2.465-1.601-1.104-.577-2.398-1.503-2.877-2.059-.59-.686-.874-.824-.882-.43-.01.456-.097.435-.406-.097-.217-.372-.576-.677-.798-.677-.587 0-2.28-1.404-2.014-1.67.124-.125-.211-.336-.746-.47-.535-.134-1.468-.839-2.074-1.566-.607-.728-1.227-1.323-1.379-1.323-.622 0-11.393-11.207-11.237-11.691.053-.166-.077-.301-.29-.301-.213 0-.387-.261-.387-.58 0-.319-.178-.58-.395-.58-.217 0-.591-.43-.83-.955-.24-.526-.584-.864-.766-.751-.181.112-.33-.073-.33-.411 0-.339-.245-.71-.545-.825-.3-.115-.654-.639-.785-1.164-.132-.525-.409-.851-.616-.723-.206.128-.397.048-.424-.178-.131-1.114-.751-2.373-1.071-2.175-.146.09-.694-.776-1.217-1.926-.523-1.15-1.086-2.095-1.251-2.101-.325-.011-1.219-1.954-1.117-2.428.035-.159-.111-.29-.324-.29-.213 0-.387-.261-.387-.58 0-.319-.169-.581-.375-.581s-.274-.261-.152-.58c.123-.319.03-.58-.205-.58-.236 0-.429-.271-.429-.603 0-.332-.172-.497-.382-.367-.219.136-.284-.02-.152-.364.127-.33.051-.6-.167-.6-.219 0-.512-.523-.653-1.161-.14-.638-.372-1.16-.516-1.16-.264 0-1.229-2.493-1.309-3.385-.025-.266-.17-.484-.325-.484-.273 0-.789-1.549-.644-1.934.04-.106-.229-.624-.597-1.15-.369-.526-.67-1.338-.67-1.805 0-.467-.184-.91-.408-.985-.402-.134-.665-.996-.723-2.369-.017-.385-.204-.592-.417-.461-.213.132-.387-.119-.387-.557 0-1.295-.012-1.338-.639-2.295-.439-.671-.46-.833-.078-.603.414.249.43.199.073-.242-.248-.307-.47-.687-.494-.844-.084-.551-.296-1.273-.768-2.616-.684-1.942-1.507-5.415-1.284-5.415.105 0 .01-.218-.209-.484-.22-.266-.525-1.18-.678-2.031-.154-.851-.409-1.721-.568-1.934-.282-.379-.97-4.746-.838-5.319.037-.16-.083-.29-.266-.29-.184 0-.282-.475-.218-1.054.063-.58-.025-1.233-.196-1.451-.266-.338-.722-2.871-.873-4.846-.024-.319-.235-.708-.469-.864-.276-.184-.221-.288.155-.296.427-.009.455-.092.105-.314-.281-.179-.581-1.712-.735-3.766-.143-1.905-.397-3.554-.563-3.664-.166-.11-.426-2.586-.577-5.501-.152-2.915-.424-5.209-.607-5.096-.182.113-.331-1.024-.331-2.526 0-2.655.027-2.731.967-2.731.532 0 .968.154.968.342 0 .189.957.462 2.127.609 1.17.146 2.128.425 2.128.62s.392.354.87.354c1.544-.002 3.772.472 3.772.801 0 .177.305.312.677.3.896-.027 3.502.448 4.513.822.444.164 2.286.527 4.094.805 1.809.279 3.463.633 3.675.786.213.153 1.519.404 2.902.557 1.383.154 2.688.415 2.901.581.213.165 1.693.426 3.288.58 1.596.154 3.076.412 3.289.574.212.162 1.05.264 1.86.225.811-.038 1.561.071 1.667.243.106.171.836.313 1.621.314.785.001 2.037.164 2.782.362.745.199 2.518.467 3.941.596 7.514.683 9.878.931 10.726 1.126.514.118 3.424.333 6.467.476 3.043.144 5.453.39 5.356.546-.463.75 28.507.897 60.744.308 1.064-.019 2.108-.164 2.321-.321.213-.158 3.346-.405 6.963-.55 6.622-.265 7.258-.319 8.317-.706.32-.116 3.577-.41 7.239-.654 3.663-.243 7.144-.597 7.737-.787 1.207-.386 4.581-.828 6.785-.889.798-.022 1.45-.181 1.45-.355 0-.173.773-.315 1.718-.315s1.828-.177 1.961-.393c.134-.216.391-.302.571-.191.18.112.748.043 1.262-.152.514-.196 1.791-.466 2.837-.6 2.243-.289 2.863-.407 3.644-.696.319-.118 2.321-.597 4.448-1.065 2.128-.468 4.167-1.005 4.53-1.192.364-.187.959-.227 1.321-.087.406.155.564.099.412-.147-.152-.246.511-.49 1.718-.633 1.081-.128 2.165-.397 2.408-.597.244-.2 1.268-.487 2.277-.637 1.008-.15 1.738-.427 1.621-.616-.117-.189.19-.345.681-.346.491-.001 1.358-.245 1.925-.541.568-.296 1.743-.659 2.611-.805.869-.147 1.579-.43 1.579-.63 0-.321 2.114-1.357 2.138-1.047.013.172 1.014-.697 3.529-3.067l2.155-2.03-.143-2.826c-.133-2.643-.233-2.919-1.555-4.28-1.637-1.686-4.947-4.114-5.606-4.114-.249 0-.511-.169-.582-.376-.071-.206-.504-.432-.962-.501-.458-.07-1.067-.318-1.354-.552-.286-.234-1.261-.645-2.165-.914-.904-.268-1.644-.614-1.644-.769 0-.155-.783-.399-1.741-.543-.957-.144-1.741-.443-1.741-.666 0-.222-.255-.306-.568-.186-.312.12-.67.051-.796-.152-.126-.204-.579-.37-1.008-.37-.888 0-.881 1.172.008 1.469.373.124.438.015.213-.355-.178-.294.296-.064 1.054.509.758.574 1.837 1.159 2.398 1.299.561.141 1.02.395 1.02.564 0 .168.523.489 1.161.711.638.223 1.16.588 1.16.812 0 .224.183.407.406.407.223 0 .806.432 1.296.961.489.528.984.866 1.099.751.116-.115.445.323.733.973.288.651.655 1.183.816 1.183.581 0 .31 3.006-.291 3.236-.321.123-.539.36-.484.525.055.166.009.301-.102.301-.463 0-1.441 1.187-1.244 1.511.116.192.031.237-.191.1-.221-.136-.616.009-.877.323-.261.315-.656.46-.877.323-.222-.137-.293-.07-.158.148.231.374-1.208 1.217-4.439 2.6-.777.332-1.561.605-1.741.607-.181.001-.83.264-1.443.583-.613.32-1.651.676-2.305.792-.655.115-1.372.358-1.594.54-.221.182-1.229.454-2.24.605-1.011.15-1.837.419-1.837.597s-1.049.442-2.33.587c-1.282.145-2.415.401-2.519.569-.104.168-1.321.427-2.704.575-1.384.148-2.599.404-2.701.569-.102.165-.883.232-1.736.149-.852-.083-1.55.009-1.55.204 0 .195-1.741.478-3.869.629-2.127.151-3.868.403-3.868.561 0 .313-4.991.807-7.701.761-.938-.016-1.808.132-1.934.329-.126.197-2.232.488-4.678.647-2.447.159-5.145.369-5.996.466-2.98.339-18.572 1.159-18.876.993-.169-.092-.532.019-.806.246-.325.27-2.804.368-7.139.282-3.653-.073-6.642.017-6.642.2s-3.917.332-8.704.332c-4.845 0-8.704-.153-8.704-.345 0-.194-2.553-.283-5.803-.204-4.016.098-5.802.012-5.802-.28 0-.232-.306-.342-.679-.244-.717.187-15.329-.635-17.31-.975-.638-.109-3.119-.323-5.512-.476-2.394-.152-4.352-.443-4.352-.646 0-.204-.479-.33-1.064-.282-1.628.134-7.447-.481-7.447-.787 0-.15-.479-.269-1.064-.265-1.479.009-4.814-.506-5.512-.852-.319-.157-1.19-.273-1.935-.257-.744.016-1.441-.087-1.547-.228-.106-.142-1.236-.379-2.51-.526-1.274-.148-2.406-.408-2.514-.577-.109-.17-1.156-.424-2.326-.564-1.17-.14-2.183-.416-2.251-.612-.068-.197-1.153-.475-2.411-.617-1.257-.142-2.189-.417-2.069-.61.119-.193-.236-.269-.789-.168-.571.103-.91.025-.782-.18.123-.2-.228-.363-.78-.363s-1.389-.242-1.86-.537c-.471-.295-1.533-.656-2.36-.801-1.726-.303-4.206-1.528-3.838-1.896.136-.136-.135-.248-.603-.248-.467 0-.95-.261-1.073-.58-.122-.319-.465-.58-.761-.58-.297 0-.539-.197-.539-.438s-.578-.983-1.285-1.65c-2.798-2.639-1.45-6.363 3.008-8.313.373-.163.949-.607 1.943-1.5.299-.269 1.08-.596 1.735-.727s1.28-.382 1.389-.558c.109-.176.482-.211.829-.078.422.162.539.092.352-.21-.183-.296.03-.454.613-.455.492-.001 1.345-.238 1.897-.526.551-.288 1.639-.643 2.418-.789.778-.146 1.414-.409 1.414-.585 0-.175 1.049-.438 2.332-.583 1.282-.145 2.24-.411 2.128-.592-.112-.181.841-.45 2.118-.598 1.277-.148 2.408-.41 2.514-.582.106-.172.542-.221.969-.11.426.112.992.028 1.257-.186.409-.33 3.096-.982 4.35-1.054.212-.012.571-.138.796-.28.225-.141 1.744-.378 3.375-.525 1.631-.148 2.889-.394 2.794-.547-.139-.225 3.85-.724 7.251-.907.373-.02.677-.173.677-.34 0-.168.672-.304 1.494-.304 2.882 0 5.12-.456 4.704-.958-.453-.545-2.819-.709-3.33-.231m192.619 162.327c0 .332.224.511.505.403.277-.106.77.072 1.094.397.363.362.897.493 1.384.338.437-.138 1.003-.084 1.259.121.437.351 3.546.815 5.687.849.673.01.812.114.455.34-.322.204.379.405 1.892.542 1.322.12 2.526.416 2.675.657.149.242.429.397.623.346.747-.198 3.631.526 3.425.86-.12.194.129.353.553.353.424 0 1.262.203 1.861.451.598.248 1.219.488 1.379.532.159.044.377.124.483.177.107.054.324.134.484.179 1.518.428 3.578 2.101 3.578 2.906 0 .647-1.613 2.316-2.247 2.325-.288.003-.386.202-.227.459.186.301.072.373-.339.215-.34-.131-.673-.117-.74.031-.425.938-9.559 3.856-10.166 3.248-.114-.114-.207-.027-.207.194s-1.082.524-2.405.674c-1.322.149-2.584.387-2.804.527-.221.141-1.01.273-1.755.295-.744.022-1.615.143-1.934.269-.711.281-5.8.839-6.508.714-.282-.05-.717.075-.967.277-.251.202-2.283.493-4.517.647-2.234.153-4.236.416-4.449.584-.344.272-8.616.956-10.356.856-.377-.022-.596.106-.486.283.11.178-2.498.45-5.795.604-3.296.155-5.993.391-5.993.524 0 .134-1.175.22-2.611.191-1.437-.029-2.786.078-2.999.237-.42.316-9.999.909-14.215.88-1.435-.01-2.529.112-2.431.27.208.337-16.603 1.027-21.61.887-2.317-.065-3.631.061-4.025.388-.851.707-118.447.713-119.299.007-.34-.283-1.513-.45-2.864-.408-3.466.108-17.173-.554-17.007-.822.079-.129-1.276-.29-3.012-.358-7.942-.311-10.701-.525-10.701-.83 0-.18-1.567-.279-3.482-.218-1.915.061-3.481-.011-3.481-.16 0-.15-.218-.282-.484-.294-6.042-.282-10.674-.665-10.546-.873.09-.146-.046-.273-.303-.283-4.622-.176-9.876-.682-9.719-.937.113-.181-.197-.315-.687-.296-2.225.084-8.389-.575-8.202-.877.114-.184-.586-.258-1.555-.163s-1.861.011-1.984-.187c-.122-.197-1.256-.359-2.52-.359s-2.298-.164-2.298-.363c0-.2-.786-.299-1.747-.221-.961.078-1.668.015-1.572-.14.096-.155-.206-.297-.671-.315-2.451-.094-6.455-.657-6.455-.906 0-.157-1.132-.407-2.515-.555-1.383-.148-2.514-.449-2.514-.667 0-.219-.256-.3-.568-.18-.312.12-.671.052-.797-.152-.125-.203-.74-.37-1.366-.37-.626 0-1.138-.174-1.138-.386 0-.213-.396-.387-.881-.387-.484 0-1.245-.255-1.69-.567-.445-.312-.893-.483-.995-.38-.248.248-1.957-.653-2.758-1.454-.625-.625-.921-2.438-.349-2.132.38.202 1.648-1.137 1.354-1.431-.124-.124.053-.226.394-.226s1.023-.153 1.515-.34c.493-.188 1-.318 1.127-.291.126.028.475-.147.773-.388.299-.241 1.153-.566 1.897-.722.745-.155 1.528-.412 1.741-.571.57-.426 2.606-.919 3.385-.82.372.047.677-.079.677-.281s.827-.487 1.837-.633c1.011-.146 2.589-.516 3.507-.822.917-.305 2.346-.582 3.175-.614.829-.033 1.419-.203 1.31-.378-.108-.175.335-.212.983-.082.958.192 1.18.108 1.18-.445 0-.627-.335-.658-4.158-.391-4.833.339-5.127.373-5.9.683-.473.189-6.198.711-8.994.819-.372.014-.677.119-.677.233 0 .114-1.035.196-2.3.182-1.264-.013-2.212.117-2.104.291.107.173-.937.315-2.32.315-1.383 0-2.608.151-2.723.337-.115.185-.726.277-1.36.203-.633-.074-1.256.035-1.385.243-.128.208-.996.377-1.928.377-.932 0-1.788.151-1.902.335-.114.184-.645.287-1.182.228-.536-.059-1.062.034-1.168.206-.106.172-1.456.439-3 .592-1.543.154-2.906.437-3.028.63-.123.193-1.119.457-2.215.587-1.096.13-1.896.392-1.778.583.119.191-.238.265-.791.165-.571-.104-.909-.026-.782.18.124.2-.211.363-.743.363s-1.068.163-1.191.363c-.124.2-.569.297-.99.216-.421-.082-.766.002-.766.186s-.523.449-1.164.59c-.64.14-1.068.41-.951.599.117.189-.228.455-.768.59-.539.136-.884.402-.766.592.117.19.029.345-.196.345-.235 0-.41.837-.41 1.953 0 2.003 1.234 3.85 2.571 3.85.288 0 .524.174.524.387 0 .213.13.358.29.322.56-.126 3.202.543 3.398.86.109.176.978.438 1.93.58.953.143 1.735.458 1.738.7.004.321.082.319.29-.008.213-.334.677-.311 1.832.091.851.296 1.949.541 2.44.544.516.003.789.175.646.406-.155.251.123.333.745.22.545-.099 1.081-.036 1.19.141.109.176 1.417.443 2.907.593 1.491.149 2.71.428 2.71.619s.184.348.41.348c.225 0 .278-.218.119-.484-.229-.38-.168-.384.284-.019.316.256 1.742.585 3.169.731 1.427.146 2.594.402 2.594.568 0 .166 1.738.426 3.861.576 2.124.151 3.775.413 3.67.583-.105.17.551.324 1.458.342 3.438.068 7.646.507 7.646.798 0 .166.74.295 1.644.285.904-.009 2.079.077 2.611.192s3.056.336 5.609.491c2.553.155 4.817.417 5.029.58.213.164 2.998.423 6.19.575 3.191.152 5.985.425 6.207.606.223.181.745.315 1.161.298 2.802-.116 14.489.638 14.489.935 0 .207 1.707.342 3.965.313 5.807-.074 18.247.409 18.472.718.106.146 3.066.251 6.576.232 3.511-.018 6.609.132 6.885.335.858.629 131.607.56 131.607-.069 0-.148 4.134-.257 9.187-.242 5.053.014 9.362-.096 9.575-.246.371-.262 14.52-.769 22.342-.801 2.075-.009 3.691-.148 3.591-.311-.169-.273 16.112-.98 19.101-.83.727.036 1.423-.091 1.548-.284.124-.193 3.011-.477 6.416-.631 3.404-.154 6.799-.309 7.543-.343.745-.034 1.441-.17 1.548-.301.171-.21 8.659-.947 13.636-1.183 1.011-.048 1.837-.202 1.837-.341 0-.212 5.716-.785 8.776-.88.465-.015.774-.143.687-.284-.088-.141 1.512-.38 3.555-.53 2.042-.15 3.996-.426 4.342-.614.346-.189 1.978-.453 3.627-.587 1.649-.134 2.998-.378 2.998-.542 0-.165 1.255-.415 2.788-.558 1.534-.142 2.883-.385 2.998-.539.116-.154.558-.269.984-.256.425.013.948-.093 1.16-.237.552-.372 2.587-.898 3.385-.875.373.011.677-.131.677-.316s.448-.337.995-.337c.547 0 1.256-.261 1.575-.58.319-.319.982-.58 1.472-.58.491 0 1.109-.261 1.374-.581.265-.319.705-.58.978-.58.782 0 3.652-1.64 3.448-1.97-.101-.164-.006-.407.21-.54 1.043-.645-.304-4.26-1.588-4.26-.202 0-.512-.232-.687-.516-.176-.284-.387-.488-.47-.452-.403.173-2.278-.516-2.278-.837 0-.203-.162-.268-.36-.145-.198.122-.469.045-.603-.171-.134-.216-.755-.393-1.381-.393-.625 0-1.137-.145-1.137-.323 0-.177-.218-.34-.484-.363-1.594-.134-5.706-1.062-5.706-1.288 0-.148-1.218-.391-2.708-.541-1.489-.149-2.708-.399-2.708-.555 0-.155-.217-.294-.483-.307-2.126-.105-5.549-.631-5.706-.876-.107-.166-.853-.261-1.658-.211-.805.05-1.555-.057-1.667-.237-.111-.181-1.063-.328-2.114-.328s-1.911-.152-1.911-.338c0-.186-1.042-.295-2.314-.243-1.272.053-2.231-.037-2.131-.2.101-.163-1.774-.421-4.166-.574-2.392-.153-4.523-.409-4.736-.569-.212-.161-.648-.295-.967-.299-2.977-.036-9.284-.666-9.284-.927 0-.183-.58-.332-1.29-.332-.904 0-1.289.178-1.289.597m-335.112 24.91c-.605.383.864 2.326 1.769 2.339.244.004.543.268.665.587.123.32.465.581.761.581s.857.424 1.247.944c.39.519.817.877.949.795.132-.081.741.282 1.352.808.612.526 1.514 1.057 2.005 1.18.49.123.807.361.703.528-.103.167.246.413.776.546.531.134.965.399.965.591 0 .192.522.464 1.16.604.639.14 1.161.401 1.161.581 0 .179.653.538 1.451.798.798.259 1.794.708 2.213.997.42.289 1.083.525 1.474.525s.603.174.471.387c-.131.213.107.387.53.387.423 0 1.036.267 1.363.594.327.327.695.567.818.534.521-.138 4.833 1.655 4.833 2.01 0 .214.162.289.36.167.198-.123.46-.061.582.137.122.197.961.483 1.864.634.904.15 1.733.416 1.844.59.111.174.706.407 1.323.519.616.112 1.238.393 1.381.624.143.232.418.391.612.355.193-.036.438-.033.544.008.107.041.621.153 1.144.249.523.096 1.05.336 1.172.534.122.197.957.476 1.855.62.897.143 1.632.416 1.632.606 0 .189.435.266.967.169.532-.096.967-.013.967.186s.131.332.29.296c.642-.144 3.192.561 3.192.882 0 .189.131.323.29.298 1.099-.173 2.835.132 3.28.576.292.292 1.333.629 2.314.749.981.12 2.104.395 2.495.61.392.216 1.539.499 2.549.629 1.011.131 1.838.392 1.838.58 0 .189.609.284 1.354.212.745-.072 1.354.004 1.354.169 0 .164 1.131.42 2.514.569 1.383.148 2.515.392 2.515.543 0 .15.479.312 1.064.359.585.047 2.021.269 3.191.492 1.17.224 3.346.639 4.836.922 1.489.284 2.708.554 2.708.601 0 .107 1.704.355 4.352.633 1.117.117 2.031.339 2.031.491 0 .153.653.31 1.45.348 3.004.145 9.828 1.05 9.603 1.273-.13.128 1.634.354 3.918.502 2.285.147 4.246.407 4.359.577.113.169.902.337 1.753.371.851.035 3.288.249 5.416.476 2.127.227 4.695.444 5.705.481 1.011.038 1.838.186 1.838.329 0 .26 3.867.581 9.188.762 1.542.053 2.805.236 2.805.407 0 .171 1.349.328 2.998.348 1.649.02 4.564.18 6.479.357 6.574.605 9.297.807 15.861 1.176 3.617.204 7.36.447 8.317.542 8.848.871 40.679 1.201 57.06.59 5.532-.206 12.017-.387 14.41-.403 2.394-.015 4.352-.164 4.352-.33 0-.259 12.895-.979 15.377-.859.479.023.871-.104.871-.283 0-.267 9.336-.984 11.702-.899.372.013.677-.102.677-.255 0-.154 1.088-.27 2.418-.258 1.33.012 2.505-.091 2.611-.229.151-.196 5.941-.753 8.801-.846.266-.009.483-.136.483-.283 0-.147 1.955-.391 4.345-.542 2.389-.152 4.521-.42 4.738-.597.217-.176 1.918-.446 3.78-.599 1.862-.153 3.385-.406 3.385-.563 0-.156 1.679-.402 3.731-.546 2.052-.144 3.923-.386 4.158-.538.236-.151.776-.283 1.202-.291.425-.009 1.018-.167 1.317-.353.401-.249.462-.195.233.207-.251.439-.21.451.211.059.287-.266 1.28-.483 2.207-.483.928 0 1.595-.149 1.482-.331-.113-.183.486-.293 1.331-.245.845.048 1.536-.047 1.536-.211 0-.296 4.507-.958 4.772-.701.076.074.387-.073.691-.325.304-.252 1.466-.58 2.582-.728 1.117-.148 2.119-.412 2.227-.587.108-.175 1.236-.436 2.506-.579 1.27-.144 2.309-.392 2.309-.551 0-.159.519-.245 1.154-.191.634.054 1.073-.033.974-.192-.098-.159.867-.408 2.145-.553 1.278-.144 2.23-.415 2.115-.601-.115-.186.753-.458 1.929-.605 1.176-.147 2.223-.404 2.327-.572.104-.168 1.059-.425 2.122-.572 1.064-.146 1.934-.394 1.934-.551 0-.353 3.35-1.244 4.567-1.216.496.012.786-.149.654-.363-.134-.216.196-.384.753-.384.544 0 .99-.159.99-.353 0-.194.292-.31.649-.257.356.052 1.135-.148 1.73-.445.595-.296 1.423-.565 1.839-.596.416-.031.679-.184.583-.339-.096-.155.611-.399 1.57-.543.959-.144 1.649-.416 1.532-.605-.117-.189.19-.35.681-.357.491-.008 1.32-.25 1.841-.539.521-.289 1.174-.438 1.451-.332.276.106.503.008.503-.217 0-.226.609-.525 1.354-.665.744-.14 1.354-.39 1.354-.556 0-.166.478-.414 1.063-.551 1.197-.279 3.662-1.428 3.982-1.856.116-.154.578-.336 1.026-.405.449-.068 1.087-.349 1.417-.623.331-.274.827-.369 1.102-.21.275.159.373.147.216-.026-.371-.41 1.595-1.429 2.125-1.102.224.138.294.07.157-.153-.147-.237.292-.506 1.063-.65.723-.136 1.416-.514 1.542-.841.125-.327.385-.497.577-.378.192.118.442-.028.556-.326.115-.298.742-.659 1.395-.802.653-.144 1.187-.44 1.187-.659 0-.218.27-.293.6-.167.33.127.511.086.402-.091-.109-.176.621-.721 1.624-1.21 1.002-.489 2.345-1.267 2.983-1.729.638-.462 1.726-1.068 2.418-1.347 1.28-.516 1.559-.954.877-1.376-.554-.342-3.133.212-2.882.619.117.189-.047.344-.365.344s-1.068.203-1.667.452c-.599.248-1.176.48-1.282.516-.107.035-.716.295-1.354.576-.639.281-1.335.537-1.548.569-.213.032-.877.265-1.476.52-.599.254-1.349.462-1.667.462-.317 0-.479.16-.358.356.121.195-.347.476-1.041.625-.693.148-1.435.393-1.647.544-.536.38-3.795 1.343-4.2 1.24-.182-.046-.53.076-.773.272-.486.39-2.961 1.029-3.47.896-.175-.046-.221.075-.101.269s-.766.475-1.968.625c-1.375.172-1.996.39-1.674.589.322.199-.301.417-1.679.589-1.204.151-2.189.415-2.189.588s-.96.435-2.133.581c-1.173.147-2.223.413-2.334.592-.11.178-.438.233-.729.121-.291-.111-.644-.017-.784.211-.141.227-.67.413-1.177.413s-1.038.188-1.18.418c-.144.233-.683.312-1.216.178-.555-.139-.863-.088-.733.122.199.322-1.072.609-4.028.908-.532.054-1.064.231-1.182.395-.118.163-1.293.409-2.611.547-1.318.137-2.396.387-2.396.554 0 .167-1.001.425-2.225.573-1.223.148-2.425.429-2.671.625-.245.195-.879.247-1.408.114-.537-.135-1.076-.057-1.221.177-.142.23-.857.418-1.589.418s-1.331.15-1.331.333c0 .183-.61.284-1.354.225-.745-.059-1.354.032-1.354.203 0 .244-3.243.807-5.609.973-.213.015-.578.147-.811.293-.233.146-1.839.384-3.568.528-1.728.144-3.065.388-2.97.542.095.154-1.515.404-3.577.555-2.063.152-3.93.393-4.15.536-.219.143-1.095.294-1.946.335-.851.04-2.766.261-4.255.489-1.489.229-3.622.426-4.739.439-1.117.013-2.031.158-2.031.323 0 .282-5.651.879-8.414.889-.691.002-1.257.141-1.257.308 0 .166-2.046.418-4.546.559-2.5.141-4.98.406-5.512.589-1.035.356-7.764.913-10.137.839-.788-.024-1.527.107-1.641.292-.114.185-1.697.243-3.517.129-2.009-.125-3.645-.043-4.162.21-.835.407-6.595.787-13.715.904-1.968.032-3.579.184-3.579.337 0 .28-17.604.929-21.76.802-1.341-.04-2.224.094-2.224.34 0 .279-5.606.407-17.818.407-10.514 0-17.729-.143-17.602-.35.125-.201-2.199-.364-5.489-.384-10.914-.065-24.081-.544-24.081-.874 0-.183-1.785-.321-3.966-.306-5.667.038-13.168-.443-13.718-.879-.257-.204-1.737-.33-3.288-.281-1.551.05-3.081-.007-3.4-.126-.319-.119-.841-.213-1.16-.208-1.994.031-8.898-.62-8.898-.84 0-.146-.217-.269-.483-.274-2.709-.051-9.425-.654-9.575-.86-.106-.145-.541-.281-.967-.3-4.106-.191-8.284-.635-8.142-.865.097-.157-.773-.272-1.934-.254-1.16.017-2.153-.09-2.206-.238-.054-.148-.924-.311-1.935-.363-1.01-.051-1.837-.258-1.837-.46 0-.213-.738-.266-1.761-.126-.986.136-1.668.091-1.55-.1.116-.187-1.354-.465-3.268-.616-1.914-.152-3.479-.439-3.479-.638 0-.2-.218-.325-.484-.279-.958.167-5.706-.534-5.706-.842 0-.174-1.392-.437-3.094-.585-1.703-.149-3.095-.403-3.095-.565 0-.345-4.66-1.217-6.48-1.212-.691.002-1.257-.141-1.257-.317 0-.177-1.088-.445-2.418-.596-1.33-.151-2.592-.406-2.805-.566-.212-.16-1.153-.408-2.09-.551-.938-.143-1.895-.379-2.128-.525-.233-.145-.772-.313-1.198-.373-2.577-.362-3.675-.609-3.675-.827 0-.136-.478-.279-1.063-.316-1.821-.118-3.579-.584-3.579-.95 0-.193-.435-.241-.967-.108-.532.134-.967.079-.967-.121 0-.201-.218-.384-.484-.408-1.792-.163-3.771-.622-3.771-.876 0-.166-.696-.42-1.546-.563-.85-.144-1.631-.4-1.736-.57-.105-.17-.972-.426-1.927-.569-.955-.143-1.825-.404-1.934-.58-.109-.176-.979-.437-1.934-.58-.956-.144-1.84-.428-1.966-.632-.126-.204-.399-.266-.606-.137-.208.128-.587.063-.844-.144s-1.207-.498-2.111-.647c-.904-.149-1.644-.425-1.644-.612 0-.188-.243-.247-.541-.133-.298.114-.656.021-.797-.206-.14-.227-.593-.413-1.006-.413-.413 0-.751-.152-.751-.337 0-.186-.704-.45-1.564-.588-.86-.138-1.861-.4-2.224-.584-2.317-1.17-4.358-1.933-5.788-2.163-1.089-.175-1.559-.417-1.388-.714.141-.247.127-.333-.032-.191-.37.332-2.543-.417-2.543-.877 0-.446-.806-.439-1.521.013" fill="#343434"/><path d="M336.86 190.228c1.124.078 2.865.077 3.869-.002 1.003-.08.083-.144-2.044-.143-2.128.001-2.949.066-1.825.145m-122.353 6.677l-1.161.296 1.041.045c.573.025 1.149-.128 1.28-.341.132-.213.186-.366.12-.341-.066.025-.642.179-1.28.341m-39.357.274c.481.092 1.177.089 1.547-.008.37-.097-.024-.173-.875-.168-.851.004-1.154.083-.672.176m3.481 0c.481.092 1.178.089 1.548-.008.369-.097-.024-.173-.875-.168-.851.004-1.154.083-.673.176m28.236-.001c.478.092 1.262.092 1.74 0 .479-.092.087-.167-.87-.167-.958 0-1.349.075-.87.167m3.868 0c.479.092 1.262.092 1.741 0 .479-.092.087-.167-.871-.167-.957 0-1.349.075-.87.167m-199.903 144.435c0 .198.334.36.742.36s1.061.115 1.45.255c.39.14.602.135.471-.012-.425-.478-2.663-.985-2.663-.603m250.779 4.893c.588.089 1.458.086 1.934-.005.476-.092-.005-.165-1.069-.162-1.064.003-1.453.078-.865.167m-148.357 6.572c.481.093 1.178.089 1.547-.008.37-.096-.023-.172-.875-.168-.851.004-1.153.084-.672.176m9.377-.122c0 .083.597.221 1.326.306.73.085 1.242.017 1.138-.151-.187-.303-2.464-.446-2.464-.155m135.106.126c.585.088 1.542.088 2.128 0 .585-.089.106-.161-1.064-.161-1.17 0-1.649.072-1.064.161m14.127.003c.695.086 1.74.084 2.321-.004.581-.088.012-.159-1.264-.156-1.277.002-1.753.074-1.057.16m-224.669 7.052c.32.216.914.395 1.322.399.99.008.681-.214-.741-.532-.848-.19-1.004-.154-.581.133" fill="#383434"/><path d="M336.86 190.228c1.124.078 2.865.077 3.869-.002 1.003-.08.083-.144-2.044-.143-2.128.001-2.949.066-1.825.145m-122.353 6.677l-1.161.296 1.041.045c.573.025 1.149-.128 1.28-.341.132-.213.186-.366.12-.341-.066.025-.642.179-1.28.341m-39.357.274c.481.092 1.177.089 1.547-.008.37-.097-.024-.173-.875-.168-.851.004-1.154.083-.672.176m3.481 0c.481.092 1.178.089 1.548-.008.369-.097-.024-.173-.875-.168-.851.004-1.154.083-.673.176m28.236-.001c.478.092 1.262.092 1.74 0 .479-.092.087-.167-.87-.167-.958 0-1.349.075-.87.167m3.868 0c.479.092 1.262.092 1.741 0 .479-.092.087-.167-.871-.167-.957 0-1.349.075-.87.167m-199.903 144.435c0 .198.334.36.742.36s1.061.115 1.45.255c.39.14.602.135.471-.012-.425-.478-2.663-.985-2.663-.603m250.779 4.893c.588.089 1.458.086 1.934-.005.476-.092-.005-.165-1.069-.162-1.064.003-1.453.078-.865.167m-148.357 6.572c.481.093 1.178.089 1.547-.008.37-.096-.023-.172-.875-.168-.851.004-1.153.084-.672.176m9.377-.122c0 .083.597.221 1.326.306.73.085 1.242.017 1.138-.151-.187-.303-2.464-.446-2.464-.155m135.106.126c.585.088 1.542.088 2.128 0 .585-.089.106-.161-1.064-.161-1.17 0-1.649.072-1.064.161m14.127.003c.695.086 1.74.084 2.321-.004.581-.088.012-.159-1.264-.156-1.277.002-1.753.074-1.057.16m-224.669 7.052c.32.216.914.395 1.322.399.99.008.681-.214-.741-.532-.848-.19-1.004-.154-.581.133" fill="#383434"/><path d="M336.86 190.228c1.124.078 2.865.077 3.869-.002 1.003-.08.083-.144-2.044-.143-2.128.001-2.949.066-1.825.145m-122.353 6.677l-1.161.296 1.041.045c.573.025 1.149-.128 1.28-.341.132-.213.186-.366.12-.341-.066.025-.642.179-1.28.341m-39.357.274c.481.092 1.177.089 1.547-.008.37-.097-.024-.173-.875-.168-.851.004-1.154.083-.672.176m3.481 0c.481.092 1.178.089 1.548-.008.369-.097-.024-.173-.875-.168-.851.004-1.154.083-.673.176m28.236-.001c.478.092 1.262.092 1.74 0 .479-.092.087-.167-.87-.167-.958 0-1.349.075-.87.167m3.868 0c.479.092 1.262.092 1.741 0 .479-.092.087-.167-.871-.167-.957 0-1.349.075-.87.167m-199.903 144.435c0 .198.334.36.742.36s1.061.115 1.45.255c.39.14.602.135.471-.012-.425-.478-2.663-.985-2.663-.603m250.779 4.893c.588.089 1.458.086 1.934-.005.476-.092-.005-.165-1.069-.162-1.064.003-1.453.078-.865.167m-148.357 6.572c.481.093 1.178.089 1.547-.008.37-.096-.023-.172-.875-.168-.851.004-1.153.084-.672.176m9.377-.122c0 .083.597.221 1.326.306.73.085 1.242.017 1.138-.151-.187-.303-2.464-.446-2.464-.155m135.106.126c.585.088 1.542.088 2.128 0 .585-.089.106-.161-1.064-.161-1.17 0-1.649.072-1.064.161m14.127.003c.695.086 1.74.084 2.321-.004.581-.088.012-.159-1.264-.156-1.277.002-1.753.074-1.057.16m-224.669 7.052c.32.216.914.395 1.322.399.99.008.681-.214-.741-.532-.848-.19-1.004-.154-.581.133" fill="#383434"/><path d="M336.86 190.228c1.124.078 2.865.077 3.869-.002 1.003-.08.083-.144-2.044-.143-2.128.001-2.949.066-1.825.145m-122.353 6.677l-1.161.296 1.041.045c.573.025 1.149-.128 1.28-.341.132-.213.186-.366.12-.341-.066.025-.642.179-1.28.341m-39.357.274c.481.092 1.177.089 1.547-.008.37-.097-.024-.173-.875-.168-.851.004-1.154.083-.672.176m3.481 0c.481.092 1.178.089 1.548-.008.369-.097-.024-.173-.875-.168-.851.004-1.154.083-.673.176m28.236-.001c.478.092 1.262.092 1.74 0 .479-.092.087-.167-.87-.167-.958 0-1.349.075-.87.167m3.868 0c.479.092 1.262.092 1.741 0 .479-.092.087-.167-.871-.167-.957 0-1.349.075-.87.167m-199.903 144.435c0 .198.334.36.742.36s1.061.115 1.45.255c.39.14.602.135.471-.012-.425-.478-2.663-.985-2.663-.603m250.779 4.893c.588.089 1.458.086 1.934-.005.476-.092-.005-.165-1.069-.162-1.064.003-1.453.078-.865.167m-148.357 6.572c.481.093 1.178.089 1.547-.008.37-.096-.023-.172-.875-.168-.851.004-1.153.084-.672.176m9.377-.122c0 .083.597.221 1.326.306.73.085 1.242.017 1.138-.151-.187-.303-2.464-.446-2.464-.155m135.106.126c.585.088 1.542.088 2.128 0 .585-.089.106-.161-1.064-.161-1.17 0-1.649.072-1.064.161m14.127.003c.695.086 1.74.084 2.321-.004.581-.088.012-.159-1.264-.156-1.277.002-1.753.074-1.057.16m-224.669 7.052c.32.216.914.395 1.322.399.99.008.681-.214-.741-.532-.848-.19-1.004-.154-.581.133" fill="#383434"/></g></svg>