<svg xmlns="http://www.w3.org/2000/svg" viewBox="0 0 41.602 41.602"><defs><clipPath><path fill="none" d="M0 0h41.602v41.602h-41.602z"/></clipPath></defs><title>tick-purple</title><g clip-path="url(#a)" fill="#6d77b8"><path d="M20.801 0a20.801 20.801 0 1 0 20.801 20.801 20.825 20.825 0 0 0-20.801-20.801m0 40a19.199 19.199 0 1 1 19.199-19.199 19.221 19.221 0 0 1-19.199 19.199M30.602 12.27l-12.296 13.832-7.408-5.926a.8.8 0 0 0-1 1.25l8 6.398a.811.811 0 0 0 .5.176.797.797 0 0 0 .602-.27l12.797-14.398a.799.799 0 1 0-1.195-1.062"/></g></svg>