<svg xmlns="http://www.w3.org/2000/svg" viewBox="0 0 475.085 475.085"><path d="M454.528 38.832c8.187-8.186 12.275-15.609 12.275-22.27 0-4.38-1.711-7.852-5.14-10.422-3.43-2.568-7.05-4.233-10.855-4.997-3.805-.76-7.898-1.143-12.278-1.143h-401.986c-4.377 0-8.47.383-12.275 1.143-3.806.763-7.423 2.428-10.85 4.997-3.424 2.57-5.137 6.042-5.137 10.422 0 6.661 4.09 14.084 12.275 22.27l180.438 180.44v219.265h-91.359c-4.952 0-9.233 1.813-12.851 5.431-3.617 3.611-5.424 7.898-5.424 12.848 0 4.944 1.807 9.232 5.424 12.843 3.621 3.614 7.902 5.428 12.851 5.428h255.814c4.948 0 9.232-1.813 12.847-5.428 3.617-3.61 5.428-7.898 5.428-12.843 0-4.949-1.811-9.236-5.428-12.848-3.614-3.617-7.898-5.431-12.847-5.431h-91.354v-219.266l180.432-180.439z"/></svg>