<svg xmlns="http://www.w3.org/2000/svg" viewBox="0 0 345.855 345.855"><path d="M118.803 121.385c1.042.71 2.265 1.085 3.536 1.085h.016c3.474 0 6.301-2.825 6.301-6.297 0-.605-.085-1.202-.253-1.779-3.787-16.582-1.987-29.944 5.349-39.718 8.551-11.393 12.339-26.009 10.133-39.097-1.947-11.588-8.177-21.22-18.01-27.849-2.107-1.428-5.006-1.415-7.104.029-2.144 1.476-3.151 4.072-2.561 6.628 4.089 17.443.376 28.484-8.936 45.236-5.754 10.349-8.104 21.972-6.618 32.728 1.68 12.152 7.964 22.198 18.147 29.034zM172.497 118.584c.984.673 2.133 1.028 3.323 1.028h.008c3.261 0 5.914-2.654 5.914-5.916 0-.556-.079-1.107-.233-1.642-2.875-12.638-1.525-22.789 4.015-30.171 6.839-9.108 9.866-20.807 8.1-31.292-1.567-9.32-6.579-17.07-14.494-22.411-1.971-1.332-4.638-1.349-6.679.041-1.991 1.382-2.945 3.892-2.382 6.209 3.119 13.307.266 21.767-6.884 34.623-4.599 8.272-6.475 17.569-5.283 26.176 1.35 9.779 6.408 17.862 14.595 23.355zM340.478 158.984c-3.923-4.618-9.536-7.161-15.806-7.161h-30.452c.469-5.261-.373-12.138-4.228-16.676-2.693-3.17-6.532-4.845-11.104-4.845h-261.799c-6.78 0-10.682 2.915-12.761 5.36-4.269 5.02-4.855 12.548-3.981 17.92 7.206 44.274 22.773 84.489 43.833 113.238 12.673 17.299 27.113 30.556 43.213 39.728-2.361 3.369-3.759 7.461-3.759 11.878 0 11.447 9.313 20.76 20.761 20.76h85.55c11.448 0 20.761-9.313 20.761-20.76 0-4.342-1.344-8.373-3.632-11.709 12.945-7.3 24.787-17.215 35.47-29.728 51.058-4.739 95.753-53.682 102.963-97.68.463-2.833 1.472-12.671-5.029-20.325zm-72.498 78.891c9.341-18.806 15.779-38.296 20.217-56.051h26.006c-6.244 21.181-24.215 43.698-46.223 56.051z"/></svg>