<svg xmlns="http://www.w3.org/2000/svg" viewBox="-43 0 512 512"><path d="M372.68 224h-32v-64c0-70.574-57.422-128-128-128v-32c88.223 0 160 71.777 160 160zm0 0" fill="#fdd835"/><path d="M212.68 512c-88.223 0-160-71.777-160-160v-64h32v64c0 70.574 57.426 128 128 128zm0 0" fill="#42a5f5"/><path d="M52.68 224h32v32h-32zm0 0M52.68 160h32v32h-32zm0 0" fill="#fdd835"/><path d="M132.68 73.375l-64-64-64 64c-6.238 6.242-6.238 16.387 0 22.625 6.242 6.238 16.383 6.238 22.625 0l25.375-25.375v57.375h32v-57.375l25.375 25.375c6.242 6.238 16.387 6.238 22.625 0 6.242-6.238 6.242-16.383 0-22.625zm0 0" fill="#1e88e5"/><path d="M340.68 256h32v32h-32zm0 0M340.68 320h32v32h-32zm0 0" fill="#42a5f5"/><path d="M398.055 416l-25.375 25.375v-57.375h-32v57.375l-25.375-25.375c-6.242-6.238-16.383-6.238-22.625 0-6.238 6.238-6.238 16.383 0 22.625l64 64 64-64c6.242-6.242 6.242-16.387 0-22.625-6.254-6.238-16.383-6.238-22.625 0zm0 0" fill="#fbc02d"/></svg>