<svg xmlns="http://www.w3.org/2000/svg" viewBox="0 0 512.019 512.019"><path d="M345.293 221.167c-6.705 0-12.159 5.455-12.159 12.16s5.454 12.159 12.159 12.159c6.705 0 12.16-5.455 12.16-12.159 0-6.705-5.455-12.16-12.16-12.16zM415.025 221.167c-6.705 0-12.16 5.455-12.16 12.16s5.455 12.159 12.16 12.159 12.159-5.455 12.159-12.159c0-6.705-5.454-12.16-12.159-12.16zM96.994 221.167c-6.705 0-12.16 5.455-12.16 12.16s5.455 12.159 12.16 12.159 12.159-5.455 12.159-12.159c0-6.705-5.454-12.16-12.159-12.16zM166.726 221.167c-6.705 0-12.16 5.455-12.16 12.16s5.455 12.159 12.16 12.159 12.16-5.455 12.16-12.159c-.001-6.705-5.455-12.16-12.16-12.16zM507.633 393.759c-1.035-4.01-5.121-6.425-9.137-5.387-4.011 1.036-6.423 5.126-5.387 9.137 1.858 7.196 3.022 14.588 3.479 22.057h-142.007c-1.949-.83-4.016-1.435-6.165-1.794l.007-.513c0-33.369-17.34-62.763-43.48-79.651 11.474-9.712 24.536-17.017 38.568-21.643 5.496 15.091 19.997 25.663 36.649 25.663 16.63 0 31.115-10.543 36.628-25.602 27.759 9.178 51.534 28.615 65.947 55.147 2.081 3.832 7.141 5.069 10.768 2.648 3.179-2.122 4.235-6.454 2.414-9.808-5.868-10.801-13.114-20.555-21.446-29.107 6.931-5.175 12.912-13.06 17.856-23.578 19.619-41.736 19.572-121.474 5.771-157.476-9.194-23.984-25.227-44.355-46.363-58.91-21.15-14.565-45.9-22.264-71.574-22.264-30.64 0-60.209 11.139-83.262 31.365-3.113 2.732-3.423 7.47-.691 10.584 2.731 3.114 7.47 3.423 10.584.691 20.315-17.824 46.372-27.64 73.369-27.64 22.621 0 44.43 6.784 63.067 19.618 18.629 12.829 32.76 30.784 40.864 51.925 12.505 32.624 12.498 107.777-5.341 145.726-4.527 9.629-9.798 16.174-15.707 19.542-12.842-10.405-27.548-18.335-43.371-23.31 30.938-14.8 52.361-46.41 52.361-82.933v-15.173c0-3.652-2.63-6.773-6.23-7.392-37.126-6.383-62.82-44.06-63.07-44.432-3.279-4.905-10.956-4.123-13.181 1.337-.176.43-18.389 42.987-93.769 42.987-4.143 0-7.5 3.358-7.5 7.5v15.173c0 36.499 21.395 68.092 52.301 82.904-15.701 4.926-30.367 12.795-43.32 23.333-5.905-3.37-11.173-9.913-15.697-19.537-17.838-37.949-17.845-113.102-5.34-145.725 3.084-8.045 7.094-15.721 11.917-22.814 2.329-3.425 1.44-8.09-1.985-10.419-3.424-2.328-8.09-1.441-10.419 1.985-5.473 8.048-10.02 16.755-13.519 25.878-13.8 36.001-13.848 115.739 5.772 157.475 2.499 5.316 5.268 9.944 8.285 13.906-6.566-1.614-13.397-2.546-20.415-2.706-.748-5.871-1.259-14.179.166-20.652.891-4.045-1.667-8.046-5.712-8.937-4.043-.89-8.046 1.667-8.937 5.712-1.395 6.336-1.433 13.367-1.028 19.301-11.778-7.544-14.032-18.947-14.16-19.649-.689-4.059-4.526-6.808-8.6-6.145-4.088.666-6.863 4.52-6.197 8.608.132.814 2.579 14.705 15.24 25.667-2.33.695-4.622 1.476-6.874 2.341-14.13-12.694-30.588-22.037-48.348-27.613 15.706-7.522 28.954-19.38 38.191-34.012 3.83 1.975 8.108 3.04 12.494 3.04 15.079 0 27.347-12.268 27.347-27.347 0-5.841-1.847-11.256-4.979-15.704 19.574-56.836 10.939-90.129.041-108.144-10.871-17.969-28.934-29.52-50.861-32.524-15.593-2.137-28.348 2.025-35.499 5.29-10.429-12.417-22.3-19.081-46.92-19.081-28.256 0-68.318 14.655-89.508 46.832-23.511 35.701-14.992 77.68-2.732 108.005-2.972 4.375-4.711 9.651-4.711 15.327 0 15.079 12.268 27.347 27.348 27.347 4.385 0 8.664-1.066 12.493-3.04 9.225 14.614 22.452 26.461 38.132 33.985-20.819 6.525-39.779 18.232-55.38 34.486-2.604 2.713-2.769 7.082-.366 9.978 2.821 3.398 8.128 3.596 11.188.409 13.434-13.997 29.681-24.182 47.516-30.052 5.493 15.097 19.995 25.675 36.652 25.675 16.645 0 31.14-10.563 36.641-25.643 13.212 4.359 25.579 11.086 36.558 19.959-27.626 16.575-46.157 46.82-46.157 81.315l.007.513c-2.149.359-4.216.964-6.165 1.794h-137.311c1.108-17.95 6.34-35.44 15.298-50.977 2.069-3.588.838-8.175-2.75-10.244-3.587-2.068-8.175-.838-10.244 2.751-11.466 19.884-17.526 42.593-17.526 65.673v.296c0 4.142 3.358 7.5 7.5 7.5h130.338c-1.266 3.147-1.971 6.579-1.971 10.174 0 15.079 12.268 27.347 27.347 27.347 3.95 0 7.792-.847 11.307-2.453 16.995 25.528 46.029 42.385 78.929 42.385 32.901 0 61.935-16.857 78.93-42.385 3.515 1.606 7.357 2.453 11.307 2.453 15.079 0 27.348-12.268 27.348-27.347 0-3.595-.704-7.027-1.971-10.174h135.032c4.143 0 7.5-3.358 7.5-7.5v-.296c.001-11.177-1.403-22.284-4.174-33.011zm-285.536-138.57c-1.972 0-3.85-.47-5.546-1.333 3.097-7.339 5.263-15.162 6.359-23.32 6.429.422 11.534 5.772 11.534 12.306.001 6.808-5.539 12.347-12.347 12.347zm-187.851-127.429c18.136-27.539 52.617-40.082 76.98-40.082 23.792 0 30.552 6.839 38.857 18.104 2.37 3.216 6.879 3.984 10.21 1.781.131-.088 13.385-8.692 31.316-6.232 17.354 2.377 31.582 11.408 40.063 25.427 12.628 20.875 12.682 52.065.259 90.573-2.569-.994-5.323-1.612-8.197-1.783v-12.475c0-3.652-2.63-6.773-6.229-7.392-37.127-6.383-62.821-44.06-63.071-44.432-3.27-4.894-10.933-4.182-13.162 1.29-.045.107-4.703 10.854-18.377 21.433-18.264 14.131-44.34 21.6-75.41 21.6-4.142 0-7.5 3.358-7.5 7.5v12.475c-3.097.184-6.056.885-8.793 2.019-13.589-35.886-12.578-66.069 3.054-89.806zm7.377 127.429c-6.809 0-12.348-5.539-12.348-12.347 0-6.534 5.105-11.884 11.534-12.306 1.095 8.153 3.259 15.971 6.353 23.306-1.706.866-3.597 1.347-5.539 1.347zm13.551-31.834l-.008-.107c-.107-1.655-.18-3.319-.18-5.001v-7.806c56.892-2.037 83.318-27.061 93.989-41.73 10.322 12.264 31.442 33.275 59.76 40.432v9.104c0 1.682-.074 3.346-.18 5.001l-.008.108c-2.641 40.013-36.016 71.765-76.686 71.765-40.671-.001-74.046-31.752-76.687-71.766zm76.686 103.274c-9.748 0-18.294-5.886-22.015-14.448 7.174-1.358 14.534-2.06 22.015-2.06 7.461 0 14.822.704 22.008 2.073-3.724 8.555-12.265 14.435-22.008 14.435zm248.299 0c-9.744 0-18.288-5.882-22.012-14.44 7.181-1.364 14.542-2.069 22.012-2.069 7.467 0 14.823.727 21.995 2.102-3.731 8.54-12.264 14.407-21.995 14.407zm-76.875-108.383v-7.806c56.892-2.037 83.319-27.061 93.989-41.73 10.322 12.264 31.443 33.275 59.76 40.432v9.104c0 42.389-34.485 76.874-76.874 76.874s-76.875-34.485-76.875-76.874zm-139.859 238.841c-6.808 0-12.347-5.539-12.347-12.347 0-5.688 3.871-10.476 9.112-11.903 1.373 8.268 3.816 16.178 7.188 23.58-1.262.432-2.591.67-3.953.67zm90.237 39.932c-43.98 0-79.76-35.78-79.76-79.76s35.78-79.76 79.76-79.76c43.98 0 79.76 35.78 79.76 79.76s-35.78 79.76-79.76 79.76zm90.237-39.932c-1.361 0-2.69-.238-3.952-.67 3.372-7.402 5.815-15.313 7.188-23.58 5.241 1.427 9.112 6.216 9.112 11.903 0 6.808-5.539 12.347-12.348 12.347zM218.796 414.066c-6.705 0-12.16 5.455-12.16 12.16s5.455 12.159 12.16 12.159 12.16-5.455 12.16-12.159c0-6.706-5.454-12.16-12.16-12.16zM288.528 414.066c-6.705 0-12.159 5.455-12.159 12.16s5.454 12.159 12.159 12.159c6.705 0 12.16-5.455 12.16-12.159 0-6.706-5.455-12.16-12.16-12.16zM236.435 72.339c11.678 10.059 23.785 15.996 24.295 16.244 2.052.998 4.507.998 6.559 0 .51-.248 12.617-6.185 24.295-16.244 16.509-14.221 24.122-29.869 22.018-45.254-2.521-18.422-15.599-26.009-26.998-26.967-8.65-.73-16.84 1.998-22.594 6.998-5.753-5-13.946-7.726-22.594-6.998-11.399.958-24.477 8.545-26.997 26.967-2.106 15.385 5.508 31.033 22.016 45.254zm-7.156-43.221c1.557-11.379 9.059-13.689 13.392-14.053.486-.041.97-.061 1.451-.061 5.955 0 11.388 3.056 12.73 7.337.98 3.128 3.878 5.257 7.157 5.257 3.278 0 6.177-2.129 7.157-5.257 1.449-4.627 7.681-7.826 14.181-7.276 4.333.364 11.836 2.674 13.393 14.053 2.638 19.286-21.733 37.063-34.73 44.259-13.003-7.202-37.369-24.976-34.731-44.259z"/></svg>