<svg viewBox="0 0 512 512" xmlns="http://www.w3.org/2000/svg"><path d="M435.566 33.37h-72.196c-10.674 9.755-17.37 23.773-17.37 39.356 0 9.56 2.531 18.524 6.943 26.284l-11.781 11.788c3.771 1.59 7.236 3.909 10.216 6.891l13.425 13.433 10.696-10.703c7.212 3.616 15.349 5.663 23.97 5.663 29.53 0 53.468-23.887 53.468-53.355-.001-15.584-6.697-29.602-17.371-39.357z" fill="#fed2a4"/><path d="M362.319 34.37c-10.057 9.701-16.319 23.294-16.319 38.356 0 9.56 2.531 18.524 6.943 26.284l-11.781 11.788c3.771 1.59 7.236 3.909 10.216 6.891l3.947 3.949 17.618-17.628c-4.412-7.76-6.943-16.725-6.943-26.284 0-17.868 8.81-33.673 22.322-43.356z" fill="#ffbd86"/><path d="M420.45 86.304c-4.142 0-7.5-3.357-7.5-7.5v-12.157c0-4.143 3.358-7.5 7.5-7.5s7.5 3.357 7.5 7.5v12.156c0 4.143-3.358 7.501-7.5 7.501z" fill="#6d3326"/><path d="M473.677 201.135l-55.471.001-37.572-37.597c-.692 7.145-3.766 14.099-9.222 19.558l-9.527 9.533 39.772 39.797c1.859 1.86 4.383 2.9 7.013 2.888h65.006z" fill="#fe9901"/><path d="M473.677 220.314h-55.007c-2.63.013-5.154-1.027-7.013-2.888l-37.478-37.501c-.844 1.102-1.761 2.164-2.768 3.171l-9.527 9.533 39.772 39.797c1.859 1.86 4.383 2.9 7.013 2.888h65.006v-15z" fill="#fb8801"/><path d="M504.5 200.385c0-2.75-2.25-5-5-5h-21.823c-2.75 0-5 2.25-5 5v36.299c0 2.75 2.25 5 5 5l21.823.001c2.75 0 5-2.25 5-5z" fill="#fed2a4"/><path d="M177.564 261.767l-32.249 32.269h-106.958c.036.227.07.454.07.69v50.3h117.442c6.757 0 13.238-2.686 18.017-7.467l50.861-50.893-24.885-24.899z" fill="#5a5a5a"/><path d="M145.315 294.035h-106.958c.036.227.07.454.07.69v24.31h116.888l57.234-57.269h-34.985z" fill="#444"/><path d="M188.982 179.667l1.236 1.237c1.56 1.56 1.56 4.099 0 5.658l-15.434 15.443c-.751.751-1.755 1.165-2.827 1.165s-2.076-.414-2.828-1.165l-25.649-25.666c-.752-.752-1.166-1.756-1.166-2.829s.414-2.077 1.165-2.829l5.567-5.57h-60.233c-2.75 0-3.658 1.807-2.019 4.014l8.297 11.173c1.64 2.207 1.669 5.842.065 8.075l-8.428 11.737c-1.604 2.233-.666 4.062 2.084 4.062h130.792l39.039-39.061h-55.115z" fill="#fe646f"/><path d="M116.729 200.11l8.428-11.737c1.604-2.233 1.574-5.868-.065-8.075l-8.297-11.173c-1.64-2.207-.731-4.014 2.019-4.014h-30c-2.75 0-3.658 1.807-2.019 4.014l8.297 11.173c1.64 2.207 1.669 5.842.065 8.075l-8.428 11.737c-1.604 2.233-.666 4.062 2.084 4.062h30c-2.75 0-3.687-1.828-2.084-4.062z" fill="#fd4755"/><path d="M281.653 274.326l12.551-12.559h-25.102zM372.119 137.027l-20.035-20.046c-4.328-4.33-9.558-7.201-15.084-8.627v.587c2.525.74 4.841 2.102 6.754 4.017 3.003 3.004 4.657 7.001 4.657 11.254 0 8.778-7.136 15.92-15.908 15.92l-50.305-.002-67.332 67.37 17.198 17.206h99.178l40.877-40.902c12.909-12.914 12.909-33.858 0-46.777z" fill="#ffdc48"/><path d="M282.198 140.13l-67.332 67.37 17.198 17.206h.6l84.526-84.575z" fill="#fac600"/><path d="M233.477 224.706l-17.901-17.913-17.904 17.913zM278.19 454.203l.207-.021h50.752v-123.186c0-6.762-2.684-13.246-7.463-18.027l-51.17-51.202h-72.067l79.742 79.79v112.646z" fill="#5a5a5a"/><path d="M212.678 224.706l10.4-10.406-7.502-7.507-17.904 17.913zM278.19 454.203l.207-.021h24.793v-122.625l-69.748-69.79h-34.994l79.742 79.79z" fill="#444"/><path d="M352.82 478.63v-13.425c0-6.629-5.39-12.023-12.015-12.023h-62.409c-2.978 0-5.391 2.416-5.391 5.396v20.052z" fill="#d78878"/><path d="M303.005 478.63v-20.052c0-2.979 2.414-5.396 5.391-5.396h-30c-2.978 0-5.391 2.416-5.391 5.396v20.052z" fill="#ca6e59"/><path d="M344.461 112.251c-3.194-3.197-7.441-4.958-11.959-4.958h-114c-2.629 0-5.15 1.05-7.001 2.92l-45.761 46.198 23.949 23.964 39.224-39.247 103.59.004c9.323 0 16.908-7.591 16.908-16.92 0-4.522-1.759-8.77-4.95-11.961z" fill="#fe9901"/><path d="M344.461 112.251c-3.194-3.197-7.441-4.958-11.959-4.958h-114c-2.629 0-5.15 1.05-7.001 2.92l-45.761 46.198 12.484 12.492 43.277-43.69c1.851-1.87 4.372-2.92 7.001-2.92h114c2.415 0 4.746.518 6.887 1.475-.112-4.354-1.843-8.431-4.928-11.517z" fill="#fb8801"/><path d="M168.423 202.713c1.944 1.944 5.125 1.944 7.069 0l15.433-15.443c1.944-1.944 1.944-5.128 0-7.072l-25.65-25.666c-1.944-1.945-5.125-1.945-7.069 0l-15.434 15.443c-1.944 1.944-1.944 5.128 0 7.072z" fill="#fed2a4"/><path d="M304.511 259.215c-1.936 1.953-5.77 3.552-8.52 3.552h-252.267c-2.75 0-3.688-1.828-2.084-4.061l8.428-11.738c1.604-2.233 1.574-5.868-.066-8.075l-8.297-11.172c-1.64-2.207-.732-4.014 2.018-4.014h290.973c2.75 0 3.417 1.599 1.48 3.552z" fill="#fe646f"/><path d="M76.64 258.705l8.428-11.738c1.604-2.233 1.574-5.868-.065-8.075l-8.297-11.172c-1.64-2.207-.731-4.014 2.019-4.014h-35c-2.75 0-3.658 1.807-2.018 4.014l8.297 11.172c1.64 2.207 1.67 5.842.066 8.075l-8.428 11.738c-1.604 2.233-.666 4.061 2.084 4.061h35c-2.752.001-3.69-1.827-2.086-4.061z" fill="#fd4755"/><path d="M504.5 492.63h-497c-4.142 0-7.5-3.357-7.5-7.5s3.358-7.5 7.5-7.5h497c4.142 0 7.5 3.357 7.5 7.5 0 4.142-3.358 7.5-7.5 7.5z" fill="#5a5a5a"/><path d="M10.558 369.193c-1.689 0-3.058-1.369-3.058-3.06v-73.742c0-1.69 1.369-3.059 3.058-3.059h23.478c2.973 0 5.391 2.419 5.391 5.393v62.446c0 6.629-5.389 12.021-12.014 12.021h-16.855z" fill="#d78878"/><path d="M34.036 289.333h-23.478c-1.689 0-3.058 1.369-3.058 3.059v30c0-1.69 1.369-3.059 3.058-3.059h23.478c2.973 0 5.391 2.419 5.391 5.393v-30c0-2.974-2.418-5.393-5.391-5.393z" fill="#ca6e59"/><path d="M450.11 34.37c4.142 0 7.5-3.357 7.5-7.5s-3.358-7.5-7.5-7.5h-50.642c-14.438 0-27.529 5.72-37.149 15z" fill="#d78878"/></svg>