<svg viewBox="0 0 511.99789 511" xmlns="http://www.w3.org/2000/svg"><path d="M504.098 102.809h-41.688c1.211-1.699 2.309-3.484 3.27-5.355 5.516-10.773 6.262-23.461 2.047-34.813l-12.633-33.953c-4.211-11.34-13.059-20.457-24.266-25.012-11.219-4.559-23.926-4.195-34.867 1l-99.977 47.48c-4.941-3.531-10.984-5.617-17.508-5.617h-44.953c-6.523 0-12.57 2.09-17.512 5.621l-99.973-47.488c-10.941-5.191-23.648-5.555-34.867-.996-11.207 4.555-20.055 13.672-24.266 25.008l-12.633 33.961c-4.215 11.348-3.469 24.035 2.051 34.809.957 1.871 2.059 3.66 3.27 5.355h-41.691c-4.363 0-7.902 3.535-7.902 7.902v56.887c0 4.363 3.539 7.902 7.902 7.902 4.363 0 7.902-3.539 7.902-7.902v-48.988h54.887c.879.309 1.77.594 2.672.844l66.34 18.262c-14.742 22.59-27.746 46.352-38.879 70.973h-85.02v-9.484c0-4.363-3.539-7.898-7.902-7.898-4.363 0-7.902 3.535-7.902 7.898v17.387c0 4.363 3.539 7.902 7.902 7.902h28.18v279.754c0 4.367 3.539 7.902 7.902 7.902h424.031c4.363 0 7.902-3.535 7.902-7.902v-45.883c0-4.363-3.539-7.902-7.902-7.902-4.367 0-7.902 3.539-7.902 7.902v37.984h-156.707v-266.996c22.383 42.395 37.535 88.492 44.508 136.121.461 3.152 2.773 5.719 5.863 6.508.648.168 1.305.246 1.957.246 2.441 0 4.793-1.133 6.309-3.145 11.359-15.07 21.922-31.203 31.457-48.047 15.969 10.875 31.473 23 46.184 36.125 2.48 2.211 6.082 2.637 9.008 1.059 2.926-1.574 4.555-4.813 4.07-8.102-6.309-43.035-18.07-85.355-34.742-125.625h42.09v202.262c0 4.367 3.539 7.902 7.902 7.902 4.367 0 7.902-3.535 7.902-7.902v-202.262h28.184c4.363 0 7.898-3.539 7.898-7.902v-105.879c.004-4.367-3.531-7.902-7.898-7.902zm-101.359-83.859c7.051-3.344 14.91-3.57 22.141-.633 7.219 2.934 12.688 8.57 15.402 15.879l12.629 33.949c2.719 7.313 2.254 15.164-1.301 22.105-3.551 6.938-9.648 11.898-17.164 13.965l-125.785 34.629v-37.977c28.273-17.313 98.758-53.02 116.301-28.258 2.52 3.559 7.449 4.406 11.012 1.883 3.563-2.523 4.406-7.457 1.883-11.016-13.539-19.113-42.07-20.043-84.809-2.758-17.605 7.117-33.859 15.805-44.387 21.832v-5.832c0-4.23-.879-8.262-2.457-11.922zm-169.215 43.391h44.953c7.93 0 14.379 6.453 14.379 14.379v65.316c0 7.93-6.449 14.379-14.379 14.379h-44.953c-7.93 0-14.379-6.449-14.379-14.379v-65.316c0-7.93 6.449-14.379 14.379-14.379zm-13.281 146.344c7.559-12.559 15.785-24.73 24.637-36.465h22.234c8.855 11.734 17.082 23.906 24.637 36.465zm-159.852-118.434c-3.555-6.941-4.02-14.793-1.305-22.102l12.637-33.957c2.711-7.305 8.18-12.941 15.398-15.875 7.227-2.938 15.09-2.711 22.137.633l96.539 45.855c-1.578 3.656-2.457 7.684-2.457 11.918v6.281c-10.492-6.039-27.113-14.984-45.168-22.285-42.734-17.285-71.27-16.355-84.809 2.758-2.523 3.559-1.68 8.492 1.883 11.016 3.563 2.523 8.492 1.68 11.012-1.883 17.707-24.996 89.352 11.621 117.082 28.738v37.496l-125.781-34.625c-7.52-2.07-13.617-7.031-17.168-13.969zm146.496 65.961c3.934 7.359 10.824 12.91 19.078 15.047-36.957 51.563-62.398 110.809-74.332 173.082-8.395-12.266-16.242-25.121-23.426-38.398-1.051-1.945-2.863-3.359-5.008-3.902-2.141-.543-4.41-.164-6.258 1.043-13.16 8.582-26.047 17.996-38.492 28.105 12.816-67.273 39.297-132.141 77.27-189.063zm-155 68.281h42.094c-16.672 40.27-28.434 82.586-34.746 125.625-.48 3.289 1.145 6.527 4.07 8.102 2.93 1.574 6.527 1.152 9.008-1.059 14.711-13.125 30.215-25.25 46.188-36.125 9.535 16.844 20.094 32.973 31.457 48.047 1.516 2.012 3.867 3.148 6.309 3.148.652 0 1.309-.082 1.957-.25 3.09-.789 5.398-3.355 5.859-6.508 6.977-47.629 22.129-93.73 44.508-136.125v267h-156.703zm172.508 271.855v-271.855h63.211v271.855zm170.664-193.266c-1.848-1.207-4.121-1.582-6.258-1.039-2.141.543-3.957 1.957-5.008 3.898-7.184 13.277-15.031 26.137-23.426 38.398-11.934-62.277-37.375-121.52-74.336-173.078 8.254-2.133 15.148-7.688 19.082-15.051l51.18-14.09c37.965 56.934 64.445 121.801 77.262 189.066-12.449-10.109-25.336-19.523-38.496-28.105zm101.137-94.395h-85.016c-11.133-24.621-24.137-48.383-38.875-70.973l66.332-18.262c.902-.25 1.793-.535 2.672-.844h54.887zm0 0"/></svg>