<svg xmlns="http://www.w3.org/2000/svg" viewBox="0 0 513.6 513.6"><path d="M508 384.8c-5.6-7.2-11.2-12.8-18.4-16l-46.4-23.2c-.8-.8-3.2-4-3.2-8.8v-5.6c10.4-11.2 16-26.4 16-42.4v-16c0-12.8-4.8-24.8-14.4-33.6-8.8-9.6-20.8-14.4-33.6-14.4s-24.8 4.8-33.6 14.4c-9.6 8.8-14.4 20.8-14.4 33.6v16c0 15.2 5.6 31.2 16 42.4v5.6c0 4.8-2.4 8-3.2 8.8l-24.8 12-40.8-20c-.8-.8-3.2-3.2-3.2-8.8v-27.2c14.4-14.4 22.4-34.4 24-54.4 1.6-.8 2.4-1.6 3.2-2.4 3.2-4 4.8-8 4.8-12v-40c0-21.6-8-41.6-23.2-56.8-15.2-15.2-35.2-23.2-56.8-23.2-21.6 0-41.6 8-56.8 23.2-15.2 15.2-23.2 35.2-23.2 56.8v40c0 4 1.6 8 4.8 11.2l3.2 2.4c1.6 20 9.6 40.8 24 54.4v28c0 5.6-2.4 8-3.2 8.8l-40.8 20-24.8-12c-.8-.8-3.2-4-3.2-8.8v-5.6c10.4-11.2 16-26.4 16-42.4v-16c0-12.8-4.8-24.8-14.4-33.6-8.8-9.6-20.8-14.4-33.6-14.4s-24.8 4.8-33.6 14.4c-9.6 8.8-14.4 20.8-14.4 33.6v16c0 15.2 5.6 31.2 16 42.4v5.6c0 4.8-2.4 8-3.2 8.8l-46.4 23.2c-6.4 3.2-12 8.8-16 14.4-4 6.4-6.4 13.6-6.4 21.6v24.8l10.4 4.8c14.4 7.2 29.6 12.8 45.6 16 10.4 2.4 21.6 4 32.8 4.8v57.6h16v-72c0-35.2 24.8-47.2 59.2-64.8h1.6v-.8l36.8-18.4c5.6 24.8 28 44 54.4 44s48.8-18.4 54.4-44l36.8 18.4v.8h1.6c34.4 17.6 59.2 29.6 59.2 64.8v72h16v-56.8c11.2-.8 22.4-2.4 32.8-4.8 16-4 31.2-9.6 45.6-16l10.4-4.8v-24.8c0-7.2-2.4-14.4-5.6-20.8zm-436-112c0-8.8 3.2-16.8 9.6-22.4 6.4-6.4 14.4-9.6 22.4-9.6s16.8 3.2 22.4 9.6c6.4 6.4 9.6 14.4 9.6 22.4v16c0 16.8-9.6 40-32 40s-32-23.2-32-40v-16zm16 167.2c-9.6-.8-20-2.4-28.8-4.8-14.4-3.2-28.8-8.8-41.6-15.2h-1.6v-15.2c0-4.8 1.6-8.8 3.2-12.8 2.4-4 5.6-7.2 9.6-8.8l46.4-23.2c4.8-2.4 10.4-8.8 12-18.4 4.8 2.4 10.4 3.2 16.8 3.2s11.2-.8 16.8-3.2c1.6 8.8 7.2 16 12 18.4l13.6 7.2c-31.2 15.2-58.4 32.8-58.4 72.8zm122.4-292.8c12-12 28-18.4 45.6-18.4 16.8 0 32.8 6.4 45.6 18.4 11.2 11.2 17.6 25.6 18.4 41.6-4.8-2.4-10.4-4-16-4h-8c-2.4 0-4-.8-5.6-2.4-1.6-1.6-2.4-3.2-2.4-5.6 0-3.2-1.6-6.4-4.8-7.2-3.2-1.6-6.4-.8-8.8 1.6l-13.6 13.6h-52.8c-5.6 0-11.2 1.6-16 4 .8-15.2 7.2-30.4 18.4-41.6zm-10.4 93.6c0-4.8-3.2-8-8-8v-16c0-4 1.6-8 4.8-11.2 3.2-3.2 7.2-4.8 11.2-4.8h56c2.4 0 4-.8 5.6-2.4l7.2-7.2 2.4 2.4c4.8 4.8 10.4 7.2 16.8 7.2h8c4 0 8 1.6 11.2 4.8s4.8 7.2 4.8 11.2v16c-4.8 0-8 3.2-8 8 0 24.8-15.2 64-56 64s-56-39.2-56-64zm56 144c-20.8 0-37.6-16-40-36 4.8-4.8 8-12 8-20v-16c8.8 4.8 20 8 32 8s23.2-3.2 32-8v16c0 8 3.2 15.2 8 20-2.4 20-19.2 36-40 36zm120-112c0-8.8 3.2-16.8 9.6-22.4 6.4-6.4 14.4-9.6 22.4-9.6s16.8 3.2 22.4 9.6c6.4 6.4 9.6 14.4 9.6 22.4v16c0 16.8-9.6 40-32 40s-32-23.2-32-40v-16zm120 147.2l-1.6.8c-13.6 6.4-27.2 12-41.6 15.2-9.6 2.4-19.2 4-28.8 4.8 0-40-27.2-57.6-58.4-73.6l13.6-7.2c4.8-2.4 10.4-8.8 12-18.4 4.8 2.4 10.4 3.2 16.8 3.2s11.2-.8 16.8-3.2c1.6 8.8 7.2 16 12 18.4l46.4 23.2c4 1.6 7.2 4.8 9.6 8.8 2.4 4 3.2 8 3.2 12.8v15.2zM152 464.8h16v48h-16zM344 464.8h16v48h-16zM368 128.8h16v16h-16zM400 128.8h16v16h-16zM432 128.8h16v16h-16zM320 88.8h176v96h-24v20.8l-18.4-18.4c-1.6-1.6-3.2-2.4-5.6-2.4h-96v16h92.8l29.6 29.6c1.6 1.6 3.2 2.4 5.6 2.4.8 0 2.4 0 3.2-.8 3.2-1.6 4.8-4 4.8-7.2v-24h24v-128h-208v40h16v-24zM48 48.8h160v16h-160zM48 80.8h160v16h-160zM48 112.8h112v16h-112zM24 200.8c0 3.2 1.6 6.4 4.8 7.2.8.8 2.4.8 3.2.8 2.4 0 4-.8 5.6-2.4l29.6-29.6h92.8v-16h-96c-2.4 0-4 .8-5.6 2.4l-18.4 18.4v-20.8h-24v-144h224v80h16v-96h-256v176h24v24z" fill="#403E3E"/></svg>