<svg xmlns="http://www.w3.org/2000/svg" height="512pt" viewBox="0 0 512.00023 512" width="512pt"><g><path d="M81.941 401.668h-26.777c-30.418 0-55.164 24.746-55.164 55.164v40.168c0 8.285 6.715 15 15 15h107.109c8.285 0 15-6.715 15-15v-40.168c0-30.418-24.746-55.164-55.168-55.164zm0 0" fill="rgb(100%,42.745098%,8.235294%)"/><path d="M189.055 321.332h-26.777c-30.418 0-55.168 24.75-55.168 55.168v120.5c0 8.285 6.719 15 15 15h107.113c8.281 0 15-6.715 15-15v-120.5c0-30.418-24.75-55.168-55.168-55.168zm0 0" fill="rgb(100%,81.960784%,16.862745%)"/><path d="M296.164 241h-26.777c-30.418 0-55.164 24.75-55.164 55.168v200.832c0 8.285 6.715 15 15 15h107.105c8.285 0 15-6.715 15-15v-200.832c0-30.418-24.746-55.168-55.164-55.168zm0 0" fill="rgb(50.196078%,82.745098%,59.607843%)"/><path d="M509.055 150.672l-107.117-144.602c-2.828-3.816-7.297-6.07-12.051-6.07-4.754 0-9.227 2.254-12.055 6.07l-107.109 144.602c-3.371 4.551-3.891 10.617-1.344 15.676 2.551 5.059 7.73 8.254 13.395 8.254h38.555v322.398c0 8.285 6.719 15 15 15h107.113c8.285 0 15-6.715 15-15v-322.398h38.559c5.664 0 10.848-3.195 13.398-8.254 2.547-5.059 2.027-11.125-1.344-15.676zm0 0" fill="rgb(0%,70.588235%,29.411765%)"/></g></svg>