<svg viewBox="0 -24 511.99906 511" xmlns="http://www.w3.org/2000/svg"><path d="M50 262.598c-5.52 0-10 4.48-10 10s4.48 10 10 10 10-4.48 10-10-4.48-10-10-10zm0 0M459.617 297.273l-94.273 32.41c.418-2.32.652-4.688.652-7.09 0-22.055-17.941-40-40-40h-64.758c-1.719 0-3.414-.441-4.91-1.285l-52.832-29.715c-10.445-5.887-22.316-9-34.328-9h-70.891c-4.125-11.637-15.242-19.996-28.277-19.996h-60c-5.523 0-10 4.477-10 10v179.996c0 5.523 4.477 10 10 10h60c12.738 0 23.66-8.004 27.996-19.246 11.32 1.406 24.418 4.754 32.648 9.691l52.297 31.379c19.813 11.891 42.496 18.176 65.605 18.176 18.313 0 36.055-3.844 52.738-11.422l186.645-82.184c20.672-8.387 30.879-33.188 19.063-55.047-8.691-16.086-29.047-23.242-47.375-16.668zm-379.617 95.367c-.023 5.492-4.504 9.953-10 9.953h-50v-159.996h50c5.512 0 10 4.484 10 10zm400.332-42.148l-.316.129s-186.922 82.305-186.957 82.32c-14.082 6.406-29.059 9.652-44.512 9.652-19.484 0-38.609-5.297-55.313-15.324l-52.301-31.379c-11.195-6.715-27.227-10.809-40.934-12.449v-120.844h69.168c8.578 0 17.055 2.219 24.52 6.426l52.832 29.715c4.477 2.523 9.57 3.859 14.719 3.859h64.758c11.027 0 20 8.969 20 20 0 10.988-8.977 20-20 20h-101.656c-5.523 0-10 4.477-10 10 0 5.52 4.477 9.996 10 9.996h101.656c6.559 0 13.016-1.629 18.746-4.684 0 0 121.543-41.781 121.59-41.797 8.961-3.234 19.094-.016 23.066 7.336 5.957 11.02 1.031 23-9.066 27.043zm0 0M291.246 243.055c1.883 1.629 4.215 2.441 6.551 2.441s4.672-.813 6.551-2.441c81.59-70.711 132.059-106.496 132.059-162.105 0-43.992-31.145-80.449-74.898-80.449-28.734 0-50.738 16.563-64.91 41.418-14.141-24.801-36.121-41.418-64.898-41.418-33.496 0-61.5 21.707-71.344 55.297-1.555 5.301 1.484 10.855 6.785 12.41 5.301 1.555 10.855-1.484 12.406-6.785 7.285-24.859 27.754-40.922 52.152-40.922 28.527 0 48.539 25.332 55.262 48.918 1.199 4.332 5.145 7.332 9.637 7.332 4.496 0 8.438-3 9.637-7.332.137-.488 14.027-48.918 55.273-48.918 31.297 0 54.898 25.984 54.898 60.449 0 44.484-43.484 76.555-118.617 141.336-45.777-39.313-82.141-66.984-102.809-94.055-3.352-4.391-9.625-5.234-14.016-1.883-4.391 3.352-5.23 9.625-1.883 14.02 23.297 30.512 62.625 59.746 112.164 102.688zm0 0M169 88.598c-5.52 0-10 4.48-10 10s4.48 10 10 10 10-4.48 10-10-4.48-10-10-10zm0 0"/></svg>