<svg xmlns="http://www.w3.org/2000/svg" viewBox="0 0 512 512" enable-background="new 0 0 512 512"><path d="M432.552 105.931c-14.626 0-26.483-11.857-26.483-26.483v-79.448h-238.345c-14.626 0-26.483 11.857-26.483 26.483v61.793h220.69c9.751 0 17.655 7.905 17.655 17.655v123.586c0 9.75-7.904 17.655-17.655 17.655h-220.69v238.345c0 14.626 11.857 26.483 26.483 26.483h317.793c14.626 0 26.483-11.857 26.483-26.483v-379.586h-79.448zm-152.656 320.38c3.448 3.448 3.448 9.035 0 12.483-1.724 1.724-3.982 2.585-6.241 2.585s-4.518-.862-6.241-2.586l-52.966-52.966c-3.448-3.448-3.448-9.035 0-12.483l52.966-52.966c3.448-3.448 9.035-3.448 12.483 0s3.448 9.035 0 12.483l-46.724 46.724 46.723 46.726zm81.474-114.242l-52.966 141.241c-1.332 3.542-4.694 5.724-8.267 5.724-1.031 0-2.078-.181-3.1-.561-4.565-1.716-6.879-6.802-5.169-11.371l52.966-141.241c1.716-4.561 6.802-6.854 11.367-5.164 4.566 1.717 6.881 6.803 5.169 11.372zm77.423 73.758l-52.966 52.966c-1.724 1.725-3.982 2.586-6.241 2.586s-4.518-.862-6.241-2.586c-3.448-3.448-3.448-9.035 0-12.483l46.724-46.723-46.724-46.724c-3.448-3.448-3.448-9.035 0-12.483s9.035-3.448 12.483 0l52.966 52.966c3.447 3.447 3.447 9.033-.001 12.481z" fill="#E4EAF6"/><path d="M432.552 105.931h79.448l-105.931-105.931v79.448c0 14.626 11.857 26.483 26.483 26.483z" fill="#D2DCF0"/><path d="M379.586 229.517v-123.586c0-9.75-7.904-17.655-17.655-17.655h-344.276c-9.751 0-17.655 7.905-17.655 17.655v123.586c0 9.75 7.904 17.655 17.655 17.655h344.276c9.751 0 17.655-7.905 17.655-17.655zm-273.655-26.483c0 4.879-3.953 8.828-8.828 8.828s-8.828-3.948-8.828-8.828v-17.655h-44.137v17.655c0 4.879-3.953 8.828-8.828 8.828s-8.828-3.948-8.828-8.828v-70.621c0-4.879 3.953-8.828 8.828-8.828s8.828 3.948 8.828 8.828v35.31h44.138v-35.31c0-4.879 3.953-8.828 8.828-8.828s8.828 3.948 8.828 8.828v70.621zm70.621-61.793h-17.655v61.793c0 4.879-3.953 8.828-8.828 8.828s-8.828-3.948-8.828-8.828v-61.793h-17.655c-4.875 0-8.828-3.948-8.828-8.828 0-4.879 3.953-8.828 8.828-8.828h52.966c4.875 0 8.828 3.948 8.828 8.828-.001 4.88-3.953 8.828-8.828 8.828zm97.103 61.793c0 4.879-3.953 8.828-8.828 8.828s-8.827-3.948-8.827-8.828v-38.75l-10.087 16.81c-1.594 2.655-4.469 4.285-7.569 4.285h-8.828c-3.1 0-5.974-1.63-7.569-4.285l-10.087-16.81v38.75c0 4.879-3.953 8.828-8.828 8.828s-8.828-3.948-8.828-8.828v-70.621c0-3.966 2.646-7.448 6.47-8.509 3.84-1.043 7.887.569 9.927 3.966l23.328 38.879 23.328-38.879c2.039-3.414 6.087-5.017 9.927-3.966 3.823 1.06 6.47 4.543 6.47 8.509v70.621zm70.621 8.828h-44.138c-4.875 0-8.828-3.948-8.828-8.828v-70.621c0-4.879 3.953-8.828 8.828-8.828s8.828 3.948 8.828 8.828v61.793h35.31c4.875 0 8.828 3.948 8.828 8.828s-3.953 8.828-8.828 8.828z" fill="#FF694B"/><g fill="#fff"><path d="M97.103 123.586c-4.875 0-8.828 3.948-8.828 8.828v35.31h-44.137v-35.31c0-4.879-3.953-8.828-8.828-8.828s-8.828 3.948-8.828 8.828v70.621c0 4.879 3.953 8.828 8.828 8.828s8.828-3.948 8.828-8.828v-17.655h44.138v17.655c0 4.879 3.953 8.828 8.828 8.828s8.828-3.948 8.828-8.828v-70.621c-.001-4.88-3.954-8.828-8.829-8.828zM267.186 123.905c-3.84-1.052-7.887.552-9.927 3.966l-23.328 38.879-23.328-38.879c-2.039-3.396-6.087-5.009-9.927-3.966-3.823 1.06-6.47 4.543-6.47 8.509v70.621c0 4.879 3.953 8.828 8.828 8.828s8.828-3.948 8.828-8.828v-38.75l10.087 16.81c1.594 2.655 4.47 4.285 7.569 4.285h8.828c3.1 0 5.974-1.63 7.569-4.285l10.085-16.81v38.75c0 4.879 3.953 8.828 8.828 8.828s8.828-3.948 8.828-8.828v-70.621c-.001-3.966-2.647-7.448-6.47-8.509zM176.552 123.586h-52.966c-4.875 0-8.828 3.948-8.828 8.828 0 4.879 3.953 8.828 8.828 8.828h17.655v61.793c0 4.879 3.953 8.828 8.828 8.828s8.828-3.948 8.828-8.828v-61.793h17.655c4.875 0 8.828-3.948 8.828-8.828-.001-4.88-3.953-8.828-8.828-8.828zM344.276 194.207h-35.31v-61.793c0-4.879-3.953-8.828-8.828-8.828s-8.828 3.948-8.828 8.828v70.621c0 4.879 3.953 8.828 8.828 8.828h44.138c4.875 0 8.828-3.948 8.828-8.828s-3.953-8.828-8.828-8.828z"/></g><g fill="#FF694B"><path d="M356.203 300.698c-4.565-1.689-9.651.604-11.367 5.164l-52.966 141.241c-1.711 4.569.604 9.655 5.169 11.371 1.022.38 2.069.561 3.1.561 3.573 0 6.935-2.181 8.267-5.725l52.966-141.241c1.71-4.569-.605-9.655-5.169-11.371zM279.896 320.38c-3.448-3.448-9.035-3.448-12.483 0l-52.966 52.966c-3.448 3.448-3.448 9.035 0 12.483l52.966 52.966c1.725 1.725 3.982 2.586 6.241 2.586 2.259 0 4.518-.862 6.241-2.586 3.448-3.448 3.448-9.035 0-12.483l-46.722-46.724 46.724-46.724c3.448-3.45 3.448-9.036-.001-12.484zM385.827 320.38c-3.448-3.448-9.035-3.448-12.483 0s-3.448 9.035 0 12.483l46.725 46.723-46.724 46.724c-3.448 3.448-3.448 9.035 0 12.483 1.725 1.725 3.982 2.586 6.241 2.586s4.518-.862 6.241-2.586l52.966-52.966c3.448-3.448 3.448-9.035 0-12.483l-52.966-52.964z"/></g></svg>