<svg xmlns="http://www.w3.org/2000/svg" viewBox="0 0 33.441 33.441"><path d="M11.452 5.3l7.317 4.225c.203.116.461.046.578-.155l.211-.366c.117-.201.047-.46-.154-.577l-7.318-4.225c-.202-.117-.461-.047-.577.154l-.211.366c-.117.202-.048.461.154.578zM5.115 16.277l7.318 4.226c.202.116.461.047.577-.154l.211-.365c.117-.201.048-.461-.154-.577l-7.318-4.225c-.202-.117-.461-.047-.577.154l-.211.366c-.118.199-.049.458.154.575zM30.92 21.44l-14.646-7.591 1.969-3.41c.116-.201.047-.461-.153-.577l-6.588-3.803c-.201-.116-.461-.046-.577.155l-4.648 8.05c-.115.201-.046.461.155.577l6.587 3.802c.201.117.461.047.576-.154l1.97-3.41 13.896 8.889c.196.125.451.063.567-.139l1.057-1.83c.115-.199.041-.451-.165-.559zM33.23 22.509l-.731-.422c-.2-.117-.461-.047-.577.154l-1.269 2.195c-.115.201-.046.461.155.576l.731.422c.201.117.46.048.577-.154l1.268-2.195c.117-.201.048-.461-.154-.576zM17.418 25.114h-.881c.111-.124.185-.284.185-.464v-.696c0-.383-.313-.697-.696-.697h-13.936c-.384 0-.697.314-.697.697v.696c0 .18.074.34.186.464h-.882c-.385 0-.697.315-.697.698v2.787c0 .383.313.697.697.697h16.723c.385 0 .696-.314.696-.697v-2.789c0-.381-.313-.696-.698-.696zm-.991 3.221h-14.675c-.403 0-.733-.33-.733-.732v-.734c.001-.402.33-.734.733-.732h14.675c.405 0 .735.33.734.731l.001.735c-.001.402-.33.732-.735.732z"/></svg>