<svg height="488pt" viewBox="0 -28 488 488" width="488pt" xmlns="http://www.w3.org/2000/svg"><path d="M389.973 395.586h-389.973v-395.586h16v379.586h373.973zm0 0" fill="#454546"/><g fill="#e85aa0"><path d="M40.945 278.004l19.363 8.352 19.359-8.352v78.516h-38.723zm0 0M234.164 178.336l20.074 8.348 18.645-8.348v178.09h-38.719zm0 0M367.27 357.762v-232.121l-19.363 8.352-19.359-8.352v232.121zm0 0M136.512 229.504l21.25 8.352 19.555-8.352v126.824h-40.805zm0 0"/></g><path d="M73.984 187.754l59.957-60.605 11.375 11.254-59.957 60.605zm0 0M177.316 118.117h55.277v16h-55.277zm0 0M265.996 107.52l60.672-51.156 10.309 12.227-60.668 51.156zm0 0" fill="#fdbe4a"/><path d="M86.992 200.684c0-13.379-10.766-24.223-24.043-24.223-13.281 0-24.047 10.844-24.047 24.223s10.766 24.223 24.047 24.223c13.277 0 24.043-10.844 24.043-24.223zm0 0M181.805 129.602c0-13.379-10.766-24.227-24.043-24.227-13.281 0-24.047 10.848-24.047 24.227s10.766 24.223 24.047 24.223c13.277 0 24.043-10.844 24.043-24.223zm0 0M278.285 124.055c0-13.379-10.766-24.223-24.047-24.223-13.277 0-24.043 10.844-24.043 24.223s10.766 24.227 24.043 24.227c13.281 0 24.047-10.848 24.047-24.227zm0 0M371.391 50.539c0-13.379-10.762-24.223-24.043-24.223-13.277 0-24.043 10.844-24.043 24.223s10.766 24.227 24.043 24.227c13.281 0 24.043-10.848 24.043-24.227zm0 0" fill="#ffd169"/><path d="M488 337.02c0-52.457-42.207-94.98-94.273-94.98-52.063 0-94.27 42.523-94.27 94.98s42.207 94.98 94.27 94.98c52.066 0 94.273-42.523 94.273-94.98zm0 0" fill="#99cf6c"/><path d="M349.277 381.777c-24.461-24.645-24.461-64.75 0-89.395 16.27-16.387 40.129-22.477 62.25-15.918l-4.555 15.34c-16.48-4.902-34.242-.348-46.34 11.848-18.293 18.434-18.293 48.418 0 66.852zm0 0M393.629 400.242c-10.988 0-22.043-2.906-31.992-8.875l8.227-13.723c18.344 11 41.762 7.996 56.957-7.305 18.293-18.434 18.293-48.418 0-66.855-1.898-1.789-4.395-4.047-7.086-5.852l8.922-13.281c3.656 2.457 6.77 5.262 9.332 7.68 24.645 24.828 24.645 64.934.188 89.578-12.164 12.262-28.285 18.633-44.547 18.633zm0 0M362.957 384.516l-22.98-1.047.734-15.984 6.246.285v-7.016h16zm0 0M432.363 306.047h-16v-23.5l22.883.785-.543 15.992-6.34-.219zm0 0" fill="#78af42"/></svg>