<svg viewBox="0 0 488 488" xmlns="http://www.w3.org/2000/svg"><path d="M223.879 158.652c-14.738 12.516-36.52 6.016-37.668-16.746 1.148-22.754 22.93-29.258 37.176-17.391 1.262 1.109 2.625 1.922 4.016 2.57l.246-46.785c0-10.895-9.336-19.992-20.145-19.992h-36.031c-14.742-.488-18.016-12.516-10.316-21.133 11.957-14.145 5.402-35.766-17.523-36.898-23.422.488-29.973 22.27-17.523 36.898 7.695 8.617 4.418 20.645-10.973 20.645h-36.031c-10.973 0-19.652 8.617-19.652 19.508v35.762c0 15.117-13.102 18.367-21.785 10.891-14.246-13.004-36.52-6.016-37.668 16.742 1.148 22.758 22.93 29.262 37.668 16.746 8.68-7.641 21.785-4.391 21.785 10.891v35.762c0 10.891 8.68 19.508 19.652 19.508h36.031c14.738-.488 18.016 12.516 10.316 21.133-11.957 14.141-5.406 35.758 17.523 36.898 22.926-1.141 29.48-22.758 16.867-37.387-7.695-8.617-4.91-21.133 10.316-21.133h37.176c10.973 0 19.652-8.617 19.652-19.508l.254-49.324c-1.152.621-2.289 1.398-3.363 2.344zm0 0" fill="#f16953"/><path d="M450.313 327.395c-8.68 7.477-21.785 4.23-21.785-10.891v-35.762c0-10.891-8.68-19.508-19.652-19.508h-36.031c-15.23 0-18.508-13.004-10.316-21.129 12.449-14.629 5.898-36.414-17.523-36.902-22.93 1.141-29.973 23.246-16.867 37.391 7.695 8.613 4.422 21.617-10.316 21.129h-37.176c-10.973 0-19.652 8.617-19.652 19.508v49.977c1.301-.652 2.57-1.461 3.77-2.512 14.738-12.516 36.52-6.016 37.668 16.746-1.148 22.754-22.93 29.258-37.176 17.391-1.332-1.172-2.781-2-4.258-2.656v47.684c0 10.73 9.172 19.996 20.145 19.996h36.027c15.23 0 18.508 11.867 10.316 21.133-12.449 14.629-5.895 36.41 17.523 36.898 22.93-1.141 30.137-23.406 17.523-36.898-7.531-8.781-4.254-20.645 10.973-20.645h36.031c10.973 0 19.652-8.617 19.652-19.508l-.656-37.063c0-15.281 13.102-18.535 21.785-10.895 14.738 12.516 36.52 6.016 37.668-16.742-1.148-22.758-23.422-29.746-37.672-16.742zm0 0" fill="#32b0e2"/><path d="M248.941 328.695c-8.68 7.641-21.293 4.875-21.293-10.238v-36.902c0-10.891-8.68-19.508-19.652-19.508h-48.496l.344.488c12.613 14.633 6.059 36.25-16.867 37.391-22.93-1.141-29.48-22.758-17.523-36.902.273-.309.43-.656.68-.977h-45.723c-10.969 0-20.141 9.266-20.141 19.996v35.762c-.492 14.633-12.613 17.879-21.293 10.238-14.25-11.867-36.031-5.363-37.176 17.395.492 23.242 22.434 29.746 37.176 17.391 8.68-7.641 20.801-4.387 20.801 10.891v35.766c0 10.891 8.68 19.508 19.652 19.508h36.027c15.23 0 18.508 13.004 10.973 21.621-13.102 14.145-6.063 36.246 16.867 37.387 22.926-1.141 29.48-22.758 16.867-37.387-7.859-8.777-4.586-21.785 12.285-22.273h36.031c10.973 0 19.652-8.617 19.652-19.508v-35.766c-.492-14.625 12.609-17.879 21.293-10.238 14.246 11.867 36.031 5.363 37.176-17.391-1.141-22.758-22.926-29.258-37.66-16.742zm0 0" fill="#fdbe4a"/><path d="M260.992 205.797c0 10.891 8.68 19.508 19.652 19.508h48.172c-.25-.32-.406-.668-.68-.977-13.102-14.145-6.063-36.25 16.867-37.387 23.422.488 29.973 22.27 17.523 36.898-.461.461-.754.977-1.145 1.465h46.836c10.973 0 20.145-9.266 20.145-19.992l-1.313-35.113c.492-14.629 12.613-17.879 21.293-10.238 14.25 11.867 36.031 5.363 37.176-17.395-.492-23.242-22.434-29.746-37.176-17.391-8.68 7.641-20.801 4.387-20.801-10.891v-35.762c0-10.891-8.68-19.508-19.652-19.508h-36.027c-15.23 0-18.508-13.004-10.973-21.621 13.105-14.152 6.063-36.254-16.867-37.395-22.926 1.141-29.48 22.758-16.867 37.387 7.695 8.617 4.418 21.621-10.973 21.621h-36.031c-10.973 0-19.652 8.617-19.652 19.508v35.762c.492 14.629-12.613 17.879-21.293 10.238-14.246-11.867-36.027-5.363-37.176 17.391 1.148 22.758 22.93 29.262 37.668 16.746 8.68-7.641 21.293-4.875 21.293 10.238zm0 0" fill="#78af42"/><path d="M383.793 244c0-76.637-62.59-138.762-139.801-138.762-77.211 0-139.801 62.125-139.801 138.762s62.59 138.762 139.801 138.762c77.211 0 139.801-62.125 139.801-138.762zm0 0" fill="#fff"/><g fill="#e85aa0"><path d="M299.145 251.746l-33.148-14.578-17.5 32.297c-1.934 3.559-7.074 3.559-9.008 0l-17.496-32.297-32.797 12.984c-3.453 1.367-5.672 4.383-5.672 7.715v75.602h120.938v-74.156c0-3.203-2.059-6.133-5.316-7.566zm0 0M208.707 185.531v-11.676c0-19.289 15.852-35.023 35.285-35.023 19.434 0 35.285 15.734 35.285 35.023v11.676c0 19.289-15.852 35.023-35.285 35.023-19.434 0-35.285-15.734-35.285-35.023zm0 0"/></g></svg>