<svg xmlns="http://www.w3.org/2000/svg" viewBox="0 0 512 512"><path d="M256 0c-141.385 0-256 114.615-256 256.001 0 53.507 16.426 103.174 44.497 144.252l-33.626 100.876 100.877-33.625c41.078 28.07 90.743 44.496 144.252 44.496 141.385 0 256-114.615 256-255.999 0-141.386-114.615-256.001-256-256.001z" fill="#FFD24D"/><path d="M375.744 332.549c-19.326-19.325-40.026-35.594-40.026-35.594l-30.158 30.159-120.673-120.674 30.159-30.158s-16.268-20.7-35.594-40.026c-19.326-19.325-40.025-35.594-40.025-35.594s-36.137 33.244-38.567 59.61c-3.252 35.293 34.106 99.459 92.758 158.111s122.817 96.01 158.11 92.757c26.367-2.431 59.61-38.566 59.61-38.566s-16.269-20.698-35.594-40.025z" fill="#1B4145"/></svg>