<svg xmlns="http://www.w3.org/2000/svg" viewBox="0 0 35 35"><path d="M25.302 0h-15.604c-1.3 0-2.364 1.063-2.364 2.364v30.271c0 1.301 1.064 2.365 2.364 2.365h15.604c1.3 0 2.364-1.062 2.364-2.364v-30.272c0-1.301-1.064-2.364-2.364-2.364zm-10.298 1.704h4.992c.158 0 .286.128.286.287 0 .158-.128.286-.286.286h-4.992c-.158 0-.286-.128-.286-.286 0-.159.128-.287.286-.287zm2.496 32.114c-.653 0-1.182-.529-1.182-1.183s.529-1.182 1.182-1.182 1.182.528 1.182 1.182-.529 1.183-1.182 1.183zm8.521-3.193h-17.042v-26.876h17.042v26.876z"/></svg>