<svg xmlns="http://www.w3.org/2000/svg" viewBox="0 0 512 512" enable-background="new 0 0 512 512"><path d="M432.274 135.587l-176.274 146.896-165.472-158.853c-39.615 41.234-64.045 97.154-64.045 158.852 0 126.759 102.758 229.518 229.517 229.518s229.517-102.759 229.517-229.517c0-55.899-20.028-107.089-53.243-146.896z" fill="#00D2FF"/><path d="M90.475 123.58l165.525 158.903v-229.517c-65.064 0-123.758 27.118-165.525 70.614z" fill="#9BE6D2"/><path d="M456.815 82.622l.012-.046c-42.101-50.456-105.435-82.576-176.286-82.576v229.517l176.274-146.895z" fill="#C3E678"/><path d="M308.966 476.69c-126.759 0-229.517-102.759-229.517-229.517 0-39.125 9.815-75.948 27.079-108.184l-16-15.359c-39.615 41.234-64.045 97.154-64.045 158.852 0 126.759 102.758 229.518 229.517 229.518 58.449 0 111.763-21.884 152.285-57.86-30.056 14.45-63.741 22.55-99.319 22.55z" fill="#18BDF6"/><path d="M156.452 75.713c-24.787 11.972-47.119 28.228-65.976 47.866l16.051 15.41c12.829-23.957 29.791-45.354 49.925-63.276z" fill="#78D2BE"/></svg>