<svg xmlns="http://www.w3.org/2000/svg" viewBox="0 0 512 512" enable-background="new 0 0 512 512"><path fill="#EFEFEF" d="M119.115 203.041v-202.327h273.763v202.327"/><path fill="#E0E0E0" d="M119.115 203.041v-53.289h273.763v53.289"/><path d="M394.428 438.039h74.344c23.876 0 43.227-19.352 43.227-43.217v-174.686c0-23.865-19.352-43.217-43.227-43.217h-425.555c-23.865 0-43.217 19.352-43.217 43.217v174.686c0 23.865 19.352 43.217 43.217 43.217h74.344" fill="#494F56"/><path d="M39.706 394.822v-174.686c0-23.865 19.352-43.217 43.217-43.217h-39.706c-23.865 0-43.217 19.352-43.217 43.217v174.686c0 23.865 19.352 43.217 43.217 43.217h39.706c-23.865 0-43.217-19.352-43.217-43.217zM388.399 381.719h38.964v-83.592h-342.726v83.592h38.964" fill="#36393D"/><path fill="#EFEFEF" d="M402.286 511.286h-292.578l18.896-176.205h254.785z"/><circle cx="59.559" cy="236.481" r="27.167" fill="#40D39B"/><circle cx="141.061" cy="236.481" r="27.167" fill="#FC6947"/><path d="M357.874 473.148h-203.755c-4.329 0-7.837-3.509-7.837-7.837s3.508-7.837 7.837-7.837h203.755c4.329 0 7.837 3.509 7.837 7.837s-3.508 7.837-7.837 7.837zM352.912 437.621h-193.832c-4.329 0-7.837-3.509-7.837-7.837s3.508-7.837 7.837-7.837h193.832c4.329 0 7.837 3.509 7.837 7.837s-3.508 7.837-7.837 7.837zM348.733 402.094h-185.473c-4.329 0-7.837-3.509-7.837-7.837 0-4.328 3.508-7.837 7.837-7.837h185.473c4.329 0 7.837 3.509 7.837 7.837-.001 4.329-3.508 7.837-7.837 7.837z" fill="#494F56"/></svg>