<svg viewBox="0 0 500 500" xmlns="http://www.w3.org/2000/svg"><path d="M41.699 53.199l6.301-11.5 6.199 11.5 11.5 6.301-11.5 6.301-6.199 11.5-6.301-11.5-11.5-6.301zm0 0M11.5 475.898l6.301-11.5 6.199 11.5 11.5 6.301-11.5 6.301-6.199 11.5-6.301-11.5-11.5-6.301zm0 0M464.898 241.5l6.203-11.5 6.297 11.5 11.5 6.301-11.5 6.301-6.297 11.5-6.203-11.5-11.5-6.301zm0 0" fill="#4ad2fa"/><path d="M261.199 117.199h-170v149.5h241.5v-95.5.301h-71.5zm0 0M332.699 271.699h-241.5c-2.801 0-5-2.199-5-5v-149.5c0-2.801 2.199-5 5-5h170c2.801 0 5 2.199 5 5v49.402h64.801c.5-.203 1.102-.301 1.699-.301 2.801 0 5 2.199 5 5v95.5c0 2.699-2.199 4.898-5 4.898zm-236.5-10h231.5v-85.199h-66.5c-2.801 0-5-2.199-5-5v-49.398h-160zm0 0" fill="#0185d0"/><path d="M385.801 266.699h-332.602c-8.301 0-26-2.398-26 6v142.102c0 13.699 11.199 24.898 24.801 24.898h39.199v24.699h234.102v-24.699h61.699c8.301 0 4.699-16.598 4.699-24.898v-142.102c.102-3.301-2.598-6-5.898-6zm0 0M325.398 469.398h-234.098c-2.801 0-5-2.199-5-5v-19.699h-34.301c-16.5 0-29.801-13.398-29.801-29.898v-142.102c0-2.699 1-5.199 3-7 5-4.801 14.801-4.398 23.5-4.098 1.699.098 3.301.098 4.602.098h332.598c2.902 0 5.703 1.102 7.801 3.199 2.102 2.102 3.199 4.801 3.199 7.801v142.102c0 1.598.203 3.801.301 6 .602 8 1.301 16.301-3 20.898-1.801 1.902-4.199 3-7 3h-56.699v19.699c-.102 2.801-2.398 5-5.102 5zm-229.098-10h224.098v-19.699c0-2.801 2.203-5 5-5h61.5c1.102-2.098.5-9.5.301-13.098-.199-2.402-.398-4.801-.398-6.801v-142.102c0-.398-.199-.598-.301-.699-.199-.199-.398-.301-.699-.301h-332.602c-1.5 0-3.199-.098-5-.098-3.801-.203-14-.602-16 1.199v142c0 11 8.902 19.898 19.801 19.898h39.199c2.801 0 5 2.199 5 5v19.699zm0 0" fill="#4ad2fa"/><path d="M91.301 414.602h234.098v49.797h-234.098zm0 0M325.398 469.398h-234.098c-2.801 0-5-2.199-5-5v-49.797c0-2.801 2.199-5 5-5h234.098c2.801 0 5 2.199 5 5v49.797c0 2.703-2.297 5-5 5zm-229.098-10h224.098v-39.797h-224.098zm0 0" fill="#0185d0"/><path d="M117.102 302.602h-32c-2.801 0-5-2.203-5-5 0-2.801 2.199-5 5-5h32c2.797 0 5 2.199 5 5 0 2.797-2.301 5-5 5zm0 0" fill="#e1f8fe"/><g fill="#95c6ff"><path d="M261.5 117.398l72 53.5-72-.297zm0 0M333.5 175.898l-72-.297c-2.801 0-5-2.203-5-5v-53.301c0-1.902 1.102-3.602 2.801-4.5 1.699-.801 3.699-.699 5.199.5l72 53.598c1.699 1.301 2.398 3.5 1.801 5.602-.801 2.102-2.699 3.398-4.801 3.398zm-67-10.199l51.801.199-51.801-38.598zm0 0M434.398 123.801h-10c0-26.5-21.5-48-47.797-48v-10c31.797 0 57.797 26.098 57.797 58zm0 0M466.301 123.801h-10c0-44.199-35.902-80.199-79.902-80.199v-10c49.602.098 89.902 40.5 89.902 90.199zm0 0M500 125.398h-10c0-63.598-51.602-115.398-115.102-115.398v-10c69 0 125.102 56.301 125.102 125.398zm0 0M388 119.301c-5.398 0-9.801-4.402-9.801-9.801s4.402-9.801 9.801-9.801 9.801 4.402 9.801 9.801-4.402 9.801-9.801 9.801zm0 0M388 119.801c-5.699 0-10.301-4.602-10.301-10.301s4.602-10.301 10.301-10.301 10.301 4.602 10.301 10.301-4.699 10.301-10.301 10.301zm0-19.602c-5.102 0-9.301 4.199-9.301 9.301s4.199 9.301 9.301 9.301 9.301-4.199 9.301-9.301-4.199-9.301-9.301-9.301zm0 0"/></g></svg>