<svg xmlns="http://www.w3.org/2000/svg" viewBox="0 0 487.406 487.406"><path d="M459.009 322.009c1.598 2.446 3.161 5.804 3.161 9.606 0 2.209 1.791 4 4 4s4-1.791 4-4c0-8.455-4.867-15.017-7.535-17.981l.089-.694c.607-6.097-2.285-12.022-7.226-15.645l-8.218-6.027c-2.251-5.791-6.847-10.22-12.786-12.26-6.367-2.189-13.21-1.26-18.768 2.548l-14.049 9.629-.1.071c-3.506 2.564-7.386 4.511-11.534 5.787-9.055 2.788-18.695.848-25.78-5.187-14.784-12.591-34.93-17.638-53.893-13.506-3.144.687-6.463-.156-8.999-2.302-3.929-3.325-4.679-9.055-2.228-13.581 7.72-14.258 9.888-30.837 6.103-46.734-2.52-10.585-7.568-20.231-14.619-28.246.619-16.83 17.624-27.426 23.656-30.661.943-.506 1.971-.815 3.031-.966l.015-.002c8.024-1.148 15.556 3.912 17.539 11.764l3.639 14.415c3.337 13.219 14.022 23.506 27.462 25.792 2.035.346 4.051.515 6.039.515 11.913 0 22.74-6.078 29.063-16.615l4.988-8.314c1.776-2.961 2.006-6.688.319-9.701-.884-1.577-2.175-2.815-3.687-3.642.623-4.324-.49-8.687-3.202-12.247-3.127-4.106-8.094-6.407-13.255-6.472-5.63-.071-10.876-3.383-13.263-8.815-1.101-2.505-1.394-5.293-1.051-8.008l1.896-14.999 5.451-.427c5.607 6.853 13.43 11.309 22.275 12.62 1.525.226 3.046.333 4.56.365.517 2.783.698 7.466-2.313 12.025-1.152 1.745-.81 4.178.849 5.449.733.562 1.589.83 2.435.83 1.293 0 2.562-.625 3.332-1.782 4.262-6.394 4.331-12.939 3.668-17.242 5.141-1.076 10.018-3.303 14.323-6.604l2.469-1.892c1.589.34 3.119.477 4.596.473.458 4.44.385 12.069-4.692 15.718-1.661 1.194-2.302 3.456-1.321 5.25.745 1.361 2.121 2.095 3.522 2.095.792 0 1.592-.235 2.29-.724 8.942-6.26 8.82-18 8.076-23.989 4.725-2.089 8.343-5.911 10.412-10.139 3.83-7.829 3.376-18.959-6.272-26.175-12.644-9.457-26.323-14.784-31.812-16.694-2.274-12.401-11.624-22.596-23.962-25.81l-75.373-19.628-27.198-22.341c-1.364-1.12-3.322-1.229-4.831-.192-1.055.725-1.643 1.961-1.711 3.239l-1.744 33.144-34.244-6.146c-.997-.179-2.05-.043-2.911.49-1.697 1.051-2.324 3.081-1.669 4.828.155.415 3.869 10.278 9.254 21.047l.396.777-10.301 6.035-14.94-12.571c-1.444-4.899-5.062-8.782-9.92-10.569-5.499-2.023-11.677-.758-16.204 2.961l-9.911 8.142c-4.493-1.702-9.462-1.655-13.996.193-5.339 2.177-9.339 6.576-10.975 12.07-2.64 8.864-6.201 16.608-10.586 23.018-5.409 7.905-25.706 20.098-57.153 34.333-19.302 8.737-29.994 29.099-26.394 49.896l-18.021 32.439c-2.921 5.257-3.386 11.629-.895 17.103 2.824 6.205 8.682 10.301 15.402 10.863 4.513.377 7.613.618 9.763.774-6.13 26.943-5.024 54.772 3.215 81.059-17.221 4.316-38.763 13.655-51.806 33.865-12.005 18.602-14.799 43.175-8.303 73.039 5.644 25.937 19 44.589 39.698 55.439 14.3 7.496 32.103 11.223 53.074 11.222 36.048-.001 81.444-11.018 134.402-32.845 6.931-2.848 15.284-6.715 24.128-10.809 10.889-5.041 23.098-10.687 35.689-15.871 5.61 15.994 20.456 39.499 59.61 46.028 5.923.988 11.887 1.476 17.79 1.476 13.23 0 26.149-2.453 37.549-7.233 18.205-7.576 31.747-20.375 39.163-37.012 8.168-18.323 8.358-40.782.552-64.947-2.642-8.185-6.428-15.828-11.263-22.773.979-1.284 1.83-2.672 2.492-4.173 1.913-4.337 2.334-9.031 1.268-13.519 1.614-1.004 3.031-2.264 4.211-3.72zm-72.588-162.654c2.689 0 5.153 1.237 6.761 3.393 1.386 1.86 1.93 4.134 1.562 6.378l-18.192 1.161c-6.594.42-12.267-4.378-12.974-10.921l-.887-8.197c-1.027-9.513-7.934-17.551-17.185-20-3.334-.883-5.85-3.273-6.9-6.558s-.391-6.691 1.813-9.346l.778-.937c4.741 4.066 10.799 6.337 17.105 6.337.685 0 1.372-.027 2.061-.081l5.311-.416-1.731 13.688c-.814 6.45 1.184 12.947 5.483 17.824 4.299 4.878 10.493 7.675 16.995 7.675zm-14.771-66.218c.416.061.833.091 1.25.091 1.937 0 3.846-.65 5.381-1.859 1.865-1.468 3.06-3.666 3.276-6.028l.035-.377c.636.134 1.273.256 1.912.355l-3.094 5.47c-3.122 5.519-9.376 8.29-15.563 6.892-7.592-1.714-12.44-9.3-10.81-16.91l1.374-6.408c2.822.84 5.612 1.903 8.343 3.21l1.187.568-.65 5.361c-.572 4.712 2.661 8.945 7.359 9.635zm.582-8.673l.324-2.677.877.42.364.158-.207 2.245c-.022.242-.152.391-.257.474-.105.083-.28.175-.521.139-.37-.056-.625-.389-.58-.759zm70.457 7.327c.993.743 1.807 1.543 2.495 2.374-4.936 1.077-10.081.814-14.856-.763l9.977-3.329c.798.557 1.594 1.127 2.384 1.718zm-11.204-7.209l-12.726 4.246c-1.47.49-2.523 1.785-2.706 3.322-.184 1.538.538 3.043 1.852 3.864l2.141 1.338c5.794 3.621 12.455 5.469 19.145 5.469 2.95 0 5.905-.366 8.794-1.091.036 2.299-.533 4.505-1.418 6.314-2.165 4.427-7.375 8.861-14.928 6.786l-.391-.113c-1.258-.419-2.644-.188-3.698.62l-4.018 3.08c-5.975 4.581-13.367 6.499-20.815 5.393-7.448-1.103-13.968-5.079-18.358-11.195l-6.396-8.908c3.854-1.929 7.156-4.994 9.411-8.981l5.201-9.193c7.518-.773 14.745-3.913 20.542-9.252 3.44 1.211 10.515 3.932 18.368 8.301zm-141.315-72.467l14.023 11.519c-6.249 1.293-11.266 3.954-14.977 6.607l.954-18.126zm-210.633 212.788c-2.092-.142-5.5-.4-11.094-.867-3.659-.305-6.749-2.339-8.479-5.579-1.729-3.239-1.697-6.935.085-10.143l18.938-34.088c.464-.836.613-1.812.421-2.749-3.628-17.619 5.244-35.087 21.575-42.479 33.712-15.26 54.052-27.744 60.457-37.104 4.854-7.095 8.773-15.591 11.651-25.252.939-3.158 3.246-5.689 6.327-6.945 1.098-.448 2.241-.703 3.389-.79-2.454 3.422-4.064 8.089-2.561 13.728.478 1.789 2.095 2.97 3.862 2.97.342 0 .688-.044 1.033-.136 2.135-.569 3.404-2.761 2.835-4.896-.18-.671-1.563-6.665 4.938-10.287l.048-.033c.2-.113.394-.239.575-.388l.039-.032.006-.005 12.142-9.974c2.242-1.841 5.21-2.358 7.943-1.383 2.218.792 3.919 2.452 4.791 4.567-2.648 3.757-7.214 11.125-6.545 16.468.253 2.024 1.976 3.504 3.964 3.504.165 0 .333-.01.501-.031 2.192-.274 3.747-2.273 3.473-4.465-.194-1.555 1.588-5.306 3.804-8.831l10.387 8.74-16.698 9.783c-15.203 8.905-28.719 20.067-40.195 32.954l-.005-.007-43.18 33.35c-26.608 20.554-45.378 48.3-54.427 80.4zm90.385 99.16c6.352 8.19 12.316 16.793 17.768 25.62-1.288.74-2.574 1.468-3.876 2.191l-.004.003-.005.002c-21.137 11.804-40.178 19.137-56.657 21.844-.38-.387-.765-.775-1.17-1.166-14.497-14.156-25.713-30.739-33.334-49.285-1.04-2.538-2.037-5.175-2.96-7.828-9.496-27.538-10.624-57.058-3.261-85.37 8.238-31.708 26.37-59.109 52.435-79.24l20.706-15.992c-10.363 16.889-17.754 35.664-21.591 55.549-9.081 47.072 2.564 95.793 31.949 133.672zm-52.966 50.749c-17.316.732-30.093-4.824-34.906-15.508-3.921-8.704-1.646-19.257 5.558-27.568 7.257 15.909 17.097 30.358 29.348 43.076zm251.609 91.206c-35.445-5.91-48.615-26.989-53.494-41.127 30.092-11.786 70.813-23.884 93.122-4.39 10.651 9.324 13.816 23.118 9.467 40.999-14.738 5.741-32.08 7.356-49.095 4.518zm85.879-38.135c-5.559 12.471-15.077 22.518-27.743 29.426 2.992-18.12-1.443-32.503-13.241-42.83-26.484-23.141-72.496-8.601-104.805 4.347-14.193 5.688-27.939 12.051-40.067 17.666-8.762 4.057-17.038 7.888-23.812 10.671-52.119 21.481-96.455 32.328-131.255 32.326-19.626 0-36.224-3.452-49.463-10.392-18.503-9.699-30.479-26.54-35.596-50.054-6.026-27.709-3.602-50.251 7.208-67 11.81-18.3 31.812-26.726 47.679-30.606.282.757.57 1.502.861 2.249-11.331 10.944-15.15 26.257-9.454 38.903 5.89 13.075 20.171 20.286 39.262 20.286 3.895 0 7.991-.301 12.255-.913 17.903-2.562 38.568-10.332 61.423-23.095h.001l.004-.002.005-.003h.001c2.743-1.523 5.418-3.061 8.179-4.705 13.985-8.337 28.225-15.69 42.4-21.919 1.347 3.825 4.279 6.991 8.143 8.562 34.51 14.037 73.296 12.305 106.416-4.758 8.339-4.296 18.188-4.096 26.346.534l6.23 3.537c10.908 6.19 24.313 6.962 35.859 2.064 2.767-1.171 5.958-.325 7.854 2.342.311.437.521.921.688 1.42l-11.285 7.654c-1.828 1.24-2.306 3.728-1.065 5.556.773 1.141 2.032 1.755 3.314 1.755.772 0 1.554-.224 2.241-.69l12.038-7.195c.157-.039.315-.073.469-.131l5.619-2.138c1.361-.518 2.666-1.161 3.895-1.915 4.107 6.07 7.35 12.715 9.642 19.816 7.189 22.258 7.104 42.74-.246 59.232zm.252-115.204c-.418 2.667-1.914 4.877-4.111 6.237-2.082-1.603-5.401-3.559-9.171-3.515-3.045.031-5.826 1.349-8.043 3.813-1.478 1.642-1.344 4.171.298 5.649 1.643 1.477 4.171 1.346 5.649-.297.915-1.017 1.637-1.156 2.164-1.164h.043c1.687 0 3.797 1.467 4.96 2.506 1.211 3.21 1.166 6.687-.173 9.877-1.431 3.41-4.123 6.012-7.579 7.327l-1.258.479c-.905-2.79-2.667-5.267-5.138-7.096-4.139-3.063-9.439-3.691-14.183-1.681-9.267 3.932-20.027 3.313-28.785-1.657l-6.23-3.537c-10.515-5.968-23.211-6.226-33.959-.688-31.039 15.99-67.394 17.616-99.738 4.459-2.296-.934-3.852-3.137-3.964-5.614l-.255-5.592c-.975-21.433-8.053-42.01-20.47-59.507-15.24-21.475-19.367-49.211-11.04-74.193.698-2.096-.435-4.361-2.53-5.06-2.093-.694-4.36.434-5.06 2.53-9.13 27.393-4.604 57.805 12.106 81.353 11.526 16.242 18.097 35.344 19.001 55.241l.064 1.4c-14.265 6.156-28.6 13.439-42.698 21.695-5.628-9.125-11.789-18.02-18.354-26.483-27.974-36.06-39.06-82.442-30.415-127.253 8.645-44.808 36.186-83.733 75.563-106.797l34.05-19.949c5.96 10.485 11.401 16.778 16.531 19.145 2.004.926 4.383.049 5.308-1.956.926-2.006.05-4.382-1.956-5.308-6.198-2.861-14.378-17.378-20.451-30.722l15.547 11.146c3.715 2.663 5.647 7.133 5.044 11.664-.292 2.189 1.247 4.201 3.437 4.493.179.024.357.036.533.036 1.975 0 3.692-1.461 3.96-3.472.995-7.467-2.189-14.833-8.312-19.223l-12.597-9.031 21.399 3.841.002.001c1.872.339 2.634 1.215 3.043 1.844 1.734 2.66 1.069 7.637.703 9.158-.531 2.144.776 4.313 2.92 4.845.323.08.647.119.966.119 1.796 0 3.428-1.218 3.88-3.039.233-.941 2.167-9.372-1.743-15.416-.917-1.417-2.087-2.586-3.468-3.487 3.702-3.533 11.828-9.552 23.691-8.918l75.812 19.743c9.37 2.44 16.457 10.211 18.131 19.647-8.338 7.77-20.533 9.704-30.933 4.722l-9.68-4.635c-25.564-12.242-55.551-6.375-74.614 14.597-1.076 1.184-1.343 2.895-.679 4.35s2.123 2.365 3.731 2.339c.195-.004 19.122-.367 28.348 5.399.659.412 1.393.608 2.116.608 1.334 0 2.638-.667 3.396-1.88 1.171-1.874.602-4.341-1.271-5.512-6.413-4.008-15.868-5.602-22.981-6.229 12.07-9.573 27.356-13.596 42.345-11.396l-1.385 6.459c-2.546 11.876 5.021 23.715 16.87 26.391 1.667.376 3.338.559 4.986.559.56 0 1.116-.027 1.67-.068l3.979 5.541-13.982 1.095c-5.41.426-10.695-1.574-14.464-5.4-.419-.426-1.561-1.75-1.77-1.924-1.7-1.411-4.221-1.177-5.633.523l-3.608 4.347c-3.923 4.727-5.147 11.042-3.275 16.893s6.534 10.282 12.473 11.854c6.071 1.607 10.604 6.882 11.278 13.126l.887 8.197c1.169 10.812 10.587 18.747 21.437 18.044l21.054-1.344c.73-.038 1.099.392 1.259.656.161.265.376.8.005 1.42l-5.167 8.612c-5.544 9.24-15.606 14.005-26.271 12.429-10.66-1.574-18.921-9.042-21.559-19.49l-3.759-14.89c-2.986-11.832-14.357-19.452-26.426-17.726-16.569 2.369-32.771-6.713-39.399-22.081l-9.437-21.875c-.875-2.028-3.229-2.963-5.257-2.088-2.029.875-2.964 3.229-2.089 5.257l9.437 21.875c5.935 13.759 18.191 23.359 32.279 26.316-1.2.895-2.432 1.868-3.667 2.936-7.667 6.63-12.59 14.219-14.531 22.275-1.878-1.579-3.841-3.073-5.907-4.45l-16.698-11.132c-1.836-1.225-4.321-.728-5.547 1.109-1.226 1.838-.729 4.321 1.109 5.547l16.698 11.132c12.251 8.167 20.871 20.535 24.274 34.826 3.357 14.102 1.391 28.806-5.536 41.403-4.428 8.051-2.231 18.297 5.108 23.832 4.331 3.267 9.811 4.487 15.04 3.346 16.535-3.606 34.106.798 47 11.781 9.178 7.817 21.633 10.335 33.32 6.742 4.981-1.532 9.642-3.867 13.854-6.94l13.999-9.594c3.448-2.362 7.692-2.939 11.646-1.581 2.592.89 4.759 2.524 6.31 4.66-4.005.176-8.505 1.409-12.792 4.837-1.725 1.38-2.005 3.897-.625 5.622.791.988 1.953 1.501 3.127 1.501.876 0 1.758-.287 2.496-.876 6.93-5.545 15.023-2.109 16.475-1.418l4.228 3.101c2.779 2.034 4.117 5.278 3.584 8.677z"/></svg>