<svg xmlns="http://www.w3.org/2000/svg" viewBox="0 0 512 512" enable-background="new 0 0 512 512"><path d="M141.938 324.965l-130.119 159.058c-3.387 4.146-3.517 10.24 0 14.535 4.002 4.918 11.247 5.646 16.147 1.625l159.107-130.131c-8.13-7.24-15.955-14.598-23.244-21.893-7.63-7.626-14.92-15.401-21.891-23.194zM447.89 64.1c-44.49-44.502-94.756-66.346-112.309-48.846-.903.908-92.757 126.197-138.796 188.98-30.166-21.5-57.219-34.082-74.656-34.068-6.374 0-11.485 1.662-14.971 5.18-19.197 19.164 16.646 86.076 80.028 149.459 51.797 51.797 105.971 85.223 134.488 85.223 6.387 0 11.472-1.68 14.971-5.178 13.084-13.084.548-48.41-28.858-89.658 62.802-46.043 188.047-137.893 188.932-138.781 17.535-17.518-4.339-67.804-48.829-112.311z"/></svg>