<svg xmlns="http://www.w3.org/2000/svg" viewBox="0 0 512 512" enable-background="new 0 0 512 512"><circle cx="256" cy="160.28" r="147.28" fill="#43A3F9"/><circle cx="147.28" cy="351.72" r="147.28" fill="#FC3E81"/><path d="M286.755 304.338c-9.919 2.108-20.204 3.218-30.755 3.218-64.761 0-119.758-41.794-139.473-99.887 9.919-2.108 20.204-3.218 30.755-3.218 64.76 0 119.757 41.806 139.473 99.887z" fill="#4C60E1"/><circle cx="364.72" cy="351.72" r="147.28" fill="#FDB659"/><path d="M294.555 351.724c0 38.288-14.612 73.159-38.555 99.343-23.943-26.184-38.555-61.055-38.555-99.343s14.612-73.159 38.555-99.343c23.943 26.184 38.555 61.055 38.555 99.343z" fill="#FD8724"/><path d="M395.473 207.669c-19.716 58.092-74.713 99.887-139.473 99.887-10.551 0-20.836-1.109-30.755-3.218 19.715-58.081 74.713-99.887 139.473-99.887 10.551 0 20.836 1.11 30.755 3.218z" fill="#5BE167"/><path d="M286.755 304.338c-9.919 2.108-20.204 3.218-30.755 3.218s-20.836-1.109-30.755-3.218c6.601-19.471 17.175-37.112 30.755-51.957 13.58 14.845 24.153 32.485 30.755 51.957z" fill="#385F82"/><path d="M236.025 129.759h-44.981c-4.267 0-7.726-3.459-7.726-7.726s3.459-7.726 7.726-7.726h44.981c4.267 0 7.726 3.459 7.726 7.726 0 4.267-3.459 7.726-7.726 7.726zM201.8 106.291h-10.757c-4.267 0-7.726-3.459-7.726-7.726s3.459-7.726 7.726-7.726h10.757c4.267 0 7.726 3.459 7.726 7.726 0 4.266-3.459 7.726-7.726 7.726zM243.848 147.361h-52.804c-4.267 0-7.726-3.459-7.726-7.726s3.459-7.726 7.726-7.726h52.804c4.267 0 7.726 3.459 7.726 7.726s-3.459 7.726-7.726 7.726zM89.346 356.072h-44.982c-4.267 0-7.726-3.459-7.726-7.726s3.459-7.726 7.726-7.726h44.982c4.267 0 7.726 3.459 7.726 7.726 0 4.267-3.459 7.726-7.726 7.726zM55.12 332.604h-10.756c-4.267 0-7.726-3.459-7.726-7.726s3.459-7.726 7.726-7.726h10.756c4.267 0 7.726 3.459 7.726 7.726.001 4.266-3.459 7.726-7.726 7.726zM97.169 373.674h-52.805c-4.267 0-7.726-3.459-7.726-7.726s3.459-7.726 7.726-7.726h52.805c4.267 0 7.726 3.459 7.726 7.726s-3.459 7.726-7.726 7.726zM383.303 356.072h-44.981c-4.267 0-7.726-3.459-7.726-7.726s3.459-7.726 7.726-7.726h44.981c4.267 0 7.726 3.459 7.726 7.726 0 4.267-3.459 7.726-7.726 7.726zM349.077 332.604h-10.756c-4.267 0-7.726-3.459-7.726-7.726s3.459-7.726 7.726-7.726h10.756c4.267 0 7.726 3.459 7.726 7.726.001 4.266-3.458 7.726-7.726 7.726zM391.126 373.674h-52.804c-4.267 0-7.726-3.459-7.726-7.726s3.459-7.726 7.726-7.726h52.804c4.267 0 7.726 3.459 7.726 7.726 0 4.267-3.459 7.726-7.726 7.726z" fill="#E3F4FF"/></svg>