<svg viewBox="-29 0 511 512" xmlns="http://www.w3.org/2000/svg"><path d="M366.168 0h-138.914l-20.02 235.668 20.02 276.332c136.426-51.363 226.75-181.883 226.75-327.656v-96.508c-43.254-10.551-77.285-44.582-87.836-87.836zm0 0" fill="#ff4a4a"/><path d="M88.336 0c-10.551 43.254-44.582 77.285-87.836 87.836v96.508c0 145.773 90.324 276.293 226.754 327.656v-512zm0 0" fill="#ff9f22"/><path d="M352.66 101.344c-11.262-11.266-20.949-23.867-28.879-37.477h-96.527l-20.02 147.801 20.02 230.988c44.996-21.434 83.398-54.074 112.016-95.422 33.277-48.086 50.867-104.414 50.867-162.891v-54.121c-13.609-7.926-26.211-17.617-37.477-28.879zm0 0" fill="#b4d2d7"/><path d="M130.723 63.867c-7.926 13.609-17.617 26.215-28.879 37.477s-23.867 20.953-37.477 28.879v54.121c0 58.477 17.59 114.805 50.867 162.891 28.617 41.348 67.02 73.988 112.02 95.422v-378.789zm0 0" fill="#e1ebf0"/><path d="M212.254 251.875h30v71.547h-30zm0 0M227.254 167.668l-20.02 49.602 20.02 49.605c27.348 0 49.602-22.254 49.602-49.605 0-27.348-22.254-49.602-49.602-49.602zm0 0" fill="#03232e"/><path d="M177.648 217.27c0 27.352 22.254 49.602 49.605 49.602v-99.207c-27.352.004-49.605 22.254-49.605 49.605zm0 0" fill="#07485e"/></svg>