<svg viewBox="-9 1 511 511.99902" xmlns="http://www.w3.org/2000/svg"><path d="M422.609 263.809c18.016.195 37.238-7.645 50.121-20.523 28.672-28.68 28.625-75.391-.113-104.129-25.754-25.754-64.008-27.945-97.449-5.586-7.543 5.039-16.352 5.02-21.426-.051-1.574-1.574-6.359-6.359-2.832-21.176 3.621-15.184 1.426-31.934-6.348-48.449-6.984-14.848-16.797-26.305-23.793-33.305-19.688-19.684-45.879-30.551-73.75-30.59h-.156c-27.828 0-53.949 10.797-73.563 30.41-24.523 24.523-35.457 57.832-29.25 89.09.871 4.402-.496 9.176-3.484 12.164-4.594 4.59-12.426 4.996-22.652 1.172-8.469-3.168-34.242-12.805-52.828 5.785-9 9-13.746 22.164-12.691 35.219.859 10.594 6.273 20.805 14.488 27.316 6.566 5.211 12.414 7.992 17.113 10.223l2.086 1c5.555 2.707 9.57 4.66 14.203 9.004 8.148 7.637 12.734 17.953 12.91 29.055.172 10.465-3.809 20.547-10.922 27.66-6.309 6.309-13.582 9.938-23.586 11.777-2.059.379-4.141.742-6.242 1.102-16.707 2.879-35.648 6.141-50.457 20.953-13.891 13.891-21.523 32.391-21.488 52.094.035 19.66 7.707 38.137 21.602 52.031 13.84 13.836 32.125 21.633 51.492 21.941 19.551.305 37.816-7.012 51.434-20.629l.816-.832c3.258-3.375 8.688-9.262 11.273-12.32 1.383-1.637 2.855-3.238 4.371-4.754 14.598-14.598 33.016-21.262 49.266-17.832 10.082 2.129 23.871 9.258 32.355 31.199l.34.859c8.125 21.039 19.254 49.848 37.121 67.715 19.684 19.684 45.863 30.551 73.723 30.598h.18c27.828 0 53.953-10.805 73.57-30.422 19.805-19.805 30.922-45.41 31.305-72.098.391-26.988-10.191-52.691-29.793-72.371l-.582-.57c-8.078-7.805-14.039-13.648-15.965-15.664-11.688-12.16-10.371-32.875 2.934-46.18 7.523-7.52 15.98-11.004 26.668-10.887zm0 0"/></svg>