<svg xmlns="http://www.w3.org/2000/svg" viewBox="0 0 512 512"><path d="M454.889 430.401l-8.412-3.373c42.303-47.058 65.523-107.502 65.523-171.028 0-51.971-15.712-101.977-44.339-144.014-.347-.683-.777-1.298-1.277-1.835-12.541-18.075-27.47-34.653-44.602-49.226-3.401-2.893-8.502-2.481-11.395.92-2.893 3.401-2.481 8.504.919 11.396 13.744 11.691 25.977 24.759 36.589 38.902-17.112 6.688-37.652 12.352-60.582 16.827-6.33-18.86-14.11-36.444-23.256-52.309-12.327-21.385-26.506-38.605-41.959-51.27 24.051 6.876 46.962 17.53 67.987 31.733 3.7 2.497 8.724 1.526 11.224-2.174 2.499-3.699 1.526-8.724-2.174-11.224-42.339-28.606-91.835-43.726-143.135-43.726-68.381 0-132.667 26.628-181.018 74.982-48.354 48.351-74.982 112.639-74.982 181.018 0 63.608 23.252 124.06 65.624 171.135l-8.306 3.253c-3.059 1.105-29.07 11.48-29.07 44.553v28.967c0 4.466 3.618 8.092 8.084 8.092h118.994c.39 0 .771-.037 1.146-.091.376.054.756.091 1.146.091h32.894c4.466 0 8.084-3.618 8.084-8.084 0-4.466-3.619-8.084-8.084-8.084h-24.81v-28.155c0-29.704 23.332-38.248 24.274-38.58l.373-.136 39.368-15.418.255.276 20.922 20.378c1.511 1.47 3.536 2.293 5.641 2.293l.127-.001c2.151-.033 4.202-.924 5.693-2.474l20.089-20.844 39.315 15.766.383.142c.993.349 24.328 8.896 24.328 38.598v28.155h-130.692c-4.466 0-8.084 3.619-8.084 8.084 0 4.466 3.619 8.084 8.084 8.084h260.061c4.466 0 8.084-3.676 8.084-8.141v-28.918c.002-32.946-25.813-43.369-29.034-44.54zm-24.461-9.809l-7.969-3.196v-4.6c8.807-5.165 15.576-13.438 18.792-23.306 11.761-.929 21.051-10.776 21.051-22.771 0-7.134-3.288-13.51-8.423-17.708v-14.368c0-27.702-20.788-50.625-47.58-54.027.305-5.481.516-11.003.618-16.532h88.765c-1.943 58.517-24.929 113.79-65.254 156.508zm-29.186-18.199h-7.373c-14.285 0-25.906-11.621-25.906-25.904v-21.39c10.531-1.143 29.184-4.824 43.555-16.826 3.219 5.521 8.2 11.492 15.63 14.979v23.236c-.001 14.284-11.622 25.905-25.906 25.905zm5.05 15.854v4.482l-9.008 9.346-8.464-8.243v-5.586c1.657.199 3.34.314 5.05.314h7.373c1.71.001 3.391-.114 5.049-.313zm-46.387-78.791h-.027c-.278 0-.554.015-.825.042l-.259.039-.542.083-.359.092-.414.107-.258.094v-5.269c0-21.126 17.187-38.312 38.313-38.312h3.866c21.125 0 38.309 17.186 38.309 38.312v5.203l-.462-.126-.223-.064c-11.27-2.563-14.956-17.604-14.983-17.718-.701-3.098-3.152-5.498-6.265-6.134-3.113-.638-6.308.608-8.17 3.182-14.639 20.237-47.273 20.469-47.701 20.469zm83.41 32.711v-10.894c1.702 1.215 2.818 3.202 2.818 5.448s-1.116 4.231-2.818 5.446zm14.068-246.419c23.417 36.176 36.826 78.29 38.297 122.167h-88.767c-.656-36.389-5.741-71.486-14.808-103.449 24.855-4.937 47.016-11.246 65.278-18.718zm-66.64 122.169h-82.766c-11.029-12.192-26.533-20.247-43.893-21.587v-69.52c39.671-.395 77.954-3.694 112.062-9.427 8.925 30.912 13.934 65.046 14.597 100.534zm-71.313 84.418c0 4.755-3.212 8.764-7.579 9.997v-19.997c4.367 1.235 7.579 5.245 7.579 10zm-55.346-315.718c32.171 3.436 62.439 27.306 85.965 68.118 8.256 14.321 15.345 30.143 21.189 47.115-32.594 5.337-69.173 8.409-107.155 8.79v-124.023zm-5.127 225.663c27.537 0 49.939 22.404 49.939 49.942v9.879l-.166-.124-.359-.267-.291-.189-.367-.223-.352-.181-.341-.165-.434-.17-.303-.111-.498-.14-.223-.064c-15.357-3.492-20.222-23.515-20.263-23.689-.701-3.098-3.152-5.498-6.265-6.134-3.112-.64-6.308.608-8.17 3.182-18.931 26.172-60.75 26.44-61.302 26.44h-.031c-.278 0-.554.014-.825.041l-.252.039-.549.083-.342.088-.431.111-.385.141-.355.129-.43.206-.275.133-.422.254-.244.149-.379.282-.244.182-.216.194v-10.077c0-27.538 22.402-49.941 49.939-49.941h4.836zm-137.7 5.636c.663-35.494 5.674-69.635 14.601-100.55 34.156 5.741 72.48 9.047 112.058 9.445v69.602c-16.947 1.587-32.054 9.589-42.859 21.557-.294-.032-.593-.053-.896-.053h-82.904zm80.19 74.336v20.166c-4.533-1.121-7.906-5.209-7.906-10.083-.001-4.873 3.373-8.961 7.906-10.083zm46.469-305.635v124.023c-37.892-.384-74.5-3.468-107.146-8.815 5.843-16.962 12.929-32.774 21.181-47.09 23.526-40.812 53.794-64.682 85.965-68.118zm-58.103 8.845c-15.418 12.66-29.567 29.853-41.871 51.198-9.143 15.861-16.92 33.437-23.249 52.292-22.901-4.469-43.408-10.12-60.488-16.782 30.962-41.185 74.862-72.116 125.608-86.708zm-135.123 100.324c18.216 7.444 40.381 13.729 65.212 18.661-9.073 31.967-14.158 67.072-14.816 103.469h-88.766c1.495-44.906 15.39-86.723 38.37-122.13zm52.093 292.462c1.657.199 3.34.313 5.05.313h7.374c1.708 0 3.391-.114 5.047-.314v4.481l-9.006 9.346-8.465-8.243v-5.583zm12.424-15.855h-7.374c-14.285 0-25.906-11.621-25.906-25.905v-21.38c10.529-1.139 29.175-4.826 43.555-16.835 3.22 5.522 8.2 11.494 15.629 14.981v23.235c-.001 14.283-11.621 25.904-25.904 25.904zm20.801-80.455c-.701-3.098-3.152-5.498-6.265-6.134-3.113-.638-6.309.608-8.169 3.182-14.65 20.249-47.31 20.471-47.704 20.471h-.027c-.278 0-.554.014-.825.041l-.252.039-.549.083-.342.088-.431.111-.255.094v-5.269c0-21.126 17.186-38.313 38.312-38.313h3.867c21.125 0 38.309 17.187 38.309 38.313v5.204h-.002l-.474-.13-.212-.06c-11.268-2.563-14.954-17.607-14.981-17.72zm-123.689-57.854h88.765c.101 5.568.316 11.129.623 16.645-26.361 3.791-46.689 26.519-46.689 53.914v14.305c-5.185 4.196-8.51 10.6-8.51 17.771 0 12.084 9.433 21.983 21.32 22.785 3.216 9.862 9.982 18.128 18.786 23.292v4.553l-8.831 3.458c-40.461-42.751-63.52-98.08-65.464-156.723zm53.438 97.009v11.252c-1.85-1.192-3.081-3.266-3.081-5.624 0-2.36 1.231-4.434 3.081-5.628zm79.775 106.585v28.154h-105.115v-20.891c0-22.539 17.62-29.071 18.305-29.314l.373-.136 30.491-11.941 16.202 15.78c1.51 1.471 3.534 2.293 5.64 2.293l.128-.001c2.151-.033 4.201-.924 5.692-2.474l15.304-15.882 18.917 7.585c-3.587 7.341-5.937 16.232-5.937 26.827zm77.998-70.642l-42.908 16.803c-5.464 1.88-13.026 6.217-19.734 13.369l-24.467-9.812v-4.598c8.809-5.166 15.577-13.439 18.793-23.308 11.762-.929 21.053-10.776 21.053-22.771 0-7.134-3.289-13.51-8.424-17.708v-14.368c0-28.519-22.03-51.974-49.963-54.279-.308-5.393-.521-10.833-.624-16.281h73.06c-4.036 8.543-6.304 18.078-6.304 28.137v18.864c-6.457 4.851-10.642 12.57-10.642 21.251 0 14.51 11.697 26.334 26.157 26.556 3.794 12.814 12.533 23.52 24.001 29.899v8.246zm-66.251-24.868v-10.898c1.703 1.216 2.82 3.203 2.82 5.45s-1.117 4.233-2.82 5.448zm108.322 30.51v.52l-13.246 13.745-12.657-12.328v-10.172c2.715.453 5.499.7 8.342.7h9.222c2.841 0 5.624-.247 8.339-.698v8.233zm-8.339-23.702h-9.222c-18.982 0-34.425-15.442-34.425-34.424v-28.542c12.902-1.188 38.414-5.673 57.049-22.402 3.933 7.443 10.526 16.084 21.02 20.566v30.377c-.001 18.983-15.442 34.425-34.422 34.425zm86.072 48.287c-6.707-7.17-14.278-11.522-19.754-13.412l-41.812-16.769v-8.292c11.471-6.38 20.208-17.089 24.001-29.907 14.307-.396 25.827-12.149 25.827-26.547 0-8.631-4.14-16.311-10.534-21.167v-18.948c0-10.058-2.267-19.594-6.304-28.137h71.983c-.105 5.47-.319 10.932-.631 16.351-27.506 2.729-49.06 25.998-49.06 54.208v14.307c-5.184 4.195-8.508 10.599-8.508 17.77 0 12.085 9.433 21.984 21.32 22.785 3.216 9.862 9.983 18.128 18.787 23.292v4.553l-25.315 9.913zm4.461-66.17v11.252c-1.851-1.192-3.081-3.266-3.081-5.624 0-2.36 1.231-4.435 3.081-5.628zm115.962 134.739h-105.116v-28.155c0-10.552-2.329-19.413-5.893-26.736l18.876-7.392 16.2 15.78c1.51 1.471 3.534 2.294 5.641 2.294l.127-.001c2.151-.033 4.201-.924 5.693-2.474l15.305-15.882 30.426 12.2.368.138c.75.266 18.374 6.799 18.374 29.338v20.89z"/></svg>