<svg xmlns="http://www.w3.org/2000/svg" viewBox="0 0 60 60"><path d="M51.768 44c.318-1.686.309-3.417-.024-5.1l4.58-11.053v-.022c.742-2.032 1.83-3.92 3.215-5.582.345-.364.483-.877.369-1.365l-1.878-8.11-.1-.242-.019-.047-.063-.074-.141-.165-.109-.066-.155-.094-.234-.057-.066-.017c-.192-.013-.383.03-.551.123l-.048.02h-.01l-7.061 4.407c-.428.265-.693.727-.706 1.23-.196 2.159-.765 4.268-1.681 6.233v.011l-2.289 5.533c-1.123-.597-2.326-1.032-3.572-1.29.472-3.255.645-6.546.518-9.833 1.862-2.233 2.755-5.117 2.482-8.012-.625-5.828-5.892-10.037-6.117-10.214-.338-.266-.809-.286-1.168-.05-.36.237-.527.677-.417 1.093.515 1.934.069 3.975-3.735 8.172-1.709 1.65-2.251 4.17-1.371 6.377.336.844.818 1.623 1.424 2.3-.242 1.545-.432 3.008-.563 4.433-.226 2.357-.284 4.727-.174 7.092-.892.484-1.727 1.066-2.49 1.735l-4.85-20.74-.026-.055-.07-.193-4.954-9.149c-.496-.916-1.543-1.386-2.557-1.149-1.014.237-1.743 1.124-1.781 2.165l-.376 10.395.025.223v.045l4.948 21.117c-.781.034-1.555.15-2.312.345l-5.443-13.145c-.436-1.005-1.594-1.479-2.61-1.069l-8.319 3.444c-1.018.425-1.502 1.592-1.083 2.613l7.382 17.808c-4.326.227-7.685 3.859-7.573 8.19.112 4.331 3.653 7.785 7.985 7.789h44c2.858-.041 5.477-1.605 6.87-4.1 1.393-2.496 1.349-5.546-.116-8-1.465-2.454-4.128-3.941-6.986-3.9zm-1.019-25.884l4.192-2.616-1.484 3.584c-.212.51.031 1.095.541 1.307.51.212 1.095-.031 1.307-.541l1.484-3.584 1.111 4.813c-1.189 1.45-2.165 3.062-2.9 4.787-1.043.483-2.24.508-3.302.069-1.062-.439-1.892-1.303-2.288-2.381.702-1.74 1.153-3.571 1.339-5.438zm-2.3 7.851c.662.809 1.52 1.434 2.493 1.815.773.333 1.605.508 2.447.516.203-.001.405-.013.606-.037l-3.191 7.7c-.956-2.107-2.434-3.934-4.294-5.309l1.939-4.685zm-13.7-7.142l5.024.307c.031.934.02 1.9-.011 2.881-1.674.12-3.356.038-5.01-.242l-.374-.049c.1-.942.222-1.896.369-2.897h.002zm-.477-8.053c2.655-2.929 4.031-5.182 4.351-7.3 1.908 1.964 3.168 4.466 3.609 7.168.21 2.353-.517 4.693-2.024 6.512-1.975-.12-3.929-.24-5.861-.36-.83-.776-1.308-1.857-1.322-2.994-.015-1.136.435-2.229 1.245-3.026h.002zm-.076 12.943l.29.038c1.289.199 2.589.31 3.893.331.414 0 .85-.033 1.287-.067-.091 1.287-.24 2.631-.429 4.02-.247-.013-.489-.037-.737-.037-1.51.003-3.008.261-4.432.763-.046-1.684-.004-3.369.126-5.048h.002zm-7.735 11.694l-2.861-12.187c-.134-.529-.666-.853-1.197-.728-.531.124-.864.651-.75 1.184l2.571 10.969c-.707-.253-1.437-.435-2.18-.543l-4.389-18.73c.615.28 1.282.425 1.958.426l.194-.012.707 3.019c.076.353.337.638.683.745.345.107.721.019.984-.23.262-.249.37-.62.281-.97l-.708-3.021c.678-.3 1.277-.756 1.747-1.33l4.462 19.079c-.579.723-1.082 1.504-1.501 2.33zm-6.11-21.7c-1.279.248-2.585-.275-3.339-1.337l.127-3.522c.348.065.701.098 1.055.1.342.001.683-.036 1.016-.113.675-.177 1.306-.491 1.854-.922l1.684 3.108c-.201 1.29-1.139 2.342-2.397 2.688v-.002zm-2.739-11.682c.136-.032.277.031.344.154l2.144 3.965c-.387.35-.849.606-1.35.75-.512.094-1.04.069-1.541-.073l.163-4.506c.005-.14.104-.259.24-.29zm-7.237 19.973l.764 1.846-3.7 1.532c-.439.184-.687.652-.593 1.118.093.466.503.803.978.804.131 0 .261-.026.383-.076l3.7-1.533.765 1.848-1.851.767c-.441.183-.692.652-.598 1.12.093.468.505.805.982.804.131 0 .261-.026.382-.076l1.851-.767.765 1.848-3.703 1.535c-.441.183-.692.652-.598 1.12.093.468.505.805.982.804.131 0 .261-.026.382-.076l3.7-1.532.809 1.953c-3.259 1.487-5.648 4.396-6.475 7.881l-7.248-17.476 8.323-3.444zm41.625 36h-44c-3.314 0-6-2.686-6-6s2.686-6 6-6c.579-.002 1.156.082 1.711.248.3.091.625.035.878-.149s.405-.477.411-.79c.071-3.564 2.131-6.788 5.336-8.35 3.204-1.562 7.013-1.199 9.864.941.252.188.577.246.879.157.301-.088.544-.313.654-.607 1.954-5.207 7.353-8.27 12.825-7.274 5.472.995 9.447 5.763 9.442 11.324.002 1.144-.168 2.281-.505 3.374-.105.34-.022.71.219.972s.603.376.951.3c.438-.097.886-.145 1.335-.146 3.314 0 6 2.686 6 6s-2.686 6-6 6zM38.685 15.7c.314.001.61-.145.8-.395 1.248-1.69 1.731-3.826 1.33-5.888-.085-.353-.355-.631-.704-.728-.35-.097-.724.003-.979.261s-.35.634-.248.982c.239 1.465-.118 2.966-.992 4.166-.227.303-.264.708-.094 1.047.169.339.516.553.894.553l-.006.002zM37.37 46c-.744.002-1.477.173-2.145.5-1.799-2.462-5.158-3.183-7.809-1.676-2.651 1.506-3.75 4.761-2.556 7.566.157.369.519.608.92.608.135 0 .268-.027.392-.08.244-.104.437-.301.536-.547.099-.246.096-.521-.008-.765-.218-.507-.33-1.054-.33-1.606 0-2.209 1.791-4 4-4 1.552-.008 2.965.891 3.615 2.3l.07.094.053.1.064.053.155.13.16.1.18.056.188.029c.13-.001.259-.023.382-.064l.079-.019.093-.069.105-.054c.525-.425 1.18-.656 1.856-.656 1.169.002 2.231.683 2.72 1.745.229.503.822.724 1.325.495.503-.229.724-.822.495-1.325-.814-1.775-2.587-2.913-4.54-2.915zM17.684 39.051c-.151.049-3.684 1.271-3.684 4.949 0 .552.448 1 1 1s1-.448 1-1c.082-1.395.999-2.602 2.322-3.053.525-.176.807-.744.631-1.269-.176-.525-.744-.807-1.269-.631v.004zM31.757 37.97l.243.03c.458 0 .858-.312.969-.757.46-1.867 2.113-3.196 4.036-3.243.552-.001.999-.45.997-1.002-.001-.552-.45-.999-1.002-.998-2.842.038-5.299 1.995-5.97 4.757-.134.536.191 1.079.727 1.213z"/></svg>