<svg xmlns="http://www.w3.org/2000/svg" viewBox="0 0 480.008 480.008" enable-background="new 0 0 480.008 480.008"><path d="M56 400.004c-13.255 0-24 10.745-24 24s10.745 24 24 24 24-10.745 24-24-10.745-24-24-24zm0 32c-4.418 0-8-3.582-8-8s3.582-8 8-8 8 3.582 8 8-3.582 8-8 8zM474.498 338.774c-6.984-11.645-19.567-18.77-33.146-18.77h-1.688c-6.342.004-12.586 1.564-18.184 4.544l-61.48 32.792v-109.336h28c24.301 0 44-19.699 44-44s-19.699-44-44-44h-172c-22.091 0-40-17.909-40-40s17.909-40 40-40h28l45.6 60.8c1.511 2.014 3.882 3.2 6.4 3.2h176c4.418 0 8-3.582 8-8v-128c0-4.418-3.582-8-8-8h-176c-2.518 0-4.889 1.186-6.4 3.2l-45.6 60.8h-28c-30.928 0-56 25.072-56 56s25.072 56 56 56h172c15.464 0 28 12.536 28 28s-12.536 28-28 28h-28v-32c0-4.418-3.582-8-8-8h-224c-4.418 0-8 3.582-8 8v120c-6.203 2.166-12.215 4.842-17.976 8h-102.024v16h96v120h-96v16h303.136c7.252 0 14.367-1.972 20.584-5.704l137.512-82.504c18.305-10.979 24.244-34.717 13.266-53.022zm-162.399-244.143c12.497-4.418 19.046-18.131 14.627-30.627-4.418-12.497-18.131-19.046-30.627-14.627-6.835 2.416-12.211 7.793-14.627 14.627h-17.472l36-48h164v112h-164l-36-48h17.472c4.418 12.497 18.131 19.046 30.627 14.627zm-16.099-22.627c0-4.418 3.582-8 8-8s8 3.582 8 8-3.582 8-8 8-8-3.582-8-8zm-72 136h32v32h-32v-32zm-88 0h72v40c0 4.418 3.582 8 8 8h48c4.418 0 8-3.582 8-8v-40h72v157.864l-13.104 6.984c4.887-19.272-6.775-38.857-26.048-43.744-2.892-.733-5.864-1.104-8.848-1.104h-77.912c-25.053-13.657-54.117-18.053-82.088-12.416v-107.584zm317 170.072l-137.512 82.504c-3.731 2.24-8 3.424-12.352 3.424h-191.136v-123.2c31.576-16.149 69.159-15.329 100 2.184 1.221.685 2.6 1.036 4 1.016h80c11.046 0 20 8.954 20 20s-8.954 20-20 20h-72c-4.418 0-8 3.582-8 8s3.582 8 8 8h88c1.314.002 2.608-.319 3.768-.936l113.24-60.4c3.281-1.746 6.94-2.661 10.656-2.664h1.688c12.508-.001 22.649 10.138 22.65 22.646 0 7.959-4.176 15.333-11.002 19.426zM431.917 84.266c-.623-6.087-4.325-11.429-9.805-14.15l-21.056-10.528c-.937-.458-1.325-1.589-.867-2.525.312-.639.956-1.048 1.667-1.059h30.144v-16h-16v-8h-16v8.192c-9.793 1.002-16.919 9.753-15.917 19.546.623 6.087 4.325 11.429 9.805 14.15l21.056 10.528c.937.458 1.325 1.589.867 2.525-.312.639-.956 1.048-1.667 1.059h-30.144v16h16v8h16v-8.192c9.793-1.002 16.919-9.753 15.917-19.546z"/></svg>