<svg xmlns="http://www.w3.org/2000/svg" viewBox="0 0 60 60" enable-background="new 0 0 60 60"><path d="M41.014 45.389l-9.553-4.776c-.901-.451-1.461-1.357-1.461-2.365v-3.381c.229-.28.47-.599.719-.951 1.239-1.75 2.232-3.698 2.954-5.799 1.411-.647 2.327-2.042 2.327-3.617v-4c0-.963-.36-1.896-1-2.625v-5.319c.056-.55.276-3.824-2.092-6.525-2.054-2.343-5.387-3.531-9.908-3.531s-7.854 1.188-9.908 3.53c-2.368 2.701-2.148 5.976-2.092 6.525v5.319c-.64.729-1 1.662-1 2.625v4c0 1.217.553 2.352 1.497 3.109.916 3.627 2.833 6.36 3.503 7.237v3.309c0 .968-.528 1.856-1.377 2.32l-8.921 4.866c-2.901 1.584-4.702 4.618-4.702 7.922v4.238h46v-4.043c0-3.439-1.911-6.53-4.986-8.068zm14.453 1.137l-9.723-4.21c-.23-.115-.485-.396-.704-.771l6.525-.005s.377.037.962.037c1.073 0 2.638-.122 4-.707.817-.352 1.425-1.047 1.669-1.907.246-.868.09-1.787-.426-2.523-1.865-2.654-6.218-9.589-6.354-16.623-.003-.121-.397-12.083-12.21-12.18-1.187.01-2.309.156-3.372.413.792 2.094.719 3.968.665 4.576v4.733c.648.922 1 2.017 1 3.141v4c0 1.907-1.004 3.672-2.607 4.662-.748 2.022-1.738 3.911-2.949 5.621l-.443.604v2.86c0 .442.236.825.631 1.022l9.553 4.776c3.587 1.794 5.815 5.399 5.815 9.41v4.045h12.501v-3.697c0-3.092-1.718-5.87-4.533-7.277z"/></svg>