<svg xmlns="http://www.w3.org/2000/svg" viewBox="0 0 460 460"><path d="M279.27 392.188h-30.51v-279.609h128.58l-54.464 86.423c-2.762 4.382-1.448 10.176 2.935 12.937 1.554.98 3.282 1.445 4.992 1.445 3.115 0 6.161-1.551 7.944-4.378l47.235-74.954 47.233 74.954c2.763 4.382 8.557 5.696 12.938 2.933 4.382-2.761 5.694-8.555 2.933-12.937l-54.462-86.423h.688c8.029 0 14.539-6.51 14.539-14.539 0-8.028-6.509-14.538-14.539-14.538h-106.956c-6.04-8.786-14.954-15.438-25.39-18.596-1.491-16.901-15.677-30.156-32.966-30.156-17.29 0-31.475 13.255-32.967 30.156-10.436 3.158-19.35 9.81-25.389 18.596h-106.956c-8.03 0-14.54 6.51-14.54 14.538 0 8.029 6.509 14.539 14.54 14.539h.688l-54.464 86.423c-2.762 4.382-1.448 10.176 2.934 12.937 1.554.98 3.283 1.445 4.992 1.445 3.114 0 6.162-1.551 7.945-4.378l47.235-74.954 47.234 74.954c2.762 4.382 8.555 5.696 12.937 2.933 4.383-2.761 5.696-8.555 2.935-12.937l-54.463-86.423h128.58v279.607h-30.509c-18.259 0-33.062 14.804-33.062 33.063h164.661c0-18.259-14.803-33.061-33.061-33.061zM143.035 223.359h-138.035c-2.761 0-5 2.238-5 5 0 40.813 33.204 74.017 74.018 74.017 40.813 0 74.018-33.204 74.018-74.017-.001-2.761-2.24-5-5.001-5zM455 223.359h-138.035c-2.761 0-5 2.238-5 5 0 40.813 33.204 74.017 74.019 74.017 40.813 0 74.017-33.204 74.017-74.017-.001-2.761-2.24-5-5.001-5z"/></svg>