<svg xmlns="http://www.w3.org/2000/svg" viewBox="0 0 512 512"><path fill="#FF3B62" d="M408.96 171.42v340.58h-305.92v-340.58l116.1-105.94h73.72z"/><path fill="#E60020" d="M408.96 171.42v340.58h-152.96v-446.52h36.86z"/><path fill="#FFA920" d="M241 0h30v142h-30z"/><path fill="#C9E7F8" d="M362 331h-30.08l11.97 24.68-26.99 13.09-18.32-37.77h-27.58v27.58l37.77 18.32-13.09 26.99-24.68-11.97v30.08h-30v-30.08l-24.68 11.97-13.09-26.99 37.77-18.32v-27.58h-26.32l-18.32 37.77-26.99-13.09 11.97-24.68h-31.34v-30h31.34l-11.97-24.68 26.99-13.09 18.32 37.77h26.32v-26.32l-37.77-18.32 13.09-26.99 24.68 11.97v-31.34h30v31.34l24.68-11.97 13.09 26.99-37.77 18.32v26.32h27.58l18.32-37.77 26.99 13.09-11.97 24.68h30.08z"/><path fill="#FF8700" d="M256 0h15v142h-15z"/><path fill="#A2D8F5" d="M362 331h-30.08l11.97 24.68-26.99 13.09-18.32-37.77h-27.58v27.58l37.77 18.32-13.09 26.99-24.68-11.97v30.08h-15v-212h15v31.34l24.68-11.97 13.09 26.99-37.77 18.32v26.32h27.58l18.32-37.77 26.99 13.09-11.97 24.68h30.08z"/></svg>