<?xml version="1.0" encoding="UTF-8" standalone="no"?>
<svg width="104px" height="14px" viewBox="0 0 104 14" version="1.1" xmlns="http://www.w3.org/2000/svg" xmlns:xlink="http://www.w3.org/1999/xlink" xmlns:sketch="http://www.bohemiancoding.com/sketch/ns">
    <!-- Generator: Sketch 3.2.1 (9971) - http://www.bohemiancoding.com/sketch -->
    <title>logo</title>
    <desc>Created with Sketch.</desc>
    <defs></defs>
    <g id="idea" stroke="none" stroke-width="1" fill="none" fill-rule="evenodd" sketch:type="MSPage">
        <g id="logo" sketch:type="MSLayerGroup" fill="#000000">
            <path d="M18,8 L18,0 L0,0 L0,2 L16,2 L16,6 L0,6 L0,14 L2,14 L2,8 L18,8 Z M22,0 L24,0 L24,14 L22,14 L22,0 Z M30,2 L30,14 L28,14 L28,0 L46,0 L46,14 L44,14 L44,2 L30,2 Z M68,14 L50,14 L50,0 L68,0 L68,2 L52,2 L52,12 L66,12 L66,8 L58,8 L58,6 L68,6 L68,14 Z M72,6 L72,8 L78,8 L78,14 L80,14 L80,8 L86,8 L86,6 L80,6 L80,0 L78,0 L78,6 L72,6 Z M98,0 L96,0 L96,6 L90,6 L90,8 L96,8 L96,14 L98,14 L98,8 L104,8 L104,6 L98,6 L98,0 Z" sketch:type="MSShapeGroup"></path>
        </g>
    </g>
</svg>