<svg xmlns="http://www.w3.org/2000/svg" viewBox="0 0 512 512"><path d="M200.791 4.448c-110.717 0-200.791 90.075-200.791 200.791s90.074 200.79 200.791 200.79c110.716 0 200.791-90.074 200.791-200.79s-90.075-200.791-200.791-200.791zm0 380.877c-99.301 0-180.088-80.787-180.088-180.086 0-99.301 80.787-180.088 180.088-180.088s180.088 80.787 180.088 180.088c-.001 99.299-80.788 180.086-180.088 180.086zM508.968 489.88l-103.526-103.525c-4.043-4.041-10.596-4.041-14.64 0-4.042 4.042-4.042 10.597 0 14.64l103.526 103.525c2.022 2.021 4.671 3.032 7.32 3.032s5.298-1.011 7.32-3.032c4.042-4.043 4.042-10.597 0-14.64zM379.256 360.477l-6.211-6.212c-4.043-4.041-10.596-4.041-14.64 0-4.042 4.042-4.042 10.597 0 14.64l6.212 6.212c2.022 2.021 4.671 3.032 7.32 3.032s5.298-1.011 7.32-3.032c4.041-4.042 4.041-10.597-.001-14.64zM313.404 146.696l-.012-.03-.055-.105-.018-.034-35.754-68.196c-1.788-3.409-5.319-5.544-9.167-5.544h-132.739c-3.799 0-7.294 2.082-9.102 5.422l-36.981 68.295c-.808 1.475-1.27 3.168-1.27 4.968v159.755c0 5.716 4.634 10.352 10.352 10.352h205.567c5.716 0 10.352-4.635 10.352-10.352v-159.755c-.001-1.725-.428-3.346-1.173-4.776zm-171.58-53.206h120.311l24.972 47.632h-171.074l25.791-47.632zm41.775 207.386v-61.524h35.681v61.524h-35.681zm110.273 0h-53.888v-71.876c0-5.716-4.634-10.352-10.352-10.352h-56.384c-5.717 0-10.352 4.635-10.352 10.352v71.876h-53.889v-139.053h184.864v139.053z"/></svg>