<svg xmlns="http://www.w3.org/2000/svg" viewBox="0 0 512 512" enable-background="new 0 0 512 512"><g fill="#F2F2F2"><path d="M484.973 122.808l-32.685 328.209h-392.576l-26.333-321.857 222.621 124.642zM473.886 60.983l-217.886 204.676-217.886-204.676h217.886z"/></g><path d="M59.712 155.493v295.524h-35.573c-13.327 0-24.139-10.811-24.139-24.139v-314.911l39 1.063 20.712 42.463z" fill="#F14336"/><path d="M512 111.967v314.912c0 13.327-10.812 24.139-24.152 24.139h-35.56v-295.525l19.692-46.525 40.02 2.999z" fill="#D32E2A"/><path d="M512 85.122v26.845l-59.712 43.526-196.288 143.068-196.288-143.068-59.712-43.526v-26.845c0-13.327 10.812-24.139 24.139-24.139h13.975l217.886 158.809 217.886-158.809h13.962c13.34 0 24.152 10.811 24.152 24.139z" fill="#F14336"/><path fill="#D32E2A" d="M59.712 155.493l-59.712-9.258v-34.268z"/></svg>