<svg xmlns="http://www.w3.org/2000/svg" viewBox="0 0 512 512" enable-background="new 0 0 512 512"><path d="M451.809 239.542v217.654l-68.402-12.661-30.156-36.174-127.06-141.254 107.876-76.649c54.037 71.326 55.741 53.938 55.741 53.938s26.692-39.85 60.936-5.607l1.065.753z" fill="#ccc"/><path d="M190.707 223.105l224.311 288.696c-1.306.128-2.626.199-3.96.199h-366.722l146.371-288.895z" fill="#518EF8"/><path d="M334.068 190.458l-333.621 280.79v-369.859c0-22.512 18.254-40.752 40.752-40.752h243.289c-10.447 17.956 28.289 29.481 28.289 51.752 0 22.414 10.717 60.028 21.291 78.069z" fill="#28B446"/><path d="M451.809 457.196v14.052c0 21.164-16.139 38.566-36.791 40.553l-187.705-185.234 45.436-46.046 104.867 103.476 5.791 5.72 68.402 67.479z" fill="#F2F2F2"/><path d="M322.514 230.088l-49.765 50.432-45.436 46.046-182.977 185.434h-3.137c-22.498 0-40.752-18.254-40.752-40.752l284.254-288.058c5.323 9.113 41.93-.114 49.368 7.267l13.67 17.572c6.671 7.113-30.959 14.508-25.225 22.059z" fill="#FFD837"/><path d="M106.904 227.775c-35.808 0-64.939-29.131-64.939-64.939s29.131-64.939 64.939-64.939c17.334 0 33.637 6.758 45.91 19.03l-15.057 15.054c-8.248-8.25-19.206-12.793-30.853-12.793-24.068 0-43.647 19.58-43.647 43.647s19.58 43.647 43.647 43.647c20.396 0 37.571-14.062 42.334-33.002h-42.334v-21.291h64.939v10.646c-.001 35.809-29.131 64.94-64.939 64.94z" fill="#fff"/><path d="M284.488 60.638c21.078-36.252 60.354-60.638 105.321-60.638 67.238 0 121.744 54.506 121.744 121.744 0 16.863-3.435 32.916-9.624 47.522-6.203 14.606-15.174 27.75-26.245 38.764-9.226 9.808-17.501 20.17-24.939 30.759-48.729 69.424-60.936 148.685-60.936 148.685s-13.257-86.06-67.295-157.386c-5.734-7.551-11.923-14.947-18.594-22.058h.014c-7.438-7.381-13.91-15.727-19.233-24.84-10.575-18.041-16.636-39.034-16.636-61.447 0-22.27 5.976-43.15 16.423-61.105z" fill="#F14336"/><path d="M389.81 56.947c35.781 0 64.781 29.017 64.781 64.798s-29 64.781-64.781 64.781-64.798-29-64.798-64.781 29.018-64.798 64.798-64.798z" fill="#7E2D25"/></svg>