<svg xmlns="http://www.w3.org/2000/svg" viewBox="0 0 512 512" enable-background="new 0 0 512 512"><path d="M441.412 140.235v338.781c0 18.219-14.778 32.983-32.983 32.983h-304.857c-18.219 0-32.983-14.764-32.983-32.983v-446.033c-.001-18.219 14.763-32.983 32.983-32.983h197.605l140.235 140.235z" fill="#28B446"/><path fill="#219B38" d="M320.31 137.188l121.102 49.891v-46.844l-68.661-20.273z"/><path d="M441.412 140.235h-107.252c-18.22 0-32.983-14.764-32.983-32.983v-107.252l140.235 140.235z" fill="#6ACE7C"/><path d="M337.115 254.946h-162.239c-5.82 0-10.536 4.717-10.536 10.536v141.169c0 5.818 4.716 10.536 10.536 10.536h162.239c5.82 0 10.536-4.717 10.536-10.536v-141.169c0-5.818-4.716-10.536-10.536-10.536zm-151.703 67.736h60.048v26.773h-60.048v-26.773zm81.119 0h60.048v26.773h-60.048v-26.773zm60.049-21.071h-60.048v-25.593h60.048v25.593zm-81.12-25.593v25.592h-60.048v-25.592h60.048zm-60.048 94.508h60.048v25.592h-60.048v-25.592zm81.119 25.591v-25.592h60.048v25.592h-60.048z" fill="#fff"/></svg>