<svg xmlns="http://www.w3.org/2000/svg" viewBox="0 0 512 512" enable-background="new 0 0 512 512"><path d="M512 150.582v210.836c0 37.639-30.515 68.154-68.154 68.154h-375.692c-37.639 0-68.154-30.515-68.154-68.154v-210.836c0-37.639 30.515-68.154 68.154-68.154h375.693c37.638 0 68.153 30.515 68.153 68.154z" fill="#D32E2A"/><path d="M68.154 403.712c-23.32 0-42.294-18.973-42.294-42.294v-210.836c0-23.32 18.973-42.294 42.294-42.294h375.693c23.32 0 42.294 18.973 42.294 42.294v210.836c0 23.32-18.973 42.294-42.294 42.294h-375.693z" fill="#F14336"/><path fill="#F2F2F2" d="M331.989 256.97l-131.006 75.64v-151.28z"/></svg>