<svg xmlns="http://www.w3.org/2000/svg" viewBox="0 0 612 612" enable-background="new 0 0 612 612"><path d="M339.296 19.573c-92.187 0-173.778 46.021-223.165 116.25 10.221 6.668 20.184 15.812 29.82 27.567 36.844-55.091 96.417-93.743 165.344-102.052l27.997 47.377 27.997-47.378c105.952 12.769 190.17 96.983 202.945 202.934l-47.385 28.001 47.386 28.002c-8.54 70.836-49.108 131.821-106.661 168.372 3.666 8.357 5.731 16.902 6.096 25.712.269 6.438-.395 12.521-1.73 18.296 85.669-46.032 144.06-136.501 144.06-240.377 0-150.373-122.331-272.704-272.704-272.704zm69.591 449.117c-62.865-50.523-80.444-25.688-108.968 2.832-19.914 19.921-70.308-21.678-113.821-65.193-43.516-43.521-85.107-93.907-65.195-113.824 28.526-28.521 53.354-46.11 2.817-108.958-50.52-62.871-84.198-14.603-111.829 13.03-31.9 31.889-1.681 150.726 115.769 268.194 117.466 117.452 236.302 147.651 268.183 115.774 27.628-27.634 75.91-61.308 13.044-111.855zm-191.461-133.736c0-55.88 65.42-65.835 65.42-87.641 0-10.581-8.47-15.023-16.304-15.023-14.397 0-22.434 16.083-22.434 16.083l-27.521-18.415s13.973-32.6 53.346-32.6c24.766 0 51.65 14.185 51.65 46.36 0 47.208-60.968 56.314-62.028 75.789h64.36v31.751h-104.792c-1.061-5.926-1.697-11.215-1.697-16.304zm121.965-42.755l58.434-92.305h45.301v84.047h17.991v30.691h-17.991v36.628h-36.628v-36.628h-67.106v-22.433h-.001zm67.106-8.259v-33.871c0-8.258 1.272-16.94 1.272-16.94h-.424s-3.171 9.318-7.41 15.669l-22.857 34.72v.424l29.419-.002z"/></svg>