<svg xmlns="http://www.w3.org/2000/svg" viewBox="0 0 611.999 611.999" enable-background="new 0 0 611.999 611.999"><path d="M580.535 367.697c8.061 7.798 10.9 19.539 7.41 30.197-38.828 118.626-150.546 204.562-281.904 204.562-101.84 0-194.998-51.444-249.298-136.011-2.339-3.643-6.725-5.382-10.888-4.195l-33.368 9.509c-7.252 2.067-14.021-4.494-12.182-11.808l28.866-114.778 5.675-22.702c1.829-7.317 10.897-9.907 16.315-4.659l28.251 27.362 73.606 71.254c5.417 5.244 3.125 14.385-4.124 16.454l-36.868 10.524c44.169 62.484 115.958 100.288 194.015 100.288 105.344 0 194.882-68.852 225.928-163.931 6.764-20.717 32.389-27.713 48.053-12.562l.513.496zm-21.324-216.047c-53.768-88.144-148.964-142.108-253.169-142.108-131.451 0-243.085 85.938-281.905 204.564-3.488 10.659-.65 22.398 7.412 30.195l.508.492c15.666 15.152 41.292 8.153 48.055-12.566 31.028-95.075 120.504-163.922 225.93-163.922 77.958 0 149.747 37.706 193.917 100.19l-36.869 10.524c-7.25 2.069-9.54 11.21-4.124 16.455l73.704 71.351 28.25 27.363c5.42 5.248 14.486 2.658 16.316-4.66l5.676-22.702 28.783-114.88c1.832-7.313-4.938-13.867-12.188-11.798l-40.296 11.502zm-258.031 132.635l-16.58 25.175v.304h21.342v-24.56c0-5.992.919-12.28.919-12.28h-.304s-2.307 6.756-5.377 11.361zm163.498 21.676c0 87.635-71.042 158.676-158.676 158.676-87.635 0-158.676-71.041-158.676-158.676 0-87.634 71.041-158.675 158.676-158.675 87.634 0 158.676 71.041 158.676 158.675zm-218.814 29.601h-46.673c.768-14.126 44.982-20.726 44.982-54.963 0-23.336-19.495-33.622-37.459-33.622-28.553 0-38.686 23.64-38.686 23.64l19.959 13.355s5.833-11.664 16.273-11.664c5.68 0 11.82 3.226 11.82 10.9 0 15.81-47.44 23.024-47.44 63.558 0 3.686.463 7.52 1.231 11.82h75.994v-23.024h-.001zm99.691-25.798h-13.051v-60.947h-32.859l-42.372 66.938v16.27h48.667v26.562h26.563v-26.562h13.051v-22.261h.001zm96.375 48.824v-51.278c0-22.261-12.436-29.632-28.401-29.632-10.44 0-19.65 4.761-24.1 12.592h-.312s.312-2.767.312-6.756v-34.697h-26.562v109.771h26.562v-35c0-3.687.304-7.067 1.379-10.138 2.307-6.903 7.675-11.664 15.81-11.664 5.836 0 8.75 3.07 8.75 10.441v46.361h26.562z"/></svg>