<svg xmlns="http://www.w3.org/2000/svg" viewBox="0 0 612 612" enable-background="new 0 0 612 612"><path d="M612 338.19v55.625c0 13.877-11.249 25.125-25.126 25.125h-26.885c-4.857-33.332-33.585-58.961-68.259-58.961-34.59 0-63.317 25.629-68.175 58.961h-228.393c-4.857-33.332-33.585-58.961-68.175-58.961s-63.318 25.629-68.175 58.961h-33.669c-13.876 0-25.125-11.248-25.125-25.125v-55.625h611.982zm-438.933-134.232h-14.313l-5.259 27.155h13.945c9.292 0 16.996-6.363 16.996-17.004 0-6.478-4.277-10.151-11.369-10.151zm370.825 224.949c0 28.729-23.367 52.094-52.095 52.094-28.811 0-52.178-23.367-52.178-52.094 0-28.811 23.367-52.178 52.178-52.178 28.727 0 52.095 23.368 52.095 52.178zm-26.047 0c0-14.404-11.726-26.047-26.047-26.047-14.405 0-26.048 11.643-26.048 26.047 0 14.322 11.643 26.049 26.048 26.049 14.321 0 26.047-11.727 26.047-26.049zm-338.782 0c0 28.729-23.283 52.094-52.094 52.094s-52.094-23.367-52.094-52.094c0-28.811 23.284-52.178 52.094-52.178s52.094 23.368 52.094 52.178zm-26.046 0c0-14.404-11.642-26.047-26.046-26.047-14.406 0-26.047 11.643-26.047 26.047 0 14.322 11.642 26.049 26.047 26.049 14.404 0 26.046-11.727 26.046-26.049zm458.965-104.605h-611.982v-168.177c0-13.903 11.307-25.125 25.125-25.125h379.736c13.903 0 25.126 11.223 25.126 25.125v18.678h49.833c8.794 0 17.253 3.518 23.534 9.715l98.745 97.656c6.281 6.282 9.883 14.824 9.883 23.786v18.342zm-522.798-95.757l4.646-24.586h34.245l2.568-13.577h-49.777l-16.881 86.837h15.655l6.854-35.104h28.863l2.568-13.569h-28.741zm91.588 12.104v-.246c13.086-4.278 19.81-17.118 19.81-28.986 0-8.923-4.4-15.655-11.745-18.837-3.541-1.586-7.828-2.2-12.473-2.2h-30.696l-16.874 86.836h15.769l6.241-32.413h15.655l11.009 32.413h16.874l-11.614-32.168c-1.105-3.172-1.956-4.399-1.956-4.399zm96.341-50.268h-51.854l-16.996 86.837h53.932l2.568-13.577h-38.155l4.523-23.359h29.231l2.691-13.577h-29.231l4.4-22.746h36.201l2.69-13.578zm70.061 0h-51.855l-16.996 86.837h53.933l2.567-13.577h-38.155l4.523-23.359h29.231l2.691-13.577h-29.232l4.401-22.746h36.2l2.692-13.578zm214.557 88.274l-77.305-73.787c-.754-.669-1.759-1.088-2.764-1.088h-18.174c-2.178 0-3.937 1.759-3.937 3.937v73.787c0 2.178 1.759 3.936 3.937 3.936h95.562c3.518-.001 5.277-4.356 2.681-6.785z"/></svg>