<svg xmlns="http://www.w3.org/2000/svg" viewBox="0 0 480.006 480.006"><path d="M478.66 395.595l-58.464-87.728 10.248-3.2c4.218-1.317 6.569-5.803 5.252-10.021l-.18-.515-17.976-46.232 36.608-34.04c3.234-3.01 3.416-8.072.406-11.306-.13-.14-.266-.275-.406-.406l-36.608-34.032 17.984-46.232c1.601-4.118-.439-8.754-4.557-10.356l-.515-.18-48.128-15.008-4.208-49.36c-.186-2.197-1.264-4.221-2.984-5.6-1.711-1.375-3.915-1.981-6.088-1.672l-50.088 6.936-25.647-42.752c-2.271-3.79-7.185-5.021-10.974-2.75l-.29.182-42.04 27.672-42.032-27.672c-3.689-2.431-8.651-1.411-11.082 2.278l-.182.29-25.648 42.768-50.08-6.936c-4.376-.608-8.417 2.447-9.025 6.823l-.047.425-4.216 49.36-48.088 15.008c-4.218 1.317-6.569 5.803-5.252 10.021l.18.515 17.976 46.232-36.648 34.04c-3.234 3.01-3.416 8.072-.406 11.306.13.14.266.275.406.406l36.608 34.032-17.984 46.232c-1.601 4.118.439 8.754 4.557 10.356l.515.18 10.616 3.304-58.984 95.848c-2.316 3.763-1.144 8.69 2.619 11.006 1.682 1.035 3.687 1.412 5.629 1.058l80.263-14.592 14.464 72.32c.634 3.172 3.115 5.65 6.288 6.28.512.091 1.032.131 1.552.12 2.674 0 5.172-1.335 6.656-3.56l56.128-84.192 11.912 19.864c1.122 1.872 2.96 3.204 5.088 3.688.596.137 1.205.204 1.816.2 1.564 0 3.094-.459 4.4-1.32l42-27.672 42.032 27.672c3.689 2.431 8.651 1.411 11.082-2.278l.182-.29 11.92-19.872 56.128 84.2c1.484 2.225 3.982 3.56 6.656 3.56.521.001 1.041-.05 1.552-.152 3.173-.63 5.654-3.108 6.288-6.28l14.56-72.952 80.88 7.384c4.4.398 8.29-2.846 8.689-7.246.165-1.82-.298-3.642-1.313-5.162zm-362.575 55.896l-12.24-61.088c-.855-4.278-4.979-7.082-9.272-6.304l-70.36 12.8 51.72-84.016 21.752 6.784 4.208 49.36c.186 2.197 1.264 4.221 2.984 5.6 1.714 1.368 3.915 1.973 6.088 1.672l50.088-6.936 4.632 7.728-49.6 74.4zm191.864-94.872l-24.08 40.144-39.464-26.016c-2.67-1.758-6.13-1.758-8.8 0l-39.472 25.984-24.08-40.152c-1.444-2.41-4.047-3.886-6.856-3.888-.37-.001-.739.026-1.104.08l-46.968 6.496-3.952-46.312c-.277-3.243-2.491-5.995-5.6-6.96l-45.064-14.064 16.8-43.296c1.189-3.056.393-6.527-2.008-8.76l-34.24-31.872 34.28-31.872c2.401-2.233 3.197-5.704 2.008-8.76l-16.8-43.312 45.08-14.056c3.109-.965 5.323-3.717 5.6-6.96l3.952-46.312 46.968 6.504c3.192.456 6.346-1.048 8-3.816l24.08-40.144 39.376 25.984c2.67 1.758 6.13 1.758 8.8 0l39.472-25.984 24.08 40.152c1.66 2.739 4.786 4.234 7.96 3.808l46.968-6.496 3.952 46.312c.277 3.243 2.491 5.995 5.6 6.96l45.08 14.064-16.848 43.296c-1.189 3.056-.393 6.527 2.008 8.76l34.272 31.872-34.28 31.872c-2.401 2.233-3.197 5.704-2.008 8.76l16.8 43.312-45.04 14.056c-3.109.965-5.323 3.717-5.6 6.96l-3.952 46.312-46.96-6.472c-3.177-.425-6.302 1.074-7.96 3.816zm76.776 27.384c-4.054-.314-7.714 2.423-8.56 6.4l-12.216 61.064-49.6-74.4 4.624-7.712 50.08 6.936c4.376.608 8.417-2.447 9.025-6.823l.047-.425 4.216-49.36 21.96-6.848 51.768 77.688-71.344-6.52zM360.004 168.003c0-13.255-10.745-24-24-24h-56v-32c.022-22.069-17.851-39.978-39.92-40h-.08c-4.418 0-8 3.582-8 8v38.112l-14.4 28.736-25.744 20.6c-.26-4.159-3.689-7.41-7.856-7.448h-56c-4.418 0-8 3.582-8 8v120c0 4.418 3.582 8 8 8h56c4.418 0 8-3.582 8-8h120c13.228-.066 23.934-10.772 24-24-.027-4.126-1.13-8.174-3.2-11.744 1.476-.921 2.84-2.011 4.064-3.248 7.757-7.544 9.38-19.401 3.936-28.752 1.476-.921 2.84-2.011 4.064-3.248 7.757-7.544 9.38-19.401 3.936-28.752 1.476-.921 2.84-2.011 4.064-3.248 4.592-4.464 7.169-10.605 7.136-17.008zm-183.999 112h-40v-104h40v104zm165.551-106.304c-1.459 1.493-3.465 2.325-5.552 2.304h-32v16h24c4.418 0 8 3.582 8 8 .007 2.156-.879 4.218-2.448 5.696-1.459 1.493-3.465 2.325-5.552 2.304h-32v16h24c4.418 0 8 3.582 8 8 .007 2.156-.879 4.218-2.448 5.696-1.459 1.493-3.465 2.325-5.552 2.304h-32v16h24c4.418 0 8 3.582 8 8 .007 2.156-.879 4.218-2.448 5.696-1.459 1.493-3.465 2.325-5.552 2.304h-120v-84.16l37-29.592c.904-.725 1.641-1.636 2.16-2.672l16-32c.554-1.111.841-2.335.84-3.576v-30.632c9.606 3.371 16.026 12.452 16 22.632v40c0 4.418 3.582 8 8 8h64c4.418 0 8 3.582 8 8 .008 2.155-.879 4.217-2.448 5.696z"/></svg>