<svg xmlns="http://www.w3.org/2000/svg" viewBox="0 0 32.666 32.666"><path d="M28.189 16.504h-1.666c0-5.437-4.422-9.858-9.856-9.858l-.001-1.664c6.355-.003 11.523 5.167 11.523 11.522zm-11.523-8.648l-.001 1.664c3.853 0 6.983 3.133 6.981 6.983l1.666-.001c0-4.767-3.876-8.646-8.646-8.646zm-.333-7.856c-9.007 0-16.333 7.326-16.333 16.334 0 9.006 7.326 16.332 16.333 16.332.557 0 1.007-.45 1.007-1.006 0-.559-.45-1.01-1.007-1.01-7.896 0-14.318-6.424-14.318-14.316 0-7.896 6.422-14.319 14.318-14.319s14.317 6.424 14.317 14.319c0 3.299-1.756 6.568-4.269 7.954-.913.502-1.903.751-2.959.761.634-.377 1.183-.887 1.591-1.529.08-.121.186-.228.238-.359.328-.789.357-1.684.555-2.518.243-1.064-4.658-3.143-5.084-1.814-.154.492-.39 2.048-.699 2.458-.275.366-.953.192-1.377-.168-1.117-.952-2.364-2.351-3.458-3.457l.002-.001-.092-.092-.093-.092v.002c-1.106-1.096-2.506-2.34-3.457-3.459-.36-.424-.534-1.102-.168-1.377.41-.311 1.966-.543 2.458-.699 1.326-.424-.75-5.328-1.816-5.084-.832.195-1.727.227-2.516.553-.134.057-.238.16-.359.24-2.799 1.774-3.16 6.082-.428 9.292 1.041 1.228 2.127 2.416 3.245 3.576l-.006.004.095.09.088.095.006-.006c1.16 1.118 2.535 2.765 4.769 4.255 4.703 3.141 8.312 2.264 10.438 1.098 3.67-2.021 5.312-6.338 5.312-9.719 0-9.012-7.327-16.338-16.333-16.338z"/></svg>