<svg xmlns="http://www.w3.org/2000/svg" viewBox="0 0 512 512" enable-background="new 0 0 512 512"><path d="M476.158 231.363l-13.259-53.035c3.625-.77 6.345-3.986 6.345-7.839v-8.551c0-18.566-15.105-33.67-33.67-33.67h-60.392v-17.638c0-9.136-7.432-16.568-16.568-16.568h-307.842c-9.136 0-16.568 7.432-16.568 16.568v145.37c0 4.427 3.589 8.017 8.017 8.017 4.427 0 8.017-3.589 8.017-8.017v-145.37c0-.295.239-.534.534-.534h307.841c.295 0 .534.239.534.534v145.372c0 4.427 3.589 8.017 8.017 8.017 4.427 0 8.017-3.589 8.017-8.017v-9.088h94.569l.021.002.022-.001c11.637.008 21.518 7.646 24.912 18.171h-24.928c-4.427 0-8.017 3.589-8.017 8.017v17.102c0 13.851 11.268 25.119 25.119 25.119h9.086v35.273h-20.962c-6.886-19.883-25.787-34.205-47.982-34.205s-41.097 14.322-47.982 34.205h-3.86v-60.393c0-4.427-3.589-8.017-8.017-8.017-4.427 0-8.017 3.589-8.017 8.017v60.391h-166.328c-6.886-19.883-25.787-34.205-47.982-34.205s-41.097 14.322-47.982 34.205h-46.081c-.295 0-.534-.239-.534-.534v-17.637h34.739c4.427 0 8.017-3.589 8.017-8.017s-3.589-8.017-8.017-8.017h-76.96c-4.427 0-8.017 3.589-8.017 8.017s3.589 8.017 8.017 8.017h26.188v17.637c0 9.136 7.432 16.568 16.568 16.568h43.304l-.014.534c0 27.996 22.777 50.772 50.772 50.772s50.772-22.776 50.772-50.772l-.014-.534h180.67l-.014.534c0 27.996 22.777 50.772 50.772 50.772 27.995 0 50.772-22.776 50.772-50.772l-.014-.534h26.203c4.427 0 8.017-3.589 8.017-8.017v-85.511c.001-21.112-15.576-38.653-35.841-41.738zm-100.976-87.062h60.392c9.725 0 17.637 7.912 17.637 17.637v.534h-78.029v-18.171zm0 86.58v-52.376h71.235l13.094 52.376h-84.329zm-230.347 171.023c-19.155 0-34.739-15.583-34.739-34.739s15.584-34.739 34.739-34.739c19.155 0 34.739 15.583 34.739 34.739s-15.584 34.739-34.739 34.739zm282.188 0c-19.155 0-34.739-15.583-34.739-34.739s15.584-34.739 34.739-34.739c19.155 0 34.739 15.583 34.739 34.739s-15.584 34.739-34.739 34.739zm68.944-102.614h-9.086c-5.01 0-9.086-4.076-9.086-9.086v-9.086h18.171v18.172zM144.835 350.597c-9.136 0-16.568 7.432-16.568 16.568 0 9.136 7.432 16.568 16.568 16.568 9.136 0 16.568-7.432 16.568-16.568 0-9.136-7.432-16.568-16.568-16.568zM427.023 350.597c-9.136 0-16.568 7.432-16.568 16.568 0 9.136 7.432 16.568 16.568 16.568 9.136 0 16.568-7.432 16.568-16.568 0-9.136-7.432-16.568-16.568-16.568zM332.96 316.393h-119.716c-4.427 0-8.017 3.589-8.017 8.017s3.589 8.017 8.017 8.017h119.716c4.427 0 8.017-3.589 8.017-8.017s-3.589-8.017-8.017-8.017zM127.733 282.188h-102.614c-4.427 0-8.017 3.589-8.017 8.017s3.589 8.017 8.017 8.017h102.614c4.427 0 8.017-3.589 8.017-8.017s-3.59-8.017-8.017-8.017zM278.771 173.37c-3.13-3.13-8.207-3.13-11.337.001l-71.292 71.291-37.087-37.087c-3.131-3.131-8.207-3.131-11.337 0-3.131 3.131-3.131 8.206 0 11.337l42.756 42.756c1.565 1.566 3.617 2.348 5.668 2.348s4.104-.782 5.668-2.348l76.96-76.96c3.131-3.132 3.131-8.207.001-11.338z"/></svg>