<svg xmlns="http://www.w3.org/2000/svg" viewBox="0 0 896 747.97143"><title>empty_cart</title><path d="M41.634 712.738c12.428 23.049 38.806 32.944 38.806 32.944s6.227-27.475-6.201-50.524l-38.806-32.944s-6.227 27.475 6.201 50.524z" fill="#2f2e41"/><path d="M50.177 705.155c22.438 13.5 31.08 40.314 31.08 40.314s-27.738 4.927-50.177-8.573l-31.08-40.314s27.738-4.927 50.177 8.573z" fill="#6c63ff"/><path fill="#f2f2f2" d="M413.248 35.908h140v2h-140zM513.249 37.408h2v18.5h-2zM452.248 37.408h2v18.5h-2zM484.248 131.908h140v2h-140zM522.249 113.908h2v18.5h-2zM583.249 113.908h2v18.5h-2zM670.249 176.908h140v2h-140zM708.249 158.908h2v18.5h-2zM769.249 158.908h2v18.5h-2zM656.249 640.908h140v2h-140zM694.249 622.908h2v18.5h-2zM755.249 622.908h2v18.5h-2zM417.248 319.908h140v2h-140zM455.248 301.908h2v18.5h-2zM516.249 301.908h2v18.5h-2zM461.248 560.908h140v2h-140zM499.248 542.908h2v18.5h-2zM560.249 542.908h2v18.5h-2zM685.249 487.908h140v2h-140zM723.249 469.908h2v18.5h-2zM784.249 469.908h2v18.5h-2z"/><path fill="#2f2e41" d="M362.06 702.184h-236.786v-1.703h235.082v-82.62h-215.176l-10.453-21.777 1.536-.737 9.989 20.81h215.808v86.027z"/><circle cx="156.789" cy="726.033" r="17.887" fill="#3f3d56"/><circle cx="333.101" cy="726.033" r="17.887" fill="#3f3d56"/><circle cx="540.927" cy="346.153" r="11.073" fill="#3f3d56"/><path d="M387.385 589.753h-266.149l-57.588-188.236h383.044l-.349 1.108zm-264.889-1.704h263.639l58.234-184.83h-378.419z" fill="#2f2e41"/><path fill="#f2f2f2" d="M366.61 579.958h-233.768l-50.582-166.943h336.441l-.306.983-51.785 165.96z"/><path fill="#2f2e41" d="M451.465 384.7l-1.647-.437 11.241-42.369h65.389v1.704h-64.078l-10.905 41.102zM82.258 458.584h345.293v1.704h-345.293zM101.459 521.344h306.319v1.704h-306.319zM254.314 402.368h1.704v186.533h-1.704zM319.978 588.551l12.15-186.555 1.701.111-12.15 186.555zM176.401 402.493l1.701-.111 12.15 186.555-1.701.111zM0 745h896v2h-896z"/><path d="M595.411 61.876s14.618 41.606 5.622 48.007l30.361 58.675 47.229-12.802-25.863-43.74s-3.373-43.74-3.373-50.141h-53.976z" fill="#a0616a"/><path d="M595.411 61.876s14.618 41.606 5.622 48.007l30.361 58.675 47.229-12.802-25.863-43.74s-3.373-43.74-3.373-50.141h-53.976z" opacity=".1"/><path d="M570.874 358.454s-4.267 53.341 0 81.079l10.668 104.549s0 145.089 23.47 147.222 40.539 4.267 42.673-4.267-10.668-12.802-4.267-17.069 8.535-19.203 0-36.272v-189.895l40.539 108.816s4.267 89.614 8.535 102.415-4.267 36.272 10.668 38.406 32.005-10.668 40.539-14.936-12.802-4.267-8.535-6.401 17.069-8.535 12.802-10.668l-8.535-104.549s-11.735-218.7-26.671-227.234l-24.537 6.166zM609.279 682.77v17.069s-19.203 46.399 0 46.399 34.138 4.808 34.138-1.593v-57.609zM735.165 682.739v17.069s19.203 46.399 0 46.399-34.138 4.808-34.138-1.593v-57.609z" fill="#2f2e41"/><circle cx="625.282" cy="54.408" r="38.406" fill="#a0616a"/><path d="M613.547 125.886s10.668 32.005 27.738 25.604l17.069-6.401 29.871 204.831s-23.47 34.138-57.609 12.802l-17.069-236.836z" fill="#6c63ff"/><path d="M643.418 119.485l9.601-20.27s56.542 26.671 65.076 35.205l8.535 21.337-14.936 53.341s4.267 117.351 4.267 121.618 14.936 27.738 4.267 19.203-12.802-17.069-21.337-4.267l-27.738 27.738z" fill="#3f3d56"/><path d="M718.096 273.108l-6.401 59.742s-38.406 34.138-29.871 36.272l12.802-6.401s14.936 14.936 23.47 6.401l29.871-89.614z" fill="#a0616a"/><path d="M778.1 76.144c-8.514-.304-17.625-.455-24.804 4.133a36.313 36.313 0 0 0-8.572 8.392c-6.992 8.838-13.033 19.959-10.436 30.925l3.016-1.176a19.751 19.751 0 0 1-1.905 8.463c.425-1.235 1.847.762 1.466 2.011l-3.323 10.901c5.462-2.002 12.257 2.052 13.088 7.81.38-12.661 1.693-27.18 11.964-34.593 5.18-3.739 11.735-4.88 18.042-5.894 5.818-.935 11.918-1.827 17.491.089s10.319 7.615 9.055 13.371c2.57-.885 5.444.906 6.713 3.309s1.337 5.237 1.375 7.955c2.739 1.936 5.856-1.908 6.973-5.071 2.62-7.424 4.949-15.327 3.538-23.073s-7.723-15.148-15.596-15.174a5.467 5.467 0 0 0 1.422-3.849l-6.489-.548a7.172 7.172 0 0 0 4.286-2.26c-2.605 2.867-23.09-5.569-27.303-5.719z" transform="translate(-152 -76.014)" fill="#2f2e41"/><path d="M624.215 113.084s-17.369-17.021-23.62-15.978l-14.786 15.978s-51.208 17.069-49.074 34.138l25.604 100.282s19.203 100.282 2.134 110.95 81.079 38.406 83.213 25.604 6.401-140.821 0-160.024l-23.47-110.95zM698.893 147.222h26.383s18.424 81.079 20.558 89.614 6.401 49.074 4.267 49.074-44.807-8.535-44.807-2.134z" fill="#3f3d56"/><path d="M698 348h-101c-9.856-45.34-10.68-89.146 0-131h101c-16.299 41.101-17.318 84.607 0 131z" fill="#f2f2f2"/><path d="M555.938 292.311l29.871 12.802s57.609 8.535 57.609-14.936l-57.609-10.668-19.204-6.14z" fill="#a0616a"/><path d="M562.339 134.42l-25.604 6.401-19.203 113.084s-6.401 29.871 4.267 32.005l40.539 19.203s4.267-32.005 12.802-32.005l-21.337-17.069 12.802-74.678z" fill="#3f3d56"/><path fill="#f2f2f2" d="M60.248 352.908h140v2h-140zM98.249 334.908h2v18.5h-2zM159.249 334.908h2v18.5h-2zM109.249 56.908h140v2h-140zM209.249 58.408h2v18.5h-2zM148.249 58.408h2v18.5h-2zM250.249 253.908h140v2h-140zM350.248 255.408h2v18.5h-2zM289.248 255.408h2v18.5h-2zM12.248 252.908h140v2h-140zM112.249 254.408h2v18.5h-2zM51.248 254.408h2v18.5h-2zM180.249 152.908h140v2h-140zM218.249 134.908h2v18.5h-2zM279.248 134.908h2v18.5h-2z"/></svg>