<svg xmlns="http://www.w3.org/2000/svg" viewBox="0 0 512 512"><path d="M499.829 94.278l-265.189-82.559c-.967-.301-1.96-.435-2.95-.443l-.082-.018h-110.08l-.158.024c-2.095.033-4.17.686-5.918 1.983l-111.328 82.56c-2.594 1.923-4.124 4.961-4.124 8.192v41.279c0 5.633 4.566 10.199 10.199 10.199h101.13v335.048c0 5.633 4.566 10.199 10.199 10.199s10.199-4.566 10.199-10.199v-27.499l89.681-90.479v117.978c0 5.633 4.566 10.199 10.199 10.199s10.199-4.566 10.199-10.199v-335.048h212.268v85.206c0 5.633 4.566 10.199 10.199 10.199s10.199-4.566 10.199-10.199v-85.206h22.324c5.633 0 10.199-4.566 10.199-10.199v-41.279c.001-4.466-2.903-8.412-7.166-9.739zm-388.5 40.82h-90.931v-25.947l90.931-67.432v93.379zm20.399 298.298v-165.907l82.953 82.953-82.953 82.954zm89.68-105.074l-81.078-81.078 81.078-81.078v162.156zm-89.679-101.324v-71.503h71.503l-71.503 71.503zm89.679-137.245h-50.062v-16.319h50.062v16.319zm0-36.717h-60.261c-5.633 0-10.199 4.566-10.199 10.199v36.717c0 5.633 4.566 10.199 10.199 10.199h60.261v24.945h-89.681v-103.44h89.681v21.38zm20.399-17.721l67.002 20.859-67.002 67.001v-87.86zm16.925 99.782l61.689-61.689 61.689 61.689h-123.378zm83.803-68.424l85.512 26.622-29.445 29.445-56.067-56.067zm72.559 68.424l31.999-31.999c.947-.948 1.662-2.039 2.159-3.201l37.344 11.626v23.573h-71.502zM464.274 266.199c-5.633 0-10.199 4.566-10.199 10.199v7.139c0 5.633 4.566 10.199 10.199 10.199s10.199-4.566 10.199-10.199v-7.139c0-5.633-4.566-10.199-10.199-10.199zM501.801 310.222h-75.054c-5.633 0-10.199 4.566-10.199 10.199v75.053c0 5.633 4.566 10.199 10.199 10.199h75.054c5.633 0 10.199-4.566 10.199-10.199v-75.053c0-5.633-4.566-10.199-10.199-10.199zm-10.199 75.053h-54.656v-54.655h54.656v54.655z"/></svg>