<svg xmlns="http://www.w3.org/2000/svg" viewBox="0 0 512 512"><path d="M447.327 38.482h-137.836v-28.283c0-5.633-4.566-10.199-10.199-10.199h-86.584c-5.633 0-10.199 4.566-10.199 10.199v28.282h-137.836c-23.459 0-42.546 19.086-42.546 42.546v227.767c0 23.459 19.086 42.546 42.546 42.546h137.836v150.461c0 5.633 4.566 10.199 10.199 10.199h86.584c5.633 0 10.199-4.566 10.199-10.199v-150.461h137.835c23.459 0 42.546-19.086 42.546-42.546v-227.766c.001-23.461-19.085-42.546-42.545-42.546zm-224.419-18.084h66.186v18.083h-66.186v-18.083zm66.184 471.204h-66.186v-140.262h66.186v140.262zm180.382-182.808c0 12.213-9.935 22.148-22.148 22.148h-382.653c-12.213 0-22.148-9.935-22.148-22.148v-227.766c0-12.213 9.935-22.148 22.148-22.148h382.654c12.213 0 22.148 9.935 22.148 22.148v227.766zM271.299 375.331c-5.633 0-10.199 4.566-10.199 10.199v4.08c0 5.633 4.566 10.199 10.199 10.199s10.199-4.566 10.199-10.199v-4.08c0-5.633-4.566-10.199-10.199-10.199zM271.299 408.988c-5.633 0-10.199 4.566-10.199 10.199v54.056c0 5.633 4.566 10.199 10.199 10.199s10.199-4.566 10.199-10.199v-54.056c0-5.633-4.566-10.199-10.199-10.199zM211.733 107.084h-35.831c-3.512 0-7.022 1.651-7.022 4.956h.001v65.57c0 3.303 4.027 4.956 8.054 4.956s8.053-1.652 8.053-4.956v-26.641h15.593c3.408 0 4.853-3.305 4.853-6.092 0-3.305-1.755-6.299-4.853-6.299h-15.593v-17.451h26.744c3.098 0 4.854-3.304 4.854-7.124.001-3.305-1.445-6.919-4.853-6.919zM254.068 107.083c-14.25 0-25.299 6.608-25.299 24.369v27.363c0 17.761 11.049 24.369 25.299 24.369 14.248 0 25.401-6.608 25.401-24.369v-27.363c0-17.76-11.151-24.369-25.401-24.369zm9.293 51.733c0 7.125-3.511 10.326-9.292 10.326-5.783 0-9.19-3.201-9.19-10.326v-27.363c0-7.125 3.408-10.327 9.19-10.327s9.292 3.202 9.292 10.327v27.363zM349.887 172.963l-12.598-22.821c7.228-2.787 12.494-9.396 12.494-20.961 0-16.832-11.255-22.098-25.401-22.098h-21.375c-2.994 0-4.957 2.271-4.957 4.853v65.674c0 3.303 4.027 4.956 8.054 4.956s8.053-1.652 8.053-4.956v-24.885h6.815l14.146 27.466c1.137 2.168 3.1 2.995 5.164 2.995 4.75 0 10.12-4.337 10.12-8.364.001-.517-.103-1.24-.515-1.859zm-25.506-32.63h-10.223v-19.207h10.223c5.782 0 9.293 2.375 9.293 9.604-.001 7.228-3.511 9.603-9.293 9.603zM185.148 275.975l-12.598-22.821c7.228-2.787 12.494-9.396 12.494-20.961 0-16.832-11.255-22.098-25.401-22.098h-21.374c-2.995 0-4.957 2.271-4.957 4.853v65.674c0 3.304 4.027 4.956 8.054 4.956s8.053-1.652 8.053-4.956v-24.885h6.815l14.146 27.466c1.137 2.168 3.1 2.995 5.164 2.995 4.75 0 10.12-4.337 10.12-8.364 0-.517-.104-1.24-.516-1.859zm-25.505-32.63h-10.223v-19.207h10.223c5.782 0 9.292 2.375 9.292 9.604 0 7.228-3.51 9.603-9.292 9.603zM245.654 271.534h-27.674v-17.554h15.49c3.408 0 4.853-3.305 4.853-6.092 0-3.305-1.755-6.299-4.853-6.299h-15.49v-17.451h27.674c3.097 0 4.854-3.304 4.854-7.124 0-3.305-1.446-6.918-4.854-6.918h-36.76c-3.512 0-7.022 1.651-7.022 4.956v65.57c0 3.304 3.512 4.956 7.022 4.956h36.76c3.408 0 4.854-3.614 4.854-6.918 0-3.821-1.757-7.126-4.854-7.126zM310.495 210.095c-4.027 0-8.053 1.445-8.053 4.853v35.109l-16.728-31.907c-3.925-7.538-6.093-8.054-11.875-8.054-4.028 0-8.054 1.548-8.054 4.956v65.57c0 3.304 4.027 4.956 8.054 4.956s8.053-1.652 8.053-4.956v-35.108l19.619 35.728c1.962 3.615 5.266 4.337 8.983 4.336 4.027 0 8.054-1.652 8.054-4.956v-65.673c.002-3.408-4.026-4.854-8.053-4.854zM382.667 210.095h-44.607c-3.408 0-4.854 3.717-4.854 7.124 0 3.924 1.756 7.331 4.854 7.331h14.25v56.07c0 3.304 4.027 4.956 8.053 4.956 4.027 0 8.053-1.652 8.053-4.956v-56.07h14.25c3.097 0 4.854-3.407 4.854-7.331.001-3.406-1.445-7.124-4.853-7.124z"/></svg>