<svg xmlns="http://www.w3.org/2000/svg" viewBox="0 0 512 512"><path d="M447.327 38.482h-137.837v-28.283c0-5.633-4.567-10.199-10.199-10.199h-86.584c-5.632 0-10.199 4.566-10.199 10.199v28.282h-137.836c-23.46 0-42.546 19.086-42.546 42.546v227.767c0 23.459 19.086 42.546 42.546 42.546h137.837v150.461c0 5.633 4.567 10.199 10.199 10.199h86.584c5.632 0 10.199-4.566 10.199-10.199v-150.461h137.837c23.46 0 42.546-19.086 42.546-42.546v-227.766c-.001-23.461-19.086-42.546-42.547-42.546zm-224.42-18.084h66.186v18.083h-66.186v-18.083zm66.185 471.204h-66.186v-140.262h66.186v140.262zm180.383-182.808c0 12.213-9.935 22.148-22.148 22.148h-382.655c-12.213 0-22.148-9.935-22.148-22.148v-227.766c0-12.213 9.935-22.148 22.148-22.148h382.656c12.213 0 22.148 9.935 22.148 22.148v227.766zM271.298 375.331c-5.632 0-10.199 4.566-10.199 10.199v4.08c0 5.633 4.567 10.199 10.199 10.199s10.199-4.566 10.199-10.199v-4.08c.001-5.633-4.567-10.199-10.199-10.199zM271.298 408.988c-5.632 0-10.199 4.566-10.199 10.199v54.056c0 5.633 4.567 10.199 10.199 10.199s10.199-4.566 10.199-10.199v-54.056c.001-5.633-4.567-10.199-10.199-10.199zM208.673 104.025h-35.831c-3.513 0-7.022 1.651-7.022 4.956h.001v65.57c0 3.304 4.026 4.956 8.053 4.956s8.053-1.652 8.053-4.956v-26.641h15.594c3.407 0 4.853-3.305 4.853-6.092 0-3.305-1.755-6.299-4.853-6.299h-15.594v-17.451h26.745c3.098 0 4.853-3.304 4.853-7.124.001-3.306-1.445-6.919-4.852-6.919zM251.008 104.024c-14.251 0-25.299 6.608-25.299 24.369v27.363c0 17.761 11.048 24.369 25.299 24.369 14.248 0 25.4-6.608 25.4-24.369v-27.363c0-17.761-11.151-24.369-25.4-24.369zm9.292 24.369v27.363c0 7.125-3.512 10.326-9.292 10.326-5.783 0-9.191-3.201-9.191-10.326v-27.363c0-7.125 3.409-10.327 9.191-10.327 5.781 0 9.293 3.202 9.292 10.327zM346.826 169.903l-12.598-22.821c7.227-2.787 12.494-9.397 12.494-20.961 0-16.832-11.255-22.098-25.402-22.098h-21.374c-2.993 0-4.956 2.271-4.956 4.853v65.674c0 3.304 4.026 4.956 8.053 4.956 4.028 0 8.053-1.652 8.053-4.956v-24.885h6.815l14.147 27.466c1.136 2.168 3.099 2.995 5.164 2.995 4.749 0 10.12-4.337 10.12-8.364.001-.516-.104-1.239-.516-1.859zm-25.507-32.63h-10.223v-19.207h10.223c5.783 0 9.293 2.375 9.293 9.604 0 7.229-3.51 9.603-9.293 9.603zM151.368 226.243c0-3.201 2.995-6.196 10.327-6.196 8.466 0 10.428 3.924 14.145 3.924 4.544 0 6.402-5.68 6.402-8.467 0-8.054-15.075-9.086-20.547-9.086-12.908 0-26.434 5.885-26.434 21.375 0 24.162 32.733 21.995 32.733 34.489 0 4.956-5.267 6.814-10.016 6.816-9.604 0-12.701-7.641-17.556-7.641-3.923 0-7.02 5.163-7.02 8.673 0 6.815 11.358 13.423 24.884 13.423 14.972 0 25.815-8.054 25.815-22.924 0-26.023-32.733-24.061-32.733-34.386zM254.932 274.774l-19.309-62.987c-1.135-3.615-5.783-5.37-10.532-5.37-4.751 0-9.399 1.755-10.534 5.37l-19.205 62.987c-.103.414-.207.826-.207 1.136 0 3.821 5.886 6.608 10.328 6.608 2.581 0 4.646-.826 5.265-2.995l3.512-12.907h21.786l3.512 12.907c.619 2.168 2.683 2.995 5.265 2.995 4.441 0 10.327-2.787 10.327-6.608-.001-.31-.104-.723-.208-1.136zm-37.381-20.549l7.54-27.674 7.538 27.674h-15.078zM309.032 268.475h-23.542v-56.585c0-3.408-4.028-4.853-8.053-4.853-4.028 0-8.055 1.445-8.055 4.853v65.673c0 3.304 3.513 4.956 7.022 4.956h32.628c3.097 0 4.648-3.511 4.648-7.021 0-3.513-1.55-7.023-4.648-7.023zM372.225 268.475h-27.674v-17.554h15.489c3.409 0 4.853-3.305 4.853-6.092 0-3.305-1.755-6.299-4.853-6.299h-15.489v-17.451h27.674c3.097 0 4.853-3.304 4.853-7.124 0-3.305-1.446-6.918-4.853-6.918h-36.761c-3.511 0-7.022 1.651-7.022 4.956v65.57c0 3.304 3.513 4.956 7.022 4.956h36.761c3.406 0 4.853-3.614 4.853-6.918-.001-3.822-1.756-7.126-4.853-7.126z"/></svg>