<svg viewBox="0 -18 511.99961 511" xmlns="http://www.w3.org/2000/svg"><path d="M245.59 118.461c-3.059 0-4.215-.645-12.328-5.699-3.891-2.422-9.887-6.281-16.355-10.895-17.328-12.355-27.938-22.742-32.445-31.754-5.508-11.012-7.145-23.535-4.609-35.262 2.543-11.77 8.934-21.648 17.992-27.82 8.969-6.113 19.492-7.984 30.434-5.406 7.727 1.82 12.609 5.684 17.316 10.406 4.703-4.723 9.586-8.586 17.313-10.406 10.941-2.578 21.465-.707 30.438 5.406 9.055 6.172 15.441 16.051 17.988 27.82 2.531 11.73.895 24.25-4.609 35.262-4.508 9.012-15.121 19.398-32.445 31.754-6.469 4.617-12.465 8.473-16.355 10.895-8.117 5.055-9.27 5.699-12.332 5.699zm-26.684-97.949c-3.547 0-6.828 1.016-9.801 3.043-4.805 3.273-8.25 8.785-9.707 15.52-1.574 7.293-.527 15.137 2.949 22.09 5.539 11.082 31.555 28.621 43.242 35.75 11.688-7.129 37.703-24.668 43.242-35.75 3.477-6.953 4.523-14.797 2.949-22.09-1.457-6.734-4.902-12.246-9.703-15.52-4.273-2.91-9.176-3.738-14.586-2.465-3.723.875-5.617 2.746-11.051 8.523-1.133 1.203-2.344 2.488-3.676 3.859-1.883 1.941-4.473 3.035-7.176 3.035s-5.293-1.094-7.176-3.035c-1.332-1.371-2.543-2.656-3.676-3.859-5.434-5.777-7.328-7.648-11.051-8.523-1.641-.387-3.234-.578-4.781-.578zm0 0M165.699 321.43c-.648 0-1.301-.07-1.949-.199-.641-.133-1.27-.32-1.871-.57-.598-.25-1.18-.563-1.73-.922-.539-.359-1.059-.781-1.52-1.238-.457-.461-.879-.98-1.238-1.52-.359-.551-.672-1.133-.922-1.73-.25-.602-.438-1.23-.57-1.871-.129-.648-.188-1.301-.188-1.961 0-2.629 1.059-5.211 2.918-7.07.461-.461.98-.867 1.52-1.238.551-.359 1.133-.672 1.73-.922.602-.25 1.23-.438 1.871-.57 1.289-.258 2.621-.258 3.91 0 .641.133 1.27.32 1.871.57.598.25 1.18.563 1.73.922.539.371 1.059.777 1.52 1.238 1.859 1.871 2.93 4.441 2.93 7.07 0 .66-.07 1.313-.199 1.961-.133.641-.32 1.27-.57 1.871-.25.598-.563 1.18-.922 1.73-.371.539-.781 1.047-1.238 1.52-.461.457-.98.879-1.52 1.238-.551.359-1.133.672-1.73.922-.602.25-1.23.438-1.871.57-.648.129-1.301.199-1.961.199zm0 0M511.984 432.277c-.625-22.719-19.934-41.203-43.047-41.203h-2.902v-117.813l2.617 1.922c1.75 1.285 3.828 1.941 5.922 1.941 1.539 0 3.086-.355 4.516-1.078 3.363-1.703 5.48-5.152 5.48-8.922v-49.914c0-3.184-1.512-6.176-4.078-8.059l-134-98.438c-3.523-2.59-8.32-2.59-11.84 0l-60.137 44.176v-15.504c0-5.523-4.48-10-10-10h-37.852c-5.52 0-10 4.477-10 10v57.996l-16.016 11.77c-2.563 1.883-4.078 4.875-4.078 8.059v19.176c-32.742-14.227-80.68-13.203-109.57-10.852v-9.469c0-5.523-4.477-10-10-10h-67c-5.523 0-10 4.477-10 10v159.5c0 5.52 4.477 10 10 10h67c5.523 0 10-4.48 10-10v-24.145h14.559c1.508 3.895 4.336 13.129 7.879 33.711 10.055 58.453 45.59 90.645 100.055 90.645l260.121.066c11.543 0 22.332-4.555 30.383-12.828 8.047-8.27 12.305-19.188 11.988-30.738zm-65.945-41.203h-57.691v-100.395c0-5.523-4.48-10-10-10h-75.551c-5.523 0-10 4.477-10 10v24.766l-61.941-54 109.707-80.355 105.473 77.477zm-78.887 0c-2.023-8.984-6.969-17.367-14.66-23.586l-39.695-34.609v-32.195h55.551v90.391zm-130.484-241.688h17.848v20.195l-17.848 13.109zm-20.098 72.887l124-91.09 124 91.09v25.098l-118.078-86.742c-1.762-1.297-3.84-1.941-5.922-1.941-2.074 0-4.148.645-5.91 1.934l-118.09 86.496zm-149.57 143.293h-47v-139.5h47zm418.66 83.504c-4.25 4.367-9.949 6.773-16.043 6.773l-260.125-.066c-55.879 0-74.535-40.262-80.348-74.035-2.359-13.711-4.75-24.555-7.109-32.223-1.945-6.324-5.566-18.098-15.723-18.098h-19.313v-85.813c28.941-2.441 91.102-4.668 115.758 17.867l.172.156 136.57 119.059.32.27c9.641 7.715 11.203 21.828 3.492 31.465-3.738 4.668-9.066 7.605-15.012 8.266-5.949.656-11.785-1.039-16.406-4.734l-114.262-92.672c-4.289-3.477-10.586-2.82-14.066 1.469-3.48 4.289-2.824 10.586 1.465 14.066l114.316 92.711c7.59 6.074 16.82 9.301 26.402 9.301 1.578 0 3.164-.09 4.754-.266 11.254-1.246 21.348-6.805 28.422-15.645 3.855-4.816 6.488-10.227 7.938-15.852h102.074c12.383 0 22.723 9.758 23.051 21.754.168 6.109-2.078 11.875-6.328 16.246zm0 0"/></svg>