<svg xmlns="http://www.w3.org/2000/svg" viewBox="0 0 300 300"><path d="M287.305 243.005c-.136-1.772-.928-3.476-2.227-4.747l-112.243-112.243c4.416-10.403 6.747-21.669 6.747-33.312 0-22.754-8.875-44.163-24.938-60.266-16.086-16.071-37.48-24.937-60.247-24.937-22.778 0-44.135 8.869-60.247 24.95-33.243 33.225-33.25 87.266-.005 120.488 16.111 16.115 37.475 24.99 60.241 24.99 11.646 0 22.884-2.35 33.312-6.772l36.874 36.902c1.534 1.515 3.557 2.319 5.74 2.248l20.095-.705-.656 20.145c-.062 2.125.705 4.193 2.245 5.706 1.484 1.512 3.569 2.334 5.685 2.248l20.169-.689-.724 20.123c-.063 2.127.754 4.199 2.238 5.712 1.534 1.512 3.321 2.325 5.74 2.251l20.119-.684-.674 20.126c-.118 2.232.822 4.379 2.418 5.903 1.472 1.339 3.309 2.06 5.245 2.06.278 0 .563-.012.847-.037l30.851-3.426c4.169-.455 7.205-4.175 6.847-8.353l-3.452-37.681zm-203.199-160.59c-9.476 9.466-24.796 9.466-34.252 0-9.47-9.469-9.47-24.786 0-34.246 9.456-9.46 24.771-9.469 34.252-.003 9.457 9.459 9.451 24.786 0 34.249zm176.864 163.16c-1.126 1.126-2.635 1.688-4.101 1.688s-2.976-.563-4.101-1.688l-95.501-95.529c2.659-2.867 5.077-5.885 7.273-9.058l96.429 96.41c2.252 2.252 2.252 5.926.001 8.177z"/></svg>