<svg xmlns="http://www.w3.org/2000/svg" viewBox="0 0 512 512"><path d="M472.989 97.384c-6.11-7.743-14.871-12.643-24.669-13.797-20.226-2.386-38.613 12.132-40.999 32.356l-13.66 115.936c-6.987-1.978-14.401-1.846-21.457.46-9.151 2.988-16.631 9.28-21.136 17.757l-72.444 106.029c-4.347 5.772-14.723 19.708-22.626 31.539-7.903-11.831-18.279-25.766-22.626-31.539l-72.443-106.03c-4.505-8.477-11.985-14.767-21.136-17.757-7.057-2.305-14.471-2.44-21.457-.46l-13.66-115.938c-2.386-20.222-20.769-34.741-40.999-32.354-9.796 1.155-18.557 6.054-24.669 13.797-6.111 7.743-8.842 17.404-7.687 27.2l.014.109 14.238 110.509c3.595 27.906 12.636 54.36 26.868 78.627.143.242.294.478.456.708l76.536 108.802c3.659 5.694 6.444 11.871 8.287 18.378v40.735c0 .877.113 1.75.337 2.599 4.447 16.876 20.424 26.95 42.742 26.95h110.4c22.318 0 38.295-10.075 42.741-26.949.223-.849.337-1.722.337-2.599v-40.735c1.843-6.507 4.627-12.684 8.287-18.378l76.536-108.802c.162-.229.314-.466.456-.708 14.232-24.267 23.271-50.721 26.868-78.627l14.238-110.509.014-.109c1.155-9.797-1.575-19.457-7.687-27.2zm-227.188 394.217h-45.001c-7.166 0-19.386-1.417-22.679-10.658v-40.593c0-.876-.112-1.749-.337-2.597-2.399-9.111-6.208-17.741-11.323-25.65l-.223-.33-76.409-108.622c-12.714-21.788-20.797-45.524-24.022-70.555l-14.23-110.45c-.502-4.369.721-8.673 3.446-12.127 2.736-3.466 6.657-5.66 11.043-6.177 9.066-1.061 17.287 5.432 18.353 14.484l14.914 126.586c-7.83 10.374-9.909 24.532-4.321 37.173.266.603.55 1.2.851 1.794.192.379.407.746.646 1.098l29.221 43.297c1.971 2.919 5.187 4.495 8.463 4.495 1.963 0 3.947-.566 5.696-1.746 4.669-3.152 5.9-9.49 2.749-14.16l-28.826-42.71-.145-.317c-3.474-7.864-.308-17.035 7.193-21.144 3.937-1.992 8.411-2.336 12.602-.967 4.198 1.371 7.61 4.295 9.609 8.233.199.394.424.773.673 1.138l72.921 106.728.276.383c11.814 15.679 25.416 34.961 28.861 41.556v81.838zm214.623-369.455l-14.23 110.449c-3.225 25.031-11.308 48.766-24.022 70.555l-76.409 108.622-.223.33c-5.115 7.909-8.924 16.54-11.323 25.65-.224.848-.337 1.721-.337 2.597v40.593c-3.293 9.242-15.513 10.658-22.679 10.658h-45.001v-81.835c3.445-6.595 17.047-25.876 28.861-41.557l.276-.383 72.921-106.728c.249-.364.474-.745.673-1.138 1.999-3.938 5.411-6.862 9.609-8.233 4.192-1.369 8.668-1.025 12.601.967 7.499 4.109 10.666 13.28 7.194 21.14l-.147.321-28.826 42.71c-3.152 4.669-1.921 11.008 2.749 14.16 1.749 1.181 3.733 1.746 5.696 1.746 3.275 0 6.493-1.575 8.463-4.495l29.221-43.297c.238-.353.453-.719.646-1.098.301-.594.584-1.191.853-1.798 5.586-12.639 3.506-26.796-4.323-37.169l14.914-126.585c1.068-9.054 9.283-15.55 18.353-14.486 4.386.517 8.307 2.711 11.043 6.177 2.726 3.455 3.949 7.759 3.447 12.127zM346.28 65.672l-84.129-63.608c-3.639-2.752-8.663-2.752-12.303 0l-84.128 63.609c-2.55 1.928-4.048 4.939-4.048 8.136v139.53c0 5.633 4.567 10.199 10.199 10.199h168.257c5.632 0 10.199-4.566 10.199-10.199v-139.531c.001-3.196-1.498-6.207-4.047-8.136zm-72.099 137.468h-36.362v-68.297h36.362v68.297zm55.748 0h-35.349v-78.496c0-5.633-4.567-10.199-10.199-10.199h-56.761c-5.632 0-10.199 4.566-10.199 10.199v78.496h-35.349v-124.257l73.928-55.898 73.929 55.898v124.257zM284.558 408.988c-5.632 0-10.199 4.566-10.199 10.199v2.04c0 5.633 4.567 10.199 10.199 10.199s10.199-4.566 10.199-10.199v-2.04c0-5.633-4.566-10.199-10.199-10.199zM284.558 440.605c-5.632 0-10.199 4.566-10.199 10.199v24.478c0 5.633 4.567 10.199 10.199 10.199s10.199-4.566 10.199-10.199v-24.478c0-5.633-4.566-10.199-10.199-10.199z"/></svg>