<svg xmlns="http://www.w3.org/2000/svg" viewBox="0 0 286.357 286.357"><path d="M106.073 176.137c-3.866 0-7 3.134-7 7v31.744l-26.627-35.913c-1.799-2.427-4.951-3.424-7.818-2.478-2.868.947-4.805 3.627-4.805 6.647v49.065c0 3.866 3.134 7 7 7s7-3.134 7-7v-27.871l26.627 35.913c1.346 1.815 3.449 2.832 5.624 2.832.732 0 1.472-.115 2.194-.354 2.868-.947 4.805-3.627 4.805-6.647v-52.938c0-3.866-3.134-7-7-7zM219.535 176.137c-3.866 0-7 3.134-7 7v21.757l-4.356-7.938c-1.215-2.214-3.529-3.603-6.056-3.632-2.492-.065-4.872 1.304-6.138 3.49l-5.412 9.341v-23.019c0-3.866-3.134-7-7-7s-7 3.134-7 7v49.065c0 3.167 2.125 5.938 5.183 6.76 3.06.821 6.287-.511 7.874-3.251l12.246-21.138 11.521 20.997c1.25 2.279 3.626 3.633 6.136 3.633.577 0 1.161-.071 1.739-.22 3.096-.794 5.262-3.584 5.262-6.781v-49.065c.001-3.865-3.133-6.999-6.999-6.999zM160.573 190.137c3.866 0 7-3.134 7-7s-3.134-7-7-7h-29.169c-3.866 0-7 3.134-7 7v49.065c0 3.866 3.134 7 7 7h29.169c3.866 0 7-3.134 7-7s-3.134-7-7-7h-22.169v-10.532h22.169c3.866 0 7-3.134 7-7s-3.134-7-7-7h-22.169v-10.533h22.169zM243.103 133.768l-94.244-130.859c-1.316-1.826-3.429-2.909-5.68-2.909s-4.365 1.083-5.68 2.909l-94.245 130.859c-13.039 3.29-22.719 15.114-22.719 29.16v93.356c0 16.583 13.491 30.073 30.074 30.073h185.141c16.583 0 30.074-13.491 30.074-30.073v-93.356c-.001-14.046-9.682-25.87-22.721-29.16zm-99.924-114.79l82.014 113.876h-164.029l82.015-113.876zm108.644 237.306c0 8.863-7.21 16.073-16.074 16.073h-185.141c-8.863 0-16.074-7.21-16.074-16.073v-93.356c0-8.863 7.21-16.073 16.074-16.073h185.141c8.863 0 16.074 7.21 16.074 16.073v93.356zM47.499 152.297c-1.84 0-3.65.74-4.95 2.05-1.31 1.3-2.05 3.1-2.05 4.95 0 1.84.74 3.64 2.05 4.95 1.3 1.3 3.11 2.05 4.95 2.05s3.64-.75 4.95-2.05c1.3-1.31 2.05-3.11 2.05-4.95 0-1.85-.75-3.65-2.05-4.95-1.31-1.31-3.111-2.05-4.95-2.05zM238.858 152.297c-1.84 0-3.65.74-4.95 2.05-1.3 1.3-2.05 3.1-2.05 4.95 0 1.84.75 3.64 2.05 4.95 1.31 1.3 3.11 2.05 4.95 2.05 1.84 0 3.65-.75 4.95-2.05 1.31-1.31 2.05-3.11 2.05-4.95 0-1.85-.74-3.65-2.05-4.95-1.299-1.31-3.109-2.05-4.95-2.05z"/></svg>