<svg xmlns="http://www.w3.org/2000/svg" viewBox="0 0 512.001 512.001"><path d="M471.039 174.352h-138.945l-67.836-93.581c-1.919-2.647-4.989-4.213-8.258-4.213s-6.339 1.567-8.258 4.213l-67.836 93.581h-138.945c-22.586 0-40.961 18.375-40.961 40.961v179.169c0 22.586 18.375 40.961 40.961 40.961h430.079c22.586 0 40.961-18.375 40.961-40.961v-179.169c-.001-22.586-18.376-40.961-40.962-40.961zm-215.039-70.217l50.899 70.216h-101.799l50.9-70.216zm235.603 290.347h-.001c0 11.338-9.224 20.563-20.563 20.563h-430.078c-11.338 0-20.563-9.224-20.563-20.563v-179.169c0-11.338 9.224-20.563 20.563-20.563h430.079c11.338 0 20.563 9.224 20.563 20.563v179.169zM372.566 383.243h-4.484c-5.633 0-10.199 4.566-10.199 10.199s4.566 10.199 10.199 10.199h4.484c5.633 0 10.199-4.566 10.199-10.199s-4.566-10.199-10.199-10.199zM464.472 383.243h-59.403c-5.633 0-10.199 4.566-10.199 10.199s4.566 10.199 10.199 10.199h59.403c5.633 0 10.199-4.566 10.199-10.199s-4.566-10.199-10.199-10.199zM151.086 288.459c0-3.202 2.994-6.196 10.326-6.196 8.467 0 10.429 3.924 14.146 3.924 4.543 0 6.402-5.68 6.402-8.467 0-8.054-15.076-9.086-20.548-9.086-12.907 0-26.434 5.885-26.434 21.375 0 24.162 32.733 21.995 32.733 34.489 0 4.956-5.267 6.814-10.016 6.816-9.604 0-12.701-7.641-17.555-7.641-3.924 0-7.021 5.163-7.021 8.673 0 6.815 11.358 13.423 24.885 13.423 14.972 0 25.815-8.054 25.815-22.924 0-26.023-32.733-24.061-32.733-34.386zM224.499 269.251c-14.25 0-25.299 6.608-25.299 24.369v27.363c0 17.761 11.049 24.369 25.299 24.369 14.248 0 25.401-6.608 25.401-24.369v-27.363c0-17.761-11.152-24.369-25.401-24.369zm9.292 51.733c0 7.125-3.511 10.326-9.292 10.326-5.783 0-9.191-3.201-9.191-10.326v-27.364c0-7.125 3.408-10.327 9.191-10.327 5.782 0 9.292 3.202 9.292 10.327v27.364zM308.131 330.69h-23.543v-56.585c0-3.408-4.027-4.853-8.053-4.853-4.028 0-8.054 1.445-8.054 4.853v65.673c0 3.304 3.512 4.956 7.022 4.956h32.628c3.097 0 4.648-3.511 4.648-7.021 0-3.512-1.55-7.023-4.648-7.023zM352.839 269.251h-18.277c-4.235 0-7.022 2.271-7.022 4.853v65.777c0 2.58 2.788 4.853 7.022 4.853h18.277c14.249 0 25.401-6.608 25.401-24.369v-26.745c.001-17.761-11.15-24.369-25.401-24.369zm9.294 51.114c0 7.021-3.51 10.326-9.292 10.326h-9.19v-47.397h9.19c5.783 0 9.292 3.305 9.292 10.327v26.744z"/></svg>